<?xml version="1.0" encoding="UTF-8" standalone="no"?>
<!DOCTYPE svg PUBLIC "-//W3C//DTD SVG 1.1//EN"
 "http://www.w3.org/Graphics/SVG/1.1/DTD/svg11.dtd">
<!-- Generated by graphviz version 2.44.0 (0)
 -->
<!-- Title: CFG_14 Pages: 1 -->
<svg width="1757pt" height="789pt"
 viewBox="0.00 0.00 1757.00 788.50" xmlns="http://www.w3.org/2000/svg" xmlns:xlink="http://www.w3.org/1999/xlink">
<g id="graph0" class="graph" transform="scale(1 1) rotate(0) translate(4 784.5)">
<title>CFG_14</title>
<polygon fill="white" stroke="transparent" points="-4,4 -4,-784.5 1753,-784.5 1753,4 -4,4"/>
<text text-anchor="middle" x="146" y="-760.5" font-family="Times-Roman" font-size="20.00">java.lang.String.hashCode()</text>
<!-- b0 -->
<g id="node1" class="node">
<title>b0</title>
<polygon fill="white" stroke="black" points="176,-396 0,-396 0,-344 176,-344 176,-396"/>
<text text-anchor="middle" x="88" y="-384" font-family="Helvetica" font-size="10.00">B0</text>
<text text-anchor="middle" x="88" y="-373" font-family="Helvetica" font-size="10.00">Loop: &lt;none&gt;</text>
<text text-anchor="middle" x="88" y="-362" font-family="Helvetica" font-size="10.00">&#45;&#45;&#45;</text>
<text text-anchor="middle" x="88" y="-351" font-family="Helvetica" font-size="10.00">HotSpotMethod&lt;String.hashCode()&gt;</text>
</g>
<!-- b1 -->
<g id="node2" class="node">
<title>b1</title>
<polygon fill="white" stroke="black" points="460,-469 284,-469 284,-417 460,-417 460,-469"/>
<text text-anchor="middle" x="372" y="-457" font-family="Helvetica" font-size="10.00">B1</text>
<text text-anchor="middle" x="372" y="-446" font-family="Helvetica" font-size="10.00">Loop: &lt;none&gt;</text>
<text text-anchor="middle" x="372" y="-435" font-family="Helvetica" font-size="10.00">&#45;&#45;&#45;</text>
<text text-anchor="middle" x="372" y="-424" font-family="Helvetica" font-size="10.00">HotSpotMethod&lt;String.hashCode()&gt;</text>
</g>
<!-- b0&#45;&gt;b1 -->
<g id="edge1" class="edge">
<title>b0&#45;&gt;b1</title>
<path fill="none" stroke="black" d="M176.3,-392.6C207.23,-400.6 242.21,-409.66 273.91,-417.87"/>
<polygon fill="black" stroke="black" points="273.07,-421.27 283.63,-420.38 274.83,-414.49 273.07,-421.27"/>
</g>
<!-- b9 -->
<g id="node10" class="node">
<title>b9</title>
<polygon fill="white" stroke="black" points="1749,-323 1573,-323 1573,-271 1749,-271 1749,-323"/>
<text text-anchor="middle" x="1661" y="-311" font-family="Helvetica" font-size="10.00">B9</text>
<text text-anchor="middle" x="1661" y="-300" font-family="Helvetica" font-size="10.00">Loop: &lt;none&gt;</text>
<text text-anchor="middle" x="1661" y="-289" font-family="Helvetica" font-size="10.00">&#45;&#45;&#45;</text>
<text text-anchor="middle" x="1661" y="-278" font-family="Helvetica" font-size="10.00">HotSpotMethod&lt;String.hashCode()&gt;</text>
</g>
<!-- b0&#45;&gt;b9 -->
<g id="edge2" class="edge">
<title>b0&#45;&gt;b9</title>
<path fill="none" stroke="black" d="M176.27,-352.42C291.31,-330.82 500.2,-297 680.5,-297 680.5,-297 680.5,-297 1017.5,-297 1210.76,-297 1436.71,-297 1562.59,-297"/>
<polygon fill="black" stroke="black" points="1562.97,-300.5 1572.97,-297 1562.97,-293.5 1562.97,-300.5"/>
</g>
<!-- b2 -->
<g id="node3" class="node">
<title>b2</title>
<polygon fill="white" stroke="black" points="795,-615.5 568,-615.5 568,-552.5 795,-552.5 795,-615.5"/>
<text text-anchor="middle" x="681.5" y="-603.5" font-family="Helvetica" font-size="10.00">B2</text>
<text text-anchor="middle" x="681.5" y="-592.5" font-family="Helvetica" font-size="10.00">Loop: &lt;none&gt;</text>
<text text-anchor="middle" x="681.5" y="-581.5" font-family="Helvetica" font-size="10.00">&#45;&#45;&#45;</text>
<text text-anchor="middle" x="681.5" y="-570.5" font-family="Helvetica" font-size="10.00">HotSpotMethod&lt;String.hashCode()&gt;</text>
<text text-anchor="middle" x="681.5" y="-559.5" font-family="Helvetica" font-size="10.00">HotSpotMethod&lt;StringLatin1.hashCode(byte[])&gt;</text>
</g>
<!-- b1&#45;&gt;b2 -->
<g id="edge3" class="edge">
<title>b1&#45;&gt;b2</title>
<path fill="none" stroke="black" d="M429.76,-469.03C478.32,-491.29 548.69,-523.56 602.53,-548.25"/>
<polygon fill="black" stroke="black" points="601.15,-551.47 611.7,-552.45 604.07,-545.1 601.15,-551.47"/>
</g>
<!-- b1&#45;&gt;b9 -->
<g id="edge4" class="edge">
<title>b1&#45;&gt;b9</title>
<path fill="none" stroke="black" d="M460.09,-441.4C646.08,-436.74 1095.28,-418.91 1465,-352 1500.13,-345.64 1538.05,-335.68 1571.03,-325.98"/>
<polygon fill="black" stroke="black" points="1572.06,-329.32 1580.64,-323.11 1570.06,-322.61 1572.06,-329.32"/>
</g>
<!-- b3 -->
<g id="node4" class="node">
<title>b3</title>
<polygon fill="white" stroke="black" points="1130,-750.5 903,-750.5 903,-687.5 1130,-687.5 1130,-750.5"/>
<text text-anchor="middle" x="1016.5" y="-738.5" font-family="Helvetica" font-size="10.00">B3</text>
<text text-anchor="middle" x="1016.5" y="-727.5" font-family="Helvetica" font-size="10.00">Loop: &lt;none&gt;</text>
<text text-anchor="middle" x="1016.5" y="-716.5" font-family="Helvetica" font-size="10.00">&#45;&#45;&#45;</text>
<text text-anchor="middle" x="1016.5" y="-705.5" font-family="Helvetica" font-size="10.00">HotSpotMethod&lt;String.hashCode()&gt;</text>
<text text-anchor="middle" x="1016.5" y="-694.5" font-family="Helvetica" font-size="10.00">HotSpotMethod&lt;StringLatin1.hashCode(byte[])&gt;</text>
</g>
<!-- b2&#45;&gt;b3 -->
<g id="edge5" class="edge">
<title>b2&#45;&gt;b3</title>
<path fill="none" stroke="black" d="M760.57,-615.65C810.79,-636.01 876.13,-662.5 928.09,-683.56"/>
<polygon fill="black" stroke="black" points="927.05,-686.92 937.63,-687.43 929.68,-680.43 927.05,-686.92"/>
</g>
<!-- b6 -->
<g id="node7" class="node">
<title>b6</title>
<polygon fill="white" stroke="black" points="1130,-615.5 903,-615.5 903,-552.5 1130,-552.5 1130,-615.5"/>
<text text-anchor="middle" x="1016.5" y="-603.5" font-family="Helvetica" font-size="10.00">B6</text>
<text text-anchor="middle" x="1016.5" y="-592.5" font-family="Helvetica" font-size="10.00">Loop: &lt;none&gt;</text>
<text text-anchor="middle" x="1016.5" y="-581.5" font-family="Helvetica" font-size="10.00">&#45;&#45;&#45;</text>
<text text-anchor="middle" x="1016.5" y="-570.5" font-family="Helvetica" font-size="10.00">HotSpotMethod&lt;String.hashCode()&gt;</text>
<text text-anchor="middle" x="1016.5" y="-559.5" font-family="Helvetica" font-size="10.00">HotSpotMethod&lt;StringLatin1.hashCode(byte[])&gt;</text>
</g>
<!-- b2&#45;&gt;b6 -->
<g id="edge6" class="edge">
<title>b2&#45;&gt;b6</title>
<path fill="none" stroke="black" d="M795.24,-584C826.57,-584 860.74,-584 892.61,-584"/>
<polygon fill="black" stroke="black" points="892.88,-587.5 902.88,-584 892.88,-580.5 892.88,-587.5"/>
</g>
<!-- b4 -->
<g id="node5" class="node">
<title>b4</title>
<polygon fill="white" stroke="black" points="1439.5,-745 1263.5,-745 1263.5,-693 1439.5,-693 1439.5,-745"/>
<text text-anchor="middle" x="1351.5" y="-733" font-family="Helvetica" font-size="10.00">B4</text>
<text text-anchor="middle" x="1351.5" y="-722" font-family="Helvetica" font-size="10.00">Loop: &lt;none&gt;</text>
<text text-anchor="middle" x="1351.5" y="-711" font-family="Helvetica" font-size="10.00">&#45;&#45;&#45;</text>
<text text-anchor="middle" x="1351.5" y="-700" font-family="Helvetica" font-size="10.00">HotSpotMethod&lt;String.hashCode()&gt;</text>
</g>
<!-- b3&#45;&gt;b4 -->
<g id="edge7" class="edge">
<title>b3&#45;&gt;b4</title>
<path fill="none" stroke="black" d="M1130.24,-719C1170.16,-719 1214.71,-719 1253.23,-719"/>
<polygon fill="black" stroke="black" points="1253.41,-722.5 1263.41,-719 1253.41,-715.5 1253.41,-722.5"/>
</g>
<!-- b5 -->
<g id="node6" class="node">
<title>b5</title>
<polygon fill="white" stroke="black" points="1439.5,-613 1263.5,-613 1263.5,-561 1439.5,-561 1439.5,-613"/>
<text text-anchor="middle" x="1351.5" y="-601" font-family="Helvetica" font-size="10.00">B5</text>
<text text-anchor="middle" x="1351.5" y="-590" font-family="Helvetica" font-size="10.00">Loop: &lt;none&gt;</text>
<text text-anchor="middle" x="1351.5" y="-579" font-family="Helvetica" font-size="10.00">&#45;&#45;&#45;</text>
<text text-anchor="middle" x="1351.5" y="-568" font-family="Helvetica" font-size="10.00">HotSpotMethod&lt;String.hashCode()&gt;</text>
</g>
<!-- b3&#45;&gt;b5 -->
<g id="edge8" class="edge">
<title>b3&#45;&gt;b5</title>
<path fill="none" stroke="black" d="M1097.26,-687.38C1151.35,-665.94 1222.39,-637.78 1275.46,-616.75"/>
<polygon fill="black" stroke="black" points="1276.81,-619.98 1284.81,-613.04 1274.23,-613.47 1276.81,-619.98"/>
</g>
<!-- b5&#45;&gt;b9 -->
<g id="edge9" class="edge">
<title>b5&#45;&gt;b9</title>
<path fill="none" stroke="black" d="M1387.93,-560.87C1410.58,-543.71 1440.24,-520.38 1465,-498 1526.5,-442.41 1592.59,-371.7 1629.86,-330.68"/>
<polygon fill="black" stroke="black" points="1632.58,-332.89 1636.7,-323.13 1627.39,-328.19 1632.58,-332.89"/>
</g>
<!-- b7 -->
<g id="node8" class="node">
<title>b7</title>
<polygon fill="white" stroke="black" points="1465,-187.5 1238,-187.5 1238,-124.5 1465,-124.5 1465,-187.5"/>
<text text-anchor="middle" x="1351.5" y="-175.5" font-family="Helvetica" font-size="10.00">B7</text>
<text text-anchor="middle" x="1351.5" y="-164.5" font-family="Helvetica" font-size="10.00">Loop: &lt;none&gt;</text>
<text text-anchor="middle" x="1351.5" y="-153.5" font-family="Helvetica" font-size="10.00">&#45;&#45;&#45;</text>
<text text-anchor="middle" x="1351.5" y="-142.5" font-family="Helvetica" font-size="10.00">HotSpotMethod&lt;StringLatin1.hashCode(byte[])&gt;</text>
<text text-anchor="middle" x="1351.5" y="-131.5" font-family="Helvetica" font-size="10.00">HotSpotMethod&lt;String.hashCode()&gt;</text>
</g>
<!-- b7&#45;&gt;b9 -->
<g id="edge10" class="edge">
<title>b7&#45;&gt;b9</title>
<path fill="none" stroke="black" d="M1421.51,-187.64C1473.02,-211.26 1542.98,-243.34 1593.8,-266.65"/>
<polygon fill="black" stroke="black" points="1592.51,-269.9 1603.06,-270.89 1595.43,-263.54 1592.51,-269.9"/>
</g>
<!-- b8 -->
<g id="node9" class="node">
<title>b8</title>
<polygon fill="white" stroke="black" points="1439.5,-52 1263.5,-52 1263.5,0 1439.5,0 1439.5,-52"/>
<text text-anchor="middle" x="1351.5" y="-40" font-family="Helvetica" font-size="10.00">B8</text>
<text text-anchor="middle" x="1351.5" y="-29" font-family="Helvetica" font-size="10.00">Loop: &lt;none&gt;</text>
<text text-anchor="middle" x="1351.5" y="-18" font-family="Helvetica" font-size="10.00">&#45;&#45;&#45;</text>
<text text-anchor="middle" x="1351.5" y="-7" font-family="Helvetica" font-size="10.00">HotSpotMethod&lt;String.hashCode()&gt;</text>
</g>
<!-- b8&#45;&gt;b9 -->
<g id="edge11" class="edge">
<title>b8&#45;&gt;b9</title>
<path fill="none" stroke="black" d="M1407.89,-52.04C1426.81,-62.08 1447.58,-74.43 1465,-88 1533.04,-141.01 1598.57,-218.37 1633.64,-262.59"/>
<polygon fill="black" stroke="black" points="1631.1,-265.02 1640.03,-270.71 1636.6,-260.69 1631.1,-265.02"/>
</g>
</g>
</svg>
