<?xml version="1.0" encoding="UTF-8" standalone="no"?>
<!DOCTYPE svg PUBLIC "-//W3C//DTD SVG 1.1//EN"
 "http://www.w3.org/Graphics/SVG/1.1/DTD/svg11.dtd">
<!-- Generated by graphviz version 2.44.0 (0)
 -->
<!-- Title: CFG_30 Pages: 1 -->
<svg width="3204pt" height="521pt"
 viewBox="0.00 0.00 3204.00 521.00" xmlns="http://www.w3.org/2000/svg" xmlns:xlink="http://www.w3.org/1999/xlink">
<g id="graph0" class="graph" transform="scale(1 1) rotate(0) translate(4 517)">
<title>CFG_30</title>
<polygon fill="white" stroke="transparent" points="-4,4 -4,-517 3200,-517 3200,4 -4,4"/>
<text text-anchor="middle" x="286.5" y="-493" font-family="Times-Roman" font-size="20.00">java.util.ImmutableCollections$SetN$SetNIterator.next()</text>
<!-- b0 -->
<g id="node1" class="node">
<title>b0</title>
<polygon fill="white" stroke="black" points="305,-114 0,-114 0,-62 305,-62 305,-114"/>
<text text-anchor="middle" x="152.5" y="-102" font-family="Helvetica" font-size="10.00">B0</text>
<text text-anchor="middle" x="152.5" y="-91" font-family="Helvetica" font-size="10.00">Loop: &lt;none&gt;</text>
<text text-anchor="middle" x="152.5" y="-80" font-family="Helvetica" font-size="10.00">&#45;&#45;&#45;</text>
<text text-anchor="middle" x="152.5" y="-69" font-family="Helvetica" font-size="10.00">HotSpotMethod&lt;ImmutableCollections$SetN$SetNIterator.next()&gt;</text>
</g>
<!-- b1 -->
<g id="node2" class="node">
<title>b1</title>
<polygon fill="white" stroke="black" points="718,-181 413,-181 413,-129 718,-129 718,-181"/>
<text text-anchor="middle" x="565.5" y="-169" font-family="Helvetica" font-size="10.00">B1</text>
<text text-anchor="middle" x="565.5" y="-158" font-family="Helvetica" font-size="10.00">Loop: &lt;none&gt;</text>
<text text-anchor="middle" x="565.5" y="-147" font-family="Helvetica" font-size="10.00">&#45;&#45;&#45;</text>
<text text-anchor="middle" x="565.5" y="-136" font-family="Helvetica" font-size="10.00">HotSpotMethod&lt;ImmutableCollections$SetN$SetNIterator.next()&gt;</text>
</g>
<!-- b0&#45;&gt;b1 -->
<g id="edge1" class="edge">
<title>b0&#45;&gt;b1</title>
<path fill="none" stroke="black" d="M305.08,-112.71C336.91,-117.9 370.59,-123.39 402.77,-128.64"/>
<polygon fill="black" stroke="black" points="402.27,-132.1 412.7,-130.25 403.4,-125.19 402.27,-132.1"/>
</g>
<!-- b12 -->
<g id="node13" class="node">
<title>b12</title>
<polygon fill="white" stroke="black" points="718,-52 413,-52 413,0 718,0 718,-52"/>
<text text-anchor="middle" x="565.5" y="-40" font-family="Helvetica" font-size="10.00">B12</text>
<text text-anchor="middle" x="565.5" y="-29" font-family="Helvetica" font-size="10.00">Loop: &lt;none&gt;</text>
<text text-anchor="middle" x="565.5" y="-18" font-family="Helvetica" font-size="10.00">&#45;&#45;&#45;</text>
<text text-anchor="middle" x="565.5" y="-7" font-family="Helvetica" font-size="10.00">HotSpotMethod&lt;ImmutableCollections$SetN$SetNIterator.next()&gt;</text>
</g>
<!-- b0&#45;&gt;b12 -->
<g id="edge2" class="edge">
<title>b0&#45;&gt;b12</title>
<path fill="none" stroke="black" d="M305.08,-65.13C336.91,-60.33 370.59,-55.25 402.77,-50.4"/>
<polygon fill="black" stroke="black" points="403.34,-53.85 412.7,-48.9 402.29,-46.93 403.34,-53.85"/>
</g>
<!-- b2 -->
<g id="node3" class="node">
<title>b2</title>
<polygon fill="white" stroke="black" points="1131,-181 826,-181 826,-129 1131,-129 1131,-181"/>
<text text-anchor="middle" x="978.5" y="-169" font-family="Helvetica" font-size="10.00">B2</text>
<text text-anchor="middle" x="978.5" y="-158" font-family="Helvetica" font-size="10.00">Loop: &lt;none&gt;</text>
<text text-anchor="middle" x="978.5" y="-147" font-family="Helvetica" font-size="10.00">&#45;&#45;&#45;</text>
<text text-anchor="middle" x="978.5" y="-136" font-family="Helvetica" font-size="10.00">HotSpotMethod&lt;ImmutableCollections$SetN$SetNIterator.next()&gt;</text>
</g>
<!-- b1&#45;&gt;b2 -->
<g id="edge3" class="edge">
<title>b1&#45;&gt;b2</title>
<path fill="none" stroke="black" d="M718.08,-155C749.77,-155 783.3,-155 815.35,-155"/>
<polygon fill="black" stroke="black" points="815.7,-158.5 825.7,-155 815.7,-151.5 815.7,-158.5"/>
</g>
<!-- b3 -->
<g id="node4" class="node">
<title>b3</title>
<polygon fill="white" stroke="black" points="1131,-305 826,-305 826,-253 1131,-253 1131,-305"/>
<text text-anchor="middle" x="978.5" y="-293" font-family="Helvetica" font-size="10.00">B3</text>
<text text-anchor="middle" x="978.5" y="-282" font-family="Helvetica" font-size="10.00">Loop: &lt;none&gt;</text>
<text text-anchor="middle" x="978.5" y="-271" font-family="Helvetica" font-size="10.00">&#45;&#45;&#45;</text>
<text text-anchor="middle" x="978.5" y="-260" font-family="Helvetica" font-size="10.00">HotSpotMethod&lt;ImmutableCollections$SetN$SetNIterator.next()&gt;</text>
</g>
<!-- b1&#45;&gt;b3 -->
<g id="edge4" class="edge">
<title>b1&#45;&gt;b3</title>
<path fill="none" stroke="black" d="M652.91,-181.07C719.81,-201.25 812.42,-229.2 881.6,-250.07"/>
<polygon fill="black" stroke="black" points="880.62,-253.43 891.21,-252.96 882.64,-246.73 880.62,-253.43"/>
</g>
<!-- b13 -->
<g id="node14" class="node">
<title>b13</title>
<polygon fill="white" stroke="black" points="1544,-113 1239,-113 1239,-61 1544,-61 1544,-113"/>
<text text-anchor="middle" x="1391.5" y="-101" font-family="Helvetica" font-size="10.00">B13</text>
<text text-anchor="middle" x="1391.5" y="-90" font-family="Helvetica" font-size="10.00">Loop: &lt;none&gt;</text>
<text text-anchor="middle" x="1391.5" y="-79" font-family="Helvetica" font-size="10.00">&#45;&#45;&#45;</text>
<text text-anchor="middle" x="1391.5" y="-68" font-family="Helvetica" font-size="10.00">HotSpotMethod&lt;ImmutableCollections$SetN$SetNIterator.next()&gt;</text>
</g>
<!-- b2&#45;&gt;b13 -->
<g id="edge5" class="edge">
<title>b2&#45;&gt;b13</title>
<path fill="none" stroke="black" d="M1131.08,-129.92C1162.91,-124.66 1196.59,-119.08 1228.77,-113.76"/>
<polygon fill="black" stroke="black" points="1229.41,-117.2 1238.7,-112.11 1228.27,-110.29 1229.41,-117.2"/>
</g>
<!-- b4 -->
<g id="node5" class="node">
<title>b4</title>
<polygon fill="white" stroke="black" points="1544,-271 1239,-271 1239,-219 1544,-219 1544,-271"/>
<text text-anchor="middle" x="1391.5" y="-259" font-family="Helvetica" font-size="10.00">B4</text>
<text text-anchor="middle" x="1391.5" y="-248" font-family="Helvetica" font-size="10.00">Loop: &lt;none&gt;</text>
<text text-anchor="middle" x="1391.5" y="-237" font-family="Helvetica" font-size="10.00">&#45;&#45;&#45;</text>
<text text-anchor="middle" x="1391.5" y="-226" font-family="Helvetica" font-size="10.00">HotSpotMethod&lt;ImmutableCollections$SetN$SetNIterator.next()&gt;</text>
</g>
<!-- b3&#45;&gt;b4 -->
<g id="edge6" class="edge">
<title>b3&#45;&gt;b4</title>
<path fill="none" stroke="black" d="M1131.08,-266.46C1162.77,-263.84 1196.3,-261.07 1228.35,-258.41"/>
<polygon fill="black" stroke="black" points="1229.03,-261.87 1238.7,-257.56 1228.45,-254.89 1229.03,-261.87"/>
</g>
<!-- b10 -->
<g id="node11" class="node">
<title>b10</title>
<polygon fill="white" stroke="black" points="1957,-483 1652,-483 1652,-431 1957,-431 1957,-483"/>
<text text-anchor="middle" x="1804.5" y="-471" font-family="Helvetica" font-size="10.00">B10</text>
<text text-anchor="middle" x="1804.5" y="-460" font-family="Helvetica" font-size="10.00">Loop: &lt;none&gt;</text>
<text text-anchor="middle" x="1804.5" y="-449" font-family="Helvetica" font-size="10.00">&#45;&#45;&#45;</text>
<text text-anchor="middle" x="1804.5" y="-438" font-family="Helvetica" font-size="10.00">HotSpotMethod&lt;ImmutableCollections$SetN$SetNIterator.next()&gt;</text>
</g>
<!-- b3&#45;&gt;b10 -->
<g id="edge7" class="edge">
<title>b3&#45;&gt;b10</title>
<path fill="none" stroke="black" d="M1100.2,-305.07C1252.97,-338.07 1515.13,-394.71 1672.6,-428.72"/>
<polygon fill="black" stroke="black" points="1672.3,-432.24 1682.81,-430.93 1673.78,-425.4 1672.3,-432.24"/>
</g>
<!-- b5 -->
<g id="node6" class="node">
<title>b5</title>
<polygon fill="lightblue" stroke="black" points="1957,-263 1652,-263 1652,-211 1957,-211 1957,-263"/>
<text text-anchor="middle" x="1804.5" y="-251" font-family="Helvetica" font-size="10.00">B5</text>
<text text-anchor="middle" x="1804.5" y="-240" font-family="Helvetica" font-size="10.00">Loop: L0</text>
<text text-anchor="middle" x="1804.5" y="-229" font-family="Helvetica" font-size="10.00">&#45;&#45;&#45;</text>
<text text-anchor="middle" x="1804.5" y="-218" font-family="Helvetica" font-size="10.00">HotSpotMethod&lt;ImmutableCollections$SetN$SetNIterator.next()&gt;</text>
</g>
<!-- b4&#45;&gt;b5 -->
<g id="edge8" class="edge">
<title>b4&#45;&gt;b5</title>
<path fill="none" stroke="black" d="M1544.08,-242.05C1575.77,-241.43 1609.3,-240.78 1641.35,-240.16"/>
<polygon fill="black" stroke="black" points="1641.77,-243.65 1651.7,-239.95 1641.64,-236.65 1641.77,-243.65"/>
</g>
<!-- b6 -->
<g id="node7" class="node">
<title>b6</title>
<polygon fill="lightblue" stroke="black" points="2370,-356 2065,-356 2065,-304 2370,-304 2370,-356"/>
<text text-anchor="middle" x="2217.5" y="-344" font-family="Helvetica" font-size="10.00">B6</text>
<text text-anchor="middle" x="2217.5" y="-333" font-family="Helvetica" font-size="10.00">Loop: L0</text>
<text text-anchor="middle" x="2217.5" y="-322" font-family="Helvetica" font-size="10.00">&#45;&#45;&#45;</text>
<text text-anchor="middle" x="2217.5" y="-311" font-family="Helvetica" font-size="10.00">HotSpotMethod&lt;ImmutableCollections$SetN$SetNIterator.next()&gt;</text>
</g>
<!-- b5&#45;&gt;b6 -->
<g id="edge9" class="edge">
<title>b5&#45;&gt;b6</title>
<path fill="none" stroke="black" d="M1920.53,-263.03C1973.74,-275.07 2037.06,-289.4 2091.45,-301.7"/>
<polygon fill="black" stroke="black" points="2090.97,-305.18 2101.49,-303.98 2092.51,-298.36 2090.97,-305.18"/>
</g>
<!-- b9 -->
<g id="node10" class="node">
<title>b9</title>
<polygon fill="white" stroke="black" points="2370,-232 2065,-232 2065,-180 2370,-180 2370,-232"/>
<text text-anchor="middle" x="2217.5" y="-220" font-family="Helvetica" font-size="10.00">B9</text>
<text text-anchor="middle" x="2217.5" y="-209" font-family="Helvetica" font-size="10.00">Loop: &lt;none&gt;</text>
<text text-anchor="middle" x="2217.5" y="-198" font-family="Helvetica" font-size="10.00">&#45;&#45;&#45;</text>
<text text-anchor="middle" x="2217.5" y="-187" font-family="Helvetica" font-size="10.00">HotSpotMethod&lt;ImmutableCollections$SetN$SetNIterator.next()&gt;</text>
</g>
<!-- b5&#45;&gt;b9 -->
<g id="edge10" class="edge">
<title>b5&#45;&gt;b9</title>
<path fill="none" stroke="black" d="M1957.08,-225.57C1988.77,-223.18 2022.3,-220.65 2054.35,-218.23"/>
<polygon fill="black" stroke="black" points="2055,-221.69 2064.7,-217.45 2054.47,-214.71 2055,-221.69"/>
</g>
<!-- b7 -->
<g id="node8" class="node">
<title>b7</title>
<polygon fill="lightblue" stroke="black" points="2783,-165 2478,-165 2478,-113 2783,-113 2783,-165"/>
<text text-anchor="middle" x="2630.5" y="-153" font-family="Helvetica" font-size="10.00">B7</text>
<text text-anchor="middle" x="2630.5" y="-142" font-family="Helvetica" font-size="10.00">Loop: L0</text>
<text text-anchor="middle" x="2630.5" y="-131" font-family="Helvetica" font-size="10.00">&#45;&#45;&#45;</text>
<text text-anchor="middle" x="2630.5" y="-120" font-family="Helvetica" font-size="10.00">HotSpotMethod&lt;ImmutableCollections$SetN$SetNIterator.next()&gt;</text>
</g>
<!-- b6&#45;&gt;b7 -->
<g id="edge11" class="edge">
<title>b6&#45;&gt;b7</title>
<path fill="none" stroke="black" d="M2285.32,-303.88C2311.86,-293.18 2342.55,-280.42 2370,-268 2439.84,-236.4 2518.46,-196.73 2570.67,-169.78"/>
<polygon fill="black" stroke="black" points="2572.51,-172.77 2579.79,-165.06 2569.3,-166.55 2572.51,-172.77"/>
</g>
<!-- b8 -->
<g id="node9" class="node">
<title>b8</title>
<polygon fill="white" stroke="black" points="2783,-356 2478,-356 2478,-304 2783,-304 2783,-356"/>
<text text-anchor="middle" x="2630.5" y="-344" font-family="Helvetica" font-size="10.00">B8</text>
<text text-anchor="middle" x="2630.5" y="-333" font-family="Helvetica" font-size="10.00">Loop: &lt;none&gt;</text>
<text text-anchor="middle" x="2630.5" y="-322" font-family="Helvetica" font-size="10.00">&#45;&#45;&#45;</text>
<text text-anchor="middle" x="2630.5" y="-311" font-family="Helvetica" font-size="10.00">HotSpotMethod&lt;ImmutableCollections$SetN$SetNIterator.next()&gt;</text>
</g>
<!-- b6&#45;&gt;b8 -->
<g id="edge12" class="edge">
<title>b6&#45;&gt;b8</title>
<path fill="none" stroke="black" d="M2370.08,-330C2401.77,-330 2435.3,-330 2467.35,-330"/>
<polygon fill="black" stroke="black" points="2467.7,-333.5 2477.7,-330 2467.7,-326.5 2467.7,-333.5"/>
</g>
<!-- b7&#45;&gt;b5 -->
<g id="edge13" class="edge">
<title>b7&#45;&gt;b5</title>
<path fill="none" stroke="black" d="M2477.88,-126.71C2363.5,-120.72 2203.21,-119.35 2065,-144 1996.47,-156.22 1922.05,-184.58 1870.55,-206.79"/>
<polygon fill="black" stroke="black" points="1868.97,-203.65 1861.2,-210.86 1871.77,-210.07 1868.97,-203.65"/>
</g>
<!-- b11 -->
<g id="node12" class="node">
<title>b11</title>
<polygon fill="white" stroke="black" points="3196,-423 2891,-423 2891,-371 3196,-371 3196,-423"/>
<text text-anchor="middle" x="3043.5" y="-411" font-family="Helvetica" font-size="10.00">B11</text>
<text text-anchor="middle" x="3043.5" y="-400" font-family="Helvetica" font-size="10.00">Loop: &lt;none&gt;</text>
<text text-anchor="middle" x="3043.5" y="-389" font-family="Helvetica" font-size="10.00">&#45;&#45;&#45;</text>
<text text-anchor="middle" x="3043.5" y="-378" font-family="Helvetica" font-size="10.00">HotSpotMethod&lt;ImmutableCollections$SetN$SetNIterator.next()&gt;</text>
</g>
<!-- b8&#45;&gt;b11 -->
<g id="edge14" class="edge">
<title>b8&#45;&gt;b11</title>
<path fill="none" stroke="black" d="M2783.08,-354.71C2814.91,-359.9 2848.59,-365.39 2880.77,-370.64"/>
<polygon fill="black" stroke="black" points="2880.27,-374.1 2890.7,-372.25 2881.4,-367.19 2880.27,-374.1"/>
</g>
<!-- b10&#45;&gt;b11 -->
<g id="edge15" class="edge">
<title>b10&#45;&gt;b11</title>
<path fill="none" stroke="black" d="M1957.18,-449.64C2191.55,-438.27 2639.73,-416.54 2880.31,-404.87"/>
<polygon fill="black" stroke="black" points="2880.73,-408.35 2890.55,-404.37 2880.39,-401.36 2880.73,-408.35"/>
</g>
<!-- b12&#45;&gt;b13 -->
<g id="edge16" class="edge">
<title>b12&#45;&gt;b13</title>
<path fill="none" stroke="black" d="M718.11,-37.22C862.95,-47.95 1080.52,-64.05 1228.66,-75.02"/>
<polygon fill="black" stroke="black" points="1228.53,-78.52 1238.76,-75.77 1229.05,-71.54 1228.53,-78.52"/>
</g>
</g>
</svg>
