<?xml version="1.0" encoding="UTF-8" standalone="no"?>
<!DOCTYPE svg PUBLIC "-//W3C//DTD SVG 1.1//EN"
 "http://www.w3.org/Graphics/SVG/1.1/DTD/svg11.dtd">
<!-- Generated by graphviz version 2.44.0 (0)
 -->
<!-- Title: CFG_30 Pages: 1 -->
<svg width="2791pt" height="593pt"
 viewBox="0.00 0.00 2791.00 593.00" xmlns="http://www.w3.org/2000/svg" xmlns:xlink="http://www.w3.org/1999/xlink">
<g id="graph0" class="graph" transform="scale(1 1) rotate(0) translate(4 589)">
<title>CFG_30</title>
<polygon fill="white" stroke="transparent" points="-4,4 -4,-589 2787,-589 2787,4 -4,4"/>
<text text-anchor="middle" x="286.5" y="-565" font-family="Times-Roman" font-size="20.00">java.util.ImmutableCollections$SetN$SetNIterator.next()</text>
<!-- b0 -->
<g id="node1" class="node">
<title>b0</title>
<polygon fill="white" stroke="black" points="305,-490 0,-490 0,-438 305,-438 305,-490"/>
<text text-anchor="middle" x="152.5" y="-478" font-family="Helvetica" font-size="10.00">B0</text>
<text text-anchor="middle" x="152.5" y="-467" font-family="Helvetica" font-size="10.00">Loop: &lt;none&gt;</text>
<text text-anchor="middle" x="152.5" y="-456" font-family="Helvetica" font-size="10.00">&#45;&#45;&#45;</text>
<text text-anchor="middle" x="152.5" y="-445" font-family="Helvetica" font-size="10.00">HotSpotMethod&lt;ImmutableCollections$SetN$SetNIterator.next()&gt;</text>
</g>
<!-- b1 -->
<g id="node2" class="node">
<title>b1</title>
<polygon fill="white" stroke="black" points="718,-426 413,-426 413,-374 718,-374 718,-426"/>
<text text-anchor="middle" x="565.5" y="-414" font-family="Helvetica" font-size="10.00">B1</text>
<text text-anchor="middle" x="565.5" y="-403" font-family="Helvetica" font-size="10.00">Loop: &lt;none&gt;</text>
<text text-anchor="middle" x="565.5" y="-392" font-family="Helvetica" font-size="10.00">&#45;&#45;&#45;</text>
<text text-anchor="middle" x="565.5" y="-381" font-family="Helvetica" font-size="10.00">HotSpotMethod&lt;ImmutableCollections$SetN$SetNIterator.next()&gt;</text>
</g>
<!-- b0&#45;&gt;b1 -->
<g id="edge1" class="edge">
<title>b0&#45;&gt;b1</title>
<path fill="none" stroke="black" d="M305.08,-440.4C336.91,-435.44 370.59,-430.2 402.77,-425.18"/>
<polygon fill="black" stroke="black" points="403.36,-428.63 412.7,-423.64 402.28,-421.72 403.36,-428.63"/>
</g>
<!-- b12 -->
<g id="node13" class="node">
<title>b12</title>
<polygon fill="white" stroke="black" points="718,-555 413,-555 413,-503 718,-503 718,-555"/>
<text text-anchor="middle" x="565.5" y="-543" font-family="Helvetica" font-size="10.00">B12</text>
<text text-anchor="middle" x="565.5" y="-532" font-family="Helvetica" font-size="10.00">Loop: &lt;none&gt;</text>
<text text-anchor="middle" x="565.5" y="-521" font-family="Helvetica" font-size="10.00">&#45;&#45;&#45;</text>
<text text-anchor="middle" x="565.5" y="-510" font-family="Helvetica" font-size="10.00">HotSpotMethod&lt;ImmutableCollections$SetN$SetNIterator.next()&gt;</text>
</g>
<!-- b0&#45;&gt;b12 -->
<g id="edge2" class="edge">
<title>b0&#45;&gt;b12</title>
<path fill="none" stroke="black" d="M305.08,-487.97C336.91,-493.01 370.59,-498.33 402.77,-503.42"/>
<polygon fill="black" stroke="black" points="402.28,-506.89 412.7,-504.99 403.37,-499.97 402.28,-506.89"/>
</g>
<!-- b2 -->
<g id="node3" class="node">
<title>b2</title>
<polygon fill="white" stroke="black" points="1131,-426 826,-426 826,-374 1131,-374 1131,-426"/>
<text text-anchor="middle" x="978.5" y="-414" font-family="Helvetica" font-size="10.00">B2</text>
<text text-anchor="middle" x="978.5" y="-403" font-family="Helvetica" font-size="10.00">Loop: &lt;none&gt;</text>
<text text-anchor="middle" x="978.5" y="-392" font-family="Helvetica" font-size="10.00">&#45;&#45;&#45;</text>
<text text-anchor="middle" x="978.5" y="-381" font-family="Helvetica" font-size="10.00">HotSpotMethod&lt;ImmutableCollections$SetN$SetNIterator.next()&gt;</text>
</g>
<!-- b1&#45;&gt;b2 -->
<g id="edge3" class="edge">
<title>b1&#45;&gt;b2</title>
<path fill="none" stroke="black" d="M718.08,-400C749.77,-400 783.3,-400 815.35,-400"/>
<polygon fill="black" stroke="black" points="815.7,-403.5 825.7,-400 815.7,-396.5 815.7,-403.5"/>
</g>
<!-- b3 -->
<g id="node4" class="node">
<title>b3</title>
<polygon fill="white" stroke="black" points="1131,-302 826,-302 826,-250 1131,-250 1131,-302"/>
<text text-anchor="middle" x="978.5" y="-290" font-family="Helvetica" font-size="10.00">B3</text>
<text text-anchor="middle" x="978.5" y="-279" font-family="Helvetica" font-size="10.00">Loop: &lt;none&gt;</text>
<text text-anchor="middle" x="978.5" y="-268" font-family="Helvetica" font-size="10.00">&#45;&#45;&#45;</text>
<text text-anchor="middle" x="978.5" y="-257" font-family="Helvetica" font-size="10.00">HotSpotMethod&lt;ImmutableCollections$SetN$SetNIterator.next()&gt;</text>
</g>
<!-- b1&#45;&gt;b3 -->
<g id="edge4" class="edge">
<title>b1&#45;&gt;b3</title>
<path fill="none" stroke="black" d="M652.91,-373.93C719.81,-353.75 812.42,-325.8 881.6,-304.93"/>
<polygon fill="black" stroke="black" points="882.64,-308.27 891.21,-302.04 880.62,-301.57 882.64,-308.27"/>
</g>
<!-- b13 -->
<g id="node14" class="node">
<title>b13</title>
<polygon fill="white" stroke="black" points="1544,-517 1239,-517 1239,-465 1544,-465 1544,-517"/>
<text text-anchor="middle" x="1391.5" y="-505" font-family="Helvetica" font-size="10.00">B13</text>
<text text-anchor="middle" x="1391.5" y="-494" font-family="Helvetica" font-size="10.00">Loop: &lt;none&gt;</text>
<text text-anchor="middle" x="1391.5" y="-483" font-family="Helvetica" font-size="10.00">&#45;&#45;&#45;</text>
<text text-anchor="middle" x="1391.5" y="-472" font-family="Helvetica" font-size="10.00">HotSpotMethod&lt;ImmutableCollections$SetN$SetNIterator.next()&gt;</text>
</g>
<!-- b2&#45;&gt;b13 -->
<g id="edge5" class="edge">
<title>b2&#45;&gt;b13</title>
<path fill="none" stroke="black" d="M1097,-426.02C1148.93,-437.51 1210.09,-451.06 1263.11,-462.79"/>
<polygon fill="black" stroke="black" points="1262.39,-466.22 1272.91,-464.96 1263.91,-459.39 1262.39,-466.22"/>
</g>
<!-- b5 -->
<g id="node6" class="node">
<title>b5</title>
<polygon fill="lightblue" stroke="black" points="1544,-173 1239,-173 1239,-121 1544,-121 1544,-173"/>
<text text-anchor="middle" x="1391.5" y="-161" font-family="Helvetica" font-size="10.00">B5</text>
<text text-anchor="middle" x="1391.5" y="-150" font-family="Helvetica" font-size="10.00">Loop: L0</text>
<text text-anchor="middle" x="1391.5" y="-139" font-family="Helvetica" font-size="10.00">&#45;&#45;&#45;</text>
<text text-anchor="middle" x="1391.5" y="-128" font-family="Helvetica" font-size="10.00">HotSpotMethod&lt;ImmutableCollections$SetN$SetNIterator.next()&gt;</text>
</g>
<!-- b3&#45;&gt;b5 -->
<g id="edge6" class="edge">
<title>b3&#45;&gt;b5</title>
<path fill="none" stroke="black" d="M1062.67,-249.89C1130.78,-228.52 1227.06,-198.3 1297.67,-176.14"/>
<polygon fill="black" stroke="black" points="1298.96,-179.4 1307.45,-173.07 1296.86,-172.72 1298.96,-179.4"/>
</g>
<!-- b10 -->
<g id="node11" class="node">
<title>b10</title>
<polygon fill="white" stroke="black" points="1957,-368 1652,-368 1652,-316 1957,-316 1957,-368"/>
<text text-anchor="middle" x="1804.5" y="-356" font-family="Helvetica" font-size="10.00">B10</text>
<text text-anchor="middle" x="1804.5" y="-345" font-family="Helvetica" font-size="10.00">Loop: &lt;none&gt;</text>
<text text-anchor="middle" x="1804.5" y="-334" font-family="Helvetica" font-size="10.00">&#45;&#45;&#45;</text>
<text text-anchor="middle" x="1804.5" y="-323" font-family="Helvetica" font-size="10.00">HotSpotMethod&lt;ImmutableCollections$SetN$SetNIterator.next()&gt;</text>
</g>
<!-- b3&#45;&gt;b10 -->
<g id="edge7" class="edge">
<title>b3&#45;&gt;b10</title>
<path fill="none" stroke="black" d="M1131.11,-288.14C1275.95,-299.74 1493.52,-317.17 1641.66,-329.04"/>
<polygon fill="black" stroke="black" points="1641.52,-332.54 1651.76,-329.85 1642.07,-325.56 1641.52,-332.54"/>
</g>
<!-- b4 -->
<g id="node5" class="node">
<title>b4</title>
<polygon fill="white" stroke="black" points="1131,-173 826,-173 826,-121 1131,-121 1131,-173"/>
<text text-anchor="middle" x="978.5" y="-161" font-family="Helvetica" font-size="10.00">B4</text>
<text text-anchor="middle" x="978.5" y="-150" font-family="Helvetica" font-size="10.00">Loop: &lt;none&gt;</text>
<text text-anchor="middle" x="978.5" y="-139" font-family="Helvetica" font-size="10.00">&#45;&#45;&#45;</text>
<text text-anchor="middle" x="978.5" y="-128" font-family="Helvetica" font-size="10.00">HotSpotMethod&lt;ImmutableCollections$SetN$SetNIterator.next()&gt;</text>
</g>
<!-- b4&#45;&gt;b5 -->
<g id="edge8" class="edge">
<title>b4&#45;&gt;b5</title>
<path fill="none" stroke="black" d="M1131.08,-147C1162.77,-147 1196.3,-147 1228.35,-147"/>
<polygon fill="black" stroke="black" points="1228.7,-150.5 1238.7,-147 1228.7,-143.5 1228.7,-150.5"/>
</g>
<!-- b6 -->
<g id="node7" class="node">
<title>b6</title>
<polygon fill="lightblue" stroke="black" points="1957,-241 1652,-241 1652,-189 1957,-189 1957,-241"/>
<text text-anchor="middle" x="1804.5" y="-229" font-family="Helvetica" font-size="10.00">B6</text>
<text text-anchor="middle" x="1804.5" y="-218" font-family="Helvetica" font-size="10.00">Loop: L0</text>
<text text-anchor="middle" x="1804.5" y="-207" font-family="Helvetica" font-size="10.00">&#45;&#45;&#45;</text>
<text text-anchor="middle" x="1804.5" y="-196" font-family="Helvetica" font-size="10.00">HotSpotMethod&lt;ImmutableCollections$SetN$SetNIterator.next()&gt;</text>
</g>
<!-- b5&#45;&gt;b6 -->
<g id="edge9" class="edge">
<title>b5&#45;&gt;b6</title>
<path fill="none" stroke="black" d="M1544.08,-172.08C1575.91,-177.34 1609.59,-182.92 1641.77,-188.24"/>
<polygon fill="black" stroke="black" points="1641.27,-191.71 1651.7,-189.89 1642.41,-184.8 1641.27,-191.71"/>
</g>
<!-- b9 -->
<g id="node10" class="node">
<title>b9</title>
<polygon fill="white" stroke="black" points="1957,-117 1652,-117 1652,-65 1957,-65 1957,-117"/>
<text text-anchor="middle" x="1804.5" y="-105" font-family="Helvetica" font-size="10.00">B9</text>
<text text-anchor="middle" x="1804.5" y="-94" font-family="Helvetica" font-size="10.00">Loop: &lt;none&gt;</text>
<text text-anchor="middle" x="1804.5" y="-83" font-family="Helvetica" font-size="10.00">&#45;&#45;&#45;</text>
<text text-anchor="middle" x="1804.5" y="-72" font-family="Helvetica" font-size="10.00">HotSpotMethod&lt;ImmutableCollections$SetN$SetNIterator.next()&gt;</text>
</g>
<!-- b5&#45;&gt;b9 -->
<g id="edge10" class="edge">
<title>b5&#45;&gt;b9</title>
<path fill="none" stroke="black" d="M1544.08,-126.35C1575.91,-122.01 1609.59,-117.42 1641.77,-113.04"/>
<polygon fill="black" stroke="black" points="1642.27,-116.5 1651.7,-111.68 1641.32,-109.56 1642.27,-116.5"/>
</g>
<!-- b7 -->
<g id="node8" class="node">
<title>b7</title>
<polygon fill="lightblue" stroke="black" points="2370,-52 2065,-52 2065,0 2370,0 2370,-52"/>
<text text-anchor="middle" x="2217.5" y="-40" font-family="Helvetica" font-size="10.00">B7</text>
<text text-anchor="middle" x="2217.5" y="-29" font-family="Helvetica" font-size="10.00">Loop: L0</text>
<text text-anchor="middle" x="2217.5" y="-18" font-family="Helvetica" font-size="10.00">&#45;&#45;&#45;</text>
<text text-anchor="middle" x="2217.5" y="-7" font-family="Helvetica" font-size="10.00">HotSpotMethod&lt;ImmutableCollections$SetN$SetNIterator.next()&gt;</text>
</g>
<!-- b6&#45;&gt;b7 -->
<g id="edge11" class="edge">
<title>b6&#45;&gt;b7</title>
<path fill="none" stroke="black" d="M1871.9,-188.94C1898.53,-178.2 1929.39,-165.39 1957,-153 2026.29,-121.91 2104.39,-83.17 2156.64,-56.71"/>
<polygon fill="black" stroke="black" points="2158.43,-59.72 2165.77,-52.08 2155.27,-53.48 2158.43,-59.72"/>
</g>
<!-- b8 -->
<g id="node9" class="node">
<title>b8</title>
<polygon fill="white" stroke="black" points="2370,-238 2065,-238 2065,-186 2370,-186 2370,-238"/>
<text text-anchor="middle" x="2217.5" y="-226" font-family="Helvetica" font-size="10.00">B8</text>
<text text-anchor="middle" x="2217.5" y="-215" font-family="Helvetica" font-size="10.00">Loop: &lt;none&gt;</text>
<text text-anchor="middle" x="2217.5" y="-204" font-family="Helvetica" font-size="10.00">&#45;&#45;&#45;</text>
<text text-anchor="middle" x="2217.5" y="-193" font-family="Helvetica" font-size="10.00">HotSpotMethod&lt;ImmutableCollections$SetN$SetNIterator.next()&gt;</text>
</g>
<!-- b6&#45;&gt;b8 -->
<g id="edge12" class="edge">
<title>b6&#45;&gt;b8</title>
<path fill="none" stroke="black" d="M1957.08,-213.89C1988.77,-213.66 2022.3,-213.42 2054.35,-213.18"/>
<polygon fill="black" stroke="black" points="2054.73,-216.68 2064.7,-213.11 2054.68,-209.68 2054.73,-216.68"/>
</g>
<!-- b7&#45;&gt;b5 -->
<g id="edge13" class="edge">
<title>b7&#45;&gt;b5</title>
<path fill="none" stroke="black" d="M2064.85,-9.76C1950.11,-1.56 1789.37,1.15 1652,-29 1575.62,-45.76 1494.66,-86.79 1443.88,-115.74"/>
<polygon fill="black" stroke="black" points="1441.98,-112.79 1435.07,-120.81 1445.48,-118.86 1441.98,-112.79"/>
</g>
<!-- b11 -->
<g id="node12" class="node">
<title>b11</title>
<polygon fill="white" stroke="black" points="2783,-305 2478,-305 2478,-253 2783,-253 2783,-305"/>
<text text-anchor="middle" x="2630.5" y="-293" font-family="Helvetica" font-size="10.00">B11</text>
<text text-anchor="middle" x="2630.5" y="-282" font-family="Helvetica" font-size="10.00">Loop: &lt;none&gt;</text>
<text text-anchor="middle" x="2630.5" y="-271" font-family="Helvetica" font-size="10.00">&#45;&#45;&#45;</text>
<text text-anchor="middle" x="2630.5" y="-260" font-family="Helvetica" font-size="10.00">HotSpotMethod&lt;ImmutableCollections$SetN$SetNIterator.next()&gt;</text>
</g>
<!-- b8&#45;&gt;b11 -->
<g id="edge14" class="edge">
<title>b8&#45;&gt;b11</title>
<path fill="none" stroke="black" d="M2370.08,-236.71C2401.91,-241.9 2435.59,-247.39 2467.77,-252.64"/>
<polygon fill="black" stroke="black" points="2467.27,-256.1 2477.7,-254.25 2468.4,-249.19 2467.27,-256.1"/>
</g>
<!-- b10&#45;&gt;b11 -->
<g id="edge15" class="edge">
<title>b10&#45;&gt;b11</title>
<path fill="none" stroke="black" d="M1957.11,-330.41C2101.95,-319.33 2319.52,-302.7 2467.66,-291.37"/>
<polygon fill="black" stroke="black" points="2468.06,-294.85 2477.76,-290.6 2467.53,-287.87 2468.06,-294.85"/>
</g>
<!-- b12&#45;&gt;b13 -->
<g id="edge16" class="edge">
<title>b12&#45;&gt;b13</title>
<path fill="none" stroke="black" d="M718.11,-522.01C862.95,-515.33 1080.52,-505.3 1228.66,-498.46"/>
<polygon fill="black" stroke="black" points="1228.94,-501.95 1238.76,-498 1228.61,-494.96 1228.94,-501.95"/>
</g>
</g>
</svg>
