<?xml version="1.0" encoding="UTF-8" standalone="no"?>
<!DOCTYPE svg PUBLIC "-//W3C//DTD SVG 1.1//EN"
 "http://www.w3.org/Graphics/SVG/1.1/DTD/svg11.dtd">
<!-- Generated by graphviz version 2.44.0 (0)
 -->
<!-- Title: CFG_51 Pages: 1 -->
<svg width="7712pt" height="1205pt"
 viewBox="0.00 0.00 7712.00 1205.28" xmlns="http://www.w3.org/2000/svg" xmlns:xlink="http://www.w3.org/1999/xlink">
<g id="graph0" class="graph" transform="scale(1 1) rotate(0) translate(4 1201.28)">
<title>CFG_51</title>
<polygon fill="white" stroke="transparent" points="-4,4 -4,-1201.28 7708,-1201.28 7708,4 -4,4"/>
<text text-anchor="middle" x="349" y="-1177.28" font-family="Times-Roman" font-size="20.00">jdk.internal.util.ArraysSupport.unsignedHashCode(int, byte[], int, int)</text>
<!-- b0 -->
<g id="node1" class="node">
<title>b0</title>
<polygon fill="white" stroke="black" points="326,-334.28 0,-334.28 0,-282.28 326,-282.28 326,-334.28"/>
<text text-anchor="middle" x="163" y="-322.28" font-family="Helvetica" font-size="10.00">B0</text>
<text text-anchor="middle" x="163" y="-311.28" font-family="Helvetica" font-size="10.00">Loop: &lt;none&gt;</text>
<text text-anchor="middle" x="163" y="-300.28" font-family="Helvetica" font-size="10.00">&#45;&#45;&#45;</text>
<text text-anchor="middle" x="163" y="-289.28" font-family="Helvetica" font-size="10.00">HotSpotMethod&lt;ArraysSupport.unsignedHashCode(int, byte[], int, int)&gt;</text>
</g>
<!-- b1 -->
<g id="node2" class="node">
<title>b1</title>
<polygon fill="white" stroke="black" points="760,-396.28 434,-396.28 434,-344.28 760,-344.28 760,-396.28"/>
<text text-anchor="middle" x="597" y="-384.28" font-family="Helvetica" font-size="10.00">B1</text>
<text text-anchor="middle" x="597" y="-373.28" font-family="Helvetica" font-size="10.00">Loop: &lt;none&gt;</text>
<text text-anchor="middle" x="597" y="-362.28" font-family="Helvetica" font-size="10.00">&#45;&#45;&#45;</text>
<text text-anchor="middle" x="597" y="-351.28" font-family="Helvetica" font-size="10.00">HotSpotMethod&lt;ArraysSupport.unsignedHashCode(int, byte[], int, int)&gt;</text>
</g>
<!-- b0&#45;&gt;b1 -->
<g id="edge1" class="edge">
<title>b0&#45;&gt;b1</title>
<path fill="none" stroke="black" d="M326.09,-331.54C357.98,-336.12 391.56,-340.93 423.77,-345.56"/>
<polygon fill="black" stroke="black" points="423.32,-349.03 433.72,-346.99 424.32,-342.1 423.32,-349.03"/>
</g>
<!-- b2 -->
<g id="node3" class="node">
<title>b2</title>
<polygon fill="white" stroke="black" points="760,-272.28 434,-272.28 434,-220.28 760,-220.28 760,-272.28"/>
<text text-anchor="middle" x="597" y="-260.28" font-family="Helvetica" font-size="10.00">B2</text>
<text text-anchor="middle" x="597" y="-249.28" font-family="Helvetica" font-size="10.00">Loop: &lt;none&gt;</text>
<text text-anchor="middle" x="597" y="-238.28" font-family="Helvetica" font-size="10.00">&#45;&#45;&#45;</text>
<text text-anchor="middle" x="597" y="-227.28" font-family="Helvetica" font-size="10.00">HotSpotMethod&lt;ArraysSupport.unsignedHashCode(int, byte[], int, int)&gt;</text>
</g>
<!-- b0&#45;&gt;b2 -->
<g id="edge2" class="edge">
<title>b0&#45;&gt;b2</title>
<path fill="none" stroke="black" d="M326.09,-285.01C357.98,-280.44 391.56,-275.62 423.77,-270.99"/>
<polygon fill="black" stroke="black" points="424.32,-274.45 433.72,-269.57 423.32,-267.52 424.32,-274.45"/>
</g>
<!-- b3 -->
<g id="node4" class="node">
<title>b3</title>
<polygon fill="white" stroke="black" points="1194,-334.28 868,-334.28 868,-282.28 1194,-282.28 1194,-334.28"/>
<text text-anchor="middle" x="1031" y="-322.28" font-family="Helvetica" font-size="10.00">B3</text>
<text text-anchor="middle" x="1031" y="-311.28" font-family="Helvetica" font-size="10.00">Loop: &lt;none&gt;</text>
<text text-anchor="middle" x="1031" y="-300.28" font-family="Helvetica" font-size="10.00">&#45;&#45;&#45;</text>
<text text-anchor="middle" x="1031" y="-289.28" font-family="Helvetica" font-size="10.00">HotSpotMethod&lt;ArraysSupport.unsignedHashCode(int, byte[], int, int)&gt;</text>
</g>
<!-- b1&#45;&gt;b3 -->
<g id="edge3" class="edge">
<title>b1&#45;&gt;b3</title>
<path fill="none" stroke="black" d="M760.09,-347.01C791.98,-342.44 825.56,-337.62 857.77,-332.99"/>
<polygon fill="black" stroke="black" points="858.32,-336.45 867.72,-331.57 857.32,-329.52 858.32,-336.45"/>
</g>
<!-- b2&#45;&gt;b3 -->
<g id="edge4" class="edge">
<title>b2&#45;&gt;b3</title>
<path fill="none" stroke="black" d="M760.09,-269.54C791.98,-274.12 825.56,-278.93 857.77,-283.56"/>
<polygon fill="black" stroke="black" points="857.32,-287.03 867.72,-284.99 858.32,-280.1 857.32,-287.03"/>
</g>
<!-- b5 -->
<g id="node6" class="node">
<title>b5</title>
<polygon fill="white" stroke="black" points="1628,-205.28 1302,-205.28 1302,-153.28 1628,-153.28 1628,-205.28"/>
<text text-anchor="middle" x="1465" y="-193.28" font-family="Helvetica" font-size="10.00">B5</text>
<text text-anchor="middle" x="1465" y="-182.28" font-family="Helvetica" font-size="10.00">Loop: &lt;none&gt;</text>
<text text-anchor="middle" x="1465" y="-171.28" font-family="Helvetica" font-size="10.00">&#45;&#45;&#45;</text>
<text text-anchor="middle" x="1465" y="-160.28" font-family="Helvetica" font-size="10.00">HotSpotMethod&lt;ArraysSupport.unsignedHashCode(int, byte[], int, int)&gt;</text>
</g>
<!-- b3&#45;&gt;b5 -->
<g id="edge6" class="edge">
<title>b3&#45;&gt;b5</title>
<path fill="none" stroke="black" d="M1119.16,-282.25C1190.87,-260.84 1292.43,-230.51 1366.76,-208.31"/>
<polygon fill="black" stroke="black" points="1368.02,-211.59 1376.6,-205.37 1366.02,-204.88 1368.02,-211.59"/>
</g>
<!-- b7 -->
<g id="node8" class="node">
<title>b7</title>
<polygon fill="white" stroke="black" points="2062,-464.28 1736,-464.28 1736,-412.28 2062,-412.28 2062,-464.28"/>
<text text-anchor="middle" x="1899" y="-452.28" font-family="Helvetica" font-size="10.00">B7</text>
<text text-anchor="middle" x="1899" y="-441.28" font-family="Helvetica" font-size="10.00">Loop: &lt;none&gt;</text>
<text text-anchor="middle" x="1899" y="-430.28" font-family="Helvetica" font-size="10.00">&#45;&#45;&#45;</text>
<text text-anchor="middle" x="1899" y="-419.28" font-family="Helvetica" font-size="10.00">HotSpotMethod&lt;ArraysSupport.unsignedHashCode(int, byte[], int, int)&gt;</text>
</g>
<!-- b3&#45;&gt;b7 -->
<g id="edge5" class="edge">
<title>b3&#45;&gt;b7</title>
<path fill="none" stroke="black" d="M1144.56,-334.3C1192.86,-344.88 1250.02,-356.62 1302,-365.28 1444.15,-388.94 1606.57,-408.34 1725.92,-421.17"/>
<polygon fill="black" stroke="black" points="1725.57,-424.65 1735.88,-422.24 1726.31,-417.69 1725.57,-424.65"/>
</g>
<!-- b4 -->
<g id="node5" class="node">
<title>b4</title>
<polygon fill="white" stroke="black" points="1628,-329.28 1302,-329.28 1302,-277.28 1628,-277.28 1628,-329.28"/>
<text text-anchor="middle" x="1465" y="-317.28" font-family="Helvetica" font-size="10.00">B4</text>
<text text-anchor="middle" x="1465" y="-306.28" font-family="Helvetica" font-size="10.00">Loop: &lt;none&gt;</text>
<text text-anchor="middle" x="1465" y="-295.28" font-family="Helvetica" font-size="10.00">&#45;&#45;&#45;</text>
<text text-anchor="middle" x="1465" y="-284.28" font-family="Helvetica" font-size="10.00">HotSpotMethod&lt;ArraysSupport.unsignedHashCode(int, byte[], int, int)&gt;</text>
</g>
<!-- b4&#45;&gt;b7 -->
<g id="edge7" class="edge">
<title>b4&#45;&gt;b7</title>
<path fill="none" stroke="black" d="M1549.29,-329.31C1622.54,-352.19 1729.02,-385.47 1805.01,-409.22"/>
<polygon fill="black" stroke="black" points="1804.01,-412.57 1814.59,-412.21 1806.09,-405.89 1804.01,-412.57"/>
</g>
<!-- b5&#45;&gt;b7 -->
<g id="edge8" class="edge">
<title>b5&#45;&gt;b7</title>
<path fill="none" stroke="black" d="M1546.56,-205.33C1573.17,-215.17 1602.47,-227.4 1628,-241.28 1716.8,-289.55 1809.75,-363.33 1860.1,-405.56"/>
<polygon fill="black" stroke="black" points="1857.91,-408.29 1867.81,-412.06 1862.42,-402.94 1857.91,-408.29"/>
</g>
<!-- b33 -->
<g id="node34" class="node">
<title>b33</title>
<polygon fill="white" stroke="black" points="3798,-65.28 3472,-65.28 3472,-13.28 3798,-13.28 3798,-65.28"/>
<text text-anchor="middle" x="3635" y="-53.28" font-family="Helvetica" font-size="10.00">B33</text>
<text text-anchor="middle" x="3635" y="-42.28" font-family="Helvetica" font-size="10.00">Loop: &lt;none&gt;</text>
<text text-anchor="middle" x="3635" y="-31.28" font-family="Helvetica" font-size="10.00">&#45;&#45;&#45;</text>
<text text-anchor="middle" x="3635" y="-20.28" font-family="Helvetica" font-size="10.00">HotSpotMethod&lt;ArraysSupport.unsignedHashCode(int, byte[], int, int)&gt;</text>
</g>
<!-- b5&#45;&gt;b33 -->
<g id="edge9" class="edge">
<title>b5&#45;&gt;b33</title>
<path fill="none" stroke="black" d="M1562.58,-153.27C1721.7,-112.78 2049.48,-39.28 2332,-39.28 2332,-39.28 2332,-39.28 2768,-39.28 3008.77,-39.28 3287.19,-39.28 3461.94,-39.28"/>
<polygon fill="black" stroke="black" points="3462,-42.78 3472,-39.28 3462,-35.78 3462,-42.78"/>
</g>
<!-- b6 -->
<g id="node7" class="node">
<title>b6</title>
<polygon fill="white" stroke="black" points="1628,-599.28 1302,-599.28 1302,-547.28 1628,-547.28 1628,-599.28"/>
<text text-anchor="middle" x="1465" y="-587.28" font-family="Helvetica" font-size="10.00">B6</text>
<text text-anchor="middle" x="1465" y="-576.28" font-family="Helvetica" font-size="10.00">Loop: &lt;none&gt;</text>
<text text-anchor="middle" x="1465" y="-565.28" font-family="Helvetica" font-size="10.00">&#45;&#45;&#45;</text>
<text text-anchor="middle" x="1465" y="-554.28" font-family="Helvetica" font-size="10.00">HotSpotMethod&lt;ArraysSupport.unsignedHashCode(int, byte[], int, int)&gt;</text>
</g>
<!-- b6&#45;&gt;b7 -->
<g id="edge10" class="edge">
<title>b6&#45;&gt;b7</title>
<path fill="none" stroke="black" d="M1549.29,-547.25C1622.54,-524.36 1729.02,-491.08 1805.01,-467.33"/>
<polygon fill="black" stroke="black" points="1806.09,-470.66 1814.59,-464.34 1804.01,-463.98 1806.09,-470.66"/>
</g>
<!-- b8 -->
<g id="node9" class="node">
<title>b8</title>
<polygon fill="white" stroke="black" points="2496,-464.28 2170,-464.28 2170,-412.28 2496,-412.28 2496,-464.28"/>
<text text-anchor="middle" x="2333" y="-452.28" font-family="Helvetica" font-size="10.00">B8</text>
<text text-anchor="middle" x="2333" y="-441.28" font-family="Helvetica" font-size="10.00">Loop: &lt;none&gt;</text>
<text text-anchor="middle" x="2333" y="-430.28" font-family="Helvetica" font-size="10.00">&#45;&#45;&#45;</text>
<text text-anchor="middle" x="2333" y="-419.28" font-family="Helvetica" font-size="10.00">HotSpotMethod&lt;ArraysSupport.unsignedHashCode(int, byte[], int, int)&gt;</text>
</g>
<!-- b7&#45;&gt;b8 -->
<g id="edge11" class="edge">
<title>b7&#45;&gt;b8</title>
<path fill="none" stroke="black" d="M2062.09,-438.28C2093.85,-438.28 2127.27,-438.28 2159.35,-438.28"/>
<polygon fill="black" stroke="black" points="2159.72,-441.78 2169.72,-438.28 2159.72,-434.78 2159.72,-441.78"/>
</g>
<!-- b31 -->
<g id="node32" class="node">
<title>b31</title>
<polygon fill="white" stroke="black" points="6402,-1167.28 6076,-1167.28 6076,-1115.28 6402,-1115.28 6402,-1167.28"/>
<text text-anchor="middle" x="6239" y="-1155.28" font-family="Helvetica" font-size="10.00">B31</text>
<text text-anchor="middle" x="6239" y="-1144.28" font-family="Helvetica" font-size="10.00">Loop: &lt;none&gt;</text>
<text text-anchor="middle" x="6239" y="-1133.28" font-family="Helvetica" font-size="10.00">&#45;&#45;&#45;</text>
<text text-anchor="middle" x="6239" y="-1122.28" font-family="Helvetica" font-size="10.00">HotSpotMethod&lt;ArraysSupport.unsignedHashCode(int, byte[], int, int)&gt;</text>
</g>
<!-- b7&#45;&gt;b31 -->
<g id="edge12" class="edge">
<title>b7&#45;&gt;b31</title>
<path fill="none" stroke="black" d="M1914.62,-464.55C1987.75,-592.18 2327.87,-1141.28 2766,-1141.28 2766,-1141.28 2766,-1141.28 5372,-1141.28 5612.77,-1141.28 5891.19,-1141.28 6065.94,-1141.28"/>
<polygon fill="black" stroke="black" points="6066,-1144.78 6076,-1141.28 6066,-1137.78 6066,-1144.78"/>
</g>
<!-- b9 -->
<g id="node10" class="node">
<title>b9</title>
<polygon fill="white" stroke="black" points="2930,-677.78 2604,-677.78 2604,-614.78 2930,-614.78 2930,-677.78"/>
<text text-anchor="middle" x="2767" y="-665.78" font-family="Helvetica" font-size="10.00">B9</text>
<text text-anchor="middle" x="2767" y="-654.78" font-family="Helvetica" font-size="10.00">Loop: &lt;none&gt;</text>
<text text-anchor="middle" x="2767" y="-643.78" font-family="Helvetica" font-size="10.00">&#45;&#45;&#45;</text>
<text text-anchor="middle" x="2767" y="-632.78" font-family="Helvetica" font-size="10.00">HotSpotMethod&lt;ArraysSupport.unsignedHashCode(int, byte[], int, int)&gt;</text>
<text text-anchor="middle" x="2767" y="-621.78" font-family="Helvetica" font-size="10.00">HotSpotMethod&lt;Byte.toUnsignedInt(byte)&gt;</text>
</g>
<!-- b8&#45;&gt;b9 -->
<g id="edge13" class="edge">
<title>b8&#45;&gt;b9</title>
<path fill="none" stroke="black" d="M2388.28,-464.41C2464.8,-501.26 2604.7,-568.61 2691.08,-610.2"/>
<polygon fill="black" stroke="black" points="2689.78,-613.46 2700.31,-614.65 2692.81,-607.15 2689.78,-613.46"/>
</g>
<!-- b30 -->
<g id="node31" class="node">
<title>b30</title>
<polygon fill="white" stroke="black" points="2930,-337.28 2604,-337.28 2604,-285.28 2930,-285.28 2930,-337.28"/>
<text text-anchor="middle" x="2767" y="-325.28" font-family="Helvetica" font-size="10.00">B30</text>
<text text-anchor="middle" x="2767" y="-314.28" font-family="Helvetica" font-size="10.00">Loop: &lt;none&gt;</text>
<text text-anchor="middle" x="2767" y="-303.28" font-family="Helvetica" font-size="10.00">&#45;&#45;&#45;</text>
<text text-anchor="middle" x="2767" y="-292.28" font-family="Helvetica" font-size="10.00">HotSpotMethod&lt;ArraysSupport.unsignedHashCode(int, byte[], int, int)&gt;</text>
</g>
<!-- b8&#45;&gt;b30 -->
<g id="edge14" class="edge">
<title>b8&#45;&gt;b30</title>
<path fill="none" stroke="black" d="M2422.46,-412.27C2493.69,-391.33 2593.75,-361.92 2667.51,-340.23"/>
<polygon fill="black" stroke="black" points="2668.68,-343.54 2677.28,-337.36 2666.7,-336.82 2668.68,-343.54"/>
</g>
<!-- b10 -->
<g id="node11" class="node">
<title>b10</title>
<polygon fill="white" stroke="black" points="3364,-672.28 3038,-672.28 3038,-620.28 3364,-620.28 3364,-672.28"/>
<text text-anchor="middle" x="3201" y="-660.28" font-family="Helvetica" font-size="10.00">B10</text>
<text text-anchor="middle" x="3201" y="-649.28" font-family="Helvetica" font-size="10.00">Loop: &lt;none&gt;</text>
<text text-anchor="middle" x="3201" y="-638.28" font-family="Helvetica" font-size="10.00">&#45;&#45;&#45;</text>
<text text-anchor="middle" x="3201" y="-627.28" font-family="Helvetica" font-size="10.00">HotSpotMethod&lt;ArraysSupport.unsignedHashCode(int, byte[], int, int)&gt;</text>
</g>
<!-- b9&#45;&gt;b10 -->
<g id="edge15" class="edge">
<title>b9&#45;&gt;b10</title>
<path fill="none" stroke="black" d="M2930.09,-646.28C2961.85,-646.28 2995.27,-646.28 3027.35,-646.28"/>
<polygon fill="black" stroke="black" points="3027.72,-649.78 3037.72,-646.28 3027.72,-642.78 3027.72,-649.78"/>
</g>
<!-- b29 -->
<g id="node30" class="node">
<title>b29</title>
<polygon fill="white" stroke="black" points="3364,-875.28 3038,-875.28 3038,-823.28 3364,-823.28 3364,-875.28"/>
<text text-anchor="middle" x="3201" y="-863.28" font-family="Helvetica" font-size="10.00">B29</text>
<text text-anchor="middle" x="3201" y="-852.28" font-family="Helvetica" font-size="10.00">Loop: &lt;none&gt;</text>
<text text-anchor="middle" x="3201" y="-841.28" font-family="Helvetica" font-size="10.00">&#45;&#45;&#45;</text>
<text text-anchor="middle" x="3201" y="-830.28" font-family="Helvetica" font-size="10.00">HotSpotMethod&lt;ArraysSupport.unsignedHashCode(int, byte[], int, int)&gt;</text>
</g>
<!-- b9&#45;&gt;b29 -->
<g id="edge16" class="edge">
<title>b9&#45;&gt;b29</title>
<path fill="none" stroke="black" d="M2835.5,-678C2917.53,-716.54 3054.95,-781.11 3135.57,-819"/>
<polygon fill="black" stroke="black" points="3134.09,-822.17 3144.63,-823.26 3137.07,-815.84 3134.09,-822.17"/>
</g>
<!-- b11 -->
<g id="node12" class="node">
<title>b11</title>
<polygon fill="white" stroke="black" points="3798,-740.28 3472,-740.28 3472,-688.28 3798,-688.28 3798,-740.28"/>
<text text-anchor="middle" x="3635" y="-728.28" font-family="Helvetica" font-size="10.00">B11</text>
<text text-anchor="middle" x="3635" y="-717.28" font-family="Helvetica" font-size="10.00">Loop: &lt;none&gt;</text>
<text text-anchor="middle" x="3635" y="-706.28" font-family="Helvetica" font-size="10.00">&#45;&#45;&#45;</text>
<text text-anchor="middle" x="3635" y="-695.28" font-family="Helvetica" font-size="10.00">HotSpotMethod&lt;ArraysSupport.unsignedHashCode(int, byte[], int, int)&gt;</text>
</g>
<!-- b10&#45;&gt;b11 -->
<g id="edge17" class="edge">
<title>b10&#45;&gt;b11</title>
<path fill="none" stroke="black" d="M3364.09,-671.79C3395.98,-676.81 3429.56,-682.1 3461.77,-687.17"/>
<polygon fill="black" stroke="black" points="3461.3,-690.63 3471.72,-688.73 3462.39,-683.72 3461.3,-690.63"/>
</g>
<!-- b17 -->
<g id="node18" class="node">
<title>b17</title>
<polygon fill="white" stroke="black" points="4666,-574.28 4340,-574.28 4340,-522.28 4666,-522.28 4666,-574.28"/>
<text text-anchor="middle" x="4503" y="-562.28" font-family="Helvetica" font-size="10.00">B17</text>
<text text-anchor="middle" x="4503" y="-551.28" font-family="Helvetica" font-size="10.00">Loop: &lt;none&gt;</text>
<text text-anchor="middle" x="4503" y="-540.28" font-family="Helvetica" font-size="10.00">&#45;&#45;&#45;</text>
<text text-anchor="middle" x="4503" y="-529.28" font-family="Helvetica" font-size="10.00">HotSpotMethod&lt;ArraysSupport.unsignedHashCode(int, byte[], int, int)&gt;</text>
</g>
<!-- b10&#45;&gt;b17 -->
<g id="edge18" class="edge">
<title>b10&#45;&gt;b17</title>
<path fill="none" stroke="black" d="M3364.02,-634.06C3610.52,-615.48 4077.67,-580.26 4329.99,-561.24"/>
<polygon fill="black" stroke="black" points="4330.28,-564.73 4339.99,-560.49 4329.75,-557.75 4330.28,-564.73"/>
</g>
<!-- b12 -->
<g id="node13" class="node">
<title>b12</title>
<polygon fill="white" stroke="black" points="4232,-346.28 3906,-346.28 3906,-294.28 4232,-294.28 4232,-346.28"/>
<text text-anchor="middle" x="4069" y="-334.28" font-family="Helvetica" font-size="10.00">B12</text>
<text text-anchor="middle" x="4069" y="-323.28" font-family="Helvetica" font-size="10.00">Loop: &lt;none&gt;</text>
<text text-anchor="middle" x="4069" y="-312.28" font-family="Helvetica" font-size="10.00">&#45;&#45;&#45;</text>
<text text-anchor="middle" x="4069" y="-301.28" font-family="Helvetica" font-size="10.00">HotSpotMethod&lt;ArraysSupport.unsignedHashCode(int, byte[], int, int)&gt;</text>
</g>
<!-- b11&#45;&gt;b12 -->
<g id="edge19" class="edge">
<title>b11&#45;&gt;b12</title>
<path fill="none" stroke="black" d="M3650.75,-687.94C3686.61,-626.12 3784.45,-470.3 3906,-382.28 3923.87,-369.33 3944.79,-358.72 3965.54,-350.16"/>
<polygon fill="black" stroke="black" points="3967.05,-353.33 3975.05,-346.38 3964.46,-346.82 3967.05,-353.33"/>
</g>
<!-- b15 -->
<g id="node16" class="node">
<title>b15</title>
<polygon fill="white" stroke="black" points="4666,-802.28 4340,-802.28 4340,-750.28 4666,-750.28 4666,-802.28"/>
<text text-anchor="middle" x="4503" y="-790.28" font-family="Helvetica" font-size="10.00">B15</text>
<text text-anchor="middle" x="4503" y="-779.28" font-family="Helvetica" font-size="10.00">Loop: &lt;none&gt;</text>
<text text-anchor="middle" x="4503" y="-768.28" font-family="Helvetica" font-size="10.00">&#45;&#45;&#45;</text>
<text text-anchor="middle" x="4503" y="-757.28" font-family="Helvetica" font-size="10.00">HotSpotMethod&lt;ArraysSupport.unsignedHashCode(int, byte[], int, int)&gt;</text>
</g>
<!-- b11&#45;&gt;b15 -->
<g id="edge20" class="edge">
<title>b11&#45;&gt;b15</title>
<path fill="none" stroke="black" d="M3726.04,-740.32C3778.12,-754.02 3845.19,-769.38 3906,-776.28 4047.99,-792.37 4210.22,-791.1 4329.55,-786.52"/>
<polygon fill="black" stroke="black" points="4330.01,-790 4339.87,-786.11 4329.74,-783.01 4330.01,-790"/>
</g>
<!-- b14 -->
<g id="node15" class="node">
<title>b14</title>
<polygon fill="white" stroke="black" points="5100,-357.28 4774,-357.28 4774,-305.28 5100,-305.28 5100,-357.28"/>
<text text-anchor="middle" x="4937" y="-345.28" font-family="Helvetica" font-size="10.00">B14</text>
<text text-anchor="middle" x="4937" y="-334.28" font-family="Helvetica" font-size="10.00">Loop: &lt;none&gt;</text>
<text text-anchor="middle" x="4937" y="-323.28" font-family="Helvetica" font-size="10.00">&#45;&#45;&#45;</text>
<text text-anchor="middle" x="4937" y="-312.28" font-family="Helvetica" font-size="10.00">HotSpotMethod&lt;ArraysSupport.unsignedHashCode(int, byte[], int, int)&gt;</text>
</g>
<!-- b12&#45;&gt;b14 -->
<g id="edge22" class="edge">
<title>b12&#45;&gt;b14</title>
<path fill="none" stroke="black" d="M4232.13,-322.34C4383.65,-324.26 4609.14,-327.12 4763.83,-329.09"/>
<polygon fill="black" stroke="black" points="4763.87,-332.59 4773.92,-329.22 4763.96,-325.59 4763.87,-332.59"/>
</g>
<!-- b12&#45;&gt;b17 -->
<g id="edge21" class="edge">
<title>b12&#45;&gt;b17</title>
<path fill="none" stroke="black" d="M4146.66,-346.29C4174.06,-356.45 4204.86,-368.88 4232,-382.28 4314.03,-422.76 4403.39,-480.66 4455.96,-516.3"/>
<polygon fill="black" stroke="black" points="4454.15,-519.3 4464.39,-522.03 4458.09,-513.51 4454.15,-519.3"/>
</g>
<!-- b13 -->
<g id="node14" class="node">
<title>b13</title>
<polygon fill="white" stroke="black" points="4232,-470.28 3906,-470.28 3906,-418.28 4232,-418.28 4232,-470.28"/>
<text text-anchor="middle" x="4069" y="-458.28" font-family="Helvetica" font-size="10.00">B13</text>
<text text-anchor="middle" x="4069" y="-447.28" font-family="Helvetica" font-size="10.00">Loop: &lt;none&gt;</text>
<text text-anchor="middle" x="4069" y="-436.28" font-family="Helvetica" font-size="10.00">&#45;&#45;&#45;</text>
<text text-anchor="middle" x="4069" y="-425.28" font-family="Helvetica" font-size="10.00">HotSpotMethod&lt;ArraysSupport.unsignedHashCode(int, byte[], int, int)&gt;</text>
</g>
<!-- b13&#45;&gt;b17 -->
<g id="edge23" class="edge">
<title>b13&#45;&gt;b17</title>
<path fill="none" stroke="black" d="M4178.18,-470.32C4240.82,-485.4 4319.73,-504.4 4383.97,-519.86"/>
<polygon fill="black" stroke="black" points="4383.2,-523.28 4393.74,-522.21 4384.84,-516.47 4383.2,-523.28"/>
</g>
<!-- b34 -->
<g id="node35" class="node">
<title>b34</title>
<polygon fill="white" stroke="black" points="5534,-357.28 5208,-357.28 5208,-305.28 5534,-305.28 5534,-357.28"/>
<text text-anchor="middle" x="5371" y="-345.28" font-family="Helvetica" font-size="10.00">B34</text>
<text text-anchor="middle" x="5371" y="-334.28" font-family="Helvetica" font-size="10.00">Loop: &lt;none&gt;</text>
<text text-anchor="middle" x="5371" y="-323.28" font-family="Helvetica" font-size="10.00">&#45;&#45;&#45;</text>
<text text-anchor="middle" x="5371" y="-312.28" font-family="Helvetica" font-size="10.00">HotSpotMethod&lt;ArraysSupport.unsignedHashCode(int, byte[], int, int)&gt;</text>
</g>
<!-- b14&#45;&gt;b34 -->
<g id="edge24" class="edge">
<title>b14&#45;&gt;b34</title>
<path fill="none" stroke="black" d="M5100.09,-331.28C5131.85,-331.28 5165.27,-331.28 5197.35,-331.28"/>
<polygon fill="black" stroke="black" points="5197.72,-334.78 5207.72,-331.28 5197.72,-327.78 5197.72,-334.78"/>
</g>
<!-- b15&#45;&gt;b34 -->
<g id="edge25" class="edge">
<title>b15&#45;&gt;b34</title>
<path fill="none" stroke="black" d="M4631.76,-750.27C4757.1,-721.08 4950.61,-665.97 5100,-578.28 5200.58,-519.23 5295.75,-417.86 5341.55,-365.22"/>
<polygon fill="black" stroke="black" points="5344.32,-367.37 5348.2,-357.51 5339.02,-362.79 5344.32,-367.37"/>
</g>
<!-- b16 -->
<g id="node17" class="node">
<title>b16</title>
<polygon fill="white" stroke="black" points="4232,-740.28 3906,-740.28 3906,-688.28 4232,-688.28 4232,-740.28"/>
<text text-anchor="middle" x="4069" y="-728.28" font-family="Helvetica" font-size="10.00">B16</text>
<text text-anchor="middle" x="4069" y="-717.28" font-family="Helvetica" font-size="10.00">Loop: &lt;none&gt;</text>
<text text-anchor="middle" x="4069" y="-706.28" font-family="Helvetica" font-size="10.00">&#45;&#45;&#45;</text>
<text text-anchor="middle" x="4069" y="-695.28" font-family="Helvetica" font-size="10.00">HotSpotMethod&lt;ArraysSupport.unsignedHashCode(int, byte[], int, int)&gt;</text>
</g>
<!-- b16&#45;&gt;b17 -->
<g id="edge26" class="edge">
<title>b16&#45;&gt;b17</title>
<path fill="none" stroke="black" d="M4137.98,-688.16C4215.72,-658.28 4342.77,-609.46 4424.35,-578.12"/>
<polygon fill="black" stroke="black" points="4425.99,-581.24 4434.07,-574.38 4423.48,-574.7 4425.99,-581.24"/>
</g>
<!-- b18 -->
<g id="node19" class="node">
<title>b18</title>
<polygon fill="white" stroke="black" points="5100,-869.78 4774,-869.78 4774,-806.78 5100,-806.78 5100,-869.78"/>
<text text-anchor="middle" x="4937" y="-857.78" font-family="Helvetica" font-size="10.00">B18</text>
<text text-anchor="middle" x="4937" y="-846.78" font-family="Helvetica" font-size="10.00">Loop: &lt;none&gt;</text>
<text text-anchor="middle" x="4937" y="-835.78" font-family="Helvetica" font-size="10.00">&#45;&#45;&#45;</text>
<text text-anchor="middle" x="4937" y="-824.78" font-family="Helvetica" font-size="10.00">HotSpotMethod&lt;ArraysSupport.unsignedHashCode(int, byte[], int, int)&gt;</text>
<text text-anchor="middle" x="4937" y="-813.78" font-family="Helvetica" font-size="10.00">HotSpotMethod&lt;Byte.toUnsignedInt(byte)&gt;</text>
</g>
<!-- b17&#45;&gt;b18 -->
<g id="edge27" class="edge">
<title>b17&#45;&gt;b18</title>
<path fill="none" stroke="black" d="M4543.1,-574.52C4620.16,-626.26 4791.86,-741.52 4880.57,-801.07"/>
<polygon fill="black" stroke="black" points="4878.64,-803.99 4888.89,-806.65 4882.54,-798.17 4878.64,-803.99"/>
</g>
<!-- b28 -->
<g id="node29" class="node">
<title>b28</title>
<polygon fill="white" stroke="black" points="5100,-542.28 4774,-542.28 4774,-490.28 5100,-490.28 5100,-542.28"/>
<text text-anchor="middle" x="4937" y="-530.28" font-family="Helvetica" font-size="10.00">B28</text>
<text text-anchor="middle" x="4937" y="-519.28" font-family="Helvetica" font-size="10.00">Loop: &lt;none&gt;</text>
<text text-anchor="middle" x="4937" y="-508.28" font-family="Helvetica" font-size="10.00">&#45;&#45;&#45;</text>
<text text-anchor="middle" x="4937" y="-497.28" font-family="Helvetica" font-size="10.00">HotSpotMethod&lt;ArraysSupport.unsignedHashCode(int, byte[], int, int)&gt;</text>
</g>
<!-- b17&#45;&gt;b28 -->
<g id="edge28" class="edge">
<title>b17&#45;&gt;b28</title>
<path fill="none" stroke="black" d="M4666.09,-536.27C4697.85,-533.92 4731.27,-531.44 4763.35,-529.07"/>
<polygon fill="black" stroke="black" points="4764.01,-532.53 4773.72,-528.3 4763.49,-525.55 4764.01,-532.53"/>
</g>
<!-- b19 -->
<g id="node20" class="node">
<title>b19</title>
<polygon fill="lightblue" stroke="black" points="5534,-868.28 5208,-868.28 5208,-816.28 5534,-816.28 5534,-868.28"/>
<text text-anchor="middle" x="5371" y="-856.28" font-family="Helvetica" font-size="10.00">B19</text>
<text text-anchor="middle" x="5371" y="-845.28" font-family="Helvetica" font-size="10.00">Loop: L0</text>
<text text-anchor="middle" x="5371" y="-834.28" font-family="Helvetica" font-size="10.00">&#45;&#45;&#45;</text>
<text text-anchor="middle" x="5371" y="-823.28" font-family="Helvetica" font-size="10.00">HotSpotMethod&lt;ArraysSupport.unsignedHashCode(int, byte[], int, int)&gt;</text>
</g>
<!-- b18&#45;&gt;b19 -->
<g id="edge29" class="edge">
<title>b18&#45;&gt;b19</title>
<path fill="none" stroke="black" d="M5100.09,-839.78C5131.85,-840.07 5165.27,-840.38 5197.35,-840.68"/>
<polygon fill="black" stroke="black" points="5197.69,-844.18 5207.72,-840.77 5197.75,-837.18 5197.69,-844.18"/>
</g>
<!-- b20 -->
<g id="node21" class="node">
<title>b20</title>
<polygon fill="lightblue" stroke="black" points="5968,-877.78 5642,-877.78 5642,-814.78 5968,-814.78 5968,-877.78"/>
<text text-anchor="middle" x="5805" y="-865.78" font-family="Helvetica" font-size="10.00">B20</text>
<text text-anchor="middle" x="5805" y="-854.78" font-family="Helvetica" font-size="10.00">Loop: L0</text>
<text text-anchor="middle" x="5805" y="-843.78" font-family="Helvetica" font-size="10.00">&#45;&#45;&#45;</text>
<text text-anchor="middle" x="5805" y="-832.78" font-family="Helvetica" font-size="10.00">HotSpotMethod&lt;ArraysSupport.unsignedHashCode(int, byte[], int, int)&gt;</text>
<text text-anchor="middle" x="5805" y="-821.78" font-family="Helvetica" font-size="10.00">HotSpotMethod&lt;Byte.toUnsignedInt(byte)&gt;</text>
</g>
<!-- b19&#45;&gt;b20 -->
<g id="edge30" class="edge">
<title>b19&#45;&gt;b20</title>
<path fill="none" stroke="black" d="M5534.09,-817.54C5565.85,-816.92 5599.27,-817.14 5631.35,-818.17"/>
<polygon fill="black" stroke="black" points="5631.6,-821.68 5641.72,-818.53 5631.85,-814.68 5631.6,-821.68"/>
</g>
<!-- b21 -->
<g id="node22" class="node">
<title>b21</title>
<polygon fill="white" stroke="black" points="5968,-742.28 5642,-742.28 5642,-690.28 5968,-690.28 5968,-742.28"/>
<text text-anchor="middle" x="5805" y="-730.28" font-family="Helvetica" font-size="10.00">B21</text>
<text text-anchor="middle" x="5805" y="-719.28" font-family="Helvetica" font-size="10.00">Loop: &lt;none&gt;</text>
<text text-anchor="middle" x="5805" y="-708.28" font-family="Helvetica" font-size="10.00">&#45;&#45;&#45;</text>
<text text-anchor="middle" x="5805" y="-697.28" font-family="Helvetica" font-size="10.00">HotSpotMethod&lt;ArraysSupport.unsignedHashCode(int, byte[], int, int)&gt;</text>
</g>
<!-- b19&#45;&gt;b21 -->
<g id="edge31" class="edge">
<title>b19&#45;&gt;b21</title>
<path fill="none" stroke="black" d="M5461.25,-816.25C5532.18,-795.56 5631.34,-766.63 5704.77,-745.22"/>
<polygon fill="black" stroke="black" points="5705.88,-748.54 5714.5,-742.38 5703.92,-741.82 5705.88,-748.54"/>
</g>
<!-- b20&#45;&gt;b19 -->
<g id="edge32" class="edge">
<title>b20&#45;&gt;b19</title>
<path fill="none" stroke="black" d="M5641.9,-871.01C5598.06,-871.87 5551.06,-871.13 5508.77,-868.86"/>
<polygon fill="black" stroke="black" points="5508.88,-865.36 5498.7,-868.28 5508.48,-872.35 5508.88,-865.36"/>
</g>
<!-- b22 -->
<g id="node23" class="node">
<title>b22</title>
<polygon fill="lightgreen" stroke="black" points="6402,-779.28 6076,-779.28 6076,-727.28 6402,-727.28 6402,-779.28"/>
<text text-anchor="middle" x="6239" y="-767.28" font-family="Helvetica" font-size="10.00">B22</text>
<text text-anchor="middle" x="6239" y="-756.28" font-family="Helvetica" font-size="10.00">Loop: L1</text>
<text text-anchor="middle" x="6239" y="-745.28" font-family="Helvetica" font-size="10.00">&#45;&#45;&#45;</text>
<text text-anchor="middle" x="6239" y="-734.28" font-family="Helvetica" font-size="10.00">HotSpotMethod&lt;ArraysSupport.unsignedHashCode(int, byte[], int, int)&gt;</text>
</g>
<!-- b21&#45;&gt;b22 -->
<g id="edge33" class="edge">
<title>b21&#45;&gt;b22</title>
<path fill="none" stroke="black" d="M5968.09,-730.16C5999.85,-732.88 6033.27,-735.74 6065.35,-738.49"/>
<polygon fill="black" stroke="black" points="6065.46,-742.01 6075.72,-739.38 6066.06,-735.04 6065.46,-742.01"/>
</g>
<!-- b23 -->
<g id="node24" class="node">
<title>b23</title>
<polygon fill="lightgreen" stroke="black" points="6836,-849.78 6510,-849.78 6510,-786.78 6836,-786.78 6836,-849.78"/>
<text text-anchor="middle" x="6673" y="-837.78" font-family="Helvetica" font-size="10.00">B23</text>
<text text-anchor="middle" x="6673" y="-826.78" font-family="Helvetica" font-size="10.00">Loop: L1</text>
<text text-anchor="middle" x="6673" y="-815.78" font-family="Helvetica" font-size="10.00">&#45;&#45;&#45;</text>
<text text-anchor="middle" x="6673" y="-804.78" font-family="Helvetica" font-size="10.00">HotSpotMethod&lt;ArraysSupport.unsignedHashCode(int, byte[], int, int)&gt;</text>
<text text-anchor="middle" x="6673" y="-793.78" font-family="Helvetica" font-size="10.00">HotSpotMethod&lt;Byte.toUnsignedInt(byte)&gt;</text>
</g>
<!-- b22&#45;&gt;b23 -->
<g id="edge34" class="edge">
<title>b22&#45;&gt;b23</title>
<path fill="none" stroke="black" d="M6402.09,-751.43C6466.19,-759.23 6537.06,-771.4 6590.09,-784.25"/>
<polygon fill="black" stroke="black" points="6589.57,-787.72 6600.12,-786.74 6591.26,-780.93 6589.57,-787.72"/>
</g>
<!-- b24 -->
<g id="node25" class="node">
<title>b24</title>
<polygon fill="white" stroke="black" points="6836,-714.28 6510,-714.28 6510,-662.28 6836,-662.28 6836,-714.28"/>
<text text-anchor="middle" x="6673" y="-702.28" font-family="Helvetica" font-size="10.00">B24</text>
<text text-anchor="middle" x="6673" y="-691.28" font-family="Helvetica" font-size="10.00">Loop: &lt;none&gt;</text>
<text text-anchor="middle" x="6673" y="-680.28" font-family="Helvetica" font-size="10.00">&#45;&#45;&#45;</text>
<text text-anchor="middle" x="6673" y="-669.28" font-family="Helvetica" font-size="10.00">HotSpotMethod&lt;ArraysSupport.unsignedHashCode(int, byte[], int, int)&gt;</text>
</g>
<!-- b22&#45;&gt;b24 -->
<g id="edge35" class="edge">
<title>b22&#45;&gt;b24</title>
<path fill="none" stroke="black" d="M6402.09,-728.89C6433.98,-724.09 6467.56,-719.04 6499.77,-714.19"/>
<polygon fill="black" stroke="black" points="6500.35,-717.64 6509.72,-712.69 6499.31,-710.72 6500.35,-717.64"/>
</g>
<!-- b23&#45;&gt;b22 -->
<g id="edge36" class="edge">
<title>b23&#45;&gt;b22</title>
<path fill="none" stroke="black" d="M6509.54,-820.08C6436.88,-811.23 6355.58,-796.76 6301.46,-782.07"/>
<polygon fill="black" stroke="black" points="6302.25,-778.66 6291.68,-779.33 6300.36,-785.4 6302.25,-778.66"/>
</g>
<!-- b25 -->
<g id="node26" class="node">
<title>b25</title>
<polygon fill="lightpink" stroke="black" points="7270,-738.28 6944,-738.28 6944,-686.28 7270,-686.28 7270,-738.28"/>
<text text-anchor="middle" x="7107" y="-726.28" font-family="Helvetica" font-size="10.00">B25</text>
<text text-anchor="middle" x="7107" y="-715.28" font-family="Helvetica" font-size="10.00">Loop: L2</text>
<text text-anchor="middle" x="7107" y="-704.28" font-family="Helvetica" font-size="10.00">&#45;&#45;&#45;</text>
<text text-anchor="middle" x="7107" y="-693.28" font-family="Helvetica" font-size="10.00">HotSpotMethod&lt;ArraysSupport.unsignedHashCode(int, byte[], int, int)&gt;</text>
</g>
<!-- b24&#45;&gt;b25 -->
<g id="edge37" class="edge">
<title>b24&#45;&gt;b25</title>
<path fill="none" stroke="black" d="M6836.09,-697.28C6867.85,-699.05 6901.27,-700.9 6933.35,-702.69"/>
<polygon fill="black" stroke="black" points="6933.54,-706.2 6943.72,-703.26 6933.93,-699.21 6933.54,-706.2"/>
</g>
<!-- b26 -->
<g id="node27" class="node">
<title>b26</title>
<polygon fill="lightpink" stroke="black" points="7704,-743.78 7378,-743.78 7378,-680.78 7704,-680.78 7704,-743.78"/>
<text text-anchor="middle" x="7541" y="-731.78" font-family="Helvetica" font-size="10.00">B26</text>
<text text-anchor="middle" x="7541" y="-720.78" font-family="Helvetica" font-size="10.00">Loop: L2</text>
<text text-anchor="middle" x="7541" y="-709.78" font-family="Helvetica" font-size="10.00">&#45;&#45;&#45;</text>
<text text-anchor="middle" x="7541" y="-698.78" font-family="Helvetica" font-size="10.00">HotSpotMethod&lt;ArraysSupport.unsignedHashCode(int, byte[], int, int)&gt;</text>
<text text-anchor="middle" x="7541" y="-687.78" font-family="Helvetica" font-size="10.00">HotSpotMethod&lt;Byte.toUnsignedInt(byte)&gt;</text>
</g>
<!-- b25&#45;&gt;b26 -->
<g id="edge38" class="edge">
<title>b25&#45;&gt;b26</title>
<path fill="none" stroke="black" d="M7262.44,-686.28C7296.5,-685.14 7332.78,-684.97 7367.51,-685.77"/>
<polygon fill="black" stroke="black" points="7367.65,-689.27 7377.74,-686.03 7367.83,-682.28 7367.65,-689.27"/>
</g>
<!-- b32 -->
<g id="node33" class="node">
<title>b32</title>
<polygon fill="white" stroke="black" points="7704,-932.28 7378,-932.28 7378,-880.28 7704,-880.28 7704,-932.28"/>
<text text-anchor="middle" x="7541" y="-920.28" font-family="Helvetica" font-size="10.00">B32</text>
<text text-anchor="middle" x="7541" y="-909.28" font-family="Helvetica" font-size="10.00">Loop: &lt;none&gt;</text>
<text text-anchor="middle" x="7541" y="-898.28" font-family="Helvetica" font-size="10.00">&#45;&#45;&#45;</text>
<text text-anchor="middle" x="7541" y="-887.28" font-family="Helvetica" font-size="10.00">HotSpotMethod&lt;ArraysSupport.unsignedHashCode(int, byte[], int, int)&gt;</text>
</g>
<!-- b25&#45;&gt;b32 -->
<g id="edge39" class="edge">
<title>b25&#45;&gt;b32</title>
<path fill="none" stroke="black" d="M7166.26,-738.44C7245.95,-774.23 7388.64,-838.3 7472.77,-876.08"/>
<polygon fill="black" stroke="black" points="7471.42,-879.31 7481.97,-880.22 7474.28,-872.93 7471.42,-879.31"/>
</g>
<!-- b26&#45;&gt;b25 -->
<g id="edge40" class="edge">
<title>b26&#45;&gt;b25</title>
<path fill="none" stroke="black" d="M7377.74,-738.52C7343.36,-739.51 7307.05,-739.53 7272.58,-738.58"/>
<polygon fill="black" stroke="black" points="7272.54,-735.08 7262.44,-738.28 7272.33,-742.08 7272.54,-735.08"/>
</g>
<!-- b27 -->
<g id="node28" class="node">
<title>b27</title>
<polygon fill="white" stroke="black" points="7270,-886.28 6944,-886.28 6944,-834.28 7270,-834.28 7270,-886.28"/>
<text text-anchor="middle" x="7107" y="-874.28" font-family="Helvetica" font-size="10.00">B27</text>
<text text-anchor="middle" x="7107" y="-863.28" font-family="Helvetica" font-size="10.00">Loop: &lt;none&gt;</text>
<text text-anchor="middle" x="7107" y="-852.28" font-family="Helvetica" font-size="10.00">&#45;&#45;&#45;</text>
<text text-anchor="middle" x="7107" y="-841.28" font-family="Helvetica" font-size="10.00">HotSpotMethod&lt;ArraysSupport.unsignedHashCode(int, byte[], int, int)&gt;</text>
</g>
<!-- b27&#45;&gt;b32 -->
<g id="edge41" class="edge">
<title>b27&#45;&gt;b32</title>
<path fill="none" stroke="black" d="M7270.09,-877.54C7301.98,-880.93 7335.56,-884.51 7367.77,-887.94"/>
<polygon fill="black" stroke="black" points="7367.41,-891.42 7377.72,-889 7368.15,-884.46 7367.41,-891.42"/>
</g>
<!-- b28&#45;&gt;b34 -->
<g id="edge42" class="edge">
<title>b28&#45;&gt;b34</title>
<path fill="none" stroke="black" d="M4998.98,-490.16C5078.14,-456.26 5216.03,-397.21 5299.57,-361.44"/>
<polygon fill="black" stroke="black" points="5301.17,-364.56 5308.98,-357.41 5298.41,-358.13 5301.17,-364.56"/>
</g>
<!-- b29&#45;&gt;b32 -->
<g id="edge43" class="edge">
<title>b29&#45;&gt;b32</title>
<path fill="none" stroke="black" d="M3294.37,-875.29C3451.78,-917.27 3782.69,-995.28 4068,-995.28 4068,-995.28 4068,-995.28 6674,-995.28 6917.7,-995.28 7197.97,-959.97 7372.06,-933.83"/>
<polygon fill="black" stroke="black" points="7372.71,-937.27 7382.08,-932.32 7371.67,-930.35 7372.71,-937.27"/>
</g>
<!-- b30&#45;&gt;b34 -->
<g id="edge44" class="edge">
<title>b30&#45;&gt;b34</title>
<path fill="none" stroke="black" d="M2876.29,-285.25C3039.52,-248.35 3358.82,-185.28 3634,-185.28 3634,-185.28 3634,-185.28 4504,-185.28 4783.46,-185.28 5106.67,-260.12 5267.73,-302.63"/>
<polygon fill="black" stroke="black" points="5267.07,-306.08 5277.63,-305.26 5268.86,-299.31 5267.07,-306.08"/>
</g>
<!-- b31&#45;&gt;b32 -->
<g id="edge45" class="edge">
<title>b31&#45;&gt;b32</title>
<path fill="none" stroke="black" d="M6402.07,-1146.71C6608.18,-1149.19 6972.97,-1138.6 7270,-1050.28 7354.24,-1025.23 7442.35,-972.42 7494.16,-938.19"/>
<polygon fill="black" stroke="black" points="7496.4,-940.9 7502.78,-932.44 7492.52,-935.08 7496.4,-940.9"/>
</g>
<!-- b33&#45;&gt;b34 -->
<g id="edge46" class="edge">
<title>b33&#45;&gt;b34</title>
<path fill="none" stroke="black" d="M3798.06,-20.07C4074.7,6.4 4651.63,33.9 5100,-130.28 5198.45,-166.32 5291.51,-250.56 5338.39,-297.74"/>
<polygon fill="black" stroke="black" points="5336,-300.31 5345.51,-304.98 5340.99,-295.4 5336,-300.31"/>
</g>
</g>
</svg>
