<?xml version="1.0" encoding="UTF-8" standalone="no"?>
<!DOCTYPE svg PUBLIC "-//W3C//DTD SVG 1.1//EN"
 "http://www.w3.org/Graphics/SVG/1.1/DTD/svg11.dtd">
<!-- Generated by graphviz version 2.44.0 (0)
 -->
<!-- Title: CFG_55 Pages: 1 -->
<svg width="6564pt" height="1589pt"
 viewBox="0.00 0.00 6564.00 1589.19" xmlns="http://www.w3.org/2000/svg" xmlns:xlink="http://www.w3.org/1999/xlink">
<g id="graph0" class="graph" transform="scale(1 1) rotate(0) translate(4 1585.19)">
<title>CFG_55</title>
<polygon fill="white" stroke="transparent" points="-4,4 -4,-1585.19 6560,-1585.19 6560,4 -4,4"/>
<text text-anchor="middle" x="269.5" y="-1561.19" font-family="Times-Roman" font-size="20.00">java.lang.StringCoding.countPositives(byte[], int, int)</text>
<!-- b0 -->
<g id="node1" class="node">
<title>b0</title>
<polygon fill="white" stroke="black" points="284,-1008.19 0,-1008.19 0,-956.19 284,-956.19 284,-1008.19"/>
<text text-anchor="middle" x="142" y="-996.19" font-family="Helvetica" font-size="10.00">B0</text>
<text text-anchor="middle" x="142" y="-985.19" font-family="Helvetica" font-size="10.00">Loop: &lt;none&gt;</text>
<text text-anchor="middle" x="142" y="-974.19" font-family="Helvetica" font-size="10.00">&#45;&#45;&#45;</text>
<text text-anchor="middle" x="142" y="-963.19" font-family="Helvetica" font-size="10.00">HotSpotMethod&lt;StringCoding.countPositives(byte[], int, int)&gt;</text>
</g>
<!-- b1 -->
<g id="node2" class="node">
<title>b1</title>
<polygon fill="white" stroke="black" points="676,-1070.19 392,-1070.19 392,-1018.19 676,-1018.19 676,-1070.19"/>
<text text-anchor="middle" x="534" y="-1058.19" font-family="Helvetica" font-size="10.00">B1</text>
<text text-anchor="middle" x="534" y="-1047.19" font-family="Helvetica" font-size="10.00">Loop: &lt;none&gt;</text>
<text text-anchor="middle" x="534" y="-1036.19" font-family="Helvetica" font-size="10.00">&#45;&#45;&#45;</text>
<text text-anchor="middle" x="534" y="-1025.19" font-family="Helvetica" font-size="10.00">HotSpotMethod&lt;StringCoding.countPositives(byte[], int, int)&gt;</text>
</g>
<!-- b0&#45;&gt;b1 -->
<g id="edge1" class="edge">
<title>b0&#45;&gt;b1</title>
<path fill="none" stroke="black" d="M284.07,-1004.62C315.9,-1009.68 349.79,-1015.06 382,-1020.19"/>
<polygon fill="black" stroke="black" points="381.52,-1023.65 391.94,-1021.77 382.62,-1016.74 381.52,-1023.65"/>
</g>
<!-- b2 -->
<g id="node3" class="node">
<title>b2</title>
<polygon fill="white" stroke="black" points="676,-946.19 392,-946.19 392,-894.19 676,-894.19 676,-946.19"/>
<text text-anchor="middle" x="534" y="-934.19" font-family="Helvetica" font-size="10.00">B2</text>
<text text-anchor="middle" x="534" y="-923.19" font-family="Helvetica" font-size="10.00">Loop: &lt;none&gt;</text>
<text text-anchor="middle" x="534" y="-912.19" font-family="Helvetica" font-size="10.00">&#45;&#45;&#45;</text>
<text text-anchor="middle" x="534" y="-901.19" font-family="Helvetica" font-size="10.00">HotSpotMethod&lt;StringCoding.countPositives(byte[], int, int)&gt;</text>
</g>
<!-- b0&#45;&gt;b2 -->
<g id="edge2" class="edge">
<title>b0&#45;&gt;b2</title>
<path fill="none" stroke="black" d="M284.07,-959.76C315.9,-954.7 349.79,-949.31 382,-944.19"/>
<polygon fill="black" stroke="black" points="382.62,-947.64 391.94,-942.61 381.52,-940.73 382.62,-947.64"/>
</g>
<!-- b3 -->
<g id="node4" class="node">
<title>b3</title>
<polygon fill="white" stroke="black" points="1068,-1008.19 784,-1008.19 784,-956.19 1068,-956.19 1068,-1008.19"/>
<text text-anchor="middle" x="926" y="-996.19" font-family="Helvetica" font-size="10.00">B3</text>
<text text-anchor="middle" x="926" y="-985.19" font-family="Helvetica" font-size="10.00">Loop: &lt;none&gt;</text>
<text text-anchor="middle" x="926" y="-974.19" font-family="Helvetica" font-size="10.00">&#45;&#45;&#45;</text>
<text text-anchor="middle" x="926" y="-963.19" font-family="Helvetica" font-size="10.00">HotSpotMethod&lt;StringCoding.countPositives(byte[], int, int)&gt;</text>
</g>
<!-- b1&#45;&gt;b3 -->
<g id="edge3" class="edge">
<title>b1&#45;&gt;b3</title>
<path fill="none" stroke="black" d="M676.07,-1021.76C707.9,-1016.7 741.79,-1011.31 774,-1006.19"/>
<polygon fill="black" stroke="black" points="774.62,-1009.64 783.94,-1004.61 773.52,-1002.73 774.62,-1009.64"/>
</g>
<!-- b2&#45;&gt;b3 -->
<g id="edge4" class="edge">
<title>b2&#45;&gt;b3</title>
<path fill="none" stroke="black" d="M676.07,-942.62C707.9,-947.68 741.79,-953.06 774,-958.19"/>
<polygon fill="black" stroke="black" points="773.52,-961.65 783.94,-959.77 774.62,-954.74 773.52,-961.65"/>
</g>
<!-- b5 -->
<g id="node6" class="node">
<title>b5</title>
<polygon fill="white" stroke="black" points="1460,-879.19 1176,-879.19 1176,-827.19 1460,-827.19 1460,-879.19"/>
<text text-anchor="middle" x="1318" y="-867.19" font-family="Helvetica" font-size="10.00">B5</text>
<text text-anchor="middle" x="1318" y="-856.19" font-family="Helvetica" font-size="10.00">Loop: &lt;none&gt;</text>
<text text-anchor="middle" x="1318" y="-845.19" font-family="Helvetica" font-size="10.00">&#45;&#45;&#45;</text>
<text text-anchor="middle" x="1318" y="-834.19" font-family="Helvetica" font-size="10.00">HotSpotMethod&lt;StringCoding.countPositives(byte[], int, int)&gt;</text>
</g>
<!-- b3&#45;&gt;b5 -->
<g id="edge6" class="edge">
<title>b3&#45;&gt;b5</title>
<path fill="none" stroke="black" d="M1005.92,-956.08C1070.41,-934.75 1161.54,-904.61 1228.5,-882.46"/>
<polygon fill="black" stroke="black" points="1229.8,-885.72 1238.2,-879.26 1227.6,-879.07 1229.8,-885.72"/>
</g>
<!-- b7 -->
<g id="node8" class="node">
<title>b7</title>
<polygon fill="white" stroke="black" points="1852,-1138.19 1568,-1138.19 1568,-1086.19 1852,-1086.19 1852,-1138.19"/>
<text text-anchor="middle" x="1710" y="-1126.19" font-family="Helvetica" font-size="10.00">B7</text>
<text text-anchor="middle" x="1710" y="-1115.19" font-family="Helvetica" font-size="10.00">Loop: &lt;none&gt;</text>
<text text-anchor="middle" x="1710" y="-1104.19" font-family="Helvetica" font-size="10.00">&#45;&#45;&#45;</text>
<text text-anchor="middle" x="1710" y="-1093.19" font-family="Helvetica" font-size="10.00">HotSpotMethod&lt;StringCoding.countPositives(byte[], int, int)&gt;</text>
</g>
<!-- b3&#45;&gt;b7 -->
<g id="edge5" class="edge">
<title>b3&#45;&gt;b7</title>
<path fill="none" stroke="black" d="M1031.37,-1008.26C1075.77,-1018.78 1128.23,-1030.47 1176,-1039.19 1304.06,-1062.57 1450.67,-1082.13 1557.67,-1095.1"/>
<polygon fill="black" stroke="black" points="1557.55,-1098.61 1567.9,-1096.33 1558.39,-1091.66 1557.55,-1098.61"/>
</g>
<!-- b4 -->
<g id="node5" class="node">
<title>b4</title>
<polygon fill="white" stroke="black" points="1460,-1003.19 1176,-1003.19 1176,-951.19 1460,-951.19 1460,-1003.19"/>
<text text-anchor="middle" x="1318" y="-991.19" font-family="Helvetica" font-size="10.00">B4</text>
<text text-anchor="middle" x="1318" y="-980.19" font-family="Helvetica" font-size="10.00">Loop: &lt;none&gt;</text>
<text text-anchor="middle" x="1318" y="-969.19" font-family="Helvetica" font-size="10.00">&#45;&#45;&#45;</text>
<text text-anchor="middle" x="1318" y="-958.19" font-family="Helvetica" font-size="10.00">HotSpotMethod&lt;StringCoding.countPositives(byte[], int, int)&gt;</text>
</g>
<!-- b4&#45;&gt;b7 -->
<g id="edge7" class="edge">
<title>b4&#45;&gt;b7</title>
<path fill="none" stroke="black" d="M1394.2,-1003.22C1460.05,-1026.01 1555.66,-1059.11 1624.22,-1082.84"/>
<polygon fill="black" stroke="black" points="1623.11,-1086.16 1633.7,-1086.13 1625.4,-1079.55 1623.11,-1086.16"/>
</g>
<!-- b5&#45;&gt;b7 -->
<g id="edge8" class="edge">
<title>b5&#45;&gt;b7</title>
<path fill="none" stroke="black" d="M1387.81,-879.29C1411.36,-889.3 1437.43,-901.61 1460,-915.19 1541.7,-964.36 1626.69,-1037.04 1673.21,-1079"/>
<polygon fill="black" stroke="black" points="1671.13,-1081.83 1680.89,-1085.96 1675.83,-1076.65 1671.13,-1081.83"/>
</g>
<!-- b33 -->
<g id="node34" class="node">
<title>b33</title>
<polygon fill="white" stroke="black" points="2244,-283.19 1960,-283.19 1960,-231.19 2244,-231.19 2244,-283.19"/>
<text text-anchor="middle" x="2102" y="-271.19" font-family="Helvetica" font-size="10.00">B33</text>
<text text-anchor="middle" x="2102" y="-260.19" font-family="Helvetica" font-size="10.00">Loop: &lt;none&gt;</text>
<text text-anchor="middle" x="2102" y="-249.19" font-family="Helvetica" font-size="10.00">&#45;&#45;&#45;</text>
<text text-anchor="middle" x="2102" y="-238.19" font-family="Helvetica" font-size="10.00">HotSpotMethod&lt;StringCoding.countPositives(byte[], int, int)&gt;</text>
</g>
<!-- b5&#45;&gt;b33 -->
<g id="edge9" class="edge">
<title>b5&#45;&gt;b33</title>
<path fill="none" stroke="black" d="M1353.36,-827C1479.82,-730.62 1919.28,-395.68 2058.41,-289.65"/>
<polygon fill="black" stroke="black" points="2060.92,-292.14 2066.75,-283.29 2056.68,-286.57 2060.92,-292.14"/>
</g>
<!-- b6 -->
<g id="node7" class="node">
<title>b6</title>
<polygon fill="white" stroke="black" points="1460,-1273.19 1176,-1273.19 1176,-1221.19 1460,-1221.19 1460,-1273.19"/>
<text text-anchor="middle" x="1318" y="-1261.19" font-family="Helvetica" font-size="10.00">B6</text>
<text text-anchor="middle" x="1318" y="-1250.19" font-family="Helvetica" font-size="10.00">Loop: &lt;none&gt;</text>
<text text-anchor="middle" x="1318" y="-1239.19" font-family="Helvetica" font-size="10.00">&#45;&#45;&#45;</text>
<text text-anchor="middle" x="1318" y="-1228.19" font-family="Helvetica" font-size="10.00">HotSpotMethod&lt;StringCoding.countPositives(byte[], int, int)&gt;</text>
</g>
<!-- b6&#45;&gt;b7 -->
<g id="edge10" class="edge">
<title>b6&#45;&gt;b7</title>
<path fill="none" stroke="black" d="M1394.2,-1221.16C1460.05,-1198.37 1555.66,-1165.27 1624.22,-1141.54"/>
<polygon fill="black" stroke="black" points="1625.4,-1144.83 1633.7,-1138.25 1623.11,-1138.22 1625.4,-1144.83"/>
</g>
<!-- b8 -->
<g id="node9" class="node">
<title>b8</title>
<polygon fill="white" stroke="black" points="2244,-1138.19 1960,-1138.19 1960,-1086.19 2244,-1086.19 2244,-1138.19"/>
<text text-anchor="middle" x="2102" y="-1126.19" font-family="Helvetica" font-size="10.00">B8</text>
<text text-anchor="middle" x="2102" y="-1115.19" font-family="Helvetica" font-size="10.00">Loop: &lt;none&gt;</text>
<text text-anchor="middle" x="2102" y="-1104.19" font-family="Helvetica" font-size="10.00">&#45;&#45;&#45;</text>
<text text-anchor="middle" x="2102" y="-1093.19" font-family="Helvetica" font-size="10.00">HotSpotMethod&lt;StringCoding.countPositives(byte[], int, int)&gt;</text>
</g>
<!-- b7&#45;&gt;b8 -->
<g id="edge11" class="edge">
<title>b7&#45;&gt;b8</title>
<path fill="none" stroke="black" d="M1852.07,-1112.19C1883.76,-1112.19 1917.5,-1112.19 1949.59,-1112.19"/>
<polygon fill="black" stroke="black" points="1949.94,-1115.69 1959.94,-1112.19 1949.94,-1108.69 1949.94,-1115.69"/>
</g>
<!-- b32 -->
<g id="node33" class="node">
<title>b32</title>
<polygon fill="white" stroke="black" points="6164,-1213.19 5880,-1213.19 5880,-1161.19 6164,-1161.19 6164,-1213.19"/>
<text text-anchor="middle" x="6022" y="-1201.19" font-family="Helvetica" font-size="10.00">B32</text>
<text text-anchor="middle" x="6022" y="-1190.19" font-family="Helvetica" font-size="10.00">Loop: &lt;none&gt;</text>
<text text-anchor="middle" x="6022" y="-1179.19" font-family="Helvetica" font-size="10.00">&#45;&#45;&#45;</text>
<text text-anchor="middle" x="6022" y="-1168.19" font-family="Helvetica" font-size="10.00">HotSpotMethod&lt;StringCoding.countPositives(byte[], int, int)&gt;</text>
</g>
<!-- b7&#45;&gt;b32 -->
<g id="edge12" class="edge">
<title>b7&#45;&gt;b32</title>
<path fill="none" stroke="black" d="M1752.38,-1138.34C1865.95,-1207.55 2194.02,-1390.19 2493,-1390.19 2493,-1390.19 2493,-1390.19 5239,-1390.19 5478.1,-1390.19 5544.2,-1389.82 5772,-1317.19 5845.92,-1293.62 5924.13,-1249.14 5972.75,-1218.84"/>
<polygon fill="black" stroke="black" points="5974.87,-1221.64 5981.48,-1213.35 5971.15,-1215.71 5974.87,-1221.64"/>
</g>
<!-- b9 -->
<g id="node10" class="node">
<title>b9</title>
<polygon fill="white" stroke="black" points="2636,-1051.19 2352,-1051.19 2352,-999.19 2636,-999.19 2636,-1051.19"/>
<text text-anchor="middle" x="2494" y="-1039.19" font-family="Helvetica" font-size="10.00">B9</text>
<text text-anchor="middle" x="2494" y="-1028.19" font-family="Helvetica" font-size="10.00">Loop: &lt;none&gt;</text>
<text text-anchor="middle" x="2494" y="-1017.19" font-family="Helvetica" font-size="10.00">&#45;&#45;&#45;</text>
<text text-anchor="middle" x="2494" y="-1006.19" font-family="Helvetica" font-size="10.00">HotSpotMethod&lt;StringCoding.countPositives(byte[], int, int)&gt;</text>
</g>
<!-- b8&#45;&gt;b9 -->
<g id="edge13" class="edge">
<title>b8&#45;&gt;b9</title>
<path fill="none" stroke="black" d="M2219.75,-1086.15C2265.95,-1075.84 2319.17,-1063.97 2366.3,-1053.45"/>
<polygon fill="black" stroke="black" points="2367.26,-1056.83 2376.26,-1051.23 2365.73,-1049.99 2367.26,-1056.83"/>
</g>
<!-- b30 -->
<g id="node31" class="node">
<title>b30</title>
<polygon fill="white" stroke="black" points="3420,-1265.19 3136,-1265.19 3136,-1213.19 3420,-1213.19 3420,-1265.19"/>
<text text-anchor="middle" x="3278" y="-1253.19" font-family="Helvetica" font-size="10.00">B30</text>
<text text-anchor="middle" x="3278" y="-1242.19" font-family="Helvetica" font-size="10.00">Loop: &lt;none&gt;</text>
<text text-anchor="middle" x="3278" y="-1231.19" font-family="Helvetica" font-size="10.00">&#45;&#45;&#45;</text>
<text text-anchor="middle" x="3278" y="-1220.19" font-family="Helvetica" font-size="10.00">HotSpotMethod&lt;StringCoding.countPositives(byte[], int, int)&gt;</text>
</g>
<!-- b8&#45;&gt;b30 -->
<g id="edge14" class="edge">
<title>b8&#45;&gt;b30</title>
<path fill="none" stroke="black" d="M2244.03,-1127.45C2466.45,-1151.51 2896.86,-1198.07 3125.57,-1222.81"/>
<polygon fill="black" stroke="black" points="3125.32,-1226.3 3135.64,-1223.9 3126.07,-1219.34 3125.32,-1226.3"/>
</g>
<!-- b10 -->
<g id="node11" class="node">
<title>b10</title>
<polygon fill="white" stroke="black" points="3812,-444.19 3528,-444.19 3528,-392.19 3812,-392.19 3812,-444.19"/>
<text text-anchor="middle" x="3670" y="-432.19" font-family="Helvetica" font-size="10.00">B10</text>
<text text-anchor="middle" x="3670" y="-421.19" font-family="Helvetica" font-size="10.00">Loop: &lt;none&gt;</text>
<text text-anchor="middle" x="3670" y="-410.19" font-family="Helvetica" font-size="10.00">&#45;&#45;&#45;</text>
<text text-anchor="middle" x="3670" y="-399.19" font-family="Helvetica" font-size="10.00">HotSpotMethod&lt;StringCoding.countPositives(byte[], int, int)&gt;</text>
</g>
<!-- b9&#45;&gt;b10 -->
<g id="edge15" class="edge">
<title>b9&#45;&gt;b10</title>
<path fill="none" stroke="black" d="M2545.45,-999.11C2735.09,-901.05 3404.91,-554.74 3609.32,-449.05"/>
<polygon fill="black" stroke="black" points="3611.14,-452.05 3618.41,-444.34 3607.92,-445.83 3611.14,-452.05"/>
</g>
<!-- b11 -->
<g id="node12" class="node">
<title>b11</title>
<polygon fill="white" stroke="black" points="3028,-1051.19 2744,-1051.19 2744,-999.19 3028,-999.19 3028,-1051.19"/>
<text text-anchor="middle" x="2886" y="-1039.19" font-family="Helvetica" font-size="10.00">B11</text>
<text text-anchor="middle" x="2886" y="-1028.19" font-family="Helvetica" font-size="10.00">Loop: &lt;none&gt;</text>
<text text-anchor="middle" x="2886" y="-1017.19" font-family="Helvetica" font-size="10.00">&#45;&#45;&#45;</text>
<text text-anchor="middle" x="2886" y="-1006.19" font-family="Helvetica" font-size="10.00">HotSpotMethod&lt;StringCoding.countPositives(byte[], int, int)&gt;</text>
</g>
<!-- b9&#45;&gt;b11 -->
<g id="edge16" class="edge">
<title>b9&#45;&gt;b11</title>
<path fill="none" stroke="black" d="M2636.07,-1025.19C2667.76,-1025.19 2701.5,-1025.19 2733.59,-1025.19"/>
<polygon fill="black" stroke="black" points="2733.94,-1028.69 2743.94,-1025.19 2733.94,-1021.69 2733.94,-1028.69"/>
</g>
<!-- b34 -->
<g id="node35" class="node">
<title>b34</title>
<polygon fill="white" stroke="black" points="5772,-573.19 5488,-573.19 5488,-521.19 5772,-521.19 5772,-573.19"/>
<text text-anchor="middle" x="5630" y="-561.19" font-family="Helvetica" font-size="10.00">B34</text>
<text text-anchor="middle" x="5630" y="-550.19" font-family="Helvetica" font-size="10.00">Loop: &lt;none&gt;</text>
<text text-anchor="middle" x="5630" y="-539.19" font-family="Helvetica" font-size="10.00">&#45;&#45;&#45;</text>
<text text-anchor="middle" x="5630" y="-528.19" font-family="Helvetica" font-size="10.00">HotSpotMethod&lt;StringCoding.countPositives(byte[], int, int)&gt;</text>
</g>
<!-- b10&#45;&gt;b34 -->
<g id="edge17" class="edge">
<title>b10&#45;&gt;b34</title>
<path fill="none" stroke="black" d="M3765.56,-392.12C3911.75,-354.17 4202,-288.19 4453,-288.19 4453,-288.19 4453,-288.19 4847,-288.19 5086.1,-288.19 5158.75,-270.54 5380,-361.19 5467.32,-396.96 5551.54,-470.66 5596.14,-513.78"/>
<polygon fill="black" stroke="black" points="5593.88,-516.46 5603.48,-520.94 5598.77,-511.45 5593.88,-516.46"/>
</g>
<!-- b12 -->
<g id="node13" class="node">
<title>b12</title>
<polygon fill="white" stroke="black" points="3420,-911.19 3136,-911.19 3136,-859.19 3420,-859.19 3420,-911.19"/>
<text text-anchor="middle" x="3278" y="-899.19" font-family="Helvetica" font-size="10.00">B12</text>
<text text-anchor="middle" x="3278" y="-888.19" font-family="Helvetica" font-size="10.00">Loop: &lt;none&gt;</text>
<text text-anchor="middle" x="3278" y="-877.19" font-family="Helvetica" font-size="10.00">&#45;&#45;&#45;</text>
<text text-anchor="middle" x="3278" y="-866.19" font-family="Helvetica" font-size="10.00">HotSpotMethod&lt;StringCoding.countPositives(byte[], int, int)&gt;</text>
</g>
<!-- b11&#45;&gt;b12 -->
<g id="edge18" class="edge">
<title>b11&#45;&gt;b12</title>
<path fill="none" stroke="black" d="M2959.44,-999.19C3026.13,-975.24 3124.99,-939.76 3194.66,-914.75"/>
<polygon fill="black" stroke="black" points="3196.06,-917.97 3204.29,-911.29 3193.69,-911.38 3196.06,-917.97"/>
</g>
<!-- b11&#45;&gt;b32 -->
<g id="edge19" class="edge">
<title>b11&#45;&gt;b32</title>
<path fill="none" stroke="black" d="M3028.26,-1046.35C3184.58,-1067.91 3444.19,-1098.19 3669,-1098.19 3669,-1098.19 3669,-1098.19 4455,-1098.19 4974.99,-1098.19 5590.54,-1147.71 5869.78,-1172.87"/>
<polygon fill="black" stroke="black" points="5869.7,-1176.38 5879.98,-1173.79 5870.33,-1169.41 5869.7,-1176.38"/>
</g>
<!-- b13 -->
<g id="node14" class="node">
<title>b13</title>
<polygon fill="white" stroke="black" points="3812,-911.19 3528,-911.19 3528,-859.19 3812,-859.19 3812,-911.19"/>
<text text-anchor="middle" x="3670" y="-899.19" font-family="Helvetica" font-size="10.00">B13</text>
<text text-anchor="middle" x="3670" y="-888.19" font-family="Helvetica" font-size="10.00">Loop: &lt;none&gt;</text>
<text text-anchor="middle" x="3670" y="-877.19" font-family="Helvetica" font-size="10.00">&#45;&#45;&#45;</text>
<text text-anchor="middle" x="3670" y="-866.19" font-family="Helvetica" font-size="10.00">HotSpotMethod&lt;StringCoding.countPositives(byte[], int, int)&gt;</text>
</g>
<!-- b12&#45;&gt;b13 -->
<g id="edge20" class="edge">
<title>b12&#45;&gt;b13</title>
<path fill="none" stroke="black" d="M3420.07,-885.19C3451.76,-885.19 3485.5,-885.19 3517.59,-885.19"/>
<polygon fill="black" stroke="black" points="3517.94,-888.69 3527.94,-885.19 3517.94,-881.69 3517.94,-888.69"/>
</g>
<!-- b19 -->
<g id="node20" class="node">
<title>b19</title>
<polygon fill="white" stroke="black" points="4596,-578.19 4312,-578.19 4312,-526.19 4596,-526.19 4596,-578.19"/>
<text text-anchor="middle" x="4454" y="-566.19" font-family="Helvetica" font-size="10.00">B19</text>
<text text-anchor="middle" x="4454" y="-555.19" font-family="Helvetica" font-size="10.00">Loop: &lt;none&gt;</text>
<text text-anchor="middle" x="4454" y="-544.19" font-family="Helvetica" font-size="10.00">&#45;&#45;&#45;</text>
<text text-anchor="middle" x="4454" y="-533.19" font-family="Helvetica" font-size="10.00">HotSpotMethod&lt;StringCoding.countPositives(byte[], int, int)&gt;</text>
</g>
<!-- b12&#45;&gt;b19 -->
<g id="edge21" class="edge">
<title>b12&#45;&gt;b19</title>
<path fill="none" stroke="black" d="M3371.12,-859.06C3587.37,-797.72 4126.19,-644.89 4351.47,-580.99"/>
<polygon fill="black" stroke="black" points="4352.64,-584.29 4361.31,-578.2 4350.73,-577.56 4352.64,-584.29"/>
</g>
<!-- b14 -->
<g id="node15" class="node">
<title>b14</title>
<polygon fill="white" stroke="black" points="4204,-843.19 3920,-843.19 3920,-791.19 4204,-791.19 4204,-843.19"/>
<text text-anchor="middle" x="4062" y="-831.19" font-family="Helvetica" font-size="10.00">B14</text>
<text text-anchor="middle" x="4062" y="-820.19" font-family="Helvetica" font-size="10.00">Loop: &lt;none&gt;</text>
<text text-anchor="middle" x="4062" y="-809.19" font-family="Helvetica" font-size="10.00">&#45;&#45;&#45;</text>
<text text-anchor="middle" x="4062" y="-798.19" font-family="Helvetica" font-size="10.00">HotSpotMethod&lt;StringCoding.countPositives(byte[], int, int)&gt;</text>
</g>
<!-- b13&#45;&gt;b14 -->
<g id="edge22" class="edge">
<title>b13&#45;&gt;b14</title>
<path fill="none" stroke="black" d="M3812.07,-860.59C3843.9,-855.04 3877.79,-849.13 3910,-843.52"/>
<polygon fill="black" stroke="black" points="3910.69,-846.95 3919.94,-841.78 3909.49,-840.05 3910.69,-846.95"/>
</g>
<!-- b17 -->
<g id="node18" class="node">
<title>b17</title>
<polygon fill="white" stroke="black" points="4596,-916.19 4312,-916.19 4312,-864.19 4596,-864.19 4596,-916.19"/>
<text text-anchor="middle" x="4454" y="-904.19" font-family="Helvetica" font-size="10.00">B17</text>
<text text-anchor="middle" x="4454" y="-893.19" font-family="Helvetica" font-size="10.00">Loop: &lt;none&gt;</text>
<text text-anchor="middle" x="4454" y="-882.19" font-family="Helvetica" font-size="10.00">&#45;&#45;&#45;</text>
<text text-anchor="middle" x="4454" y="-871.19" font-family="Helvetica" font-size="10.00">HotSpotMethod&lt;StringCoding.countPositives(byte[], int, int)&gt;</text>
</g>
<!-- b13&#45;&gt;b17 -->
<g id="edge23" class="edge">
<title>b13&#45;&gt;b17</title>
<path fill="none" stroke="black" d="M3812.16,-886.09C3950.39,-886.98 4160.31,-888.32 4301.87,-889.22"/>
<polygon fill="black" stroke="black" points="4301.92,-892.72 4311.94,-889.29 4301.96,-885.72 4301.92,-892.72"/>
</g>
<!-- b16 -->
<g id="node17" class="node">
<title>b16</title>
<polygon fill="white" stroke="black" points="4988,-719.19 4704,-719.19 4704,-667.19 4988,-667.19 4988,-719.19"/>
<text text-anchor="middle" x="4846" y="-707.19" font-family="Helvetica" font-size="10.00">B16</text>
<text text-anchor="middle" x="4846" y="-696.19" font-family="Helvetica" font-size="10.00">Loop: &lt;none&gt;</text>
<text text-anchor="middle" x="4846" y="-685.19" font-family="Helvetica" font-size="10.00">&#45;&#45;&#45;</text>
<text text-anchor="middle" x="4846" y="-674.19" font-family="Helvetica" font-size="10.00">HotSpotMethod&lt;StringCoding.countPositives(byte[], int, int)&gt;</text>
</g>
<!-- b14&#45;&gt;b16 -->
<g id="edge25" class="edge">
<title>b14&#45;&gt;b16</title>
<path fill="none" stroke="black" d="M4204.16,-794.81C4342.39,-772.89 4552.31,-739.6 4693.87,-717.15"/>
<polygon fill="black" stroke="black" points="4694.61,-720.58 4703.94,-715.56 4693.52,-713.67 4694.61,-720.58"/>
</g>
<!-- b14&#45;&gt;b19 -->
<g id="edge24" class="edge">
<title>b14&#45;&gt;b19</title>
<path fill="none" stroke="black" d="M4112.5,-791.05C4139.94,-776.08 4174.41,-756.47 4204,-737.19 4280.13,-687.58 4364.08,-622.99 4412.47,-584.73"/>
<polygon fill="black" stroke="black" points="4414.84,-587.31 4420.5,-578.36 4410.49,-581.83 4414.84,-587.31"/>
</g>
<!-- b15 -->
<g id="node16" class="node">
<title>b15</title>
<polygon fill="white" stroke="black" points="4204,-573.19 3920,-573.19 3920,-521.19 4204,-521.19 4204,-573.19"/>
<text text-anchor="middle" x="4062" y="-561.19" font-family="Helvetica" font-size="10.00">B15</text>
<text text-anchor="middle" x="4062" y="-550.19" font-family="Helvetica" font-size="10.00">Loop: &lt;none&gt;</text>
<text text-anchor="middle" x="4062" y="-539.19" font-family="Helvetica" font-size="10.00">&#45;&#45;&#45;</text>
<text text-anchor="middle" x="4062" y="-528.19" font-family="Helvetica" font-size="10.00">HotSpotMethod&lt;StringCoding.countPositives(byte[], int, int)&gt;</text>
</g>
<!-- b15&#45;&gt;b19 -->
<g id="edge26" class="edge">
<title>b15&#45;&gt;b19</title>
<path fill="none" stroke="black" d="M4204.07,-549C4235.76,-549.4 4269.5,-549.84 4301.59,-550.25"/>
<polygon fill="black" stroke="black" points="4301.9,-553.75 4311.94,-550.38 4301.99,-546.75 4301.9,-553.75"/>
</g>
<!-- b16&#45;&gt;b34 -->
<g id="edge27" class="edge">
<title>b16&#45;&gt;b34</title>
<path fill="none" stroke="black" d="M4988.16,-674.39C5095.94,-659.2 5247.91,-635.99 5380,-609.19 5427.19,-599.62 5478.91,-587.08 5522.93,-575.78"/>
<polygon fill="black" stroke="black" points="5523.97,-579.13 5532.78,-573.24 5522.22,-572.35 5523.97,-579.13"/>
</g>
<!-- b17&#45;&gt;b34 -->
<g id="edge28" class="edge">
<title>b17&#45;&gt;b34</title>
<path fill="none" stroke="black" d="M4596.34,-873.1C4781.15,-847.71 5112.81,-791.63 5380,-689.19 5455.18,-660.37 5534.78,-611.26 5583.19,-579.02"/>
<polygon fill="black" stroke="black" points="5585.21,-581.88 5591.57,-573.4 5581.31,-576.07 5585.21,-581.88"/>
</g>
<!-- b18 -->
<g id="node19" class="node">
<title>b18</title>
<polygon fill="white" stroke="black" points="4204,-449.19 3920,-449.19 3920,-397.19 4204,-397.19 4204,-449.19"/>
<text text-anchor="middle" x="4062" y="-437.19" font-family="Helvetica" font-size="10.00">B18</text>
<text text-anchor="middle" x="4062" y="-426.19" font-family="Helvetica" font-size="10.00">Loop: &lt;none&gt;</text>
<text text-anchor="middle" x="4062" y="-415.19" font-family="Helvetica" font-size="10.00">&#45;&#45;&#45;</text>
<text text-anchor="middle" x="4062" y="-404.19" font-family="Helvetica" font-size="10.00">HotSpotMethod&lt;StringCoding.countPositives(byte[], int, int)&gt;</text>
</g>
<!-- b18&#45;&gt;b19 -->
<g id="edge29" class="edge">
<title>b18&#45;&gt;b19</title>
<path fill="none" stroke="black" d="M4141.92,-449.29C4206.41,-470.63 4297.54,-500.77 4364.5,-522.92"/>
<polygon fill="black" stroke="black" points="4363.6,-526.31 4374.2,-526.12 4365.8,-519.66 4363.6,-526.31"/>
</g>
<!-- b20 -->
<g id="node21" class="node">
<title>b20</title>
<polygon fill="white" stroke="black" points="4988,-449.19 4704,-449.19 4704,-397.19 4988,-397.19 4988,-449.19"/>
<text text-anchor="middle" x="4846" y="-437.19" font-family="Helvetica" font-size="10.00">B20</text>
<text text-anchor="middle" x="4846" y="-426.19" font-family="Helvetica" font-size="10.00">Loop: &lt;none&gt;</text>
<text text-anchor="middle" x="4846" y="-415.19" font-family="Helvetica" font-size="10.00">&#45;&#45;&#45;</text>
<text text-anchor="middle" x="4846" y="-404.19" font-family="Helvetica" font-size="10.00">HotSpotMethod&lt;StringCoding.countPositives(byte[], int, int)&gt;</text>
</g>
<!-- b19&#45;&gt;b20 -->
<g id="edge30" class="edge">
<title>b19&#45;&gt;b20</title>
<path fill="none" stroke="black" d="M4533.92,-526.08C4598.41,-504.75 4689.54,-474.61 4756.5,-452.46"/>
<polygon fill="black" stroke="black" points="4757.8,-455.72 4766.2,-449.26 4755.6,-449.07 4757.8,-455.72"/>
</g>
<!-- b28 -->
<g id="node29" class="node">
<title>b28</title>
<polygon fill="white" stroke="black" points="5380,-573.19 5096,-573.19 5096,-521.19 5380,-521.19 5380,-573.19"/>
<text text-anchor="middle" x="5238" y="-561.19" font-family="Helvetica" font-size="10.00">B28</text>
<text text-anchor="middle" x="5238" y="-550.19" font-family="Helvetica" font-size="10.00">Loop: &lt;none&gt;</text>
<text text-anchor="middle" x="5238" y="-539.19" font-family="Helvetica" font-size="10.00">&#45;&#45;&#45;</text>
<text text-anchor="middle" x="5238" y="-528.19" font-family="Helvetica" font-size="10.00">HotSpotMethod&lt;StringCoding.countPositives(byte[], int, int)&gt;</text>
</g>
<!-- b19&#45;&gt;b28 -->
<g id="edge31" class="edge">
<title>b19&#45;&gt;b28</title>
<path fill="none" stroke="black" d="M4596.16,-551.29C4734.39,-550.4 4944.31,-549.06 5085.87,-548.16"/>
<polygon fill="black" stroke="black" points="5085.96,-551.66 5095.94,-548.09 5085.92,-544.66 5085.96,-551.66"/>
</g>
<!-- b21 -->
<g id="node22" class="node">
<title>b21</title>
<polygon fill="white" stroke="black" points="5380,-449.19 5096,-449.19 5096,-397.19 5380,-397.19 5380,-449.19"/>
<text text-anchor="middle" x="5238" y="-437.19" font-family="Helvetica" font-size="10.00">B21</text>
<text text-anchor="middle" x="5238" y="-426.19" font-family="Helvetica" font-size="10.00">Loop: &lt;none&gt;</text>
<text text-anchor="middle" x="5238" y="-415.19" font-family="Helvetica" font-size="10.00">&#45;&#45;&#45;</text>
<text text-anchor="middle" x="5238" y="-404.19" font-family="Helvetica" font-size="10.00">HotSpotMethod&lt;StringCoding.countPositives(byte[], int, int)&gt;</text>
</g>
<!-- b20&#45;&gt;b21 -->
<g id="edge32" class="edge">
<title>b20&#45;&gt;b21</title>
<path fill="none" stroke="black" d="M4988.07,-423.19C5019.76,-423.19 5053.5,-423.19 5085.59,-423.19"/>
<polygon fill="black" stroke="black" points="5085.94,-426.69 5095.94,-423.19 5085.94,-419.69 5085.94,-426.69"/>
</g>
<!-- b22 -->
<g id="node23" class="node">
<title>b22</title>
<polygon fill="white" stroke="black" points="5380,-179.19 5096,-179.19 5096,-127.19 5380,-127.19 5380,-179.19"/>
<text text-anchor="middle" x="5238" y="-167.19" font-family="Helvetica" font-size="10.00">B22</text>
<text text-anchor="middle" x="5238" y="-156.19" font-family="Helvetica" font-size="10.00">Loop: &lt;none&gt;</text>
<text text-anchor="middle" x="5238" y="-145.19" font-family="Helvetica" font-size="10.00">&#45;&#45;&#45;</text>
<text text-anchor="middle" x="5238" y="-134.19" font-family="Helvetica" font-size="10.00">HotSpotMethod&lt;StringCoding.countPositives(byte[], int, int)&gt;</text>
</g>
<!-- b20&#45;&gt;b22 -->
<g id="edge33" class="edge">
<title>b20&#45;&gt;b22</title>
<path fill="none" stroke="black" d="M4884.75,-397.06C4956.54,-347.36 5112.51,-239.37 5190.56,-185.34"/>
<polygon fill="black" stroke="black" points="5193,-187.91 5199.23,-179.34 5189.02,-182.15 5193,-187.91"/>
</g>
<!-- b21&#45;&gt;b34 -->
<g id="edge34" class="edge">
<title>b21&#45;&gt;b34</title>
<path fill="none" stroke="black" d="M5321.23,-449.34C5384.47,-469.44 5471.82,-497.21 5537.31,-518.04"/>
<polygon fill="black" stroke="black" points="5536.62,-521.49 5547.21,-521.19 5538.75,-514.82 5536.62,-521.49"/>
</g>
<!-- b23 -->
<g id="node24" class="node">
<title>b23</title>
<polygon fill="lightblue" stroke="black" points="5772,-314.19 5488,-314.19 5488,-262.19 5772,-262.19 5772,-314.19"/>
<text text-anchor="middle" x="5630" y="-302.19" font-family="Helvetica" font-size="10.00">B23</text>
<text text-anchor="middle" x="5630" y="-291.19" font-family="Helvetica" font-size="10.00">Loop: L0</text>
<text text-anchor="middle" x="5630" y="-280.19" font-family="Helvetica" font-size="10.00">&#45;&#45;&#45;</text>
<text text-anchor="middle" x="5630" y="-269.19" font-family="Helvetica" font-size="10.00">HotSpotMethod&lt;StringCoding.countPositives(byte[], int, int)&gt;</text>
</g>
<!-- b22&#45;&gt;b23 -->
<g id="edge35" class="edge">
<title>b22&#45;&gt;b23</title>
<path fill="none" stroke="black" d="M5314.2,-179.22C5380.05,-202.01 5475.66,-235.11 5544.22,-258.84"/>
<polygon fill="black" stroke="black" points="5543.11,-262.16 5553.7,-262.13 5545.4,-255.55 5543.11,-262.16"/>
</g>
<!-- b24 -->
<g id="node25" class="node">
<title>b24</title>
<polygon fill="lightblue" stroke="black" points="6164,-247.19 5880,-247.19 5880,-195.19 6164,-195.19 6164,-247.19"/>
<text text-anchor="middle" x="6022" y="-235.19" font-family="Helvetica" font-size="10.00">B24</text>
<text text-anchor="middle" x="6022" y="-224.19" font-family="Helvetica" font-size="10.00">Loop: L0</text>
<text text-anchor="middle" x="6022" y="-213.19" font-family="Helvetica" font-size="10.00">&#45;&#45;&#45;</text>
<text text-anchor="middle" x="6022" y="-202.19" font-family="Helvetica" font-size="10.00">HotSpotMethod&lt;StringCoding.countPositives(byte[], int, int)&gt;</text>
</g>
<!-- b23&#45;&gt;b24 -->
<g id="edge36" class="edge">
<title>b23&#45;&gt;b24</title>
<path fill="none" stroke="black" d="M5772.07,-263.95C5803.9,-258.49 5837.79,-252.66 5870,-247.13"/>
<polygon fill="black" stroke="black" points="5870.68,-250.57 5879.94,-245.42 5869.49,-243.67 5870.68,-250.57"/>
</g>
<!-- b23&#45;&gt;b32 -->
<g id="edge37" class="edge">
<title>b23&#45;&gt;b32</title>
<path fill="none" stroke="black" d="M5653.41,-314.35C5683.64,-350.67 5737.65,-419.38 5772,-485.19 5897.8,-726.22 5984.92,-1044.85 6012.04,-1151.03"/>
<polygon fill="black" stroke="black" points="6008.7,-1152.09 6014.55,-1160.93 6015.48,-1150.37 6008.7,-1152.09"/>
</g>
<!-- b25 -->
<g id="node26" class="node">
<title>b25</title>
<polygon fill="white" stroke="black" points="6556,-247.19 6272,-247.19 6272,-195.19 6556,-195.19 6556,-247.19"/>
<text text-anchor="middle" x="6414" y="-235.19" font-family="Helvetica" font-size="10.00">B25</text>
<text text-anchor="middle" x="6414" y="-224.19" font-family="Helvetica" font-size="10.00">Loop: &lt;none&gt;</text>
<text text-anchor="middle" x="6414" y="-213.19" font-family="Helvetica" font-size="10.00">&#45;&#45;&#45;</text>
<text text-anchor="middle" x="6414" y="-202.19" font-family="Helvetica" font-size="10.00">HotSpotMethod&lt;StringCoding.countPositives(byte[], int, int)&gt;</text>
</g>
<!-- b24&#45;&gt;b25 -->
<g id="edge38" class="edge">
<title>b24&#45;&gt;b25</title>
<path fill="none" stroke="black" d="M6164.07,-221.19C6195.76,-221.19 6229.5,-221.19 6261.59,-221.19"/>
<polygon fill="black" stroke="black" points="6261.94,-224.69 6271.94,-221.19 6261.94,-217.69 6261.94,-224.69"/>
</g>
<!-- b26 -->
<g id="node27" class="node">
<title>b26</title>
<polygon fill="lightblue" stroke="black" points="6556,-376.19 6272,-376.19 6272,-324.19 6556,-324.19 6556,-376.19"/>
<text text-anchor="middle" x="6414" y="-364.19" font-family="Helvetica" font-size="10.00">B26</text>
<text text-anchor="middle" x="6414" y="-353.19" font-family="Helvetica" font-size="10.00">Loop: L0</text>
<text text-anchor="middle" x="6414" y="-342.19" font-family="Helvetica" font-size="10.00">&#45;&#45;&#45;</text>
<text text-anchor="middle" x="6414" y="-331.19" font-family="Helvetica" font-size="10.00">HotSpotMethod&lt;StringCoding.countPositives(byte[], int, int)&gt;</text>
</g>
<!-- b24&#45;&gt;b26 -->
<g id="edge39" class="edge">
<title>b24&#45;&gt;b26</title>
<path fill="none" stroke="black" d="M6101.92,-247.29C6166.41,-268.63 6257.54,-298.77 6324.5,-320.92"/>
<polygon fill="black" stroke="black" points="6323.6,-324.31 6334.2,-324.12 6325.8,-317.66 6323.6,-324.31"/>
</g>
<!-- b26&#45;&gt;b23 -->
<g id="edge40" class="edge">
<title>b26&#45;&gt;b23</title>
<path fill="none" stroke="black" d="M6271.94,-339.01C6133.75,-328.05 5923.83,-311.41 5782.24,-300.18"/>
<polygon fill="black" stroke="black" points="5782.41,-296.68 5772.16,-299.38 5781.85,-303.66 5782.41,-296.68"/>
</g>
<!-- b27 -->
<g id="node28" class="node">
<title>b27</title>
<polygon fill="white" stroke="black" points="5772,-1551.19 5488,-1551.19 5488,-1499.19 5772,-1499.19 5772,-1551.19"/>
<text text-anchor="middle" x="5630" y="-1539.19" font-family="Helvetica" font-size="10.00">B27</text>
<text text-anchor="middle" x="5630" y="-1528.19" font-family="Helvetica" font-size="10.00">Loop: &lt;none&gt;</text>
<text text-anchor="middle" x="5630" y="-1517.19" font-family="Helvetica" font-size="10.00">&#45;&#45;&#45;</text>
<text text-anchor="middle" x="5630" y="-1506.19" font-family="Helvetica" font-size="10.00">HotSpotMethod&lt;StringCoding.countPositives(byte[], int, int)&gt;</text>
</g>
<!-- b27&#45;&gt;b32 -->
<g id="edge41" class="edge">
<title>b27&#45;&gt;b32</title>
<path fill="none" stroke="black" d="M5685.16,-1499.15C5712.39,-1484.92 5745.2,-1465.97 5772,-1445.19 5861.89,-1375.48 5950.31,-1273.84 5993.57,-1221.37"/>
<polygon fill="black" stroke="black" points="5996.48,-1223.33 6000.12,-1213.38 5991.07,-1218.9 5996.48,-1223.33"/>
</g>
<!-- b28&#45;&gt;b34 -->
<g id="edge42" class="edge">
<title>b28&#45;&gt;b34</title>
<path fill="none" stroke="black" d="M5380.07,-547.19C5411.76,-547.19 5445.5,-547.19 5477.59,-547.19"/>
<polygon fill="black" stroke="black" points="5477.94,-550.69 5487.94,-547.19 5477.94,-543.69 5477.94,-550.69"/>
</g>
<!-- b29 -->
<g id="node30" class="node">
<title>b29</title>
<polygon fill="white" stroke="black" points="5772,-1281.19 5488,-1281.19 5488,-1229.19 5772,-1229.19 5772,-1281.19"/>
<text text-anchor="middle" x="5630" y="-1269.19" font-family="Helvetica" font-size="10.00">B29</text>
<text text-anchor="middle" x="5630" y="-1258.19" font-family="Helvetica" font-size="10.00">Loop: &lt;none&gt;</text>
<text text-anchor="middle" x="5630" y="-1247.19" font-family="Helvetica" font-size="10.00">&#45;&#45;&#45;</text>
<text text-anchor="middle" x="5630" y="-1236.19" font-family="Helvetica" font-size="10.00">HotSpotMethod&lt;StringCoding.countPositives(byte[], int, int)&gt;</text>
</g>
<!-- b29&#45;&gt;b32 -->
<g id="edge43" class="edge">
<title>b29&#45;&gt;b32</title>
<path fill="none" stroke="black" d="M5772.07,-1230.59C5803.9,-1225.04 5837.79,-1219.13 5870,-1213.52"/>
<polygon fill="black" stroke="black" points="5870.69,-1216.95 5879.94,-1211.78 5869.49,-1210.05 5870.69,-1216.95"/>
</g>
<!-- b30&#45;&gt;b34 -->
<g id="edge44" class="edge">
<title>b30&#45;&gt;b34</title>
<path fill="none" stroke="black" d="M3420.27,-1240.64C3576.88,-1242.11 3836.99,-1244.19 4061,-1244.19 4061,-1244.19 4061,-1244.19 4455,-1244.19 4980.81,-1244.19 5476.88,-720.83 5599.94,-581.13"/>
<polygon fill="black" stroke="black" points="5602.89,-583.07 5606.85,-573.24 5597.63,-578.46 5602.89,-583.07"/>
</g>
<!-- b31 -->
<g id="node32" class="node">
<title>b31</title>
<polygon fill="white" stroke="black" points="5772,-1011.19 5488,-1011.19 5488,-959.19 5772,-959.19 5772,-1011.19"/>
<text text-anchor="middle" x="5630" y="-999.19" font-family="Helvetica" font-size="10.00">B31</text>
<text text-anchor="middle" x="5630" y="-988.19" font-family="Helvetica" font-size="10.00">Loop: &lt;none&gt;</text>
<text text-anchor="middle" x="5630" y="-977.19" font-family="Helvetica" font-size="10.00">&#45;&#45;&#45;</text>
<text text-anchor="middle" x="5630" y="-966.19" font-family="Helvetica" font-size="10.00">HotSpotMethod&lt;StringCoding.countPositives(byte[], int, int)&gt;</text>
</g>
<!-- b31&#45;&gt;b32 -->
<g id="edge45" class="edge">
<title>b31&#45;&gt;b32</title>
<path fill="none" stroke="black" d="M5681.59,-1011.39C5753.48,-1048.63 5884.95,-1116.72 5961.45,-1156.35"/>
<polygon fill="black" stroke="black" points="5960.01,-1159.54 5970.5,-1161.04 5963.23,-1153.33 5960.01,-1159.54"/>
</g>
<!-- b33&#45;&gt;b34 -->
<g id="edge46" class="edge">
<title>b33&#45;&gt;b34</title>
<path fill="none" stroke="black" d="M2151.73,-231.16C2272.36,-169.21 2596.11,-18.19 2885,-18.19 2885,-18.19 2885,-18.19 4847,-18.19 5086.1,-18.19 5190.52,54.64 5380,-91.19 5478.84,-167.25 5427.32,-241.23 5488,-350.19 5521.67,-410.66 5570.32,-474.78 5600.77,-512.88"/>
<polygon fill="black" stroke="black" points="5598.36,-515.47 5607.35,-521.07 5603.81,-511.08 5598.36,-515.47"/>
</g>
</g>
</svg>
