<?xml version="1.0" encoding="UTF-8" standalone="no"?>
<!DOCTYPE svg PUBLIC "-//W3C//DTD SVG 1.1//EN"
 "http://www.w3.org/Graphics/SVG/1.1/DTD/svg11.dtd">
<!-- Generated by graphviz version 2.44.0 (0)
 -->
<!-- Title: CFG_56 Pages: 1 -->
<svg width="3428pt" height="995pt"
 viewBox="0.00 0.00 3428.00 995.00" xmlns="http://www.w3.org/2000/svg" xmlns:xlink="http://www.w3.org/1999/xlink">
<g id="graph0" class="graph" transform="scale(1 1) rotate(0) translate(4 991)">
<title>CFG_56</title>
<polygon fill="white" stroke="transparent" points="-4,4 -4,-991 3424,-991 3424,4 -4,4"/>
<text text-anchor="middle" x="269.5" y="-967" font-family="Times-Roman" font-size="20.00">java.lang.StringCoding.countPositives(byte[], int, int)</text>
<!-- b0 -->
<g id="node1" class="node">
<title>b0</title>
<polygon fill="white" stroke="black" points="284,-290 0,-290 0,-238 284,-238 284,-290"/>
<text text-anchor="middle" x="142" y="-278" font-family="Helvetica" font-size="10.00">B0</text>
<text text-anchor="middle" x="142" y="-267" font-family="Helvetica" font-size="10.00">Loop: &lt;none&gt;</text>
<text text-anchor="middle" x="142" y="-256" font-family="Helvetica" font-size="10.00">&#45;&#45;&#45;</text>
<text text-anchor="middle" x="142" y="-245" font-family="Helvetica" font-size="10.00">HotSpotMethod&lt;StringCoding.countPositives(byte[], int, int)&gt;</text>
</g>
<!-- b1 -->
<g id="node2" class="node">
<title>b1</title>
<polygon fill="white" stroke="black" points="676,-555 392,-555 392,-503 676,-503 676,-555"/>
<text text-anchor="middle" x="534" y="-543" font-family="Helvetica" font-size="10.00">B1</text>
<text text-anchor="middle" x="534" y="-532" font-family="Helvetica" font-size="10.00">Loop: &lt;none&gt;</text>
<text text-anchor="middle" x="534" y="-521" font-family="Helvetica" font-size="10.00">&#45;&#45;&#45;</text>
<text text-anchor="middle" x="534" y="-510" font-family="Helvetica" font-size="10.00">HotSpotMethod&lt;StringCoding.countPositives(byte[], int, int)&gt;</text>
</g>
<!-- b0&#45;&gt;b1 -->
<g id="edge1" class="edge">
<title>b0&#45;&gt;b1</title>
<path fill="none" stroke="black" d="M181.46,-290.13C253.35,-338.98 407.85,-443.96 485.87,-496.97"/>
<polygon fill="black" stroke="black" points="484.3,-500.14 494.54,-502.87 488.23,-494.35 484.3,-500.14"/>
</g>
<!-- b20 -->
<g id="node21" class="node">
<title>b20</title>
<polygon fill="white" stroke="black" points="3028,-204 2744,-204 2744,-152 3028,-152 3028,-204"/>
<text text-anchor="middle" x="2886" y="-192" font-family="Helvetica" font-size="10.00">B20</text>
<text text-anchor="middle" x="2886" y="-181" font-family="Helvetica" font-size="10.00">Loop: &lt;none&gt;</text>
<text text-anchor="middle" x="2886" y="-170" font-family="Helvetica" font-size="10.00">&#45;&#45;&#45;</text>
<text text-anchor="middle" x="2886" y="-159" font-family="Helvetica" font-size="10.00">HotSpotMethod&lt;StringCoding.countPositives(byte[], int, int)&gt;</text>
</g>
<!-- b0&#45;&gt;b20 -->
<g id="edge2" class="edge">
<title>b0&#45;&gt;b20</title>
<path fill="none" stroke="black" d="M186.64,-237.96C302.54,-171.36 629.46,0 925,0 925,0 925,0 2103,0 2342.1,0 2405.41,-9.78 2636,-73 2702.73,-91.3 2775.23,-123.36 2824.69,-147.26"/>
<polygon fill="black" stroke="black" points="2823.43,-150.54 2833.96,-151.77 2826.5,-144.25 2823.43,-150.54"/>
</g>
<!-- b2 -->
<g id="node3" class="node">
<title>b2</title>
<polygon fill="white" stroke="black" points="1068,-814 784,-814 784,-762 1068,-762 1068,-814"/>
<text text-anchor="middle" x="926" y="-802" font-family="Helvetica" font-size="10.00">B2</text>
<text text-anchor="middle" x="926" y="-791" font-family="Helvetica" font-size="10.00">Loop: &lt;none&gt;</text>
<text text-anchor="middle" x="926" y="-780" font-family="Helvetica" font-size="10.00">&#45;&#45;&#45;</text>
<text text-anchor="middle" x="926" y="-769" font-family="Helvetica" font-size="10.00">HotSpotMethod&lt;StringCoding.countPositives(byte[], int, int)&gt;</text>
</g>
<!-- b1&#45;&gt;b2 -->
<g id="edge3" class="edge">
<title>b1&#45;&gt;b2</title>
<path fill="none" stroke="black" d="M574.18,-555.02C646.16,-602.82 799.2,-704.45 877.17,-756.24"/>
<polygon fill="black" stroke="black" points="875.58,-759.38 885.85,-762 879.45,-753.55 875.58,-759.38"/>
</g>
<!-- b8 -->
<g id="node9" class="node">
<title>b8</title>
<polygon fill="white" stroke="black" points="1852,-611 1568,-611 1568,-559 1852,-559 1852,-611"/>
<text text-anchor="middle" x="1710" y="-599" font-family="Helvetica" font-size="10.00">B8</text>
<text text-anchor="middle" x="1710" y="-588" font-family="Helvetica" font-size="10.00">Loop: &lt;none&gt;</text>
<text text-anchor="middle" x="1710" y="-577" font-family="Helvetica" font-size="10.00">&#45;&#45;&#45;</text>
<text text-anchor="middle" x="1710" y="-566" font-family="Helvetica" font-size="10.00">HotSpotMethod&lt;StringCoding.countPositives(byte[], int, int)&gt;</text>
</g>
<!-- b1&#45;&gt;b8 -->
<g id="edge4" class="edge">
<title>b1&#45;&gt;b8</title>
<path fill="none" stroke="black" d="M676.03,-535.73C898.45,-546.34 1328.86,-566.87 1557.57,-577.78"/>
<polygon fill="black" stroke="black" points="1557.48,-581.28 1567.64,-578.26 1557.82,-574.28 1557.48,-581.28"/>
</g>
<!-- b3 -->
<g id="node4" class="node">
<title>b3</title>
<polygon fill="white" stroke="black" points="1460,-814 1176,-814 1176,-762 1460,-762 1460,-814"/>
<text text-anchor="middle" x="1318" y="-802" font-family="Helvetica" font-size="10.00">B3</text>
<text text-anchor="middle" x="1318" y="-791" font-family="Helvetica" font-size="10.00">Loop: &lt;none&gt;</text>
<text text-anchor="middle" x="1318" y="-780" font-family="Helvetica" font-size="10.00">&#45;&#45;&#45;</text>
<text text-anchor="middle" x="1318" y="-769" font-family="Helvetica" font-size="10.00">HotSpotMethod&lt;StringCoding.countPositives(byte[], int, int)&gt;</text>
</g>
<!-- b2&#45;&gt;b3 -->
<g id="edge5" class="edge">
<title>b2&#45;&gt;b3</title>
<path fill="none" stroke="black" d="M1068.07,-788C1099.76,-788 1133.5,-788 1165.59,-788"/>
<polygon fill="black" stroke="black" points="1165.94,-791.5 1175.94,-788 1165.94,-784.5 1165.94,-791.5"/>
</g>
<!-- b6 -->
<g id="node7" class="node">
<title>b6</title>
<polygon fill="white" stroke="black" points="1852,-957 1568,-957 1568,-905 1852,-905 1852,-957"/>
<text text-anchor="middle" x="1710" y="-945" font-family="Helvetica" font-size="10.00">B6</text>
<text text-anchor="middle" x="1710" y="-934" font-family="Helvetica" font-size="10.00">Loop: &lt;none&gt;</text>
<text text-anchor="middle" x="1710" y="-923" font-family="Helvetica" font-size="10.00">&#45;&#45;&#45;</text>
<text text-anchor="middle" x="1710" y="-912" font-family="Helvetica" font-size="10.00">HotSpotMethod&lt;StringCoding.countPositives(byte[], int, int)&gt;</text>
</g>
<!-- b2&#45;&gt;b6 -->
<g id="edge6" class="edge">
<title>b2&#45;&gt;b6</title>
<path fill="none" stroke="black" d="M1022.6,-814.02C1068.73,-826.01 1125,-839.8 1176,-850 1303.92,-875.59 1450.54,-897.32 1557.58,-911.82"/>
<polygon fill="black" stroke="black" points="1557.44,-915.33 1567.82,-913.2 1558.37,-908.39 1557.44,-915.33"/>
</g>
<!-- b5 -->
<g id="node6" class="node">
<title>b5</title>
<polygon fill="white" stroke="black" points="1852,-814 1568,-814 1568,-762 1852,-762 1852,-814"/>
<text text-anchor="middle" x="1710" y="-802" font-family="Helvetica" font-size="10.00">B5</text>
<text text-anchor="middle" x="1710" y="-791" font-family="Helvetica" font-size="10.00">Loop: &lt;none&gt;</text>
<text text-anchor="middle" x="1710" y="-780" font-family="Helvetica" font-size="10.00">&#45;&#45;&#45;</text>
<text text-anchor="middle" x="1710" y="-769" font-family="Helvetica" font-size="10.00">HotSpotMethod&lt;StringCoding.countPositives(byte[], int, int)&gt;</text>
</g>
<!-- b3&#45;&gt;b5 -->
<g id="edge8" class="edge">
<title>b3&#45;&gt;b5</title>
<path fill="none" stroke="black" d="M1460.07,-788C1491.76,-788 1525.5,-788 1557.59,-788"/>
<polygon fill="black" stroke="black" points="1557.94,-791.5 1567.94,-788 1557.94,-784.5 1557.94,-791.5"/>
</g>
<!-- b3&#45;&gt;b8 -->
<g id="edge7" class="edge">
<title>b3&#45;&gt;b8</title>
<path fill="none" stroke="black" d="M1382.1,-761.87C1406.67,-751.28 1434.9,-738.58 1460,-726 1529.75,-691.03 1607.65,-645.89 1657.43,-616.23"/>
<polygon fill="black" stroke="black" points="1659.3,-619.19 1666.09,-611.06 1655.71,-613.18 1659.3,-619.19"/>
</g>
<!-- b4 -->
<g id="node5" class="node">
<title>b4</title>
<polygon fill="white" stroke="black" points="1460,-420 1176,-420 1176,-368 1460,-368 1460,-420"/>
<text text-anchor="middle" x="1318" y="-408" font-family="Helvetica" font-size="10.00">B4</text>
<text text-anchor="middle" x="1318" y="-397" font-family="Helvetica" font-size="10.00">Loop: &lt;none&gt;</text>
<text text-anchor="middle" x="1318" y="-386" font-family="Helvetica" font-size="10.00">&#45;&#45;&#45;</text>
<text text-anchor="middle" x="1318" y="-375" font-family="Helvetica" font-size="10.00">HotSpotMethod&lt;StringCoding.countPositives(byte[], int, int)&gt;</text>
</g>
<!-- b4&#45;&gt;b8 -->
<g id="edge9" class="edge">
<title>b4&#45;&gt;b8</title>
<path fill="none" stroke="black" d="M1372.41,-420.16C1443.98,-455.21 1570.75,-517.29 1646.62,-554.45"/>
<polygon fill="black" stroke="black" points="1645.09,-557.6 1655.61,-558.85 1648.17,-551.31 1645.09,-557.6"/>
</g>
<!-- b18 -->
<g id="node19" class="node">
<title>b18</title>
<polygon fill="white" stroke="black" points="3028,-682 2744,-682 2744,-630 3028,-630 3028,-682"/>
<text text-anchor="middle" x="2886" y="-670" font-family="Helvetica" font-size="10.00">B18</text>
<text text-anchor="middle" x="2886" y="-659" font-family="Helvetica" font-size="10.00">Loop: &lt;none&gt;</text>
<text text-anchor="middle" x="2886" y="-648" font-family="Helvetica" font-size="10.00">&#45;&#45;&#45;</text>
<text text-anchor="middle" x="2886" y="-637" font-family="Helvetica" font-size="10.00">HotSpotMethod&lt;StringCoding.countPositives(byte[], int, int)&gt;</text>
</g>
<!-- b5&#45;&gt;b18 -->
<g id="edge10" class="edge">
<title>b5&#45;&gt;b18</title>
<path fill="none" stroke="black" d="M1852.08,-778.48C2033.83,-765.35 2359.34,-738.94 2636,-701 2670.66,-696.25 2707.85,-690.1 2742.65,-683.88"/>
<polygon fill="black" stroke="black" points="2743.66,-687.25 2752.88,-682.03 2742.42,-680.36 2743.66,-687.25"/>
</g>
<!-- b6&#45;&gt;b18 -->
<g id="edge11" class="edge">
<title>b6&#45;&gt;b18</title>
<path fill="none" stroke="black" d="M1852.02,-918.52C2035.79,-899.61 2365.59,-856.57 2636,-772 2705.42,-750.29 2780.49,-713.28 2829.85,-686.9"/>
<polygon fill="black" stroke="black" points="2831.62,-689.93 2838.76,-682.11 2828.3,-683.76 2831.62,-689.93"/>
</g>
<!-- b7 -->
<g id="node8" class="node">
<title>b7</title>
<polygon fill="white" stroke="black" points="1460,-690 1176,-690 1176,-638 1460,-638 1460,-690"/>
<text text-anchor="middle" x="1318" y="-678" font-family="Helvetica" font-size="10.00">B7</text>
<text text-anchor="middle" x="1318" y="-667" font-family="Helvetica" font-size="10.00">Loop: &lt;none&gt;</text>
<text text-anchor="middle" x="1318" y="-656" font-family="Helvetica" font-size="10.00">&#45;&#45;&#45;</text>
<text text-anchor="middle" x="1318" y="-645" font-family="Helvetica" font-size="10.00">HotSpotMethod&lt;StringCoding.countPositives(byte[], int, int)&gt;</text>
</g>
<!-- b7&#45;&gt;b8 -->
<g id="edge12" class="edge">
<title>b7&#45;&gt;b8</title>
<path fill="none" stroke="black" d="M1447.51,-637.97C1486.98,-629.97 1530.58,-621.14 1570.68,-613.02"/>
<polygon fill="black" stroke="black" points="1571.41,-616.44 1580.52,-611.03 1570.02,-609.58 1571.41,-616.44"/>
</g>
<!-- b9 -->
<g id="node10" class="node">
<title>b9</title>
<polygon fill="white" stroke="black" points="2244,-533 1960,-533 1960,-481 2244,-481 2244,-533"/>
<text text-anchor="middle" x="2102" y="-521" font-family="Helvetica" font-size="10.00">B9</text>
<text text-anchor="middle" x="2102" y="-510" font-family="Helvetica" font-size="10.00">Loop: &lt;none&gt;</text>
<text text-anchor="middle" x="2102" y="-499" font-family="Helvetica" font-size="10.00">&#45;&#45;&#45;</text>
<text text-anchor="middle" x="2102" y="-488" font-family="Helvetica" font-size="10.00">HotSpotMethod&lt;StringCoding.countPositives(byte[], int, int)&gt;</text>
</g>
<!-- b8&#45;&gt;b9 -->
<g id="edge13" class="edge">
<title>b8&#45;&gt;b9</title>
<path fill="none" stroke="black" d="M1841.14,-558.97C1879.63,-551.27 1921.93,-542.81 1961.01,-535"/>
<polygon fill="black" stroke="black" points="1961.76,-538.42 1970.88,-533.02 1960.38,-531.55 1961.76,-538.42"/>
</g>
<!-- b17 -->
<g id="node18" class="node">
<title>b17</title>
<polygon fill="white" stroke="black" points="2244,-663 1960,-663 1960,-611 2244,-611 2244,-663"/>
<text text-anchor="middle" x="2102" y="-651" font-family="Helvetica" font-size="10.00">B17</text>
<text text-anchor="middle" x="2102" y="-640" font-family="Helvetica" font-size="10.00">Loop: &lt;none&gt;</text>
<text text-anchor="middle" x="2102" y="-629" font-family="Helvetica" font-size="10.00">&#45;&#45;&#45;</text>
<text text-anchor="middle" x="2102" y="-618" font-family="Helvetica" font-size="10.00">HotSpotMethod&lt;StringCoding.countPositives(byte[], int, int)&gt;</text>
</g>
<!-- b8&#45;&gt;b17 -->
<g id="edge14" class="edge">
<title>b8&#45;&gt;b17</title>
<path fill="none" stroke="black" d="M1852.07,-603.81C1883.9,-608.05 1917.79,-612.57 1950,-616.87"/>
<polygon fill="black" stroke="black" points="1949.57,-620.34 1959.94,-618.19 1950.49,-613.4 1949.57,-620.34"/>
</g>
<!-- b10 -->
<g id="node11" class="node">
<title>b10</title>
<polygon fill="white" stroke="black" points="2636,-533 2352,-533 2352,-481 2636,-481 2636,-533"/>
<text text-anchor="middle" x="2494" y="-521" font-family="Helvetica" font-size="10.00">B10</text>
<text text-anchor="middle" x="2494" y="-510" font-family="Helvetica" font-size="10.00">Loop: &lt;none&gt;</text>
<text text-anchor="middle" x="2494" y="-499" font-family="Helvetica" font-size="10.00">&#45;&#45;&#45;</text>
<text text-anchor="middle" x="2494" y="-488" font-family="Helvetica" font-size="10.00">HotSpotMethod&lt;StringCoding.countPositives(byte[], int, int)&gt;</text>
</g>
<!-- b9&#45;&gt;b10 -->
<g id="edge15" class="edge">
<title>b9&#45;&gt;b10</title>
<path fill="none" stroke="black" d="M2244.07,-507C2275.76,-507 2309.5,-507 2341.59,-507"/>
<polygon fill="black" stroke="black" points="2341.94,-510.5 2351.94,-507 2341.94,-503.5 2341.94,-510.5"/>
</g>
<!-- b12 -->
<g id="node13" class="node">
<title>b12</title>
<polygon fill="lightblue" stroke="black" points="2636,-409 2352,-409 2352,-357 2636,-357 2636,-409"/>
<text text-anchor="middle" x="2494" y="-397" font-family="Helvetica" font-size="10.00">B12</text>
<text text-anchor="middle" x="2494" y="-386" font-family="Helvetica" font-size="10.00">Loop: L0</text>
<text text-anchor="middle" x="2494" y="-375" font-family="Helvetica" font-size="10.00">&#45;&#45;&#45;</text>
<text text-anchor="middle" x="2494" y="-364" font-family="Helvetica" font-size="10.00">HotSpotMethod&lt;StringCoding.countPositives(byte[], int, int)&gt;</text>
</g>
<!-- b9&#45;&gt;b12 -->
<g id="edge16" class="edge">
<title>b9&#45;&gt;b12</title>
<path fill="none" stroke="black" d="M2185.23,-480.85C2248.47,-460.75 2335.82,-432.98 2401.31,-412.15"/>
<polygon fill="black" stroke="black" points="2402.75,-415.37 2411.21,-409 2400.62,-408.7 2402.75,-415.37"/>
</g>
<!-- b10&#45;&gt;b18 -->
<g id="edge17" class="edge">
<title>b10&#45;&gt;b18</title>
<path fill="none" stroke="black" d="M2563.38,-533.12C2631.54,-559.16 2736.05,-599.09 2807.31,-626.32"/>
<polygon fill="black" stroke="black" points="2806.11,-629.61 2816.7,-629.91 2808.61,-623.07 2806.11,-629.61"/>
</g>
<!-- b11 -->
<g id="node12" class="node">
<title>b11</title>
<polygon fill="white" stroke="black" points="2244,-409 1960,-409 1960,-357 2244,-357 2244,-409"/>
<text text-anchor="middle" x="2102" y="-397" font-family="Helvetica" font-size="10.00">B11</text>
<text text-anchor="middle" x="2102" y="-386" font-family="Helvetica" font-size="10.00">Loop: &lt;none&gt;</text>
<text text-anchor="middle" x="2102" y="-375" font-family="Helvetica" font-size="10.00">&#45;&#45;&#45;</text>
<text text-anchor="middle" x="2102" y="-364" font-family="Helvetica" font-size="10.00">HotSpotMethod&lt;StringCoding.countPositives(byte[], int, int)&gt;</text>
</g>
<!-- b11&#45;&gt;b12 -->
<g id="edge18" class="edge">
<title>b11&#45;&gt;b12</title>
<path fill="none" stroke="black" d="M2244.07,-383C2275.76,-383 2309.5,-383 2341.59,-383"/>
<polygon fill="black" stroke="black" points="2341.94,-386.5 2351.94,-383 2341.94,-379.5 2341.94,-386.5"/>
</g>
<!-- b13 -->
<g id="node14" class="node">
<title>b13</title>
<polygon fill="lightblue" stroke="black" points="3028,-530 2744,-530 2744,-478 3028,-478 3028,-530"/>
<text text-anchor="middle" x="2886" y="-518" font-family="Helvetica" font-size="10.00">B13</text>
<text text-anchor="middle" x="2886" y="-507" font-family="Helvetica" font-size="10.00">Loop: L0</text>
<text text-anchor="middle" x="2886" y="-496" font-family="Helvetica" font-size="10.00">&#45;&#45;&#45;</text>
<text text-anchor="middle" x="2886" y="-485" font-family="Helvetica" font-size="10.00">HotSpotMethod&lt;StringCoding.countPositives(byte[], int, int)&gt;</text>
</g>
<!-- b12&#45;&gt;b13 -->
<g id="edge19" class="edge">
<title>b12&#45;&gt;b13</title>
<path fill="none" stroke="black" d="M2579.14,-409.11C2641.55,-428.47 2726.64,-454.87 2791.23,-474.91"/>
<polygon fill="black" stroke="black" points="2790.42,-478.32 2801.01,-477.94 2792.49,-471.63 2790.42,-478.32"/>
</g>
<!-- b12&#45;&gt;b20 -->
<g id="edge20" class="edge">
<title>b12&#45;&gt;b20</title>
<path fill="none" stroke="black" d="M2558.14,-356.95C2582.71,-346.37 2610.94,-333.66 2636,-321 2706.1,-285.59 2784.22,-239.6 2833.94,-209.47"/>
<polygon fill="black" stroke="black" points="2835.85,-212.41 2842.58,-204.22 2832.22,-206.42 2835.85,-212.41"/>
</g>
<!-- b14 -->
<g id="node15" class="node">
<title>b14</title>
<polygon fill="white" stroke="black" points="3420,-530 3136,-530 3136,-478 3420,-478 3420,-530"/>
<text text-anchor="middle" x="3278" y="-518" font-family="Helvetica" font-size="10.00">B14</text>
<text text-anchor="middle" x="3278" y="-507" font-family="Helvetica" font-size="10.00">Loop: &lt;none&gt;</text>
<text text-anchor="middle" x="3278" y="-496" font-family="Helvetica" font-size="10.00">&#45;&#45;&#45;</text>
<text text-anchor="middle" x="3278" y="-485" font-family="Helvetica" font-size="10.00">HotSpotMethod&lt;StringCoding.countPositives(byte[], int, int)&gt;</text>
</g>
<!-- b13&#45;&gt;b14 -->
<g id="edge21" class="edge">
<title>b13&#45;&gt;b14</title>
<path fill="none" stroke="black" d="M3028.07,-504C3059.76,-504 3093.5,-504 3125.59,-504"/>
<polygon fill="black" stroke="black" points="3125.94,-507.5 3135.94,-504 3125.94,-500.5 3125.94,-507.5"/>
</g>
<!-- b15 -->
<g id="node16" class="node">
<title>b15</title>
<polygon fill="lightblue" stroke="black" points="3420,-401 3136,-401 3136,-349 3420,-349 3420,-401"/>
<text text-anchor="middle" x="3278" y="-389" font-family="Helvetica" font-size="10.00">B15</text>
<text text-anchor="middle" x="3278" y="-378" font-family="Helvetica" font-size="10.00">Loop: L0</text>
<text text-anchor="middle" x="3278" y="-367" font-family="Helvetica" font-size="10.00">&#45;&#45;&#45;</text>
<text text-anchor="middle" x="3278" y="-356" font-family="Helvetica" font-size="10.00">HotSpotMethod&lt;StringCoding.countPositives(byte[], int, int)&gt;</text>
</g>
<!-- b13&#45;&gt;b15 -->
<g id="edge22" class="edge">
<title>b13&#45;&gt;b15</title>
<path fill="none" stroke="black" d="M2965.92,-477.89C3030.41,-456.56 3121.54,-426.42 3188.5,-404.27"/>
<polygon fill="black" stroke="black" points="3189.8,-407.53 3198.2,-401.07 3187.6,-400.88 3189.8,-407.53"/>
</g>
<!-- b15&#45;&gt;b12 -->
<g id="edge23" class="edge">
<title>b15&#45;&gt;b12</title>
<path fill="none" stroke="black" d="M3135.94,-376.44C2997.75,-377.86 2787.83,-380 2646.24,-381.45"/>
<polygon fill="black" stroke="black" points="2646.13,-377.95 2636.16,-381.56 2646.2,-384.95 2646.13,-377.95"/>
</g>
<!-- b16 -->
<g id="node17" class="node">
<title>b16</title>
<polygon fill="white" stroke="black" points="2636,-285 2352,-285 2352,-233 2636,-233 2636,-285"/>
<text text-anchor="middle" x="2494" y="-273" font-family="Helvetica" font-size="10.00">B16</text>
<text text-anchor="middle" x="2494" y="-262" font-family="Helvetica" font-size="10.00">Loop: &lt;none&gt;</text>
<text text-anchor="middle" x="2494" y="-251" font-family="Helvetica" font-size="10.00">&#45;&#45;&#45;</text>
<text text-anchor="middle" x="2494" y="-240" font-family="Helvetica" font-size="10.00">HotSpotMethod&lt;StringCoding.countPositives(byte[], int, int)&gt;</text>
</g>
<!-- b16&#45;&gt;b20 -->
<g id="edge24" class="edge">
<title>b16&#45;&gt;b20</title>
<path fill="none" stroke="black" d="M2620.28,-232.98C2661.52,-224.42 2707.55,-214.85 2749.52,-206.14"/>
<polygon fill="black" stroke="black" points="2750.45,-209.52 2759.53,-204.06 2749.02,-202.67 2750.45,-209.52"/>
</g>
<!-- b17&#45;&gt;b18 -->
<g id="edge25" class="edge">
<title>b17&#45;&gt;b18</title>
<path fill="none" stroke="black" d="M2244.16,-640.43C2382.39,-643.79 2592.31,-648.89 2733.87,-652.33"/>
<polygon fill="black" stroke="black" points="2733.86,-655.83 2743.94,-652.57 2734.03,-648.83 2733.86,-655.83"/>
</g>
<!-- b19 -->
<g id="node20" class="node">
<title>b19</title>
<polygon fill="white" stroke="black" points="2636,-161 2352,-161 2352,-109 2636,-109 2636,-161"/>
<text text-anchor="middle" x="2494" y="-149" font-family="Helvetica" font-size="10.00">B19</text>
<text text-anchor="middle" x="2494" y="-138" font-family="Helvetica" font-size="10.00">Loop: &lt;none&gt;</text>
<text text-anchor="middle" x="2494" y="-127" font-family="Helvetica" font-size="10.00">&#45;&#45;&#45;</text>
<text text-anchor="middle" x="2494" y="-116" font-family="Helvetica" font-size="10.00">HotSpotMethod&lt;StringCoding.countPositives(byte[], int, int)&gt;</text>
</g>
<!-- b19&#45;&gt;b20 -->
<g id="edge26" class="edge">
<title>b19&#45;&gt;b20</title>
<path fill="none" stroke="black" d="M2636.07,-150.55C2667.76,-154.05 2701.5,-157.77 2733.59,-161.31"/>
<polygon fill="black" stroke="black" points="2733.62,-164.83 2743.94,-162.45 2734.39,-157.87 2733.62,-164.83"/>
</g>
</g>
</svg>
