<?xml version="1.0" encoding="UTF-8" standalone="no"?>
<!DOCTYPE svg PUBLIC "-//W3C//DTD SVG 1.1//EN"
 "http://www.w3.org/Graphics/SVG/1.1/DTD/svg11.dtd">
<!-- Generated by graphviz version 2.44.0 (0)
 -->
<!-- Title: CFG_93 Pages: 1 -->
<svg width="4684pt" height="1239pt"
 viewBox="0.00 0.00 4684.00 1239.00" xmlns="http://www.w3.org/2000/svg" xmlns:xlink="http://www.w3.org/1999/xlink">
<g id="graph0" class="graph" transform="scale(1 1) rotate(0) translate(4 1235)">
<title>CFG_93</title>
<polygon fill="white" stroke="transparent" points="-4,4 -4,-1235 4680,-1235 4680,4 -4,4"/>
<text text-anchor="middle" x="144.5" y="-1211" font-family="Times-Roman" font-size="20.00">Mandelbrot.mandelbrot(int)</text>
<!-- b0 -->
<g id="node1" class="node">
<title>b0</title>
<polygon fill="white" stroke="black" points="212,-187 0,-187 0,-135 212,-135 212,-187"/>
<text text-anchor="middle" x="106" y="-175" font-family="Helvetica" font-size="10.00">B0</text>
<text text-anchor="middle" x="106" y="-164" font-family="Helvetica" font-size="10.00">Loop: &lt;none&gt;</text>
<text text-anchor="middle" x="106" y="-153" font-family="Helvetica" font-size="10.00">&#45;&#45;&#45;</text>
<text text-anchor="middle" x="106" y="-142" font-family="Helvetica" font-size="10.00">HotSpotMethod&lt;Mandelbrot.mandelbrot(int)&gt;</text>
</g>
<!-- b1 -->
<g id="node2" class="node">
<title>b1</title>
<polygon fill="lightblue" stroke="black" points="584,-187 320,-187 320,-135 584,-135 584,-187"/>
<text text-anchor="middle" x="452" y="-175" font-family="Helvetica" font-size="10.00">B1</text>
<text text-anchor="middle" x="452" y="-164" font-family="Helvetica" font-size="10.00">Loop: L0</text>
<text text-anchor="middle" x="452" y="-153" font-family="Helvetica" font-size="10.00">&#45;&#45;&#45;</text>
<text text-anchor="middle" x="452" y="-142" font-family="Helvetica" font-size="10.00">HotSpotMethod&lt;BuboAgentCompilerMarkers.Marker0()&gt;</text>
</g>
<!-- b0&#45;&gt;b1 -->
<g id="edge1" class="edge">
<title>b0&#45;&gt;b1</title>
<path fill="none" stroke="black" d="M212.08,-161C242.88,-161 277.07,-161 309.73,-161"/>
<polygon fill="black" stroke="black" points="309.81,-164.5 319.81,-161 309.81,-157.5 309.81,-164.5"/>
</g>
<!-- b2 -->
<g id="node3" class="node">
<title>b2</title>
<polygon fill="lightblue" stroke="black" points="956,-322 692,-322 692,-270 956,-270 956,-322"/>
<text text-anchor="middle" x="824" y="-310" font-family="Helvetica" font-size="10.00">B2</text>
<text text-anchor="middle" x="824" y="-299" font-family="Helvetica" font-size="10.00">Loop: L0</text>
<text text-anchor="middle" x="824" y="-288" font-family="Helvetica" font-size="10.00">&#45;&#45;&#45;</text>
<text text-anchor="middle" x="824" y="-277" font-family="Helvetica" font-size="10.00">HotSpotMethod&lt;BuboAgentCompilerMarkers.Marker0()&gt;</text>
</g>
<!-- b1&#45;&gt;b2 -->
<g id="edge2" class="edge">
<title>b1&#45;&gt;b2</title>
<path fill="none" stroke="black" d="M524.34,-187.03C586.69,-209.78 677.15,-242.79 742.16,-266.51"/>
<polygon fill="black" stroke="black" points="740.97,-269.8 751.56,-269.94 743.37,-263.22 740.97,-269.8"/>
</g>
<!-- b21 -->
<g id="node22" class="node">
<title>b21</title>
<polygon fill="white" stroke="black" points="930,-52 718,-52 718,0 930,0 930,-52"/>
<text text-anchor="middle" x="824" y="-40" font-family="Helvetica" font-size="10.00">B21</text>
<text text-anchor="middle" x="824" y="-29" font-family="Helvetica" font-size="10.00">Loop: &lt;none&gt;</text>
<text text-anchor="middle" x="824" y="-18" font-family="Helvetica" font-size="10.00">&#45;&#45;&#45;</text>
<text text-anchor="middle" x="824" y="-7" font-family="Helvetica" font-size="10.00">HotSpotMethod&lt;Mandelbrot.mandelbrot(int)&gt;</text>
</g>
<!-- b1&#45;&gt;b21 -->
<g id="edge3" class="edge">
<title>b1&#45;&gt;b21</title>
<path fill="none" stroke="black" d="M524.34,-134.97C586.69,-112.22 677.15,-79.21 742.16,-55.49"/>
<polygon fill="black" stroke="black" points="743.37,-58.78 751.56,-52.06 740.97,-52.2 743.37,-58.78"/>
</g>
<!-- b3 -->
<g id="node4" class="node">
<title>b3</title>
<polygon fill="lightgreen" stroke="black" points="1328,-322 1064,-322 1064,-270 1328,-270 1328,-322"/>
<text text-anchor="middle" x="1196" y="-310" font-family="Helvetica" font-size="10.00">B3</text>
<text text-anchor="middle" x="1196" y="-299" font-family="Helvetica" font-size="10.00">Loop: L1</text>
<text text-anchor="middle" x="1196" y="-288" font-family="Helvetica" font-size="10.00">&#45;&#45;&#45;</text>
<text text-anchor="middle" x="1196" y="-277" font-family="Helvetica" font-size="10.00">HotSpotMethod&lt;BuboAgentCompilerMarkers.Marker1()&gt;</text>
</g>
<!-- b2&#45;&gt;b3 -->
<g id="edge4" class="edge">
<title>b2&#45;&gt;b3</title>
<path fill="none" stroke="black" d="M956.23,-296C987.73,-296 1021.51,-296 1053.46,-296"/>
<polygon fill="black" stroke="black" points="1053.76,-299.5 1063.76,-296 1053.76,-292.5 1053.76,-299.5"/>
</g>
<!-- b4 -->
<g id="node5" class="node">
<title>b4</title>
<polygon fill="lightgreen" stroke="black" points="1700,-546 1436,-546 1436,-494 1700,-494 1700,-546"/>
<text text-anchor="middle" x="1568" y="-534" font-family="Helvetica" font-size="10.00">B4</text>
<text text-anchor="middle" x="1568" y="-523" font-family="Helvetica" font-size="10.00">Loop: L1</text>
<text text-anchor="middle" x="1568" y="-512" font-family="Helvetica" font-size="10.00">&#45;&#45;&#45;</text>
<text text-anchor="middle" x="1568" y="-501" font-family="Helvetica" font-size="10.00">HotSpotMethod&lt;BuboAgentCompilerMarkers.Marker1()&gt;</text>
</g>
<!-- b3&#45;&gt;b4 -->
<g id="edge5" class="edge">
<title>b3&#45;&gt;b4</title>
<path fill="none" stroke="black" d="M1240.17,-322.13C1308.59,-363.56 1441.69,-444.13 1515.16,-488.62"/>
<polygon fill="black" stroke="black" points="1513.45,-491.67 1523.82,-493.86 1517.08,-485.69 1513.45,-491.67"/>
</g>
<!-- b20 -->
<g id="node21" class="node">
<title>b20</title>
<polygon fill="lightblue" stroke="black" points="1700,-114 1436,-114 1436,-62 1700,-62 1700,-114"/>
<text text-anchor="middle" x="1568" y="-102" font-family="Helvetica" font-size="10.00">B20</text>
<text text-anchor="middle" x="1568" y="-91" font-family="Helvetica" font-size="10.00">Loop: L0</text>
<text text-anchor="middle" x="1568" y="-80" font-family="Helvetica" font-size="10.00">&#45;&#45;&#45;</text>
<text text-anchor="middle" x="1568" y="-69" font-family="Helvetica" font-size="10.00">HotSpotMethod&lt;BuboAgentCompilerMarkers.Marker0()&gt;</text>
</g>
<!-- b3&#45;&gt;b20 -->
<g id="edge6" class="edge">
<title>b3&#45;&gt;b20</title>
<path fill="none" stroke="black" d="M1243.49,-269.87C1311.7,-231.52 1438.71,-160.12 1511.65,-119.12"/>
<polygon fill="black" stroke="black" points="1513.7,-121.98 1520.7,-114.03 1510.27,-115.88 1513.7,-121.98"/>
</g>
<!-- b5 -->
<g id="node6" class="node">
<title>b5</title>
<polygon fill="lightgreen" stroke="black" points="2072,-546 1808,-546 1808,-494 2072,-494 2072,-546"/>
<text text-anchor="middle" x="1940" y="-534" font-family="Helvetica" font-size="10.00">B5</text>
<text text-anchor="middle" x="1940" y="-523" font-family="Helvetica" font-size="10.00">Loop: L1</text>
<text text-anchor="middle" x="1940" y="-512" font-family="Helvetica" font-size="10.00">&#45;&#45;&#45;</text>
<text text-anchor="middle" x="1940" y="-501" font-family="Helvetica" font-size="10.00">HotSpotMethod&lt;BuboAgentCompilerMarkers.Marker1()&gt;</text>
</g>
<!-- b4&#45;&gt;b5 -->
<g id="edge7" class="edge">
<title>b4&#45;&gt;b5</title>
<path fill="none" stroke="black" d="M1700.23,-520C1731.73,-520 1765.51,-520 1797.46,-520"/>
<polygon fill="black" stroke="black" points="1797.76,-523.5 1807.76,-520 1797.76,-516.5 1797.76,-523.5"/>
</g>
<!-- b6 -->
<g id="node7" class="node">
<title>b6</title>
<polygon fill="lightgreen" stroke="black" points="2072,-670 1808,-670 1808,-618 2072,-618 2072,-670"/>
<text text-anchor="middle" x="1940" y="-658" font-family="Helvetica" font-size="10.00">B6</text>
<text text-anchor="middle" x="1940" y="-647" font-family="Helvetica" font-size="10.00">Loop: L1</text>
<text text-anchor="middle" x="1940" y="-636" font-family="Helvetica" font-size="10.00">&#45;&#45;&#45;</text>
<text text-anchor="middle" x="1940" y="-625" font-family="Helvetica" font-size="10.00">HotSpotMethod&lt;BuboAgentCompilerMarkers.Marker1()&gt;</text>
</g>
<!-- b4&#45;&gt;b6 -->
<g id="edge8" class="edge">
<title>b4&#45;&gt;b6</title>
<path fill="none" stroke="black" d="M1647.02,-546.15C1706.89,-566.21 1789.54,-593.91 1851.63,-614.72"/>
<polygon fill="black" stroke="black" points="1850.82,-618.14 1861.41,-618 1853.04,-611.5 1850.82,-618.14"/>
</g>
<!-- b7 -->
<g id="node8" class="node">
<title>b7</title>
<polygon fill="lightgreen" stroke="black" points="2444,-670 2180,-670 2180,-618 2444,-618 2444,-670"/>
<text text-anchor="middle" x="2312" y="-658" font-family="Helvetica" font-size="10.00">B7</text>
<text text-anchor="middle" x="2312" y="-647" font-family="Helvetica" font-size="10.00">Loop: L1</text>
<text text-anchor="middle" x="2312" y="-636" font-family="Helvetica" font-size="10.00">&#45;&#45;&#45;</text>
<text text-anchor="middle" x="2312" y="-625" font-family="Helvetica" font-size="10.00">HotSpotMethod&lt;BuboAgentCompilerMarkers.Marker1()&gt;</text>
</g>
<!-- b5&#45;&gt;b7 -->
<g id="edge9" class="edge">
<title>b5&#45;&gt;b7</title>
<path fill="none" stroke="black" d="M2019.02,-546.15C2078.89,-566.21 2161.54,-593.91 2223.63,-614.72"/>
<polygon fill="black" stroke="black" points="2222.82,-618.14 2233.41,-618 2225.04,-611.5 2222.82,-618.14"/>
</g>
<!-- b6&#45;&gt;b7 -->
<g id="edge10" class="edge">
<title>b6&#45;&gt;b7</title>
<path fill="none" stroke="black" d="M2072.23,-644C2103.73,-644 2137.51,-644 2169.46,-644"/>
<polygon fill="black" stroke="black" points="2169.76,-647.5 2179.76,-644 2169.76,-640.5 2169.76,-647.5"/>
</g>
<!-- b8 -->
<g id="node9" class="node">
<title>b8</title>
<polygon fill="lightpink" stroke="black" points="2816,-687 2552,-687 2552,-635 2816,-635 2816,-687"/>
<text text-anchor="middle" x="2684" y="-675" font-family="Helvetica" font-size="10.00">B8</text>
<text text-anchor="middle" x="2684" y="-664" font-family="Helvetica" font-size="10.00">Loop: L2</text>
<text text-anchor="middle" x="2684" y="-653" font-family="Helvetica" font-size="10.00">&#45;&#45;&#45;</text>
<text text-anchor="middle" x="2684" y="-642" font-family="Helvetica" font-size="10.00">HotSpotMethod&lt;BuboAgentCompilerMarkers.Marker2()&gt;</text>
</g>
<!-- b7&#45;&gt;b8 -->
<g id="edge11" class="edge">
<title>b7&#45;&gt;b8</title>
<path fill="none" stroke="black" d="M2444.23,-650.03C2475.73,-651.48 2509.51,-653.03 2541.46,-654.5"/>
<polygon fill="black" stroke="black" points="2541.61,-658.01 2551.76,-654.97 2541.93,-651.01 2541.61,-658.01"/>
</g>
<!-- b9 -->
<g id="node10" class="node">
<title>b9</title>
<polygon fill="lightpink" stroke="black" points="3188,-822 2924,-822 2924,-770 3188,-770 3188,-822"/>
<text text-anchor="middle" x="3056" y="-810" font-family="Helvetica" font-size="10.00">B9</text>
<text text-anchor="middle" x="3056" y="-799" font-family="Helvetica" font-size="10.00">Loop: L2</text>
<text text-anchor="middle" x="3056" y="-788" font-family="Helvetica" font-size="10.00">&#45;&#45;&#45;</text>
<text text-anchor="middle" x="3056" y="-777" font-family="Helvetica" font-size="10.00">HotSpotMethod&lt;BuboAgentCompilerMarkers.Marker2()&gt;</text>
</g>
<!-- b8&#45;&gt;b9 -->
<g id="edge13" class="edge">
<title>b8&#45;&gt;b9</title>
<path fill="none" stroke="black" d="M2756.34,-687.03C2818.69,-709.78 2909.15,-742.79 2974.16,-766.51"/>
<polygon fill="black" stroke="black" points="2972.97,-769.8 2983.56,-769.94 2975.37,-763.22 2972.97,-769.8"/>
</g>
<!-- b14 -->
<g id="node15" class="node">
<title>b14</title>
<polygon fill="lightgreen" stroke="black" points="3188,-1014 2924,-1014 2924,-962 3188,-962 3188,-1014"/>
<text text-anchor="middle" x="3056" y="-1002" font-family="Helvetica" font-size="10.00">B14</text>
<text text-anchor="middle" x="3056" y="-991" font-family="Helvetica" font-size="10.00">Loop: L1</text>
<text text-anchor="middle" x="3056" y="-980" font-family="Helvetica" font-size="10.00">&#45;&#45;&#45;</text>
<text text-anchor="middle" x="3056" y="-969" font-family="Helvetica" font-size="10.00">HotSpotMethod&lt;BuboAgentCompilerMarkers.Marker1()&gt;</text>
</g>
<!-- b8&#45;&gt;b14 -->
<g id="edge12" class="edge">
<title>b8&#45;&gt;b14</title>
<path fill="none" stroke="black" d="M2714.65,-687.21C2781.58,-746.36 2944.23,-890.11 3017.79,-955.11"/>
<polygon fill="black" stroke="black" points="3015.65,-957.9 3025.46,-961.9 3020.29,-952.65 3015.65,-957.9"/>
</g>
<!-- b10 -->
<g id="node11" class="node">
<title>b10</title>
<polygon fill="lightpink" stroke="black" points="3560,-822 3296,-822 3296,-770 3560,-770 3560,-822"/>
<text text-anchor="middle" x="3428" y="-810" font-family="Helvetica" font-size="10.00">B10</text>
<text text-anchor="middle" x="3428" y="-799" font-family="Helvetica" font-size="10.00">Loop: L2</text>
<text text-anchor="middle" x="3428" y="-788" font-family="Helvetica" font-size="10.00">&#45;&#45;&#45;</text>
<text text-anchor="middle" x="3428" y="-777" font-family="Helvetica" font-size="10.00">HotSpotMethod&lt;BuboAgentCompilerMarkers.Marker2()&gt;</text>
</g>
<!-- b9&#45;&gt;b10 -->
<g id="edge14" class="edge">
<title>b9&#45;&gt;b10</title>
<path fill="none" stroke="black" d="M3188.23,-796C3219.73,-796 3253.51,-796 3285.46,-796"/>
<polygon fill="black" stroke="black" points="3285.76,-799.5 3295.76,-796 3285.76,-792.5 3285.76,-799.5"/>
</g>
<!-- b13 -->
<g id="node14" class="node">
<title>b13</title>
<polygon fill="lightgreen" stroke="black" points="3560,-946 3296,-946 3296,-894 3560,-894 3560,-946"/>
<text text-anchor="middle" x="3428" y="-934" font-family="Helvetica" font-size="10.00">B13</text>
<text text-anchor="middle" x="3428" y="-923" font-family="Helvetica" font-size="10.00">Loop: L1</text>
<text text-anchor="middle" x="3428" y="-912" font-family="Helvetica" font-size="10.00">&#45;&#45;&#45;</text>
<text text-anchor="middle" x="3428" y="-901" font-family="Helvetica" font-size="10.00">HotSpotMethod&lt;BuboAgentCompilerMarkers.Marker1()&gt;</text>
</g>
<!-- b9&#45;&gt;b13 -->
<g id="edge15" class="edge">
<title>b9&#45;&gt;b13</title>
<path fill="none" stroke="black" d="M3135.02,-822.15C3194.89,-842.21 3277.54,-869.91 3339.63,-890.72"/>
<polygon fill="black" stroke="black" points="3338.82,-894.14 3349.41,-894 3341.04,-887.5 3338.82,-894.14"/>
</g>
<!-- b11 -->
<g id="node12" class="node">
<title>b11</title>
<polygon fill="lightpink" stroke="black" points="3932,-581 3668,-581 3668,-529 3932,-529 3932,-581"/>
<text text-anchor="middle" x="3800" y="-569" font-family="Helvetica" font-size="10.00">B11</text>
<text text-anchor="middle" x="3800" y="-558" font-family="Helvetica" font-size="10.00">Loop: L2</text>
<text text-anchor="middle" x="3800" y="-547" font-family="Helvetica" font-size="10.00">&#45;&#45;&#45;</text>
<text text-anchor="middle" x="3800" y="-536" font-family="Helvetica" font-size="10.00">HotSpotMethod&lt;BuboAgentCompilerMarkers.Marker2()&gt;</text>
</g>
<!-- b10&#45;&gt;b11 -->
<g id="edge16" class="edge">
<title>b10&#45;&gt;b11</title>
<path fill="none" stroke="black" d="M3468.95,-769.98C3537.27,-725.48 3676.33,-634.9 3750.26,-586.75"/>
<polygon fill="black" stroke="black" points="3752.47,-589.48 3758.94,-581.09 3748.65,-583.62 3752.47,-589.48"/>
</g>
<!-- b12 -->
<g id="node13" class="node">
<title>b12</title>
<polygon fill="lightpink" stroke="black" points="3932,-783 3668,-783 3668,-731 3932,-731 3932,-783"/>
<text text-anchor="middle" x="3800" y="-771" font-family="Helvetica" font-size="10.00">B12</text>
<text text-anchor="middle" x="3800" y="-760" font-family="Helvetica" font-size="10.00">Loop: L2</text>
<text text-anchor="middle" x="3800" y="-749" font-family="Helvetica" font-size="10.00">&#45;&#45;&#45;</text>
<text text-anchor="middle" x="3800" y="-738" font-family="Helvetica" font-size="10.00">HotSpotMethod&lt;BuboAgentCompilerMarkers.Marker2()&gt;</text>
</g>
<!-- b10&#45;&gt;b12 -->
<g id="edge17" class="edge">
<title>b10&#45;&gt;b12</title>
<path fill="none" stroke="black" d="M3560.23,-782.17C3591.73,-778.85 3625.51,-775.29 3657.46,-771.92"/>
<polygon fill="black" stroke="black" points="3658.18,-775.36 3667.76,-770.83 3657.45,-768.4 3658.18,-775.36"/>
</g>
<!-- b11&#45;&gt;b8 -->
<g id="edge18" class="edge">
<title>b11&#45;&gt;b8</title>
<path fill="none" stroke="black" d="M3667.57,-567.51C3456.44,-587.6 3043.47,-626.89 2826.26,-647.56"/>
<polygon fill="black" stroke="black" points="2825.69,-644.1 2816.07,-648.53 2826.35,-651.07 2825.69,-644.1"/>
</g>
<!-- b12&#45;&gt;b8 -->
<g id="edge19" class="edge">
<title>b12&#45;&gt;b8</title>
<path fill="none" stroke="black" d="M3667.85,-744.08C3632.82,-740.71 3594.98,-737.14 3560,-734 3301.35,-710.77 2999.47,-686.13 2826.42,-672.24"/>
<polygon fill="black" stroke="black" points="2826.49,-668.74 2816.24,-671.43 2825.93,-675.71 2826.49,-668.74"/>
</g>
<!-- b15 -->
<g id="node16" class="node">
<title>b15</title>
<polygon fill="lightgreen" stroke="black" points="3932,-946 3668,-946 3668,-894 3932,-894 3932,-946"/>
<text text-anchor="middle" x="3800" y="-934" font-family="Helvetica" font-size="10.00">B15</text>
<text text-anchor="middle" x="3800" y="-923" font-family="Helvetica" font-size="10.00">Loop: L1</text>
<text text-anchor="middle" x="3800" y="-912" font-family="Helvetica" font-size="10.00">&#45;&#45;&#45;</text>
<text text-anchor="middle" x="3800" y="-901" font-family="Helvetica" font-size="10.00">HotSpotMethod&lt;BuboAgentCompilerMarkers.Marker1()&gt;</text>
</g>
<!-- b13&#45;&gt;b15 -->
<g id="edge20" class="edge">
<title>b13&#45;&gt;b15</title>
<path fill="none" stroke="black" d="M3560.23,-920C3591.73,-920 3625.51,-920 3657.46,-920"/>
<polygon fill="black" stroke="black" points="3657.76,-923.5 3667.76,-920 3657.76,-916.5 3657.76,-923.5"/>
</g>
<!-- b14&#45;&gt;b15 -->
<g id="edge21" class="edge">
<title>b14&#45;&gt;b15</title>
<path fill="none" stroke="black" d="M3188.16,-995.07C3290.03,-998.47 3434.59,-998.76 3560,-982 3609.97,-975.32 3664.47,-961.69 3708.79,-948.91"/>
<polygon fill="black" stroke="black" points="3710.04,-952.19 3718.66,-946.03 3708.08,-945.47 3710.04,-952.19"/>
</g>
<!-- b16 -->
<g id="node17" class="node">
<title>b16</title>
<polygon fill="lightgreen" stroke="black" points="4304,-609 4040,-609 4040,-557 4304,-557 4304,-609"/>
<text text-anchor="middle" x="4172" y="-597" font-family="Helvetica" font-size="10.00">B16</text>
<text text-anchor="middle" x="4172" y="-586" font-family="Helvetica" font-size="10.00">Loop: L1</text>
<text text-anchor="middle" x="4172" y="-575" font-family="Helvetica" font-size="10.00">&#45;&#45;&#45;</text>
<text text-anchor="middle" x="4172" y="-564" font-family="Helvetica" font-size="10.00">HotSpotMethod&lt;BuboAgentCompilerMarkers.Marker1()&gt;</text>
</g>
<!-- b15&#45;&gt;b16 -->
<g id="edge22" class="edge">
<title>b15&#45;&gt;b16</title>
<path fill="none" stroke="black" d="M3837.24,-893.92C3864.08,-874.17 3901.18,-845.92 3932,-819 4010.01,-750.87 4094.81,-663.68 4139.44,-616.67"/>
<polygon fill="black" stroke="black" points="4142.18,-618.87 4146.51,-609.2 4137.09,-614.05 4142.18,-618.87"/>
</g>
<!-- b17 -->
<g id="node18" class="node">
<title>b17</title>
<polygon fill="lightgreen" stroke="black" points="4304,-946 4040,-946 4040,-894 4304,-894 4304,-946"/>
<text text-anchor="middle" x="4172" y="-934" font-family="Helvetica" font-size="10.00">B17</text>
<text text-anchor="middle" x="4172" y="-923" font-family="Helvetica" font-size="10.00">Loop: L1</text>
<text text-anchor="middle" x="4172" y="-912" font-family="Helvetica" font-size="10.00">&#45;&#45;&#45;</text>
<text text-anchor="middle" x="4172" y="-901" font-family="Helvetica" font-size="10.00">HotSpotMethod&lt;BuboAgentCompilerMarkers.Marker1()&gt;</text>
</g>
<!-- b15&#45;&gt;b17 -->
<g id="edge23" class="edge">
<title>b15&#45;&gt;b17</title>
<path fill="none" stroke="black" d="M3932.23,-920C3963.73,-920 3997.51,-920 4029.46,-920"/>
<polygon fill="black" stroke="black" points="4029.76,-923.5 4039.76,-920 4029.76,-916.5 4029.76,-923.5"/>
</g>
<!-- b16&#45;&gt;b3 -->
<g id="edge24" class="edge">
<title>b16&#45;&gt;b3</title>
<path fill="none" stroke="black" d="M4118.96,-556.97C3999.95,-499.94 3697.48,-369 3429,-369 1939,-369 1939,-369 1939,-369 1729.11,-369 1487.43,-339.71 1338.43,-318.24"/>
<polygon fill="black" stroke="black" points="1338.7,-314.74 1328.3,-316.77 1337.7,-321.67 1338.7,-314.74"/>
</g>
<!-- b18 -->
<g id="node19" class="node">
<title>b18</title>
<polygon fill="lightgreen" stroke="black" points="4676,-676 4412,-676 4412,-624 4676,-624 4676,-676"/>
<text text-anchor="middle" x="4544" y="-664" font-family="Helvetica" font-size="10.00">B18</text>
<text text-anchor="middle" x="4544" y="-653" font-family="Helvetica" font-size="10.00">Loop: L1</text>
<text text-anchor="middle" x="4544" y="-642" font-family="Helvetica" font-size="10.00">&#45;&#45;&#45;</text>
<text text-anchor="middle" x="4544" y="-631" font-family="Helvetica" font-size="10.00">HotSpotMethod&lt;BuboAgentCompilerMarkers.Marker1()&gt;</text>
</g>
<!-- b17&#45;&gt;b18 -->
<g id="edge25" class="edge">
<title>b17&#45;&gt;b18</title>
<path fill="none" stroke="black" d="M4208.81,-893.87C4276.92,-844.17 4424.9,-736.18 4498.94,-682.15"/>
<polygon fill="black" stroke="black" points="4501.15,-684.87 4507.17,-676.15 4497.03,-679.22 4501.15,-684.87"/>
</g>
<!-- b19 -->
<g id="node20" class="node">
<title>b19</title>
<polygon fill="lightgreen" stroke="black" points="4676,-1086 4412,-1086 4412,-1034 4676,-1034 4676,-1086"/>
<text text-anchor="middle" x="4544" y="-1074" font-family="Helvetica" font-size="10.00">B19</text>
<text text-anchor="middle" x="4544" y="-1063" font-family="Helvetica" font-size="10.00">Loop: L1</text>
<text text-anchor="middle" x="4544" y="-1052" font-family="Helvetica" font-size="10.00">&#45;&#45;&#45;</text>
<text text-anchor="middle" x="4544" y="-1041" font-family="Helvetica" font-size="10.00">HotSpotMethod&lt;BuboAgentCompilerMarkers.Marker1()&gt;</text>
</g>
<!-- b17&#45;&gt;b19 -->
<g id="edge26" class="edge">
<title>b17&#45;&gt;b19</title>
<path fill="none" stroke="black" d="M4241.73,-946C4304.87,-969.9 4398.4,-1005.29 4464.47,-1030.29"/>
<polygon fill="black" stroke="black" points="4463.42,-1033.63 4474.01,-1033.9 4465.9,-1027.08 4463.42,-1033.63"/>
</g>
<!-- b18&#45;&gt;b3 -->
<g id="edge27" class="edge">
<title>b18&#45;&gt;b3</title>
<path fill="none" stroke="black" d="M4519.64,-623.93C4433.83,-531.22 4124.26,-223 3801,-223 1939,-223 1939,-223 1939,-223 1729.11,-223 1487.43,-252.29 1338.43,-273.76"/>
<polygon fill="black" stroke="black" points="1337.7,-270.33 1328.3,-275.23 1338.7,-277.26 1337.7,-270.33"/>
</g>
<!-- b19&#45;&gt;b3 -->
<g id="edge28" class="edge">
<title>b19&#45;&gt;b3</title>
<path fill="none" stroke="black" d="M4461.06,-1086.03C4325.32,-1126.77 4044.56,-1201 3801,-1201 1939,-1201 1939,-1201 1939,-1201 1481.28,-1201 1254.54,-500.15 1206.71,-331.96"/>
<polygon fill="black" stroke="black" points="1210.02,-330.79 1203.95,-322.11 1203.28,-332.68 1210.02,-330.79"/>
</g>
<!-- b20&#45;&gt;b1 -->
<g id="edge29" class="edge">
<title>b20&#45;&gt;b1</title>
<path fill="none" stroke="black" d="M1435.57,-96.61C1224.44,-110.45 811.47,-137.51 594.26,-151.74"/>
<polygon fill="black" stroke="black" points="593.82,-148.26 584.07,-152.41 594.27,-155.25 593.82,-148.26"/>
</g>
</g>
</svg>
