<?xml version="1.0" encoding="UTF-8" standalone="no"?>
<!DOCTYPE svg PUBLIC "-//W3C//DTD SVG 1.1//EN"
 "http://www.w3.org/Graphics/SVG/1.1/DTD/svg11.dtd">
<!-- Generated by graphviz version 2.44.0 (0)
 -->
<!-- Title: CFG_93 Pages: 1 -->
<svg width="3740pt" height="1367pt"
 viewBox="0.00 0.00 3740.00 1366.64" xmlns="http://www.w3.org/2000/svg" xmlns:xlink="http://www.w3.org/1999/xlink">
<g id="graph0" class="graph" transform="scale(1 1) rotate(0) translate(4 1362.64)">
<title>CFG_93</title>
<polygon fill="white" stroke="transparent" points="-4,4 -4,-1362.64 3736,-1362.64 3736,4 -4,4"/>
<text text-anchor="middle" x="144.5" y="-1338.64" font-family="Times-Roman" font-size="20.00">Mandelbrot.mandelbrot(int)</text>
<!-- b0 -->
<g id="node1" class="node">
<title>b0</title>
<polygon fill="white" stroke="black" points="212,-187 0,-187 0,-135 212,-135 212,-187"/>
<text text-anchor="middle" x="106" y="-175" font-family="Helvetica" font-size="10.00">B0</text>
<text text-anchor="middle" x="106" y="-164" font-family="Helvetica" font-size="10.00">Loop: &lt;none&gt;</text>
<text text-anchor="middle" x="106" y="-153" font-family="Helvetica" font-size="10.00">&#45;&#45;&#45;</text>
<text text-anchor="middle" x="106" y="-142" font-family="Helvetica" font-size="10.00">HotSpotMethod&lt;Mandelbrot.mandelbrot(int)&gt;</text>
</g>
<!-- b1 -->
<g id="node2" class="node">
<title>b1</title>
<polygon fill="lightblue" stroke="black" points="532,-187 320,-187 320,-135 532,-135 532,-187"/>
<text text-anchor="middle" x="426" y="-175" font-family="Helvetica" font-size="10.00">B1</text>
<text text-anchor="middle" x="426" y="-164" font-family="Helvetica" font-size="10.00">Loop: L0</text>
<text text-anchor="middle" x="426" y="-153" font-family="Helvetica" font-size="10.00">&#45;&#45;&#45;</text>
<text text-anchor="middle" x="426" y="-142" font-family="Helvetica" font-size="10.00">HotSpotMethod&lt;Mandelbrot.mandelbrot(int)&gt;</text>
</g>
<!-- b0&#45;&gt;b1 -->
<g id="edge1" class="edge">
<title>b0&#45;&gt;b1</title>
<path fill="none" stroke="black" d="M212.01,-161C243.27,-161 277.69,-161 309.58,-161"/>
<polygon fill="black" stroke="black" points="309.83,-164.5 319.83,-161 309.83,-157.5 309.83,-164.5"/>
</g>
<!-- b2 -->
<g id="node3" class="node">
<title>b2</title>
<polygon fill="lightblue" stroke="black" points="852,-322 640,-322 640,-270 852,-270 852,-322"/>
<text text-anchor="middle" x="746" y="-310" font-family="Helvetica" font-size="10.00">B2</text>
<text text-anchor="middle" x="746" y="-299" font-family="Helvetica" font-size="10.00">Loop: L0</text>
<text text-anchor="middle" x="746" y="-288" font-family="Helvetica" font-size="10.00">&#45;&#45;&#45;</text>
<text text-anchor="middle" x="746" y="-277" font-family="Helvetica" font-size="10.00">HotSpotMethod&lt;Mandelbrot.mandelbrot(int)&gt;</text>
</g>
<!-- b1&#45;&gt;b2 -->
<g id="edge2" class="edge">
<title>b1&#45;&gt;b2</title>
<path fill="none" stroke="black" d="M488.31,-187.03C541.46,-209.59 618.38,-242.25 674.15,-265.92"/>
<polygon fill="black" stroke="black" points="673.03,-269.25 683.6,-269.94 675.77,-262.81 673.03,-269.25"/>
</g>
<!-- b21 -->
<g id="node22" class="node">
<title>b21</title>
<polygon fill="white" stroke="black" points="852,-52 640,-52 640,0 852,0 852,-52"/>
<text text-anchor="middle" x="746" y="-40" font-family="Helvetica" font-size="10.00">B21</text>
<text text-anchor="middle" x="746" y="-29" font-family="Helvetica" font-size="10.00">Loop: &lt;none&gt;</text>
<text text-anchor="middle" x="746" y="-18" font-family="Helvetica" font-size="10.00">&#45;&#45;&#45;</text>
<text text-anchor="middle" x="746" y="-7" font-family="Helvetica" font-size="10.00">HotSpotMethod&lt;Mandelbrot.mandelbrot(int)&gt;</text>
</g>
<!-- b1&#45;&gt;b21 -->
<g id="edge3" class="edge">
<title>b1&#45;&gt;b21</title>
<path fill="none" stroke="black" d="M488.31,-134.97C541.46,-112.41 618.38,-79.75 674.15,-56.08"/>
<polygon fill="black" stroke="black" points="675.77,-59.19 683.6,-52.06 673.03,-52.75 675.77,-59.19"/>
</g>
<!-- b3 -->
<g id="node4" class="node">
<title>b3</title>
<polygon fill="lightgreen" stroke="black" points="1172,-322 960,-322 960,-270 1172,-270 1172,-322"/>
<text text-anchor="middle" x="1066" y="-310" font-family="Helvetica" font-size="10.00">B3</text>
<text text-anchor="middle" x="1066" y="-299" font-family="Helvetica" font-size="10.00">Loop: L1</text>
<text text-anchor="middle" x="1066" y="-288" font-family="Helvetica" font-size="10.00">&#45;&#45;&#45;</text>
<text text-anchor="middle" x="1066" y="-277" font-family="Helvetica" font-size="10.00">HotSpotMethod&lt;Mandelbrot.mandelbrot(int)&gt;</text>
</g>
<!-- b2&#45;&gt;b3 -->
<g id="edge4" class="edge">
<title>b2&#45;&gt;b3</title>
<path fill="none" stroke="black" d="M852.01,-296C883.27,-296 917.69,-296 949.58,-296"/>
<polygon fill="black" stroke="black" points="949.83,-299.5 959.83,-296 949.83,-292.5 949.83,-299.5"/>
</g>
<!-- b4 -->
<g id="node5" class="node">
<title>b4</title>
<polygon fill="lightgreen" stroke="black" points="1492,-670 1280,-670 1280,-618 1492,-618 1492,-670"/>
<text text-anchor="middle" x="1386" y="-658" font-family="Helvetica" font-size="10.00">B4</text>
<text text-anchor="middle" x="1386" y="-647" font-family="Helvetica" font-size="10.00">Loop: L1</text>
<text text-anchor="middle" x="1386" y="-636" font-family="Helvetica" font-size="10.00">&#45;&#45;&#45;</text>
<text text-anchor="middle" x="1386" y="-625" font-family="Helvetica" font-size="10.00">HotSpotMethod&lt;Mandelbrot.mandelbrot(int)&gt;</text>
</g>
<!-- b3&#45;&gt;b4 -->
<g id="edge5" class="edge">
<title>b3&#45;&gt;b4</title>
<path fill="none" stroke="black" d="M1090.9,-322.16C1147.65,-384.26 1290.46,-540.54 1353.85,-609.92"/>
<polygon fill="black" stroke="black" points="1351.49,-612.52 1360.82,-617.54 1356.66,-607.8 1351.49,-612.52"/>
</g>
<!-- b20 -->
<g id="node21" class="node">
<title>b20</title>
<polygon fill="lightblue" stroke="black" points="1492,-114 1280,-114 1280,-62 1492,-62 1492,-114"/>
<text text-anchor="middle" x="1386" y="-102" font-family="Helvetica" font-size="10.00">B20</text>
<text text-anchor="middle" x="1386" y="-91" font-family="Helvetica" font-size="10.00">Loop: L0</text>
<text text-anchor="middle" x="1386" y="-80" font-family="Helvetica" font-size="10.00">&#45;&#45;&#45;</text>
<text text-anchor="middle" x="1386" y="-69" font-family="Helvetica" font-size="10.00">HotSpotMethod&lt;Mandelbrot.mandelbrot(int)&gt;</text>
</g>
<!-- b3&#45;&gt;b20 -->
<g id="edge6" class="edge">
<title>b3&#45;&gt;b20</title>
<path fill="none" stroke="black" d="M1106.95,-269.87C1165.26,-231.73 1273.56,-160.89 1336.4,-119.79"/>
<polygon fill="black" stroke="black" points="1338.51,-122.59 1344.96,-114.19 1334.68,-116.73 1338.51,-122.59"/>
</g>
<!-- b5 -->
<g id="node6" class="node">
<title>b5</title>
<polygon fill="lightgreen" stroke="black" points="1812,-670 1600,-670 1600,-618 1812,-618 1812,-670"/>
<text text-anchor="middle" x="1706" y="-658" font-family="Helvetica" font-size="10.00">B5</text>
<text text-anchor="middle" x="1706" y="-647" font-family="Helvetica" font-size="10.00">Loop: L1</text>
<text text-anchor="middle" x="1706" y="-636" font-family="Helvetica" font-size="10.00">&#45;&#45;&#45;</text>
<text text-anchor="middle" x="1706" y="-625" font-family="Helvetica" font-size="10.00">HotSpotMethod&lt;Mandelbrot.mandelbrot(int)&gt;</text>
</g>
<!-- b4&#45;&gt;b5 -->
<g id="edge7" class="edge">
<title>b4&#45;&gt;b5</title>
<path fill="none" stroke="black" d="M1492.01,-644C1523.27,-644 1557.69,-644 1589.58,-644"/>
<polygon fill="black" stroke="black" points="1589.83,-647.5 1599.83,-644 1589.83,-640.5 1589.83,-647.5"/>
</g>
<!-- b6 -->
<g id="node7" class="node">
<title>b6</title>
<polygon fill="lightgreen" stroke="black" points="1812,-794 1600,-794 1600,-742 1812,-742 1812,-794"/>
<text text-anchor="middle" x="1706" y="-782" font-family="Helvetica" font-size="10.00">B6</text>
<text text-anchor="middle" x="1706" y="-771" font-family="Helvetica" font-size="10.00">Loop: L1</text>
<text text-anchor="middle" x="1706" y="-760" font-family="Helvetica" font-size="10.00">&#45;&#45;&#45;</text>
<text text-anchor="middle" x="1706" y="-749" font-family="Helvetica" font-size="10.00">HotSpotMethod&lt;Mandelbrot.mandelbrot(int)&gt;</text>
</g>
<!-- b4&#45;&gt;b6 -->
<g id="edge8" class="edge">
<title>b4&#45;&gt;b6</title>
<path fill="none" stroke="black" d="M1454.05,-670.15C1505.19,-690.09 1575.67,-717.57 1628.92,-738.33"/>
<polygon fill="black" stroke="black" points="1627.73,-741.62 1638.31,-742 1630.27,-735.1 1627.73,-741.62"/>
</g>
<!-- b7 -->
<g id="node8" class="node">
<title>b7</title>
<polygon fill="lightgreen" stroke="black" points="2132,-794 1920,-794 1920,-742 2132,-742 2132,-794"/>
<text text-anchor="middle" x="2026" y="-782" font-family="Helvetica" font-size="10.00">B7</text>
<text text-anchor="middle" x="2026" y="-771" font-family="Helvetica" font-size="10.00">Loop: L1</text>
<text text-anchor="middle" x="2026" y="-760" font-family="Helvetica" font-size="10.00">&#45;&#45;&#45;</text>
<text text-anchor="middle" x="2026" y="-749" font-family="Helvetica" font-size="10.00">HotSpotMethod&lt;Mandelbrot.mandelbrot(int)&gt;</text>
</g>
<!-- b5&#45;&gt;b7 -->
<g id="edge9" class="edge">
<title>b5&#45;&gt;b7</title>
<path fill="none" stroke="black" d="M1774.05,-670.15C1825.19,-690.09 1895.67,-717.57 1948.92,-738.33"/>
<polygon fill="black" stroke="black" points="1947.73,-741.62 1958.31,-742 1950.27,-735.1 1947.73,-741.62"/>
</g>
<!-- b6&#45;&gt;b7 -->
<g id="edge10" class="edge">
<title>b6&#45;&gt;b7</title>
<path fill="none" stroke="black" d="M1812.01,-768C1843.27,-768 1877.69,-768 1909.58,-768"/>
<polygon fill="black" stroke="black" points="1909.83,-771.5 1919.83,-768 1909.83,-764.5 1909.83,-771.5"/>
</g>
<!-- b8 -->
<g id="node9" class="node">
<title>b8</title>
<polygon fill="lightpink" stroke="black" points="2452,-935 2240,-935 2240,-883 2452,-883 2452,-935"/>
<text text-anchor="middle" x="2346" y="-923" font-family="Helvetica" font-size="10.00">B8</text>
<text text-anchor="middle" x="2346" y="-912" font-family="Helvetica" font-size="10.00">Loop: L2</text>
<text text-anchor="middle" x="2346" y="-901" font-family="Helvetica" font-size="10.00">&#45;&#45;&#45;</text>
<text text-anchor="middle" x="2346" y="-890" font-family="Helvetica" font-size="10.00">HotSpotMethod&lt;Mandelbrot.mandelbrot(int)&gt;</text>
</g>
<!-- b7&#45;&gt;b8 -->
<g id="edge11" class="edge">
<title>b7&#45;&gt;b8</title>
<path fill="none" stroke="black" d="M2085.7,-794.03C2139.76,-818 2219.96,-853.56 2276.83,-878.78"/>
<polygon fill="black" stroke="black" points="2275.55,-882.03 2286.11,-882.89 2278.38,-875.63 2275.55,-882.03"/>
</g>
<!-- b9 -->
<g id="node10" class="node">
<title>b9</title>
<polygon fill="lightpink" stroke="black" points="2772,-1070 2560,-1070 2560,-1018 2772,-1018 2772,-1070"/>
<text text-anchor="middle" x="2666" y="-1058" font-family="Helvetica" font-size="10.00">B9</text>
<text text-anchor="middle" x="2666" y="-1047" font-family="Helvetica" font-size="10.00">Loop: L2</text>
<text text-anchor="middle" x="2666" y="-1036" font-family="Helvetica" font-size="10.00">&#45;&#45;&#45;</text>
<text text-anchor="middle" x="2666" y="-1025" font-family="Helvetica" font-size="10.00">HotSpotMethod&lt;Mandelbrot.mandelbrot(int)&gt;</text>
</g>
<!-- b8&#45;&gt;b9 -->
<g id="edge13" class="edge">
<title>b8&#45;&gt;b9</title>
<path fill="none" stroke="black" d="M2408.31,-935.03C2461.46,-957.59 2538.38,-990.25 2594.15,-1013.92"/>
<polygon fill="black" stroke="black" points="2593.03,-1017.25 2603.6,-1017.94 2595.77,-1010.81 2593.03,-1017.25"/>
</g>
<!-- b15 -->
<g id="node16" class="node">
<title>b15</title>
<polygon fill="lightgreen" stroke="black" points="3092,-676 2880,-676 2880,-624 3092,-624 3092,-676"/>
<text text-anchor="middle" x="2986" y="-664" font-family="Helvetica" font-size="10.00">B15</text>
<text text-anchor="middle" x="2986" y="-653" font-family="Helvetica" font-size="10.00">Loop: L1</text>
<text text-anchor="middle" x="2986" y="-642" font-family="Helvetica" font-size="10.00">&#45;&#45;&#45;</text>
<text text-anchor="middle" x="2986" y="-631" font-family="Helvetica" font-size="10.00">HotSpotMethod&lt;Mandelbrot.mandelbrot(int)&gt;</text>
</g>
<!-- b8&#45;&gt;b15 -->
<g id="edge12" class="edge">
<title>b8&#45;&gt;b15</title>
<path fill="none" stroke="black" d="M2354.91,-882.63C2375.9,-818.05 2439.77,-652.51 2560,-588 2677.91,-524.73 2839.37,-580.64 2925.37,-619.72"/>
<polygon fill="black" stroke="black" points="2923.91,-622.91 2934.46,-623.92 2926.85,-616.55 2923.91,-622.91"/>
</g>
<!-- b10 -->
<g id="node11" class="node">
<title>b10</title>
<polygon fill="lightpink" stroke="black" points="3092,-1070 2880,-1070 2880,-1018 3092,-1018 3092,-1070"/>
<text text-anchor="middle" x="2986" y="-1058" font-family="Helvetica" font-size="10.00">B10</text>
<text text-anchor="middle" x="2986" y="-1047" font-family="Helvetica" font-size="10.00">Loop: L2</text>
<text text-anchor="middle" x="2986" y="-1036" font-family="Helvetica" font-size="10.00">&#45;&#45;&#45;</text>
<text text-anchor="middle" x="2986" y="-1025" font-family="Helvetica" font-size="10.00">HotSpotMethod&lt;Mandelbrot.mandelbrot(int)&gt;</text>
</g>
<!-- b9&#45;&gt;b10 -->
<g id="edge14" class="edge">
<title>b9&#45;&gt;b10</title>
<path fill="none" stroke="black" d="M2772.01,-1044C2803.27,-1044 2837.69,-1044 2869.58,-1044"/>
<polygon fill="black" stroke="black" points="2869.83,-1047.5 2879.83,-1044 2869.83,-1040.5 2869.83,-1047.5"/>
</g>
<!-- b9&#45;&gt;b15 -->
<g id="edge15" class="edge">
<title>b9&#45;&gt;b15</title>
<path fill="none" stroke="black" d="M2688.11,-1017.84C2743.86,-948.78 2894.99,-761.52 2957.43,-684.16"/>
<polygon fill="black" stroke="black" points="2960.34,-686.13 2963.9,-676.15 2954.89,-681.73 2960.34,-686.13"/>
</g>
<!-- b11 -->
<g id="node12" class="node">
<title>b11</title>
<polygon fill="lightpink" stroke="black" points="3412,-1200 3200,-1200 3200,-1148 3412,-1148 3412,-1200"/>
<text text-anchor="middle" x="3306" y="-1188" font-family="Helvetica" font-size="10.00">B11</text>
<text text-anchor="middle" x="3306" y="-1177" font-family="Helvetica" font-size="10.00">Loop: L2</text>
<text text-anchor="middle" x="3306" y="-1166" font-family="Helvetica" font-size="10.00">&#45;&#45;&#45;</text>
<text text-anchor="middle" x="3306" y="-1155" font-family="Helvetica" font-size="10.00">HotSpotMethod&lt;Mandelbrot.mandelbrot(int)&gt;</text>
</g>
<!-- b10&#45;&gt;b11 -->
<g id="edge16" class="edge">
<title>b10&#45;&gt;b11</title>
<path fill="none" stroke="black" d="M3050.97,-1070.15C3103.26,-1091.53 3177.22,-1121.76 3231.85,-1144.1"/>
<polygon fill="black" stroke="black" points="3230.55,-1147.35 3241.13,-1147.89 3233.2,-1140.87 3230.55,-1147.35"/>
</g>
<!-- b12 -->
<g id="node13" class="node">
<title>b12</title>
<polygon fill="lightpink" stroke="black" points="3412,-1003 3200,-1003 3200,-951 3412,-951 3412,-1003"/>
<text text-anchor="middle" x="3306" y="-991" font-family="Helvetica" font-size="10.00">B12</text>
<text text-anchor="middle" x="3306" y="-980" font-family="Helvetica" font-size="10.00">Loop: L2</text>
<text text-anchor="middle" x="3306" y="-969" font-family="Helvetica" font-size="10.00">&#45;&#45;&#45;</text>
<text text-anchor="middle" x="3306" y="-958" font-family="Helvetica" font-size="10.00">HotSpotMethod&lt;Mandelbrot.mandelbrot(int)&gt;</text>
</g>
<!-- b10&#45;&gt;b12 -->
<g id="edge17" class="edge">
<title>b10&#45;&gt;b12</title>
<path fill="none" stroke="black" d="M3092.01,-1021.88C3123.4,-1015.26 3157.99,-1007.97 3189.99,-1001.23"/>
<polygon fill="black" stroke="black" points="3190.77,-1004.64 3199.83,-999.16 3189.33,-997.79 3190.77,-1004.64"/>
</g>
<!-- b11&#45;&gt;b8 -->
<g id="edge18" class="edge">
<title>b11&#45;&gt;b8</title>
<path fill="none" stroke="black" d="M3199.74,-1184.99C3050.45,-1196.13 2771.81,-1200.26 2560,-1106 2478.55,-1069.75 2407.92,-989.47 2372.07,-943.36"/>
<polygon fill="black" stroke="black" points="2374.65,-940.97 2365.79,-935.17 2369.1,-945.23 2374.65,-940.97"/>
</g>
<!-- b12&#45;&gt;b8 -->
<g id="edge19" class="edge">
<title>b12&#45;&gt;b8</title>
<path fill="none" stroke="black" d="M3199.93,-969.54C3019.05,-956.7 2650.24,-930.52 2462.44,-917.19"/>
<polygon fill="black" stroke="black" points="2462.49,-913.69 2452.26,-916.47 2461.99,-920.67 2462.49,-913.69"/>
</g>
<!-- b13 -->
<g id="node14" class="node">
<title>b13</title>
<polygon fill="lightgreen" stroke="black" points="2772,-800 2560,-800 2560,-748 2772,-748 2772,-800"/>
<text text-anchor="middle" x="2666" y="-788" font-family="Helvetica" font-size="10.00">B13</text>
<text text-anchor="middle" x="2666" y="-777" font-family="Helvetica" font-size="10.00">Loop: L1</text>
<text text-anchor="middle" x="2666" y="-766" font-family="Helvetica" font-size="10.00">&#45;&#45;&#45;</text>
<text text-anchor="middle" x="2666" y="-755" font-family="Helvetica" font-size="10.00">HotSpotMethod&lt;Mandelbrot.mandelbrot(int)&gt;</text>
</g>
<!-- b13&#45;&gt;b15 -->
<g id="edge20" class="edge">
<title>b13&#45;&gt;b15</title>
<path fill="none" stroke="black" d="M2734.05,-747.85C2785.19,-727.91 2855.67,-700.43 2908.92,-679.67"/>
<polygon fill="black" stroke="black" points="2910.27,-682.9 2918.31,-676 2907.73,-676.38 2910.27,-682.9"/>
</g>
<!-- b14 -->
<g id="node15" class="node">
<title>b14</title>
<polygon fill="lightgreen" stroke="black" points="2772,-676 2560,-676 2560,-624 2772,-624 2772,-676"/>
<text text-anchor="middle" x="2666" y="-664" font-family="Helvetica" font-size="10.00">B14</text>
<text text-anchor="middle" x="2666" y="-653" font-family="Helvetica" font-size="10.00">Loop: L1</text>
<text text-anchor="middle" x="2666" y="-642" font-family="Helvetica" font-size="10.00">&#45;&#45;&#45;</text>
<text text-anchor="middle" x="2666" y="-631" font-family="Helvetica" font-size="10.00">HotSpotMethod&lt;Mandelbrot.mandelbrot(int)&gt;</text>
</g>
<!-- b14&#45;&gt;b15 -->
<g id="edge21" class="edge">
<title>b14&#45;&gt;b15</title>
<path fill="none" stroke="black" d="M2772.01,-650C2803.27,-650 2837.69,-650 2869.58,-650"/>
<polygon fill="black" stroke="black" points="2869.83,-653.5 2879.83,-650 2869.83,-646.5 2869.83,-653.5"/>
</g>
<!-- b16 -->
<g id="node17" class="node">
<title>b16</title>
<polygon fill="lightgreen" stroke="black" points="3412,-474 3200,-474 3200,-422 3412,-422 3412,-474"/>
<text text-anchor="middle" x="3306" y="-462" font-family="Helvetica" font-size="10.00">B16</text>
<text text-anchor="middle" x="3306" y="-451" font-family="Helvetica" font-size="10.00">Loop: L1</text>
<text text-anchor="middle" x="3306" y="-440" font-family="Helvetica" font-size="10.00">&#45;&#45;&#45;</text>
<text text-anchor="middle" x="3306" y="-429" font-family="Helvetica" font-size="10.00">HotSpotMethod&lt;Mandelbrot.mandelbrot(int)&gt;</text>
</g>
<!-- b15&#45;&gt;b16 -->
<g id="edge22" class="edge">
<title>b15&#45;&gt;b16</title>
<path fill="none" stroke="black" d="M3028.25,-623.8C3086.51,-586.79 3192.76,-519.29 3255.3,-479.57"/>
<polygon fill="black" stroke="black" points="3257.26,-482.47 3263.83,-474.15 3253.51,-476.56 3257.26,-482.47"/>
</g>
<!-- b17 -->
<g id="node18" class="node">
<title>b17</title>
<polygon fill="lightgreen" stroke="black" points="3412,-676 3200,-676 3200,-624 3412,-624 3412,-676"/>
<text text-anchor="middle" x="3306" y="-664" font-family="Helvetica" font-size="10.00">B17</text>
<text text-anchor="middle" x="3306" y="-653" font-family="Helvetica" font-size="10.00">Loop: L1</text>
<text text-anchor="middle" x="3306" y="-642" font-family="Helvetica" font-size="10.00">&#45;&#45;&#45;</text>
<text text-anchor="middle" x="3306" y="-631" font-family="Helvetica" font-size="10.00">HotSpotMethod&lt;Mandelbrot.mandelbrot(int)&gt;</text>
</g>
<!-- b15&#45;&gt;b17 -->
<g id="edge23" class="edge">
<title>b15&#45;&gt;b17</title>
<path fill="none" stroke="black" d="M3092.01,-650C3123.27,-650 3157.69,-650 3189.58,-650"/>
<polygon fill="black" stroke="black" points="3189.83,-653.5 3199.83,-650 3189.83,-646.5 3189.83,-653.5"/>
</g>
<!-- b16&#45;&gt;b3 -->
<g id="edge24" class="edge">
<title>b16&#45;&gt;b3</title>
<path fill="none" stroke="black" d="M3199.94,-426.93C3073.89,-403.53 2855.9,-369 2667,-369 1705,-369 1705,-369 1705,-369 1521.28,-369 1309.73,-338.75 1182.3,-317.2"/>
<polygon fill="black" stroke="black" points="1182.58,-313.7 1172.13,-315.47 1181.4,-320.6 1182.58,-313.7"/>
</g>
<!-- b18 -->
<g id="node19" class="node">
<title>b18</title>
<polygon fill="lightgreen" stroke="black" points="3732,-538 3520,-538 3520,-486 3732,-486 3732,-538"/>
<text text-anchor="middle" x="3626" y="-526" font-family="Helvetica" font-size="10.00">B18</text>
<text text-anchor="middle" x="3626" y="-515" font-family="Helvetica" font-size="10.00">Loop: L1</text>
<text text-anchor="middle" x="3626" y="-504" font-family="Helvetica" font-size="10.00">&#45;&#45;&#45;</text>
<text text-anchor="middle" x="3626" y="-493" font-family="Helvetica" font-size="10.00">HotSpotMethod&lt;Mandelbrot.mandelbrot(int)&gt;</text>
</g>
<!-- b17&#45;&gt;b18 -->
<g id="edge25" class="edge">
<title>b17&#45;&gt;b18</title>
<path fill="none" stroke="black" d="M3367.19,-623.88C3420.92,-600.56 3499.58,-566.43 3555.87,-542"/>
<polygon fill="black" stroke="black" points="3557.28,-545.2 3565.06,-538.01 3554.49,-538.78 3557.28,-545.2"/>
</g>
<!-- b19 -->
<g id="node20" class="node">
<title>b19</title>
<polygon fill="lightgreen" stroke="black" points="3732,-813 3520,-813 3520,-761 3732,-761 3732,-813"/>
<text text-anchor="middle" x="3626" y="-801" font-family="Helvetica" font-size="10.00">B19</text>
<text text-anchor="middle" x="3626" y="-790" font-family="Helvetica" font-size="10.00">Loop: L1</text>
<text text-anchor="middle" x="3626" y="-779" font-family="Helvetica" font-size="10.00">&#45;&#45;&#45;</text>
<text text-anchor="middle" x="3626" y="-768" font-family="Helvetica" font-size="10.00">HotSpotMethod&lt;Mandelbrot.mandelbrot(int)&gt;</text>
</g>
<!-- b17&#45;&gt;b19 -->
<g id="edge26" class="edge">
<title>b17&#45;&gt;b19</title>
<path fill="none" stroke="black" d="M3367.56,-676.09C3420.97,-699.1 3498.8,-732.63 3554.89,-756.79"/>
<polygon fill="black" stroke="black" points="3553.82,-760.15 3564.39,-760.89 3556.59,-753.72 3553.82,-760.15"/>
</g>
<!-- b18&#45;&gt;b3 -->
<g id="edge27" class="edge">
<title>b18&#45;&gt;b3</title>
<path fill="none" stroke="black" d="M3593.44,-485.84C3504.29,-414.7 3240.53,-223 2987,-223 1705,-223 1705,-223 1705,-223 1521.28,-223 1309.73,-253.25 1182.3,-274.8"/>
<polygon fill="black" stroke="black" points="1181.4,-271.4 1172.13,-276.53 1182.58,-278.3 1181.4,-271.4"/>
</g>
<!-- b19&#45;&gt;b3 -->
<g id="edge28" class="edge">
<title>b19&#45;&gt;b3</title>
<path fill="none" stroke="black" d="M3620.88,-813.03C3607.1,-890.83 3555.18,-1123.23 3412,-1236 3260.39,-1355.41 3179.99,-1325 2987,-1325 1705,-1325 1705,-1325 1705,-1325 1227.64,-1325 1095.14,-515.21 1071.31,-332.38"/>
<polygon fill="black" stroke="black" points="1074.75,-331.69 1070.01,-322.21 1067.8,-332.57 1074.75,-331.69"/>
</g>
<!-- b20&#45;&gt;b1 -->
<g id="edge29" class="edge">
<title>b20&#45;&gt;b1</title>
<path fill="none" stroke="black" d="M1279.93,-96.01C1099.05,-109.79 730.24,-137.89 542.44,-152.2"/>
<polygon fill="black" stroke="black" points="541.97,-148.73 532.26,-152.98 542.5,-155.71 541.97,-148.73"/>
</g>
</g>
</svg>
