<?xml version="1.0" encoding="UTF-8" standalone="no"?>
<!DOCTYPE svg PUBLIC "-//W3C//DTD SVG 1.1//EN"
 "http://www.w3.org/Graphics/SVG/1.1/DTD/svg11.dtd">
<!-- Generated by graphviz version 2.44.0 (0)
 -->
<!-- Title: CFG_102 Pages: 1 -->
<svg width="3740pt" height="1436pt"
 viewBox="0.00 0.00 3740.00 1436.00" xmlns="http://www.w3.org/2000/svg" xmlns:xlink="http://www.w3.org/1999/xlink">
<g id="graph0" class="graph" transform="scale(1 1) rotate(0) translate(4 1432)">
<title>CFG_102</title>
<polygon fill="white" stroke="transparent" points="-4,4 -4,-1432 3736,-1432 3736,4 -4,4"/>
<text text-anchor="middle" x="144.5" y="-1408" font-family="Times-Roman" font-size="20.00">Mandelbrot.mandelbrot(int)</text>
<!-- b0 -->
<g id="node1" class="node">
<title>b0</title>
<polygon fill="white" stroke="black" points="212,-187 0,-187 0,-135 212,-135 212,-187"/>
<text text-anchor="middle" x="106" y="-175" font-family="Helvetica" font-size="10.00">B0</text>
<text text-anchor="middle" x="106" y="-164" font-family="Helvetica" font-size="10.00">Loop: &lt;none&gt;</text>
<text text-anchor="middle" x="106" y="-153" font-family="Helvetica" font-size="10.00">&#45;&#45;&#45;</text>
<text text-anchor="middle" x="106" y="-142" font-family="Helvetica" font-size="10.00">HotSpotMethod&lt;Mandelbrot.mandelbrot(int)&gt;</text>
</g>
<!-- b1 -->
<g id="node2" class="node">
<title>b1</title>
<polygon fill="lightblue" stroke="black" points="532,-187 320,-187 320,-135 532,-135 532,-187"/>
<text text-anchor="middle" x="426" y="-175" font-family="Helvetica" font-size="10.00">B1</text>
<text text-anchor="middle" x="426" y="-164" font-family="Helvetica" font-size="10.00">Loop: L0</text>
<text text-anchor="middle" x="426" y="-153" font-family="Helvetica" font-size="10.00">&#45;&#45;&#45;</text>
<text text-anchor="middle" x="426" y="-142" font-family="Helvetica" font-size="10.00">HotSpotMethod&lt;Mandelbrot.mandelbrot(int)&gt;</text>
</g>
<!-- b0&#45;&gt;b1 -->
<g id="edge1" class="edge">
<title>b0&#45;&gt;b1</title>
<path fill="none" stroke="black" d="M212.01,-161C243.27,-161 277.69,-161 309.58,-161"/>
<polygon fill="black" stroke="black" points="309.83,-164.5 319.83,-161 309.83,-157.5 309.83,-164.5"/>
</g>
<!-- b2 -->
<g id="node3" class="node">
<title>b2</title>
<polygon fill="lightblue" stroke="black" points="852,-359 640,-359 640,-307 852,-307 852,-359"/>
<text text-anchor="middle" x="746" y="-347" font-family="Helvetica" font-size="10.00">B2</text>
<text text-anchor="middle" x="746" y="-336" font-family="Helvetica" font-size="10.00">Loop: L0</text>
<text text-anchor="middle" x="746" y="-325" font-family="Helvetica" font-size="10.00">&#45;&#45;&#45;</text>
<text text-anchor="middle" x="746" y="-314" font-family="Helvetica" font-size="10.00">HotSpotMethod&lt;Mandelbrot.mandelbrot(int)&gt;</text>
</g>
<!-- b1&#45;&gt;b2 -->
<g id="edge2" class="edge">
<title>b1&#45;&gt;b2</title>
<path fill="none" stroke="black" d="M475.3,-187.12C532.31,-217.96 627.03,-269.19 687.71,-302.01"/>
<polygon fill="black" stroke="black" points="686.31,-305.23 696.77,-306.91 689.64,-299.08 686.31,-305.23"/>
</g>
<!-- b21 -->
<g id="node22" class="node">
<title>b21</title>
<polygon fill="white" stroke="black" points="852,-52 640,-52 640,0 852,0 852,-52"/>
<text text-anchor="middle" x="746" y="-40" font-family="Helvetica" font-size="10.00">B21</text>
<text text-anchor="middle" x="746" y="-29" font-family="Helvetica" font-size="10.00">Loop: &lt;none&gt;</text>
<text text-anchor="middle" x="746" y="-18" font-family="Helvetica" font-size="10.00">&#45;&#45;&#45;</text>
<text text-anchor="middle" x="746" y="-7" font-family="Helvetica" font-size="10.00">HotSpotMethod&lt;Mandelbrot.mandelbrot(int)&gt;</text>
</g>
<!-- b1&#45;&gt;b21 -->
<g id="edge3" class="edge">
<title>b1&#45;&gt;b21</title>
<path fill="none" stroke="black" d="M488.31,-134.97C541.46,-112.41 618.38,-79.75 674.15,-56.08"/>
<polygon fill="black" stroke="black" points="675.77,-59.19 683.6,-52.06 673.03,-52.75 675.77,-59.19"/>
</g>
<!-- b3 -->
<g id="node4" class="node">
<title>b3</title>
<polygon fill="lightgreen" stroke="black" points="1172,-395 960,-395 960,-343 1172,-343 1172,-395"/>
<text text-anchor="middle" x="1066" y="-383" font-family="Helvetica" font-size="10.00">B3</text>
<text text-anchor="middle" x="1066" y="-372" font-family="Helvetica" font-size="10.00">Loop: L1</text>
<text text-anchor="middle" x="1066" y="-361" font-family="Helvetica" font-size="10.00">&#45;&#45;&#45;</text>
<text text-anchor="middle" x="1066" y="-350" font-family="Helvetica" font-size="10.00">HotSpotMethod&lt;Mandelbrot.mandelbrot(int)&gt;</text>
</g>
<!-- b2&#45;&gt;b3 -->
<g id="edge4" class="edge">
<title>b2&#45;&gt;b3</title>
<path fill="none" stroke="black" d="M852.01,-344.89C883.27,-348.43 917.69,-352.32 949.58,-355.93"/>
<polygon fill="black" stroke="black" points="949.5,-359.45 959.83,-357.09 950.29,-352.49 949.5,-359.45"/>
</g>
<!-- b4 -->
<g id="node5" class="node">
<title>b4</title>
<polygon fill="lightgreen" stroke="black" points="1492,-873 1280,-873 1280,-821 1492,-821 1492,-873"/>
<text text-anchor="middle" x="1386" y="-861" font-family="Helvetica" font-size="10.00">B4</text>
<text text-anchor="middle" x="1386" y="-850" font-family="Helvetica" font-size="10.00">Loop: L1</text>
<text text-anchor="middle" x="1386" y="-839" font-family="Helvetica" font-size="10.00">&#45;&#45;&#45;</text>
<text text-anchor="middle" x="1386" y="-828" font-family="Helvetica" font-size="10.00">HotSpotMethod&lt;Mandelbrot.mandelbrot(int)&gt;</text>
</g>
<!-- b3&#45;&gt;b4 -->
<g id="edge5" class="edge">
<title>b3&#45;&gt;b4</title>
<path fill="none" stroke="black" d="M1084.32,-395.04C1137.94,-475.64 1301.24,-721.09 1361.95,-812.35"/>
<polygon fill="black" stroke="black" points="1359.21,-814.55 1367.66,-820.94 1365.04,-810.67 1359.21,-814.55"/>
</g>
<!-- b20 -->
<g id="node21" class="node">
<title>b20</title>
<polygon fill="lightblue" stroke="black" points="1492,-187 1280,-187 1280,-135 1492,-135 1492,-187"/>
<text text-anchor="middle" x="1386" y="-175" font-family="Helvetica" font-size="10.00">B20</text>
<text text-anchor="middle" x="1386" y="-164" font-family="Helvetica" font-size="10.00">Loop: L0</text>
<text text-anchor="middle" x="1386" y="-153" font-family="Helvetica" font-size="10.00">&#45;&#45;&#45;</text>
<text text-anchor="middle" x="1386" y="-142" font-family="Helvetica" font-size="10.00">HotSpotMethod&lt;Mandelbrot.mandelbrot(int)&gt;</text>
</g>
<!-- b3&#45;&gt;b20 -->
<g id="edge6" class="edge">
<title>b3&#45;&gt;b20</title>
<path fill="none" stroke="black" d="M1106.95,-342.87C1165.26,-304.73 1273.56,-233.89 1336.4,-192.79"/>
<polygon fill="black" stroke="black" points="1338.51,-195.59 1344.96,-187.19 1334.68,-189.73 1338.51,-195.59"/>
</g>
<!-- b5 -->
<g id="node6" class="node">
<title>b5</title>
<polygon fill="lightgreen" stroke="black" points="1812,-997 1600,-997 1600,-945 1812,-945 1812,-997"/>
<text text-anchor="middle" x="1706" y="-985" font-family="Helvetica" font-size="10.00">B5</text>
<text text-anchor="middle" x="1706" y="-974" font-family="Helvetica" font-size="10.00">Loop: L1</text>
<text text-anchor="middle" x="1706" y="-963" font-family="Helvetica" font-size="10.00">&#45;&#45;&#45;</text>
<text text-anchor="middle" x="1706" y="-952" font-family="Helvetica" font-size="10.00">HotSpotMethod&lt;Mandelbrot.mandelbrot(int)&gt;</text>
</g>
<!-- b4&#45;&gt;b5 -->
<g id="edge7" class="edge">
<title>b4&#45;&gt;b5</title>
<path fill="none" stroke="black" d="M1454.05,-873.15C1505.19,-893.09 1575.67,-920.57 1628.92,-941.33"/>
<polygon fill="black" stroke="black" points="1627.73,-944.62 1638.31,-945 1630.27,-938.1 1627.73,-944.62"/>
</g>
<!-- b6 -->
<g id="node7" class="node">
<title>b6</title>
<polygon fill="lightgreen" stroke="black" points="1812,-873 1600,-873 1600,-821 1812,-821 1812,-873"/>
<text text-anchor="middle" x="1706" y="-861" font-family="Helvetica" font-size="10.00">B6</text>
<text text-anchor="middle" x="1706" y="-850" font-family="Helvetica" font-size="10.00">Loop: L1</text>
<text text-anchor="middle" x="1706" y="-839" font-family="Helvetica" font-size="10.00">&#45;&#45;&#45;</text>
<text text-anchor="middle" x="1706" y="-828" font-family="Helvetica" font-size="10.00">HotSpotMethod&lt;Mandelbrot.mandelbrot(int)&gt;</text>
</g>
<!-- b4&#45;&gt;b6 -->
<g id="edge8" class="edge">
<title>b4&#45;&gt;b6</title>
<path fill="none" stroke="black" d="M1492.01,-847C1523.27,-847 1557.69,-847 1589.58,-847"/>
<polygon fill="black" stroke="black" points="1589.83,-850.5 1599.83,-847 1589.83,-843.5 1589.83,-850.5"/>
</g>
<!-- b7 -->
<g id="node8" class="node">
<title>b7</title>
<polygon fill="lightgreen" stroke="black" points="2132,-997 1920,-997 1920,-945 2132,-945 2132,-997"/>
<text text-anchor="middle" x="2026" y="-985" font-family="Helvetica" font-size="10.00">B7</text>
<text text-anchor="middle" x="2026" y="-974" font-family="Helvetica" font-size="10.00">Loop: L1</text>
<text text-anchor="middle" x="2026" y="-963" font-family="Helvetica" font-size="10.00">&#45;&#45;&#45;</text>
<text text-anchor="middle" x="2026" y="-952" font-family="Helvetica" font-size="10.00">HotSpotMethod&lt;Mandelbrot.mandelbrot(int)&gt;</text>
</g>
<!-- b5&#45;&gt;b7 -->
<g id="edge9" class="edge">
<title>b5&#45;&gt;b7</title>
<path fill="none" stroke="black" d="M1812.01,-971C1843.27,-971 1877.69,-971 1909.58,-971"/>
<polygon fill="black" stroke="black" points="1909.83,-974.5 1919.83,-971 1909.83,-967.5 1909.83,-974.5"/>
</g>
<!-- b6&#45;&gt;b7 -->
<g id="edge10" class="edge">
<title>b6&#45;&gt;b7</title>
<path fill="none" stroke="black" d="M1774.05,-873.15C1825.19,-893.09 1895.67,-920.57 1948.92,-941.33"/>
<polygon fill="black" stroke="black" points="1947.73,-944.62 1958.31,-945 1950.27,-938.1 1947.73,-944.62"/>
</g>
<!-- b8 -->
<g id="node9" class="node">
<title>b8</title>
<polygon fill="lightpink" stroke="black" points="2452,-997 2240,-997 2240,-945 2452,-945 2452,-997"/>
<text text-anchor="middle" x="2346" y="-985" font-family="Helvetica" font-size="10.00">B8</text>
<text text-anchor="middle" x="2346" y="-974" font-family="Helvetica" font-size="10.00">Loop: L2</text>
<text text-anchor="middle" x="2346" y="-963" font-family="Helvetica" font-size="10.00">&#45;&#45;&#45;</text>
<text text-anchor="middle" x="2346" y="-952" font-family="Helvetica" font-size="10.00">HotSpotMethod&lt;Mandelbrot.mandelbrot(int)&gt;</text>
</g>
<!-- b7&#45;&gt;b8 -->
<g id="edge11" class="edge">
<title>b7&#45;&gt;b8</title>
<path fill="none" stroke="black" d="M2132.01,-971C2163.27,-971 2197.69,-971 2229.58,-971"/>
<polygon fill="black" stroke="black" points="2229.83,-974.5 2239.83,-971 2229.83,-967.5 2229.83,-974.5"/>
</g>
<!-- b9 -->
<g id="node10" class="node">
<title>b9</title>
<polygon fill="lightpink" stroke="black" points="2772,-997 2560,-997 2560,-945 2772,-945 2772,-997"/>
<text text-anchor="middle" x="2666" y="-985" font-family="Helvetica" font-size="10.00">B9</text>
<text text-anchor="middle" x="2666" y="-974" font-family="Helvetica" font-size="10.00">Loop: L2</text>
<text text-anchor="middle" x="2666" y="-963" font-family="Helvetica" font-size="10.00">&#45;&#45;&#45;</text>
<text text-anchor="middle" x="2666" y="-952" font-family="Helvetica" font-size="10.00">HotSpotMethod&lt;Mandelbrot.mandelbrot(int)&gt;</text>
</g>
<!-- b8&#45;&gt;b9 -->
<g id="edge13" class="edge">
<title>b8&#45;&gt;b9</title>
<path fill="none" stroke="black" d="M2452.01,-971C2483.27,-971 2517.69,-971 2549.58,-971"/>
<polygon fill="black" stroke="black" points="2549.83,-974.5 2559.83,-971 2549.83,-967.5 2549.83,-974.5"/>
</g>
<!-- b15 -->
<g id="node16" class="node">
<title>b15</title>
<polygon fill="lightgreen" stroke="black" points="3092,-749 2880,-749 2880,-697 3092,-697 3092,-749"/>
<text text-anchor="middle" x="2986" y="-737" font-family="Helvetica" font-size="10.00">B15</text>
<text text-anchor="middle" x="2986" y="-726" font-family="Helvetica" font-size="10.00">Loop: L1</text>
<text text-anchor="middle" x="2986" y="-715" font-family="Helvetica" font-size="10.00">&#45;&#45;&#45;</text>
<text text-anchor="middle" x="2986" y="-704" font-family="Helvetica" font-size="10.00">HotSpotMethod&lt;Mandelbrot.mandelbrot(int)&gt;</text>
</g>
<!-- b8&#45;&gt;b15 -->
<g id="edge12" class="edge">
<title>b8&#45;&gt;b15</title>
<path fill="none" stroke="black" d="M2355.52,-944.58C2377.49,-881.49 2442.69,-722.73 2560,-661 2678.14,-598.83 2838.91,-653.95 2924.89,-692.7"/>
<polygon fill="black" stroke="black" points="2923.69,-696 2934.24,-696.99 2926.61,-689.64 2923.69,-696"/>
</g>
<!-- b10 -->
<g id="node11" class="node">
<title>b10</title>
<polygon fill="lightpink" stroke="black" points="3092,-1132 2880,-1132 2880,-1080 3092,-1080 3092,-1132"/>
<text text-anchor="middle" x="2986" y="-1120" font-family="Helvetica" font-size="10.00">B10</text>
<text text-anchor="middle" x="2986" y="-1109" font-family="Helvetica" font-size="10.00">Loop: L2</text>
<text text-anchor="middle" x="2986" y="-1098" font-family="Helvetica" font-size="10.00">&#45;&#45;&#45;</text>
<text text-anchor="middle" x="2986" y="-1087" font-family="Helvetica" font-size="10.00">HotSpotMethod&lt;Mandelbrot.mandelbrot(int)&gt;</text>
</g>
<!-- b9&#45;&gt;b10 -->
<g id="edge14" class="edge">
<title>b9&#45;&gt;b10</title>
<path fill="none" stroke="black" d="M2728.31,-997.03C2781.46,-1019.59 2858.38,-1052.25 2914.15,-1075.92"/>
<polygon fill="black" stroke="black" points="2913.03,-1079.25 2923.6,-1079.94 2915.77,-1072.81 2913.03,-1079.25"/>
</g>
<!-- b9&#45;&gt;b15 -->
<g id="edge15" class="edge">
<title>b9&#45;&gt;b15</title>
<path fill="none" stroke="black" d="M2715.48,-944.87C2733.68,-934.42 2754.24,-921.83 2772,-909 2839.25,-860.42 2910.52,-794.93 2951.21,-756.02"/>
<polygon fill="black" stroke="black" points="2953.65,-758.53 2958.44,-749.08 2948.81,-753.48 2953.65,-758.53"/>
</g>
<!-- b10&#45;&gt;b8 -->
<g id="edge17" class="edge">
<title>b10&#45;&gt;b8</title>
<path fill="none" stroke="black" d="M2879.98,-1091.35C2793.57,-1078.48 2668.15,-1057.94 2560,-1033 2519.69,-1023.7 2475.72,-1011.29 2438.24,-1000.02"/>
<polygon fill="black" stroke="black" points="2438.95,-996.58 2428.36,-997.03 2436.92,-1003.28 2438.95,-996.58"/>
</g>
<!-- b11 -->
<g id="node12" class="node">
<title>b11</title>
<polygon fill="lightpink" stroke="black" points="3412,-1205 3200,-1205 3200,-1153 3412,-1153 3412,-1205"/>
<text text-anchor="middle" x="3306" y="-1193" font-family="Helvetica" font-size="10.00">B11</text>
<text text-anchor="middle" x="3306" y="-1182" font-family="Helvetica" font-size="10.00">Loop: L2</text>
<text text-anchor="middle" x="3306" y="-1171" font-family="Helvetica" font-size="10.00">&#45;&#45;&#45;</text>
<text text-anchor="middle" x="3306" y="-1160" font-family="Helvetica" font-size="10.00">HotSpotMethod&lt;Mandelbrot.mandelbrot(int)&gt;</text>
</g>
<!-- b10&#45;&gt;b11 -->
<g id="edge16" class="edge">
<title>b10&#45;&gt;b11</title>
<path fill="none" stroke="black" d="M3092.01,-1130.11C3123.4,-1137.31 3157.99,-1145.25 3189.99,-1152.6"/>
<polygon fill="black" stroke="black" points="3189.3,-1156.03 3199.83,-1154.86 3190.87,-1149.21 3189.3,-1156.03"/>
</g>
<!-- b11&#45;&gt;b8 -->
<g id="edge18" class="edge">
<title>b11&#45;&gt;b8</title>
<path fill="none" stroke="black" d="M3199.82,-1187.03C3051.52,-1194.4 2775.05,-1193.51 2560,-1108 2494.64,-1082.01 2427.79,-1035 2386.83,-1003.39"/>
<polygon fill="black" stroke="black" points="2388.79,-1000.48 2378.75,-997.09 2384.48,-1006 2388.79,-1000.48"/>
</g>
<!-- b12 -->
<g id="node13" class="node">
<title>b12</title>
<polygon fill="lightpink" stroke="black" points="2132,-873 1920,-873 1920,-821 2132,-821 2132,-873"/>
<text text-anchor="middle" x="2026" y="-861" font-family="Helvetica" font-size="10.00">B12</text>
<text text-anchor="middle" x="2026" y="-850" font-family="Helvetica" font-size="10.00">Loop: L2</text>
<text text-anchor="middle" x="2026" y="-839" font-family="Helvetica" font-size="10.00">&#45;&#45;&#45;</text>
<text text-anchor="middle" x="2026" y="-828" font-family="Helvetica" font-size="10.00">HotSpotMethod&lt;Mandelbrot.mandelbrot(int)&gt;</text>
</g>
<!-- b12&#45;&gt;b8 -->
<g id="edge19" class="edge">
<title>b12&#45;&gt;b8</title>
<path fill="none" stroke="black" d="M2094.05,-873.15C2145.19,-893.09 2215.67,-920.57 2268.92,-941.33"/>
<polygon fill="black" stroke="black" points="2267.73,-944.62 2278.31,-945 2270.27,-938.1 2267.73,-944.62"/>
</g>
<!-- b13 -->
<g id="node14" class="node">
<title>b13</title>
<polygon fill="lightgreen" stroke="black" points="2772,-873 2560,-873 2560,-821 2772,-821 2772,-873"/>
<text text-anchor="middle" x="2666" y="-861" font-family="Helvetica" font-size="10.00">B13</text>
<text text-anchor="middle" x="2666" y="-850" font-family="Helvetica" font-size="10.00">Loop: L1</text>
<text text-anchor="middle" x="2666" y="-839" font-family="Helvetica" font-size="10.00">&#45;&#45;&#45;</text>
<text text-anchor="middle" x="2666" y="-828" font-family="Helvetica" font-size="10.00">HotSpotMethod&lt;Mandelbrot.mandelbrot(int)&gt;</text>
</g>
<!-- b13&#45;&gt;b15 -->
<g id="edge20" class="edge">
<title>b13&#45;&gt;b15</title>
<path fill="none" stroke="black" d="M2734.05,-820.85C2785.19,-800.91 2855.67,-773.43 2908.92,-752.67"/>
<polygon fill="black" stroke="black" points="2910.27,-755.9 2918.31,-749 2907.73,-749.38 2910.27,-755.9"/>
</g>
<!-- b14 -->
<g id="node15" class="node">
<title>b14</title>
<polygon fill="lightgreen" stroke="black" points="2772,-749 2560,-749 2560,-697 2772,-697 2772,-749"/>
<text text-anchor="middle" x="2666" y="-737" font-family="Helvetica" font-size="10.00">B14</text>
<text text-anchor="middle" x="2666" y="-726" font-family="Helvetica" font-size="10.00">Loop: L1</text>
<text text-anchor="middle" x="2666" y="-715" font-family="Helvetica" font-size="10.00">&#45;&#45;&#45;</text>
<text text-anchor="middle" x="2666" y="-704" font-family="Helvetica" font-size="10.00">HotSpotMethod&lt;Mandelbrot.mandelbrot(int)&gt;</text>
</g>
<!-- b14&#45;&gt;b15 -->
<g id="edge21" class="edge">
<title>b14&#45;&gt;b15</title>
<path fill="none" stroke="black" d="M2772.01,-723C2803.27,-723 2837.69,-723 2869.58,-723"/>
<polygon fill="black" stroke="black" points="2869.83,-726.5 2879.83,-723 2869.83,-719.5 2869.83,-726.5"/>
</g>
<!-- b16 -->
<g id="node17" class="node">
<title>b16</title>
<polygon fill="lightgreen" stroke="black" points="3412,-547 3200,-547 3200,-495 3412,-495 3412,-547"/>
<text text-anchor="middle" x="3306" y="-535" font-family="Helvetica" font-size="10.00">B16</text>
<text text-anchor="middle" x="3306" y="-524" font-family="Helvetica" font-size="10.00">Loop: L1</text>
<text text-anchor="middle" x="3306" y="-513" font-family="Helvetica" font-size="10.00">&#45;&#45;&#45;</text>
<text text-anchor="middle" x="3306" y="-502" font-family="Helvetica" font-size="10.00">HotSpotMethod&lt;Mandelbrot.mandelbrot(int)&gt;</text>
</g>
<!-- b15&#45;&gt;b16 -->
<g id="edge22" class="edge">
<title>b15&#45;&gt;b16</title>
<path fill="none" stroke="black" d="M3028.25,-696.8C3086.51,-659.79 3192.76,-592.29 3255.3,-552.57"/>
<polygon fill="black" stroke="black" points="3257.26,-555.47 3263.83,-547.15 3253.51,-549.56 3257.26,-555.47"/>
</g>
<!-- b17 -->
<g id="node18" class="node">
<title>b17</title>
<polygon fill="lightgreen" stroke="black" points="3412,-749 3200,-749 3200,-697 3412,-697 3412,-749"/>
<text text-anchor="middle" x="3306" y="-737" font-family="Helvetica" font-size="10.00">B17</text>
<text text-anchor="middle" x="3306" y="-726" font-family="Helvetica" font-size="10.00">Loop: L1</text>
<text text-anchor="middle" x="3306" y="-715" font-family="Helvetica" font-size="10.00">&#45;&#45;&#45;</text>
<text text-anchor="middle" x="3306" y="-704" font-family="Helvetica" font-size="10.00">HotSpotMethod&lt;Mandelbrot.mandelbrot(int)&gt;</text>
</g>
<!-- b15&#45;&gt;b17 -->
<g id="edge23" class="edge">
<title>b15&#45;&gt;b17</title>
<path fill="none" stroke="black" d="M3092.01,-723C3123.27,-723 3157.69,-723 3189.58,-723"/>
<polygon fill="black" stroke="black" points="3189.83,-726.5 3199.83,-723 3189.83,-719.5 3189.83,-726.5"/>
</g>
<!-- b16&#45;&gt;b3 -->
<g id="edge24" class="edge">
<title>b16&#45;&gt;b3</title>
<path fill="none" stroke="black" d="M3199.94,-499.93C3073.89,-476.53 2855.9,-442 2667,-442 1705,-442 1705,-442 1705,-442 1521.28,-442 1309.73,-411.75 1182.3,-390.2"/>
<polygon fill="black" stroke="black" points="1182.58,-386.7 1172.13,-388.47 1181.4,-393.6 1182.58,-386.7"/>
</g>
<!-- b18 -->
<g id="node19" class="node">
<title>b18</title>
<polygon fill="lightgreen" stroke="black" points="3732,-886 3520,-886 3520,-834 3732,-834 3732,-886"/>
<text text-anchor="middle" x="3626" y="-874" font-family="Helvetica" font-size="10.00">B18</text>
<text text-anchor="middle" x="3626" y="-863" font-family="Helvetica" font-size="10.00">Loop: L1</text>
<text text-anchor="middle" x="3626" y="-852" font-family="Helvetica" font-size="10.00">&#45;&#45;&#45;</text>
<text text-anchor="middle" x="3626" y="-841" font-family="Helvetica" font-size="10.00">HotSpotMethod&lt;Mandelbrot.mandelbrot(int)&gt;</text>
</g>
<!-- b17&#45;&gt;b18 -->
<g id="edge25" class="edge">
<title>b17&#45;&gt;b18</title>
<path fill="none" stroke="black" d="M3367.56,-749.09C3420.97,-772.1 3498.8,-805.63 3554.89,-829.79"/>
<polygon fill="black" stroke="black" points="3553.82,-833.15 3564.39,-833.89 3556.59,-826.72 3553.82,-833.15"/>
</g>
<!-- b19 -->
<g id="node20" class="node">
<title>b19</title>
<polygon fill="lightgreen" stroke="black" points="3732,-611 3520,-611 3520,-559 3732,-559 3732,-611"/>
<text text-anchor="middle" x="3626" y="-599" font-family="Helvetica" font-size="10.00">B19</text>
<text text-anchor="middle" x="3626" y="-588" font-family="Helvetica" font-size="10.00">Loop: L1</text>
<text text-anchor="middle" x="3626" y="-577" font-family="Helvetica" font-size="10.00">&#45;&#45;&#45;</text>
<text text-anchor="middle" x="3626" y="-566" font-family="Helvetica" font-size="10.00">HotSpotMethod&lt;Mandelbrot.mandelbrot(int)&gt;</text>
</g>
<!-- b17&#45;&gt;b19 -->
<g id="edge26" class="edge">
<title>b17&#45;&gt;b19</title>
<path fill="none" stroke="black" d="M3367.19,-696.88C3420.92,-673.56 3499.58,-639.43 3555.87,-615"/>
<polygon fill="black" stroke="black" points="3557.28,-618.2 3565.06,-611.01 3554.49,-611.78 3557.28,-618.2"/>
</g>
<!-- b18&#45;&gt;b3 -->
<g id="edge27" class="edge">
<title>b18&#45;&gt;b3</title>
<path fill="none" stroke="black" d="M3617.38,-886.31C3596.27,-954.66 3530.65,-1139.55 3412,-1241 3258.96,-1371.87 3188.37,-1398 2987,-1398 1705,-1398 1705,-1398 1705,-1398 1227.64,-1398 1095.14,-588.21 1071.31,-405.38"/>
<polygon fill="black" stroke="black" points="1074.75,-404.69 1070.01,-395.21 1067.8,-405.57 1074.75,-404.69"/>
</g>
<!-- b19&#45;&gt;b3 -->
<g id="edge28" class="edge">
<title>b19&#45;&gt;b3</title>
<path fill="none" stroke="black" d="M3593.44,-558.84C3504.29,-487.7 3240.53,-296 2987,-296 1705,-296 1705,-296 1705,-296 1521.28,-296 1309.73,-326.25 1182.3,-347.8"/>
<polygon fill="black" stroke="black" points="1181.4,-344.4 1172.13,-349.53 1182.58,-351.3 1181.4,-344.4"/>
</g>
<!-- b20&#45;&gt;b1 -->
<g id="edge29" class="edge">
<title>b20&#45;&gt;b1</title>
<path fill="none" stroke="black" d="M1279.93,-161C1099.05,-161 730.24,-161 542.44,-161"/>
<polygon fill="black" stroke="black" points="542.26,-157.5 532.26,-161 542.26,-164.5 542.26,-157.5"/>
</g>
</g>
</svg>
