<?xml version="1.0" encoding="UTF-8" standalone="no"?>
<!DOCTYPE svg PUBLIC "-//W3C//DTD SVG 1.1//EN"
 "http://www.w3.org/Graphics/SVG/1.1/DTD/svg11.dtd">
<!-- Generated by graphviz version 2.44.0 (0)
 -->
<!-- Title: CFG_102 Pages: 1 -->
<svg width="4684pt" height="1171pt"
 viewBox="0.00 0.00 4684.00 1171.00" xmlns="http://www.w3.org/2000/svg" xmlns:xlink="http://www.w3.org/1999/xlink">
<g id="graph0" class="graph" transform="scale(1 1) rotate(0) translate(4 1167)">
<title>CFG_102</title>
<polygon fill="white" stroke="transparent" points="-4,4 -4,-1167 4680,-1167 4680,4 -4,4"/>
<text text-anchor="middle" x="144.5" y="-1143" font-family="Times-Roman" font-size="20.00">Mandelbrot.mandelbrot(int)</text>
<!-- b0 -->
<g id="node1" class="node">
<title>b0</title>
<polygon fill="white" stroke="black" points="212,-187 0,-187 0,-135 212,-135 212,-187"/>
<text text-anchor="middle" x="106" y="-175" font-family="Helvetica" font-size="10.00">B0</text>
<text text-anchor="middle" x="106" y="-164" font-family="Helvetica" font-size="10.00">Loop: &lt;none&gt;</text>
<text text-anchor="middle" x="106" y="-153" font-family="Helvetica" font-size="10.00">&#45;&#45;&#45;</text>
<text text-anchor="middle" x="106" y="-142" font-family="Helvetica" font-size="10.00">HotSpotMethod&lt;Mandelbrot.mandelbrot(int)&gt;</text>
</g>
<!-- b1 -->
<g id="node2" class="node">
<title>b1</title>
<polygon fill="lightblue" stroke="black" points="584,-187 320,-187 320,-135 584,-135 584,-187"/>
<text text-anchor="middle" x="452" y="-175" font-family="Helvetica" font-size="10.00">B1</text>
<text text-anchor="middle" x="452" y="-164" font-family="Helvetica" font-size="10.00">Loop: L0</text>
<text text-anchor="middle" x="452" y="-153" font-family="Helvetica" font-size="10.00">&#45;&#45;&#45;</text>
<text text-anchor="middle" x="452" y="-142" font-family="Helvetica" font-size="10.00">HotSpotMethod&lt;BuboAgentCompilerMarkers.Marker0()&gt;</text>
</g>
<!-- b0&#45;&gt;b1 -->
<g id="edge1" class="edge">
<title>b0&#45;&gt;b1</title>
<path fill="none" stroke="black" d="M212.08,-161C242.88,-161 277.07,-161 309.73,-161"/>
<polygon fill="black" stroke="black" points="309.81,-164.5 319.81,-161 309.81,-157.5 309.81,-164.5"/>
</g>
<!-- b2 -->
<g id="node3" class="node">
<title>b2</title>
<polygon fill="lightblue" stroke="black" points="956,-359 692,-359 692,-307 956,-307 956,-359"/>
<text text-anchor="middle" x="824" y="-347" font-family="Helvetica" font-size="10.00">B2</text>
<text text-anchor="middle" x="824" y="-336" font-family="Helvetica" font-size="10.00">Loop: L0</text>
<text text-anchor="middle" x="824" y="-325" font-family="Helvetica" font-size="10.00">&#45;&#45;&#45;</text>
<text text-anchor="middle" x="824" y="-314" font-family="Helvetica" font-size="10.00">HotSpotMethod&lt;BuboAgentCompilerMarkers.Marker0()&gt;</text>
</g>
<!-- b1&#45;&gt;b2 -->
<g id="edge2" class="edge">
<title>b1&#45;&gt;b2</title>
<path fill="none" stroke="black" d="M509.2,-187.12C575.94,-218.15 687.1,-269.83 757.64,-302.61"/>
<polygon fill="black" stroke="black" points="756.34,-305.87 766.88,-306.91 759.29,-299.52 756.34,-305.87"/>
</g>
<!-- b21 -->
<g id="node22" class="node">
<title>b21</title>
<polygon fill="white" stroke="black" points="930,-52 718,-52 718,0 930,0 930,-52"/>
<text text-anchor="middle" x="824" y="-40" font-family="Helvetica" font-size="10.00">B21</text>
<text text-anchor="middle" x="824" y="-29" font-family="Helvetica" font-size="10.00">Loop: &lt;none&gt;</text>
<text text-anchor="middle" x="824" y="-18" font-family="Helvetica" font-size="10.00">&#45;&#45;&#45;</text>
<text text-anchor="middle" x="824" y="-7" font-family="Helvetica" font-size="10.00">HotSpotMethod&lt;Mandelbrot.mandelbrot(int)&gt;</text>
</g>
<!-- b1&#45;&gt;b21 -->
<g id="edge3" class="edge">
<title>b1&#45;&gt;b21</title>
<path fill="none" stroke="black" d="M524.34,-134.97C586.69,-112.22 677.15,-79.21 742.16,-55.49"/>
<polygon fill="black" stroke="black" points="743.37,-58.78 751.56,-52.06 740.97,-52.2 743.37,-58.78"/>
</g>
<!-- b3 -->
<g id="node4" class="node">
<title>b3</title>
<polygon fill="lightgreen" stroke="black" points="1328,-395 1064,-395 1064,-343 1328,-343 1328,-395"/>
<text text-anchor="middle" x="1196" y="-383" font-family="Helvetica" font-size="10.00">B3</text>
<text text-anchor="middle" x="1196" y="-372" font-family="Helvetica" font-size="10.00">Loop: L1</text>
<text text-anchor="middle" x="1196" y="-361" font-family="Helvetica" font-size="10.00">&#45;&#45;&#45;</text>
<text text-anchor="middle" x="1196" y="-350" font-family="Helvetica" font-size="10.00">HotSpotMethod&lt;BuboAgentCompilerMarkers.Marker1()&gt;</text>
</g>
<!-- b2&#45;&gt;b3 -->
<g id="edge4" class="edge">
<title>b2&#45;&gt;b3</title>
<path fill="none" stroke="black" d="M956.23,-345.77C987.73,-348.83 1021.51,-352.12 1053.46,-355.23"/>
<polygon fill="black" stroke="black" points="1053.47,-358.75 1063.76,-356.23 1054.14,-351.78 1053.47,-358.75"/>
</g>
<!-- b4 -->
<g id="node5" class="node">
<title>b4</title>
<polygon fill="lightgreen" stroke="black" points="1700,-636 1436,-636 1436,-584 1700,-584 1700,-636"/>
<text text-anchor="middle" x="1568" y="-624" font-family="Helvetica" font-size="10.00">B4</text>
<text text-anchor="middle" x="1568" y="-613" font-family="Helvetica" font-size="10.00">Loop: L1</text>
<text text-anchor="middle" x="1568" y="-602" font-family="Helvetica" font-size="10.00">&#45;&#45;&#45;</text>
<text text-anchor="middle" x="1568" y="-591" font-family="Helvetica" font-size="10.00">HotSpotMethod&lt;BuboAgentCompilerMarkers.Marker1()&gt;</text>
</g>
<!-- b3&#45;&gt;b4 -->
<g id="edge5" class="edge">
<title>b3&#45;&gt;b4</title>
<path fill="none" stroke="black" d="M1236.95,-395.02C1305.27,-439.52 1444.33,-530.1 1518.26,-578.25"/>
<polygon fill="black" stroke="black" points="1516.65,-581.38 1526.94,-583.91 1520.47,-575.52 1516.65,-581.38"/>
</g>
<!-- b20 -->
<g id="node21" class="node">
<title>b20</title>
<polygon fill="lightblue" stroke="black" points="1700,-187 1436,-187 1436,-135 1700,-135 1700,-187"/>
<text text-anchor="middle" x="1568" y="-175" font-family="Helvetica" font-size="10.00">B20</text>
<text text-anchor="middle" x="1568" y="-164" font-family="Helvetica" font-size="10.00">Loop: L0</text>
<text text-anchor="middle" x="1568" y="-153" font-family="Helvetica" font-size="10.00">&#45;&#45;&#45;</text>
<text text-anchor="middle" x="1568" y="-142" font-family="Helvetica" font-size="10.00">HotSpotMethod&lt;BuboAgentCompilerMarkers.Marker0()&gt;</text>
</g>
<!-- b3&#45;&gt;b20 -->
<g id="edge6" class="edge">
<title>b3&#45;&gt;b20</title>
<path fill="none" stroke="black" d="M1243.49,-342.87C1311.7,-304.52 1438.71,-233.12 1511.65,-192.12"/>
<polygon fill="black" stroke="black" points="1513.7,-194.98 1520.7,-187.03 1510.27,-188.88 1513.7,-194.98"/>
</g>
<!-- b5 -->
<g id="node6" class="node">
<title>b5</title>
<polygon fill="lightgreen" stroke="black" points="2072,-636 1808,-636 1808,-584 2072,-584 2072,-636"/>
<text text-anchor="middle" x="1940" y="-624" font-family="Helvetica" font-size="10.00">B5</text>
<text text-anchor="middle" x="1940" y="-613" font-family="Helvetica" font-size="10.00">Loop: L1</text>
<text text-anchor="middle" x="1940" y="-602" font-family="Helvetica" font-size="10.00">&#45;&#45;&#45;</text>
<text text-anchor="middle" x="1940" y="-591" font-family="Helvetica" font-size="10.00">HotSpotMethod&lt;BuboAgentCompilerMarkers.Marker1()&gt;</text>
</g>
<!-- b4&#45;&gt;b5 -->
<g id="edge7" class="edge">
<title>b4&#45;&gt;b5</title>
<path fill="none" stroke="black" d="M1700.23,-610C1731.73,-610 1765.51,-610 1797.46,-610"/>
<polygon fill="black" stroke="black" points="1797.76,-613.5 1807.76,-610 1797.76,-606.5 1797.76,-613.5"/>
</g>
<!-- b6 -->
<g id="node7" class="node">
<title>b6</title>
<polygon fill="lightgreen" stroke="black" points="2072,-760 1808,-760 1808,-708 2072,-708 2072,-760"/>
<text text-anchor="middle" x="1940" y="-748" font-family="Helvetica" font-size="10.00">B6</text>
<text text-anchor="middle" x="1940" y="-737" font-family="Helvetica" font-size="10.00">Loop: L1</text>
<text text-anchor="middle" x="1940" y="-726" font-family="Helvetica" font-size="10.00">&#45;&#45;&#45;</text>
<text text-anchor="middle" x="1940" y="-715" font-family="Helvetica" font-size="10.00">HotSpotMethod&lt;BuboAgentCompilerMarkers.Marker1()&gt;</text>
</g>
<!-- b4&#45;&gt;b6 -->
<g id="edge8" class="edge">
<title>b4&#45;&gt;b6</title>
<path fill="none" stroke="black" d="M1647.02,-636.15C1706.89,-656.21 1789.54,-683.91 1851.63,-704.72"/>
<polygon fill="black" stroke="black" points="1850.82,-708.14 1861.41,-708 1853.04,-701.5 1850.82,-708.14"/>
</g>
<!-- b7 -->
<g id="node8" class="node">
<title>b7</title>
<polygon fill="lightgreen" stroke="black" points="2444,-760 2180,-760 2180,-708 2444,-708 2444,-760"/>
<text text-anchor="middle" x="2312" y="-748" font-family="Helvetica" font-size="10.00">B7</text>
<text text-anchor="middle" x="2312" y="-737" font-family="Helvetica" font-size="10.00">Loop: L1</text>
<text text-anchor="middle" x="2312" y="-726" font-family="Helvetica" font-size="10.00">&#45;&#45;&#45;</text>
<text text-anchor="middle" x="2312" y="-715" font-family="Helvetica" font-size="10.00">HotSpotMethod&lt;BuboAgentCompilerMarkers.Marker1()&gt;</text>
</g>
<!-- b5&#45;&gt;b7 -->
<g id="edge9" class="edge">
<title>b5&#45;&gt;b7</title>
<path fill="none" stroke="black" d="M2019.02,-636.15C2078.89,-656.21 2161.54,-683.91 2223.63,-704.72"/>
<polygon fill="black" stroke="black" points="2222.82,-708.14 2233.41,-708 2225.04,-701.5 2222.82,-708.14"/>
</g>
<!-- b6&#45;&gt;b7 -->
<g id="edge10" class="edge">
<title>b6&#45;&gt;b7</title>
<path fill="none" stroke="black" d="M2072.23,-734C2103.73,-734 2137.51,-734 2169.46,-734"/>
<polygon fill="black" stroke="black" points="2169.76,-737.5 2179.76,-734 2169.76,-730.5 2169.76,-737.5"/>
</g>
<!-- b8 -->
<g id="node9" class="node">
<title>b8</title>
<polygon fill="lightpink" stroke="black" points="2816,-760 2552,-760 2552,-708 2816,-708 2816,-760"/>
<text text-anchor="middle" x="2684" y="-748" font-family="Helvetica" font-size="10.00">B8</text>
<text text-anchor="middle" x="2684" y="-737" font-family="Helvetica" font-size="10.00">Loop: L2</text>
<text text-anchor="middle" x="2684" y="-726" font-family="Helvetica" font-size="10.00">&#45;&#45;&#45;</text>
<text text-anchor="middle" x="2684" y="-715" font-family="Helvetica" font-size="10.00">HotSpotMethod&lt;BuboAgentCompilerMarkers.Marker2()&gt;</text>
</g>
<!-- b7&#45;&gt;b8 -->
<g id="edge11" class="edge">
<title>b7&#45;&gt;b8</title>
<path fill="none" stroke="black" d="M2444.23,-734C2475.73,-734 2509.51,-734 2541.46,-734"/>
<polygon fill="black" stroke="black" points="2541.76,-737.5 2551.76,-734 2541.76,-730.5 2541.76,-737.5"/>
</g>
<!-- b9 -->
<g id="node10" class="node">
<title>b9</title>
<polygon fill="lightpink" stroke="black" points="3188,-895 2924,-895 2924,-843 3188,-843 3188,-895"/>
<text text-anchor="middle" x="3056" y="-883" font-family="Helvetica" font-size="10.00">B9</text>
<text text-anchor="middle" x="3056" y="-872" font-family="Helvetica" font-size="10.00">Loop: L2</text>
<text text-anchor="middle" x="3056" y="-861" font-family="Helvetica" font-size="10.00">&#45;&#45;&#45;</text>
<text text-anchor="middle" x="3056" y="-850" font-family="Helvetica" font-size="10.00">HotSpotMethod&lt;BuboAgentCompilerMarkers.Marker2()&gt;</text>
</g>
<!-- b8&#45;&gt;b9 -->
<g id="edge13" class="edge">
<title>b8&#45;&gt;b9</title>
<path fill="none" stroke="black" d="M2756.34,-760.03C2818.69,-782.78 2909.15,-815.79 2974.16,-839.51"/>
<polygon fill="black" stroke="black" points="2972.97,-842.8 2983.56,-842.94 2975.37,-836.22 2972.97,-842.8"/>
</g>
<!-- b14 -->
<g id="node15" class="node">
<title>b14</title>
<polygon fill="lightgreen" stroke="black" points="3188,-1019 2924,-1019 2924,-967 3188,-967 3188,-1019"/>
<text text-anchor="middle" x="3056" y="-1007" font-family="Helvetica" font-size="10.00">B14</text>
<text text-anchor="middle" x="3056" y="-996" font-family="Helvetica" font-size="10.00">Loop: L1</text>
<text text-anchor="middle" x="3056" y="-985" font-family="Helvetica" font-size="10.00">&#45;&#45;&#45;</text>
<text text-anchor="middle" x="3056" y="-974" font-family="Helvetica" font-size="10.00">HotSpotMethod&lt;BuboAgentCompilerMarkers.Marker1()&gt;</text>
</g>
<!-- b8&#45;&gt;b14 -->
<g id="edge12" class="edge">
<title>b8&#45;&gt;b14</title>
<path fill="none" stroke="black" d="M2711.95,-760.05C2754.49,-800.25 2840.93,-878.26 2924,-931 2942.25,-942.58 2963,-953.38 2982.52,-962.6"/>
<polygon fill="black" stroke="black" points="2981.14,-965.82 2991.68,-966.86 2984.09,-959.47 2981.14,-965.82"/>
</g>
<!-- b10 -->
<g id="node11" class="node">
<title>b10</title>
<polygon fill="lightpink" stroke="black" points="3560,-754 3296,-754 3296,-702 3560,-702 3560,-754"/>
<text text-anchor="middle" x="3428" y="-742" font-family="Helvetica" font-size="10.00">B10</text>
<text text-anchor="middle" x="3428" y="-731" font-family="Helvetica" font-size="10.00">Loop: L2</text>
<text text-anchor="middle" x="3428" y="-720" font-family="Helvetica" font-size="10.00">&#45;&#45;&#45;</text>
<text text-anchor="middle" x="3428" y="-709" font-family="Helvetica" font-size="10.00">HotSpotMethod&lt;BuboAgentCompilerMarkers.Marker2()&gt;</text>
</g>
<!-- b9&#45;&gt;b10 -->
<g id="edge14" class="edge">
<title>b9&#45;&gt;b10</title>
<path fill="none" stroke="black" d="M3125.29,-842.97C3188.58,-818.86 3282.67,-783 3348.91,-757.76"/>
<polygon fill="black" stroke="black" points="3350.38,-760.94 3358.48,-754.11 3347.89,-754.4 3350.38,-760.94"/>
</g>
<!-- b13 -->
<g id="node14" class="node">
<title>b13</title>
<polygon fill="lightgreen" stroke="black" points="3560,-878 3296,-878 3296,-826 3560,-826 3560,-878"/>
<text text-anchor="middle" x="3428" y="-866" font-family="Helvetica" font-size="10.00">B13</text>
<text text-anchor="middle" x="3428" y="-855" font-family="Helvetica" font-size="10.00">Loop: L1</text>
<text text-anchor="middle" x="3428" y="-844" font-family="Helvetica" font-size="10.00">&#45;&#45;&#45;</text>
<text text-anchor="middle" x="3428" y="-833" font-family="Helvetica" font-size="10.00">HotSpotMethod&lt;BuboAgentCompilerMarkers.Marker1()&gt;</text>
</g>
<!-- b9&#45;&gt;b13 -->
<g id="edge15" class="edge">
<title>b9&#45;&gt;b13</title>
<path fill="none" stroke="black" d="M3188.23,-862.97C3219.73,-861.52 3253.51,-859.97 3285.46,-858.5"/>
<polygon fill="black" stroke="black" points="3285.93,-861.99 3295.76,-858.03 3285.61,-854.99 3285.93,-861.99"/>
</g>
<!-- b10&#45;&gt;b8 -->
<g id="edge17" class="edge">
<title>b10&#45;&gt;b8</title>
<path fill="none" stroke="black" d="M3295.96,-729.06C3164.2,-730.13 2961.73,-731.76 2826.4,-732.86"/>
<polygon fill="black" stroke="black" points="2826.34,-729.36 2816.37,-732.94 2826.4,-736.36 2826.34,-729.36"/>
</g>
<!-- b11 -->
<g id="node12" class="node">
<title>b11</title>
<polygon fill="lightpink" stroke="black" points="3932,-684 3668,-684 3668,-632 3932,-632 3932,-684"/>
<text text-anchor="middle" x="3800" y="-672" font-family="Helvetica" font-size="10.00">B11</text>
<text text-anchor="middle" x="3800" y="-661" font-family="Helvetica" font-size="10.00">Loop: L2</text>
<text text-anchor="middle" x="3800" y="-650" font-family="Helvetica" font-size="10.00">&#45;&#45;&#45;</text>
<text text-anchor="middle" x="3800" y="-639" font-family="Helvetica" font-size="10.00">HotSpotMethod&lt;BuboAgentCompilerMarkers.Marker2()&gt;</text>
</g>
<!-- b10&#45;&gt;b11 -->
<g id="edge16" class="edge">
<title>b10&#45;&gt;b11</title>
<path fill="none" stroke="black" d="M3560.23,-703.17C3591.87,-697.19 3625.8,-690.77 3657.87,-684.7"/>
<polygon fill="black" stroke="black" points="3658.58,-688.13 3667.76,-682.83 3657.28,-681.25 3658.58,-688.13"/>
</g>
<!-- b11&#45;&gt;b8 -->
<g id="edge18" class="edge">
<title>b11&#45;&gt;b8</title>
<path fill="none" stroke="black" d="M3667.8,-656.68C3566.22,-656.49 3422.06,-658 3296,-666 3134.51,-676.25 2949.99,-698.21 2826.37,-714.41"/>
<polygon fill="black" stroke="black" points="2825.55,-710.99 2816.09,-715.77 2826.46,-717.93 2825.55,-710.99"/>
</g>
<!-- b12 -->
<g id="node13" class="node">
<title>b12</title>
<polygon fill="lightpink" stroke="black" points="2418,-636 2206,-636 2206,-584 2418,-584 2418,-636"/>
<text text-anchor="middle" x="2312" y="-624" font-family="Helvetica" font-size="10.00">B12</text>
<text text-anchor="middle" x="2312" y="-613" font-family="Helvetica" font-size="10.00">Loop: L2</text>
<text text-anchor="middle" x="2312" y="-602" font-family="Helvetica" font-size="10.00">&#45;&#45;&#45;</text>
<text text-anchor="middle" x="2312" y="-591" font-family="Helvetica" font-size="10.00">HotSpotMethod&lt;Mandelbrot.mandelbrot(int)&gt;</text>
</g>
<!-- b12&#45;&gt;b8 -->
<g id="edge19" class="edge">
<title>b12&#45;&gt;b8</title>
<path fill="none" stroke="black" d="M2391.02,-636.15C2450.89,-656.21 2533.54,-683.91 2595.63,-704.72"/>
<polygon fill="black" stroke="black" points="2594.82,-708.14 2605.41,-708 2597.04,-701.5 2594.82,-708.14"/>
</g>
<!-- b15 -->
<g id="node16" class="node">
<title>b15</title>
<polygon fill="lightgreen" stroke="black" points="3932,-878 3668,-878 3668,-826 3932,-826 3932,-878"/>
<text text-anchor="middle" x="3800" y="-866" font-family="Helvetica" font-size="10.00">B15</text>
<text text-anchor="middle" x="3800" y="-855" font-family="Helvetica" font-size="10.00">Loop: L1</text>
<text text-anchor="middle" x="3800" y="-844" font-family="Helvetica" font-size="10.00">&#45;&#45;&#45;</text>
<text text-anchor="middle" x="3800" y="-833" font-family="Helvetica" font-size="10.00">HotSpotMethod&lt;BuboAgentCompilerMarkers.Marker1()&gt;</text>
</g>
<!-- b13&#45;&gt;b15 -->
<g id="edge20" class="edge">
<title>b13&#45;&gt;b15</title>
<path fill="none" stroke="black" d="M3560.23,-852C3591.73,-852 3625.51,-852 3657.46,-852"/>
<polygon fill="black" stroke="black" points="3657.76,-855.5 3667.76,-852 3657.76,-848.5 3657.76,-855.5"/>
</g>
<!-- b14&#45;&gt;b15 -->
<g id="edge21" class="edge">
<title>b14&#45;&gt;b15</title>
<path fill="none" stroke="black" d="M3188.17,-975.99C3290.05,-961.91 3434.61,-940.05 3560,-914 3605.46,-904.56 3655.24,-892.01 3697.54,-880.67"/>
<polygon fill="black" stroke="black" points="3698.54,-884.02 3707.28,-878.04 3696.71,-877.26 3698.54,-884.02"/>
</g>
<!-- b16 -->
<g id="node17" class="node">
<title>b16</title>
<polygon fill="lightgreen" stroke="black" points="4304,-614 4040,-614 4040,-562 4304,-562 4304,-614"/>
<text text-anchor="middle" x="4172" y="-602" font-family="Helvetica" font-size="10.00">B16</text>
<text text-anchor="middle" x="4172" y="-591" font-family="Helvetica" font-size="10.00">Loop: L1</text>
<text text-anchor="middle" x="4172" y="-580" font-family="Helvetica" font-size="10.00">&#45;&#45;&#45;</text>
<text text-anchor="middle" x="4172" y="-569" font-family="Helvetica" font-size="10.00">HotSpotMethod&lt;BuboAgentCompilerMarkers.Marker1()&gt;</text>
</g>
<!-- b15&#45;&gt;b16 -->
<g id="edge22" class="edge">
<title>b15&#45;&gt;b16</title>
<path fill="none" stroke="black" d="M3837.49,-825.96C3905.69,-777.3 4052.27,-672.72 4126.28,-619.9"/>
<polygon fill="black" stroke="black" points="4128.4,-622.69 4134.51,-614.04 4124.34,-616.99 4128.4,-622.69"/>
</g>
<!-- b17 -->
<g id="node18" class="node">
<title>b17</title>
<polygon fill="lightgreen" stroke="black" points="4304,-878 4040,-878 4040,-826 4304,-826 4304,-878"/>
<text text-anchor="middle" x="4172" y="-866" font-family="Helvetica" font-size="10.00">B17</text>
<text text-anchor="middle" x="4172" y="-855" font-family="Helvetica" font-size="10.00">Loop: L1</text>
<text text-anchor="middle" x="4172" y="-844" font-family="Helvetica" font-size="10.00">&#45;&#45;&#45;</text>
<text text-anchor="middle" x="4172" y="-833" font-family="Helvetica" font-size="10.00">HotSpotMethod&lt;BuboAgentCompilerMarkers.Marker1()&gt;</text>
</g>
<!-- b15&#45;&gt;b17 -->
<g id="edge23" class="edge">
<title>b15&#45;&gt;b17</title>
<path fill="none" stroke="black" d="M3932.23,-852C3963.73,-852 3997.51,-852 4029.46,-852"/>
<polygon fill="black" stroke="black" points="4029.76,-855.5 4039.76,-852 4029.76,-848.5 4029.76,-855.5"/>
</g>
<!-- b16&#45;&gt;b3 -->
<g id="edge24" class="edge">
<title>b16&#45;&gt;b3</title>
<path fill="none" stroke="black" d="M4092.12,-561.98C3957.64,-520.01 3674.68,-442 3429,-442 1939,-442 1939,-442 1939,-442 1729.11,-442 1487.43,-412.71 1338.43,-391.24"/>
<polygon fill="black" stroke="black" points="1338.7,-387.74 1328.3,-389.77 1337.7,-394.67 1338.7,-387.74"/>
</g>
<!-- b18 -->
<g id="node19" class="node">
<title>b18</title>
<polygon fill="lightgreen" stroke="black" points="4676,-1018 4412,-1018 4412,-966 4676,-966 4676,-1018"/>
<text text-anchor="middle" x="4544" y="-1006" font-family="Helvetica" font-size="10.00">B18</text>
<text text-anchor="middle" x="4544" y="-995" font-family="Helvetica" font-size="10.00">Loop: L1</text>
<text text-anchor="middle" x="4544" y="-984" font-family="Helvetica" font-size="10.00">&#45;&#45;&#45;</text>
<text text-anchor="middle" x="4544" y="-973" font-family="Helvetica" font-size="10.00">HotSpotMethod&lt;BuboAgentCompilerMarkers.Marker1()&gt;</text>
</g>
<!-- b17&#45;&gt;b18 -->
<g id="edge25" class="edge">
<title>b17&#45;&gt;b18</title>
<path fill="none" stroke="black" d="M4241.73,-878C4304.87,-901.9 4398.4,-937.29 4464.47,-962.29"/>
<polygon fill="black" stroke="black" points="4463.42,-965.63 4474.01,-965.9 4465.9,-959.08 4463.42,-965.63"/>
</g>
<!-- b19 -->
<g id="node20" class="node">
<title>b19</title>
<polygon fill="lightgreen" stroke="black" points="4676,-681 4412,-681 4412,-629 4676,-629 4676,-681"/>
<text text-anchor="middle" x="4544" y="-669" font-family="Helvetica" font-size="10.00">B19</text>
<text text-anchor="middle" x="4544" y="-658" font-family="Helvetica" font-size="10.00">Loop: L1</text>
<text text-anchor="middle" x="4544" y="-647" font-family="Helvetica" font-size="10.00">&#45;&#45;&#45;</text>
<text text-anchor="middle" x="4544" y="-636" font-family="Helvetica" font-size="10.00">HotSpotMethod&lt;BuboAgentCompilerMarkers.Marker1()&gt;</text>
</g>
<!-- b17&#45;&gt;b19 -->
<g id="edge26" class="edge">
<title>b17&#45;&gt;b19</title>
<path fill="none" stroke="black" d="M4222.13,-825.84C4290.09,-789.66 4412.57,-724.45 4484.95,-685.91"/>
<polygon fill="black" stroke="black" points="4486.78,-688.9 4493.96,-681.11 4483.49,-682.72 4486.78,-688.9"/>
</g>
<!-- b18&#45;&gt;b3 -->
<g id="edge27" class="edge">
<title>b18&#45;&gt;b3</title>
<path fill="none" stroke="black" d="M4461.06,-1018.03C4325.32,-1058.77 4044.56,-1133 3801,-1133 1939,-1133 1939,-1133 1939,-1133 1527.8,-1133 1271.07,-556.44 1210.75,-405.05"/>
<polygon fill="black" stroke="black" points="1213.83,-403.32 1206.9,-395.3 1207.32,-405.89 1213.83,-403.32"/>
</g>
<!-- b19&#45;&gt;b3 -->
<g id="edge28" class="edge">
<title>b19&#45;&gt;b3</title>
<path fill="none" stroke="black" d="M4514.03,-628.89C4419.26,-546.28 4106.89,-296 3801,-296 1939,-296 1939,-296 1939,-296 1729.11,-296 1487.43,-325.29 1338.43,-346.76"/>
<polygon fill="black" stroke="black" points="1337.7,-343.33 1328.3,-348.23 1338.7,-350.26 1337.7,-343.33"/>
</g>
<!-- b20&#45;&gt;b1 -->
<g id="edge29" class="edge">
<title>b20&#45;&gt;b1</title>
<path fill="none" stroke="black" d="M1435.57,-161C1224.44,-161 811.47,-161 594.26,-161"/>
<polygon fill="black" stroke="black" points="594.07,-157.5 584.07,-161 594.07,-164.5 594.07,-157.5"/>
</g>
</g>
</svg>
