<?xml version="1.0" encoding="UTF-8" standalone="no"?>
<!DOCTYPE svg PUBLIC "-//W3C//DTD SVG 1.1//EN"
 "http://www.w3.org/Graphics/SVG/1.1/DTD/svg11.dtd">
<!-- Generated by graphviz version 2.44.0 (0)
 -->
<!-- Title: CFG_124 Pages: 1 -->
<svg width="6812pt" height="1140pt"
 viewBox="0.00 0.00 6812.00 1139.82" xmlns="http://www.w3.org/2000/svg" xmlns:xlink="http://www.w3.org/1999/xlink">
<g id="graph0" class="graph" transform="scale(1 1) rotate(0) translate(4 1135.82)">
<title>CFG_124</title>
<polygon fill="white" stroke="transparent" points="-4,4 -4,-1135.82 6808,-1135.82 6808,4 -4,4"/>
<text text-anchor="middle" x="189" y="-1111.82" font-family="Times-Roman" font-size="20.00">186&#45;LoopBenchmarks.main(String[])</text>
<!-- b0 -->
<g id="node1" class="node">
<title>b0</title>
<polygon fill="white" stroke="black" points="331,-577.32 0,-577.32 0,-514.32 331,-514.32 331,-577.32"/>
<text text-anchor="middle" x="165.5" y="-565.32" font-family="Helvetica" font-size="10.00">B0</text>
<text text-anchor="middle" x="165.5" y="-554.32" font-family="Helvetica" font-size="10.00">Loop: &lt;none&gt;</text>
<text text-anchor="middle" x="165.5" y="-543.32" font-family="Helvetica" font-size="10.00">&#45;&#45;&#45;</text>
<text text-anchor="middle" x="165.5" y="-532.32" font-family="Helvetica" font-size="10.00">HotSpotMethod&lt;LoopBenchmarks.main(String[])&gt;</text>
<text text-anchor="middle" x="165.5" y="-521.32" font-family="Helvetica" font-size="10.00">HotSpotMethod&lt;LoopBenchmarks.mandelbrotLoop(double, double, int)&gt;</text>
</g>
<!-- b1 -->
<g id="node2" class="node">
<title>b1</title>
<polygon fill="white" stroke="black" stroke-width="4" points="774,-706.82 443,-706.82 443,-610.82 774,-610.82 774,-706.82"/>
<polygon fill="none" stroke="black" stroke-width="4" points="778,-710.82 439,-710.82 439,-606.82 778,-606.82 778,-710.82"/>
<text text-anchor="middle" x="608.5" y="-694.82" font-family="Helvetica" font-size="10.00">B1</text>
<text text-anchor="middle" x="608.5" y="-683.82" font-family="Helvetica" font-size="10.00">Loop: &lt;none&gt;</text>
<text text-anchor="middle" x="608.5" y="-672.82" font-family="Helvetica" font-size="10.00">&#45;&#45;&#45;</text>
<text text-anchor="middle" x="608.5" y="-661.82" font-family="Helvetica" font-size="10.00">HotSpotMethod&lt;LoopBenchmarks.main(String[])&gt;</text>
<text text-anchor="middle" x="608.5" y="-650.82" font-family="Helvetica" font-size="10.00">HotSpotMethod&lt;LoopBenchmarks.mandelbrotLoop(double, double, int)&gt;</text>
<text text-anchor="middle" x="608.5" y="-639.82" font-family="Helvetica" font-size="10.00">&#45;&#45;&#45;</text>
<text text-anchor="middle" x="608.5" y="-628.82" font-family="Helvetica" font-size="10.00">BuboLoopMakers:</text>
<text text-anchor="middle" x="608.5" y="-617.82" font-family="Helvetica" font-size="10.00"> &#160;AMD64BuboRDTSCToSlot (LoopID=3)</text>
</g>
<!-- b0&#45;&gt;b1 -->
<g id="edge1" class="edge">
<title>b0&#45;&gt;b1</title>
<path fill="none" stroke="black" d="M289.64,-577.37C332.82,-588.43 382.23,-601.1 429.02,-613.09"/>
<polygon fill="black" stroke="black" points="428.41,-616.54 438.97,-615.63 430.15,-609.76 428.41,-616.54"/>
</g>
<!-- b16 -->
<g id="node17" class="node">
<title>b16</title>
<polygon fill="white" stroke="black" points="1169,-426.82 934,-426.82 934,-374.82 1169,-374.82 1169,-426.82"/>
<text text-anchor="middle" x="1051.5" y="-414.82" font-family="Helvetica" font-size="10.00">B16</text>
<text text-anchor="middle" x="1051.5" y="-403.82" font-family="Helvetica" font-size="10.00">Loop: &lt;none&gt;</text>
<text text-anchor="middle" x="1051.5" y="-392.82" font-family="Helvetica" font-size="10.00">&#45;&#45;&#45;</text>
<text text-anchor="middle" x="1051.5" y="-381.82" font-family="Helvetica" font-size="10.00">HotSpotMethod&lt;LoopBenchmarks.main(String[])&gt;</text>
</g>
<!-- b0&#45;&gt;b16 -->
<g id="edge2" class="edge">
<title>b0&#45;&gt;b16</title>
<path fill="none" stroke="black" d="M331.22,-518.8C502.78,-490.66 767.85,-447.18 923.76,-421.61"/>
<polygon fill="black" stroke="black" points="924.57,-425.02 933.87,-419.95 923.44,-418.11 924.57,-425.02"/>
</g>
<!-- b2 -->
<g id="node3" class="node">
<title>b2</title>
<polygon fill="lightblue" stroke="black" points="1217,-692.82 886,-692.82 886,-640.82 1217,-640.82 1217,-692.82"/>
<text text-anchor="middle" x="1051.5" y="-680.82" font-family="Helvetica" font-size="10.00">B2</text>
<text text-anchor="middle" x="1051.5" y="-669.82" font-family="Helvetica" font-size="10.00">Loop: L0</text>
<text text-anchor="middle" x="1051.5" y="-658.82" font-family="Helvetica" font-size="10.00">&#45;&#45;&#45;</text>
<text text-anchor="middle" x="1051.5" y="-647.82" font-family="Helvetica" font-size="10.00">HotSpotMethod&lt;LoopBenchmarks.mandelbrotLoop(double, double, int)&gt;</text>
</g>
<!-- b1&#45;&gt;b2 -->
<g id="edge3" class="edge">
<title>b1&#45;&gt;b2</title>
<path fill="none" stroke="black" d="M778.11,-661.88C810.04,-662.45 843.5,-663.06 875.61,-663.64"/>
<polygon fill="black" stroke="black" points="875.92,-667.15 885.99,-663.83 876.05,-660.15 875.92,-667.15"/>
</g>
<!-- b3 -->
<g id="node4" class="node">
<title>b3</title>
<polygon fill="lightblue" stroke="black" points="1660,-566.82 1329,-566.82 1329,-514.82 1660,-514.82 1660,-566.82"/>
<text text-anchor="middle" x="1494.5" y="-554.82" font-family="Helvetica" font-size="10.00">B3</text>
<text text-anchor="middle" x="1494.5" y="-543.82" font-family="Helvetica" font-size="10.00">Loop: L0</text>
<text text-anchor="middle" x="1494.5" y="-532.82" font-family="Helvetica" font-size="10.00">&#45;&#45;&#45;</text>
<text text-anchor="middle" x="1494.5" y="-521.82" font-family="Helvetica" font-size="10.00">HotSpotMethod&lt;LoopBenchmarks.mandelbrotLoop(double, double, int)&gt;</text>
</g>
<!-- b2&#45;&gt;b3 -->
<g id="edge4" class="edge">
<title>b2&#45;&gt;b3</title>
<path fill="none" stroke="black" d="M1143.61,-640.79C1216.02,-620.1 1317.25,-591.18 1392.2,-569.76"/>
<polygon fill="black" stroke="black" points="1393.48,-573.03 1402.13,-566.92 1391.55,-566.3 1393.48,-573.03"/>
</g>
<!-- b6 -->
<g id="node7" class="node">
<title>b6</title>
<polygon fill="white" stroke="black" stroke-width="4" points="1660,-874.32 1329,-874.32 1329,-789.32 1660,-789.32 1660,-874.32"/>
<polygon fill="none" stroke="black" stroke-width="4" points="1664,-878.32 1325,-878.32 1325,-785.32 1664,-785.32 1664,-878.32"/>
<text text-anchor="middle" x="1494.5" y="-862.32" font-family="Helvetica" font-size="10.00">B6</text>
<text text-anchor="middle" x="1494.5" y="-851.32" font-family="Helvetica" font-size="10.00">Loop: &lt;none&gt;</text>
<text text-anchor="middle" x="1494.5" y="-840.32" font-family="Helvetica" font-size="10.00">&#45;&#45;&#45;</text>
<text text-anchor="middle" x="1494.5" y="-829.32" font-family="Helvetica" font-size="10.00">HotSpotMethod&lt;LoopBenchmarks.mandelbrotLoop(double, double, int)&gt;</text>
<text text-anchor="middle" x="1494.5" y="-818.32" font-family="Helvetica" font-size="10.00">&#45;&#45;&#45;</text>
<text text-anchor="middle" x="1494.5" y="-807.32" font-family="Helvetica" font-size="10.00">BuboLoopMakers:</text>
<text text-anchor="middle" x="1494.5" y="-796.32" font-family="Helvetica" font-size="10.00"> &#160;AMD64BuboWriteDeltaRDTSC (LoopID=3)</text>
</g>
<!-- b2&#45;&gt;b6 -->
<g id="edge5" class="edge">
<title>b2&#45;&gt;b6</title>
<path fill="none" stroke="black" d="M1122.38,-692.96C1185.86,-716.71 1281.24,-752.4 1359.41,-781.65"/>
<polygon fill="black" stroke="black" points="1358.27,-784.96 1368.86,-785.18 1360.72,-778.4 1358.27,-784.96"/>
</g>
<!-- b4 -->
<g id="node5" class="node">
<title>b4</title>
<polygon fill="lightblue" stroke="black" points="2107,-711.82 1776,-711.82 1776,-659.82 2107,-659.82 2107,-711.82"/>
<text text-anchor="middle" x="1941.5" y="-699.82" font-family="Helvetica" font-size="10.00">B4</text>
<text text-anchor="middle" x="1941.5" y="-688.82" font-family="Helvetica" font-size="10.00">Loop: L0</text>
<text text-anchor="middle" x="1941.5" y="-677.82" font-family="Helvetica" font-size="10.00">&#45;&#45;&#45;</text>
<text text-anchor="middle" x="1941.5" y="-666.82" font-family="Helvetica" font-size="10.00">HotSpotMethod&lt;LoopBenchmarks.mandelbrotLoop(double, double, int)&gt;</text>
</g>
<!-- b3&#45;&gt;b4 -->
<g id="edge6" class="edge">
<title>b3&#45;&gt;b4</title>
<path fill="none" stroke="black" d="M1575.31,-566.82C1652.82,-592.08 1770.29,-630.36 1850.95,-656.64"/>
<polygon fill="black" stroke="black" points="1850.01,-660.01 1860.6,-659.78 1852.18,-653.36 1850.01,-660.01"/>
</g>
<!-- b5 -->
<g id="node6" class="node">
<title>b5</title>
<polygon fill="white" stroke="black" stroke-width="4" points="2107,-583.32 1776,-583.32 1776,-498.32 2107,-498.32 2107,-583.32"/>
<polygon fill="none" stroke="black" stroke-width="4" points="2111,-587.32 1772,-587.32 1772,-494.32 2111,-494.32 2111,-587.32"/>
<text text-anchor="middle" x="1941.5" y="-571.32" font-family="Helvetica" font-size="10.00">B5</text>
<text text-anchor="middle" x="1941.5" y="-560.32" font-family="Helvetica" font-size="10.00">Loop: &lt;none&gt;</text>
<text text-anchor="middle" x="1941.5" y="-549.32" font-family="Helvetica" font-size="10.00">&#45;&#45;&#45;</text>
<text text-anchor="middle" x="1941.5" y="-538.32" font-family="Helvetica" font-size="10.00">HotSpotMethod&lt;LoopBenchmarks.mandelbrotLoop(double, double, int)&gt;</text>
<text text-anchor="middle" x="1941.5" y="-527.32" font-family="Helvetica" font-size="10.00">&#45;&#45;&#45;</text>
<text text-anchor="middle" x="1941.5" y="-516.32" font-family="Helvetica" font-size="10.00">BuboLoopMakers:</text>
<text text-anchor="middle" x="1941.5" y="-505.32" font-family="Helvetica" font-size="10.00"> &#160;AMD64BuboWriteDeltaRDTSC (LoopID=3)</text>
</g>
<!-- b3&#45;&gt;b5 -->
<g id="edge7" class="edge">
<title>b3&#45;&gt;b5</title>
<path fill="none" stroke="black" d="M1660.25,-540.82C1693.22,-540.82 1728,-540.82 1761.43,-540.82"/>
<polygon fill="black" stroke="black" points="1761.75,-544.32 1771.75,-540.82 1761.75,-537.32 1761.75,-544.32"/>
</g>
<!-- b4&#45;&gt;b2 -->
<g id="edge8" class="edge">
<title>b4&#45;&gt;b2</title>
<path fill="none" stroke="black" d="M1775.96,-682.3C1620.1,-678.96 1386.81,-673.97 1227.57,-670.56"/>
<polygon fill="black" stroke="black" points="1227.26,-667.06 1217.19,-670.34 1227.11,-674.05 1227.26,-667.06"/>
</g>
<!-- b7 -->
<g id="node8" class="node">
<title>b7</title>
<polygon fill="white" stroke="black" stroke-width="4" points="2554,-809.82 2223,-809.82 2223,-713.82 2554,-713.82 2554,-809.82"/>
<polygon fill="none" stroke="black" stroke-width="4" points="2558,-813.82 2219,-813.82 2219,-709.82 2558,-709.82 2558,-813.82"/>
<text text-anchor="middle" x="2388.5" y="-797.82" font-family="Helvetica" font-size="10.00">B7</text>
<text text-anchor="middle" x="2388.5" y="-786.82" font-family="Helvetica" font-size="10.00">Loop: &lt;none&gt;</text>
<text text-anchor="middle" x="2388.5" y="-775.82" font-family="Helvetica" font-size="10.00">&#45;&#45;&#45;</text>
<text text-anchor="middle" x="2388.5" y="-764.82" font-family="Helvetica" font-size="10.00">HotSpotMethod&lt;LoopBenchmarks.mandelbrotLoop(double, double, int)&gt;</text>
<text text-anchor="middle" x="2388.5" y="-753.82" font-family="Helvetica" font-size="10.00">HotSpotMethod&lt;LoopBenchmarks.main(String[])&gt;</text>
<text text-anchor="middle" x="2388.5" y="-742.82" font-family="Helvetica" font-size="10.00">&#45;&#45;&#45;</text>
<text text-anchor="middle" x="2388.5" y="-731.82" font-family="Helvetica" font-size="10.00">BuboLoopMakers:</text>
<text text-anchor="middle" x="2388.5" y="-720.82" font-family="Helvetica" font-size="10.00"> &#160;AMD64BuboRDTSCToSlot (LoopID=2)</text>
</g>
<!-- b5&#45;&gt;b7 -->
<g id="edge9" class="edge">
<title>b5&#45;&gt;b7</title>
<path fill="none" stroke="black" d="M2037.45,-587.48C2061.46,-599.31 2087.19,-612.01 2111,-623.82 2164.73,-650.46 2224.27,-680.15 2274.28,-705.14"/>
<polygon fill="black" stroke="black" points="2273,-708.42 2283.51,-709.76 2276.13,-702.15 2273,-708.42"/>
</g>
<!-- b6&#45;&gt;b7 -->
<g id="edge10" class="edge">
<title>b6&#45;&gt;b7</title>
<path fill="none" stroke="black" d="M1664.06,-818.59C1819.59,-806.38 2049.78,-788.32 2208.53,-775.86"/>
<polygon fill="black" stroke="black" points="2209.19,-779.32 2218.88,-775.05 2208.64,-772.34 2209.19,-779.32"/>
</g>
<!-- b8 -->
<g id="node9" class="node">
<title>b8</title>
<polygon fill="lightgreen" stroke="black" points="2901,-787.82 2666,-787.82 2666,-735.82 2901,-735.82 2901,-787.82"/>
<text text-anchor="middle" x="2783.5" y="-775.82" font-family="Helvetica" font-size="10.00">B8</text>
<text text-anchor="middle" x="2783.5" y="-764.82" font-family="Helvetica" font-size="10.00">Loop: L1</text>
<text text-anchor="middle" x="2783.5" y="-753.82" font-family="Helvetica" font-size="10.00">&#45;&#45;&#45;</text>
<text text-anchor="middle" x="2783.5" y="-742.82" font-family="Helvetica" font-size="10.00">HotSpotMethod&lt;LoopBenchmarks.main(String[])&gt;</text>
</g>
<!-- b7&#45;&gt;b8 -->
<g id="edge11" class="edge">
<title>b7&#45;&gt;b8</title>
<path fill="none" stroke="black" d="M2558.16,-761.82C2590.94,-761.82 2624.78,-761.82 2655.92,-761.82"/>
<polygon fill="black" stroke="black" points="2655.93,-765.32 2665.93,-761.82 2655.93,-758.32 2655.93,-765.32"/>
</g>
<!-- b9 -->
<g id="node10" class="node">
<title>b9</title>
<polygon fill="lightgreen" stroke="black" stroke-width="4" points="3344,-1054.82 3013,-1054.82 3013,-958.82 3344,-958.82 3344,-1054.82"/>
<polygon fill="none" stroke="black" stroke-width="4" points="3348,-1058.82 3009,-1058.82 3009,-954.82 3348,-954.82 3348,-1058.82"/>
<text text-anchor="middle" x="3178.5" y="-1042.82" font-family="Helvetica" font-size="10.00">B9</text>
<text text-anchor="middle" x="3178.5" y="-1031.82" font-family="Helvetica" font-size="10.00">Loop: L1</text>
<text text-anchor="middle" x="3178.5" y="-1020.82" font-family="Helvetica" font-size="10.00">&#45;&#45;&#45;</text>
<text text-anchor="middle" x="3178.5" y="-1009.82" font-family="Helvetica" font-size="10.00">HotSpotMethod&lt;LoopBenchmarks.main(String[])&gt;</text>
<text text-anchor="middle" x="3178.5" y="-998.82" font-family="Helvetica" font-size="10.00">HotSpotMethod&lt;LoopBenchmarks.mandelbrotLoop(double, double, int)&gt;</text>
<text text-anchor="middle" x="3178.5" y="-987.82" font-family="Helvetica" font-size="10.00">&#45;&#45;&#45;</text>
<text text-anchor="middle" x="3178.5" y="-976.82" font-family="Helvetica" font-size="10.00">BuboLoopMakers:</text>
<text text-anchor="middle" x="3178.5" y="-965.82" font-family="Helvetica" font-size="10.00"> &#160;AMD64BuboRDTSCToSlot (LoopID=4)</text>
</g>
<!-- b8&#45;&gt;b9 -->
<g id="edge12" class="edge">
<title>b8&#45;&gt;b9</title>
<path fill="none" stroke="black" d="M2826.56,-788.04C2887.89,-826.27 3003.43,-898.3 3085.16,-949.25"/>
<polygon fill="black" stroke="black" points="3083.62,-952.42 3093.96,-954.74 3087.33,-946.48 3083.62,-952.42"/>
</g>
<!-- b15 -->
<g id="node16" class="node">
<title>b15</title>
<polygon fill="white" stroke="black" stroke-width="4" points="3296,-583.32 3061,-583.32 3061,-498.32 3296,-498.32 3296,-583.32"/>
<polygon fill="none" stroke="black" stroke-width="4" points="3300,-587.32 3057,-587.32 3057,-494.32 3300,-494.32 3300,-587.32"/>
<text text-anchor="middle" x="3178.5" y="-571.32" font-family="Helvetica" font-size="10.00">B15</text>
<text text-anchor="middle" x="3178.5" y="-560.32" font-family="Helvetica" font-size="10.00">Loop: &lt;none&gt;</text>
<text text-anchor="middle" x="3178.5" y="-549.32" font-family="Helvetica" font-size="10.00">&#45;&#45;&#45;</text>
<text text-anchor="middle" x="3178.5" y="-538.32" font-family="Helvetica" font-size="10.00">HotSpotMethod&lt;LoopBenchmarks.main(String[])&gt;</text>
<text text-anchor="middle" x="3178.5" y="-527.32" font-family="Helvetica" font-size="10.00">&#45;&#45;&#45;</text>
<text text-anchor="middle" x="3178.5" y="-516.32" font-family="Helvetica" font-size="10.00">BuboLoopMakers:</text>
<text text-anchor="middle" x="3178.5" y="-505.32" font-family="Helvetica" font-size="10.00"> &#160;AMD64BuboWriteDeltaRDTSC (LoopID=2)</text>
</g>
<!-- b8&#45;&gt;b15 -->
<g id="edge13" class="edge">
<title>b8&#45;&gt;b15</title>
<path fill="none" stroke="black" d="M2830.74,-735.82C2893.16,-700.71 3005.76,-637.39 3085.7,-592.44"/>
<polygon fill="black" stroke="black" points="3087.8,-595.28 3094.8,-587.32 3084.37,-589.17 3087.8,-595.28"/>
</g>
<!-- b10 -->
<g id="node11" class="node">
<title>b10</title>
<polygon fill="lightpink" stroke="black" points="3787,-1038.32 3456,-1038.32 3456,-975.32 3787,-975.32 3787,-1038.32"/>
<text text-anchor="middle" x="3621.5" y="-1026.32" font-family="Helvetica" font-size="10.00">B10</text>
<text text-anchor="middle" x="3621.5" y="-1015.32" font-family="Helvetica" font-size="10.00">Loop: L2</text>
<text text-anchor="middle" x="3621.5" y="-1004.32" font-family="Helvetica" font-size="10.00">&#45;&#45;&#45;</text>
<text text-anchor="middle" x="3621.5" y="-993.32" font-family="Helvetica" font-size="10.00">HotSpotMethod&lt;LoopBenchmarks.mandelbrotLoop(double, double, int)&gt;</text>
<text text-anchor="middle" x="3621.5" y="-982.32" font-family="Helvetica" font-size="10.00">HotSpotMethod&lt;LoopBenchmarks.main(String[])&gt;</text>
</g>
<!-- b9&#45;&gt;b10 -->
<g id="edge14" class="edge">
<title>b9&#45;&gt;b10</title>
<path fill="none" stroke="black" d="M3348.11,-1006.82C3380.04,-1006.82 3413.5,-1006.82 3445.61,-1006.82"/>
<polygon fill="black" stroke="black" points="3445.99,-1010.32 3455.99,-1006.82 3445.99,-1003.32 3445.99,-1010.32"/>
</g>
<!-- b11 -->
<g id="node12" class="node">
<title>b11</title>
<polygon fill="lightpink" stroke="black" points="4230,-1033.82 3899,-1033.82 3899,-981.82 4230,-981.82 4230,-1033.82"/>
<text text-anchor="middle" x="4064.5" y="-1021.82" font-family="Helvetica" font-size="10.00">B11</text>
<text text-anchor="middle" x="4064.5" y="-1010.82" font-family="Helvetica" font-size="10.00">Loop: L2</text>
<text text-anchor="middle" x="4064.5" y="-999.82" font-family="Helvetica" font-size="10.00">&#45;&#45;&#45;</text>
<text text-anchor="middle" x="4064.5" y="-988.82" font-family="Helvetica" font-size="10.00">HotSpotMethod&lt;LoopBenchmarks.mandelbrotLoop(double, double, int)&gt;</text>
</g>
<!-- b10&#45;&gt;b11 -->
<g id="edge15" class="edge">
<title>b10&#45;&gt;b11</title>
<path fill="none" stroke="black" d="M3787.03,-1007.19C3820.08,-1007.26 3854.93,-1007.34 3888.32,-1007.42"/>
<polygon fill="black" stroke="black" points="3888.63,-1010.92 3898.64,-1007.44 3888.65,-1003.92 3888.63,-1010.92"/>
</g>
<!-- b14 -->
<g id="node15" class="node">
<title>b14</title>
<polygon fill="lightgreen" stroke="black" stroke-width="4" points="4230,-905.82 3899,-905.82 3899,-809.82 4230,-809.82 4230,-905.82"/>
<polygon fill="none" stroke="black" stroke-width="4" points="4234,-909.82 3895,-909.82 3895,-805.82 4234,-805.82 4234,-909.82"/>
<text text-anchor="middle" x="4064.5" y="-893.82" font-family="Helvetica" font-size="10.00">B14</text>
<text text-anchor="middle" x="4064.5" y="-882.82" font-family="Helvetica" font-size="10.00">Loop: L1</text>
<text text-anchor="middle" x="4064.5" y="-871.82" font-family="Helvetica" font-size="10.00">&#45;&#45;&#45;</text>
<text text-anchor="middle" x="4064.5" y="-860.82" font-family="Helvetica" font-size="10.00">HotSpotMethod&lt;LoopBenchmarks.mandelbrotLoop(double, double, int)&gt;</text>
<text text-anchor="middle" x="4064.5" y="-849.82" font-family="Helvetica" font-size="10.00">HotSpotMethod&lt;LoopBenchmarks.main(String[])&gt;</text>
<text text-anchor="middle" x="4064.5" y="-838.82" font-family="Helvetica" font-size="10.00">&#45;&#45;&#45;</text>
<text text-anchor="middle" x="4064.5" y="-827.82" font-family="Helvetica" font-size="10.00">BuboLoopMakers:</text>
<text text-anchor="middle" x="4064.5" y="-816.82" font-family="Helvetica" font-size="10.00"> &#160;AMD64BuboWriteDeltaRDTSC (LoopID=4)</text>
</g>
<!-- b10&#45;&gt;b14 -->
<g id="edge16" class="edge">
<title>b10&#45;&gt;b14</title>
<path fill="none" stroke="black" d="M3715.76,-975.31C3769.13,-957.28 3837.63,-934.13 3899.7,-913.16"/>
<polygon fill="black" stroke="black" points="3900.85,-916.47 3909.2,-909.95 3898.61,-909.83 3900.85,-916.47"/>
</g>
<!-- b12 -->
<g id="node13" class="node">
<title>b12</title>
<polygon fill="lightpink" stroke="black" points="4677,-1101.82 4346,-1101.82 4346,-1049.82 4677,-1049.82 4677,-1101.82"/>
<text text-anchor="middle" x="4511.5" y="-1089.82" font-family="Helvetica" font-size="10.00">B12</text>
<text text-anchor="middle" x="4511.5" y="-1078.82" font-family="Helvetica" font-size="10.00">Loop: L2</text>
<text text-anchor="middle" x="4511.5" y="-1067.82" font-family="Helvetica" font-size="10.00">&#45;&#45;&#45;</text>
<text text-anchor="middle" x="4511.5" y="-1056.82" font-family="Helvetica" font-size="10.00">HotSpotMethod&lt;LoopBenchmarks.mandelbrotLoop(double, double, int)&gt;</text>
</g>
<!-- b11&#45;&gt;b12 -->
<g id="edge17" class="edge">
<title>b11&#45;&gt;b12</title>
<path fill="none" stroke="black" d="M4230.25,-1032.99C4264.6,-1038.24 4300.92,-1043.79 4335.62,-1049.09"/>
<polygon fill="black" stroke="black" points="4335.43,-1052.61 4345.85,-1050.66 4336.49,-1045.69 4335.43,-1052.61"/>
</g>
<!-- b13 -->
<g id="node14" class="node">
<title>b13</title>
<polygon fill="lightgreen" stroke="black" stroke-width="4" points="4677,-885.32 4346,-885.32 4346,-800.32 4677,-800.32 4677,-885.32"/>
<polygon fill="none" stroke="black" stroke-width="4" points="4681,-889.32 4342,-889.32 4342,-796.32 4681,-796.32 4681,-889.32"/>
<text text-anchor="middle" x="4511.5" y="-873.32" font-family="Helvetica" font-size="10.00">B13</text>
<text text-anchor="middle" x="4511.5" y="-862.32" font-family="Helvetica" font-size="10.00">Loop: L1</text>
<text text-anchor="middle" x="4511.5" y="-851.32" font-family="Helvetica" font-size="10.00">&#45;&#45;&#45;</text>
<text text-anchor="middle" x="4511.5" y="-840.32" font-family="Helvetica" font-size="10.00">HotSpotMethod&lt;LoopBenchmarks.mandelbrotLoop(double, double, int)&gt;</text>
<text text-anchor="middle" x="4511.5" y="-829.32" font-family="Helvetica" font-size="10.00">&#45;&#45;&#45;</text>
<text text-anchor="middle" x="4511.5" y="-818.32" font-family="Helvetica" font-size="10.00">BuboLoopMakers:</text>
<text text-anchor="middle" x="4511.5" y="-807.32" font-family="Helvetica" font-size="10.00"> &#160;AMD64BuboWriteDeltaRDTSC (LoopID=4)</text>
</g>
<!-- b11&#45;&gt;b13 -->
<g id="edge18" class="edge">
<title>b11&#45;&gt;b13</title>
<path fill="none" stroke="black" d="M4136.44,-981.79C4166.54,-970.72 4201.99,-957.67 4234,-945.82 4280.42,-928.63 4331.19,-909.74 4376.41,-892.89"/>
<polygon fill="black" stroke="black" points="4377.83,-896.1 4385.97,-889.33 4375.38,-889.54 4377.83,-896.1"/>
</g>
<!-- b12&#45;&gt;b10 -->
<g id="edge19" class="edge">
<title>b12&#45;&gt;b10</title>
<path fill="none" stroke="black" d="M4345.95,-1083.88C4221.62,-1087.63 4047.01,-1087.91 3895,-1069.82 3844.92,-1063.86 3790.62,-1052.36 3743.77,-1040.81"/>
<polygon fill="black" stroke="black" points="3744.44,-1037.37 3733.89,-1038.34 3742.75,-1044.16 3744.44,-1037.37"/>
</g>
<!-- b13&#45;&gt;b8 -->
<g id="edge20" class="edge">
<title>b13&#45;&gt;b8</title>
<path fill="none" stroke="black" d="M4361.55,-796.27C4320.62,-785.46 4275.94,-775.48 4234,-769.82 3749.11,-704.38 3164.65,-733.73 2911.56,-751.63"/>
<polygon fill="black" stroke="black" points="2910.95,-748.16 2901.23,-752.36 2911.45,-755.14 2910.95,-748.16"/>
</g>
<!-- b14&#45;&gt;b8 -->
<g id="edge21" class="edge">
<title>b14&#45;&gt;b8</title>
<path fill="none" stroke="black" d="M3894.81,-845.15C3635.07,-825.66 3143.03,-788.73 2911.27,-771.33"/>
<polygon fill="black" stroke="black" points="2911.34,-767.83 2901.11,-770.57 2910.82,-774.81 2911.34,-767.83"/>
</g>
<!-- b17 -->
<g id="node18" class="node">
<title>b17</title>
<polygon fill="white" stroke="black" stroke-width="4" points="3739,-505.32 3504,-505.32 3504,-420.32 3739,-420.32 3739,-505.32"/>
<polygon fill="none" stroke="black" stroke-width="4" points="3743,-509.32 3500,-509.32 3500,-416.32 3743,-416.32 3743,-509.32"/>
<text text-anchor="middle" x="3621.5" y="-493.32" font-family="Helvetica" font-size="10.00">B17</text>
<text text-anchor="middle" x="3621.5" y="-482.32" font-family="Helvetica" font-size="10.00">Loop: &lt;none&gt;</text>
<text text-anchor="middle" x="3621.5" y="-471.32" font-family="Helvetica" font-size="10.00">&#45;&#45;&#45;</text>
<text text-anchor="middle" x="3621.5" y="-460.32" font-family="Helvetica" font-size="10.00">HotSpotMethod&lt;LoopBenchmarks.main(String[])&gt;</text>
<text text-anchor="middle" x="3621.5" y="-449.32" font-family="Helvetica" font-size="10.00">&#45;&#45;&#45;</text>
<text text-anchor="middle" x="3621.5" y="-438.32" font-family="Helvetica" font-size="10.00">BuboLoopMakers:</text>
<text text-anchor="middle" x="3621.5" y="-427.32" font-family="Helvetica" font-size="10.00"> &#160;AMD64BuboRDTSCToSlot (LoopID=0)</text>
</g>
<!-- b15&#45;&gt;b17 -->
<g id="edge22" class="edge">
<title>b15&#45;&gt;b17</title>
<path fill="none" stroke="black" d="M3300.01,-519.5C3358.83,-509.1 3429.7,-496.56 3489.82,-485.93"/>
<polygon fill="black" stroke="black" points="3490.52,-489.36 3499.76,-484.17 3489.3,-482.47 3490.52,-489.36"/>
</g>
<!-- b16&#45;&gt;b17 -->
<g id="edge23" class="edge">
<title>b16&#45;&gt;b17</title>
<path fill="none" stroke="black" d="M1169.21,-397.37C1338.96,-392.67 1663.92,-384.82 1940.5,-384.82 1940.5,-384.82 1940.5,-384.82 2784.5,-384.82 3034.72,-384.82 3325.26,-419.89 3489.54,-443"/>
<polygon fill="black" stroke="black" points="3489.3,-446.5 3499.69,-444.43 3490.28,-439.57 3489.3,-446.5"/>
</g>
<!-- b18 -->
<g id="node19" class="node">
<title>b18</title>
<polygon fill="gold" stroke="black" points="4182,-488.82 3947,-488.82 3947,-436.82 4182,-436.82 4182,-488.82"/>
<text text-anchor="middle" x="4064.5" y="-476.82" font-family="Helvetica" font-size="10.00">B18</text>
<text text-anchor="middle" x="4064.5" y="-465.82" font-family="Helvetica" font-size="10.00">Loop: L3</text>
<text text-anchor="middle" x="4064.5" y="-454.82" font-family="Helvetica" font-size="10.00">&#45;&#45;&#45;</text>
<text text-anchor="middle" x="4064.5" y="-443.82" font-family="Helvetica" font-size="10.00">HotSpotMethod&lt;LoopBenchmarks.main(String[])&gt;</text>
</g>
<!-- b17&#45;&gt;b18 -->
<g id="edge24" class="edge">
<title>b17&#45;&gt;b18</title>
<path fill="none" stroke="black" d="M3743.01,-462.82C3803.16,-462.82 3875.91,-462.82 3936.88,-462.82"/>
<polygon fill="black" stroke="black" points="3936.95,-466.32 3946.95,-462.82 3936.95,-459.32 3936.95,-466.32"/>
</g>
<!-- b19 -->
<g id="node20" class="node">
<title>b19</title>
<polygon fill="gold" stroke="black" stroke-width="4" points="4629,-345.32 4394,-345.32 4394,-260.32 4629,-260.32 4629,-345.32"/>
<polygon fill="none" stroke="black" stroke-width="4" points="4633,-349.32 4390,-349.32 4390,-256.32 4633,-256.32 4633,-349.32"/>
<text text-anchor="middle" x="4511.5" y="-333.32" font-family="Helvetica" font-size="10.00">B19</text>
<text text-anchor="middle" x="4511.5" y="-322.32" font-family="Helvetica" font-size="10.00">Loop: L3</text>
<text text-anchor="middle" x="4511.5" y="-311.32" font-family="Helvetica" font-size="10.00">&#45;&#45;&#45;</text>
<text text-anchor="middle" x="4511.5" y="-300.32" font-family="Helvetica" font-size="10.00">HotSpotMethod&lt;LoopBenchmarks.main(String[])&gt;</text>
<text text-anchor="middle" x="4511.5" y="-289.32" font-family="Helvetica" font-size="10.00">&#45;&#45;&#45;</text>
<text text-anchor="middle" x="4511.5" y="-278.32" font-family="Helvetica" font-size="10.00">BuboLoopMakers:</text>
<text text-anchor="middle" x="4511.5" y="-267.32" font-family="Helvetica" font-size="10.00"> &#160;AMD64BuboRDTSCToSlot (LoopID=1)</text>
</g>
<!-- b18&#45;&gt;b19 -->
<g id="edge25" class="edge">
<title>b18&#45;&gt;b19</title>
<path fill="none" stroke="black" d="M4137.99,-436.75C4203.42,-413.23 4301.26,-378.05 4380.25,-349.65"/>
<polygon fill="black" stroke="black" points="4381.56,-352.9 4389.79,-346.22 4379.19,-346.31 4381.56,-352.9"/>
</g>
<!-- b28 -->
<g id="node29" class="node">
<title>b28</title>
<polygon fill="white" stroke="black" points="4629,-623.82 4394,-623.82 4394,-571.82 4629,-571.82 4629,-623.82"/>
<text text-anchor="middle" x="4511.5" y="-611.82" font-family="Helvetica" font-size="10.00">B28</text>
<text text-anchor="middle" x="4511.5" y="-600.82" font-family="Helvetica" font-size="10.00">Loop: &lt;none&gt;</text>
<text text-anchor="middle" x="4511.5" y="-589.82" font-family="Helvetica" font-size="10.00">&#45;&#45;&#45;</text>
<text text-anchor="middle" x="4511.5" y="-578.82" font-family="Helvetica" font-size="10.00">HotSpotMethod&lt;LoopBenchmarks.main(String[])&gt;</text>
</g>
<!-- b18&#45;&gt;b28 -->
<g id="edge26" class="edge">
<title>b18&#45;&gt;b28</title>
<path fill="none" stroke="black" d="M4151.3,-488.85C4226.75,-511.73 4336.43,-545.01 4414.72,-568.76"/>
<polygon fill="black" stroke="black" points="4414,-572.2 4424.58,-571.75 4416.03,-565.5 4414,-572.2"/>
</g>
<!-- b20 -->
<g id="node21" class="node">
<title>b20</title>
<polygon fill="orange" stroke="black" points="5024,-321.82 4789,-321.82 4789,-269.82 5024,-269.82 5024,-321.82"/>
<text text-anchor="middle" x="4906.5" y="-309.82" font-family="Helvetica" font-size="10.00">B20</text>
<text text-anchor="middle" x="4906.5" y="-298.82" font-family="Helvetica" font-size="10.00">Loop: L4</text>
<text text-anchor="middle" x="4906.5" y="-287.82" font-family="Helvetica" font-size="10.00">&#45;&#45;&#45;</text>
<text text-anchor="middle" x="4906.5" y="-276.82" font-family="Helvetica" font-size="10.00">HotSpotMethod&lt;LoopBenchmarks.main(String[])&gt;</text>
</g>
<!-- b19&#45;&gt;b20 -->
<g id="edge27" class="edge">
<title>b19&#45;&gt;b20</title>
<path fill="none" stroke="black" d="M4633.08,-300.67C4679.22,-299.85 4731.96,-298.91 4778.67,-298.08"/>
<polygon fill="black" stroke="black" points="4778.91,-301.57 4788.85,-297.89 4778.79,-294.57 4778.91,-301.57"/>
</g>
<!-- b21 -->
<g id="node22" class="node">
<title>b21</title>
<polygon fill="orange" stroke="black" stroke-width="4" points="5467,-343.82 5136,-343.82 5136,-247.82 5467,-247.82 5467,-343.82"/>
<polygon fill="none" stroke="black" stroke-width="4" points="5471,-347.82 5132,-347.82 5132,-243.82 5471,-243.82 5471,-347.82"/>
<text text-anchor="middle" x="5301.5" y="-331.82" font-family="Helvetica" font-size="10.00">B21</text>
<text text-anchor="middle" x="5301.5" y="-320.82" font-family="Helvetica" font-size="10.00">Loop: L4</text>
<text text-anchor="middle" x="5301.5" y="-309.82" font-family="Helvetica" font-size="10.00">&#45;&#45;&#45;</text>
<text text-anchor="middle" x="5301.5" y="-298.82" font-family="Helvetica" font-size="10.00">HotSpotMethod&lt;LoopBenchmarks.main(String[])&gt;</text>
<text text-anchor="middle" x="5301.5" y="-287.82" font-family="Helvetica" font-size="10.00">HotSpotMethod&lt;LoopBenchmarks.mandelbrotLoop(double, double, int)&gt;</text>
<text text-anchor="middle" x="5301.5" y="-276.82" font-family="Helvetica" font-size="10.00">&#45;&#45;&#45;</text>
<text text-anchor="middle" x="5301.5" y="-265.82" font-family="Helvetica" font-size="10.00">BuboLoopMakers:</text>
<text text-anchor="middle" x="5301.5" y="-254.82" font-family="Helvetica" font-size="10.00"> &#160;AMD64BuboRDTSCToSlot (LoopID=5)</text>
</g>
<!-- b20&#45;&gt;b21 -->
<g id="edge28" class="edge">
<title>b20&#45;&gt;b21</title>
<path fill="none" stroke="black" d="M5024.08,-295.82C5054.74,-295.82 5088.53,-295.82 5121.65,-295.82"/>
<polygon fill="black" stroke="black" points="5121.9,-299.32 5131.9,-295.82 5121.9,-292.32 5121.9,-299.32"/>
</g>
<!-- b27 -->
<g id="node28" class="node">
<title>b27</title>
<polygon fill="gold" stroke="black" stroke-width="4" points="5419,-509.32 5184,-509.32 5184,-424.32 5419,-424.32 5419,-509.32"/>
<polygon fill="none" stroke="black" stroke-width="4" points="5423,-513.32 5180,-513.32 5180,-420.32 5423,-420.32 5423,-513.32"/>
<text text-anchor="middle" x="5301.5" y="-497.32" font-family="Helvetica" font-size="10.00">B27</text>
<text text-anchor="middle" x="5301.5" y="-486.32" font-family="Helvetica" font-size="10.00">Loop: L3</text>
<text text-anchor="middle" x="5301.5" y="-475.32" font-family="Helvetica" font-size="10.00">&#45;&#45;&#45;</text>
<text text-anchor="middle" x="5301.5" y="-464.32" font-family="Helvetica" font-size="10.00">HotSpotMethod&lt;LoopBenchmarks.main(String[])&gt;</text>
<text text-anchor="middle" x="5301.5" y="-453.32" font-family="Helvetica" font-size="10.00">&#45;&#45;&#45;</text>
<text text-anchor="middle" x="5301.5" y="-442.32" font-family="Helvetica" font-size="10.00">BuboLoopMakers:</text>
<text text-anchor="middle" x="5301.5" y="-431.32" font-family="Helvetica" font-size="10.00"> &#160;AMD64BuboWriteDeltaRDTSC (LoopID=1)</text>
</g>
<!-- b20&#45;&gt;b27 -->
<g id="edge29" class="edge">
<title>b20&#45;&gt;b27</title>
<path fill="none" stroke="black" d="M4967.62,-321.97C5024.93,-346.91 5112.78,-385.14 5183.84,-416.06"/>
<polygon fill="black" stroke="black" points="5182.74,-419.4 5193.31,-420.18 5185.54,-412.98 5182.74,-419.4"/>
</g>
<!-- b22 -->
<g id="node23" class="node">
<title>b22</title>
<polygon fill="violet" stroke="black" points="5910,-327.32 5579,-327.32 5579,-264.32 5910,-264.32 5910,-327.32"/>
<text text-anchor="middle" x="5744.5" y="-315.32" font-family="Helvetica" font-size="10.00">B22</text>
<text text-anchor="middle" x="5744.5" y="-304.32" font-family="Helvetica" font-size="10.00">Loop: L5</text>
<text text-anchor="middle" x="5744.5" y="-293.32" font-family="Helvetica" font-size="10.00">&#45;&#45;&#45;</text>
<text text-anchor="middle" x="5744.5" y="-282.32" font-family="Helvetica" font-size="10.00">HotSpotMethod&lt;LoopBenchmarks.mandelbrotLoop(double, double, int)&gt;</text>
<text text-anchor="middle" x="5744.5" y="-271.32" font-family="Helvetica" font-size="10.00">HotSpotMethod&lt;LoopBenchmarks.main(String[])&gt;</text>
</g>
<!-- b21&#45;&gt;b22 -->
<g id="edge30" class="edge">
<title>b21&#45;&gt;b22</title>
<path fill="none" stroke="black" d="M5471.11,-295.82C5503.04,-295.82 5536.5,-295.82 5568.61,-295.82"/>
<polygon fill="black" stroke="black" points="5568.99,-299.32 5578.99,-295.82 5568.99,-292.32 5568.99,-299.32"/>
</g>
<!-- b23 -->
<g id="node24" class="node">
<title>b23</title>
<polygon fill="violet" stroke="black" points="6353,-321.82 6022,-321.82 6022,-269.82 6353,-269.82 6353,-321.82"/>
<text text-anchor="middle" x="6187.5" y="-309.82" font-family="Helvetica" font-size="10.00">B23</text>
<text text-anchor="middle" x="6187.5" y="-298.82" font-family="Helvetica" font-size="10.00">Loop: L5</text>
<text text-anchor="middle" x="6187.5" y="-287.82" font-family="Helvetica" font-size="10.00">&#45;&#45;&#45;</text>
<text text-anchor="middle" x="6187.5" y="-276.82" font-family="Helvetica" font-size="10.00">HotSpotMethod&lt;LoopBenchmarks.mandelbrotLoop(double, double, int)&gt;</text>
</g>
<!-- b22&#45;&gt;b23 -->
<g id="edge31" class="edge">
<title>b22&#45;&gt;b23</title>
<path fill="none" stroke="black" d="M5910.03,-295.82C5943.08,-295.82 5977.93,-295.82 6011.32,-295.82"/>
<polygon fill="black" stroke="black" points="6011.64,-299.32 6021.64,-295.82 6011.64,-292.32 6011.64,-299.32"/>
</g>
<!-- b26 -->
<g id="node27" class="node">
<title>b26</title>
<polygon fill="orange" stroke="black" stroke-width="4" points="6353,-193.82 6022,-193.82 6022,-97.82 6353,-97.82 6353,-193.82"/>
<polygon fill="none" stroke="black" stroke-width="4" points="6357,-197.82 6018,-197.82 6018,-93.82 6357,-93.82 6357,-197.82"/>
<text text-anchor="middle" x="6187.5" y="-181.82" font-family="Helvetica" font-size="10.00">B26</text>
<text text-anchor="middle" x="6187.5" y="-170.82" font-family="Helvetica" font-size="10.00">Loop: L4</text>
<text text-anchor="middle" x="6187.5" y="-159.82" font-family="Helvetica" font-size="10.00">&#45;&#45;&#45;</text>
<text text-anchor="middle" x="6187.5" y="-148.82" font-family="Helvetica" font-size="10.00">HotSpotMethod&lt;LoopBenchmarks.mandelbrotLoop(double, double, int)&gt;</text>
<text text-anchor="middle" x="6187.5" y="-137.82" font-family="Helvetica" font-size="10.00">HotSpotMethod&lt;LoopBenchmarks.main(String[])&gt;</text>
<text text-anchor="middle" x="6187.5" y="-126.82" font-family="Helvetica" font-size="10.00">&#45;&#45;&#45;</text>
<text text-anchor="middle" x="6187.5" y="-115.82" font-family="Helvetica" font-size="10.00">BuboLoopMakers:</text>
<text text-anchor="middle" x="6187.5" y="-104.82" font-family="Helvetica" font-size="10.00"> &#160;AMD64BuboWriteDeltaRDTSC (LoopID=5)</text>
</g>
<!-- b22&#45;&gt;b26 -->
<g id="edge32" class="edge">
<title>b22&#45;&gt;b26</title>
<path fill="none" stroke="black" d="M5838.22,-264.28C5892.04,-245.97 5961.38,-222.39 6024.01,-201.09"/>
<polygon fill="black" stroke="black" points="6025.25,-204.36 6033.59,-197.83 6023,-197.73 6025.25,-204.36"/>
</g>
<!-- b24 -->
<g id="node25" class="node">
<title>b24</title>
<polygon fill="violet" stroke="black" points="6800,-388.82 6469,-388.82 6469,-336.82 6800,-336.82 6800,-388.82"/>
<text text-anchor="middle" x="6634.5" y="-376.82" font-family="Helvetica" font-size="10.00">B24</text>
<text text-anchor="middle" x="6634.5" y="-365.82" font-family="Helvetica" font-size="10.00">Loop: L5</text>
<text text-anchor="middle" x="6634.5" y="-354.82" font-family="Helvetica" font-size="10.00">&#45;&#45;&#45;</text>
<text text-anchor="middle" x="6634.5" y="-343.82" font-family="Helvetica" font-size="10.00">HotSpotMethod&lt;LoopBenchmarks.mandelbrotLoop(double, double, int)&gt;</text>
</g>
<!-- b23&#45;&gt;b24 -->
<g id="edge33" class="edge">
<title>b23&#45;&gt;b24</title>
<path fill="none" stroke="black" d="M6353.25,-320.62C6387.6,-325.79 6423.92,-331.26 6458.62,-336.49"/>
<polygon fill="black" stroke="black" points="6458.44,-340 6468.85,-338.03 6459.48,-333.08 6458.44,-340"/>
</g>
<!-- b25 -->
<g id="node26" class="node">
<title>b25</title>
<polygon fill="orange" stroke="black" stroke-width="4" points="6800,-177.32 6469,-177.32 6469,-92.32 6800,-92.32 6800,-177.32"/>
<polygon fill="none" stroke="black" stroke-width="4" points="6804,-181.32 6465,-181.32 6465,-88.32 6804,-88.32 6804,-181.32"/>
<text text-anchor="middle" x="6634.5" y="-165.32" font-family="Helvetica" font-size="10.00">B25</text>
<text text-anchor="middle" x="6634.5" y="-154.32" font-family="Helvetica" font-size="10.00">Loop: L4</text>
<text text-anchor="middle" x="6634.5" y="-143.32" font-family="Helvetica" font-size="10.00">&#45;&#45;&#45;</text>
<text text-anchor="middle" x="6634.5" y="-132.32" font-family="Helvetica" font-size="10.00">HotSpotMethod&lt;LoopBenchmarks.mandelbrotLoop(double, double, int)&gt;</text>
<text text-anchor="middle" x="6634.5" y="-121.32" font-family="Helvetica" font-size="10.00">&#45;&#45;&#45;</text>
<text text-anchor="middle" x="6634.5" y="-110.32" font-family="Helvetica" font-size="10.00">BuboLoopMakers:</text>
<text text-anchor="middle" x="6634.5" y="-99.32" font-family="Helvetica" font-size="10.00"> &#160;AMD64BuboWriteDeltaRDTSC (LoopID=5)</text>
</g>
<!-- b23&#45;&gt;b25 -->
<g id="edge34" class="edge">
<title>b23&#45;&gt;b25</title>
<path fill="none" stroke="black" d="M6260.49,-269.77C6323.59,-246.94 6417.1,-213.11 6494.7,-185.03"/>
<polygon fill="black" stroke="black" points="6496.36,-188.16 6504.57,-181.46 6493.98,-181.57 6496.36,-188.16"/>
</g>
<!-- b24&#45;&gt;b22 -->
<g id="edge35" class="edge">
<title>b24&#45;&gt;b22</title>
<path fill="none" stroke="black" d="M6468.97,-371.06C6344.66,-374.98 6170.05,-375.52 6018,-357.82 5968.62,-352.07 5915.12,-340.99 5868.7,-329.77"/>
<polygon fill="black" stroke="black" points="5869.45,-326.35 5858.91,-327.37 5867.79,-333.15 5869.45,-326.35"/>
</g>
<!-- b25&#45;&gt;b20 -->
<g id="edge36" class="edge">
<title>b25&#45;&gt;b20</title>
<path fill="none" stroke="black" d="M6494.74,-88.25C6451.17,-75.78 6402.55,-64.04 6357,-57.82 5816.33,16.06 5644.83,45.7 5132,-140.82 5057.36,-167.96 4984.18,-226.05 4942.57,-262.9"/>
<polygon fill="black" stroke="black" points="4940.04,-260.47 4934.92,-269.75 4944.71,-265.68 4940.04,-260.47"/>
</g>
<!-- b26&#45;&gt;b20 -->
<g id="edge37" class="edge">
<title>b26&#45;&gt;b20</title>
<path fill="none" stroke="black" d="M6017.62,-139.57C5807.51,-135.47 5438.97,-140.41 5132,-207.82 5074.93,-220.35 5013.36,-245.37 4969.16,-265.54"/>
<polygon fill="black" stroke="black" points="4967.61,-262.4 4960,-269.77 4970.54,-268.76 4967.61,-262.4"/>
</g>
<!-- b27&#45;&gt;b18 -->
<g id="edge38" class="edge">
<title>b27&#45;&gt;b18</title>
<path fill="none" stroke="black" d="M5179.77,-466.43C4945.52,-465.67 4431.42,-464 4192.37,-463.23"/>
<polygon fill="black" stroke="black" points="4192.25,-459.73 4182.24,-463.19 4192.23,-466.73 4192.25,-459.73"/>
</g>
</g>
</svg>
