<?xml version="1.0" encoding="UTF-8" standalone="no"?>
<!DOCTYPE svg PUBLIC "-//W3C//DTD SVG 1.1//EN"
 "http://www.w3.org/Graphics/SVG/1.1/DTD/svg11.dtd">
<!-- Generated by graphviz version 2.44.0 (0)
 -->
<!-- Title: CFG_128 Pages: 1 -->
<svg width="4500pt" height="1380pt"
 viewBox="0.00 0.00 4500.00 1380.00" xmlns="http://www.w3.org/2000/svg" xmlns:xlink="http://www.w3.org/1999/xlink">
<g id="graph0" class="graph" transform="scale(1 1) rotate(0) translate(4 1376)">
<title>CFG_128</title>
<polygon fill="white" stroke="transparent" points="-4,4 -4,-1376 4496,-1376 4496,4 -4,4"/>
<text text-anchor="middle" x="229" y="-1352" font-family="Times-Roman" font-size="20.00">191&#45;LoopBenchmarks.parseJsonLoop(char[])</text>
<!-- b0 -->
<g id="node1" class="node">
<title>b0</title>
<polygon fill="white" stroke="black" points="274,-1088 0,-1088 0,-1036 274,-1036 274,-1088"/>
<text text-anchor="middle" x="137" y="-1076" font-family="Helvetica" font-size="10.00">B0</text>
<text text-anchor="middle" x="137" y="-1065" font-family="Helvetica" font-size="10.00">Loop: &lt;none&gt;</text>
<text text-anchor="middle" x="137" y="-1054" font-family="Helvetica" font-size="10.00">&#45;&#45;&#45;</text>
<text text-anchor="middle" x="137" y="-1043" font-family="Helvetica" font-size="10.00">HotSpotMethod&lt;LoopBenchmarks.parseJsonLoop(char[])&gt;</text>
</g>
<!-- b1 -->
<g id="node2" class="node">
<title>b1</title>
<polygon fill="white" stroke="black" points="1420,-1342 1146,-1342 1146,-1290 1420,-1290 1420,-1342"/>
<text text-anchor="middle" x="1283" y="-1330" font-family="Helvetica" font-size="10.00">B1</text>
<text text-anchor="middle" x="1283" y="-1319" font-family="Helvetica" font-size="10.00">Loop: &lt;none&gt;</text>
<text text-anchor="middle" x="1283" y="-1308" font-family="Helvetica" font-size="10.00">&#45;&#45;&#45;</text>
<text text-anchor="middle" x="1283" y="-1297" font-family="Helvetica" font-size="10.00">HotSpotMethod&lt;LoopBenchmarks.parseJsonLoop(char[])&gt;</text>
</g>
<!-- b0&#45;&gt;b1 -->
<g id="edge1" class="edge">
<title>b0&#45;&gt;b1</title>
<path fill="none" stroke="black" d="M215.18,-1088.15C332.47,-1127.02 563.21,-1200.05 764,-1243 888.32,-1269.59 1031.57,-1288.93 1135.87,-1301"/>
<polygon fill="black" stroke="black" points="1135.5,-1304.48 1145.84,-1302.14 1136.3,-1297.52 1135.5,-1304.48"/>
</g>
<!-- b2 -->
<g id="node3" class="node">
<title>b2</title>
<polygon fill="white" stroke="black" points="656,-897 382,-897 382,-845 656,-845 656,-897"/>
<text text-anchor="middle" x="519" y="-885" font-family="Helvetica" font-size="10.00">B2</text>
<text text-anchor="middle" x="519" y="-874" font-family="Helvetica" font-size="10.00">Loop: &lt;none&gt;</text>
<text text-anchor="middle" x="519" y="-863" font-family="Helvetica" font-size="10.00">&#45;&#45;&#45;</text>
<text text-anchor="middle" x="519" y="-852" font-family="Helvetica" font-size="10.00">HotSpotMethod&lt;LoopBenchmarks.parseJsonLoop(char[])&gt;</text>
</g>
<!-- b0&#45;&gt;b2 -->
<g id="edge2" class="edge">
<title>b0&#45;&gt;b2</title>
<path fill="none" stroke="black" d="M190.04,-1035.84C259.63,-1000.86 382.79,-938.96 456.77,-901.78"/>
<polygon fill="black" stroke="black" points="458.62,-904.77 465.98,-897.15 455.47,-898.51 458.62,-904.77"/>
</g>
<!-- b29 -->
<g id="node30" class="node">
<title>b29</title>
<polygon fill="white" stroke="black" points="3346,-1264 3072,-1264 3072,-1212 3346,-1212 3346,-1264"/>
<text text-anchor="middle" x="3209" y="-1252" font-family="Helvetica" font-size="10.00">B29</text>
<text text-anchor="middle" x="3209" y="-1241" font-family="Helvetica" font-size="10.00">Loop: &lt;none&gt;</text>
<text text-anchor="middle" x="3209" y="-1230" font-family="Helvetica" font-size="10.00">&#45;&#45;&#45;</text>
<text text-anchor="middle" x="3209" y="-1219" font-family="Helvetica" font-size="10.00">HotSpotMethod&lt;LoopBenchmarks.parseJsonLoop(char[])&gt;</text>
</g>
<!-- b1&#45;&gt;b29 -->
<g id="edge3" class="edge">
<title>b1&#45;&gt;b29</title>
<path fill="none" stroke="black" d="M1420.29,-1316C1573.47,-1316 1829.58,-1316 2050,-1316 2050,-1316 2050,-1316 2438,-1316 2656.09,-1316 2907.16,-1284.64 3061.72,-1261.69"/>
<polygon fill="black" stroke="black" points="3062.39,-1265.13 3071.76,-1260.2 3061.36,-1258.21 3062.39,-1265.13"/>
</g>
<!-- b3 -->
<g id="node4" class="node">
<title>b3</title>
<polygon fill="white" stroke="black" points="1038,-835 764,-835 764,-783 1038,-783 1038,-835"/>
<text text-anchor="middle" x="901" y="-823" font-family="Helvetica" font-size="10.00">B3</text>
<text text-anchor="middle" x="901" y="-812" font-family="Helvetica" font-size="10.00">Loop: &lt;none&gt;</text>
<text text-anchor="middle" x="901" y="-801" font-family="Helvetica" font-size="10.00">&#45;&#45;&#45;</text>
<text text-anchor="middle" x="901" y="-790" font-family="Helvetica" font-size="10.00">HotSpotMethod&lt;LoopBenchmarks.parseJsonLoop(char[])&gt;</text>
</g>
<!-- b2&#45;&gt;b3 -->
<g id="edge4" class="edge">
<title>b2&#45;&gt;b3</title>
<path fill="none" stroke="black" d="M656.12,-848.79C687.86,-843.61 721.8,-838.07 753.96,-832.83"/>
<polygon fill="black" stroke="black" points="754.57,-836.27 763.88,-831.21 753.44,-829.37 754.57,-836.27"/>
</g>
<!-- b4 -->
<g id="node5" class="node">
<title>b4</title>
<polygon fill="white" stroke="black" points="1038,-463 764,-463 764,-411 1038,-411 1038,-463"/>
<text text-anchor="middle" x="901" y="-451" font-family="Helvetica" font-size="10.00">B4</text>
<text text-anchor="middle" x="901" y="-440" font-family="Helvetica" font-size="10.00">Loop: &lt;none&gt;</text>
<text text-anchor="middle" x="901" y="-429" font-family="Helvetica" font-size="10.00">&#45;&#45;&#45;</text>
<text text-anchor="middle" x="901" y="-418" font-family="Helvetica" font-size="10.00">HotSpotMethod&lt;LoopBenchmarks.parseJsonLoop(char[])&gt;</text>
</g>
<!-- b2&#45;&gt;b4 -->
<g id="edge5" class="edge">
<title>b2&#45;&gt;b4</title>
<path fill="none" stroke="black" d="M530.88,-844.86C559.65,-778.62 643.82,-602.09 764,-499 778.68,-486.41 796.33,-475.9 813.98,-467.32"/>
<polygon fill="black" stroke="black" points="815.63,-470.42 823.2,-463.01 812.66,-464.07 815.63,-470.42"/>
</g>
<!-- b5 -->
<g id="node6" class="node">
<title>b5</title>
<polygon fill="white" stroke="black" points="1038,-1207 764,-1207 764,-1155 1038,-1155 1038,-1207"/>
<text text-anchor="middle" x="901" y="-1195" font-family="Helvetica" font-size="10.00">B5</text>
<text text-anchor="middle" x="901" y="-1184" font-family="Helvetica" font-size="10.00">Loop: &lt;none&gt;</text>
<text text-anchor="middle" x="901" y="-1173" font-family="Helvetica" font-size="10.00">&#45;&#45;&#45;</text>
<text text-anchor="middle" x="901" y="-1162" font-family="Helvetica" font-size="10.00">HotSpotMethod&lt;LoopBenchmarks.parseJsonLoop(char[])&gt;</text>
</g>
<!-- b2&#45;&gt;b5 -->
<g id="edge6" class="edge">
<title>b2&#45;&gt;b5</title>
<path fill="none" stroke="black" d="M540.31,-897.28C579.24,-946.25 668.99,-1052.5 764,-1119 781.34,-1131.14 801.44,-1141.84 820.78,-1150.78"/>
<polygon fill="black" stroke="black" points="819.35,-1153.97 829.9,-1154.9 822.23,-1147.59 819.35,-1153.97"/>
</g>
<!-- b6 -->
<g id="node7" class="node">
<title>b6</title>
<polygon fill="white" stroke="black" points="1038,-1083 764,-1083 764,-1031 1038,-1031 1038,-1083"/>
<text text-anchor="middle" x="901" y="-1071" font-family="Helvetica" font-size="10.00">B6</text>
<text text-anchor="middle" x="901" y="-1060" font-family="Helvetica" font-size="10.00">Loop: &lt;none&gt;</text>
<text text-anchor="middle" x="901" y="-1049" font-family="Helvetica" font-size="10.00">&#45;&#45;&#45;</text>
<text text-anchor="middle" x="901" y="-1038" font-family="Helvetica" font-size="10.00">HotSpotMethod&lt;LoopBenchmarks.parseJsonLoop(char[])&gt;</text>
</g>
<!-- b2&#45;&gt;b6 -->
<g id="edge7" class="edge">
<title>b2&#45;&gt;b6</title>
<path fill="none" stroke="black" d="M569.69,-897.03C618.78,-922.57 696.15,-962.31 764,-995 786.09,-1005.64 810.41,-1016.88 832.29,-1026.82"/>
<polygon fill="black" stroke="black" points="830.95,-1030.05 841.51,-1030.99 833.84,-1023.68 830.95,-1030.05"/>
</g>
<!-- b7 -->
<g id="node8" class="node">
<title>b7</title>
<polygon fill="white" stroke="black" points="1038,-959 764,-959 764,-907 1038,-907 1038,-959"/>
<text text-anchor="middle" x="901" y="-947" font-family="Helvetica" font-size="10.00">B7</text>
<text text-anchor="middle" x="901" y="-936" font-family="Helvetica" font-size="10.00">Loop: &lt;none&gt;</text>
<text text-anchor="middle" x="901" y="-925" font-family="Helvetica" font-size="10.00">&#45;&#45;&#45;</text>
<text text-anchor="middle" x="901" y="-914" font-family="Helvetica" font-size="10.00">HotSpotMethod&lt;LoopBenchmarks.parseJsonLoop(char[])&gt;</text>
</g>
<!-- b2&#45;&gt;b7 -->
<g id="edge8" class="edge">
<title>b2&#45;&gt;b7</title>
<path fill="none" stroke="black" d="M656.12,-893.21C687.86,-898.39 721.8,-903.93 753.96,-909.17"/>
<polygon fill="black" stroke="black" points="753.44,-912.63 763.88,-910.79 754.57,-905.73 753.44,-912.63"/>
</g>
<!-- b8 -->
<g id="node9" class="node">
<title>b8</title>
<polygon fill="white" stroke="black" points="1038,-711 764,-711 764,-659 1038,-659 1038,-711"/>
<text text-anchor="middle" x="901" y="-699" font-family="Helvetica" font-size="10.00">B8</text>
<text text-anchor="middle" x="901" y="-688" font-family="Helvetica" font-size="10.00">Loop: &lt;none&gt;</text>
<text text-anchor="middle" x="901" y="-677" font-family="Helvetica" font-size="10.00">&#45;&#45;&#45;</text>
<text text-anchor="middle" x="901" y="-666" font-family="Helvetica" font-size="10.00">HotSpotMethod&lt;LoopBenchmarks.parseJsonLoop(char[])&gt;</text>
</g>
<!-- b2&#45;&gt;b8 -->
<g id="edge9" class="edge">
<title>b2&#45;&gt;b8</title>
<path fill="none" stroke="black" d="M569.69,-844.97C618.78,-819.43 696.15,-779.69 764,-747 786.09,-736.36 810.41,-725.12 832.29,-715.18"/>
<polygon fill="black" stroke="black" points="833.84,-718.32 841.51,-711.01 830.95,-711.95 833.84,-718.32"/>
</g>
<!-- b9 -->
<g id="node10" class="node">
<title>b9</title>
<polygon fill="white" stroke="black" points="1038,-587 764,-587 764,-535 1038,-535 1038,-587"/>
<text text-anchor="middle" x="901" y="-575" font-family="Helvetica" font-size="10.00">B9</text>
<text text-anchor="middle" x="901" y="-564" font-family="Helvetica" font-size="10.00">Loop: &lt;none&gt;</text>
<text text-anchor="middle" x="901" y="-553" font-family="Helvetica" font-size="10.00">&#45;&#45;&#45;</text>
<text text-anchor="middle" x="901" y="-542" font-family="Helvetica" font-size="10.00">HotSpotMethod&lt;LoopBenchmarks.parseJsonLoop(char[])&gt;</text>
</g>
<!-- b2&#45;&gt;b9 -->
<g id="edge10" class="edge">
<title>b2&#45;&gt;b9</title>
<path fill="none" stroke="black" d="M540.31,-844.72C579.24,-795.75 668.99,-689.5 764,-623 781.34,-610.86 801.44,-600.16 820.78,-591.22"/>
<polygon fill="black" stroke="black" points="822.23,-594.41 829.9,-587.1 819.35,-588.03 822.23,-594.41"/>
</g>
<!-- b10 -->
<g id="node11" class="node">
<title>b10</title>
<polygon fill="white" stroke="black" points="1420,-758 1146,-758 1146,-706 1420,-706 1420,-758"/>
<text text-anchor="middle" x="1283" y="-746" font-family="Helvetica" font-size="10.00">B10</text>
<text text-anchor="middle" x="1283" y="-735" font-family="Helvetica" font-size="10.00">Loop: &lt;none&gt;</text>
<text text-anchor="middle" x="1283" y="-724" font-family="Helvetica" font-size="10.00">&#45;&#45;&#45;</text>
<text text-anchor="middle" x="1283" y="-713" font-family="Helvetica" font-size="10.00">HotSpotMethod&lt;LoopBenchmarks.parseJsonLoop(char[])&gt;</text>
</g>
<!-- b4&#45;&gt;b10 -->
<g id="edge11" class="edge">
<title>b4&#45;&gt;b10</title>
<path fill="none" stroke="black" d="M970.79,-463.02C993.09,-472.83 1017.37,-485.04 1038,-499 1125.3,-558.09 1210.45,-649.26 1253.33,-698.2"/>
<polygon fill="black" stroke="black" points="1250.88,-700.72 1260.09,-705.96 1256.16,-696.12 1250.88,-700.72"/>
</g>
<!-- b5&#45;&gt;b10 -->
<g id="edge12" class="edge">
<title>b5&#45;&gt;b10</title>
<path fill="none" stroke="black" d="M979.68,-1154.87C1000.09,-1145.63 1021.1,-1133.77 1038,-1119 1155.93,-1015.98 1236.93,-842.12 1267.94,-767.62"/>
<polygon fill="black" stroke="black" points="1271.25,-768.78 1271.81,-758.2 1264.77,-766.12 1271.25,-768.78"/>
</g>
<!-- b6&#45;&gt;b10 -->
<g id="edge13" class="edge">
<title>b6&#45;&gt;b10</title>
<path fill="none" stroke="black" d="M973.05,-1030.94C994.88,-1021.3 1018.33,-1009.2 1038,-995 1130.99,-927.86 1216.46,-821.23 1257.1,-766.66"/>
<polygon fill="black" stroke="black" points="1260.11,-768.48 1263.24,-758.36 1254.48,-764.32 1260.11,-768.48"/>
</g>
<!-- b7&#45;&gt;b10 -->
<g id="edge14" class="edge">
<title>b7&#45;&gt;b10</title>
<path fill="none" stroke="black" d="M962.14,-906.99C985.99,-896.31 1013.51,-883.53 1038,-871 1105.63,-836.41 1181.31,-792.44 1230.2,-763.32"/>
<polygon fill="black" stroke="black" points="1232.22,-766.19 1239.01,-758.06 1228.63,-760.18 1232.22,-766.19"/>
</g>
<!-- b8&#45;&gt;b10 -->
<g id="edge15" class="edge">
<title>b8&#45;&gt;b10</title>
<path fill="none" stroke="black" d="M1038.12,-701.84C1069.73,-705.75 1103.51,-709.92 1135.54,-713.89"/>
<polygon fill="black" stroke="black" points="1135.52,-717.41 1145.88,-715.16 1136.38,-710.46 1135.52,-717.41"/>
</g>
<!-- b9&#45;&gt;b10 -->
<g id="edge16" class="edge">
<title>b9&#45;&gt;b10</title>
<path fill="none" stroke="black" d="M960.13,-587.16C1028.67,-618 1142.41,-669.18 1214.71,-701.72"/>
<polygon fill="black" stroke="black" points="1213.64,-705.07 1224.19,-705.99 1216.51,-698.69 1213.64,-705.07"/>
</g>
<!-- b12 -->
<g id="node13" class="node">
<title>b12</title>
<polygon fill="white" stroke="black" points="1802,-805 1528,-805 1528,-753 1802,-753 1802,-805"/>
<text text-anchor="middle" x="1665" y="-793" font-family="Helvetica" font-size="10.00">B12</text>
<text text-anchor="middle" x="1665" y="-782" font-family="Helvetica" font-size="10.00">Loop: &lt;none&gt;</text>
<text text-anchor="middle" x="1665" y="-771" font-family="Helvetica" font-size="10.00">&#45;&#45;&#45;</text>
<text text-anchor="middle" x="1665" y="-760" font-family="Helvetica" font-size="10.00">HotSpotMethod&lt;LoopBenchmarks.parseJsonLoop(char[])&gt;</text>
</g>
<!-- b10&#45;&gt;b12 -->
<g id="edge18" class="edge">
<title>b10&#45;&gt;b12</title>
<path fill="none" stroke="black" d="M1420.12,-748.84C1451.73,-752.75 1485.51,-756.92 1517.54,-760.89"/>
<polygon fill="black" stroke="black" points="1517.52,-764.41 1527.88,-762.16 1518.38,-757.46 1517.52,-764.41"/>
</g>
<!-- b14 -->
<g id="node15" class="node">
<title>b14</title>
<polygon fill="white" stroke="black" stroke-width="4" points="2188,-619.5 1914,-619.5 1914,-534.5 2188,-534.5 2188,-619.5"/>
<polygon fill="none" stroke="black" stroke-width="4" points="2192,-623.5 1910,-623.5 1910,-530.5 2192,-530.5 2192,-623.5"/>
<text text-anchor="middle" x="2051" y="-607.5" font-family="Helvetica" font-size="10.00">B14</text>
<text text-anchor="middle" x="2051" y="-596.5" font-family="Helvetica" font-size="10.00">Loop: &lt;none&gt;</text>
<text text-anchor="middle" x="2051" y="-585.5" font-family="Helvetica" font-size="10.00">&#45;&#45;&#45;</text>
<text text-anchor="middle" x="2051" y="-574.5" font-family="Helvetica" font-size="10.00">HotSpotMethod&lt;LoopBenchmarks.parseJsonLoop(char[])&gt;</text>
<text text-anchor="middle" x="2051" y="-563.5" font-family="Helvetica" font-size="10.00">&#45;&#45;&#45;</text>
<text text-anchor="middle" x="2051" y="-552.5" font-family="Helvetica" font-size="10.00">BuboLoopMakers:</text>
<text text-anchor="middle" x="2051" y="-541.5" font-family="Helvetica" font-size="10.00"> &#160;AMD64BuboRDTSCToSlot (LoopID=0)</text>
</g>
<!-- b10&#45;&gt;b14 -->
<g id="edge17" class="edge">
<title>b10&#45;&gt;b14</title>
<path fill="none" stroke="black" d="M1317.16,-706C1362.01,-672.58 1445.87,-616.1 1528,-593 1649.76,-558.75 1793.82,-557.07 1899.72,-562.64"/>
<polygon fill="black" stroke="black" points="1899.67,-566.15 1909.85,-563.21 1900.06,-559.16 1899.67,-566.15"/>
</g>
<!-- b11 -->
<g id="node12" class="node">
<title>b11</title>
<polygon fill="white" stroke="black" points="1802,-411 1528,-411 1528,-359 1802,-359 1802,-411"/>
<text text-anchor="middle" x="1665" y="-399" font-family="Helvetica" font-size="10.00">B11</text>
<text text-anchor="middle" x="1665" y="-388" font-family="Helvetica" font-size="10.00">Loop: &lt;none&gt;</text>
<text text-anchor="middle" x="1665" y="-377" font-family="Helvetica" font-size="10.00">&#45;&#45;&#45;</text>
<text text-anchor="middle" x="1665" y="-366" font-family="Helvetica" font-size="10.00">HotSpotMethod&lt;LoopBenchmarks.parseJsonLoop(char[])&gt;</text>
</g>
<!-- b11&#45;&gt;b14 -->
<g id="edge19" class="edge">
<title>b11&#45;&gt;b14</title>
<path fill="none" stroke="black" d="M1718.19,-411.09C1776.89,-440.44 1873.67,-488.84 1947.6,-525.8"/>
<polygon fill="black" stroke="black" points="1946.45,-529.14 1956.96,-530.48 1949.58,-522.88 1946.45,-529.14"/>
</g>
<!-- b12&#45;&gt;b14 -->
<g id="edge20" class="edge">
<title>b12&#45;&gt;b14</title>
<path fill="none" stroke="black" d="M1726.11,-752.94C1749.96,-742.25 1777.49,-729.48 1802,-717 1856.34,-689.34 1915.88,-655.84 1963,-628.55"/>
<polygon fill="black" stroke="black" points="1964.75,-631.57 1971.64,-623.52 1961.24,-625.52 1964.75,-631.57"/>
</g>
<!-- b30 -->
<g id="node31" class="node">
<title>b30</title>
<polygon fill="white" stroke="black" points="2188,-805 1914,-805 1914,-753 2188,-753 2188,-805"/>
<text text-anchor="middle" x="2051" y="-793" font-family="Helvetica" font-size="10.00">B30</text>
<text text-anchor="middle" x="2051" y="-782" font-family="Helvetica" font-size="10.00">Loop: &lt;none&gt;</text>
<text text-anchor="middle" x="2051" y="-771" font-family="Helvetica" font-size="10.00">&#45;&#45;&#45;</text>
<text text-anchor="middle" x="2051" y="-760" font-family="Helvetica" font-size="10.00">HotSpotMethod&lt;LoopBenchmarks.parseJsonLoop(char[])&gt;</text>
</g>
<!-- b12&#45;&gt;b30 -->
<g id="edge21" class="edge">
<title>b12&#45;&gt;b30</title>
<path fill="none" stroke="black" d="M1802.19,-779C1835.03,-779 1870.25,-779 1903.53,-779"/>
<polygon fill="black" stroke="black" points="1903.79,-782.5 1913.79,-779 1903.79,-775.5 1903.79,-782.5"/>
</g>
<!-- b13 -->
<g id="node14" class="node">
<title>b13</title>
<polygon fill="white" stroke="black" points="1802,-681 1528,-681 1528,-629 1802,-629 1802,-681"/>
<text text-anchor="middle" x="1665" y="-669" font-family="Helvetica" font-size="10.00">B13</text>
<text text-anchor="middle" x="1665" y="-658" font-family="Helvetica" font-size="10.00">Loop: &lt;none&gt;</text>
<text text-anchor="middle" x="1665" y="-647" font-family="Helvetica" font-size="10.00">&#45;&#45;&#45;</text>
<text text-anchor="middle" x="1665" y="-636" font-family="Helvetica" font-size="10.00">HotSpotMethod&lt;LoopBenchmarks.parseJsonLoop(char[])&gt;</text>
</g>
<!-- b13&#45;&gt;b14 -->
<g id="edge22" class="edge">
<title>b13&#45;&gt;b14</title>
<path fill="none" stroke="black" d="M1794.13,-628.97C1828.12,-622.07 1865.13,-614.55 1900.16,-607.44"/>
<polygon fill="black" stroke="black" points="1900.89,-610.86 1909.99,-605.44 1899.49,-604 1900.89,-610.86"/>
</g>
<!-- b15 -->
<g id="node16" class="node">
<title>b15</title>
<polygon fill="lightblue" stroke="black" points="2574,-603 2300,-603 2300,-551 2574,-551 2574,-603"/>
<text text-anchor="middle" x="2437" y="-591" font-family="Helvetica" font-size="10.00">B15</text>
<text text-anchor="middle" x="2437" y="-580" font-family="Helvetica" font-size="10.00">Loop: L0</text>
<text text-anchor="middle" x="2437" y="-569" font-family="Helvetica" font-size="10.00">&#45;&#45;&#45;</text>
<text text-anchor="middle" x="2437" y="-558" font-family="Helvetica" font-size="10.00">HotSpotMethod&lt;LoopBenchmarks.parseJsonLoop(char[])&gt;</text>
</g>
<!-- b14&#45;&gt;b15 -->
<g id="edge23" class="edge">
<title>b14&#45;&gt;b15</title>
<path fill="none" stroke="black" d="M2192.26,-577C2223.97,-577 2257.71,-577 2289.66,-577"/>
<polygon fill="black" stroke="black" points="2289.96,-580.5 2299.96,-577 2289.96,-573.5 2289.96,-580.5"/>
</g>
<!-- b16 -->
<g id="node17" class="node">
<title>b16</title>
<polygon fill="lightblue" stroke="black" points="2960,-603 2686,-603 2686,-551 2960,-551 2960,-603"/>
<text text-anchor="middle" x="2823" y="-591" font-family="Helvetica" font-size="10.00">B16</text>
<text text-anchor="middle" x="2823" y="-580" font-family="Helvetica" font-size="10.00">Loop: L0</text>
<text text-anchor="middle" x="2823" y="-569" font-family="Helvetica" font-size="10.00">&#45;&#45;&#45;</text>
<text text-anchor="middle" x="2823" y="-558" font-family="Helvetica" font-size="10.00">HotSpotMethod&lt;LoopBenchmarks.parseJsonLoop(char[])&gt;</text>
</g>
<!-- b15&#45;&gt;b16 -->
<g id="edge24" class="edge">
<title>b15&#45;&gt;b16</title>
<path fill="none" stroke="black" d="M2574.19,-577C2607.03,-577 2642.25,-577 2675.53,-577"/>
<polygon fill="black" stroke="black" points="2675.79,-580.5 2685.79,-577 2675.79,-573.5 2675.79,-580.5"/>
</g>
<!-- b28 -->
<g id="node29" class="node">
<title>b28</title>
<polygon fill="white" stroke="black" stroke-width="4" points="2960,-1202.5 2686,-1202.5 2686,-1117.5 2960,-1117.5 2960,-1202.5"/>
<polygon fill="none" stroke="black" stroke-width="4" points="2964,-1206.5 2682,-1206.5 2682,-1113.5 2964,-1113.5 2964,-1206.5"/>
<text text-anchor="middle" x="2823" y="-1190.5" font-family="Helvetica" font-size="10.00">B28</text>
<text text-anchor="middle" x="2823" y="-1179.5" font-family="Helvetica" font-size="10.00">Loop: &lt;none&gt;</text>
<text text-anchor="middle" x="2823" y="-1168.5" font-family="Helvetica" font-size="10.00">&#45;&#45;&#45;</text>
<text text-anchor="middle" x="2823" y="-1157.5" font-family="Helvetica" font-size="10.00">HotSpotMethod&lt;LoopBenchmarks.parseJsonLoop(char[])&gt;</text>
<text text-anchor="middle" x="2823" y="-1146.5" font-family="Helvetica" font-size="10.00">&#45;&#45;&#45;</text>
<text text-anchor="middle" x="2823" y="-1135.5" font-family="Helvetica" font-size="10.00">BuboLoopMakers:</text>
<text text-anchor="middle" x="2823" y="-1124.5" font-family="Helvetica" font-size="10.00"> &#160;AMD64BuboWriteDeltaRDTSC (LoopID=0)</text>
</g>
<!-- b15&#45;&gt;b28 -->
<g id="edge25" class="edge">
<title>b15&#45;&gt;b28</title>
<path fill="none" stroke="black" d="M2446.23,-603.04C2471.43,-679.76 2553.72,-908.92 2682,-1059 2697.25,-1076.84 2716.27,-1093.22 2735.33,-1107.36"/>
<polygon fill="black" stroke="black" points="2733.34,-1110.24 2743.49,-1113.28 2737.45,-1104.57 2733.34,-1110.24"/>
</g>
<!-- b17 -->
<g id="node18" class="node">
<title>b17</title>
<polygon fill="lightblue" stroke="black" points="3346,-473 3072,-473 3072,-421 3346,-421 3346,-473"/>
<text text-anchor="middle" x="3209" y="-461" font-family="Helvetica" font-size="10.00">B17</text>
<text text-anchor="middle" x="3209" y="-450" font-family="Helvetica" font-size="10.00">Loop: L0</text>
<text text-anchor="middle" x="3209" y="-439" font-family="Helvetica" font-size="10.00">&#45;&#45;&#45;</text>
<text text-anchor="middle" x="3209" y="-428" font-family="Helvetica" font-size="10.00">HotSpotMethod&lt;LoopBenchmarks.parseJsonLoop(char[])&gt;</text>
</g>
<!-- b16&#45;&gt;b17 -->
<g id="edge26" class="edge">
<title>b16&#45;&gt;b17</title>
<path fill="none" stroke="black" d="M2901.25,-550.85C2964.91,-529.29 3055.17,-498.74 3121.3,-476.35"/>
<polygon fill="black" stroke="black" points="3122.53,-479.63 3130.88,-473.11 3120.28,-473 3122.53,-479.63"/>
</g>
<!-- b18 -->
<g id="node19" class="node">
<title>b18</title>
<polygon fill="lightblue" stroke="black" points="3346,-603 3072,-603 3072,-551 3346,-551 3346,-603"/>
<text text-anchor="middle" x="3209" y="-591" font-family="Helvetica" font-size="10.00">B18</text>
<text text-anchor="middle" x="3209" y="-580" font-family="Helvetica" font-size="10.00">Loop: L0</text>
<text text-anchor="middle" x="3209" y="-569" font-family="Helvetica" font-size="10.00">&#45;&#45;&#45;</text>
<text text-anchor="middle" x="3209" y="-558" font-family="Helvetica" font-size="10.00">HotSpotMethod&lt;LoopBenchmarks.parseJsonLoop(char[])&gt;</text>
</g>
<!-- b16&#45;&gt;b18 -->
<g id="edge27" class="edge">
<title>b16&#45;&gt;b18</title>
<path fill="none" stroke="black" d="M2960.19,-577C2993.03,-577 3028.25,-577 3061.53,-577"/>
<polygon fill="black" stroke="black" points="3061.79,-580.5 3071.79,-577 3061.79,-573.5 3061.79,-580.5"/>
</g>
<!-- b17&#45;&gt;b15 -->
<g id="edge28" class="edge">
<title>b17&#45;&gt;b15</title>
<path fill="none" stroke="black" d="M3071.88,-460.05C2965.26,-471.37 2813.48,-489.89 2682,-515 2634.7,-524.03 2582.93,-536.77 2539.28,-548.36"/>
<polygon fill="black" stroke="black" points="2538.29,-545 2529.53,-550.96 2540.09,-551.76 2538.29,-545"/>
</g>
<!-- b19 -->
<g id="node20" class="node">
<title>b19</title>
<polygon fill="white" stroke="black" points="3728,-479 3454,-479 3454,-427 3728,-427 3728,-479"/>
<text text-anchor="middle" x="3591" y="-467" font-family="Helvetica" font-size="10.00">B19</text>
<text text-anchor="middle" x="3591" y="-456" font-family="Helvetica" font-size="10.00">Loop: &lt;none&gt;</text>
<text text-anchor="middle" x="3591" y="-445" font-family="Helvetica" font-size="10.00">&#45;&#45;&#45;</text>
<text text-anchor="middle" x="3591" y="-434" font-family="Helvetica" font-size="10.00">HotSpotMethod&lt;LoopBenchmarks.parseJsonLoop(char[])&gt;</text>
</g>
<!-- b18&#45;&gt;b19 -->
<g id="edge29" class="edge">
<title>b18&#45;&gt;b19</title>
<path fill="none" stroke="black" d="M3290.12,-550.85C3351.74,-530.75 3436.85,-502.98 3500.66,-482.15"/>
<polygon fill="black" stroke="black" points="3501.89,-485.43 3510.31,-479 3499.72,-478.78 3501.89,-485.43"/>
</g>
<!-- b20 -->
<g id="node21" class="node">
<title>b20</title>
<polygon fill="lightblue" stroke="black" points="3728,-603 3454,-603 3454,-551 3728,-551 3728,-603"/>
<text text-anchor="middle" x="3591" y="-591" font-family="Helvetica" font-size="10.00">B20</text>
<text text-anchor="middle" x="3591" y="-580" font-family="Helvetica" font-size="10.00">Loop: L0</text>
<text text-anchor="middle" x="3591" y="-569" font-family="Helvetica" font-size="10.00">&#45;&#45;&#45;</text>
<text text-anchor="middle" x="3591" y="-558" font-family="Helvetica" font-size="10.00">HotSpotMethod&lt;LoopBenchmarks.parseJsonLoop(char[])&gt;</text>
</g>
<!-- b18&#45;&gt;b20 -->
<g id="edge30" class="edge">
<title>b18&#45;&gt;b20</title>
<path fill="none" stroke="black" d="M3346.12,-577C3377.73,-577 3411.51,-577 3443.54,-577"/>
<polygon fill="black" stroke="black" points="3443.88,-580.5 3453.88,-577 3443.88,-573.5 3443.88,-580.5"/>
</g>
<!-- b21 -->
<g id="node22" class="node">
<title>b21</title>
<polygon fill="lightblue" stroke="black" points="4110,-468 3836,-468 3836,-416 4110,-416 4110,-468"/>
<text text-anchor="middle" x="3973" y="-456" font-family="Helvetica" font-size="10.00">B21</text>
<text text-anchor="middle" x="3973" y="-445" font-family="Helvetica" font-size="10.00">Loop: L0</text>
<text text-anchor="middle" x="3973" y="-434" font-family="Helvetica" font-size="10.00">&#45;&#45;&#45;</text>
<text text-anchor="middle" x="3973" y="-423" font-family="Helvetica" font-size="10.00">HotSpotMethod&lt;LoopBenchmarks.parseJsonLoop(char[])&gt;</text>
</g>
<!-- b20&#45;&gt;b21 -->
<g id="edge31" class="edge">
<title>b20&#45;&gt;b21</title>
<path fill="none" stroke="black" d="M3665.27,-550.97C3729.3,-528.22 3822.21,-495.21 3888.98,-471.49"/>
<polygon fill="black" stroke="black" points="3890.38,-474.71 3898.63,-468.06 3888.04,-468.11 3890.38,-474.71"/>
</g>
<!-- b27 -->
<g id="node28" class="node">
<title>b27</title>
<polygon fill="lightblue" stroke="black" points="4110,-670 3836,-670 3836,-618 4110,-618 4110,-670"/>
<text text-anchor="middle" x="3973" y="-658" font-family="Helvetica" font-size="10.00">B27</text>
<text text-anchor="middle" x="3973" y="-647" font-family="Helvetica" font-size="10.00">Loop: L0</text>
<text text-anchor="middle" x="3973" y="-636" font-family="Helvetica" font-size="10.00">&#45;&#45;&#45;</text>
<text text-anchor="middle" x="3973" y="-625" font-family="Helvetica" font-size="10.00">HotSpotMethod&lt;LoopBenchmarks.parseJsonLoop(char[])&gt;</text>
</g>
<!-- b20&#45;&gt;b27 -->
<g id="edge32" class="edge">
<title>b20&#45;&gt;b27</title>
<path fill="none" stroke="black" d="M3728.12,-601C3759.86,-606.6 3793.8,-612.58 3825.96,-618.25"/>
<polygon fill="black" stroke="black" points="3825.42,-621.71 3835.88,-620 3826.64,-614.82 3825.42,-621.71"/>
</g>
<!-- b22 -->
<g id="node23" class="node">
<title>b22</title>
<polygon fill="lightblue" stroke="black" points="4492,-187 4218,-187 4218,-135 4492,-135 4492,-187"/>
<text text-anchor="middle" x="4355" y="-175" font-family="Helvetica" font-size="10.00">B22</text>
<text text-anchor="middle" x="4355" y="-164" font-family="Helvetica" font-size="10.00">Loop: L0</text>
<text text-anchor="middle" x="4355" y="-153" font-family="Helvetica" font-size="10.00">&#45;&#45;&#45;</text>
<text text-anchor="middle" x="4355" y="-142" font-family="Helvetica" font-size="10.00">HotSpotMethod&lt;LoopBenchmarks.parseJsonLoop(char[])&gt;</text>
</g>
<!-- b21&#45;&gt;b22 -->
<g id="edge33" class="edge">
<title>b21&#45;&gt;b22</title>
<path fill="none" stroke="black" d="M4009.41,-415.82C4079.22,-364.19 4234.42,-249.43 4310.4,-193.24"/>
<polygon fill="black" stroke="black" points="4312.86,-195.78 4318.82,-187.02 4308.7,-190.15 4312.86,-195.78"/>
</g>
<!-- b23 -->
<g id="node24" class="node">
<title>b23</title>
<polygon fill="lightblue" stroke="black" points="4492,-52 4218,-52 4218,0 4492,0 4492,-52"/>
<text text-anchor="middle" x="4355" y="-40" font-family="Helvetica" font-size="10.00">B23</text>
<text text-anchor="middle" x="4355" y="-29" font-family="Helvetica" font-size="10.00">Loop: L0</text>
<text text-anchor="middle" x="4355" y="-18" font-family="Helvetica" font-size="10.00">&#45;&#45;&#45;</text>
<text text-anchor="middle" x="4355" y="-7" font-family="Helvetica" font-size="10.00">HotSpotMethod&lt;LoopBenchmarks.parseJsonLoop(char[])&gt;</text>
</g>
<!-- b21&#45;&gt;b23 -->
<g id="edge34" class="edge">
<title>b21&#45;&gt;b23</title>
<path fill="none" stroke="black" d="M3987.21,-415.68C4019.37,-353.74 4107.27,-196.62 4218,-99 4236.9,-82.33 4260.27,-68.06 4282.27,-56.67"/>
<polygon fill="black" stroke="black" points="4283.92,-59.76 4291.27,-52.13 4280.77,-53.51 4283.92,-59.76"/>
</g>
<!-- b24 -->
<g id="node25" class="node">
<title>b24</title>
<polygon fill="lightblue" stroke="black" points="4492,-923 4218,-923 4218,-871 4492,-871 4492,-923"/>
<text text-anchor="middle" x="4355" y="-911" font-family="Helvetica" font-size="10.00">B24</text>
<text text-anchor="middle" x="4355" y="-900" font-family="Helvetica" font-size="10.00">Loop: L0</text>
<text text-anchor="middle" x="4355" y="-889" font-family="Helvetica" font-size="10.00">&#45;&#45;&#45;</text>
<text text-anchor="middle" x="4355" y="-878" font-family="Helvetica" font-size="10.00">HotSpotMethod&lt;LoopBenchmarks.parseJsonLoop(char[])&gt;</text>
</g>
<!-- b21&#45;&gt;b24 -->
<g id="edge35" class="edge">
<title>b21&#45;&gt;b24</title>
<path fill="none" stroke="black" d="M4001.25,-468.25C4029.39,-495.77 4074.12,-540.68 4110,-582 4195.15,-680.08 4286.66,-803.74 4329.39,-862.7"/>
<polygon fill="black" stroke="black" points="4326.63,-864.86 4335.33,-870.91 4332.31,-860.76 4326.63,-864.86"/>
</g>
<!-- b25 -->
<g id="node26" class="node">
<title>b25</title>
<polygon fill="lightblue" stroke="black" points="4492,-575 4218,-575 4218,-523 4492,-523 4492,-575"/>
<text text-anchor="middle" x="4355" y="-563" font-family="Helvetica" font-size="10.00">B25</text>
<text text-anchor="middle" x="4355" y="-552" font-family="Helvetica" font-size="10.00">Loop: L0</text>
<text text-anchor="middle" x="4355" y="-541" font-family="Helvetica" font-size="10.00">&#45;&#45;&#45;</text>
<text text-anchor="middle" x="4355" y="-530" font-family="Helvetica" font-size="10.00">HotSpotMethod&lt;LoopBenchmarks.parseJsonLoop(char[])&gt;</text>
</g>
<!-- b21&#45;&gt;b25 -->
<g id="edge36" class="edge">
<title>b21&#45;&gt;b25</title>
<path fill="none" stroke="black" d="M4066.47,-468.04C4122.44,-483.8 4193.9,-503.92 4251.58,-520.16"/>
<polygon fill="black" stroke="black" points="4250.87,-523.6 4261.44,-522.94 4252.77,-516.86 4250.87,-523.6"/>
</g>
<!-- b26 -->
<g id="node27" class="node">
<title>b26</title>
<polygon fill="lightblue" stroke="black" points="4492,-386 4218,-386 4218,-334 4492,-334 4492,-386"/>
<text text-anchor="middle" x="4355" y="-374" font-family="Helvetica" font-size="10.00">B26</text>
<text text-anchor="middle" x="4355" y="-363" font-family="Helvetica" font-size="10.00">Loop: L0</text>
<text text-anchor="middle" x="4355" y="-352" font-family="Helvetica" font-size="10.00">&#45;&#45;&#45;</text>
<text text-anchor="middle" x="4355" y="-341" font-family="Helvetica" font-size="10.00">HotSpotMethod&lt;LoopBenchmarks.parseJsonLoop(char[])&gt;</text>
</g>
<!-- b21&#45;&gt;b26 -->
<g id="edge37" class="edge">
<title>b21&#45;&gt;b26</title>
<path fill="none" stroke="black" d="M4094.5,-416C4135.55,-407.14 4181.63,-397.2 4223.43,-388.18"/>
<polygon fill="black" stroke="black" points="4224.36,-391.55 4233.4,-386.02 4222.89,-384.71 4224.36,-391.55"/>
</g>
<!-- b22&#45;&gt;b15 -->
<g id="edge38" class="edge">
<title>b22&#45;&gt;b15</title>
<path fill="none" stroke="black" d="M4217.74,-157.85C4065.29,-154.6 3810.97,-150 3592,-150 3208,-150 3208,-150 3208,-150 2962.45,-150 2889.77,-188.14 2682,-319 2585.44,-379.82 2500.96,-487.57 2461.56,-542.59"/>
<polygon fill="black" stroke="black" points="2458.56,-540.77 2455.63,-550.95 2464.27,-544.82 2458.56,-540.77"/>
</g>
<!-- b23&#45;&gt;b15 -->
<g id="edge39" class="edge">
<title>b23&#45;&gt;b15</title>
<path fill="none" stroke="black" d="M4217.76,-19.7C4065.34,-13.19 3811.03,-4 3592,-4 3208,-4 3208,-4 3208,-4 2964.28,-4 2873.86,-8.71 2682,-159 2549.42,-262.86 2474.87,-460.31 2448.76,-541.14"/>
<polygon fill="black" stroke="black" points="2445.36,-540.27 2445.67,-550.86 2452.04,-542.39 2445.36,-540.27"/>
</g>
<!-- b24&#45;&gt;b15 -->
<g id="edge40" class="edge">
<title>b24&#45;&gt;b15</title>
<path fill="none" stroke="black" d="M4240.45,-923.04C4092.16,-954.71 3824.11,-1004 3592,-1004 3208,-1004 3208,-1004 3208,-1004 2960.62,-1004 2891.55,-953.46 2682,-822 2588.84,-763.56 2504.06,-663.29 2463.37,-610.99"/>
<polygon fill="black" stroke="black" points="2466.11,-608.8 2457.23,-603.02 2460.56,-613.08 2466.11,-608.8"/>
</g>
<!-- b25&#45;&gt;b15 -->
<g id="edge41" class="edge">
<title>b25&#45;&gt;b15</title>
<path fill="none" stroke="black" d="M4320.26,-575.2C4274.76,-609.45 4190.18,-669.37 4110,-706 3891.77,-805.71 3831.93,-858 3592,-858 3208,-858 3208,-858 3208,-858 2919.58,-858 2605.21,-681.87 2486.76,-608.49"/>
<polygon fill="black" stroke="black" points="2488.58,-605.5 2478.24,-603.18 2484.88,-611.44 2488.58,-605.5"/>
</g>
<!-- b26&#45;&gt;b15 -->
<g id="edge42" class="edge">
<title>b26&#45;&gt;b15</title>
<path fill="none" stroke="black" d="M4217.67,-341.62C4065.43,-322.71 3811.55,-296 3592,-296 3208,-296 3208,-296 3208,-296 2919.58,-296 2605.21,-472.13 2486.76,-545.51"/>
<polygon fill="black" stroke="black" points="2484.88,-542.56 2478.24,-550.82 2488.58,-548.5 2484.88,-542.56"/>
</g>
<!-- b27&#45;&gt;b15 -->
<g id="edge43" class="edge">
<title>b27&#45;&gt;b15</title>
<path fill="none" stroke="black" d="M3835.71,-654.36C3599.6,-669.88 3099.69,-692.06 2682,-639 2630.7,-632.48 2574.7,-618.75 2529.3,-605.86"/>
<polygon fill="black" stroke="black" points="2530.06,-602.43 2519.48,-603.03 2528.13,-609.16 2530.06,-602.43"/>
</g>
<!-- b28&#45;&gt;b29 -->
<g id="edge44" class="edge">
<title>b28&#45;&gt;b29</title>
<path fill="none" stroke="black" d="M2964.26,-1188.49C2998.68,-1195.48 3035.49,-1202.96 3069.81,-1209.93"/>
<polygon fill="black" stroke="black" points="3069.4,-1213.42 3079.9,-1211.98 3070.8,-1206.56 3069.4,-1213.42"/>
</g>
</g>
</svg>
