<?xml version="1.0" encoding="UTF-8" standalone="no"?>
<!DOCTYPE svg PUBLIC "-//W3C//DTD SVG 1.1//EN"
 "http://www.w3.org/Graphics/SVG/1.1/DTD/svg11.dtd">
<!-- Generated by graphviz version 2.44.0 (0)
 -->
<!-- Title: CFG_132 Pages: 1 -->
<svg width="6962pt" height="1305pt"
 viewBox="0.00 0.00 6962.00 1305.00" xmlns="http://www.w3.org/2000/svg" xmlns:xlink="http://www.w3.org/1999/xlink">
<g id="graph0" class="graph" transform="scale(1 1) rotate(0) translate(4 1301)">
<title>CFG_132</title>
<polygon fill="white" stroke="transparent" points="-4,4 -4,-1301 6958,-1301 6958,4 -4,4"/>
<text text-anchor="middle" x="242.5" y="-1277" font-family="Times-Roman" font-size="20.00">196&#45;LoopBenchmarks.sieveLoop(boolean[], int)</text>
<!-- b0 -->
<g id="node1" class="node">
<title>b0</title>
<polygon fill="white" stroke="black" points="283,-1199 0,-1199 0,-1147 283,-1147 283,-1199"/>
<text text-anchor="middle" x="141.5" y="-1187" font-family="Helvetica" font-size="10.00">B0</text>
<text text-anchor="middle" x="141.5" y="-1176" font-family="Helvetica" font-size="10.00">Loop: &lt;none&gt;</text>
<text text-anchor="middle" x="141.5" y="-1165" font-family="Helvetica" font-size="10.00">&#45;&#45;&#45;</text>
<text text-anchor="middle" x="141.5" y="-1154" font-family="Helvetica" font-size="10.00">HotSpotMethod&lt;LoopBenchmarks.sieveLoop(boolean[], int)&gt;</text>
</g>
<!-- b1 -->
<g id="node2" class="node">
<title>b1</title>
<polygon fill="white" stroke="black" points="674,-1261 391,-1261 391,-1209 674,-1209 674,-1261"/>
<text text-anchor="middle" x="532.5" y="-1249" font-family="Helvetica" font-size="10.00">B1</text>
<text text-anchor="middle" x="532.5" y="-1238" font-family="Helvetica" font-size="10.00">Loop: &lt;none&gt;</text>
<text text-anchor="middle" x="532.5" y="-1227" font-family="Helvetica" font-size="10.00">&#45;&#45;&#45;</text>
<text text-anchor="middle" x="532.5" y="-1216" font-family="Helvetica" font-size="10.00">HotSpotMethod&lt;LoopBenchmarks.sieveLoop(boolean[], int)&gt;</text>
</g>
<!-- b0&#45;&gt;b1 -->
<g id="edge1" class="edge">
<title>b0&#45;&gt;b1</title>
<path fill="none" stroke="black" d="M283.21,-1195.43C314.95,-1200.49 348.76,-1205.88 380.89,-1211"/>
<polygon fill="black" stroke="black" points="380.38,-1214.46 390.8,-1212.58 381.48,-1207.54 380.38,-1214.46"/>
</g>
<!-- b2 -->
<g id="node3" class="node">
<title>b2</title>
<polygon fill="white" stroke="black" points="674,-1137 391,-1137 391,-1085 674,-1085 674,-1137"/>
<text text-anchor="middle" x="532.5" y="-1125" font-family="Helvetica" font-size="10.00">B2</text>
<text text-anchor="middle" x="532.5" y="-1114" font-family="Helvetica" font-size="10.00">Loop: &lt;none&gt;</text>
<text text-anchor="middle" x="532.5" y="-1103" font-family="Helvetica" font-size="10.00">&#45;&#45;&#45;</text>
<text text-anchor="middle" x="532.5" y="-1092" font-family="Helvetica" font-size="10.00">HotSpotMethod&lt;LoopBenchmarks.sieveLoop(boolean[], int)&gt;</text>
</g>
<!-- b0&#45;&gt;b2 -->
<g id="edge2" class="edge">
<title>b0&#45;&gt;b2</title>
<path fill="none" stroke="black" d="M283.21,-1150.57C314.95,-1145.51 348.76,-1140.12 380.89,-1135"/>
<polygon fill="black" stroke="black" points="381.48,-1138.46 390.8,-1133.42 380.38,-1131.54 381.48,-1138.46"/>
</g>
<!-- b3 -->
<g id="node4" class="node">
<title>b3</title>
<polygon fill="white" stroke="black" points="1065,-1199 782,-1199 782,-1147 1065,-1147 1065,-1199"/>
<text text-anchor="middle" x="923.5" y="-1187" font-family="Helvetica" font-size="10.00">B3</text>
<text text-anchor="middle" x="923.5" y="-1176" font-family="Helvetica" font-size="10.00">Loop: &lt;none&gt;</text>
<text text-anchor="middle" x="923.5" y="-1165" font-family="Helvetica" font-size="10.00">&#45;&#45;&#45;</text>
<text text-anchor="middle" x="923.5" y="-1154" font-family="Helvetica" font-size="10.00">HotSpotMethod&lt;LoopBenchmarks.sieveLoop(boolean[], int)&gt;</text>
</g>
<!-- b1&#45;&gt;b3 -->
<g id="edge3" class="edge">
<title>b1&#45;&gt;b3</title>
<path fill="none" stroke="black" d="M674.21,-1212.57C705.95,-1207.51 739.76,-1202.12 771.89,-1197"/>
<polygon fill="black" stroke="black" points="772.48,-1200.46 781.8,-1195.42 771.38,-1193.54 772.48,-1200.46"/>
</g>
<!-- b2&#45;&gt;b3 -->
<g id="edge4" class="edge">
<title>b2&#45;&gt;b3</title>
<path fill="none" stroke="black" d="M674.21,-1133.43C705.95,-1138.49 739.76,-1143.88 771.89,-1149"/>
<polygon fill="black" stroke="black" points="771.38,-1152.46 781.8,-1150.58 772.48,-1145.54 771.38,-1152.46"/>
</g>
<!-- b5 -->
<g id="node6" class="node">
<title>b5</title>
<polygon fill="white" stroke="black" points="1456,-1267 1173,-1267 1173,-1215 1456,-1215 1456,-1267"/>
<text text-anchor="middle" x="1314.5" y="-1255" font-family="Helvetica" font-size="10.00">B5</text>
<text text-anchor="middle" x="1314.5" y="-1244" font-family="Helvetica" font-size="10.00">Loop: &lt;none&gt;</text>
<text text-anchor="middle" x="1314.5" y="-1233" font-family="Helvetica" font-size="10.00">&#45;&#45;&#45;</text>
<text text-anchor="middle" x="1314.5" y="-1222" font-family="Helvetica" font-size="10.00">HotSpotMethod&lt;LoopBenchmarks.sieveLoop(boolean[], int)&gt;</text>
</g>
<!-- b3&#45;&gt;b5 -->
<g id="edge6" class="edge">
<title>b3&#45;&gt;b5</title>
<path fill="none" stroke="black" d="M1065.21,-1197.6C1096.95,-1203.15 1130.76,-1209.06 1162.89,-1214.67"/>
<polygon fill="black" stroke="black" points="1162.35,-1218.13 1172.8,-1216.41 1163.56,-1211.24 1162.35,-1218.13"/>
</g>
<!-- b7 -->
<g id="node8" class="node">
<title>b7</title>
<polygon fill="white" stroke="black" points="1847,-1056 1564,-1056 1564,-1004 1847,-1004 1847,-1056"/>
<text text-anchor="middle" x="1705.5" y="-1044" font-family="Helvetica" font-size="10.00">B7</text>
<text text-anchor="middle" x="1705.5" y="-1033" font-family="Helvetica" font-size="10.00">Loop: &lt;none&gt;</text>
<text text-anchor="middle" x="1705.5" y="-1022" font-family="Helvetica" font-size="10.00">&#45;&#45;&#45;</text>
<text text-anchor="middle" x="1705.5" y="-1011" font-family="Helvetica" font-size="10.00">HotSpotMethod&lt;LoopBenchmarks.sieveLoop(boolean[], int)&gt;</text>
</g>
<!-- b3&#45;&gt;b7 -->
<g id="edge5" class="edge">
<title>b3&#45;&gt;b7</title>
<path fill="none" stroke="black" d="M1065.3,-1147.19C1203.18,-1121.91 1412.56,-1083.52 1553.76,-1057.64"/>
<polygon fill="black" stroke="black" points="1554.6,-1061.04 1563.8,-1055.79 1553.34,-1054.16 1554.6,-1061.04"/>
</g>
<!-- b4 -->
<g id="node5" class="node">
<title>b4</title>
<polygon fill="white" stroke="black" points="1456,-997 1173,-997 1173,-945 1456,-945 1456,-997"/>
<text text-anchor="middle" x="1314.5" y="-985" font-family="Helvetica" font-size="10.00">B4</text>
<text text-anchor="middle" x="1314.5" y="-974" font-family="Helvetica" font-size="10.00">Loop: &lt;none&gt;</text>
<text text-anchor="middle" x="1314.5" y="-963" font-family="Helvetica" font-size="10.00">&#45;&#45;&#45;</text>
<text text-anchor="middle" x="1314.5" y="-952" font-family="Helvetica" font-size="10.00">HotSpotMethod&lt;LoopBenchmarks.sieveLoop(boolean[], int)&gt;</text>
</g>
<!-- b4&#45;&gt;b7 -->
<g id="edge7" class="edge">
<title>b4&#45;&gt;b7</title>
<path fill="none" stroke="black" d="M1456.21,-992.34C1487.95,-997.16 1521.76,-1002.28 1553.89,-1007.16"/>
<polygon fill="black" stroke="black" points="1553.39,-1010.62 1563.8,-1008.66 1554.44,-1003.7 1553.39,-1010.62"/>
</g>
<!-- b5&#45;&gt;b7 -->
<g id="edge8" class="edge">
<title>b5&#45;&gt;b7</title>
<path fill="none" stroke="black" d="M1363.59,-1214.92C1435.47,-1175.92 1570.68,-1102.58 1647.46,-1060.94"/>
<polygon fill="black" stroke="black" points="1649.4,-1063.87 1656.52,-1056.02 1646.06,-1057.72 1649.4,-1063.87"/>
</g>
<!-- b33 -->
<g id="node34" class="node">
<title>b33</title>
<polygon fill="white" stroke="black" points="1847,-1267 1564,-1267 1564,-1215 1847,-1215 1847,-1267"/>
<text text-anchor="middle" x="1705.5" y="-1255" font-family="Helvetica" font-size="10.00">B33</text>
<text text-anchor="middle" x="1705.5" y="-1244" font-family="Helvetica" font-size="10.00">Loop: &lt;none&gt;</text>
<text text-anchor="middle" x="1705.5" y="-1233" font-family="Helvetica" font-size="10.00">&#45;&#45;&#45;</text>
<text text-anchor="middle" x="1705.5" y="-1222" font-family="Helvetica" font-size="10.00">HotSpotMethod&lt;LoopBenchmarks.sieveLoop(boolean[], int)&gt;</text>
</g>
<!-- b5&#45;&gt;b33 -->
<g id="edge9" class="edge">
<title>b5&#45;&gt;b33</title>
<path fill="none" stroke="black" d="M1456.21,-1241C1487.81,-1241 1521.47,-1241 1553.48,-1241"/>
<polygon fill="black" stroke="black" points="1553.8,-1244.5 1563.8,-1241 1553.8,-1237.5 1553.8,-1244.5"/>
</g>
<!-- b6 -->
<g id="node7" class="node">
<title>b6</title>
<polygon fill="white" stroke="black" points="1456,-873 1173,-873 1173,-821 1456,-821 1456,-873"/>
<text text-anchor="middle" x="1314.5" y="-861" font-family="Helvetica" font-size="10.00">B6</text>
<text text-anchor="middle" x="1314.5" y="-850" font-family="Helvetica" font-size="10.00">Loop: &lt;none&gt;</text>
<text text-anchor="middle" x="1314.5" y="-839" font-family="Helvetica" font-size="10.00">&#45;&#45;&#45;</text>
<text text-anchor="middle" x="1314.5" y="-828" font-family="Helvetica" font-size="10.00">HotSpotMethod&lt;LoopBenchmarks.sieveLoop(boolean[], int)&gt;</text>
</g>
<!-- b6&#45;&gt;b7 -->
<g id="edge10" class="edge">
<title>b6&#45;&gt;b7</title>
<path fill="none" stroke="black" d="M1375.89,-873.06C1400.79,-883.95 1429.88,-896.88 1456,-909 1520.34,-938.85 1593.22,-974.56 1643.33,-999.42"/>
<polygon fill="black" stroke="black" points="1641.9,-1002.62 1652.41,-1003.93 1645.01,-996.35 1641.9,-1002.62"/>
</g>
<!-- b8 -->
<g id="node9" class="node">
<title>b8</title>
<polygon fill="white" stroke="black" points="2238,-986 1955,-986 1955,-934 2238,-934 2238,-986"/>
<text text-anchor="middle" x="2096.5" y="-974" font-family="Helvetica" font-size="10.00">B8</text>
<text text-anchor="middle" x="2096.5" y="-963" font-family="Helvetica" font-size="10.00">Loop: &lt;none&gt;</text>
<text text-anchor="middle" x="2096.5" y="-952" font-family="Helvetica" font-size="10.00">&#45;&#45;&#45;</text>
<text text-anchor="middle" x="2096.5" y="-941" font-family="Helvetica" font-size="10.00">HotSpotMethod&lt;LoopBenchmarks.sieveLoop(boolean[], int)&gt;</text>
</g>
<!-- b7&#45;&gt;b8 -->
<g id="edge11" class="edge">
<title>b7&#45;&gt;b8</title>
<path fill="none" stroke="black" d="M1847.21,-1004.68C1878.95,-998.97 1912.76,-992.88 1944.89,-987.1"/>
<polygon fill="black" stroke="black" points="1945.58,-990.53 1954.8,-985.32 1944.34,-983.64 1945.58,-990.53"/>
</g>
<!-- b32 -->
<g id="node33" class="node">
<title>b32</title>
<polygon fill="white" stroke="black" points="2238,-1115 1955,-1115 1955,-1063 2238,-1063 2238,-1115"/>
<text text-anchor="middle" x="2096.5" y="-1103" font-family="Helvetica" font-size="10.00">B32</text>
<text text-anchor="middle" x="2096.5" y="-1092" font-family="Helvetica" font-size="10.00">Loop: &lt;none&gt;</text>
<text text-anchor="middle" x="2096.5" y="-1081" font-family="Helvetica" font-size="10.00">&#45;&#45;&#45;</text>
<text text-anchor="middle" x="2096.5" y="-1070" font-family="Helvetica" font-size="10.00">HotSpotMethod&lt;LoopBenchmarks.sieveLoop(boolean[], int)&gt;</text>
</g>
<!-- b7&#45;&gt;b32 -->
<g id="edge12" class="edge">
<title>b7&#45;&gt;b32</title>
<path fill="none" stroke="black" d="M1847.21,-1051.34C1878.95,-1056.16 1912.76,-1061.28 1944.89,-1066.16"/>
<polygon fill="black" stroke="black" points="1944.39,-1069.62 1954.8,-1067.66 1945.44,-1062.7 1944.39,-1069.62"/>
</g>
<!-- b9 -->
<g id="node10" class="node">
<title>b9</title>
<polygon fill="white" stroke="black" points="2629,-862 2346,-862 2346,-810 2629,-810 2629,-862"/>
<text text-anchor="middle" x="2487.5" y="-850" font-family="Helvetica" font-size="10.00">B9</text>
<text text-anchor="middle" x="2487.5" y="-839" font-family="Helvetica" font-size="10.00">Loop: &lt;none&gt;</text>
<text text-anchor="middle" x="2487.5" y="-828" font-family="Helvetica" font-size="10.00">&#45;&#45;&#45;</text>
<text text-anchor="middle" x="2487.5" y="-817" font-family="Helvetica" font-size="10.00">HotSpotMethod&lt;LoopBenchmarks.sieveLoop(boolean[], int)&gt;</text>
</g>
<!-- b8&#45;&gt;b9 -->
<g id="edge13" class="edge">
<title>b8&#45;&gt;b9</title>
<path fill="none" stroke="black" d="M2179.52,-933.85C2242.6,-913.75 2329.72,-885.98 2395.04,-865.15"/>
<polygon fill="black" stroke="black" points="2396.46,-868.38 2404.92,-862 2394.33,-861.71 2396.46,-868.38"/>
</g>
<!-- b31 -->
<g id="node32" class="node">
<title>b31</title>
<polygon fill="white" stroke="black" points="2629,-986 2346,-986 2346,-934 2629,-934 2629,-986"/>
<text text-anchor="middle" x="2487.5" y="-974" font-family="Helvetica" font-size="10.00">B31</text>
<text text-anchor="middle" x="2487.5" y="-963" font-family="Helvetica" font-size="10.00">Loop: &lt;none&gt;</text>
<text text-anchor="middle" x="2487.5" y="-952" font-family="Helvetica" font-size="10.00">&#45;&#45;&#45;</text>
<text text-anchor="middle" x="2487.5" y="-941" font-family="Helvetica" font-size="10.00">HotSpotMethod&lt;LoopBenchmarks.sieveLoop(boolean[], int)&gt;</text>
</g>
<!-- b8&#45;&gt;b31 -->
<g id="edge14" class="edge">
<title>b8&#45;&gt;b31</title>
<path fill="none" stroke="black" d="M2238.21,-960C2269.81,-960 2303.47,-960 2335.48,-960"/>
<polygon fill="black" stroke="black" points="2335.8,-963.5 2345.8,-960 2335.8,-956.5 2335.8,-963.5"/>
</g>
<!-- b10 -->
<g id="node11" class="node">
<title>b10</title>
<polygon fill="white" stroke="black" points="3020,-771 2737,-771 2737,-719 3020,-719 3020,-771"/>
<text text-anchor="middle" x="2878.5" y="-759" font-family="Helvetica" font-size="10.00">B10</text>
<text text-anchor="middle" x="2878.5" y="-748" font-family="Helvetica" font-size="10.00">Loop: &lt;none&gt;</text>
<text text-anchor="middle" x="2878.5" y="-737" font-family="Helvetica" font-size="10.00">&#45;&#45;&#45;</text>
<text text-anchor="middle" x="2878.5" y="-726" font-family="Helvetica" font-size="10.00">HotSpotMethod&lt;LoopBenchmarks.sieveLoop(boolean[], int)&gt;</text>
</g>
<!-- b9&#45;&gt;b10 -->
<g id="edge15" class="edge">
<title>b9&#45;&gt;b10</title>
<path fill="none" stroke="black" d="M2599.71,-809.98C2648.65,-798.53 2706.27,-785.06 2756.31,-773.35"/>
<polygon fill="black" stroke="black" points="2757.27,-776.72 2766.21,-771.04 2755.67,-769.91 2757.27,-776.72"/>
</g>
<!-- b29 -->
<g id="node30" class="node">
<title>b29</title>
<polygon fill="white" stroke="black" points="3411,-997 3128,-997 3128,-945 3411,-945 3411,-997"/>
<text text-anchor="middle" x="3269.5" y="-985" font-family="Helvetica" font-size="10.00">B29</text>
<text text-anchor="middle" x="3269.5" y="-974" font-family="Helvetica" font-size="10.00">Loop: &lt;none&gt;</text>
<text text-anchor="middle" x="3269.5" y="-963" font-family="Helvetica" font-size="10.00">&#45;&#45;&#45;</text>
<text text-anchor="middle" x="3269.5" y="-952" font-family="Helvetica" font-size="10.00">HotSpotMethod&lt;LoopBenchmarks.sieveLoop(boolean[], int)&gt;</text>
</g>
<!-- b9&#45;&gt;b29 -->
<g id="edge16" class="edge">
<title>b9&#45;&gt;b29</title>
<path fill="none" stroke="black" d="M2629.3,-860.37C2767.18,-884.23 2976.56,-920.47 3117.76,-944.91"/>
<polygon fill="black" stroke="black" points="3117.35,-948.39 3127.8,-946.65 3118.55,-941.49 3117.35,-948.39"/>
</g>
<!-- b11 -->
<g id="node12" class="node">
<title>b11</title>
<polygon fill="white" stroke="black" points="3411,-771 3128,-771 3128,-719 3411,-719 3411,-771"/>
<text text-anchor="middle" x="3269.5" y="-759" font-family="Helvetica" font-size="10.00">B11</text>
<text text-anchor="middle" x="3269.5" y="-748" font-family="Helvetica" font-size="10.00">Loop: &lt;none&gt;</text>
<text text-anchor="middle" x="3269.5" y="-737" font-family="Helvetica" font-size="10.00">&#45;&#45;&#45;</text>
<text text-anchor="middle" x="3269.5" y="-726" font-family="Helvetica" font-size="10.00">HotSpotMethod&lt;LoopBenchmarks.sieveLoop(boolean[], int)&gt;</text>
</g>
<!-- b10&#45;&gt;b11 -->
<g id="edge17" class="edge">
<title>b10&#45;&gt;b11</title>
<path fill="none" stroke="black" d="M3020.21,-745C3051.81,-745 3085.47,-745 3117.48,-745"/>
<polygon fill="black" stroke="black" points="3117.8,-748.5 3127.8,-745 3117.8,-741.5 3117.8,-748.5"/>
</g>
<!-- b17 -->
<g id="node18" class="node">
<title>b17</title>
<polygon fill="white" stroke="black" points="4193,-533 3910,-533 3910,-481 4193,-481 4193,-533"/>
<text text-anchor="middle" x="4051.5" y="-521" font-family="Helvetica" font-size="10.00">B17</text>
<text text-anchor="middle" x="4051.5" y="-510" font-family="Helvetica" font-size="10.00">Loop: &lt;none&gt;</text>
<text text-anchor="middle" x="4051.5" y="-499" font-family="Helvetica" font-size="10.00">&#45;&#45;&#45;</text>
<text text-anchor="middle" x="4051.5" y="-488" font-family="Helvetica" font-size="10.00">HotSpotMethod&lt;LoopBenchmarks.sieveLoop(boolean[], int)&gt;</text>
</g>
<!-- b10&#45;&gt;b17 -->
<g id="edge18" class="edge">
<title>b10&#45;&gt;b17</title>
<path fill="none" stroke="black" d="M2978.36,-718.99C3023.8,-707.38 3078.49,-693.89 3128,-683 3398.7,-623.46 3716.67,-565.38 3899.77,-533.08"/>
<polygon fill="black" stroke="black" points="3900.49,-536.51 3909.73,-531.33 3899.28,-529.62 3900.49,-536.51"/>
</g>
<!-- b12 -->
<g id="node13" class="node">
<title>b12</title>
<polygon fill="white" stroke="black" points="3802,-735 3519,-735 3519,-683 3802,-683 3802,-735"/>
<text text-anchor="middle" x="3660.5" y="-723" font-family="Helvetica" font-size="10.00">B12</text>
<text text-anchor="middle" x="3660.5" y="-712" font-family="Helvetica" font-size="10.00">Loop: &lt;none&gt;</text>
<text text-anchor="middle" x="3660.5" y="-701" font-family="Helvetica" font-size="10.00">&#45;&#45;&#45;</text>
<text text-anchor="middle" x="3660.5" y="-690" font-family="Helvetica" font-size="10.00">HotSpotMethod&lt;LoopBenchmarks.sieveLoop(boolean[], int)&gt;</text>
</g>
<!-- b11&#45;&gt;b12 -->
<g id="edge19" class="edge">
<title>b11&#45;&gt;b12</title>
<path fill="none" stroke="black" d="M3411.21,-731.98C3442.81,-729.05 3476.47,-725.94 3508.48,-722.98"/>
<polygon fill="black" stroke="black" points="3509.17,-726.43 3518.8,-722.02 3508.52,-719.46 3509.17,-726.43"/>
</g>
<!-- b15 -->
<g id="node16" class="node">
<title>b15</title>
<polygon fill="white" stroke="black" points="4193,-870 3910,-870 3910,-818 4193,-818 4193,-870"/>
<text text-anchor="middle" x="4051.5" y="-858" font-family="Helvetica" font-size="10.00">B15</text>
<text text-anchor="middle" x="4051.5" y="-847" font-family="Helvetica" font-size="10.00">Loop: &lt;none&gt;</text>
<text text-anchor="middle" x="4051.5" y="-836" font-family="Helvetica" font-size="10.00">&#45;&#45;&#45;</text>
<text text-anchor="middle" x="4051.5" y="-825" font-family="Helvetica" font-size="10.00">HotSpotMethod&lt;LoopBenchmarks.sieveLoop(boolean[], int)&gt;</text>
</g>
<!-- b11&#45;&gt;b15 -->
<g id="edge20" class="edge">
<title>b11&#45;&gt;b15</title>
<path fill="none" stroke="black" d="M3411.3,-762.87C3549.18,-780.37 3758.56,-806.95 3899.76,-824.87"/>
<polygon fill="black" stroke="black" points="3899.44,-828.36 3909.8,-826.14 3900.32,-821.41 3899.44,-828.36"/>
</g>
<!-- b14 -->
<g id="node15" class="node">
<title>b14</title>
<polygon fill="white" stroke="black" points="4588,-735 4305,-735 4305,-683 4588,-683 4588,-735"/>
<text text-anchor="middle" x="4446.5" y="-723" font-family="Helvetica" font-size="10.00">B14</text>
<text text-anchor="middle" x="4446.5" y="-712" font-family="Helvetica" font-size="10.00">Loop: &lt;none&gt;</text>
<text text-anchor="middle" x="4446.5" y="-701" font-family="Helvetica" font-size="10.00">&#45;&#45;&#45;</text>
<text text-anchor="middle" x="4446.5" y="-690" font-family="Helvetica" font-size="10.00">HotSpotMethod&lt;LoopBenchmarks.sieveLoop(boolean[], int)&gt;</text>
</g>
<!-- b12&#45;&gt;b14 -->
<g id="edge22" class="edge">
<title>b12&#45;&gt;b14</title>
<path fill="none" stroke="black" d="M3802.12,-709C3940.89,-709 4152.38,-709 4294.62,-709"/>
<polygon fill="black" stroke="black" points="4294.74,-712.5 4304.74,-709 4294.74,-705.5 4294.74,-712.5"/>
</g>
<!-- b12&#45;&gt;b17 -->
<g id="edge21" class="edge">
<title>b12&#45;&gt;b17</title>
<path fill="none" stroke="black" d="M3711.96,-682.8C3783.66,-645.56 3914.8,-577.47 3991.11,-537.84"/>
<polygon fill="black" stroke="black" points="3992.87,-540.87 4000.13,-533.15 3989.65,-534.66 3992.87,-540.87"/>
</g>
<!-- b13 -->
<g id="node14" class="node">
<title>b13</title>
<polygon fill="white" stroke="black" points="3802,-465 3519,-465 3519,-413 3802,-413 3802,-465"/>
<text text-anchor="middle" x="3660.5" y="-453" font-family="Helvetica" font-size="10.00">B13</text>
<text text-anchor="middle" x="3660.5" y="-442" font-family="Helvetica" font-size="10.00">Loop: &lt;none&gt;</text>
<text text-anchor="middle" x="3660.5" y="-431" font-family="Helvetica" font-size="10.00">&#45;&#45;&#45;</text>
<text text-anchor="middle" x="3660.5" y="-420" font-family="Helvetica" font-size="10.00">HotSpotMethod&lt;LoopBenchmarks.sieveLoop(boolean[], int)&gt;</text>
</g>
<!-- b13&#45;&gt;b17 -->
<g id="edge23" class="edge">
<title>b13&#45;&gt;b17</title>
<path fill="none" stroke="black" d="M3802.21,-463.6C3833.95,-469.15 3867.76,-475.06 3899.89,-480.67"/>
<polygon fill="black" stroke="black" points="3899.35,-484.13 3909.8,-482.41 3900.56,-477.24 3899.35,-484.13"/>
</g>
<!-- b30 -->
<g id="node31" class="node">
<title>b30</title>
<polygon fill="white" stroke="black" points="4983,-802 4700,-802 4700,-750 4983,-750 4983,-802"/>
<text text-anchor="middle" x="4841.5" y="-790" font-family="Helvetica" font-size="10.00">B30</text>
<text text-anchor="middle" x="4841.5" y="-779" font-family="Helvetica" font-size="10.00">Loop: &lt;none&gt;</text>
<text text-anchor="middle" x="4841.5" y="-768" font-family="Helvetica" font-size="10.00">&#45;&#45;&#45;</text>
<text text-anchor="middle" x="4841.5" y="-757" font-family="Helvetica" font-size="10.00">HotSpotMethod&lt;LoopBenchmarks.sieveLoop(boolean[], int)&gt;</text>
</g>
<!-- b14&#45;&gt;b30 -->
<g id="edge24" class="edge">
<title>b14&#45;&gt;b30</title>
<path fill="none" stroke="black" d="M4588.27,-733C4621.11,-738.6 4656.2,-744.58 4689.46,-750.25"/>
<polygon fill="black" stroke="black" points="4689.27,-753.77 4699.72,-752 4690.45,-746.87 4689.27,-753.77"/>
</g>
<!-- b15&#45;&gt;b30 -->
<g id="edge25" class="edge">
<title>b15&#45;&gt;b30</title>
<path fill="none" stroke="black" d="M4193.38,-831.84C4333.12,-819.78 4546.54,-801.37 4689.67,-789.02"/>
<polygon fill="black" stroke="black" points="4690.18,-792.48 4699.85,-788.14 4689.58,-785.51 4690.18,-792.48"/>
</g>
<!-- b16 -->
<g id="node17" class="node">
<title>b16</title>
<polygon fill="white" stroke="black" points="3802,-341 3519,-341 3519,-289 3802,-289 3802,-341"/>
<text text-anchor="middle" x="3660.5" y="-329" font-family="Helvetica" font-size="10.00">B16</text>
<text text-anchor="middle" x="3660.5" y="-318" font-family="Helvetica" font-size="10.00">Loop: &lt;none&gt;</text>
<text text-anchor="middle" x="3660.5" y="-307" font-family="Helvetica" font-size="10.00">&#45;&#45;&#45;</text>
<text text-anchor="middle" x="3660.5" y="-296" font-family="Helvetica" font-size="10.00">HotSpotMethod&lt;LoopBenchmarks.sieveLoop(boolean[], int)&gt;</text>
</g>
<!-- b16&#45;&gt;b17 -->
<g id="edge26" class="edge">
<title>b16&#45;&gt;b17</title>
<path fill="none" stroke="black" d="M3723.11,-341.13C3747.8,-351.88 3776.42,-364.68 3802,-377 3868.7,-409.12 3943.82,-448.94 3993.84,-475.98"/>
<polygon fill="black" stroke="black" points="3992.42,-479.2 4002.88,-480.88 3995.75,-473.04 3992.42,-479.2"/>
</g>
<!-- b18 -->
<g id="node19" class="node">
<title>b18</title>
<polygon fill="white" stroke="black" stroke-width="4" points="4588,-482.5 4305,-482.5 4305,-397.5 4588,-397.5 4588,-482.5"/>
<polygon fill="none" stroke="black" stroke-width="4" points="4592,-486.5 4301,-486.5 4301,-393.5 4592,-393.5 4592,-486.5"/>
<text text-anchor="middle" x="4446.5" y="-470.5" font-family="Helvetica" font-size="10.00">B18</text>
<text text-anchor="middle" x="4446.5" y="-459.5" font-family="Helvetica" font-size="10.00">Loop: &lt;none&gt;</text>
<text text-anchor="middle" x="4446.5" y="-448.5" font-family="Helvetica" font-size="10.00">&#45;&#45;&#45;</text>
<text text-anchor="middle" x="4446.5" y="-437.5" font-family="Helvetica" font-size="10.00">HotSpotMethod&lt;LoopBenchmarks.sieveLoop(boolean[], int)&gt;</text>
<text text-anchor="middle" x="4446.5" y="-426.5" font-family="Helvetica" font-size="10.00">&#45;&#45;&#45;</text>
<text text-anchor="middle" x="4446.5" y="-415.5" font-family="Helvetica" font-size="10.00">BuboLoopMakers:</text>
<text text-anchor="middle" x="4446.5" y="-404.5" font-family="Helvetica" font-size="10.00"> &#160;AMD64BuboRDTSCToSlot (LoopID=0)</text>
</g>
<!-- b17&#45;&gt;b18 -->
<g id="edge27" class="edge">
<title>b17&#45;&gt;b18</title>
<path fill="none" stroke="black" d="M4193.27,-483C4224.91,-477.61 4258.65,-471.86 4290.82,-466.37"/>
<polygon fill="black" stroke="black" points="4291.48,-469.81 4300.75,-464.68 4290.3,-462.91 4291.48,-469.81"/>
</g>
<!-- b28 -->
<g id="node29" class="node">
<title>b28</title>
<polygon fill="white" stroke="black" points="4588,-611 4305,-611 4305,-559 4588,-559 4588,-611"/>
<text text-anchor="middle" x="4446.5" y="-599" font-family="Helvetica" font-size="10.00">B28</text>
<text text-anchor="middle" x="4446.5" y="-588" font-family="Helvetica" font-size="10.00">Loop: &lt;none&gt;</text>
<text text-anchor="middle" x="4446.5" y="-577" font-family="Helvetica" font-size="10.00">&#45;&#45;&#45;</text>
<text text-anchor="middle" x="4446.5" y="-566" font-family="Helvetica" font-size="10.00">HotSpotMethod&lt;LoopBenchmarks.sieveLoop(boolean[], int)&gt;</text>
</g>
<!-- b17&#45;&gt;b28 -->
<g id="edge28" class="edge">
<title>b17&#45;&gt;b28</title>
<path fill="none" stroke="black" d="M4183.64,-533.03C4222.43,-540.73 4265.05,-549.19 4304.44,-557"/>
<polygon fill="black" stroke="black" points="4303.89,-560.46 4314.38,-558.98 4305.25,-553.6 4303.89,-560.46"/>
</g>
<!-- b19 -->
<g id="node20" class="node">
<title>b19</title>
<polygon fill="lightblue" stroke="black" points="4983,-466 4700,-466 4700,-414 4983,-414 4983,-466"/>
<text text-anchor="middle" x="4841.5" y="-454" font-family="Helvetica" font-size="10.00">B19</text>
<text text-anchor="middle" x="4841.5" y="-443" font-family="Helvetica" font-size="10.00">Loop: L0</text>
<text text-anchor="middle" x="4841.5" y="-432" font-family="Helvetica" font-size="10.00">&#45;&#45;&#45;</text>
<text text-anchor="middle" x="4841.5" y="-421" font-family="Helvetica" font-size="10.00">HotSpotMethod&lt;LoopBenchmarks.sieveLoop(boolean[], int)&gt;</text>
</g>
<!-- b18&#45;&gt;b19 -->
<g id="edge29" class="edge">
<title>b18&#45;&gt;b19</title>
<path fill="none" stroke="black" d="M4592.16,-440C4623.86,-440 4657.5,-440 4689.44,-440"/>
<polygon fill="black" stroke="black" points="4689.74,-443.5 4699.74,-440 4689.74,-436.5 4689.74,-443.5"/>
</g>
<!-- b20 -->
<g id="node21" class="node">
<title>b20</title>
<polygon fill="lightblue" stroke="black" points="5378,-466 5095,-466 5095,-414 5378,-414 5378,-466"/>
<text text-anchor="middle" x="5236.5" y="-454" font-family="Helvetica" font-size="10.00">B20</text>
<text text-anchor="middle" x="5236.5" y="-443" font-family="Helvetica" font-size="10.00">Loop: L0</text>
<text text-anchor="middle" x="5236.5" y="-432" font-family="Helvetica" font-size="10.00">&#45;&#45;&#45;</text>
<text text-anchor="middle" x="5236.5" y="-421" font-family="Helvetica" font-size="10.00">HotSpotMethod&lt;LoopBenchmarks.sieveLoop(boolean[], int)&gt;</text>
</g>
<!-- b19&#45;&gt;b20 -->
<g id="edge30" class="edge">
<title>b19&#45;&gt;b20</title>
<path fill="none" stroke="black" d="M4982.99,-414C5015.94,-412.79 5051.18,-412.68 5084.57,-413.66"/>
<polygon fill="black" stroke="black" points="5084.75,-417.16 5094.86,-413.99 5084.98,-410.17 5084.75,-417.16"/>
</g>
<!-- b21 -->
<g id="node22" class="node">
<title>b21</title>
<polygon fill="white" stroke="black" stroke-width="4" points="5378,-337.5 5095,-337.5 5095,-252.5 5378,-252.5 5378,-337.5"/>
<polygon fill="none" stroke="black" stroke-width="4" points="5382,-341.5 5091,-341.5 5091,-248.5 5382,-248.5 5382,-341.5"/>
<text text-anchor="middle" x="5236.5" y="-325.5" font-family="Helvetica" font-size="10.00">B21</text>
<text text-anchor="middle" x="5236.5" y="-314.5" font-family="Helvetica" font-size="10.00">Loop: &lt;none&gt;</text>
<text text-anchor="middle" x="5236.5" y="-303.5" font-family="Helvetica" font-size="10.00">&#45;&#45;&#45;</text>
<text text-anchor="middle" x="5236.5" y="-292.5" font-family="Helvetica" font-size="10.00">HotSpotMethod&lt;LoopBenchmarks.sieveLoop(boolean[], int)&gt;</text>
<text text-anchor="middle" x="5236.5" y="-281.5" font-family="Helvetica" font-size="10.00">&#45;&#45;&#45;</text>
<text text-anchor="middle" x="5236.5" y="-270.5" font-family="Helvetica" font-size="10.00">BuboLoopMakers:</text>
<text text-anchor="middle" x="5236.5" y="-259.5" font-family="Helvetica" font-size="10.00"> &#160;AMD64BuboRDTSCToSlot (LoopID=1)</text>
</g>
<!-- b19&#45;&gt;b21 -->
<g id="edge31" class="edge">
<title>b19&#45;&gt;b21</title>
<path fill="none" stroke="black" d="M4913.21,-413.91C4965.03,-394.79 5036.97,-368.25 5099.74,-345.09"/>
<polygon fill="black" stroke="black" points="5101.17,-348.29 5109.34,-341.55 5098.74,-341.73 5101.17,-348.29"/>
</g>
<!-- b20&#45;&gt;b19 -->
<g id="edge32" class="edge">
<title>b20&#45;&gt;b19</title>
<path fill="none" stroke="black" d="M5094.86,-466.01C5061.91,-467.21 5026.67,-467.32 4993.29,-466.34"/>
<polygon fill="black" stroke="black" points="4993.1,-462.83 4982.99,-466 4992.87,-469.83 4993.1,-462.83"/>
</g>
<!-- b22 -->
<g id="node23" class="node">
<title>b22</title>
<polygon fill="lightgreen" stroke="black" points="5773,-321 5490,-321 5490,-269 5773,-269 5773,-321"/>
<text text-anchor="middle" x="5631.5" y="-309" font-family="Helvetica" font-size="10.00">B22</text>
<text text-anchor="middle" x="5631.5" y="-298" font-family="Helvetica" font-size="10.00">Loop: L1</text>
<text text-anchor="middle" x="5631.5" y="-287" font-family="Helvetica" font-size="10.00">&#45;&#45;&#45;</text>
<text text-anchor="middle" x="5631.5" y="-276" font-family="Helvetica" font-size="10.00">HotSpotMethod&lt;LoopBenchmarks.sieveLoop(boolean[], int)&gt;</text>
</g>
<!-- b21&#45;&gt;b22 -->
<g id="edge33" class="edge">
<title>b21&#45;&gt;b22</title>
<path fill="none" stroke="black" d="M5382.16,-295C5413.86,-295 5447.5,-295 5479.44,-295"/>
<polygon fill="black" stroke="black" points="5479.74,-298.5 5489.74,-295 5479.74,-291.5 5479.74,-298.5"/>
</g>
<!-- b23 -->
<g id="node24" class="node">
<title>b23</title>
<polygon fill="lightgreen" stroke="black" points="6168,-321 5885,-321 5885,-269 6168,-269 6168,-321"/>
<text text-anchor="middle" x="6026.5" y="-309" font-family="Helvetica" font-size="10.00">B23</text>
<text text-anchor="middle" x="6026.5" y="-298" font-family="Helvetica" font-size="10.00">Loop: L1</text>
<text text-anchor="middle" x="6026.5" y="-287" font-family="Helvetica" font-size="10.00">&#45;&#45;&#45;</text>
<text text-anchor="middle" x="6026.5" y="-276" font-family="Helvetica" font-size="10.00">HotSpotMethod&lt;LoopBenchmarks.sieveLoop(boolean[], int)&gt;</text>
</g>
<!-- b22&#45;&gt;b23 -->
<g id="edge34" class="edge">
<title>b22&#45;&gt;b23</title>
<path fill="none" stroke="black" d="M5772.99,-269C5805.94,-267.79 5841.18,-267.68 5874.57,-268.66"/>
<polygon fill="black" stroke="black" points="5874.75,-272.16 5884.86,-268.99 5874.98,-265.17 5874.75,-272.16"/>
</g>
<!-- b24 -->
<g id="node25" class="node">
<title>b24</title>
<polygon fill="white" stroke="black" stroke-width="4" points="6168,-192.5 5885,-192.5 5885,-107.5 6168,-107.5 6168,-192.5"/>
<polygon fill="none" stroke="black" stroke-width="4" points="6172,-196.5 5881,-196.5 5881,-103.5 6172,-103.5 6172,-196.5"/>
<text text-anchor="middle" x="6026.5" y="-180.5" font-family="Helvetica" font-size="10.00">B24</text>
<text text-anchor="middle" x="6026.5" y="-169.5" font-family="Helvetica" font-size="10.00">Loop: &lt;none&gt;</text>
<text text-anchor="middle" x="6026.5" y="-158.5" font-family="Helvetica" font-size="10.00">&#45;&#45;&#45;</text>
<text text-anchor="middle" x="6026.5" y="-147.5" font-family="Helvetica" font-size="10.00">HotSpotMethod&lt;LoopBenchmarks.sieveLoop(boolean[], int)&gt;</text>
<text text-anchor="middle" x="6026.5" y="-136.5" font-family="Helvetica" font-size="10.00">&#45;&#45;&#45;</text>
<text text-anchor="middle" x="6026.5" y="-125.5" font-family="Helvetica" font-size="10.00">BuboLoopMakers:</text>
<text text-anchor="middle" x="6026.5" y="-114.5" font-family="Helvetica" font-size="10.00"> &#160;AMD64BuboRDTSCToSlot (LoopID=2)</text>
</g>
<!-- b22&#45;&gt;b24 -->
<g id="edge35" class="edge">
<title>b22&#45;&gt;b24</title>
<path fill="none" stroke="black" d="M5703.21,-268.91C5755.03,-249.79 5826.97,-223.25 5889.74,-200.09"/>
<polygon fill="black" stroke="black" points="5891.17,-203.29 5899.34,-196.55 5888.74,-196.73 5891.17,-203.29"/>
</g>
<!-- b23&#45;&gt;b22 -->
<g id="edge36" class="edge">
<title>b23&#45;&gt;b22</title>
<path fill="none" stroke="black" d="M5884.86,-321.01C5851.91,-322.21 5816.67,-322.32 5783.29,-321.34"/>
<polygon fill="black" stroke="black" points="5783.1,-317.83 5772.99,-321 5782.87,-324.83 5783.1,-317.83"/>
</g>
<!-- b25 -->
<g id="node26" class="node">
<title>b25</title>
<polygon fill="lightpink" stroke="black" points="6563,-176 6280,-176 6280,-124 6563,-124 6563,-176"/>
<text text-anchor="middle" x="6421.5" y="-164" font-family="Helvetica" font-size="10.00">B25</text>
<text text-anchor="middle" x="6421.5" y="-153" font-family="Helvetica" font-size="10.00">Loop: L2</text>
<text text-anchor="middle" x="6421.5" y="-142" font-family="Helvetica" font-size="10.00">&#45;&#45;&#45;</text>
<text text-anchor="middle" x="6421.5" y="-131" font-family="Helvetica" font-size="10.00">HotSpotMethod&lt;LoopBenchmarks.sieveLoop(boolean[], int)&gt;</text>
</g>
<!-- b24&#45;&gt;b25 -->
<g id="edge37" class="edge">
<title>b24&#45;&gt;b25</title>
<path fill="none" stroke="black" d="M6172.16,-150C6203.86,-150 6237.5,-150 6269.44,-150"/>
<polygon fill="black" stroke="black" points="6269.74,-153.5 6279.74,-150 6269.74,-146.5 6269.74,-153.5"/>
</g>
<!-- b26 -->
<g id="node27" class="node">
<title>b26</title>
<polygon fill="lightpink" stroke="black" points="6954,-176 6671,-176 6671,-124 6954,-124 6954,-176"/>
<text text-anchor="middle" x="6812.5" y="-164" font-family="Helvetica" font-size="10.00">B26</text>
<text text-anchor="middle" x="6812.5" y="-153" font-family="Helvetica" font-size="10.00">Loop: L2</text>
<text text-anchor="middle" x="6812.5" y="-142" font-family="Helvetica" font-size="10.00">&#45;&#45;&#45;</text>
<text text-anchor="middle" x="6812.5" y="-131" font-family="Helvetica" font-size="10.00">HotSpotMethod&lt;LoopBenchmarks.sieveLoop(boolean[], int)&gt;</text>
</g>
<!-- b25&#45;&gt;b26 -->
<g id="edge38" class="edge">
<title>b25&#45;&gt;b26</title>
<path fill="none" stroke="black" d="M6561.56,-124C6594.18,-122.79 6629.06,-122.68 6662.1,-123.66"/>
<polygon fill="black" stroke="black" points="6662.18,-127.16 6672.29,-123.99 6662.42,-120.16 6662.18,-127.16"/>
</g>
<!-- b27 -->
<g id="node28" class="node">
<title>b27</title>
<polygon fill="white" stroke="black" points="6954,-52 6671,-52 6671,0 6954,0 6954,-52"/>
<text text-anchor="middle" x="6812.5" y="-40" font-family="Helvetica" font-size="10.00">B27</text>
<text text-anchor="middle" x="6812.5" y="-29" font-family="Helvetica" font-size="10.00">Loop: &lt;none&gt;</text>
<text text-anchor="middle" x="6812.5" y="-18" font-family="Helvetica" font-size="10.00">&#45;&#45;&#45;</text>
<text text-anchor="middle" x="6812.5" y="-7" font-family="Helvetica" font-size="10.00">HotSpotMethod&lt;LoopBenchmarks.sieveLoop(boolean[], int)&gt;</text>
</g>
<!-- b25&#45;&gt;b27 -->
<g id="edge39" class="edge">
<title>b25&#45;&gt;b27</title>
<path fill="none" stroke="black" d="M6504.52,-123.85C6567.6,-103.75 6654.72,-75.98 6720.04,-55.15"/>
<polygon fill="black" stroke="black" points="6721.46,-58.38 6729.92,-52 6719.33,-51.71 6721.46,-58.38"/>
</g>
<!-- b26&#45;&gt;b25 -->
<g id="edge40" class="edge">
<title>b26&#45;&gt;b25</title>
<path fill="none" stroke="black" d="M6672.29,-176.01C6639.67,-177.21 6604.79,-177.32 6571.75,-176.34"/>
<polygon fill="black" stroke="black" points="6571.68,-172.84 6561.56,-176 6571.44,-179.83 6571.68,-172.84"/>
</g>
<!-- b28&#45;&gt;b30 -->
<g id="edge41" class="edge">
<title>b28&#45;&gt;b30</title>
<path fill="none" stroke="black" d="M4510.9,-611.01C4536.3,-621.74 4565.72,-634.56 4592,-647 4658.8,-678.62 4733.9,-718.18 4783.89,-745.1"/>
<polygon fill="black" stroke="black" points="4782.46,-748.3 4792.92,-749.97 4785.78,-742.14 4782.46,-748.3"/>
</g>
<!-- b29&#45;&gt;b30 -->
<g id="edge42" class="edge">
<title>b29&#45;&gt;b30</title>
<path fill="none" stroke="black" d="M3411.37,-972.81C3655.13,-973.04 4170.02,-960.76 4592,-865 4654.24,-850.88 4722.31,-825.78 4771.44,-805.83"/>
<polygon fill="black" stroke="black" points="4772.77,-809.06 4780.7,-802.04 4770.12,-802.59 4772.77,-809.06"/>
</g>
<!-- b34 -->
<g id="node35" class="node">
<title>b34</title>
<polygon fill="white" stroke="black" points="3020,-1121 2737,-1121 2737,-1069 3020,-1069 3020,-1121"/>
<text text-anchor="middle" x="2878.5" y="-1109" font-family="Helvetica" font-size="10.00">B34</text>
<text text-anchor="middle" x="2878.5" y="-1098" font-family="Helvetica" font-size="10.00">Loop: &lt;none&gt;</text>
<text text-anchor="middle" x="2878.5" y="-1087" font-family="Helvetica" font-size="10.00">&#45;&#45;&#45;</text>
<text text-anchor="middle" x="2878.5" y="-1076" font-family="Helvetica" font-size="10.00">HotSpotMethod&lt;LoopBenchmarks.sieveLoop(boolean[], int)&gt;</text>
</g>
<!-- b31&#45;&gt;b34 -->
<g id="edge43" class="edge">
<title>b31&#45;&gt;b34</title>
<path fill="none" stroke="black" d="M2563.5,-986.03C2629.19,-1008.82 2724.55,-1041.92 2792.93,-1065.65"/>
<polygon fill="black" stroke="black" points="2791.8,-1068.96 2802.4,-1068.94 2794.1,-1062.35 2791.8,-1068.96"/>
</g>
<!-- b32&#45;&gt;b34 -->
<g id="edge44" class="edge">
<title>b32&#45;&gt;b34</title>
<path fill="none" stroke="black" d="M2238.3,-1090.08C2376.18,-1091.14 2585.56,-1092.75 2726.76,-1093.84"/>
<polygon fill="black" stroke="black" points="2726.78,-1097.34 2736.8,-1093.92 2726.83,-1090.34 2726.78,-1097.34"/>
</g>
<!-- b33&#45;&gt;b34 -->
<g id="edge45" class="edge">
<title>b33&#45;&gt;b34</title>
<path fill="none" stroke="black" d="M1847.35,-1231.26C2028.79,-1217.65 2353.59,-1189.73 2629,-1147 2670.45,-1140.57 2715.41,-1131.74 2755.56,-1123.17"/>
<polygon fill="black" stroke="black" points="2756.34,-1126.58 2765.39,-1121.06 2754.87,-1119.74 2756.34,-1126.58"/>
</g>
</g>
</svg>
