<?xml version="1.0" encoding="UTF-8" standalone="no"?>
<!DOCTYPE svg PUBLIC "-//W3C//DTD SVG 1.1//EN"
 "http://www.w3.org/Graphics/SVG/1.1/DTD/svg11.dtd">
<!-- Generated by graphviz version 2.44.0 (0)
 -->
<!-- Title: CFG_140 Pages: 1 -->
<svg width="7312pt" height="824pt"
 viewBox="0.00 0.00 7312.00 824.00" xmlns="http://www.w3.org/2000/svg" xmlns:xlink="http://www.w3.org/1999/xlink">
<g id="graph0" class="graph" transform="scale(1 1) rotate(0) translate(4 820)">
<title>CFG_140</title>
<polygon fill="white" stroke="transparent" points="-4,4 -4,-820 7308,-820 7308,4 -4,4"/>
<text text-anchor="middle" x="266.5" y="-796" font-family="Times-Roman" font-size="20.00">204&#45;LoopBenchmarks.histogramLoop(int[], int[], int)</text>
<!-- b0 -->
<g id="node1" class="node">
<title>b0</title>
<polygon fill="white" stroke="black" points="302,-265 0,-265 0,-213 302,-213 302,-265"/>
<text text-anchor="middle" x="151" y="-253" font-family="Helvetica" font-size="10.00">B0</text>
<text text-anchor="middle" x="151" y="-242" font-family="Helvetica" font-size="10.00">Loop: &lt;none&gt;</text>
<text text-anchor="middle" x="151" y="-231" font-family="Helvetica" font-size="10.00">&#45;&#45;&#45;</text>
<text text-anchor="middle" x="151" y="-220" font-family="Helvetica" font-size="10.00">HotSpotMethod&lt;LoopBenchmarks.histogramLoop(int[], int[], int)&gt;</text>
</g>
<!-- b2 -->
<g id="node3" class="node">
<title>b2</title>
<polygon fill="white" stroke="black" stroke-width="4" points="716,-437.5 414,-437.5 414,-352.5 716,-352.5 716,-437.5"/>
<polygon fill="none" stroke="black" stroke-width="4" points="720,-441.5 410,-441.5 410,-348.5 720,-348.5 720,-441.5"/>
<text text-anchor="middle" x="565" y="-425.5" font-family="Helvetica" font-size="10.00">B2</text>
<text text-anchor="middle" x="565" y="-414.5" font-family="Helvetica" font-size="10.00">Loop: &lt;none&gt;</text>
<text text-anchor="middle" x="565" y="-403.5" font-family="Helvetica" font-size="10.00">&#45;&#45;&#45;</text>
<text text-anchor="middle" x="565" y="-392.5" font-family="Helvetica" font-size="10.00">HotSpotMethod&lt;LoopBenchmarks.histogramLoop(int[], int[], int)&gt;</text>
<text text-anchor="middle" x="565" y="-381.5" font-family="Helvetica" font-size="10.00">&#45;&#45;&#45;</text>
<text text-anchor="middle" x="565" y="-370.5" font-family="Helvetica" font-size="10.00">BuboLoopMakers:</text>
<text text-anchor="middle" x="565" y="-359.5" font-family="Helvetica" font-size="10.00"> &#160;AMD64BuboRDTSCToSlot (LoopID=0)</text>
</g>
<!-- b0&#45;&gt;b2 -->
<g id="edge2" class="edge">
<title>b0&#45;&gt;b2</title>
<path fill="none" stroke="black" d="M220.96,-265.11C278.29,-286.82 361.53,-318.34 431.66,-344.89"/>
<polygon fill="black" stroke="black" points="430.43,-348.17 441.02,-348.44 432.91,-341.62 430.43,-348.17"/>
</g>
<!-- b7 -->
<g id="node8" class="node">
<title>b7</title>
<polygon fill="white" stroke="black" points="1958,-260 1656,-260 1656,-208 1958,-208 1958,-260"/>
<text text-anchor="middle" x="1807" y="-248" font-family="Helvetica" font-size="10.00">B7</text>
<text text-anchor="middle" x="1807" y="-237" font-family="Helvetica" font-size="10.00">Loop: &lt;none&gt;</text>
<text text-anchor="middle" x="1807" y="-226" font-family="Helvetica" font-size="10.00">&#45;&#45;&#45;</text>
<text text-anchor="middle" x="1807" y="-215" font-family="Helvetica" font-size="10.00">HotSpotMethod&lt;LoopBenchmarks.histogramLoop(int[], int[], int)&gt;</text>
</g>
<!-- b0&#45;&gt;b7 -->
<g id="edge1" class="edge">
<title>b0&#45;&gt;b7</title>
<path fill="none" stroke="black" d="M302.09,-215.57C558.43,-179.18 1096.66,-118.53 1548,-172 1602.46,-178.45 1662.06,-192.31 1710.25,-205.29"/>
<polygon fill="black" stroke="black" points="1709.47,-208.71 1720.04,-207.96 1711.31,-201.95 1709.47,-208.71"/>
</g>
<!-- b1 -->
<g id="node2" class="node">
<title>b1</title>
<polygon fill="white" stroke="black" points="1544,-260 1242,-260 1242,-208 1544,-208 1544,-260"/>
<text text-anchor="middle" x="1393" y="-248" font-family="Helvetica" font-size="10.00">B1</text>
<text text-anchor="middle" x="1393" y="-237" font-family="Helvetica" font-size="10.00">Loop: &lt;none&gt;</text>
<text text-anchor="middle" x="1393" y="-226" font-family="Helvetica" font-size="10.00">&#45;&#45;&#45;</text>
<text text-anchor="middle" x="1393" y="-215" font-family="Helvetica" font-size="10.00">HotSpotMethod&lt;LoopBenchmarks.histogramLoop(int[], int[], int)&gt;</text>
</g>
<!-- b1&#45;&gt;b7 -->
<g id="edge3" class="edge">
<title>b1&#45;&gt;b7</title>
<path fill="none" stroke="black" d="M1544.2,-234C1577.13,-234 1612.12,-234 1645.43,-234"/>
<polygon fill="black" stroke="black" points="1645.72,-237.5 1655.72,-234 1645.72,-230.5 1645.72,-237.5"/>
</g>
<!-- b3 -->
<g id="node4" class="node">
<title>b3</title>
<polygon fill="lightblue" stroke="black" points="1130,-483 828,-483 828,-431 1130,-431 1130,-483"/>
<text text-anchor="middle" x="979" y="-471" font-family="Helvetica" font-size="10.00">B3</text>
<text text-anchor="middle" x="979" y="-460" font-family="Helvetica" font-size="10.00">Loop: L0</text>
<text text-anchor="middle" x="979" y="-449" font-family="Helvetica" font-size="10.00">&#45;&#45;&#45;</text>
<text text-anchor="middle" x="979" y="-438" font-family="Helvetica" font-size="10.00">HotSpotMethod&lt;LoopBenchmarks.histogramLoop(int[], int[], int)&gt;</text>
</g>
<!-- b2&#45;&gt;b3 -->
<g id="edge4" class="edge">
<title>b2&#45;&gt;b3</title>
<path fill="none" stroke="black" d="M720.29,-418.22C752.18,-423.02 785.82,-428.08 817.91,-432.91"/>
<polygon fill="black" stroke="black" points="817.4,-436.37 827.81,-434.4 818.44,-429.45 817.4,-436.37"/>
</g>
<!-- b4 -->
<g id="node5" class="node">
<title>b4</title>
<polygon fill="lightblue" stroke="black" points="1544,-696 1242,-696 1242,-644 1544,-644 1544,-696"/>
<text text-anchor="middle" x="1393" y="-684" font-family="Helvetica" font-size="10.00">B4</text>
<text text-anchor="middle" x="1393" y="-673" font-family="Helvetica" font-size="10.00">Loop: L0</text>
<text text-anchor="middle" x="1393" y="-662" font-family="Helvetica" font-size="10.00">&#45;&#45;&#45;</text>
<text text-anchor="middle" x="1393" y="-651" font-family="Helvetica" font-size="10.00">HotSpotMethod&lt;LoopBenchmarks.histogramLoop(int[], int[], int)&gt;</text>
</g>
<!-- b3&#45;&gt;b4 -->
<g id="edge5" class="edge">
<title>b3&#45;&gt;b4</title>
<path fill="none" stroke="black" d="M1030.52,-483.12C1106.76,-522.53 1250.94,-597.07 1332.27,-639.12"/>
<polygon fill="black" stroke="black" points="1330.9,-642.35 1341.39,-643.84 1334.11,-636.13 1330.9,-642.35"/>
</g>
<!-- b6 -->
<g id="node7" class="node">
<title>b6</title>
<polygon fill="white" stroke="black" stroke-width="4" points="1544,-421.5 1242,-421.5 1242,-336.5 1544,-336.5 1544,-421.5"/>
<polygon fill="none" stroke="black" stroke-width="4" points="1548,-425.5 1238,-425.5 1238,-332.5 1548,-332.5 1548,-425.5"/>
<text text-anchor="middle" x="1393" y="-409.5" font-family="Helvetica" font-size="10.00">B6</text>
<text text-anchor="middle" x="1393" y="-398.5" font-family="Helvetica" font-size="10.00">Loop: &lt;none&gt;</text>
<text text-anchor="middle" x="1393" y="-387.5" font-family="Helvetica" font-size="10.00">&#45;&#45;&#45;</text>
<text text-anchor="middle" x="1393" y="-376.5" font-family="Helvetica" font-size="10.00">HotSpotMethod&lt;LoopBenchmarks.histogramLoop(int[], int[], int)&gt;</text>
<text text-anchor="middle" x="1393" y="-365.5" font-family="Helvetica" font-size="10.00">&#45;&#45;&#45;</text>
<text text-anchor="middle" x="1393" y="-354.5" font-family="Helvetica" font-size="10.00">BuboLoopMakers:</text>
<text text-anchor="middle" x="1393" y="-343.5" font-family="Helvetica" font-size="10.00"> &#160;AMD64BuboWriteDeltaRDTSC (LoopID=0)</text>
</g>
<!-- b3&#45;&gt;b6 -->
<g id="edge6" class="edge">
<title>b3&#45;&gt;b6</title>
<path fill="none" stroke="black" d="M1117.48,-430.97C1152.77,-424.29 1191.09,-417.04 1227.59,-410.13"/>
<polygon fill="black" stroke="black" points="1228.66,-413.49 1237.84,-408.19 1227.36,-406.61 1228.66,-413.49"/>
</g>
<!-- b5 -->
<g id="node6" class="node">
<title>b5</title>
<polygon fill="lightblue" stroke="black" points="1958,-566 1656,-566 1656,-514 1958,-514 1958,-566"/>
<text text-anchor="middle" x="1807" y="-554" font-family="Helvetica" font-size="10.00">B5</text>
<text text-anchor="middle" x="1807" y="-543" font-family="Helvetica" font-size="10.00">Loop: L0</text>
<text text-anchor="middle" x="1807" y="-532" font-family="Helvetica" font-size="10.00">&#45;&#45;&#45;</text>
<text text-anchor="middle" x="1807" y="-521" font-family="Helvetica" font-size="10.00">HotSpotMethod&lt;LoopBenchmarks.histogramLoop(int[], int[], int)&gt;</text>
</g>
<!-- b4&#45;&gt;b5 -->
<g id="edge7" class="edge">
<title>b4&#45;&gt;b5</title>
<path fill="none" stroke="black" d="M1476.88,-643.85C1545.33,-622.25 1642.43,-591.61 1713.42,-569.21"/>
<polygon fill="black" stroke="black" points="1714.77,-572.46 1723.25,-566.11 1712.66,-565.78 1714.77,-572.46"/>
</g>
<!-- b34 -->
<g id="node35" class="node">
<title>b34</title>
<polygon fill="white" stroke="black" points="1958,-696 1656,-696 1656,-644 1958,-644 1958,-696"/>
<text text-anchor="middle" x="1807" y="-684" font-family="Helvetica" font-size="10.00">B34</text>
<text text-anchor="middle" x="1807" y="-673" font-family="Helvetica" font-size="10.00">Loop: &lt;none&gt;</text>
<text text-anchor="middle" x="1807" y="-662" font-family="Helvetica" font-size="10.00">&#45;&#45;&#45;</text>
<text text-anchor="middle" x="1807" y="-651" font-family="Helvetica" font-size="10.00">HotSpotMethod&lt;LoopBenchmarks.histogramLoop(int[], int[], int)&gt;</text>
</g>
<!-- b4&#45;&gt;b34 -->
<g id="edge8" class="edge">
<title>b4&#45;&gt;b34</title>
<path fill="none" stroke="black" d="M1544.2,-670C1577.13,-670 1612.12,-670 1645.43,-670"/>
<polygon fill="black" stroke="black" points="1645.72,-673.5 1655.72,-670 1645.72,-666.5 1645.72,-673.5"/>
</g>
<!-- b5&#45;&gt;b3 -->
<g id="edge9" class="edge">
<title>b5&#45;&gt;b3</title>
<path fill="none" stroke="black" d="M1655.97,-524.92C1510.14,-510.27 1289.43,-488.09 1140.23,-473.1"/>
<polygon fill="black" stroke="black" points="1140.36,-469.6 1130.06,-472.08 1139.66,-476.56 1140.36,-469.6"/>
</g>
<!-- b6&#45;&gt;b7 -->
<g id="edge10" class="edge">
<title>b6&#45;&gt;b7</title>
<path fill="none" stroke="black" d="M1526.34,-332.42C1590.74,-309.76 1666.19,-283.2 1722.48,-263.39"/>
<polygon fill="black" stroke="black" points="1723.78,-266.65 1732.06,-260.02 1721.46,-260.04 1723.78,-266.65"/>
</g>
<!-- b9 -->
<g id="node10" class="node">
<title>b9</title>
<polygon fill="white" stroke="black" points="2368,-333 2066,-333 2066,-281 2368,-281 2368,-333"/>
<text text-anchor="middle" x="2217" y="-321" font-family="Helvetica" font-size="10.00">B9</text>
<text text-anchor="middle" x="2217" y="-310" font-family="Helvetica" font-size="10.00">Loop: &lt;none&gt;</text>
<text text-anchor="middle" x="2217" y="-299" font-family="Helvetica" font-size="10.00">&#45;&#45;&#45;</text>
<text text-anchor="middle" x="2217" y="-288" font-family="Helvetica" font-size="10.00">HotSpotMethod&lt;LoopBenchmarks.histogramLoop(int[], int[], int)&gt;</text>
</g>
<!-- b7&#45;&gt;b9 -->
<g id="edge12" class="edge">
<title>b7&#45;&gt;b9</title>
<path fill="none" stroke="black" d="M1953.57,-260.05C1988.29,-266.26 2025.49,-272.91 2060.63,-279.2"/>
<polygon fill="black" stroke="black" points="2060.03,-282.65 2070.49,-280.96 2061.26,-275.76 2060.03,-282.65"/>
</g>
<!-- b26 -->
<g id="node27" class="node">
<title>b26</title>
<polygon fill="white" stroke="black" points="6074,-187 5772,-187 5772,-135 6074,-135 6074,-187"/>
<text text-anchor="middle" x="5923" y="-175" font-family="Helvetica" font-size="10.00">B26</text>
<text text-anchor="middle" x="5923" y="-164" font-family="Helvetica" font-size="10.00">Loop: &lt;none&gt;</text>
<text text-anchor="middle" x="5923" y="-153" font-family="Helvetica" font-size="10.00">&#45;&#45;&#45;</text>
<text text-anchor="middle" x="5923" y="-142" font-family="Helvetica" font-size="10.00">HotSpotMethod&lt;LoopBenchmarks.histogramLoop(int[], int[], int)&gt;</text>
</g>
<!-- b7&#45;&gt;b26 -->
<g id="edge11" class="edge">
<title>b7&#45;&gt;b26</title>
<path fill="none" stroke="black" d="M1958.03,-212.54C2121.82,-191 2391.99,-161 2626,-161 2626,-161 2626,-161 5096,-161 5327.24,-161 5594.88,-161 5761.33,-161"/>
<polygon fill="black" stroke="black" points="5761.65,-164.5 5771.65,-161 5761.65,-157.5 5761.65,-164.5"/>
</g>
<!-- b8 -->
<g id="node9" class="node">
<title>b8</title>
<polygon fill="white" stroke="black" points="5660,-52 5358,-52 5358,0 5660,0 5660,-52"/>
<text text-anchor="middle" x="5509" y="-40" font-family="Helvetica" font-size="10.00">B8</text>
<text text-anchor="middle" x="5509" y="-29" font-family="Helvetica" font-size="10.00">Loop: &lt;none&gt;</text>
<text text-anchor="middle" x="5509" y="-18" font-family="Helvetica" font-size="10.00">&#45;&#45;&#45;</text>
<text text-anchor="middle" x="5509" y="-7" font-family="Helvetica" font-size="10.00">HotSpotMethod&lt;LoopBenchmarks.histogramLoop(int[], int[], int)&gt;</text>
</g>
<!-- b8&#45;&gt;b26 -->
<g id="edge13" class="edge">
<title>b8&#45;&gt;b26</title>
<path fill="none" stroke="black" d="M5589.44,-52.03C5659.15,-74.87 5760.42,-108.06 5832.88,-131.8"/>
<polygon fill="black" stroke="black" points="5831.86,-135.15 5842.46,-134.94 5834.04,-128.5 5831.86,-135.15"/>
</g>
<!-- b11 -->
<g id="node12" class="node">
<title>b11</title>
<polygon fill="white" stroke="black" points="2778,-533 2476,-533 2476,-481 2778,-481 2778,-533"/>
<text text-anchor="middle" x="2627" y="-521" font-family="Helvetica" font-size="10.00">B11</text>
<text text-anchor="middle" x="2627" y="-510" font-family="Helvetica" font-size="10.00">Loop: &lt;none&gt;</text>
<text text-anchor="middle" x="2627" y="-499" font-family="Helvetica" font-size="10.00">&#45;&#45;&#45;</text>
<text text-anchor="middle" x="2627" y="-488" font-family="Helvetica" font-size="10.00">HotSpotMethod&lt;LoopBenchmarks.histogramLoop(int[], int[], int)&gt;</text>
</g>
<!-- b9&#45;&gt;b11 -->
<g id="edge15" class="edge">
<title>b9&#45;&gt;b11</title>
<path fill="none" stroke="black" d="M2271.34,-333.15C2346.48,-369.98 2483.23,-437.01 2563.19,-476.21"/>
<polygon fill="black" stroke="black" points="2562.13,-479.59 2572.65,-480.85 2565.21,-473.3 2562.13,-479.59"/>
</g>
<!-- b14 -->
<g id="node15" class="node">
<title>b14</title>
<polygon fill="white" stroke="black" points="4008,-468 3706,-468 3706,-416 4008,-416 4008,-468"/>
<text text-anchor="middle" x="3857" y="-456" font-family="Helvetica" font-size="10.00">B14</text>
<text text-anchor="middle" x="3857" y="-445" font-family="Helvetica" font-size="10.00">Loop: &lt;none&gt;</text>
<text text-anchor="middle" x="3857" y="-434" font-family="Helvetica" font-size="10.00">&#45;&#45;&#45;</text>
<text text-anchor="middle" x="3857" y="-423" font-family="Helvetica" font-size="10.00">HotSpotMethod&lt;LoopBenchmarks.histogramLoop(int[], int[], int)&gt;</text>
</g>
<!-- b9&#45;&gt;b14 -->
<g id="edge14" class="edge">
<title>b9&#45;&gt;b14</title>
<path fill="none" stroke="black" d="M2368.21,-305.99C2622.67,-306.27 3154.17,-315.49 3598,-380 3650.56,-387.64 3708.11,-400.97 3755.5,-413.32"/>
<polygon fill="black" stroke="black" points="3754.89,-416.78 3765.45,-415.94 3756.67,-410.01 3754.89,-416.78"/>
</g>
<!-- b10 -->
<g id="node11" class="node">
<title>b10</title>
<polygon fill="white" stroke="black" points="3598,-592 3296,-592 3296,-540 3598,-540 3598,-592"/>
<text text-anchor="middle" x="3447" y="-580" font-family="Helvetica" font-size="10.00">B10</text>
<text text-anchor="middle" x="3447" y="-569" font-family="Helvetica" font-size="10.00">Loop: &lt;none&gt;</text>
<text text-anchor="middle" x="3447" y="-558" font-family="Helvetica" font-size="10.00">&#45;&#45;&#45;</text>
<text text-anchor="middle" x="3447" y="-547" font-family="Helvetica" font-size="10.00">HotSpotMethod&lt;LoopBenchmarks.histogramLoop(int[], int[], int)&gt;</text>
</g>
<!-- b10&#45;&gt;b14 -->
<g id="edge16" class="edge">
<title>b10&#45;&gt;b14</title>
<path fill="none" stroke="black" d="M3534.03,-539.85C3600.32,-519.71 3691.94,-491.86 3760.5,-471.03"/>
<polygon fill="black" stroke="black" points="3761.89,-474.26 3770.44,-468 3759.85,-467.56 3761.89,-474.26"/>
</g>
<!-- b12 -->
<g id="node13" class="node">
<title>b12</title>
<polygon fill="white" stroke="black" points="3188,-533 2886,-533 2886,-481 3188,-481 3188,-533"/>
<text text-anchor="middle" x="3037" y="-521" font-family="Helvetica" font-size="10.00">B12</text>
<text text-anchor="middle" x="3037" y="-510" font-family="Helvetica" font-size="10.00">Loop: &lt;none&gt;</text>
<text text-anchor="middle" x="3037" y="-499" font-family="Helvetica" font-size="10.00">&#45;&#45;&#45;</text>
<text text-anchor="middle" x="3037" y="-488" font-family="Helvetica" font-size="10.00">HotSpotMethod&lt;LoopBenchmarks.histogramLoop(int[], int[], int)&gt;</text>
</g>
<!-- b11&#45;&gt;b12 -->
<g id="edge17" class="edge">
<title>b11&#45;&gt;b12</title>
<path fill="none" stroke="black" d="M2778.19,-507C2809.86,-507 2843.4,-507 2875.44,-507"/>
<polygon fill="black" stroke="black" points="2875.79,-510.5 2885.79,-507 2875.79,-503.5 2875.79,-510.5"/>
</g>
<!-- b32 -->
<g id="node33" class="node">
<title>b32</title>
<polygon fill="white" stroke="black" points="3188,-786 2886,-786 2886,-734 3188,-734 3188,-786"/>
<text text-anchor="middle" x="3037" y="-774" font-family="Helvetica" font-size="10.00">B32</text>
<text text-anchor="middle" x="3037" y="-763" font-family="Helvetica" font-size="10.00">Loop: &lt;none&gt;</text>
<text text-anchor="middle" x="3037" y="-752" font-family="Helvetica" font-size="10.00">&#45;&#45;&#45;</text>
<text text-anchor="middle" x="3037" y="-741" font-family="Helvetica" font-size="10.00">HotSpotMethod&lt;LoopBenchmarks.histogramLoop(int[], int[], int)&gt;</text>
</g>
<!-- b11&#45;&gt;b32 -->
<g id="edge18" class="edge">
<title>b11&#45;&gt;b32</title>
<path fill="none" stroke="black" d="M2670.13,-533.12C2745.66,-579.96 2903.82,-678.04 2985.21,-728.51"/>
<polygon fill="black" stroke="black" points="2983.45,-731.53 2993.8,-733.83 2987.14,-725.59 2983.45,-731.53"/>
</g>
<!-- b13 -->
<g id="node14" class="node">
<title>b13</title>
<polygon fill="white" stroke="black" points="3598,-468 3296,-468 3296,-416 3598,-416 3598,-468"/>
<text text-anchor="middle" x="3447" y="-456" font-family="Helvetica" font-size="10.00">B13</text>
<text text-anchor="middle" x="3447" y="-445" font-family="Helvetica" font-size="10.00">Loop: &lt;none&gt;</text>
<text text-anchor="middle" x="3447" y="-434" font-family="Helvetica" font-size="10.00">&#45;&#45;&#45;</text>
<text text-anchor="middle" x="3447" y="-423" font-family="Helvetica" font-size="10.00">HotSpotMethod&lt;LoopBenchmarks.histogramLoop(int[], int[], int)&gt;</text>
</g>
<!-- b12&#45;&gt;b13 -->
<g id="edge19" class="edge">
<title>b12&#45;&gt;b13</title>
<path fill="none" stroke="black" d="M3188.19,-483.07C3220,-478 3253.69,-472.64 3285.86,-467.51"/>
<polygon fill="black" stroke="black" points="3286.47,-470.96 3295.79,-465.93 3285.36,-464.05 3286.47,-470.96"/>
</g>
<!-- b31 -->
<g id="node32" class="node">
<title>b31</title>
<polygon fill="white" stroke="black" points="3598,-716 3296,-716 3296,-664 3598,-664 3598,-716"/>
<text text-anchor="middle" x="3447" y="-704" font-family="Helvetica" font-size="10.00">B31</text>
<text text-anchor="middle" x="3447" y="-693" font-family="Helvetica" font-size="10.00">Loop: &lt;none&gt;</text>
<text text-anchor="middle" x="3447" y="-682" font-family="Helvetica" font-size="10.00">&#45;&#45;&#45;</text>
<text text-anchor="middle" x="3447" y="-671" font-family="Helvetica" font-size="10.00">HotSpotMethod&lt;LoopBenchmarks.histogramLoop(int[], int[], int)&gt;</text>
</g>
<!-- b12&#45;&gt;b31 -->
<g id="edge20" class="edge">
<title>b12&#45;&gt;b31</title>
<path fill="none" stroke="black" d="M3092.02,-533.23C3143.99,-558.26 3224.93,-596.67 3296,-628 3320.47,-638.79 3347.41,-650.1 3371.63,-660.06"/>
<polygon fill="black" stroke="black" points="3370.54,-663.4 3381.12,-663.95 3373.19,-656.92 3370.54,-663.4"/>
</g>
<!-- b13&#45;&gt;b14 -->
<g id="edge21" class="edge">
<title>b13&#45;&gt;b14</title>
<path fill="none" stroke="black" d="M3598.19,-442C3629.86,-442 3663.4,-442 3695.44,-442"/>
<polygon fill="black" stroke="black" points="3695.79,-445.5 3705.79,-442 3695.79,-438.5 3695.79,-445.5"/>
</g>
<!-- b16 -->
<g id="node17" class="node">
<title>b16</title>
<polygon fill="white" stroke="black" points="4418,-726 4116,-726 4116,-674 4418,-674 4418,-726"/>
<text text-anchor="middle" x="4267" y="-714" font-family="Helvetica" font-size="10.00">B16</text>
<text text-anchor="middle" x="4267" y="-703" font-family="Helvetica" font-size="10.00">Loop: &lt;none&gt;</text>
<text text-anchor="middle" x="4267" y="-692" font-family="Helvetica" font-size="10.00">&#45;&#45;&#45;</text>
<text text-anchor="middle" x="4267" y="-681" font-family="Helvetica" font-size="10.00">HotSpotMethod&lt;LoopBenchmarks.histogramLoop(int[], int[], int)&gt;</text>
</g>
<!-- b14&#45;&gt;b16 -->
<g id="edge23" class="edge">
<title>b14&#45;&gt;b16</title>
<path fill="none" stroke="black" d="M3887.19,-468.23C3933.24,-508.63 4026.71,-586.78 4116,-638 4136.85,-649.96 4160.47,-660.84 4182.68,-670.02"/>
<polygon fill="black" stroke="black" points="4181.53,-673.33 4192.11,-673.85 4184.16,-666.84 4181.53,-673.33"/>
</g>
<!-- b18 -->
<g id="node19" class="node">
<title>b18</title>
<polygon fill="white" stroke="black" stroke-width="4" points="4832,-550.5 4530,-550.5 4530,-465.5 4832,-465.5 4832,-550.5"/>
<polygon fill="none" stroke="black" stroke-width="4" points="4836,-554.5 4526,-554.5 4526,-461.5 4836,-461.5 4836,-554.5"/>
<text text-anchor="middle" x="4681" y="-538.5" font-family="Helvetica" font-size="10.00">B18</text>
<text text-anchor="middle" x="4681" y="-527.5" font-family="Helvetica" font-size="10.00">Loop: &lt;none&gt;</text>
<text text-anchor="middle" x="4681" y="-516.5" font-family="Helvetica" font-size="10.00">&#45;&#45;&#45;</text>
<text text-anchor="middle" x="4681" y="-505.5" font-family="Helvetica" font-size="10.00">HotSpotMethod&lt;LoopBenchmarks.histogramLoop(int[], int[], int)&gt;</text>
<text text-anchor="middle" x="4681" y="-494.5" font-family="Helvetica" font-size="10.00">&#45;&#45;&#45;</text>
<text text-anchor="middle" x="4681" y="-483.5" font-family="Helvetica" font-size="10.00">BuboLoopMakers:</text>
<text text-anchor="middle" x="4681" y="-472.5" font-family="Helvetica" font-size="10.00"> &#160;AMD64BuboRDTSCToSlot (LoopID=1)</text>
</g>
<!-- b14&#45;&gt;b18 -->
<g id="edge22" class="edge">
<title>b14&#45;&gt;b18</title>
<path fill="none" stroke="black" d="M3952.67,-415.94C4064.86,-389.01 4256.91,-355.4 4418,-390 4478.61,-403.02 4542.11,-431.2 4591.42,-456.76"/>
<polygon fill="black" stroke="black" points="4589.97,-459.96 4600.45,-461.5 4593.22,-453.76 4589.97,-459.96"/>
</g>
<!-- b15 -->
<g id="node16" class="node">
<title>b15</title>
<polygon fill="white" stroke="black" points="4418,-602 4116,-602 4116,-550 4418,-550 4418,-602"/>
<text text-anchor="middle" x="4267" y="-590" font-family="Helvetica" font-size="10.00">B15</text>
<text text-anchor="middle" x="4267" y="-579" font-family="Helvetica" font-size="10.00">Loop: &lt;none&gt;</text>
<text text-anchor="middle" x="4267" y="-568" font-family="Helvetica" font-size="10.00">&#45;&#45;&#45;</text>
<text text-anchor="middle" x="4267" y="-557" font-family="Helvetica" font-size="10.00">HotSpotMethod&lt;LoopBenchmarks.histogramLoop(int[], int[], int)&gt;</text>
</g>
<!-- b15&#45;&gt;b18 -->
<g id="edge24" class="edge">
<title>b15&#45;&gt;b18</title>
<path fill="none" stroke="black" d="M4418.2,-551.21C4449.98,-545.96 4483.68,-540.4 4515.95,-535.08"/>
<polygon fill="black" stroke="black" points="4516.62,-538.51 4525.91,-533.43 4515.48,-531.61 4516.62,-538.51"/>
</g>
<!-- b16&#45;&gt;b18 -->
<g id="edge25" class="edge">
<title>b16&#45;&gt;b18</title>
<path fill="none" stroke="black" d="M4333.76,-673.96C4360.13,-663.22 4390.68,-650.41 4418,-638 4472.51,-613.24 4532.39,-583.71 4581.13,-559.06"/>
<polygon fill="black" stroke="black" points="4582.76,-562.16 4590.1,-554.52 4579.59,-555.91 4582.76,-562.16"/>
</g>
<!-- b30 -->
<g id="node31" class="node">
<title>b30</title>
<polygon fill="white" stroke="black" points="4832,-726 4530,-726 4530,-674 4832,-674 4832,-726"/>
<text text-anchor="middle" x="4681" y="-714" font-family="Helvetica" font-size="10.00">B30</text>
<text text-anchor="middle" x="4681" y="-703" font-family="Helvetica" font-size="10.00">Loop: &lt;none&gt;</text>
<text text-anchor="middle" x="4681" y="-692" font-family="Helvetica" font-size="10.00">&#45;&#45;&#45;</text>
<text text-anchor="middle" x="4681" y="-681" font-family="Helvetica" font-size="10.00">HotSpotMethod&lt;LoopBenchmarks.histogramLoop(int[], int[], int)&gt;</text>
</g>
<!-- b16&#45;&gt;b30 -->
<g id="edge26" class="edge">
<title>b16&#45;&gt;b30</title>
<path fill="none" stroke="black" d="M4418.2,-700C4451.13,-700 4486.12,-700 4519.43,-700"/>
<polygon fill="black" stroke="black" points="4519.72,-703.5 4529.72,-700 4519.72,-696.5 4519.72,-703.5"/>
</g>
<!-- b17 -->
<g id="node18" class="node">
<title>b17</title>
<polygon fill="white" stroke="black" points="4418,-478 4116,-478 4116,-426 4418,-426 4418,-478"/>
<text text-anchor="middle" x="4267" y="-466" font-family="Helvetica" font-size="10.00">B17</text>
<text text-anchor="middle" x="4267" y="-455" font-family="Helvetica" font-size="10.00">Loop: &lt;none&gt;</text>
<text text-anchor="middle" x="4267" y="-444" font-family="Helvetica" font-size="10.00">&#45;&#45;&#45;</text>
<text text-anchor="middle" x="4267" y="-433" font-family="Helvetica" font-size="10.00">HotSpotMethod&lt;LoopBenchmarks.histogramLoop(int[], int[], int)&gt;</text>
</g>
<!-- b17&#45;&gt;b18 -->
<g id="edge27" class="edge">
<title>b17&#45;&gt;b18</title>
<path fill="none" stroke="black" d="M4418.2,-472.42C4449.98,-476.74 4483.68,-481.32 4515.95,-485.7"/>
<polygon fill="black" stroke="black" points="4515.53,-489.18 4525.91,-487.06 4516.47,-482.24 4515.53,-489.18"/>
</g>
<!-- b19 -->
<g id="node20" class="node">
<title>b19</title>
<polygon fill="lightgreen" stroke="black" points="5246,-534 4944,-534 4944,-482 5246,-482 5246,-534"/>
<text text-anchor="middle" x="5095" y="-522" font-family="Helvetica" font-size="10.00">B19</text>
<text text-anchor="middle" x="5095" y="-511" font-family="Helvetica" font-size="10.00">Loop: L1</text>
<text text-anchor="middle" x="5095" y="-500" font-family="Helvetica" font-size="10.00">&#45;&#45;&#45;</text>
<text text-anchor="middle" x="5095" y="-489" font-family="Helvetica" font-size="10.00">HotSpotMethod&lt;LoopBenchmarks.histogramLoop(int[], int[], int)&gt;</text>
</g>
<!-- b18&#45;&gt;b19 -->
<g id="edge28" class="edge">
<title>b18&#45;&gt;b19</title>
<path fill="none" stroke="black" d="M4836.29,-508C4868.04,-508 4901.53,-508 4933.49,-508"/>
<polygon fill="black" stroke="black" points="4933.81,-511.5 4943.81,-508 4933.81,-504.5 4933.81,-511.5"/>
</g>
<!-- b20 -->
<g id="node21" class="node">
<title>b20</title>
<polygon fill="lightgreen" stroke="black" points="5660,-488 5358,-488 5358,-436 5660,-436 5660,-488"/>
<text text-anchor="middle" x="5509" y="-476" font-family="Helvetica" font-size="10.00">B20</text>
<text text-anchor="middle" x="5509" y="-465" font-family="Helvetica" font-size="10.00">Loop: L1</text>
<text text-anchor="middle" x="5509" y="-454" font-family="Helvetica" font-size="10.00">&#45;&#45;&#45;</text>
<text text-anchor="middle" x="5509" y="-443" font-family="Helvetica" font-size="10.00">HotSpotMethod&lt;LoopBenchmarks.histogramLoop(int[], int[], int)&gt;</text>
</g>
<!-- b19&#45;&gt;b20 -->
<g id="edge29" class="edge">
<title>b19&#45;&gt;b20</title>
<path fill="none" stroke="black" d="M5246.2,-491.23C5279.13,-487.55 5314.12,-483.65 5347.43,-479.93"/>
<polygon fill="black" stroke="black" points="5348.17,-483.37 5357.72,-478.78 5347.39,-476.41 5348.17,-483.37"/>
</g>
<!-- b25 -->
<g id="node26" class="node">
<title>b25</title>
<polygon fill="white" stroke="black" stroke-width="4" points="5660,-359.5 5358,-359.5 5358,-274.5 5660,-274.5 5660,-359.5"/>
<polygon fill="none" stroke="black" stroke-width="4" points="5664,-363.5 5354,-363.5 5354,-270.5 5664,-270.5 5664,-363.5"/>
<text text-anchor="middle" x="5509" y="-347.5" font-family="Helvetica" font-size="10.00">B25</text>
<text text-anchor="middle" x="5509" y="-336.5" font-family="Helvetica" font-size="10.00">Loop: &lt;none&gt;</text>
<text text-anchor="middle" x="5509" y="-325.5" font-family="Helvetica" font-size="10.00">&#45;&#45;&#45;</text>
<text text-anchor="middle" x="5509" y="-314.5" font-family="Helvetica" font-size="10.00">HotSpotMethod&lt;LoopBenchmarks.histogramLoop(int[], int[], int)&gt;</text>
<text text-anchor="middle" x="5509" y="-303.5" font-family="Helvetica" font-size="10.00">&#45;&#45;&#45;</text>
<text text-anchor="middle" x="5509" y="-292.5" font-family="Helvetica" font-size="10.00">BuboLoopMakers:</text>
<text text-anchor="middle" x="5509" y="-281.5" font-family="Helvetica" font-size="10.00"> &#160;AMD64BuboWriteDeltaRDTSC (LoopID=1)</text>
</g>
<!-- b19&#45;&gt;b25 -->
<g id="edge30" class="edge">
<title>b19&#45;&gt;b25</title>
<path fill="none" stroke="black" d="M5152.42,-481.84C5215.43,-452.64 5318.93,-404.65 5398.06,-367.97"/>
<polygon fill="black" stroke="black" points="5399.99,-370.93 5407.59,-363.55 5397.04,-364.58 5399.99,-370.93"/>
</g>
<!-- b21 -->
<g id="node22" class="node">
<title>b21</title>
<polygon fill="lightgreen" stroke="black" points="6074,-618 5772,-618 5772,-566 6074,-566 6074,-618"/>
<text text-anchor="middle" x="5923" y="-606" font-family="Helvetica" font-size="10.00">B21</text>
<text text-anchor="middle" x="5923" y="-595" font-family="Helvetica" font-size="10.00">Loop: L1</text>
<text text-anchor="middle" x="5923" y="-584" font-family="Helvetica" font-size="10.00">&#45;&#45;&#45;</text>
<text text-anchor="middle" x="5923" y="-573" font-family="Helvetica" font-size="10.00">HotSpotMethod&lt;LoopBenchmarks.histogramLoop(int[], int[], int)&gt;</text>
</g>
<!-- b20&#45;&gt;b21 -->
<g id="edge31" class="edge">
<title>b20&#45;&gt;b21</title>
<path fill="none" stroke="black" d="M5592.88,-488.15C5661.33,-509.75 5758.43,-540.39 5829.42,-562.79"/>
<polygon fill="black" stroke="black" points="5828.66,-566.22 5839.25,-565.89 5830.77,-559.54 5828.66,-566.22"/>
</g>
<!-- b22 -->
<g id="node23" class="node">
<title>b22</title>
<polygon fill="lightgreen" stroke="black" points="6074,-491 5772,-491 5772,-439 6074,-439 6074,-491"/>
<text text-anchor="middle" x="5923" y="-479" font-family="Helvetica" font-size="10.00">B22</text>
<text text-anchor="middle" x="5923" y="-468" font-family="Helvetica" font-size="10.00">Loop: L1</text>
<text text-anchor="middle" x="5923" y="-457" font-family="Helvetica" font-size="10.00">&#45;&#45;&#45;</text>
<text text-anchor="middle" x="5923" y="-446" font-family="Helvetica" font-size="10.00">HotSpotMethod&lt;LoopBenchmarks.histogramLoop(int[], int[], int)&gt;</text>
</g>
<!-- b20&#45;&gt;b22 -->
<g id="edge32" class="edge">
<title>b20&#45;&gt;b22</title>
<path fill="none" stroke="black" d="M5660.2,-463.09C5693.13,-463.33 5728.12,-463.59 5761.43,-463.83"/>
<polygon fill="black" stroke="black" points="5761.69,-467.33 5771.72,-463.91 5761.74,-460.33 5761.69,-467.33"/>
</g>
<!-- b21&#45;&gt;b19 -->
<g id="edge33" class="edge">
<title>b21&#45;&gt;b19</title>
<path fill="none" stroke="black" d="M5771.97,-576.74C5626.14,-561.91 5405.43,-539.47 5256.23,-524.29"/>
<polygon fill="black" stroke="black" points="5256.36,-520.79 5246.06,-523.26 5255.66,-527.75 5256.36,-520.79"/>
</g>
<!-- b23 -->
<g id="node24" class="node">
<title>b23</title>
<polygon fill="lightgreen" stroke="black" points="6484,-626 6182,-626 6182,-574 6484,-574 6484,-626"/>
<text text-anchor="middle" x="6333" y="-614" font-family="Helvetica" font-size="10.00">B23</text>
<text text-anchor="middle" x="6333" y="-603" font-family="Helvetica" font-size="10.00">Loop: L1</text>
<text text-anchor="middle" x="6333" y="-592" font-family="Helvetica" font-size="10.00">&#45;&#45;&#45;</text>
<text text-anchor="middle" x="6333" y="-581" font-family="Helvetica" font-size="10.00">HotSpotMethod&lt;LoopBenchmarks.histogramLoop(int[], int[], int)&gt;</text>
</g>
<!-- b22&#45;&gt;b23 -->
<g id="edge34" class="edge">
<title>b22&#45;&gt;b23</title>
<path fill="none" stroke="black" d="M6002.67,-491.03C6071.56,-513.82 6171.58,-546.92 6243.3,-570.65"/>
<polygon fill="black" stroke="black" points="6242.63,-574.12 6253.23,-573.94 6244.83,-567.47 6242.63,-574.12"/>
</g>
<!-- b28 -->
<g id="node29" class="node">
<title>b28</title>
<polygon fill="white" stroke="black" points="6484,-491 6182,-491 6182,-439 6484,-439 6484,-491"/>
<text text-anchor="middle" x="6333" y="-479" font-family="Helvetica" font-size="10.00">B28</text>
<text text-anchor="middle" x="6333" y="-468" font-family="Helvetica" font-size="10.00">Loop: &lt;none&gt;</text>
<text text-anchor="middle" x="6333" y="-457" font-family="Helvetica" font-size="10.00">&#45;&#45;&#45;</text>
<text text-anchor="middle" x="6333" y="-446" font-family="Helvetica" font-size="10.00">HotSpotMethod&lt;LoopBenchmarks.histogramLoop(int[], int[], int)&gt;</text>
</g>
<!-- b22&#45;&gt;b28 -->
<g id="edge35" class="edge">
<title>b22&#45;&gt;b28</title>
<path fill="none" stroke="black" d="M6074.19,-465C6105.86,-465 6139.4,-465 6171.44,-465"/>
<polygon fill="black" stroke="black" points="6171.79,-468.5 6181.79,-465 6171.79,-461.5 6171.79,-468.5"/>
</g>
<!-- b24 -->
<g id="node25" class="node">
<title>b24</title>
<polygon fill="lightgreen" stroke="black" points="6894,-760 6592,-760 6592,-708 6894,-708 6894,-760"/>
<text text-anchor="middle" x="6743" y="-748" font-family="Helvetica" font-size="10.00">B24</text>
<text text-anchor="middle" x="6743" y="-737" font-family="Helvetica" font-size="10.00">Loop: L1</text>
<text text-anchor="middle" x="6743" y="-726" font-family="Helvetica" font-size="10.00">&#45;&#45;&#45;</text>
<text text-anchor="middle" x="6743" y="-715" font-family="Helvetica" font-size="10.00">HotSpotMethod&lt;LoopBenchmarks.histogramLoop(int[], int[], int)&gt;</text>
</g>
<!-- b23&#45;&gt;b24 -->
<g id="edge36" class="edge">
<title>b23&#45;&gt;b24</title>
<path fill="none" stroke="black" d="M6413.64,-626.15C6482.3,-648.71 6581.35,-681.24 6652.69,-704.67"/>
<polygon fill="black" stroke="black" points="6651.97,-708.12 6662.57,-707.91 6654.16,-701.47 6651.97,-708.12"/>
</g>
<!-- b27 -->
<g id="node28" class="node">
<title>b27</title>
<polygon fill="white" stroke="black" points="6894,-626 6592,-626 6592,-574 6894,-574 6894,-626"/>
<text text-anchor="middle" x="6743" y="-614" font-family="Helvetica" font-size="10.00">B27</text>
<text text-anchor="middle" x="6743" y="-603" font-family="Helvetica" font-size="10.00">Loop: &lt;none&gt;</text>
<text text-anchor="middle" x="6743" y="-592" font-family="Helvetica" font-size="10.00">&#45;&#45;&#45;</text>
<text text-anchor="middle" x="6743" y="-581" font-family="Helvetica" font-size="10.00">HotSpotMethod&lt;LoopBenchmarks.histogramLoop(int[], int[], int)&gt;</text>
</g>
<!-- b23&#45;&gt;b27 -->
<g id="edge37" class="edge">
<title>b23&#45;&gt;b27</title>
<path fill="none" stroke="black" d="M6484.19,-600C6515.86,-600 6549.4,-600 6581.44,-600"/>
<polygon fill="black" stroke="black" points="6581.79,-603.5 6591.79,-600 6581.79,-596.5 6581.79,-603.5"/>
</g>
<!-- b24&#45;&gt;b19 -->
<g id="edge38" class="edge">
<title>b24&#45;&gt;b19</title>
<path fill="none" stroke="black" d="M6591.76,-734.23C6334.56,-731.49 5794.96,-712.05 5354,-605 5287.02,-588.74 5213.74,-560.07 5162.45,-538.1"/>
<polygon fill="black" stroke="black" points="5163.7,-534.83 5153.14,-534.08 5160.93,-541.26 5163.7,-534.83"/>
</g>
<!-- b25&#45;&gt;b26 -->
<g id="edge39" class="edge">
<title>b25&#45;&gt;b26</title>
<path fill="none" stroke="black" d="M5633.06,-270.41C5701.22,-244.59 5783.94,-213.27 5843.38,-190.77"/>
<polygon fill="black" stroke="black" points="5844.97,-193.91 5853.08,-187.1 5842.49,-187.36 5844.97,-193.91"/>
</g>
<!-- b29 -->
<g id="node30" class="node">
<title>b29</title>
<polygon fill="white" stroke="black" points="7304,-558 7002,-558 7002,-506 7304,-506 7304,-558"/>
<text text-anchor="middle" x="7153" y="-546" font-family="Helvetica" font-size="10.00">B29</text>
<text text-anchor="middle" x="7153" y="-535" font-family="Helvetica" font-size="10.00">Loop: &lt;none&gt;</text>
<text text-anchor="middle" x="7153" y="-524" font-family="Helvetica" font-size="10.00">&#45;&#45;&#45;</text>
<text text-anchor="middle" x="7153" y="-513" font-family="Helvetica" font-size="10.00">HotSpotMethod&lt;LoopBenchmarks.histogramLoop(int[], int[], int)&gt;</text>
</g>
<!-- b27&#45;&gt;b29 -->
<g id="edge40" class="edge">
<title>b27&#45;&gt;b29</title>
<path fill="none" stroke="black" d="M6894.19,-574.97C6926,-569.67 6959.69,-564.05 6991.86,-558.69"/>
<polygon fill="black" stroke="black" points="6992.5,-562.13 7001.79,-557.03 6991.35,-555.23 6992.5,-562.13"/>
</g>
<!-- b28&#45;&gt;b29 -->
<g id="edge41" class="edge">
<title>b28&#45;&gt;b29</title>
<path fill="none" stroke="black" d="M6484.03,-477.29C6627.97,-489.08 6844.61,-506.82 6991.84,-518.88"/>
<polygon fill="black" stroke="black" points="6991.63,-522.38 7001.88,-519.7 6992.2,-515.4 6991.63,-522.38"/>
</g>
<!-- b33 -->
<g id="node34" class="node">
<title>b33</title>
<polygon fill="white" stroke="black" points="4008,-783 3706,-783 3706,-731 4008,-731 4008,-783"/>
<text text-anchor="middle" x="3857" y="-771" font-family="Helvetica" font-size="10.00">B33</text>
<text text-anchor="middle" x="3857" y="-760" font-family="Helvetica" font-size="10.00">Loop: &lt;none&gt;</text>
<text text-anchor="middle" x="3857" y="-749" font-family="Helvetica" font-size="10.00">&#45;&#45;&#45;</text>
<text text-anchor="middle" x="3857" y="-738" font-family="Helvetica" font-size="10.00">HotSpotMethod&lt;LoopBenchmarks.histogramLoop(int[], int[], int)&gt;</text>
</g>
<!-- b31&#45;&gt;b33 -->
<g id="edge42" class="edge">
<title>b31&#45;&gt;b33</title>
<path fill="none" stroke="black" d="M3598.19,-714.66C3630,-719.89 3663.69,-725.42 3695.86,-730.7"/>
<polygon fill="black" stroke="black" points="3695.36,-734.17 3705.79,-732.33 3696.49,-727.26 3695.36,-734.17"/>
</g>
<!-- b32&#45;&gt;b33 -->
<g id="edge43" class="edge">
<title>b32&#45;&gt;b33</title>
<path fill="none" stroke="black" d="M3188.03,-759.45C3331.97,-758.92 3548.61,-758.13 3695.84,-757.59"/>
<polygon fill="black" stroke="black" points="3695.89,-761.09 3705.88,-757.55 3695.87,-754.09 3695.89,-761.09"/>
</g>
</g>
</svg>
