<?xml version="1.0" encoding="UTF-8" standalone="no"?>
<!DOCTYPE svg PUBLIC "-//W3C//DTD SVG 1.1//EN"
 "http://www.w3.org/Graphics/SVG/1.1/DTD/svg11.dtd">
<!-- Generated by graphviz version 2.44.0 (0)
 -->
<!-- Title: CFG_145 Pages: 1 -->
<svg width="8045pt" height="1264pt"
 viewBox="0.00 0.00 8045.00 1264.16" xmlns="http://www.w3.org/2000/svg" xmlns:xlink="http://www.w3.org/1999/xlink">
<g id="graph0" class="graph" transform="scale(1 1) rotate(0) translate(4 1260.16)">
<title>CFG_145</title>
<polygon fill="white" stroke="transparent" points="-4,4 -4,-1260.16 8041,-1260.16 8041,4 -4,4"/>
<text text-anchor="middle" x="286" y="-1236.16" font-family="Times-Roman" font-size="20.00">209&#45;LoopBenchmarks.polynomialLoop(double[], double)</text>
<!-- b0 -->
<g id="node1" class="node">
<title>b0</title>
<polygon fill="white" stroke="black" points="319,-510 0,-510 0,-458 319,-458 319,-510"/>
<text text-anchor="middle" x="159.5" y="-498" font-family="Helvetica" font-size="10.00">B0</text>
<text text-anchor="middle" x="159.5" y="-487" font-family="Helvetica" font-size="10.00">Loop: &lt;none&gt;</text>
<text text-anchor="middle" x="159.5" y="-476" font-family="Helvetica" font-size="10.00">&#45;&#45;&#45;</text>
<text text-anchor="middle" x="159.5" y="-465" font-family="Helvetica" font-size="10.00">HotSpotMethod&lt;LoopBenchmarks.polynomialLoop(double[], double)&gt;</text>
</g>
<!-- b1 -->
<g id="node2" class="node">
<title>b1</title>
<polygon fill="white" stroke="black" points="746,-572 427,-572 427,-520 746,-520 746,-572"/>
<text text-anchor="middle" x="586.5" y="-560" font-family="Helvetica" font-size="10.00">B1</text>
<text text-anchor="middle" x="586.5" y="-549" font-family="Helvetica" font-size="10.00">Loop: &lt;none&gt;</text>
<text text-anchor="middle" x="586.5" y="-538" font-family="Helvetica" font-size="10.00">&#45;&#45;&#45;</text>
<text text-anchor="middle" x="586.5" y="-527" font-family="Helvetica" font-size="10.00">HotSpotMethod&lt;LoopBenchmarks.polynomialLoop(double[], double)&gt;</text>
</g>
<!-- b0&#45;&gt;b1 -->
<g id="edge1" class="edge">
<title>b0&#45;&gt;b1</title>
<path fill="none" stroke="black" d="M319.06,-507.13C351.02,-511.79 384.72,-516.71 417,-521.42"/>
<polygon fill="black" stroke="black" points="416.57,-524.89 426.97,-522.87 417.58,-517.97 416.57,-524.89"/>
</g>
<!-- b2 -->
<g id="node3" class="node">
<title>b2</title>
<polygon fill="white" stroke="black" points="746,-448 427,-448 427,-396 746,-396 746,-448"/>
<text text-anchor="middle" x="586.5" y="-436" font-family="Helvetica" font-size="10.00">B2</text>
<text text-anchor="middle" x="586.5" y="-425" font-family="Helvetica" font-size="10.00">Loop: &lt;none&gt;</text>
<text text-anchor="middle" x="586.5" y="-414" font-family="Helvetica" font-size="10.00">&#45;&#45;&#45;</text>
<text text-anchor="middle" x="586.5" y="-403" font-family="Helvetica" font-size="10.00">HotSpotMethod&lt;LoopBenchmarks.polynomialLoop(double[], double)&gt;</text>
</g>
<!-- b0&#45;&gt;b2 -->
<g id="edge2" class="edge">
<title>b0&#45;&gt;b2</title>
<path fill="none" stroke="black" d="M319.06,-460.87C351.02,-456.21 384.72,-451.29 417,-446.58"/>
<polygon fill="black" stroke="black" points="417.58,-450.03 426.97,-445.13 416.57,-443.11 417.58,-450.03"/>
</g>
<!-- b3 -->
<g id="node4" class="node">
<title>b3</title>
<polygon fill="white" stroke="black" points="1173,-510 854,-510 854,-458 1173,-458 1173,-510"/>
<text text-anchor="middle" x="1013.5" y="-498" font-family="Helvetica" font-size="10.00">B3</text>
<text text-anchor="middle" x="1013.5" y="-487" font-family="Helvetica" font-size="10.00">Loop: &lt;none&gt;</text>
<text text-anchor="middle" x="1013.5" y="-476" font-family="Helvetica" font-size="10.00">&#45;&#45;&#45;</text>
<text text-anchor="middle" x="1013.5" y="-465" font-family="Helvetica" font-size="10.00">HotSpotMethod&lt;LoopBenchmarks.polynomialLoop(double[], double)&gt;</text>
</g>
<!-- b1&#45;&gt;b3 -->
<g id="edge3" class="edge">
<title>b1&#45;&gt;b3</title>
<path fill="none" stroke="black" d="M746.06,-522.87C778.02,-518.21 811.72,-513.29 844,-508.58"/>
<polygon fill="black" stroke="black" points="844.58,-512.03 853.97,-507.13 843.57,-505.11 844.58,-512.03"/>
</g>
<!-- b2&#45;&gt;b3 -->
<g id="edge4" class="edge">
<title>b2&#45;&gt;b3</title>
<path fill="none" stroke="black" d="M746.06,-445.13C778.02,-449.79 811.72,-454.71 844,-459.42"/>
<polygon fill="black" stroke="black" points="843.57,-462.89 853.97,-460.87 844.58,-455.97 843.57,-462.89"/>
</g>
<!-- b5 -->
<g id="node6" class="node">
<title>b5</title>
<polygon fill="white" stroke="black" points="1600,-319 1281,-319 1281,-267 1600,-267 1600,-319"/>
<text text-anchor="middle" x="1440.5" y="-307" font-family="Helvetica" font-size="10.00">B5</text>
<text text-anchor="middle" x="1440.5" y="-296" font-family="Helvetica" font-size="10.00">Loop: &lt;none&gt;</text>
<text text-anchor="middle" x="1440.5" y="-285" font-family="Helvetica" font-size="10.00">&#45;&#45;&#45;</text>
<text text-anchor="middle" x="1440.5" y="-274" font-family="Helvetica" font-size="10.00">HotSpotMethod&lt;LoopBenchmarks.polynomialLoop(double[], double)&gt;</text>
</g>
<!-- b3&#45;&gt;b5 -->
<g id="edge6" class="edge">
<title>b3&#45;&gt;b5</title>
<path fill="none" stroke="black" d="M1065.53,-457.83C1118.77,-430.87 1204.93,-388.23 1281,-355 1306.45,-343.88 1334.58,-332.57 1359.99,-322.71"/>
<polygon fill="black" stroke="black" points="1361.51,-325.87 1369.58,-319 1358.99,-319.34 1361.51,-325.87"/>
</g>
<!-- b7 -->
<g id="node8" class="node">
<title>b7</title>
<polygon fill="white" stroke="black" points="2027,-567 1708,-567 1708,-515 2027,-515 2027,-567"/>
<text text-anchor="middle" x="1867.5" y="-555" font-family="Helvetica" font-size="10.00">B7</text>
<text text-anchor="middle" x="1867.5" y="-544" font-family="Helvetica" font-size="10.00">Loop: &lt;none&gt;</text>
<text text-anchor="middle" x="1867.5" y="-533" font-family="Helvetica" font-size="10.00">&#45;&#45;&#45;</text>
<text text-anchor="middle" x="1867.5" y="-522" font-family="Helvetica" font-size="10.00">HotSpotMethod&lt;LoopBenchmarks.polynomialLoop(double[], double)&gt;</text>
</g>
<!-- b3&#45;&gt;b7 -->
<g id="edge5" class="edge">
<title>b3&#45;&gt;b7</title>
<path fill="none" stroke="black" d="M1057.81,-510.23C1108.99,-539.55 1197.74,-585.26 1281,-603 1450.75,-639.18 1652.91,-600.09 1769.8,-569.66"/>
<polygon fill="black" stroke="black" points="1771.02,-572.96 1779.8,-567.02 1769.23,-566.19 1771.02,-572.96"/>
</g>
<!-- b4 -->
<g id="node5" class="node">
<title>b4</title>
<polygon fill="white" stroke="black" points="1600,-567 1281,-567 1281,-515 1600,-515 1600,-567"/>
<text text-anchor="middle" x="1440.5" y="-555" font-family="Helvetica" font-size="10.00">B4</text>
<text text-anchor="middle" x="1440.5" y="-544" font-family="Helvetica" font-size="10.00">Loop: &lt;none&gt;</text>
<text text-anchor="middle" x="1440.5" y="-533" font-family="Helvetica" font-size="10.00">&#45;&#45;&#45;</text>
<text text-anchor="middle" x="1440.5" y="-522" font-family="Helvetica" font-size="10.00">HotSpotMethod&lt;LoopBenchmarks.polynomialLoop(double[], double)&gt;</text>
</g>
<!-- b4&#45;&gt;b7 -->
<g id="edge7" class="edge">
<title>b4&#45;&gt;b7</title>
<path fill="none" stroke="black" d="M1600.06,-541C1631.88,-541 1665.43,-541 1697.59,-541"/>
<polygon fill="black" stroke="black" points="1697.97,-544.5 1707.97,-541 1697.97,-537.5 1697.97,-544.5"/>
</g>
<!-- b5&#45;&gt;b7 -->
<g id="edge8" class="edge">
<title>b5&#45;&gt;b7</title>
<path fill="none" stroke="black" d="M1518.92,-319.09C1545.25,-329.06 1574.47,-341.34 1600,-355 1685.3,-400.62 1775.89,-468.57 1826.41,-508.47"/>
<polygon fill="black" stroke="black" points="1824.46,-511.39 1834.47,-514.86 1828.81,-505.9 1824.46,-511.39"/>
</g>
<!-- b33 -->
<g id="node34" class="node">
<title>b33</title>
<polygon fill="white" stroke="black" points="2454,-86 2135,-86 2135,-34 2454,-34 2454,-86"/>
<text text-anchor="middle" x="2294.5" y="-74" font-family="Helvetica" font-size="10.00">B33</text>
<text text-anchor="middle" x="2294.5" y="-63" font-family="Helvetica" font-size="10.00">Loop: &lt;none&gt;</text>
<text text-anchor="middle" x="2294.5" y="-52" font-family="Helvetica" font-size="10.00">&#45;&#45;&#45;</text>
<text text-anchor="middle" x="2294.5" y="-41" font-family="Helvetica" font-size="10.00">HotSpotMethod&lt;LoopBenchmarks.polynomialLoop(double[], double)&gt;</text>
</g>
<!-- b5&#45;&gt;b33 -->
<g id="edge9" class="edge">
<title>b5&#45;&gt;b33</title>
<path fill="none" stroke="black" d="M1536.76,-266.95C1697.48,-223 2021.29,-134.44 2188.41,-88.74"/>
<polygon fill="black" stroke="black" points="2189.48,-92.07 2198.21,-86.06 2187.64,-85.32 2189.48,-92.07"/>
</g>
<!-- b6 -->
<g id="node7" class="node">
<title>b6</title>
<polygon fill="white" stroke="black" points="1600,-443 1281,-443 1281,-391 1600,-391 1600,-443"/>
<text text-anchor="middle" x="1440.5" y="-431" font-family="Helvetica" font-size="10.00">B6</text>
<text text-anchor="middle" x="1440.5" y="-420" font-family="Helvetica" font-size="10.00">Loop: &lt;none&gt;</text>
<text text-anchor="middle" x="1440.5" y="-409" font-family="Helvetica" font-size="10.00">&#45;&#45;&#45;</text>
<text text-anchor="middle" x="1440.5" y="-398" font-family="Helvetica" font-size="10.00">HotSpotMethod&lt;LoopBenchmarks.polynomialLoop(double[], double)&gt;</text>
</g>
<!-- b6&#45;&gt;b7 -->
<g id="edge10" class="edge">
<title>b6&#45;&gt;b7</title>
<path fill="none" stroke="black" d="M1530.85,-443.07C1600.03,-463.25 1695.8,-491.2 1767.34,-512.07"/>
<polygon fill="black" stroke="black" points="1766.69,-515.52 1777.27,-514.96 1768.65,-508.8 1766.69,-515.52"/>
</g>
<!-- b9 -->
<g id="node10" class="node">
<title>b9</title>
<polygon fill="white" stroke="black" points="2454,-567 2135,-567 2135,-515 2454,-515 2454,-567"/>
<text text-anchor="middle" x="2294.5" y="-555" font-family="Helvetica" font-size="10.00">B9</text>
<text text-anchor="middle" x="2294.5" y="-544" font-family="Helvetica" font-size="10.00">Loop: &lt;none&gt;</text>
<text text-anchor="middle" x="2294.5" y="-533" font-family="Helvetica" font-size="10.00">&#45;&#45;&#45;</text>
<text text-anchor="middle" x="2294.5" y="-522" font-family="Helvetica" font-size="10.00">HotSpotMethod&lt;LoopBenchmarks.polynomialLoop(double[], double)&gt;</text>
</g>
<!-- b7&#45;&gt;b9 -->
<g id="edge12" class="edge">
<title>b7&#45;&gt;b9</title>
<path fill="none" stroke="black" d="M2027.06,-541C2058.88,-541 2092.43,-541 2124.59,-541"/>
<polygon fill="black" stroke="black" points="2124.97,-544.5 2134.97,-541 2124.97,-537.5 2124.97,-544.5"/>
</g>
<!-- b28 -->
<g id="node29" class="node">
<title>b28</title>
<polygon fill="white" stroke="black" points="8037,-1049 7718,-1049 7718,-997 8037,-997 8037,-1049"/>
<text text-anchor="middle" x="7877.5" y="-1037" font-family="Helvetica" font-size="10.00">B28</text>
<text text-anchor="middle" x="7877.5" y="-1026" font-family="Helvetica" font-size="10.00">Loop: &lt;none&gt;</text>
<text text-anchor="middle" x="7877.5" y="-1015" font-family="Helvetica" font-size="10.00">&#45;&#45;&#45;</text>
<text text-anchor="middle" x="7877.5" y="-1004" font-family="Helvetica" font-size="10.00">HotSpotMethod&lt;LoopBenchmarks.polynomialLoop(double[], double)&gt;</text>
</g>
<!-- b7&#45;&gt;b28 -->
<g id="edge11" class="edge">
<title>b7&#45;&gt;b28</title>
<path fill="none" stroke="black" d="M1883.19,-567.02C1955.95,-692.14 2291.56,-1226 2720.5,-1226 2720.5,-1226 2720.5,-1226 7016.5,-1226 7282.27,-1226 7355.19,-1228.52 7610,-1153 7689.08,-1129.56 7773.57,-1084.54 7825.72,-1054.13"/>
<polygon fill="black" stroke="black" points="7827.59,-1057.09 7834.44,-1049 7824.04,-1051.05 7827.59,-1057.09"/>
</g>
<!-- b8 -->
<g id="node9" class="node">
<title>b8</title>
<polygon fill="white" stroke="black" points="7606,-1117 7287,-1117 7287,-1065 7606,-1065 7606,-1117"/>
<text text-anchor="middle" x="7446.5" y="-1105" font-family="Helvetica" font-size="10.00">B8</text>
<text text-anchor="middle" x="7446.5" y="-1094" font-family="Helvetica" font-size="10.00">Loop: &lt;none&gt;</text>
<text text-anchor="middle" x="7446.5" y="-1083" font-family="Helvetica" font-size="10.00">&#45;&#45;&#45;</text>
<text text-anchor="middle" x="7446.5" y="-1072" font-family="Helvetica" font-size="10.00">HotSpotMethod&lt;LoopBenchmarks.polynomialLoop(double[], double)&gt;</text>
</g>
<!-- b8&#45;&gt;b28 -->
<g id="edge13" class="edge">
<title>b8&#45;&gt;b28</title>
<path fill="none" stroke="black" d="M7606.02,-1065.87C7639.26,-1060.6 7674.43,-1055.03 7708.01,-1049.71"/>
<polygon fill="black" stroke="black" points="7708.58,-1053.16 7717.91,-1048.14 7707.49,-1046.25 7708.58,-1053.16"/>
</g>
<!-- b10 -->
<g id="node11" class="node">
<title>b10</title>
<polygon fill="white" stroke="black" points="2881,-650 2562,-650 2562,-598 2881,-598 2881,-650"/>
<text text-anchor="middle" x="2721.5" y="-638" font-family="Helvetica" font-size="10.00">B10</text>
<text text-anchor="middle" x="2721.5" y="-627" font-family="Helvetica" font-size="10.00">Loop: &lt;none&gt;</text>
<text text-anchor="middle" x="2721.5" y="-616" font-family="Helvetica" font-size="10.00">&#45;&#45;&#45;</text>
<text text-anchor="middle" x="2721.5" y="-605" font-family="Helvetica" font-size="10.00">HotSpotMethod&lt;LoopBenchmarks.polynomialLoop(double[], double)&gt;</text>
</g>
<!-- b9&#45;&gt;b10 -->
<g id="edge14" class="edge">
<title>b9&#45;&gt;b10</title>
<path fill="none" stroke="black" d="M2428.81,-567.03C2476.06,-576.26 2529.42,-586.68 2577.45,-596.06"/>
<polygon fill="black" stroke="black" points="2576.82,-599.51 2587.3,-597.99 2578.16,-592.64 2576.82,-599.51"/>
</g>
<!-- b32 -->
<g id="node33" class="node">
<title>b32</title>
<polygon fill="white" stroke="black" points="3735,-251 3416,-251 3416,-199 3735,-199 3735,-251"/>
<text text-anchor="middle" x="3575.5" y="-239" font-family="Helvetica" font-size="10.00">B32</text>
<text text-anchor="middle" x="3575.5" y="-228" font-family="Helvetica" font-size="10.00">Loop: &lt;none&gt;</text>
<text text-anchor="middle" x="3575.5" y="-217" font-family="Helvetica" font-size="10.00">&#45;&#45;&#45;</text>
<text text-anchor="middle" x="3575.5" y="-206" font-family="Helvetica" font-size="10.00">HotSpotMethod&lt;LoopBenchmarks.polynomialLoop(double[], double)&gt;</text>
</g>
<!-- b9&#45;&gt;b32 -->
<g id="edge15" class="edge">
<title>b9&#45;&gt;b32</title>
<path fill="none" stroke="black" d="M2400.98,-514.94C2638.25,-456.32 3212.47,-314.45 3458.95,-253.55"/>
<polygon fill="black" stroke="black" points="3460.14,-256.86 3469.01,-251.06 3458.47,-250.06 3460.14,-256.86"/>
</g>
<!-- b11 -->
<g id="node12" class="node">
<title>b11</title>
<polygon fill="white" stroke="black" points="6313,-982 5994,-982 5994,-930 6313,-930 6313,-982"/>
<text text-anchor="middle" x="6153.5" y="-970" font-family="Helvetica" font-size="10.00">B11</text>
<text text-anchor="middle" x="6153.5" y="-959" font-family="Helvetica" font-size="10.00">Loop: &lt;none&gt;</text>
<text text-anchor="middle" x="6153.5" y="-948" font-family="Helvetica" font-size="10.00">&#45;&#45;&#45;</text>
<text text-anchor="middle" x="6153.5" y="-937" font-family="Helvetica" font-size="10.00">HotSpotMethod&lt;LoopBenchmarks.polynomialLoop(double[], double)&gt;</text>
</g>
<!-- b10&#45;&gt;b11 -->
<g id="edge16" class="edge">
<title>b10&#45;&gt;b11</title>
<path fill="none" stroke="black" d="M2759.53,-650.05C2874.52,-728.32 3237.95,-956 3574.5,-956 3574.5,-956 3574.5,-956 5292.5,-956 5532.58,-956 5810.36,-956 5983.76,-956"/>
<polygon fill="black" stroke="black" points="5983.99,-959.5 5993.99,-956 5983.99,-952.5 5983.99,-959.5"/>
</g>
<!-- b12 -->
<g id="node13" class="node">
<title>b12</title>
<polygon fill="white" stroke="black" points="3308,-650 2989,-650 2989,-598 3308,-598 3308,-650"/>
<text text-anchor="middle" x="3148.5" y="-638" font-family="Helvetica" font-size="10.00">B12</text>
<text text-anchor="middle" x="3148.5" y="-627" font-family="Helvetica" font-size="10.00">Loop: &lt;none&gt;</text>
<text text-anchor="middle" x="3148.5" y="-616" font-family="Helvetica" font-size="10.00">&#45;&#45;&#45;</text>
<text text-anchor="middle" x="3148.5" y="-605" font-family="Helvetica" font-size="10.00">HotSpotMethod&lt;LoopBenchmarks.polynomialLoop(double[], double)&gt;</text>
</g>
<!-- b10&#45;&gt;b12 -->
<g id="edge17" class="edge">
<title>b10&#45;&gt;b12</title>
<path fill="none" stroke="black" d="M2881.06,-624C2912.88,-624 2946.43,-624 2978.59,-624"/>
<polygon fill="black" stroke="black" points="2978.97,-627.5 2988.97,-624 2978.97,-620.5 2978.97,-627.5"/>
</g>
<!-- b11&#45;&gt;b28 -->
<g id="edge18" class="edge">
<title>b11&#45;&gt;b28</title>
<path fill="none" stroke="black" d="M6313.03,-962.17C6637.49,-974.79 7374.67,-1003.47 7707.66,-1016.43"/>
<polygon fill="black" stroke="black" points="7707.75,-1019.94 7717.88,-1016.83 7708.02,-1012.94 7707.75,-1019.94"/>
</g>
<!-- b14 -->
<g id="node15" class="node">
<title>b14</title>
<polygon fill="white" stroke="black" points="3735,-453 3416,-453 3416,-401 3735,-401 3735,-453"/>
<text text-anchor="middle" x="3575.5" y="-441" font-family="Helvetica" font-size="10.00">B14</text>
<text text-anchor="middle" x="3575.5" y="-430" font-family="Helvetica" font-size="10.00">Loop: &lt;none&gt;</text>
<text text-anchor="middle" x="3575.5" y="-419" font-family="Helvetica" font-size="10.00">&#45;&#45;&#45;</text>
<text text-anchor="middle" x="3575.5" y="-408" font-family="Helvetica" font-size="10.00">HotSpotMethod&lt;LoopBenchmarks.polynomialLoop(double[], double)&gt;</text>
</g>
<!-- b12&#45;&gt;b14 -->
<g id="edge20" class="edge">
<title>b12&#45;&gt;b14</title>
<path fill="none" stroke="black" d="M3205.94,-597.84C3284.4,-561.47 3426.11,-495.78 3509.09,-457.32"/>
<polygon fill="black" stroke="black" points="3510.57,-460.49 3518.17,-453.11 3507.62,-454.14 3510.57,-460.49"/>
</g>
<!-- b17 -->
<g id="node18" class="node">
<title>b17</title>
<polygon fill="white" stroke="black" points="4589,-645 4270,-645 4270,-593 4589,-593 4589,-645"/>
<text text-anchor="middle" x="4429.5" y="-633" font-family="Helvetica" font-size="10.00">B17</text>
<text text-anchor="middle" x="4429.5" y="-622" font-family="Helvetica" font-size="10.00">Loop: &lt;none&gt;</text>
<text text-anchor="middle" x="4429.5" y="-611" font-family="Helvetica" font-size="10.00">&#45;&#45;&#45;</text>
<text text-anchor="middle" x="4429.5" y="-600" font-family="Helvetica" font-size="10.00">HotSpotMethod&lt;LoopBenchmarks.polynomialLoop(double[], double)&gt;</text>
</g>
<!-- b12&#45;&gt;b17 -->
<g id="edge19" class="edge">
<title>b12&#45;&gt;b17</title>
<path fill="none" stroke="black" d="M3229.43,-650.03C3401.59,-702.37 3819.59,-809.42 4162,-737 4240.62,-720.37 4324.26,-678.96 4376.43,-649.92"/>
<polygon fill="black" stroke="black" points="4378.16,-652.96 4385.16,-645.01 4374.73,-646.86 4378.16,-652.96"/>
</g>
<!-- b13 -->
<g id="node14" class="node">
<title>b13</title>
<polygon fill="white" stroke="black" points="4162,-701 3843,-701 3843,-649 4162,-649 4162,-701"/>
<text text-anchor="middle" x="4002.5" y="-689" font-family="Helvetica" font-size="10.00">B13</text>
<text text-anchor="middle" x="4002.5" y="-678" font-family="Helvetica" font-size="10.00">Loop: &lt;none&gt;</text>
<text text-anchor="middle" x="4002.5" y="-667" font-family="Helvetica" font-size="10.00">&#45;&#45;&#45;</text>
<text text-anchor="middle" x="4002.5" y="-656" font-family="Helvetica" font-size="10.00">HotSpotMethod&lt;LoopBenchmarks.polynomialLoop(double[], double)&gt;</text>
</g>
<!-- b13&#45;&gt;b17 -->
<g id="edge21" class="edge">
<title>b13&#45;&gt;b17</title>
<path fill="none" stroke="black" d="M4162.06,-654.11C4194.02,-649.9 4227.72,-645.46 4260,-641.2"/>
<polygon fill="black" stroke="black" points="4260.52,-644.66 4269.97,-639.89 4259.6,-637.72 4260.52,-644.66"/>
</g>
<!-- b15 -->
<g id="node16" class="node">
<title>b15</title>
<polygon fill="white" stroke="black" points="4162,-453 3843,-453 3843,-401 4162,-401 4162,-453"/>
<text text-anchor="middle" x="4002.5" y="-441" font-family="Helvetica" font-size="10.00">B15</text>
<text text-anchor="middle" x="4002.5" y="-430" font-family="Helvetica" font-size="10.00">Loop: &lt;none&gt;</text>
<text text-anchor="middle" x="4002.5" y="-419" font-family="Helvetica" font-size="10.00">&#45;&#45;&#45;</text>
<text text-anchor="middle" x="4002.5" y="-408" font-family="Helvetica" font-size="10.00">HotSpotMethod&lt;LoopBenchmarks.polynomialLoop(double[], double)&gt;</text>
</g>
<!-- b14&#45;&gt;b15 -->
<g id="edge22" class="edge">
<title>b14&#45;&gt;b15</title>
<path fill="none" stroke="black" d="M3735.06,-427C3766.88,-427 3800.43,-427 3832.59,-427"/>
<polygon fill="black" stroke="black" points="3832.97,-430.5 3842.97,-427 3832.97,-423.5 3832.97,-430.5"/>
</g>
<!-- b31 -->
<g id="node32" class="node">
<title>b31</title>
<polygon fill="white" stroke="black" points="4589,-318 4270,-318 4270,-266 4589,-266 4589,-318"/>
<text text-anchor="middle" x="4429.5" y="-306" font-family="Helvetica" font-size="10.00">B31</text>
<text text-anchor="middle" x="4429.5" y="-295" font-family="Helvetica" font-size="10.00">Loop: &lt;none&gt;</text>
<text text-anchor="middle" x="4429.5" y="-284" font-family="Helvetica" font-size="10.00">&#45;&#45;&#45;</text>
<text text-anchor="middle" x="4429.5" y="-273" font-family="Helvetica" font-size="10.00">HotSpotMethod&lt;LoopBenchmarks.polynomialLoop(double[], double)&gt;</text>
</g>
<!-- b14&#45;&gt;b31 -->
<g id="edge23" class="edge">
<title>b14&#45;&gt;b31</title>
<path fill="none" stroke="black" d="M3677.23,-400.95C3726.88,-388.77 3787.82,-374.83 3843,-365 3982.52,-340.14 4142.23,-320.83 4259.57,-308.33"/>
<polygon fill="black" stroke="black" points="4260.14,-311.79 4269.72,-307.26 4259.4,-304.83 4260.14,-311.79"/>
</g>
<!-- b15&#45;&gt;b17 -->
<g id="edge24" class="edge">
<title>b15&#45;&gt;b17</title>
<path fill="none" stroke="black" d="M4073.83,-453.11C4101.52,-463.75 4133.45,-476.48 4162,-489 4234.2,-520.67 4315.38,-560.97 4368.97,-588.24"/>
<polygon fill="black" stroke="black" points="4367.49,-591.41 4377.98,-592.84 4370.67,-585.18 4367.49,-591.41"/>
</g>
<!-- b30 -->
<g id="node31" class="node">
<title>b30</title>
<polygon fill="white" stroke="black" points="5020,-453 4701,-453 4701,-401 5020,-401 5020,-453"/>
<text text-anchor="middle" x="4860.5" y="-441" font-family="Helvetica" font-size="10.00">B30</text>
<text text-anchor="middle" x="4860.5" y="-430" font-family="Helvetica" font-size="10.00">Loop: &lt;none&gt;</text>
<text text-anchor="middle" x="4860.5" y="-419" font-family="Helvetica" font-size="10.00">&#45;&#45;&#45;</text>
<text text-anchor="middle" x="4860.5" y="-408" font-family="Helvetica" font-size="10.00">HotSpotMethod&lt;LoopBenchmarks.polynomialLoop(double[], double)&gt;</text>
</g>
<!-- b15&#45;&gt;b30 -->
<g id="edge25" class="edge">
<title>b15&#45;&gt;b30</title>
<path fill="none" stroke="black" d="M4162,-427C4312.27,-427 4537.25,-427 4690.79,-427"/>
<polygon fill="black" stroke="black" points="4690.8,-430.5 4700.8,-427 4690.8,-423.5 4690.8,-430.5"/>
</g>
<!-- b16 -->
<g id="node17" class="node">
<title>b16</title>
<polygon fill="white" stroke="black" points="4162,-577 3843,-577 3843,-525 4162,-525 4162,-577"/>
<text text-anchor="middle" x="4002.5" y="-565" font-family="Helvetica" font-size="10.00">B16</text>
<text text-anchor="middle" x="4002.5" y="-554" font-family="Helvetica" font-size="10.00">Loop: &lt;none&gt;</text>
<text text-anchor="middle" x="4002.5" y="-543" font-family="Helvetica" font-size="10.00">&#45;&#45;&#45;</text>
<text text-anchor="middle" x="4002.5" y="-532" font-family="Helvetica" font-size="10.00">HotSpotMethod&lt;LoopBenchmarks.polynomialLoop(double[], double)&gt;</text>
</g>
<!-- b16&#45;&gt;b17 -->
<g id="edge26" class="edge">
<title>b16&#45;&gt;b17</title>
<path fill="none" stroke="black" d="M4162.06,-576.37C4194.02,-581.48 4227.72,-586.87 4260,-592.04"/>
<polygon fill="black" stroke="black" points="4259.55,-595.51 4269.97,-593.64 4260.65,-588.6 4259.55,-595.51"/>
</g>
<!-- b18 -->
<g id="node19" class="node">
<title>b18</title>
<polygon fill="white" stroke="black" stroke-width="4" points="5020,-738.5 4701,-738.5 4701,-653.5 5020,-653.5 5020,-738.5"/>
<polygon fill="none" stroke="black" stroke-width="4" points="5024,-742.5 4697,-742.5 4697,-649.5 5024,-649.5 5024,-742.5"/>
<text text-anchor="middle" x="4860.5" y="-726.5" font-family="Helvetica" font-size="10.00">B18</text>
<text text-anchor="middle" x="4860.5" y="-715.5" font-family="Helvetica" font-size="10.00">Loop: &lt;none&gt;</text>
<text text-anchor="middle" x="4860.5" y="-704.5" font-family="Helvetica" font-size="10.00">&#45;&#45;&#45;</text>
<text text-anchor="middle" x="4860.5" y="-693.5" font-family="Helvetica" font-size="10.00">HotSpotMethod&lt;LoopBenchmarks.polynomialLoop(double[], double)&gt;</text>
<text text-anchor="middle" x="4860.5" y="-682.5" font-family="Helvetica" font-size="10.00">&#45;&#45;&#45;</text>
<text text-anchor="middle" x="4860.5" y="-671.5" font-family="Helvetica" font-size="10.00">BuboLoopMakers:</text>
<text text-anchor="middle" x="4860.5" y="-660.5" font-family="Helvetica" font-size="10.00"> &#160;AMD64BuboRDTSCToSlot (LoopID=0)</text>
</g>
<!-- b17&#45;&gt;b18 -->
<g id="edge27" class="edge">
<title>b17&#45;&gt;b18</title>
<path fill="none" stroke="black" d="M4575.44,-645.02C4611.27,-651.45 4650,-658.4 4686.99,-665.04"/>
<polygon fill="black" stroke="black" points="4686.4,-668.49 4696.86,-666.81 4687.64,-661.6 4686.4,-668.49"/>
</g>
<!-- b29 -->
<g id="node30" class="node">
<title>b29</title>
<polygon fill="white" stroke="black" points="5020,-577 4701,-577 4701,-525 5020,-525 5020,-577"/>
<text text-anchor="middle" x="4860.5" y="-565" font-family="Helvetica" font-size="10.00">B29</text>
<text text-anchor="middle" x="4860.5" y="-554" font-family="Helvetica" font-size="10.00">Loop: &lt;none&gt;</text>
<text text-anchor="middle" x="4860.5" y="-543" font-family="Helvetica" font-size="10.00">&#45;&#45;&#45;</text>
<text text-anchor="middle" x="4860.5" y="-532" font-family="Helvetica" font-size="10.00">HotSpotMethod&lt;LoopBenchmarks.polynomialLoop(double[], double)&gt;</text>
</g>
<!-- b17&#45;&gt;b29 -->
<g id="edge28" class="edge">
<title>b17&#45;&gt;b29</title>
<path fill="none" stroke="black" d="M4589.02,-593.87C4622.26,-588.6 4657.43,-583.03 4691.01,-577.71"/>
<polygon fill="black" stroke="black" points="4691.58,-581.16 4700.91,-576.14 4690.49,-574.25 4691.58,-581.16"/>
</g>
<!-- b19 -->
<g id="node20" class="node">
<title>b19</title>
<polygon fill="lightblue" stroke="black" points="5451,-481 5132,-481 5132,-429 5451,-429 5451,-481"/>
<text text-anchor="middle" x="5291.5" y="-469" font-family="Helvetica" font-size="10.00">B19</text>
<text text-anchor="middle" x="5291.5" y="-458" font-family="Helvetica" font-size="10.00">Loop: L0</text>
<text text-anchor="middle" x="5291.5" y="-447" font-family="Helvetica" font-size="10.00">&#45;&#45;&#45;</text>
<text text-anchor="middle" x="5291.5" y="-436" font-family="Helvetica" font-size="10.00">HotSpotMethod&lt;LoopBenchmarks.polynomialLoop(double[], double)&gt;</text>
</g>
<!-- b18&#45;&gt;b19 -->
<g id="edge29" class="edge">
<title>b18&#45;&gt;b19</title>
<path fill="none" stroke="black" d="M4955.27,-649.38C4977.91,-637.77 5001.94,-625.16 5024,-613 5100.31,-570.95 5186.74,-518.85 5239.94,-486.26"/>
<polygon fill="black" stroke="black" points="5241.82,-489.22 5248.51,-481.01 5238.16,-483.25 5241.82,-489.22"/>
</g>
<!-- b20 -->
<g id="node21" class="node">
<title>b20</title>
<polygon fill="lightblue" stroke="black" points="5882,-475 5563,-475 5563,-423 5882,-423 5882,-475"/>
<text text-anchor="middle" x="5722.5" y="-463" font-family="Helvetica" font-size="10.00">B20</text>
<text text-anchor="middle" x="5722.5" y="-452" font-family="Helvetica" font-size="10.00">Loop: L0</text>
<text text-anchor="middle" x="5722.5" y="-441" font-family="Helvetica" font-size="10.00">&#45;&#45;&#45;</text>
<text text-anchor="middle" x="5722.5" y="-430" font-family="Helvetica" font-size="10.00">HotSpotMethod&lt;LoopBenchmarks.polynomialLoop(double[], double)&gt;</text>
</g>
<!-- b19&#45;&gt;b20 -->
<g id="edge31" class="edge">
<title>b19&#45;&gt;b20</title>
<path fill="none" stroke="black" d="M5409.73,-429C5453.85,-425.82 5504.94,-424.41 5552.83,-424.91"/>
<polygon fill="black" stroke="black" points="5552.95,-428.42 5562.99,-425.05 5553.04,-421.42 5552.95,-428.42"/>
</g>
<!-- b21 -->
<g id="node22" class="node">
<title>b21</title>
<polygon fill="white" stroke="black" stroke-width="4" points="5882,-647 5563,-647 5563,-551 5882,-551 5882,-647"/>
<polygon fill="none" stroke="black" stroke-width="4" points="5886,-651 5559,-651 5559,-547 5886,-547 5886,-651"/>
<text text-anchor="middle" x="5722.5" y="-635" font-family="Helvetica" font-size="10.00">B21</text>
<text text-anchor="middle" x="5722.5" y="-624" font-family="Helvetica" font-size="10.00">Loop: &lt;none&gt;</text>
<text text-anchor="middle" x="5722.5" y="-613" font-family="Helvetica" font-size="10.00">&#45;&#45;&#45;</text>
<text text-anchor="middle" x="5722.5" y="-602" font-family="Helvetica" font-size="10.00">HotSpotMethod&lt;LoopBenchmarks.polynomialLoop(double[], double)&gt;</text>
<text text-anchor="middle" x="5722.5" y="-591" font-family="Helvetica" font-size="10.00">&#45;&#45;&#45;</text>
<text text-anchor="middle" x="5722.5" y="-580" font-family="Helvetica" font-size="10.00">BuboLoopMakers:</text>
<text text-anchor="middle" x="5722.5" y="-569" font-family="Helvetica" font-size="10.00"> &#160;AMD64BuboWriteDeltaRDTSC</text>
<text text-anchor="middle" x="5722.5" y="-558" font-family="Helvetica" font-size="10.00"> &#160;AMD64BuboRDTSCToSlot (LoopID=1)</text>
</g>
<!-- b19&#45;&gt;b21 -->
<g id="edge30" class="edge">
<title>b19&#45;&gt;b21</title>
<path fill="none" stroke="black" d="M5370.19,-481.08C5422.09,-498.5 5492.34,-522.08 5556.38,-543.58"/>
<polygon fill="black" stroke="black" points="5555.6,-547 5566.19,-546.87 5557.82,-540.37 5555.6,-547"/>
</g>
<!-- b20&#45;&gt;b19 -->
<g id="edge32" class="edge">
<title>b20&#45;&gt;b19</title>
<path fill="none" stroke="black" d="M5604.19,-475.01C5560.09,-478.19 5509.04,-479.59 5461.19,-479.09"/>
<polygon fill="black" stroke="black" points="5461.07,-475.58 5451.02,-478.95 5460.98,-482.58 5461.07,-475.58"/>
</g>
<!-- b22 -->
<g id="node23" class="node">
<title>b22</title>
<polygon fill="lightgreen" stroke="black" points="6313,-613 5994,-613 5994,-561 6313,-561 6313,-613"/>
<text text-anchor="middle" x="6153.5" y="-601" font-family="Helvetica" font-size="10.00">B22</text>
<text text-anchor="middle" x="6153.5" y="-590" font-family="Helvetica" font-size="10.00">Loop: L1</text>
<text text-anchor="middle" x="6153.5" y="-579" font-family="Helvetica" font-size="10.00">&#45;&#45;&#45;</text>
<text text-anchor="middle" x="6153.5" y="-568" font-family="Helvetica" font-size="10.00">HotSpotMethod&lt;LoopBenchmarks.polynomialLoop(double[], double)&gt;</text>
</g>
<!-- b21&#45;&gt;b22 -->
<g id="edge33" class="edge">
<title>b21&#45;&gt;b22</title>
<path fill="none" stroke="black" d="M5886.3,-594.45C5918.06,-593.56 5951.43,-592.62 5983.39,-591.73"/>
<polygon fill="black" stroke="black" points="5983.82,-595.22 5993.72,-591.44 5983.62,-588.22 5983.82,-595.22"/>
</g>
<!-- b23 -->
<g id="node24" class="node">
<title>b23</title>
<polygon fill="lightgreen" stroke="black" points="6744,-563 6425,-563 6425,-511 6744,-511 6744,-563"/>
<text text-anchor="middle" x="6584.5" y="-551" font-family="Helvetica" font-size="10.00">B23</text>
<text text-anchor="middle" x="6584.5" y="-540" font-family="Helvetica" font-size="10.00">Loop: L1</text>
<text text-anchor="middle" x="6584.5" y="-529" font-family="Helvetica" font-size="10.00">&#45;&#45;&#45;</text>
<text text-anchor="middle" x="6584.5" y="-518" font-family="Helvetica" font-size="10.00">HotSpotMethod&lt;LoopBenchmarks.polynomialLoop(double[], double)&gt;</text>
</g>
<!-- b22&#45;&gt;b23 -->
<g id="edge35" class="edge">
<title>b22&#45;&gt;b23</title>
<path fill="none" stroke="black" d="M6212.8,-560.99C6264.66,-548.38 6343.12,-536.82 6414.52,-530.24"/>
<polygon fill="black" stroke="black" points="6414.9,-533.72 6424.55,-529.35 6414.27,-526.75 6414.9,-533.72"/>
</g>
<!-- b24 -->
<g id="node25" class="node">
<title>b24</title>
<polygon fill="white" stroke="black" stroke-width="4" points="6744,-735 6425,-735 6425,-639 6744,-639 6744,-735"/>
<polygon fill="none" stroke="black" stroke-width="4" points="6748,-739 6421,-739 6421,-635 6748,-635 6748,-739"/>
<text text-anchor="middle" x="6584.5" y="-723" font-family="Helvetica" font-size="10.00">B24</text>
<text text-anchor="middle" x="6584.5" y="-712" font-family="Helvetica" font-size="10.00">Loop: &lt;none&gt;</text>
<text text-anchor="middle" x="6584.5" y="-701" font-family="Helvetica" font-size="10.00">&#45;&#45;&#45;</text>
<text text-anchor="middle" x="6584.5" y="-690" font-family="Helvetica" font-size="10.00">HotSpotMethod&lt;LoopBenchmarks.polynomialLoop(double[], double)&gt;</text>
<text text-anchor="middle" x="6584.5" y="-679" font-family="Helvetica" font-size="10.00">&#45;&#45;&#45;</text>
<text text-anchor="middle" x="6584.5" y="-668" font-family="Helvetica" font-size="10.00">BuboLoopMakers:</text>
<text text-anchor="middle" x="6584.5" y="-657" font-family="Helvetica" font-size="10.00"> &#160;AMD64BuboWriteDeltaRDTSC</text>
<text text-anchor="middle" x="6584.5" y="-646" font-family="Helvetica" font-size="10.00"> &#160;AMD64BuboRDTSCToSlot (LoopID=2)</text>
</g>
<!-- b22&#45;&gt;b24 -->
<g id="edge34" class="edge">
<title>b22&#45;&gt;b24</title>
<path fill="none" stroke="black" d="M6266.09,-613.01C6310.22,-623.3 6361.97,-635.36 6410.72,-646.73"/>
<polygon fill="black" stroke="black" points="6410.22,-650.2 6420.75,-649.06 6411.81,-643.39 6410.22,-650.2"/>
</g>
<!-- b23&#45;&gt;b22 -->
<g id="edge36" class="edge">
<title>b23&#45;&gt;b22</title>
<path fill="none" stroke="black" d="M6524.97,-563.06C6473.01,-575.68 6394.46,-587.23 6323.05,-593.8"/>
<polygon fill="black" stroke="black" points="6322.68,-590.32 6313.02,-594.69 6323.3,-597.29 6322.68,-590.32"/>
</g>
<!-- b25 -->
<g id="node26" class="node">
<title>b25</title>
<polygon fill="lightpink" stroke="black" points="7175,-706 6856,-706 6856,-654 7175,-654 7175,-706"/>
<text text-anchor="middle" x="7015.5" y="-694" font-family="Helvetica" font-size="10.00">B25</text>
<text text-anchor="middle" x="7015.5" y="-683" font-family="Helvetica" font-size="10.00">Loop: L2</text>
<text text-anchor="middle" x="7015.5" y="-672" font-family="Helvetica" font-size="10.00">&#45;&#45;&#45;</text>
<text text-anchor="middle" x="7015.5" y="-661" font-family="Helvetica" font-size="10.00">HotSpotMethod&lt;LoopBenchmarks.polynomialLoop(double[], double)&gt;</text>
</g>
<!-- b24&#45;&gt;b25 -->
<g id="edge37" class="edge">
<title>b24&#45;&gt;b25</title>
<path fill="none" stroke="black" d="M6748.3,-684.34C6780.06,-683.83 6813.43,-683.28 6845.39,-682.76"/>
<polygon fill="black" stroke="black" points="6845.77,-686.25 6855.72,-682.59 6845.66,-679.25 6845.77,-686.25"/>
</g>
<!-- b26 -->
<g id="node27" class="node">
<title>b26</title>
<polygon fill="lightpink" stroke="black" points="7606,-681 7287,-681 7287,-629 7606,-629 7606,-681"/>
<text text-anchor="middle" x="7446.5" y="-669" font-family="Helvetica" font-size="10.00">B26</text>
<text text-anchor="middle" x="7446.5" y="-658" font-family="Helvetica" font-size="10.00">Loop: L2</text>
<text text-anchor="middle" x="7446.5" y="-647" font-family="Helvetica" font-size="10.00">&#45;&#45;&#45;</text>
<text text-anchor="middle" x="7446.5" y="-636" font-family="Helvetica" font-size="10.00">HotSpotMethod&lt;LoopBenchmarks.polynomialLoop(double[], double)&gt;</text>
</g>
<!-- b25&#45;&gt;b26 -->
<g id="edge39" class="edge">
<title>b25&#45;&gt;b26</title>
<path fill="none" stroke="black" d="M7095.19,-653.96C7146.04,-646.13 7214.21,-640.49 7276.89,-638.38"/>
<polygon fill="black" stroke="black" points="7277.01,-641.88 7286.89,-638.07 7276.79,-634.88 7277.01,-641.88"/>
</g>
<!-- b27 -->
<g id="node28" class="node">
<title>b27</title>
<polygon fill="white" stroke="black" stroke-width="4" points="7606,-842.5 7287,-842.5 7287,-757.5 7606,-757.5 7606,-842.5"/>
<polygon fill="none" stroke="black" stroke-width="4" points="7610,-846.5 7283,-846.5 7283,-753.5 7610,-753.5 7610,-846.5"/>
<text text-anchor="middle" x="7446.5" y="-830.5" font-family="Helvetica" font-size="10.00">B27</text>
<text text-anchor="middle" x="7446.5" y="-819.5" font-family="Helvetica" font-size="10.00">Loop: &lt;none&gt;</text>
<text text-anchor="middle" x="7446.5" y="-808.5" font-family="Helvetica" font-size="10.00">&#45;&#45;&#45;</text>
<text text-anchor="middle" x="7446.5" y="-797.5" font-family="Helvetica" font-size="10.00">HotSpotMethod&lt;LoopBenchmarks.polynomialLoop(double[], double)&gt;</text>
<text text-anchor="middle" x="7446.5" y="-786.5" font-family="Helvetica" font-size="10.00">&#45;&#45;&#45;</text>
<text text-anchor="middle" x="7446.5" y="-775.5" font-family="Helvetica" font-size="10.00">BuboLoopMakers:</text>
<text text-anchor="middle" x="7446.5" y="-764.5" font-family="Helvetica" font-size="10.00"> &#160;AMD64BuboWriteDeltaRDTSC (LoopID=2)</text>
</g>
<!-- b25&#45;&gt;b27 -->
<g id="edge38" class="edge">
<title>b25&#45;&gt;b27</title>
<path fill="none" stroke="black" d="M7109.59,-706.04C7157.46,-719.43 7217.36,-736.18 7273.27,-751.82"/>
<polygon fill="black" stroke="black" points="7272.36,-755.2 7282.93,-754.53 7274.25,-748.46 7272.36,-755.2"/>
</g>
<!-- b26&#45;&gt;b25 -->
<g id="edge40" class="edge">
<title>b26&#45;&gt;b25</title>
<path fill="none" stroke="black" d="M7366.9,-681.03C7316.01,-688.87 7247.77,-694.51 7185.04,-696.62"/>
<polygon fill="black" stroke="black" points="7184.91,-693.12 7175.02,-696.93 7185.13,-700.12 7184.91,-693.12"/>
</g>
<!-- b27&#45;&gt;b28 -->
<g id="edge41" class="edge">
<title>b27&#45;&gt;b28</title>
<path fill="none" stroke="black" d="M7537.17,-846.61C7621.38,-890.39 7744.96,-954.62 7817.43,-992.29"/>
<polygon fill="black" stroke="black" points="7815.95,-995.47 7826.44,-996.98 7819.18,-989.26 7815.95,-995.47"/>
</g>
<!-- b34 -->
<g id="node35" class="node">
<title>b34</title>
<polygon fill="white" stroke="black" points="5451,-318 5132,-318 5132,-266 5451,-266 5451,-318"/>
<text text-anchor="middle" x="5291.5" y="-306" font-family="Helvetica" font-size="10.00">B34</text>
<text text-anchor="middle" x="5291.5" y="-295" font-family="Helvetica" font-size="10.00">Loop: &lt;none&gt;</text>
<text text-anchor="middle" x="5291.5" y="-284" font-family="Helvetica" font-size="10.00">&#45;&#45;&#45;</text>
<text text-anchor="middle" x="5291.5" y="-273" font-family="Helvetica" font-size="10.00">HotSpotMethod&lt;LoopBenchmarks.polynomialLoop(double[], double)&gt;</text>
</g>
<!-- b29&#45;&gt;b34 -->
<g id="edge42" class="edge">
<title>b29&#45;&gt;b34</title>
<path fill="none" stroke="black" d="M4947.31,-524.86C4972.89,-515.35 5000.38,-503.34 5024,-489 5078.9,-455.68 5080.76,-431.71 5132,-393 5165.55,-367.65 5205.5,-342.23 5236.89,-323.23"/>
<polygon fill="black" stroke="black" points="5238.74,-326.2 5245.51,-318.04 5235.13,-320.2 5238.74,-326.2"/>
</g>
<!-- b30&#45;&gt;b34 -->
<g id="edge43" class="edge">
<title>b30&#45;&gt;b34</title>
<path fill="none" stroke="black" d="M4944.22,-400.97C5016.8,-378.13 5122.26,-344.94 5197.7,-321.2"/>
<polygon fill="black" stroke="black" points="5199.19,-324.4 5207.67,-318.06 5197.08,-317.73 5199.19,-324.4"/>
</g>
<!-- b31&#45;&gt;b34 -->
<g id="edge44" class="edge">
<title>b31&#45;&gt;b34</title>
<path fill="none" stroke="black" d="M4589.24,-292C4740.5,-292 4967.45,-292 5121.89,-292"/>
<polygon fill="black" stroke="black" points="5121.96,-295.5 5131.96,-292 5121.96,-288.5 5121.96,-295.5"/>
</g>
<!-- b32&#45;&gt;b34 -->
<g id="edge45" class="edge">
<title>b32&#45;&gt;b34</title>
<path fill="none" stroke="black" d="M3735.31,-221.7C3934.77,-218.5 4287.42,-215.95 4589,-230 4771.48,-238.5 4979.91,-258.2 5121.85,-273.13"/>
<polygon fill="black" stroke="black" points="5121.64,-276.62 5131.95,-274.19 5122.37,-269.66 5121.64,-276.62"/>
</g>
<!-- b33&#45;&gt;b34 -->
<g id="edge46" class="edge">
<title>b33&#45;&gt;b34</title>
<path fill="none" stroke="black" d="M2454.25,-42.12C2625.19,-24.44 2905.24,0 3147.5,0 3147.5,0 3147.5,0 4430.5,0 4752.26,0 5107.5,-185.53 5238.4,-260.82"/>
<polygon fill="black" stroke="black" points="5236.65,-263.85 5247.06,-265.83 5240.16,-257.79 5236.65,-263.85"/>
</g>
</g>
</svg>
