<?xml version="1.0" encoding="UTF-8" standalone="no"?>
<!DOCTYPE svg PUBLIC "-//W3C//DTD SVG 1.1//EN"
 "http://www.w3.org/Graphics/SVG/1.1/DTD/svg11.dtd">
<!-- Generated by graphviz version 2.44.0 (0)
 -->
<!-- Title: CFG_33 Pages: 1 -->
<svg width="1028pt" height="322pt"
 viewBox="0.00 0.00 1028.00 322.00" xmlns="http://www.w3.org/2000/svg" xmlns:xlink="http://www.w3.org/1999/xlink">
<g id="graph0" class="graph" transform="scale(1 1) rotate(0) translate(4 318)">
<title>CFG_33</title>
<polygon fill="white" stroke="transparent" points="-4,4 -4,-318 1024,-318 1024,4 -4,4"/>
<text text-anchor="middle" x="307.5" y="-294" font-family="Times-Roman" font-size="20.00">56&#45;java.lang.module.ModuleDescriptor$Exports.isQualified()</text>
<!-- b0 -->
<g id="node1" class="node">
<title>b0</title>
<polygon fill="white" stroke="black" points="268,-168 0,-168 0,-116 268,-116 268,-168"/>
<text text-anchor="middle" x="134" y="-156" font-family="Helvetica" font-size="10.00">B0</text>
<text text-anchor="middle" x="134" y="-145" font-family="Helvetica" font-size="10.00">Loop: &lt;none&gt;</text>
<text text-anchor="middle" x="134" y="-134" font-family="Helvetica" font-size="10.00">&#45;&#45;&#45;</text>
<text text-anchor="middle" x="134" y="-123" font-family="Helvetica" font-size="10.00">HotSpotMethod&lt;ModuleDescriptor$Exports.isQualified()&gt;</text>
</g>
<!-- b1 -->
<g id="node2" class="node">
<title>b1</title>
<polygon fill="white" stroke="black" points="642,-284 378,-284 378,-232 642,-232 642,-284"/>
<text text-anchor="middle" x="510" y="-272" font-family="Helvetica" font-size="10.00">B1</text>
<text text-anchor="middle" x="510" y="-261" font-family="Helvetica" font-size="10.00">Loop: &lt;none&gt;</text>
<text text-anchor="middle" x="510" y="-250" font-family="Helvetica" font-size="10.00">&#45;&#45;&#45;</text>
<text text-anchor="middle" x="510" y="-239" font-family="Helvetica" font-size="10.00">HotSpotMethod&lt;ImmutableCollections$SetN.isEmpty()&gt;</text>
</g>
<!-- b0&#45;&gt;b1 -->
<g id="edge1" class="edge">
<title>b0&#45;&gt;b1</title>
<path fill="none" stroke="black" d="M218.93,-168.03C277.18,-186.1 354.82,-210.18 415.12,-228.88"/>
<polygon fill="black" stroke="black" points="414.44,-232.33 425.02,-231.95 416.51,-225.65 414.44,-232.33"/>
</g>
<!-- b2 -->
<g id="node3" class="node">
<title>b2</title>
<polygon fill="white" stroke="black" points="548.5,-160 471.5,-160 471.5,-124 548.5,-124 548.5,-160"/>
<text text-anchor="middle" x="510" y="-145" font-family="Helvetica" font-size="10.00">B2</text>
<text text-anchor="middle" x="510" y="-134" font-family="Helvetica" font-size="10.00">Loop: &lt;none&gt;</text>
</g>
<!-- b0&#45;&gt;b2 -->
<g id="edge2" class="edge">
<title>b0&#45;&gt;b2</title>
<path fill="none" stroke="black" d="M268.18,-142C335.24,-142 412.4,-142 460.93,-142"/>
<polygon fill="black" stroke="black" points="461.14,-145.5 471.14,-142 461.14,-138.5 461.14,-145.5"/>
</g>
<!-- b4 -->
<g id="node5" class="node">
<title>b4</title>
<polygon fill="white" stroke="black" points="644,-52 376,-52 376,0 644,0 644,-52"/>
<text text-anchor="middle" x="510" y="-40" font-family="Helvetica" font-size="10.00">B4</text>
<text text-anchor="middle" x="510" y="-29" font-family="Helvetica" font-size="10.00">Loop: &lt;none&gt;</text>
<text text-anchor="middle" x="510" y="-18" font-family="Helvetica" font-size="10.00">&#45;&#45;&#45;</text>
<text text-anchor="middle" x="510" y="-7" font-family="Helvetica" font-size="10.00">HotSpotMethod&lt;ModuleDescriptor$Exports.isQualified()&gt;</text>
</g>
<!-- b0&#45;&gt;b4 -->
<g id="edge3" class="edge">
<title>b0&#45;&gt;b4</title>
<path fill="none" stroke="black" d="M218.93,-115.97C277.18,-97.9 354.82,-73.82 415.12,-55.12"/>
<polygon fill="black" stroke="black" points="416.51,-58.35 425.02,-52.05 414.44,-51.67 416.51,-58.35"/>
</g>
<!-- b3 -->
<g id="node4" class="node">
<title>b3</title>
<polygon fill="white" stroke="black" points="1020,-226 752,-226 752,-174 1020,-174 1020,-226"/>
<text text-anchor="middle" x="886" y="-214" font-family="Helvetica" font-size="10.00">B3</text>
<text text-anchor="middle" x="886" y="-203" font-family="Helvetica" font-size="10.00">Loop: &lt;none&gt;</text>
<text text-anchor="middle" x="886" y="-192" font-family="Helvetica" font-size="10.00">&#45;&#45;&#45;</text>
<text text-anchor="middle" x="886" y="-181" font-family="Helvetica" font-size="10.00">HotSpotMethod&lt;ModuleDescriptor$Exports.isQualified()&gt;</text>
</g>
<!-- b1&#45;&gt;b3 -->
<g id="edge4" class="edge">
<title>b1&#45;&gt;b3</title>
<path fill="none" stroke="black" d="M642.07,-237.67C674.32,-232.67 709.01,-227.29 741.8,-222.21"/>
<polygon fill="black" stroke="black" points="742.57,-225.63 751.91,-220.64 741.49,-218.71 742.57,-225.63"/>
</g>
<!-- b2&#45;&gt;b3 -->
<g id="edge5" class="edge">
<title>b2&#45;&gt;b3</title>
<path fill="none" stroke="black" d="M548.57,-147.83C593.68,-154.82 671.99,-166.97 741.71,-177.78"/>
<polygon fill="black" stroke="black" points="741.51,-181.29 751.93,-179.36 742.58,-174.37 741.51,-181.29"/>
</g>
</g>
</svg>
