<?xml version="1.0" encoding="UTF-8" standalone="no"?>
<!DOCTYPE svg PUBLIC "-//W3C//DTD SVG 1.1//EN"
 "http://www.w3.org/Graphics/SVG/1.1/DTD/svg11.dtd">
<!-- Generated by graphviz version 2.44.0 (0)
 -->
<!-- Title: CFG_51 Pages: 1 -->
<svg width="1106pt" height="484pt"
 viewBox="0.00 0.00 1106.00 484.00" xmlns="http://www.w3.org/2000/svg" xmlns:xlink="http://www.w3.org/1999/xlink">
<g id="graph0" class="graph" transform="scale(1 1) rotate(0) translate(4 480)">
<title>CFG_51</title>
<polygon fill="white" stroke="transparent" points="-4,4 -4,-480 1102,-480 1102,4 -4,4"/>
<text text-anchor="middle" x="325" y="-456" font-family="Times-Roman" font-size="20.00">83&#45;jdk.internal.util.Preconditions.checkIndex(int, int, BiFunction)</text>
<!-- b0 -->
<g id="node1" class="node">
<title>b0</title>
<polygon fill="white" stroke="black" points="294,-378 0,-378 0,-326 294,-326 294,-378"/>
<text text-anchor="middle" x="147" y="-366" font-family="Helvetica" font-size="10.00">B0</text>
<text text-anchor="middle" x="147" y="-355" font-family="Helvetica" font-size="10.00">Loop: &lt;none&gt;</text>
<text text-anchor="middle" x="147" y="-344" font-family="Helvetica" font-size="10.00">&#45;&#45;&#45;</text>
<text text-anchor="middle" x="147" y="-333" font-family="Helvetica" font-size="10.00">HotSpotMethod&lt;Preconditions.checkIndex(int, int, BiFunction)&gt;</text>
</g>
<!-- b2 -->
<g id="node3" class="node">
<title>b2</title>
<polygon fill="white" stroke="black" points="696,-446 402,-446 402,-394 696,-394 696,-446"/>
<text text-anchor="middle" x="549" y="-434" font-family="Helvetica" font-size="10.00">B2</text>
<text text-anchor="middle" x="549" y="-423" font-family="Helvetica" font-size="10.00">Loop: &lt;none&gt;</text>
<text text-anchor="middle" x="549" y="-412" font-family="Helvetica" font-size="10.00">&#45;&#45;&#45;</text>
<text text-anchor="middle" x="549" y="-401" font-family="Helvetica" font-size="10.00">HotSpotMethod&lt;Preconditions.checkIndex(int, int, BiFunction)&gt;</text>
</g>
<!-- b0&#45;&gt;b2 -->
<g id="edge2" class="edge">
<title>b0&#45;&gt;b2</title>
<path fill="none" stroke="black" d="M294.11,-376.84C325.96,-382.25 359.79,-388 392.01,-393.48"/>
<polygon fill="black" stroke="black" points="391.51,-396.95 401.95,-395.17 392.68,-390.05 391.51,-396.95"/>
</g>
<!-- b5 -->
<g id="node6" class="node">
<title>b5</title>
<polygon fill="white" stroke="black" points="1098,-244 804,-244 804,-192 1098,-192 1098,-244"/>
<text text-anchor="middle" x="951" y="-232" font-family="Helvetica" font-size="10.00">B5</text>
<text text-anchor="middle" x="951" y="-221" font-family="Helvetica" font-size="10.00">Loop: &lt;none&gt;</text>
<text text-anchor="middle" x="951" y="-210" font-family="Helvetica" font-size="10.00">&#45;&#45;&#45;</text>
<text text-anchor="middle" x="951" y="-199" font-family="Helvetica" font-size="10.00">HotSpotMethod&lt;Preconditions.checkIndex(int, int, BiFunction)&gt;</text>
</g>
<!-- b0&#45;&gt;b5 -->
<g id="edge1" class="edge">
<title>b0&#45;&gt;b5</title>
<path fill="none" stroke="black" d="M294.17,-327.58C435.47,-303.97 648.84,-268.32 793.53,-244.14"/>
<polygon fill="black" stroke="black" points="794.54,-247.52 803.82,-242.42 793.38,-240.62 794.54,-247.52"/>
</g>
<!-- b1 -->
<g id="node2" class="node">
<title>b1</title>
<polygon fill="white" stroke="black" points="696,-176 402,-176 402,-124 696,-124 696,-176"/>
<text text-anchor="middle" x="549" y="-164" font-family="Helvetica" font-size="10.00">B1</text>
<text text-anchor="middle" x="549" y="-153" font-family="Helvetica" font-size="10.00">Loop: &lt;none&gt;</text>
<text text-anchor="middle" x="549" y="-142" font-family="Helvetica" font-size="10.00">&#45;&#45;&#45;</text>
<text text-anchor="middle" x="549" y="-131" font-family="Helvetica" font-size="10.00">HotSpotMethod&lt;Preconditions.checkIndex(int, int, BiFunction)&gt;</text>
</g>
<!-- b1&#45;&gt;b5 -->
<g id="edge3" class="edge">
<title>b1&#45;&gt;b5</title>
<path fill="none" stroke="black" d="M696.11,-174.84C727.96,-180.25 761.79,-186 794.01,-191.48"/>
<polygon fill="black" stroke="black" points="793.51,-194.95 803.95,-193.17 794.68,-188.05 793.51,-194.95"/>
</g>
<!-- b3 -->
<g id="node4" class="node">
<title>b3</title>
<polygon fill="white" stroke="black" points="1098,-446 804,-446 804,-394 1098,-394 1098,-446"/>
<text text-anchor="middle" x="951" y="-434" font-family="Helvetica" font-size="10.00">B3</text>
<text text-anchor="middle" x="951" y="-423" font-family="Helvetica" font-size="10.00">Loop: &lt;none&gt;</text>
<text text-anchor="middle" x="951" y="-412" font-family="Helvetica" font-size="10.00">&#45;&#45;&#45;</text>
<text text-anchor="middle" x="951" y="-401" font-family="Helvetica" font-size="10.00">HotSpotMethod&lt;Preconditions.checkIndex(int, int, BiFunction)&gt;</text>
</g>
<!-- b2&#45;&gt;b3 -->
<g id="edge4" class="edge">
<title>b2&#45;&gt;b3</title>
<path fill="none" stroke="black" d="M696.11,-420C727.82,-420 761.5,-420 793.59,-420"/>
<polygon fill="black" stroke="black" points="793.95,-423.5 803.95,-420 793.95,-416.5 793.95,-423.5"/>
</g>
<!-- b2&#45;&gt;b5 -->
<g id="edge5" class="edge">
<title>b2&#45;&gt;b5</title>
<path fill="none" stroke="black" d="M601.88,-393.8C675.62,-356.56 810.46,-288.47 888.93,-248.84"/>
<polygon fill="black" stroke="black" points="890.86,-251.79 898.21,-244.15 887.7,-245.54 890.86,-251.79"/>
</g>
<!-- b4 -->
<g id="node5" class="node">
<title>b4</title>
<polygon fill="white" stroke="black" points="696,-52 402,-52 402,0 696,0 696,-52"/>
<text text-anchor="middle" x="549" y="-40" font-family="Helvetica" font-size="10.00">B4</text>
<text text-anchor="middle" x="549" y="-29" font-family="Helvetica" font-size="10.00">Loop: &lt;none&gt;</text>
<text text-anchor="middle" x="549" y="-18" font-family="Helvetica" font-size="10.00">&#45;&#45;&#45;</text>
<text text-anchor="middle" x="549" y="-7" font-family="Helvetica" font-size="10.00">HotSpotMethod&lt;Preconditions.checkIndex(int, int, BiFunction)&gt;</text>
</g>
<!-- b4&#45;&gt;b5 -->
<g id="edge6" class="edge">
<title>b4&#45;&gt;b5</title>
<path fill="none" stroke="black" d="M614.04,-52.03C639.7,-62.76 669.43,-75.58 696,-88 764.37,-119.96 841.32,-159.92 892.43,-187.04"/>
<polygon fill="black" stroke="black" points="890.87,-190.18 901.35,-191.79 894.16,-184 890.87,-190.18"/>
</g>
</g>
</svg>
