<?xml version="1.0" encoding="UTF-8" standalone="no"?>
<!DOCTYPE svg PUBLIC "-//W3C//DTD SVG 1.1//EN"
 "http://www.w3.org/Graphics/SVG/1.1/DTD/svg11.dtd">
<!-- Generated by graphviz version 2.44.0 (0)
 -->
<!-- Title: CFG_59 Pages: 1 -->
<svg width="5108pt" height="762pt"
 viewBox="0.00 0.00 5108.00 762.00" xmlns="http://www.w3.org/2000/svg" xmlns:xlink="http://www.w3.org/1999/xlink">
<g id="graph0" class="graph" transform="scale(1 1) rotate(0) translate(4 758)">
<title>CFG_59</title>
<polygon fill="white" stroke="transparent" points="-4,4 -4,-758 5104,-758 5104,4 -4,4"/>
<text text-anchor="middle" x="365.5" y="-734" font-family="Times-Roman" font-size="20.00">92&#45;jdk.internal.util.ArraysSupport.unsignedHashCode(int, byte[], int, int)</text>
<!-- b0 -->
<g id="node1" class="node">
<title>b0</title>
<polygon fill="white" stroke="black" points="326,-189 0,-189 0,-137 326,-137 326,-189"/>
<text text-anchor="middle" x="163" y="-177" font-family="Helvetica" font-size="10.00">B0</text>
<text text-anchor="middle" x="163" y="-166" font-family="Helvetica" font-size="10.00">Loop: &lt;none&gt;</text>
<text text-anchor="middle" x="163" y="-155" font-family="Helvetica" font-size="10.00">&#45;&#45;&#45;</text>
<text text-anchor="middle" x="163" y="-144" font-family="Helvetica" font-size="10.00">HotSpotMethod&lt;ArraysSupport.unsignedHashCode(int, byte[], int, int)&gt;</text>
</g>
<!-- b1 -->
<g id="node2" class="node">
<title>b1</title>
<polygon fill="white" stroke="black" points="760,-262 434,-262 434,-210 760,-210 760,-262"/>
<text text-anchor="middle" x="597" y="-250" font-family="Helvetica" font-size="10.00">B1</text>
<text text-anchor="middle" x="597" y="-239" font-family="Helvetica" font-size="10.00">Loop: &lt;none&gt;</text>
<text text-anchor="middle" x="597" y="-228" font-family="Helvetica" font-size="10.00">&#45;&#45;&#45;</text>
<text text-anchor="middle" x="597" y="-217" font-family="Helvetica" font-size="10.00">HotSpotMethod&lt;ArraysSupport.unsignedHashCode(int, byte[], int, int)&gt;</text>
</g>
<!-- b0&#45;&gt;b1 -->
<g id="edge1" class="edge">
<title>b0&#45;&gt;b1</title>
<path fill="none" stroke="black" d="M318.13,-189.05C355.06,-195.29 394.62,-201.97 431.97,-208.28"/>
<polygon fill="black" stroke="black" points="431.48,-211.75 441.93,-209.96 432.65,-204.85 431.48,-211.75"/>
</g>
<!-- b21 -->
<g id="node22" class="node">
<title>b21</title>
<polygon fill="white" stroke="black" points="1194,-52 868,-52 868,0 1194,0 1194,-52"/>
<text text-anchor="middle" x="1031" y="-40" font-family="Helvetica" font-size="10.00">B21</text>
<text text-anchor="middle" x="1031" y="-29" font-family="Helvetica" font-size="10.00">Loop: &lt;none&gt;</text>
<text text-anchor="middle" x="1031" y="-18" font-family="Helvetica" font-size="10.00">&#45;&#45;&#45;</text>
<text text-anchor="middle" x="1031" y="-7" font-family="Helvetica" font-size="10.00">HotSpotMethod&lt;ArraysSupport.unsignedHashCode(int, byte[], int, int)&gt;</text>
</g>
<!-- b0&#45;&gt;b21 -->
<g id="edge2" class="edge">
<title>b0&#45;&gt;b21</title>
<path fill="none" stroke="black" d="M326.13,-137.35C477.65,-113.38 703.14,-77.71 857.83,-53.24"/>
<polygon fill="black" stroke="black" points="858.59,-56.66 867.92,-51.64 857.49,-49.75 858.59,-56.66"/>
</g>
<!-- b2 -->
<g id="node3" class="node">
<title>b2</title>
<polygon fill="white" stroke="black" points="1194,-262 868,-262 868,-210 1194,-210 1194,-262"/>
<text text-anchor="middle" x="1031" y="-250" font-family="Helvetica" font-size="10.00">B2</text>
<text text-anchor="middle" x="1031" y="-239" font-family="Helvetica" font-size="10.00">Loop: &lt;none&gt;</text>
<text text-anchor="middle" x="1031" y="-228" font-family="Helvetica" font-size="10.00">&#45;&#45;&#45;</text>
<text text-anchor="middle" x="1031" y="-217" font-family="Helvetica" font-size="10.00">HotSpotMethod&lt;ArraysSupport.unsignedHashCode(int, byte[], int, int)&gt;</text>
</g>
<!-- b1&#45;&gt;b2 -->
<g id="edge3" class="edge">
<title>b1&#45;&gt;b2</title>
<path fill="none" stroke="black" d="M760.09,-236C791.85,-236 825.27,-236 857.35,-236"/>
<polygon fill="black" stroke="black" points="857.72,-239.5 867.72,-236 857.72,-232.5 857.72,-239.5"/>
</g>
<!-- b8 -->
<g id="node9" class="node">
<title>b8</title>
<polygon fill="white" stroke="black" points="2062,-524 1736,-524 1736,-472 2062,-472 2062,-524"/>
<text text-anchor="middle" x="1899" y="-512" font-family="Helvetica" font-size="10.00">B8</text>
<text text-anchor="middle" x="1899" y="-501" font-family="Helvetica" font-size="10.00">Loop: &lt;none&gt;</text>
<text text-anchor="middle" x="1899" y="-490" font-family="Helvetica" font-size="10.00">&#45;&#45;&#45;</text>
<text text-anchor="middle" x="1899" y="-479" font-family="Helvetica" font-size="10.00">HotSpotMethod&lt;ArraysSupport.unsignedHashCode(int, byte[], int, int)&gt;</text>
</g>
<!-- b1&#45;&gt;b8 -->
<g id="edge4" class="edge">
<title>b1&#45;&gt;b8</title>
<path fill="none" stroke="black" d="M707.51,-262.03C756.52,-273.46 815.07,-286.79 868,-298 1178.84,-363.85 1544.28,-432.82 1745.6,-470.08"/>
<polygon fill="black" stroke="black" points="1745.18,-473.56 1755.65,-471.94 1746.46,-466.68 1745.18,-473.56"/>
</g>
<!-- b3 -->
<g id="node4" class="node">
<title>b3</title>
<polygon fill="white" stroke="black" points="1628,-330 1302,-330 1302,-278 1628,-278 1628,-330"/>
<text text-anchor="middle" x="1465" y="-318" font-family="Helvetica" font-size="10.00">B3</text>
<text text-anchor="middle" x="1465" y="-307" font-family="Helvetica" font-size="10.00">Loop: &lt;none&gt;</text>
<text text-anchor="middle" x="1465" y="-296" font-family="Helvetica" font-size="10.00">&#45;&#45;&#45;</text>
<text text-anchor="middle" x="1465" y="-285" font-family="Helvetica" font-size="10.00">HotSpotMethod&lt;ArraysSupport.unsignedHashCode(int, byte[], int, int)&gt;</text>
</g>
<!-- b2&#45;&gt;b3 -->
<g id="edge5" class="edge">
<title>b2&#45;&gt;b3</title>
<path fill="none" stroke="black" d="M1194.09,-261.51C1225.98,-266.53 1259.56,-271.82 1291.77,-276.89"/>
<polygon fill="black" stroke="black" points="1291.3,-280.36 1301.72,-278.46 1292.39,-273.44 1291.3,-280.36"/>
</g>
<!-- b6 -->
<g id="node7" class="node">
<title>b6</title>
<polygon fill="white" stroke="black" points="2062,-195 1736,-195 1736,-143 2062,-143 2062,-195"/>
<text text-anchor="middle" x="1899" y="-183" font-family="Helvetica" font-size="10.00">B6</text>
<text text-anchor="middle" x="1899" y="-172" font-family="Helvetica" font-size="10.00">Loop: &lt;none&gt;</text>
<text text-anchor="middle" x="1899" y="-161" font-family="Helvetica" font-size="10.00">&#45;&#45;&#45;</text>
<text text-anchor="middle" x="1899" y="-150" font-family="Helvetica" font-size="10.00">HotSpotMethod&lt;ArraysSupport.unsignedHashCode(int, byte[], int, int)&gt;</text>
</g>
<!-- b2&#45;&gt;b6 -->
<g id="edge6" class="edge">
<title>b2&#45;&gt;b6</title>
<path fill="none" stroke="black" d="M1194.13,-223.46C1345.65,-211.73 1571.14,-194.29 1725.83,-182.32"/>
<polygon fill="black" stroke="black" points="1726.22,-185.8 1735.92,-181.54 1725.68,-178.82 1726.22,-185.8"/>
</g>
<!-- b5 -->
<g id="node6" class="node">
<title>b5</title>
<polygon fill="white" stroke="black" points="2496,-330 2170,-330 2170,-278 2496,-278 2496,-330"/>
<text text-anchor="middle" x="2333" y="-318" font-family="Helvetica" font-size="10.00">B5</text>
<text text-anchor="middle" x="2333" y="-307" font-family="Helvetica" font-size="10.00">Loop: &lt;none&gt;</text>
<text text-anchor="middle" x="2333" y="-296" font-family="Helvetica" font-size="10.00">&#45;&#45;&#45;</text>
<text text-anchor="middle" x="2333" y="-285" font-family="Helvetica" font-size="10.00">HotSpotMethod&lt;ArraysSupport.unsignedHashCode(int, byte[], int, int)&gt;</text>
</g>
<!-- b3&#45;&gt;b5 -->
<g id="edge8" class="edge">
<title>b3&#45;&gt;b5</title>
<path fill="none" stroke="black" d="M1628.13,-304C1779.65,-304 2005.14,-304 2159.83,-304"/>
<polygon fill="black" stroke="black" points="2159.92,-307.5 2169.92,-304 2159.92,-300.5 2159.92,-307.5"/>
</g>
<!-- b3&#45;&gt;b8 -->
<g id="edge7" class="edge">
<title>b3&#45;&gt;b8</title>
<path fill="none" stroke="black" d="M1524.26,-330.16C1603.95,-365.95 1746.64,-430.03 1830.77,-467.81"/>
<polygon fill="black" stroke="black" points="1829.42,-471.04 1839.97,-471.94 1832.28,-464.65 1829.42,-471.04"/>
</g>
<!-- b4 -->
<g id="node5" class="node">
<title>b4</title>
<polygon fill="white" stroke="black" points="1628,-600 1302,-600 1302,-548 1628,-548 1628,-600"/>
<text text-anchor="middle" x="1465" y="-588" font-family="Helvetica" font-size="10.00">B4</text>
<text text-anchor="middle" x="1465" y="-577" font-family="Helvetica" font-size="10.00">Loop: &lt;none&gt;</text>
<text text-anchor="middle" x="1465" y="-566" font-family="Helvetica" font-size="10.00">&#45;&#45;&#45;</text>
<text text-anchor="middle" x="1465" y="-555" font-family="Helvetica" font-size="10.00">HotSpotMethod&lt;ArraysSupport.unsignedHashCode(int, byte[], int, int)&gt;</text>
</g>
<!-- b4&#45;&gt;b8 -->
<g id="edge9" class="edge">
<title>b4&#45;&gt;b8</title>
<path fill="none" stroke="black" d="M1614.07,-547.95C1654.77,-540.79 1699.05,-533 1740.28,-525.75"/>
<polygon fill="black" stroke="black" points="1740.89,-529.19 1750.13,-524.01 1739.67,-522.3 1740.89,-529.19"/>
</g>
<!-- b20 -->
<g id="node21" class="node">
<title>b20</title>
<polygon fill="white" stroke="black" points="2930,-330 2604,-330 2604,-278 2930,-278 2930,-330"/>
<text text-anchor="middle" x="2767" y="-318" font-family="Helvetica" font-size="10.00">B20</text>
<text text-anchor="middle" x="2767" y="-307" font-family="Helvetica" font-size="10.00">Loop: &lt;none&gt;</text>
<text text-anchor="middle" x="2767" y="-296" font-family="Helvetica" font-size="10.00">&#45;&#45;&#45;</text>
<text text-anchor="middle" x="2767" y="-285" font-family="Helvetica" font-size="10.00">HotSpotMethod&lt;ArraysSupport.unsignedHashCode(int, byte[], int, int)&gt;</text>
</g>
<!-- b5&#45;&gt;b20 -->
<g id="edge10" class="edge">
<title>b5&#45;&gt;b20</title>
<path fill="none" stroke="black" d="M2496.09,-304C2527.85,-304 2561.27,-304 2593.35,-304"/>
<polygon fill="black" stroke="black" points="2593.72,-307.5 2603.72,-304 2593.72,-300.5 2593.72,-307.5"/>
</g>
<!-- b6&#45;&gt;b20 -->
<g id="edge11" class="edge">
<title>b6&#45;&gt;b20</title>
<path fill="none" stroke="black" d="M2062.25,-184.27C2182.48,-196.71 2350.07,-216.38 2496,-242 2548.29,-251.18 2605.7,-263.97 2654.08,-275.55"/>
<polygon fill="black" stroke="black" points="2653.4,-278.99 2663.94,-277.93 2655.04,-272.19 2653.4,-278.99"/>
</g>
<!-- b7 -->
<g id="node8" class="node">
<title>b7</title>
<polygon fill="white" stroke="black" points="1628,-724 1302,-724 1302,-672 1628,-672 1628,-724"/>
<text text-anchor="middle" x="1465" y="-712" font-family="Helvetica" font-size="10.00">B7</text>
<text text-anchor="middle" x="1465" y="-701" font-family="Helvetica" font-size="10.00">Loop: &lt;none&gt;</text>
<text text-anchor="middle" x="1465" y="-690" font-family="Helvetica" font-size="10.00">&#45;&#45;&#45;</text>
<text text-anchor="middle" x="1465" y="-679" font-family="Helvetica" font-size="10.00">HotSpotMethod&lt;ArraysSupport.unsignedHashCode(int, byte[], int, int)&gt;</text>
</g>
<!-- b7&#45;&gt;b8 -->
<g id="edge12" class="edge">
<title>b7&#45;&gt;b8</title>
<path fill="none" stroke="black" d="M1539.26,-671.86C1567.29,-661.36 1599.39,-648.74 1628,-636 1703.23,-602.49 1787.35,-558.4 1841.4,-529.17"/>
<polygon fill="black" stroke="black" points="1843.35,-532.1 1850.47,-524.26 1840.01,-525.95 1843.35,-532.1"/>
</g>
<!-- b9 -->
<g id="node10" class="node">
<title>b9</title>
<polygon fill="white" stroke="black" points="2496,-589.5 2170,-589.5 2170,-526.5 2496,-526.5 2496,-589.5"/>
<text text-anchor="middle" x="2333" y="-577.5" font-family="Helvetica" font-size="10.00">B9</text>
<text text-anchor="middle" x="2333" y="-566.5" font-family="Helvetica" font-size="10.00">Loop: &lt;none&gt;</text>
<text text-anchor="middle" x="2333" y="-555.5" font-family="Helvetica" font-size="10.00">&#45;&#45;&#45;</text>
<text text-anchor="middle" x="2333" y="-544.5" font-family="Helvetica" font-size="10.00">HotSpotMethod&lt;ArraysSupport.unsignedHashCode(int, byte[], int, int)&gt;</text>
<text text-anchor="middle" x="2333" y="-533.5" font-family="Helvetica" font-size="10.00">HotSpotMethod&lt;Byte.toUnsignedInt(byte)&gt;</text>
</g>
<!-- b8&#45;&gt;b9 -->
<g id="edge13" class="edge">
<title>b8&#45;&gt;b9</title>
<path fill="none" stroke="black" d="M2062.09,-520.51C2093.98,-524.94 2127.56,-529.6 2159.77,-534.08"/>
<polygon fill="black" stroke="black" points="2159.33,-537.55 2169.72,-535.46 2160.3,-530.62 2159.33,-537.55"/>
</g>
<!-- b19 -->
<g id="node20" class="node">
<title>b19</title>
<polygon fill="white" stroke="black" points="2496,-454 2170,-454 2170,-402 2496,-402 2496,-454"/>
<text text-anchor="middle" x="2333" y="-442" font-family="Helvetica" font-size="10.00">B19</text>
<text text-anchor="middle" x="2333" y="-431" font-family="Helvetica" font-size="10.00">Loop: &lt;none&gt;</text>
<text text-anchor="middle" x="2333" y="-420" font-family="Helvetica" font-size="10.00">&#45;&#45;&#45;</text>
<text text-anchor="middle" x="2333" y="-409" font-family="Helvetica" font-size="10.00">HotSpotMethod&lt;ArraysSupport.unsignedHashCode(int, byte[], int, int)&gt;</text>
</g>
<!-- b8&#45;&gt;b19 -->
<g id="edge14" class="edge">
<title>b8&#45;&gt;b19</title>
<path fill="none" stroke="black" d="M2060.55,-471.98C2093.4,-466.66 2128.08,-461.04 2161.26,-455.67"/>
<polygon fill="black" stroke="black" points="2162.2,-459.06 2171.51,-454.01 2161.08,-452.15 2162.2,-459.06"/>
</g>
<!-- b10 -->
<g id="node11" class="node">
<title>b10</title>
<polygon fill="lightblue" stroke="black" points="2930,-583 2604,-583 2604,-531 2930,-531 2930,-583"/>
<text text-anchor="middle" x="2767" y="-571" font-family="Helvetica" font-size="10.00">B10</text>
<text text-anchor="middle" x="2767" y="-560" font-family="Helvetica" font-size="10.00">Loop: L0</text>
<text text-anchor="middle" x="2767" y="-549" font-family="Helvetica" font-size="10.00">&#45;&#45;&#45;</text>
<text text-anchor="middle" x="2767" y="-538" font-family="Helvetica" font-size="10.00">HotSpotMethod&lt;ArraysSupport.unsignedHashCode(int, byte[], int, int)&gt;</text>
</g>
<!-- b9&#45;&gt;b10 -->
<g id="edge15" class="edge">
<title>b9&#45;&gt;b10</title>
<path fill="none" stroke="black" d="M2496.09,-557.62C2527.85,-557.55 2561.27,-557.47 2593.35,-557.4"/>
<polygon fill="black" stroke="black" points="2593.73,-560.9 2603.72,-557.38 2593.71,-553.9 2593.73,-560.9"/>
</g>
<!-- b11 -->
<g id="node12" class="node">
<title>b11</title>
<polygon fill="lightblue" stroke="black" points="3364,-588.5 3038,-588.5 3038,-525.5 3364,-525.5 3364,-588.5"/>
<text text-anchor="middle" x="3201" y="-576.5" font-family="Helvetica" font-size="10.00">B11</text>
<text text-anchor="middle" x="3201" y="-565.5" font-family="Helvetica" font-size="10.00">Loop: L0</text>
<text text-anchor="middle" x="3201" y="-554.5" font-family="Helvetica" font-size="10.00">&#45;&#45;&#45;</text>
<text text-anchor="middle" x="3201" y="-543.5" font-family="Helvetica" font-size="10.00">HotSpotMethod&lt;ArraysSupport.unsignedHashCode(int, byte[], int, int)&gt;</text>
<text text-anchor="middle" x="3201" y="-532.5" font-family="Helvetica" font-size="10.00">HotSpotMethod&lt;Byte.toUnsignedInt(byte)&gt;</text>
</g>
<!-- b10&#45;&gt;b11 -->
<g id="edge16" class="edge">
<title>b10&#45;&gt;b11</title>
<path fill="none" stroke="black" d="M2922.44,-531C2956.5,-529.87 2992.78,-529.7 3027.51,-530.49"/>
<polygon fill="black" stroke="black" points="3027.65,-534 3037.74,-530.76 3027.83,-527 3027.65,-534"/>
</g>
<!-- b12 -->
<g id="node13" class="node">
<title>b12</title>
<polygon fill="white" stroke="black" points="3364,-452 3038,-452 3038,-400 3364,-400 3364,-452"/>
<text text-anchor="middle" x="3201" y="-440" font-family="Helvetica" font-size="10.00">B12</text>
<text text-anchor="middle" x="3201" y="-429" font-family="Helvetica" font-size="10.00">Loop: &lt;none&gt;</text>
<text text-anchor="middle" x="3201" y="-418" font-family="Helvetica" font-size="10.00">&#45;&#45;&#45;</text>
<text text-anchor="middle" x="3201" y="-407" font-family="Helvetica" font-size="10.00">HotSpotMethod&lt;ArraysSupport.unsignedHashCode(int, byte[], int, int)&gt;</text>
</g>
<!-- b10&#45;&gt;b12 -->
<g id="edge17" class="edge">
<title>b10&#45;&gt;b12</title>
<path fill="none" stroke="black" d="M2853.87,-530.96C2926.04,-509.07 3029.13,-477.82 3104.02,-455.11"/>
<polygon fill="black" stroke="black" points="3105.37,-458.35 3113.93,-452.1 3103.34,-451.65 3105.37,-458.35"/>
</g>
<!-- b11&#45;&gt;b10 -->
<g id="edge18" class="edge">
<title>b11&#45;&gt;b10</title>
<path fill="none" stroke="black" d="M3037.74,-583.24C3003.36,-584.23 2967.05,-584.25 2932.58,-583.31"/>
<polygon fill="black" stroke="black" points="2932.54,-579.81 2922.44,-583 2932.33,-586.8 2932.54,-579.81"/>
</g>
<!-- b13 -->
<g id="node14" class="node">
<title>b13</title>
<polygon fill="lightgreen" stroke="black" points="3798,-452 3472,-452 3472,-400 3798,-400 3798,-452"/>
<text text-anchor="middle" x="3635" y="-440" font-family="Helvetica" font-size="10.00">B13</text>
<text text-anchor="middle" x="3635" y="-429" font-family="Helvetica" font-size="10.00">Loop: L1</text>
<text text-anchor="middle" x="3635" y="-418" font-family="Helvetica" font-size="10.00">&#45;&#45;&#45;</text>
<text text-anchor="middle" x="3635" y="-407" font-family="Helvetica" font-size="10.00">HotSpotMethod&lt;ArraysSupport.unsignedHashCode(int, byte[], int, int)&gt;</text>
</g>
<!-- b12&#45;&gt;b13 -->
<g id="edge19" class="edge">
<title>b12&#45;&gt;b13</title>
<path fill="none" stroke="black" d="M3364.09,-426C3395.85,-426 3429.27,-426 3461.35,-426"/>
<polygon fill="black" stroke="black" points="3461.72,-429.5 3471.72,-426 3461.72,-422.5 3461.72,-429.5"/>
</g>
<!-- b14 -->
<g id="node15" class="node">
<title>b14</title>
<polygon fill="lightgreen" stroke="black" points="4232,-457.5 3906,-457.5 3906,-394.5 4232,-394.5 4232,-457.5"/>
<text text-anchor="middle" x="4069" y="-445.5" font-family="Helvetica" font-size="10.00">B14</text>
<text text-anchor="middle" x="4069" y="-434.5" font-family="Helvetica" font-size="10.00">Loop: L1</text>
<text text-anchor="middle" x="4069" y="-423.5" font-family="Helvetica" font-size="10.00">&#45;&#45;&#45;</text>
<text text-anchor="middle" x="4069" y="-412.5" font-family="Helvetica" font-size="10.00">HotSpotMethod&lt;ArraysSupport.unsignedHashCode(int, byte[], int, int)&gt;</text>
<text text-anchor="middle" x="4069" y="-401.5" font-family="Helvetica" font-size="10.00">HotSpotMethod&lt;Byte.toUnsignedInt(byte)&gt;</text>
</g>
<!-- b13&#45;&gt;b14 -->
<g id="edge20" class="edge">
<title>b13&#45;&gt;b14</title>
<path fill="none" stroke="black" d="M3790.44,-400C3824.5,-398.87 3860.78,-398.7 3895.51,-399.49"/>
<polygon fill="black" stroke="black" points="3895.65,-403 3905.74,-399.76 3895.83,-396 3895.65,-403"/>
</g>
<!-- b15 -->
<g id="node16" class="node">
<title>b15</title>
<polygon fill="white" stroke="black" points="4232,-321 3906,-321 3906,-269 4232,-269 4232,-321"/>
<text text-anchor="middle" x="4069" y="-309" font-family="Helvetica" font-size="10.00">B15</text>
<text text-anchor="middle" x="4069" y="-298" font-family="Helvetica" font-size="10.00">Loop: &lt;none&gt;</text>
<text text-anchor="middle" x="4069" y="-287" font-family="Helvetica" font-size="10.00">&#45;&#45;&#45;</text>
<text text-anchor="middle" x="4069" y="-276" font-family="Helvetica" font-size="10.00">HotSpotMethod&lt;ArraysSupport.unsignedHashCode(int, byte[], int, int)&gt;</text>
</g>
<!-- b13&#45;&gt;b15 -->
<g id="edge21" class="edge">
<title>b13&#45;&gt;b15</title>
<path fill="none" stroke="black" d="M3721.87,-399.96C3794.04,-378.07 3897.13,-346.82 3972.02,-324.11"/>
<polygon fill="black" stroke="black" points="3973.37,-327.35 3981.93,-321.1 3971.34,-320.65 3973.37,-327.35"/>
</g>
<!-- b14&#45;&gt;b13 -->
<g id="edge22" class="edge">
<title>b14&#45;&gt;b13</title>
<path fill="none" stroke="black" d="M3905.74,-452.24C3871.36,-453.23 3835.05,-453.25 3800.58,-452.31"/>
<polygon fill="black" stroke="black" points="3800.54,-448.81 3790.44,-452 3800.33,-455.8 3800.54,-448.81"/>
</g>
<!-- b16 -->
<g id="node17" class="node">
<title>b16</title>
<polygon fill="lightpink" stroke="black" points="4666,-321 4340,-321 4340,-269 4666,-269 4666,-321"/>
<text text-anchor="middle" x="4503" y="-309" font-family="Helvetica" font-size="10.00">B16</text>
<text text-anchor="middle" x="4503" y="-298" font-family="Helvetica" font-size="10.00">Loop: L2</text>
<text text-anchor="middle" x="4503" y="-287" font-family="Helvetica" font-size="10.00">&#45;&#45;&#45;</text>
<text text-anchor="middle" x="4503" y="-276" font-family="Helvetica" font-size="10.00">HotSpotMethod&lt;ArraysSupport.unsignedHashCode(int, byte[], int, int)&gt;</text>
</g>
<!-- b15&#45;&gt;b16 -->
<g id="edge23" class="edge">
<title>b15&#45;&gt;b16</title>
<path fill="none" stroke="black" d="M4232.09,-295C4263.85,-295 4297.27,-295 4329.35,-295"/>
<polygon fill="black" stroke="black" points="4329.72,-298.5 4339.72,-295 4329.72,-291.5 4329.72,-298.5"/>
</g>
<!-- b17 -->
<g id="node18" class="node">
<title>b17</title>
<polygon fill="lightpink" stroke="black" points="5100,-326.5 4774,-326.5 4774,-263.5 5100,-263.5 5100,-326.5"/>
<text text-anchor="middle" x="4937" y="-314.5" font-family="Helvetica" font-size="10.00">B17</text>
<text text-anchor="middle" x="4937" y="-303.5" font-family="Helvetica" font-size="10.00">Loop: L2</text>
<text text-anchor="middle" x="4937" y="-292.5" font-family="Helvetica" font-size="10.00">&#45;&#45;&#45;</text>
<text text-anchor="middle" x="4937" y="-281.5" font-family="Helvetica" font-size="10.00">HotSpotMethod&lt;ArraysSupport.unsignedHashCode(int, byte[], int, int)&gt;</text>
<text text-anchor="middle" x="4937" y="-270.5" font-family="Helvetica" font-size="10.00">HotSpotMethod&lt;Byte.toUnsignedInt(byte)&gt;</text>
</g>
<!-- b16&#45;&gt;b17 -->
<g id="edge24" class="edge">
<title>b16&#45;&gt;b17</title>
<path fill="none" stroke="black" d="M4658.44,-269C4692.5,-267.87 4728.78,-267.7 4763.51,-268.49"/>
<polygon fill="black" stroke="black" points="4763.65,-272 4773.74,-268.76 4763.83,-265 4763.65,-272"/>
</g>
<!-- b22 -->
<g id="node23" class="node">
<title>b22</title>
<polygon fill="white" stroke="black" points="5100,-186 4774,-186 4774,-134 5100,-134 5100,-186"/>
<text text-anchor="middle" x="4937" y="-174" font-family="Helvetica" font-size="10.00">B22</text>
<text text-anchor="middle" x="4937" y="-163" font-family="Helvetica" font-size="10.00">Loop: &lt;none&gt;</text>
<text text-anchor="middle" x="4937" y="-152" font-family="Helvetica" font-size="10.00">&#45;&#45;&#45;</text>
<text text-anchor="middle" x="4937" y="-141" font-family="Helvetica" font-size="10.00">HotSpotMethod&lt;ArraysSupport.unsignedHashCode(int, byte[], int, int)&gt;</text>
</g>
<!-- b16&#45;&gt;b22 -->
<g id="edge25" class="edge">
<title>b16&#45;&gt;b22</title>
<path fill="none" stroke="black" d="M4587.29,-268.97C4660.54,-246.08 4767.02,-212.81 4843.01,-189.06"/>
<polygon fill="black" stroke="black" points="4844.09,-192.39 4852.59,-186.06 4842.01,-185.71 4844.09,-192.39"/>
</g>
<!-- b17&#45;&gt;b16 -->
<g id="edge26" class="edge">
<title>b17&#45;&gt;b16</title>
<path fill="none" stroke="black" d="M4773.74,-321.24C4739.36,-322.23 4703.05,-322.25 4668.58,-321.31"/>
<polygon fill="black" stroke="black" points="4668.54,-317.81 4658.44,-321 4668.33,-324.8 4668.54,-317.81"/>
</g>
<!-- b18 -->
<g id="node19" class="node">
<title>b18</title>
<polygon fill="white" stroke="black" points="4666,-186 4340,-186 4340,-134 4666,-134 4666,-186"/>
<text text-anchor="middle" x="4503" y="-174" font-family="Helvetica" font-size="10.00">B18</text>
<text text-anchor="middle" x="4503" y="-163" font-family="Helvetica" font-size="10.00">Loop: &lt;none&gt;</text>
<text text-anchor="middle" x="4503" y="-152" font-family="Helvetica" font-size="10.00">&#45;&#45;&#45;</text>
<text text-anchor="middle" x="4503" y="-141" font-family="Helvetica" font-size="10.00">HotSpotMethod&lt;ArraysSupport.unsignedHashCode(int, byte[], int, int)&gt;</text>
</g>
<!-- b18&#45;&gt;b22 -->
<g id="edge27" class="edge">
<title>b18&#45;&gt;b22</title>
<path fill="none" stroke="black" d="M4666.09,-160C4697.85,-160 4731.27,-160 4763.35,-160"/>
<polygon fill="black" stroke="black" points="4763.72,-163.5 4773.72,-160 4763.72,-156.5 4763.72,-163.5"/>
</g>
<!-- b19&#45;&gt;b20 -->
<g id="edge28" class="edge">
<title>b19&#45;&gt;b20</title>
<path fill="none" stroke="black" d="M2424.82,-401.93C2495.29,-381.7 2592.89,-353.69 2665.65,-332.8"/>
<polygon fill="black" stroke="black" points="2666.65,-336.16 2675.3,-330.04 2664.72,-329.43 2666.65,-336.16"/>
</g>
<!-- b21&#45;&gt;b22 -->
<g id="edge29" class="edge">
<title>b21&#45;&gt;b22</title>
<path fill="none" stroke="black" d="M1194,-25.1C1367.99,-24.22 1652.56,-23 1898,-23 1898,-23 1898,-23 4070,-23 4345.27,-23 4663.77,-91.36 4827.07,-131.51"/>
<polygon fill="black" stroke="black" points="4826.57,-134.99 4837.12,-133.99 4828.25,-128.19 4826.57,-134.99"/>
</g>
</g>
</svg>
