<?xml version="1.0" encoding="UTF-8" standalone="no"?>
<!DOCTYPE svg PUBLIC "-//W3C//DTD SVG 1.1//EN"
 "http://www.w3.org/Graphics/SVG/1.1/DTD/svg11.dtd">
<!-- Generated by graphviz version 2.44.0 (0)
 -->
<!-- Title: CFG_83 Pages: 1 -->
<svg width="9062pt" height="1320pt"
 viewBox="0.00 0.00 9062.00 1319.50" xmlns="http://www.w3.org/2000/svg" xmlns:xlink="http://www.w3.org/1999/xlink">
<g id="graph0" class="graph" transform="scale(1 1) rotate(0) translate(4 1315.5)">
<title>CFG_83</title>
<polygon fill="white" stroke="transparent" points="-4,4 -4,-1315.5 9058,-1315.5 9058,4 -4,4"/>
<text text-anchor="middle" x="449" y="-1291.5" font-family="Times-Roman" font-size="20.00">137&#45;java.util.regex.Pattern$BmpCharPropertyGreedy.match(Matcher, int, CharSequence)</text>
<!-- b0 -->
<g id="node1" class="node">
<title>b0</title>
<polygon fill="white" stroke="black" points="401,-1208.5 0,-1208.5 0,-1156.5 401,-1156.5 401,-1208.5"/>
<text text-anchor="middle" x="200.5" y="-1196.5" font-family="Helvetica" font-size="10.00">B0</text>
<text text-anchor="middle" x="200.5" y="-1185.5" font-family="Helvetica" font-size="10.00">Loop: &lt;none&gt;</text>
<text text-anchor="middle" x="200.5" y="-1174.5" font-family="Helvetica" font-size="10.00">&#45;&#45;&#45;</text>
<text text-anchor="middle" x="200.5" y="-1163.5" font-family="Helvetica" font-size="10.00">HotSpotMethod&lt;Pattern$BmpCharPropertyGreedy.match(Matcher, int, CharSequence)&gt;</text>
</g>
<!-- b1 -->
<g id="node2" class="node">
<title>b1</title>
<polygon fill="white" stroke="black" points="910,-1146.5 509,-1146.5 509,-1094.5 910,-1094.5 910,-1146.5"/>
<text text-anchor="middle" x="709.5" y="-1134.5" font-family="Helvetica" font-size="10.00">B1</text>
<text text-anchor="middle" x="709.5" y="-1123.5" font-family="Helvetica" font-size="10.00">Loop: &lt;none&gt;</text>
<text text-anchor="middle" x="709.5" y="-1112.5" font-family="Helvetica" font-size="10.00">&#45;&#45;&#45;</text>
<text text-anchor="middle" x="709.5" y="-1101.5" font-family="Helvetica" font-size="10.00">HotSpotMethod&lt;Pattern$BmpCharPropertyGreedy.match(Matcher, int, CharSequence)&gt;</text>
</g>
<!-- b0&#45;&gt;b1 -->
<g id="edge1" class="edge">
<title>b0&#45;&gt;b1</title>
<path fill="none" stroke="black" d="M401.15,-1158.08C433.17,-1154.17 466.39,-1150.11 498.64,-1146.16"/>
<polygon fill="black" stroke="black" points="499.11,-1149.63 508.61,-1144.94 498.26,-1142.68 499.11,-1149.63"/>
</g>
<!-- b32 -->
<g id="node33" class="node">
<title>b32</title>
<polygon fill="white" stroke="black" points="910,-1281.5 509,-1281.5 509,-1229.5 910,-1229.5 910,-1281.5"/>
<text text-anchor="middle" x="709.5" y="-1269.5" font-family="Helvetica" font-size="10.00">B32</text>
<text text-anchor="middle" x="709.5" y="-1258.5" font-family="Helvetica" font-size="10.00">Loop: &lt;none&gt;</text>
<text text-anchor="middle" x="709.5" y="-1247.5" font-family="Helvetica" font-size="10.00">&#45;&#45;&#45;</text>
<text text-anchor="middle" x="709.5" y="-1236.5" font-family="Helvetica" font-size="10.00">HotSpotMethod&lt;Pattern$BmpCharPropertyGreedy.match(Matcher, int, CharSequence)&gt;</text>
</g>
<!-- b0&#45;&gt;b32 -->
<g id="edge2" class="edge">
<title>b0&#45;&gt;b32</title>
<path fill="none" stroke="black" d="M382.39,-1208.55C426.28,-1214.86 473.34,-1221.64 517.67,-1228.02"/>
<polygon fill="black" stroke="black" points="517.28,-1231.5 527.68,-1229.46 518.28,-1224.58 517.28,-1231.5"/>
</g>
<!-- b2 -->
<g id="node3" class="node">
<title>b2</title>
<polygon fill="white" stroke="black" points="1419,-1017 1018,-1017 1018,-932 1419,-932 1419,-1017"/>
<text text-anchor="middle" x="1218.5" y="-1005" font-family="Helvetica" font-size="10.00">B2</text>
<text text-anchor="middle" x="1218.5" y="-994" font-family="Helvetica" font-size="10.00">Loop: &lt;none&gt;</text>
<text text-anchor="middle" x="1218.5" y="-983" font-family="Helvetica" font-size="10.00">&#45;&#45;&#45;</text>
<text text-anchor="middle" x="1218.5" y="-972" font-family="Helvetica" font-size="10.00">HotSpotMethod&lt;Pattern$BmpCharPropertyGreedy.match(Matcher, int, CharSequence)&gt;</text>
<text text-anchor="middle" x="1218.5" y="-961" font-family="Helvetica" font-size="10.00">HotSpotMethod&lt;String.charAt(int)&gt;</text>
<text text-anchor="middle" x="1218.5" y="-950" font-family="Helvetica" font-size="10.00">HotSpotMethod&lt;StringLatin1.charAt(byte[], int)&gt;</text>
<text text-anchor="middle" x="1218.5" y="-939" font-family="Helvetica" font-size="10.00">HotSpotMethod&lt;Preconditions.checkIndex(int, int, BiFunction)&gt;</text>
</g>
<!-- b1&#45;&gt;b2 -->
<g id="edge3" class="edge">
<title>b1&#45;&gt;b2</title>
<path fill="none" stroke="black" d="M800.85,-1094.48C872.67,-1073.8 974.87,-1044.37 1060.07,-1019.83"/>
<polygon fill="black" stroke="black" points="1061.21,-1023.15 1069.85,-1017.02 1059.27,-1016.42 1061.21,-1023.15"/>
</g>
<!-- b31 -->
<g id="node32" class="node">
<title>b31</title>
<polygon fill="white" stroke="black" points="1419,-1146.5 1018,-1146.5 1018,-1094.5 1419,-1094.5 1419,-1146.5"/>
<text text-anchor="middle" x="1218.5" y="-1134.5" font-family="Helvetica" font-size="10.00">B31</text>
<text text-anchor="middle" x="1218.5" y="-1123.5" font-family="Helvetica" font-size="10.00">Loop: &lt;none&gt;</text>
<text text-anchor="middle" x="1218.5" y="-1112.5" font-family="Helvetica" font-size="10.00">&#45;&#45;&#45;</text>
<text text-anchor="middle" x="1218.5" y="-1101.5" font-family="Helvetica" font-size="10.00">HotSpotMethod&lt;Pattern$BmpCharPropertyGreedy.match(Matcher, int, CharSequence)&gt;</text>
</g>
<!-- b1&#45;&gt;b31 -->
<g id="edge4" class="edge">
<title>b1&#45;&gt;b31</title>
<path fill="none" stroke="black" d="M910.15,-1120.5C942.03,-1120.5 975.1,-1120.5 1007.22,-1120.5"/>
<polygon fill="black" stroke="black" points="1007.61,-1124 1017.61,-1120.5 1007.61,-1117 1007.61,-1124"/>
</g>
<!-- b3 -->
<g id="node4" class="node">
<title>b3</title>
<polygon fill="white" stroke="black" points="1928,-860 1527,-860 1527,-797 1928,-797 1928,-860"/>
<text text-anchor="middle" x="1727.5" y="-848" font-family="Helvetica" font-size="10.00">B3</text>
<text text-anchor="middle" x="1727.5" y="-837" font-family="Helvetica" font-size="10.00">Loop: &lt;none&gt;</text>
<text text-anchor="middle" x="1727.5" y="-826" font-family="Helvetica" font-size="10.00">&#45;&#45;&#45;</text>
<text text-anchor="middle" x="1727.5" y="-815" font-family="Helvetica" font-size="10.00">HotSpotMethod&lt;Preconditions.checkIndex(int, int, BiFunction)&gt;</text>
<text text-anchor="middle" x="1727.5" y="-804" font-family="Helvetica" font-size="10.00">HotSpotMethod&lt;Pattern$BmpCharPropertyGreedy.match(Matcher, int, CharSequence)&gt;</text>
</g>
<!-- b2&#45;&gt;b3 -->
<g id="edge5" class="edge">
<title>b2&#45;&gt;b3</title>
<path fill="none" stroke="black" d="M1367.17,-931.98C1443.39,-910.03 1535.17,-883.6 1606.89,-862.94"/>
<polygon fill="black" stroke="black" points="1608.23,-866.2 1616.87,-860.07 1606.29,-859.47 1608.23,-866.2"/>
</g>
<!-- b30 -->
<g id="node31" class="node">
<title>b30</title>
<polygon fill="white" stroke="black" points="1928,-1000.5 1527,-1000.5 1527,-948.5 1928,-948.5 1928,-1000.5"/>
<text text-anchor="middle" x="1727.5" y="-988.5" font-family="Helvetica" font-size="10.00">B30</text>
<text text-anchor="middle" x="1727.5" y="-977.5" font-family="Helvetica" font-size="10.00">Loop: &lt;none&gt;</text>
<text text-anchor="middle" x="1727.5" y="-966.5" font-family="Helvetica" font-size="10.00">&#45;&#45;&#45;</text>
<text text-anchor="middle" x="1727.5" y="-955.5" font-family="Helvetica" font-size="10.00">HotSpotMethod&lt;Pattern$BmpCharPropertyGreedy.match(Matcher, int, CharSequence)&gt;</text>
</g>
<!-- b2&#45;&gt;b30 -->
<g id="edge6" class="edge">
<title>b2&#45;&gt;b30</title>
<path fill="none" stroke="black" d="M1419.15,-974.5C1451.03,-974.5 1484.1,-974.5 1516.22,-974.5"/>
<polygon fill="black" stroke="black" points="1516.61,-978 1526.61,-974.5 1516.61,-971 1516.61,-978"/>
</g>
<!-- b4 -->
<g id="node5" class="node">
<title>b4</title>
<polygon fill="white" stroke="black" points="2437,-725 2036,-725 2036,-662 2437,-662 2437,-725"/>
<text text-anchor="middle" x="2236.5" y="-713" font-family="Helvetica" font-size="10.00">B4</text>
<text text-anchor="middle" x="2236.5" y="-702" font-family="Helvetica" font-size="10.00">Loop: &lt;none&gt;</text>
<text text-anchor="middle" x="2236.5" y="-691" font-family="Helvetica" font-size="10.00">&#45;&#45;&#45;</text>
<text text-anchor="middle" x="2236.5" y="-680" font-family="Helvetica" font-size="10.00">HotSpotMethod&lt;Pattern$BmpCharPropertyGreedy.match(Matcher, int, CharSequence)&gt;</text>
<text text-anchor="middle" x="2236.5" y="-669" font-family="Helvetica" font-size="10.00">HotSpotMethod&lt;String.isLatin1()&gt;</text>
</g>
<!-- b3&#45;&gt;b4 -->
<g id="edge7" class="edge">
<title>b3&#45;&gt;b4</title>
<path fill="none" stroke="black" d="M1847.05,-796.93C1924.93,-776.2 2026.79,-749.07 2106.67,-727.8"/>
<polygon fill="black" stroke="black" points="2108.03,-731.06 2116.79,-725.11 2106.23,-724.3 2108.03,-731.06"/>
</g>
<!-- b29 -->
<g id="node30" class="node">
<title>b29</title>
<polygon fill="white" stroke="black" points="2437,-854.5 2036,-854.5 2036,-802.5 2437,-802.5 2437,-854.5"/>
<text text-anchor="middle" x="2236.5" y="-842.5" font-family="Helvetica" font-size="10.00">B29</text>
<text text-anchor="middle" x="2236.5" y="-831.5" font-family="Helvetica" font-size="10.00">Loop: &lt;none&gt;</text>
<text text-anchor="middle" x="2236.5" y="-820.5" font-family="Helvetica" font-size="10.00">&#45;&#45;&#45;</text>
<text text-anchor="middle" x="2236.5" y="-809.5" font-family="Helvetica" font-size="10.00">HotSpotMethod&lt;Pattern$BmpCharPropertyGreedy.match(Matcher, int, CharSequence)&gt;</text>
</g>
<!-- b3&#45;&gt;b29 -->
<g id="edge8" class="edge">
<title>b3&#45;&gt;b29</title>
<path fill="none" stroke="black" d="M1928.15,-828.5C1960.03,-828.5 1993.1,-828.5 2025.22,-828.5"/>
<polygon fill="black" stroke="black" points="2025.61,-832 2035.61,-828.5 2025.61,-825 2025.61,-832"/>
</g>
<!-- b5 -->
<g id="node6" class="node">
<title>b5</title>
<polygon fill="white" stroke="black" points="2946,-595 2545,-595 2545,-510 2946,-510 2946,-595"/>
<text text-anchor="middle" x="2745.5" y="-583" font-family="Helvetica" font-size="10.00">B5</text>
<text text-anchor="middle" x="2745.5" y="-572" font-family="Helvetica" font-size="10.00">Loop: &lt;none&gt;</text>
<text text-anchor="middle" x="2745.5" y="-561" font-family="Helvetica" font-size="10.00">&#45;&#45;&#45;</text>
<text text-anchor="middle" x="2745.5" y="-550" font-family="Helvetica" font-size="10.00">HotSpotMethod&lt;String.isLatin1()&gt;</text>
<text text-anchor="middle" x="2745.5" y="-539" font-family="Helvetica" font-size="10.00">HotSpotMethod&lt;StringLatin1.charAt(byte[], int)&gt;</text>
<text text-anchor="middle" x="2745.5" y="-528" font-family="Helvetica" font-size="10.00">HotSpotMethod&lt;Pattern$$Lambda/0x800000027.is(int)&gt;</text>
<text text-anchor="middle" x="2745.5" y="-517" font-family="Helvetica" font-size="10.00">HotSpotMethod&lt;Pattern$BmpCharPropertyGreedy.match(Matcher, int, CharSequence)&gt;</text>
</g>
<!-- b4&#45;&gt;b5 -->
<g id="edge9" class="edge">
<title>b4&#45;&gt;b5</title>
<path fill="none" stroke="black" d="M2350.97,-661.94C2418.85,-643.07 2506.26,-618.76 2581.45,-597.85"/>
<polygon fill="black" stroke="black" points="2582.8,-601.1 2591.5,-595.05 2580.92,-594.36 2582.8,-601.1"/>
</g>
<!-- b28 -->
<g id="node29" class="node">
<title>b28</title>
<polygon fill="white" stroke="black" points="2946,-719.5 2545,-719.5 2545,-667.5 2946,-667.5 2946,-719.5"/>
<text text-anchor="middle" x="2745.5" y="-707.5" font-family="Helvetica" font-size="10.00">B28</text>
<text text-anchor="middle" x="2745.5" y="-696.5" font-family="Helvetica" font-size="10.00">Loop: &lt;none&gt;</text>
<text text-anchor="middle" x="2745.5" y="-685.5" font-family="Helvetica" font-size="10.00">&#45;&#45;&#45;</text>
<text text-anchor="middle" x="2745.5" y="-674.5" font-family="Helvetica" font-size="10.00">HotSpotMethod&lt;Pattern$BmpCharPropertyGreedy.match(Matcher, int, CharSequence)&gt;</text>
</g>
<!-- b4&#45;&gt;b28 -->
<g id="edge10" class="edge">
<title>b4&#45;&gt;b28</title>
<path fill="none" stroke="black" d="M2437.15,-693.5C2469.03,-693.5 2502.1,-693.5 2534.22,-693.5"/>
<polygon fill="black" stroke="black" points="2534.61,-697 2544.61,-693.5 2534.61,-690 2534.61,-697"/>
</g>
<!-- b6 -->
<g id="node7" class="node">
<title>b6</title>
<polygon fill="white" stroke="black" points="3455,-619.5 3054,-619.5 3054,-567.5 3455,-567.5 3455,-619.5"/>
<text text-anchor="middle" x="3254.5" y="-607.5" font-family="Helvetica" font-size="10.00">B6</text>
<text text-anchor="middle" x="3254.5" y="-596.5" font-family="Helvetica" font-size="10.00">Loop: &lt;none&gt;</text>
<text text-anchor="middle" x="3254.5" y="-585.5" font-family="Helvetica" font-size="10.00">&#45;&#45;&#45;</text>
<text text-anchor="middle" x="3254.5" y="-574.5" font-family="Helvetica" font-size="10.00">HotSpotMethod&lt;Pattern$BmpCharPropertyGreedy.match(Matcher, int, CharSequence)&gt;</text>
</g>
<!-- b5&#45;&gt;b6 -->
<g id="edge11" class="edge">
<title>b5&#45;&gt;b6</title>
<path fill="none" stroke="black" d="M2946.15,-568.65C2978.17,-571.23 3011.39,-573.92 3043.64,-576.53"/>
<polygon fill="black" stroke="black" points="3043.36,-580.02 3053.61,-577.34 3043.93,-573.04 3043.36,-580.02"/>
</g>
<!-- b15 -->
<g id="node16" class="node">
<title>b15</title>
<polygon fill="white" stroke="black" points="3964,-401.5 3563,-401.5 3563,-349.5 3964,-349.5 3964,-401.5"/>
<text text-anchor="middle" x="3763.5" y="-389.5" font-family="Helvetica" font-size="10.00">B15</text>
<text text-anchor="middle" x="3763.5" y="-378.5" font-family="Helvetica" font-size="10.00">Loop: &lt;none&gt;</text>
<text text-anchor="middle" x="3763.5" y="-367.5" font-family="Helvetica" font-size="10.00">&#45;&#45;&#45;</text>
<text text-anchor="middle" x="3763.5" y="-356.5" font-family="Helvetica" font-size="10.00">HotSpotMethod&lt;Pattern$BmpCharPropertyGreedy.match(Matcher, int, CharSequence)&gt;</text>
</g>
<!-- b5&#45;&gt;b15 -->
<g id="edge12" class="edge">
<title>b5&#45;&gt;b15</title>
<path fill="none" stroke="black" d="M2946.02,-517.74C3138.29,-484.25 3425.45,-434.22 3602.99,-403.29"/>
<polygon fill="black" stroke="black" points="3603.69,-406.72 3612.94,-401.55 3602.49,-399.82 3603.69,-406.72"/>
</g>
<!-- b7 -->
<g id="node8" class="node">
<title>b7</title>
<polygon fill="lightblue" stroke="black" points="3964,-637.5 3563,-637.5 3563,-585.5 3964,-585.5 3964,-637.5"/>
<text text-anchor="middle" x="3763.5" y="-625.5" font-family="Helvetica" font-size="10.00">B7</text>
<text text-anchor="middle" x="3763.5" y="-614.5" font-family="Helvetica" font-size="10.00">Loop: L0</text>
<text text-anchor="middle" x="3763.5" y="-603.5" font-family="Helvetica" font-size="10.00">&#45;&#45;&#45;</text>
<text text-anchor="middle" x="3763.5" y="-592.5" font-family="Helvetica" font-size="10.00">HotSpotMethod&lt;Pattern$BmpCharPropertyGreedy.match(Matcher, int, CharSequence)&gt;</text>
</g>
<!-- b6&#45;&gt;b7 -->
<g id="edge13" class="edge">
<title>b6&#45;&gt;b7</title>
<path fill="none" stroke="black" d="M3455.15,-600.59C3487.03,-601.72 3520.1,-602.89 3552.22,-604.03"/>
<polygon fill="black" stroke="black" points="3552.5,-607.55 3562.61,-604.4 3552.74,-600.55 3552.5,-607.55"/>
</g>
<!-- b8 -->
<g id="node9" class="node">
<title>b8</title>
<polygon fill="lightblue" stroke="black" points="4473,-652 4072,-652 4072,-589 4473,-589 4473,-652"/>
<text text-anchor="middle" x="4272.5" y="-640" font-family="Helvetica" font-size="10.00">B8</text>
<text text-anchor="middle" x="4272.5" y="-629" font-family="Helvetica" font-size="10.00">Loop: L0</text>
<text text-anchor="middle" x="4272.5" y="-618" font-family="Helvetica" font-size="10.00">&#45;&#45;&#45;</text>
<text text-anchor="middle" x="4272.5" y="-607" font-family="Helvetica" font-size="10.00">HotSpotMethod&lt;Pattern$BmpCharPropertyGreedy.match(Matcher, int, CharSequence)&gt;</text>
<text text-anchor="middle" x="4272.5" y="-596" font-family="Helvetica" font-size="10.00">HotSpotMethod&lt;Preconditions.checkIndex(int, int, BiFunction)&gt;</text>
</g>
<!-- b7&#45;&gt;b8 -->
<g id="edge14" class="edge">
<title>b7&#45;&gt;b8</title>
<path fill="none" stroke="black" d="M3964.15,-615.04C3996.03,-615.61 4029.1,-616.2 4061.22,-616.77"/>
<polygon fill="black" stroke="black" points="4061.55,-620.27 4071.61,-616.95 4061.68,-613.27 4061.55,-620.27"/>
</g>
<!-- b13 -->
<g id="node14" class="node">
<title>b13</title>
<polygon fill="white" stroke="black" points="4473,-513.5 4072,-513.5 4072,-461.5 4473,-461.5 4473,-513.5"/>
<text text-anchor="middle" x="4272.5" y="-501.5" font-family="Helvetica" font-size="10.00">B13</text>
<text text-anchor="middle" x="4272.5" y="-490.5" font-family="Helvetica" font-size="10.00">Loop: &lt;none&gt;</text>
<text text-anchor="middle" x="4272.5" y="-479.5" font-family="Helvetica" font-size="10.00">&#45;&#45;&#45;</text>
<text text-anchor="middle" x="4272.5" y="-468.5" font-family="Helvetica" font-size="10.00">HotSpotMethod&lt;Pattern$BmpCharPropertyGreedy.match(Matcher, int, CharSequence)&gt;</text>
</g>
<!-- b7&#45;&gt;b13 -->
<g id="edge15" class="edge">
<title>b7&#45;&gt;b13</title>
<path fill="none" stroke="black" d="M3871.09,-585.43C3954.29,-565.08 4069.73,-536.85 4155.29,-515.92"/>
<polygon fill="black" stroke="black" points="4156.17,-519.31 4165.05,-513.54 4154.5,-512.51 4156.17,-519.31"/>
</g>
<!-- b9 -->
<g id="node10" class="node">
<title>b9</title>
<polygon fill="lightblue" stroke="black" points="4982,-792.5 4581,-792.5 4581,-718.5 4982,-718.5 4982,-792.5"/>
<text text-anchor="middle" x="4781.5" y="-780.5" font-family="Helvetica" font-size="10.00">B9</text>
<text text-anchor="middle" x="4781.5" y="-769.5" font-family="Helvetica" font-size="10.00">Loop: L0</text>
<text text-anchor="middle" x="4781.5" y="-758.5" font-family="Helvetica" font-size="10.00">&#45;&#45;&#45;</text>
<text text-anchor="middle" x="4781.5" y="-747.5" font-family="Helvetica" font-size="10.00">HotSpotMethod&lt;Preconditions.checkIndex(int, int, BiFunction)&gt;</text>
<text text-anchor="middle" x="4781.5" y="-736.5" font-family="Helvetica" font-size="10.00">HotSpotMethod&lt;StringLatin1.charAt(byte[], int)&gt;</text>
<text text-anchor="middle" x="4781.5" y="-725.5" font-family="Helvetica" font-size="10.00">HotSpotMethod&lt;Pattern$BmpCharPropertyGreedy.match(Matcher, int, CharSequence)&gt;</text>
</g>
<!-- b8&#45;&gt;b9 -->
<g id="edge16" class="edge">
<title>b8&#45;&gt;b9</title>
<path fill="none" stroke="black" d="M4392.05,-652.07C4463.61,-671.12 4555.43,-695.57 4631.83,-715.91"/>
<polygon fill="black" stroke="black" points="4630.98,-719.31 4641.54,-718.5 4632.78,-712.54 4630.98,-719.31"/>
</g>
<!-- b12 -->
<g id="node13" class="node">
<title>b12</title>
<polygon fill="white" stroke="black" points="4982,-646.5 4581,-646.5 4581,-594.5 4982,-594.5 4982,-646.5"/>
<text text-anchor="middle" x="4781.5" y="-634.5" font-family="Helvetica" font-size="10.00">B12</text>
<text text-anchor="middle" x="4781.5" y="-623.5" font-family="Helvetica" font-size="10.00">Loop: &lt;none&gt;</text>
<text text-anchor="middle" x="4781.5" y="-612.5" font-family="Helvetica" font-size="10.00">&#45;&#45;&#45;</text>
<text text-anchor="middle" x="4781.5" y="-601.5" font-family="Helvetica" font-size="10.00">HotSpotMethod&lt;Pattern$BmpCharPropertyGreedy.match(Matcher, int, CharSequence)&gt;</text>
</g>
<!-- b8&#45;&gt;b12 -->
<g id="edge17" class="edge">
<title>b8&#45;&gt;b12</title>
<path fill="none" stroke="black" d="M4473.15,-620.5C4505.03,-620.5 4538.1,-620.5 4570.22,-620.5"/>
<polygon fill="black" stroke="black" points="4570.61,-624 4580.61,-620.5 4570.61,-617 4570.61,-624"/>
</g>
<!-- b10 -->
<g id="node11" class="node">
<title>b10</title>
<polygon fill="lightblue" stroke="black" points="5491,-848.5 5090,-848.5 5090,-796.5 5491,-796.5 5491,-848.5"/>
<text text-anchor="middle" x="5290.5" y="-836.5" font-family="Helvetica" font-size="10.00">B10</text>
<text text-anchor="middle" x="5290.5" y="-825.5" font-family="Helvetica" font-size="10.00">Loop: L0</text>
<text text-anchor="middle" x="5290.5" y="-814.5" font-family="Helvetica" font-size="10.00">&#45;&#45;&#45;</text>
<text text-anchor="middle" x="5290.5" y="-803.5" font-family="Helvetica" font-size="10.00">HotSpotMethod&lt;Pattern$BmpCharPropertyGreedy.match(Matcher, int, CharSequence)&gt;</text>
</g>
<!-- b9&#45;&gt;b10 -->
<g id="edge18" class="edge">
<title>b9&#45;&gt;b10</title>
<path fill="none" stroke="black" d="M4982.15,-781.88C5015.05,-786.23 5049.22,-790.75 5082.29,-795.12"/>
<polygon fill="black" stroke="black" points="5082.15,-798.63 5092.52,-796.47 5083.07,-791.69 5082.15,-798.63"/>
</g>
<!-- b11 -->
<g id="node12" class="node">
<title>b11</title>
<polygon fill="white" stroke="black" points="5491,-713.5 5090,-713.5 5090,-661.5 5491,-661.5 5491,-713.5"/>
<text text-anchor="middle" x="5290.5" y="-701.5" font-family="Helvetica" font-size="10.00">B11</text>
<text text-anchor="middle" x="5290.5" y="-690.5" font-family="Helvetica" font-size="10.00">Loop: &lt;none&gt;</text>
<text text-anchor="middle" x="5290.5" y="-679.5" font-family="Helvetica" font-size="10.00">&#45;&#45;&#45;</text>
<text text-anchor="middle" x="5290.5" y="-668.5" font-family="Helvetica" font-size="10.00">HotSpotMethod&lt;Pattern$BmpCharPropertyGreedy.match(Matcher, int, CharSequence)&gt;</text>
</g>
<!-- b9&#45;&gt;b11 -->
<g id="edge19" class="edge">
<title>b9&#45;&gt;b11</title>
<path fill="none" stroke="black" d="M4982.15,-728.72C5016.07,-724.17 5051.34,-719.44 5085.38,-714.88"/>
<polygon fill="black" stroke="black" points="5085.97,-718.33 5095.42,-713.53 5085.04,-711.39 5085.97,-718.33"/>
</g>
<!-- b10&#45;&gt;b7 -->
<g id="edge20" class="edge">
<title>b10&#45;&gt;b7</title>
<path fill="none" stroke="black" d="M5089.77,-826.96C5053.9,-827.6 5016.84,-828.16 4982,-828.5 4803.79,-830.24 4757.72,-851.58 4581,-828.5 4306.07,-792.59 3991.97,-691.39 3846.45,-640.91"/>
<polygon fill="black" stroke="black" points="3847.28,-637.49 3836.69,-637.51 3844.98,-644.1 3847.28,-637.49"/>
</g>
<!-- b16 -->
<g id="node17" class="node">
<title>b16</title>
<polygon fill="white" stroke="black" points="6000,-511.5 5599,-511.5 5599,-459.5 6000,-459.5 6000,-511.5"/>
<text text-anchor="middle" x="5799.5" y="-499.5" font-family="Helvetica" font-size="10.00">B16</text>
<text text-anchor="middle" x="5799.5" y="-488.5" font-family="Helvetica" font-size="10.00">Loop: &lt;none&gt;</text>
<text text-anchor="middle" x="5799.5" y="-477.5" font-family="Helvetica" font-size="10.00">&#45;&#45;&#45;</text>
<text text-anchor="middle" x="5799.5" y="-466.5" font-family="Helvetica" font-size="10.00">HotSpotMethod&lt;Pattern$BmpCharPropertyGreedy.match(Matcher, int, CharSequence)&gt;</text>
</g>
<!-- b11&#45;&gt;b16 -->
<g id="edge21" class="edge">
<title>b11&#45;&gt;b16</title>
<path fill="none" stroke="black" d="M5357,-661.4C5451.27,-623.85 5624.71,-554.74 5723.83,-515.25"/>
<polygon fill="black" stroke="black" points="5725.19,-518.48 5733.18,-511.52 5722.6,-511.97 5725.19,-518.48"/>
</g>
<!-- b14 -->
<g id="node15" class="node">
<title>b14</title>
<polygon fill="white" stroke="black" points="5491,-550.5 5090,-550.5 5090,-498.5 5491,-498.5 5491,-550.5"/>
<text text-anchor="middle" x="5290.5" y="-538.5" font-family="Helvetica" font-size="10.00">B14</text>
<text text-anchor="middle" x="5290.5" y="-527.5" font-family="Helvetica" font-size="10.00">Loop: &lt;none&gt;</text>
<text text-anchor="middle" x="5290.5" y="-516.5" font-family="Helvetica" font-size="10.00">&#45;&#45;&#45;</text>
<text text-anchor="middle" x="5290.5" y="-505.5" font-family="Helvetica" font-size="10.00">HotSpotMethod&lt;Pattern$BmpCharPropertyGreedy.match(Matcher, int, CharSequence)&gt;</text>
</g>
<!-- b12&#45;&gt;b14 -->
<g id="edge22" class="edge">
<title>b12&#45;&gt;b14</title>
<path fill="none" stroke="black" d="M4920.04,-594.46C4988.65,-581.47 5071.72,-565.74 5141.7,-552.49"/>
<polygon fill="black" stroke="black" points="5142.75,-555.85 5151.92,-550.55 5141.45,-548.97 5142.75,-555.85"/>
</g>
<!-- b13&#45;&gt;b14 -->
<g id="edge23" class="edge">
<title>b13&#45;&gt;b14</title>
<path fill="none" stroke="black" d="M4473.02,-494.77C4647.99,-501.14 4901.55,-510.37 5079.56,-516.85"/>
<polygon fill="black" stroke="black" points="5079.45,-520.35 5089.57,-517.22 5079.71,-513.36 5079.45,-520.35"/>
</g>
<!-- b15&#45;&gt;b16 -->
<g id="edge24" class="edge">
<title>b15&#45;&gt;b16</title>
<path fill="none" stroke="black" d="M3964.3,-383.99C4285.97,-398.01 4938.55,-427.92 5491,-462.5 5522.59,-464.48 5556,-466.77 5588.69,-469.12"/>
<polygon fill="black" stroke="black" points="5588.59,-472.62 5598.81,-469.86 5589.09,-465.64 5588.59,-472.62"/>
</g>
<!-- b17 -->
<g id="node18" class="node">
<title>b17</title>
<polygon fill="white" stroke="black" points="6509,-449.5 6108,-449.5 6108,-397.5 6509,-397.5 6509,-449.5"/>
<text text-anchor="middle" x="6308.5" y="-437.5" font-family="Helvetica" font-size="10.00">B17</text>
<text text-anchor="middle" x="6308.5" y="-426.5" font-family="Helvetica" font-size="10.00">Loop: &lt;none&gt;</text>
<text text-anchor="middle" x="6308.5" y="-415.5" font-family="Helvetica" font-size="10.00">&#45;&#45;&#45;</text>
<text text-anchor="middle" x="6308.5" y="-404.5" font-family="Helvetica" font-size="10.00">HotSpotMethod&lt;Pattern$BmpCharPropertyGreedy.match(Matcher, int, CharSequence)&gt;</text>
</g>
<!-- b16&#45;&gt;b17 -->
<g id="edge25" class="edge">
<title>b16&#45;&gt;b17</title>
<path fill="none" stroke="black" d="M6000.15,-461.08C6032.17,-457.17 6065.39,-453.11 6097.64,-449.16"/>
<polygon fill="black" stroke="black" points="6098.11,-452.63 6107.61,-447.94 6097.26,-445.68 6098.11,-452.63"/>
</g>
<!-- b26 -->
<g id="node27" class="node">
<title>b26</title>
<polygon fill="white" stroke="black" points="6509,-578.5 6108,-578.5 6108,-526.5 6509,-526.5 6509,-578.5"/>
<text text-anchor="middle" x="6308.5" y="-566.5" font-family="Helvetica" font-size="10.00">B26</text>
<text text-anchor="middle" x="6308.5" y="-555.5" font-family="Helvetica" font-size="10.00">Loop: &lt;none&gt;</text>
<text text-anchor="middle" x="6308.5" y="-544.5" font-family="Helvetica" font-size="10.00">&#45;&#45;&#45;</text>
<text text-anchor="middle" x="6308.5" y="-533.5" font-family="Helvetica" font-size="10.00">HotSpotMethod&lt;Pattern$BmpCharPropertyGreedy.match(Matcher, int, CharSequence)&gt;</text>
</g>
<!-- b16&#45;&gt;b26 -->
<g id="edge26" class="edge">
<title>b16&#45;&gt;b26</title>
<path fill="none" stroke="black" d="M5997.61,-511.55C6031.41,-516.01 6066.62,-520.67 6100.67,-525.17"/>
<polygon fill="black" stroke="black" points="6100.34,-528.65 6110.72,-526.5 6101.26,-521.72 6100.34,-528.65"/>
</g>
<!-- b18 -->
<g id="node19" class="node">
<title>b18</title>
<polygon fill="white" stroke="black" points="7018,-449.5 6617,-449.5 6617,-397.5 7018,-397.5 7018,-449.5"/>
<text text-anchor="middle" x="6817.5" y="-437.5" font-family="Helvetica" font-size="10.00">B18</text>
<text text-anchor="middle" x="6817.5" y="-426.5" font-family="Helvetica" font-size="10.00">Loop: &lt;none&gt;</text>
<text text-anchor="middle" x="6817.5" y="-415.5" font-family="Helvetica" font-size="10.00">&#45;&#45;&#45;</text>
<text text-anchor="middle" x="6817.5" y="-404.5" font-family="Helvetica" font-size="10.00">HotSpotMethod&lt;Pattern$BmpCharPropertyGreedy.match(Matcher, int, CharSequence)&gt;</text>
</g>
<!-- b17&#45;&gt;b18 -->
<g id="edge27" class="edge">
<title>b17&#45;&gt;b18</title>
<path fill="none" stroke="black" d="M6509.15,-423.5C6541.03,-423.5 6574.1,-423.5 6606.22,-423.5"/>
<polygon fill="black" stroke="black" points="6606.61,-427 6616.61,-423.5 6606.61,-420 6606.61,-427"/>
</g>
<!-- b19 -->
<g id="node20" class="node">
<title>b19</title>
<polygon fill="white" stroke="black" points="7018,-325.5 6617,-325.5 6617,-273.5 7018,-273.5 7018,-325.5"/>
<text text-anchor="middle" x="6817.5" y="-313.5" font-family="Helvetica" font-size="10.00">B19</text>
<text text-anchor="middle" x="6817.5" y="-302.5" font-family="Helvetica" font-size="10.00">Loop: &lt;none&gt;</text>
<text text-anchor="middle" x="6817.5" y="-291.5" font-family="Helvetica" font-size="10.00">&#45;&#45;&#45;</text>
<text text-anchor="middle" x="6817.5" y="-280.5" font-family="Helvetica" font-size="10.00">HotSpotMethod&lt;Pattern$BmpCharPropertyGreedy.match(Matcher, int, CharSequence)&gt;</text>
</g>
<!-- b17&#45;&gt;b19 -->
<g id="edge28" class="edge">
<title>b17&#45;&gt;b19</title>
<path fill="none" stroke="black" d="M6416.09,-397.43C6499.29,-377.08 6614.73,-348.85 6700.29,-327.92"/>
<polygon fill="black" stroke="black" points="6701.17,-331.31 6710.05,-325.54 6699.5,-324.51 6701.17,-331.31"/>
</g>
<!-- b20 -->
<g id="node21" class="node">
<title>b20</title>
<polygon fill="white" stroke="black" points="7527,-268 7126,-268 7126,-205 7527,-205 7527,-268"/>
<text text-anchor="middle" x="7326.5" y="-256" font-family="Helvetica" font-size="10.00">B20</text>
<text text-anchor="middle" x="7326.5" y="-245" font-family="Helvetica" font-size="10.00">Loop: &lt;none&gt;</text>
<text text-anchor="middle" x="7326.5" y="-234" font-family="Helvetica" font-size="10.00">&#45;&#45;&#45;</text>
<text text-anchor="middle" x="7326.5" y="-223" font-family="Helvetica" font-size="10.00">HotSpotMethod&lt;Pattern$BmpCharPropertyGreedy.match(Matcher, int, CharSequence)&gt;</text>
<text text-anchor="middle" x="7326.5" y="-212" font-family="Helvetica" font-size="10.00">HotSpotMethod&lt;Pattern$LastNode.match(Matcher, int, CharSequence)&gt;</text>
</g>
<!-- b19&#45;&gt;b20 -->
<g id="edge29" class="edge">
<title>b19&#45;&gt;b20</title>
<path fill="none" stroke="black" d="M7018.15,-274.69C7050.17,-270.71 7083.39,-266.58 7115.64,-262.58"/>
<polygon fill="black" stroke="black" points="7116.12,-266.04 7125.61,-261.34 7115.26,-259.1 7116.12,-266.04"/>
</g>
<!-- b25 -->
<g id="node26" class="node">
<title>b25</title>
<polygon fill="white" stroke="black" points="7527,-433.5 7126,-433.5 7126,-381.5 7527,-381.5 7527,-433.5"/>
<text text-anchor="middle" x="7326.5" y="-421.5" font-family="Helvetica" font-size="10.00">B25</text>
<text text-anchor="middle" x="7326.5" y="-410.5" font-family="Helvetica" font-size="10.00">Loop: &lt;none&gt;</text>
<text text-anchor="middle" x="7326.5" y="-399.5" font-family="Helvetica" font-size="10.00">&#45;&#45;&#45;</text>
<text text-anchor="middle" x="7326.5" y="-388.5" font-family="Helvetica" font-size="10.00">HotSpotMethod&lt;Pattern$BmpCharPropertyGreedy.match(Matcher, int, CharSequence)&gt;</text>
</g>
<!-- b19&#45;&gt;b25 -->
<g id="edge30" class="edge">
<title>b19&#45;&gt;b25</title>
<path fill="none" stroke="black" d="M6940.58,-325.51C7016.87,-341.76 7115.11,-362.68 7193.25,-379.33"/>
<polygon fill="black" stroke="black" points="7192.65,-382.78 7203.16,-381.44 7194.11,-375.93 7192.65,-382.78"/>
</g>
<!-- b21 -->
<g id="node22" class="node">
<title>b21</title>
<polygon fill="white" stroke="black" points="8036,-63 7635,-63 7635,0 8036,0 8036,-63"/>
<text text-anchor="middle" x="7835.5" y="-51" font-family="Helvetica" font-size="10.00">B21</text>
<text text-anchor="middle" x="7835.5" y="-40" font-family="Helvetica" font-size="10.00">Loop: &lt;none&gt;</text>
<text text-anchor="middle" x="7835.5" y="-29" font-family="Helvetica" font-size="10.00">&#45;&#45;&#45;</text>
<text text-anchor="middle" x="7835.5" y="-18" font-family="Helvetica" font-size="10.00">HotSpotMethod&lt;Pattern$LastNode.match(Matcher, int, CharSequence)&gt;</text>
<text text-anchor="middle" x="7835.5" y="-7" font-family="Helvetica" font-size="10.00">HotSpotMethod&lt;Pattern$BmpCharPropertyGreedy.match(Matcher, int, CharSequence)&gt;</text>
</g>
<!-- b20&#45;&gt;b21 -->
<g id="edge31" class="edge">
<title>b20&#45;&gt;b21</title>
<path fill="none" stroke="black" d="M7405.61,-204.92C7497.81,-167.64 7650.74,-105.8 7746.89,-66.92"/>
<polygon fill="black" stroke="black" points="7748.34,-70.11 7756.3,-63.12 7745.72,-63.62 7748.34,-70.11"/>
</g>
<!-- b22 -->
<g id="node23" class="node">
<title>b22</title>
<polygon fill="white" stroke="black" points="8036,-268 7635,-268 7635,-205 8036,-205 8036,-268"/>
<text text-anchor="middle" x="7835.5" y="-256" font-family="Helvetica" font-size="10.00">B22</text>
<text text-anchor="middle" x="7835.5" y="-245" font-family="Helvetica" font-size="10.00">Loop: &lt;none&gt;</text>
<text text-anchor="middle" x="7835.5" y="-234" font-family="Helvetica" font-size="10.00">&#45;&#45;&#45;</text>
<text text-anchor="middle" x="7835.5" y="-223" font-family="Helvetica" font-size="10.00">HotSpotMethod&lt;Pattern$BmpCharPropertyGreedy.match(Matcher, int, CharSequence)&gt;</text>
<text text-anchor="middle" x="7835.5" y="-212" font-family="Helvetica" font-size="10.00">HotSpotMethod&lt;Pattern$LastNode.match(Matcher, int, CharSequence)&gt;</text>
</g>
<!-- b20&#45;&gt;b22 -->
<g id="edge32" class="edge">
<title>b20&#45;&gt;b22</title>
<path fill="none" stroke="black" d="M7527.15,-236.5C7559.03,-236.5 7592.1,-236.5 7624.22,-236.5"/>
<polygon fill="black" stroke="black" points="7624.61,-240 7634.61,-236.5 7624.61,-233 7624.61,-240"/>
</g>
<!-- b27 -->
<g id="node28" class="node">
<title>b27</title>
<polygon fill="white" stroke="black" points="9054,-300.5 8653,-300.5 8653,-248.5 9054,-248.5 9054,-300.5"/>
<text text-anchor="middle" x="8853.5" y="-288.5" font-family="Helvetica" font-size="10.00">B27</text>
<text text-anchor="middle" x="8853.5" y="-277.5" font-family="Helvetica" font-size="10.00">Loop: &lt;none&gt;</text>
<text text-anchor="middle" x="8853.5" y="-266.5" font-family="Helvetica" font-size="10.00">&#45;&#45;&#45;</text>
<text text-anchor="middle" x="8853.5" y="-255.5" font-family="Helvetica" font-size="10.00">HotSpotMethod&lt;Pattern$BmpCharPropertyGreedy.match(Matcher, int, CharSequence)&gt;</text>
</g>
<!-- b21&#45;&gt;b27 -->
<g id="edge33" class="edge">
<title>b21&#45;&gt;b27</title>
<path fill="none" stroke="black" d="M8036.05,-14.04C8180.96,-7.98 8379.77,-13.52 8545,-68.5 8655.41,-105.24 8763.49,-193.08 8817.29,-241.35"/>
<polygon fill="black" stroke="black" points="8815.06,-244.05 8824.82,-248.17 8819.76,-238.86 8815.06,-244.05"/>
</g>
<!-- b23 -->
<g id="node24" class="node">
<title>b23</title>
<polygon fill="white" stroke="black" points="8545,-168 8144,-168 8144,-105 8545,-105 8545,-168"/>
<text text-anchor="middle" x="8344.5" y="-156" font-family="Helvetica" font-size="10.00">B23</text>
<text text-anchor="middle" x="8344.5" y="-145" font-family="Helvetica" font-size="10.00">Loop: &lt;none&gt;</text>
<text text-anchor="middle" x="8344.5" y="-134" font-family="Helvetica" font-size="10.00">&#45;&#45;&#45;</text>
<text text-anchor="middle" x="8344.5" y="-123" font-family="Helvetica" font-size="10.00">HotSpotMethod&lt;Pattern$LastNode.match(Matcher, int, CharSequence)&gt;</text>
<text text-anchor="middle" x="8344.5" y="-112" font-family="Helvetica" font-size="10.00">HotSpotMethod&lt;Pattern$BmpCharPropertyGreedy.match(Matcher, int, CharSequence)&gt;</text>
</g>
<!-- b22&#45;&gt;b23 -->
<g id="edge34" class="edge">
<title>b22&#45;&gt;b23</title>
<path fill="none" stroke="black" d="M7996.22,-205C8052.75,-193.85 8116.51,-181.27 8173.83,-169.97"/>
<polygon fill="black" stroke="black" points="8174.58,-173.39 8183.71,-168.02 8173.22,-166.52 8174.58,-173.39"/>
</g>
<!-- b24 -->
<g id="node25" class="node">
<title>b24</title>
<polygon fill="white" stroke="black" points="8545,-303 8144,-303 8144,-240 8545,-240 8545,-303"/>
<text text-anchor="middle" x="8344.5" y="-291" font-family="Helvetica" font-size="10.00">B24</text>
<text text-anchor="middle" x="8344.5" y="-280" font-family="Helvetica" font-size="10.00">Loop: &lt;none&gt;</text>
<text text-anchor="middle" x="8344.5" y="-269" font-family="Helvetica" font-size="10.00">&#45;&#45;&#45;</text>
<text text-anchor="middle" x="8344.5" y="-258" font-family="Helvetica" font-size="10.00">HotSpotMethod&lt;Pattern$BmpCharPropertyGreedy.match(Matcher, int, CharSequence)&gt;</text>
<text text-anchor="middle" x="8344.5" y="-247" font-family="Helvetica" font-size="10.00">HotSpotMethod&lt;Pattern$LastNode.match(Matcher, int, CharSequence)&gt;</text>
</g>
<!-- b22&#45;&gt;b24 -->
<g id="edge35" class="edge">
<title>b22&#45;&gt;b24</title>
<path fill="none" stroke="black" d="M8036.15,-250.28C8068.03,-252.48 8101.1,-254.77 8133.22,-256.98"/>
<polygon fill="black" stroke="black" points="8133.4,-260.5 8143.61,-257.7 8133.88,-253.52 8133.4,-260.5"/>
</g>
<!-- b23&#45;&gt;b27 -->
<g id="edge36" class="edge">
<title>b23&#45;&gt;b27</title>
<path fill="none" stroke="black" d="M8461.5,-168.07C8547.4,-191.45 8663.5,-223.06 8746.83,-245.74"/>
<polygon fill="black" stroke="black" points="8746.01,-249.14 8756.57,-248.39 8747.84,-242.39 8746.01,-249.14"/>
</g>
<!-- b25&#45;&gt;b27 -->
<g id="edge37" class="edge">
<title>b25&#45;&gt;b27</title>
<path fill="none" stroke="black" d="M7527.11,-405.27C7768.98,-400.47 8188.43,-385.45 8545,-338.5 8609.01,-330.07 8679.59,-315.75 8736.97,-302.79"/>
<polygon fill="black" stroke="black" points="8737.81,-306.19 8746.79,-300.55 8736.26,-299.36 8737.81,-306.19"/>
</g>
<!-- b26&#45;&gt;b27 -->
<g id="edge38" class="edge">
<title>b26&#45;&gt;b27</title>
<path fill="none" stroke="black" d="M6509.03,-554.37C6713.89,-556.13 7041.95,-558.5 7325.5,-558.5 7325.5,-558.5 7325.5,-558.5 7836.5,-558.5 8157.92,-558.5 8239.22,-512.53 8545,-413.5 8635.12,-384.31 8734.08,-336.54 8794.75,-305.31"/>
<polygon fill="black" stroke="black" points="8796.51,-308.34 8803.79,-300.63 8793.3,-302.12 8796.51,-308.34"/>
</g>
<!-- b33 -->
<g id="node34" class="node">
<title>b33</title>
<polygon fill="white" stroke="black" points="3455,-1000.5 3054,-1000.5 3054,-948.5 3455,-948.5 3455,-1000.5"/>
<text text-anchor="middle" x="3254.5" y="-988.5" font-family="Helvetica" font-size="10.00">B33</text>
<text text-anchor="middle" x="3254.5" y="-977.5" font-family="Helvetica" font-size="10.00">Loop: &lt;none&gt;</text>
<text text-anchor="middle" x="3254.5" y="-966.5" font-family="Helvetica" font-size="10.00">&#45;&#45;&#45;</text>
<text text-anchor="middle" x="3254.5" y="-955.5" font-family="Helvetica" font-size="10.00">HotSpotMethod&lt;Pattern$BmpCharPropertyGreedy.match(Matcher, int, CharSequence)&gt;</text>
</g>
<!-- b28&#45;&gt;b33 -->
<g id="edge39" class="edge">
<title>b28&#45;&gt;b33</title>
<path fill="none" stroke="black" d="M2821.49,-719.55C2859.58,-733.79 2906.12,-752.73 2946,-773.5 3044.93,-825.03 3152.21,-899.97 3210.26,-942.28"/>
<polygon fill="black" stroke="black" points="3208.32,-945.2 3218.46,-948.28 3212.45,-939.55 3208.32,-945.2"/>
</g>
<!-- b29&#45;&gt;b33 -->
<g id="edge40" class="edge">
<title>b29&#45;&gt;b33</title>
<path fill="none" stroke="black" d="M2437.14,-851.48C2579.29,-868.49 2774.7,-893.2 2946,-919.5 2998.39,-927.54 3055.6,-937.46 3106.31,-946.65"/>
<polygon fill="black" stroke="black" points="3105.89,-950.13 3116.36,-948.48 3107.14,-943.25 3105.89,-950.13"/>
</g>
<!-- b30&#45;&gt;b33 -->
<g id="edge41" class="edge">
<title>b30&#45;&gt;b33</title>
<path fill="none" stroke="black" d="M1928.26,-974.5C2217.13,-974.5 2749.04,-974.5 3043.52,-974.5"/>
<polygon fill="black" stroke="black" points="3043.9,-978 3053.9,-974.5 3043.9,-971 3043.9,-978"/>
</g>
<!-- b31&#45;&gt;b33 -->
<g id="edge42" class="edge">
<title>b31&#45;&gt;b33</title>
<path fill="none" stroke="black" d="M1419.23,-1118.02C1741.49,-1112.22 2395.67,-1092.97 2946,-1029.5 3002.8,-1022.95 3064.98,-1012.46 3118.47,-1002.4"/>
<polygon fill="black" stroke="black" points="3119.18,-1005.83 3128.35,-1000.52 3117.87,-998.95 3119.18,-1005.83"/>
</g>
<!-- b32&#45;&gt;b33 -->
<g id="edge43" class="edge">
<title>b32&#45;&gt;b33</title>
<path fill="none" stroke="black" d="M910.02,-1258.94C1114.89,-1262.16 1442.94,-1266.5 1726.5,-1266.5 1726.5,-1266.5 1726.5,-1266.5 2237.5,-1266.5 2612.99,-1266.5 3037.22,-1080 3192.47,-1005.1"/>
<polygon fill="black" stroke="black" points="3194.39,-1008.05 3201.86,-1000.54 3191.34,-1001.76 3194.39,-1008.05"/>
</g>
</g>
</svg>
