<?xml version="1.0" encoding="UTF-8" standalone="no"?>
<!DOCTYPE svg PUBLIC "-//W3C//DTD SVG 1.1//EN"
 "http://www.w3.org/Graphics/SVG/1.1/DTD/svg11.dtd">
<!-- Generated by graphviz version 2.44.0 (0)
 -->
<!-- Title: CFG_93 Pages: 1 -->
<svg width="4484pt" height="1223pt"
 viewBox="0.00 0.00 4484.00 1223.07" xmlns="http://www.w3.org/2000/svg" xmlns:xlink="http://www.w3.org/1999/xlink">
<g id="graph0" class="graph" transform="scale(1 1) rotate(0) translate(4 1219.07)">
<title>CFG_93</title>
<polygon fill="white" stroke="transparent" points="-4,4 -4,-1219.07 4480,-1219.07 4480,4 -4,4"/>
<text text-anchor="middle" x="229" y="-1195.07" font-family="Times-Roman" font-size="20.00">150&#45;LoopBenchmarks.parseJsonLoop(char[])</text>
<!-- b0 -->
<g id="node1" class="node">
<title>b0</title>
<polygon fill="white" stroke="black" points="274,-796.07 0,-796.07 0,-744.07 274,-744.07 274,-796.07"/>
<text text-anchor="middle" x="137" y="-784.07" font-family="Helvetica" font-size="10.00">B0</text>
<text text-anchor="middle" x="137" y="-773.07" font-family="Helvetica" font-size="10.00">Loop: &lt;none&gt;</text>
<text text-anchor="middle" x="137" y="-762.07" font-family="Helvetica" font-size="10.00">&#45;&#45;&#45;</text>
<text text-anchor="middle" x="137" y="-751.07" font-family="Helvetica" font-size="10.00">HotSpotMethod&lt;LoopBenchmarks.parseJsonLoop(char[])&gt;</text>
</g>
<!-- b1 -->
<g id="node2" class="node">
<title>b1</title>
<polygon fill="white" stroke="black" points="1420,-1050.07 1146,-1050.07 1146,-998.07 1420,-998.07 1420,-1050.07"/>
<text text-anchor="middle" x="1283" y="-1038.07" font-family="Helvetica" font-size="10.00">B1</text>
<text text-anchor="middle" x="1283" y="-1027.07" font-family="Helvetica" font-size="10.00">Loop: &lt;none&gt;</text>
<text text-anchor="middle" x="1283" y="-1016.07" font-family="Helvetica" font-size="10.00">&#45;&#45;&#45;</text>
<text text-anchor="middle" x="1283" y="-1005.07" font-family="Helvetica" font-size="10.00">HotSpotMethod&lt;LoopBenchmarks.parseJsonLoop(char[])&gt;</text>
</g>
<!-- b0&#45;&gt;b1 -->
<g id="edge1" class="edge">
<title>b0&#45;&gt;b1</title>
<path fill="none" stroke="black" d="M215.18,-796.22C332.47,-835.08 563.21,-908.11 764,-951.07 888.32,-977.66 1031.57,-997 1135.87,-1009.06"/>
<polygon fill="black" stroke="black" points="1135.5,-1012.54 1145.84,-1010.21 1136.3,-1005.59 1135.5,-1012.54"/>
</g>
<!-- b2 -->
<g id="node3" class="node">
<title>b2</title>
<polygon fill="white" stroke="black" points="656,-605.07 382,-605.07 382,-553.07 656,-553.07 656,-605.07"/>
<text text-anchor="middle" x="519" y="-593.07" font-family="Helvetica" font-size="10.00">B2</text>
<text text-anchor="middle" x="519" y="-582.07" font-family="Helvetica" font-size="10.00">Loop: &lt;none&gt;</text>
<text text-anchor="middle" x="519" y="-571.07" font-family="Helvetica" font-size="10.00">&#45;&#45;&#45;</text>
<text text-anchor="middle" x="519" y="-560.07" font-family="Helvetica" font-size="10.00">HotSpotMethod&lt;LoopBenchmarks.parseJsonLoop(char[])&gt;</text>
</g>
<!-- b0&#45;&gt;b2 -->
<g id="edge2" class="edge">
<title>b0&#45;&gt;b2</title>
<path fill="none" stroke="black" d="M190.04,-743.91C259.63,-708.93 382.79,-647.03 456.77,-609.84"/>
<polygon fill="black" stroke="black" points="458.62,-612.83 465.98,-605.21 455.47,-606.58 458.62,-612.83"/>
</g>
<!-- b29 -->
<g id="node30" class="node">
<title>b29</title>
<polygon fill="white" stroke="black" points="2948,-1161.07 2674,-1161.07 2674,-1109.07 2948,-1109.07 2948,-1161.07"/>
<text text-anchor="middle" x="2811" y="-1149.07" font-family="Helvetica" font-size="10.00">B29</text>
<text text-anchor="middle" x="2811" y="-1138.07" font-family="Helvetica" font-size="10.00">Loop: &lt;none&gt;</text>
<text text-anchor="middle" x="2811" y="-1127.07" font-family="Helvetica" font-size="10.00">&#45;&#45;&#45;</text>
<text text-anchor="middle" x="2811" y="-1116.07" font-family="Helvetica" font-size="10.00">HotSpotMethod&lt;LoopBenchmarks.parseJsonLoop(char[])&gt;</text>
</g>
<!-- b1&#45;&gt;b29 -->
<g id="edge3" class="edge">
<title>b1&#45;&gt;b29</title>
<path fill="none" stroke="black" d="M1420.03,-1027.45C1654.52,-1034.26 2149.78,-1052.91 2566,-1097.07 2597.78,-1100.44 2631.74,-1105.07 2663.91,-1109.94"/>
<polygon fill="black" stroke="black" points="2663.42,-1113.4 2673.84,-1111.45 2664.48,-1106.48 2663.42,-1113.4"/>
</g>
<!-- b3 -->
<g id="node4" class="node">
<title>b3</title>
<polygon fill="white" stroke="black" points="1038,-543.07 764,-543.07 764,-491.07 1038,-491.07 1038,-543.07"/>
<text text-anchor="middle" x="901" y="-531.07" font-family="Helvetica" font-size="10.00">B3</text>
<text text-anchor="middle" x="901" y="-520.07" font-family="Helvetica" font-size="10.00">Loop: &lt;none&gt;</text>
<text text-anchor="middle" x="901" y="-509.07" font-family="Helvetica" font-size="10.00">&#45;&#45;&#45;</text>
<text text-anchor="middle" x="901" y="-498.07" font-family="Helvetica" font-size="10.00">HotSpotMethod&lt;LoopBenchmarks.parseJsonLoop(char[])&gt;</text>
</g>
<!-- b2&#45;&gt;b3 -->
<g id="edge4" class="edge">
<title>b2&#45;&gt;b3</title>
<path fill="none" stroke="black" d="M656.12,-556.86C687.86,-551.68 721.8,-546.14 753.96,-540.89"/>
<polygon fill="black" stroke="black" points="754.57,-544.34 763.88,-539.27 753.44,-537.43 754.57,-544.34"/>
</g>
<!-- b4 -->
<g id="node5" class="node">
<title>b4</title>
<polygon fill="white" stroke="black" points="1038,-419.07 764,-419.07 764,-367.07 1038,-367.07 1038,-419.07"/>
<text text-anchor="middle" x="901" y="-407.07" font-family="Helvetica" font-size="10.00">B4</text>
<text text-anchor="middle" x="901" y="-396.07" font-family="Helvetica" font-size="10.00">Loop: &lt;none&gt;</text>
<text text-anchor="middle" x="901" y="-385.07" font-family="Helvetica" font-size="10.00">&#45;&#45;&#45;</text>
<text text-anchor="middle" x="901" y="-374.07" font-family="Helvetica" font-size="10.00">HotSpotMethod&lt;LoopBenchmarks.parseJsonLoop(char[])&gt;</text>
</g>
<!-- b2&#45;&gt;b4 -->
<g id="edge5" class="edge">
<title>b2&#45;&gt;b4</title>
<path fill="none" stroke="black" d="M569.69,-553.03C618.78,-527.5 696.15,-487.75 764,-455.07 786.09,-444.42 810.41,-433.19 832.29,-423.25"/>
<polygon fill="black" stroke="black" points="833.84,-426.39 841.51,-419.08 830.95,-420.01 833.84,-426.39"/>
</g>
<!-- b5 -->
<g id="node6" class="node">
<title>b5</title>
<polygon fill="white" stroke="black" points="1038,-295.07 764,-295.07 764,-243.07 1038,-243.07 1038,-295.07"/>
<text text-anchor="middle" x="901" y="-283.07" font-family="Helvetica" font-size="10.00">B5</text>
<text text-anchor="middle" x="901" y="-272.07" font-family="Helvetica" font-size="10.00">Loop: &lt;none&gt;</text>
<text text-anchor="middle" x="901" y="-261.07" font-family="Helvetica" font-size="10.00">&#45;&#45;&#45;</text>
<text text-anchor="middle" x="901" y="-250.07" font-family="Helvetica" font-size="10.00">HotSpotMethod&lt;LoopBenchmarks.parseJsonLoop(char[])&gt;</text>
</g>
<!-- b2&#45;&gt;b5 -->
<g id="edge6" class="edge">
<title>b2&#45;&gt;b5</title>
<path fill="none" stroke="black" d="M540.31,-552.78C579.24,-503.81 668.99,-397.56 764,-331.07 781.34,-318.93 801.44,-308.23 820.78,-299.29"/>
<polygon fill="black" stroke="black" points="822.23,-302.47 829.9,-295.17 819.35,-296.09 822.23,-302.47"/>
</g>
<!-- b6 -->
<g id="node7" class="node">
<title>b6</title>
<polygon fill="white" stroke="black" points="1038,-171.07 764,-171.07 764,-119.07 1038,-119.07 1038,-171.07"/>
<text text-anchor="middle" x="901" y="-159.07" font-family="Helvetica" font-size="10.00">B6</text>
<text text-anchor="middle" x="901" y="-148.07" font-family="Helvetica" font-size="10.00">Loop: &lt;none&gt;</text>
<text text-anchor="middle" x="901" y="-137.07" font-family="Helvetica" font-size="10.00">&#45;&#45;&#45;</text>
<text text-anchor="middle" x="901" y="-126.07" font-family="Helvetica" font-size="10.00">HotSpotMethod&lt;LoopBenchmarks.parseJsonLoop(char[])&gt;</text>
</g>
<!-- b2&#45;&gt;b6 -->
<g id="edge7" class="edge">
<title>b2&#45;&gt;b6</title>
<path fill="none" stroke="black" d="M530.88,-552.93C559.65,-486.68 643.82,-310.15 764,-207.07 778.68,-194.48 796.33,-183.96 813.98,-175.38"/>
<polygon fill="black" stroke="black" points="815.63,-178.48 823.2,-171.07 812.66,-172.14 815.63,-178.48"/>
</g>
<!-- b7 -->
<g id="node8" class="node">
<title>b7</title>
<polygon fill="white" stroke="black" points="1038,-915.07 764,-915.07 764,-863.07 1038,-863.07 1038,-915.07"/>
<text text-anchor="middle" x="901" y="-903.07" font-family="Helvetica" font-size="10.00">B7</text>
<text text-anchor="middle" x="901" y="-892.07" font-family="Helvetica" font-size="10.00">Loop: &lt;none&gt;</text>
<text text-anchor="middle" x="901" y="-881.07" font-family="Helvetica" font-size="10.00">&#45;&#45;&#45;</text>
<text text-anchor="middle" x="901" y="-870.07" font-family="Helvetica" font-size="10.00">HotSpotMethod&lt;LoopBenchmarks.parseJsonLoop(char[])&gt;</text>
</g>
<!-- b2&#45;&gt;b7 -->
<g id="edge8" class="edge">
<title>b2&#45;&gt;b7</title>
<path fill="none" stroke="black" d="M540.31,-605.35C579.24,-654.32 668.99,-760.57 764,-827.07 781.34,-839.2 801.44,-849.9 820.78,-858.84"/>
<polygon fill="black" stroke="black" points="819.35,-862.04 829.9,-862.96 822.23,-855.66 819.35,-862.04"/>
</g>
<!-- b8 -->
<g id="node9" class="node">
<title>b8</title>
<polygon fill="white" stroke="black" points="1038,-791.07 764,-791.07 764,-739.07 1038,-739.07 1038,-791.07"/>
<text text-anchor="middle" x="901" y="-779.07" font-family="Helvetica" font-size="10.00">B8</text>
<text text-anchor="middle" x="901" y="-768.07" font-family="Helvetica" font-size="10.00">Loop: &lt;none&gt;</text>
<text text-anchor="middle" x="901" y="-757.07" font-family="Helvetica" font-size="10.00">&#45;&#45;&#45;</text>
<text text-anchor="middle" x="901" y="-746.07" font-family="Helvetica" font-size="10.00">HotSpotMethod&lt;LoopBenchmarks.parseJsonLoop(char[])&gt;</text>
</g>
<!-- b2&#45;&gt;b8 -->
<g id="edge9" class="edge">
<title>b2&#45;&gt;b8</title>
<path fill="none" stroke="black" d="M569.69,-605.1C618.78,-630.63 696.15,-670.38 764,-703.07 786.09,-713.71 810.41,-724.94 832.29,-734.88"/>
<polygon fill="black" stroke="black" points="830.95,-738.12 841.51,-739.05 833.84,-731.74 830.95,-738.12"/>
</g>
<!-- b9 -->
<g id="node10" class="node">
<title>b9</title>
<polygon fill="white" stroke="black" points="1038,-667.07 764,-667.07 764,-615.07 1038,-615.07 1038,-667.07"/>
<text text-anchor="middle" x="901" y="-655.07" font-family="Helvetica" font-size="10.00">B9</text>
<text text-anchor="middle" x="901" y="-644.07" font-family="Helvetica" font-size="10.00">Loop: &lt;none&gt;</text>
<text text-anchor="middle" x="901" y="-633.07" font-family="Helvetica" font-size="10.00">&#45;&#45;&#45;</text>
<text text-anchor="middle" x="901" y="-622.07" font-family="Helvetica" font-size="10.00">HotSpotMethod&lt;LoopBenchmarks.parseJsonLoop(char[])&gt;</text>
</g>
<!-- b2&#45;&gt;b9 -->
<g id="edge10" class="edge">
<title>b2&#45;&gt;b9</title>
<path fill="none" stroke="black" d="M656.12,-601.27C687.86,-606.45 721.8,-611.99 753.96,-617.24"/>
<polygon fill="black" stroke="black" points="753.44,-620.7 763.88,-618.86 754.57,-613.79 753.44,-620.7"/>
</g>
<!-- b10 -->
<g id="node11" class="node">
<title>b10</title>
<polygon fill="white" stroke="black" points="1420,-467.07 1146,-467.07 1146,-415.07 1420,-415.07 1420,-467.07"/>
<text text-anchor="middle" x="1283" y="-455.07" font-family="Helvetica" font-size="10.00">B10</text>
<text text-anchor="middle" x="1283" y="-444.07" font-family="Helvetica" font-size="10.00">Loop: &lt;none&gt;</text>
<text text-anchor="middle" x="1283" y="-433.07" font-family="Helvetica" font-size="10.00">&#45;&#45;&#45;</text>
<text text-anchor="middle" x="1283" y="-422.07" font-family="Helvetica" font-size="10.00">HotSpotMethod&lt;LoopBenchmarks.parseJsonLoop(char[])&gt;</text>
</g>
<!-- b4&#45;&gt;b10 -->
<g id="edge11" class="edge">
<title>b4&#45;&gt;b10</title>
<path fill="none" stroke="black" d="M1038.12,-410.26C1069.73,-414.25 1103.51,-418.52 1135.54,-422.57"/>
<polygon fill="black" stroke="black" points="1135.52,-426.09 1145.88,-423.87 1136.39,-419.14 1135.52,-426.09"/>
</g>
<!-- b5&#45;&gt;b10 -->
<g id="edge12" class="edge">
<title>b5&#45;&gt;b10</title>
<path fill="none" stroke="black" d="M959.71,-295.19C1028.27,-326.22 1142.43,-377.89 1214.87,-410.68"/>
<polygon fill="black" stroke="black" points="1213.81,-414.04 1224.37,-414.98 1216.7,-407.67 1213.81,-414.04"/>
</g>
<!-- b6&#45;&gt;b10 -->
<g id="edge13" class="edge">
<title>b6&#45;&gt;b10</title>
<path fill="none" stroke="black" d="M971.16,-171.21C993.36,-180.99 1017.49,-193.15 1038,-207.07 1125.42,-266.37 1210.52,-357.95 1253.36,-407.11"/>
<polygon fill="black" stroke="black" points="1250.92,-409.64 1260.11,-414.91 1256.21,-405.06 1250.92,-409.64"/>
</g>
<!-- b7&#45;&gt;b10 -->
<g id="edge14" class="edge">
<title>b7&#45;&gt;b10</title>
<path fill="none" stroke="black" d="M979.67,-862.92C1000.08,-853.68 1021.09,-841.82 1038,-827.07 1155.77,-724.31 1236.86,-550.89 1267.92,-476.59"/>
<polygon fill="black" stroke="black" points="1271.21,-477.78 1271.8,-467.2 1264.74,-475.11 1271.21,-477.78"/>
</g>
<!-- b8&#45;&gt;b10 -->
<g id="edge15" class="edge">
<title>b8&#45;&gt;b10</title>
<path fill="none" stroke="black" d="M973.03,-738.98C994.87,-729.34 1018.31,-717.25 1038,-703.07 1130.87,-636.16 1216.38,-529.94 1257.07,-475.58"/>
<polygon fill="black" stroke="black" points="1260.06,-477.43 1263.21,-467.32 1254.44,-473.26 1260.06,-477.43"/>
</g>
<!-- b9&#45;&gt;b10 -->
<g id="edge16" class="edge">
<title>b9&#45;&gt;b10</title>
<path fill="none" stroke="black" d="M962.12,-615.01C985.96,-604.33 1013.49,-591.55 1038,-579.07 1105.36,-544.75 1180.81,-501.27 1229.73,-472.38"/>
<polygon fill="black" stroke="black" points="1231.72,-475.27 1238.55,-467.16 1228.16,-469.24 1231.72,-475.27"/>
</g>
<!-- b12 -->
<g id="node13" class="node">
<title>b12</title>
<polygon fill="white" stroke="black" points="1802,-812.07 1528,-812.07 1528,-760.07 1802,-760.07 1802,-812.07"/>
<text text-anchor="middle" x="1665" y="-800.07" font-family="Helvetica" font-size="10.00">B12</text>
<text text-anchor="middle" x="1665" y="-789.07" font-family="Helvetica" font-size="10.00">Loop: &lt;none&gt;</text>
<text text-anchor="middle" x="1665" y="-778.07" font-family="Helvetica" font-size="10.00">&#45;&#45;&#45;</text>
<text text-anchor="middle" x="1665" y="-767.07" font-family="Helvetica" font-size="10.00">HotSpotMethod&lt;LoopBenchmarks.parseJsonLoop(char[])&gt;</text>
</g>
<!-- b10&#45;&gt;b12 -->
<g id="edge18" class="edge">
<title>b10&#45;&gt;b12</title>
<path fill="none" stroke="black" d="M1300.89,-467.43C1336.84,-521.77 1426.02,-647.58 1528,-724.07 1544.41,-736.37 1563.66,-746.99 1582.42,-755.79"/>
<polygon fill="black" stroke="black" points="1581.03,-759.01 1591.58,-759.97 1583.93,-752.64 1581.03,-759.01"/>
</g>
<!-- b14 -->
<g id="node15" class="node">
<title>b14</title>
<polygon fill="white" stroke="black" points="2184,-588.07 1910,-588.07 1910,-536.07 2184,-536.07 2184,-588.07"/>
<text text-anchor="middle" x="2047" y="-576.07" font-family="Helvetica" font-size="10.00">B14</text>
<text text-anchor="middle" x="2047" y="-565.07" font-family="Helvetica" font-size="10.00">Loop: &lt;none&gt;</text>
<text text-anchor="middle" x="2047" y="-554.07" font-family="Helvetica" font-size="10.00">&#45;&#45;&#45;</text>
<text text-anchor="middle" x="2047" y="-543.07" font-family="Helvetica" font-size="10.00">HotSpotMethod&lt;LoopBenchmarks.parseJsonLoop(char[])&gt;</text>
</g>
<!-- b10&#45;&gt;b14 -->
<g id="edge17" class="edge">
<title>b10&#45;&gt;b14</title>
<path fill="none" stroke="black" d="M1420.05,-440.24C1525.32,-441.99 1674.21,-449.74 1802,-476.07 1862.83,-488.6 1929.14,-512.68 1977.26,-532.18"/>
<polygon fill="black" stroke="black" points="1976.05,-535.47 1986.63,-536.02 1978.7,-528.99 1976.05,-535.47"/>
</g>
<!-- b11 -->
<g id="node12" class="node">
<title>b11</title>
<polygon fill="white" stroke="black" points="1802,-688.07 1528,-688.07 1528,-636.07 1802,-636.07 1802,-688.07"/>
<text text-anchor="middle" x="1665" y="-676.07" font-family="Helvetica" font-size="10.00">B11</text>
<text text-anchor="middle" x="1665" y="-665.07" font-family="Helvetica" font-size="10.00">Loop: &lt;none&gt;</text>
<text text-anchor="middle" x="1665" y="-654.07" font-family="Helvetica" font-size="10.00">&#45;&#45;&#45;</text>
<text text-anchor="middle" x="1665" y="-643.07" font-family="Helvetica" font-size="10.00">HotSpotMethod&lt;LoopBenchmarks.parseJsonLoop(char[])&gt;</text>
</g>
<!-- b11&#45;&gt;b14 -->
<g id="edge19" class="edge">
<title>b11&#45;&gt;b14</title>
<path fill="none" stroke="black" d="M1764.85,-636.05C1817.64,-622.16 1882.73,-605.03 1936.99,-590.75"/>
<polygon fill="black" stroke="black" points="1938.21,-594.05 1946.99,-588.12 1936.43,-587.28 1938.21,-594.05"/>
</g>
<!-- b12&#45;&gt;b14 -->
<g id="edge20" class="edge">
<title>b12&#45;&gt;b14</title>
<path fill="none" stroke="black" d="M1728.63,-760C1752.05,-749.61 1778.63,-737.04 1802,-724.07 1874.76,-683.66 1954.22,-628.7 2002.07,-594.31"/>
<polygon fill="black" stroke="black" points="2004.28,-597.04 2010.34,-588.35 2000.18,-591.36 2004.28,-597.04"/>
</g>
<!-- b30 -->
<g id="node31" class="node">
<title>b30</title>
<polygon fill="white" stroke="black" points="2184,-812.07 1910,-812.07 1910,-760.07 2184,-760.07 2184,-812.07"/>
<text text-anchor="middle" x="2047" y="-800.07" font-family="Helvetica" font-size="10.00">B30</text>
<text text-anchor="middle" x="2047" y="-789.07" font-family="Helvetica" font-size="10.00">Loop: &lt;none&gt;</text>
<text text-anchor="middle" x="2047" y="-778.07" font-family="Helvetica" font-size="10.00">&#45;&#45;&#45;</text>
<text text-anchor="middle" x="2047" y="-767.07" font-family="Helvetica" font-size="10.00">HotSpotMethod&lt;LoopBenchmarks.parseJsonLoop(char[])&gt;</text>
</g>
<!-- b12&#45;&gt;b30 -->
<g id="edge21" class="edge">
<title>b12&#45;&gt;b30</title>
<path fill="none" stroke="black" d="M1802.12,-786.07C1833.73,-786.07 1867.51,-786.07 1899.54,-786.07"/>
<polygon fill="black" stroke="black" points="1899.88,-789.57 1909.88,-786.07 1899.88,-782.57 1899.88,-789.57"/>
</g>
<!-- b13 -->
<g id="node14" class="node">
<title>b13</title>
<polygon fill="white" stroke="black" points="1802,-564.07 1528,-564.07 1528,-512.07 1802,-512.07 1802,-564.07"/>
<text text-anchor="middle" x="1665" y="-552.07" font-family="Helvetica" font-size="10.00">B13</text>
<text text-anchor="middle" x="1665" y="-541.07" font-family="Helvetica" font-size="10.00">Loop: &lt;none&gt;</text>
<text text-anchor="middle" x="1665" y="-530.07" font-family="Helvetica" font-size="10.00">&#45;&#45;&#45;</text>
<text text-anchor="middle" x="1665" y="-519.07" font-family="Helvetica" font-size="10.00">HotSpotMethod&lt;LoopBenchmarks.parseJsonLoop(char[])&gt;</text>
</g>
<!-- b13&#45;&gt;b14 -->
<g id="edge22" class="edge">
<title>b13&#45;&gt;b14</title>
<path fill="none" stroke="black" d="M1802.12,-546.66C1833.73,-548.66 1867.51,-550.79 1899.54,-552.82"/>
<polygon fill="black" stroke="black" points="1899.68,-556.33 1909.88,-553.47 1900.12,-549.34 1899.68,-556.33"/>
</g>
<!-- b15 -->
<g id="node16" class="node">
<title>b15</title>
<polygon fill="lightblue" stroke="black" points="2566,-588.07 2292,-588.07 2292,-536.07 2566,-536.07 2566,-588.07"/>
<text text-anchor="middle" x="2429" y="-576.07" font-family="Helvetica" font-size="10.00">B15</text>
<text text-anchor="middle" x="2429" y="-565.07" font-family="Helvetica" font-size="10.00">Loop: L0</text>
<text text-anchor="middle" x="2429" y="-554.07" font-family="Helvetica" font-size="10.00">&#45;&#45;&#45;</text>
<text text-anchor="middle" x="2429" y="-543.07" font-family="Helvetica" font-size="10.00">HotSpotMethod&lt;LoopBenchmarks.parseJsonLoop(char[])&gt;</text>
</g>
<!-- b14&#45;&gt;b15 -->
<g id="edge23" class="edge">
<title>b14&#45;&gt;b15</title>
<path fill="none" stroke="black" d="M2184.12,-562.07C2215.73,-562.07 2249.51,-562.07 2281.54,-562.07"/>
<polygon fill="black" stroke="black" points="2281.88,-565.57 2291.88,-562.07 2281.88,-558.57 2281.88,-565.57"/>
</g>
<!-- b16 -->
<g id="node17" class="node">
<title>b16</title>
<polygon fill="lightblue" stroke="black" points="2948,-453.07 2674,-453.07 2674,-401.07 2948,-401.07 2948,-453.07"/>
<text text-anchor="middle" x="2811" y="-441.07" font-family="Helvetica" font-size="10.00">B16</text>
<text text-anchor="middle" x="2811" y="-430.07" font-family="Helvetica" font-size="10.00">Loop: L0</text>
<text text-anchor="middle" x="2811" y="-419.07" font-family="Helvetica" font-size="10.00">&#45;&#45;&#45;</text>
<text text-anchor="middle" x="2811" y="-408.07" font-family="Helvetica" font-size="10.00">HotSpotMethod&lt;LoopBenchmarks.parseJsonLoop(char[])&gt;</text>
</g>
<!-- b15&#45;&gt;b16 -->
<g id="edge24" class="edge">
<title>b15&#45;&gt;b16</title>
<path fill="none" stroke="black" d="M2503.27,-536.04C2567.3,-513.29 2660.21,-480.28 2726.98,-456.56"/>
<polygon fill="black" stroke="black" points="2728.38,-459.78 2736.63,-453.13 2726.04,-453.18 2728.38,-459.78"/>
</g>
<!-- b15&#45;&gt;b29 -->
<g id="edge25" class="edge">
<title>b15&#45;&gt;b29</title>
<path fill="none" stroke="black" d="M2437.08,-588.17C2459.63,-667.15 2536.42,-907.18 2674,-1055.07 2692.45,-1074.9 2716.93,-1091.34 2740.04,-1104.06"/>
<polygon fill="black" stroke="black" points="2738.68,-1107.3 2749.15,-1108.93 2741.98,-1101.13 2738.68,-1107.3"/>
</g>
<!-- b17 -->
<g id="node18" class="node">
<title>b17</title>
<polygon fill="lightblue" stroke="black" points="3330,-324.07 3056,-324.07 3056,-272.07 3330,-272.07 3330,-324.07"/>
<text text-anchor="middle" x="3193" y="-312.07" font-family="Helvetica" font-size="10.00">B17</text>
<text text-anchor="middle" x="3193" y="-301.07" font-family="Helvetica" font-size="10.00">Loop: L0</text>
<text text-anchor="middle" x="3193" y="-290.07" font-family="Helvetica" font-size="10.00">&#45;&#45;&#45;</text>
<text text-anchor="middle" x="3193" y="-279.07" font-family="Helvetica" font-size="10.00">HotSpotMethod&lt;LoopBenchmarks.parseJsonLoop(char[])&gt;</text>
</g>
<!-- b16&#45;&gt;b17 -->
<g id="edge26" class="edge">
<title>b16&#45;&gt;b17</title>
<path fill="none" stroke="black" d="M2888.9,-400.96C2951.61,-379.67 3040.16,-349.61 3105.37,-327.48"/>
<polygon fill="black" stroke="black" points="3106.87,-330.66 3115.22,-324.13 3104.62,-324.03 3106.87,-330.66"/>
</g>
<!-- b18 -->
<g id="node19" class="node">
<title>b18</title>
<polygon fill="lightblue" stroke="black" points="3330,-453.07 3056,-453.07 3056,-401.07 3330,-401.07 3330,-453.07"/>
<text text-anchor="middle" x="3193" y="-441.07" font-family="Helvetica" font-size="10.00">B18</text>
<text text-anchor="middle" x="3193" y="-430.07" font-family="Helvetica" font-size="10.00">Loop: L0</text>
<text text-anchor="middle" x="3193" y="-419.07" font-family="Helvetica" font-size="10.00">&#45;&#45;&#45;</text>
<text text-anchor="middle" x="3193" y="-408.07" font-family="Helvetica" font-size="10.00">HotSpotMethod&lt;LoopBenchmarks.parseJsonLoop(char[])&gt;</text>
</g>
<!-- b16&#45;&gt;b18 -->
<g id="edge27" class="edge">
<title>b16&#45;&gt;b18</title>
<path fill="none" stroke="black" d="M2948.12,-427.07C2979.73,-427.07 3013.51,-427.07 3045.54,-427.07"/>
<polygon fill="black" stroke="black" points="3045.88,-430.57 3055.88,-427.07 3045.88,-423.57 3045.88,-430.57"/>
</g>
<!-- b17&#45;&gt;b15 -->
<g id="edge28" class="edge">
<title>b17&#45;&gt;b15</title>
<path fill="none" stroke="black" d="M3055.81,-295.7C2948.14,-298.46 2796.15,-312.85 2674,-365.07 2585.27,-402.99 2502.44,-482.84 2459.87,-528.37"/>
<polygon fill="black" stroke="black" points="2457.12,-526.2 2452.9,-535.92 2462.26,-530.95 2457.12,-526.2"/>
</g>
<!-- b19 -->
<g id="node20" class="node">
<title>b19</title>
<polygon fill="white" stroke="black" points="3712,-453.07 3438,-453.07 3438,-401.07 3712,-401.07 3712,-453.07"/>
<text text-anchor="middle" x="3575" y="-441.07" font-family="Helvetica" font-size="10.00">B19</text>
<text text-anchor="middle" x="3575" y="-430.07" font-family="Helvetica" font-size="10.00">Loop: &lt;none&gt;</text>
<text text-anchor="middle" x="3575" y="-419.07" font-family="Helvetica" font-size="10.00">&#45;&#45;&#45;</text>
<text text-anchor="middle" x="3575" y="-408.07" font-family="Helvetica" font-size="10.00">HotSpotMethod&lt;LoopBenchmarks.parseJsonLoop(char[])&gt;</text>
</g>
<!-- b18&#45;&gt;b19 -->
<g id="edge29" class="edge">
<title>b18&#45;&gt;b19</title>
<path fill="none" stroke="black" d="M3330.12,-427.07C3361.73,-427.07 3395.51,-427.07 3427.54,-427.07"/>
<polygon fill="black" stroke="black" points="3427.88,-430.57 3437.88,-427.07 3427.88,-423.57 3427.88,-430.57"/>
</g>
<!-- b20 -->
<g id="node21" class="node">
<title>b20</title>
<polygon fill="lightblue" stroke="black" points="3712,-329.07 3438,-329.07 3438,-277.07 3712,-277.07 3712,-329.07"/>
<text text-anchor="middle" x="3575" y="-317.07" font-family="Helvetica" font-size="10.00">B20</text>
<text text-anchor="middle" x="3575" y="-306.07" font-family="Helvetica" font-size="10.00">Loop: L0</text>
<text text-anchor="middle" x="3575" y="-295.07" font-family="Helvetica" font-size="10.00">&#45;&#45;&#45;</text>
<text text-anchor="middle" x="3575" y="-284.07" font-family="Helvetica" font-size="10.00">HotSpotMethod&lt;LoopBenchmarks.parseJsonLoop(char[])&gt;</text>
</g>
<!-- b18&#45;&gt;b20 -->
<g id="edge30" class="edge">
<title>b18&#45;&gt;b20</title>
<path fill="none" stroke="black" d="M3274.12,-400.92C3335.74,-380.81 3420.85,-353.04 3484.66,-332.22"/>
<polygon fill="black" stroke="black" points="3485.89,-335.5 3494.31,-329.07 3483.72,-328.84 3485.89,-335.5"/>
</g>
<!-- b21 -->
<g id="node22" class="node">
<title>b21</title>
<polygon fill="lightblue" stroke="black" points="4094,-379.07 3820,-379.07 3820,-327.07 4094,-327.07 4094,-379.07"/>
<text text-anchor="middle" x="3957" y="-367.07" font-family="Helvetica" font-size="10.00">B21</text>
<text text-anchor="middle" x="3957" y="-356.07" font-family="Helvetica" font-size="10.00">Loop: L0</text>
<text text-anchor="middle" x="3957" y="-345.07" font-family="Helvetica" font-size="10.00">&#45;&#45;&#45;</text>
<text text-anchor="middle" x="3957" y="-334.07" font-family="Helvetica" font-size="10.00">HotSpotMethod&lt;LoopBenchmarks.parseJsonLoop(char[])&gt;</text>
</g>
<!-- b20&#45;&gt;b21 -->
<g id="edge31" class="edge">
<title>b20&#45;&gt;b21</title>
<path fill="none" stroke="black" d="M3712.12,-320.98C3743.86,-325.15 3777.8,-329.62 3809.96,-333.85"/>
<polygon fill="black" stroke="black" points="3809.51,-337.32 3819.88,-335.15 3810.42,-330.38 3809.51,-337.32"/>
</g>
<!-- b27 -->
<g id="node28" class="node">
<title>b27</title>
<polygon fill="lightblue" stroke="black" points="4094,-546.07 3820,-546.07 3820,-494.07 4094,-494.07 4094,-546.07"/>
<text text-anchor="middle" x="3957" y="-534.07" font-family="Helvetica" font-size="10.00">B27</text>
<text text-anchor="middle" x="3957" y="-523.07" font-family="Helvetica" font-size="10.00">Loop: L0</text>
<text text-anchor="middle" x="3957" y="-512.07" font-family="Helvetica" font-size="10.00">&#45;&#45;&#45;</text>
<text text-anchor="middle" x="3957" y="-501.07" font-family="Helvetica" font-size="10.00">HotSpotMethod&lt;LoopBenchmarks.parseJsonLoop(char[])&gt;</text>
</g>
<!-- b20&#45;&gt;b27 -->
<g id="edge32" class="edge">
<title>b20&#45;&gt;b27</title>
<path fill="none" stroke="black" d="M3637.81,-329.08C3661.38,-339.56 3688.28,-352.2 3712,-365.07 3783.38,-403.77 3861.99,-455.46 3910.18,-488.26"/>
<polygon fill="black" stroke="black" points="3908.3,-491.21 3918.53,-493.96 3912.24,-485.43 3908.3,-491.21"/>
</g>
<!-- b22 -->
<g id="node23" class="node">
<title>b22</title>
<polygon fill="lightblue" stroke="black" points="4476,-310.07 4202,-310.07 4202,-258.07 4476,-258.07 4476,-310.07"/>
<text text-anchor="middle" x="4339" y="-298.07" font-family="Helvetica" font-size="10.00">B22</text>
<text text-anchor="middle" x="4339" y="-287.07" font-family="Helvetica" font-size="10.00">Loop: L0</text>
<text text-anchor="middle" x="4339" y="-276.07" font-family="Helvetica" font-size="10.00">&#45;&#45;&#45;</text>
<text text-anchor="middle" x="4339" y="-265.07" font-family="Helvetica" font-size="10.00">HotSpotMethod&lt;LoopBenchmarks.parseJsonLoop(char[])&gt;</text>
</g>
<!-- b21&#45;&gt;b22 -->
<g id="edge33" class="edge">
<title>b21&#45;&gt;b22</title>
<path fill="none" stroke="black" d="M4094.12,-328.35C4125.86,-322.58 4159.8,-316.42 4191.96,-310.58"/>
<polygon fill="black" stroke="black" points="4192.66,-314.01 4201.88,-308.78 4191.41,-307.13 4192.66,-314.01"/>
</g>
<!-- b23 -->
<g id="node24" class="node">
<title>b23</title>
<polygon fill="lightblue" stroke="black" points="4476,-159.07 4202,-159.07 4202,-107.07 4476,-107.07 4476,-159.07"/>
<text text-anchor="middle" x="4339" y="-147.07" font-family="Helvetica" font-size="10.00">B23</text>
<text text-anchor="middle" x="4339" y="-136.07" font-family="Helvetica" font-size="10.00">Loop: L0</text>
<text text-anchor="middle" x="4339" y="-125.07" font-family="Helvetica" font-size="10.00">&#45;&#45;&#45;</text>
<text text-anchor="middle" x="4339" y="-114.07" font-family="Helvetica" font-size="10.00">HotSpotMethod&lt;LoopBenchmarks.parseJsonLoop(char[])&gt;</text>
</g>
<!-- b21&#45;&gt;b23 -->
<g id="edge34" class="edge">
<title>b21&#45;&gt;b23</title>
<path fill="none" stroke="black" d="M4003.08,-326.96C4073.36,-286.28 4208.76,-207.89 4284.09,-164.27"/>
<polygon fill="black" stroke="black" points="4286.07,-167.17 4292.98,-159.13 4282.57,-161.11 4286.07,-167.17"/>
</g>
<!-- b24 -->
<g id="node25" class="node">
<title>b24</title>
<polygon fill="lightblue" stroke="black" points="4476,-975.07 4202,-975.07 4202,-923.07 4476,-923.07 4476,-975.07"/>
<text text-anchor="middle" x="4339" y="-963.07" font-family="Helvetica" font-size="10.00">B24</text>
<text text-anchor="middle" x="4339" y="-952.07" font-family="Helvetica" font-size="10.00">Loop: L0</text>
<text text-anchor="middle" x="4339" y="-941.07" font-family="Helvetica" font-size="10.00">&#45;&#45;&#45;</text>
<text text-anchor="middle" x="4339" y="-930.07" font-family="Helvetica" font-size="10.00">HotSpotMethod&lt;LoopBenchmarks.parseJsonLoop(char[])&gt;</text>
</g>
<!-- b21&#45;&gt;b24 -->
<g id="edge35" class="edge">
<title>b21&#45;&gt;b24</title>
<path fill="none" stroke="black" d="M4004.85,-379.22C4034.21,-397.78 4070.76,-425.18 4094,-458.07 4182.83,-583.74 4127.17,-652.58 4202,-787.07 4229.32,-836.17 4272.58,-884.46 4302.95,-915.36"/>
<polygon fill="black" stroke="black" points="4300.85,-918.2 4310.38,-922.83 4305.81,-913.27 4300.85,-918.2"/>
</g>
<!-- b25 -->
<g id="node26" class="node">
<title>b25</title>
<polygon fill="lightblue" stroke="black" points="4476,-751.07 4202,-751.07 4202,-699.07 4476,-699.07 4476,-751.07"/>
<text text-anchor="middle" x="4339" y="-739.07" font-family="Helvetica" font-size="10.00">B25</text>
<text text-anchor="middle" x="4339" y="-728.07" font-family="Helvetica" font-size="10.00">Loop: L0</text>
<text text-anchor="middle" x="4339" y="-717.07" font-family="Helvetica" font-size="10.00">&#45;&#45;&#45;</text>
<text text-anchor="middle" x="4339" y="-706.07" font-family="Helvetica" font-size="10.00">HotSpotMethod&lt;LoopBenchmarks.parseJsonLoop(char[])&gt;</text>
</g>
<!-- b21&#45;&gt;b25 -->
<g id="edge36" class="edge">
<title>b21&#45;&gt;b25</title>
<path fill="none" stroke="black" d="M3995.17,-379.07C4023.31,-399.39 4062.39,-428.98 4094,-458.07 4178.43,-535.77 4266.64,-638.57 4310.22,-691.06"/>
<polygon fill="black" stroke="black" points="4307.76,-693.57 4316.83,-699.04 4313.15,-689.11 4307.76,-693.57"/>
</g>
<!-- b26 -->
<g id="node27" class="node">
<title>b26</title>
<polygon fill="lightblue" stroke="black" points="4476,-448.07 4202,-448.07 4202,-396.07 4476,-396.07 4476,-448.07"/>
<text text-anchor="middle" x="4339" y="-436.07" font-family="Helvetica" font-size="10.00">B26</text>
<text text-anchor="middle" x="4339" y="-425.07" font-family="Helvetica" font-size="10.00">Loop: L0</text>
<text text-anchor="middle" x="4339" y="-414.07" font-family="Helvetica" font-size="10.00">&#45;&#45;&#45;</text>
<text text-anchor="middle" x="4339" y="-403.07" font-family="Helvetica" font-size="10.00">HotSpotMethod&lt;LoopBenchmarks.parseJsonLoop(char[])&gt;</text>
</g>
<!-- b21&#45;&gt;b26 -->
<g id="edge37" class="edge">
<title>b21&#45;&gt;b26</title>
<path fill="none" stroke="black" d="M4094.12,-377.78C4125.86,-383.55 4159.8,-389.71 4191.96,-395.55"/>
<polygon fill="black" stroke="black" points="4191.41,-399.01 4201.88,-397.35 4192.66,-392.12 4191.41,-399.01"/>
</g>
<!-- b22&#45;&gt;b15 -->
<g id="edge38" class="edge">
<title>b22&#45;&gt;b15</title>
<path fill="none" stroke="black" d="M4251.78,-258.03C4111.52,-218.04 3824.55,-146.07 3576,-146.07 3192,-146.07 3192,-146.07 3192,-146.07 2953.52,-146.07 2876.63,-160.32 2674,-286.07 2571.91,-349.42 2488.26,-468.41 2450.96,-527.27"/>
<polygon fill="black" stroke="black" points="2447.93,-525.52 2445.59,-535.85 2453.86,-529.23 2447.93,-525.52"/>
</g>
<!-- b23&#45;&gt;b15 -->
<g id="edge39" class="edge">
<title>b23&#45;&gt;b15</title>
<path fill="none" stroke="black" d="M4248.27,-107.03C4106.7,-68.31 3822.26,-0.07 3576,-0.07 3192,-0.07 3192,-0.07 3192,-0.07 2952.93,-0.07 2863.28,0.98 2674,-145.07 2540.9,-247.76 2466.65,-445.26 2440.69,-526.16"/>
<polygon fill="black" stroke="black" points="2437.29,-525.3 2437.62,-535.89 2443.96,-527.4 2437.29,-525.3"/>
</g>
<!-- b24&#45;&gt;b15 -->
<g id="edge40" class="edge">
<title>b24&#45;&gt;b15</title>
<path fill="none" stroke="black" d="M4201.91,-963.68C4049.62,-978.75 3795.43,-1000.07 3576,-1000.07 3192,-1000.07 3192,-1000.07 3192,-1000.07 2949.14,-1000.07 2877.89,-958.02 2674,-826.07 2576.77,-763.14 2492.29,-652.72 2453.16,-596.73"/>
<polygon fill="black" stroke="black" points="2455.85,-594.45 2447.28,-588.22 2450.09,-598.44 2455.85,-594.45"/>
</g>
<!-- b25&#45;&gt;b15 -->
<g id="edge41" class="edge">
<title>b25&#45;&gt;b15</title>
<path fill="none" stroke="black" d="M4245.3,-751.09C4102.7,-788.77 3820.36,-854.07 3576,-854.07 3192,-854.07 3192,-854.07 3192,-854.07 2953.75,-854.07 2892.35,-811.4 2674,-716.07 2598.43,-683.07 2519.16,-628.83 2472.19,-594.31"/>
<polygon fill="black" stroke="black" points="2474.21,-591.45 2464.09,-588.32 2470.04,-597.08 2474.21,-591.45"/>
</g>
<!-- b26&#45;&gt;b15 -->
<g id="edge42" class="edge">
<title>b26&#45;&gt;b15</title>
<path fill="none" stroke="black" d="M4306.13,-448.17C4261.41,-483.55 4176.25,-546.37 4094,-582.07 3876.65,-676.4 3812.94,-708.07 3576,-708.07 3192,-708.07 3192,-708.07 3192,-708.07 2945.85,-708.07 2662.84,-633.67 2521.02,-591.09"/>
<polygon fill="black" stroke="black" points="2521.64,-587.62 2511.06,-588.08 2519.62,-594.32 2521.64,-587.62"/>
</g>
<!-- b27&#45;&gt;b15 -->
<g id="edge43" class="edge">
<title>b27&#45;&gt;b15</title>
<path fill="none" stroke="black" d="M3819.94,-523.81C3533.72,-531.69 2871.49,-549.91 2576.43,-558.03"/>
<polygon fill="black" stroke="black" points="2575.99,-554.55 2566.09,-558.32 2576.19,-561.54 2575.99,-554.55"/>
</g>
<!-- b28 -->
<g id="node29" class="node">
<title>b28</title>
<polygon fill="white" stroke="black" points="2566,-1185.07 2292,-1185.07 2292,-1133.07 2566,-1133.07 2566,-1185.07"/>
<text text-anchor="middle" x="2429" y="-1173.07" font-family="Helvetica" font-size="10.00">B28</text>
<text text-anchor="middle" x="2429" y="-1162.07" font-family="Helvetica" font-size="10.00">Loop: &lt;none&gt;</text>
<text text-anchor="middle" x="2429" y="-1151.07" font-family="Helvetica" font-size="10.00">&#45;&#45;&#45;</text>
<text text-anchor="middle" x="2429" y="-1140.07" font-family="Helvetica" font-size="10.00">HotSpotMethod&lt;LoopBenchmarks.parseJsonLoop(char[])&gt;</text>
</g>
<!-- b28&#45;&gt;b29 -->
<g id="edge44" class="edge">
<title>b28&#45;&gt;b29</title>
<path fill="none" stroke="black" d="M2566.12,-1150.47C2597.73,-1148.47 2631.51,-1146.34 2663.54,-1144.32"/>
<polygon fill="black" stroke="black" points="2664.12,-1147.79 2673.88,-1143.66 2663.68,-1140.8 2664.12,-1147.79"/>
</g>
</g>
</svg>
