<?xml version="1.0" encoding="UTF-8" standalone="no"?>
<!DOCTYPE svg PUBLIC "-//W3C//DTD SVG 1.1//EN"
 "http://www.w3.org/Graphics/SVG/1.1/DTD/svg11.dtd">
<!-- Generated by graphviz version 2.44.0 (0)
 -->
<!-- Title: CFG_95 Pages: 1 -->
<svg width="9818pt" height="2607pt"
 viewBox="0.00 0.00 9818.00 2606.54" xmlns="http://www.w3.org/2000/svg" xmlns:xlink="http://www.w3.org/1999/xlink">
<g id="graph0" class="graph" transform="scale(1 1) rotate(0) translate(4 2602.54)">
<title>CFG_95</title>
<polygon fill="white" stroke="transparent" points="-4,4 -4,-2602.54 9814,-2602.54 9814,4 -4,4"/>
<text text-anchor="middle" x="399" y="-2578.54" font-family="Times-Roman" font-size="20.00">153&#45;LoopBenchmarks.matrixMultiplyLoop(double[][], double[][], double[][], int)</text>
<!-- b0 -->
<g id="node1" class="node">
<title>b0</title>
<polygon fill="white" stroke="black" points="414,-575 0,-575 0,-523 414,-523 414,-575"/>
<text text-anchor="middle" x="207" y="-563" font-family="Helvetica" font-size="10.00">B0</text>
<text text-anchor="middle" x="207" y="-552" font-family="Helvetica" font-size="10.00">Loop: &lt;none&gt;</text>
<text text-anchor="middle" x="207" y="-541" font-family="Helvetica" font-size="10.00">&#45;&#45;&#45;</text>
<text text-anchor="middle" x="207" y="-530" font-family="Helvetica" font-size="10.00">HotSpotMethod&lt;LoopBenchmarks.matrixMultiplyLoop(double[][], double[][], double[][], int)&gt;</text>
</g>
<!-- b2 -->
<g id="node3" class="node">
<title>b2</title>
<polygon fill="white" stroke="black" points="936,-446 522,-446 522,-394 936,-394 936,-446"/>
<text text-anchor="middle" x="729" y="-434" font-family="Helvetica" font-size="10.00">B2</text>
<text text-anchor="middle" x="729" y="-423" font-family="Helvetica" font-size="10.00">Loop: &lt;none&gt;</text>
<text text-anchor="middle" x="729" y="-412" font-family="Helvetica" font-size="10.00">&#45;&#45;&#45;</text>
<text text-anchor="middle" x="729" y="-401" font-family="Helvetica" font-size="10.00">HotSpotMethod&lt;LoopBenchmarks.matrixMultiplyLoop(double[][], double[][], double[][], int)&gt;</text>
</g>
<!-- b0&#45;&gt;b2 -->
<g id="edge2" class="edge">
<title>b0&#45;&gt;b2</title>
<path fill="none" stroke="black" d="M312.92,-522.97C399.85,-501.41 523.23,-470.8 612.86,-448.56"/>
<polygon fill="black" stroke="black" points="613.94,-451.9 622.8,-446.1 612.25,-445.11 613.94,-451.9"/>
</g>
<!-- b6 -->
<g id="node7" class="node">
<title>b6</title>
<polygon fill="white" stroke="black" points="1980,-637 1566,-637 1566,-585 1980,-585 1980,-637"/>
<text text-anchor="middle" x="1773" y="-625" font-family="Helvetica" font-size="10.00">B6</text>
<text text-anchor="middle" x="1773" y="-614" font-family="Helvetica" font-size="10.00">Loop: &lt;none&gt;</text>
<text text-anchor="middle" x="1773" y="-603" font-family="Helvetica" font-size="10.00">&#45;&#45;&#45;</text>
<text text-anchor="middle" x="1773" y="-592" font-family="Helvetica" font-size="10.00">HotSpotMethod&lt;LoopBenchmarks.matrixMultiplyLoop(double[][], double[][], double[][], int)&gt;</text>
</g>
<!-- b0&#45;&gt;b6 -->
<g id="edge1" class="edge">
<title>b0&#45;&gt;b6</title>
<path fill="none" stroke="black" d="M414.38,-566.6C583.46,-580.17 829.03,-597.94 1044,-606 1215.91,-612.44 1410.81,-613.45 1555.66,-612.98"/>
<polygon fill="black" stroke="black" points="1556.01,-616.48 1566,-612.94 1555.98,-609.48 1556.01,-616.48"/>
</g>
<!-- b1 -->
<g id="node2" class="node">
<title>b1</title>
<polygon fill="white" stroke="black" points="1458,-570 1044,-570 1044,-518 1458,-518 1458,-570"/>
<text text-anchor="middle" x="1251" y="-558" font-family="Helvetica" font-size="10.00">B1</text>
<text text-anchor="middle" x="1251" y="-547" font-family="Helvetica" font-size="10.00">Loop: &lt;none&gt;</text>
<text text-anchor="middle" x="1251" y="-536" font-family="Helvetica" font-size="10.00">&#45;&#45;&#45;</text>
<text text-anchor="middle" x="1251" y="-525" font-family="Helvetica" font-size="10.00">HotSpotMethod&lt;LoopBenchmarks.matrixMultiplyLoop(double[][], double[][], double[][], int)&gt;</text>
</g>
<!-- b1&#45;&gt;b6 -->
<g id="edge3" class="edge">
<title>b1&#45;&gt;b6</title>
<path fill="none" stroke="black" d="M1454.16,-570.05C1488.83,-574.51 1524.95,-579.17 1559.87,-583.67"/>
<polygon fill="black" stroke="black" points="1559.81,-587.19 1570.17,-585 1560.7,-580.25 1559.81,-587.19"/>
</g>
<!-- b3 -->
<g id="node4" class="node">
<title>b3</title>
<polygon fill="white" stroke="black" points="1458,-446 1044,-446 1044,-394 1458,-394 1458,-446"/>
<text text-anchor="middle" x="1251" y="-434" font-family="Helvetica" font-size="10.00">B3</text>
<text text-anchor="middle" x="1251" y="-423" font-family="Helvetica" font-size="10.00">Loop: &lt;none&gt;</text>
<text text-anchor="middle" x="1251" y="-412" font-family="Helvetica" font-size="10.00">&#45;&#45;&#45;</text>
<text text-anchor="middle" x="1251" y="-401" font-family="Helvetica" font-size="10.00">HotSpotMethod&lt;LoopBenchmarks.matrixMultiplyLoop(double[][], double[][], double[][], int)&gt;</text>
</g>
<!-- b2&#45;&gt;b3 -->
<g id="edge4" class="edge">
<title>b2&#45;&gt;b3</title>
<path fill="none" stroke="black" d="M936.26,-420C968.39,-420 1001.65,-420 1033.98,-420"/>
<polygon fill="black" stroke="black" points="1033.98,-423.5 1043.98,-420 1033.98,-416.5 1033.98,-423.5"/>
</g>
<!-- b38 -->
<g id="node39" class="node">
<title>b38</title>
<polygon fill="white" stroke="black" points="1980,-255 1566,-255 1566,-203 1980,-203 1980,-255"/>
<text text-anchor="middle" x="1773" y="-243" font-family="Helvetica" font-size="10.00">B38</text>
<text text-anchor="middle" x="1773" y="-232" font-family="Helvetica" font-size="10.00">Loop: &lt;none&gt;</text>
<text text-anchor="middle" x="1773" y="-221" font-family="Helvetica" font-size="10.00">&#45;&#45;&#45;</text>
<text text-anchor="middle" x="1773" y="-210" font-family="Helvetica" font-size="10.00">HotSpotMethod&lt;LoopBenchmarks.matrixMultiplyLoop(double[][], double[][], double[][], int)&gt;</text>
</g>
<!-- b2&#45;&gt;b38 -->
<g id="edge5" class="edge">
<title>b2&#45;&gt;b38</title>
<path fill="none" stroke="black" d="M761.26,-393.66C814.91,-350.33 929.84,-265.7 1044,-234 1214.98,-186.53 1417.39,-189.62 1565.32,-202.1"/>
<polygon fill="black" stroke="black" points="1565.17,-205.6 1575.43,-202.97 1565.77,-198.62 1565.17,-205.6"/>
</g>
<!-- b3&#45;&gt;b6 -->
<g id="edge7" class="edge">
<title>b3&#45;&gt;b6</title>
<path fill="none" stroke="black" d="M1345.43,-446.03C1380.93,-456.46 1421.57,-469.07 1458,-482 1543.98,-512.52 1640.79,-553.3 1703.9,-580.77"/>
<polygon fill="black" stroke="black" points="1702.78,-584.1 1713.34,-584.89 1705.58,-577.68 1702.78,-584.1"/>
</g>
<!-- b3&#45;&gt;b38 -->
<g id="edge6" class="edge">
<title>b3&#45;&gt;b38</title>
<path fill="none" stroke="black" d="M1345.43,-393.97C1380.93,-383.54 1421.57,-370.93 1458,-358 1543.98,-327.48 1640.79,-286.7 1703.9,-259.23"/>
<polygon fill="black" stroke="black" points="1705.58,-262.32 1713.34,-255.11 1702.78,-255.9 1705.58,-262.32"/>
</g>
<!-- b4 -->
<g id="node5" class="node">
<title>b4</title>
<polygon fill="white" stroke="black" points="1458,-52 1044,-52 1044,0 1458,0 1458,-52"/>
<text text-anchor="middle" x="1251" y="-40" font-family="Helvetica" font-size="10.00">B4</text>
<text text-anchor="middle" x="1251" y="-29" font-family="Helvetica" font-size="10.00">Loop: &lt;none&gt;</text>
<text text-anchor="middle" x="1251" y="-18" font-family="Helvetica" font-size="10.00">&#45;&#45;&#45;</text>
<text text-anchor="middle" x="1251" y="-7" font-family="Helvetica" font-size="10.00">HotSpotMethod&lt;LoopBenchmarks.matrixMultiplyLoop(double[][], double[][], double[][], int)&gt;</text>
</g>
<!-- b4&#45;&gt;b38 -->
<g id="edge8" class="edge">
<title>b4&#45;&gt;b38</title>
<path fill="none" stroke="black" d="M1319.28,-52.07C1359.54,-67.69 1411.71,-87.95 1458,-106 1539.32,-137.72 1632.43,-174.21 1696.01,-199.16"/>
<polygon fill="black" stroke="black" points="1694.97,-202.51 1705.56,-202.91 1697.53,-196 1694.97,-202.51"/>
</g>
<!-- b5 -->
<g id="node6" class="node">
<title>b5</title>
<polygon fill="white" stroke="black" points="1458,-840 1044,-840 1044,-788 1458,-788 1458,-840"/>
<text text-anchor="middle" x="1251" y="-828" font-family="Helvetica" font-size="10.00">B5</text>
<text text-anchor="middle" x="1251" y="-817" font-family="Helvetica" font-size="10.00">Loop: &lt;none&gt;</text>
<text text-anchor="middle" x="1251" y="-806" font-family="Helvetica" font-size="10.00">&#45;&#45;&#45;</text>
<text text-anchor="middle" x="1251" y="-795" font-family="Helvetica" font-size="10.00">HotSpotMethod&lt;LoopBenchmarks.matrixMultiplyLoop(double[][], double[][], double[][], int)&gt;</text>
</g>
<!-- b5&#45;&gt;b6 -->
<g id="edge9" class="edge">
<title>b5&#45;&gt;b6</title>
<path fill="none" stroke="black" d="M1319.28,-787.93C1359.54,-772.31 1411.71,-752.05 1458,-734 1539.32,-702.28 1632.43,-665.79 1696.01,-640.84"/>
<polygon fill="black" stroke="black" points="1697.53,-644 1705.56,-637.09 1694.97,-637.49 1697.53,-644"/>
</g>
<!-- b7 -->
<g id="node8" class="node">
<title>b7</title>
<polygon fill="lightblue" stroke="black" points="2502,-637 2088,-637 2088,-585 2502,-585 2502,-637"/>
<text text-anchor="middle" x="2295" y="-625" font-family="Helvetica" font-size="10.00">B7</text>
<text text-anchor="middle" x="2295" y="-614" font-family="Helvetica" font-size="10.00">Loop: L0</text>
<text text-anchor="middle" x="2295" y="-603" font-family="Helvetica" font-size="10.00">&#45;&#45;&#45;</text>
<text text-anchor="middle" x="2295" y="-592" font-family="Helvetica" font-size="10.00">HotSpotMethod&lt;LoopBenchmarks.matrixMultiplyLoop(double[][], double[][], double[][], int)&gt;</text>
</g>
<!-- b6&#45;&gt;b7 -->
<g id="edge10" class="edge">
<title>b6&#45;&gt;b7</title>
<path fill="none" stroke="black" d="M1980.26,-611C2012.39,-611 2045.65,-611 2077.98,-611"/>
<polygon fill="black" stroke="black" points="2077.98,-614.5 2087.98,-611 2077.98,-607.5 2077.98,-614.5"/>
</g>
<!-- b8 -->
<g id="node9" class="node">
<title>b8</title>
<polygon fill="lightblue" stroke="black" points="3024,-783 2610,-783 2610,-731 3024,-731 3024,-783"/>
<text text-anchor="middle" x="2817" y="-771" font-family="Helvetica" font-size="10.00">B8</text>
<text text-anchor="middle" x="2817" y="-760" font-family="Helvetica" font-size="10.00">Loop: L0</text>
<text text-anchor="middle" x="2817" y="-749" font-family="Helvetica" font-size="10.00">&#45;&#45;&#45;</text>
<text text-anchor="middle" x="2817" y="-738" font-family="Helvetica" font-size="10.00">HotSpotMethod&lt;LoopBenchmarks.matrixMultiplyLoop(double[][], double[][], double[][], int)&gt;</text>
</g>
<!-- b7&#45;&gt;b8 -->
<g id="edge11" class="edge">
<title>b7&#45;&gt;b8</title>
<path fill="none" stroke="black" d="M2388.67,-637.02C2479.9,-662.63 2618.92,-701.67 2713.43,-728.2"/>
<polygon fill="black" stroke="black" points="2712.72,-731.64 2723.29,-730.97 2714.61,-724.9 2712.72,-731.64"/>
</g>
<!-- b30 -->
<g id="node31" class="node">
<title>b30</title>
<polygon fill="white" stroke="black" points="3024,-502 2610,-502 2610,-450 3024,-450 3024,-502"/>
<text text-anchor="middle" x="2817" y="-490" font-family="Helvetica" font-size="10.00">B30</text>
<text text-anchor="middle" x="2817" y="-479" font-family="Helvetica" font-size="10.00">Loop: &lt;none&gt;</text>
<text text-anchor="middle" x="2817" y="-468" font-family="Helvetica" font-size="10.00">&#45;&#45;&#45;</text>
<text text-anchor="middle" x="2817" y="-457" font-family="Helvetica" font-size="10.00">HotSpotMethod&lt;LoopBenchmarks.matrixMultiplyLoop(double[][], double[][], double[][], int)&gt;</text>
</g>
<!-- b7&#45;&gt;b30 -->
<g id="edge12" class="edge">
<title>b7&#45;&gt;b30</title>
<path fill="none" stroke="black" d="M2396.26,-584.97C2484.96,-561.94 2614.16,-528.4 2705.75,-504.62"/>
<polygon fill="black" stroke="black" points="2706.8,-507.96 2715.6,-502.06 2705.05,-501.19 2706.8,-507.96"/>
</g>
<!-- b9 -->
<g id="node10" class="node">
<title>b9</title>
<polygon fill="lightblue" stroke="black" points="3546,-1188 3132,-1188 3132,-1136 3546,-1136 3546,-1188"/>
<text text-anchor="middle" x="3339" y="-1176" font-family="Helvetica" font-size="10.00">B9</text>
<text text-anchor="middle" x="3339" y="-1165" font-family="Helvetica" font-size="10.00">Loop: L0</text>
<text text-anchor="middle" x="3339" y="-1154" font-family="Helvetica" font-size="10.00">&#45;&#45;&#45;</text>
<text text-anchor="middle" x="3339" y="-1143" font-family="Helvetica" font-size="10.00">HotSpotMethod&lt;LoopBenchmarks.matrixMultiplyLoop(double[][], double[][], double[][], int)&gt;</text>
</g>
<!-- b8&#45;&gt;b9 -->
<g id="edge13" class="edge">
<title>b8&#45;&gt;b9</title>
<path fill="none" stroke="black" d="M2851.72,-783.26C2943.22,-854.53 3196.04,-1051.43 3296.27,-1129.5"/>
<polygon fill="black" stroke="black" points="3294.32,-1132.42 3304.36,-1135.8 3298.62,-1126.89 3294.32,-1132.42"/>
</g>
<!-- b36 -->
<g id="node37" class="node">
<title>b36</title>
<polygon fill="white" stroke="black" points="7200,-1526 6786,-1526 6786,-1474 7200,-1474 7200,-1526"/>
<text text-anchor="middle" x="6993" y="-1514" font-family="Helvetica" font-size="10.00">B36</text>
<text text-anchor="middle" x="6993" y="-1503" font-family="Helvetica" font-size="10.00">Loop: &lt;none&gt;</text>
<text text-anchor="middle" x="6993" y="-1492" font-family="Helvetica" font-size="10.00">&#45;&#45;&#45;</text>
<text text-anchor="middle" x="6993" y="-1481" font-family="Helvetica" font-size="10.00">HotSpotMethod&lt;LoopBenchmarks.matrixMultiplyLoop(double[][], double[][], double[][], int)&gt;</text>
</g>
<!-- b8&#45;&gt;b36 -->
<g id="edge14" class="edge">
<title>b8&#45;&gt;b36</title>
<path fill="none" stroke="black" d="M3024.11,-757C3234.32,-757 3569.88,-757 3860,-757 3860,-757 3860,-757 5950,-757 6275.18,-757 6412.64,-642.06 6678,-830 6901.65,-988.4 6970.61,-1348.1 6987.38,-1463.58"/>
<polygon fill="black" stroke="black" points="6983.94,-1464.25 6988.8,-1473.67 6990.87,-1463.28 6983.94,-1464.25"/>
</g>
<!-- b11 -->
<g id="node12" class="node">
<title>b11</title>
<polygon fill="lightblue" stroke="black" points="4068,-1188 3654,-1188 3654,-1136 4068,-1136 4068,-1188"/>
<text text-anchor="middle" x="3861" y="-1176" font-family="Helvetica" font-size="10.00">B11</text>
<text text-anchor="middle" x="3861" y="-1165" font-family="Helvetica" font-size="10.00">Loop: L0</text>
<text text-anchor="middle" x="3861" y="-1154" font-family="Helvetica" font-size="10.00">&#45;&#45;&#45;</text>
<text text-anchor="middle" x="3861" y="-1143" font-family="Helvetica" font-size="10.00">HotSpotMethod&lt;LoopBenchmarks.matrixMultiplyLoop(double[][], double[][], double[][], int)&gt;</text>
</g>
<!-- b9&#45;&gt;b11 -->
<g id="edge16" class="edge">
<title>b9&#45;&gt;b11</title>
<path fill="none" stroke="black" d="M3546.26,-1162C3578.39,-1162 3611.65,-1162 3643.98,-1162"/>
<polygon fill="black" stroke="black" points="3643.98,-1165.5 3653.98,-1162 3643.98,-1158.5 3643.98,-1165.5"/>
</g>
<!-- b15 -->
<g id="node16" class="node">
<title>b15</title>
<polygon fill="lightblue" stroke="black" points="5112,-1587 4698,-1587 4698,-1535 5112,-1535 5112,-1587"/>
<text text-anchor="middle" x="4905" y="-1575" font-family="Helvetica" font-size="10.00">B15</text>
<text text-anchor="middle" x="4905" y="-1564" font-family="Helvetica" font-size="10.00">Loop: L0</text>
<text text-anchor="middle" x="4905" y="-1553" font-family="Helvetica" font-size="10.00">&#45;&#45;&#45;</text>
<text text-anchor="middle" x="4905" y="-1542" font-family="Helvetica" font-size="10.00">HotSpotMethod&lt;LoopBenchmarks.matrixMultiplyLoop(double[][], double[][], double[][], int)&gt;</text>
</g>
<!-- b9&#45;&gt;b15 -->
<g id="edge15" class="edge">
<title>b9&#45;&gt;b15</title>
<path fill="none" stroke="black" d="M3372.82,-1188.03C3480.15,-1271.27 3833.57,-1530.68 4176,-1618 4393.89,-1673.56 4659.32,-1624.77 4801.81,-1589.55"/>
<polygon fill="black" stroke="black" points="4803.01,-1592.86 4811.86,-1587.04 4801.31,-1586.07 4803.01,-1592.86"/>
</g>
<!-- b10 -->
<g id="node11" class="node">
<title>b10</title>
<polygon fill="lightblue" stroke="black" points="4590,-1582 4176,-1582 4176,-1530 4590,-1530 4590,-1582"/>
<text text-anchor="middle" x="4383" y="-1570" font-family="Helvetica" font-size="10.00">B10</text>
<text text-anchor="middle" x="4383" y="-1559" font-family="Helvetica" font-size="10.00">Loop: L0</text>
<text text-anchor="middle" x="4383" y="-1548" font-family="Helvetica" font-size="10.00">&#45;&#45;&#45;</text>
<text text-anchor="middle" x="4383" y="-1537" font-family="Helvetica" font-size="10.00">HotSpotMethod&lt;LoopBenchmarks.matrixMultiplyLoop(double[][], double[][], double[][], int)&gt;</text>
</g>
<!-- b10&#45;&gt;b15 -->
<g id="edge17" class="edge">
<title>b10&#45;&gt;b15</title>
<path fill="none" stroke="black" d="M4590.26,-1557.98C4622.39,-1558.29 4655.65,-1558.61 4687.98,-1558.92"/>
<polygon fill="black" stroke="black" points="4687.95,-1562.42 4697.98,-1559.02 4688.02,-1555.42 4687.95,-1562.42"/>
</g>
<!-- b12 -->
<g id="node13" class="node">
<title>b12</title>
<polygon fill="lightblue" stroke="black" points="4590,-1323 4176,-1323 4176,-1271 4590,-1271 4590,-1323"/>
<text text-anchor="middle" x="4383" y="-1311" font-family="Helvetica" font-size="10.00">B12</text>
<text text-anchor="middle" x="4383" y="-1300" font-family="Helvetica" font-size="10.00">Loop: L0</text>
<text text-anchor="middle" x="4383" y="-1289" font-family="Helvetica" font-size="10.00">&#45;&#45;&#45;</text>
<text text-anchor="middle" x="4383" y="-1278" font-family="Helvetica" font-size="10.00">HotSpotMethod&lt;LoopBenchmarks.matrixMultiplyLoop(double[][], double[][], double[][], int)&gt;</text>
</g>
<!-- b11&#45;&gt;b12 -->
<g id="edge18" class="edge">
<title>b11&#45;&gt;b12</title>
<path fill="none" stroke="black" d="M3962.26,-1188.03C4050.96,-1211.06 4180.16,-1244.6 4271.75,-1268.38"/>
<polygon fill="black" stroke="black" points="4271.05,-1271.81 4281.6,-1270.94 4272.8,-1265.04 4271.05,-1271.81"/>
</g>
<!-- b11&#45;&gt;b36 -->
<g id="edge19" class="edge">
<title>b11&#45;&gt;b36</title>
<path fill="none" stroke="black" d="M3983.26,-1135.97C4176.9,-1096.74 4568.36,-1027 4904,-1027 4904,-1027 4904,-1027 5950,-1027 6275.18,-1027 6393.04,-943.36 6678,-1100 6833.57,-1185.51 6938.47,-1383.47 6976.32,-1464.47"/>
<polygon fill="black" stroke="black" points="6973.24,-1466.14 6980.61,-1473.76 6979.6,-1463.21 6973.24,-1466.14"/>
</g>
<!-- b12&#45;&gt;b15 -->
<g id="edge21" class="edge">
<title>b12&#45;&gt;b15</title>
<path fill="none" stroke="black" d="M4470.03,-1323.08C4507.59,-1335.58 4551.7,-1351.8 4590,-1370 4689.98,-1417.5 4798.64,-1488.32 4858.31,-1529.06"/>
<polygon fill="black" stroke="black" points="4856.52,-1532.07 4866.75,-1534.84 4860.48,-1526.3 4856.52,-1532.07"/>
</g>
<!-- b12&#45;&gt;b36 -->
<g id="edge20" class="edge">
<title>b12&#45;&gt;b36</title>
<path fill="none" stroke="black" d="M4590.11,-1297C4800.32,-1297 5135.88,-1297 5426,-1297 5426,-1297 5426,-1297 5950,-1297 6275.18,-1297 6362.63,-1290.74 6678,-1370 6770.39,-1393.22 6871.15,-1438.86 6932.96,-1469.41"/>
<polygon fill="black" stroke="black" points="6931.65,-1472.67 6942.17,-1473.99 6934.77,-1466.4 6931.65,-1472.67"/>
</g>
<!-- b13 -->
<g id="node14" class="node">
<title>b13</title>
<polygon fill="white" stroke="black" points="6678,-918 6264,-918 6264,-866 6678,-866 6678,-918"/>
<text text-anchor="middle" x="6471" y="-906" font-family="Helvetica" font-size="10.00">B13</text>
<text text-anchor="middle" x="6471" y="-895" font-family="Helvetica" font-size="10.00">Loop: &lt;none&gt;</text>
<text text-anchor="middle" x="6471" y="-884" font-family="Helvetica" font-size="10.00">&#45;&#45;&#45;</text>
<text text-anchor="middle" x="6471" y="-873" font-family="Helvetica" font-size="10.00">HotSpotMethod&lt;LoopBenchmarks.matrixMultiplyLoop(double[][], double[][], double[][], int)&gt;</text>
</g>
<!-- b13&#45;&gt;b36 -->
<g id="edge22" class="edge">
<title>b13&#45;&gt;b36</title>
<path fill="none" stroke="black" d="M6577.75,-918.05C6612.39,-930.29 6649.3,-947.71 6678,-972 6846.09,-1114.26 6947.3,-1370.52 6980.17,-1464.34"/>
<polygon fill="black" stroke="black" points="6976.91,-1465.63 6983.49,-1473.93 6983.52,-1463.34 6976.91,-1465.63"/>
</g>
<!-- b14 -->
<g id="node15" class="node">
<title>b14</title>
<polygon fill="lightblue" stroke="black" points="4590,-1458 4176,-1458 4176,-1406 4590,-1406 4590,-1458"/>
<text text-anchor="middle" x="4383" y="-1446" font-family="Helvetica" font-size="10.00">B14</text>
<text text-anchor="middle" x="4383" y="-1435" font-family="Helvetica" font-size="10.00">Loop: L0</text>
<text text-anchor="middle" x="4383" y="-1424" font-family="Helvetica" font-size="10.00">&#45;&#45;&#45;</text>
<text text-anchor="middle" x="4383" y="-1413" font-family="Helvetica" font-size="10.00">HotSpotMethod&lt;LoopBenchmarks.matrixMultiplyLoop(double[][], double[][], double[][], int)&gt;</text>
</g>
<!-- b14&#45;&gt;b15 -->
<g id="edge23" class="edge">
<title>b14&#45;&gt;b15</title>
<path fill="none" stroke="black" d="M4488.92,-1458.03C4575.85,-1479.59 4699.23,-1510.2 4788.86,-1532.44"/>
<polygon fill="black" stroke="black" points="4788.25,-1535.89 4798.8,-1534.9 4789.94,-1529.1 4788.25,-1535.89"/>
</g>
<!-- b16 -->
<g id="node17" class="node">
<title>b16</title>
<polygon fill="lightblue" stroke="black" points="5634,-1993 5220,-1993 5220,-1941 5634,-1941 5634,-1993"/>
<text text-anchor="middle" x="5427" y="-1981" font-family="Helvetica" font-size="10.00">B16</text>
<text text-anchor="middle" x="5427" y="-1970" font-family="Helvetica" font-size="10.00">Loop: L0</text>
<text text-anchor="middle" x="5427" y="-1959" font-family="Helvetica" font-size="10.00">&#45;&#45;&#45;</text>
<text text-anchor="middle" x="5427" y="-1948" font-family="Helvetica" font-size="10.00">HotSpotMethod&lt;LoopBenchmarks.matrixMultiplyLoop(double[][], double[][], double[][], int)&gt;</text>
</g>
<!-- b15&#45;&gt;b16 -->
<g id="edge24" class="edge">
<title>b15&#45;&gt;b16</title>
<path fill="none" stroke="black" d="M4939.32,-1587.01C5030.56,-1658.26 5284.34,-1856.4 5384.54,-1934.63"/>
<polygon fill="black" stroke="black" points="5382.59,-1937.54 5392.62,-1940.94 5386.89,-1932.03 5382.59,-1937.54"/>
</g>
<!-- b15&#45;&gt;b36 -->
<g id="edge25" class="edge">
<title>b15&#45;&gt;b36</title>
<path fill="none" stroke="black" d="M5112.2,-1554.97C5508.21,-1543.39 6371.67,-1518.14 6775.58,-1506.33"/>
<polygon fill="black" stroke="black" points="6775.73,-1509.83 6785.62,-1506.03 6775.53,-1502.83 6775.73,-1509.83"/>
</g>
<!-- b18 -->
<g id="node19" class="node">
<title>b18</title>
<polygon fill="lightblue" stroke="black" points="6156,-1993 5742,-1993 5742,-1941 6156,-1941 6156,-1993"/>
<text text-anchor="middle" x="5949" y="-1981" font-family="Helvetica" font-size="10.00">B18</text>
<text text-anchor="middle" x="5949" y="-1970" font-family="Helvetica" font-size="10.00">Loop: L0</text>
<text text-anchor="middle" x="5949" y="-1959" font-family="Helvetica" font-size="10.00">&#45;&#45;&#45;</text>
<text text-anchor="middle" x="5949" y="-1948" font-family="Helvetica" font-size="10.00">HotSpotMethod&lt;LoopBenchmarks.matrixMultiplyLoop(double[][], double[][], double[][], int)&gt;</text>
</g>
<!-- b16&#45;&gt;b18 -->
<g id="edge27" class="edge">
<title>b16&#45;&gt;b18</title>
<path fill="none" stroke="black" d="M5634.26,-1967C5666.39,-1967 5699.65,-1967 5731.98,-1967"/>
<polygon fill="black" stroke="black" points="5731.98,-1970.5 5741.98,-1967 5731.98,-1963.5 5731.98,-1970.5"/>
</g>
<!-- b22 -->
<g id="node23" class="node">
<title>b22</title>
<polygon fill="lightblue" stroke="black" points="7200,-2370 6786,-2370 6786,-2318 7200,-2318 7200,-2370"/>
<text text-anchor="middle" x="6993" y="-2358" font-family="Helvetica" font-size="10.00">B22</text>
<text text-anchor="middle" x="6993" y="-2347" font-family="Helvetica" font-size="10.00">Loop: L0</text>
<text text-anchor="middle" x="6993" y="-2336" font-family="Helvetica" font-size="10.00">&#45;&#45;&#45;</text>
<text text-anchor="middle" x="6993" y="-2325" font-family="Helvetica" font-size="10.00">HotSpotMethod&lt;LoopBenchmarks.matrixMultiplyLoop(double[][], double[][], double[][], int)&gt;</text>
</g>
<!-- b16&#45;&gt;b22 -->
<g id="edge26" class="edge">
<title>b16&#45;&gt;b22</title>
<path fill="none" stroke="black" d="M5453.68,-1993.17C5549.46,-2088.67 5899.16,-2418.6 6264,-2530 6439.98,-2583.73 6500.54,-2578.62 6678,-2530 6787.21,-2500.08 6896.96,-2421.29 6953.28,-2376.44"/>
<polygon fill="black" stroke="black" points="6955.59,-2379.08 6961.2,-2370.08 6951.21,-2373.62 6955.59,-2379.08"/>
</g>
<!-- b17 -->
<g id="node18" class="node">
<title>b17</title>
<polygon fill="lightblue" stroke="black" points="6678,-2494 6264,-2494 6264,-2442 6678,-2442 6678,-2494"/>
<text text-anchor="middle" x="6471" y="-2482" font-family="Helvetica" font-size="10.00">B17</text>
<text text-anchor="middle" x="6471" y="-2471" font-family="Helvetica" font-size="10.00">Loop: L0</text>
<text text-anchor="middle" x="6471" y="-2460" font-family="Helvetica" font-size="10.00">&#45;&#45;&#45;</text>
<text text-anchor="middle" x="6471" y="-2449" font-family="Helvetica" font-size="10.00">HotSpotMethod&lt;LoopBenchmarks.matrixMultiplyLoop(double[][], double[][], double[][], int)&gt;</text>
</g>
<!-- b17&#45;&gt;b22 -->
<g id="edge28" class="edge">
<title>b17&#45;&gt;b22</title>
<path fill="none" stroke="black" d="M6581.33,-2441.93C6666.75,-2421.56 6785.3,-2393.29 6873.08,-2372.36"/>
<polygon fill="black" stroke="black" points="6873.91,-2375.76 6882.82,-2370.04 6872.28,-2368.95 6873.91,-2375.76"/>
</g>
<!-- b19 -->
<g id="node20" class="node">
<title>b19</title>
<polygon fill="lightblue" stroke="black" points="6678,-2246 6264,-2246 6264,-2194 6678,-2194 6678,-2246"/>
<text text-anchor="middle" x="6471" y="-2234" font-family="Helvetica" font-size="10.00">B19</text>
<text text-anchor="middle" x="6471" y="-2223" font-family="Helvetica" font-size="10.00">Loop: L0</text>
<text text-anchor="middle" x="6471" y="-2212" font-family="Helvetica" font-size="10.00">&#45;&#45;&#45;</text>
<text text-anchor="middle" x="6471" y="-2201" font-family="Helvetica" font-size="10.00">HotSpotMethod&lt;LoopBenchmarks.matrixMultiplyLoop(double[][], double[][], double[][], int)&gt;</text>
</g>
<!-- b18&#45;&gt;b19 -->
<g id="edge29" class="edge">
<title>b18&#45;&gt;b19</title>
<path fill="none" stroke="black" d="M5986.02,-1993.14C6042.72,-2033.28 6157.35,-2110.45 6264,-2158 6292.78,-2170.83 6324.96,-2181.94 6355.18,-2191.07"/>
<polygon fill="black" stroke="black" points="6354.34,-2194.47 6364.92,-2193.96 6356.33,-2187.76 6354.34,-2194.47"/>
</g>
<!-- b18&#45;&gt;b36 -->
<g id="edge30" class="edge">
<title>b18&#45;&gt;b36</title>
<path fill="none" stroke="black" d="M5990.59,-1940.98C6049.43,-1903.88 6162.51,-1834.85 6264,-1786 6295.05,-1771.06 6734.59,-1599.99 6915.28,-1529.79"/>
<polygon fill="black" stroke="black" points="6916.68,-1533 6924.73,-1526.12 6914.14,-1526.47 6916.68,-1533"/>
</g>
<!-- b19&#45;&gt;b22 -->
<g id="edge32" class="edge">
<title>b19&#45;&gt;b22</title>
<path fill="none" stroke="black" d="M6581.33,-2246.07C6666.75,-2266.44 6785.3,-2294.71 6873.08,-2315.64"/>
<polygon fill="black" stroke="black" points="6872.28,-2319.05 6882.82,-2317.96 6873.91,-2312.24 6872.28,-2319.05"/>
</g>
<!-- b19&#45;&gt;b36 -->
<g id="edge31" class="edge">
<title>b19&#45;&gt;b36</title>
<path fill="none" stroke="black" d="M6615.2,-2193.95C6637.91,-2185.22 6659.86,-2173.56 6678,-2158 6881.6,-1983.37 6963.29,-1646.97 6985.39,-1536.28"/>
<polygon fill="black" stroke="black" points="6988.86,-1536.78 6987.34,-1526.29 6981.99,-1535.43 6988.86,-1536.78"/>
</g>
<!-- b20 -->
<g id="node21" class="node">
<title>b20</title>
<polygon fill="white" stroke="black" points="6678,-2122 6264,-2122 6264,-2070 6678,-2070 6678,-2122"/>
<text text-anchor="middle" x="6471" y="-2110" font-family="Helvetica" font-size="10.00">B20</text>
<text text-anchor="middle" x="6471" y="-2099" font-family="Helvetica" font-size="10.00">Loop: &lt;none&gt;</text>
<text text-anchor="middle" x="6471" y="-2088" font-family="Helvetica" font-size="10.00">&#45;&#45;&#45;</text>
<text text-anchor="middle" x="6471" y="-2077" font-family="Helvetica" font-size="10.00">HotSpotMethod&lt;LoopBenchmarks.matrixMultiplyLoop(double[][], double[][], double[][], int)&gt;</text>
</g>
<!-- b20&#45;&gt;b36 -->
<g id="edge33" class="edge">
<title>b20&#45;&gt;b36</title>
<path fill="none" stroke="black" d="M6610.34,-2069.99C6634.48,-2061.24 6658.17,-2049.57 6678,-2034 6853.25,-1896.36 6950.51,-1631.71 6981.22,-1535.81"/>
<polygon fill="black" stroke="black" points="6984.64,-1536.6 6984.32,-1526.01 6977.97,-1534.5 6984.64,-1536.6"/>
</g>
<!-- b21 -->
<g id="node22" class="node">
<title>b21</title>
<polygon fill="lightblue" stroke="black" points="6678,-2370 6264,-2370 6264,-2318 6678,-2318 6678,-2370"/>
<text text-anchor="middle" x="6471" y="-2358" font-family="Helvetica" font-size="10.00">B21</text>
<text text-anchor="middle" x="6471" y="-2347" font-family="Helvetica" font-size="10.00">Loop: L0</text>
<text text-anchor="middle" x="6471" y="-2336" font-family="Helvetica" font-size="10.00">&#45;&#45;&#45;</text>
<text text-anchor="middle" x="6471" y="-2325" font-family="Helvetica" font-size="10.00">HotSpotMethod&lt;LoopBenchmarks.matrixMultiplyLoop(double[][], double[][], double[][], int)&gt;</text>
</g>
<!-- b21&#45;&gt;b22 -->
<g id="edge34" class="edge">
<title>b21&#45;&gt;b22</title>
<path fill="none" stroke="black" d="M6678.26,-2344C6710.39,-2344 6743.65,-2344 6775.98,-2344"/>
<polygon fill="black" stroke="black" points="6775.98,-2347.5 6785.98,-2344 6775.98,-2340.5 6775.98,-2347.5"/>
</g>
<!-- b23 -->
<g id="node24" class="node">
<title>b23</title>
<polygon fill="lightgreen" stroke="black" points="7722,-838 7308,-838 7308,-786 7722,-786 7722,-838"/>
<text text-anchor="middle" x="7515" y="-826" font-family="Helvetica" font-size="10.00">B23</text>
<text text-anchor="middle" x="7515" y="-815" font-family="Helvetica" font-size="10.00">Loop: L1</text>
<text text-anchor="middle" x="7515" y="-804" font-family="Helvetica" font-size="10.00">&#45;&#45;&#45;</text>
<text text-anchor="middle" x="7515" y="-793" font-family="Helvetica" font-size="10.00">HotSpotMethod&lt;LoopBenchmarks.matrixMultiplyLoop(double[][], double[][], double[][], int)&gt;</text>
</g>
<!-- b22&#45;&gt;b23 -->
<g id="edge35" class="edge">
<title>b22&#45;&gt;b23</title>
<path fill="none" stroke="black" d="M7002.92,-2317.73C7064.82,-2135.34 7430.28,-1058.66 7501.85,-847.81"/>
<polygon fill="black" stroke="black" points="7505.22,-848.75 7505.12,-838.15 7498.59,-846.5 7505.22,-848.75"/>
</g>
<!-- b24 -->
<g id="node25" class="node">
<title>b24</title>
<polygon fill="lightgreen" stroke="black" points="8244,-769 7830,-769 7830,-717 8244,-717 8244,-769"/>
<text text-anchor="middle" x="8037" y="-757" font-family="Helvetica" font-size="10.00">B24</text>
<text text-anchor="middle" x="8037" y="-746" font-family="Helvetica" font-size="10.00">Loop: L1</text>
<text text-anchor="middle" x="8037" y="-735" font-family="Helvetica" font-size="10.00">&#45;&#45;&#45;</text>
<text text-anchor="middle" x="8037" y="-724" font-family="Helvetica" font-size="10.00">HotSpotMethod&lt;LoopBenchmarks.matrixMultiplyLoop(double[][], double[][], double[][], int)&gt;</text>
</g>
<!-- b23&#45;&gt;b24 -->
<g id="edge36" class="edge">
<title>b23&#45;&gt;b24</title>
<path fill="none" stroke="black" d="M7712.22,-785.96C7750.52,-780.88 7790.79,-775.54 7829.42,-770.41"/>
<polygon fill="black" stroke="black" points="7830.28,-773.83 7839.73,-769.04 7829.36,-766.89 7830.28,-773.83"/>
</g>
<!-- b29 -->
<g id="node30" class="node">
<title>b29</title>
<polygon fill="lightblue" stroke="black" points="8244,-642 7830,-642 7830,-590 8244,-590 8244,-642"/>
<text text-anchor="middle" x="8037" y="-630" font-family="Helvetica" font-size="10.00">B29</text>
<text text-anchor="middle" x="8037" y="-619" font-family="Helvetica" font-size="10.00">Loop: L0</text>
<text text-anchor="middle" x="8037" y="-608" font-family="Helvetica" font-size="10.00">&#45;&#45;&#45;</text>
<text text-anchor="middle" x="8037" y="-597" font-family="Helvetica" font-size="10.00">HotSpotMethod&lt;LoopBenchmarks.matrixMultiplyLoop(double[][], double[][], double[][], int)&gt;</text>
</g>
<!-- b23&#45;&gt;b29 -->
<g id="edge37" class="edge">
<title>b23&#45;&gt;b29</title>
<path fill="none" stroke="black" d="M7574.12,-785.91C7636.68,-758.26 7739.43,-714.11 7830,-681 7864.85,-668.26 7903.54,-655.66 7937.89,-644.99"/>
<polygon fill="black" stroke="black" points="7938.93,-648.33 7947.45,-642.03 7936.86,-641.64 7938.93,-648.33"/>
</g>
<!-- b25 -->
<g id="node26" class="node">
<title>b25</title>
<polygon fill="lightpink" stroke="black" points="8766,-769 8352,-769 8352,-717 8766,-717 8766,-769"/>
<text text-anchor="middle" x="8559" y="-757" font-family="Helvetica" font-size="10.00">B25</text>
<text text-anchor="middle" x="8559" y="-746" font-family="Helvetica" font-size="10.00">Loop: L2</text>
<text text-anchor="middle" x="8559" y="-735" font-family="Helvetica" font-size="10.00">&#45;&#45;&#45;</text>
<text text-anchor="middle" x="8559" y="-724" font-family="Helvetica" font-size="10.00">HotSpotMethod&lt;LoopBenchmarks.matrixMultiplyLoop(double[][], double[][], double[][], int)&gt;</text>
</g>
<!-- b24&#45;&gt;b25 -->
<g id="edge38" class="edge">
<title>b24&#45;&gt;b25</title>
<path fill="none" stroke="black" d="M8244.26,-743C8276.39,-743 8309.65,-743 8341.98,-743"/>
<polygon fill="black" stroke="black" points="8341.98,-746.5 8351.98,-743 8341.98,-739.5 8341.98,-746.5"/>
</g>
<!-- b26 -->
<g id="node27" class="node">
<title>b26</title>
<polygon fill="lightpink" stroke="black" points="9288,-634 8874,-634 8874,-582 9288,-582 9288,-634"/>
<text text-anchor="middle" x="9081" y="-622" font-family="Helvetica" font-size="10.00">B26</text>
<text text-anchor="middle" x="9081" y="-611" font-family="Helvetica" font-size="10.00">Loop: L2</text>
<text text-anchor="middle" x="9081" y="-600" font-family="Helvetica" font-size="10.00">&#45;&#45;&#45;</text>
<text text-anchor="middle" x="9081" y="-589" font-family="Helvetica" font-size="10.00">HotSpotMethod&lt;LoopBenchmarks.matrixMultiplyLoop(double[][], double[][], double[][], int)&gt;</text>
</g>
<!-- b25&#45;&gt;b26 -->
<g id="edge39" class="edge">
<title>b25&#45;&gt;b26</title>
<path fill="none" stroke="black" d="M8660.26,-716.97C8748.96,-693.94 8878.16,-660.4 8969.75,-636.62"/>
<polygon fill="black" stroke="black" points="8970.8,-639.96 8979.6,-634.06 8969.05,-633.19 8970.8,-639.96"/>
</g>
<!-- b28 -->
<g id="node29" class="node">
<title>b28</title>
<polygon fill="lightgreen" stroke="black" points="9288,-904 8874,-904 8874,-852 9288,-852 9288,-904"/>
<text text-anchor="middle" x="9081" y="-892" font-family="Helvetica" font-size="10.00">B28</text>
<text text-anchor="middle" x="9081" y="-881" font-family="Helvetica" font-size="10.00">Loop: L1</text>
<text text-anchor="middle" x="9081" y="-870" font-family="Helvetica" font-size="10.00">&#45;&#45;&#45;</text>
<text text-anchor="middle" x="9081" y="-859" font-family="Helvetica" font-size="10.00">HotSpotMethod&lt;LoopBenchmarks.matrixMultiplyLoop(double[][], double[][], double[][], int)&gt;</text>
</g>
<!-- b25&#45;&gt;b28 -->
<g id="edge40" class="edge">
<title>b25&#45;&gt;b28</title>
<path fill="none" stroke="black" d="M8660.26,-769.03C8748.96,-792.06 8878.16,-825.6 8969.75,-849.38"/>
<polygon fill="black" stroke="black" points="8969.05,-852.81 8979.6,-851.94 8970.8,-846.04 8969.05,-852.81"/>
</g>
<!-- b27 -->
<g id="node28" class="node">
<title>b27</title>
<polygon fill="lightpink" stroke="black" points="9810,-763 9396,-763 9396,-711 9810,-711 9810,-763"/>
<text text-anchor="middle" x="9603" y="-751" font-family="Helvetica" font-size="10.00">B27</text>
<text text-anchor="middle" x="9603" y="-740" font-family="Helvetica" font-size="10.00">Loop: L2</text>
<text text-anchor="middle" x="9603" y="-729" font-family="Helvetica" font-size="10.00">&#45;&#45;&#45;</text>
<text text-anchor="middle" x="9603" y="-718" font-family="Helvetica" font-size="10.00">HotSpotMethod&lt;LoopBenchmarks.matrixMultiplyLoop(double[][], double[][], double[][], int)&gt;</text>
</g>
<!-- b26&#45;&gt;b27 -->
<g id="edge41" class="edge">
<title>b26&#45;&gt;b27</title>
<path fill="none" stroke="black" d="M9186.92,-634.03C9273.85,-655.59 9397.23,-686.2 9486.86,-708.44"/>
<polygon fill="black" stroke="black" points="9486.25,-711.89 9496.8,-710.9 9487.94,-705.1 9486.25,-711.89"/>
</g>
<!-- b31 -->
<g id="node32" class="node">
<title>b31</title>
<polygon fill="white" stroke="black" points="9810,-634 9396,-634 9396,-582 9810,-582 9810,-634"/>
<text text-anchor="middle" x="9603" y="-622" font-family="Helvetica" font-size="10.00">B31</text>
<text text-anchor="middle" x="9603" y="-611" font-family="Helvetica" font-size="10.00">Loop: &lt;none&gt;</text>
<text text-anchor="middle" x="9603" y="-600" font-family="Helvetica" font-size="10.00">&#45;&#45;&#45;</text>
<text text-anchor="middle" x="9603" y="-589" font-family="Helvetica" font-size="10.00">HotSpotMethod&lt;LoopBenchmarks.matrixMultiplyLoop(double[][], double[][], double[][], int)&gt;</text>
</g>
<!-- b26&#45;&gt;b31 -->
<g id="edge42" class="edge">
<title>b26&#45;&gt;b31</title>
<path fill="none" stroke="black" d="M9288.26,-608C9320.39,-608 9353.65,-608 9385.98,-608"/>
<polygon fill="black" stroke="black" points="9385.98,-611.5 9395.98,-608 9385.98,-604.5 9385.98,-611.5"/>
</g>
<!-- b27&#45;&gt;b25 -->
<g id="edge43" class="edge">
<title>b27&#45;&gt;b25</title>
<path fill="none" stroke="black" d="M9395.8,-738.19C9216.76,-739.22 8958.39,-740.71 8776.41,-741.75"/>
<polygon fill="black" stroke="black" points="8776.16,-738.26 8766.18,-741.81 8776.2,-745.26 8776.16,-738.26"/>
</g>
<!-- b28&#45;&gt;b23 -->
<g id="edge44" class="edge">
<title>b28&#45;&gt;b23</title>
<path fill="none" stroke="black" d="M8873.78,-869.3C8577.52,-856.8 8034,-833.86 7732.26,-821.13"/>
<polygon fill="black" stroke="black" points="7732.21,-817.62 7722.07,-820.7 7731.92,-824.61 7732.21,-817.62"/>
</g>
<!-- b29&#45;&gt;b7 -->
<g id="edge45" class="edge">
<title>b29&#45;&gt;b7</title>
<path fill="none" stroke="black" d="M7829.89,-614.43C7619.69,-612.96 7284.13,-611 6994,-611 3338,-611 3338,-611 3338,-611 3052.55,-611 2723.12,-611 2512.37,-611"/>
<polygon fill="black" stroke="black" points="2512.11,-607.5 2502.11,-611 2512.11,-614.5 2512.11,-607.5"/>
</g>
<!-- b32 -->
<g id="node33" class="node">
<title>b32</title>
<polygon fill="white" stroke="black" points="6678,-1998 6264,-1998 6264,-1946 6678,-1946 6678,-1998"/>
<text text-anchor="middle" x="6471" y="-1986" font-family="Helvetica" font-size="10.00">B32</text>
<text text-anchor="middle" x="6471" y="-1975" font-family="Helvetica" font-size="10.00">Loop: &lt;none&gt;</text>
<text text-anchor="middle" x="6471" y="-1964" font-family="Helvetica" font-size="10.00">&#45;&#45;&#45;</text>
<text text-anchor="middle" x="6471" y="-1953" font-family="Helvetica" font-size="10.00">HotSpotMethod&lt;LoopBenchmarks.matrixMultiplyLoop(double[][], double[][], double[][], int)&gt;</text>
</g>
<!-- b32&#45;&gt;b36 -->
<g id="edge46" class="edge">
<title>b32&#45;&gt;b36</title>
<path fill="none" stroke="black" d="M6603.19,-1945.92C6629.36,-1937.12 6655.65,-1925.45 6678,-1910 6825.77,-1807.86 6934.57,-1614.46 6974.89,-1535.21"/>
<polygon fill="black" stroke="black" points="6978.09,-1536.64 6979.46,-1526.13 6971.84,-1533.49 6978.09,-1536.64"/>
</g>
<!-- b33 -->
<g id="node34" class="node">
<title>b33</title>
<polygon fill="white" stroke="black" points="6678,-1874 6264,-1874 6264,-1822 6678,-1822 6678,-1874"/>
<text text-anchor="middle" x="6471" y="-1862" font-family="Helvetica" font-size="10.00">B33</text>
<text text-anchor="middle" x="6471" y="-1851" font-family="Helvetica" font-size="10.00">Loop: &lt;none&gt;</text>
<text text-anchor="middle" x="6471" y="-1840" font-family="Helvetica" font-size="10.00">&#45;&#45;&#45;</text>
<text text-anchor="middle" x="6471" y="-1829" font-family="Helvetica" font-size="10.00">HotSpotMethod&lt;LoopBenchmarks.matrixMultiplyLoop(double[][], double[][], double[][], int)&gt;</text>
</g>
<!-- b33&#45;&gt;b36 -->
<g id="edge47" class="edge">
<title>b33&#45;&gt;b36</title>
<path fill="none" stroke="black" d="M6557.68,-1821.99C6595.89,-1808.59 6640.62,-1790.33 6678,-1768 6792.59,-1699.55 6906.64,-1588.85 6960.29,-1533.61"/>
<polygon fill="black" stroke="black" points="6963.02,-1535.81 6967.45,-1526.19 6957.98,-1530.95 6963.02,-1535.81"/>
</g>
<!-- b34 -->
<g id="node35" class="node">
<title>b34</title>
<polygon fill="white" stroke="black" points="6678,-1458 6264,-1458 6264,-1406 6678,-1406 6678,-1458"/>
<text text-anchor="middle" x="6471" y="-1446" font-family="Helvetica" font-size="10.00">B34</text>
<text text-anchor="middle" x="6471" y="-1435" font-family="Helvetica" font-size="10.00">Loop: &lt;none&gt;</text>
<text text-anchor="middle" x="6471" y="-1424" font-family="Helvetica" font-size="10.00">&#45;&#45;&#45;</text>
<text text-anchor="middle" x="6471" y="-1413" font-family="Helvetica" font-size="10.00">HotSpotMethod&lt;LoopBenchmarks.matrixMultiplyLoop(double[][], double[][], double[][], int)&gt;</text>
</g>
<!-- b34&#45;&gt;b36 -->
<g id="edge48" class="edge">
<title>b34&#45;&gt;b36</title>
<path fill="none" stroke="black" d="M6671.19,-1458.05C6707.73,-1462.83 6745.97,-1467.83 6782.79,-1472.64"/>
<polygon fill="black" stroke="black" points="6782.77,-1476.17 6793.13,-1473.99 6783.67,-1469.23 6782.77,-1476.17"/>
</g>
<!-- b35 -->
<g id="node36" class="node">
<title>b35</title>
<polygon fill="white" stroke="black" points="6678,-1188 6264,-1188 6264,-1136 6678,-1136 6678,-1188"/>
<text text-anchor="middle" x="6471" y="-1176" font-family="Helvetica" font-size="10.00">B35</text>
<text text-anchor="middle" x="6471" y="-1165" font-family="Helvetica" font-size="10.00">Loop: &lt;none&gt;</text>
<text text-anchor="middle" x="6471" y="-1154" font-family="Helvetica" font-size="10.00">&#45;&#45;&#45;</text>
<text text-anchor="middle" x="6471" y="-1143" font-family="Helvetica" font-size="10.00">HotSpotMethod&lt;LoopBenchmarks.matrixMultiplyLoop(double[][], double[][], double[][], int)&gt;</text>
</g>
<!-- b35&#45;&gt;b36 -->
<g id="edge49" class="edge">
<title>b35&#45;&gt;b36</title>
<path fill="none" stroke="black" d="M6556.73,-1188.07C6595.07,-1201.56 6640.16,-1219.87 6678,-1242 6790.56,-1307.82 6904.25,-1413.06 6958.77,-1466.51"/>
<polygon fill="black" stroke="black" points="6956.49,-1469.17 6966.07,-1473.7 6961.4,-1464.19 6956.49,-1469.17"/>
</g>
<!-- b37 -->
<g id="node38" class="node">
<title>b37</title>
<polygon fill="white" stroke="black" points="1458,-322 1044,-322 1044,-270 1458,-270 1458,-322"/>
<text text-anchor="middle" x="1251" y="-310" font-family="Helvetica" font-size="10.00">B37</text>
<text text-anchor="middle" x="1251" y="-299" font-family="Helvetica" font-size="10.00">Loop: &lt;none&gt;</text>
<text text-anchor="middle" x="1251" y="-288" font-family="Helvetica" font-size="10.00">&#45;&#45;&#45;</text>
<text text-anchor="middle" x="1251" y="-277" font-family="Helvetica" font-size="10.00">HotSpotMethod&lt;LoopBenchmarks.matrixMultiplyLoop(double[][], double[][], double[][], int)&gt;</text>
</g>
<!-- b37&#45;&gt;b38 -->
<g id="edge50" class="edge">
<title>b37&#45;&gt;b38</title>
<path fill="none" stroke="black" d="M1454.16,-269.95C1488.83,-265.49 1524.95,-260.83 1559.87,-256.33"/>
<polygon fill="black" stroke="black" points="1560.7,-259.75 1570.17,-255 1559.81,-252.81 1560.7,-259.75"/>
</g>
</g>
</svg>
