<?xml version="1.0" encoding="UTF-8" standalone="no"?>
<!DOCTYPE svg PUBLIC "-//W3C//DTD SVG 1.1//EN"
 "http://www.w3.org/Graphics/SVG/1.1/DTD/svg11.dtd">
<!-- Generated by graphviz version 2.44.0 (0)
 -->
<!-- Title: CFG_101 Pages: 1 -->
<svg width="8100pt" height="1011pt"
 viewBox="0.00 0.00 8100.00 1011.00" xmlns="http://www.w3.org/2000/svg" xmlns:xlink="http://www.w3.org/1999/xlink">
<g id="graph0" class="graph" transform="scale(1 1) rotate(0) translate(4 1007)">
<title>CFG_101</title>
<polygon fill="white" stroke="transparent" points="-4,4 -4,-1007 8096,-1007 8096,4 -4,4"/>
<text text-anchor="middle" x="266.5" y="-983" font-family="Times-Roman" font-size="20.00">162&#45;LoopBenchmarks.histogramLoop(int[], int[], int)</text>
<!-- b0 -->
<g id="node1" class="node">
<title>b0</title>
<polygon fill="white" stroke="black" points="302,-905 0,-905 0,-853 302,-853 302,-905"/>
<text text-anchor="middle" x="151" y="-893" font-family="Helvetica" font-size="10.00">B0</text>
<text text-anchor="middle" x="151" y="-882" font-family="Helvetica" font-size="10.00">Loop: &lt;none&gt;</text>
<text text-anchor="middle" x="151" y="-871" font-family="Helvetica" font-size="10.00">&#45;&#45;&#45;</text>
<text text-anchor="middle" x="151" y="-860" font-family="Helvetica" font-size="10.00">HotSpotMethod&lt;LoopBenchmarks.histogramLoop(int[], int[], int)&gt;</text>
</g>
<!-- b1 -->
<g id="node2" class="node">
<title>b1</title>
<polygon fill="white" stroke="black" points="712,-967 410,-967 410,-915 712,-915 712,-967"/>
<text text-anchor="middle" x="561" y="-955" font-family="Helvetica" font-size="10.00">B1</text>
<text text-anchor="middle" x="561" y="-944" font-family="Helvetica" font-size="10.00">Loop: &lt;none&gt;</text>
<text text-anchor="middle" x="561" y="-933" font-family="Helvetica" font-size="10.00">&#45;&#45;&#45;</text>
<text text-anchor="middle" x="561" y="-922" font-family="Helvetica" font-size="10.00">HotSpotMethod&lt;LoopBenchmarks.histogramLoop(int[], int[], int)&gt;</text>
</g>
<!-- b0&#45;&gt;b1 -->
<g id="edge1" class="edge">
<title>b0&#45;&gt;b1</title>
<path fill="none" stroke="black" d="M302.19,-901.82C334,-906.66 367.69,-911.78 399.86,-916.67"/>
<polygon fill="black" stroke="black" points="399.38,-920.13 409.79,-918.17 400.43,-913.21 399.38,-920.13"/>
</g>
<!-- b2 -->
<g id="node3" class="node">
<title>b2</title>
<polygon fill="white" stroke="black" points="712,-843 410,-843 410,-791 712,-791 712,-843"/>
<text text-anchor="middle" x="561" y="-831" font-family="Helvetica" font-size="10.00">B2</text>
<text text-anchor="middle" x="561" y="-820" font-family="Helvetica" font-size="10.00">Loop: &lt;none&gt;</text>
<text text-anchor="middle" x="561" y="-809" font-family="Helvetica" font-size="10.00">&#45;&#45;&#45;</text>
<text text-anchor="middle" x="561" y="-798" font-family="Helvetica" font-size="10.00">HotSpotMethod&lt;LoopBenchmarks.histogramLoop(int[], int[], int)&gt;</text>
</g>
<!-- b0&#45;&gt;b2 -->
<g id="edge2" class="edge">
<title>b0&#45;&gt;b2</title>
<path fill="none" stroke="black" d="M302.19,-856.18C334,-851.34 367.69,-846.22 399.86,-841.33"/>
<polygon fill="black" stroke="black" points="400.43,-844.79 409.79,-839.83 399.38,-837.87 400.43,-844.79"/>
</g>
<!-- b3 -->
<g id="node4" class="node">
<title>b3</title>
<polygon fill="white" stroke="black" points="1122,-905 820,-905 820,-853 1122,-853 1122,-905"/>
<text text-anchor="middle" x="971" y="-893" font-family="Helvetica" font-size="10.00">B3</text>
<text text-anchor="middle" x="971" y="-882" font-family="Helvetica" font-size="10.00">Loop: &lt;none&gt;</text>
<text text-anchor="middle" x="971" y="-871" font-family="Helvetica" font-size="10.00">&#45;&#45;&#45;</text>
<text text-anchor="middle" x="971" y="-860" font-family="Helvetica" font-size="10.00">HotSpotMethod&lt;LoopBenchmarks.histogramLoop(int[], int[], int)&gt;</text>
</g>
<!-- b1&#45;&gt;b3 -->
<g id="edge3" class="edge">
<title>b1&#45;&gt;b3</title>
<path fill="none" stroke="black" d="M712.19,-918.18C744,-913.34 777.69,-908.22 809.86,-903.33"/>
<polygon fill="black" stroke="black" points="810.43,-906.79 819.79,-901.83 809.38,-899.87 810.43,-906.79"/>
</g>
<!-- b2&#45;&gt;b3 -->
<g id="edge4" class="edge">
<title>b2&#45;&gt;b3</title>
<path fill="none" stroke="black" d="M712.19,-839.82C744,-844.66 777.69,-849.78 809.86,-854.67"/>
<polygon fill="black" stroke="black" points="809.38,-858.13 819.79,-856.17 810.43,-851.21 809.38,-858.13"/>
</g>
<!-- b5 -->
<g id="node6" class="node">
<title>b5</title>
<polygon fill="white" stroke="black" points="1532,-973 1230,-973 1230,-921 1532,-921 1532,-973"/>
<text text-anchor="middle" x="1381" y="-961" font-family="Helvetica" font-size="10.00">B5</text>
<text text-anchor="middle" x="1381" y="-950" font-family="Helvetica" font-size="10.00">Loop: &lt;none&gt;</text>
<text text-anchor="middle" x="1381" y="-939" font-family="Helvetica" font-size="10.00">&#45;&#45;&#45;</text>
<text text-anchor="middle" x="1381" y="-928" font-family="Helvetica" font-size="10.00">HotSpotMethod&lt;LoopBenchmarks.histogramLoop(int[], int[], int)&gt;</text>
</g>
<!-- b3&#45;&gt;b5 -->
<g id="edge6" class="edge">
<title>b3&#45;&gt;b5</title>
<path fill="none" stroke="black" d="M1122.19,-904.03C1154,-909.33 1187.69,-914.95 1219.86,-920.31"/>
<polygon fill="black" stroke="black" points="1219.35,-923.77 1229.79,-921.97 1220.5,-916.87 1219.35,-923.77"/>
</g>
<!-- b7 -->
<g id="node8" class="node">
<title>b7</title>
<polygon fill="white" stroke="black" points="1942,-748 1640,-748 1640,-696 1942,-696 1942,-748"/>
<text text-anchor="middle" x="1791" y="-736" font-family="Helvetica" font-size="10.00">B7</text>
<text text-anchor="middle" x="1791" y="-725" font-family="Helvetica" font-size="10.00">Loop: &lt;none&gt;</text>
<text text-anchor="middle" x="1791" y="-714" font-family="Helvetica" font-size="10.00">&#45;&#45;&#45;</text>
<text text-anchor="middle" x="1791" y="-703" font-family="Helvetica" font-size="10.00">HotSpotMethod&lt;LoopBenchmarks.histogramLoop(int[], int[], int)&gt;</text>
</g>
<!-- b3&#45;&gt;b7 -->
<g id="edge5" class="edge">
<title>b3&#45;&gt;b7</title>
<path fill="none" stroke="black" d="M1107.53,-852.99C1255.7,-824.55 1492.24,-779.15 1644.31,-749.96"/>
<polygon fill="black" stroke="black" points="1645.04,-753.39 1654.2,-748.06 1643.72,-746.51 1645.04,-753.39"/>
</g>
<!-- b4 -->
<g id="node5" class="node">
<title>b4</title>
<polygon fill="white" stroke="black" points="1532,-703 1230,-703 1230,-651 1532,-651 1532,-703"/>
<text text-anchor="middle" x="1381" y="-691" font-family="Helvetica" font-size="10.00">B4</text>
<text text-anchor="middle" x="1381" y="-680" font-family="Helvetica" font-size="10.00">Loop: &lt;none&gt;</text>
<text text-anchor="middle" x="1381" y="-669" font-family="Helvetica" font-size="10.00">&#45;&#45;&#45;</text>
<text text-anchor="middle" x="1381" y="-658" font-family="Helvetica" font-size="10.00">HotSpotMethod&lt;LoopBenchmarks.histogramLoop(int[], int[], int)&gt;</text>
</g>
<!-- b4&#45;&gt;b7 -->
<g id="edge7" class="edge">
<title>b4&#45;&gt;b7</title>
<path fill="none" stroke="black" d="M1532.19,-693.56C1563.86,-697.06 1597.4,-700.76 1629.44,-704.29"/>
<polygon fill="black" stroke="black" points="1629.47,-707.82 1639.79,-705.43 1630.23,-700.86 1629.47,-707.82"/>
</g>
<!-- b5&#45;&gt;b7 -->
<g id="edge8" class="edge">
<title>b5&#45;&gt;b7</title>
<path fill="none" stroke="black" d="M1431.47,-920.97C1460.78,-905.46 1498.61,-885.29 1532,-867 1602.51,-828.39 1683.19,-782.82 1735.28,-753.21"/>
<polygon fill="black" stroke="black" points="1737.07,-756.22 1744.03,-748.24 1733.61,-750.14 1737.07,-756.22"/>
</g>
<!-- b37 -->
<g id="node38" class="node">
<title>b37</title>
<polygon fill="white" stroke="black" points="2762,-973 2460,-973 2460,-921 2762,-921 2762,-973"/>
<text text-anchor="middle" x="2611" y="-961" font-family="Helvetica" font-size="10.00">B37</text>
<text text-anchor="middle" x="2611" y="-950" font-family="Helvetica" font-size="10.00">Loop: &lt;none&gt;</text>
<text text-anchor="middle" x="2611" y="-939" font-family="Helvetica" font-size="10.00">&#45;&#45;&#45;</text>
<text text-anchor="middle" x="2611" y="-928" font-family="Helvetica" font-size="10.00">HotSpotMethod&lt;LoopBenchmarks.histogramLoop(int[], int[], int)&gt;</text>
</g>
<!-- b5&#45;&gt;b37 -->
<g id="edge9" class="edge">
<title>b5&#45;&gt;b37</title>
<path fill="none" stroke="black" d="M1532.27,-947C1764.98,-947 2210.54,-947 2449.39,-947"/>
<polygon fill="black" stroke="black" points="2449.55,-950.5 2459.55,-947 2449.55,-943.5 2449.55,-950.5"/>
</g>
<!-- b6 -->
<g id="node7" class="node">
<title>b6</title>
<polygon fill="white" stroke="black" points="1532,-579 1230,-579 1230,-527 1532,-527 1532,-579"/>
<text text-anchor="middle" x="1381" y="-567" font-family="Helvetica" font-size="10.00">B6</text>
<text text-anchor="middle" x="1381" y="-556" font-family="Helvetica" font-size="10.00">Loop: &lt;none&gt;</text>
<text text-anchor="middle" x="1381" y="-545" font-family="Helvetica" font-size="10.00">&#45;&#45;&#45;</text>
<text text-anchor="middle" x="1381" y="-534" font-family="Helvetica" font-size="10.00">HotSpotMethod&lt;LoopBenchmarks.histogramLoop(int[], int[], int)&gt;</text>
</g>
<!-- b6&#45;&gt;b7 -->
<g id="edge10" class="edge">
<title>b6&#45;&gt;b7</title>
<path fill="none" stroke="black" d="M1445.14,-579.08C1471.93,-590.15 1503.49,-603.2 1532,-615 1594.74,-640.98 1666.04,-670.55 1717.76,-692.01"/>
<polygon fill="black" stroke="black" points="1716.61,-695.32 1727.18,-695.92 1719.29,-688.86 1716.61,-695.32"/>
</g>
<!-- b8 -->
<g id="node9" class="node">
<title>b8</title>
<polygon fill="white" stroke="black" points="2352,-669 2050,-669 2050,-617 2352,-617 2352,-669"/>
<text text-anchor="middle" x="2201" y="-657" font-family="Helvetica" font-size="10.00">B8</text>
<text text-anchor="middle" x="2201" y="-646" font-family="Helvetica" font-size="10.00">Loop: &lt;none&gt;</text>
<text text-anchor="middle" x="2201" y="-635" font-family="Helvetica" font-size="10.00">&#45;&#45;&#45;</text>
<text text-anchor="middle" x="2201" y="-624" font-family="Helvetica" font-size="10.00">HotSpotMethod&lt;LoopBenchmarks.histogramLoop(int[], int[], int)&gt;</text>
</g>
<!-- b7&#45;&gt;b8 -->
<g id="edge11" class="edge">
<title>b7&#45;&gt;b8</title>
<path fill="none" stroke="black" d="M1926.44,-695.97C1967.82,-687.96 2013.54,-679.1 2055.56,-670.97"/>
<polygon fill="black" stroke="black" points="2056.44,-674.36 2065.59,-669.03 2055.1,-667.49 2056.44,-674.36"/>
</g>
<!-- b9 -->
<g id="node10" class="node">
<title>b9</title>
<polygon fill="white" stroke="black" points="2352,-793 2050,-793 2050,-741 2352,-741 2352,-793"/>
<text text-anchor="middle" x="2201" y="-781" font-family="Helvetica" font-size="10.00">B9</text>
<text text-anchor="middle" x="2201" y="-770" font-family="Helvetica" font-size="10.00">Loop: &lt;none&gt;</text>
<text text-anchor="middle" x="2201" y="-759" font-family="Helvetica" font-size="10.00">&#45;&#45;&#45;</text>
<text text-anchor="middle" x="2201" y="-748" font-family="Helvetica" font-size="10.00">HotSpotMethod&lt;LoopBenchmarks.histogramLoop(int[], int[], int)&gt;</text>
</g>
<!-- b7&#45;&gt;b9 -->
<g id="edge12" class="edge">
<title>b7&#45;&gt;b9</title>
<path fill="none" stroke="black" d="M1942.19,-738.56C1973.86,-742.06 2007.4,-745.76 2039.44,-749.29"/>
<polygon fill="black" stroke="black" points="2039.47,-752.82 2049.79,-750.43 2040.23,-745.86 2039.47,-752.82"/>
</g>
<!-- b10 -->
<g id="node11" class="node">
<title>b10</title>
<polygon fill="white" stroke="black" points="2762,-725 2460,-725 2460,-673 2762,-673 2762,-725"/>
<text text-anchor="middle" x="2611" y="-713" font-family="Helvetica" font-size="10.00">B10</text>
<text text-anchor="middle" x="2611" y="-702" font-family="Helvetica" font-size="10.00">Loop: &lt;none&gt;</text>
<text text-anchor="middle" x="2611" y="-691" font-family="Helvetica" font-size="10.00">&#45;&#45;&#45;</text>
<text text-anchor="middle" x="2611" y="-680" font-family="Helvetica" font-size="10.00">HotSpotMethod&lt;LoopBenchmarks.histogramLoop(int[], int[], int)&gt;</text>
</g>
<!-- b8&#45;&gt;b10 -->
<g id="edge13" class="edge">
<title>b8&#45;&gt;b10</title>
<path fill="none" stroke="black" d="M2352.19,-663.61C2384,-667.98 2417.69,-672.61 2449.86,-677.02"/>
<polygon fill="black" stroke="black" points="2449.41,-680.49 2459.79,-678.38 2450.36,-673.56 2449.41,-680.49"/>
</g>
<!-- b9&#45;&gt;b10 -->
<g id="edge14" class="edge">
<title>b9&#45;&gt;b10</title>
<path fill="none" stroke="black" d="M2352.19,-741.97C2384,-736.67 2417.69,-731.05 2449.86,-725.69"/>
<polygon fill="black" stroke="black" points="2450.5,-729.13 2459.79,-724.03 2449.35,-722.23 2450.5,-729.13"/>
</g>
<!-- b12 -->
<g id="node13" class="node">
<title>b12</title>
<polygon fill="white" stroke="black" points="3172,-827 2870,-827 2870,-775 3172,-775 3172,-827"/>
<text text-anchor="middle" x="3021" y="-815" font-family="Helvetica" font-size="10.00">B12</text>
<text text-anchor="middle" x="3021" y="-804" font-family="Helvetica" font-size="10.00">Loop: &lt;none&gt;</text>
<text text-anchor="middle" x="3021" y="-793" font-family="Helvetica" font-size="10.00">&#45;&#45;&#45;</text>
<text text-anchor="middle" x="3021" y="-782" font-family="Helvetica" font-size="10.00">HotSpotMethod&lt;LoopBenchmarks.histogramLoop(int[], int[], int)&gt;</text>
</g>
<!-- b10&#45;&gt;b12 -->
<g id="edge16" class="edge">
<title>b10&#45;&gt;b12</title>
<path fill="none" stroke="black" d="M2716.01,-725C2774.05,-739.51 2846.43,-757.61 2906,-772.5"/>
<polygon fill="black" stroke="black" points="2905.27,-775.93 2915.82,-774.96 2906.97,-769.14 2905.27,-775.93"/>
</g>
<!-- b14 -->
<g id="node15" class="node">
<title>b14</title>
<polygon fill="white" stroke="black" points="3582,-613 3280,-613 3280,-561 3582,-561 3582,-613"/>
<text text-anchor="middle" x="3431" y="-601" font-family="Helvetica" font-size="10.00">B14</text>
<text text-anchor="middle" x="3431" y="-590" font-family="Helvetica" font-size="10.00">Loop: &lt;none&gt;</text>
<text text-anchor="middle" x="3431" y="-579" font-family="Helvetica" font-size="10.00">&#45;&#45;&#45;</text>
<text text-anchor="middle" x="3431" y="-568" font-family="Helvetica" font-size="10.00">HotSpotMethod&lt;LoopBenchmarks.histogramLoop(int[], int[], int)&gt;</text>
</g>
<!-- b10&#45;&gt;b14 -->
<g id="edge15" class="edge">
<title>b10&#45;&gt;b14</title>
<path fill="none" stroke="black" d="M2762.03,-678.46C2905.97,-658.75 3122.61,-629.09 3269.84,-608.93"/>
<polygon fill="black" stroke="black" points="3270.45,-612.38 3279.88,-607.55 3269.5,-605.44 3270.45,-612.38"/>
</g>
<!-- b11 -->
<g id="node12" class="node">
<title>b11</title>
<polygon fill="white" stroke="black" points="3172,-557 2870,-557 2870,-505 3172,-505 3172,-557"/>
<text text-anchor="middle" x="3021" y="-545" font-family="Helvetica" font-size="10.00">B11</text>
<text text-anchor="middle" x="3021" y="-534" font-family="Helvetica" font-size="10.00">Loop: &lt;none&gt;</text>
<text text-anchor="middle" x="3021" y="-523" font-family="Helvetica" font-size="10.00">&#45;&#45;&#45;</text>
<text text-anchor="middle" x="3021" y="-512" font-family="Helvetica" font-size="10.00">HotSpotMethod&lt;LoopBenchmarks.histogramLoop(int[], int[], int)&gt;</text>
</g>
<!-- b11&#45;&gt;b14 -->
<g id="edge17" class="edge">
<title>b11&#45;&gt;b14</title>
<path fill="none" stroke="black" d="M3172.19,-551.61C3204,-555.98 3237.69,-560.61 3269.86,-565.02"/>
<polygon fill="black" stroke="black" points="3269.41,-568.49 3279.79,-566.38 3270.36,-561.56 3269.41,-568.49"/>
</g>
<!-- b12&#45;&gt;b14 -->
<g id="edge18" class="edge">
<title>b12&#45;&gt;b14</title>
<path fill="none" stroke="black" d="M3071.62,-774.97C3147.18,-735.34 3290.78,-660.02 3371.38,-617.75"/>
<polygon fill="black" stroke="black" points="3373.18,-620.76 3380.41,-613.01 3369.92,-614.56 3373.18,-620.76"/>
</g>
<!-- b36 -->
<g id="node37" class="node">
<title>b36</title>
<polygon fill="white" stroke="black" points="3582,-827 3280,-827 3280,-775 3582,-775 3582,-827"/>
<text text-anchor="middle" x="3431" y="-815" font-family="Helvetica" font-size="10.00">B36</text>
<text text-anchor="middle" x="3431" y="-804" font-family="Helvetica" font-size="10.00">Loop: &lt;none&gt;</text>
<text text-anchor="middle" x="3431" y="-793" font-family="Helvetica" font-size="10.00">&#45;&#45;&#45;</text>
<text text-anchor="middle" x="3431" y="-782" font-family="Helvetica" font-size="10.00">HotSpotMethod&lt;LoopBenchmarks.histogramLoop(int[], int[], int)&gt;</text>
</g>
<!-- b12&#45;&gt;b36 -->
<g id="edge19" class="edge">
<title>b12&#45;&gt;b36</title>
<path fill="none" stroke="black" d="M3172.19,-801C3203.86,-801 3237.4,-801 3269.44,-801"/>
<polygon fill="black" stroke="black" points="3269.79,-804.5 3279.79,-801 3269.79,-797.5 3269.79,-804.5"/>
</g>
<!-- b13 -->
<g id="node14" class="node">
<title>b13</title>
<polygon fill="white" stroke="black" points="3172,-433 2870,-433 2870,-381 3172,-381 3172,-433"/>
<text text-anchor="middle" x="3021" y="-421" font-family="Helvetica" font-size="10.00">B13</text>
<text text-anchor="middle" x="3021" y="-410" font-family="Helvetica" font-size="10.00">Loop: &lt;none&gt;</text>
<text text-anchor="middle" x="3021" y="-399" font-family="Helvetica" font-size="10.00">&#45;&#45;&#45;</text>
<text text-anchor="middle" x="3021" y="-388" font-family="Helvetica" font-size="10.00">HotSpotMethod&lt;LoopBenchmarks.histogramLoop(int[], int[], int)&gt;</text>
</g>
<!-- b13&#45;&gt;b14 -->
<g id="edge20" class="edge">
<title>b13&#45;&gt;b14</title>
<path fill="none" stroke="black" d="M3086.46,-433.03C3113.04,-443.92 3144.09,-456.86 3172,-469 3238.36,-497.88 3313.53,-532.48 3365.54,-556.72"/>
<polygon fill="black" stroke="black" points="3364.11,-559.91 3374.65,-560.97 3367.07,-553.57 3364.11,-559.91"/>
</g>
<!-- b15 -->
<g id="node16" class="node">
<title>b15</title>
<polygon fill="white" stroke="black" points="3992,-535 3690,-535 3690,-483 3992,-483 3992,-535"/>
<text text-anchor="middle" x="3841" y="-523" font-family="Helvetica" font-size="10.00">B15</text>
<text text-anchor="middle" x="3841" y="-512" font-family="Helvetica" font-size="10.00">Loop: &lt;none&gt;</text>
<text text-anchor="middle" x="3841" y="-501" font-family="Helvetica" font-size="10.00">&#45;&#45;&#45;</text>
<text text-anchor="middle" x="3841" y="-490" font-family="Helvetica" font-size="10.00">HotSpotMethod&lt;LoopBenchmarks.histogramLoop(int[], int[], int)&gt;</text>
</g>
<!-- b14&#45;&gt;b15 -->
<g id="edge21" class="edge">
<title>b14&#45;&gt;b15</title>
<path fill="none" stroke="black" d="M3568.14,-560.97C3608.5,-553.26 3652.85,-544.78 3693.81,-536.95"/>
<polygon fill="black" stroke="black" points="3694.71,-540.34 3703.87,-535.02 3693.39,-533.46 3694.71,-540.34"/>
</g>
<!-- b35 -->
<g id="node36" class="node">
<title>b35</title>
<polygon fill="white" stroke="black" points="3992,-670 3690,-670 3690,-618 3992,-618 3992,-670"/>
<text text-anchor="middle" x="3841" y="-658" font-family="Helvetica" font-size="10.00">B35</text>
<text text-anchor="middle" x="3841" y="-647" font-family="Helvetica" font-size="10.00">Loop: &lt;none&gt;</text>
<text text-anchor="middle" x="3841" y="-636" font-family="Helvetica" font-size="10.00">&#45;&#45;&#45;</text>
<text text-anchor="middle" x="3841" y="-625" font-family="Helvetica" font-size="10.00">HotSpotMethod&lt;LoopBenchmarks.histogramLoop(int[], int[], int)&gt;</text>
</g>
<!-- b14&#45;&gt;b35 -->
<g id="edge22" class="edge">
<title>b14&#45;&gt;b35</title>
<path fill="none" stroke="black" d="M3582.19,-607.98C3614,-612.43 3647.69,-617.13 3679.86,-621.63"/>
<polygon fill="black" stroke="black" points="3679.4,-625.1 3689.79,-623.01 3680.37,-618.16 3679.4,-625.1"/>
</g>
<!-- b16 -->
<g id="node17" class="node">
<title>b16</title>
<polygon fill="white" stroke="black" points="4402,-389 4100,-389 4100,-337 4402,-337 4402,-389"/>
<text text-anchor="middle" x="4251" y="-377" font-family="Helvetica" font-size="10.00">B16</text>
<text text-anchor="middle" x="4251" y="-366" font-family="Helvetica" font-size="10.00">Loop: &lt;none&gt;</text>
<text text-anchor="middle" x="4251" y="-355" font-family="Helvetica" font-size="10.00">&#45;&#45;&#45;</text>
<text text-anchor="middle" x="4251" y="-344" font-family="Helvetica" font-size="10.00">HotSpotMethod&lt;LoopBenchmarks.histogramLoop(int[], int[], int)&gt;</text>
</g>
<!-- b15&#45;&gt;b16 -->
<g id="edge23" class="edge">
<title>b15&#45;&gt;b16</title>
<path fill="none" stroke="black" d="M3914.94,-482.9C3985.8,-457.54 4093.23,-419.1 4167.24,-392.61"/>
<polygon fill="black" stroke="black" points="4168.77,-395.79 4177,-389.12 4166.41,-389.2 4168.77,-395.79"/>
</g>
<!-- b34 -->
<g id="node35" class="node">
<title>b34</title>
<polygon fill="white" stroke="black" points="4402,-535 4100,-535 4100,-483 4402,-483 4402,-535"/>
<text text-anchor="middle" x="4251" y="-523" font-family="Helvetica" font-size="10.00">B34</text>
<text text-anchor="middle" x="4251" y="-512" font-family="Helvetica" font-size="10.00">Loop: &lt;none&gt;</text>
<text text-anchor="middle" x="4251" y="-501" font-family="Helvetica" font-size="10.00">&#45;&#45;&#45;</text>
<text text-anchor="middle" x="4251" y="-490" font-family="Helvetica" font-size="10.00">HotSpotMethod&lt;LoopBenchmarks.histogramLoop(int[], int[], int)&gt;</text>
</g>
<!-- b15&#45;&gt;b34 -->
<g id="edge24" class="edge">
<title>b15&#45;&gt;b34</title>
<path fill="none" stroke="black" d="M3992.19,-509C4023.86,-509 4057.4,-509 4089.44,-509"/>
<polygon fill="black" stroke="black" points="4089.79,-512.5 4099.79,-509 4089.79,-505.5 4089.79,-512.5"/>
</g>
<!-- b17 -->
<g id="node18" class="node">
<title>b17</title>
<polygon fill="white" stroke="black" points="4812,-254 4510,-254 4510,-202 4812,-202 4812,-254"/>
<text text-anchor="middle" x="4661" y="-242" font-family="Helvetica" font-size="10.00">B17</text>
<text text-anchor="middle" x="4661" y="-231" font-family="Helvetica" font-size="10.00">Loop: &lt;none&gt;</text>
<text text-anchor="middle" x="4661" y="-220" font-family="Helvetica" font-size="10.00">&#45;&#45;&#45;</text>
<text text-anchor="middle" x="4661" y="-209" font-family="Helvetica" font-size="10.00">HotSpotMethod&lt;LoopBenchmarks.histogramLoop(int[], int[], int)&gt;</text>
</g>
<!-- b16&#45;&gt;b17 -->
<g id="edge25" class="edge">
<title>b16&#45;&gt;b17</title>
<path fill="none" stroke="black" d="M4330.67,-336.97C4399.56,-314.18 4499.58,-281.08 4571.3,-257.35"/>
<polygon fill="black" stroke="black" points="4572.83,-260.53 4581.23,-254.06 4570.63,-253.88 4572.83,-260.53"/>
</g>
<!-- b33 -->
<g id="node34" class="node">
<title>b33</title>
<polygon fill="white" stroke="black" points="4812,-389 4510,-389 4510,-337 4812,-337 4812,-389"/>
<text text-anchor="middle" x="4661" y="-377" font-family="Helvetica" font-size="10.00">B33</text>
<text text-anchor="middle" x="4661" y="-366" font-family="Helvetica" font-size="10.00">Loop: &lt;none&gt;</text>
<text text-anchor="middle" x="4661" y="-355" font-family="Helvetica" font-size="10.00">&#45;&#45;&#45;</text>
<text text-anchor="middle" x="4661" y="-344" font-family="Helvetica" font-size="10.00">HotSpotMethod&lt;LoopBenchmarks.histogramLoop(int[], int[], int)&gt;</text>
</g>
<!-- b16&#45;&gt;b33 -->
<g id="edge26" class="edge">
<title>b16&#45;&gt;b33</title>
<path fill="none" stroke="black" d="M4402.19,-363C4433.86,-363 4467.4,-363 4499.44,-363"/>
<polygon fill="black" stroke="black" points="4499.79,-366.5 4509.79,-363 4499.79,-359.5 4499.79,-366.5"/>
</g>
<!-- b18 -->
<g id="node19" class="node">
<title>b18</title>
<polygon fill="white" stroke="black" points="5222,-130 4920,-130 4920,-78 5222,-78 5222,-130"/>
<text text-anchor="middle" x="5071" y="-118" font-family="Helvetica" font-size="10.00">B18</text>
<text text-anchor="middle" x="5071" y="-107" font-family="Helvetica" font-size="10.00">Loop: &lt;none&gt;</text>
<text text-anchor="middle" x="5071" y="-96" font-family="Helvetica" font-size="10.00">&#45;&#45;&#45;</text>
<text text-anchor="middle" x="5071" y="-85" font-family="Helvetica" font-size="10.00">HotSpotMethod&lt;LoopBenchmarks.histogramLoop(int[], int[], int)&gt;</text>
</g>
<!-- b17&#45;&gt;b18 -->
<g id="edge27" class="edge">
<title>b17&#45;&gt;b18</title>
<path fill="none" stroke="black" d="M4748.03,-201.85C4814.32,-181.71 4905.94,-153.86 4974.5,-133.03"/>
<polygon fill="black" stroke="black" points="4975.89,-136.26 4984.44,-130 4973.85,-129.56 4975.89,-136.26"/>
</g>
<!-- b32 -->
<g id="node33" class="node">
<title>b32</title>
<polygon fill="white" stroke="black" points="5222,-254 4920,-254 4920,-202 5222,-202 5222,-254"/>
<text text-anchor="middle" x="5071" y="-242" font-family="Helvetica" font-size="10.00">B32</text>
<text text-anchor="middle" x="5071" y="-231" font-family="Helvetica" font-size="10.00">Loop: &lt;none&gt;</text>
<text text-anchor="middle" x="5071" y="-220" font-family="Helvetica" font-size="10.00">&#45;&#45;&#45;</text>
<text text-anchor="middle" x="5071" y="-209" font-family="Helvetica" font-size="10.00">HotSpotMethod&lt;LoopBenchmarks.histogramLoop(int[], int[], int)&gt;</text>
</g>
<!-- b17&#45;&gt;b32 -->
<g id="edge28" class="edge">
<title>b17&#45;&gt;b32</title>
<path fill="none" stroke="black" d="M4812.19,-228C4843.86,-228 4877.4,-228 4909.44,-228"/>
<polygon fill="black" stroke="black" points="4909.79,-231.5 4919.79,-228 4909.79,-224.5 4909.79,-231.5"/>
</g>
<!-- b19 -->
<g id="node20" class="node">
<title>b19</title>
<polygon fill="white" stroke="black" points="5632,-198 5330,-198 5330,-146 5632,-146 5632,-198"/>
<text text-anchor="middle" x="5481" y="-186" font-family="Helvetica" font-size="10.00">B19</text>
<text text-anchor="middle" x="5481" y="-175" font-family="Helvetica" font-size="10.00">Loop: &lt;none&gt;</text>
<text text-anchor="middle" x="5481" y="-164" font-family="Helvetica" font-size="10.00">&#45;&#45;&#45;</text>
<text text-anchor="middle" x="5481" y="-153" font-family="Helvetica" font-size="10.00">HotSpotMethod&lt;LoopBenchmarks.histogramLoop(int[], int[], int)&gt;</text>
</g>
<!-- b18&#45;&gt;b19 -->
<g id="edge29" class="edge">
<title>b18&#45;&gt;b19</title>
<path fill="none" stroke="black" d="M5222.19,-129.03C5254,-134.33 5287.69,-139.95 5319.86,-145.31"/>
<polygon fill="black" stroke="black" points="5319.35,-148.77 5329.79,-146.97 5320.5,-141.87 5319.35,-148.77"/>
</g>
<!-- b30 -->
<g id="node31" class="node">
<title>b30</title>
<polygon fill="white" stroke="black" points="6042,-63 5740,-63 5740,-11 6042,-11 6042,-63"/>
<text text-anchor="middle" x="5891" y="-51" font-family="Helvetica" font-size="10.00">B30</text>
<text text-anchor="middle" x="5891" y="-40" font-family="Helvetica" font-size="10.00">Loop: &lt;none&gt;</text>
<text text-anchor="middle" x="5891" y="-29" font-family="Helvetica" font-size="10.00">&#45;&#45;&#45;</text>
<text text-anchor="middle" x="5891" y="-18" font-family="Helvetica" font-size="10.00">HotSpotMethod&lt;LoopBenchmarks.histogramLoop(int[], int[], int)&gt;</text>
</g>
<!-- b18&#45;&gt;b30 -->
<g id="edge30" class="edge">
<title>b18&#45;&gt;b30</title>
<path fill="none" stroke="black" d="M5222.03,-91.71C5365.97,-79.92 5582.61,-62.18 5729.84,-50.12"/>
<polygon fill="black" stroke="black" points="5730.2,-53.6 5739.88,-49.3 5729.63,-46.62 5730.2,-53.6"/>
</g>
<!-- b20 -->
<g id="node21" class="node">
<title>b20</title>
<polygon fill="white" stroke="black" points="6042,-311 5740,-311 5740,-259 6042,-259 6042,-311"/>
<text text-anchor="middle" x="5891" y="-299" font-family="Helvetica" font-size="10.00">B20</text>
<text text-anchor="middle" x="5891" y="-288" font-family="Helvetica" font-size="10.00">Loop: &lt;none&gt;</text>
<text text-anchor="middle" x="5891" y="-277" font-family="Helvetica" font-size="10.00">&#45;&#45;&#45;</text>
<text text-anchor="middle" x="5891" y="-266" font-family="Helvetica" font-size="10.00">HotSpotMethod&lt;LoopBenchmarks.histogramLoop(int[], int[], int)&gt;</text>
</g>
<!-- b19&#45;&gt;b20 -->
<g id="edge31" class="edge">
<title>b19&#45;&gt;b20</title>
<path fill="none" stroke="black" d="M5576.12,-198.07C5638.9,-215.46 5721.49,-238.33 5786.19,-256.25"/>
<polygon fill="black" stroke="black" points="5785.43,-259.67 5796,-258.97 5787.3,-252.92 5785.43,-259.67"/>
</g>
<!-- b29 -->
<g id="node30" class="node">
<title>b29</title>
<polygon fill="white" stroke="black" points="6042,-187 5740,-187 5740,-135 6042,-135 6042,-187"/>
<text text-anchor="middle" x="5891" y="-175" font-family="Helvetica" font-size="10.00">B29</text>
<text text-anchor="middle" x="5891" y="-164" font-family="Helvetica" font-size="10.00">Loop: &lt;none&gt;</text>
<text text-anchor="middle" x="5891" y="-153" font-family="Helvetica" font-size="10.00">&#45;&#45;&#45;</text>
<text text-anchor="middle" x="5891" y="-142" font-family="Helvetica" font-size="10.00">HotSpotMethod&lt;LoopBenchmarks.histogramLoop(int[], int[], int)&gt;</text>
</g>
<!-- b19&#45;&gt;b29 -->
<g id="edge32" class="edge">
<title>b19&#45;&gt;b29</title>
<path fill="none" stroke="black" d="M5632.19,-167.95C5663.86,-167.1 5697.4,-166.19 5729.44,-165.33"/>
<polygon fill="black" stroke="black" points="5729.89,-168.82 5739.79,-165.05 5729.7,-161.82 5729.89,-168.82"/>
</g>
<!-- b21 -->
<g id="node22" class="node">
<title>b21</title>
<polygon fill="lightblue" stroke="black" points="6452,-311 6150,-311 6150,-259 6452,-259 6452,-311"/>
<text text-anchor="middle" x="6301" y="-299" font-family="Helvetica" font-size="10.00">B21</text>
<text text-anchor="middle" x="6301" y="-288" font-family="Helvetica" font-size="10.00">Loop: L0</text>
<text text-anchor="middle" x="6301" y="-277" font-family="Helvetica" font-size="10.00">&#45;&#45;&#45;</text>
<text text-anchor="middle" x="6301" y="-266" font-family="Helvetica" font-size="10.00">HotSpotMethod&lt;LoopBenchmarks.histogramLoop(int[], int[], int)&gt;</text>
</g>
<!-- b20&#45;&gt;b21 -->
<g id="edge33" class="edge">
<title>b20&#45;&gt;b21</title>
<path fill="none" stroke="black" d="M6042.19,-285C6073.86,-285 6107.4,-285 6139.44,-285"/>
<polygon fill="black" stroke="black" points="6139.79,-288.5 6149.79,-285 6139.79,-281.5 6139.79,-288.5"/>
</g>
<!-- b22 -->
<g id="node23" class="node">
<title>b22</title>
<polygon fill="lightblue" stroke="black" points="6862,-176 6560,-176 6560,-124 6862,-124 6862,-176"/>
<text text-anchor="middle" x="6711" y="-164" font-family="Helvetica" font-size="10.00">B22</text>
<text text-anchor="middle" x="6711" y="-153" font-family="Helvetica" font-size="10.00">Loop: L0</text>
<text text-anchor="middle" x="6711" y="-142" font-family="Helvetica" font-size="10.00">&#45;&#45;&#45;</text>
<text text-anchor="middle" x="6711" y="-131" font-family="Helvetica" font-size="10.00">HotSpotMethod&lt;LoopBenchmarks.histogramLoop(int[], int[], int)&gt;</text>
</g>
<!-- b21&#45;&gt;b22 -->
<g id="edge34" class="edge">
<title>b21&#45;&gt;b22</title>
<path fill="none" stroke="black" d="M6380.67,-258.97C6449.56,-236.18 6549.58,-203.08 6621.3,-179.35"/>
<polygon fill="black" stroke="black" points="6622.83,-182.53 6631.23,-176.06 6620.63,-175.88 6622.83,-182.53"/>
</g>
<!-- b27 -->
<g id="node28" class="node">
<title>b27</title>
<polygon fill="white" stroke="black" points="6862,-451 6560,-451 6560,-399 6862,-399 6862,-451"/>
<text text-anchor="middle" x="6711" y="-439" font-family="Helvetica" font-size="10.00">B27</text>
<text text-anchor="middle" x="6711" y="-428" font-family="Helvetica" font-size="10.00">Loop: &lt;none&gt;</text>
<text text-anchor="middle" x="6711" y="-417" font-family="Helvetica" font-size="10.00">&#45;&#45;&#45;</text>
<text text-anchor="middle" x="6711" y="-406" font-family="Helvetica" font-size="10.00">HotSpotMethod&lt;LoopBenchmarks.histogramLoop(int[], int[], int)&gt;</text>
</g>
<!-- b21&#45;&gt;b27 -->
<g id="edge35" class="edge">
<title>b21&#45;&gt;b27</title>
<path fill="none" stroke="black" d="M6377.79,-311C6447.7,-334.99 6551.4,-370.58 6624.3,-395.59"/>
<polygon fill="black" stroke="black" points="6623.33,-398.96 6633.93,-398.9 6625.61,-392.34 6623.33,-398.96"/>
</g>
<!-- b23 -->
<g id="node24" class="node">
<title>b23</title>
<polygon fill="lightblue" stroke="black" points="7272,-176 6970,-176 6970,-124 7272,-124 7272,-176"/>
<text text-anchor="middle" x="7121" y="-164" font-family="Helvetica" font-size="10.00">B23</text>
<text text-anchor="middle" x="7121" y="-153" font-family="Helvetica" font-size="10.00">Loop: L0</text>
<text text-anchor="middle" x="7121" y="-142" font-family="Helvetica" font-size="10.00">&#45;&#45;&#45;</text>
<text text-anchor="middle" x="7121" y="-131" font-family="Helvetica" font-size="10.00">HotSpotMethod&lt;LoopBenchmarks.histogramLoop(int[], int[], int)&gt;</text>
</g>
<!-- b22&#45;&gt;b23 -->
<g id="edge36" class="edge">
<title>b22&#45;&gt;b23</title>
<path fill="none" stroke="black" d="M6862.19,-150C6893.86,-150 6927.4,-150 6959.44,-150"/>
<polygon fill="black" stroke="black" points="6959.79,-153.5 6969.79,-150 6959.79,-146.5 6959.79,-153.5"/>
</g>
<!-- b26 -->
<g id="node27" class="node">
<title>b26</title>
<polygon fill="white" stroke="black" points="7272,-52 6970,-52 6970,0 7272,0 7272,-52"/>
<text text-anchor="middle" x="7121" y="-40" font-family="Helvetica" font-size="10.00">B26</text>
<text text-anchor="middle" x="7121" y="-29" font-family="Helvetica" font-size="10.00">Loop: &lt;none&gt;</text>
<text text-anchor="middle" x="7121" y="-18" font-family="Helvetica" font-size="10.00">&#45;&#45;&#45;</text>
<text text-anchor="middle" x="7121" y="-7" font-family="Helvetica" font-size="10.00">HotSpotMethod&lt;LoopBenchmarks.histogramLoop(int[], int[], int)&gt;</text>
</g>
<!-- b22&#45;&gt;b26 -->
<g id="edge37" class="edge">
<title>b22&#45;&gt;b26</title>
<path fill="none" stroke="black" d="M6798.03,-123.85C6864.32,-103.71 6955.94,-75.86 7024.5,-55.03"/>
<polygon fill="black" stroke="black" points="7025.89,-58.26 7034.44,-52 7023.85,-51.56 7025.89,-58.26"/>
</g>
<!-- b24 -->
<g id="node25" class="node">
<title>b24</title>
<polygon fill="lightblue" stroke="black" points="7682,-311 7380,-311 7380,-259 7682,-259 7682,-311"/>
<text text-anchor="middle" x="7531" y="-299" font-family="Helvetica" font-size="10.00">B24</text>
<text text-anchor="middle" x="7531" y="-288" font-family="Helvetica" font-size="10.00">Loop: L0</text>
<text text-anchor="middle" x="7531" y="-277" font-family="Helvetica" font-size="10.00">&#45;&#45;&#45;</text>
<text text-anchor="middle" x="7531" y="-266" font-family="Helvetica" font-size="10.00">HotSpotMethod&lt;LoopBenchmarks.histogramLoop(int[], int[], int)&gt;</text>
</g>
<!-- b23&#45;&gt;b24 -->
<g id="edge38" class="edge">
<title>b23&#45;&gt;b24</title>
<path fill="none" stroke="black" d="M7200.67,-176.03C7269.56,-198.82 7369.58,-231.92 7441.3,-255.65"/>
<polygon fill="black" stroke="black" points="7440.63,-259.12 7451.23,-258.94 7442.83,-252.47 7440.63,-259.12"/>
</g>
<!-- b25 -->
<g id="node26" class="node">
<title>b25</title>
<polygon fill="white" stroke="black" points="7682,-187 7380,-187 7380,-135 7682,-135 7682,-187"/>
<text text-anchor="middle" x="7531" y="-175" font-family="Helvetica" font-size="10.00">B25</text>
<text text-anchor="middle" x="7531" y="-164" font-family="Helvetica" font-size="10.00">Loop: &lt;none&gt;</text>
<text text-anchor="middle" x="7531" y="-153" font-family="Helvetica" font-size="10.00">&#45;&#45;&#45;</text>
<text text-anchor="middle" x="7531" y="-142" font-family="Helvetica" font-size="10.00">HotSpotMethod&lt;LoopBenchmarks.histogramLoop(int[], int[], int)&gt;</text>
</g>
<!-- b23&#45;&gt;b25 -->
<g id="edge39" class="edge">
<title>b23&#45;&gt;b25</title>
<path fill="none" stroke="black" d="M7272.19,-154.05C7303.86,-154.9 7337.4,-155.81 7369.44,-156.67"/>
<polygon fill="black" stroke="black" points="7369.7,-160.18 7379.79,-156.95 7369.89,-153.18 7369.7,-160.18"/>
</g>
<!-- b24&#45;&gt;b21 -->
<g id="edge40" class="edge">
<title>b24&#45;&gt;b21</title>
<path fill="none" stroke="black" d="M7379.55,-285C7146.73,-285 6701.16,-285 6462.43,-285"/>
<polygon fill="black" stroke="black" points="6462.27,-281.5 6452.27,-285 6462.27,-288.5 6462.27,-281.5"/>
</g>
<!-- b28 -->
<g id="node29" class="node">
<title>b28</title>
<polygon fill="white" stroke="black" points="8092,-187 7790,-187 7790,-135 8092,-135 8092,-187"/>
<text text-anchor="middle" x="7941" y="-175" font-family="Helvetica" font-size="10.00">B28</text>
<text text-anchor="middle" x="7941" y="-164" font-family="Helvetica" font-size="10.00">Loop: &lt;none&gt;</text>
<text text-anchor="middle" x="7941" y="-153" font-family="Helvetica" font-size="10.00">&#45;&#45;&#45;</text>
<text text-anchor="middle" x="7941" y="-142" font-family="Helvetica" font-size="10.00">HotSpotMethod&lt;LoopBenchmarks.histogramLoop(int[], int[], int)&gt;</text>
</g>
<!-- b25&#45;&gt;b28 -->
<g id="edge41" class="edge">
<title>b25&#45;&gt;b28</title>
<path fill="none" stroke="black" d="M7682.19,-161C7713.86,-161 7747.4,-161 7779.44,-161"/>
<polygon fill="black" stroke="black" points="7779.79,-164.5 7789.79,-161 7779.79,-157.5 7779.79,-164.5"/>
</g>
<!-- b26&#45;&gt;b28 -->
<g id="edge42" class="edge">
<title>b26&#45;&gt;b28</title>
<path fill="none" stroke="black" d="M7272.12,-41.19C7385.27,-53.7 7544.01,-73.5 7682,-99 7731.9,-108.22 7786.64,-120.99 7832.8,-132.54"/>
<polygon fill="black" stroke="black" points="7831.96,-135.94 7842.51,-134.99 7833.67,-129.15 7831.96,-135.94"/>
</g>
<!-- b27&#45;&gt;b28 -->
<g id="edge43" class="edge">
<title>b27&#45;&gt;b28</title>
<path fill="none" stroke="black" d="M6862.31,-437.37C7057.64,-448.04 7406.3,-448.4 7682,-347 7773.31,-313.42 7861.14,-237.96 7907.03,-194.17"/>
<polygon fill="black" stroke="black" points="7909.53,-196.62 7914.3,-187.16 7904.67,-191.58 7909.53,-196.62"/>
</g>
<!-- b31 -->
<g id="node32" class="node">
<title>b31</title>
<polygon fill="white" stroke="black" points="6452,-125 6150,-125 6150,-73 6452,-73 6452,-125"/>
<text text-anchor="middle" x="6301" y="-113" font-family="Helvetica" font-size="10.00">B31</text>
<text text-anchor="middle" x="6301" y="-102" font-family="Helvetica" font-size="10.00">Loop: &lt;none&gt;</text>
<text text-anchor="middle" x="6301" y="-91" font-family="Helvetica" font-size="10.00">&#45;&#45;&#45;</text>
<text text-anchor="middle" x="6301" y="-80" font-family="Helvetica" font-size="10.00">HotSpotMethod&lt;LoopBenchmarks.histogramLoop(int[], int[], int)&gt;</text>
</g>
<!-- b29&#45;&gt;b31 -->
<g id="edge44" class="edge">
<title>b29&#45;&gt;b31</title>
<path fill="none" stroke="black" d="M6042.19,-138.18C6074,-133.34 6107.69,-128.22 6139.86,-123.33"/>
<polygon fill="black" stroke="black" points="6140.43,-126.79 6149.79,-121.83 6139.38,-119.87 6140.43,-126.79"/>
</g>
<!-- b30&#45;&gt;b31 -->
<g id="edge45" class="edge">
<title>b30&#45;&gt;b31</title>
<path fill="none" stroke="black" d="M6042.19,-59.82C6074,-64.66 6107.69,-69.78 6139.86,-74.67"/>
<polygon fill="black" stroke="black" points="6139.38,-78.13 6149.79,-76.17 6140.43,-71.21 6139.38,-78.13"/>
</g>
<!-- b38 -->
<g id="node39" class="node">
<title>b38</title>
<polygon fill="white" stroke="black" points="5632,-608 5330,-608 5330,-556 5632,-556 5632,-608"/>
<text text-anchor="middle" x="5481" y="-596" font-family="Helvetica" font-size="10.00">B38</text>
<text text-anchor="middle" x="5481" y="-585" font-family="Helvetica" font-size="10.00">Loop: &lt;none&gt;</text>
<text text-anchor="middle" x="5481" y="-574" font-family="Helvetica" font-size="10.00">&#45;&#45;&#45;</text>
<text text-anchor="middle" x="5481" y="-563" font-family="Helvetica" font-size="10.00">HotSpotMethod&lt;LoopBenchmarks.histogramLoop(int[], int[], int)&gt;</text>
</g>
<!-- b32&#45;&gt;b38 -->
<g id="edge46" class="edge">
<title>b32&#45;&gt;b38</title>
<path fill="none" stroke="black" d="M5131.29,-254.06C5160.01,-268.04 5194.22,-286.76 5222,-308 5318.28,-381.6 5410.48,-492.38 5453.97,-547.83"/>
<polygon fill="black" stroke="black" points="5451.37,-550.19 5460.28,-555.92 5456.89,-545.88 5451.37,-550.19"/>
</g>
<!-- b33&#45;&gt;b38 -->
<g id="edge47" class="edge">
<title>b33&#45;&gt;b38</title>
<path fill="none" stroke="black" d="M4812.23,-375.1C4926.65,-387.25 5086.96,-410.62 5222,-454 5297.22,-478.16 5377.88,-521.26 5428.6,-550.72"/>
<polygon fill="black" stroke="black" points="5427.01,-553.84 5437.41,-555.87 5430.54,-547.8 5427.01,-553.84"/>
</g>
<!-- b34&#45;&gt;b38 -->
<g id="edge48" class="edge">
<title>b34&#45;&gt;b38</title>
<path fill="none" stroke="black" d="M4402.27,-517.93C4634.98,-531.77 5080.54,-558.25 5319.39,-572.45"/>
<polygon fill="black" stroke="black" points="5319.36,-575.96 5329.55,-573.06 5319.77,-568.97 5319.36,-575.96"/>
</g>
<!-- b35&#45;&gt;b38 -->
<g id="edge49" class="edge">
<title>b35&#45;&gt;b38</title>
<path fill="none" stroke="black" d="M3992.06,-645.39C4245.75,-646.68 4775.44,-644.77 5222,-613 5253.71,-610.74 5287.51,-607.38 5319.84,-603.69"/>
<polygon fill="black" stroke="black" points="5320.29,-607.16 5329.83,-602.54 5319.49,-600.21 5320.29,-607.16"/>
</g>
<!-- b36&#45;&gt;b38 -->
<g id="edge50" class="edge">
<title>b36&#45;&gt;b38</title>
<path fill="none" stroke="black" d="M3582.01,-801C3746.07,-801 4016.74,-801 4250,-801 4250,-801 4250,-801 4662,-801 4950.22,-801 5276.72,-672.57 5413.84,-612.41"/>
<polygon fill="black" stroke="black" points="5415.65,-615.44 5423.38,-608.2 5412.82,-609.03 5415.65,-615.44"/>
</g>
<!-- b37&#45;&gt;b38 -->
<g id="edge51" class="edge">
<title>b37&#45;&gt;b38</title>
<path fill="none" stroke="black" d="M2762.01,-947C2926.07,-947 3196.74,-947 3430,-947 3430,-947 3430,-947 4662,-947 4921.09,-947 4991.49,-903.29 5222,-785 5311.58,-739.03 5400.39,-659.83 5446.83,-615.16"/>
<polygon fill="black" stroke="black" points="5449.44,-617.5 5454.19,-608.03 5444.57,-612.48 5449.44,-617.5"/>
</g>
</g>
</svg>
