<?xml version="1.0" encoding="UTF-8" standalone="no"?>
<!DOCTYPE svg PUBLIC "-//W3C//DTD SVG 1.1//EN"
 "http://www.w3.org/Graphics/SVG/1.1/DTD/svg11.dtd">
<!-- Generated by graphviz version 2.44.0 (0)
 -->
<!-- Title: CFG_102 Pages: 1 -->
<svg width="6870pt" height="821pt"
 viewBox="0.00 0.00 6870.00 821.00" xmlns="http://www.w3.org/2000/svg" xmlns:xlink="http://www.w3.org/1999/xlink">
<g id="graph0" class="graph" transform="scale(1 1) rotate(0) translate(4 817)">
<title>CFG_102</title>
<polygon fill="white" stroke="transparent" points="-4,4 -4,-817 6866,-817 6866,4 -4,4"/>
<text text-anchor="middle" x="266.5" y="-793" font-family="Times-Roman" font-size="20.00">163&#45;LoopBenchmarks.histogramLoop(int[], int[], int)</text>
<!-- b0 -->
<g id="node1" class="node">
<title>b0</title>
<polygon fill="white" stroke="black" points="302,-301 0,-301 0,-249 302,-249 302,-301"/>
<text text-anchor="middle" x="151" y="-289" font-family="Helvetica" font-size="10.00">B0</text>
<text text-anchor="middle" x="151" y="-278" font-family="Helvetica" font-size="10.00">Loop: &lt;none&gt;</text>
<text text-anchor="middle" x="151" y="-267" font-family="Helvetica" font-size="10.00">&#45;&#45;&#45;</text>
<text text-anchor="middle" x="151" y="-256" font-family="Helvetica" font-size="10.00">HotSpotMethod&lt;LoopBenchmarks.histogramLoop(int[], int[], int)&gt;</text>
</g>
<!-- b2 -->
<g id="node3" class="node">
<title>b2</title>
<polygon fill="white" stroke="black" points="712,-431 410,-431 410,-379 712,-379 712,-431"/>
<text text-anchor="middle" x="561" y="-419" font-family="Helvetica" font-size="10.00">B2</text>
<text text-anchor="middle" x="561" y="-408" font-family="Helvetica" font-size="10.00">Loop: &lt;none&gt;</text>
<text text-anchor="middle" x="561" y="-397" font-family="Helvetica" font-size="10.00">&#45;&#45;&#45;</text>
<text text-anchor="middle" x="561" y="-386" font-family="Helvetica" font-size="10.00">HotSpotMethod&lt;LoopBenchmarks.histogramLoop(int[], int[], int)&gt;</text>
</g>
<!-- b0&#45;&gt;b2 -->
<g id="edge2" class="edge">
<title>b0&#45;&gt;b2</title>
<path fill="none" stroke="black" d="M234.07,-301.15C301.86,-322.75 398.01,-353.39 468.31,-375.79"/>
<polygon fill="black" stroke="black" points="467.47,-379.19 478.06,-378.89 469.59,-372.52 467.47,-379.19"/>
</g>
<!-- b7 -->
<g id="node8" class="node">
<title>b7</title>
<polygon fill="white" stroke="black" points="1532,-296 1230,-296 1230,-244 1532,-244 1532,-296"/>
<text text-anchor="middle" x="1381" y="-284" font-family="Helvetica" font-size="10.00">B7</text>
<text text-anchor="middle" x="1381" y="-273" font-family="Helvetica" font-size="10.00">Loop: &lt;none&gt;</text>
<text text-anchor="middle" x="1381" y="-262" font-family="Helvetica" font-size="10.00">&#45;&#45;&#45;</text>
<text text-anchor="middle" x="1381" y="-251" font-family="Helvetica" font-size="10.00">HotSpotMethod&lt;LoopBenchmarks.histogramLoop(int[], int[], int)&gt;</text>
</g>
<!-- b0&#45;&gt;b7 -->
<g id="edge1" class="edge">
<title>b0&#45;&gt;b7</title>
<path fill="none" stroke="black" d="M302.27,-274.39C534.98,-273.44 980.54,-271.63 1219.39,-270.65"/>
<polygon fill="black" stroke="black" points="1219.56,-274.15 1229.55,-270.61 1219.53,-267.15 1219.56,-274.15"/>
</g>
<!-- b1 -->
<g id="node2" class="node">
<title>b1</title>
<polygon fill="white" stroke="black" points="1122,-99 820,-99 820,-47 1122,-47 1122,-99"/>
<text text-anchor="middle" x="971" y="-87" font-family="Helvetica" font-size="10.00">B1</text>
<text text-anchor="middle" x="971" y="-76" font-family="Helvetica" font-size="10.00">Loop: &lt;none&gt;</text>
<text text-anchor="middle" x="971" y="-65" font-family="Helvetica" font-size="10.00">&#45;&#45;&#45;</text>
<text text-anchor="middle" x="971" y="-54" font-family="Helvetica" font-size="10.00">HotSpotMethod&lt;LoopBenchmarks.histogramLoop(int[], int[], int)&gt;</text>
</g>
<!-- b1&#45;&gt;b7 -->
<g id="edge3" class="edge">
<title>b1&#45;&gt;b7</title>
<path fill="none" stroke="black" d="M1026.18,-99.16C1101.27,-135.42 1236.72,-200.82 1316.48,-239.33"/>
<polygon fill="black" stroke="black" points="1315.39,-242.69 1325.92,-243.89 1318.44,-236.39 1315.39,-242.69"/>
</g>
<!-- b3 -->
<g id="node4" class="node">
<title>b3</title>
<polygon fill="lightblue" stroke="black" points="1122,-493 820,-493 820,-441 1122,-441 1122,-493"/>
<text text-anchor="middle" x="971" y="-481" font-family="Helvetica" font-size="10.00">B3</text>
<text text-anchor="middle" x="971" y="-470" font-family="Helvetica" font-size="10.00">Loop: L0</text>
<text text-anchor="middle" x="971" y="-459" font-family="Helvetica" font-size="10.00">&#45;&#45;&#45;</text>
<text text-anchor="middle" x="971" y="-448" font-family="Helvetica" font-size="10.00">HotSpotMethod&lt;LoopBenchmarks.histogramLoop(int[], int[], int)&gt;</text>
</g>
<!-- b2&#45;&gt;b3 -->
<g id="edge4" class="edge">
<title>b2&#45;&gt;b3</title>
<path fill="none" stroke="black" d="M712.19,-427.82C744,-432.66 777.69,-437.78 809.86,-442.67"/>
<polygon fill="black" stroke="black" points="809.38,-446.13 819.79,-444.17 810.43,-439.21 809.38,-446.13"/>
</g>
<!-- b4 -->
<g id="node5" class="node">
<title>b4</title>
<polygon fill="lightblue" stroke="black" points="1532,-597 1230,-597 1230,-545 1532,-545 1532,-597"/>
<text text-anchor="middle" x="1381" y="-585" font-family="Helvetica" font-size="10.00">B4</text>
<text text-anchor="middle" x="1381" y="-574" font-family="Helvetica" font-size="10.00">Loop: L0</text>
<text text-anchor="middle" x="1381" y="-563" font-family="Helvetica" font-size="10.00">&#45;&#45;&#45;</text>
<text text-anchor="middle" x="1381" y="-552" font-family="Helvetica" font-size="10.00">HotSpotMethod&lt;LoopBenchmarks.histogramLoop(int[], int[], int)&gt;</text>
</g>
<!-- b3&#45;&gt;b4 -->
<g id="edge5" class="edge">
<title>b3&#45;&gt;b4</title>
<path fill="none" stroke="black" d="M1074.17,-493.04C1133.08,-508.06 1207.24,-526.96 1267.78,-542.39"/>
<polygon fill="black" stroke="black" points="1267.2,-545.86 1277.76,-544.94 1268.93,-539.08 1267.2,-545.86"/>
</g>
<!-- b3&#45;&gt;b7 -->
<g id="edge6" class="edge">
<title>b3&#45;&gt;b7</title>
<path fill="none" stroke="black" d="M1038.64,-440.96C1064.86,-430.32 1095.07,-417.58 1122,-405 1192.86,-371.9 1272.3,-329.5 1324.07,-301.13"/>
<polygon fill="black" stroke="black" points="1326.01,-304.06 1333.09,-296.18 1322.64,-297.93 1326.01,-304.06"/>
</g>
<!-- b5 -->
<g id="node6" class="node">
<title>b5</title>
<polygon fill="lightblue" stroke="black" points="1942,-468 1640,-468 1640,-416 1942,-416 1942,-468"/>
<text text-anchor="middle" x="1791" y="-456" font-family="Helvetica" font-size="10.00">B5</text>
<text text-anchor="middle" x="1791" y="-445" font-family="Helvetica" font-size="10.00">Loop: L0</text>
<text text-anchor="middle" x="1791" y="-434" font-family="Helvetica" font-size="10.00">&#45;&#45;&#45;</text>
<text text-anchor="middle" x="1791" y="-423" font-family="Helvetica" font-size="10.00">HotSpotMethod&lt;LoopBenchmarks.histogramLoop(int[], int[], int)&gt;</text>
</g>
<!-- b4&#45;&gt;b5 -->
<g id="edge7" class="edge">
<title>b4&#45;&gt;b5</title>
<path fill="none" stroke="black" d="M1464.56,-544.89C1532.17,-523.52 1627.75,-493.3 1697.84,-471.14"/>
<polygon fill="black" stroke="black" points="1699.08,-474.42 1707.56,-468.07 1696.97,-467.74 1699.08,-474.42"/>
</g>
<!-- b34 -->
<g id="node35" class="node">
<title>b34</title>
<polygon fill="white" stroke="black" points="1942,-597 1640,-597 1640,-545 1942,-545 1942,-597"/>
<text text-anchor="middle" x="1791" y="-585" font-family="Helvetica" font-size="10.00">B34</text>
<text text-anchor="middle" x="1791" y="-574" font-family="Helvetica" font-size="10.00">Loop: &lt;none&gt;</text>
<text text-anchor="middle" x="1791" y="-563" font-family="Helvetica" font-size="10.00">&#45;&#45;&#45;</text>
<text text-anchor="middle" x="1791" y="-552" font-family="Helvetica" font-size="10.00">HotSpotMethod&lt;LoopBenchmarks.histogramLoop(int[], int[], int)&gt;</text>
</g>
<!-- b4&#45;&gt;b34 -->
<g id="edge8" class="edge">
<title>b4&#45;&gt;b34</title>
<path fill="none" stroke="black" d="M1532.19,-571C1563.86,-571 1597.4,-571 1629.44,-571"/>
<polygon fill="black" stroke="black" points="1629.79,-574.5 1639.79,-571 1629.79,-567.5 1629.79,-574.5"/>
</g>
<!-- b5&#45;&gt;b3 -->
<g id="edge9" class="edge">
<title>b5&#45;&gt;b3</title>
<path fill="none" stroke="black" d="M1639.88,-446.59C1495.91,-450.99 1279.28,-457.61 1132.07,-462.11"/>
<polygon fill="black" stroke="black" points="1131.92,-458.61 1122.03,-462.41 1132.14,-465.61 1131.92,-458.61"/>
</g>
<!-- b6 -->
<g id="node7" class="node">
<title>b6</title>
<polygon fill="white" stroke="black" points="1122,-369 820,-369 820,-317 1122,-317 1122,-369"/>
<text text-anchor="middle" x="971" y="-357" font-family="Helvetica" font-size="10.00">B6</text>
<text text-anchor="middle" x="971" y="-346" font-family="Helvetica" font-size="10.00">Loop: &lt;none&gt;</text>
<text text-anchor="middle" x="971" y="-335" font-family="Helvetica" font-size="10.00">&#45;&#45;&#45;</text>
<text text-anchor="middle" x="971" y="-324" font-family="Helvetica" font-size="10.00">HotSpotMethod&lt;LoopBenchmarks.histogramLoop(int[], int[], int)&gt;</text>
</g>
<!-- b6&#45;&gt;b7 -->
<g id="edge10" class="edge">
<title>b6&#45;&gt;b7</title>
<path fill="none" stroke="black" d="M1117.57,-316.95C1152.29,-310.74 1189.49,-304.09 1224.63,-297.8"/>
<polygon fill="black" stroke="black" points="1225.26,-301.24 1234.49,-296.04 1224.03,-294.35 1225.26,-301.24"/>
</g>
<!-- b9 -->
<g id="node10" class="node">
<title>b9</title>
<polygon fill="white" stroke="black" points="1942,-333 1640,-333 1640,-281 1942,-281 1942,-333"/>
<text text-anchor="middle" x="1791" y="-321" font-family="Helvetica" font-size="10.00">B9</text>
<text text-anchor="middle" x="1791" y="-310" font-family="Helvetica" font-size="10.00">Loop: &lt;none&gt;</text>
<text text-anchor="middle" x="1791" y="-299" font-family="Helvetica" font-size="10.00">&#45;&#45;&#45;</text>
<text text-anchor="middle" x="1791" y="-288" font-family="Helvetica" font-size="10.00">HotSpotMethod&lt;LoopBenchmarks.histogramLoop(int[], int[], int)&gt;</text>
</g>
<!-- b7&#45;&gt;b9 -->
<g id="edge12" class="edge">
<title>b7&#45;&gt;b9</title>
<path fill="none" stroke="black" d="M1532.19,-283.62C1563.86,-286.49 1597.4,-289.53 1629.44,-292.44"/>
<polygon fill="black" stroke="black" points="1629.52,-295.96 1639.79,-293.38 1630.15,-288.99 1629.52,-295.96"/>
</g>
<!-- b26 -->
<g id="node27" class="node">
<title>b26</title>
<polygon fill="white" stroke="black" points="5222,-198 4920,-198 4920,-146 5222,-146 5222,-198"/>
<text text-anchor="middle" x="5071" y="-186" font-family="Helvetica" font-size="10.00">B26</text>
<text text-anchor="middle" x="5071" y="-175" font-family="Helvetica" font-size="10.00">Loop: &lt;none&gt;</text>
<text text-anchor="middle" x="5071" y="-164" font-family="Helvetica" font-size="10.00">&#45;&#45;&#45;</text>
<text text-anchor="middle" x="5071" y="-153" font-family="Helvetica" font-size="10.00">HotSpotMethod&lt;LoopBenchmarks.histogramLoop(int[], int[], int)&gt;</text>
</g>
<!-- b7&#45;&gt;b26 -->
<g id="edge11" class="edge">
<title>b7&#45;&gt;b26</title>
<path fill="none" stroke="black" d="M1501.57,-243.96C1660.33,-211.72 1949.82,-161 2200,-161 2200,-161 2200,-161 4252,-161 4480.49,-161 4744.86,-165.34 4909.77,-168.57"/>
<polygon fill="black" stroke="black" points="4909.93,-172.08 4919.99,-168.77 4910.06,-165.08 4909.93,-172.08"/>
</g>
<!-- b8 -->
<g id="node9" class="node">
<title>b8</title>
<polygon fill="white" stroke="black" points="4812,-52 4510,-52 4510,0 4812,0 4812,-52"/>
<text text-anchor="middle" x="4661" y="-40" font-family="Helvetica" font-size="10.00">B8</text>
<text text-anchor="middle" x="4661" y="-29" font-family="Helvetica" font-size="10.00">Loop: &lt;none&gt;</text>
<text text-anchor="middle" x="4661" y="-18" font-family="Helvetica" font-size="10.00">&#45;&#45;&#45;</text>
<text text-anchor="middle" x="4661" y="-7" font-family="Helvetica" font-size="10.00">HotSpotMethod&lt;LoopBenchmarks.histogramLoop(int[], int[], int)&gt;</text>
</g>
<!-- b8&#45;&gt;b26 -->
<g id="edge13" class="edge">
<title>b8&#45;&gt;b26</title>
<path fill="none" stroke="black" d="M4734.94,-52.1C4805.8,-77.46 4913.23,-115.9 4987.24,-142.39"/>
<polygon fill="black" stroke="black" points="4986.41,-145.8 4997,-145.88 4988.77,-139.21 4986.41,-145.8"/>
</g>
<!-- b11 -->
<g id="node12" class="node">
<title>b11</title>
<polygon fill="white" stroke="black" points="2352,-592 2050,-592 2050,-540 2352,-540 2352,-592"/>
<text text-anchor="middle" x="2201" y="-580" font-family="Helvetica" font-size="10.00">B11</text>
<text text-anchor="middle" x="2201" y="-569" font-family="Helvetica" font-size="10.00">Loop: &lt;none&gt;</text>
<text text-anchor="middle" x="2201" y="-558" font-family="Helvetica" font-size="10.00">&#45;&#45;&#45;</text>
<text text-anchor="middle" x="2201" y="-547" font-family="Helvetica" font-size="10.00">HotSpotMethod&lt;LoopBenchmarks.histogramLoop(int[], int[], int)&gt;</text>
</g>
<!-- b9&#45;&gt;b11 -->
<g id="edge15" class="edge">
<title>b9&#45;&gt;b11</title>
<path fill="none" stroke="black" d="M1851.64,-333.15C1879.66,-346.16 1913.16,-362.76 1942,-380 2022.59,-428.17 2109.94,-494.41 2159.52,-533.46"/>
<polygon fill="black" stroke="black" points="2157.43,-536.27 2167.44,-539.72 2161.77,-530.78 2157.43,-536.27"/>
</g>
<!-- b14 -->
<g id="node15" class="node">
<title>b14</title>
<polygon fill="white" stroke="black" points="3582,-468 3280,-468 3280,-416 3582,-416 3582,-468"/>
<text text-anchor="middle" x="3431" y="-456" font-family="Helvetica" font-size="10.00">B14</text>
<text text-anchor="middle" x="3431" y="-445" font-family="Helvetica" font-size="10.00">Loop: &lt;none&gt;</text>
<text text-anchor="middle" x="3431" y="-434" font-family="Helvetica" font-size="10.00">&#45;&#45;&#45;</text>
<text text-anchor="middle" x="3431" y="-423" font-family="Helvetica" font-size="10.00">HotSpotMethod&lt;LoopBenchmarks.histogramLoop(int[], int[], int)&gt;</text>
</g>
<!-- b9&#45;&gt;b14 -->
<g id="edge14" class="edge">
<title>b9&#45;&gt;b14</title>
<path fill="none" stroke="black" d="M1942.21,-305.99C2196.67,-306.27 2728.17,-315.49 3172,-380 3224.56,-387.64 3282.11,-400.97 3329.5,-413.32"/>
<polygon fill="black" stroke="black" points="3328.89,-416.78 3339.45,-415.94 3330.67,-410.01 3328.89,-416.78"/>
</g>
<!-- b10 -->
<g id="node11" class="node">
<title>b10</title>
<polygon fill="white" stroke="black" points="3172,-592 2870,-592 2870,-540 3172,-540 3172,-592"/>
<text text-anchor="middle" x="3021" y="-580" font-family="Helvetica" font-size="10.00">B10</text>
<text text-anchor="middle" x="3021" y="-569" font-family="Helvetica" font-size="10.00">Loop: &lt;none&gt;</text>
<text text-anchor="middle" x="3021" y="-558" font-family="Helvetica" font-size="10.00">&#45;&#45;&#45;</text>
<text text-anchor="middle" x="3021" y="-547" font-family="Helvetica" font-size="10.00">HotSpotMethod&lt;LoopBenchmarks.histogramLoop(int[], int[], int)&gt;</text>
</g>
<!-- b10&#45;&gt;b14 -->
<g id="edge16" class="edge">
<title>b10&#45;&gt;b14</title>
<path fill="none" stroke="black" d="M3108.03,-539.85C3174.32,-519.71 3265.94,-491.86 3334.5,-471.03"/>
<polygon fill="black" stroke="black" points="3335.89,-474.26 3344.44,-468 3333.85,-467.56 3335.89,-474.26"/>
</g>
<!-- b12 -->
<g id="node13" class="node">
<title>b12</title>
<polygon fill="white" stroke="black" points="2762,-592 2460,-592 2460,-540 2762,-540 2762,-592"/>
<text text-anchor="middle" x="2611" y="-580" font-family="Helvetica" font-size="10.00">B12</text>
<text text-anchor="middle" x="2611" y="-569" font-family="Helvetica" font-size="10.00">Loop: &lt;none&gt;</text>
<text text-anchor="middle" x="2611" y="-558" font-family="Helvetica" font-size="10.00">&#45;&#45;&#45;</text>
<text text-anchor="middle" x="2611" y="-547" font-family="Helvetica" font-size="10.00">HotSpotMethod&lt;LoopBenchmarks.histogramLoop(int[], int[], int)&gt;</text>
</g>
<!-- b11&#45;&gt;b12 -->
<g id="edge17" class="edge">
<title>b11&#45;&gt;b12</title>
<path fill="none" stroke="black" d="M2352.19,-566C2383.86,-566 2417.4,-566 2449.44,-566"/>
<polygon fill="black" stroke="black" points="2449.79,-569.5 2459.79,-566 2449.79,-562.5 2449.79,-569.5"/>
</g>
<!-- b32 -->
<g id="node33" class="node">
<title>b32</title>
<polygon fill="white" stroke="black" points="2762,-783 2460,-783 2460,-731 2762,-731 2762,-783"/>
<text text-anchor="middle" x="2611" y="-771" font-family="Helvetica" font-size="10.00">B32</text>
<text text-anchor="middle" x="2611" y="-760" font-family="Helvetica" font-size="10.00">Loop: &lt;none&gt;</text>
<text text-anchor="middle" x="2611" y="-749" font-family="Helvetica" font-size="10.00">&#45;&#45;&#45;</text>
<text text-anchor="middle" x="2611" y="-738" font-family="Helvetica" font-size="10.00">HotSpotMethod&lt;LoopBenchmarks.histogramLoop(int[], int[], int)&gt;</text>
</g>
<!-- b11&#45;&gt;b32 -->
<g id="edge18" class="edge">
<title>b11&#45;&gt;b32</title>
<path fill="none" stroke="black" d="M2257.88,-592.16C2332.74,-627.21 2465.37,-689.29 2544.74,-726.45"/>
<polygon fill="black" stroke="black" points="2543.61,-729.78 2554.15,-730.85 2546.57,-723.44 2543.61,-729.78"/>
</g>
<!-- b13 -->
<g id="node14" class="node">
<title>b13</title>
<polygon fill="white" stroke="black" points="3172,-468 2870,-468 2870,-416 3172,-416 3172,-468"/>
<text text-anchor="middle" x="3021" y="-456" font-family="Helvetica" font-size="10.00">B13</text>
<text text-anchor="middle" x="3021" y="-445" font-family="Helvetica" font-size="10.00">Loop: &lt;none&gt;</text>
<text text-anchor="middle" x="3021" y="-434" font-family="Helvetica" font-size="10.00">&#45;&#45;&#45;</text>
<text text-anchor="middle" x="3021" y="-423" font-family="Helvetica" font-size="10.00">HotSpotMethod&lt;LoopBenchmarks.histogramLoop(int[], int[], int)&gt;</text>
</g>
<!-- b12&#45;&gt;b13 -->
<g id="edge19" class="edge">
<title>b12&#45;&gt;b13</title>
<path fill="none" stroke="black" d="M2698.03,-539.85C2764.32,-519.71 2855.94,-491.86 2924.5,-471.03"/>
<polygon fill="black" stroke="black" points="2925.89,-474.26 2934.44,-468 2923.85,-467.56 2925.89,-474.26"/>
</g>
<!-- b31 -->
<g id="node32" class="node">
<title>b31</title>
<polygon fill="white" stroke="black" points="3172,-716 2870,-716 2870,-664 3172,-664 3172,-716"/>
<text text-anchor="middle" x="3021" y="-704" font-family="Helvetica" font-size="10.00">B31</text>
<text text-anchor="middle" x="3021" y="-693" font-family="Helvetica" font-size="10.00">Loop: &lt;none&gt;</text>
<text text-anchor="middle" x="3021" y="-682" font-family="Helvetica" font-size="10.00">&#45;&#45;&#45;</text>
<text text-anchor="middle" x="3021" y="-671" font-family="Helvetica" font-size="10.00">HotSpotMethod&lt;LoopBenchmarks.histogramLoop(int[], int[], int)&gt;</text>
</g>
<!-- b12&#45;&gt;b31 -->
<g id="edge20" class="edge">
<title>b12&#45;&gt;b31</title>
<path fill="none" stroke="black" d="M2698.03,-592.15C2764.32,-612.29 2855.94,-640.14 2924.5,-660.97"/>
<polygon fill="black" stroke="black" points="2923.85,-664.44 2934.44,-664 2925.89,-657.74 2923.85,-664.44"/>
</g>
<!-- b13&#45;&gt;b14 -->
<g id="edge21" class="edge">
<title>b13&#45;&gt;b14</title>
<path fill="none" stroke="black" d="M3172.19,-442C3203.86,-442 3237.4,-442 3269.44,-442"/>
<polygon fill="black" stroke="black" points="3269.79,-445.5 3279.79,-442 3269.79,-438.5 3269.79,-445.5"/>
</g>
<!-- b16 -->
<g id="node17" class="node">
<title>b16</title>
<polygon fill="white" stroke="black" points="3992,-716 3690,-716 3690,-664 3992,-664 3992,-716"/>
<text text-anchor="middle" x="3841" y="-704" font-family="Helvetica" font-size="10.00">B16</text>
<text text-anchor="middle" x="3841" y="-693" font-family="Helvetica" font-size="10.00">Loop: &lt;none&gt;</text>
<text text-anchor="middle" x="3841" y="-682" font-family="Helvetica" font-size="10.00">&#45;&#45;&#45;</text>
<text text-anchor="middle" x="3841" y="-671" font-family="Helvetica" font-size="10.00">HotSpotMethod&lt;LoopBenchmarks.histogramLoop(int[], int[], int)&gt;</text>
</g>
<!-- b14&#45;&gt;b16 -->
<g id="edge23" class="edge">
<title>b14&#45;&gt;b16</title>
<path fill="none" stroke="black" d="M3462.98,-468.01C3509.87,-506.52 3602.69,-579.36 3690,-628 3711.32,-639.88 3735.39,-650.82 3757.9,-660.09"/>
<polygon fill="black" stroke="black" points="3756.86,-663.45 3767.45,-663.96 3759.49,-656.96 3756.86,-663.45"/>
</g>
<!-- b18 -->
<g id="node19" class="node">
<title>b18</title>
<polygon fill="white" stroke="black" points="4402,-468 4100,-468 4100,-416 4402,-416 4402,-468"/>
<text text-anchor="middle" x="4251" y="-456" font-family="Helvetica" font-size="10.00">B18</text>
<text text-anchor="middle" x="4251" y="-445" font-family="Helvetica" font-size="10.00">Loop: &lt;none&gt;</text>
<text text-anchor="middle" x="4251" y="-434" font-family="Helvetica" font-size="10.00">&#45;&#45;&#45;</text>
<text text-anchor="middle" x="4251" y="-423" font-family="Helvetica" font-size="10.00">HotSpotMethod&lt;LoopBenchmarks.histogramLoop(int[], int[], int)&gt;</text>
</g>
<!-- b14&#45;&gt;b18 -->
<g id="edge22" class="edge">
<title>b14&#45;&gt;b18</title>
<path fill="none" stroke="black" d="M3517.96,-415.96C3567.7,-402.26 3631.79,-386.9 3690,-380 3823.29,-364.21 3858.71,-364.21 3992,-380 4046.46,-386.45 4106.06,-400.31 4154.25,-413.29"/>
<polygon fill="black" stroke="black" points="4153.47,-416.71 4164.04,-415.96 4155.31,-409.95 4153.47,-416.71"/>
</g>
<!-- b15 -->
<g id="node16" class="node">
<title>b15</title>
<polygon fill="white" stroke="black" points="3992,-592 3690,-592 3690,-540 3992,-540 3992,-592"/>
<text text-anchor="middle" x="3841" y="-580" font-family="Helvetica" font-size="10.00">B15</text>
<text text-anchor="middle" x="3841" y="-569" font-family="Helvetica" font-size="10.00">Loop: &lt;none&gt;</text>
<text text-anchor="middle" x="3841" y="-558" font-family="Helvetica" font-size="10.00">&#45;&#45;&#45;</text>
<text text-anchor="middle" x="3841" y="-547" font-family="Helvetica" font-size="10.00">HotSpotMethod&lt;LoopBenchmarks.histogramLoop(int[], int[], int)&gt;</text>
</g>
<!-- b15&#45;&gt;b18 -->
<g id="edge24" class="edge">
<title>b15&#45;&gt;b18</title>
<path fill="none" stroke="black" d="M3928.03,-539.85C3994.32,-519.71 4085.94,-491.86 4154.5,-471.03"/>
<polygon fill="black" stroke="black" points="4155.89,-474.26 4164.44,-468 4153.85,-467.56 4155.89,-474.26"/>
</g>
<!-- b16&#45;&gt;b18 -->
<g id="edge25" class="edge">
<title>b16&#45;&gt;b18</title>
<path fill="none" stroke="black" d="M3914.55,-663.96C3939.68,-653.93 3967.63,-641.58 3992,-628 4074.71,-581.92 4162.36,-514.13 4211.23,-474.38"/>
<polygon fill="black" stroke="black" points="4213.5,-477.05 4219.02,-468.01 4209.07,-471.63 4213.5,-477.05"/>
</g>
<!-- b30 -->
<g id="node31" class="node">
<title>b30</title>
<polygon fill="white" stroke="black" points="4402,-716 4100,-716 4100,-664 4402,-664 4402,-716"/>
<text text-anchor="middle" x="4251" y="-704" font-family="Helvetica" font-size="10.00">B30</text>
<text text-anchor="middle" x="4251" y="-693" font-family="Helvetica" font-size="10.00">Loop: &lt;none&gt;</text>
<text text-anchor="middle" x="4251" y="-682" font-family="Helvetica" font-size="10.00">&#45;&#45;&#45;</text>
<text text-anchor="middle" x="4251" y="-671" font-family="Helvetica" font-size="10.00">HotSpotMethod&lt;LoopBenchmarks.histogramLoop(int[], int[], int)&gt;</text>
</g>
<!-- b16&#45;&gt;b30 -->
<g id="edge26" class="edge">
<title>b16&#45;&gt;b30</title>
<path fill="none" stroke="black" d="M3992.19,-690C4023.86,-690 4057.4,-690 4089.44,-690"/>
<polygon fill="black" stroke="black" points="4089.79,-693.5 4099.79,-690 4089.79,-686.5 4089.79,-693.5"/>
</g>
<!-- b17 -->
<g id="node18" class="node">
<title>b17</title>
<polygon fill="white" stroke="black" points="3992,-468 3690,-468 3690,-416 3992,-416 3992,-468"/>
<text text-anchor="middle" x="3841" y="-456" font-family="Helvetica" font-size="10.00">B17</text>
<text text-anchor="middle" x="3841" y="-445" font-family="Helvetica" font-size="10.00">Loop: &lt;none&gt;</text>
<text text-anchor="middle" x="3841" y="-434" font-family="Helvetica" font-size="10.00">&#45;&#45;&#45;</text>
<text text-anchor="middle" x="3841" y="-423" font-family="Helvetica" font-size="10.00">HotSpotMethod&lt;LoopBenchmarks.histogramLoop(int[], int[], int)&gt;</text>
</g>
<!-- b17&#45;&gt;b18 -->
<g id="edge27" class="edge">
<title>b17&#45;&gt;b18</title>
<path fill="none" stroke="black" d="M3992.19,-442C4023.86,-442 4057.4,-442 4089.44,-442"/>
<polygon fill="black" stroke="black" points="4089.79,-445.5 4099.79,-442 4089.79,-438.5 4089.79,-445.5"/>
</g>
<!-- b19 -->
<g id="node20" class="node">
<title>b19</title>
<polygon fill="lightgreen" stroke="black" points="4812,-462 4510,-462 4510,-410 4812,-410 4812,-462"/>
<text text-anchor="middle" x="4661" y="-450" font-family="Helvetica" font-size="10.00">B19</text>
<text text-anchor="middle" x="4661" y="-439" font-family="Helvetica" font-size="10.00">Loop: L1</text>
<text text-anchor="middle" x="4661" y="-428" font-family="Helvetica" font-size="10.00">&#45;&#45;&#45;</text>
<text text-anchor="middle" x="4661" y="-417" font-family="Helvetica" font-size="10.00">HotSpotMethod&lt;LoopBenchmarks.histogramLoop(int[], int[], int)&gt;</text>
</g>
<!-- b18&#45;&gt;b19 -->
<g id="edge28" class="edge">
<title>b18&#45;&gt;b19</title>
<path fill="none" stroke="black" d="M4402.19,-439.79C4433.86,-439.33 4467.4,-438.83 4499.44,-438.36"/>
<polygon fill="black" stroke="black" points="4499.84,-441.86 4509.79,-438.21 4499.74,-434.86 4499.84,-441.86"/>
</g>
<!-- b20 -->
<g id="node21" class="node">
<title>b20</title>
<polygon fill="lightgreen" stroke="black" points="5222,-327 4920,-327 4920,-275 5222,-275 5222,-327"/>
<text text-anchor="middle" x="5071" y="-315" font-family="Helvetica" font-size="10.00">B20</text>
<text text-anchor="middle" x="5071" y="-304" font-family="Helvetica" font-size="10.00">Loop: L1</text>
<text text-anchor="middle" x="5071" y="-293" font-family="Helvetica" font-size="10.00">&#45;&#45;&#45;</text>
<text text-anchor="middle" x="5071" y="-282" font-family="Helvetica" font-size="10.00">HotSpotMethod&lt;LoopBenchmarks.histogramLoop(int[], int[], int)&gt;</text>
</g>
<!-- b19&#45;&gt;b20 -->
<g id="edge29" class="edge">
<title>b19&#45;&gt;b20</title>
<path fill="none" stroke="black" d="M4740.67,-409.97C4809.56,-387.18 4909.58,-354.08 4981.3,-330.35"/>
<polygon fill="black" stroke="black" points="4982.83,-333.53 4991.23,-327.06 4980.63,-326.88 4982.83,-333.53"/>
</g>
<!-- b19&#45;&gt;b26 -->
<g id="edge30" class="edge">
<title>b19&#45;&gt;b26</title>
<path fill="none" stroke="black" d="M4724.06,-409.83C4752.28,-396.44 4785.27,-378.61 4812,-358 4868.57,-314.4 4862.16,-280.9 4920,-239 4940,-224.51 4963.62,-212.16 4986.14,-202.16"/>
<polygon fill="black" stroke="black" points="4987.58,-205.35 4995.37,-198.16 4984.8,-198.93 4987.58,-205.35"/>
</g>
<!-- b21 -->
<g id="node22" class="node">
<title>b21</title>
<polygon fill="lightgreen" stroke="black" points="5632,-459 5330,-459 5330,-407 5632,-407 5632,-459"/>
<text text-anchor="middle" x="5481" y="-447" font-family="Helvetica" font-size="10.00">B21</text>
<text text-anchor="middle" x="5481" y="-436" font-family="Helvetica" font-size="10.00">Loop: L1</text>
<text text-anchor="middle" x="5481" y="-425" font-family="Helvetica" font-size="10.00">&#45;&#45;&#45;</text>
<text text-anchor="middle" x="5481" y="-414" font-family="Helvetica" font-size="10.00">HotSpotMethod&lt;LoopBenchmarks.histogramLoop(int[], int[], int)&gt;</text>
</g>
<!-- b20&#45;&gt;b21 -->
<g id="edge31" class="edge">
<title>b20&#45;&gt;b21</title>
<path fill="none" stroke="black" d="M5152.61,-327.08C5220.92,-349.18 5318.81,-380.85 5389.74,-403.8"/>
<polygon fill="black" stroke="black" points="5388.97,-407.23 5399.56,-406.98 5391.12,-400.57 5388.97,-407.23"/>
</g>
<!-- b22 -->
<g id="node23" class="node">
<title>b22</title>
<polygon fill="lightgreen" stroke="black" points="5632,-330 5330,-330 5330,-278 5632,-278 5632,-330"/>
<text text-anchor="middle" x="5481" y="-318" font-family="Helvetica" font-size="10.00">B22</text>
<text text-anchor="middle" x="5481" y="-307" font-family="Helvetica" font-size="10.00">Loop: L1</text>
<text text-anchor="middle" x="5481" y="-296" font-family="Helvetica" font-size="10.00">&#45;&#45;&#45;</text>
<text text-anchor="middle" x="5481" y="-285" font-family="Helvetica" font-size="10.00">HotSpotMethod&lt;LoopBenchmarks.histogramLoop(int[], int[], int)&gt;</text>
</g>
<!-- b20&#45;&gt;b22 -->
<g id="edge32" class="edge">
<title>b20&#45;&gt;b22</title>
<path fill="none" stroke="black" d="M5222.19,-302.1C5253.86,-302.34 5287.4,-302.58 5319.44,-302.82"/>
<polygon fill="black" stroke="black" points="5319.77,-306.32 5329.79,-302.9 5319.82,-299.32 5319.77,-306.32"/>
</g>
<!-- b21&#45;&gt;b19 -->
<g id="edge33" class="edge">
<title>b21&#45;&gt;b19</title>
<path fill="none" stroke="black" d="M5329.88,-433.55C5185.91,-434.08 4969.28,-434.87 4822.07,-435.41"/>
<polygon fill="black" stroke="black" points="4822.02,-431.91 4812.03,-435.45 4822.05,-438.91 4822.02,-431.91"/>
</g>
<!-- b23 -->
<g id="node24" class="node">
<title>b23</title>
<polygon fill="lightgreen" stroke="black" points="6042,-465 5740,-465 5740,-413 6042,-413 6042,-465"/>
<text text-anchor="middle" x="5891" y="-453" font-family="Helvetica" font-size="10.00">B23</text>
<text text-anchor="middle" x="5891" y="-442" font-family="Helvetica" font-size="10.00">Loop: L1</text>
<text text-anchor="middle" x="5891" y="-431" font-family="Helvetica" font-size="10.00">&#45;&#45;&#45;</text>
<text text-anchor="middle" x="5891" y="-420" font-family="Helvetica" font-size="10.00">HotSpotMethod&lt;LoopBenchmarks.histogramLoop(int[], int[], int)&gt;</text>
</g>
<!-- b22&#45;&gt;b23 -->
<g id="edge34" class="edge">
<title>b22&#45;&gt;b23</title>
<path fill="none" stroke="black" d="M5560.67,-330.03C5629.56,-352.82 5729.58,-385.92 5801.3,-409.65"/>
<polygon fill="black" stroke="black" points="5800.63,-413.12 5811.23,-412.94 5802.83,-406.47 5800.63,-413.12"/>
</g>
<!-- b28 -->
<g id="node29" class="node">
<title>b28</title>
<polygon fill="white" stroke="black" points="6042,-330 5740,-330 5740,-278 6042,-278 6042,-330"/>
<text text-anchor="middle" x="5891" y="-318" font-family="Helvetica" font-size="10.00">B28</text>
<text text-anchor="middle" x="5891" y="-307" font-family="Helvetica" font-size="10.00">Loop: &lt;none&gt;</text>
<text text-anchor="middle" x="5891" y="-296" font-family="Helvetica" font-size="10.00">&#45;&#45;&#45;</text>
<text text-anchor="middle" x="5891" y="-285" font-family="Helvetica" font-size="10.00">HotSpotMethod&lt;LoopBenchmarks.histogramLoop(int[], int[], int)&gt;</text>
</g>
<!-- b22&#45;&gt;b28 -->
<g id="edge35" class="edge">
<title>b22&#45;&gt;b28</title>
<path fill="none" stroke="black" d="M5632.19,-304C5663.86,-304 5697.4,-304 5729.44,-304"/>
<polygon fill="black" stroke="black" points="5729.79,-307.5 5739.79,-304 5729.79,-300.5 5729.79,-307.5"/>
</g>
<!-- b24 -->
<g id="node25" class="node">
<title>b24</title>
<polygon fill="lightgreen" stroke="black" points="6452,-599 6150,-599 6150,-547 6452,-547 6452,-599"/>
<text text-anchor="middle" x="6301" y="-587" font-family="Helvetica" font-size="10.00">B24</text>
<text text-anchor="middle" x="6301" y="-576" font-family="Helvetica" font-size="10.00">Loop: L1</text>
<text text-anchor="middle" x="6301" y="-565" font-family="Helvetica" font-size="10.00">&#45;&#45;&#45;</text>
<text text-anchor="middle" x="6301" y="-554" font-family="Helvetica" font-size="10.00">HotSpotMethod&lt;LoopBenchmarks.histogramLoop(int[], int[], int)&gt;</text>
</g>
<!-- b23&#45;&gt;b24 -->
<g id="edge36" class="edge">
<title>b23&#45;&gt;b24</title>
<path fill="none" stroke="black" d="M5971.64,-465.15C6040.3,-487.71 6139.35,-520.24 6210.69,-543.67"/>
<polygon fill="black" stroke="black" points="6209.97,-547.12 6220.57,-546.91 6212.16,-540.47 6209.97,-547.12"/>
</g>
<!-- b27 -->
<g id="node28" class="node">
<title>b27</title>
<polygon fill="white" stroke="black" points="6452,-465 6150,-465 6150,-413 6452,-413 6452,-465"/>
<text text-anchor="middle" x="6301" y="-453" font-family="Helvetica" font-size="10.00">B27</text>
<text text-anchor="middle" x="6301" y="-442" font-family="Helvetica" font-size="10.00">Loop: &lt;none&gt;</text>
<text text-anchor="middle" x="6301" y="-431" font-family="Helvetica" font-size="10.00">&#45;&#45;&#45;</text>
<text text-anchor="middle" x="6301" y="-420" font-family="Helvetica" font-size="10.00">HotSpotMethod&lt;LoopBenchmarks.histogramLoop(int[], int[], int)&gt;</text>
</g>
<!-- b23&#45;&gt;b27 -->
<g id="edge37" class="edge">
<title>b23&#45;&gt;b27</title>
<path fill="none" stroke="black" d="M6042.19,-439C6073.86,-439 6107.4,-439 6139.44,-439"/>
<polygon fill="black" stroke="black" points="6139.79,-442.5 6149.79,-439 6139.79,-435.5 6139.79,-442.5"/>
</g>
<!-- b24&#45;&gt;b19 -->
<g id="edge38" class="edge">
<title>b24&#45;&gt;b19</title>
<path fill="none" stroke="black" d="M6149.75,-570.82C5895.5,-565.57 5364.67,-547.9 4920,-489 4874.37,-482.96 4824.74,-473.47 4781.3,-464.18"/>
<polygon fill="black" stroke="black" points="4781.78,-460.71 4771.27,-462.02 4780.3,-467.55 4781.78,-460.71"/>
</g>
<!-- b25 -->
<g id="node26" class="node">
<title>b25</title>
<polygon fill="white" stroke="black" points="4812,-322 4510,-322 4510,-270 4812,-270 4812,-322"/>
<text text-anchor="middle" x="4661" y="-310" font-family="Helvetica" font-size="10.00">B25</text>
<text text-anchor="middle" x="4661" y="-299" font-family="Helvetica" font-size="10.00">Loop: &lt;none&gt;</text>
<text text-anchor="middle" x="4661" y="-288" font-family="Helvetica" font-size="10.00">&#45;&#45;&#45;</text>
<text text-anchor="middle" x="4661" y="-277" font-family="Helvetica" font-size="10.00">HotSpotMethod&lt;LoopBenchmarks.histogramLoop(int[], int[], int)&gt;</text>
</g>
<!-- b25&#45;&gt;b26 -->
<g id="edge39" class="edge">
<title>b25&#45;&gt;b26</title>
<path fill="none" stroke="black" d="M4748.03,-269.85C4814.32,-249.71 4905.94,-221.86 4974.5,-201.03"/>
<polygon fill="black" stroke="black" points="4975.89,-204.26 4984.44,-198 4973.85,-197.56 4975.89,-204.26"/>
</g>
<!-- b29 -->
<g id="node30" class="node">
<title>b29</title>
<polygon fill="white" stroke="black" points="6862,-397 6560,-397 6560,-345 6862,-345 6862,-397"/>
<text text-anchor="middle" x="6711" y="-385" font-family="Helvetica" font-size="10.00">B29</text>
<text text-anchor="middle" x="6711" y="-374" font-family="Helvetica" font-size="10.00">Loop: &lt;none&gt;</text>
<text text-anchor="middle" x="6711" y="-363" font-family="Helvetica" font-size="10.00">&#45;&#45;&#45;</text>
<text text-anchor="middle" x="6711" y="-352" font-family="Helvetica" font-size="10.00">HotSpotMethod&lt;LoopBenchmarks.histogramLoop(int[], int[], int)&gt;</text>
</g>
<!-- b27&#45;&gt;b29 -->
<g id="edge40" class="edge">
<title>b27&#45;&gt;b29</title>
<path fill="none" stroke="black" d="M6452.19,-413.97C6484,-408.67 6517.69,-403.05 6549.86,-397.69"/>
<polygon fill="black" stroke="black" points="6550.5,-401.13 6559.79,-396.03 6549.35,-394.23 6550.5,-401.13"/>
</g>
<!-- b28&#45;&gt;b29 -->
<g id="edge41" class="edge">
<title>b28&#45;&gt;b29</title>
<path fill="none" stroke="black" d="M6042.03,-316.29C6185.97,-328.08 6402.61,-345.82 6549.84,-357.88"/>
<polygon fill="black" stroke="black" points="6549.63,-361.38 6559.88,-358.7 6550.2,-354.4 6549.63,-361.38"/>
</g>
<!-- b33 -->
<g id="node34" class="node">
<title>b33</title>
<polygon fill="white" stroke="black" points="3582,-783 3280,-783 3280,-731 3582,-731 3582,-783"/>
<text text-anchor="middle" x="3431" y="-771" font-family="Helvetica" font-size="10.00">B33</text>
<text text-anchor="middle" x="3431" y="-760" font-family="Helvetica" font-size="10.00">Loop: &lt;none&gt;</text>
<text text-anchor="middle" x="3431" y="-749" font-family="Helvetica" font-size="10.00">&#45;&#45;&#45;</text>
<text text-anchor="middle" x="3431" y="-738" font-family="Helvetica" font-size="10.00">HotSpotMethod&lt;LoopBenchmarks.histogramLoop(int[], int[], int)&gt;</text>
</g>
<!-- b31&#45;&gt;b33 -->
<g id="edge42" class="edge">
<title>b31&#45;&gt;b33</title>
<path fill="none" stroke="black" d="M3172.19,-714.66C3204,-719.89 3237.69,-725.42 3269.86,-730.7"/>
<polygon fill="black" stroke="black" points="3269.36,-734.17 3279.79,-732.33 3270.49,-727.26 3269.36,-734.17"/>
</g>
<!-- b32&#45;&gt;b33 -->
<g id="edge43" class="edge">
<title>b32&#45;&gt;b33</title>
<path fill="none" stroke="black" d="M2762.03,-757C2905.97,-757 3122.61,-757 3269.84,-757"/>
<polygon fill="black" stroke="black" points="3269.88,-760.5 3279.88,-757 3269.88,-753.5 3269.88,-760.5"/>
</g>
</g>
</svg>
