<?xml version="1.0" encoding="UTF-8" standalone="no"?>
<!DOCTYPE svg PUBLIC "-//W3C//DTD SVG 1.1//EN"
 "http://www.w3.org/Graphics/SVG/1.1/DTD/svg11.dtd">
<!-- Generated by graphviz version 2.44.0 (0)
 -->
<!-- Title: CFG_110 Pages: 1 -->
<svg width="4359pt" height="558pt"
 viewBox="0.00 0.00 4359.00 558.39" xmlns="http://www.w3.org/2000/svg" xmlns:xlink="http://www.w3.org/1999/xlink">
<g id="graph0" class="graph" transform="scale(1 1) rotate(0) translate(4 554.39)">
<title>CFG_110</title>
<polygon fill="white" stroke="transparent" points="-4,4 -4,-554.39 4355,-554.39 4355,4 -4,4"/>
<text text-anchor="middle" x="189" y="-530.39" font-family="Times-Roman" font-size="20.00">174&#45;LoopBenchmarks.main(String[])</text>
<!-- b0 -->
<g id="node1" class="node">
<title>b0</title>
<polygon fill="white" stroke="black" points="235,-243 0,-243 0,-191 235,-191 235,-243"/>
<text text-anchor="middle" x="117.5" y="-231" font-family="Helvetica" font-size="10.00">B0</text>
<text text-anchor="middle" x="117.5" y="-220" font-family="Helvetica" font-size="10.00">Loop: &lt;none&gt;</text>
<text text-anchor="middle" x="117.5" y="-209" font-family="Helvetica" font-size="10.00">&#45;&#45;&#45;</text>
<text text-anchor="middle" x="117.5" y="-198" font-family="Helvetica" font-size="10.00">HotSpotMethod&lt;LoopBenchmarks.main(String[])&gt;</text>
</g>
<!-- b1 -->
<g id="node2" class="node">
<title>b1</title>
<polygon fill="white" stroke="black" points="578,-305 343,-305 343,-253 578,-253 578,-305"/>
<text text-anchor="middle" x="460.5" y="-293" font-family="Helvetica" font-size="10.00">B1</text>
<text text-anchor="middle" x="460.5" y="-282" font-family="Helvetica" font-size="10.00">Loop: &lt;none&gt;</text>
<text text-anchor="middle" x="460.5" y="-271" font-family="Helvetica" font-size="10.00">&#45;&#45;&#45;</text>
<text text-anchor="middle" x="460.5" y="-260" font-family="Helvetica" font-size="10.00">HotSpotMethod&lt;LoopBenchmarks.main(String[])&gt;</text>
</g>
<!-- b0&#45;&gt;b1 -->
<g id="edge1" class="edge">
<title>b0&#45;&gt;b1</title>
<path fill="none" stroke="black" d="M235.38,-238.25C266.83,-243.97 300.99,-250.18 332.94,-255.99"/>
<polygon fill="black" stroke="black" points="332.31,-259.43 342.78,-257.78 333.56,-252.55 332.31,-259.43"/>
</g>
<!-- b2 -->
<g id="node3" class="node">
<title>b2</title>
<polygon fill="white" stroke="black" points="578,-181 343,-181 343,-129 578,-129 578,-181"/>
<text text-anchor="middle" x="460.5" y="-169" font-family="Helvetica" font-size="10.00">B2</text>
<text text-anchor="middle" x="460.5" y="-158" font-family="Helvetica" font-size="10.00">Loop: &lt;none&gt;</text>
<text text-anchor="middle" x="460.5" y="-147" font-family="Helvetica" font-size="10.00">&#45;&#45;&#45;</text>
<text text-anchor="middle" x="460.5" y="-136" font-family="Helvetica" font-size="10.00">HotSpotMethod&lt;LoopBenchmarks.main(String[])&gt;</text>
</g>
<!-- b0&#45;&gt;b2 -->
<g id="edge2" class="edge">
<title>b0&#45;&gt;b2</title>
<path fill="none" stroke="black" d="M235.38,-195.75C266.83,-190.03 300.99,-183.82 332.94,-178.01"/>
<polygon fill="black" stroke="black" points="333.56,-181.45 342.78,-176.22 332.31,-174.57 333.56,-181.45"/>
</g>
<!-- b3 -->
<g id="node4" class="node">
<title>b3</title>
<polygon fill="white" stroke="black" points="921,-243 686,-243 686,-191 921,-191 921,-243"/>
<text text-anchor="middle" x="803.5" y="-231" font-family="Helvetica" font-size="10.00">B3</text>
<text text-anchor="middle" x="803.5" y="-220" font-family="Helvetica" font-size="10.00">Loop: &lt;none&gt;</text>
<text text-anchor="middle" x="803.5" y="-209" font-family="Helvetica" font-size="10.00">&#45;&#45;&#45;</text>
<text text-anchor="middle" x="803.5" y="-198" font-family="Helvetica" font-size="10.00">HotSpotMethod&lt;LoopBenchmarks.main(String[])&gt;</text>
</g>
<!-- b1&#45;&gt;b3 -->
<g id="edge3" class="edge">
<title>b1&#45;&gt;b3</title>
<path fill="none" stroke="black" d="M578.38,-257.75C609.83,-252.03 643.99,-245.82 675.94,-240.01"/>
<polygon fill="black" stroke="black" points="676.56,-243.45 685.78,-238.22 675.31,-236.57 676.56,-243.45"/>
</g>
<!-- b2&#45;&gt;b3 -->
<g id="edge4" class="edge">
<title>b2&#45;&gt;b3</title>
<path fill="none" stroke="black" d="M578.38,-176.25C609.83,-181.97 643.99,-188.18 675.94,-193.99"/>
<polygon fill="black" stroke="black" points="675.31,-197.43 685.78,-195.78 676.56,-190.55 675.31,-197.43"/>
</g>
<!-- b5 -->
<g id="node6" class="node">
<title>b5</title>
<polygon fill="white" stroke="black" points="1264,-52 1029,-52 1029,0 1264,0 1264,-52"/>
<text text-anchor="middle" x="1146.5" y="-40" font-family="Helvetica" font-size="10.00">B5</text>
<text text-anchor="middle" x="1146.5" y="-29" font-family="Helvetica" font-size="10.00">Loop: &lt;none&gt;</text>
<text text-anchor="middle" x="1146.5" y="-18" font-family="Helvetica" font-size="10.00">&#45;&#45;&#45;</text>
<text text-anchor="middle" x="1146.5" y="-7" font-family="Helvetica" font-size="10.00">HotSpotMethod&lt;LoopBenchmarks.main(String[])&gt;</text>
</g>
<!-- b3&#45;&gt;b5 -->
<g id="edge6" class="edge">
<title>b3&#45;&gt;b5</title>
<path fill="none" stroke="black" d="M848.98,-190.87C894.1,-164.5 966.07,-122.82 1029,-88 1047.69,-77.66 1068.22,-66.63 1086.77,-56.78"/>
<polygon fill="black" stroke="black" points="1088.51,-59.82 1095.71,-52.04 1085.23,-53.63 1088.51,-59.82"/>
</g>
<!-- b7 -->
<g id="node8" class="node">
<title>b7</title>
<polygon fill="white" stroke="black" points="1607,-260 1372,-260 1372,-208 1607,-208 1607,-260"/>
<text text-anchor="middle" x="1489.5" y="-248" font-family="Helvetica" font-size="10.00">B7</text>
<text text-anchor="middle" x="1489.5" y="-237" font-family="Helvetica" font-size="10.00">Loop: &lt;none&gt;</text>
<text text-anchor="middle" x="1489.5" y="-226" font-family="Helvetica" font-size="10.00">&#45;&#45;&#45;</text>
<text text-anchor="middle" x="1489.5" y="-215" font-family="Helvetica" font-size="10.00">HotSpotMethod&lt;LoopBenchmarks.main(String[])&gt;</text>
</g>
<!-- b3&#45;&gt;b7 -->
<g id="edge5" class="edge">
<title>b3&#45;&gt;b7</title>
<path fill="none" stroke="black" d="M840.35,-243.18C882.87,-272.46 957.08,-318.12 1029,-336 1130.36,-361.2 1161.92,-358.1 1264,-336 1326.63,-322.44 1392.77,-289.86 1436.91,-265.15"/>
<polygon fill="black" stroke="black" points="1438.74,-268.13 1445.71,-260.16 1435.28,-262.04 1438.74,-268.13"/>
</g>
<!-- b4 -->
<g id="node5" class="node">
<title>b4</title>
<polygon fill="white" stroke="black" points="1264,-300 1029,-300 1029,-248 1264,-248 1264,-300"/>
<text text-anchor="middle" x="1146.5" y="-288" font-family="Helvetica" font-size="10.00">B4</text>
<text text-anchor="middle" x="1146.5" y="-277" font-family="Helvetica" font-size="10.00">Loop: &lt;none&gt;</text>
<text text-anchor="middle" x="1146.5" y="-266" font-family="Helvetica" font-size="10.00">&#45;&#45;&#45;</text>
<text text-anchor="middle" x="1146.5" y="-255" font-family="Helvetica" font-size="10.00">HotSpotMethod&lt;LoopBenchmarks.main(String[])&gt;</text>
</g>
<!-- b4&#45;&gt;b7 -->
<g id="edge7" class="edge">
<title>b4&#45;&gt;b7</title>
<path fill="none" stroke="black" d="M1264.38,-260.29C1295.69,-256.62 1329.69,-252.63 1361.52,-248.89"/>
<polygon fill="black" stroke="black" points="1362.25,-252.33 1371.78,-247.69 1361.44,-245.38 1362.25,-252.33"/>
</g>
<!-- b5&#45;&gt;b7 -->
<g id="edge8" class="edge">
<title>b5&#45;&gt;b7</title>
<path fill="none" stroke="black" d="M1198.78,-52.06C1219.29,-62.79 1242.98,-75.6 1264,-88 1327.02,-125.16 1397.39,-171.8 1442.26,-202.23"/>
<polygon fill="black" stroke="black" points="1440.37,-205.18 1450.61,-207.9 1444.31,-199.39 1440.37,-205.18"/>
</g>
<!-- b23 -->
<g id="node24" class="node">
<title>b23</title>
<polygon fill="white" stroke="black" points="2293,-52 2058,-52 2058,0 2293,0 2293,-52"/>
<text text-anchor="middle" x="2175.5" y="-40" font-family="Helvetica" font-size="10.00">B23</text>
<text text-anchor="middle" x="2175.5" y="-29" font-family="Helvetica" font-size="10.00">Loop: &lt;none&gt;</text>
<text text-anchor="middle" x="2175.5" y="-18" font-family="Helvetica" font-size="10.00">&#45;&#45;&#45;</text>
<text text-anchor="middle" x="2175.5" y="-7" font-family="Helvetica" font-size="10.00">HotSpotMethod&lt;LoopBenchmarks.main(String[])&gt;</text>
</g>
<!-- b5&#45;&gt;b23 -->
<g id="edge9" class="edge">
<title>b5&#45;&gt;b23</title>
<path fill="none" stroke="black" d="M1264.31,-26C1458.7,-26 1847.03,-26 2047.79,-26"/>
<polygon fill="black" stroke="black" points="2047.8,-29.5 2057.8,-26 2047.8,-22.5 2047.8,-29.5"/>
</g>
<!-- b6 -->
<g id="node7" class="node">
<title>b6</title>
<polygon fill="white" stroke="black" points="1264,-176 1029,-176 1029,-124 1264,-124 1264,-176"/>
<text text-anchor="middle" x="1146.5" y="-164" font-family="Helvetica" font-size="10.00">B6</text>
<text text-anchor="middle" x="1146.5" y="-153" font-family="Helvetica" font-size="10.00">Loop: &lt;none&gt;</text>
<text text-anchor="middle" x="1146.5" y="-142" font-family="Helvetica" font-size="10.00">&#45;&#45;&#45;</text>
<text text-anchor="middle" x="1146.5" y="-131" font-family="Helvetica" font-size="10.00">HotSpotMethod&lt;LoopBenchmarks.main(String[])&gt;</text>
</g>
<!-- b6&#45;&gt;b7 -->
<g id="edge10" class="edge">
<title>b6&#45;&gt;b7</title>
<path fill="none" stroke="black" d="M1253.06,-176C1291.11,-185.38 1334.23,-196 1373.07,-205.57"/>
<polygon fill="black" stroke="black" points="1372.31,-208.98 1382.85,-207.98 1373.98,-202.19 1372.31,-208.98"/>
</g>
<!-- b8 -->
<g id="node9" class="node">
<title>b8</title>
<polygon fill="white" stroke="black" points="1950,-344 1715,-344 1715,-292 1950,-292 1950,-344"/>
<text text-anchor="middle" x="1832.5" y="-332" font-family="Helvetica" font-size="10.00">B8</text>
<text text-anchor="middle" x="1832.5" y="-321" font-family="Helvetica" font-size="10.00">Loop: &lt;none&gt;</text>
<text text-anchor="middle" x="1832.5" y="-310" font-family="Helvetica" font-size="10.00">&#45;&#45;&#45;</text>
<text text-anchor="middle" x="1832.5" y="-299" font-family="Helvetica" font-size="10.00">HotSpotMethod&lt;LoopBenchmarks.main(String[])&gt;</text>
</g>
<!-- b7&#45;&gt;b8 -->
<g id="edge11" class="edge">
<title>b7&#45;&gt;b8</title>
<path fill="none" stroke="black" d="M1596.06,-260C1634.11,-269.38 1677.23,-280 1716.07,-289.57"/>
<polygon fill="black" stroke="black" points="1715.31,-292.98 1725.85,-291.98 1716.98,-286.19 1715.31,-292.98"/>
</g>
<!-- b9 -->
<g id="node10" class="node">
<title>b9</title>
<polygon fill="white" stroke="black" points="1950,-220 1715,-220 1715,-168 1950,-168 1950,-220"/>
<text text-anchor="middle" x="1832.5" y="-208" font-family="Helvetica" font-size="10.00">B9</text>
<text text-anchor="middle" x="1832.5" y="-197" font-family="Helvetica" font-size="10.00">Loop: &lt;none&gt;</text>
<text text-anchor="middle" x="1832.5" y="-186" font-family="Helvetica" font-size="10.00">&#45;&#45;&#45;</text>
<text text-anchor="middle" x="1832.5" y="-175" font-family="Helvetica" font-size="10.00">HotSpotMethod&lt;LoopBenchmarks.main(String[])&gt;</text>
</g>
<!-- b7&#45;&gt;b9 -->
<g id="edge12" class="edge">
<title>b7&#45;&gt;b9</title>
<path fill="none" stroke="black" d="M1607.38,-220.29C1638.69,-216.62 1672.69,-212.63 1704.52,-208.89"/>
<polygon fill="black" stroke="black" points="1705.25,-212.33 1714.78,-207.69 1704.44,-205.38 1705.25,-212.33"/>
</g>
<!-- b10 -->
<g id="node11" class="node">
<title>b10</title>
<polygon fill="white" stroke="black" points="2293,-254 2058,-254 2058,-202 2293,-202 2293,-254"/>
<text text-anchor="middle" x="2175.5" y="-242" font-family="Helvetica" font-size="10.00">B10</text>
<text text-anchor="middle" x="2175.5" y="-231" font-family="Helvetica" font-size="10.00">Loop: &lt;none&gt;</text>
<text text-anchor="middle" x="2175.5" y="-220" font-family="Helvetica" font-size="10.00">&#45;&#45;&#45;</text>
<text text-anchor="middle" x="2175.5" y="-209" font-family="Helvetica" font-size="10.00">HotSpotMethod&lt;LoopBenchmarks.main(String[])&gt;</text>
</g>
<!-- b8&#45;&gt;b10 -->
<g id="edge13" class="edge">
<title>b8&#45;&gt;b10</title>
<path fill="none" stroke="black" d="M1932.13,-291.97C1974.01,-280.91 2022.97,-267.99 2065.88,-256.67"/>
<polygon fill="black" stroke="black" points="2067.02,-259.99 2075.8,-254.05 2065.23,-253.22 2067.02,-259.99"/>
</g>
<!-- b9&#45;&gt;b10 -->
<g id="edge14" class="edge">
<title>b9&#45;&gt;b10</title>
<path fill="none" stroke="black" d="M1950.38,-205.65C1981.69,-208.78 2015.69,-212.17 2047.52,-215.34"/>
<polygon fill="black" stroke="black" points="2047.48,-218.85 2057.78,-216.36 2048.17,-211.89 2047.48,-218.85"/>
</g>
<!-- b12 -->
<g id="node13" class="node">
<title>b12</title>
<polygon fill="white" stroke="black" points="2636,-198 2401,-198 2401,-146 2636,-146 2636,-198"/>
<text text-anchor="middle" x="2518.5" y="-186" font-family="Helvetica" font-size="10.00">B12</text>
<text text-anchor="middle" x="2518.5" y="-175" font-family="Helvetica" font-size="10.00">Loop: &lt;none&gt;</text>
<text text-anchor="middle" x="2518.5" y="-164" font-family="Helvetica" font-size="10.00">&#45;&#45;&#45;</text>
<text text-anchor="middle" x="2518.5" y="-153" font-family="Helvetica" font-size="10.00">HotSpotMethod&lt;LoopBenchmarks.main(String[])&gt;</text>
</g>
<!-- b10&#45;&gt;b12 -->
<g id="edge16" class="edge">
<title>b10&#45;&gt;b12</title>
<path fill="none" stroke="black" d="M2293.38,-208.81C2324.69,-203.66 2358.69,-198.08 2390.52,-192.85"/>
<polygon fill="black" stroke="black" points="2391.48,-196.24 2400.78,-191.17 2390.34,-189.34 2391.48,-196.24"/>
</g>
<!-- b14 -->
<g id="node15" class="node">
<title>b14</title>
<polygon fill="white" stroke="black" points="2979,-389 2744,-389 2744,-337 2979,-337 2979,-389"/>
<text text-anchor="middle" x="2861.5" y="-377" font-family="Helvetica" font-size="10.00">B14</text>
<text text-anchor="middle" x="2861.5" y="-366" font-family="Helvetica" font-size="10.00">Loop: &lt;none&gt;</text>
<text text-anchor="middle" x="2861.5" y="-355" font-family="Helvetica" font-size="10.00">&#45;&#45;&#45;</text>
<text text-anchor="middle" x="2861.5" y="-344" font-family="Helvetica" font-size="10.00">HotSpotMethod&lt;LoopBenchmarks.main(String[])&gt;</text>
</g>
<!-- b10&#45;&gt;b14 -->
<g id="edge15" class="edge">
<title>b10&#45;&gt;b14</title>
<path fill="none" stroke="black" d="M2189.71,-254.25C2218.95,-308.99 2295.03,-434.23 2401,-482 2496.22,-524.92 2534.64,-507.2 2636,-482 2703.42,-465.24 2772.86,-424.06 2816.31,-394.85"/>
<polygon fill="black" stroke="black" points="2818.35,-397.7 2824.65,-389.18 2814.41,-391.91 2818.35,-397.7"/>
</g>
<!-- b11 -->
<g id="node12" class="node">
<title>b11</title>
<polygon fill="white" stroke="black" points="2636,-446 2401,-446 2401,-394 2636,-394 2636,-446"/>
<text text-anchor="middle" x="2518.5" y="-434" font-family="Helvetica" font-size="10.00">B11</text>
<text text-anchor="middle" x="2518.5" y="-423" font-family="Helvetica" font-size="10.00">Loop: &lt;none&gt;</text>
<text text-anchor="middle" x="2518.5" y="-412" font-family="Helvetica" font-size="10.00">&#45;&#45;&#45;</text>
<text text-anchor="middle" x="2518.5" y="-401" font-family="Helvetica" font-size="10.00">HotSpotMethod&lt;LoopBenchmarks.main(String[])&gt;</text>
</g>
<!-- b11&#45;&gt;b14 -->
<g id="edge17" class="edge">
<title>b11&#45;&gt;b14</title>
<path fill="none" stroke="black" d="M2636.38,-400.46C2667.69,-395.23 2701.69,-389.55 2733.52,-384.22"/>
<polygon fill="black" stroke="black" points="2734.49,-387.61 2743.78,-382.51 2733.34,-380.71 2734.49,-387.61"/>
</g>
<!-- b12&#45;&gt;b14 -->
<g id="edge18" class="edge">
<title>b12&#45;&gt;b14</title>
<path fill="none" stroke="black" d="M2569.29,-198.04C2590.01,-209 2614.25,-221.97 2636,-234 2695,-266.64 2761.94,-305.32 2807.25,-331.75"/>
<polygon fill="black" stroke="black" points="2805.62,-334.85 2816.02,-336.87 2809.15,-328.81 2805.62,-334.85"/>
</g>
<!-- b22 -->
<g id="node23" class="node">
<title>b22</title>
<polygon fill="white" stroke="black" points="2979,-198 2744,-198 2744,-146 2979,-146 2979,-198"/>
<text text-anchor="middle" x="2861.5" y="-186" font-family="Helvetica" font-size="10.00">B22</text>
<text text-anchor="middle" x="2861.5" y="-175" font-family="Helvetica" font-size="10.00">Loop: &lt;none&gt;</text>
<text text-anchor="middle" x="2861.5" y="-164" font-family="Helvetica" font-size="10.00">&#45;&#45;&#45;</text>
<text text-anchor="middle" x="2861.5" y="-153" font-family="Helvetica" font-size="10.00">HotSpotMethod&lt;LoopBenchmarks.main(String[])&gt;</text>
</g>
<!-- b12&#45;&gt;b22 -->
<g id="edge19" class="edge">
<title>b12&#45;&gt;b22</title>
<path fill="none" stroke="black" d="M2636.38,-172C2667.69,-172 2701.69,-172 2733.52,-172"/>
<polygon fill="black" stroke="black" points="2733.78,-175.5 2743.78,-172 2733.78,-168.5 2733.78,-175.5"/>
</g>
<!-- b13 -->
<g id="node14" class="node">
<title>b13</title>
<polygon fill="white" stroke="black" points="2636,-322 2401,-322 2401,-270 2636,-270 2636,-322"/>
<text text-anchor="middle" x="2518.5" y="-310" font-family="Helvetica" font-size="10.00">B13</text>
<text text-anchor="middle" x="2518.5" y="-299" font-family="Helvetica" font-size="10.00">Loop: &lt;none&gt;</text>
<text text-anchor="middle" x="2518.5" y="-288" font-family="Helvetica" font-size="10.00">&#45;&#45;&#45;</text>
<text text-anchor="middle" x="2518.5" y="-277" font-family="Helvetica" font-size="10.00">HotSpotMethod&lt;LoopBenchmarks.main(String[])&gt;</text>
</g>
<!-- b13&#45;&gt;b14 -->
<g id="edge20" class="edge">
<title>b13&#45;&gt;b14</title>
<path fill="none" stroke="black" d="M2636.38,-318.96C2667.83,-325.14 2701.99,-331.86 2733.94,-338.13"/>
<polygon fill="black" stroke="black" points="2733.29,-341.57 2743.78,-340.07 2734.64,-334.7 2733.29,-341.57"/>
</g>
<!-- b15 -->
<g id="node16" class="node">
<title>b15</title>
<polygon fill="white" stroke="black" points="3322,-457 3087,-457 3087,-405 3322,-405 3322,-457"/>
<text text-anchor="middle" x="3204.5" y="-445" font-family="Helvetica" font-size="10.00">B15</text>
<text text-anchor="middle" x="3204.5" y="-434" font-family="Helvetica" font-size="10.00">Loop: &lt;none&gt;</text>
<text text-anchor="middle" x="3204.5" y="-423" font-family="Helvetica" font-size="10.00">&#45;&#45;&#45;</text>
<text text-anchor="middle" x="3204.5" y="-412" font-family="Helvetica" font-size="10.00">HotSpotMethod&lt;LoopBenchmarks.main(String[])&gt;</text>
</g>
<!-- b14&#45;&gt;b15 -->
<g id="edge21" class="edge">
<title>b14&#45;&gt;b15</title>
<path fill="none" stroke="black" d="M2979.38,-386.31C3010.83,-392.58 3044.99,-399.39 3076.94,-405.76"/>
<polygon fill="black" stroke="black" points="3076.29,-409.2 3086.78,-407.72 3077.65,-402.34 3076.29,-409.2"/>
</g>
<!-- b21 -->
<g id="node22" class="node">
<title>b21</title>
<polygon fill="white" stroke="black" points="3322,-333 3087,-333 3087,-281 3322,-281 3322,-333"/>
<text text-anchor="middle" x="3204.5" y="-321" font-family="Helvetica" font-size="10.00">B21</text>
<text text-anchor="middle" x="3204.5" y="-310" font-family="Helvetica" font-size="10.00">Loop: &lt;none&gt;</text>
<text text-anchor="middle" x="3204.5" y="-299" font-family="Helvetica" font-size="10.00">&#45;&#45;&#45;</text>
<text text-anchor="middle" x="3204.5" y="-288" font-family="Helvetica" font-size="10.00">HotSpotMethod&lt;LoopBenchmarks.main(String[])&gt;</text>
</g>
<!-- b14&#45;&gt;b21 -->
<g id="edge22" class="edge">
<title>b14&#45;&gt;b21</title>
<path fill="none" stroke="black" d="M2979.38,-343.81C3010.69,-338.66 3044.69,-333.08 3076.52,-327.85"/>
<polygon fill="black" stroke="black" points="3077.48,-331.24 3086.78,-326.17 3076.34,-324.34 3077.48,-331.24"/>
</g>
<!-- b16 -->
<g id="node17" class="node">
<title>b16</title>
<polygon fill="white" stroke="black" points="3665,-519 3430,-519 3430,-467 3665,-467 3665,-519"/>
<text text-anchor="middle" x="3547.5" y="-507" font-family="Helvetica" font-size="10.00">B16</text>
<text text-anchor="middle" x="3547.5" y="-496" font-family="Helvetica" font-size="10.00">Loop: &lt;none&gt;</text>
<text text-anchor="middle" x="3547.5" y="-485" font-family="Helvetica" font-size="10.00">&#45;&#45;&#45;</text>
<text text-anchor="middle" x="3547.5" y="-474" font-family="Helvetica" font-size="10.00">HotSpotMethod&lt;LoopBenchmarks.main(String[])&gt;</text>
</g>
<!-- b15&#45;&gt;b16 -->
<g id="edge23" class="edge">
<title>b15&#45;&gt;b16</title>
<path fill="none" stroke="black" d="M3322.38,-452.25C3353.83,-457.97 3387.99,-464.18 3419.94,-469.99"/>
<polygon fill="black" stroke="black" points="3419.31,-473.43 3429.78,-471.78 3420.56,-466.55 3419.31,-473.43"/>
</g>
<!-- b20 -->
<g id="node21" class="node">
<title>b20</title>
<polygon fill="white" stroke="black" points="3665,-395 3430,-395 3430,-343 3665,-343 3665,-395"/>
<text text-anchor="middle" x="3547.5" y="-383" font-family="Helvetica" font-size="10.00">B20</text>
<text text-anchor="middle" x="3547.5" y="-372" font-family="Helvetica" font-size="10.00">Loop: &lt;none&gt;</text>
<text text-anchor="middle" x="3547.5" y="-361" font-family="Helvetica" font-size="10.00">&#45;&#45;&#45;</text>
<text text-anchor="middle" x="3547.5" y="-350" font-family="Helvetica" font-size="10.00">HotSpotMethod&lt;LoopBenchmarks.main(String[])&gt;</text>
</g>
<!-- b15&#45;&gt;b20 -->
<g id="edge24" class="edge">
<title>b15&#45;&gt;b20</title>
<path fill="none" stroke="black" d="M3322.38,-409.75C3353.83,-404.03 3387.99,-397.82 3419.94,-392.01"/>
<polygon fill="black" stroke="black" points="3420.56,-395.45 3429.78,-390.22 3419.31,-388.57 3420.56,-395.45"/>
</g>
<!-- b17 -->
<g id="node18" class="node">
<title>b17</title>
<polygon fill="lightblue" stroke="black" points="4008,-519 3773,-519 3773,-467 4008,-467 4008,-519"/>
<text text-anchor="middle" x="3890.5" y="-507" font-family="Helvetica" font-size="10.00">B17</text>
<text text-anchor="middle" x="3890.5" y="-496" font-family="Helvetica" font-size="10.00">Loop: L0</text>
<text text-anchor="middle" x="3890.5" y="-485" font-family="Helvetica" font-size="10.00">&#45;&#45;&#45;</text>
<text text-anchor="middle" x="3890.5" y="-474" font-family="Helvetica" font-size="10.00">HotSpotMethod&lt;LoopBenchmarks.main(String[])&gt;</text>
</g>
<!-- b16&#45;&gt;b17 -->
<g id="edge25" class="edge">
<title>b16&#45;&gt;b17</title>
<path fill="none" stroke="black" d="M3665.38,-493C3696.69,-493 3730.69,-493 3762.52,-493"/>
<polygon fill="black" stroke="black" points="3762.78,-496.5 3772.78,-493 3762.78,-489.5 3762.78,-496.5"/>
</g>
<!-- b18 -->
<g id="node19" class="node">
<title>b18</title>
<polygon fill="lightblue" stroke="black" points="4351,-519 4116,-519 4116,-467 4351,-467 4351,-519"/>
<text text-anchor="middle" x="4233.5" y="-507" font-family="Helvetica" font-size="10.00">B18</text>
<text text-anchor="middle" x="4233.5" y="-496" font-family="Helvetica" font-size="10.00">Loop: L0</text>
<text text-anchor="middle" x="4233.5" y="-485" font-family="Helvetica" font-size="10.00">&#45;&#45;&#45;</text>
<text text-anchor="middle" x="4233.5" y="-474" font-family="Helvetica" font-size="10.00">HotSpotMethod&lt;LoopBenchmarks.main(String[])&gt;</text>
</g>
<!-- b17&#45;&gt;b18 -->
<g id="edge26" class="edge">
<title>b17&#45;&gt;b18</title>
<path fill="none" stroke="black" d="M4008.38,-467.22C4039.69,-465.75 4073.69,-465.61 4105.52,-466.8"/>
<polygon fill="black" stroke="black" points="4105.64,-470.31 4115.78,-467.23 4105.93,-463.31 4105.64,-470.31"/>
</g>
<!-- b19 -->
<g id="node20" class="node">
<title>b19</title>
<polygon fill="white" stroke="black" points="4351,-395 4116,-395 4116,-343 4351,-343 4351,-395"/>
<text text-anchor="middle" x="4233.5" y="-383" font-family="Helvetica" font-size="10.00">B19</text>
<text text-anchor="middle" x="4233.5" y="-372" font-family="Helvetica" font-size="10.00">Loop: &lt;none&gt;</text>
<text text-anchor="middle" x="4233.5" y="-361" font-family="Helvetica" font-size="10.00">&#45;&#45;&#45;</text>
<text text-anchor="middle" x="4233.5" y="-350" font-family="Helvetica" font-size="10.00">HotSpotMethod&lt;LoopBenchmarks.main(String[])&gt;</text>
</g>
<!-- b17&#45;&gt;b19 -->
<g id="edge27" class="edge">
<title>b17&#45;&gt;b19</title>
<path fill="none" stroke="black" d="M3963.4,-466.85C4018.35,-446.87 4094.13,-419.32 4151.27,-398.54"/>
<polygon fill="black" stroke="black" points="4152.79,-401.71 4160.99,-395 4150.4,-395.13 4152.79,-401.71"/>
</g>
<!-- b18&#45;&gt;b17 -->
<g id="edge28" class="edge">
<title>b18&#45;&gt;b17</title>
<path fill="none" stroke="black" d="M4115.78,-518.77C4084.47,-520.25 4050.47,-520.39 4018.63,-519.21"/>
<polygon fill="black" stroke="black" points="4018.51,-515.7 4008.38,-518.78 4018.22,-522.69 4018.51,-515.7"/>
</g>
<!-- b24 -->
<g id="node25" class="node">
<title>b24</title>
<polygon fill="white" stroke="black" points="3665,-198 3430,-198 3430,-146 3665,-146 3665,-198"/>
<text text-anchor="middle" x="3547.5" y="-186" font-family="Helvetica" font-size="10.00">B24</text>
<text text-anchor="middle" x="3547.5" y="-175" font-family="Helvetica" font-size="10.00">Loop: &lt;none&gt;</text>
<text text-anchor="middle" x="3547.5" y="-164" font-family="Helvetica" font-size="10.00">&#45;&#45;&#45;</text>
<text text-anchor="middle" x="3547.5" y="-153" font-family="Helvetica" font-size="10.00">HotSpotMethod&lt;LoopBenchmarks.main(String[])&gt;</text>
</g>
<!-- b21&#45;&gt;b24 -->
<g id="edge29" class="edge">
<title>b21&#45;&gt;b24</title>
<path fill="none" stroke="black" d="M3271.25,-280.97C3328.47,-258.32 3411.4,-225.48 3471.26,-201.79"/>
<polygon fill="black" stroke="black" points="3472.65,-205 3480.66,-198.06 3470.08,-198.49 3472.65,-205"/>
</g>
<!-- b22&#45;&gt;b24 -->
<g id="edge30" class="edge">
<title>b22&#45;&gt;b24</title>
<path fill="none" stroke="black" d="M2979.31,-172C3101.81,-172 3293.7,-172 3419.79,-172"/>
<polygon fill="black" stroke="black" points="3419.89,-175.5 3429.89,-172 3419.89,-168.5 3419.89,-175.5"/>
</g>
<!-- b23&#45;&gt;b24 -->
<g id="edge31" class="edge">
<title>b23&#45;&gt;b24</title>
<path fill="none" stroke="black" d="M2293.14,-38.04C2449.33,-54.21 2735.07,-83.91 2979,-110 3130.5,-126.21 3304.7,-145.31 3419.7,-157.98"/>
<polygon fill="black" stroke="black" points="3419.63,-161.49 3429.95,-159.11 3420.39,-154.54 3419.63,-161.49"/>
</g>
</g>
</svg>
