<?xml version="1.0" encoding="UTF-8" standalone="no"?>
<!DOCTYPE svg PUBLIC "-//W3C//DTD SVG 1.1//EN"
 "http://www.w3.org/Graphics/SVG/1.1/DTD/svg11.dtd">
<!-- Generated by graphviz version 2.44.0 (0)
 -->
<!-- Title: CFG_111 Pages: 1 -->
<svg width="1920pt" height="406pt"
 viewBox="0.00 0.00 1920.00 406.00" xmlns="http://www.w3.org/2000/svg" xmlns:xlink="http://www.w3.org/1999/xlink">
<g id="graph0" class="graph" transform="scale(1 1) rotate(0) translate(4 402)">
<title>CFG_111</title>
<polygon fill="white" stroke="transparent" points="-4,4 -4,-402 1916,-402 1916,4 -4,4"/>
<text text-anchor="middle" x="257" y="-378" font-family="Times-Roman" font-size="20.00">176&#45;LoopBenchmarks.monteCarloPiLoop(long, int)</text>
<!-- b0 -->
<g id="node1" class="node">
<title>b0</title>
<polygon fill="white" stroke="black" points="296,-300 0,-300 0,-248 296,-248 296,-300"/>
<text text-anchor="middle" x="148" y="-288" font-family="Helvetica" font-size="10.00">B0</text>
<text text-anchor="middle" x="148" y="-277" font-family="Helvetica" font-size="10.00">Loop: &lt;none&gt;</text>
<text text-anchor="middle" x="148" y="-266" font-family="Helvetica" font-size="10.00">&#45;&#45;&#45;</text>
<text text-anchor="middle" x="148" y="-255" font-family="Helvetica" font-size="10.00">HotSpotMethod&lt;LoopBenchmarks.monteCarloPiLoop(long, int)&gt;</text>
</g>
<!-- b1 -->
<g id="node2" class="node">
<title>b1</title>
<polygon fill="white" stroke="black" points="1104,-368 808,-368 808,-316 1104,-316 1104,-368"/>
<text text-anchor="middle" x="956" y="-356" font-family="Helvetica" font-size="10.00">B1</text>
<text text-anchor="middle" x="956" y="-345" font-family="Helvetica" font-size="10.00">Loop: &lt;none&gt;</text>
<text text-anchor="middle" x="956" y="-334" font-family="Helvetica" font-size="10.00">&#45;&#45;&#45;</text>
<text text-anchor="middle" x="956" y="-323" font-family="Helvetica" font-size="10.00">HotSpotMethod&lt;LoopBenchmarks.monteCarloPiLoop(long, int)&gt;</text>
</g>
<!-- b0&#45;&gt;b1 -->
<g id="edge1" class="edge">
<title>b0&#45;&gt;b1</title>
<path fill="none" stroke="black" d="M296.36,-286.43C438.32,-298.41 652.35,-316.47 797.59,-328.72"/>
<polygon fill="black" stroke="black" points="797.67,-332.24 807.93,-329.59 798.26,-325.26 797.67,-332.24"/>
</g>
<!-- b2 -->
<g id="node3" class="node">
<title>b2</title>
<polygon fill="white" stroke="black" points="700,-233 404,-233 404,-181 700,-181 700,-233"/>
<text text-anchor="middle" x="552" y="-221" font-family="Helvetica" font-size="10.00">B2</text>
<text text-anchor="middle" x="552" y="-210" font-family="Helvetica" font-size="10.00">Loop: &lt;none&gt;</text>
<text text-anchor="middle" x="552" y="-199" font-family="Helvetica" font-size="10.00">&#45;&#45;&#45;</text>
<text text-anchor="middle" x="552" y="-188" font-family="Helvetica" font-size="10.00">HotSpotMethod&lt;LoopBenchmarks.monteCarloPiLoop(long, int)&gt;</text>
</g>
<!-- b0&#45;&gt;b2 -->
<g id="edge2" class="edge">
<title>b0&#45;&gt;b2</title>
<path fill="none" stroke="black" d="M296.12,-249.48C327.92,-244.18 361.66,-238.56 393.82,-233.2"/>
<polygon fill="black" stroke="black" points="394.46,-236.64 403.75,-231.54 393.31,-229.73 394.46,-236.64"/>
</g>
<!-- b8 -->
<g id="node9" class="node">
<title>b8</title>
<polygon fill="white" stroke="black" points="1508,-244 1212,-244 1212,-192 1508,-192 1508,-244"/>
<text text-anchor="middle" x="1360" y="-232" font-family="Helvetica" font-size="10.00">B8</text>
<text text-anchor="middle" x="1360" y="-221" font-family="Helvetica" font-size="10.00">Loop: &lt;none&gt;</text>
<text text-anchor="middle" x="1360" y="-210" font-family="Helvetica" font-size="10.00">&#45;&#45;&#45;</text>
<text text-anchor="middle" x="1360" y="-199" font-family="Helvetica" font-size="10.00">HotSpotMethod&lt;LoopBenchmarks.monteCarloPiLoop(long, int)&gt;</text>
</g>
<!-- b1&#45;&gt;b8 -->
<g id="edge3" class="edge">
<title>b1&#45;&gt;b8</title>
<path fill="none" stroke="black" d="M1041.76,-315.85C1107.08,-295.71 1197.35,-267.86 1264.9,-247.03"/>
<polygon fill="black" stroke="black" points="1266.17,-250.3 1274.7,-244 1264.11,-243.61 1266.17,-250.3"/>
</g>
<!-- b3 -->
<g id="node4" class="node">
<title>b3</title>
<polygon fill="lightblue" stroke="black" points="1104,-120 808,-120 808,-68 1104,-68 1104,-120"/>
<text text-anchor="middle" x="956" y="-108" font-family="Helvetica" font-size="10.00">B3</text>
<text text-anchor="middle" x="956" y="-97" font-family="Helvetica" font-size="10.00">Loop: L0</text>
<text text-anchor="middle" x="956" y="-86" font-family="Helvetica" font-size="10.00">&#45;&#45;&#45;</text>
<text text-anchor="middle" x="956" y="-75" font-family="Helvetica" font-size="10.00">HotSpotMethod&lt;LoopBenchmarks.monteCarloPiLoop(long, int)&gt;</text>
</g>
<!-- b2&#45;&gt;b3 -->
<g id="edge4" class="edge">
<title>b2&#45;&gt;b3</title>
<path fill="none" stroke="black" d="M645.73,-180.93C707.6,-163.54 788.97,-140.67 852.71,-122.75"/>
<polygon fill="black" stroke="black" points="853.71,-126.11 862.39,-120.03 851.81,-119.37 853.71,-126.11"/>
</g>
<!-- b4 -->
<g id="node5" class="node">
<title>b4</title>
<polygon fill="lightblue" stroke="black" points="1508,-120 1212,-120 1212,-68 1508,-68 1508,-120"/>
<text text-anchor="middle" x="1360" y="-108" font-family="Helvetica" font-size="10.00">B4</text>
<text text-anchor="middle" x="1360" y="-97" font-family="Helvetica" font-size="10.00">Loop: L0</text>
<text text-anchor="middle" x="1360" y="-86" font-family="Helvetica" font-size="10.00">&#45;&#45;&#45;</text>
<text text-anchor="middle" x="1360" y="-75" font-family="Helvetica" font-size="10.00">HotSpotMethod&lt;LoopBenchmarks.monteCarloPiLoop(long, int)&gt;</text>
</g>
<!-- b3&#45;&gt;b4 -->
<g id="edge5" class="edge">
<title>b3&#45;&gt;b4</title>
<path fill="none" stroke="black" d="M1100.71,-68C1134.56,-66.79 1170.77,-66.68 1205.05,-67.67"/>
<polygon fill="black" stroke="black" points="1205.03,-71.17 1215.14,-67.99 1205.26,-64.17 1205.03,-71.17"/>
</g>
<!-- b3&#45;&gt;b8 -->
<g id="edge6" class="edge">
<title>b3&#45;&gt;b8</title>
<path fill="none" stroke="black" d="M1041.76,-120.15C1107.08,-140.29 1197.35,-168.14 1264.9,-188.97"/>
<polygon fill="black" stroke="black" points="1264.11,-192.39 1274.7,-192 1266.17,-185.7 1264.11,-192.39"/>
</g>
<!-- b4&#45;&gt;b3 -->
<g id="edge7" class="edge">
<title>b4&#45;&gt;b3</title>
<path fill="none" stroke="black" d="M1215.14,-120.01C1181.29,-121.21 1145.07,-121.32 1110.8,-120.33"/>
<polygon fill="black" stroke="black" points="1110.82,-116.83 1100.71,-120 1110.59,-123.82 1110.82,-116.83"/>
</g>
<!-- b6 -->
<g id="node7" class="node">
<title>b6</title>
<polygon fill="lightblue" stroke="black" points="1912,-52 1616,-52 1616,0 1912,0 1912,-52"/>
<text text-anchor="middle" x="1764" y="-40" font-family="Helvetica" font-size="10.00">B6</text>
<text text-anchor="middle" x="1764" y="-29" font-family="Helvetica" font-size="10.00">Loop: L0</text>
<text text-anchor="middle" x="1764" y="-18" font-family="Helvetica" font-size="10.00">&#45;&#45;&#45;</text>
<text text-anchor="middle" x="1764" y="-7" font-family="Helvetica" font-size="10.00">HotSpotMethod&lt;LoopBenchmarks.monteCarloPiLoop(long, int)&gt;</text>
</g>
<!-- b4&#45;&gt;b6 -->
<g id="edge8" class="edge">
<title>b4&#45;&gt;b6</title>
<path fill="none" stroke="black" d="M1508.12,-69.11C1539.92,-63.74 1573.66,-58.03 1605.82,-52.59"/>
<polygon fill="black" stroke="black" points="1606.47,-56.03 1615.75,-50.91 1605.31,-49.13 1606.47,-56.03"/>
</g>
<!-- b5 -->
<g id="node6" class="node">
<title>b5</title>
<polygon fill="lightblue" stroke="black" points="700,-109 404,-109 404,-57 700,-57 700,-109"/>
<text text-anchor="middle" x="552" y="-97" font-family="Helvetica" font-size="10.00">B5</text>
<text text-anchor="middle" x="552" y="-86" font-family="Helvetica" font-size="10.00">Loop: L0</text>
<text text-anchor="middle" x="552" y="-75" font-family="Helvetica" font-size="10.00">&#45;&#45;&#45;</text>
<text text-anchor="middle" x="552" y="-64" font-family="Helvetica" font-size="10.00">HotSpotMethod&lt;LoopBenchmarks.monteCarloPiLoop(long, int)&gt;</text>
</g>
<!-- b5&#45;&gt;b3 -->
<g id="edge9" class="edge">
<title>b5&#45;&gt;b3</title>
<path fill="none" stroke="black" d="M700.12,-87.03C731.78,-87.89 765.37,-88.81 797.41,-89.69"/>
<polygon fill="black" stroke="black" points="797.66,-93.2 807.75,-89.97 797.85,-86.2 797.66,-93.2"/>
</g>
<!-- b6&#45;&gt;b3 -->
<g id="edge10" class="edge">
<title>b6&#45;&gt;b3</title>
<path fill="none" stroke="black" d="M1615.92,-18.56C1504.58,-15.11 1348.1,-14.94 1212,-32 1158.5,-38.71 1099.97,-52.46 1052.49,-65.32"/>
<polygon fill="black" stroke="black" points="1051.56,-61.94 1042.84,-67.96 1053.41,-68.69 1051.56,-61.94"/>
</g>
<!-- b7 -->
<g id="node8" class="node">
<title>b7</title>
<polygon fill="white" stroke="black" points="1104,-244 808,-244 808,-192 1104,-192 1104,-244"/>
<text text-anchor="middle" x="956" y="-232" font-family="Helvetica" font-size="10.00">B7</text>
<text text-anchor="middle" x="956" y="-221" font-family="Helvetica" font-size="10.00">Loop: &lt;none&gt;</text>
<text text-anchor="middle" x="956" y="-210" font-family="Helvetica" font-size="10.00">&#45;&#45;&#45;</text>
<text text-anchor="middle" x="956" y="-199" font-family="Helvetica" font-size="10.00">HotSpotMethod&lt;LoopBenchmarks.monteCarloPiLoop(long, int)&gt;</text>
</g>
<!-- b7&#45;&gt;b8 -->
<g id="edge11" class="edge">
<title>b7&#45;&gt;b8</title>
<path fill="none" stroke="black" d="M1104.12,-218C1135.78,-218 1169.37,-218 1201.41,-218"/>
<polygon fill="black" stroke="black" points="1201.75,-221.5 1211.75,-218 1201.75,-214.5 1201.75,-221.5"/>
</g>
</g>
</svg>
