<?xml version="1.0" encoding="UTF-8" standalone="no"?>
<!DOCTYPE svg PUBLIC "-//W3C//DTD SVG 1.1//EN"
 "http://www.w3.org/Graphics/SVG/1.1/DTD/svg11.dtd">
<!-- Generated by graphviz version 2.44.0 (0)
 -->
<!-- Title: CFG_112 Pages: 1 -->
<svg width="4412pt" height="1443pt"
 viewBox="0.00 0.00 4412.00 1443.04" xmlns="http://www.w3.org/2000/svg" xmlns:xlink="http://www.w3.org/1999/xlink">
<g id="graph0" class="graph" transform="scale(1 1) rotate(0) translate(4 1439.04)">
<title>CFG_112</title>
<polygon fill="white" stroke="transparent" points="-4,4 -4,-1439.04 4408,-1439.04 4408,4 -4,4"/>
<text text-anchor="middle" x="225.5" y="-1415.04" font-family="Times-Roman" font-size="20.00">178&#45;LoopBenchmarks.bubbleSortLoop(int[])</text>
<!-- b0 -->
<g id="node1" class="node">
<title>b0</title>
<polygon fill="white" stroke="black" points="268,-422 0,-422 0,-370 268,-370 268,-422"/>
<text text-anchor="middle" x="134" y="-410" font-family="Helvetica" font-size="10.00">B0</text>
<text text-anchor="middle" x="134" y="-399" font-family="Helvetica" font-size="10.00">Loop: &lt;none&gt;</text>
<text text-anchor="middle" x="134" y="-388" font-family="Helvetica" font-size="10.00">&#45;&#45;&#45;</text>
<text text-anchor="middle" x="134" y="-377" font-family="Helvetica" font-size="10.00">HotSpotMethod&lt;LoopBenchmarks.bubbleSortLoop(int[])&gt;</text>
</g>
<!-- b1 -->
<g id="node2" class="node">
<title>b1</title>
<polygon fill="lightblue" stroke="black" points="644,-422 376,-422 376,-370 644,-370 644,-422"/>
<text text-anchor="middle" x="510" y="-410" font-family="Helvetica" font-size="10.00">B1</text>
<text text-anchor="middle" x="510" y="-399" font-family="Helvetica" font-size="10.00">Loop: L0</text>
<text text-anchor="middle" x="510" y="-388" font-family="Helvetica" font-size="10.00">&#45;&#45;&#45;</text>
<text text-anchor="middle" x="510" y="-377" font-family="Helvetica" font-size="10.00">HotSpotMethod&lt;LoopBenchmarks.bubbleSortLoop(int[])&gt;</text>
</g>
<!-- b0&#45;&gt;b1 -->
<g id="edge1" class="edge">
<title>b0&#45;&gt;b1</title>
<path fill="none" stroke="black" d="M268.18,-396C299.71,-396 333.47,-396 365.44,-396"/>
<polygon fill="black" stroke="black" points="365.75,-399.5 375.75,-396 365.75,-392.5 365.75,-399.5"/>
</g>
<!-- b2 -->
<g id="node3" class="node">
<title>b2</title>
<polygon fill="lightblue" stroke="black" points="1020,-738 752,-738 752,-686 1020,-686 1020,-738"/>
<text text-anchor="middle" x="886" y="-726" font-family="Helvetica" font-size="10.00">B2</text>
<text text-anchor="middle" x="886" y="-715" font-family="Helvetica" font-size="10.00">Loop: L0</text>
<text text-anchor="middle" x="886" y="-704" font-family="Helvetica" font-size="10.00">&#45;&#45;&#45;</text>
<text text-anchor="middle" x="886" y="-693" font-family="Helvetica" font-size="10.00">HotSpotMethod&lt;LoopBenchmarks.bubbleSortLoop(int[])&gt;</text>
</g>
<!-- b1&#45;&gt;b2 -->
<g id="edge2" class="edge">
<title>b1&#45;&gt;b2</title>
<path fill="none" stroke="black" d="M541.92,-422.13C609.81,-479.48 771.73,-616.29 846.25,-679.26"/>
<polygon fill="black" stroke="black" points="844.14,-682.06 854.04,-685.84 848.66,-676.71 844.14,-682.06"/>
</g>
<!-- b19 -->
<g id="node20" class="node">
<title>b19</title>
<polygon fill="white" stroke="black" points="1020,-422 752,-422 752,-370 1020,-370 1020,-422"/>
<text text-anchor="middle" x="886" y="-410" font-family="Helvetica" font-size="10.00">B19</text>
<text text-anchor="middle" x="886" y="-399" font-family="Helvetica" font-size="10.00">Loop: &lt;none&gt;</text>
<text text-anchor="middle" x="886" y="-388" font-family="Helvetica" font-size="10.00">&#45;&#45;&#45;</text>
<text text-anchor="middle" x="886" y="-377" font-family="Helvetica" font-size="10.00">HotSpotMethod&lt;LoopBenchmarks.bubbleSortLoop(int[])&gt;</text>
</g>
<!-- b1&#45;&gt;b19 -->
<g id="edge3" class="edge">
<title>b1&#45;&gt;b19</title>
<path fill="none" stroke="black" d="M644.18,-396C675.71,-396 709.47,-396 741.44,-396"/>
<polygon fill="black" stroke="black" points="741.75,-399.5 751.75,-396 741.75,-392.5 741.75,-399.5"/>
</g>
<!-- b4 -->
<g id="node5" class="node">
<title>b4</title>
<polygon fill="lightblue" stroke="black" points="1396,-738 1128,-738 1128,-686 1396,-686 1396,-738"/>
<text text-anchor="middle" x="1262" y="-726" font-family="Helvetica" font-size="10.00">B4</text>
<text text-anchor="middle" x="1262" y="-715" font-family="Helvetica" font-size="10.00">Loop: L0</text>
<text text-anchor="middle" x="1262" y="-704" font-family="Helvetica" font-size="10.00">&#45;&#45;&#45;</text>
<text text-anchor="middle" x="1262" y="-693" font-family="Helvetica" font-size="10.00">HotSpotMethod&lt;LoopBenchmarks.bubbleSortLoop(int[])&gt;</text>
</g>
<!-- b2&#45;&gt;b4 -->
<g id="edge5" class="edge">
<title>b2&#45;&gt;b4</title>
<path fill="none" stroke="black" d="M1020.18,-712C1051.71,-712 1085.47,-712 1117.44,-712"/>
<polygon fill="black" stroke="black" points="1117.75,-715.5 1127.75,-712 1117.75,-708.5 1117.75,-715.5"/>
</g>
<!-- b8 -->
<g id="node9" class="node">
<title>b8</title>
<polygon fill="lightblue" stroke="black" points="2148,-1056 1880,-1056 1880,-1004 2148,-1004 2148,-1056"/>
<text text-anchor="middle" x="2014" y="-1044" font-family="Helvetica" font-size="10.00">B8</text>
<text text-anchor="middle" x="2014" y="-1033" font-family="Helvetica" font-size="10.00">Loop: L0</text>
<text text-anchor="middle" x="2014" y="-1022" font-family="Helvetica" font-size="10.00">&#45;&#45;&#45;</text>
<text text-anchor="middle" x="2014" y="-1011" font-family="Helvetica" font-size="10.00">HotSpotMethod&lt;LoopBenchmarks.bubbleSortLoop(int[])&gt;</text>
</g>
<!-- b2&#45;&gt;b8 -->
<g id="edge4" class="edge">
<title>b2&#45;&gt;b8</title>
<path fill="none" stroke="black" d="M915.87,-738.21C999.27,-811.91 1250.72,-1020.26 1504,-1092 1651.28,-1133.72 1830.35,-1091.42 1932.06,-1059.15"/>
<polygon fill="black" stroke="black" points="1933.21,-1062.46 1941.66,-1056.06 1931.07,-1055.79 1933.21,-1062.46"/>
</g>
<!-- b3 -->
<g id="node4" class="node">
<title>b3</title>
<polygon fill="lightblue" stroke="black" points="1772,-1056 1504,-1056 1504,-1004 1772,-1004 1772,-1056"/>
<text text-anchor="middle" x="1638" y="-1044" font-family="Helvetica" font-size="10.00">B3</text>
<text text-anchor="middle" x="1638" y="-1033" font-family="Helvetica" font-size="10.00">Loop: L0</text>
<text text-anchor="middle" x="1638" y="-1022" font-family="Helvetica" font-size="10.00">&#45;&#45;&#45;</text>
<text text-anchor="middle" x="1638" y="-1011" font-family="Helvetica" font-size="10.00">HotSpotMethod&lt;LoopBenchmarks.bubbleSortLoop(int[])&gt;</text>
</g>
<!-- b3&#45;&gt;b8 -->
<g id="edge6" class="edge">
<title>b3&#45;&gt;b8</title>
<path fill="none" stroke="black" d="M1772.18,-1030C1803.71,-1030 1837.47,-1030 1869.44,-1030"/>
<polygon fill="black" stroke="black" points="1869.75,-1033.5 1879.75,-1030 1869.75,-1026.5 1869.75,-1033.5"/>
</g>
<!-- b5 -->
<g id="node6" class="node">
<title>b5</title>
<polygon fill="lightblue" stroke="black" points="1772,-808 1504,-808 1504,-756 1772,-756 1772,-808"/>
<text text-anchor="middle" x="1638" y="-796" font-family="Helvetica" font-size="10.00">B5</text>
<text text-anchor="middle" x="1638" y="-785" font-family="Helvetica" font-size="10.00">Loop: L0</text>
<text text-anchor="middle" x="1638" y="-774" font-family="Helvetica" font-size="10.00">&#45;&#45;&#45;</text>
<text text-anchor="middle" x="1638" y="-763" font-family="Helvetica" font-size="10.00">HotSpotMethod&lt;LoopBenchmarks.bubbleSortLoop(int[])&gt;</text>
</g>
<!-- b4&#45;&gt;b5 -->
<g id="edge7" class="edge">
<title>b4&#45;&gt;b5</title>
<path fill="none" stroke="black" d="M1396.18,-736.93C1427.84,-742.85 1461.76,-749.2 1493.85,-755.21"/>
<polygon fill="black" stroke="black" points="1493.28,-758.66 1503.75,-757.06 1494.56,-751.78 1493.28,-758.66"/>
</g>
<!-- b23 -->
<g id="node24" class="node">
<title>b23</title>
<polygon fill="white" stroke="black" points="3276,-601 3008,-601 3008,-549 3276,-549 3276,-601"/>
<text text-anchor="middle" x="3142" y="-589" font-family="Helvetica" font-size="10.00">B23</text>
<text text-anchor="middle" x="3142" y="-578" font-family="Helvetica" font-size="10.00">Loop: &lt;none&gt;</text>
<text text-anchor="middle" x="3142" y="-567" font-family="Helvetica" font-size="10.00">&#45;&#45;&#45;</text>
<text text-anchor="middle" x="3142" y="-556" font-family="Helvetica" font-size="10.00">HotSpotMethod&lt;LoopBenchmarks.bubbleSortLoop(int[])&gt;</text>
</g>
<!-- b4&#45;&gt;b23 -->
<g id="edge8" class="edge">
<title>b4&#45;&gt;b23</title>
<path fill="none" stroke="black" d="M1396.1,-692.03C1545.76,-671.34 1796.24,-642 2013,-642 2013,-642 2013,-642 2391,-642 2602.81,-642 2846.94,-615.16 2997.64,-595.46"/>
<polygon fill="black" stroke="black" points="2998.41,-598.88 3007.87,-594.11 2997.5,-591.94 2998.41,-598.88"/>
</g>
<!-- b5&#45;&gt;b8 -->
<g id="edge10" class="edge">
<title>b5&#45;&gt;b8</title>
<path fill="none" stroke="black" d="M1702.39,-808.1C1724.93,-818.27 1750.13,-830.69 1772,-844 1849.03,-890.89 1930.44,-957.9 1976.17,-997.38"/>
<polygon fill="black" stroke="black" points="1973.89,-1000.04 1983.74,-1003.95 1978.48,-994.75 1973.89,-1000.04"/>
</g>
<!-- b5&#45;&gt;b23 -->
<g id="edge9" class="edge">
<title>b5&#45;&gt;b23</title>
<path fill="none" stroke="black" d="M1772.12,-790.21C2005.33,-800.83 2500.89,-806.58 2900,-697 2971.16,-677.46 3045.9,-635.85 3092.93,-606.68"/>
<polygon fill="black" stroke="black" points="3095.05,-609.48 3101.67,-601.2 3091.33,-603.55 3095.05,-609.48"/>
</g>
<!-- b6 -->
<g id="node7" class="node">
<title>b6</title>
<polygon fill="white" stroke="black" points="2900,-533 2632,-533 2632,-481 2900,-481 2900,-533"/>
<text text-anchor="middle" x="2766" y="-521" font-family="Helvetica" font-size="10.00">B6</text>
<text text-anchor="middle" x="2766" y="-510" font-family="Helvetica" font-size="10.00">Loop: &lt;none&gt;</text>
<text text-anchor="middle" x="2766" y="-499" font-family="Helvetica" font-size="10.00">&#45;&#45;&#45;</text>
<text text-anchor="middle" x="2766" y="-488" font-family="Helvetica" font-size="10.00">HotSpotMethod&lt;LoopBenchmarks.bubbleSortLoop(int[])&gt;</text>
</g>
<!-- b6&#45;&gt;b23 -->
<g id="edge11" class="edge">
<title>b6&#45;&gt;b23</title>
<path fill="none" stroke="black" d="M2900.18,-531.21C2931.84,-536.97 2965.76,-543.14 2997.85,-548.97"/>
<polygon fill="black" stroke="black" points="2997.28,-552.43 3007.75,-550.77 2998.54,-545.54 2997.28,-552.43"/>
</g>
<!-- b7 -->
<g id="node8" class="node">
<title>b7</title>
<polygon fill="lightblue" stroke="black" points="1772,-932 1504,-932 1504,-880 1772,-880 1772,-932"/>
<text text-anchor="middle" x="1638" y="-920" font-family="Helvetica" font-size="10.00">B7</text>
<text text-anchor="middle" x="1638" y="-909" font-family="Helvetica" font-size="10.00">Loop: L0</text>
<text text-anchor="middle" x="1638" y="-898" font-family="Helvetica" font-size="10.00">&#45;&#45;&#45;</text>
<text text-anchor="middle" x="1638" y="-887" font-family="Helvetica" font-size="10.00">HotSpotMethod&lt;LoopBenchmarks.bubbleSortLoop(int[])&gt;</text>
</g>
<!-- b7&#45;&gt;b8 -->
<g id="edge12" class="edge">
<title>b7&#45;&gt;b8</title>
<path fill="none" stroke="black" d="M1717.86,-932.15C1778.5,-952.25 1862.27,-980.02 1925.07,-1000.85"/>
<polygon fill="black" stroke="black" points="1923.98,-1004.17 1934.57,-1004 1926.18,-997.53 1923.98,-1004.17"/>
</g>
<!-- b10 -->
<g id="node11" class="node">
<title>b10</title>
<polygon fill="lightblue" stroke="black" points="2524,-1056 2256,-1056 2256,-1004 2524,-1004 2524,-1056"/>
<text text-anchor="middle" x="2390" y="-1044" font-family="Helvetica" font-size="10.00">B10</text>
<text text-anchor="middle" x="2390" y="-1033" font-family="Helvetica" font-size="10.00">Loop: L0</text>
<text text-anchor="middle" x="2390" y="-1022" font-family="Helvetica" font-size="10.00">&#45;&#45;&#45;</text>
<text text-anchor="middle" x="2390" y="-1011" font-family="Helvetica" font-size="10.00">HotSpotMethod&lt;LoopBenchmarks.bubbleSortLoop(int[])&gt;</text>
</g>
<!-- b8&#45;&gt;b10 -->
<g id="edge14" class="edge">
<title>b8&#45;&gt;b10</title>
<path fill="none" stroke="black" d="M2148.18,-1030C2179.71,-1030 2213.47,-1030 2245.44,-1030"/>
<polygon fill="black" stroke="black" points="2245.75,-1033.5 2255.75,-1030 2245.75,-1026.5 2245.75,-1033.5"/>
</g>
<!-- b14 -->
<g id="node15" class="node">
<title>b14</title>
<polygon fill="lightblue" stroke="black" points="3276,-1219 3008,-1219 3008,-1167 3276,-1167 3276,-1219"/>
<text text-anchor="middle" x="3142" y="-1207" font-family="Helvetica" font-size="10.00">B14</text>
<text text-anchor="middle" x="3142" y="-1196" font-family="Helvetica" font-size="10.00">Loop: L0</text>
<text text-anchor="middle" x="3142" y="-1185" font-family="Helvetica" font-size="10.00">&#45;&#45;&#45;</text>
<text text-anchor="middle" x="3142" y="-1174" font-family="Helvetica" font-size="10.00">HotSpotMethod&lt;LoopBenchmarks.bubbleSortLoop(int[])&gt;</text>
</g>
<!-- b8&#45;&gt;b14 -->
<g id="edge13" class="edge">
<title>b8&#45;&gt;b14</title>
<path fill="none" stroke="black" d="M2046.77,-1056.08C2133.68,-1125.54 2385.35,-1314.07 2632,-1379 2747.19,-1409.32 2787.26,-1417.44 2900,-1379 2988.43,-1348.84 3069.65,-1271.65 3111.45,-1226.75"/>
<polygon fill="black" stroke="black" points="3114.11,-1229.03 3118.3,-1219.3 3108.96,-1224.29 3114.11,-1229.03"/>
</g>
<!-- b9 -->
<g id="node10" class="node">
<title>b9</title>
<polygon fill="lightblue" stroke="black" points="2900,-1343 2632,-1343 2632,-1291 2900,-1291 2900,-1343"/>
<text text-anchor="middle" x="2766" y="-1331" font-family="Helvetica" font-size="10.00">B9</text>
<text text-anchor="middle" x="2766" y="-1320" font-family="Helvetica" font-size="10.00">Loop: L0</text>
<text text-anchor="middle" x="2766" y="-1309" font-family="Helvetica" font-size="10.00">&#45;&#45;&#45;</text>
<text text-anchor="middle" x="2766" y="-1298" font-family="Helvetica" font-size="10.00">HotSpotMethod&lt;LoopBenchmarks.bubbleSortLoop(int[])&gt;</text>
</g>
<!-- b9&#45;&gt;b14 -->
<g id="edge15" class="edge">
<title>b9&#45;&gt;b14</title>
<path fill="none" stroke="black" d="M2845.86,-1290.85C2906.5,-1270.75 2990.27,-1242.98 3053.07,-1222.15"/>
<polygon fill="black" stroke="black" points="3054.18,-1225.47 3062.57,-1219 3051.98,-1218.83 3054.18,-1225.47"/>
</g>
<!-- b11 -->
<g id="node12" class="node">
<title>b11</title>
<polygon fill="lightblue" stroke="black" points="2900,-1095 2632,-1095 2632,-1043 2900,-1043 2900,-1095"/>
<text text-anchor="middle" x="2766" y="-1083" font-family="Helvetica" font-size="10.00">B11</text>
<text text-anchor="middle" x="2766" y="-1072" font-family="Helvetica" font-size="10.00">Loop: L0</text>
<text text-anchor="middle" x="2766" y="-1061" font-family="Helvetica" font-size="10.00">&#45;&#45;&#45;</text>
<text text-anchor="middle" x="2766" y="-1050" font-family="Helvetica" font-size="10.00">HotSpotMethod&lt;LoopBenchmarks.bubbleSortLoop(int[])&gt;</text>
</g>
<!-- b10&#45;&gt;b11 -->
<g id="edge16" class="edge">
<title>b10&#45;&gt;b11</title>
<path fill="none" stroke="black" d="M2524.18,-1043.89C2555.71,-1047.18 2589.47,-1050.7 2621.44,-1054.03"/>
<polygon fill="black" stroke="black" points="2621.44,-1057.55 2631.75,-1055.1 2622.17,-1050.59 2621.44,-1057.55"/>
</g>
<!-- b10&#45;&gt;b23 -->
<g id="edge17" class="edge">
<title>b10&#45;&gt;b23</title>
<path fill="none" stroke="black" d="M2509.22,-1003.99C2617.55,-976.28 2778.98,-924.95 2900,-843 2996.15,-777.89 3079.54,-666.35 3118.15,-609.91"/>
<polygon fill="black" stroke="black" points="3121.24,-611.58 3123.95,-601.34 3115.45,-607.65 3121.24,-611.58"/>
</g>
<!-- b11&#45;&gt;b14 -->
<g id="edge19" class="edge">
<title>b11&#45;&gt;b14</title>
<path fill="none" stroke="black" d="M2845.86,-1095.15C2906.5,-1115.25 2990.27,-1143.02 3053.07,-1163.85"/>
<polygon fill="black" stroke="black" points="3051.98,-1167.17 3062.57,-1167 3054.18,-1160.53 3051.98,-1167.17"/>
</g>
<!-- b11&#45;&gt;b23 -->
<g id="edge18" class="edge">
<title>b11&#45;&gt;b23</title>
<path fill="none" stroke="black" d="M2824.13,-1042.83C2849.45,-1029.29 2878.34,-1010.97 2900,-989 3015.66,-871.67 3096.64,-688.01 3127.34,-610.94"/>
<polygon fill="black" stroke="black" points="3130.76,-611.81 3131.17,-601.22 3124.25,-609.24 3130.76,-611.81"/>
</g>
<!-- b12 -->
<g id="node13" class="node">
<title>b12</title>
<polygon fill="white" stroke="black" points="2900,-409 2632,-409 2632,-357 2900,-357 2900,-409"/>
<text text-anchor="middle" x="2766" y="-397" font-family="Helvetica" font-size="10.00">B12</text>
<text text-anchor="middle" x="2766" y="-386" font-family="Helvetica" font-size="10.00">Loop: &lt;none&gt;</text>
<text text-anchor="middle" x="2766" y="-375" font-family="Helvetica" font-size="10.00">&#45;&#45;&#45;</text>
<text text-anchor="middle" x="2766" y="-364" font-family="Helvetica" font-size="10.00">HotSpotMethod&lt;LoopBenchmarks.bubbleSortLoop(int[])&gt;</text>
</g>
<!-- b12&#45;&gt;b23 -->
<g id="edge20" class="edge">
<title>b12&#45;&gt;b23</title>
<path fill="none" stroke="black" d="M2824.96,-409.13C2848.41,-419.93 2875.64,-432.77 2900,-445 2964.39,-477.34 3037.01,-516.95 3085.55,-543.89"/>
<polygon fill="black" stroke="black" points="3083.88,-546.97 3094.32,-548.77 3087.28,-540.85 3083.88,-546.97"/>
</g>
<!-- b13 -->
<g id="node14" class="node">
<title>b13</title>
<polygon fill="lightblue" stroke="black" points="2900,-1219 2632,-1219 2632,-1167 2900,-1167 2900,-1219"/>
<text text-anchor="middle" x="2766" y="-1207" font-family="Helvetica" font-size="10.00">B13</text>
<text text-anchor="middle" x="2766" y="-1196" font-family="Helvetica" font-size="10.00">Loop: L0</text>
<text text-anchor="middle" x="2766" y="-1185" font-family="Helvetica" font-size="10.00">&#45;&#45;&#45;</text>
<text text-anchor="middle" x="2766" y="-1174" font-family="Helvetica" font-size="10.00">HotSpotMethod&lt;LoopBenchmarks.bubbleSortLoop(int[])&gt;</text>
</g>
<!-- b13&#45;&gt;b14 -->
<g id="edge21" class="edge">
<title>b13&#45;&gt;b14</title>
<path fill="none" stroke="black" d="M2900.18,-1193C2931.71,-1193 2965.47,-1193 2997.44,-1193"/>
<polygon fill="black" stroke="black" points="2997.75,-1196.5 3007.75,-1193 2997.75,-1189.5 2997.75,-1196.5"/>
</g>
<!-- b15 -->
<g id="node16" class="node">
<title>b15</title>
<polygon fill="lightgreen" stroke="black" points="3652,-1021 3384,-1021 3384,-969 3652,-969 3652,-1021"/>
<text text-anchor="middle" x="3518" y="-1009" font-family="Helvetica" font-size="10.00">B15</text>
<text text-anchor="middle" x="3518" y="-998" font-family="Helvetica" font-size="10.00">Loop: L1</text>
<text text-anchor="middle" x="3518" y="-987" font-family="Helvetica" font-size="10.00">&#45;&#45;&#45;</text>
<text text-anchor="middle" x="3518" y="-976" font-family="Helvetica" font-size="10.00">HotSpotMethod&lt;LoopBenchmarks.bubbleSortLoop(int[])&gt;</text>
</g>
<!-- b14&#45;&gt;b15 -->
<g id="edge22" class="edge">
<title>b14&#45;&gt;b15</title>
<path fill="none" stroke="black" d="M3192.28,-1166.91C3260.95,-1130.56 3385.21,-1064.77 3458.5,-1025.97"/>
<polygon fill="black" stroke="black" points="3460.41,-1028.92 3467.61,-1021.15 3457.14,-1022.73 3460.41,-1028.92"/>
</g>
<!-- b16 -->
<g id="node17" class="node">
<title>b16</title>
<polygon fill="lightgreen" stroke="black" points="4028,-1089 3760,-1089 3760,-1037 4028,-1037 4028,-1089"/>
<text text-anchor="middle" x="3894" y="-1077" font-family="Helvetica" font-size="10.00">B16</text>
<text text-anchor="middle" x="3894" y="-1066" font-family="Helvetica" font-size="10.00">Loop: L1</text>
<text text-anchor="middle" x="3894" y="-1055" font-family="Helvetica" font-size="10.00">&#45;&#45;&#45;</text>
<text text-anchor="middle" x="3894" y="-1044" font-family="Helvetica" font-size="10.00">HotSpotMethod&lt;LoopBenchmarks.bubbleSortLoop(int[])&gt;</text>
</g>
<!-- b15&#45;&gt;b16 -->
<g id="edge23" class="edge">
<title>b15&#45;&gt;b16</title>
<path fill="none" stroke="black" d="M3652.18,-1019.21C3683.84,-1024.97 3717.76,-1031.14 3749.85,-1036.97"/>
<polygon fill="black" stroke="black" points="3749.28,-1040.43 3759.75,-1038.77 3750.54,-1033.54 3749.28,-1040.43"/>
</g>
<!-- b18 -->
<g id="node19" class="node">
<title>b18</title>
<polygon fill="lightblue" stroke="black" points="4028,-555 3760,-555 3760,-503 4028,-503 4028,-555"/>
<text text-anchor="middle" x="3894" y="-543" font-family="Helvetica" font-size="10.00">B18</text>
<text text-anchor="middle" x="3894" y="-532" font-family="Helvetica" font-size="10.00">Loop: L0</text>
<text text-anchor="middle" x="3894" y="-521" font-family="Helvetica" font-size="10.00">&#45;&#45;&#45;</text>
<text text-anchor="middle" x="3894" y="-510" font-family="Helvetica" font-size="10.00">HotSpotMethod&lt;LoopBenchmarks.bubbleSortLoop(int[])&gt;</text>
</g>
<!-- b15&#45;&gt;b18 -->
<g id="edge24" class="edge">
<title>b15&#45;&gt;b18</title>
<path fill="none" stroke="black" d="M3539.91,-968.95C3603.46,-889.77 3794.32,-651.95 3865.68,-563.04"/>
<polygon fill="black" stroke="black" points="3868.48,-565.15 3872.01,-555.16 3863.02,-560.76 3868.48,-565.15"/>
</g>
<!-- b17 -->
<g id="node18" class="node">
<title>b17</title>
<polygon fill="lightgreen" stroke="black" points="4404,-960 4136,-960 4136,-908 4404,-908 4404,-960"/>
<text text-anchor="middle" x="4270" y="-948" font-family="Helvetica" font-size="10.00">B17</text>
<text text-anchor="middle" x="4270" y="-937" font-family="Helvetica" font-size="10.00">Loop: L1</text>
<text text-anchor="middle" x="4270" y="-926" font-family="Helvetica" font-size="10.00">&#45;&#45;&#45;</text>
<text text-anchor="middle" x="4270" y="-915" font-family="Helvetica" font-size="10.00">HotSpotMethod&lt;LoopBenchmarks.bubbleSortLoop(int[])&gt;</text>
</g>
<!-- b16&#45;&gt;b17 -->
<g id="edge25" class="edge">
<title>b16&#45;&gt;b17</title>
<path fill="none" stroke="black" d="M3970.68,-1036.89C4032.4,-1015.61 4119.56,-985.55 4183.73,-963.41"/>
<polygon fill="black" stroke="black" points="4185.12,-966.64 4193.43,-960.07 4182.83,-960.02 4185.12,-966.64"/>
</g>
<!-- b20 -->
<g id="node21" class="node">
<title>b20</title>
<polygon fill="white" stroke="black" points="4404,-1089 4136,-1089 4136,-1037 4404,-1037 4404,-1089"/>
<text text-anchor="middle" x="4270" y="-1077" font-family="Helvetica" font-size="10.00">B20</text>
<text text-anchor="middle" x="4270" y="-1066" font-family="Helvetica" font-size="10.00">Loop: &lt;none&gt;</text>
<text text-anchor="middle" x="4270" y="-1055" font-family="Helvetica" font-size="10.00">&#45;&#45;&#45;</text>
<text text-anchor="middle" x="4270" y="-1044" font-family="Helvetica" font-size="10.00">HotSpotMethod&lt;LoopBenchmarks.bubbleSortLoop(int[])&gt;</text>
</g>
<!-- b16&#45;&gt;b20 -->
<g id="edge26" class="edge">
<title>b16&#45;&gt;b20</title>
<path fill="none" stroke="black" d="M4028.18,-1063C4059.71,-1063 4093.47,-1063 4125.44,-1063"/>
<polygon fill="black" stroke="black" points="4125.75,-1066.5 4135.75,-1063 4125.75,-1059.5 4125.75,-1066.5"/>
</g>
<!-- b17&#45;&gt;b15 -->
<g id="edge27" class="edge">
<title>b17&#45;&gt;b15</title>
<path fill="none" stroke="black" d="M4135.76,-944.84C4002.7,-955.66 3798.85,-972.24 3662.34,-983.34"/>
<polygon fill="black" stroke="black" points="3661.9,-979.87 3652.22,-984.16 3662.47,-986.84 3661.9,-979.87"/>
</g>
<!-- b18&#45;&gt;b1 -->
<g id="edge28" class="edge">
<title>b18&#45;&gt;b1</title>
<path fill="none" stroke="black" d="M3875.04,-502.77C3799.6,-396.03 3495.94,0 3143,0 1261,0 1261,0 1261,0 951.39,0 644.4,-267.16 544.61,-362.61"/>
<polygon fill="black" stroke="black" points="542.01,-360.25 537.23,-369.71 546.86,-365.29 542.01,-360.25"/>
</g>
<!-- b21 -->
<g id="node22" class="node">
<title>b21</title>
<polygon fill="white" stroke="black" points="2900,-285 2632,-285 2632,-233 2900,-233 2900,-285"/>
<text text-anchor="middle" x="2766" y="-273" font-family="Helvetica" font-size="10.00">B21</text>
<text text-anchor="middle" x="2766" y="-262" font-family="Helvetica" font-size="10.00">Loop: &lt;none&gt;</text>
<text text-anchor="middle" x="2766" y="-251" font-family="Helvetica" font-size="10.00">&#45;&#45;&#45;</text>
<text text-anchor="middle" x="2766" y="-240" font-family="Helvetica" font-size="10.00">HotSpotMethod&lt;LoopBenchmarks.bubbleSortLoop(int[])&gt;</text>
</g>
<!-- b21&#45;&gt;b23 -->
<g id="edge29" class="edge">
<title>b21&#45;&gt;b23</title>
<path fill="none" stroke="black" d="M2835.68,-285.1C2857.22,-294.81 2880.46,-306.93 2900,-321 2990.38,-386.06 3074.82,-488.08 3115.54,-540.84"/>
<polygon fill="black" stroke="black" points="3112.84,-543.07 3121.7,-548.88 3118.39,-538.81 3112.84,-543.07"/>
</g>
<!-- b22 -->
<g id="node23" class="node">
<title>b22</title>
<polygon fill="white" stroke="black" points="2900,-161 2632,-161 2632,-109 2900,-109 2900,-161"/>
<text text-anchor="middle" x="2766" y="-149" font-family="Helvetica" font-size="10.00">B22</text>
<text text-anchor="middle" x="2766" y="-138" font-family="Helvetica" font-size="10.00">Loop: &lt;none&gt;</text>
<text text-anchor="middle" x="2766" y="-127" font-family="Helvetica" font-size="10.00">&#45;&#45;&#45;</text>
<text text-anchor="middle" x="2766" y="-116" font-family="Helvetica" font-size="10.00">HotSpotMethod&lt;LoopBenchmarks.bubbleSortLoop(int[])&gt;</text>
</g>
<!-- b22&#45;&gt;b23 -->
<g id="edge30" class="edge">
<title>b22&#45;&gt;b23</title>
<path fill="none" stroke="black" d="M2842.22,-161.12C2862.4,-170.41 2883.24,-182.31 2900,-197 3015.1,-297.9 3095.59,-466.86 3126.71,-539.76"/>
<polygon fill="black" stroke="black" points="3123.49,-541.13 3130.61,-548.98 3129.94,-538.41 3123.49,-541.13"/>
</g>
</g>
</svg>
