<?xml version="1.0" encoding="UTF-8" standalone="no"?>
<!DOCTYPE svg PUBLIC "-//W3C//DTD SVG 1.1//EN"
 "http://www.w3.org/Graphics/SVG/1.1/DTD/svg11.dtd">
<!-- Generated by graphviz version 2.44.0 (0)
 -->
<!-- Title: CFG_29 Pages: 1 -->
<svg width="4443pt" height="647pt"
 viewBox="0.00 0.00 4443.00 646.72" xmlns="http://www.w3.org/2000/svg" xmlns:xlink="http://www.w3.org/1999/xlink">
<g id="graph0" class="graph" transform="scale(1 1) rotate(0) translate(4 642.72)">
<title>CFG_29</title>
<polygon fill="white" stroke="transparent" points="-4,4 -4,-642.72 4439,-642.72 4439,4 -4,4"/>
<text text-anchor="middle" x="303" y="-618.72" font-family="Times-Roman" font-size="20.00">52&#45;java.util.ImmutableCollections$SetN$SetNIterator.next()</text>
<!-- b0 -->
<g id="node1" class="node">
<title>b0</title>
<polygon fill="white" stroke="black" points="305,-546.72 0,-546.72 0,-494.72 305,-494.72 305,-546.72"/>
<text text-anchor="middle" x="152.5" y="-534.72" font-family="Helvetica" font-size="10.00">B0</text>
<text text-anchor="middle" x="152.5" y="-523.72" font-family="Helvetica" font-size="10.00">Loop: &lt;none&gt;</text>
<text text-anchor="middle" x="152.5" y="-512.72" font-family="Helvetica" font-size="10.00">&#45;&#45;&#45;</text>
<text text-anchor="middle" x="152.5" y="-501.72" font-family="Helvetica" font-size="10.00">HotSpotMethod&lt;ImmutableCollections$SetN$SetNIterator.next()&gt;</text>
</g>
<!-- b1 -->
<g id="node2" class="node">
<title>b1</title>
<polygon fill="white" stroke="black" points="718,-608.72 413,-608.72 413,-556.72 718,-556.72 718,-608.72"/>
<text text-anchor="middle" x="565.5" y="-596.72" font-family="Helvetica" font-size="10.00">B1</text>
<text text-anchor="middle" x="565.5" y="-585.72" font-family="Helvetica" font-size="10.00">Loop: &lt;none&gt;</text>
<text text-anchor="middle" x="565.5" y="-574.72" font-family="Helvetica" font-size="10.00">&#45;&#45;&#45;</text>
<text text-anchor="middle" x="565.5" y="-563.72" font-family="Helvetica" font-size="10.00">HotSpotMethod&lt;ImmutableCollections$SetN$SetNIterator.next()&gt;</text>
</g>
<!-- b0&#45;&gt;b1 -->
<g id="edge1" class="edge">
<title>b0&#45;&gt;b1</title>
<path fill="none" stroke="black" d="M305.08,-543.58C336.91,-548.38 370.59,-553.47 402.77,-558.32"/>
<polygon fill="black" stroke="black" points="402.29,-561.79 412.7,-559.82 403.34,-554.87 402.29,-561.79"/>
</g>
<!-- b2 -->
<g id="node3" class="node">
<title>b2</title>
<polygon fill="white" stroke="black" points="718,-484.72 413,-484.72 413,-432.72 718,-432.72 718,-484.72"/>
<text text-anchor="middle" x="565.5" y="-472.72" font-family="Helvetica" font-size="10.00">B2</text>
<text text-anchor="middle" x="565.5" y="-461.72" font-family="Helvetica" font-size="10.00">Loop: &lt;none&gt;</text>
<text text-anchor="middle" x="565.5" y="-450.72" font-family="Helvetica" font-size="10.00">&#45;&#45;&#45;</text>
<text text-anchor="middle" x="565.5" y="-439.72" font-family="Helvetica" font-size="10.00">HotSpotMethod&lt;ImmutableCollections$SetN$SetNIterator.next()&gt;</text>
</g>
<!-- b0&#45;&gt;b2 -->
<g id="edge2" class="edge">
<title>b0&#45;&gt;b2</title>
<path fill="none" stroke="black" d="M305.08,-497.85C336.91,-493.05 370.59,-487.97 402.77,-483.11"/>
<polygon fill="black" stroke="black" points="403.34,-486.57 412.7,-481.62 402.29,-479.65 403.34,-486.57"/>
</g>
<!-- b3 -->
<g id="node4" class="node">
<title>b3</title>
<polygon fill="white" stroke="black" points="1131,-417.72 826,-417.72 826,-365.72 1131,-365.72 1131,-417.72"/>
<text text-anchor="middle" x="978.5" y="-405.72" font-family="Helvetica" font-size="10.00">B3</text>
<text text-anchor="middle" x="978.5" y="-394.72" font-family="Helvetica" font-size="10.00">Loop: &lt;none&gt;</text>
<text text-anchor="middle" x="978.5" y="-383.72" font-family="Helvetica" font-size="10.00">&#45;&#45;&#45;</text>
<text text-anchor="middle" x="978.5" y="-372.72" font-family="Helvetica" font-size="10.00">HotSpotMethod&lt;ImmutableCollections$SetN$SetNIterator.next()&gt;</text>
</g>
<!-- b2&#45;&gt;b3 -->
<g id="edge3" class="edge">
<title>b2&#45;&gt;b3</title>
<path fill="none" stroke="black" d="M718.08,-434.01C749.91,-428.82 783.59,-423.33 815.77,-418.08"/>
<polygon fill="black" stroke="black" points="816.4,-421.53 825.7,-416.46 815.27,-414.62 816.4,-421.53"/>
</g>
<!-- b5 -->
<g id="node6" class="node">
<title>b5</title>
<polygon fill="white" stroke="black" points="1544,-417.72 1239,-417.72 1239,-365.72 1544,-365.72 1544,-417.72"/>
<text text-anchor="middle" x="1391.5" y="-405.72" font-family="Helvetica" font-size="10.00">B5</text>
<text text-anchor="middle" x="1391.5" y="-394.72" font-family="Helvetica" font-size="10.00">Loop: &lt;none&gt;</text>
<text text-anchor="middle" x="1391.5" y="-383.72" font-family="Helvetica" font-size="10.00">&#45;&#45;&#45;</text>
<text text-anchor="middle" x="1391.5" y="-372.72" font-family="Helvetica" font-size="10.00">HotSpotMethod&lt;ImmutableCollections$SetN$SetNIterator.next()&gt;</text>
</g>
<!-- b2&#45;&gt;b5 -->
<g id="edge4" class="edge">
<title>b2&#45;&gt;b5</title>
<path fill="none" stroke="black" d="M718.05,-466.6C832.05,-470.3 991.89,-470.73 1131,-453.72 1185.52,-447.05 1245.21,-433.26 1293.58,-420.37"/>
<polygon fill="black" stroke="black" points="1294.67,-423.7 1303.41,-417.72 1292.85,-416.94 1294.67,-423.7"/>
</g>
<!-- b3&#45;&gt;b5 -->
<g id="edge5" class="edge">
<title>b3&#45;&gt;b5</title>
<path fill="none" stroke="black" d="M1131.08,-391.72C1162.77,-391.72 1196.3,-391.72 1228.35,-391.72"/>
<polygon fill="black" stroke="black" points="1228.7,-395.22 1238.7,-391.72 1228.7,-388.22 1228.7,-395.22"/>
</g>
<!-- b4 -->
<g id="node5" class="node">
<title>b4</title>
<polygon fill="white" stroke="black" points="1131,-293.72 826,-293.72 826,-241.72 1131,-241.72 1131,-293.72"/>
<text text-anchor="middle" x="978.5" y="-281.72" font-family="Helvetica" font-size="10.00">B4</text>
<text text-anchor="middle" x="978.5" y="-270.72" font-family="Helvetica" font-size="10.00">Loop: &lt;none&gt;</text>
<text text-anchor="middle" x="978.5" y="-259.72" font-family="Helvetica" font-size="10.00">&#45;&#45;&#45;</text>
<text text-anchor="middle" x="978.5" y="-248.72" font-family="Helvetica" font-size="10.00">HotSpotMethod&lt;ImmutableCollections$SetN$SetNIterator.next()&gt;</text>
</g>
<!-- b4&#45;&gt;b5 -->
<g id="edge6" class="edge">
<title>b4&#45;&gt;b5</title>
<path fill="none" stroke="black" d="M1065.91,-293.79C1132.81,-313.97 1225.42,-341.91 1294.6,-362.79"/>
<polygon fill="black" stroke="black" points="1293.62,-366.14 1304.21,-365.68 1295.64,-359.44 1293.62,-366.14"/>
</g>
<!-- b6 -->
<g id="node7" class="node">
<title>b6</title>
<polygon fill="white" stroke="black" points="1957,-355.72 1652,-355.72 1652,-303.72 1957,-303.72 1957,-355.72"/>
<text text-anchor="middle" x="1804.5" y="-343.72" font-family="Helvetica" font-size="10.00">B6</text>
<text text-anchor="middle" x="1804.5" y="-332.72" font-family="Helvetica" font-size="10.00">Loop: &lt;none&gt;</text>
<text text-anchor="middle" x="1804.5" y="-321.72" font-family="Helvetica" font-size="10.00">&#45;&#45;&#45;</text>
<text text-anchor="middle" x="1804.5" y="-310.72" font-family="Helvetica" font-size="10.00">HotSpotMethod&lt;ImmutableCollections$SetN$SetNIterator.next()&gt;</text>
</g>
<!-- b5&#45;&gt;b6 -->
<g id="edge7" class="edge">
<title>b5&#45;&gt;b6</title>
<path fill="none" stroke="black" d="M1544.08,-368.85C1575.91,-364.05 1609.59,-358.97 1641.77,-354.11"/>
<polygon fill="black" stroke="black" points="1642.34,-357.57 1651.7,-352.62 1641.29,-350.65 1642.34,-357.57"/>
</g>
<!-- b18 -->
<g id="node19" class="node">
<title>b18</title>
<polygon fill="white" stroke="black" points="1957,-479.72 1652,-479.72 1652,-427.72 1957,-427.72 1957,-479.72"/>
<text text-anchor="middle" x="1804.5" y="-467.72" font-family="Helvetica" font-size="10.00">B18</text>
<text text-anchor="middle" x="1804.5" y="-456.72" font-family="Helvetica" font-size="10.00">Loop: &lt;none&gt;</text>
<text text-anchor="middle" x="1804.5" y="-445.72" font-family="Helvetica" font-size="10.00">&#45;&#45;&#45;</text>
<text text-anchor="middle" x="1804.5" y="-434.72" font-family="Helvetica" font-size="10.00">HotSpotMethod&lt;ImmutableCollections$SetN$SetNIterator.next()&gt;</text>
</g>
<!-- b5&#45;&gt;b18 -->
<g id="edge8" class="edge">
<title>b5&#45;&gt;b18</title>
<path fill="none" stroke="black" d="M1544.08,-414.58C1575.91,-419.38 1609.59,-424.47 1641.77,-429.32"/>
<polygon fill="black" stroke="black" points="1641.29,-432.79 1651.7,-430.82 1642.34,-425.87 1641.29,-432.79"/>
</g>
<!-- b8 -->
<g id="node9" class="node">
<title>b8</title>
<polygon fill="lightblue" stroke="black" points="2370,-226.72 2065,-226.72 2065,-174.72 2370,-174.72 2370,-226.72"/>
<text text-anchor="middle" x="2217.5" y="-214.72" font-family="Helvetica" font-size="10.00">B8</text>
<text text-anchor="middle" x="2217.5" y="-203.72" font-family="Helvetica" font-size="10.00">Loop: L0</text>
<text text-anchor="middle" x="2217.5" y="-192.72" font-family="Helvetica" font-size="10.00">&#45;&#45;&#45;</text>
<text text-anchor="middle" x="2217.5" y="-181.72" font-family="Helvetica" font-size="10.00">HotSpotMethod&lt;ImmutableCollections$SetN$SetNIterator.next()&gt;</text>
</g>
<!-- b6&#45;&gt;b8 -->
<g id="edge9" class="edge">
<title>b6&#45;&gt;b8</title>
<path fill="none" stroke="black" d="M1888.67,-303.61C1956.78,-282.24 2053.06,-252.02 2123.67,-229.85"/>
<polygon fill="black" stroke="black" points="2124.96,-233.12 2133.45,-226.78 2122.86,-226.44 2124.96,-233.12"/>
</g>
<!-- b16 -->
<g id="node17" class="node">
<title>b16</title>
<polygon fill="white" stroke="black" points="3196,-423.72 2891,-423.72 2891,-371.72 3196,-371.72 3196,-423.72"/>
<text text-anchor="middle" x="3043.5" y="-411.72" font-family="Helvetica" font-size="10.00">B16</text>
<text text-anchor="middle" x="3043.5" y="-400.72" font-family="Helvetica" font-size="10.00">Loop: &lt;none&gt;</text>
<text text-anchor="middle" x="3043.5" y="-389.72" font-family="Helvetica" font-size="10.00">&#45;&#45;&#45;</text>
<text text-anchor="middle" x="3043.5" y="-378.72" font-family="Helvetica" font-size="10.00">HotSpotMethod&lt;ImmutableCollections$SetN$SetNIterator.next()&gt;</text>
</g>
<!-- b6&#45;&gt;b16 -->
<g id="edge10" class="edge">
<title>b6&#45;&gt;b16</title>
<path fill="none" stroke="black" d="M1957.18,-338.06C2191.55,-350.94 2639.73,-375.58 2880.31,-388.8"/>
<polygon fill="black" stroke="black" points="2880.37,-392.31 2890.55,-389.36 2880.76,-385.32 2880.37,-392.31"/>
</g>
<!-- b7 -->
<g id="node8" class="node">
<title>b7</title>
<polygon fill="white" stroke="black" points="1957,-226.72 1652,-226.72 1652,-174.72 1957,-174.72 1957,-226.72"/>
<text text-anchor="middle" x="1804.5" y="-214.72" font-family="Helvetica" font-size="10.00">B7</text>
<text text-anchor="middle" x="1804.5" y="-203.72" font-family="Helvetica" font-size="10.00">Loop: &lt;none&gt;</text>
<text text-anchor="middle" x="1804.5" y="-192.72" font-family="Helvetica" font-size="10.00">&#45;&#45;&#45;</text>
<text text-anchor="middle" x="1804.5" y="-181.72" font-family="Helvetica" font-size="10.00">HotSpotMethod&lt;ImmutableCollections$SetN$SetNIterator.next()&gt;</text>
</g>
<!-- b7&#45;&gt;b8 -->
<g id="edge11" class="edge">
<title>b7&#45;&gt;b8</title>
<path fill="none" stroke="black" d="M1957.08,-200.72C1988.77,-200.72 2022.3,-200.72 2054.35,-200.72"/>
<polygon fill="black" stroke="black" points="2054.7,-204.22 2064.7,-200.72 2054.7,-197.22 2054.7,-204.22"/>
</g>
<!-- b9 -->
<g id="node10" class="node">
<title>b9</title>
<polygon fill="lightblue" stroke="black" points="2783,-288.72 2478,-288.72 2478,-236.72 2783,-236.72 2783,-288.72"/>
<text text-anchor="middle" x="2630.5" y="-276.72" font-family="Helvetica" font-size="10.00">B9</text>
<text text-anchor="middle" x="2630.5" y="-265.72" font-family="Helvetica" font-size="10.00">Loop: L0</text>
<text text-anchor="middle" x="2630.5" y="-254.72" font-family="Helvetica" font-size="10.00">&#45;&#45;&#45;</text>
<text text-anchor="middle" x="2630.5" y="-243.72" font-family="Helvetica" font-size="10.00">HotSpotMethod&lt;ImmutableCollections$SetN$SetNIterator.next()&gt;</text>
</g>
<!-- b8&#45;&gt;b9 -->
<g id="edge12" class="edge">
<title>b8&#45;&gt;b9</title>
<path fill="none" stroke="black" d="M2370.08,-223.58C2401.91,-228.38 2435.59,-233.47 2467.77,-238.32"/>
<polygon fill="black" stroke="black" points="2467.29,-241.79 2477.7,-239.82 2468.34,-234.87 2467.29,-241.79"/>
</g>
<!-- b10 -->
<g id="node11" class="node">
<title>b10</title>
<polygon fill="lightblue" stroke="black" points="2783,-164.72 2478,-164.72 2478,-112.72 2783,-112.72 2783,-164.72"/>
<text text-anchor="middle" x="2630.5" y="-152.72" font-family="Helvetica" font-size="10.00">B10</text>
<text text-anchor="middle" x="2630.5" y="-141.72" font-family="Helvetica" font-size="10.00">Loop: L0</text>
<text text-anchor="middle" x="2630.5" y="-130.72" font-family="Helvetica" font-size="10.00">&#45;&#45;&#45;</text>
<text text-anchor="middle" x="2630.5" y="-119.72" font-family="Helvetica" font-size="10.00">HotSpotMethod&lt;ImmutableCollections$SetN$SetNIterator.next()&gt;</text>
</g>
<!-- b8&#45;&gt;b10 -->
<g id="edge13" class="edge">
<title>b8&#45;&gt;b10</title>
<path fill="none" stroke="black" d="M2370.08,-177.85C2401.91,-173.05 2435.59,-167.97 2467.77,-163.11"/>
<polygon fill="black" stroke="black" points="2468.34,-166.57 2477.7,-161.62 2467.29,-159.65 2468.34,-166.57"/>
</g>
<!-- b11 -->
<g id="node12" class="node">
<title>b11</title>
<polygon fill="lightblue" stroke="black" points="3196,-226.72 2891,-226.72 2891,-174.72 3196,-174.72 3196,-226.72"/>
<text text-anchor="middle" x="3043.5" y="-214.72" font-family="Helvetica" font-size="10.00">B11</text>
<text text-anchor="middle" x="3043.5" y="-203.72" font-family="Helvetica" font-size="10.00">Loop: L0</text>
<text text-anchor="middle" x="3043.5" y="-192.72" font-family="Helvetica" font-size="10.00">&#45;&#45;&#45;</text>
<text text-anchor="middle" x="3043.5" y="-181.72" font-family="Helvetica" font-size="10.00">HotSpotMethod&lt;ImmutableCollections$SetN$SetNIterator.next()&gt;</text>
</g>
<!-- b9&#45;&gt;b11 -->
<g id="edge14" class="edge">
<title>b9&#45;&gt;b11</title>
<path fill="none" stroke="black" d="M2783.08,-239.85C2814.91,-235.05 2848.59,-229.97 2880.77,-225.11"/>
<polygon fill="black" stroke="black" points="2881.34,-228.57 2890.7,-223.62 2880.29,-221.65 2881.34,-228.57"/>
</g>
<!-- b10&#45;&gt;b11 -->
<g id="edge15" class="edge">
<title>b10&#45;&gt;b11</title>
<path fill="none" stroke="black" d="M2783.08,-161.58C2814.91,-166.38 2848.59,-171.47 2880.77,-176.32"/>
<polygon fill="black" stroke="black" points="2880.29,-179.79 2890.7,-177.82 2881.34,-172.87 2880.29,-179.79"/>
</g>
<!-- b12 -->
<g id="node13" class="node">
<title>b12</title>
<polygon fill="lightblue" stroke="black" points="3609,-164.72 3304,-164.72 3304,-112.72 3609,-112.72 3609,-164.72"/>
<text text-anchor="middle" x="3456.5" y="-152.72" font-family="Helvetica" font-size="10.00">B12</text>
<text text-anchor="middle" x="3456.5" y="-141.72" font-family="Helvetica" font-size="10.00">Loop: L0</text>
<text text-anchor="middle" x="3456.5" y="-130.72" font-family="Helvetica" font-size="10.00">&#45;&#45;&#45;</text>
<text text-anchor="middle" x="3456.5" y="-119.72" font-family="Helvetica" font-size="10.00">HotSpotMethod&lt;ImmutableCollections$SetN$SetNIterator.next()&gt;</text>
</g>
<!-- b11&#45;&gt;b12 -->
<g id="edge16" class="edge">
<title>b11&#45;&gt;b12</title>
<path fill="none" stroke="black" d="M3196.08,-177.85C3227.91,-173.05 3261.59,-167.97 3293.77,-163.11"/>
<polygon fill="black" stroke="black" points="3294.34,-166.57 3303.7,-161.62 3293.29,-159.65 3294.34,-166.57"/>
</g>
<!-- b15 -->
<g id="node16" class="node">
<title>b15</title>
<polygon fill="white" stroke="black" points="3609,-288.72 3304,-288.72 3304,-236.72 3609,-236.72 3609,-288.72"/>
<text text-anchor="middle" x="3456.5" y="-276.72" font-family="Helvetica" font-size="10.00">B15</text>
<text text-anchor="middle" x="3456.5" y="-265.72" font-family="Helvetica" font-size="10.00">Loop: &lt;none&gt;</text>
<text text-anchor="middle" x="3456.5" y="-254.72" font-family="Helvetica" font-size="10.00">&#45;&#45;&#45;</text>
<text text-anchor="middle" x="3456.5" y="-243.72" font-family="Helvetica" font-size="10.00">HotSpotMethod&lt;ImmutableCollections$SetN$SetNIterator.next()&gt;</text>
</g>
<!-- b11&#45;&gt;b15 -->
<g id="edge17" class="edge">
<title>b11&#45;&gt;b15</title>
<path fill="none" stroke="black" d="M3196.08,-223.58C3227.91,-228.38 3261.59,-233.47 3293.77,-238.32"/>
<polygon fill="black" stroke="black" points="3293.29,-241.79 3303.7,-239.82 3294.34,-234.87 3293.29,-241.79"/>
</g>
<!-- b13 -->
<g id="node14" class="node">
<title>b13</title>
<polygon fill="lightblue" stroke="black" points="4022,-63.72 3717,-63.72 3717,-11.72 4022,-11.72 4022,-63.72"/>
<text text-anchor="middle" x="3869.5" y="-51.72" font-family="Helvetica" font-size="10.00">B13</text>
<text text-anchor="middle" x="3869.5" y="-40.72" font-family="Helvetica" font-size="10.00">Loop: L0</text>
<text text-anchor="middle" x="3869.5" y="-29.72" font-family="Helvetica" font-size="10.00">&#45;&#45;&#45;</text>
<text text-anchor="middle" x="3869.5" y="-18.72" font-family="Helvetica" font-size="10.00">HotSpotMethod&lt;ImmutableCollections$SetN$SetNIterator.next()&gt;</text>
</g>
<!-- b12&#45;&gt;b13 -->
<g id="edge18" class="edge">
<title>b12&#45;&gt;b13</title>
<path fill="none" stroke="black" d="M3563.34,-112.71C3621.36,-98.45 3693.36,-80.76 3752.84,-66.14"/>
<polygon fill="black" stroke="black" points="3753.78,-69.51 3762.66,-63.73 3752.11,-62.71 3753.78,-69.51"/>
</g>
<!-- b14 -->
<g id="node15" class="node">
<title>b14</title>
<polygon fill="white" stroke="black" points="4022,-254.72 3717,-254.72 3717,-202.72 4022,-202.72 4022,-254.72"/>
<text text-anchor="middle" x="3869.5" y="-242.72" font-family="Helvetica" font-size="10.00">B14</text>
<text text-anchor="middle" x="3869.5" y="-231.72" font-family="Helvetica" font-size="10.00">Loop: &lt;none&gt;</text>
<text text-anchor="middle" x="3869.5" y="-220.72" font-family="Helvetica" font-size="10.00">&#45;&#45;&#45;</text>
<text text-anchor="middle" x="3869.5" y="-209.72" font-family="Helvetica" font-size="10.00">HotSpotMethod&lt;ImmutableCollections$SetN$SetNIterator.next()&gt;</text>
</g>
<!-- b12&#45;&gt;b14 -->
<g id="edge19" class="edge">
<title>b12&#45;&gt;b14</title>
<path fill="none" stroke="black" d="M3576.38,-164.75C3627.49,-175.94 3687.36,-189.05 3739.54,-200.48"/>
<polygon fill="black" stroke="black" points="3739.02,-203.95 3749.53,-202.67 3740.51,-197.11 3739.02,-203.95"/>
</g>
<!-- b13&#45;&gt;b8 -->
<g id="edge20" class="edge">
<title>b13&#45;&gt;b8</title>
<path fill="none" stroke="black" d="M3716.88,-21.7C3458.4,1.13 2917.73,29.45 2478,-76.72 2400.39,-95.45 2318.49,-139.16 2267.94,-169.34"/>
<polygon fill="black" stroke="black" points="2265.94,-166.46 2259.18,-174.62 2269.55,-172.45 2265.94,-166.46"/>
</g>
<!-- b17 -->
<g id="node18" class="node">
<title>b17</title>
<polygon fill="white" stroke="black" points="4435,-338.72 4130,-338.72 4130,-286.72 4435,-286.72 4435,-338.72"/>
<text text-anchor="middle" x="4282.5" y="-326.72" font-family="Helvetica" font-size="10.00">B17</text>
<text text-anchor="middle" x="4282.5" y="-315.72" font-family="Helvetica" font-size="10.00">Loop: &lt;none&gt;</text>
<text text-anchor="middle" x="4282.5" y="-304.72" font-family="Helvetica" font-size="10.00">&#45;&#45;&#45;</text>
<text text-anchor="middle" x="4282.5" y="-293.72" font-family="Helvetica" font-size="10.00">HotSpotMethod&lt;ImmutableCollections$SetN$SetNIterator.next()&gt;</text>
</g>
<!-- b14&#45;&gt;b17 -->
<g id="edge21" class="edge">
<title>b14&#45;&gt;b17</title>
<path fill="none" stroke="black" d="M3997.73,-254.72C4044.17,-264.21 4096.88,-274.98 4144.16,-284.65"/>
<polygon fill="black" stroke="black" points="4143.67,-288.12 4154.17,-286.69 4145.07,-281.26 4143.67,-288.12"/>
</g>
<!-- b16&#45;&gt;b17 -->
<g id="edge22" class="edge">
<title>b16&#45;&gt;b17</title>
<path fill="none" stroke="black" d="M3196.18,-387.29C3430.55,-371.19 3878.73,-340.39 4119.31,-323.86"/>
<polygon fill="black" stroke="black" points="4119.81,-327.34 4129.55,-323.16 4119.33,-320.35 4119.81,-327.34"/>
</g>
</g>
</svg>
