<?xml version="1.0" encoding="UTF-8" standalone="no"?>
<!DOCTYPE svg PUBLIC "-//W3C//DTD SVG 1.1//EN"
 "http://www.w3.org/Graphics/SVG/1.1/DTD/svg11.dtd">
<!-- Generated by graphviz version 2.44.0 (0)
 -->
<!-- Title: CFG_80 Pages: 1 -->
<svg width="704pt" height="226pt"
 viewBox="0.00 0.00 704.00 225.50" xmlns="http://www.w3.org/2000/svg" xmlns:xlink="http://www.w3.org/1999/xlink">
<g id="graph0" class="graph" transform="scale(1 1) rotate(0) translate(4 221.5)">
<title>CFG_80</title>
<polygon fill="white" stroke="transparent" points="-4,4 -4,-221.5 700,-221.5 700,4 -4,4"/>
<text text-anchor="middle" x="231" y="-197.5" font-family="Times-Roman" font-size="20.00">134&#45;java.lang.StringLatin1.charAt(byte[], int)</text>
<!-- b0 -->
<g id="node1" class="node">
<title>b0</title>
<polygon fill="white" stroke="black" points="294,-117 0,-117 0,-65 294,-65 294,-117"/>
<text text-anchor="middle" x="147" y="-105" font-family="Helvetica" font-size="10.00">B0</text>
<text text-anchor="middle" x="147" y="-94" font-family="Helvetica" font-size="10.00">Loop: &lt;none&gt;</text>
<text text-anchor="middle" x="147" y="-83" font-family="Helvetica" font-size="10.00">&#45;&#45;&#45;</text>
<text text-anchor="middle" x="147" y="-72" font-family="Helvetica" font-size="10.00">HotSpotMethod&lt;Preconditions.checkIndex(int, int, BiFunction)&gt;</text>
</g>
<!-- b1 -->
<g id="node2" class="node">
<title>b1</title>
<polygon fill="white" stroke="black" points="696,-187.5 402,-187.5 402,-124.5 696,-124.5 696,-187.5"/>
<text text-anchor="middle" x="549" y="-175.5" font-family="Helvetica" font-size="10.00">B1</text>
<text text-anchor="middle" x="549" y="-164.5" font-family="Helvetica" font-size="10.00">Loop: &lt;none&gt;</text>
<text text-anchor="middle" x="549" y="-153.5" font-family="Helvetica" font-size="10.00">&#45;&#45;&#45;</text>
<text text-anchor="middle" x="549" y="-142.5" font-family="Helvetica" font-size="10.00">HotSpotMethod&lt;Preconditions.checkIndex(int, int, BiFunction)&gt;</text>
<text text-anchor="middle" x="549" y="-131.5" font-family="Helvetica" font-size="10.00">HotSpotMethod&lt;StringLatin1.charAt(byte[], int)&gt;</text>
</g>
<!-- b0&#45;&gt;b1 -->
<g id="edge1" class="edge">
<title>b0&#45;&gt;b1</title>
<path fill="none" stroke="black" d="M294.11,-114.74C325.96,-119.92 359.79,-125.42 392.01,-130.65"/>
<polygon fill="black" stroke="black" points="391.52,-134.12 401.95,-132.27 392.65,-127.21 391.52,-134.12"/>
</g>
<!-- b2 -->
<g id="node3" class="node">
<title>b2</title>
<polygon fill="white" stroke="black" points="663,-52 435,-52 435,0 663,0 663,-52"/>
<text text-anchor="middle" x="549" y="-40" font-family="Helvetica" font-size="10.00">B2</text>
<text text-anchor="middle" x="549" y="-29" font-family="Helvetica" font-size="10.00">Loop: &lt;none&gt;</text>
<text text-anchor="middle" x="549" y="-18" font-family="Helvetica" font-size="10.00">&#45;&#45;&#45;</text>
<text text-anchor="middle" x="549" y="-7" font-family="Helvetica" font-size="10.00">HotSpotMethod&lt;StringLatin1.charAt(byte[], int)&gt;</text>
</g>
<!-- b0&#45;&gt;b2 -->
<g id="edge2" class="edge">
<title>b0&#45;&gt;b2</title>
<path fill="none" stroke="black" d="M294.11,-67.26C336.99,-60.29 383.45,-52.74 424.76,-46.03"/>
<polygon fill="black" stroke="black" points="425.55,-49.44 434.86,-44.38 424.43,-42.53 425.55,-49.44"/>
</g>
</g>
</svg>
