<?xml version="1.0" encoding="UTF-8" standalone="no"?>
<!DOCTYPE svg PUBLIC "-//W3C//DTD SVG 1.1//EN"
 "http://www.w3.org/Graphics/SVG/1.1/DTD/svg11.dtd">
<!-- Generated by graphviz version 2.44.0 (0)
 -->
<!-- Title: CFG_87 Pages: 1 -->
<svg width="935pt" height="484pt"
 viewBox="0.00 0.00 935.00 484.00" xmlns="http://www.w3.org/2000/svg" xmlns:xlink="http://www.w3.org/1999/xlink">
<g id="graph0" class="graph" transform="scale(1 1) rotate(0) translate(4 480)">
<title>CFG_87</title>
<polygon fill="white" stroke="transparent" points="-4,4 -4,-480 931,-480 931,4 -4,4"/>
<text text-anchor="middle" x="239.5" y="-456" font-family="Times-Roman" font-size="20.00">141&#45;java.lang.StringUTF16.getChar(byte[], int)</text>
<!-- b0 -->
<g id="node1" class="node">
<title>b0</title>
<polygon fill="white" stroke="black" points="237,-378 0,-378 0,-326 237,-326 237,-378"/>
<text text-anchor="middle" x="118.5" y="-366" font-family="Helvetica" font-size="10.00">B0</text>
<text text-anchor="middle" x="118.5" y="-355" font-family="Helvetica" font-size="10.00">Loop: &lt;none&gt;</text>
<text text-anchor="middle" x="118.5" y="-344" font-family="Helvetica" font-size="10.00">&#45;&#45;&#45;</text>
<text text-anchor="middle" x="118.5" y="-333" font-family="Helvetica" font-size="10.00">HotSpotMethod&lt;StringUTF16.getChar(byte[], int)&gt;</text>
</g>
<!-- b1 -->
<g id="node2" class="node">
<title>b1</title>
<polygon fill="white" stroke="black" points="582,-446 345,-446 345,-394 582,-394 582,-446"/>
<text text-anchor="middle" x="463.5" y="-434" font-family="Helvetica" font-size="10.00">B1</text>
<text text-anchor="middle" x="463.5" y="-423" font-family="Helvetica" font-size="10.00">Loop: &lt;none&gt;</text>
<text text-anchor="middle" x="463.5" y="-412" font-family="Helvetica" font-size="10.00">&#45;&#45;&#45;</text>
<text text-anchor="middle" x="463.5" y="-401" font-family="Helvetica" font-size="10.00">HotSpotMethod&lt;StringUTF16.getChar(byte[], int)&gt;</text>
</g>
<!-- b0&#45;&gt;b1 -->
<g id="edge1" class="edge">
<title>b0&#45;&gt;b1</title>
<path fill="none" stroke="black" d="M237.06,-375.31C268.61,-381.56 302.87,-388.35 334.93,-394.71"/>
<polygon fill="black" stroke="black" points="334.31,-398.15 344.8,-396.67 335.67,-391.29 334.31,-398.15"/>
</g>
<!-- b5 -->
<g id="node6" class="node">
<title>b5</title>
<polygon fill="white" stroke="black" points="927,-244 690,-244 690,-192 927,-192 927,-244"/>
<text text-anchor="middle" x="808.5" y="-232" font-family="Helvetica" font-size="10.00">B5</text>
<text text-anchor="middle" x="808.5" y="-221" font-family="Helvetica" font-size="10.00">Loop: &lt;none&gt;</text>
<text text-anchor="middle" x="808.5" y="-210" font-family="Helvetica" font-size="10.00">&#45;&#45;&#45;</text>
<text text-anchor="middle" x="808.5" y="-199" font-family="Helvetica" font-size="10.00">HotSpotMethod&lt;StringUTF16.getChar(byte[], int)&gt;</text>
</g>
<!-- b0&#45;&gt;b5 -->
<g id="edge2" class="edge">
<title>b0&#45;&gt;b5</title>
<path fill="none" stroke="black" d="M237.38,-329.04C360.48,-305.07 552.92,-267.58 679.62,-242.91"/>
<polygon fill="black" stroke="black" points="680.62,-246.28 689.77,-240.93 679.29,-239.41 680.62,-246.28"/>
</g>
<!-- b2 -->
<g id="node3" class="node">
<title>b2</title>
<polygon fill="white" stroke="black" points="927,-446 690,-446 690,-394 927,-394 927,-446"/>
<text text-anchor="middle" x="808.5" y="-434" font-family="Helvetica" font-size="10.00">B2</text>
<text text-anchor="middle" x="808.5" y="-423" font-family="Helvetica" font-size="10.00">Loop: &lt;none&gt;</text>
<text text-anchor="middle" x="808.5" y="-412" font-family="Helvetica" font-size="10.00">&#45;&#45;&#45;</text>
<text text-anchor="middle" x="808.5" y="-401" font-family="Helvetica" font-size="10.00">HotSpotMethod&lt;StringUTF16.getChar(byte[], int)&gt;</text>
</g>
<!-- b1&#45;&gt;b2 -->
<g id="edge3" class="edge">
<title>b1&#45;&gt;b2</title>
<path fill="none" stroke="black" d="M582.06,-420C613.47,-420 647.57,-420 679.51,-420"/>
<polygon fill="black" stroke="black" points="679.8,-423.5 689.8,-420 679.8,-416.5 679.8,-423.5"/>
</g>
<!-- b1&#45;&gt;b5 -->
<g id="edge4" class="edge">
<title>b1&#45;&gt;b5</title>
<path fill="none" stroke="black" d="M508.99,-393.8C571.96,-356.71 686.91,-289.02 754.31,-249.33"/>
<polygon fill="black" stroke="black" points="756.25,-252.24 763.09,-244.15 752.7,-246.21 756.25,-252.24"/>
</g>
<!-- b3 -->
<g id="node4" class="node">
<title>b3</title>
<polygon fill="white" stroke="black" points="582,-176 345,-176 345,-124 582,-124 582,-176"/>
<text text-anchor="middle" x="463.5" y="-164" font-family="Helvetica" font-size="10.00">B3</text>
<text text-anchor="middle" x="463.5" y="-153" font-family="Helvetica" font-size="10.00">Loop: &lt;none&gt;</text>
<text text-anchor="middle" x="463.5" y="-142" font-family="Helvetica" font-size="10.00">&#45;&#45;&#45;</text>
<text text-anchor="middle" x="463.5" y="-131" font-family="Helvetica" font-size="10.00">HotSpotMethod&lt;StringUTF16.getChar(byte[], int)&gt;</text>
</g>
<!-- b3&#45;&gt;b5 -->
<g id="edge5" class="edge">
<title>b3&#45;&gt;b5</title>
<path fill="none" stroke="black" d="M582.06,-173.31C613.61,-179.56 647.87,-186.35 679.93,-192.71"/>
<polygon fill="black" stroke="black" points="679.31,-196.15 689.8,-194.67 680.67,-189.29 679.31,-196.15"/>
</g>
<!-- b4 -->
<g id="node5" class="node">
<title>b4</title>
<polygon fill="white" stroke="black" points="582,-52 345,-52 345,0 582,0 582,-52"/>
<text text-anchor="middle" x="463.5" y="-40" font-family="Helvetica" font-size="10.00">B4</text>
<text text-anchor="middle" x="463.5" y="-29" font-family="Helvetica" font-size="10.00">Loop: &lt;none&gt;</text>
<text text-anchor="middle" x="463.5" y="-18" font-family="Helvetica" font-size="10.00">&#45;&#45;&#45;</text>
<text text-anchor="middle" x="463.5" y="-7" font-family="Helvetica" font-size="10.00">HotSpotMethod&lt;StringUTF16.getChar(byte[], int)&gt;</text>
</g>
<!-- b4&#45;&gt;b5 -->
<g id="edge6" class="edge">
<title>b4&#45;&gt;b5</title>
<path fill="none" stroke="black" d="M515.04,-52.14C535.87,-63.05 560.19,-75.96 582,-88 641.53,-120.85 708.99,-160 754.48,-186.69"/>
<polygon fill="black" stroke="black" points="752.89,-189.81 763.28,-191.85 756.43,-183.77 752.89,-189.81"/>
</g>
</g>
</svg>
