<?xml version="1.0" encoding="UTF-8" standalone="no"?>
<!DOCTYPE svg PUBLIC "-//W3C//DTD SVG 1.1//EN"
 "http://www.w3.org/Graphics/SVG/1.1/DTD/svg11.dtd">
<!-- Generated by graphviz version 2.44.0 (0)
 -->
<!-- Title: CFG_90 Pages: 1 -->
<svg width="5950pt" height="1021pt"
 viewBox="0.00 0.00 5950.00 1021.00" xmlns="http://www.w3.org/2000/svg" xmlns:xlink="http://www.w3.org/1999/xlink">
<g id="graph0" class="graph" transform="scale(1 1) rotate(0) translate(4 1017)">
<title>CFG_90</title>
<polygon fill="white" stroke="transparent" points="-4,4 -4,-1017 5946,-1017 5946,4 -4,4"/>
<text text-anchor="middle" x="189" y="-993" font-family="Times-Roman" font-size="20.00">145&#45;LoopBenchmarks.main(String[])</text>
<!-- b0 -->
<g id="node1" class="node">
<title>b0</title>
<polygon fill="white" stroke="black" points="331,-624.5 0,-624.5 0,-561.5 331,-561.5 331,-624.5"/>
<text text-anchor="middle" x="165.5" y="-612.5" font-family="Helvetica" font-size="10.00">B0</text>
<text text-anchor="middle" x="165.5" y="-601.5" font-family="Helvetica" font-size="10.00">Loop: &lt;none&gt;</text>
<text text-anchor="middle" x="165.5" y="-590.5" font-family="Helvetica" font-size="10.00">&#45;&#45;&#45;</text>
<text text-anchor="middle" x="165.5" y="-579.5" font-family="Helvetica" font-size="10.00">HotSpotMethod&lt;LoopBenchmarks.main(String[])&gt;</text>
<text text-anchor="middle" x="165.5" y="-568.5" font-family="Helvetica" font-size="10.00">HotSpotMethod&lt;LoopBenchmarks.mandelbrotLoop(double, double, int)&gt;</text>
</g>
<!-- b1 -->
<g id="node2" class="node">
<title>b1</title>
<polygon fill="white" stroke="black" points="770,-821.5 439,-821.5 439,-758.5 770,-758.5 770,-821.5"/>
<text text-anchor="middle" x="604.5" y="-809.5" font-family="Helvetica" font-size="10.00">B1</text>
<text text-anchor="middle" x="604.5" y="-798.5" font-family="Helvetica" font-size="10.00">Loop: &lt;none&gt;</text>
<text text-anchor="middle" x="604.5" y="-787.5" font-family="Helvetica" font-size="10.00">&#45;&#45;&#45;</text>
<text text-anchor="middle" x="604.5" y="-776.5" font-family="Helvetica" font-size="10.00">HotSpotMethod&lt;LoopBenchmarks.main(String[])&gt;</text>
<text text-anchor="middle" x="604.5" y="-765.5" font-family="Helvetica" font-size="10.00">HotSpotMethod&lt;LoopBenchmarks.mandelbrotLoop(double, double, int)&gt;</text>
</g>
<!-- b0&#45;&gt;b1 -->
<g id="edge1" class="edge">
<title>b0&#45;&gt;b1</title>
<path fill="none" stroke="black" d="M236.71,-624.65C315.23,-660.05 442.13,-717.26 524.18,-754.24"/>
<polygon fill="black" stroke="black" points="522.91,-757.51 533.46,-758.43 525.78,-751.13 522.91,-757.51"/>
</g>
<!-- b16 -->
<g id="node17" class="node">
<title>b16</title>
<polygon fill="white" stroke="black" points="1161,-450 926,-450 926,-398 1161,-398 1161,-450"/>
<text text-anchor="middle" x="1043.5" y="-438" font-family="Helvetica" font-size="10.00">B16</text>
<text text-anchor="middle" x="1043.5" y="-427" font-family="Helvetica" font-size="10.00">Loop: &lt;none&gt;</text>
<text text-anchor="middle" x="1043.5" y="-416" font-family="Helvetica" font-size="10.00">&#45;&#45;&#45;</text>
<text text-anchor="middle" x="1043.5" y="-405" font-family="Helvetica" font-size="10.00">HotSpotMethod&lt;LoopBenchmarks.main(String[])&gt;</text>
</g>
<!-- b0&#45;&gt;b16 -->
<g id="edge2" class="edge">
<title>b0&#45;&gt;b16</title>
<path fill="none" stroke="black" d="M329.98,-561.46C499.55,-528.75 761.07,-478.29 915.66,-448.47"/>
<polygon fill="black" stroke="black" points="916.53,-451.87 925.69,-446.54 915.21,-444.99 916.53,-451.87"/>
</g>
<!-- b2 -->
<g id="node3" class="node">
<title>b2</title>
<polygon fill="lightblue" stroke="black" points="1209,-848 878,-848 878,-796 1209,-796 1209,-848"/>
<text text-anchor="middle" x="1043.5" y="-836" font-family="Helvetica" font-size="10.00">B2</text>
<text text-anchor="middle" x="1043.5" y="-825" font-family="Helvetica" font-size="10.00">Loop: L0</text>
<text text-anchor="middle" x="1043.5" y="-814" font-family="Helvetica" font-size="10.00">&#45;&#45;&#45;</text>
<text text-anchor="middle" x="1043.5" y="-803" font-family="Helvetica" font-size="10.00">HotSpotMethod&lt;LoopBenchmarks.mandelbrotLoop(double, double, int)&gt;</text>
</g>
<!-- b1&#45;&gt;b2 -->
<g id="edge3" class="edge">
<title>b1&#45;&gt;b2</title>
<path fill="none" stroke="black" d="M770.09,-802.05C801.85,-804.38 835.24,-806.82 867.33,-809.17"/>
<polygon fill="black" stroke="black" points="867.47,-812.69 877.7,-809.93 867.98,-805.71 867.47,-812.69"/>
</g>
<!-- b3 -->
<g id="node4" class="node">
<title>b3</title>
<polygon fill="lightblue" stroke="black" points="1648,-916 1317,-916 1317,-864 1648,-864 1648,-916"/>
<text text-anchor="middle" x="1482.5" y="-904" font-family="Helvetica" font-size="10.00">B3</text>
<text text-anchor="middle" x="1482.5" y="-893" font-family="Helvetica" font-size="10.00">Loop: L0</text>
<text text-anchor="middle" x="1482.5" y="-882" font-family="Helvetica" font-size="10.00">&#45;&#45;&#45;</text>
<text text-anchor="middle" x="1482.5" y="-871" font-family="Helvetica" font-size="10.00">HotSpotMethod&lt;LoopBenchmarks.mandelbrotLoop(double, double, int)&gt;</text>
</g>
<!-- b2&#45;&gt;b3 -->
<g id="edge4" class="edge">
<title>b2&#45;&gt;b3</title>
<path fill="none" stroke="black" d="M1209.09,-847.61C1240.99,-852.58 1274.53,-857.79 1306.74,-862.81"/>
<polygon fill="black" stroke="black" points="1306.28,-866.28 1316.7,-864.36 1307.35,-859.36 1306.28,-866.28"/>
</g>
<!-- b7 -->
<g id="node8" class="node">
<title>b7</title>
<polygon fill="white" stroke="black" points="2087,-660.5 1756,-660.5 1756,-597.5 2087,-597.5 2087,-660.5"/>
<text text-anchor="middle" x="1921.5" y="-648.5" font-family="Helvetica" font-size="10.00">B7</text>
<text text-anchor="middle" x="1921.5" y="-637.5" font-family="Helvetica" font-size="10.00">Loop: &lt;none&gt;</text>
<text text-anchor="middle" x="1921.5" y="-626.5" font-family="Helvetica" font-size="10.00">&#45;&#45;&#45;</text>
<text text-anchor="middle" x="1921.5" y="-615.5" font-family="Helvetica" font-size="10.00">HotSpotMethod&lt;LoopBenchmarks.mandelbrotLoop(double, double, int)&gt;</text>
<text text-anchor="middle" x="1921.5" y="-604.5" font-family="Helvetica" font-size="10.00">HotSpotMethod&lt;LoopBenchmarks.main(String[])&gt;</text>
</g>
<!-- b2&#45;&gt;b7 -->
<g id="edge5" class="edge">
<title>b2&#45;&gt;b7</title>
<path fill="none" stroke="black" d="M1162.64,-795.97C1319.09,-761.5 1595.25,-700.66 1767.49,-662.71"/>
<polygon fill="black" stroke="black" points="1768.39,-666.1 1777.4,-660.53 1766.89,-659.26 1768.39,-666.1"/>
</g>
<!-- b4 -->
<g id="node5" class="node">
<title>b4</title>
<polygon fill="lightblue" stroke="black" points="2087,-983 1756,-983 1756,-931 2087,-931 2087,-983"/>
<text text-anchor="middle" x="1921.5" y="-971" font-family="Helvetica" font-size="10.00">B4</text>
<text text-anchor="middle" x="1921.5" y="-960" font-family="Helvetica" font-size="10.00">Loop: L0</text>
<text text-anchor="middle" x="1921.5" y="-949" font-family="Helvetica" font-size="10.00">&#45;&#45;&#45;</text>
<text text-anchor="middle" x="1921.5" y="-938" font-family="Helvetica" font-size="10.00">HotSpotMethod&lt;LoopBenchmarks.mandelbrotLoop(double, double, int)&gt;</text>
</g>
<!-- b3&#45;&gt;b4 -->
<g id="edge6" class="edge">
<title>b3&#45;&gt;b4</title>
<path fill="none" stroke="black" d="M1648.09,-915.23C1679.99,-920.13 1713.53,-925.27 1745.74,-930.21"/>
<polygon fill="black" stroke="black" points="1745.28,-933.68 1755.7,-931.73 1746.34,-926.76 1745.28,-933.68"/>
</g>
<!-- b3&#45;&gt;b7 -->
<g id="edge7" class="edge">
<title>b3&#45;&gt;b7</title>
<path fill="none" stroke="black" d="M1541.95,-863.9C1573.83,-849.09 1613.68,-829.63 1648,-810 1727.32,-764.64 1814.58,-704.8 1868.46,-666.6"/>
<polygon fill="black" stroke="black" points="1870.69,-669.31 1876.81,-660.66 1866.63,-663.6 1870.69,-669.31"/>
</g>
<!-- b4&#45;&gt;b2 -->
<g id="edge8" class="edge">
<title>b4&#45;&gt;b2</title>
<path fill="none" stroke="black" d="M1755.92,-974.69C1633.3,-983.3 1462.62,-985.59 1317,-952 1233.95,-932.84 1146.47,-885.58 1093.69,-853.64"/>
<polygon fill="black" stroke="black" points="1095.25,-850.49 1084.89,-848.26 1091.6,-856.46 1095.25,-850.49"/>
</g>
<!-- b5 -->
<g id="node6" class="node">
<title>b5</title>
<polygon fill="white" stroke="black" points="1648,-646 1317,-646 1317,-594 1648,-594 1648,-646"/>
<text text-anchor="middle" x="1482.5" y="-634" font-family="Helvetica" font-size="10.00">B5</text>
<text text-anchor="middle" x="1482.5" y="-623" font-family="Helvetica" font-size="10.00">Loop: &lt;none&gt;</text>
<text text-anchor="middle" x="1482.5" y="-612" font-family="Helvetica" font-size="10.00">&#45;&#45;&#45;</text>
<text text-anchor="middle" x="1482.5" y="-601" font-family="Helvetica" font-size="10.00">HotSpotMethod&lt;LoopBenchmarks.mandelbrotLoop(double, double, int)&gt;</text>
</g>
<!-- b5&#45;&gt;b7 -->
<g id="edge9" class="edge">
<title>b5&#45;&gt;b7</title>
<path fill="none" stroke="black" d="M1648.09,-623.39C1679.85,-624.04 1713.24,-624.73 1745.33,-625.39"/>
<polygon fill="black" stroke="black" points="1745.63,-628.9 1755.7,-625.61 1745.77,-621.9 1745.63,-628.9"/>
</g>
<!-- b6 -->
<g id="node7" class="node">
<title>b6</title>
<polygon fill="white" stroke="black" points="1648,-522 1317,-522 1317,-470 1648,-470 1648,-522"/>
<text text-anchor="middle" x="1482.5" y="-510" font-family="Helvetica" font-size="10.00">B6</text>
<text text-anchor="middle" x="1482.5" y="-499" font-family="Helvetica" font-size="10.00">Loop: &lt;none&gt;</text>
<text text-anchor="middle" x="1482.5" y="-488" font-family="Helvetica" font-size="10.00">&#45;&#45;&#45;</text>
<text text-anchor="middle" x="1482.5" y="-477" font-family="Helvetica" font-size="10.00">HotSpotMethod&lt;LoopBenchmarks.mandelbrotLoop(double, double, int)&gt;</text>
</g>
<!-- b6&#45;&gt;b7 -->
<g id="edge10" class="edge">
<title>b6&#45;&gt;b7</title>
<path fill="none" stroke="black" d="M1569.06,-522.04C1636.95,-542.7 1732.47,-571.77 1806.79,-594.39"/>
<polygon fill="black" stroke="black" points="1806.08,-597.84 1816.67,-597.4 1808.12,-591.14 1806.08,-597.84"/>
</g>
<!-- b8 -->
<g id="node9" class="node">
<title>b8</title>
<polygon fill="lightgreen" stroke="black" points="2430,-655 2195,-655 2195,-603 2430,-603 2430,-655"/>
<text text-anchor="middle" x="2312.5" y="-643" font-family="Helvetica" font-size="10.00">B8</text>
<text text-anchor="middle" x="2312.5" y="-632" font-family="Helvetica" font-size="10.00">Loop: L1</text>
<text text-anchor="middle" x="2312.5" y="-621" font-family="Helvetica" font-size="10.00">&#45;&#45;&#45;</text>
<text text-anchor="middle" x="2312.5" y="-610" font-family="Helvetica" font-size="10.00">HotSpotMethod&lt;LoopBenchmarks.main(String[])&gt;</text>
</g>
<!-- b7&#45;&gt;b8 -->
<g id="edge11" class="edge">
<title>b7&#45;&gt;b8</title>
<path fill="none" stroke="black" d="M2087.19,-629C2119.82,-629 2153.59,-629 2184.72,-629"/>
<polygon fill="black" stroke="black" points="2184.73,-632.5 2194.73,-629 2184.73,-625.5 2184.73,-632.5"/>
</g>
<!-- b9 -->
<g id="node10" class="node">
<title>b9</title>
<polygon fill="lightgreen" stroke="black" points="2869,-695.5 2538,-695.5 2538,-632.5 2869,-632.5 2869,-695.5"/>
<text text-anchor="middle" x="2703.5" y="-683.5" font-family="Helvetica" font-size="10.00">B9</text>
<text text-anchor="middle" x="2703.5" y="-672.5" font-family="Helvetica" font-size="10.00">Loop: L1</text>
<text text-anchor="middle" x="2703.5" y="-661.5" font-family="Helvetica" font-size="10.00">&#45;&#45;&#45;</text>
<text text-anchor="middle" x="2703.5" y="-650.5" font-family="Helvetica" font-size="10.00">HotSpotMethod&lt;LoopBenchmarks.main(String[])&gt;</text>
<text text-anchor="middle" x="2703.5" y="-639.5" font-family="Helvetica" font-size="10.00">HotSpotMethod&lt;LoopBenchmarks.mandelbrotLoop(double, double, int)&gt;</text>
</g>
<!-- b8&#45;&gt;b9 -->
<g id="edge12" class="edge">
<title>b8&#45;&gt;b9</title>
<path fill="none" stroke="black" d="M2430.21,-639.5C2460.84,-642.26 2494.54,-645.29 2527.49,-648.25"/>
<polygon fill="black" stroke="black" points="2527.42,-651.76 2537.69,-649.17 2528.05,-644.79 2527.42,-651.76"/>
</g>
<!-- b17 -->
<g id="node18" class="node">
<title>b17</title>
<polygon fill="white" stroke="black" points="2821,-311 2586,-311 2586,-259 2821,-259 2821,-311"/>
<text text-anchor="middle" x="2703.5" y="-299" font-family="Helvetica" font-size="10.00">B17</text>
<text text-anchor="middle" x="2703.5" y="-288" font-family="Helvetica" font-size="10.00">Loop: &lt;none&gt;</text>
<text text-anchor="middle" x="2703.5" y="-277" font-family="Helvetica" font-size="10.00">&#45;&#45;&#45;</text>
<text text-anchor="middle" x="2703.5" y="-266" font-family="Helvetica" font-size="10.00">HotSpotMethod&lt;LoopBenchmarks.main(String[])&gt;</text>
</g>
<!-- b8&#45;&gt;b17 -->
<g id="edge13" class="edge">
<title>b8&#45;&gt;b17</title>
<path fill="none" stroke="black" d="M2330.39,-602.63C2364.39,-551.24 2445.75,-436.5 2538,-365 2563.82,-344.99 2595.45,-328.14 2624.05,-315.15"/>
<polygon fill="black" stroke="black" points="2625.51,-318.33 2633.22,-311.06 2622.66,-311.93 2625.51,-318.33"/>
</g>
<!-- b10 -->
<g id="node11" class="node">
<title>b10</title>
<polygon fill="lightpink" stroke="black" points="3308,-712.5 2977,-712.5 2977,-649.5 3308,-649.5 3308,-712.5"/>
<text text-anchor="middle" x="3142.5" y="-700.5" font-family="Helvetica" font-size="10.00">B10</text>
<text text-anchor="middle" x="3142.5" y="-689.5" font-family="Helvetica" font-size="10.00">Loop: L2</text>
<text text-anchor="middle" x="3142.5" y="-678.5" font-family="Helvetica" font-size="10.00">&#45;&#45;&#45;</text>
<text text-anchor="middle" x="3142.5" y="-667.5" font-family="Helvetica" font-size="10.00">HotSpotMethod&lt;LoopBenchmarks.mandelbrotLoop(double, double, int)&gt;</text>
<text text-anchor="middle" x="3142.5" y="-656.5" font-family="Helvetica" font-size="10.00">HotSpotMethod&lt;LoopBenchmarks.main(String[])&gt;</text>
</g>
<!-- b9&#45;&gt;b10 -->
<g id="edge14" class="edge">
<title>b9&#45;&gt;b10</title>
<path fill="none" stroke="black" d="M2869.09,-670.4C2900.85,-671.64 2934.24,-672.94 2966.33,-674.19"/>
<polygon fill="black" stroke="black" points="2966.57,-677.7 2976.7,-674.59 2966.84,-670.7 2966.57,-677.7"/>
</g>
<!-- b11 -->
<g id="node12" class="node">
<title>b11</title>
<polygon fill="lightpink" stroke="black" points="3747,-581 3416,-581 3416,-529 3747,-529 3747,-581"/>
<text text-anchor="middle" x="3581.5" y="-569" font-family="Helvetica" font-size="10.00">B11</text>
<text text-anchor="middle" x="3581.5" y="-558" font-family="Helvetica" font-size="10.00">Loop: L2</text>
<text text-anchor="middle" x="3581.5" y="-547" font-family="Helvetica" font-size="10.00">&#45;&#45;&#45;</text>
<text text-anchor="middle" x="3581.5" y="-536" font-family="Helvetica" font-size="10.00">HotSpotMethod&lt;LoopBenchmarks.mandelbrotLoop(double, double, int)&gt;</text>
</g>
<!-- b10&#45;&gt;b11 -->
<g id="edge15" class="edge">
<title>b10&#45;&gt;b11</title>
<path fill="none" stroke="black" d="M3252.93,-649.45C3322.69,-629.33 3412.4,-603.47 3480.29,-583.89"/>
<polygon fill="black" stroke="black" points="3481.51,-587.19 3490.15,-581.05 3479.57,-580.46 3481.51,-587.19"/>
</g>
<!-- b14 -->
<g id="node15" class="node">
<title>b14</title>
<polygon fill="lightgreen" stroke="black" points="3747,-862.5 3416,-862.5 3416,-799.5 3747,-799.5 3747,-862.5"/>
<text text-anchor="middle" x="3581.5" y="-850.5" font-family="Helvetica" font-size="10.00">B14</text>
<text text-anchor="middle" x="3581.5" y="-839.5" font-family="Helvetica" font-size="10.00">Loop: L1</text>
<text text-anchor="middle" x="3581.5" y="-828.5" font-family="Helvetica" font-size="10.00">&#45;&#45;&#45;</text>
<text text-anchor="middle" x="3581.5" y="-817.5" font-family="Helvetica" font-size="10.00">HotSpotMethod&lt;LoopBenchmarks.mandelbrotLoop(double, double, int)&gt;</text>
<text text-anchor="middle" x="3581.5" y="-806.5" font-family="Helvetica" font-size="10.00">HotSpotMethod&lt;LoopBenchmarks.main(String[])&gt;</text>
</g>
<!-- b10&#45;&gt;b14 -->
<g id="edge16" class="edge">
<title>b10&#45;&gt;b14</title>
<path fill="none" stroke="black" d="M3235.38,-712.54C3306.53,-736.96 3405.05,-770.78 3478.62,-796.03"/>
<polygon fill="black" stroke="black" points="3477.78,-799.44 3488.37,-799.38 3480.05,-792.82 3477.78,-799.44"/>
</g>
<!-- b12 -->
<g id="node13" class="node">
<title>b12</title>
<polygon fill="lightpink" stroke="black" points="4186,-648 3855,-648 3855,-596 4186,-596 4186,-648"/>
<text text-anchor="middle" x="4020.5" y="-636" font-family="Helvetica" font-size="10.00">B12</text>
<text text-anchor="middle" x="4020.5" y="-625" font-family="Helvetica" font-size="10.00">Loop: L2</text>
<text text-anchor="middle" x="4020.5" y="-614" font-family="Helvetica" font-size="10.00">&#45;&#45;&#45;</text>
<text text-anchor="middle" x="4020.5" y="-603" font-family="Helvetica" font-size="10.00">HotSpotMethod&lt;LoopBenchmarks.mandelbrotLoop(double, double, int)&gt;</text>
</g>
<!-- b11&#45;&gt;b12 -->
<g id="edge17" class="edge">
<title>b11&#45;&gt;b12</title>
<path fill="none" stroke="black" d="M3747.09,-580.23C3778.99,-585.13 3812.53,-590.27 3844.74,-595.21"/>
<polygon fill="black" stroke="black" points="3844.28,-598.68 3854.7,-596.73 3845.34,-591.76 3844.28,-598.68"/>
</g>
<!-- b13 -->
<g id="node14" class="node">
<title>b13</title>
<polygon fill="lightgreen" stroke="black" points="4186,-485 3855,-485 3855,-433 4186,-433 4186,-485"/>
<text text-anchor="middle" x="4020.5" y="-473" font-family="Helvetica" font-size="10.00">B13</text>
<text text-anchor="middle" x="4020.5" y="-462" font-family="Helvetica" font-size="10.00">Loop: L1</text>
<text text-anchor="middle" x="4020.5" y="-451" font-family="Helvetica" font-size="10.00">&#45;&#45;&#45;</text>
<text text-anchor="middle" x="4020.5" y="-440" font-family="Helvetica" font-size="10.00">HotSpotMethod&lt;LoopBenchmarks.mandelbrotLoop(double, double, int)&gt;</text>
</g>
<!-- b11&#45;&gt;b13 -->
<g id="edge18" class="edge">
<title>b11&#45;&gt;b13</title>
<path fill="none" stroke="black" d="M3701.05,-528.96C3759.83,-516.04 3830.91,-500.43 3890.99,-487.23"/>
<polygon fill="black" stroke="black" points="3891.9,-490.61 3900.92,-485.05 3890.4,-483.78 3891.9,-490.61"/>
</g>
<!-- b12&#45;&gt;b10 -->
<g id="edge19" class="edge">
<title>b12&#45;&gt;b10</title>
<path fill="none" stroke="black" d="M3854.63,-633.1C3701.54,-643.42 3474.36,-658.72 3318.19,-669.23"/>
<polygon fill="black" stroke="black" points="3317.75,-665.76 3308.01,-669.92 3318.22,-672.74 3317.75,-665.76"/>
</g>
<!-- b13&#45;&gt;b8 -->
<g id="edge20" class="edge">
<title>b13&#45;&gt;b8</title>
<path fill="none" stroke="black" d="M3854.73,-465.54C3733.3,-471.03 3564.19,-480.06 3416,-493 3024.54,-527.18 2927.65,-546.16 2538,-597 2506.38,-601.13 2472.3,-605.84 2440.48,-610.37"/>
<polygon fill="black" stroke="black" points="2439.64,-606.95 2430.24,-611.83 2440.63,-613.88 2439.64,-606.95"/>
</g>
<!-- b14&#45;&gt;b8 -->
<g id="edge21" class="edge">
<title>b14&#45;&gt;b8</title>
<path fill="none" stroke="black" d="M3415.88,-832.23C3207.85,-829.97 2840.44,-813.24 2538,-732 2476.98,-715.61 2411.83,-683.96 2367.52,-660.05"/>
<polygon fill="black" stroke="black" points="2369.12,-656.94 2358.66,-655.23 2365.77,-663.09 2369.12,-656.94"/>
</g>
<!-- b15 -->
<g id="node16" class="node">
<title>b15</title>
<polygon fill="white" stroke="black" points="2430,-252 2195,-252 2195,-200 2430,-200 2430,-252"/>
<text text-anchor="middle" x="2312.5" y="-240" font-family="Helvetica" font-size="10.00">B15</text>
<text text-anchor="middle" x="2312.5" y="-229" font-family="Helvetica" font-size="10.00">Loop: &lt;none&gt;</text>
<text text-anchor="middle" x="2312.5" y="-218" font-family="Helvetica" font-size="10.00">&#45;&#45;&#45;</text>
<text text-anchor="middle" x="2312.5" y="-207" font-family="Helvetica" font-size="10.00">HotSpotMethod&lt;LoopBenchmarks.main(String[])&gt;</text>
</g>
<!-- b15&#45;&gt;b17 -->
<g id="edge22" class="edge">
<title>b15&#45;&gt;b17</title>
<path fill="none" stroke="black" d="M2430.21,-243.7C2476.18,-250.67 2529.08,-258.7 2575.96,-265.81"/>
<polygon fill="black" stroke="black" points="2575.46,-269.27 2585.87,-267.31 2576.51,-262.35 2575.46,-269.27"/>
</g>
<!-- b16&#45;&gt;b17 -->
<g id="edge23" class="edge">
<title>b16&#45;&gt;b17</title>
<path fill="none" stroke="black" d="M1161.09,-414.23C1462.15,-388.99 2263.8,-321.78 2575.78,-295.62"/>
<polygon fill="black" stroke="black" points="2576.09,-299.11 2585.77,-294.79 2575.51,-292.13 2576.09,-299.11"/>
</g>
<!-- b18 -->
<g id="node19" class="node">
<title>b18</title>
<polygon fill="gold" stroke="black" points="3260,-249 3025,-249 3025,-197 3260,-197 3260,-249"/>
<text text-anchor="middle" x="3142.5" y="-237" font-family="Helvetica" font-size="10.00">B18</text>
<text text-anchor="middle" x="3142.5" y="-226" font-family="Helvetica" font-size="10.00">Loop: L3</text>
<text text-anchor="middle" x="3142.5" y="-215" font-family="Helvetica" font-size="10.00">&#45;&#45;&#45;</text>
<text text-anchor="middle" x="3142.5" y="-204" font-family="Helvetica" font-size="10.00">HotSpotMethod&lt;LoopBenchmarks.main(String[])&gt;</text>
</g>
<!-- b17&#45;&gt;b18 -->
<g id="edge24" class="edge">
<title>b17&#45;&gt;b18</title>
<path fill="none" stroke="black" d="M2821.03,-268.47C2880.79,-259.99 2953.66,-249.65 3014.81,-240.97"/>
<polygon fill="black" stroke="black" points="3015.5,-244.41 3024.91,-239.54 3014.52,-237.48 3015.5,-244.41"/>
</g>
<!-- b19 -->
<g id="node20" class="node">
<title>b19</title>
<polygon fill="gold" stroke="black" points="3699,-311 3464,-311 3464,-259 3699,-259 3699,-311"/>
<text text-anchor="middle" x="3581.5" y="-299" font-family="Helvetica" font-size="10.00">B19</text>
<text text-anchor="middle" x="3581.5" y="-288" font-family="Helvetica" font-size="10.00">Loop: L3</text>
<text text-anchor="middle" x="3581.5" y="-277" font-family="Helvetica" font-size="10.00">&#45;&#45;&#45;</text>
<text text-anchor="middle" x="3581.5" y="-266" font-family="Helvetica" font-size="10.00">HotSpotMethod&lt;LoopBenchmarks.main(String[])&gt;</text>
</g>
<!-- b18&#45;&gt;b19 -->
<g id="edge25" class="edge">
<title>b18&#45;&gt;b19</title>
<path fill="none" stroke="black" d="M3260.03,-239.53C3319.79,-248.01 3392.66,-258.35 3453.81,-267.03"/>
<polygon fill="black" stroke="black" points="3453.52,-270.52 3463.91,-268.46 3454.5,-263.59 3453.52,-270.52"/>
</g>
<!-- b28 -->
<g id="node29" class="node">
<title>b28</title>
<polygon fill="white" stroke="black" points="3699,-187 3464,-187 3464,-135 3699,-135 3699,-187"/>
<text text-anchor="middle" x="3581.5" y="-175" font-family="Helvetica" font-size="10.00">B28</text>
<text text-anchor="middle" x="3581.5" y="-164" font-family="Helvetica" font-size="10.00">Loop: &lt;none&gt;</text>
<text text-anchor="middle" x="3581.5" y="-153" font-family="Helvetica" font-size="10.00">&#45;&#45;&#45;</text>
<text text-anchor="middle" x="3581.5" y="-142" font-family="Helvetica" font-size="10.00">HotSpotMethod&lt;LoopBenchmarks.main(String[])&gt;</text>
</g>
<!-- b18&#45;&gt;b28 -->
<g id="edge26" class="edge">
<title>b18&#45;&gt;b28</title>
<path fill="none" stroke="black" d="M3260.03,-206.47C3319.79,-197.99 3392.66,-187.65 3453.81,-178.97"/>
<polygon fill="black" stroke="black" points="3454.5,-182.41 3463.91,-177.54 3453.52,-175.48 3454.5,-182.41"/>
</g>
<!-- b20 -->
<g id="node21" class="node">
<title>b20</title>
<polygon fill="orange" stroke="black" points="4138,-311 3903,-311 3903,-259 4138,-259 4138,-311"/>
<text text-anchor="middle" x="4020.5" y="-299" font-family="Helvetica" font-size="10.00">B20</text>
<text text-anchor="middle" x="4020.5" y="-288" font-family="Helvetica" font-size="10.00">Loop: L4</text>
<text text-anchor="middle" x="4020.5" y="-277" font-family="Helvetica" font-size="10.00">&#45;&#45;&#45;</text>
<text text-anchor="middle" x="4020.5" y="-266" font-family="Helvetica" font-size="10.00">HotSpotMethod&lt;LoopBenchmarks.main(String[])&gt;</text>
</g>
<!-- b19&#45;&gt;b20 -->
<g id="edge27" class="edge">
<title>b19&#45;&gt;b20</title>
<path fill="none" stroke="black" d="M3699.03,-285C3758.79,-285 3831.66,-285 3892.81,-285"/>
<polygon fill="black" stroke="black" points="3892.91,-288.5 3902.91,-285 3892.91,-281.5 3892.91,-288.5"/>
</g>
<!-- b21 -->
<g id="node22" class="node">
<title>b21</title>
<polygon fill="orange" stroke="black" points="4625,-397.5 4294,-397.5 4294,-334.5 4625,-334.5 4625,-397.5"/>
<text text-anchor="middle" x="4459.5" y="-385.5" font-family="Helvetica" font-size="10.00">B21</text>
<text text-anchor="middle" x="4459.5" y="-374.5" font-family="Helvetica" font-size="10.00">Loop: L4</text>
<text text-anchor="middle" x="4459.5" y="-363.5" font-family="Helvetica" font-size="10.00">&#45;&#45;&#45;</text>
<text text-anchor="middle" x="4459.5" y="-352.5" font-family="Helvetica" font-size="10.00">HotSpotMethod&lt;LoopBenchmarks.main(String[])&gt;</text>
<text text-anchor="middle" x="4459.5" y="-341.5" font-family="Helvetica" font-size="10.00">HotSpotMethod&lt;LoopBenchmarks.mandelbrotLoop(double, double, int)&gt;</text>
</g>
<!-- b20&#45;&gt;b21 -->
<g id="edge28" class="edge">
<title>b20&#45;&gt;b21</title>
<path fill="none" stroke="black" d="M4138.03,-306.6C4182.74,-314.89 4234.79,-324.53 4283.78,-333.61"/>
<polygon fill="black" stroke="black" points="4283.38,-337.1 4293.85,-335.48 4284.66,-330.22 4283.38,-337.1"/>
</g>
<!-- b27 -->
<g id="node28" class="node">
<title>b27</title>
<polygon fill="gold" stroke="black" points="4577,-52 4342,-52 4342,0 4577,0 4577,-52"/>
<text text-anchor="middle" x="4459.5" y="-40" font-family="Helvetica" font-size="10.00">B27</text>
<text text-anchor="middle" x="4459.5" y="-29" font-family="Helvetica" font-size="10.00">Loop: L3</text>
<text text-anchor="middle" x="4459.5" y="-18" font-family="Helvetica" font-size="10.00">&#45;&#45;&#45;</text>
<text text-anchor="middle" x="4459.5" y="-7" font-family="Helvetica" font-size="10.00">HotSpotMethod&lt;LoopBenchmarks.main(String[])&gt;</text>
</g>
<!-- b20&#45;&gt;b27 -->
<g id="edge29" class="edge">
<title>b20&#45;&gt;b27</title>
<path fill="none" stroke="black" d="M4058.02,-258.84C4109.43,-222.5 4206.66,-155.65 4294,-106 4325.15,-88.29 4360.8,-70.65 4390.92,-56.46"/>
<polygon fill="black" stroke="black" points="4392.51,-59.58 4400.09,-52.17 4389.54,-53.24 4392.51,-59.58"/>
</g>
<!-- b22 -->
<g id="node23" class="node">
<title>b22</title>
<polygon fill="violet" stroke="black" points="5064,-413.5 4733,-413.5 4733,-350.5 5064,-350.5 5064,-413.5"/>
<text text-anchor="middle" x="4898.5" y="-401.5" font-family="Helvetica" font-size="10.00">B22</text>
<text text-anchor="middle" x="4898.5" y="-390.5" font-family="Helvetica" font-size="10.00">Loop: L5</text>
<text text-anchor="middle" x="4898.5" y="-379.5" font-family="Helvetica" font-size="10.00">&#45;&#45;&#45;</text>
<text text-anchor="middle" x="4898.5" y="-368.5" font-family="Helvetica" font-size="10.00">HotSpotMethod&lt;LoopBenchmarks.mandelbrotLoop(double, double, int)&gt;</text>
<text text-anchor="middle" x="4898.5" y="-357.5" font-family="Helvetica" font-size="10.00">HotSpotMethod&lt;LoopBenchmarks.main(String[])&gt;</text>
</g>
<!-- b21&#45;&gt;b22 -->
<g id="edge30" class="edge">
<title>b21&#45;&gt;b22</title>
<path fill="none" stroke="black" d="M4625.09,-372.03C4656.85,-373.19 4690.24,-374.41 4722.33,-375.59"/>
<polygon fill="black" stroke="black" points="4722.58,-379.1 4732.7,-375.97 4722.83,-372.1 4722.58,-379.1"/>
</g>
<!-- b23 -->
<g id="node24" class="node">
<title>b23</title>
<polygon fill="violet" stroke="black" points="5503,-322 5172,-322 5172,-270 5503,-270 5503,-322"/>
<text text-anchor="middle" x="5337.5" y="-310" font-family="Helvetica" font-size="10.00">B23</text>
<text text-anchor="middle" x="5337.5" y="-299" font-family="Helvetica" font-size="10.00">Loop: L5</text>
<text text-anchor="middle" x="5337.5" y="-288" font-family="Helvetica" font-size="10.00">&#45;&#45;&#45;</text>
<text text-anchor="middle" x="5337.5" y="-277" font-family="Helvetica" font-size="10.00">HotSpotMethod&lt;LoopBenchmarks.mandelbrotLoop(double, double, int)&gt;</text>
</g>
<!-- b22&#45;&gt;b23 -->
<g id="edge31" class="edge">
<title>b22&#45;&gt;b23</title>
<path fill="none" stroke="black" d="M5059.74,-350.47C5103.81,-341.79 5151.29,-332.45 5194.27,-323.99"/>
<polygon fill="black" stroke="black" points="5195.09,-327.4 5204.22,-322.03 5193.74,-320.53 5195.09,-327.4"/>
</g>
<!-- b26 -->
<g id="node27" class="node">
<title>b26</title>
<polygon fill="orange" stroke="black" points="5503,-603.5 5172,-603.5 5172,-540.5 5503,-540.5 5503,-603.5"/>
<text text-anchor="middle" x="5337.5" y="-591.5" font-family="Helvetica" font-size="10.00">B26</text>
<text text-anchor="middle" x="5337.5" y="-580.5" font-family="Helvetica" font-size="10.00">Loop: L4</text>
<text text-anchor="middle" x="5337.5" y="-569.5" font-family="Helvetica" font-size="10.00">&#45;&#45;&#45;</text>
<text text-anchor="middle" x="5337.5" y="-558.5" font-family="Helvetica" font-size="10.00">HotSpotMethod&lt;LoopBenchmarks.mandelbrotLoop(double, double, int)&gt;</text>
<text text-anchor="middle" x="5337.5" y="-547.5" font-family="Helvetica" font-size="10.00">HotSpotMethod&lt;LoopBenchmarks.main(String[])&gt;</text>
</g>
<!-- b22&#45;&gt;b26 -->
<g id="edge32" class="edge">
<title>b22&#45;&gt;b26</title>
<path fill="none" stroke="black" d="M4972.15,-413.59C5050.09,-447.47 5173.59,-501.17 5254.84,-536.49"/>
<polygon fill="black" stroke="black" points="5253.47,-539.72 5264.04,-540.49 5256.26,-533.3 5253.47,-539.72"/>
</g>
<!-- b24 -->
<g id="node25" class="node">
<title>b24</title>
<polygon fill="violet" stroke="black" points="5942,-386 5611,-386 5611,-334 5942,-334 5942,-386"/>
<text text-anchor="middle" x="5776.5" y="-374" font-family="Helvetica" font-size="10.00">B24</text>
<text text-anchor="middle" x="5776.5" y="-363" font-family="Helvetica" font-size="10.00">Loop: L5</text>
<text text-anchor="middle" x="5776.5" y="-352" font-family="Helvetica" font-size="10.00">&#45;&#45;&#45;</text>
<text text-anchor="middle" x="5776.5" y="-341" font-family="Helvetica" font-size="10.00">HotSpotMethod&lt;LoopBenchmarks.mandelbrotLoop(double, double, int)&gt;</text>
</g>
<!-- b23&#45;&gt;b24 -->
<g id="edge33" class="edge">
<title>b23&#45;&gt;b24</title>
<path fill="none" stroke="black" d="M5503.09,-320.1C5534.99,-324.78 5568.53,-329.69 5600.74,-334.41"/>
<polygon fill="black" stroke="black" points="5600.3,-337.88 5610.7,-335.86 5601.31,-330.95 5600.3,-337.88"/>
</g>
<!-- b25 -->
<g id="node26" class="node">
<title>b25</title>
<polygon fill="orange" stroke="black" points="5942,-257 5611,-257 5611,-205 5942,-205 5942,-257"/>
<text text-anchor="middle" x="5776.5" y="-245" font-family="Helvetica" font-size="10.00">B25</text>
<text text-anchor="middle" x="5776.5" y="-234" font-family="Helvetica" font-size="10.00">Loop: L4</text>
<text text-anchor="middle" x="5776.5" y="-223" font-family="Helvetica" font-size="10.00">&#45;&#45;&#45;</text>
<text text-anchor="middle" x="5776.5" y="-212" font-family="Helvetica" font-size="10.00">HotSpotMethod&lt;LoopBenchmarks.mandelbrotLoop(double, double, int)&gt;</text>
</g>
<!-- b23&#45;&gt;b25 -->
<g id="edge34" class="edge">
<title>b23&#45;&gt;b25</title>
<path fill="none" stroke="black" d="M5503.09,-271.52C5534.99,-266.77 5568.53,-261.79 5600.74,-256.99"/>
<polygon fill="black" stroke="black" points="5601.32,-260.45 5610.7,-255.51 5600.29,-253.52 5601.32,-260.45"/>
</g>
<!-- b24&#45;&gt;b22 -->
<g id="edge35" class="edge">
<title>b24&#45;&gt;b22</title>
<path fill="none" stroke="black" d="M5610.63,-364.14C5457.54,-367.99 5230.36,-373.69 5074.19,-377.61"/>
<polygon fill="black" stroke="black" points="5073.92,-374.12 5064.01,-377.87 5074.1,-381.12 5073.92,-374.12"/>
</g>
<!-- b25&#45;&gt;b20 -->
<g id="edge36" class="edge">
<title>b25&#45;&gt;b20</title>
<path fill="none" stroke="black" d="M5610.9,-230.07C5489.56,-229.81 5320.47,-230.34 5172,-234 4799.83,-243.17 4360.4,-265.98 4148.44,-277.74"/>
<polygon fill="black" stroke="black" points="4148.01,-274.26 4138.22,-278.31 4148.39,-281.25 4148.01,-274.26"/>
</g>
<!-- b26&#45;&gt;b20 -->
<g id="edge37" class="edge">
<title>b26&#45;&gt;b20</title>
<path fill="none" stroke="black" d="M5171.7,-568.43C4962.7,-559.78 4593.47,-530.6 4294,-433 4208.9,-405.27 4119.41,-351.14 4067.12,-316.59"/>
<polygon fill="black" stroke="black" points="4069,-313.64 4058.74,-311.01 4065.13,-319.47 4069,-313.64"/>
</g>
<!-- b27&#45;&gt;b18 -->
<g id="edge38" class="edge">
<title>b27&#45;&gt;b18</title>
<path fill="none" stroke="black" d="M4341.84,-20.81C4146.83,-15.07 3743.76,-15.84 3416,-99 3335.75,-119.36 3249.87,-162.39 3196.43,-192"/>
<polygon fill="black" stroke="black" points="3194.51,-189.06 3187.49,-196.99 3197.93,-195.17 3194.51,-189.06"/>
</g>
</g>
</svg>
