<?xml version="1.0" encoding="UTF-8" standalone="no"?>
<!DOCTYPE svg PUBLIC "-//W3C//DTD SVG 1.1//EN"
 "http://www.w3.org/Graphics/SVG/1.1/DTD/svg11.dtd">
<!-- Generated by graphviz version 2.44.0 (0)
 -->
<!-- Title: CFG_91 Pages: 1 -->
<svg width="7706pt" height="1275pt"
 viewBox="0.00 0.00 7706.00 1275.00" xmlns="http://www.w3.org/2000/svg" xmlns:xlink="http://www.w3.org/1999/xlink">
<g id="graph0" class="graph" transform="scale(1 1) rotate(0) translate(4 1271)">
<title>CFG_91</title>
<polygon fill="white" stroke="transparent" points="-4,4 -4,-1271 7702,-1271 7702,4 -4,4"/>
<text text-anchor="middle" x="189" y="-1247" font-family="Times-Roman" font-size="20.00">146&#45;LoopBenchmarks.main(String[])</text>
<!-- b0 -->
<g id="node1" class="node">
<title>b0</title>
<polygon fill="white" stroke="black" points="331,-874.5 0,-874.5 0,-811.5 331,-811.5 331,-874.5"/>
<text text-anchor="middle" x="165.5" y="-862.5" font-family="Helvetica" font-size="10.00">B0</text>
<text text-anchor="middle" x="165.5" y="-851.5" font-family="Helvetica" font-size="10.00">Loop: &lt;none&gt;</text>
<text text-anchor="middle" x="165.5" y="-840.5" font-family="Helvetica" font-size="10.00">&#45;&#45;&#45;</text>
<text text-anchor="middle" x="165.5" y="-829.5" font-family="Helvetica" font-size="10.00">HotSpotMethod&lt;LoopBenchmarks.main(String[])&gt;</text>
<text text-anchor="middle" x="165.5" y="-818.5" font-family="Helvetica" font-size="10.00">HotSpotMethod&lt;LoopBenchmarks.mandelbrotLoop(double, double, int)&gt;</text>
</g>
<!-- b1 -->
<g id="node2" class="node">
<title>b1</title>
<polygon fill="white" stroke="black" points="770,-1008.5 439,-1008.5 439,-945.5 770,-945.5 770,-1008.5"/>
<text text-anchor="middle" x="604.5" y="-996.5" font-family="Helvetica" font-size="10.00">B1</text>
<text text-anchor="middle" x="604.5" y="-985.5" font-family="Helvetica" font-size="10.00">Loop: &lt;none&gt;</text>
<text text-anchor="middle" x="604.5" y="-974.5" font-family="Helvetica" font-size="10.00">&#45;&#45;&#45;</text>
<text text-anchor="middle" x="604.5" y="-963.5" font-family="Helvetica" font-size="10.00">HotSpotMethod&lt;LoopBenchmarks.main(String[])&gt;</text>
<text text-anchor="middle" x="604.5" y="-952.5" font-family="Helvetica" font-size="10.00">HotSpotMethod&lt;LoopBenchmarks.mandelbrotLoop(double, double, int)&gt;</text>
</g>
<!-- b0&#45;&gt;b1 -->
<g id="edge1" class="edge">
<title>b0&#45;&gt;b1</title>
<path fill="none" stroke="black" d="M269.23,-874.5C335.73,-894.89 422.33,-921.45 490.72,-942.42"/>
<polygon fill="black" stroke="black" points="490.09,-945.89 500.68,-945.47 492.14,-939.19 490.09,-945.89"/>
</g>
<!-- b16 -->
<g id="node17" class="node">
<title>b16</title>
<polygon fill="white" stroke="black" points="1161,-673 926,-673 926,-621 1161,-621 1161,-673"/>
<text text-anchor="middle" x="1043.5" y="-661" font-family="Helvetica" font-size="10.00">B16</text>
<text text-anchor="middle" x="1043.5" y="-650" font-family="Helvetica" font-size="10.00">Loop: &lt;none&gt;</text>
<text text-anchor="middle" x="1043.5" y="-639" font-family="Helvetica" font-size="10.00">&#45;&#45;&#45;</text>
<text text-anchor="middle" x="1043.5" y="-628" font-family="Helvetica" font-size="10.00">HotSpotMethod&lt;LoopBenchmarks.main(String[])&gt;</text>
</g>
<!-- b0&#45;&gt;b16 -->
<g id="edge2" class="edge">
<title>b0&#45;&gt;b16</title>
<path fill="none" stroke="black" d="M307.73,-811.4C476.01,-773.75 754.61,-711.41 916.08,-675.29"/>
<polygon fill="black" stroke="black" points="917.07,-678.65 926.07,-673.05 915.54,-671.82 917.07,-678.65"/>
</g>
<!-- b2 -->
<g id="node3" class="node">
<title>b2</title>
<polygon fill="lightblue" stroke="black" points="1209,-1102 878,-1102 878,-1050 1209,-1050 1209,-1102"/>
<text text-anchor="middle" x="1043.5" y="-1090" font-family="Helvetica" font-size="10.00">B2</text>
<text text-anchor="middle" x="1043.5" y="-1079" font-family="Helvetica" font-size="10.00">Loop: L0</text>
<text text-anchor="middle" x="1043.5" y="-1068" font-family="Helvetica" font-size="10.00">&#45;&#45;&#45;</text>
<text text-anchor="middle" x="1043.5" y="-1057" font-family="Helvetica" font-size="10.00">HotSpotMethod&lt;LoopBenchmarks.mandelbrotLoop(double, double, int)&gt;</text>
</g>
<!-- b1&#45;&gt;b2 -->
<g id="edge3" class="edge">
<title>b1&#45;&gt;b2</title>
<path fill="none" stroke="black" d="M744.67,-1008.53C800.18,-1021.1 863.6,-1035.47 917.6,-1047.71"/>
<polygon fill="black" stroke="black" points="917.05,-1051.17 927.57,-1049.96 918.59,-1044.34 917.05,-1051.17"/>
</g>
<!-- b3 -->
<g id="node4" class="node">
<title>b3</title>
<polygon fill="lightblue" stroke="black" points="1648,-1170 1317,-1170 1317,-1118 1648,-1118 1648,-1170"/>
<text text-anchor="middle" x="1482.5" y="-1158" font-family="Helvetica" font-size="10.00">B3</text>
<text text-anchor="middle" x="1482.5" y="-1147" font-family="Helvetica" font-size="10.00">Loop: L0</text>
<text text-anchor="middle" x="1482.5" y="-1136" font-family="Helvetica" font-size="10.00">&#45;&#45;&#45;</text>
<text text-anchor="middle" x="1482.5" y="-1125" font-family="Helvetica" font-size="10.00">HotSpotMethod&lt;LoopBenchmarks.mandelbrotLoop(double, double, int)&gt;</text>
</g>
<!-- b2&#45;&gt;b3 -->
<g id="edge4" class="edge">
<title>b2&#45;&gt;b3</title>
<path fill="none" stroke="black" d="M1209.09,-1101.61C1240.99,-1106.58 1274.53,-1111.79 1306.74,-1116.81"/>
<polygon fill="black" stroke="black" points="1306.28,-1120.28 1316.7,-1118.36 1307.35,-1113.36 1306.28,-1120.28"/>
</g>
<!-- b7 -->
<g id="node8" class="node">
<title>b7</title>
<polygon fill="white" stroke="black" points="2087,-931.5 1756,-931.5 1756,-868.5 2087,-868.5 2087,-931.5"/>
<text text-anchor="middle" x="1921.5" y="-919.5" font-family="Helvetica" font-size="10.00">B7</text>
<text text-anchor="middle" x="1921.5" y="-908.5" font-family="Helvetica" font-size="10.00">Loop: &lt;none&gt;</text>
<text text-anchor="middle" x="1921.5" y="-897.5" font-family="Helvetica" font-size="10.00">&#45;&#45;&#45;</text>
<text text-anchor="middle" x="1921.5" y="-886.5" font-family="Helvetica" font-size="10.00">HotSpotMethod&lt;LoopBenchmarks.mandelbrotLoop(double, double, int)&gt;</text>
<text text-anchor="middle" x="1921.5" y="-875.5" font-family="Helvetica" font-size="10.00">HotSpotMethod&lt;LoopBenchmarks.main(String[])&gt;</text>
</g>
<!-- b2&#45;&gt;b7 -->
<g id="edge5" class="edge">
<title>b2&#45;&gt;b7</title>
<path fill="none" stroke="black" d="M1174.23,-1049.94C1328.09,-1019.02 1584.91,-967.42 1753.49,-933.55"/>
<polygon fill="black" stroke="black" points="1754.35,-936.95 1763.46,-931.55 1752.97,-930.09 1754.35,-936.95"/>
</g>
<!-- b4 -->
<g id="node5" class="node">
<title>b4</title>
<polygon fill="lightblue" stroke="black" points="2087,-1237 1756,-1237 1756,-1185 2087,-1185 2087,-1237"/>
<text text-anchor="middle" x="1921.5" y="-1225" font-family="Helvetica" font-size="10.00">B4</text>
<text text-anchor="middle" x="1921.5" y="-1214" font-family="Helvetica" font-size="10.00">Loop: L0</text>
<text text-anchor="middle" x="1921.5" y="-1203" font-family="Helvetica" font-size="10.00">&#45;&#45;&#45;</text>
<text text-anchor="middle" x="1921.5" y="-1192" font-family="Helvetica" font-size="10.00">HotSpotMethod&lt;LoopBenchmarks.mandelbrotLoop(double, double, int)&gt;</text>
</g>
<!-- b3&#45;&gt;b4 -->
<g id="edge6" class="edge">
<title>b3&#45;&gt;b4</title>
<path fill="none" stroke="black" d="M1648.09,-1169.23C1679.99,-1174.13 1713.53,-1179.27 1745.74,-1184.21"/>
<polygon fill="black" stroke="black" points="1745.28,-1187.68 1755.7,-1185.73 1746.34,-1180.76 1745.28,-1187.68"/>
</g>
<!-- b3&#45;&gt;b7 -->
<g id="edge7" class="edge">
<title>b3&#45;&gt;b7</title>
<path fill="none" stroke="black" d="M1540.47,-1117.83C1572.43,-1102.76 1612.83,-1083.09 1648,-1064 1723.55,-1023 1807.98,-971.22 1862.56,-936.93"/>
<polygon fill="black" stroke="black" points="1864.45,-939.87 1871.05,-931.58 1860.72,-933.95 1864.45,-939.87"/>
</g>
<!-- b4&#45;&gt;b2 -->
<g id="edge8" class="edge">
<title>b4&#45;&gt;b2</title>
<path fill="none" stroke="black" d="M1755.92,-1228.69C1633.3,-1237.3 1462.62,-1239.59 1317,-1206 1233.95,-1186.84 1146.47,-1139.58 1093.69,-1107.64"/>
<polygon fill="black" stroke="black" points="1095.25,-1104.49 1084.89,-1102.26 1091.6,-1110.46 1095.25,-1104.49"/>
</g>
<!-- b5 -->
<g id="node6" class="node">
<title>b5</title>
<polygon fill="white" stroke="black" points="1648,-900 1317,-900 1317,-848 1648,-848 1648,-900"/>
<text text-anchor="middle" x="1482.5" y="-888" font-family="Helvetica" font-size="10.00">B5</text>
<text text-anchor="middle" x="1482.5" y="-877" font-family="Helvetica" font-size="10.00">Loop: &lt;none&gt;</text>
<text text-anchor="middle" x="1482.5" y="-866" font-family="Helvetica" font-size="10.00">&#45;&#45;&#45;</text>
<text text-anchor="middle" x="1482.5" y="-855" font-family="Helvetica" font-size="10.00">HotSpotMethod&lt;LoopBenchmarks.mandelbrotLoop(double, double, int)&gt;</text>
</g>
<!-- b5&#45;&gt;b7 -->
<g id="edge9" class="edge">
<title>b5&#45;&gt;b7</title>
<path fill="none" stroke="black" d="M1648.09,-883.79C1679.85,-885.68 1713.24,-887.67 1745.33,-889.58"/>
<polygon fill="black" stroke="black" points="1745.51,-893.09 1755.7,-890.19 1745.92,-886.11 1745.51,-893.09"/>
</g>
<!-- b6 -->
<g id="node7" class="node">
<title>b6</title>
<polygon fill="white" stroke="black" points="1648,-776 1317,-776 1317,-724 1648,-724 1648,-776"/>
<text text-anchor="middle" x="1482.5" y="-764" font-family="Helvetica" font-size="10.00">B6</text>
<text text-anchor="middle" x="1482.5" y="-753" font-family="Helvetica" font-size="10.00">Loop: &lt;none&gt;</text>
<text text-anchor="middle" x="1482.5" y="-742" font-family="Helvetica" font-size="10.00">&#45;&#45;&#45;</text>
<text text-anchor="middle" x="1482.5" y="-731" font-family="Helvetica" font-size="10.00">HotSpotMethod&lt;LoopBenchmarks.mandelbrotLoop(double, double, int)&gt;</text>
</g>
<!-- b6&#45;&gt;b7 -->
<g id="edge10" class="edge">
<title>b6&#45;&gt;b7</title>
<path fill="none" stroke="black" d="M1559.62,-776.13C1631.53,-800.81 1739.87,-838 1819.08,-865.19"/>
<polygon fill="black" stroke="black" points="1818,-868.52 1828.59,-868.45 1820.27,-861.9 1818,-868.52"/>
</g>
<!-- b8 -->
<g id="node9" class="node">
<title>b8</title>
<polygon fill="lightgreen" stroke="black" points="2430,-926 2195,-926 2195,-874 2430,-874 2430,-926"/>
<text text-anchor="middle" x="2312.5" y="-914" font-family="Helvetica" font-size="10.00">B8</text>
<text text-anchor="middle" x="2312.5" y="-903" font-family="Helvetica" font-size="10.00">Loop: L1</text>
<text text-anchor="middle" x="2312.5" y="-892" font-family="Helvetica" font-size="10.00">&#45;&#45;&#45;</text>
<text text-anchor="middle" x="2312.5" y="-881" font-family="Helvetica" font-size="10.00">HotSpotMethod&lt;LoopBenchmarks.main(String[])&gt;</text>
</g>
<!-- b7&#45;&gt;b8 -->
<g id="edge11" class="edge">
<title>b7&#45;&gt;b8</title>
<path fill="none" stroke="black" d="M2087.19,-900C2119.82,-900 2153.59,-900 2184.72,-900"/>
<polygon fill="black" stroke="black" points="2184.73,-903.5 2194.73,-900 2184.73,-896.5 2184.73,-903.5"/>
</g>
<!-- b9 -->
<g id="node10" class="node">
<title>b9</title>
<polygon fill="lightgreen" stroke="black" points="2869,-939.5 2538,-939.5 2538,-876.5 2869,-876.5 2869,-939.5"/>
<text text-anchor="middle" x="2703.5" y="-927.5" font-family="Helvetica" font-size="10.00">B9</text>
<text text-anchor="middle" x="2703.5" y="-916.5" font-family="Helvetica" font-size="10.00">Loop: L1</text>
<text text-anchor="middle" x="2703.5" y="-905.5" font-family="Helvetica" font-size="10.00">&#45;&#45;&#45;</text>
<text text-anchor="middle" x="2703.5" y="-894.5" font-family="Helvetica" font-size="10.00">HotSpotMethod&lt;LoopBenchmarks.main(String[])&gt;</text>
<text text-anchor="middle" x="2703.5" y="-883.5" font-family="Helvetica" font-size="10.00">HotSpotMethod&lt;LoopBenchmarks.mandelbrotLoop(double, double, int)&gt;</text>
</g>
<!-- b8&#45;&gt;b9 -->
<g id="edge12" class="edge">
<title>b8&#45;&gt;b9</title>
<path fill="none" stroke="black" d="M2430.21,-902.4C2460.84,-903.03 2494.54,-903.72 2527.49,-904.4"/>
<polygon fill="black" stroke="black" points="2527.62,-907.9 2537.69,-904.61 2527.77,-900.91 2527.62,-907.9"/>
</g>
<!-- b17 -->
<g id="node18" class="node">
<title>b17</title>
<polygon fill="white" stroke="black" points="2821,-538 2586,-538 2586,-486 2821,-486 2821,-538"/>
<text text-anchor="middle" x="2703.5" y="-526" font-family="Helvetica" font-size="10.00">B17</text>
<text text-anchor="middle" x="2703.5" y="-515" font-family="Helvetica" font-size="10.00">Loop: &lt;none&gt;</text>
<text text-anchor="middle" x="2703.5" y="-504" font-family="Helvetica" font-size="10.00">&#45;&#45;&#45;</text>
<text text-anchor="middle" x="2703.5" y="-493" font-family="Helvetica" font-size="10.00">HotSpotMethod&lt;LoopBenchmarks.main(String[])&gt;</text>
</g>
<!-- b8&#45;&gt;b17 -->
<g id="edge13" class="edge">
<title>b8&#45;&gt;b17</title>
<path fill="none" stroke="black" d="M2336.35,-873.94C2376.13,-828.94 2461.2,-734.22 2538,-659 2579.67,-618.18 2629.98,-573.91 2663.9,-544.73"/>
<polygon fill="black" stroke="black" points="2666.42,-547.18 2671.73,-538.02 2661.86,-541.87 2666.42,-547.18"/>
</g>
<!-- b10 -->
<g id="node11" class="node">
<title>b10</title>
<polygon fill="lightpink" stroke="black" points="3308,-990.5 2977,-990.5 2977,-927.5 3308,-927.5 3308,-990.5"/>
<text text-anchor="middle" x="3142.5" y="-978.5" font-family="Helvetica" font-size="10.00">B10</text>
<text text-anchor="middle" x="3142.5" y="-967.5" font-family="Helvetica" font-size="10.00">Loop: L2</text>
<text text-anchor="middle" x="3142.5" y="-956.5" font-family="Helvetica" font-size="10.00">&#45;&#45;&#45;</text>
<text text-anchor="middle" x="3142.5" y="-945.5" font-family="Helvetica" font-size="10.00">HotSpotMethod&lt;LoopBenchmarks.mandelbrotLoop(double, double, int)&gt;</text>
<text text-anchor="middle" x="3142.5" y="-934.5" font-family="Helvetica" font-size="10.00">HotSpotMethod&lt;LoopBenchmarks.main(String[])&gt;</text>
</g>
<!-- b9&#45;&gt;b10 -->
<g id="edge14" class="edge">
<title>b9&#45;&gt;b10</title>
<path fill="none" stroke="black" d="M2869.09,-927.21C2900.99,-930.93 2934.53,-934.85 2966.74,-938.61"/>
<polygon fill="black" stroke="black" points="2966.36,-942.08 2976.7,-939.77 2967.17,-935.13 2966.36,-942.08"/>
</g>
<!-- b11 -->
<g id="node12" class="node">
<title>b11</title>
<polygon fill="lightpink" stroke="black" points="3747,-875 3416,-875 3416,-823 3747,-823 3747,-875"/>
<text text-anchor="middle" x="3581.5" y="-863" font-family="Helvetica" font-size="10.00">B11</text>
<text text-anchor="middle" x="3581.5" y="-852" font-family="Helvetica" font-size="10.00">Loop: L2</text>
<text text-anchor="middle" x="3581.5" y="-841" font-family="Helvetica" font-size="10.00">&#45;&#45;&#45;</text>
<text text-anchor="middle" x="3581.5" y="-830" font-family="Helvetica" font-size="10.00">HotSpotMethod&lt;LoopBenchmarks.mandelbrotLoop(double, double, int)&gt;</text>
</g>
<!-- b10&#45;&gt;b11 -->
<g id="edge15" class="edge">
<title>b10&#45;&gt;b11</title>
<path fill="none" stroke="black" d="M3268.73,-927.48C3331.2,-911.75 3406.2,-892.87 3466.98,-877.57"/>
<polygon fill="black" stroke="black" points="3468.16,-880.89 3477,-875.05 3466.45,-874.1 3468.16,-880.89"/>
</g>
<!-- b14 -->
<g id="node15" class="node">
<title>b14</title>
<polygon fill="lightgreen" stroke="black" points="3747,-1156.5 3416,-1156.5 3416,-1093.5 3747,-1093.5 3747,-1156.5"/>
<text text-anchor="middle" x="3581.5" y="-1144.5" font-family="Helvetica" font-size="10.00">B14</text>
<text text-anchor="middle" x="3581.5" y="-1133.5" font-family="Helvetica" font-size="10.00">Loop: L1</text>
<text text-anchor="middle" x="3581.5" y="-1122.5" font-family="Helvetica" font-size="10.00">&#45;&#45;&#45;</text>
<text text-anchor="middle" x="3581.5" y="-1111.5" font-family="Helvetica" font-size="10.00">HotSpotMethod&lt;LoopBenchmarks.mandelbrotLoop(double, double, int)&gt;</text>
<text text-anchor="middle" x="3581.5" y="-1100.5" font-family="Helvetica" font-size="10.00">HotSpotMethod&lt;LoopBenchmarks.main(String[])&gt;</text>
</g>
<!-- b10&#45;&gt;b14 -->
<g id="edge16" class="edge">
<title>b10&#45;&gt;b14</title>
<path fill="none" stroke="black" d="M3226.47,-990.52C3301.01,-1018.83 3410.33,-1060.36 3487.73,-1089.76"/>
<polygon fill="black" stroke="black" points="3486.89,-1093.19 3497.49,-1093.47 3489.38,-1086.64 3486.89,-1093.19"/>
</g>
<!-- b12 -->
<g id="node13" class="node">
<title>b12</title>
<polygon fill="lightpink" stroke="black" points="4186,-939 3855,-939 3855,-887 4186,-887 4186,-939"/>
<text text-anchor="middle" x="4020.5" y="-927" font-family="Helvetica" font-size="10.00">B12</text>
<text text-anchor="middle" x="4020.5" y="-916" font-family="Helvetica" font-size="10.00">Loop: L2</text>
<text text-anchor="middle" x="4020.5" y="-905" font-family="Helvetica" font-size="10.00">&#45;&#45;&#45;</text>
<text text-anchor="middle" x="4020.5" y="-894" font-family="Helvetica" font-size="10.00">HotSpotMethod&lt;LoopBenchmarks.mandelbrotLoop(double, double, int)&gt;</text>
</g>
<!-- b11&#45;&gt;b12 -->
<g id="edge17" class="edge">
<title>b11&#45;&gt;b12</title>
<path fill="none" stroke="black" d="M3747.09,-873.1C3778.99,-877.78 3812.53,-882.69 3844.74,-887.41"/>
<polygon fill="black" stroke="black" points="3844.3,-890.88 3854.7,-888.86 3845.31,-883.95 3844.3,-890.88"/>
</g>
<!-- b13 -->
<g id="node14" class="node">
<title>b13</title>
<polygon fill="lightgreen" stroke="black" points="4186,-810 3855,-810 3855,-758 4186,-758 4186,-810"/>
<text text-anchor="middle" x="4020.5" y="-798" font-family="Helvetica" font-size="10.00">B13</text>
<text text-anchor="middle" x="4020.5" y="-787" font-family="Helvetica" font-size="10.00">Loop: L1</text>
<text text-anchor="middle" x="4020.5" y="-776" font-family="Helvetica" font-size="10.00">&#45;&#45;&#45;</text>
<text text-anchor="middle" x="4020.5" y="-765" font-family="Helvetica" font-size="10.00">HotSpotMethod&lt;LoopBenchmarks.mandelbrotLoop(double, double, int)&gt;</text>
</g>
<!-- b11&#45;&gt;b13 -->
<g id="edge18" class="edge">
<title>b11&#45;&gt;b13</title>
<path fill="none" stroke="black" d="M3747.09,-824.52C3778.99,-819.77 3812.53,-814.79 3844.74,-809.99"/>
<polygon fill="black" stroke="black" points="3845.32,-813.45 3854.7,-808.51 3844.29,-806.52 3845.32,-813.45"/>
</g>
<!-- b12&#45;&gt;b10 -->
<g id="edge19" class="edge">
<title>b12&#45;&gt;b10</title>
<path fill="none" stroke="black" d="M3854.63,-921.66C3701.54,-929.7 3474.36,-941.63 3318.19,-949.83"/>
<polygon fill="black" stroke="black" points="3317.81,-946.34 3308.01,-950.36 3318.18,-953.33 3317.81,-946.34"/>
</g>
<!-- b13&#45;&gt;b8 -->
<g id="edge20" class="edge">
<title>b13&#45;&gt;b8</title>
<path fill="none" stroke="black" d="M3854.91,-777.46C3580.11,-769.41 3011.34,-765 2538,-841 2494.26,-848.02 2446.68,-859.9 2406.63,-871.16"/>
<polygon fill="black" stroke="black" points="2405.55,-867.83 2396.89,-873.93 2407.46,-874.56 2405.55,-867.83"/>
</g>
<!-- b14&#45;&gt;b8 -->
<g id="edge21" class="edge">
<title>b14&#45;&gt;b8</title>
<path fill="none" stroke="black" d="M3415.78,-1110.93C3208.8,-1091.09 2843.66,-1048.92 2538,-976 2487.58,-963.97 2432.42,-945.38 2389.39,-929.59"/>
<polygon fill="black" stroke="black" points="2390.44,-926.25 2379.85,-926.06 2388.01,-932.81 2390.44,-926.25"/>
</g>
<!-- b15 -->
<g id="node16" class="node">
<title>b15</title>
<polygon fill="white" stroke="black" points="2430,-506 2195,-506 2195,-454 2430,-454 2430,-506"/>
<text text-anchor="middle" x="2312.5" y="-494" font-family="Helvetica" font-size="10.00">B15</text>
<text text-anchor="middle" x="2312.5" y="-483" font-family="Helvetica" font-size="10.00">Loop: &lt;none&gt;</text>
<text text-anchor="middle" x="2312.5" y="-472" font-family="Helvetica" font-size="10.00">&#45;&#45;&#45;</text>
<text text-anchor="middle" x="2312.5" y="-461" font-family="Helvetica" font-size="10.00">HotSpotMethod&lt;LoopBenchmarks.main(String[])&gt;</text>
</g>
<!-- b15&#45;&gt;b17 -->
<g id="edge22" class="edge">
<title>b15&#45;&gt;b17</title>
<path fill="none" stroke="black" d="M2430.21,-489.6C2476.08,-493.37 2528.86,-497.72 2575.67,-501.57"/>
<polygon fill="black" stroke="black" points="2575.62,-505.07 2585.87,-502.41 2576.19,-498.1 2575.62,-505.07"/>
</g>
<!-- b16&#45;&gt;b17 -->
<g id="edge23" class="edge">
<title>b16&#45;&gt;b17</title>
<path fill="none" stroke="black" d="M1161.39,-639.49C1400.03,-623.86 1960.42,-585.63 2430,-542 2477.68,-537.57 2529.98,-531.99 2575.9,-526.84"/>
<polygon fill="black" stroke="black" points="2576.35,-530.31 2585.9,-525.72 2575.57,-523.36 2576.35,-530.31"/>
</g>
<!-- b18 -->
<g id="node19" class="node">
<title>b18</title>
<polygon fill="gold" stroke="black" points="3260,-535 3025,-535 3025,-483 3260,-483 3260,-535"/>
<text text-anchor="middle" x="3142.5" y="-523" font-family="Helvetica" font-size="10.00">B18</text>
<text text-anchor="middle" x="3142.5" y="-512" font-family="Helvetica" font-size="10.00">Loop: L3</text>
<text text-anchor="middle" x="3142.5" y="-501" font-family="Helvetica" font-size="10.00">&#45;&#45;&#45;</text>
<text text-anchor="middle" x="3142.5" y="-490" font-family="Helvetica" font-size="10.00">HotSpotMethod&lt;LoopBenchmarks.main(String[])&gt;</text>
</g>
<!-- b17&#45;&gt;b18 -->
<g id="edge24" class="edge">
<title>b17&#45;&gt;b18</title>
<path fill="none" stroke="black" d="M2821.03,-511.2C2880.79,-510.79 2953.66,-510.29 3014.81,-509.87"/>
<polygon fill="black" stroke="black" points="3014.94,-513.37 3024.91,-509.8 3014.89,-506.37 3014.94,-513.37"/>
</g>
<!-- b19 -->
<g id="node20" class="node">
<title>b19</title>
<polygon fill="gold" stroke="black" points="3747,-604.5 3416,-604.5 3416,-541.5 3747,-541.5 3747,-604.5"/>
<text text-anchor="middle" x="3581.5" y="-592.5" font-family="Helvetica" font-size="10.00">B19</text>
<text text-anchor="middle" x="3581.5" y="-581.5" font-family="Helvetica" font-size="10.00">Loop: L3</text>
<text text-anchor="middle" x="3581.5" y="-570.5" font-family="Helvetica" font-size="10.00">&#45;&#45;&#45;</text>
<text text-anchor="middle" x="3581.5" y="-559.5" font-family="Helvetica" font-size="10.00">HotSpotMethod&lt;LoopBenchmarks.main(String[])&gt;</text>
<text text-anchor="middle" x="3581.5" y="-548.5" font-family="Helvetica" font-size="10.00">HotSpotMethod&lt;LoopBenchmarks.mandelbrotLoop(double, double, int)&gt;</text>
</g>
<!-- b18&#45;&gt;b19 -->
<g id="edge25" class="edge">
<title>b18&#45;&gt;b19</title>
<path fill="none" stroke="black" d="M3260.03,-526.07C3304.74,-532.61 3356.79,-540.24 3405.78,-547.41"/>
<polygon fill="black" stroke="black" points="3405.45,-550.9 3415.85,-548.89 3406.47,-543.97 3405.45,-550.9"/>
</g>
<!-- b28 -->
<g id="node29" class="node">
<title>b28</title>
<polygon fill="white" stroke="black" points="3699,-291 3464,-291 3464,-239 3699,-239 3699,-291"/>
<text text-anchor="middle" x="3581.5" y="-279" font-family="Helvetica" font-size="10.00">B28</text>
<text text-anchor="middle" x="3581.5" y="-268" font-family="Helvetica" font-size="10.00">Loop: &lt;none&gt;</text>
<text text-anchor="middle" x="3581.5" y="-257" font-family="Helvetica" font-size="10.00">&#45;&#45;&#45;</text>
<text text-anchor="middle" x="3581.5" y="-246" font-family="Helvetica" font-size="10.00">HotSpotMethod&lt;LoopBenchmarks.main(String[])&gt;</text>
</g>
<!-- b18&#45;&gt;b28 -->
<g id="edge26" class="edge">
<title>b18&#45;&gt;b28</title>
<path fill="none" stroke="black" d="M3190.27,-482.89C3271.4,-437.59 3437.86,-344.65 3524.81,-296.09"/>
<polygon fill="black" stroke="black" points="3526.71,-299.04 3533.74,-291.11 3523.3,-292.93 3526.71,-299.04"/>
</g>
<!-- b20 -->
<g id="node21" class="node">
<title>b20</title>
<polygon fill="orange" stroke="black" points="4138,-599 3903,-599 3903,-547 4138,-547 4138,-599"/>
<text text-anchor="middle" x="4020.5" y="-587" font-family="Helvetica" font-size="10.00">B20</text>
<text text-anchor="middle" x="4020.5" y="-576" font-family="Helvetica" font-size="10.00">Loop: L4</text>
<text text-anchor="middle" x="4020.5" y="-565" font-family="Helvetica" font-size="10.00">&#45;&#45;&#45;</text>
<text text-anchor="middle" x="4020.5" y="-554" font-family="Helvetica" font-size="10.00">HotSpotMethod&lt;LoopBenchmarks.main(String[])&gt;</text>
</g>
<!-- b19&#45;&gt;b20 -->
<g id="edge27" class="edge">
<title>b19&#45;&gt;b20</title>
<path fill="none" stroke="black" d="M3747.09,-573C3795.22,-573 3847.08,-573 3892.5,-573"/>
<polygon fill="black" stroke="black" points="3892.69,-576.5 3902.69,-573 3892.69,-569.5 3892.69,-576.5"/>
</g>
<!-- b21 -->
<g id="node22" class="node">
<title>b21</title>
<polygon fill="orange" stroke="black" points="4625,-806.5 4294,-806.5 4294,-743.5 4625,-743.5 4625,-806.5"/>
<text text-anchor="middle" x="4459.5" y="-794.5" font-family="Helvetica" font-size="10.00">B21</text>
<text text-anchor="middle" x="4459.5" y="-783.5" font-family="Helvetica" font-size="10.00">Loop: L4</text>
<text text-anchor="middle" x="4459.5" y="-772.5" font-family="Helvetica" font-size="10.00">&#45;&#45;&#45;</text>
<text text-anchor="middle" x="4459.5" y="-761.5" font-family="Helvetica" font-size="10.00">HotSpotMethod&lt;LoopBenchmarks.main(String[])&gt;</text>
<text text-anchor="middle" x="4459.5" y="-750.5" font-family="Helvetica" font-size="10.00">HotSpotMethod&lt;LoopBenchmarks.mandelbrotLoop(double, double, int)&gt;</text>
</g>
<!-- b20&#45;&gt;b21 -->
<g id="edge28" class="edge">
<title>b20&#45;&gt;b21</title>
<path fill="none" stroke="black" d="M4078.18,-599.2C4155.39,-634.89 4293.92,-698.93 4380.78,-739.07"/>
<polygon fill="black" stroke="black" points="4379.51,-742.35 4390.06,-743.36 4382.45,-735.99 4379.51,-742.35"/>
</g>
<!-- b27 -->
<g id="node28" class="node">
<title>b27</title>
<polygon fill="gold" stroke="black" points="4577,-461 4342,-461 4342,-409 4577,-409 4577,-461"/>
<text text-anchor="middle" x="4459.5" y="-449" font-family="Helvetica" font-size="10.00">B27</text>
<text text-anchor="middle" x="4459.5" y="-438" font-family="Helvetica" font-size="10.00">Loop: L3</text>
<text text-anchor="middle" x="4459.5" y="-427" font-family="Helvetica" font-size="10.00">&#45;&#45;&#45;</text>
<text text-anchor="middle" x="4459.5" y="-416" font-family="Helvetica" font-size="10.00">HotSpotMethod&lt;LoopBenchmarks.main(String[])&gt;</text>
</g>
<!-- b20&#45;&gt;b27 -->
<g id="edge29" class="edge">
<title>b20&#45;&gt;b27</title>
<path fill="none" stroke="black" d="M4103.95,-546.96C4178.67,-523.37 4288.64,-488.64 4366.25,-464.13"/>
<polygon fill="black" stroke="black" points="4367.55,-467.39 4376.03,-461.04 4365.44,-460.72 4367.55,-467.39"/>
</g>
<!-- b22 -->
<g id="node23" class="node">
<title>b22</title>
<polygon fill="violet" stroke="black" points="5064,-822.5 4733,-822.5 4733,-759.5 5064,-759.5 5064,-822.5"/>
<text text-anchor="middle" x="4898.5" y="-810.5" font-family="Helvetica" font-size="10.00">B22</text>
<text text-anchor="middle" x="4898.5" y="-799.5" font-family="Helvetica" font-size="10.00">Loop: L5</text>
<text text-anchor="middle" x="4898.5" y="-788.5" font-family="Helvetica" font-size="10.00">&#45;&#45;&#45;</text>
<text text-anchor="middle" x="4898.5" y="-777.5" font-family="Helvetica" font-size="10.00">HotSpotMethod&lt;LoopBenchmarks.mandelbrotLoop(double, double, int)&gt;</text>
<text text-anchor="middle" x="4898.5" y="-766.5" font-family="Helvetica" font-size="10.00">HotSpotMethod&lt;LoopBenchmarks.main(String[])&gt;</text>
</g>
<!-- b21&#45;&gt;b22 -->
<g id="edge30" class="edge">
<title>b21&#45;&gt;b22</title>
<path fill="none" stroke="black" d="M4625.09,-781.03C4656.85,-782.19 4690.24,-783.41 4722.33,-784.59"/>
<polygon fill="black" stroke="black" points="4722.58,-788.1 4732.7,-784.97 4722.83,-781.1 4722.58,-788.1"/>
</g>
<!-- b23 -->
<g id="node24" class="node">
<title>b23</title>
<polygon fill="violet" stroke="black" points="5503,-731 5172,-731 5172,-679 5503,-679 5503,-731"/>
<text text-anchor="middle" x="5337.5" y="-719" font-family="Helvetica" font-size="10.00">B23</text>
<text text-anchor="middle" x="5337.5" y="-708" font-family="Helvetica" font-size="10.00">Loop: L5</text>
<text text-anchor="middle" x="5337.5" y="-697" font-family="Helvetica" font-size="10.00">&#45;&#45;&#45;</text>
<text text-anchor="middle" x="5337.5" y="-686" font-family="Helvetica" font-size="10.00">HotSpotMethod&lt;LoopBenchmarks.mandelbrotLoop(double, double, int)&gt;</text>
</g>
<!-- b22&#45;&gt;b23 -->
<g id="edge31" class="edge">
<title>b22&#45;&gt;b23</title>
<path fill="none" stroke="black" d="M5059.74,-759.47C5103.81,-750.79 5151.29,-741.45 5194.27,-732.99"/>
<polygon fill="black" stroke="black" points="5195.09,-736.4 5204.22,-731.03 5193.74,-729.53 5195.09,-736.4"/>
</g>
<!-- b26 -->
<g id="node27" class="node">
<title>b26</title>
<polygon fill="orange" stroke="black" points="5503,-1012.5 5172,-1012.5 5172,-949.5 5503,-949.5 5503,-1012.5"/>
<text text-anchor="middle" x="5337.5" y="-1000.5" font-family="Helvetica" font-size="10.00">B26</text>
<text text-anchor="middle" x="5337.5" y="-989.5" font-family="Helvetica" font-size="10.00">Loop: L4</text>
<text text-anchor="middle" x="5337.5" y="-978.5" font-family="Helvetica" font-size="10.00">&#45;&#45;&#45;</text>
<text text-anchor="middle" x="5337.5" y="-967.5" font-family="Helvetica" font-size="10.00">HotSpotMethod&lt;LoopBenchmarks.mandelbrotLoop(double, double, int)&gt;</text>
<text text-anchor="middle" x="5337.5" y="-956.5" font-family="Helvetica" font-size="10.00">HotSpotMethod&lt;LoopBenchmarks.main(String[])&gt;</text>
</g>
<!-- b22&#45;&gt;b26 -->
<g id="edge32" class="edge">
<title>b22&#45;&gt;b26</title>
<path fill="none" stroke="black" d="M4972.15,-822.59C5050.09,-856.47 5173.59,-910.17 5254.84,-945.49"/>
<polygon fill="black" stroke="black" points="5253.47,-948.72 5264.04,-949.49 5256.26,-942.3 5253.47,-948.72"/>
</g>
<!-- b24 -->
<g id="node25" class="node">
<title>b24</title>
<polygon fill="violet" stroke="black" points="5942,-798 5611,-798 5611,-746 5942,-746 5942,-798"/>
<text text-anchor="middle" x="5776.5" y="-786" font-family="Helvetica" font-size="10.00">B24</text>
<text text-anchor="middle" x="5776.5" y="-775" font-family="Helvetica" font-size="10.00">Loop: L5</text>
<text text-anchor="middle" x="5776.5" y="-764" font-family="Helvetica" font-size="10.00">&#45;&#45;&#45;</text>
<text text-anchor="middle" x="5776.5" y="-753" font-family="Helvetica" font-size="10.00">HotSpotMethod&lt;LoopBenchmarks.mandelbrotLoop(double, double, int)&gt;</text>
</g>
<!-- b23&#45;&gt;b24 -->
<g id="edge33" class="edge">
<title>b23&#45;&gt;b24</title>
<path fill="none" stroke="black" d="M5503.09,-730.23C5534.99,-735.13 5568.53,-740.27 5600.74,-745.21"/>
<polygon fill="black" stroke="black" points="5600.28,-748.68 5610.7,-746.73 5601.34,-741.76 5600.28,-748.68"/>
</g>
<!-- b25 -->
<g id="node26" class="node">
<title>b25</title>
<polygon fill="orange" stroke="black" points="5942,-635 5611,-635 5611,-583 5942,-583 5942,-635"/>
<text text-anchor="middle" x="5776.5" y="-623" font-family="Helvetica" font-size="10.00">B25</text>
<text text-anchor="middle" x="5776.5" y="-612" font-family="Helvetica" font-size="10.00">Loop: L4</text>
<text text-anchor="middle" x="5776.5" y="-601" font-family="Helvetica" font-size="10.00">&#45;&#45;&#45;</text>
<text text-anchor="middle" x="5776.5" y="-590" font-family="Helvetica" font-size="10.00">HotSpotMethod&lt;LoopBenchmarks.mandelbrotLoop(double, double, int)&gt;</text>
</g>
<!-- b23&#45;&gt;b25 -->
<g id="edge34" class="edge">
<title>b23&#45;&gt;b25</title>
<path fill="none" stroke="black" d="M5457.05,-678.96C5515.83,-666.04 5586.91,-650.43 5646.99,-637.23"/>
<polygon fill="black" stroke="black" points="5647.9,-640.61 5656.92,-635.05 5646.4,-633.78 5647.9,-640.61"/>
</g>
<!-- b24&#45;&gt;b22 -->
<g id="edge35" class="edge">
<title>b24&#45;&gt;b22</title>
<path fill="none" stroke="black" d="M5610.63,-775.58C5457.54,-778.9 5230.36,-783.82 5074.19,-787.21"/>
<polygon fill="black" stroke="black" points="5073.93,-783.72 5064.01,-787.43 5074.09,-790.71 5073.93,-783.72"/>
</g>
<!-- b25&#45;&gt;b20 -->
<g id="edge36" class="edge">
<title>b25&#45;&gt;b20</title>
<path fill="none" stroke="black" d="M5610.83,-605.62C5263.16,-598.48 4460.63,-582.01 4148.72,-575.61"/>
<polygon fill="black" stroke="black" points="4148.35,-572.1 4138.28,-575.4 4148.21,-579.1 4148.35,-572.1"/>
</g>
<!-- b26&#45;&gt;b20 -->
<g id="edge37" class="edge">
<title>b26&#45;&gt;b20</title>
<path fill="none" stroke="black" d="M5171.95,-993.28C4957.11,-1002.01 4575.36,-991.94 4294,-843 4230.29,-809.28 4236.78,-773.16 4186,-722 4144.66,-680.35 4094.29,-635.53 4060.26,-606.04"/>
<polygon fill="black" stroke="black" points="4062.26,-603.15 4052.41,-599.26 4057.69,-608.44 4062.26,-603.15"/>
</g>
<!-- b27&#45;&gt;b18 -->
<g id="edge38" class="edge">
<title>b27&#45;&gt;b18</title>
<path fill="none" stroke="black" d="M4341.59,-441.58C4095.31,-455.44 3524.88,-487.54 3270.23,-501.87"/>
<polygon fill="black" stroke="black" points="3269.99,-498.38 3260.2,-502.43 3270.38,-505.37 3269.99,-498.38"/>
</g>
<!-- b29 -->
<g id="node30" class="node">
<title>b29</title>
<polygon fill="khaki" stroke="black" points="4138,-259 3903,-259 3903,-207 4138,-207 4138,-259"/>
<text text-anchor="middle" x="4020.5" y="-247" font-family="Helvetica" font-size="10.00">B29</text>
<text text-anchor="middle" x="4020.5" y="-236" font-family="Helvetica" font-size="10.00">Loop: L6</text>
<text text-anchor="middle" x="4020.5" y="-225" font-family="Helvetica" font-size="10.00">&#45;&#45;&#45;</text>
<text text-anchor="middle" x="4020.5" y="-214" font-family="Helvetica" font-size="10.00">HotSpotMethod&lt;LoopBenchmarks.main(String[])&gt;</text>
</g>
<!-- b28&#45;&gt;b29 -->
<g id="edge39" class="edge">
<title>b28&#45;&gt;b29</title>
<path fill="none" stroke="black" d="M3699.03,-256.47C3758.79,-252.09 3831.66,-246.75 3892.81,-242.28"/>
<polygon fill="black" stroke="black" points="3893.19,-245.76 3902.91,-241.54 3892.68,-238.78 3893.19,-245.76"/>
</g>
<!-- b30 -->
<g id="node31" class="node">
<title>b30</title>
<polygon fill="khaki" stroke="black" points="4577,-191 4342,-191 4342,-139 4577,-139 4577,-191"/>
<text text-anchor="middle" x="4459.5" y="-179" font-family="Helvetica" font-size="10.00">B30</text>
<text text-anchor="middle" x="4459.5" y="-168" font-family="Helvetica" font-size="10.00">Loop: L6</text>
<text text-anchor="middle" x="4459.5" y="-157" font-family="Helvetica" font-size="10.00">&#45;&#45;&#45;</text>
<text text-anchor="middle" x="4459.5" y="-146" font-family="Helvetica" font-size="10.00">HotSpotMethod&lt;LoopBenchmarks.main(String[])&gt;</text>
</g>
<!-- b29&#45;&gt;b30 -->
<g id="edge40" class="edge">
<title>b29&#45;&gt;b30</title>
<path fill="none" stroke="black" d="M4138.03,-214.87C4197.79,-205.57 4270.66,-194.23 4331.81,-184.71"/>
<polygon fill="black" stroke="black" points="4332.57,-188.14 4341.91,-183.14 4331.49,-181.22 4332.57,-188.14"/>
</g>
<!-- b42 -->
<g id="node43" class="node">
<title>b42</title>
<polygon fill="white" stroke="black" points="4577,-67 4342,-67 4342,-15 4577,-15 4577,-67"/>
<text text-anchor="middle" x="4459.5" y="-55" font-family="Helvetica" font-size="10.00">B42</text>
<text text-anchor="middle" x="4459.5" y="-44" font-family="Helvetica" font-size="10.00">Loop: &lt;none&gt;</text>
<text text-anchor="middle" x="4459.5" y="-33" font-family="Helvetica" font-size="10.00">&#45;&#45;&#45;</text>
<text text-anchor="middle" x="4459.5" y="-22" font-family="Helvetica" font-size="10.00">HotSpotMethod&lt;LoopBenchmarks.main(String[])&gt;</text>
</g>
<!-- b29&#45;&gt;b42 -->
<g id="edge41" class="edge">
<title>b29&#45;&gt;b42</title>
<path fill="none" stroke="black" d="M4072.89,-206.88C4127.23,-179.64 4215.76,-136.34 4294,-103 4320.38,-91.76 4349.56,-80.42 4375.92,-70.56"/>
<polygon fill="black" stroke="black" points="4377.35,-73.77 4385.5,-67 4374.91,-67.21 4377.35,-73.77"/>
</g>
<!-- b31 -->
<g id="node32" class="node">
<title>b31</title>
<polygon fill="plum" stroke="black" points="5016,-191 4781,-191 4781,-139 5016,-139 5016,-191"/>
<text text-anchor="middle" x="4898.5" y="-179" font-family="Helvetica" font-size="10.00">B31</text>
<text text-anchor="middle" x="4898.5" y="-168" font-family="Helvetica" font-size="10.00">Loop: L7</text>
<text text-anchor="middle" x="4898.5" y="-157" font-family="Helvetica" font-size="10.00">&#45;&#45;&#45;</text>
<text text-anchor="middle" x="4898.5" y="-146" font-family="Helvetica" font-size="10.00">HotSpotMethod&lt;LoopBenchmarks.main(String[])&gt;</text>
</g>
<!-- b30&#45;&gt;b31 -->
<g id="edge42" class="edge">
<title>b30&#45;&gt;b31</title>
<path fill="none" stroke="black" d="M4577.03,-165C4636.79,-165 4709.66,-165 4770.81,-165"/>
<polygon fill="black" stroke="black" points="4770.91,-168.5 4780.91,-165 4770.91,-161.5 4770.91,-168.5"/>
</g>
<!-- b32 -->
<g id="node33" class="node">
<title>b32</title>
<polygon fill="plum" stroke="black" points="5503,-198.5 5172,-198.5 5172,-135.5 5503,-135.5 5503,-198.5"/>
<text text-anchor="middle" x="5337.5" y="-186.5" font-family="Helvetica" font-size="10.00">B32</text>
<text text-anchor="middle" x="5337.5" y="-175.5" font-family="Helvetica" font-size="10.00">Loop: L7</text>
<text text-anchor="middle" x="5337.5" y="-164.5" font-family="Helvetica" font-size="10.00">&#45;&#45;&#45;</text>
<text text-anchor="middle" x="5337.5" y="-153.5" font-family="Helvetica" font-size="10.00">HotSpotMethod&lt;LoopBenchmarks.main(String[])&gt;</text>
<text text-anchor="middle" x="5337.5" y="-142.5" font-family="Helvetica" font-size="10.00">HotSpotMethod&lt;LoopBenchmarks.mandelbrotLoop(double, double, int)&gt;</text>
</g>
<!-- b31&#45;&gt;b32 -->
<g id="edge43" class="edge">
<title>b31&#45;&gt;b32</title>
<path fill="none" stroke="black" d="M5016.03,-165.53C5060.74,-165.74 5112.79,-165.98 5161.78,-166.2"/>
<polygon fill="black" stroke="black" points="5161.84,-169.7 5171.85,-166.25 5161.87,-162.7 5161.84,-169.7"/>
</g>
<!-- b41 -->
<g id="node42" class="node">
<title>b41</title>
<polygon fill="khaki" stroke="black" points="5455,-325 5220,-325 5220,-273 5455,-273 5455,-325"/>
<text text-anchor="middle" x="5337.5" y="-313" font-family="Helvetica" font-size="10.00">B41</text>
<text text-anchor="middle" x="5337.5" y="-302" font-family="Helvetica" font-size="10.00">Loop: L6</text>
<text text-anchor="middle" x="5337.5" y="-291" font-family="Helvetica" font-size="10.00">&#45;&#45;&#45;</text>
<text text-anchor="middle" x="5337.5" y="-280" font-family="Helvetica" font-size="10.00">HotSpotMethod&lt;LoopBenchmarks.main(String[])&gt;</text>
</g>
<!-- b31&#45;&gt;b41 -->
<g id="edge44" class="edge">
<title>b31&#45;&gt;b41</title>
<path fill="none" stroke="black" d="M4984.54,-191.08C5058.47,-213.75 5165.45,-246.55 5242.04,-270.03"/>
<polygon fill="black" stroke="black" points="5241.1,-273.41 5251.69,-272.99 5243.16,-266.72 5241.1,-273.41"/>
</g>
<!-- b33 -->
<g id="node34" class="node">
<title>b33</title>
<polygon fill="lightcyan" stroke="black" points="5894,-193 5659,-193 5659,-141 5894,-141 5894,-193"/>
<text text-anchor="middle" x="5776.5" y="-181" font-family="Helvetica" font-size="10.00">B33</text>
<text text-anchor="middle" x="5776.5" y="-170" font-family="Helvetica" font-size="10.00">Loop: L8</text>
<text text-anchor="middle" x="5776.5" y="-159" font-family="Helvetica" font-size="10.00">&#45;&#45;&#45;</text>
<text text-anchor="middle" x="5776.5" y="-148" font-family="Helvetica" font-size="10.00">HotSpotMethod&lt;LoopBenchmarks.main(String[])&gt;</text>
</g>
<!-- b32&#45;&gt;b33 -->
<g id="edge45" class="edge">
<title>b32&#45;&gt;b33</title>
<path fill="none" stroke="black" d="M5503.09,-167C5551.22,-167 5603.08,-167 5648.5,-167"/>
<polygon fill="black" stroke="black" points="5648.69,-170.5 5658.69,-167 5648.69,-163.5 5648.69,-170.5"/>
</g>
<!-- b34 -->
<g id="node35" class="node">
<title>b34</title>
<polygon fill="lightcyan" stroke="black" points="6381,-397.5 6050,-397.5 6050,-334.5 6381,-334.5 6381,-397.5"/>
<text text-anchor="middle" x="6215.5" y="-385.5" font-family="Helvetica" font-size="10.00">B34</text>
<text text-anchor="middle" x="6215.5" y="-374.5" font-family="Helvetica" font-size="10.00">Loop: L8</text>
<text text-anchor="middle" x="6215.5" y="-363.5" font-family="Helvetica" font-size="10.00">&#45;&#45;&#45;</text>
<text text-anchor="middle" x="6215.5" y="-352.5" font-family="Helvetica" font-size="10.00">HotSpotMethod&lt;LoopBenchmarks.main(String[])&gt;</text>
<text text-anchor="middle" x="6215.5" y="-341.5" font-family="Helvetica" font-size="10.00">HotSpotMethod&lt;LoopBenchmarks.mandelbrotLoop(double, double, int)&gt;</text>
</g>
<!-- b33&#45;&gt;b34 -->
<g id="edge46" class="edge">
<title>b33&#45;&gt;b34</title>
<path fill="none" stroke="black" d="M5834.63,-193.02C5911.64,-228.09 6049.08,-290.67 6135.82,-330.17"/>
<polygon fill="black" stroke="black" points="6134.55,-333.44 6145.1,-334.4 6137.45,-327.07 6134.55,-333.44"/>
</g>
<!-- b40 -->
<g id="node41" class="node">
<title>b40</title>
<polygon fill="plum" stroke="black" points="6333,-52 6098,-52 6098,0 6333,0 6333,-52"/>
<text text-anchor="middle" x="6215.5" y="-40" font-family="Helvetica" font-size="10.00">B40</text>
<text text-anchor="middle" x="6215.5" y="-29" font-family="Helvetica" font-size="10.00">Loop: L7</text>
<text text-anchor="middle" x="6215.5" y="-18" font-family="Helvetica" font-size="10.00">&#45;&#45;&#45;</text>
<text text-anchor="middle" x="6215.5" y="-7" font-family="Helvetica" font-size="10.00">HotSpotMethod&lt;LoopBenchmarks.main(String[])&gt;</text>
</g>
<!-- b33&#45;&gt;b40 -->
<g id="edge47" class="edge">
<title>b33&#45;&gt;b40</title>
<path fill="none" stroke="black" d="M5858.16,-140.97C5933.37,-116.71 6045.4,-80.56 6123.71,-55.29"/>
<polygon fill="black" stroke="black" points="6125.13,-58.51 6133.57,-52.11 6122.98,-51.85 6125.13,-58.51"/>
</g>
<!-- b35 -->
<g id="node36" class="node">
<title>b35</title>
<polygon fill="lightcoral" stroke="black" points="6820,-413.5 6489,-413.5 6489,-350.5 6820,-350.5 6820,-413.5"/>
<text text-anchor="middle" x="6654.5" y="-401.5" font-family="Helvetica" font-size="10.00">B35</text>
<text text-anchor="middle" x="6654.5" y="-390.5" font-family="Helvetica" font-size="10.00">Loop: L9</text>
<text text-anchor="middle" x="6654.5" y="-379.5" font-family="Helvetica" font-size="10.00">&#45;&#45;&#45;</text>
<text text-anchor="middle" x="6654.5" y="-368.5" font-family="Helvetica" font-size="10.00">HotSpotMethod&lt;LoopBenchmarks.mandelbrotLoop(double, double, int)&gt;</text>
<text text-anchor="middle" x="6654.5" y="-357.5" font-family="Helvetica" font-size="10.00">HotSpotMethod&lt;LoopBenchmarks.main(String[])&gt;</text>
</g>
<!-- b34&#45;&gt;b35 -->
<g id="edge48" class="edge">
<title>b34&#45;&gt;b35</title>
<path fill="none" stroke="black" d="M6381.09,-372.03C6412.85,-373.19 6446.24,-374.41 6478.33,-375.59"/>
<polygon fill="black" stroke="black" points="6478.58,-379.1 6488.7,-375.97 6478.83,-372.1 6478.58,-379.1"/>
</g>
<!-- b36 -->
<g id="node37" class="node">
<title>b36</title>
<polygon fill="lightcoral" stroke="black" points="7259,-322 6928,-322 6928,-270 7259,-270 7259,-322"/>
<text text-anchor="middle" x="7093.5" y="-310" font-family="Helvetica" font-size="10.00">B36</text>
<text text-anchor="middle" x="7093.5" y="-299" font-family="Helvetica" font-size="10.00">Loop: L9</text>
<text text-anchor="middle" x="7093.5" y="-288" font-family="Helvetica" font-size="10.00">&#45;&#45;&#45;</text>
<text text-anchor="middle" x="7093.5" y="-277" font-family="Helvetica" font-size="10.00">HotSpotMethod&lt;LoopBenchmarks.mandelbrotLoop(double, double, int)&gt;</text>
</g>
<!-- b35&#45;&gt;b36 -->
<g id="edge49" class="edge">
<title>b35&#45;&gt;b36</title>
<path fill="none" stroke="black" d="M6815.74,-350.47C6859.81,-341.79 6907.29,-332.45 6950.27,-323.99"/>
<polygon fill="black" stroke="black" points="6951.09,-327.4 6960.22,-322.03 6949.74,-320.53 6951.09,-327.4"/>
</g>
<!-- b39 -->
<g id="node40" class="node">
<title>b39</title>
<polygon fill="lightcyan" stroke="black" points="7259,-603.5 6928,-603.5 6928,-540.5 7259,-540.5 7259,-603.5"/>
<text text-anchor="middle" x="7093.5" y="-591.5" font-family="Helvetica" font-size="10.00">B39</text>
<text text-anchor="middle" x="7093.5" y="-580.5" font-family="Helvetica" font-size="10.00">Loop: L8</text>
<text text-anchor="middle" x="7093.5" y="-569.5" font-family="Helvetica" font-size="10.00">&#45;&#45;&#45;</text>
<text text-anchor="middle" x="7093.5" y="-558.5" font-family="Helvetica" font-size="10.00">HotSpotMethod&lt;LoopBenchmarks.mandelbrotLoop(double, double, int)&gt;</text>
<text text-anchor="middle" x="7093.5" y="-547.5" font-family="Helvetica" font-size="10.00">HotSpotMethod&lt;LoopBenchmarks.main(String[])&gt;</text>
</g>
<!-- b35&#45;&gt;b39 -->
<g id="edge50" class="edge">
<title>b35&#45;&gt;b39</title>
<path fill="none" stroke="black" d="M6728.15,-413.59C6806.09,-447.47 6929.59,-501.17 7010.84,-536.49"/>
<polygon fill="black" stroke="black" points="7009.47,-539.72 7020.04,-540.49 7012.26,-533.3 7009.47,-539.72"/>
</g>
<!-- b37 -->
<g id="node38" class="node">
<title>b37</title>
<polygon fill="lightcoral" stroke="black" points="7698,-386 7367,-386 7367,-334 7698,-334 7698,-386"/>
<text text-anchor="middle" x="7532.5" y="-374" font-family="Helvetica" font-size="10.00">B37</text>
<text text-anchor="middle" x="7532.5" y="-363" font-family="Helvetica" font-size="10.00">Loop: L9</text>
<text text-anchor="middle" x="7532.5" y="-352" font-family="Helvetica" font-size="10.00">&#45;&#45;&#45;</text>
<text text-anchor="middle" x="7532.5" y="-341" font-family="Helvetica" font-size="10.00">HotSpotMethod&lt;LoopBenchmarks.mandelbrotLoop(double, double, int)&gt;</text>
</g>
<!-- b36&#45;&gt;b37 -->
<g id="edge51" class="edge">
<title>b36&#45;&gt;b37</title>
<path fill="none" stroke="black" d="M7259.09,-320.1C7290.99,-324.78 7324.53,-329.69 7356.74,-334.41"/>
<polygon fill="black" stroke="black" points="7356.3,-337.88 7366.7,-335.86 7357.31,-330.95 7356.3,-337.88"/>
</g>
<!-- b38 -->
<g id="node39" class="node">
<title>b38</title>
<polygon fill="lightcyan" stroke="black" points="7698,-257 7367,-257 7367,-205 7698,-205 7698,-257"/>
<text text-anchor="middle" x="7532.5" y="-245" font-family="Helvetica" font-size="10.00">B38</text>
<text text-anchor="middle" x="7532.5" y="-234" font-family="Helvetica" font-size="10.00">Loop: L8</text>
<text text-anchor="middle" x="7532.5" y="-223" font-family="Helvetica" font-size="10.00">&#45;&#45;&#45;</text>
<text text-anchor="middle" x="7532.5" y="-212" font-family="Helvetica" font-size="10.00">HotSpotMethod&lt;LoopBenchmarks.mandelbrotLoop(double, double, int)&gt;</text>
</g>
<!-- b36&#45;&gt;b38 -->
<g id="edge52" class="edge">
<title>b36&#45;&gt;b38</title>
<path fill="none" stroke="black" d="M7259.09,-271.52C7290.99,-266.77 7324.53,-261.79 7356.74,-256.99"/>
<polygon fill="black" stroke="black" points="7357.32,-260.45 7366.7,-255.51 7356.29,-253.52 7357.32,-260.45"/>
</g>
<!-- b37&#45;&gt;b35 -->
<g id="edge53" class="edge">
<title>b37&#45;&gt;b35</title>
<path fill="none" stroke="black" d="M7366.63,-364.14C7213.54,-367.99 6986.36,-373.69 6830.19,-377.61"/>
<polygon fill="black" stroke="black" points="6829.92,-374.12 6820.01,-377.87 6830.1,-381.12 6829.92,-374.12"/>
</g>
<!-- b38&#45;&gt;b33 -->
<g id="edge54" class="edge">
<title>b38&#45;&gt;b33</title>
<path fill="none" stroke="black" d="M7366.83,-224.99C7019.16,-212.31 6216.63,-183.02 5904.72,-171.64"/>
<polygon fill="black" stroke="black" points="5904.4,-168.13 5894.28,-171.26 5904.15,-175.12 5904.4,-168.13"/>
</g>
<!-- b39&#45;&gt;b33 -->
<g id="edge55" class="edge">
<title>b39&#45;&gt;b33</title>
<path fill="none" stroke="black" d="M6927.61,-581.16C6714.07,-586.26 6335.47,-571.93 6050,-433 5938.1,-378.54 5843.42,-260.35 5801.15,-201.59"/>
<polygon fill="black" stroke="black" points="5803.94,-199.49 5795.29,-193.37 5798.24,-203.55 5803.94,-199.49"/>
</g>
<!-- b40&#45;&gt;b31 -->
<g id="edge56" class="edge">
<title>b40&#45;&gt;b31</title>
<path fill="none" stroke="black" d="M6097.7,-27.8C5904.17,-32.22 5505.26,-47.35 5172,-99 5114.38,-107.93 5051.03,-122.95 4999.92,-136.41"/>
<polygon fill="black" stroke="black" points="4998.96,-133.04 4990.19,-138.99 5000.75,-139.81 4998.96,-133.04"/>
</g>
<!-- b41&#45;&gt;b29 -->
<g id="edge57" class="edge">
<title>b41&#45;&gt;b29</title>
<path fill="none" stroke="black" d="M5219.59,-293.13C4973.31,-280.77 4402.88,-252.14 4148.23,-239.36"/>
<polygon fill="black" stroke="black" points="4148.36,-235.86 4138.2,-238.86 4148.01,-242.85 4148.36,-235.86"/>
</g>
</g>
</svg>
