<?xml version="1.0" encoding="UTF-8" standalone="no"?>
<!DOCTYPE svg PUBLIC "-//W3C//DTD SVG 1.1//EN"
 "http://www.w3.org/Graphics/SVG/1.1/DTD/svg11.dtd">
<!-- Generated by graphviz version 2.44.0 (0)
 -->
<!-- Title: CFG_100 Pages: 1 -->
<svg width="4983pt" height="834pt"
 viewBox="0.00 0.00 4983.00 834.00" xmlns="http://www.w3.org/2000/svg" xmlns:xlink="http://www.w3.org/1999/xlink">
<g id="graph0" class="graph" transform="scale(1 1) rotate(0) translate(4 830)">
<title>CFG_100</title>
<polygon fill="white" stroke="transparent" points="-4,4 -4,-830 4979,-830 4979,4 -4,4"/>
<text text-anchor="middle" x="242.5" y="-806" font-family="Times-Roman" font-size="20.00">157&#45;LoopBenchmarks.sieveLoop(boolean[], int)</text>
<!-- b0 -->
<g id="node1" class="node">
<title>b0</title>
<polygon fill="white" stroke="black" points="283,-243 0,-243 0,-191 283,-191 283,-243"/>
<text text-anchor="middle" x="141.5" y="-231" font-family="Helvetica" font-size="10.00">B0</text>
<text text-anchor="middle" x="141.5" y="-220" font-family="Helvetica" font-size="10.00">Loop: &lt;none&gt;</text>
<text text-anchor="middle" x="141.5" y="-209" font-family="Helvetica" font-size="10.00">&#45;&#45;&#45;</text>
<text text-anchor="middle" x="141.5" y="-198" font-family="Helvetica" font-size="10.00">HotSpotMethod&lt;LoopBenchmarks.sieveLoop(boolean[], int)&gt;</text>
</g>
<!-- b1 -->
<g id="node2" class="node">
<title>b1</title>
<polygon fill="white" stroke="black" points="674,-305 391,-305 391,-253 674,-253 674,-305"/>
<text text-anchor="middle" x="532.5" y="-293" font-family="Helvetica" font-size="10.00">B1</text>
<text text-anchor="middle" x="532.5" y="-282" font-family="Helvetica" font-size="10.00">Loop: &lt;none&gt;</text>
<text text-anchor="middle" x="532.5" y="-271" font-family="Helvetica" font-size="10.00">&#45;&#45;&#45;</text>
<text text-anchor="middle" x="532.5" y="-260" font-family="Helvetica" font-size="10.00">HotSpotMethod&lt;LoopBenchmarks.sieveLoop(boolean[], int)&gt;</text>
</g>
<!-- b0&#45;&gt;b1 -->
<g id="edge1" class="edge">
<title>b0&#45;&gt;b1</title>
<path fill="none" stroke="black" d="M283.21,-239.43C314.95,-244.49 348.76,-249.88 380.89,-255"/>
<polygon fill="black" stroke="black" points="380.38,-258.46 390.8,-256.58 381.48,-251.54 380.38,-258.46"/>
</g>
<!-- b2 -->
<g id="node3" class="node">
<title>b2</title>
<polygon fill="white" stroke="black" points="674,-181 391,-181 391,-129 674,-129 674,-181"/>
<text text-anchor="middle" x="532.5" y="-169" font-family="Helvetica" font-size="10.00">B2</text>
<text text-anchor="middle" x="532.5" y="-158" font-family="Helvetica" font-size="10.00">Loop: &lt;none&gt;</text>
<text text-anchor="middle" x="532.5" y="-147" font-family="Helvetica" font-size="10.00">&#45;&#45;&#45;</text>
<text text-anchor="middle" x="532.5" y="-136" font-family="Helvetica" font-size="10.00">HotSpotMethod&lt;LoopBenchmarks.sieveLoop(boolean[], int)&gt;</text>
</g>
<!-- b0&#45;&gt;b2 -->
<g id="edge2" class="edge">
<title>b0&#45;&gt;b2</title>
<path fill="none" stroke="black" d="M283.21,-194.57C314.95,-189.51 348.76,-184.12 380.89,-179"/>
<polygon fill="black" stroke="black" points="381.48,-182.46 390.8,-177.42 380.38,-175.54 381.48,-182.46"/>
</g>
<!-- b3 -->
<g id="node4" class="node">
<title>b3</title>
<polygon fill="white" stroke="black" points="1065,-243 782,-243 782,-191 1065,-191 1065,-243"/>
<text text-anchor="middle" x="923.5" y="-231" font-family="Helvetica" font-size="10.00">B3</text>
<text text-anchor="middle" x="923.5" y="-220" font-family="Helvetica" font-size="10.00">Loop: &lt;none&gt;</text>
<text text-anchor="middle" x="923.5" y="-209" font-family="Helvetica" font-size="10.00">&#45;&#45;&#45;</text>
<text text-anchor="middle" x="923.5" y="-198" font-family="Helvetica" font-size="10.00">HotSpotMethod&lt;LoopBenchmarks.sieveLoop(boolean[], int)&gt;</text>
</g>
<!-- b1&#45;&gt;b3 -->
<g id="edge3" class="edge">
<title>b1&#45;&gt;b3</title>
<path fill="none" stroke="black" d="M674.21,-256.57C705.95,-251.51 739.76,-246.12 771.89,-241"/>
<polygon fill="black" stroke="black" points="772.48,-244.46 781.8,-239.42 771.38,-237.54 772.48,-244.46"/>
</g>
<!-- b2&#45;&gt;b3 -->
<g id="edge4" class="edge">
<title>b2&#45;&gt;b3</title>
<path fill="none" stroke="black" d="M674.21,-177.43C705.95,-182.49 739.76,-187.88 771.89,-193"/>
<polygon fill="black" stroke="black" points="771.38,-196.46 781.8,-194.58 772.48,-189.54 771.38,-196.46"/>
</g>
<!-- b5 -->
<g id="node6" class="node">
<title>b5</title>
<polygon fill="white" stroke="black" points="1456,-52 1173,-52 1173,0 1456,0 1456,-52"/>
<text text-anchor="middle" x="1314.5" y="-40" font-family="Helvetica" font-size="10.00">B5</text>
<text text-anchor="middle" x="1314.5" y="-29" font-family="Helvetica" font-size="10.00">Loop: &lt;none&gt;</text>
<text text-anchor="middle" x="1314.5" y="-18" font-family="Helvetica" font-size="10.00">&#45;&#45;&#45;</text>
<text text-anchor="middle" x="1314.5" y="-7" font-family="Helvetica" font-size="10.00">HotSpotMethod&lt;LoopBenchmarks.sieveLoop(boolean[], int)&gt;</text>
</g>
<!-- b3&#45;&gt;b5 -->
<g id="edge6" class="edge">
<title>b3&#45;&gt;b5</title>
<path fill="none" stroke="black" d="M972.61,-190.87C1022.34,-164.14 1102.44,-121.84 1173,-88 1195.51,-77.21 1220.34,-66.01 1242.8,-56.16"/>
<polygon fill="black" stroke="black" points="1244.5,-59.24 1252.26,-52.02 1241.69,-52.82 1244.5,-59.24"/>
</g>
<!-- b7 -->
<g id="node8" class="node">
<title>b7</title>
<polygon fill="white" stroke="black" points="1847,-254 1564,-254 1564,-202 1847,-202 1847,-254"/>
<text text-anchor="middle" x="1705.5" y="-242" font-family="Helvetica" font-size="10.00">B7</text>
<text text-anchor="middle" x="1705.5" y="-231" font-family="Helvetica" font-size="10.00">Loop: &lt;none&gt;</text>
<text text-anchor="middle" x="1705.5" y="-220" font-family="Helvetica" font-size="10.00">&#45;&#45;&#45;</text>
<text text-anchor="middle" x="1705.5" y="-209" font-family="Helvetica" font-size="10.00">HotSpotMethod&lt;LoopBenchmarks.sieveLoop(boolean[], int)&gt;</text>
</g>
<!-- b3&#45;&gt;b7 -->
<g id="edge5" class="edge">
<title>b3&#45;&gt;b7</title>
<path fill="none" stroke="black" d="M964.62,-243.21C1012.1,-272.52 1094.63,-318.2 1173,-336 1295.65,-363.85 1332.86,-361.6 1456,-336 1526.67,-321.31 1601.91,-285.42 1650.84,-259.03"/>
<polygon fill="black" stroke="black" points="1652.56,-262.08 1659.66,-254.22 1649.21,-255.94 1652.56,-262.08"/>
</g>
<!-- b4 -->
<g id="node5" class="node">
<title>b4</title>
<polygon fill="white" stroke="black" points="1456,-300 1173,-300 1173,-248 1456,-248 1456,-300"/>
<text text-anchor="middle" x="1314.5" y="-288" font-family="Helvetica" font-size="10.00">B4</text>
<text text-anchor="middle" x="1314.5" y="-277" font-family="Helvetica" font-size="10.00">Loop: &lt;none&gt;</text>
<text text-anchor="middle" x="1314.5" y="-266" font-family="Helvetica" font-size="10.00">&#45;&#45;&#45;</text>
<text text-anchor="middle" x="1314.5" y="-255" font-family="Helvetica" font-size="10.00">HotSpotMethod&lt;LoopBenchmarks.sieveLoop(boolean[], int)&gt;</text>
</g>
<!-- b4&#45;&gt;b7 -->
<g id="edge7" class="edge">
<title>b4&#45;&gt;b7</title>
<path fill="none" stroke="black" d="M1456.21,-257.36C1487.81,-253.62 1521.47,-249.64 1553.48,-245.86"/>
<polygon fill="black" stroke="black" points="1554.28,-249.29 1563.8,-244.64 1553.46,-242.34 1554.28,-249.29"/>
</g>
<!-- b5&#45;&gt;b7 -->
<g id="edge8" class="edge">
<title>b5&#45;&gt;b7</title>
<path fill="none" stroke="black" d="M1378.01,-52.03C1402.57,-62.66 1430.85,-75.4 1456,-88 1525.33,-122.73 1602.83,-167.35 1652.56,-196.78"/>
<polygon fill="black" stroke="black" points="1650.82,-199.81 1661.21,-201.9 1654.39,-193.79 1650.82,-199.81"/>
</g>
<!-- b22 -->
<g id="node23" class="node">
<title>b22</title>
<polygon fill="white" stroke="black" points="1847,-52 1564,-52 1564,0 1847,0 1847,-52"/>
<text text-anchor="middle" x="1705.5" y="-40" font-family="Helvetica" font-size="10.00">B22</text>
<text text-anchor="middle" x="1705.5" y="-29" font-family="Helvetica" font-size="10.00">Loop: &lt;none&gt;</text>
<text text-anchor="middle" x="1705.5" y="-18" font-family="Helvetica" font-size="10.00">&#45;&#45;&#45;</text>
<text text-anchor="middle" x="1705.5" y="-7" font-family="Helvetica" font-size="10.00">HotSpotMethod&lt;LoopBenchmarks.sieveLoop(boolean[], int)&gt;</text>
</g>
<!-- b5&#45;&gt;b22 -->
<g id="edge9" class="edge">
<title>b5&#45;&gt;b22</title>
<path fill="none" stroke="black" d="M1456.21,-26C1487.81,-26 1521.47,-26 1553.48,-26"/>
<polygon fill="black" stroke="black" points="1553.8,-29.5 1563.8,-26 1553.8,-22.5 1553.8,-29.5"/>
</g>
<!-- b6 -->
<g id="node7" class="node">
<title>b6</title>
<polygon fill="white" stroke="black" points="1456,-176 1173,-176 1173,-124 1456,-124 1456,-176"/>
<text text-anchor="middle" x="1314.5" y="-164" font-family="Helvetica" font-size="10.00">B6</text>
<text text-anchor="middle" x="1314.5" y="-153" font-family="Helvetica" font-size="10.00">Loop: &lt;none&gt;</text>
<text text-anchor="middle" x="1314.5" y="-142" font-family="Helvetica" font-size="10.00">&#45;&#45;&#45;</text>
<text text-anchor="middle" x="1314.5" y="-131" font-family="Helvetica" font-size="10.00">HotSpotMethod&lt;LoopBenchmarks.sieveLoop(boolean[], int)&gt;</text>
</g>
<!-- b6&#45;&gt;b7 -->
<g id="edge10" class="edge">
<title>b6&#45;&gt;b7</title>
<path fill="none" stroke="black" d="M1445.3,-176.03C1483.7,-183.73 1525.89,-192.19 1564.87,-200"/>
<polygon fill="black" stroke="black" points="1564.22,-203.44 1574.71,-201.98 1565.59,-196.58 1564.22,-203.44"/>
</g>
<!-- b8 -->
<g id="node9" class="node">
<title>b8</title>
<polygon fill="white" stroke="black" points="2238,-344 1955,-344 1955,-292 2238,-292 2238,-344"/>
<text text-anchor="middle" x="2096.5" y="-332" font-family="Helvetica" font-size="10.00">B8</text>
<text text-anchor="middle" x="2096.5" y="-321" font-family="Helvetica" font-size="10.00">Loop: &lt;none&gt;</text>
<text text-anchor="middle" x="2096.5" y="-310" font-family="Helvetica" font-size="10.00">&#45;&#45;&#45;</text>
<text text-anchor="middle" x="2096.5" y="-299" font-family="Helvetica" font-size="10.00">HotSpotMethod&lt;LoopBenchmarks.sieveLoop(boolean[], int)&gt;</text>
</g>
<!-- b7&#45;&gt;b8 -->
<g id="edge11" class="edge">
<title>b7&#45;&gt;b8</title>
<path fill="none" stroke="black" d="M1819.01,-254.03C1867.29,-265.2 1923.82,-278.28 1973.14,-289.69"/>
<polygon fill="black" stroke="black" points="1972.37,-293.1 1982.9,-291.95 1973.95,-286.28 1972.37,-293.1"/>
</g>
<!-- b21 -->
<g id="node22" class="node">
<title>b21</title>
<polygon fill="white" stroke="black" points="2238,-209 1955,-209 1955,-157 2238,-157 2238,-209"/>
<text text-anchor="middle" x="2096.5" y="-197" font-family="Helvetica" font-size="10.00">B21</text>
<text text-anchor="middle" x="2096.5" y="-186" font-family="Helvetica" font-size="10.00">Loop: &lt;none&gt;</text>
<text text-anchor="middle" x="2096.5" y="-175" font-family="Helvetica" font-size="10.00">&#45;&#45;&#45;</text>
<text text-anchor="middle" x="2096.5" y="-164" font-family="Helvetica" font-size="10.00">HotSpotMethod&lt;LoopBenchmarks.sieveLoop(boolean[], int)&gt;</text>
</g>
<!-- b7&#45;&gt;b21 -->
<g id="edge12" class="edge">
<title>b7&#45;&gt;b21</title>
<path fill="none" stroke="black" d="M1847.21,-211.72C1878.81,-208.07 1912.47,-204.17 1944.48,-200.47"/>
<polygon fill="black" stroke="black" points="1945.27,-203.9 1954.8,-199.28 1944.47,-196.95 1945.27,-203.9"/>
</g>
<!-- b9 -->
<g id="node10" class="node">
<title>b9</title>
<polygon fill="white" stroke="black" points="2629,-479 2346,-479 2346,-427 2629,-427 2629,-479"/>
<text text-anchor="middle" x="2487.5" y="-467" font-family="Helvetica" font-size="10.00">B9</text>
<text text-anchor="middle" x="2487.5" y="-456" font-family="Helvetica" font-size="10.00">Loop: &lt;none&gt;</text>
<text text-anchor="middle" x="2487.5" y="-445" font-family="Helvetica" font-size="10.00">&#45;&#45;&#45;</text>
<text text-anchor="middle" x="2487.5" y="-434" font-family="Helvetica" font-size="10.00">HotSpotMethod&lt;LoopBenchmarks.sieveLoop(boolean[], int)&gt;</text>
</g>
<!-- b8&#45;&gt;b9 -->
<g id="edge13" class="edge">
<title>b8&#45;&gt;b9</title>
<path fill="none" stroke="black" d="M2172.5,-344.03C2238.19,-366.82 2333.55,-399.92 2401.93,-423.65"/>
<polygon fill="black" stroke="black" points="2400.8,-426.96 2411.4,-426.94 2403.1,-420.35 2400.8,-426.96"/>
</g>
<!-- b20 -->
<g id="node21" class="node">
<title>b20</title>
<polygon fill="white" stroke="black" points="2629,-344 2346,-344 2346,-292 2629,-292 2629,-344"/>
<text text-anchor="middle" x="2487.5" y="-332" font-family="Helvetica" font-size="10.00">B20</text>
<text text-anchor="middle" x="2487.5" y="-321" font-family="Helvetica" font-size="10.00">Loop: &lt;none&gt;</text>
<text text-anchor="middle" x="2487.5" y="-310" font-family="Helvetica" font-size="10.00">&#45;&#45;&#45;</text>
<text text-anchor="middle" x="2487.5" y="-299" font-family="Helvetica" font-size="10.00">HotSpotMethod&lt;LoopBenchmarks.sieveLoop(boolean[], int)&gt;</text>
</g>
<!-- b8&#45;&gt;b20 -->
<g id="edge14" class="edge">
<title>b8&#45;&gt;b20</title>
<path fill="none" stroke="black" d="M2238.21,-318C2269.81,-318 2303.47,-318 2335.48,-318"/>
<polygon fill="black" stroke="black" points="2335.8,-321.5 2345.8,-318 2335.8,-314.5 2335.8,-321.5"/>
</g>
<!-- b10 -->
<g id="node11" class="node">
<title>b10</title>
<polygon fill="white" stroke="black" points="3020,-603 2737,-603 2737,-551 3020,-551 3020,-603"/>
<text text-anchor="middle" x="2878.5" y="-591" font-family="Helvetica" font-size="10.00">B10</text>
<text text-anchor="middle" x="2878.5" y="-580" font-family="Helvetica" font-size="10.00">Loop: &lt;none&gt;</text>
<text text-anchor="middle" x="2878.5" y="-569" font-family="Helvetica" font-size="10.00">&#45;&#45;&#45;</text>
<text text-anchor="middle" x="2878.5" y="-558" font-family="Helvetica" font-size="10.00">HotSpotMethod&lt;LoopBenchmarks.sieveLoop(boolean[], int)&gt;</text>
</g>
<!-- b9&#45;&gt;b10 -->
<g id="edge15" class="edge">
<title>b9&#45;&gt;b10</title>
<path fill="none" stroke="black" d="M2570.52,-479.15C2633.6,-499.25 2720.72,-527.02 2786.04,-547.85"/>
<polygon fill="black" stroke="black" points="2785.33,-551.29 2795.92,-551 2787.46,-544.62 2785.33,-551.29"/>
</g>
<!-- b19 -->
<g id="node20" class="node">
<title>b19</title>
<polygon fill="white" stroke="black" points="3020,-479 2737,-479 2737,-427 3020,-427 3020,-479"/>
<text text-anchor="middle" x="2878.5" y="-467" font-family="Helvetica" font-size="10.00">B19</text>
<text text-anchor="middle" x="2878.5" y="-456" font-family="Helvetica" font-size="10.00">Loop: &lt;none&gt;</text>
<text text-anchor="middle" x="2878.5" y="-445" font-family="Helvetica" font-size="10.00">&#45;&#45;&#45;</text>
<text text-anchor="middle" x="2878.5" y="-434" font-family="Helvetica" font-size="10.00">HotSpotMethod&lt;LoopBenchmarks.sieveLoop(boolean[], int)&gt;</text>
</g>
<!-- b9&#45;&gt;b19 -->
<g id="edge16" class="edge">
<title>b9&#45;&gt;b19</title>
<path fill="none" stroke="black" d="M2629.21,-453C2660.81,-453 2694.47,-453 2726.48,-453"/>
<polygon fill="black" stroke="black" points="2726.8,-456.5 2736.8,-453 2726.8,-449.5 2726.8,-456.5"/>
</g>
<!-- b11 -->
<g id="node12" class="node">
<title>b11</title>
<polygon fill="white" stroke="black" points="3411,-665 3128,-665 3128,-613 3411,-613 3411,-665"/>
<text text-anchor="middle" x="3269.5" y="-653" font-family="Helvetica" font-size="10.00">B11</text>
<text text-anchor="middle" x="3269.5" y="-642" font-family="Helvetica" font-size="10.00">Loop: &lt;none&gt;</text>
<text text-anchor="middle" x="3269.5" y="-631" font-family="Helvetica" font-size="10.00">&#45;&#45;&#45;</text>
<text text-anchor="middle" x="3269.5" y="-620" font-family="Helvetica" font-size="10.00">HotSpotMethod&lt;LoopBenchmarks.sieveLoop(boolean[], int)&gt;</text>
</g>
<!-- b10&#45;&gt;b11 -->
<g id="edge17" class="edge">
<title>b10&#45;&gt;b11</title>
<path fill="none" stroke="black" d="M3020.21,-599.43C3051.95,-604.49 3085.76,-609.88 3117.89,-615"/>
<polygon fill="black" stroke="black" points="3117.38,-618.46 3127.8,-616.58 3118.48,-611.54 3117.38,-618.46"/>
</g>
<!-- b18 -->
<g id="node19" class="node">
<title>b18</title>
<polygon fill="white" stroke="black" points="3411,-541 3128,-541 3128,-489 3411,-489 3411,-541"/>
<text text-anchor="middle" x="3269.5" y="-529" font-family="Helvetica" font-size="10.00">B18</text>
<text text-anchor="middle" x="3269.5" y="-518" font-family="Helvetica" font-size="10.00">Loop: &lt;none&gt;</text>
<text text-anchor="middle" x="3269.5" y="-507" font-family="Helvetica" font-size="10.00">&#45;&#45;&#45;</text>
<text text-anchor="middle" x="3269.5" y="-496" font-family="Helvetica" font-size="10.00">HotSpotMethod&lt;LoopBenchmarks.sieveLoop(boolean[], int)&gt;</text>
</g>
<!-- b10&#45;&gt;b18 -->
<g id="edge18" class="edge">
<title>b10&#45;&gt;b18</title>
<path fill="none" stroke="black" d="M3020.21,-554.57C3051.95,-549.51 3085.76,-544.12 3117.89,-539"/>
<polygon fill="black" stroke="black" points="3118.48,-542.46 3127.8,-537.42 3117.38,-535.54 3118.48,-542.46"/>
</g>
<!-- b12 -->
<g id="node13" class="node">
<title>b12</title>
<polygon fill="lightblue" stroke="black" points="3802,-665 3519,-665 3519,-613 3802,-613 3802,-665"/>
<text text-anchor="middle" x="3660.5" y="-653" font-family="Helvetica" font-size="10.00">B12</text>
<text text-anchor="middle" x="3660.5" y="-642" font-family="Helvetica" font-size="10.00">Loop: L0</text>
<text text-anchor="middle" x="3660.5" y="-631" font-family="Helvetica" font-size="10.00">&#45;&#45;&#45;</text>
<text text-anchor="middle" x="3660.5" y="-620" font-family="Helvetica" font-size="10.00">HotSpotMethod&lt;LoopBenchmarks.sieveLoop(boolean[], int)&gt;</text>
</g>
<!-- b11&#45;&gt;b12 -->
<g id="edge19" class="edge">
<title>b11&#45;&gt;b12</title>
<path fill="none" stroke="black" d="M3411.21,-639C3442.81,-639 3476.47,-639 3508.48,-639"/>
<polygon fill="black" stroke="black" points="3508.8,-642.5 3518.8,-639 3508.8,-635.5 3508.8,-642.5"/>
</g>
<!-- b13 -->
<g id="node14" class="node">
<title>b13</title>
<polygon fill="lightblue" stroke="black" points="4193,-665 3910,-665 3910,-613 4193,-613 4193,-665"/>
<text text-anchor="middle" x="4051.5" y="-653" font-family="Helvetica" font-size="10.00">B13</text>
<text text-anchor="middle" x="4051.5" y="-642" font-family="Helvetica" font-size="10.00">Loop: L0</text>
<text text-anchor="middle" x="4051.5" y="-631" font-family="Helvetica" font-size="10.00">&#45;&#45;&#45;</text>
<text text-anchor="middle" x="4051.5" y="-620" font-family="Helvetica" font-size="10.00">HotSpotMethod&lt;LoopBenchmarks.sieveLoop(boolean[], int)&gt;</text>
</g>
<!-- b12&#45;&gt;b13 -->
<g id="edge20" class="edge">
<title>b12&#45;&gt;b13</title>
<path fill="none" stroke="black" d="M3802.21,-639C3833.81,-639 3867.47,-639 3899.48,-639"/>
<polygon fill="black" stroke="black" points="3899.8,-642.5 3909.8,-639 3899.8,-635.5 3899.8,-642.5"/>
</g>
<!-- b16 -->
<g id="node17" class="node">
<title>b16</title>
<polygon fill="white" stroke="black" points="4193,-538 3910,-538 3910,-486 4193,-486 4193,-538"/>
<text text-anchor="middle" x="4051.5" y="-526" font-family="Helvetica" font-size="10.00">B16</text>
<text text-anchor="middle" x="4051.5" y="-515" font-family="Helvetica" font-size="10.00">Loop: &lt;none&gt;</text>
<text text-anchor="middle" x="4051.5" y="-504" font-family="Helvetica" font-size="10.00">&#45;&#45;&#45;</text>
<text text-anchor="middle" x="4051.5" y="-493" font-family="Helvetica" font-size="10.00">HotSpotMethod&lt;LoopBenchmarks.sieveLoop(boolean[], int)&gt;</text>
</g>
<!-- b12&#45;&gt;b16 -->
<g id="edge21" class="edge">
<title>b12&#45;&gt;b16</title>
<path fill="none" stroke="black" d="M3741.16,-612.99C3805.03,-592.14 3894.66,-562.88 3961,-541.22"/>
<polygon fill="black" stroke="black" points="3962.19,-544.51 3970.61,-538.08 3960.02,-537.86 3962.19,-544.51"/>
</g>
<!-- b14 -->
<g id="node15" class="node">
<title>b14</title>
<polygon fill="lightblue" stroke="black" points="4584,-796 4301,-796 4301,-744 4584,-744 4584,-796"/>
<text text-anchor="middle" x="4442.5" y="-784" font-family="Helvetica" font-size="10.00">B14</text>
<text text-anchor="middle" x="4442.5" y="-773" font-family="Helvetica" font-size="10.00">Loop: L0</text>
<text text-anchor="middle" x="4442.5" y="-762" font-family="Helvetica" font-size="10.00">&#45;&#45;&#45;</text>
<text text-anchor="middle" x="4442.5" y="-751" font-family="Helvetica" font-size="10.00">HotSpotMethod&lt;LoopBenchmarks.sieveLoop(boolean[], int)&gt;</text>
</g>
<!-- b13&#45;&gt;b14 -->
<g id="edge22" class="edge">
<title>b13&#45;&gt;b14</title>
<path fill="none" stroke="black" d="M4129.82,-665.04C4194.55,-686.84 4286.88,-717.93 4354.24,-740.62"/>
<polygon fill="black" stroke="black" points="4353.4,-744.02 4363.99,-743.9 4355.63,-737.39 4353.4,-744.02"/>
</g>
<!-- b15 -->
<g id="node16" class="node">
<title>b15</title>
<polygon fill="white" stroke="black" points="4584,-668 4301,-668 4301,-616 4584,-616 4584,-668"/>
<text text-anchor="middle" x="4442.5" y="-656" font-family="Helvetica" font-size="10.00">B15</text>
<text text-anchor="middle" x="4442.5" y="-645" font-family="Helvetica" font-size="10.00">Loop: &lt;none&gt;</text>
<text text-anchor="middle" x="4442.5" y="-634" font-family="Helvetica" font-size="10.00">&#45;&#45;&#45;</text>
<text text-anchor="middle" x="4442.5" y="-623" font-family="Helvetica" font-size="10.00">HotSpotMethod&lt;LoopBenchmarks.sieveLoop(boolean[], int)&gt;</text>
</g>
<!-- b13&#45;&gt;b15 -->
<g id="edge23" class="edge">
<title>b13&#45;&gt;b15</title>
<path fill="none" stroke="black" d="M4193.21,-640.09C4224.81,-640.33 4258.47,-640.59 4290.48,-640.84"/>
<polygon fill="black" stroke="black" points="4290.78,-644.34 4300.8,-640.91 4290.83,-637.34 4290.78,-644.34"/>
</g>
<!-- b14&#45;&gt;b12 -->
<g id="edge24" class="edge">
<title>b14&#45;&gt;b12</title>
<path fill="none" stroke="black" d="M4300.92,-756.22C4193.37,-744.61 4041.66,-725.88 3910,-701 3861.97,-691.92 3809.36,-679.21 3764.97,-667.65"/>
<polygon fill="black" stroke="black" points="3765.6,-664.2 3755.04,-665.05 3763.83,-670.97 3765.6,-664.2"/>
</g>
<!-- b17 -->
<g id="node18" class="node">
<title>b17</title>
<polygon fill="white" stroke="black" points="4975,-600 4692,-600 4692,-548 4975,-548 4975,-600"/>
<text text-anchor="middle" x="4833.5" y="-588" font-family="Helvetica" font-size="10.00">B17</text>
<text text-anchor="middle" x="4833.5" y="-577" font-family="Helvetica" font-size="10.00">Loop: &lt;none&gt;</text>
<text text-anchor="middle" x="4833.5" y="-566" font-family="Helvetica" font-size="10.00">&#45;&#45;&#45;</text>
<text text-anchor="middle" x="4833.5" y="-555" font-family="Helvetica" font-size="10.00">HotSpotMethod&lt;LoopBenchmarks.sieveLoop(boolean[], int)&gt;</text>
</g>
<!-- b15&#45;&gt;b17 -->
<g id="edge25" class="edge">
<title>b15&#45;&gt;b17</title>
<path fill="none" stroke="black" d="M4584.21,-617.4C4615.95,-611.85 4649.76,-605.94 4681.89,-600.33"/>
<polygon fill="black" stroke="black" points="4682.56,-603.76 4691.8,-598.59 4681.35,-596.87 4682.56,-603.76"/>
</g>
<!-- b16&#45;&gt;b17 -->
<g id="edge26" class="edge">
<title>b16&#45;&gt;b17</title>
<path fill="none" stroke="black" d="M4193.3,-523.19C4331.18,-534.15 4540.56,-550.79 4681.76,-562.02"/>
<polygon fill="black" stroke="black" points="4681.56,-565.51 4691.8,-562.82 4682.11,-558.53 4681.56,-565.51"/>
</g>
<!-- b23 -->
<g id="node24" class="node">
<title>b23</title>
<polygon fill="white" stroke="black" points="3411,-271 3128,-271 3128,-219 3411,-219 3411,-271"/>
<text text-anchor="middle" x="3269.5" y="-259" font-family="Helvetica" font-size="10.00">B23</text>
<text text-anchor="middle" x="3269.5" y="-248" font-family="Helvetica" font-size="10.00">Loop: &lt;none&gt;</text>
<text text-anchor="middle" x="3269.5" y="-237" font-family="Helvetica" font-size="10.00">&#45;&#45;&#45;</text>
<text text-anchor="middle" x="3269.5" y="-226" font-family="Helvetica" font-size="10.00">HotSpotMethod&lt;LoopBenchmarks.sieveLoop(boolean[], int)&gt;</text>
</g>
<!-- b19&#45;&gt;b23 -->
<g id="edge27" class="edge">
<title>b19&#45;&gt;b23</title>
<path fill="none" stroke="black" d="M2928.37,-426.87C3000.24,-388.44 3134.17,-316.83 3210.78,-275.87"/>
<polygon fill="black" stroke="black" points="3212.66,-278.83 3219.83,-271.03 3209.36,-272.65 3212.66,-278.83"/>
</g>
<!-- b20&#45;&gt;b23 -->
<g id="edge28" class="edge">
<title>b20&#45;&gt;b23</title>
<path fill="none" stroke="black" d="M2629.3,-304.82C2767.18,-291.92 2976.56,-272.32 3117.76,-259.11"/>
<polygon fill="black" stroke="black" points="3118.17,-262.58 3127.8,-258.17 3117.52,-255.61 3118.17,-262.58"/>
</g>
<!-- b21&#45;&gt;b23 -->
<g id="edge29" class="edge">
<title>b21&#45;&gt;b23</title>
<path fill="none" stroke="black" d="M2238.17,-190.45C2460.17,-202.2 2889.91,-224.96 3117.92,-237.03"/>
<polygon fill="black" stroke="black" points="3117.79,-240.53 3127.96,-237.56 3118.16,-233.53 3117.79,-240.53"/>
</g>
<!-- b22&#45;&gt;b23 -->
<g id="edge30" class="edge">
<title>b22&#45;&gt;b23</title>
<path fill="none" stroke="black" d="M1847.26,-42.42C2088.02,-71.01 2594.18,-133.28 3020,-200 3052.78,-205.14 3087.89,-211.17 3121.09,-217.12"/>
<polygon fill="black" stroke="black" points="3120.87,-220.63 3131.33,-218.96 3122.11,-213.74 3120.87,-220.63"/>
</g>
</g>
</svg>
