<?xml version="1.0" encoding="UTF-8" standalone="no"?>
<!DOCTYPE svg PUBLIC "-//W3C//DTD SVG 1.1//EN"
 "http://www.w3.org/Graphics/SVG/1.1/DTD/svg11.dtd">
<!-- Generated by graphviz version 2.44.0 (0)
 -->
<!-- Title: CFG_112 Pages: 1 -->
<svg width="2889pt" height="655pt"
 viewBox="0.00 0.00 2889.00 655.00" xmlns="http://www.w3.org/2000/svg" xmlns:xlink="http://www.w3.org/1999/xlink">
<g id="graph0" class="graph" transform="scale(1 1) rotate(0) translate(4 651)">
<title>CFG_112</title>
<polygon fill="white" stroke="transparent" points="-4,4 -4,-651 2885,-651 2885,4 -4,4"/>
<text text-anchor="middle" x="286" y="-627" font-family="Times-Roman" font-size="20.00">169&#45;LoopBenchmarks.polynomialLoop(double[], double)</text>
<!-- b0 -->
<g id="node1" class="node">
<title>b0</title>
<polygon fill="white" stroke="black" points="319,-378 0,-378 0,-326 319,-326 319,-378"/>
<text text-anchor="middle" x="159.5" y="-366" font-family="Helvetica" font-size="10.00">B0</text>
<text text-anchor="middle" x="159.5" y="-355" font-family="Helvetica" font-size="10.00">Loop: &lt;none&gt;</text>
<text text-anchor="middle" x="159.5" y="-344" font-family="Helvetica" font-size="10.00">&#45;&#45;&#45;</text>
<text text-anchor="middle" x="159.5" y="-333" font-family="Helvetica" font-size="10.00">HotSpotMethod&lt;LoopBenchmarks.polynomialLoop(double[], double)&gt;</text>
</g>
<!-- b2 -->
<g id="node3" class="node">
<title>b2</title>
<polygon fill="white" stroke="black" points="746,-508 427,-508 427,-456 746,-456 746,-508"/>
<text text-anchor="middle" x="586.5" y="-496" font-family="Helvetica" font-size="10.00">B2</text>
<text text-anchor="middle" x="586.5" y="-485" font-family="Helvetica" font-size="10.00">Loop: &lt;none&gt;</text>
<text text-anchor="middle" x="586.5" y="-474" font-family="Helvetica" font-size="10.00">&#45;&#45;&#45;</text>
<text text-anchor="middle" x="586.5" y="-463" font-family="Helvetica" font-size="10.00">HotSpotMethod&lt;LoopBenchmarks.polynomialLoop(double[], double)&gt;</text>
</g>
<!-- b0&#45;&gt;b2 -->
<g id="edge2" class="edge">
<title>b0&#45;&gt;b2</title>
<path fill="none" stroke="black" d="M245.74,-378.07C316.59,-399.74 417.31,-430.55 490.69,-453"/>
<polygon fill="black" stroke="black" points="489.82,-456.39 500.4,-455.97 491.86,-449.7 489.82,-456.39"/>
</g>
<!-- b12 -->
<g id="node13" class="node">
<title>b12</title>
<polygon fill="white" stroke="black" points="2881,-244 2562,-244 2562,-192 2881,-192 2881,-244"/>
<text text-anchor="middle" x="2721.5" y="-232" font-family="Helvetica" font-size="10.00">B12</text>
<text text-anchor="middle" x="2721.5" y="-221" font-family="Helvetica" font-size="10.00">Loop: &lt;none&gt;</text>
<text text-anchor="middle" x="2721.5" y="-210" font-family="Helvetica" font-size="10.00">&#45;&#45;&#45;</text>
<text text-anchor="middle" x="2721.5" y="-199" font-family="Helvetica" font-size="10.00">HotSpotMethod&lt;LoopBenchmarks.polynomialLoop(double[], double)&gt;</text>
</g>
<!-- b0&#45;&gt;b12 -->
<g id="edge1" class="edge">
<title>b0&#45;&gt;b12</title>
<path fill="none" stroke="black" d="M319.2,-332.03C490.09,-312.29 770.1,-285 1012.5,-285 1012.5,-285 1012.5,-285 1868.5,-285 2106.17,-285 2379.99,-258.77 2551.67,-239.13"/>
<polygon fill="black" stroke="black" points="2552.27,-242.59 2561.8,-237.97 2551.47,-235.63 2552.27,-242.59"/>
</g>
<!-- b1 -->
<g id="node2" class="node">
<title>b1</title>
<polygon fill="white" stroke="black" points="2454,-176 2135,-176 2135,-124 2454,-124 2454,-176"/>
<text text-anchor="middle" x="2294.5" y="-164" font-family="Helvetica" font-size="10.00">B1</text>
<text text-anchor="middle" x="2294.5" y="-153" font-family="Helvetica" font-size="10.00">Loop: &lt;none&gt;</text>
<text text-anchor="middle" x="2294.5" y="-142" font-family="Helvetica" font-size="10.00">&#45;&#45;&#45;</text>
<text text-anchor="middle" x="2294.5" y="-131" font-family="Helvetica" font-size="10.00">HotSpotMethod&lt;LoopBenchmarks.polynomialLoop(double[], double)&gt;</text>
</g>
<!-- b1&#45;&gt;b12 -->
<g id="edge3" class="edge">
<title>b1&#45;&gt;b12</title>
<path fill="none" stroke="black" d="M2454.06,-175.37C2486.02,-180.48 2519.72,-185.87 2552,-191.04"/>
<polygon fill="black" stroke="black" points="2551.55,-194.51 2561.97,-192.64 2552.65,-187.6 2551.55,-194.51"/>
</g>
<!-- b3 -->
<g id="node4" class="node">
<title>b3</title>
<polygon fill="lightblue" stroke="black" points="1173,-539 854,-539 854,-487 1173,-487 1173,-539"/>
<text text-anchor="middle" x="1013.5" y="-527" font-family="Helvetica" font-size="10.00">B3</text>
<text text-anchor="middle" x="1013.5" y="-516" font-family="Helvetica" font-size="10.00">Loop: L0</text>
<text text-anchor="middle" x="1013.5" y="-505" font-family="Helvetica" font-size="10.00">&#45;&#45;&#45;</text>
<text text-anchor="middle" x="1013.5" y="-494" font-family="Helvetica" font-size="10.00">HotSpotMethod&lt;LoopBenchmarks.polynomialLoop(double[], double)&gt;</text>
</g>
<!-- b2&#45;&gt;b3 -->
<g id="edge4" class="edge">
<title>b2&#45;&gt;b3</title>
<path fill="none" stroke="black" d="M746.06,-493.57C777.88,-495.89 811.43,-498.33 843.59,-500.68"/>
<polygon fill="black" stroke="black" points="843.75,-504.2 853.97,-501.44 844.25,-497.22 843.75,-504.2"/>
</g>
<!-- b4 -->
<g id="node5" class="node">
<title>b4</title>
<polygon fill="lightblue" stroke="black" points="1600,-617 1281,-617 1281,-565 1600,-565 1600,-617"/>
<text text-anchor="middle" x="1440.5" y="-605" font-family="Helvetica" font-size="10.00">B4</text>
<text text-anchor="middle" x="1440.5" y="-594" font-family="Helvetica" font-size="10.00">Loop: L0</text>
<text text-anchor="middle" x="1440.5" y="-583" font-family="Helvetica" font-size="10.00">&#45;&#45;&#45;</text>
<text text-anchor="middle" x="1440.5" y="-572" font-family="Helvetica" font-size="10.00">HotSpotMethod&lt;LoopBenchmarks.polynomialLoop(double[], double)&gt;</text>
</g>
<!-- b3&#45;&gt;b4 -->
<g id="edge6" class="edge">
<title>b3&#45;&gt;b4</title>
<path fill="none" stroke="black" d="M1173.06,-515.89C1247,-527.25 1330.29,-544.96 1383.75,-561.82"/>
<polygon fill="black" stroke="black" points="1382.78,-565.18 1393.37,-564.95 1384.95,-558.53 1382.78,-565.18"/>
</g>
<!-- b5 -->
<g id="node6" class="node">
<title>b5</title>
<polygon fill="white" stroke="black" points="1600,-493 1281,-493 1281,-441 1600,-441 1600,-493"/>
<text text-anchor="middle" x="1440.5" y="-481" font-family="Helvetica" font-size="10.00">B5</text>
<text text-anchor="middle" x="1440.5" y="-470" font-family="Helvetica" font-size="10.00">Loop: &lt;none&gt;</text>
<text text-anchor="middle" x="1440.5" y="-459" font-family="Helvetica" font-size="10.00">&#45;&#45;&#45;</text>
<text text-anchor="middle" x="1440.5" y="-448" font-family="Helvetica" font-size="10.00">HotSpotMethod&lt;LoopBenchmarks.polynomialLoop(double[], double)&gt;</text>
</g>
<!-- b3&#45;&gt;b5 -->
<g id="edge5" class="edge">
<title>b3&#45;&gt;b5</title>
<path fill="none" stroke="black" d="M1173.06,-495.84C1205.02,-492.38 1238.72,-488.73 1271,-485.24"/>
<polygon fill="black" stroke="black" points="1271.41,-488.71 1280.97,-484.16 1270.65,-481.75 1271.41,-488.71"/>
</g>
<!-- b4&#45;&gt;b3 -->
<g id="edge7" class="edge">
<title>b4&#45;&gt;b3</title>
<path fill="none" stroke="black" d="M1280.95,-588.11C1207.08,-576.76 1123.89,-559.08 1070.42,-542.24"/>
<polygon fill="black" stroke="black" points="1071.38,-538.87 1060.79,-539.1 1069.22,-545.52 1071.38,-538.87"/>
</g>
<!-- b6 -->
<g id="node7" class="node">
<title>b6</title>
<polygon fill="lightgreen" stroke="black" points="2027,-570 1708,-570 1708,-518 2027,-518 2027,-570"/>
<text text-anchor="middle" x="1867.5" y="-558" font-family="Helvetica" font-size="10.00">B6</text>
<text text-anchor="middle" x="1867.5" y="-547" font-family="Helvetica" font-size="10.00">Loop: L1</text>
<text text-anchor="middle" x="1867.5" y="-536" font-family="Helvetica" font-size="10.00">&#45;&#45;&#45;</text>
<text text-anchor="middle" x="1867.5" y="-525" font-family="Helvetica" font-size="10.00">HotSpotMethod&lt;LoopBenchmarks.polynomialLoop(double[], double)&gt;</text>
</g>
<!-- b5&#45;&gt;b6 -->
<g id="edge8" class="edge">
<title>b5&#45;&gt;b6</title>
<path fill="none" stroke="black" d="M1585.09,-493.02C1626.24,-500.47 1671.25,-508.62 1712.97,-516.18"/>
<polygon fill="black" stroke="black" points="1712.47,-519.65 1722.93,-517.99 1713.72,-512.76 1712.47,-519.65"/>
</g>
<!-- b7 -->
<g id="node8" class="node">
<title>b7</title>
<polygon fill="lightgreen" stroke="black" points="2454,-570 2135,-570 2135,-518 2454,-518 2454,-570"/>
<text text-anchor="middle" x="2294.5" y="-558" font-family="Helvetica" font-size="10.00">B7</text>
<text text-anchor="middle" x="2294.5" y="-547" font-family="Helvetica" font-size="10.00">Loop: L1</text>
<text text-anchor="middle" x="2294.5" y="-536" font-family="Helvetica" font-size="10.00">&#45;&#45;&#45;</text>
<text text-anchor="middle" x="2294.5" y="-525" font-family="Helvetica" font-size="10.00">HotSpotMethod&lt;LoopBenchmarks.polynomialLoop(double[], double)&gt;</text>
</g>
<!-- b6&#45;&gt;b7 -->
<g id="edge10" class="edge">
<title>b6&#45;&gt;b7</title>
<path fill="none" stroke="black" d="M2020.43,-518C2056.37,-516.78 2094.83,-516.68 2131.21,-517.68"/>
<polygon fill="black" stroke="black" points="2131.31,-521.19 2141.41,-517.99 2131.52,-514.19 2131.31,-521.19"/>
</g>
<!-- b9 -->
<g id="node10" class="node">
<title>b9</title>
<polygon fill="lightpink" stroke="black" points="2454,-446 2135,-446 2135,-394 2454,-394 2454,-446"/>
<text text-anchor="middle" x="2294.5" y="-434" font-family="Helvetica" font-size="10.00">B9</text>
<text text-anchor="middle" x="2294.5" y="-423" font-family="Helvetica" font-size="10.00">Loop: L2</text>
<text text-anchor="middle" x="2294.5" y="-412" font-family="Helvetica" font-size="10.00">&#45;&#45;&#45;</text>
<text text-anchor="middle" x="2294.5" y="-401" font-family="Helvetica" font-size="10.00">HotSpotMethod&lt;LoopBenchmarks.polynomialLoop(double[], double)&gt;</text>
</g>
<!-- b6&#45;&gt;b9 -->
<g id="edge9" class="edge">
<title>b6&#45;&gt;b9</title>
<path fill="none" stroke="black" d="M1957.85,-517.93C2027.03,-497.75 2122.8,-469.8 2194.34,-448.93"/>
<polygon fill="black" stroke="black" points="2195.65,-452.2 2204.27,-446.04 2193.69,-445.48 2195.65,-452.2"/>
</g>
<!-- b7&#45;&gt;b6 -->
<g id="edge11" class="edge">
<title>b7&#45;&gt;b6</title>
<path fill="none" stroke="black" d="M2141.41,-570.01C2105.47,-571.22 2067.01,-571.32 2030.63,-570.31"/>
<polygon fill="black" stroke="black" points="2030.54,-566.81 2020.43,-570 2030.32,-573.81 2030.54,-566.81"/>
</g>
<!-- b8 -->
<g id="node9" class="node">
<title>b8</title>
<polygon fill="white" stroke="black" points="2027,-446 1708,-446 1708,-394 2027,-394 2027,-446"/>
<text text-anchor="middle" x="1867.5" y="-434" font-family="Helvetica" font-size="10.00">B8</text>
<text text-anchor="middle" x="1867.5" y="-423" font-family="Helvetica" font-size="10.00">Loop: &lt;none&gt;</text>
<text text-anchor="middle" x="1867.5" y="-412" font-family="Helvetica" font-size="10.00">&#45;&#45;&#45;</text>
<text text-anchor="middle" x="1867.5" y="-401" font-family="Helvetica" font-size="10.00">HotSpotMethod&lt;LoopBenchmarks.polynomialLoop(double[], double)&gt;</text>
</g>
<!-- b8&#45;&gt;b9 -->
<g id="edge12" class="edge">
<title>b8&#45;&gt;b9</title>
<path fill="none" stroke="black" d="M2027.06,-420C2058.88,-420 2092.43,-420 2124.59,-420"/>
<polygon fill="black" stroke="black" points="2124.97,-423.5 2134.97,-420 2124.97,-416.5 2124.97,-423.5"/>
</g>
<!-- b10 -->
<g id="node11" class="node">
<title>b10</title>
<polygon fill="lightpink" stroke="black" points="2881,-446 2562,-446 2562,-394 2881,-394 2881,-446"/>
<text text-anchor="middle" x="2721.5" y="-434" font-family="Helvetica" font-size="10.00">B10</text>
<text text-anchor="middle" x="2721.5" y="-423" font-family="Helvetica" font-size="10.00">Loop: L2</text>
<text text-anchor="middle" x="2721.5" y="-412" font-family="Helvetica" font-size="10.00">&#45;&#45;&#45;</text>
<text text-anchor="middle" x="2721.5" y="-401" font-family="Helvetica" font-size="10.00">HotSpotMethod&lt;LoopBenchmarks.polynomialLoop(double[], double)&gt;</text>
</g>
<!-- b9&#45;&gt;b10 -->
<g id="edge14" class="edge">
<title>b9&#45;&gt;b10</title>
<path fill="none" stroke="black" d="M2447.43,-394C2483.37,-392.78 2521.83,-392.68 2558.21,-393.68"/>
<polygon fill="black" stroke="black" points="2558.31,-397.19 2568.41,-393.99 2558.52,-390.19 2558.31,-397.19"/>
</g>
<!-- b9&#45;&gt;b12 -->
<g id="edge13" class="edge">
<title>b9&#45;&gt;b12</title>
<path fill="none" stroke="black" d="M2350.63,-393.8C2429.21,-356.45 2573.12,-288.05 2656.37,-248.48"/>
<polygon fill="black" stroke="black" points="2657.94,-251.61 2665.47,-244.15 2654.94,-245.29 2657.94,-251.61"/>
</g>
<!-- b10&#45;&gt;b9 -->
<g id="edge15" class="edge">
<title>b10&#45;&gt;b9</title>
<path fill="none" stroke="black" d="M2568.41,-446.01C2532.47,-447.22 2494.01,-447.32 2457.63,-446.31"/>
<polygon fill="black" stroke="black" points="2457.54,-442.81 2447.43,-446 2457.32,-449.81 2457.54,-442.81"/>
</g>
<!-- b11 -->
<g id="node12" class="node">
<title>b11</title>
<polygon fill="white" stroke="black" points="2454,-52 2135,-52 2135,0 2454,0 2454,-52"/>
<text text-anchor="middle" x="2294.5" y="-40" font-family="Helvetica" font-size="10.00">B11</text>
<text text-anchor="middle" x="2294.5" y="-29" font-family="Helvetica" font-size="10.00">Loop: &lt;none&gt;</text>
<text text-anchor="middle" x="2294.5" y="-18" font-family="Helvetica" font-size="10.00">&#45;&#45;&#45;</text>
<text text-anchor="middle" x="2294.5" y="-7" font-family="Helvetica" font-size="10.00">HotSpotMethod&lt;LoopBenchmarks.polynomialLoop(double[], double)&gt;</text>
</g>
<!-- b11&#45;&gt;b12 -->
<g id="edge16" class="edge">
<title>b11&#45;&gt;b12</title>
<path fill="none" stroke="black" d="M2365.83,-52.11C2393.52,-62.75 2425.45,-75.48 2454,-88 2526.2,-119.67 2607.38,-159.97 2660.97,-187.24"/>
<polygon fill="black" stroke="black" points="2659.49,-190.41 2669.98,-191.84 2662.67,-184.18 2659.49,-190.41"/>
</g>
</g>
</svg>
