<?xml version="1.0" encoding="UTF-8" standalone="no"?>
<!DOCTYPE svg PUBLIC "-//W3C//DTD SVG 1.1//EN"
 "http://www.w3.org/Graphics/SVG/1.1/DTD/svg11.dtd">
<!-- Generated by graphviz version 2.44.0 (0)
 -->
<!-- Title: CFG_113 Pages: 1 -->
<svg width="5199pt" height="550pt"
 viewBox="0.00 0.00 5199.00 549.50" xmlns="http://www.w3.org/2000/svg" xmlns:xlink="http://www.w3.org/1999/xlink">
<g id="graph0" class="graph" transform="scale(1 1) rotate(0) translate(4 545.5)">
<title>CFG_113</title>
<polygon fill="white" stroke="transparent" points="-4,4 -4,-545.5 5195,-545.5 5195,4 -4,4"/>
<text text-anchor="middle" x="189" y="-521.5" font-family="Times-Roman" font-size="20.00">170&#45;LoopBenchmarks.main(String[])</text>
<!-- b0 -->
<g id="node1" class="node">
<title>b0</title>
<polygon fill="white" stroke="black" points="235,-248.5 0,-248.5 0,-196.5 235,-196.5 235,-248.5"/>
<text text-anchor="middle" x="117.5" y="-236.5" font-family="Helvetica" font-size="10.00">B0</text>
<text text-anchor="middle" x="117.5" y="-225.5" font-family="Helvetica" font-size="10.00">Loop: &lt;none&gt;</text>
<text text-anchor="middle" x="117.5" y="-214.5" font-family="Helvetica" font-size="10.00">&#45;&#45;&#45;</text>
<text text-anchor="middle" x="117.5" y="-203.5" font-family="Helvetica" font-size="10.00">HotSpotMethod&lt;LoopBenchmarks.main(String[])&gt;</text>
</g>
<!-- b1 -->
<g id="node2" class="node">
<title>b1</title>
<polygon fill="white" stroke="black" points="578,-315.5 343,-315.5 343,-263.5 578,-263.5 578,-315.5"/>
<text text-anchor="middle" x="460.5" y="-303.5" font-family="Helvetica" font-size="10.00">B1</text>
<text text-anchor="middle" x="460.5" y="-292.5" font-family="Helvetica" font-size="10.00">Loop: &lt;none&gt;</text>
<text text-anchor="middle" x="460.5" y="-281.5" font-family="Helvetica" font-size="10.00">&#45;&#45;&#45;</text>
<text text-anchor="middle" x="460.5" y="-270.5" font-family="Helvetica" font-size="10.00">HotSpotMethod&lt;LoopBenchmarks.main(String[])&gt;</text>
</g>
<!-- b0&#45;&gt;b1 -->
<g id="edge1" class="edge">
<title>b0&#45;&gt;b1</title>
<path fill="none" stroke="black" d="M235.38,-245.46C266.83,-251.64 300.99,-258.36 332.94,-264.63"/>
<polygon fill="black" stroke="black" points="332.29,-268.07 342.78,-266.57 333.64,-261.2 332.29,-268.07"/>
</g>
<!-- b24 -->
<g id="node25" class="node">
<title>b24</title>
<polygon fill="white" stroke="black" points="578,-186.5 343,-186.5 343,-134.5 578,-134.5 578,-186.5"/>
<text text-anchor="middle" x="460.5" y="-174.5" font-family="Helvetica" font-size="10.00">B24</text>
<text text-anchor="middle" x="460.5" y="-163.5" font-family="Helvetica" font-size="10.00">Loop: &lt;none&gt;</text>
<text text-anchor="middle" x="460.5" y="-152.5" font-family="Helvetica" font-size="10.00">&#45;&#45;&#45;</text>
<text text-anchor="middle" x="460.5" y="-141.5" font-family="Helvetica" font-size="10.00">HotSpotMethod&lt;LoopBenchmarks.main(String[])&gt;</text>
</g>
<!-- b0&#45;&gt;b24 -->
<g id="edge2" class="edge">
<title>b0&#45;&gt;b24</title>
<path fill="none" stroke="black" d="M235.38,-201.25C266.83,-195.53 300.99,-189.32 332.94,-183.51"/>
<polygon fill="black" stroke="black" points="333.56,-186.95 342.78,-181.72 332.31,-180.07 333.56,-186.95"/>
</g>
<!-- b2 -->
<g id="node3" class="node">
<title>b2</title>
<polygon fill="white" stroke="black" points="1005,-451 686,-451 686,-388 1005,-388 1005,-451"/>
<text text-anchor="middle" x="845.5" y="-439" font-family="Helvetica" font-size="10.00">B2</text>
<text text-anchor="middle" x="845.5" y="-428" font-family="Helvetica" font-size="10.00">Loop: &lt;none&gt;</text>
<text text-anchor="middle" x="845.5" y="-417" font-family="Helvetica" font-size="10.00">&#45;&#45;&#45;</text>
<text text-anchor="middle" x="845.5" y="-406" font-family="Helvetica" font-size="10.00">HotSpotMethod&lt;LoopBenchmarks.main(String[])&gt;</text>
<text text-anchor="middle" x="845.5" y="-395" font-family="Helvetica" font-size="10.00">HotSpotMethod&lt;LoopBenchmarks.polynomialLoop(double[], double)&gt;</text>
</g>
<!-- b1&#45;&gt;b2 -->
<g id="edge3" class="edge">
<title>b1&#45;&gt;b2</title>
<path fill="none" stroke="black" d="M538.55,-315.65C597.03,-335.5 678.02,-362.99 741.98,-384.7"/>
<polygon fill="black" stroke="black" points="741.1,-388.1 751.69,-388 743.35,-381.47 741.1,-388.1"/>
</g>
<!-- b23 -->
<g id="node24" class="node">
<title>b23</title>
<polygon fill="white" stroke="black" points="963,-315.5 728,-315.5 728,-263.5 963,-263.5 963,-315.5"/>
<text text-anchor="middle" x="845.5" y="-303.5" font-family="Helvetica" font-size="10.00">B23</text>
<text text-anchor="middle" x="845.5" y="-292.5" font-family="Helvetica" font-size="10.00">Loop: &lt;none&gt;</text>
<text text-anchor="middle" x="845.5" y="-281.5" font-family="Helvetica" font-size="10.00">&#45;&#45;&#45;</text>
<text text-anchor="middle" x="845.5" y="-270.5" font-family="Helvetica" font-size="10.00">HotSpotMethod&lt;LoopBenchmarks.main(String[])&gt;</text>
</g>
<!-- b1&#45;&gt;b23 -->
<g id="edge4" class="edge">
<title>b1&#45;&gt;b23</title>
<path fill="none" stroke="black" d="M578.23,-289.5C622.32,-289.5 672.67,-289.5 717.64,-289.5"/>
<polygon fill="black" stroke="black" points="717.74,-293 727.74,-289.5 717.74,-286 717.74,-293"/>
</g>
<!-- b3 -->
<g id="node4" class="node">
<title>b3</title>
<polygon fill="white" stroke="black" points="1859,-511.5 1540,-511.5 1540,-459.5 1859,-459.5 1859,-511.5"/>
<text text-anchor="middle" x="1699.5" y="-499.5" font-family="Helvetica" font-size="10.00">B3</text>
<text text-anchor="middle" x="1699.5" y="-488.5" font-family="Helvetica" font-size="10.00">Loop: &lt;none&gt;</text>
<text text-anchor="middle" x="1699.5" y="-477.5" font-family="Helvetica" font-size="10.00">&#45;&#45;&#45;</text>
<text text-anchor="middle" x="1699.5" y="-466.5" font-family="Helvetica" font-size="10.00">HotSpotMethod&lt;LoopBenchmarks.polynomialLoop(double[], double)&gt;</text>
</g>
<!-- b2&#45;&gt;b3 -->
<g id="edge5" class="edge">
<title>b2&#45;&gt;b3</title>
<path fill="none" stroke="black" d="M1005.26,-431.8C1154.44,-443.35 1376.99,-460.59 1529.44,-472.4"/>
<polygon fill="black" stroke="black" points="1529.6,-475.93 1539.84,-473.21 1530.14,-468.95 1529.6,-475.93"/>
</g>
<!-- b4 -->
<g id="node5" class="node">
<title>b4</title>
<polygon fill="white" stroke="black" points="1432,-376.5 1113,-376.5 1113,-324.5 1432,-324.5 1432,-376.5"/>
<text text-anchor="middle" x="1272.5" y="-364.5" font-family="Helvetica" font-size="10.00">B4</text>
<text text-anchor="middle" x="1272.5" y="-353.5" font-family="Helvetica" font-size="10.00">Loop: &lt;none&gt;</text>
<text text-anchor="middle" x="1272.5" y="-342.5" font-family="Helvetica" font-size="10.00">&#45;&#45;&#45;</text>
<text text-anchor="middle" x="1272.5" y="-331.5" font-family="Helvetica" font-size="10.00">HotSpotMethod&lt;LoopBenchmarks.polynomialLoop(double[], double)&gt;</text>
</g>
<!-- b2&#45;&gt;b4 -->
<g id="edge6" class="edge">
<title>b2&#45;&gt;b4</title>
<path fill="none" stroke="black" d="M1005.06,-393.76C1037.02,-388.57 1070.72,-383.1 1103,-377.86"/>
<polygon fill="black" stroke="black" points="1103.66,-381.29 1112.97,-376.24 1102.54,-374.39 1103.66,-381.29"/>
</g>
<!-- b14 -->
<g id="node15" class="node">
<title>b14</title>
<polygon fill="white" stroke="black" points="3140,-202 2821,-202 2821,-139 3140,-139 3140,-202"/>
<text text-anchor="middle" x="2980.5" y="-190" font-family="Helvetica" font-size="10.00">B14</text>
<text text-anchor="middle" x="2980.5" y="-179" font-family="Helvetica" font-size="10.00">Loop: &lt;none&gt;</text>
<text text-anchor="middle" x="2980.5" y="-168" font-family="Helvetica" font-size="10.00">&#45;&#45;&#45;</text>
<text text-anchor="middle" x="2980.5" y="-157" font-family="Helvetica" font-size="10.00">HotSpotMethod&lt;LoopBenchmarks.polynomialLoop(double[], double)&gt;</text>
<text text-anchor="middle" x="2980.5" y="-146" font-family="Helvetica" font-size="10.00">HotSpotMethod&lt;LoopBenchmarks.main(String[])&gt;</text>
</g>
<!-- b3&#45;&gt;b14 -->
<g id="edge7" class="edge">
<title>b3&#45;&gt;b14</title>
<path fill="none" stroke="black" d="M1859.22,-487.05C2063.51,-484.02 2426.25,-461.43 2713,-350.5 2799.75,-316.94 2886.44,-250.84 2936.43,-208.75"/>
<polygon fill="black" stroke="black" points="2938.77,-211.36 2944.13,-202.22 2934.24,-206.02 2938.77,-211.36"/>
</g>
<!-- b5 -->
<g id="node6" class="node">
<title>b5</title>
<polygon fill="lightblue" stroke="black" points="1859,-376.5 1540,-376.5 1540,-324.5 1859,-324.5 1859,-376.5"/>
<text text-anchor="middle" x="1699.5" y="-364.5" font-family="Helvetica" font-size="10.00">B5</text>
<text text-anchor="middle" x="1699.5" y="-353.5" font-family="Helvetica" font-size="10.00">Loop: L0</text>
<text text-anchor="middle" x="1699.5" y="-342.5" font-family="Helvetica" font-size="10.00">&#45;&#45;&#45;</text>
<text text-anchor="middle" x="1699.5" y="-331.5" font-family="Helvetica" font-size="10.00">HotSpotMethod&lt;LoopBenchmarks.polynomialLoop(double[], double)&gt;</text>
</g>
<!-- b4&#45;&gt;b5 -->
<g id="edge8" class="edge">
<title>b4&#45;&gt;b5</title>
<path fill="none" stroke="black" d="M1432.06,-350.5C1463.88,-350.5 1497.43,-350.5 1529.59,-350.5"/>
<polygon fill="black" stroke="black" points="1529.97,-354 1539.97,-350.5 1529.97,-347 1529.97,-354"/>
</g>
<!-- b6 -->
<g id="node7" class="node">
<title>b6</title>
<polygon fill="lightblue" stroke="black" points="2286,-376.5 1967,-376.5 1967,-324.5 2286,-324.5 2286,-376.5"/>
<text text-anchor="middle" x="2126.5" y="-364.5" font-family="Helvetica" font-size="10.00">B6</text>
<text text-anchor="middle" x="2126.5" y="-353.5" font-family="Helvetica" font-size="10.00">Loop: L0</text>
<text text-anchor="middle" x="2126.5" y="-342.5" font-family="Helvetica" font-size="10.00">&#45;&#45;&#45;</text>
<text text-anchor="middle" x="2126.5" y="-331.5" font-family="Helvetica" font-size="10.00">HotSpotMethod&lt;LoopBenchmarks.polynomialLoop(double[], double)&gt;</text>
</g>
<!-- b5&#45;&gt;b6 -->
<g id="edge10" class="edge">
<title>b5&#45;&gt;b6</title>
<path fill="none" stroke="black" d="M1852.43,-324.5C1888.37,-323.28 1926.83,-323.18 1963.21,-324.18"/>
<polygon fill="black" stroke="black" points="1963.31,-327.69 1973.41,-324.49 1963.52,-320.69 1963.31,-327.69"/>
</g>
<!-- b8 -->
<g id="node9" class="node">
<title>b8</title>
<polygon fill="lightgreen" stroke="black" points="2286,-252.5 1967,-252.5 1967,-200.5 2286,-200.5 2286,-252.5"/>
<text text-anchor="middle" x="2126.5" y="-240.5" font-family="Helvetica" font-size="10.00">B8</text>
<text text-anchor="middle" x="2126.5" y="-229.5" font-family="Helvetica" font-size="10.00">Loop: L1</text>
<text text-anchor="middle" x="2126.5" y="-218.5" font-family="Helvetica" font-size="10.00">&#45;&#45;&#45;</text>
<text text-anchor="middle" x="2126.5" y="-207.5" font-family="Helvetica" font-size="10.00">HotSpotMethod&lt;LoopBenchmarks.polynomialLoop(double[], double)&gt;</text>
</g>
<!-- b5&#45;&gt;b8 -->
<g id="edge9" class="edge">
<title>b5&#45;&gt;b8</title>
<path fill="none" stroke="black" d="M1789.85,-324.43C1859.03,-304.25 1954.8,-276.3 2026.34,-255.43"/>
<polygon fill="black" stroke="black" points="2027.65,-258.7 2036.27,-252.54 2025.69,-251.98 2027.65,-258.7"/>
</g>
<!-- b6&#45;&gt;b5 -->
<g id="edge11" class="edge">
<title>b6&#45;&gt;b5</title>
<path fill="none" stroke="black" d="M1973.41,-376.51C1937.47,-377.72 1899.01,-377.82 1862.63,-376.81"/>
<polygon fill="black" stroke="black" points="1862.54,-373.31 1852.43,-376.5 1862.32,-380.31 1862.54,-373.31"/>
</g>
<!-- b7 -->
<g id="node8" class="node">
<title>b7</title>
<polygon fill="white" stroke="black" points="1859,-252.5 1540,-252.5 1540,-200.5 1859,-200.5 1859,-252.5"/>
<text text-anchor="middle" x="1699.5" y="-240.5" font-family="Helvetica" font-size="10.00">B7</text>
<text text-anchor="middle" x="1699.5" y="-229.5" font-family="Helvetica" font-size="10.00">Loop: &lt;none&gt;</text>
<text text-anchor="middle" x="1699.5" y="-218.5" font-family="Helvetica" font-size="10.00">&#45;&#45;&#45;</text>
<text text-anchor="middle" x="1699.5" y="-207.5" font-family="Helvetica" font-size="10.00">HotSpotMethod&lt;LoopBenchmarks.polynomialLoop(double[], double)&gt;</text>
</g>
<!-- b7&#45;&gt;b8 -->
<g id="edge12" class="edge">
<title>b7&#45;&gt;b8</title>
<path fill="none" stroke="black" d="M1859.06,-226.5C1890.88,-226.5 1924.43,-226.5 1956.59,-226.5"/>
<polygon fill="black" stroke="black" points="1956.97,-230 1966.97,-226.5 1956.97,-223 1956.97,-230"/>
</g>
<!-- b9 -->
<g id="node10" class="node">
<title>b9</title>
<polygon fill="lightgreen" stroke="black" points="2713,-314.5 2394,-314.5 2394,-262.5 2713,-262.5 2713,-314.5"/>
<text text-anchor="middle" x="2553.5" y="-302.5" font-family="Helvetica" font-size="10.00">B9</text>
<text text-anchor="middle" x="2553.5" y="-291.5" font-family="Helvetica" font-size="10.00">Loop: L1</text>
<text text-anchor="middle" x="2553.5" y="-280.5" font-family="Helvetica" font-size="10.00">&#45;&#45;&#45;</text>
<text text-anchor="middle" x="2553.5" y="-269.5" font-family="Helvetica" font-size="10.00">HotSpotMethod&lt;LoopBenchmarks.polynomialLoop(double[], double)&gt;</text>
</g>
<!-- b8&#45;&gt;b9 -->
<g id="edge14" class="edge">
<title>b8&#45;&gt;b9</title>
<path fill="none" stroke="black" d="M2286.06,-223.42C2357.34,-231.69 2437.3,-245.53 2490.85,-259.81"/>
<polygon fill="black" stroke="black" points="2489.97,-263.2 2500.54,-262.48 2491.83,-256.45 2489.97,-263.2"/>
</g>
<!-- b11 -->
<g id="node12" class="node">
<title>b11</title>
<polygon fill="lightpink" stroke="black" points="2713,-66.5 2394,-66.5 2394,-14.5 2713,-14.5 2713,-66.5"/>
<text text-anchor="middle" x="2553.5" y="-54.5" font-family="Helvetica" font-size="10.00">B11</text>
<text text-anchor="middle" x="2553.5" y="-43.5" font-family="Helvetica" font-size="10.00">Loop: L2</text>
<text text-anchor="middle" x="2553.5" y="-32.5" font-family="Helvetica" font-size="10.00">&#45;&#45;&#45;</text>
<text text-anchor="middle" x="2553.5" y="-21.5" font-family="Helvetica" font-size="10.00">HotSpotMethod&lt;LoopBenchmarks.polynomialLoop(double[], double)&gt;</text>
</g>
<!-- b8&#45;&gt;b11 -->
<g id="edge13" class="edge">
<title>b8&#45;&gt;b11</title>
<path fill="none" stroke="black" d="M2180.91,-200.45C2234.4,-174.64 2319.28,-134.46 2394,-102.5 2419.66,-91.53 2447.95,-80.21 2473.45,-70.3"/>
<polygon fill="black" stroke="black" points="2475.01,-73.45 2483.07,-66.58 2472.48,-66.92 2475.01,-73.45"/>
</g>
<!-- b9&#45;&gt;b8 -->
<g id="edge15" class="edge">
<title>b9&#45;&gt;b8</title>
<path fill="none" stroke="black" d="M2393.64,-291.55C2322.5,-283.28 2242.77,-269.48 2189.29,-255.22"/>
<polygon fill="black" stroke="black" points="2190.18,-251.84 2179.61,-252.56 2188.32,-258.59 2190.18,-251.84"/>
</g>
<!-- b10 -->
<g id="node11" class="node">
<title>b10</title>
<polygon fill="white" stroke="black" points="2286,-66.5 1967,-66.5 1967,-14.5 2286,-14.5 2286,-66.5"/>
<text text-anchor="middle" x="2126.5" y="-54.5" font-family="Helvetica" font-size="10.00">B10</text>
<text text-anchor="middle" x="2126.5" y="-43.5" font-family="Helvetica" font-size="10.00">Loop: &lt;none&gt;</text>
<text text-anchor="middle" x="2126.5" y="-32.5" font-family="Helvetica" font-size="10.00">&#45;&#45;&#45;</text>
<text text-anchor="middle" x="2126.5" y="-21.5" font-family="Helvetica" font-size="10.00">HotSpotMethod&lt;LoopBenchmarks.polynomialLoop(double[], double)&gt;</text>
</g>
<!-- b10&#45;&gt;b11 -->
<g id="edge16" class="edge">
<title>b10&#45;&gt;b11</title>
<path fill="none" stroke="black" d="M2286.06,-40.5C2317.88,-40.5 2351.43,-40.5 2383.59,-40.5"/>
<polygon fill="black" stroke="black" points="2383.97,-44 2393.97,-40.5 2383.97,-37 2383.97,-44"/>
</g>
<!-- b12 -->
<g id="node13" class="node">
<title>b12</title>
<polygon fill="lightpink" stroke="black" points="3140,-66.5 2821,-66.5 2821,-14.5 3140,-14.5 3140,-66.5"/>
<text text-anchor="middle" x="2980.5" y="-54.5" font-family="Helvetica" font-size="10.00">B12</text>
<text text-anchor="middle" x="2980.5" y="-43.5" font-family="Helvetica" font-size="10.00">Loop: L2</text>
<text text-anchor="middle" x="2980.5" y="-32.5" font-family="Helvetica" font-size="10.00">&#45;&#45;&#45;</text>
<text text-anchor="middle" x="2980.5" y="-21.5" font-family="Helvetica" font-size="10.00">HotSpotMethod&lt;LoopBenchmarks.polynomialLoop(double[], double)&gt;</text>
</g>
<!-- b11&#45;&gt;b12 -->
<g id="edge18" class="edge">
<title>b11&#45;&gt;b12</title>
<path fill="none" stroke="black" d="M2706.43,-14.5C2742.37,-13.28 2780.83,-13.18 2817.21,-14.18"/>
<polygon fill="black" stroke="black" points="2817.31,-17.69 2827.41,-14.49 2817.52,-10.69 2817.31,-17.69"/>
</g>
<!-- b11&#45;&gt;b14 -->
<g id="edge17" class="edge">
<title>b11&#45;&gt;b14</title>
<path fill="none" stroke="black" d="M2639.74,-66.57C2704.89,-86.5 2795.3,-114.16 2866.48,-135.93"/>
<polygon fill="black" stroke="black" points="2865.81,-139.38 2876.39,-138.96 2867.85,-132.69 2865.81,-139.38"/>
</g>
<!-- b12&#45;&gt;b11 -->
<g id="edge19" class="edge">
<title>b12&#45;&gt;b11</title>
<path fill="none" stroke="black" d="M2827.41,-66.51C2791.47,-67.72 2753.01,-67.82 2716.63,-66.81"/>
<polygon fill="black" stroke="black" points="2716.54,-63.31 2706.43,-66.5 2716.32,-70.31 2716.54,-63.31"/>
</g>
<!-- b13 -->
<g id="node14" class="node">
<title>b13</title>
<polygon fill="white" stroke="black" points="2713,-190.5 2394,-190.5 2394,-138.5 2713,-138.5 2713,-190.5"/>
<text text-anchor="middle" x="2553.5" y="-178.5" font-family="Helvetica" font-size="10.00">B13</text>
<text text-anchor="middle" x="2553.5" y="-167.5" font-family="Helvetica" font-size="10.00">Loop: &lt;none&gt;</text>
<text text-anchor="middle" x="2553.5" y="-156.5" font-family="Helvetica" font-size="10.00">&#45;&#45;&#45;</text>
<text text-anchor="middle" x="2553.5" y="-145.5" font-family="Helvetica" font-size="10.00">HotSpotMethod&lt;LoopBenchmarks.polynomialLoop(double[], double)&gt;</text>
</g>
<!-- b13&#45;&gt;b14 -->
<g id="edge20" class="edge">
<title>b13&#45;&gt;b14</title>
<path fill="none" stroke="black" d="M2713.06,-166.74C2744.88,-167.19 2778.43,-167.66 2810.59,-168.12"/>
<polygon fill="black" stroke="black" points="2810.92,-171.62 2820.97,-168.26 2811.02,-164.62 2810.92,-171.62"/>
</g>
<!-- b15 -->
<g id="node16" class="node">
<title>b15</title>
<polygon fill="gold" stroke="black" points="3483,-196.5 3248,-196.5 3248,-144.5 3483,-144.5 3483,-196.5"/>
<text text-anchor="middle" x="3365.5" y="-184.5" font-family="Helvetica" font-size="10.00">B15</text>
<text text-anchor="middle" x="3365.5" y="-173.5" font-family="Helvetica" font-size="10.00">Loop: L3</text>
<text text-anchor="middle" x="3365.5" y="-162.5" font-family="Helvetica" font-size="10.00">&#45;&#45;&#45;</text>
<text text-anchor="middle" x="3365.5" y="-151.5" font-family="Helvetica" font-size="10.00">HotSpotMethod&lt;LoopBenchmarks.main(String[])&gt;</text>
</g>
<!-- b14&#45;&gt;b15 -->
<g id="edge21" class="edge">
<title>b14&#45;&gt;b15</title>
<path fill="none" stroke="black" d="M3140.05,-170.5C3172.64,-170.5 3206.54,-170.5 3237.82,-170.5"/>
<polygon fill="black" stroke="black" points="3237.88,-174 3247.88,-170.5 3237.88,-167 3237.88,-174"/>
</g>
<!-- b16 -->
<g id="node17" class="node">
<title>b16</title>
<polygon fill="gold" stroke="black" points="3910,-337 3591,-337 3591,-274 3910,-274 3910,-337"/>
<text text-anchor="middle" x="3750.5" y="-325" font-family="Helvetica" font-size="10.00">B16</text>
<text text-anchor="middle" x="3750.5" y="-314" font-family="Helvetica" font-size="10.00">Loop: L3</text>
<text text-anchor="middle" x="3750.5" y="-303" font-family="Helvetica" font-size="10.00">&#45;&#45;&#45;</text>
<text text-anchor="middle" x="3750.5" y="-292" font-family="Helvetica" font-size="10.00">HotSpotMethod&lt;LoopBenchmarks.main(String[])&gt;</text>
<text text-anchor="middle" x="3750.5" y="-281" font-family="Helvetica" font-size="10.00">HotSpotMethod&lt;LoopBenchmarks.polynomialLoop(double[], double)&gt;</text>
</g>
<!-- b15&#45;&gt;b16 -->
<g id="edge22" class="edge">
<title>b15&#45;&gt;b16</title>
<path fill="none" stroke="black" d="M3440.35,-196.53C3500.12,-217.6 3584.86,-247.47 3650.51,-270.61"/>
<polygon fill="black" stroke="black" points="3649.46,-273.95 3660.05,-273.97 3651.78,-267.35 3649.46,-273.95"/>
</g>
<!-- b22 -->
<g id="node23" class="node">
<title>b22</title>
<polygon fill="white" stroke="black" points="3910,-202 3591,-202 3591,-139 3910,-139 3910,-202"/>
<text text-anchor="middle" x="3750.5" y="-190" font-family="Helvetica" font-size="10.00">B22</text>
<text text-anchor="middle" x="3750.5" y="-179" font-family="Helvetica" font-size="10.00">Loop: &lt;none&gt;</text>
<text text-anchor="middle" x="3750.5" y="-168" font-family="Helvetica" font-size="10.00">&#45;&#45;&#45;</text>
<text text-anchor="middle" x="3750.5" y="-157" font-family="Helvetica" font-size="10.00">HotSpotMethod&lt;LoopBenchmarks.polynomialLoop(double[], double)&gt;</text>
<text text-anchor="middle" x="3750.5" y="-146" font-family="Helvetica" font-size="10.00">HotSpotMethod&lt;LoopBenchmarks.main(String[])&gt;</text>
</g>
<!-- b15&#45;&gt;b22 -->
<g id="edge23" class="edge">
<title>b15&#45;&gt;b22</title>
<path fill="none" stroke="black" d="M3483.23,-170.5C3513.94,-170.5 3547.69,-170.5 3580.55,-170.5"/>
<polygon fill="black" stroke="black" points="3580.71,-174 3590.71,-170.5 3580.71,-167 3580.71,-174"/>
</g>
<!-- b17 -->
<g id="node18" class="node">
<title>b17</title>
<polygon fill="orange" stroke="black" points="4337,-256.5 4018,-256.5 4018,-204.5 4337,-204.5 4337,-256.5"/>
<text text-anchor="middle" x="4177.5" y="-244.5" font-family="Helvetica" font-size="10.00">B17</text>
<text text-anchor="middle" x="4177.5" y="-233.5" font-family="Helvetica" font-size="10.00">Loop: L4</text>
<text text-anchor="middle" x="4177.5" y="-222.5" font-family="Helvetica" font-size="10.00">&#45;&#45;&#45;</text>
<text text-anchor="middle" x="4177.5" y="-211.5" font-family="Helvetica" font-size="10.00">HotSpotMethod&lt;LoopBenchmarks.polynomialLoop(double[], double)&gt;</text>
</g>
<!-- b16&#45;&gt;b17 -->
<g id="edge24" class="edge">
<title>b16&#45;&gt;b17</title>
<path fill="none" stroke="black" d="M3910.06,-277.52C3945.63,-271.24 3983.37,-264.58 4018.91,-258.31"/>
<polygon fill="black" stroke="black" points="4019.63,-261.74 4028.87,-256.55 4018.41,-254.84 4019.63,-261.74"/>
</g>
<!-- b18 -->
<g id="node19" class="node">
<title>b18</title>
<polygon fill="orange" stroke="black" points="4764,-188.5 4445,-188.5 4445,-136.5 4764,-136.5 4764,-188.5"/>
<text text-anchor="middle" x="4604.5" y="-176.5" font-family="Helvetica" font-size="10.00">B18</text>
<text text-anchor="middle" x="4604.5" y="-165.5" font-family="Helvetica" font-size="10.00">Loop: L4</text>
<text text-anchor="middle" x="4604.5" y="-154.5" font-family="Helvetica" font-size="10.00">&#45;&#45;&#45;</text>
<text text-anchor="middle" x="4604.5" y="-143.5" font-family="Helvetica" font-size="10.00">HotSpotMethod&lt;LoopBenchmarks.polynomialLoop(double[], double)&gt;</text>
</g>
<!-- b17&#45;&gt;b18 -->
<g id="edge26" class="edge">
<title>b17&#45;&gt;b18</title>
<path fill="none" stroke="black" d="M4337.06,-205.13C4369.02,-200.02 4402.72,-194.63 4435,-189.46"/>
<polygon fill="black" stroke="black" points="4435.65,-192.9 4444.97,-187.86 4434.55,-185.99 4435.65,-192.9"/>
</g>
<!-- b20 -->
<g id="node21" class="node">
<title>b20</title>
<polygon fill="gold" stroke="black" points="4764,-63 4445,-63 4445,0 4764,0 4764,-63"/>
<text text-anchor="middle" x="4604.5" y="-51" font-family="Helvetica" font-size="10.00">B20</text>
<text text-anchor="middle" x="4604.5" y="-40" font-family="Helvetica" font-size="10.00">Loop: L3</text>
<text text-anchor="middle" x="4604.5" y="-29" font-family="Helvetica" font-size="10.00">&#45;&#45;&#45;</text>
<text text-anchor="middle" x="4604.5" y="-18" font-family="Helvetica" font-size="10.00">HotSpotMethod&lt;LoopBenchmarks.polynomialLoop(double[], double)&gt;</text>
<text text-anchor="middle" x="4604.5" y="-7" font-family="Helvetica" font-size="10.00">HotSpotMethod&lt;LoopBenchmarks.main(String[])&gt;</text>
</g>
<!-- b17&#45;&gt;b20 -->
<g id="edge25" class="edge">
<title>b17&#45;&gt;b20</title>
<path fill="none" stroke="black" d="M4230.27,-204.42C4283.74,-177.68 4369.74,-135.22 4445,-100.5 4469.06,-89.4 4495.37,-77.75 4519.53,-67.25"/>
<polygon fill="black" stroke="black" points="4521.24,-70.32 4529.02,-63.13 4518.45,-63.9 4521.24,-70.32"/>
</g>
<!-- b19 -->
<g id="node20" class="node">
<title>b19</title>
<polygon fill="orange" stroke="black" points="5191,-320.5 4872,-320.5 4872,-268.5 5191,-268.5 5191,-320.5"/>
<text text-anchor="middle" x="5031.5" y="-308.5" font-family="Helvetica" font-size="10.00">B19</text>
<text text-anchor="middle" x="5031.5" y="-297.5" font-family="Helvetica" font-size="10.00">Loop: L4</text>
<text text-anchor="middle" x="5031.5" y="-286.5" font-family="Helvetica" font-size="10.00">&#45;&#45;&#45;</text>
<text text-anchor="middle" x="5031.5" y="-275.5" font-family="Helvetica" font-size="10.00">HotSpotMethod&lt;LoopBenchmarks.polynomialLoop(double[], double)&gt;</text>
</g>
<!-- b18&#45;&gt;b19 -->
<g id="edge27" class="edge">
<title>b18&#45;&gt;b19</title>
<path fill="none" stroke="black" d="M4689.21,-188.5C4760.49,-210.64 4862.82,-242.42 4936.82,-265.4"/>
<polygon fill="black" stroke="black" points="4936.02,-268.82 4946.61,-268.44 4938.1,-262.14 4936.02,-268.82"/>
</g>
<!-- b21 -->
<g id="node22" class="node">
<title>b21</title>
<polygon fill="white" stroke="black" points="5191,-194 4872,-194 4872,-131 5191,-131 5191,-194"/>
<text text-anchor="middle" x="5031.5" y="-182" font-family="Helvetica" font-size="10.00">B21</text>
<text text-anchor="middle" x="5031.5" y="-171" font-family="Helvetica" font-size="10.00">Loop: &lt;none&gt;</text>
<text text-anchor="middle" x="5031.5" y="-160" font-family="Helvetica" font-size="10.00">&#45;&#45;&#45;</text>
<text text-anchor="middle" x="5031.5" y="-149" font-family="Helvetica" font-size="10.00">HotSpotMethod&lt;LoopBenchmarks.main(String[])&gt;</text>
<text text-anchor="middle" x="5031.5" y="-138" font-family="Helvetica" font-size="10.00">HotSpotMethod&lt;LoopBenchmarks.polynomialLoop(double[], double)&gt;</text>
</g>
<!-- b18&#45;&gt;b21 -->
<g id="edge28" class="edge">
<title>b18&#45;&gt;b21</title>
<path fill="none" stroke="black" d="M4764.06,-162.5C4795.88,-162.5 4829.43,-162.5 4861.59,-162.5"/>
<polygon fill="black" stroke="black" points="4861.97,-166 4871.97,-162.5 4861.97,-159 4861.97,-166"/>
</g>
<!-- b19&#45;&gt;b17 -->
<g id="edge29" class="edge">
<title>b19&#45;&gt;b17</title>
<path fill="none" stroke="black" d="M4871.84,-282.58C4722.68,-271.38 4500.14,-254.66 4347.65,-243.21"/>
<polygon fill="black" stroke="black" points="4347.49,-239.68 4337.26,-242.43 4346.97,-246.66 4347.49,-239.68"/>
</g>
<!-- b20&#45;&gt;b15 -->
<g id="edge30" class="edge">
<title>b20&#45;&gt;b15</title>
<path fill="none" stroke="black" d="M4444.72,-31.69C4244.19,-34.42 3889.29,-47.58 3591,-102.5 3542.51,-111.43 3489.67,-127.12 3447.45,-141.18"/>
<polygon fill="black" stroke="black" points="3446.14,-137.93 3437.78,-144.43 3448.37,-144.56 3446.14,-137.93"/>
</g>
<!-- b25 -->
<g id="node26" class="node">
<title>b25</title>
<polygon fill="white" stroke="black" points="1390,-249.5 1155,-249.5 1155,-197.5 1390,-197.5 1390,-249.5"/>
<text text-anchor="middle" x="1272.5" y="-237.5" font-family="Helvetica" font-size="10.00">B25</text>
<text text-anchor="middle" x="1272.5" y="-226.5" font-family="Helvetica" font-size="10.00">Loop: &lt;none&gt;</text>
<text text-anchor="middle" x="1272.5" y="-215.5" font-family="Helvetica" font-size="10.00">&#45;&#45;&#45;</text>
<text text-anchor="middle" x="1272.5" y="-204.5" font-family="Helvetica" font-size="10.00">HotSpotMethod&lt;LoopBenchmarks.main(String[])&gt;</text>
</g>
<!-- b23&#45;&gt;b25 -->
<g id="edge31" class="edge">
<title>b23&#45;&gt;b25</title>
<path fill="none" stroke="black" d="M963.2,-271.38C1019.53,-262.63 1087.22,-252.12 1144.81,-243.17"/>
<polygon fill="black" stroke="black" points="1145.35,-246.63 1154.7,-241.64 1144.28,-239.71 1145.35,-246.63"/>
</g>
<!-- b24&#45;&gt;b25 -->
<g id="edge32" class="edge">
<title>b24&#45;&gt;b25</title>
<path fill="none" stroke="black" d="M578.42,-169.59C729,-181.31 989.74,-201.59 1144.88,-213.65"/>
<polygon fill="black" stroke="black" points="1144.71,-217.15 1154.95,-214.43 1145.25,-210.17 1144.71,-217.15"/>
</g>
</g>
</svg>
