<?xml version="1.0" encoding="UTF-8" standalone="no"?>
<!DOCTYPE svg PUBLIC "-//W3C//DTD SVG 1.1//EN"
 "http://www.w3.org/Graphics/SVG/1.1/DTD/svg11.dtd">
<!-- Generated by graphviz version 2.44.0 (0)
 -->
<!-- Title: CFG_117 Pages: 1 -->
<svg width="3940pt" height="406pt"
 viewBox="0.00 0.00 3940.00 405.66" xmlns="http://www.w3.org/2000/svg" xmlns:xlink="http://www.w3.org/1999/xlink">
<g id="graph0" class="graph" transform="scale(1 1) rotate(0) translate(4 401.66)">
<title>CFG_117</title>
<polygon fill="white" stroke="transparent" points="-4,4 -4,-401.66 3936,-401.66 3936,4 -4,4"/>
<text text-anchor="middle" x="257" y="-377.66" font-family="Times-Roman" font-size="20.00">175&#45;LoopBenchmarks.monteCarloPiLoop(long, int)</text>
<!-- b0 -->
<g id="node1" class="node">
<title>b0</title>
<polygon fill="white" stroke="black" points="296,-237.66 0,-237.66 0,-185.66 296,-185.66 296,-237.66"/>
<text text-anchor="middle" x="148" y="-225.66" font-family="Helvetica" font-size="10.00">B0</text>
<text text-anchor="middle" x="148" y="-214.66" font-family="Helvetica" font-size="10.00">Loop: &lt;none&gt;</text>
<text text-anchor="middle" x="148" y="-203.66" font-family="Helvetica" font-size="10.00">&#45;&#45;&#45;</text>
<text text-anchor="middle" x="148" y="-192.66" font-family="Helvetica" font-size="10.00">HotSpotMethod&lt;LoopBenchmarks.monteCarloPiLoop(long, int)&gt;</text>
</g>
<!-- b1 -->
<g id="node2" class="node">
<title>b1</title>
<polygon fill="white" stroke="black" points="700,-299.66 404,-299.66 404,-247.66 700,-247.66 700,-299.66"/>
<text text-anchor="middle" x="552" y="-287.66" font-family="Helvetica" font-size="10.00">B1</text>
<text text-anchor="middle" x="552" y="-276.66" font-family="Helvetica" font-size="10.00">Loop: &lt;none&gt;</text>
<text text-anchor="middle" x="552" y="-265.66" font-family="Helvetica" font-size="10.00">&#45;&#45;&#45;</text>
<text text-anchor="middle" x="552" y="-254.66" font-family="Helvetica" font-size="10.00">HotSpotMethod&lt;LoopBenchmarks.monteCarloPiLoop(long, int)&gt;</text>
</g>
<!-- b0&#45;&gt;b1 -->
<g id="edge1" class="edge">
<title>b0&#45;&gt;b1</title>
<path fill="none" stroke="black" d="M296.12,-234.35C327.92,-239.25 361.66,-244.46 393.82,-249.42"/>
<polygon fill="black" stroke="black" points="393.33,-252.88 403.75,-250.95 394.4,-245.96 393.33,-252.88"/>
</g>
<!-- b15 -->
<g id="node16" class="node">
<title>b15</title>
<polygon fill="white" stroke="black" points="700,-175.66 404,-175.66 404,-123.66 700,-123.66 700,-175.66"/>
<text text-anchor="middle" x="552" y="-163.66" font-family="Helvetica" font-size="10.00">B15</text>
<text text-anchor="middle" x="552" y="-152.66" font-family="Helvetica" font-size="10.00">Loop: &lt;none&gt;</text>
<text text-anchor="middle" x="552" y="-141.66" font-family="Helvetica" font-size="10.00">&#45;&#45;&#45;</text>
<text text-anchor="middle" x="552" y="-130.66" font-family="Helvetica" font-size="10.00">HotSpotMethod&lt;LoopBenchmarks.monteCarloPiLoop(long, int)&gt;</text>
</g>
<!-- b0&#45;&gt;b15 -->
<g id="edge2" class="edge">
<title>b0&#45;&gt;b15</title>
<path fill="none" stroke="black" d="M296.12,-188.97C327.92,-184.06 361.66,-178.86 393.82,-173.9"/>
<polygon fill="black" stroke="black" points="394.4,-177.35 403.75,-172.37 393.33,-170.43 394.4,-177.35"/>
</g>
<!-- b3 -->
<g id="node4" class="node">
<title>b3</title>
<polygon fill="white" stroke="black" points="1104,-367.66 808,-367.66 808,-315.66 1104,-315.66 1104,-367.66"/>
<text text-anchor="middle" x="956" y="-355.66" font-family="Helvetica" font-size="10.00">B3</text>
<text text-anchor="middle" x="956" y="-344.66" font-family="Helvetica" font-size="10.00">Loop: &lt;none&gt;</text>
<text text-anchor="middle" x="956" y="-333.66" font-family="Helvetica" font-size="10.00">&#45;&#45;&#45;</text>
<text text-anchor="middle" x="956" y="-322.66" font-family="Helvetica" font-size="10.00">HotSpotMethod&lt;LoopBenchmarks.monteCarloPiLoop(long, int)&gt;</text>
</g>
<!-- b1&#45;&gt;b3 -->
<g id="edge4" class="edge">
<title>b1&#45;&gt;b3</title>
<path fill="none" stroke="black" d="M700.12,-298.54C731.92,-303.92 765.66,-309.63 797.82,-315.07"/>
<polygon fill="black" stroke="black" points="797.31,-318.53 807.75,-316.75 798.47,-311.63 797.31,-318.53"/>
</g>
<!-- b4 -->
<g id="node5" class="node">
<title>b4</title>
<polygon fill="white" stroke="black" points="1508,-232.66 1212,-232.66 1212,-180.66 1508,-180.66 1508,-232.66"/>
<text text-anchor="middle" x="1360" y="-220.66" font-family="Helvetica" font-size="10.00">B4</text>
<text text-anchor="middle" x="1360" y="-209.66" font-family="Helvetica" font-size="10.00">Loop: &lt;none&gt;</text>
<text text-anchor="middle" x="1360" y="-198.66" font-family="Helvetica" font-size="10.00">&#45;&#45;&#45;</text>
<text text-anchor="middle" x="1360" y="-187.66" font-family="Helvetica" font-size="10.00">HotSpotMethod&lt;LoopBenchmarks.monteCarloPiLoop(long, int)&gt;</text>
</g>
<!-- b1&#45;&gt;b4 -->
<g id="edge3" class="edge">
<title>b1&#45;&gt;b4</title>
<path fill="none" stroke="black" d="M700.36,-261.41C842.32,-249.61 1056.35,-231.82 1201.59,-219.74"/>
<polygon fill="black" stroke="black" points="1202.25,-223.2 1211.93,-218.88 1201.67,-216.22 1202.25,-223.2"/>
</g>
<!-- b2 -->
<g id="node3" class="node">
<title>b2</title>
<polygon fill="white" stroke="black" points="1104,-97.66 808,-97.66 808,-45.66 1104,-45.66 1104,-97.66"/>
<text text-anchor="middle" x="956" y="-85.66" font-family="Helvetica" font-size="10.00">B2</text>
<text text-anchor="middle" x="956" y="-74.66" font-family="Helvetica" font-size="10.00">Loop: &lt;none&gt;</text>
<text text-anchor="middle" x="956" y="-63.66" font-family="Helvetica" font-size="10.00">&#45;&#45;&#45;</text>
<text text-anchor="middle" x="956" y="-52.66" font-family="Helvetica" font-size="10.00">HotSpotMethod&lt;LoopBenchmarks.monteCarloPiLoop(long, int)&gt;</text>
</g>
<!-- b2&#45;&gt;b4 -->
<g id="edge5" class="edge">
<title>b2&#45;&gt;b4</title>
<path fill="none" stroke="black" d="M1034.51,-97.69C1102.39,-120.48 1200.94,-153.58 1271.61,-177.31"/>
<polygon fill="black" stroke="black" points="1270.79,-180.73 1281.39,-180.59 1273.02,-174.09 1270.79,-180.73"/>
</g>
<!-- b3&#45;&gt;b4 -->
<g id="edge6" class="edge">
<title>b3&#45;&gt;b4</title>
<path fill="none" stroke="black" d="M1034.51,-315.63C1102.39,-292.83 1200.94,-259.74 1271.61,-236.01"/>
<polygon fill="black" stroke="black" points="1273.02,-239.22 1281.39,-232.72 1270.79,-232.59 1273.02,-239.22"/>
</g>
<!-- b5 -->
<g id="node6" class="node">
<title>b5</title>
<polygon fill="white" stroke="black" points="1912,-294.66 1616,-294.66 1616,-242.66 1912,-242.66 1912,-294.66"/>
<text text-anchor="middle" x="1764" y="-282.66" font-family="Helvetica" font-size="10.00">B5</text>
<text text-anchor="middle" x="1764" y="-271.66" font-family="Helvetica" font-size="10.00">Loop: &lt;none&gt;</text>
<text text-anchor="middle" x="1764" y="-260.66" font-family="Helvetica" font-size="10.00">&#45;&#45;&#45;</text>
<text text-anchor="middle" x="1764" y="-249.66" font-family="Helvetica" font-size="10.00">HotSpotMethod&lt;LoopBenchmarks.monteCarloPiLoop(long, int)&gt;</text>
</g>
<!-- b4&#45;&gt;b5 -->
<g id="edge7" class="edge">
<title>b4&#45;&gt;b5</title>
<path fill="none" stroke="black" d="M1508.12,-229.35C1539.92,-234.25 1573.66,-239.46 1605.82,-244.42"/>
<polygon fill="black" stroke="black" points="1605.33,-247.88 1615.75,-245.95 1606.4,-240.96 1605.33,-247.88"/>
</g>
<!-- b14 -->
<g id="node15" class="node">
<title>b14</title>
<polygon fill="white" stroke="black" points="1912,-170.66 1616,-170.66 1616,-118.66 1912,-118.66 1912,-170.66"/>
<text text-anchor="middle" x="1764" y="-158.66" font-family="Helvetica" font-size="10.00">B14</text>
<text text-anchor="middle" x="1764" y="-147.66" font-family="Helvetica" font-size="10.00">Loop: &lt;none&gt;</text>
<text text-anchor="middle" x="1764" y="-136.66" font-family="Helvetica" font-size="10.00">&#45;&#45;&#45;</text>
<text text-anchor="middle" x="1764" y="-125.66" font-family="Helvetica" font-size="10.00">HotSpotMethod&lt;LoopBenchmarks.monteCarloPiLoop(long, int)&gt;</text>
</g>
<!-- b4&#45;&gt;b14 -->
<g id="edge8" class="edge">
<title>b4&#45;&gt;b14</title>
<path fill="none" stroke="black" d="M1508.12,-183.97C1539.92,-179.06 1573.66,-173.86 1605.82,-168.9"/>
<polygon fill="black" stroke="black" points="1606.4,-172.35 1615.75,-167.37 1605.33,-165.43 1606.4,-172.35"/>
</g>
<!-- b7 -->
<g id="node8" class="node">
<title>b7</title>
<polygon fill="white" stroke="black" points="2316,-362.66 2020,-362.66 2020,-310.66 2316,-310.66 2316,-362.66"/>
<text text-anchor="middle" x="2168" y="-350.66" font-family="Helvetica" font-size="10.00">B7</text>
<text text-anchor="middle" x="2168" y="-339.66" font-family="Helvetica" font-size="10.00">Loop: &lt;none&gt;</text>
<text text-anchor="middle" x="2168" y="-328.66" font-family="Helvetica" font-size="10.00">&#45;&#45;&#45;</text>
<text text-anchor="middle" x="2168" y="-317.66" font-family="Helvetica" font-size="10.00">HotSpotMethod&lt;LoopBenchmarks.monteCarloPiLoop(long, int)&gt;</text>
</g>
<!-- b5&#45;&gt;b7 -->
<g id="edge10" class="edge">
<title>b5&#45;&gt;b7</title>
<path fill="none" stroke="black" d="M1912.12,-293.54C1943.92,-298.92 1977.66,-304.63 2009.82,-310.07"/>
<polygon fill="black" stroke="black" points="2009.31,-313.53 2019.75,-311.75 2010.47,-306.63 2009.31,-313.53"/>
</g>
<!-- b8 -->
<g id="node9" class="node">
<title>b8</title>
<polygon fill="white" stroke="black" points="2720,-227.66 2424,-227.66 2424,-175.66 2720,-175.66 2720,-227.66"/>
<text text-anchor="middle" x="2572" y="-215.66" font-family="Helvetica" font-size="10.00">B8</text>
<text text-anchor="middle" x="2572" y="-204.66" font-family="Helvetica" font-size="10.00">Loop: &lt;none&gt;</text>
<text text-anchor="middle" x="2572" y="-193.66" font-family="Helvetica" font-size="10.00">&#45;&#45;&#45;</text>
<text text-anchor="middle" x="2572" y="-182.66" font-family="Helvetica" font-size="10.00">HotSpotMethod&lt;LoopBenchmarks.monteCarloPiLoop(long, int)&gt;</text>
</g>
<!-- b5&#45;&gt;b8 -->
<g id="edge9" class="edge">
<title>b5&#45;&gt;b8</title>
<path fill="none" stroke="black" d="M1912.36,-256.41C2054.32,-244.61 2268.35,-226.82 2413.59,-214.74"/>
<polygon fill="black" stroke="black" points="2414.25,-218.2 2423.93,-213.88 2413.67,-211.22 2414.25,-218.2"/>
</g>
<!-- b6 -->
<g id="node7" class="node">
<title>b6</title>
<polygon fill="white" stroke="black" points="2316,-92.66 2020,-92.66 2020,-40.66 2316,-40.66 2316,-92.66"/>
<text text-anchor="middle" x="2168" y="-80.66" font-family="Helvetica" font-size="10.00">B6</text>
<text text-anchor="middle" x="2168" y="-69.66" font-family="Helvetica" font-size="10.00">Loop: &lt;none&gt;</text>
<text text-anchor="middle" x="2168" y="-58.66" font-family="Helvetica" font-size="10.00">&#45;&#45;&#45;</text>
<text text-anchor="middle" x="2168" y="-47.66" font-family="Helvetica" font-size="10.00">HotSpotMethod&lt;LoopBenchmarks.monteCarloPiLoop(long, int)&gt;</text>
</g>
<!-- b6&#45;&gt;b8 -->
<g id="edge11" class="edge">
<title>b6&#45;&gt;b8</title>
<path fill="none" stroke="black" d="M2246.51,-92.69C2314.39,-115.48 2412.94,-148.58 2483.61,-172.31"/>
<polygon fill="black" stroke="black" points="2482.79,-175.73 2493.39,-175.59 2485.02,-169.09 2482.79,-175.73"/>
</g>
<!-- b7&#45;&gt;b8 -->
<g id="edge12" class="edge">
<title>b7&#45;&gt;b8</title>
<path fill="none" stroke="black" d="M2246.51,-310.63C2314.39,-287.83 2412.94,-254.74 2483.61,-231.01"/>
<polygon fill="black" stroke="black" points="2485.02,-234.22 2493.39,-227.72 2482.79,-227.59 2485.02,-234.22"/>
</g>
<!-- b9 -->
<g id="node10" class="node">
<title>b9</title>
<polygon fill="lightblue" stroke="black" points="3124,-165.66 2828,-165.66 2828,-113.66 3124,-113.66 3124,-165.66"/>
<text text-anchor="middle" x="2976" y="-153.66" font-family="Helvetica" font-size="10.00">B9</text>
<text text-anchor="middle" x="2976" y="-142.66" font-family="Helvetica" font-size="10.00">Loop: L0</text>
<text text-anchor="middle" x="2976" y="-131.66" font-family="Helvetica" font-size="10.00">&#45;&#45;&#45;</text>
<text text-anchor="middle" x="2976" y="-120.66" font-family="Helvetica" font-size="10.00">HotSpotMethod&lt;LoopBenchmarks.monteCarloPiLoop(long, int)&gt;</text>
</g>
<!-- b8&#45;&gt;b9 -->
<g id="edge13" class="edge">
<title>b8&#45;&gt;b9</title>
<path fill="none" stroke="black" d="M2720.12,-178.97C2751.92,-174.06 2785.66,-168.86 2817.82,-163.9"/>
<polygon fill="black" stroke="black" points="2818.4,-167.35 2827.75,-162.37 2817.33,-160.43 2818.4,-167.35"/>
</g>
<!-- b10 -->
<g id="node11" class="node">
<title>b10</title>
<polygon fill="lightblue" stroke="black" points="3528,-227.66 3232,-227.66 3232,-175.66 3528,-175.66 3528,-227.66"/>
<text text-anchor="middle" x="3380" y="-215.66" font-family="Helvetica" font-size="10.00">B10</text>
<text text-anchor="middle" x="3380" y="-204.66" font-family="Helvetica" font-size="10.00">Loop: L0</text>
<text text-anchor="middle" x="3380" y="-193.66" font-family="Helvetica" font-size="10.00">&#45;&#45;&#45;</text>
<text text-anchor="middle" x="3380" y="-182.66" font-family="Helvetica" font-size="10.00">HotSpotMethod&lt;LoopBenchmarks.monteCarloPiLoop(long, int)&gt;</text>
</g>
<!-- b9&#45;&gt;b10 -->
<g id="edge14" class="edge">
<title>b9&#45;&gt;b10</title>
<path fill="none" stroke="black" d="M3124.12,-136.23C3191.94,-144.42 3268.59,-158.35 3319.97,-172.77"/>
<polygon fill="black" stroke="black" points="3319,-176.13 3329.58,-175.56 3320.95,-169.41 3319,-176.13"/>
</g>
<!-- b13 -->
<g id="node14" class="node">
<title>b13</title>
<polygon fill="white" stroke="black" points="3528,-103.66 3232,-103.66 3232,-51.66 3528,-51.66 3528,-103.66"/>
<text text-anchor="middle" x="3380" y="-91.66" font-family="Helvetica" font-size="10.00">B13</text>
<text text-anchor="middle" x="3380" y="-80.66" font-family="Helvetica" font-size="10.00">Loop: &lt;none&gt;</text>
<text text-anchor="middle" x="3380" y="-69.66" font-family="Helvetica" font-size="10.00">&#45;&#45;&#45;</text>
<text text-anchor="middle" x="3380" y="-58.66" font-family="Helvetica" font-size="10.00">HotSpotMethod&lt;LoopBenchmarks.monteCarloPiLoop(long, int)&gt;</text>
</g>
<!-- b9&#45;&gt;b13 -->
<g id="edge15" class="edge">
<title>b9&#45;&gt;b13</title>
<path fill="none" stroke="black" d="M3124.12,-116.97C3155.92,-112.06 3189.66,-106.86 3221.82,-101.9"/>
<polygon fill="black" stroke="black" points="3222.4,-105.35 3231.75,-100.37 3221.33,-98.43 3222.4,-105.35"/>
</g>
<!-- b10&#45;&gt;b9 -->
<g id="edge16" class="edge">
<title>b10&#45;&gt;b9</title>
<path fill="none" stroke="black" d="M3231.86,-205.08C3163.99,-196.89 3087.27,-182.94 3035.9,-168.51"/>
<polygon fill="black" stroke="black" points="3036.87,-165.15 3026.29,-165.72 3034.92,-171.87 3036.87,-165.15"/>
</g>
<!-- b12 -->
<g id="node13" class="node">
<title>b12</title>
<polygon fill="lightblue" stroke="black" points="3932,-97.66 3636,-97.66 3636,-45.66 3932,-45.66 3932,-97.66"/>
<text text-anchor="middle" x="3784" y="-85.66" font-family="Helvetica" font-size="10.00">B12</text>
<text text-anchor="middle" x="3784" y="-74.66" font-family="Helvetica" font-size="10.00">Loop: L0</text>
<text text-anchor="middle" x="3784" y="-63.66" font-family="Helvetica" font-size="10.00">&#45;&#45;&#45;</text>
<text text-anchor="middle" x="3784" y="-52.66" font-family="Helvetica" font-size="10.00">HotSpotMethod&lt;LoopBenchmarks.monteCarloPiLoop(long, int)&gt;</text>
</g>
<!-- b10&#45;&gt;b12 -->
<g id="edge17" class="edge">
<title>b10&#45;&gt;b12</title>
<path fill="none" stroke="black" d="M3461.87,-175.51C3528.66,-153.91 3623.4,-123.27 3692.66,-100.87"/>
<polygon fill="black" stroke="black" points="3693.82,-104.17 3702.26,-97.77 3691.67,-97.51 3693.82,-104.17"/>
</g>
<!-- b11 -->
<g id="node12" class="node">
<title>b11</title>
<polygon fill="lightblue" stroke="black" points="2720,-103.66 2424,-103.66 2424,-51.66 2720,-51.66 2720,-103.66"/>
<text text-anchor="middle" x="2572" y="-91.66" font-family="Helvetica" font-size="10.00">B11</text>
<text text-anchor="middle" x="2572" y="-80.66" font-family="Helvetica" font-size="10.00">Loop: L0</text>
<text text-anchor="middle" x="2572" y="-69.66" font-family="Helvetica" font-size="10.00">&#45;&#45;&#45;</text>
<text text-anchor="middle" x="2572" y="-58.66" font-family="Helvetica" font-size="10.00">HotSpotMethod&lt;LoopBenchmarks.monteCarloPiLoop(long, int)&gt;</text>
</g>
<!-- b11&#45;&gt;b9 -->
<g id="edge18" class="edge">
<title>b11&#45;&gt;b9</title>
<path fill="none" stroke="black" d="M2720.12,-100.35C2751.92,-105.25 2785.66,-110.46 2817.82,-115.42"/>
<polygon fill="black" stroke="black" points="2817.33,-118.88 2827.75,-116.95 2818.4,-111.96 2817.33,-118.88"/>
</g>
<!-- b12&#45;&gt;b9 -->
<g id="edge19" class="edge">
<title>b12&#45;&gt;b9</title>
<path fill="none" stroke="black" d="M3696.02,-45.54C3586.5,-16.58 3393.17,21.45 3232,-15.66 3155.07,-33.37 3074.45,-77.55 3024.96,-108.09"/>
<polygon fill="black" stroke="black" points="3023.02,-105.17 3016.39,-113.44 3026.72,-111.11 3023.02,-105.17"/>
</g>
</g>
</svg>
