<?xml version="1.0" encoding="UTF-8" standalone="no"?>
<!DOCTYPE svg PUBLIC "-//W3C//DTD SVG 1.1//EN"
 "http://www.w3.org/Graphics/SVG/1.1/DTD/svg11.dtd">
<!-- Generated by graphviz version 2.44.0 (0)
 -->
<!-- Title: CFG_29 Pages: 1 -->
<svg width="4872pt" height="479pt"
 viewBox="0.00 0.00 4872.00 479.00" xmlns="http://www.w3.org/2000/svg" xmlns:xlink="http://www.w3.org/1999/xlink">
<g id="graph0" class="graph" transform="scale(1 1) rotate(0) translate(4 475)">
<title>CFG_29</title>
<polygon fill="white" stroke="transparent" points="-4,4 -4,-475 4868,-475 4868,4 -4,4"/>
<text text-anchor="middle" x="303" y="-451" font-family="Times-Roman" font-size="20.00">52&#45;java.util.ImmutableCollections$SetN$SetNIterator.next()</text>
<!-- b0 -->
<g id="node1" class="node">
<title>b0</title>
<polygon fill="white" stroke="black" points="305,-207 0,-207 0,-155 305,-155 305,-207"/>
<text text-anchor="middle" x="152.5" y="-195" font-family="Helvetica" font-size="10.00">B0</text>
<text text-anchor="middle" x="152.5" y="-184" font-family="Helvetica" font-size="10.00">Loop: &lt;none&gt;</text>
<text text-anchor="middle" x="152.5" y="-173" font-family="Helvetica" font-size="10.00">&#45;&#45;&#45;</text>
<text text-anchor="middle" x="152.5" y="-162" font-family="Helvetica" font-size="10.00">HotSpotMethod&lt;ImmutableCollections$SetN$SetNIterator.next()&gt;</text>
</g>
<!-- b1 -->
<g id="node2" class="node">
<title>b1</title>
<polygon fill="white" stroke="black" points="718,-269 413,-269 413,-217 718,-217 718,-269"/>
<text text-anchor="middle" x="565.5" y="-257" font-family="Helvetica" font-size="10.00">B1</text>
<text text-anchor="middle" x="565.5" y="-246" font-family="Helvetica" font-size="10.00">Loop: &lt;none&gt;</text>
<text text-anchor="middle" x="565.5" y="-235" font-family="Helvetica" font-size="10.00">&#45;&#45;&#45;</text>
<text text-anchor="middle" x="565.5" y="-224" font-family="Helvetica" font-size="10.00">HotSpotMethod&lt;ImmutableCollections$SetN$SetNIterator.next()&gt;</text>
</g>
<!-- b0&#45;&gt;b1 -->
<g id="edge1" class="edge">
<title>b0&#45;&gt;b1</title>
<path fill="none" stroke="black" d="M305.08,-203.87C336.91,-208.67 370.59,-213.75 402.77,-218.6"/>
<polygon fill="black" stroke="black" points="402.29,-222.07 412.7,-220.1 403.34,-215.15 402.29,-222.07"/>
</g>
<!-- b2 -->
<g id="node3" class="node">
<title>b2</title>
<polygon fill="white" stroke="black" points="718,-145 413,-145 413,-93 718,-93 718,-145"/>
<text text-anchor="middle" x="565.5" y="-133" font-family="Helvetica" font-size="10.00">B2</text>
<text text-anchor="middle" x="565.5" y="-122" font-family="Helvetica" font-size="10.00">Loop: &lt;none&gt;</text>
<text text-anchor="middle" x="565.5" y="-111" font-family="Helvetica" font-size="10.00">&#45;&#45;&#45;</text>
<text text-anchor="middle" x="565.5" y="-100" font-family="Helvetica" font-size="10.00">HotSpotMethod&lt;ImmutableCollections$SetN$SetNIterator.next()&gt;</text>
</g>
<!-- b0&#45;&gt;b2 -->
<g id="edge2" class="edge">
<title>b0&#45;&gt;b2</title>
<path fill="none" stroke="black" d="M305.08,-158.13C336.91,-153.33 370.59,-148.25 402.77,-143.4"/>
<polygon fill="black" stroke="black" points="403.34,-146.85 412.7,-141.9 402.29,-139.93 403.34,-146.85"/>
</g>
<!-- b3 -->
<g id="node4" class="node">
<title>b3</title>
<polygon fill="white" stroke="black" points="1131,-207 826,-207 826,-155 1131,-155 1131,-207"/>
<text text-anchor="middle" x="978.5" y="-195" font-family="Helvetica" font-size="10.00">B3</text>
<text text-anchor="middle" x="978.5" y="-184" font-family="Helvetica" font-size="10.00">Loop: &lt;none&gt;</text>
<text text-anchor="middle" x="978.5" y="-173" font-family="Helvetica" font-size="10.00">&#45;&#45;&#45;</text>
<text text-anchor="middle" x="978.5" y="-162" font-family="Helvetica" font-size="10.00">HotSpotMethod&lt;ImmutableCollections$SetN$SetNIterator.next()&gt;</text>
</g>
<!-- b2&#45;&gt;b3 -->
<g id="edge3" class="edge">
<title>b2&#45;&gt;b3</title>
<path fill="none" stroke="black" d="M718.08,-141.87C749.91,-146.67 783.59,-151.75 815.77,-156.6"/>
<polygon fill="black" stroke="black" points="815.29,-160.07 825.7,-158.1 816.34,-153.15 815.29,-160.07"/>
</g>
<!-- b4 -->
<g id="node5" class="node">
<title>b4</title>
<polygon fill="white" stroke="black" points="1131,-83 826,-83 826,-31 1131,-31 1131,-83"/>
<text text-anchor="middle" x="978.5" y="-71" font-family="Helvetica" font-size="10.00">B4</text>
<text text-anchor="middle" x="978.5" y="-60" font-family="Helvetica" font-size="10.00">Loop: &lt;none&gt;</text>
<text text-anchor="middle" x="978.5" y="-49" font-family="Helvetica" font-size="10.00">&#45;&#45;&#45;</text>
<text text-anchor="middle" x="978.5" y="-38" font-family="Helvetica" font-size="10.00">HotSpotMethod&lt;ImmutableCollections$SetN$SetNIterator.next()&gt;</text>
</g>
<!-- b2&#45;&gt;b4 -->
<g id="edge4" class="edge">
<title>b2&#45;&gt;b4</title>
<path fill="none" stroke="black" d="M718.08,-96.13C749.91,-91.33 783.59,-86.25 815.77,-81.4"/>
<polygon fill="black" stroke="black" points="816.34,-84.85 825.7,-79.9 815.29,-77.93 816.34,-84.85"/>
</g>
<!-- b5 -->
<g id="node6" class="node">
<title>b5</title>
<polygon fill="white" stroke="black" points="1544,-145 1239,-145 1239,-93 1544,-93 1544,-145"/>
<text text-anchor="middle" x="1391.5" y="-133" font-family="Helvetica" font-size="10.00">B5</text>
<text text-anchor="middle" x="1391.5" y="-122" font-family="Helvetica" font-size="10.00">Loop: &lt;none&gt;</text>
<text text-anchor="middle" x="1391.5" y="-111" font-family="Helvetica" font-size="10.00">&#45;&#45;&#45;</text>
<text text-anchor="middle" x="1391.5" y="-100" font-family="Helvetica" font-size="10.00">HotSpotMethod&lt;ImmutableCollections$SetN$SetNIterator.next()&gt;</text>
</g>
<!-- b3&#45;&gt;b5 -->
<g id="edge5" class="edge">
<title>b3&#45;&gt;b5</title>
<path fill="none" stroke="black" d="M1131.08,-158.13C1162.91,-153.33 1196.59,-148.25 1228.77,-143.4"/>
<polygon fill="black" stroke="black" points="1229.34,-146.85 1238.7,-141.9 1228.29,-139.93 1229.34,-146.85"/>
</g>
<!-- b4&#45;&gt;b5 -->
<g id="edge6" class="edge">
<title>b4&#45;&gt;b5</title>
<path fill="none" stroke="black" d="M1131.08,-79.87C1162.91,-84.67 1196.59,-89.75 1228.77,-94.6"/>
<polygon fill="black" stroke="black" points="1228.29,-98.07 1238.7,-96.1 1229.34,-91.15 1228.29,-98.07"/>
</g>
<!-- b6 -->
<g id="node7" class="node">
<title>b6</title>
<polygon fill="white" stroke="black" points="1957,-207 1652,-207 1652,-155 1957,-155 1957,-207"/>
<text text-anchor="middle" x="1804.5" y="-195" font-family="Helvetica" font-size="10.00">B6</text>
<text text-anchor="middle" x="1804.5" y="-184" font-family="Helvetica" font-size="10.00">Loop: &lt;none&gt;</text>
<text text-anchor="middle" x="1804.5" y="-173" font-family="Helvetica" font-size="10.00">&#45;&#45;&#45;</text>
<text text-anchor="middle" x="1804.5" y="-162" font-family="Helvetica" font-size="10.00">HotSpotMethod&lt;ImmutableCollections$SetN$SetNIterator.next()&gt;</text>
</g>
<!-- b5&#45;&gt;b6 -->
<g id="edge7" class="edge">
<title>b5&#45;&gt;b6</title>
<path fill="none" stroke="black" d="M1544.08,-141.87C1575.91,-146.67 1609.59,-151.75 1641.77,-156.6"/>
<polygon fill="black" stroke="black" points="1641.29,-160.07 1651.7,-158.1 1642.34,-153.15 1641.29,-160.07"/>
</g>
<!-- b18 -->
<g id="node19" class="node">
<title>b18</title>
<polygon fill="white" stroke="black" points="1957,-83 1652,-83 1652,-31 1957,-31 1957,-83"/>
<text text-anchor="middle" x="1804.5" y="-71" font-family="Helvetica" font-size="10.00">B18</text>
<text text-anchor="middle" x="1804.5" y="-60" font-family="Helvetica" font-size="10.00">Loop: &lt;none&gt;</text>
<text text-anchor="middle" x="1804.5" y="-49" font-family="Helvetica" font-size="10.00">&#45;&#45;&#45;</text>
<text text-anchor="middle" x="1804.5" y="-38" font-family="Helvetica" font-size="10.00">HotSpotMethod&lt;ImmutableCollections$SetN$SetNIterator.next()&gt;</text>
</g>
<!-- b5&#45;&gt;b18 -->
<g id="edge8" class="edge">
<title>b5&#45;&gt;b18</title>
<path fill="none" stroke="black" d="M1544.08,-96.13C1575.91,-91.33 1609.59,-86.25 1641.77,-81.4"/>
<polygon fill="black" stroke="black" points="1642.34,-84.85 1651.7,-79.9 1641.29,-77.93 1642.34,-84.85"/>
</g>
<!-- b7 -->
<g id="node8" class="node">
<title>b7</title>
<polygon fill="white" stroke="black" stroke-width="4" points="2374,-317.5 2069,-317.5 2069,-232.5 2374,-232.5 2374,-317.5"/>
<polygon fill="none" stroke="black" stroke-width="4" points="2378,-321.5 2065,-321.5 2065,-228.5 2378,-228.5 2378,-321.5"/>
<text text-anchor="middle" x="2221.5" y="-305.5" font-family="Helvetica" font-size="10.00">B7</text>
<text text-anchor="middle" x="2221.5" y="-294.5" font-family="Helvetica" font-size="10.00">Loop: &lt;none&gt;</text>
<text text-anchor="middle" x="2221.5" y="-283.5" font-family="Helvetica" font-size="10.00">&#45;&#45;&#45;</text>
<text text-anchor="middle" x="2221.5" y="-272.5" font-family="Helvetica" font-size="10.00">HotSpotMethod&lt;ImmutableCollections$SetN$SetNIterator.next()&gt;</text>
<text text-anchor="middle" x="2221.5" y="-261.5" font-family="Helvetica" font-size="10.00">&#45;&#45;&#45;</text>
<text text-anchor="middle" x="2221.5" y="-250.5" font-family="Helvetica" font-size="10.00">BuboLoopMakers:</text>
<text text-anchor="middle" x="2221.5" y="-239.5" font-family="Helvetica" font-size="10.00"> &#160;AMD64BuboRDTSCToSlot (LoopID=0)</text>
</g>
<!-- b6&#45;&gt;b7 -->
<g id="edge9" class="edge">
<title>b6&#45;&gt;b7</title>
<path fill="none" stroke="black" d="M1920.55,-207.06C1962.12,-216.47 2009.91,-227.3 2054.94,-237.5"/>
<polygon fill="black" stroke="black" points="2054.28,-240.94 2064.81,-239.74 2055.83,-234.11 2054.28,-240.94"/>
</g>
<!-- b16 -->
<g id="node17" class="node">
<title>b16</title>
<polygon fill="white" stroke="black" points="2791,-52 2486,-52 2486,0 2791,0 2791,-52"/>
<text text-anchor="middle" x="2638.5" y="-40" font-family="Helvetica" font-size="10.00">B16</text>
<text text-anchor="middle" x="2638.5" y="-29" font-family="Helvetica" font-size="10.00">Loop: &lt;none&gt;</text>
<text text-anchor="middle" x="2638.5" y="-18" font-family="Helvetica" font-size="10.00">&#45;&#45;&#45;</text>
<text text-anchor="middle" x="2638.5" y="-7" font-family="Helvetica" font-size="10.00">HotSpotMethod&lt;ImmutableCollections$SetN$SetNIterator.next()&gt;</text>
</g>
<!-- b6&#45;&gt;b16 -->
<g id="edge10" class="edge">
<title>b6&#45;&gt;b16</title>
<path fill="none" stroke="black" d="M1945.23,-154.97C2095.48,-126.98 2333.49,-82.64 2487.58,-53.93"/>
<polygon fill="black" stroke="black" points="2488.42,-57.33 2497.61,-52.06 2487.13,-50.45 2488.42,-57.33"/>
</g>
<!-- b8 -->
<g id="node9" class="node">
<title>b8</title>
<polygon fill="lightblue" stroke="black" points="2791,-309 2486,-309 2486,-257 2791,-257 2791,-309"/>
<text text-anchor="middle" x="2638.5" y="-297" font-family="Helvetica" font-size="10.00">B8</text>
<text text-anchor="middle" x="2638.5" y="-286" font-family="Helvetica" font-size="10.00">Loop: L0</text>
<text text-anchor="middle" x="2638.5" y="-275" font-family="Helvetica" font-size="10.00">&#45;&#45;&#45;</text>
<text text-anchor="middle" x="2638.5" y="-264" font-family="Helvetica" font-size="10.00">HotSpotMethod&lt;ImmutableCollections$SetN$SetNIterator.next()&gt;</text>
</g>
<!-- b7&#45;&gt;b8 -->
<g id="edge11" class="edge">
<title>b7&#45;&gt;b8</title>
<path fill="none" stroke="black" d="M2378.21,-278C2409.96,-278.61 2443.45,-279.26 2475.41,-279.88"/>
<polygon fill="black" stroke="black" points="2475.67,-283.38 2485.74,-280.07 2475.81,-276.38 2475.67,-283.38"/>
</g>
<!-- b9 -->
<g id="node10" class="node">
<title>b9</title>
<polygon fill="lightblue" stroke="black" points="3204,-441 2899,-441 2899,-389 3204,-389 3204,-441"/>
<text text-anchor="middle" x="3051.5" y="-429" font-family="Helvetica" font-size="10.00">B9</text>
<text text-anchor="middle" x="3051.5" y="-418" font-family="Helvetica" font-size="10.00">Loop: L0</text>
<text text-anchor="middle" x="3051.5" y="-407" font-family="Helvetica" font-size="10.00">&#45;&#45;&#45;</text>
<text text-anchor="middle" x="3051.5" y="-396" font-family="Helvetica" font-size="10.00">HotSpotMethod&lt;ImmutableCollections$SetN$SetNIterator.next()&gt;</text>
</g>
<!-- b8&#45;&gt;b9 -->
<g id="edge12" class="edge">
<title>b8&#45;&gt;b9</title>
<path fill="none" stroke="black" d="M2720.7,-309.08C2789.52,-331.18 2888.12,-362.85 2959.57,-385.8"/>
<polygon fill="black" stroke="black" points="2958.88,-389.25 2969.47,-388.98 2961.02,-382.58 2958.88,-389.25"/>
</g>
<!-- b10 -->
<g id="node11" class="node">
<title>b10</title>
<polygon fill="lightblue" stroke="black" points="3204,-317 2899,-317 2899,-265 3204,-265 3204,-317"/>
<text text-anchor="middle" x="3051.5" y="-305" font-family="Helvetica" font-size="10.00">B10</text>
<text text-anchor="middle" x="3051.5" y="-294" font-family="Helvetica" font-size="10.00">Loop: L0</text>
<text text-anchor="middle" x="3051.5" y="-283" font-family="Helvetica" font-size="10.00">&#45;&#45;&#45;</text>
<text text-anchor="middle" x="3051.5" y="-272" font-family="Helvetica" font-size="10.00">HotSpotMethod&lt;ImmutableCollections$SetN$SetNIterator.next()&gt;</text>
</g>
<!-- b8&#45;&gt;b10 -->
<g id="edge13" class="edge">
<title>b8&#45;&gt;b10</title>
<path fill="none" stroke="black" d="M2791.08,-285.95C2822.77,-286.57 2856.3,-287.22 2888.35,-287.84"/>
<polygon fill="black" stroke="black" points="2888.64,-291.35 2898.7,-288.05 2888.77,-284.35 2888.64,-291.35"/>
</g>
<!-- b11 -->
<g id="node12" class="node">
<title>b11</title>
<polygon fill="lightblue" stroke="black" points="3617,-379 3312,-379 3312,-327 3617,-327 3617,-379"/>
<text text-anchor="middle" x="3464.5" y="-367" font-family="Helvetica" font-size="10.00">B11</text>
<text text-anchor="middle" x="3464.5" y="-356" font-family="Helvetica" font-size="10.00">Loop: L0</text>
<text text-anchor="middle" x="3464.5" y="-345" font-family="Helvetica" font-size="10.00">&#45;&#45;&#45;</text>
<text text-anchor="middle" x="3464.5" y="-334" font-family="Helvetica" font-size="10.00">HotSpotMethod&lt;ImmutableCollections$SetN$SetNIterator.next()&gt;</text>
</g>
<!-- b9&#45;&gt;b11 -->
<g id="edge14" class="edge">
<title>b9&#45;&gt;b11</title>
<path fill="none" stroke="black" d="M3204.08,-392.13C3235.91,-387.33 3269.59,-382.25 3301.77,-377.4"/>
<polygon fill="black" stroke="black" points="3302.34,-380.85 3311.7,-375.9 3301.29,-373.93 3302.34,-380.85"/>
</g>
<!-- b10&#45;&gt;b11 -->
<g id="edge15" class="edge">
<title>b10&#45;&gt;b11</title>
<path fill="none" stroke="black" d="M3204.08,-313.87C3235.91,-318.67 3269.59,-323.75 3301.77,-328.6"/>
<polygon fill="black" stroke="black" points="3301.29,-332.07 3311.7,-330.1 3302.34,-325.15 3301.29,-332.07"/>
</g>
<!-- b12 -->
<g id="node13" class="node">
<title>b12</title>
<polygon fill="lightblue" stroke="black" points="4030,-441 3725,-441 3725,-389 4030,-389 4030,-441"/>
<text text-anchor="middle" x="3877.5" y="-429" font-family="Helvetica" font-size="10.00">B12</text>
<text text-anchor="middle" x="3877.5" y="-418" font-family="Helvetica" font-size="10.00">Loop: L0</text>
<text text-anchor="middle" x="3877.5" y="-407" font-family="Helvetica" font-size="10.00">&#45;&#45;&#45;</text>
<text text-anchor="middle" x="3877.5" y="-396" font-family="Helvetica" font-size="10.00">HotSpotMethod&lt;ImmutableCollections$SetN$SetNIterator.next()&gt;</text>
</g>
<!-- b11&#45;&gt;b12 -->
<g id="edge16" class="edge">
<title>b11&#45;&gt;b12</title>
<path fill="none" stroke="black" d="M3617.08,-375.87C3648.91,-380.67 3682.59,-385.75 3714.77,-390.6"/>
<polygon fill="black" stroke="black" points="3714.29,-394.07 3724.7,-392.1 3715.34,-387.15 3714.29,-394.07"/>
</g>
<!-- b15 -->
<g id="node16" class="node">
<title>b15</title>
<polygon fill="white" stroke="black" points="4030,-317 3725,-317 3725,-265 4030,-265 4030,-317"/>
<text text-anchor="middle" x="3877.5" y="-305" font-family="Helvetica" font-size="10.00">B15</text>
<text text-anchor="middle" x="3877.5" y="-294" font-family="Helvetica" font-size="10.00">Loop: &lt;none&gt;</text>
<text text-anchor="middle" x="3877.5" y="-283" font-family="Helvetica" font-size="10.00">&#45;&#45;&#45;</text>
<text text-anchor="middle" x="3877.5" y="-272" font-family="Helvetica" font-size="10.00">HotSpotMethod&lt;ImmutableCollections$SetN$SetNIterator.next()&gt;</text>
</g>
<!-- b11&#45;&gt;b15 -->
<g id="edge17" class="edge">
<title>b11&#45;&gt;b15</title>
<path fill="none" stroke="black" d="M3617.08,-330.13C3648.91,-325.33 3682.59,-320.25 3714.77,-315.4"/>
<polygon fill="black" stroke="black" points="3715.34,-318.85 3724.7,-313.9 3714.29,-311.93 3715.34,-318.85"/>
</g>
<!-- b13 -->
<g id="node14" class="node">
<title>b13</title>
<polygon fill="lightblue" stroke="black" points="4447,-210 4142,-210 4142,-158 4447,-158 4447,-210"/>
<text text-anchor="middle" x="4294.5" y="-198" font-family="Helvetica" font-size="10.00">B13</text>
<text text-anchor="middle" x="4294.5" y="-187" font-family="Helvetica" font-size="10.00">Loop: L0</text>
<text text-anchor="middle" x="4294.5" y="-176" font-family="Helvetica" font-size="10.00">&#45;&#45;&#45;</text>
<text text-anchor="middle" x="4294.5" y="-165" font-family="Helvetica" font-size="10.00">HotSpotMethod&lt;ImmutableCollections$SetN$SetNIterator.next()&gt;</text>
</g>
<!-- b12&#45;&gt;b13 -->
<g id="edge18" class="edge">
<title>b12&#45;&gt;b13</title>
<path fill="none" stroke="black" d="M3949.85,-388.9C3975.58,-378.68 4004.53,-366.24 4030,-353 4110.39,-311.21 4197.83,-252.18 4249.04,-216.08"/>
<polygon fill="black" stroke="black" points="4251.11,-218.91 4257.25,-210.27 4247.06,-213.19 4251.11,-218.91"/>
</g>
<!-- b14 -->
<g id="node15" class="node">
<title>b14</title>
<polygon fill="white" stroke="black" stroke-width="4" points="4447,-428.5 4142,-428.5 4142,-343.5 4447,-343.5 4447,-428.5"/>
<polygon fill="none" stroke="black" stroke-width="4" points="4451,-432.5 4138,-432.5 4138,-339.5 4451,-339.5 4451,-432.5"/>
<text text-anchor="middle" x="4294.5" y="-416.5" font-family="Helvetica" font-size="10.00">B14</text>
<text text-anchor="middle" x="4294.5" y="-405.5" font-family="Helvetica" font-size="10.00">Loop: &lt;none&gt;</text>
<text text-anchor="middle" x="4294.5" y="-394.5" font-family="Helvetica" font-size="10.00">&#45;&#45;&#45;</text>
<text text-anchor="middle" x="4294.5" y="-383.5" font-family="Helvetica" font-size="10.00">HotSpotMethod&lt;ImmutableCollections$SetN$SetNIterator.next()&gt;</text>
<text text-anchor="middle" x="4294.5" y="-372.5" font-family="Helvetica" font-size="10.00">&#45;&#45;&#45;</text>
<text text-anchor="middle" x="4294.5" y="-361.5" font-family="Helvetica" font-size="10.00">BuboLoopMakers:</text>
<text text-anchor="middle" x="4294.5" y="-350.5" font-family="Helvetica" font-size="10.00"> &#160;AMD64BuboWriteDeltaRDTSC (LoopID=0)</text>
</g>
<!-- b12&#45;&gt;b14 -->
<g id="edge19" class="edge">
<title>b12&#45;&gt;b14</title>
<path fill="none" stroke="black" d="M4030.09,-404.41C4061.74,-402.2 4095.27,-399.85 4127.42,-397.61"/>
<polygon fill="black" stroke="black" points="4128.07,-401.07 4137.8,-396.88 4127.58,-394.09 4128.07,-401.07"/>
</g>
<!-- b13&#45;&gt;b8 -->
<g id="edge20" class="edge">
<title>b13&#45;&gt;b8</title>
<path fill="none" stroke="black" d="M4141.96,-180.35C3885.18,-176.07 3348.63,-175.37 2899,-229 2851,-234.72 2798.7,-244.84 2753.71,-254.79"/>
<polygon fill="black" stroke="black" points="2752.93,-251.37 2743.93,-256.97 2754.46,-258.21 2752.93,-251.37"/>
</g>
<!-- b17 -->
<g id="node18" class="node">
<title>b17</title>
<polygon fill="white" stroke="black" points="4864,-181 4559,-181 4559,-129 4864,-129 4864,-181"/>
<text text-anchor="middle" x="4711.5" y="-169" font-family="Helvetica" font-size="10.00">B17</text>
<text text-anchor="middle" x="4711.5" y="-158" font-family="Helvetica" font-size="10.00">Loop: &lt;none&gt;</text>
<text text-anchor="middle" x="4711.5" y="-147" font-family="Helvetica" font-size="10.00">&#45;&#45;&#45;</text>
<text text-anchor="middle" x="4711.5" y="-136" font-family="Helvetica" font-size="10.00">HotSpotMethod&lt;ImmutableCollections$SetN$SetNIterator.next()&gt;</text>
</g>
<!-- b14&#45;&gt;b17 -->
<g id="edge21" class="edge">
<title>b14&#45;&gt;b17</title>
<path fill="none" stroke="black" d="M4379.48,-339.25C4461.59,-293.55 4584.27,-225.27 4654.93,-185.93"/>
<polygon fill="black" stroke="black" points="4656.67,-188.97 4663.7,-181.05 4653.26,-182.85 4656.67,-188.97"/>
</g>
<!-- b16&#45;&gt;b17 -->
<g id="edge22" class="edge">
<title>b16&#45;&gt;b17</title>
<path fill="none" stroke="black" d="M2791.35,-21.29C2956.67,-16.57 3228.84,-10 3463.5,-10 3463.5,-10 3463.5,-10 3878.5,-10 4146.61,-10 4456.2,-83.98 4611.22,-126.26"/>
<polygon fill="black" stroke="black" points="4610.64,-129.72 4621.21,-128.99 4612.49,-122.97 4610.64,-129.72"/>
</g>
</g>
</svg>
