<?xml version="1.0" encoding="UTF-8" standalone="no"?>
<!DOCTYPE svg PUBLIC "-//W3C//DTD SVG 1.1//EN"
 "http://www.w3.org/Graphics/SVG/1.1/DTD/svg11.dtd">
<!-- Generated by graphviz version 2.44.0 (0)
 -->
<!-- Title: CFG_56 Pages: 1 -->
<svg width="3836pt" height="781pt"
 viewBox="0.00 0.00 3836.00 780.50" xmlns="http://www.w3.org/2000/svg" xmlns:xlink="http://www.w3.org/1999/xlink">
<g id="graph0" class="graph" transform="scale(1 1) rotate(0) translate(4 776.5)">
<title>CFG_56</title>
<polygon fill="white" stroke="transparent" points="-4,4 -4,-776.5 3832,-776.5 3832,4 -4,4"/>
<text text-anchor="middle" x="286" y="-752.5" font-family="Times-Roman" font-size="20.00">88&#45;java.lang.StringCoding.countPositives(byte[], int, int)</text>
<!-- b0 -->
<g id="node1" class="node">
<title>b0</title>
<polygon fill="white" stroke="black" points="284,-694.5 0,-694.5 0,-642.5 284,-642.5 284,-694.5"/>
<text text-anchor="middle" x="142" y="-682.5" font-family="Helvetica" font-size="10.00">B0</text>
<text text-anchor="middle" x="142" y="-671.5" font-family="Helvetica" font-size="10.00">Loop: &lt;none&gt;</text>
<text text-anchor="middle" x="142" y="-660.5" font-family="Helvetica" font-size="10.00">&#45;&#45;&#45;</text>
<text text-anchor="middle" x="142" y="-649.5" font-family="Helvetica" font-size="10.00">HotSpotMethod&lt;StringCoding.countPositives(byte[], int, int)&gt;</text>
</g>
<!-- b1 -->
<g id="node2" class="node">
<title>b1</title>
<polygon fill="white" stroke="black" points="676,-554.5 392,-554.5 392,-502.5 676,-502.5 676,-554.5"/>
<text text-anchor="middle" x="534" y="-542.5" font-family="Helvetica" font-size="10.00">B1</text>
<text text-anchor="middle" x="534" y="-531.5" font-family="Helvetica" font-size="10.00">Loop: &lt;none&gt;</text>
<text text-anchor="middle" x="534" y="-520.5" font-family="Helvetica" font-size="10.00">&#45;&#45;&#45;</text>
<text text-anchor="middle" x="534" y="-509.5" font-family="Helvetica" font-size="10.00">HotSpotMethod&lt;StringCoding.countPositives(byte[], int, int)&gt;</text>
</g>
<!-- b0&#45;&gt;b1 -->
<g id="edge1" class="edge">
<title>b0&#45;&gt;b1</title>
<path fill="none" stroke="black" d="M215.44,-642.5C282.13,-618.55 380.99,-583.07 450.66,-558.06"/>
<polygon fill="black" stroke="black" points="452.06,-561.28 460.29,-554.6 449.69,-554.69 452.06,-561.28"/>
</g>
<!-- b20 -->
<g id="node21" class="node">
<title>b20</title>
<polygon fill="white" stroke="black" points="3828,-578.5 3544,-578.5 3544,-526.5 3828,-526.5 3828,-578.5"/>
<text text-anchor="middle" x="3686" y="-566.5" font-family="Helvetica" font-size="10.00">B20</text>
<text text-anchor="middle" x="3686" y="-555.5" font-family="Helvetica" font-size="10.00">Loop: &lt;none&gt;</text>
<text text-anchor="middle" x="3686" y="-544.5" font-family="Helvetica" font-size="10.00">&#45;&#45;&#45;</text>
<text text-anchor="middle" x="3686" y="-533.5" font-family="Helvetica" font-size="10.00">HotSpotMethod&lt;StringCoding.countPositives(byte[], int, int)&gt;</text>
</g>
<!-- b0&#45;&gt;b20 -->
<g id="edge2" class="edge">
<title>b0&#45;&gt;b20</title>
<path fill="none" stroke="black" d="M284.25,-689.95C440.57,-711.81 700.16,-742.5 925,-742.5 925,-742.5 925,-742.5 2895,-742.5 3165.69,-742.5 3474.46,-635.74 3612.12,-582.28"/>
<polygon fill="black" stroke="black" points="3613.69,-585.42 3621.73,-578.52 3611.14,-578.9 3613.69,-585.42"/>
</g>
<!-- b2 -->
<g id="node3" class="node">
<title>b2</title>
<polygon fill="white" stroke="black" points="1068,-554.5 784,-554.5 784,-502.5 1068,-502.5 1068,-554.5"/>
<text text-anchor="middle" x="926" y="-542.5" font-family="Helvetica" font-size="10.00">B2</text>
<text text-anchor="middle" x="926" y="-531.5" font-family="Helvetica" font-size="10.00">Loop: &lt;none&gt;</text>
<text text-anchor="middle" x="926" y="-520.5" font-family="Helvetica" font-size="10.00">&#45;&#45;&#45;</text>
<text text-anchor="middle" x="926" y="-509.5" font-family="Helvetica" font-size="10.00">HotSpotMethod&lt;StringCoding.countPositives(byte[], int, int)&gt;</text>
</g>
<!-- b1&#45;&gt;b2 -->
<g id="edge3" class="edge">
<title>b1&#45;&gt;b2</title>
<path fill="none" stroke="black" d="M676.07,-528.5C707.76,-528.5 741.5,-528.5 773.59,-528.5"/>
<polygon fill="black" stroke="black" points="773.94,-532 783.94,-528.5 773.94,-525 773.94,-532"/>
</g>
<!-- b8 -->
<g id="node9" class="node">
<title>b8</title>
<polygon fill="white" stroke="black" points="1852,-279.5 1568,-279.5 1568,-227.5 1852,-227.5 1852,-279.5"/>
<text text-anchor="middle" x="1710" y="-267.5" font-family="Helvetica" font-size="10.00">B8</text>
<text text-anchor="middle" x="1710" y="-256.5" font-family="Helvetica" font-size="10.00">Loop: &lt;none&gt;</text>
<text text-anchor="middle" x="1710" y="-245.5" font-family="Helvetica" font-size="10.00">&#45;&#45;&#45;</text>
<text text-anchor="middle" x="1710" y="-234.5" font-family="Helvetica" font-size="10.00">HotSpotMethod&lt;StringCoding.countPositives(byte[], int, int)&gt;</text>
</g>
<!-- b1&#45;&gt;b8 -->
<g id="edge4" class="edge">
<title>b1&#45;&gt;b8</title>
<path fill="none" stroke="black" d="M637.87,-502.45C682.71,-491.21 735.91,-478.02 784,-466.5 1069.08,-398.19 1404.6,-321.97 1582.82,-281.81"/>
<polygon fill="black" stroke="black" points="1583.77,-285.19 1592.76,-279.57 1582.23,-278.36 1583.77,-285.19"/>
</g>
<!-- b3 -->
<g id="node4" class="node">
<title>b3</title>
<polygon fill="white" stroke="black" points="1460,-487.5 1176,-487.5 1176,-435.5 1460,-435.5 1460,-487.5"/>
<text text-anchor="middle" x="1318" y="-475.5" font-family="Helvetica" font-size="10.00">B3</text>
<text text-anchor="middle" x="1318" y="-464.5" font-family="Helvetica" font-size="10.00">Loop: &lt;none&gt;</text>
<text text-anchor="middle" x="1318" y="-453.5" font-family="Helvetica" font-size="10.00">&#45;&#45;&#45;</text>
<text text-anchor="middle" x="1318" y="-442.5" font-family="Helvetica" font-size="10.00">HotSpotMethod&lt;StringCoding.countPositives(byte[], int, int)&gt;</text>
</g>
<!-- b2&#45;&gt;b3 -->
<g id="edge5" class="edge">
<title>b2&#45;&gt;b3</title>
<path fill="none" stroke="black" d="M1068.07,-504.26C1099.9,-498.8 1133.79,-492.97 1166,-487.44"/>
<polygon fill="black" stroke="black" points="1166.68,-490.88 1175.94,-485.73 1165.49,-483.98 1166.68,-490.88"/>
</g>
<!-- b6 -->
<g id="node7" class="node">
<title>b6</title>
<polygon fill="white" stroke="black" points="1852,-622.5 1568,-622.5 1568,-570.5 1852,-570.5 1852,-622.5"/>
<text text-anchor="middle" x="1710" y="-610.5" font-family="Helvetica" font-size="10.00">B6</text>
<text text-anchor="middle" x="1710" y="-599.5" font-family="Helvetica" font-size="10.00">Loop: &lt;none&gt;</text>
<text text-anchor="middle" x="1710" y="-588.5" font-family="Helvetica" font-size="10.00">&#45;&#45;&#45;</text>
<text text-anchor="middle" x="1710" y="-577.5" font-family="Helvetica" font-size="10.00">HotSpotMethod&lt;StringCoding.countPositives(byte[], int, int)&gt;</text>
</g>
<!-- b2&#45;&gt;b6 -->
<g id="edge6" class="edge">
<title>b2&#45;&gt;b6</title>
<path fill="none" stroke="black" d="M1068.16,-540.77C1206.39,-552.8 1416.31,-571.05 1557.87,-583.36"/>
<polygon fill="black" stroke="black" points="1557.68,-586.85 1567.94,-584.23 1558.28,-579.88 1557.68,-586.85"/>
</g>
<!-- b5 -->
<g id="node6" class="node">
<title>b5</title>
<polygon fill="white" stroke="black" points="2244,-479.5 1960,-479.5 1960,-427.5 2244,-427.5 2244,-479.5"/>
<text text-anchor="middle" x="2102" y="-467.5" font-family="Helvetica" font-size="10.00">B5</text>
<text text-anchor="middle" x="2102" y="-456.5" font-family="Helvetica" font-size="10.00">Loop: &lt;none&gt;</text>
<text text-anchor="middle" x="2102" y="-445.5" font-family="Helvetica" font-size="10.00">&#45;&#45;&#45;</text>
<text text-anchor="middle" x="2102" y="-434.5" font-family="Helvetica" font-size="10.00">HotSpotMethod&lt;StringCoding.countPositives(byte[], int, int)&gt;</text>
</g>
<!-- b3&#45;&gt;b5 -->
<g id="edge8" class="edge">
<title>b3&#45;&gt;b5</title>
<path fill="none" stroke="black" d="M1460.16,-460.06C1598.39,-458.64 1808.31,-456.49 1949.87,-455.05"/>
<polygon fill="black" stroke="black" points="1949.98,-458.55 1959.94,-454.94 1949.91,-451.55 1949.98,-458.55"/>
</g>
<!-- b3&#45;&gt;b8 -->
<g id="edge7" class="edge">
<title>b3&#45;&gt;b8</title>
<path fill="none" stroke="black" d="M1368,-435.37C1440.05,-396.94 1574.32,-325.33 1651.13,-284.37"/>
<polygon fill="black" stroke="black" points="1653.03,-287.32 1660.2,-279.53 1649.73,-281.14 1653.03,-287.32"/>
</g>
<!-- b4 -->
<g id="node5" class="node">
<title>b4</title>
<polygon fill="white" stroke="black" points="1460,-93.5 1176,-93.5 1176,-41.5 1460,-41.5 1460,-93.5"/>
<text text-anchor="middle" x="1318" y="-81.5" font-family="Helvetica" font-size="10.00">B4</text>
<text text-anchor="middle" x="1318" y="-70.5" font-family="Helvetica" font-size="10.00">Loop: &lt;none&gt;</text>
<text text-anchor="middle" x="1318" y="-59.5" font-family="Helvetica" font-size="10.00">&#45;&#45;&#45;</text>
<text text-anchor="middle" x="1318" y="-48.5" font-family="Helvetica" font-size="10.00">HotSpotMethod&lt;StringCoding.countPositives(byte[], int, int)&gt;</text>
</g>
<!-- b4&#45;&gt;b8 -->
<g id="edge9" class="edge">
<title>b4&#45;&gt;b8</title>
<path fill="none" stroke="black" d="M1380.01,-93.57C1404.94,-104.42 1433.97,-117.3 1460,-129.5 1525.25,-160.07 1599.03,-197.13 1649.23,-222.73"/>
<polygon fill="black" stroke="black" points="1647.82,-225.94 1658.32,-227.37 1651.01,-219.71 1647.82,-225.94"/>
</g>
<!-- b18 -->
<g id="node19" class="node">
<title>b18</title>
<polygon fill="white" stroke="black" points="3036,-408.5 2752,-408.5 2752,-356.5 3036,-356.5 3036,-408.5"/>
<text text-anchor="middle" x="2894" y="-396.5" font-family="Helvetica" font-size="10.00">B18</text>
<text text-anchor="middle" x="2894" y="-385.5" font-family="Helvetica" font-size="10.00">Loop: &lt;none&gt;</text>
<text text-anchor="middle" x="2894" y="-374.5" font-family="Helvetica" font-size="10.00">&#45;&#45;&#45;</text>
<text text-anchor="middle" x="2894" y="-363.5" font-family="Helvetica" font-size="10.00">HotSpotMethod&lt;StringCoding.countPositives(byte[], int, int)&gt;</text>
</g>
<!-- b5&#45;&gt;b18 -->
<g id="edge10" class="edge">
<title>b5&#45;&gt;b18</title>
<path fill="none" stroke="black" d="M2244.24,-440.81C2384.34,-428.22 2598.3,-408.99 2741.78,-396.09"/>
<polygon fill="black" stroke="black" points="2742.34,-399.55 2751.99,-395.17 2741.72,-392.58 2742.34,-399.55"/>
</g>
<!-- b6&#45;&gt;b18 -->
<g id="edge11" class="edge">
<title>b6&#45;&gt;b18</title>
<path fill="none" stroke="black" d="M1852.27,-587.56C2036.59,-573.7 2368.11,-541.23 2644,-473.5 2706.36,-458.19 2774.7,-432.54 2823.98,-412.37"/>
<polygon fill="black" stroke="black" points="2825.36,-415.59 2833.27,-408.54 2822.69,-409.12 2825.36,-415.59"/>
</g>
<!-- b7 -->
<g id="node8" class="node">
<title>b7</title>
<polygon fill="white" stroke="black" points="1460,-217.5 1176,-217.5 1176,-165.5 1460,-165.5 1460,-217.5"/>
<text text-anchor="middle" x="1318" y="-205.5" font-family="Helvetica" font-size="10.00">B7</text>
<text text-anchor="middle" x="1318" y="-194.5" font-family="Helvetica" font-size="10.00">Loop: &lt;none&gt;</text>
<text text-anchor="middle" x="1318" y="-183.5" font-family="Helvetica" font-size="10.00">&#45;&#45;&#45;</text>
<text text-anchor="middle" x="1318" y="-172.5" font-family="Helvetica" font-size="10.00">HotSpotMethod&lt;StringCoding.countPositives(byte[], int, int)&gt;</text>
</g>
<!-- b7&#45;&gt;b8 -->
<g id="edge12" class="edge">
<title>b7&#45;&gt;b8</title>
<path fill="none" stroke="black" d="M1460.07,-213.93C1491.9,-218.99 1525.79,-224.38 1558,-229.5"/>
<polygon fill="black" stroke="black" points="1557.52,-232.96 1567.94,-231.08 1558.62,-226.05 1557.52,-232.96"/>
</g>
<!-- b9 -->
<g id="node10" class="node">
<title>b9</title>
<polygon fill="white" stroke="black" points="2244,-206.5 1960,-206.5 1960,-154.5 2244,-154.5 2244,-206.5"/>
<text text-anchor="middle" x="2102" y="-194.5" font-family="Helvetica" font-size="10.00">B9</text>
<text text-anchor="middle" x="2102" y="-183.5" font-family="Helvetica" font-size="10.00">Loop: &lt;none&gt;</text>
<text text-anchor="middle" x="2102" y="-172.5" font-family="Helvetica" font-size="10.00">&#45;&#45;&#45;</text>
<text text-anchor="middle" x="2102" y="-161.5" font-family="Helvetica" font-size="10.00">HotSpotMethod&lt;StringCoding.countPositives(byte[], int, int)&gt;</text>
</g>
<!-- b8&#45;&gt;b9 -->
<g id="edge13" class="edge">
<title>b8&#45;&gt;b9</title>
<path fill="none" stroke="black" d="M1850.15,-227.45C1883.2,-221.27 1918.59,-214.64 1952.06,-208.38"/>
<polygon fill="black" stroke="black" points="1952.72,-211.82 1961.91,-206.54 1951.43,-204.94 1952.72,-211.82"/>
</g>
<!-- b17 -->
<g id="node18" class="node">
<title>b17</title>
<polygon fill="white" stroke="black" points="2640,-341.5 2356,-341.5 2356,-289.5 2640,-289.5 2640,-341.5"/>
<text text-anchor="middle" x="2498" y="-329.5" font-family="Helvetica" font-size="10.00">B17</text>
<text text-anchor="middle" x="2498" y="-318.5" font-family="Helvetica" font-size="10.00">Loop: &lt;none&gt;</text>
<text text-anchor="middle" x="2498" y="-307.5" font-family="Helvetica" font-size="10.00">&#45;&#45;&#45;</text>
<text text-anchor="middle" x="2498" y="-296.5" font-family="Helvetica" font-size="10.00">HotSpotMethod&lt;StringCoding.countPositives(byte[], int, int)&gt;</text>
</g>
<!-- b8&#45;&gt;b17 -->
<g id="edge14" class="edge">
<title>b8&#45;&gt;b17</title>
<path fill="none" stroke="black" d="M1852.43,-264.66C1991.52,-275.63 2203.14,-292.32 2345.58,-303.56"/>
<polygon fill="black" stroke="black" points="2345.47,-307.06 2355.71,-304.36 2346.02,-300.08 2345.47,-307.06"/>
</g>
<!-- b10 -->
<g id="node11" class="node">
<title>b10</title>
<polygon fill="white" stroke="black" points="2640,-217.5 2356,-217.5 2356,-165.5 2640,-165.5 2640,-217.5"/>
<text text-anchor="middle" x="2498" y="-205.5" font-family="Helvetica" font-size="10.00">B10</text>
<text text-anchor="middle" x="2498" y="-194.5" font-family="Helvetica" font-size="10.00">Loop: &lt;none&gt;</text>
<text text-anchor="middle" x="2498" y="-183.5" font-family="Helvetica" font-size="10.00">&#45;&#45;&#45;</text>
<text text-anchor="middle" x="2498" y="-172.5" font-family="Helvetica" font-size="10.00">HotSpotMethod&lt;StringCoding.countPositives(byte[], int, int)&gt;</text>
</g>
<!-- b9&#45;&gt;b10 -->
<g id="edge15" class="edge">
<title>b9&#45;&gt;b10</title>
<path fill="none" stroke="black" d="M2244.13,-184.44C2277.05,-185.36 2312.23,-186.34 2345.58,-187.27"/>
<polygon fill="black" stroke="black" points="2345.77,-190.78 2355.86,-187.56 2345.96,-183.78 2345.77,-190.78"/>
</g>
<!-- b11 -->
<g id="node12" class="node">
<title>b11</title>
<polygon fill="white" stroke="black" stroke-width="4" points="2640,-89 2356,-89 2356,-4 2640,-4 2640,-89"/>
<polygon fill="none" stroke="black" stroke-width="4" points="2644,-93 2352,-93 2352,0 2644,0 2644,-93"/>
<text text-anchor="middle" x="2498" y="-77" font-family="Helvetica" font-size="10.00">B11</text>
<text text-anchor="middle" x="2498" y="-66" font-family="Helvetica" font-size="10.00">Loop: &lt;none&gt;</text>
<text text-anchor="middle" x="2498" y="-55" font-family="Helvetica" font-size="10.00">&#45;&#45;&#45;</text>
<text text-anchor="middle" x="2498" y="-44" font-family="Helvetica" font-size="10.00">HotSpotMethod&lt;StringCoding.countPositives(byte[], int, int)&gt;</text>
<text text-anchor="middle" x="2498" y="-33" font-family="Helvetica" font-size="10.00">&#45;&#45;&#45;</text>
<text text-anchor="middle" x="2498" y="-22" font-family="Helvetica" font-size="10.00">BuboLoopMakers:</text>
<text text-anchor="middle" x="2498" y="-11" font-family="Helvetica" font-size="10.00"> &#160;AMD64BuboRDTSCToSlot (LoopID=0)</text>
</g>
<!-- b9&#45;&gt;b11 -->
<g id="edge16" class="edge">
<title>b9&#45;&gt;b11</title>
<path fill="none" stroke="black" d="M2179.9,-154.35C2228.38,-137.86 2292.54,-116.04 2350.46,-96.34"/>
<polygon fill="black" stroke="black" points="2351.73,-99.6 2360.07,-93.07 2349.48,-92.98 2351.73,-99.6"/>
</g>
<!-- b10&#45;&gt;b18 -->
<g id="edge17" class="edge">
<title>b10&#45;&gt;b18</title>
<path fill="none" stroke="black" d="M2562.62,-217.5C2588.11,-228.23 2617.63,-241.05 2644,-253.5 2710.94,-285.1 2786.19,-324.66 2836.28,-351.59"/>
<polygon fill="black" stroke="black" points="2834.86,-354.8 2845.33,-356.46 2838.18,-348.64 2834.86,-354.8"/>
</g>
<!-- b12 -->
<g id="node13" class="node">
<title>b12</title>
<polygon fill="lightblue" stroke="black" points="3036,-106.5 2752,-106.5 2752,-54.5 3036,-54.5 3036,-106.5"/>
<text text-anchor="middle" x="2894" y="-94.5" font-family="Helvetica" font-size="10.00">B12</text>
<text text-anchor="middle" x="2894" y="-83.5" font-family="Helvetica" font-size="10.00">Loop: L0</text>
<text text-anchor="middle" x="2894" y="-72.5" font-family="Helvetica" font-size="10.00">&#45;&#45;&#45;</text>
<text text-anchor="middle" x="2894" y="-61.5" font-family="Helvetica" font-size="10.00">HotSpotMethod&lt;StringCoding.countPositives(byte[], int, int)&gt;</text>
</g>
<!-- b11&#45;&gt;b12 -->
<g id="edge18" class="edge">
<title>b11&#45;&gt;b12</title>
<path fill="none" stroke="black" d="M2644.03,-59.02C2675.81,-61.76 2709.53,-64.67 2741.55,-67.43"/>
<polygon fill="black" stroke="black" points="2741.62,-70.95 2751.88,-68.32 2742.22,-63.98 2741.62,-70.95"/>
</g>
<!-- b13 -->
<g id="node14" class="node">
<title>b13</title>
<polygon fill="lightblue" stroke="black" points="3432,-96.5 3148,-96.5 3148,-44.5 3432,-44.5 3432,-96.5"/>
<text text-anchor="middle" x="3290" y="-84.5" font-family="Helvetica" font-size="10.00">B13</text>
<text text-anchor="middle" x="3290" y="-73.5" font-family="Helvetica" font-size="10.00">Loop: L0</text>
<text text-anchor="middle" x="3290" y="-62.5" font-family="Helvetica" font-size="10.00">&#45;&#45;&#45;</text>
<text text-anchor="middle" x="3290" y="-51.5" font-family="Helvetica" font-size="10.00">HotSpotMethod&lt;StringCoding.countPositives(byte[], int, int)&gt;</text>
</g>
<!-- b12&#45;&gt;b13 -->
<g id="edge19" class="edge">
<title>b12&#45;&gt;b13</title>
<path fill="none" stroke="black" d="M3036.13,-76.92C3069.05,-76.08 3104.23,-75.19 3137.58,-74.34"/>
<polygon fill="black" stroke="black" points="3137.95,-77.83 3147.86,-74.08 3137.78,-70.84 3137.95,-77.83"/>
</g>
<!-- b16 -->
<g id="node17" class="node">
<title>b16</title>
<polygon fill="white" stroke="black" stroke-width="4" points="3432,-595 3148,-595 3148,-510 3432,-510 3432,-595"/>
<polygon fill="none" stroke="black" stroke-width="4" points="3436,-599 3144,-599 3144,-506 3436,-506 3436,-599"/>
<text text-anchor="middle" x="3290" y="-583" font-family="Helvetica" font-size="10.00">B16</text>
<text text-anchor="middle" x="3290" y="-572" font-family="Helvetica" font-size="10.00">Loop: &lt;none&gt;</text>
<text text-anchor="middle" x="3290" y="-561" font-family="Helvetica" font-size="10.00">&#45;&#45;&#45;</text>
<text text-anchor="middle" x="3290" y="-550" font-family="Helvetica" font-size="10.00">HotSpotMethod&lt;StringCoding.countPositives(byte[], int, int)&gt;</text>
<text text-anchor="middle" x="3290" y="-539" font-family="Helvetica" font-size="10.00">&#45;&#45;&#45;</text>
<text text-anchor="middle" x="3290" y="-528" font-family="Helvetica" font-size="10.00">BuboLoopMakers:</text>
<text text-anchor="middle" x="3290" y="-517" font-family="Helvetica" font-size="10.00"> &#160;AMD64BuboWriteDeltaRDTSC (LoopID=0)</text>
</g>
<!-- b12&#45;&gt;b16 -->
<g id="edge20" class="edge">
<title>b12&#45;&gt;b16</title>
<path fill="none" stroke="black" d="M2910.75,-106.66C2960.52,-189.14 3113,-439.99 3144,-469.5 3155.83,-480.76 3169.48,-491.08 3183.56,-500.34"/>
<polygon fill="black" stroke="black" points="3182.06,-503.53 3192.37,-505.96 3185.82,-497.63 3182.06,-503.53"/>
</g>
<!-- b14 -->
<g id="node15" class="node">
<title>b14</title>
<polygon fill="white" stroke="black" points="3828,-96.5 3544,-96.5 3544,-44.5 3828,-44.5 3828,-96.5"/>
<text text-anchor="middle" x="3686" y="-84.5" font-family="Helvetica" font-size="10.00">B14</text>
<text text-anchor="middle" x="3686" y="-73.5" font-family="Helvetica" font-size="10.00">Loop: &lt;none&gt;</text>
<text text-anchor="middle" x="3686" y="-62.5" font-family="Helvetica" font-size="10.00">&#45;&#45;&#45;</text>
<text text-anchor="middle" x="3686" y="-51.5" font-family="Helvetica" font-size="10.00">HotSpotMethod&lt;StringCoding.countPositives(byte[], int, int)&gt;</text>
</g>
<!-- b13&#45;&gt;b14 -->
<g id="edge21" class="edge">
<title>b13&#45;&gt;b14</title>
<path fill="none" stroke="black" d="M3432.13,-70.5C3465.05,-70.5 3500.23,-70.5 3533.58,-70.5"/>
<polygon fill="black" stroke="black" points="3533.86,-74 3543.86,-70.5 3533.86,-67 3533.86,-74"/>
</g>
<!-- b15 -->
<g id="node16" class="node">
<title>b15</title>
<polygon fill="lightblue" stroke="black" points="3828,-226.5 3544,-226.5 3544,-174.5 3828,-174.5 3828,-226.5"/>
<text text-anchor="middle" x="3686" y="-214.5" font-family="Helvetica" font-size="10.00">B15</text>
<text text-anchor="middle" x="3686" y="-203.5" font-family="Helvetica" font-size="10.00">Loop: L0</text>
<text text-anchor="middle" x="3686" y="-192.5" font-family="Helvetica" font-size="10.00">&#45;&#45;&#45;</text>
<text text-anchor="middle" x="3686" y="-181.5" font-family="Helvetica" font-size="10.00">HotSpotMethod&lt;StringCoding.countPositives(byte[], int, int)&gt;</text>
</g>
<!-- b13&#45;&gt;b15 -->
<g id="edge22" class="edge">
<title>b13&#45;&gt;b15</title>
<path fill="none" stroke="black" d="M3370.26,-96.65C3435.58,-118.21 3528.19,-148.76 3596.04,-171.15"/>
<polygon fill="black" stroke="black" points="3595.28,-174.58 3605.87,-174.39 3597.47,-167.93 3595.28,-174.58"/>
</g>
<!-- b15&#45;&gt;b12 -->
<g id="edge23" class="edge">
<title>b15&#45;&gt;b12</title>
<path fill="none" stroke="black" d="M3543.86,-185.92C3434.43,-173.86 3279.15,-155.07 3144,-132.5 3103.44,-125.73 3059.45,-117 3019.88,-108.64"/>
<polygon fill="black" stroke="black" points="3020.43,-105.18 3009.92,-106.53 3018.98,-112.03 3020.43,-105.18"/>
</g>
<!-- b16&#45;&gt;b20 -->
<g id="edge24" class="edge">
<title>b16&#45;&gt;b20</title>
<path fill="none" stroke="black" d="M3436.03,-552.5C3467.81,-552.5 3501.53,-552.5 3533.55,-552.5"/>
<polygon fill="black" stroke="black" points="3533.88,-556 3543.88,-552.5 3533.88,-549 3533.88,-556"/>
</g>
<!-- b17&#45;&gt;b18 -->
<g id="edge25" class="edge">
<title>b17&#45;&gt;b18</title>
<path fill="none" stroke="black" d="M2640.13,-339.5C2673.05,-345.1 2708.23,-351.08 2741.58,-356.75"/>
<polygon fill="black" stroke="black" points="2741.42,-360.27 2751.86,-358.5 2742.59,-353.37 2741.42,-360.27"/>
</g>
<!-- b19 -->
<g id="node20" class="node">
<title>b19</title>
<polygon fill="white" stroke="black" points="3432,-433.5 3148,-433.5 3148,-381.5 3432,-381.5 3432,-433.5"/>
<text text-anchor="middle" x="3290" y="-421.5" font-family="Helvetica" font-size="10.00">B19</text>
<text text-anchor="middle" x="3290" y="-410.5" font-family="Helvetica" font-size="10.00">Loop: &lt;none&gt;</text>
<text text-anchor="middle" x="3290" y="-399.5" font-family="Helvetica" font-size="10.00">&#45;&#45;&#45;</text>
<text text-anchor="middle" x="3290" y="-388.5" font-family="Helvetica" font-size="10.00">HotSpotMethod&lt;StringCoding.countPositives(byte[], int, int)&gt;</text>
</g>
<!-- b19&#45;&gt;b20 -->
<g id="edge26" class="edge">
<title>b19&#45;&gt;b20</title>
<path fill="none" stroke="black" d="M3361.89,-433.59C3430.27,-458.76 3533.63,-496.79 3604.94,-523.04"/>
<polygon fill="black" stroke="black" points="3603.75,-526.33 3614.34,-526.5 3606.17,-519.76 3603.75,-526.33"/>
</g>
</g>
</svg>
