<?xml version="1.0" encoding="UTF-8" standalone="no"?>
<!DOCTYPE svg PUBLIC "-//W3C//DTD SVG 1.1//EN"
 "http://www.w3.org/Graphics/SVG/1.1/DTD/svg11.dtd">
<!-- Generated by graphviz version 2.44.0 (0)
 -->
<!-- Title: CFG_138 Pages: 1 -->
<svg width="4707pt" height="675pt"
 viewBox="0.00 0.00 4707.00 674.50" xmlns="http://www.w3.org/2000/svg" xmlns:xlink="http://www.w3.org/1999/xlink">
<g id="graph0" class="graph" transform="scale(1 1) rotate(0) translate(4 670.5)">
<title>CFG_138</title>
<polygon fill="white" stroke="transparent" points="-4,4 -4,-670.5 4703,-670.5 4703,4 -4,4"/>
<text text-anchor="middle" x="189" y="-646.5" font-family="Times-Roman" font-size="20.00">202&#45;LoopBenchmarks.main(String[])</text>
<!-- b0 -->
<g id="node1" class="node">
<title>b0</title>
<polygon fill="white" stroke="black" points="740,-122.5 0,-122.5 0,-59.5 740,-59.5 740,-122.5"/>
<text text-anchor="middle" x="370" y="-110.5" font-family="Helvetica" font-size="10.00">B0</text>
<text text-anchor="middle" x="370" y="-99.5" font-family="Helvetica" font-size="10.00">Loop: &lt;none&gt;</text>
<text text-anchor="middle" x="370" y="-88.5" font-family="Helvetica" font-size="10.00">&#45;&#45;&#45;</text>
<text text-anchor="middle" x="370" y="-77.5" font-family="Helvetica" font-size="10.00">HotSpotMethod&lt;LoopBenchmarks.main(String[])&gt;</text>
<text text-anchor="middle" x="370" y="-66.5" font-family="Helvetica" font-size="10.00">SnippetResolvedJavaMethod{name=&#39;instanceofExact&#39;, type=SnippetResolvedJavaType{javaClass=class jdk.graal.compiler.hotspot.replacements.InstanceOfSnippets}}</text>
</g>
<!-- b1 -->
<g id="node2" class="node">
<title>b1</title>
<polygon fill="white" stroke="black" points="1588,-195.5 848,-195.5 848,-132.5 1588,-132.5 1588,-195.5"/>
<text text-anchor="middle" x="1218" y="-183.5" font-family="Helvetica" font-size="10.00">B1</text>
<text text-anchor="middle" x="1218" y="-172.5" font-family="Helvetica" font-size="10.00">Loop: &lt;none&gt;</text>
<text text-anchor="middle" x="1218" y="-161.5" font-family="Helvetica" font-size="10.00">&#45;&#45;&#45;</text>
<text text-anchor="middle" x="1218" y="-150.5" font-family="Helvetica" font-size="10.00">SnippetResolvedJavaMethod{name=&#39;instanceofExact&#39;, type=SnippetResolvedJavaType{javaClass=class jdk.graal.compiler.hotspot.replacements.InstanceOfSnippets}}</text>
<text text-anchor="middle" x="1218" y="-139.5" font-family="Helvetica" font-size="10.00">HotSpotMethod&lt;LoopBenchmarks.main(String[])&gt;</text>
</g>
<!-- b0&#45;&gt;b1 -->
<g id="edge1" class="edge">
<title>b0&#45;&gt;b1</title>
<path fill="none" stroke="black" d="M736.23,-122.51C771.12,-125.53 806.54,-128.58 841.53,-131.6"/>
<polygon fill="black" stroke="black" points="841.61,-135.12 851.87,-132.49 842.21,-128.15 841.61,-135.12"/>
</g>
<!-- b17 -->
<g id="node18" class="node">
<title>b17</title>
<polygon fill="white" stroke="black" points="1335.5,-52 1100.5,-52 1100.5,0 1335.5,0 1335.5,-52"/>
<text text-anchor="middle" x="1218" y="-40" font-family="Helvetica" font-size="10.00">B17</text>
<text text-anchor="middle" x="1218" y="-29" font-family="Helvetica" font-size="10.00">Loop: &lt;none&gt;</text>
<text text-anchor="middle" x="1218" y="-18" font-family="Helvetica" font-size="10.00">&#45;&#45;&#45;</text>
<text text-anchor="middle" x="1218" y="-7" font-family="Helvetica" font-size="10.00">HotSpotMethod&lt;LoopBenchmarks.main(String[])&gt;</text>
</g>
<!-- b0&#45;&gt;b17 -->
<g id="edge2" class="edge">
<title>b0&#45;&gt;b17</title>
<path fill="none" stroke="black" d="M740.22,-62.63C865.36,-53.02 996.89,-42.91 1090.02,-35.76"/>
<polygon fill="black" stroke="black" points="1090.35,-39.24 1100.05,-34.99 1089.81,-32.26 1090.35,-39.24"/>
</g>
<!-- b2 -->
<g id="node3" class="node">
<title>b2</title>
<polygon fill="white" stroke="black" points="1931,-336 1696,-336 1696,-284 1931,-284 1931,-336"/>
<text text-anchor="middle" x="1813.5" y="-324" font-family="Helvetica" font-size="10.00">B2</text>
<text text-anchor="middle" x="1813.5" y="-313" font-family="Helvetica" font-size="10.00">Loop: &lt;none&gt;</text>
<text text-anchor="middle" x="1813.5" y="-302" font-family="Helvetica" font-size="10.00">&#45;&#45;&#45;</text>
<text text-anchor="middle" x="1813.5" y="-291" font-family="Helvetica" font-size="10.00">HotSpotMethod&lt;LoopBenchmarks.main(String[])&gt;</text>
</g>
<!-- b1&#45;&gt;b2 -->
<g id="edge3" class="edge">
<title>b1&#45;&gt;b2</title>
<path fill="none" stroke="black" d="M1347.05,-195.5C1450.93,-221.05 1596.12,-256.77 1696.59,-281.49"/>
<polygon fill="black" stroke="black" points="1695.93,-284.93 1706.48,-283.92 1697.6,-278.13 1695.93,-284.93"/>
</g>
<!-- b16 -->
<g id="node17" class="node">
<title>b16</title>
<polygon fill="white" stroke="black" points="1931,-190 1696,-190 1696,-138 1931,-138 1931,-190"/>
<text text-anchor="middle" x="1813.5" y="-178" font-family="Helvetica" font-size="10.00">B16</text>
<text text-anchor="middle" x="1813.5" y="-167" font-family="Helvetica" font-size="10.00">Loop: &lt;none&gt;</text>
<text text-anchor="middle" x="1813.5" y="-156" font-family="Helvetica" font-size="10.00">&#45;&#45;&#45;</text>
<text text-anchor="middle" x="1813.5" y="-145" font-family="Helvetica" font-size="10.00">HotSpotMethod&lt;LoopBenchmarks.main(String[])&gt;</text>
</g>
<!-- b1&#45;&gt;b16 -->
<g id="edge4" class="edge">
<title>b1&#45;&gt;b16</title>
<path fill="none" stroke="black" d="M1588.12,-164C1622.6,-164 1655.69,-164 1685.37,-164"/>
<polygon fill="black" stroke="black" points="1685.72,-167.5 1695.72,-164 1685.72,-160.5 1685.72,-167.5"/>
</g>
<!-- b3 -->
<g id="node4" class="node">
<title>b3</title>
<polygon fill="white" stroke="black" points="2274,-471 2039,-471 2039,-419 2274,-419 2274,-471"/>
<text text-anchor="middle" x="2156.5" y="-459" font-family="Helvetica" font-size="10.00">B3</text>
<text text-anchor="middle" x="2156.5" y="-448" font-family="Helvetica" font-size="10.00">Loop: &lt;none&gt;</text>
<text text-anchor="middle" x="2156.5" y="-437" font-family="Helvetica" font-size="10.00">&#45;&#45;&#45;</text>
<text text-anchor="middle" x="2156.5" y="-426" font-family="Helvetica" font-size="10.00">HotSpotMethod&lt;LoopBenchmarks.main(String[])&gt;</text>
</g>
<!-- b2&#45;&gt;b3 -->
<g id="edge5" class="edge">
<title>b2&#45;&gt;b3</title>
<path fill="none" stroke="black" d="M1880.25,-336.03C1937.47,-358.68 2020.4,-391.52 2080.26,-415.21"/>
<polygon fill="black" stroke="black" points="2079.08,-418.51 2089.66,-418.94 2081.65,-412 2079.08,-418.51"/>
</g>
<!-- b15 -->
<g id="node16" class="node">
<title>b15</title>
<polygon fill="white" stroke="black" points="2274,-336 2039,-336 2039,-284 2274,-284 2274,-336"/>
<text text-anchor="middle" x="2156.5" y="-324" font-family="Helvetica" font-size="10.00">B15</text>
<text text-anchor="middle" x="2156.5" y="-313" font-family="Helvetica" font-size="10.00">Loop: &lt;none&gt;</text>
<text text-anchor="middle" x="2156.5" y="-302" font-family="Helvetica" font-size="10.00">&#45;&#45;&#45;</text>
<text text-anchor="middle" x="2156.5" y="-291" font-family="Helvetica" font-size="10.00">HotSpotMethod&lt;LoopBenchmarks.main(String[])&gt;</text>
</g>
<!-- b2&#45;&gt;b15 -->
<g id="edge6" class="edge">
<title>b2&#45;&gt;b15</title>
<path fill="none" stroke="black" d="M1931.38,-310C1962.69,-310 1996.69,-310 2028.52,-310"/>
<polygon fill="black" stroke="black" points="2028.78,-313.5 2038.78,-310 2028.78,-306.5 2028.78,-313.5"/>
</g>
<!-- b4 -->
<g id="node5" class="node">
<title>b4</title>
<polygon fill="white" stroke="black" stroke-width="4" points="2621,-632.5 2386,-632.5 2386,-547.5 2621,-547.5 2621,-632.5"/>
<polygon fill="none" stroke="black" stroke-width="4" points="2625,-636.5 2382,-636.5 2382,-543.5 2625,-543.5 2625,-636.5"/>
<text text-anchor="middle" x="2503.5" y="-620.5" font-family="Helvetica" font-size="10.00">B4</text>
<text text-anchor="middle" x="2503.5" y="-609.5" font-family="Helvetica" font-size="10.00">Loop: &lt;none&gt;</text>
<text text-anchor="middle" x="2503.5" y="-598.5" font-family="Helvetica" font-size="10.00">&#45;&#45;&#45;</text>
<text text-anchor="middle" x="2503.5" y="-587.5" font-family="Helvetica" font-size="10.00">HotSpotMethod&lt;LoopBenchmarks.main(String[])&gt;</text>
<text text-anchor="middle" x="2503.5" y="-576.5" font-family="Helvetica" font-size="10.00">&#45;&#45;&#45;</text>
<text text-anchor="middle" x="2503.5" y="-565.5" font-family="Helvetica" font-size="10.00">BuboLoopMakers:</text>
<text text-anchor="middle" x="2503.5" y="-554.5" font-family="Helvetica" font-size="10.00"> &#160;AMD64BuboRDTSCToSlot (LoopID=0)</text>
</g>
<!-- b3&#45;&gt;b4 -->
<g id="edge7" class="edge">
<title>b3&#45;&gt;b4</title>
<path fill="none" stroke="black" d="M2219.58,-471.09C2264.78,-490.09 2327.44,-516.43 2382.31,-539.48"/>
<polygon fill="black" stroke="black" points="2381.17,-542.8 2391.74,-543.45 2383.88,-536.35 2381.17,-542.8"/>
</g>
<!-- b14 -->
<g id="node15" class="node">
<title>b14</title>
<polygon fill="white" stroke="black" points="2621,-471 2386,-471 2386,-419 2621,-419 2621,-471"/>
<text text-anchor="middle" x="2503.5" y="-459" font-family="Helvetica" font-size="10.00">B14</text>
<text text-anchor="middle" x="2503.5" y="-448" font-family="Helvetica" font-size="10.00">Loop: &lt;none&gt;</text>
<text text-anchor="middle" x="2503.5" y="-437" font-family="Helvetica" font-size="10.00">&#45;&#45;&#45;</text>
<text text-anchor="middle" x="2503.5" y="-426" font-family="Helvetica" font-size="10.00">HotSpotMethod&lt;LoopBenchmarks.main(String[])&gt;</text>
</g>
<!-- b3&#45;&gt;b14 -->
<g id="edge8" class="edge">
<title>b3&#45;&gt;b14</title>
<path fill="none" stroke="black" d="M2274.3,-445C2306.9,-445 2342.47,-445 2375.62,-445"/>
<polygon fill="black" stroke="black" points="2375.82,-448.5 2385.82,-445 2375.82,-441.5 2375.82,-448.5"/>
</g>
<!-- b5 -->
<g id="node6" class="node">
<title>b5</title>
<polygon fill="lightblue" stroke="black" points="2968,-616 2733,-616 2733,-564 2968,-564 2968,-616"/>
<text text-anchor="middle" x="2850.5" y="-604" font-family="Helvetica" font-size="10.00">B5</text>
<text text-anchor="middle" x="2850.5" y="-593" font-family="Helvetica" font-size="10.00">Loop: L0</text>
<text text-anchor="middle" x="2850.5" y="-582" font-family="Helvetica" font-size="10.00">&#45;&#45;&#45;</text>
<text text-anchor="middle" x="2850.5" y="-571" font-family="Helvetica" font-size="10.00">HotSpotMethod&lt;LoopBenchmarks.main(String[])&gt;</text>
</g>
<!-- b4&#45;&gt;b5 -->
<g id="edge9" class="edge">
<title>b4&#45;&gt;b5</title>
<path fill="none" stroke="black" d="M2625.16,-590C2656.72,-590 2690.84,-590 2722.71,-590"/>
<polygon fill="black" stroke="black" points="2722.97,-593.5 2732.97,-590 2722.97,-586.5 2722.97,-593.5"/>
</g>
<!-- b6 -->
<g id="node7" class="node">
<title>b6</title>
<polygon fill="lightblue" stroke="black" points="3315,-616 3080,-616 3080,-564 3315,-564 3315,-616"/>
<text text-anchor="middle" x="3197.5" y="-604" font-family="Helvetica" font-size="10.00">B6</text>
<text text-anchor="middle" x="3197.5" y="-593" font-family="Helvetica" font-size="10.00">Loop: L0</text>
<text text-anchor="middle" x="3197.5" y="-582" font-family="Helvetica" font-size="10.00">&#45;&#45;&#45;</text>
<text text-anchor="middle" x="3197.5" y="-571" font-family="Helvetica" font-size="10.00">HotSpotMethod&lt;LoopBenchmarks.main(String[])&gt;</text>
</g>
<!-- b5&#45;&gt;b6 -->
<g id="edge10" class="edge">
<title>b5&#45;&gt;b6</title>
<path fill="none" stroke="black" d="M2968.3,-564.29C3000.9,-562.73 3036.47,-562.58 3069.62,-563.86"/>
<polygon fill="black" stroke="black" points="3069.68,-567.36 3079.82,-564.3 3069.98,-560.37 3069.68,-567.36"/>
</g>
<!-- b7 -->
<g id="node8" class="node">
<title>b7</title>
<polygon fill="white" stroke="black" stroke-width="4" points="3315,-487.5 3080,-487.5 3080,-402.5 3315,-402.5 3315,-487.5"/>
<polygon fill="none" stroke="black" stroke-width="4" points="3319,-491.5 3076,-491.5 3076,-398.5 3319,-398.5 3319,-491.5"/>
<text text-anchor="middle" x="3197.5" y="-475.5" font-family="Helvetica" font-size="10.00">B7</text>
<text text-anchor="middle" x="3197.5" y="-464.5" font-family="Helvetica" font-size="10.00">Loop: &lt;none&gt;</text>
<text text-anchor="middle" x="3197.5" y="-453.5" font-family="Helvetica" font-size="10.00">&#45;&#45;&#45;</text>
<text text-anchor="middle" x="3197.5" y="-442.5" font-family="Helvetica" font-size="10.00">HotSpotMethod&lt;LoopBenchmarks.main(String[])&gt;</text>
<text text-anchor="middle" x="3197.5" y="-431.5" font-family="Helvetica" font-size="10.00">&#45;&#45;&#45;</text>
<text text-anchor="middle" x="3197.5" y="-420.5" font-family="Helvetica" font-size="10.00">BuboLoopMakers:</text>
<text text-anchor="middle" x="3197.5" y="-409.5" font-family="Helvetica" font-size="10.00"> &#160;AMD64BuboRDTSCToSlot (LoopID=1)</text>
</g>
<!-- b5&#45;&gt;b7 -->
<g id="edge11" class="edge">
<title>b5&#45;&gt;b7</title>
<path fill="none" stroke="black" d="M2913.58,-563.91C2958.78,-544.91 3021.44,-518.57 3076.31,-495.52"/>
<polygon fill="black" stroke="black" points="3077.88,-498.65 3085.74,-491.55 3075.17,-492.2 3077.88,-498.65"/>
</g>
<!-- b6&#45;&gt;b5 -->
<g id="edge12" class="edge">
<title>b6&#45;&gt;b5</title>
<path fill="none" stroke="black" d="M3079.82,-615.7C3047.23,-617.27 3011.66,-617.42 2978.51,-616.15"/>
<polygon fill="black" stroke="black" points="2978.44,-612.64 2968.3,-615.71 2978.14,-619.64 2978.44,-612.64"/>
</g>
<!-- b8 -->
<g id="node9" class="node">
<title>b8</title>
<polygon fill="lightgreen" stroke="black" points="3662,-471 3427,-471 3427,-419 3662,-419 3662,-471"/>
<text text-anchor="middle" x="3544.5" y="-459" font-family="Helvetica" font-size="10.00">B8</text>
<text text-anchor="middle" x="3544.5" y="-448" font-family="Helvetica" font-size="10.00">Loop: L1</text>
<text text-anchor="middle" x="3544.5" y="-437" font-family="Helvetica" font-size="10.00">&#45;&#45;&#45;</text>
<text text-anchor="middle" x="3544.5" y="-426" font-family="Helvetica" font-size="10.00">HotSpotMethod&lt;LoopBenchmarks.main(String[])&gt;</text>
</g>
<!-- b7&#45;&gt;b8 -->
<g id="edge13" class="edge">
<title>b7&#45;&gt;b8</title>
<path fill="none" stroke="black" d="M3319.16,-445C3350.72,-445 3384.84,-445 3416.71,-445"/>
<polygon fill="black" stroke="black" points="3416.97,-448.5 3426.97,-445 3416.97,-441.5 3416.97,-448.5"/>
</g>
<!-- b9 -->
<g id="node10" class="node">
<title>b9</title>
<polygon fill="lightgreen" stroke="black" points="4009,-471 3774,-471 3774,-419 4009,-419 4009,-471"/>
<text text-anchor="middle" x="3891.5" y="-459" font-family="Helvetica" font-size="10.00">B9</text>
<text text-anchor="middle" x="3891.5" y="-448" font-family="Helvetica" font-size="10.00">Loop: L1</text>
<text text-anchor="middle" x="3891.5" y="-437" font-family="Helvetica" font-size="10.00">&#45;&#45;&#45;</text>
<text text-anchor="middle" x="3891.5" y="-426" font-family="Helvetica" font-size="10.00">HotSpotMethod&lt;LoopBenchmarks.main(String[])&gt;</text>
</g>
<!-- b8&#45;&gt;b9 -->
<g id="edge14" class="edge">
<title>b8&#45;&gt;b9</title>
<path fill="none" stroke="black" d="M3662.3,-419.29C3694.9,-417.73 3730.47,-417.58 3763.62,-418.86"/>
<polygon fill="black" stroke="black" points="3763.68,-422.36 3773.82,-419.3 3763.98,-415.37 3763.68,-422.36"/>
</g>
<!-- b10 -->
<g id="node11" class="node">
<title>b10</title>
<polygon fill="white" stroke="black" stroke-width="4" points="4009,-342.5 3774,-342.5 3774,-257.5 4009,-257.5 4009,-342.5"/>
<polygon fill="none" stroke="black" stroke-width="4" points="4013,-346.5 3770,-346.5 3770,-253.5 4013,-253.5 4013,-346.5"/>
<text text-anchor="middle" x="3891.5" y="-330.5" font-family="Helvetica" font-size="10.00">B10</text>
<text text-anchor="middle" x="3891.5" y="-319.5" font-family="Helvetica" font-size="10.00">Loop: &lt;none&gt;</text>
<text text-anchor="middle" x="3891.5" y="-308.5" font-family="Helvetica" font-size="10.00">&#45;&#45;&#45;</text>
<text text-anchor="middle" x="3891.5" y="-297.5" font-family="Helvetica" font-size="10.00">HotSpotMethod&lt;LoopBenchmarks.main(String[])&gt;</text>
<text text-anchor="middle" x="3891.5" y="-286.5" font-family="Helvetica" font-size="10.00">&#45;&#45;&#45;</text>
<text text-anchor="middle" x="3891.5" y="-275.5" font-family="Helvetica" font-size="10.00">BuboLoopMakers:</text>
<text text-anchor="middle" x="3891.5" y="-264.5" font-family="Helvetica" font-size="10.00"> &#160;AMD64BuboRDTSCToSlot (LoopID=2)</text>
</g>
<!-- b8&#45;&gt;b10 -->
<g id="edge15" class="edge">
<title>b8&#45;&gt;b10</title>
<path fill="none" stroke="black" d="M3607.58,-418.91C3652.78,-399.91 3715.44,-373.57 3770.31,-350.52"/>
<polygon fill="black" stroke="black" points="3771.88,-353.65 3779.74,-346.55 3769.17,-347.2 3771.88,-353.65"/>
</g>
<!-- b9&#45;&gt;b8 -->
<g id="edge16" class="edge">
<title>b9&#45;&gt;b8</title>
<path fill="none" stroke="black" d="M3773.82,-470.7C3741.23,-472.27 3705.66,-472.42 3672.51,-471.15"/>
<polygon fill="black" stroke="black" points="3672.44,-467.64 3662.3,-470.71 3672.14,-474.64 3672.44,-467.64"/>
</g>
<!-- b11 -->
<g id="node12" class="node">
<title>b11</title>
<polygon fill="lightpink" stroke="black" points="4356,-326 4121,-326 4121,-274 4356,-274 4356,-326"/>
<text text-anchor="middle" x="4238.5" y="-314" font-family="Helvetica" font-size="10.00">B11</text>
<text text-anchor="middle" x="4238.5" y="-303" font-family="Helvetica" font-size="10.00">Loop: L2</text>
<text text-anchor="middle" x="4238.5" y="-292" font-family="Helvetica" font-size="10.00">&#45;&#45;&#45;</text>
<text text-anchor="middle" x="4238.5" y="-281" font-family="Helvetica" font-size="10.00">HotSpotMethod&lt;LoopBenchmarks.main(String[])&gt;</text>
</g>
<!-- b10&#45;&gt;b11 -->
<g id="edge17" class="edge">
<title>b10&#45;&gt;b11</title>
<path fill="none" stroke="black" d="M4013.16,-300C4044.72,-300 4078.84,-300 4110.71,-300"/>
<polygon fill="black" stroke="black" points="4110.97,-303.5 4120.97,-300 4110.97,-296.5 4110.97,-303.5"/>
</g>
<!-- b12 -->
<g id="node13" class="node">
<title>b12</title>
<polygon fill="lightpink" stroke="black" points="4699,-326 4464,-326 4464,-274 4699,-274 4699,-326"/>
<text text-anchor="middle" x="4581.5" y="-314" font-family="Helvetica" font-size="10.00">B12</text>
<text text-anchor="middle" x="4581.5" y="-303" font-family="Helvetica" font-size="10.00">Loop: L2</text>
<text text-anchor="middle" x="4581.5" y="-292" font-family="Helvetica" font-size="10.00">&#45;&#45;&#45;</text>
<text text-anchor="middle" x="4581.5" y="-281" font-family="Helvetica" font-size="10.00">HotSpotMethod&lt;LoopBenchmarks.main(String[])&gt;</text>
</g>
<!-- b11&#45;&gt;b12 -->
<g id="edge18" class="edge">
<title>b11&#45;&gt;b12</title>
<path fill="none" stroke="black" d="M4356.38,-274.22C4387.69,-272.75 4421.69,-272.61 4453.52,-273.8"/>
<polygon fill="black" stroke="black" points="4453.64,-277.31 4463.78,-274.23 4453.93,-270.31 4453.64,-277.31"/>
</g>
<!-- b13 -->
<g id="node14" class="node">
<title>b13</title>
<polygon fill="white" stroke="black" points="4699,-202 4464,-202 4464,-150 4699,-150 4699,-202"/>
<text text-anchor="middle" x="4581.5" y="-190" font-family="Helvetica" font-size="10.00">B13</text>
<text text-anchor="middle" x="4581.5" y="-179" font-family="Helvetica" font-size="10.00">Loop: &lt;none&gt;</text>
<text text-anchor="middle" x="4581.5" y="-168" font-family="Helvetica" font-size="10.00">&#45;&#45;&#45;</text>
<text text-anchor="middle" x="4581.5" y="-157" font-family="Helvetica" font-size="10.00">HotSpotMethod&lt;LoopBenchmarks.main(String[])&gt;</text>
</g>
<!-- b11&#45;&gt;b13 -->
<g id="edge19" class="edge">
<title>b11&#45;&gt;b13</title>
<path fill="none" stroke="black" d="M4311.4,-273.85C4366.35,-253.87 4442.13,-226.32 4499.27,-205.54"/>
<polygon fill="black" stroke="black" points="4500.79,-208.71 4508.99,-202 4498.4,-202.13 4500.79,-208.71"/>
</g>
<!-- b12&#45;&gt;b11 -->
<g id="edge20" class="edge">
<title>b12&#45;&gt;b11</title>
<path fill="none" stroke="black" d="M4463.78,-325.77C4432.47,-327.25 4398.47,-327.39 4366.63,-326.21"/>
<polygon fill="black" stroke="black" points="4366.51,-322.7 4356.38,-325.78 4366.22,-329.69 4366.51,-322.7"/>
</g>
<!-- b18 -->
<g id="node19" class="node">
<title>b18</title>
<polygon fill="white" stroke="black" points="2968,-263 2733,-263 2733,-211 2968,-211 2968,-263"/>
<text text-anchor="middle" x="2850.5" y="-251" font-family="Helvetica" font-size="10.00">B18</text>
<text text-anchor="middle" x="2850.5" y="-240" font-family="Helvetica" font-size="10.00">Loop: &lt;none&gt;</text>
<text text-anchor="middle" x="2850.5" y="-229" font-family="Helvetica" font-size="10.00">&#45;&#45;&#45;</text>
<text text-anchor="middle" x="2850.5" y="-218" font-family="Helvetica" font-size="10.00">HotSpotMethod&lt;LoopBenchmarks.main(String[])&gt;</text>
</g>
<!-- b14&#45;&gt;b18 -->
<g id="edge21" class="edge">
<title>b14&#45;&gt;b18</title>
<path fill="none" stroke="black" d="M2547.85,-418.87C2611.32,-380.6 2729.4,-309.41 2797.47,-268.37"/>
<polygon fill="black" stroke="black" points="2799.58,-271.19 2806.33,-263.03 2795.96,-265.19 2799.58,-271.19"/>
</g>
<!-- b15&#45;&gt;b18 -->
<g id="edge22" class="edge">
<title>b15&#45;&gt;b18</title>
<path fill="none" stroke="black" d="M2274.11,-297.7C2398.43,-284.58 2594.66,-263.88 2722.74,-250.37"/>
<polygon fill="black" stroke="black" points="2723.42,-253.82 2732.99,-249.29 2722.68,-246.86 2723.42,-253.82"/>
</g>
<!-- b16&#45;&gt;b18 -->
<g id="edge23" class="edge">
<title>b16&#45;&gt;b18</title>
<path fill="none" stroke="black" d="M1931.22,-172.23C2127.09,-186.05 2520.33,-213.78 2722.73,-228.06"/>
<polygon fill="black" stroke="black" points="2722.59,-231.56 2732.81,-228.77 2723.09,-224.58 2722.59,-231.56"/>
</g>
<!-- b17&#45;&gt;b18 -->
<g id="edge24" class="edge">
<title>b17&#45;&gt;b18</title>
<path fill="none" stroke="black" d="M1335.83,-34.88C1577.64,-54.26 2150.12,-105.24 2625,-187 2660.1,-193.04 2697.99,-200.95 2732.47,-208.68"/>
<polygon fill="black" stroke="black" points="2732.05,-212.17 2742.58,-210.96 2733.6,-205.34 2732.05,-212.17"/>
</g>
</g>
</svg>
