<?xml version="1.0" encoding="UTF-8" standalone="no"?>
<!DOCTYPE svg PUBLIC "-//W3C//DTD SVG 1.1//EN"
 "http://www.w3.org/Graphics/SVG/1.1/DTD/svg11.dtd">
<!-- Generated by graphviz version 2.44.0 (0)
 -->
<!-- Title: CFG_151 Pages: 1 -->
<svg width="3948pt" height="417pt"
 viewBox="0.00 0.00 3948.00 416.66" xmlns="http://www.w3.org/2000/svg" xmlns:xlink="http://www.w3.org/1999/xlink">
<g id="graph0" class="graph" transform="scale(1 1) rotate(0) translate(4 412.66)">
<title>CFG_151</title>
<polygon fill="white" stroke="transparent" points="-4,4 -4,-412.66 3944,-412.66 3944,4 -4,4"/>
<text text-anchor="middle" x="257" y="-388.66" font-family="Times-Roman" font-size="20.00">216&#45;LoopBenchmarks.monteCarloPiLoop(long, int)</text>
<!-- b0 -->
<g id="node1" class="node">
<title>b0</title>
<polygon fill="white" stroke="black" points="296,-248.66 0,-248.66 0,-196.66 296,-196.66 296,-248.66"/>
<text text-anchor="middle" x="148" y="-236.66" font-family="Helvetica" font-size="10.00">B0</text>
<text text-anchor="middle" x="148" y="-225.66" font-family="Helvetica" font-size="10.00">Loop: &lt;none&gt;</text>
<text text-anchor="middle" x="148" y="-214.66" font-family="Helvetica" font-size="10.00">&#45;&#45;&#45;</text>
<text text-anchor="middle" x="148" y="-203.66" font-family="Helvetica" font-size="10.00">HotSpotMethod&lt;LoopBenchmarks.monteCarloPiLoop(long, int)&gt;</text>
</g>
<!-- b1 -->
<g id="node2" class="node">
<title>b1</title>
<polygon fill="white" stroke="black" points="700,-310.66 404,-310.66 404,-258.66 700,-258.66 700,-310.66"/>
<text text-anchor="middle" x="552" y="-298.66" font-family="Helvetica" font-size="10.00">B1</text>
<text text-anchor="middle" x="552" y="-287.66" font-family="Helvetica" font-size="10.00">Loop: &lt;none&gt;</text>
<text text-anchor="middle" x="552" y="-276.66" font-family="Helvetica" font-size="10.00">&#45;&#45;&#45;</text>
<text text-anchor="middle" x="552" y="-265.66" font-family="Helvetica" font-size="10.00">HotSpotMethod&lt;LoopBenchmarks.monteCarloPiLoop(long, int)&gt;</text>
</g>
<!-- b0&#45;&gt;b1 -->
<g id="edge1" class="edge">
<title>b0&#45;&gt;b1</title>
<path fill="none" stroke="black" d="M296.12,-245.35C327.92,-250.25 361.66,-255.46 393.82,-260.42"/>
<polygon fill="black" stroke="black" points="393.33,-263.88 403.75,-261.95 394.4,-256.96 393.33,-263.88"/>
</g>
<!-- b15 -->
<g id="node16" class="node">
<title>b15</title>
<polygon fill="white" stroke="black" points="700,-186.66 404,-186.66 404,-134.66 700,-134.66 700,-186.66"/>
<text text-anchor="middle" x="552" y="-174.66" font-family="Helvetica" font-size="10.00">B15</text>
<text text-anchor="middle" x="552" y="-163.66" font-family="Helvetica" font-size="10.00">Loop: &lt;none&gt;</text>
<text text-anchor="middle" x="552" y="-152.66" font-family="Helvetica" font-size="10.00">&#45;&#45;&#45;</text>
<text text-anchor="middle" x="552" y="-141.66" font-family="Helvetica" font-size="10.00">HotSpotMethod&lt;LoopBenchmarks.monteCarloPiLoop(long, int)&gt;</text>
</g>
<!-- b0&#45;&gt;b15 -->
<g id="edge2" class="edge">
<title>b0&#45;&gt;b15</title>
<path fill="none" stroke="black" d="M296.12,-199.97C327.92,-195.06 361.66,-189.86 393.82,-184.9"/>
<polygon fill="black" stroke="black" points="394.4,-188.35 403.75,-183.37 393.33,-181.43 394.4,-188.35"/>
</g>
<!-- b3 -->
<g id="node4" class="node">
<title>b3</title>
<polygon fill="white" stroke="black" points="1104,-378.66 808,-378.66 808,-326.66 1104,-326.66 1104,-378.66"/>
<text text-anchor="middle" x="956" y="-366.66" font-family="Helvetica" font-size="10.00">B3</text>
<text text-anchor="middle" x="956" y="-355.66" font-family="Helvetica" font-size="10.00">Loop: &lt;none&gt;</text>
<text text-anchor="middle" x="956" y="-344.66" font-family="Helvetica" font-size="10.00">&#45;&#45;&#45;</text>
<text text-anchor="middle" x="956" y="-333.66" font-family="Helvetica" font-size="10.00">HotSpotMethod&lt;LoopBenchmarks.monteCarloPiLoop(long, int)&gt;</text>
</g>
<!-- b1&#45;&gt;b3 -->
<g id="edge4" class="edge">
<title>b1&#45;&gt;b3</title>
<path fill="none" stroke="black" d="M700.12,-309.54C731.92,-314.92 765.66,-320.63 797.82,-326.07"/>
<polygon fill="black" stroke="black" points="797.31,-329.53 807.75,-327.75 798.47,-322.63 797.31,-329.53"/>
</g>
<!-- b4 -->
<g id="node5" class="node">
<title>b4</title>
<polygon fill="white" stroke="black" points="1508,-243.66 1212,-243.66 1212,-191.66 1508,-191.66 1508,-243.66"/>
<text text-anchor="middle" x="1360" y="-231.66" font-family="Helvetica" font-size="10.00">B4</text>
<text text-anchor="middle" x="1360" y="-220.66" font-family="Helvetica" font-size="10.00">Loop: &lt;none&gt;</text>
<text text-anchor="middle" x="1360" y="-209.66" font-family="Helvetica" font-size="10.00">&#45;&#45;&#45;</text>
<text text-anchor="middle" x="1360" y="-198.66" font-family="Helvetica" font-size="10.00">HotSpotMethod&lt;LoopBenchmarks.monteCarloPiLoop(long, int)&gt;</text>
</g>
<!-- b1&#45;&gt;b4 -->
<g id="edge3" class="edge">
<title>b1&#45;&gt;b4</title>
<path fill="none" stroke="black" d="M700.36,-272.41C842.32,-260.61 1056.35,-242.82 1201.59,-230.74"/>
<polygon fill="black" stroke="black" points="1202.25,-234.2 1211.93,-229.88 1201.67,-227.22 1202.25,-234.2"/>
</g>
<!-- b2 -->
<g id="node3" class="node">
<title>b2</title>
<polygon fill="white" stroke="black" points="1104,-108.66 808,-108.66 808,-56.66 1104,-56.66 1104,-108.66"/>
<text text-anchor="middle" x="956" y="-96.66" font-family="Helvetica" font-size="10.00">B2</text>
<text text-anchor="middle" x="956" y="-85.66" font-family="Helvetica" font-size="10.00">Loop: &lt;none&gt;</text>
<text text-anchor="middle" x="956" y="-74.66" font-family="Helvetica" font-size="10.00">&#45;&#45;&#45;</text>
<text text-anchor="middle" x="956" y="-63.66" font-family="Helvetica" font-size="10.00">HotSpotMethod&lt;LoopBenchmarks.monteCarloPiLoop(long, int)&gt;</text>
</g>
<!-- b2&#45;&gt;b4 -->
<g id="edge5" class="edge">
<title>b2&#45;&gt;b4</title>
<path fill="none" stroke="black" d="M1034.51,-108.69C1102.39,-131.48 1200.94,-164.58 1271.61,-188.31"/>
<polygon fill="black" stroke="black" points="1270.79,-191.73 1281.39,-191.59 1273.02,-185.09 1270.79,-191.73"/>
</g>
<!-- b3&#45;&gt;b4 -->
<g id="edge6" class="edge">
<title>b3&#45;&gt;b4</title>
<path fill="none" stroke="black" d="M1034.51,-326.63C1102.39,-303.83 1200.94,-270.74 1271.61,-247.01"/>
<polygon fill="black" stroke="black" points="1273.02,-250.22 1281.39,-243.72 1270.79,-243.59 1273.02,-250.22"/>
</g>
<!-- b5 -->
<g id="node6" class="node">
<title>b5</title>
<polygon fill="white" stroke="black" points="1912,-305.66 1616,-305.66 1616,-253.66 1912,-253.66 1912,-305.66"/>
<text text-anchor="middle" x="1764" y="-293.66" font-family="Helvetica" font-size="10.00">B5</text>
<text text-anchor="middle" x="1764" y="-282.66" font-family="Helvetica" font-size="10.00">Loop: &lt;none&gt;</text>
<text text-anchor="middle" x="1764" y="-271.66" font-family="Helvetica" font-size="10.00">&#45;&#45;&#45;</text>
<text text-anchor="middle" x="1764" y="-260.66" font-family="Helvetica" font-size="10.00">HotSpotMethod&lt;LoopBenchmarks.monteCarloPiLoop(long, int)&gt;</text>
</g>
<!-- b4&#45;&gt;b5 -->
<g id="edge7" class="edge">
<title>b4&#45;&gt;b5</title>
<path fill="none" stroke="black" d="M1508.12,-240.35C1539.92,-245.25 1573.66,-250.46 1605.82,-255.42"/>
<polygon fill="black" stroke="black" points="1605.33,-258.88 1615.75,-256.95 1606.4,-251.96 1605.33,-258.88"/>
</g>
<!-- b14 -->
<g id="node15" class="node">
<title>b14</title>
<polygon fill="white" stroke="black" points="1912,-181.66 1616,-181.66 1616,-129.66 1912,-129.66 1912,-181.66"/>
<text text-anchor="middle" x="1764" y="-169.66" font-family="Helvetica" font-size="10.00">B14</text>
<text text-anchor="middle" x="1764" y="-158.66" font-family="Helvetica" font-size="10.00">Loop: &lt;none&gt;</text>
<text text-anchor="middle" x="1764" y="-147.66" font-family="Helvetica" font-size="10.00">&#45;&#45;&#45;</text>
<text text-anchor="middle" x="1764" y="-136.66" font-family="Helvetica" font-size="10.00">HotSpotMethod&lt;LoopBenchmarks.monteCarloPiLoop(long, int)&gt;</text>
</g>
<!-- b4&#45;&gt;b14 -->
<g id="edge8" class="edge">
<title>b4&#45;&gt;b14</title>
<path fill="none" stroke="black" d="M1508.12,-194.97C1539.92,-190.06 1573.66,-184.86 1605.82,-179.9"/>
<polygon fill="black" stroke="black" points="1606.4,-183.35 1615.75,-178.37 1605.33,-176.43 1606.4,-183.35"/>
</g>
<!-- b7 -->
<g id="node8" class="node">
<title>b7</title>
<polygon fill="white" stroke="black" points="2316,-373.66 2020,-373.66 2020,-321.66 2316,-321.66 2316,-373.66"/>
<text text-anchor="middle" x="2168" y="-361.66" font-family="Helvetica" font-size="10.00">B7</text>
<text text-anchor="middle" x="2168" y="-350.66" font-family="Helvetica" font-size="10.00">Loop: &lt;none&gt;</text>
<text text-anchor="middle" x="2168" y="-339.66" font-family="Helvetica" font-size="10.00">&#45;&#45;&#45;</text>
<text text-anchor="middle" x="2168" y="-328.66" font-family="Helvetica" font-size="10.00">HotSpotMethod&lt;LoopBenchmarks.monteCarloPiLoop(long, int)&gt;</text>
</g>
<!-- b5&#45;&gt;b7 -->
<g id="edge10" class="edge">
<title>b5&#45;&gt;b7</title>
<path fill="none" stroke="black" d="M1912.12,-304.54C1943.92,-309.92 1977.66,-315.63 2009.82,-321.07"/>
<polygon fill="black" stroke="black" points="2009.31,-324.53 2019.75,-322.75 2010.47,-317.63 2009.31,-324.53"/>
</g>
<!-- b8 -->
<g id="node9" class="node">
<title>b8</title>
<polygon fill="white" stroke="black" stroke-width="4" points="2724,-255.16 2428,-255.16 2428,-170.16 2724,-170.16 2724,-255.16"/>
<polygon fill="none" stroke="black" stroke-width="4" points="2728,-259.16 2424,-259.16 2424,-166.16 2728,-166.16 2728,-259.16"/>
<text text-anchor="middle" x="2576" y="-243.16" font-family="Helvetica" font-size="10.00">B8</text>
<text text-anchor="middle" x="2576" y="-232.16" font-family="Helvetica" font-size="10.00">Loop: &lt;none&gt;</text>
<text text-anchor="middle" x="2576" y="-221.16" font-family="Helvetica" font-size="10.00">&#45;&#45;&#45;</text>
<text text-anchor="middle" x="2576" y="-210.16" font-family="Helvetica" font-size="10.00">HotSpotMethod&lt;LoopBenchmarks.monteCarloPiLoop(long, int)&gt;</text>
<text text-anchor="middle" x="2576" y="-199.16" font-family="Helvetica" font-size="10.00">&#45;&#45;&#45;</text>
<text text-anchor="middle" x="2576" y="-188.16" font-family="Helvetica" font-size="10.00">BuboLoopMakers:</text>
<text text-anchor="middle" x="2576" y="-177.16" font-family="Helvetica" font-size="10.00"> &#160;AMD64BuboRDTSCToSlot (LoopID=0)</text>
</g>
<!-- b5&#45;&gt;b8 -->
<g id="edge9" class="edge">
<title>b5&#45;&gt;b8</title>
<path fill="none" stroke="black" d="M1912.15,-267.49C2053.83,-255.77 2267.56,-238.09 2413.78,-225.99"/>
<polygon fill="black" stroke="black" points="2414.07,-229.48 2423.75,-225.17 2413.49,-222.5 2414.07,-229.48"/>
</g>
<!-- b6 -->
<g id="node7" class="node">
<title>b6</title>
<polygon fill="white" stroke="black" points="2316,-103.66 2020,-103.66 2020,-51.66 2316,-51.66 2316,-103.66"/>
<text text-anchor="middle" x="2168" y="-91.66" font-family="Helvetica" font-size="10.00">B6</text>
<text text-anchor="middle" x="2168" y="-80.66" font-family="Helvetica" font-size="10.00">Loop: &lt;none&gt;</text>
<text text-anchor="middle" x="2168" y="-69.66" font-family="Helvetica" font-size="10.00">&#45;&#45;&#45;</text>
<text text-anchor="middle" x="2168" y="-58.66" font-family="Helvetica" font-size="10.00">HotSpotMethod&lt;LoopBenchmarks.monteCarloPiLoop(long, int)&gt;</text>
</g>
<!-- b6&#45;&gt;b8 -->
<g id="edge11" class="edge">
<title>b6&#45;&gt;b8</title>
<path fill="none" stroke="black" d="M2247.28,-103.69C2297.7,-120.45 2364.87,-142.79 2425.27,-162.87"/>
<polygon fill="black" stroke="black" points="2424.31,-166.24 2434.9,-166.07 2426.52,-159.6 2424.31,-166.24"/>
</g>
<!-- b7&#45;&gt;b8 -->
<g id="edge12" class="edge">
<title>b7&#45;&gt;b8</title>
<path fill="none" stroke="black" d="M2247.28,-321.63C2297.7,-304.86 2364.87,-282.53 2425.27,-262.44"/>
<polygon fill="black" stroke="black" points="2426.52,-265.72 2434.9,-259.24 2424.31,-259.08 2426.52,-265.72"/>
</g>
<!-- b9 -->
<g id="node10" class="node">
<title>b9</title>
<polygon fill="lightblue" stroke="black" points="3132,-165.66 2836,-165.66 2836,-113.66 3132,-113.66 3132,-165.66"/>
<text text-anchor="middle" x="2984" y="-153.66" font-family="Helvetica" font-size="10.00">B9</text>
<text text-anchor="middle" x="2984" y="-142.66" font-family="Helvetica" font-size="10.00">Loop: L0</text>
<text text-anchor="middle" x="2984" y="-131.66" font-family="Helvetica" font-size="10.00">&#45;&#45;&#45;</text>
<text text-anchor="middle" x="2984" y="-120.66" font-family="Helvetica" font-size="10.00">HotSpotMethod&lt;LoopBenchmarks.monteCarloPiLoop(long, int)&gt;</text>
</g>
<!-- b8&#45;&gt;b9 -->
<g id="edge13" class="edge">
<title>b8&#45;&gt;b9</title>
<path fill="none" stroke="black" d="M2728.18,-185.48C2760.77,-179.62 2795.27,-173.41 2828,-167.53"/>
<polygon fill="black" stroke="black" points="2828.87,-170.93 2838.09,-165.71 2827.63,-164.04 2828.87,-170.93"/>
</g>
<!-- b10 -->
<g id="node11" class="node">
<title>b10</title>
<polygon fill="lightblue" stroke="black" points="3536,-227.66 3240,-227.66 3240,-175.66 3536,-175.66 3536,-227.66"/>
<text text-anchor="middle" x="3388" y="-215.66" font-family="Helvetica" font-size="10.00">B10</text>
<text text-anchor="middle" x="3388" y="-204.66" font-family="Helvetica" font-size="10.00">Loop: L0</text>
<text text-anchor="middle" x="3388" y="-193.66" font-family="Helvetica" font-size="10.00">&#45;&#45;&#45;</text>
<text text-anchor="middle" x="3388" y="-182.66" font-family="Helvetica" font-size="10.00">HotSpotMethod&lt;LoopBenchmarks.monteCarloPiLoop(long, int)&gt;</text>
</g>
<!-- b9&#45;&gt;b10 -->
<g id="edge14" class="edge">
<title>b9&#45;&gt;b10</title>
<path fill="none" stroke="black" d="M3132.12,-136.23C3199.94,-144.42 3276.59,-158.35 3327.97,-172.77"/>
<polygon fill="black" stroke="black" points="3327,-176.13 3337.58,-175.56 3328.95,-169.41 3327,-176.13"/>
</g>
<!-- b13 -->
<g id="node14" class="node">
<title>b13</title>
<polygon fill="white" stroke="black" points="3536,-103.66 3240,-103.66 3240,-51.66 3536,-51.66 3536,-103.66"/>
<text text-anchor="middle" x="3388" y="-91.66" font-family="Helvetica" font-size="10.00">B13</text>
<text text-anchor="middle" x="3388" y="-80.66" font-family="Helvetica" font-size="10.00">Loop: &lt;none&gt;</text>
<text text-anchor="middle" x="3388" y="-69.66" font-family="Helvetica" font-size="10.00">&#45;&#45;&#45;</text>
<text text-anchor="middle" x="3388" y="-58.66" font-family="Helvetica" font-size="10.00">HotSpotMethod&lt;LoopBenchmarks.monteCarloPiLoop(long, int)&gt;</text>
</g>
<!-- b9&#45;&gt;b13 -->
<g id="edge15" class="edge">
<title>b9&#45;&gt;b13</title>
<path fill="none" stroke="black" d="M3132.12,-116.97C3163.92,-112.06 3197.66,-106.86 3229.82,-101.9"/>
<polygon fill="black" stroke="black" points="3230.4,-105.35 3239.75,-100.37 3229.33,-98.43 3230.4,-105.35"/>
</g>
<!-- b10&#45;&gt;b9 -->
<g id="edge16" class="edge">
<title>b10&#45;&gt;b9</title>
<path fill="none" stroke="black" d="M3239.86,-205.08C3171.99,-196.89 3095.27,-182.94 3043.9,-168.51"/>
<polygon fill="black" stroke="black" points="3044.87,-165.15 3034.29,-165.72 3042.92,-171.87 3044.87,-165.15"/>
</g>
<!-- b12 -->
<g id="node13" class="node">
<title>b12</title>
<polygon fill="lightblue" stroke="black" points="3940,-97.66 3644,-97.66 3644,-45.66 3940,-45.66 3940,-97.66"/>
<text text-anchor="middle" x="3792" y="-85.66" font-family="Helvetica" font-size="10.00">B12</text>
<text text-anchor="middle" x="3792" y="-74.66" font-family="Helvetica" font-size="10.00">Loop: L0</text>
<text text-anchor="middle" x="3792" y="-63.66" font-family="Helvetica" font-size="10.00">&#45;&#45;&#45;</text>
<text text-anchor="middle" x="3792" y="-52.66" font-family="Helvetica" font-size="10.00">HotSpotMethod&lt;LoopBenchmarks.monteCarloPiLoop(long, int)&gt;</text>
</g>
<!-- b10&#45;&gt;b12 -->
<g id="edge17" class="edge">
<title>b10&#45;&gt;b12</title>
<path fill="none" stroke="black" d="M3469.87,-175.51C3536.66,-153.91 3631.4,-123.27 3700.66,-100.87"/>
<polygon fill="black" stroke="black" points="3701.82,-104.17 3710.26,-97.77 3699.67,-97.51 3701.82,-104.17"/>
</g>
<!-- b11 -->
<g id="node12" class="node">
<title>b11</title>
<polygon fill="lightblue" stroke="black" points="2724,-93.66 2428,-93.66 2428,-41.66 2724,-41.66 2724,-93.66"/>
<text text-anchor="middle" x="2576" y="-81.66" font-family="Helvetica" font-size="10.00">B11</text>
<text text-anchor="middle" x="2576" y="-70.66" font-family="Helvetica" font-size="10.00">Loop: L0</text>
<text text-anchor="middle" x="2576" y="-59.66" font-family="Helvetica" font-size="10.00">&#45;&#45;&#45;</text>
<text text-anchor="middle" x="2576" y="-48.66" font-family="Helvetica" font-size="10.00">HotSpotMethod&lt;LoopBenchmarks.monteCarloPiLoop(long, int)&gt;</text>
</g>
<!-- b11&#45;&gt;b9 -->
<g id="edge18" class="edge">
<title>b11&#45;&gt;b9</title>
<path fill="none" stroke="black" d="M2723.86,-93.7C2757.13,-99.6 2792.58,-105.89 2826.24,-111.86"/>
<polygon fill="black" stroke="black" points="2825.7,-115.32 2836.16,-113.62 2826.92,-108.42 2825.7,-115.32"/>
</g>
<!-- b12&#45;&gt;b9 -->
<g id="edge19" class="edge">
<title>b12&#45;&gt;b9</title>
<path fill="none" stroke="black" d="M3704.02,-45.54C3594.5,-16.58 3401.17,21.45 3240,-15.66 3163.07,-33.37 3082.45,-77.55 3032.96,-108.09"/>
<polygon fill="black" stroke="black" points="3031.02,-105.17 3024.39,-113.44 3034.72,-111.11 3031.02,-105.17"/>
</g>
</g>
</svg>
