<?xml version="1.0" encoding="UTF-8" standalone="no"?>
<!DOCTYPE svg PUBLIC "-//W3C//DTD SVG 1.1//EN"
 "http://www.w3.org/Graphics/SVG/1.1/DTD/svg11.dtd">
<!-- Generated by graphviz version 2.44.0 (0)
 -->
<!-- Title: CFG_110 Pages: 1 -->
<svg width="3552pt" height="447pt"
 viewBox="0.00 0.00 3552.00 447.00" xmlns="http://www.w3.org/2000/svg" xmlns:xlink="http://www.w3.org/1999/xlink">
<g id="graph0" class="graph" transform="scale(1 1) rotate(0) translate(4 443)">
<title>CFG_110</title>
<polygon fill="white" stroke="transparent" points="-4,4 -4,-443 3548,-443 3548,4 -4,4"/>
<text text-anchor="middle" x="208.5" y="-419" font-family="Times-Roman" font-size="20.00">168&#45;LoopBenchmarks.fibonacciLoop(int)</text>
<!-- b0 -->
<g id="node1" class="node">
<title>b0</title>
<polygon fill="white" stroke="black" points="254,-351 0,-351 0,-299 254,-299 254,-351"/>
<text text-anchor="middle" x="127" y="-339" font-family="Helvetica" font-size="10.00">B0</text>
<text text-anchor="middle" x="127" y="-328" font-family="Helvetica" font-size="10.00">Loop: &lt;none&gt;</text>
<text text-anchor="middle" x="127" y="-317" font-family="Helvetica" font-size="10.00">&#45;&#45;&#45;</text>
<text text-anchor="middle" x="127" y="-306" font-family="Helvetica" font-size="10.00">HotSpotMethod&lt;LoopBenchmarks.fibonacciLoop(int)&gt;</text>
</g>
<!-- b1 -->
<g id="node2" class="node">
<title>b1</title>
<polygon fill="white" stroke="black" points="1348,-409 1094,-409 1094,-357 1348,-357 1348,-409"/>
<text text-anchor="middle" x="1221" y="-397" font-family="Helvetica" font-size="10.00">B1</text>
<text text-anchor="middle" x="1221" y="-386" font-family="Helvetica" font-size="10.00">Loop: &lt;none&gt;</text>
<text text-anchor="middle" x="1221" y="-375" font-family="Helvetica" font-size="10.00">&#45;&#45;&#45;</text>
<text text-anchor="middle" x="1221" y="-364" font-family="Helvetica" font-size="10.00">HotSpotMethod&lt;LoopBenchmarks.fibonacciLoop(int)&gt;</text>
</g>
<!-- b0&#45;&gt;b1 -->
<g id="edge1" class="edge">
<title>b0&#45;&gt;b1</title>
<path fill="none" stroke="black" d="M254.07,-331.7C460.92,-342.68 870.66,-364.45 1083.89,-375.77"/>
<polygon fill="black" stroke="black" points="1083.72,-379.27 1093.89,-376.3 1084.09,-372.28 1083.72,-379.27"/>
</g>
<!-- b2 -->
<g id="node3" class="node">
<title>b2</title>
<polygon fill="white" stroke="black" points="616,-284 362,-284 362,-232 616,-232 616,-284"/>
<text text-anchor="middle" x="489" y="-272" font-family="Helvetica" font-size="10.00">B2</text>
<text text-anchor="middle" x="489" y="-261" font-family="Helvetica" font-size="10.00">Loop: &lt;none&gt;</text>
<text text-anchor="middle" x="489" y="-250" font-family="Helvetica" font-size="10.00">&#45;&#45;&#45;</text>
<text text-anchor="middle" x="489" y="-239" font-family="Helvetica" font-size="10.00">HotSpotMethod&lt;LoopBenchmarks.fibonacciLoop(int)&gt;</text>
</g>
<!-- b0&#45;&gt;b2 -->
<g id="edge2" class="edge">
<title>b0&#45;&gt;b2</title>
<path fill="none" stroke="black" d="M254.16,-301.52C285.76,-295.64 319.79,-289.31 351.84,-283.34"/>
<polygon fill="black" stroke="black" points="352.53,-286.77 361.72,-281.5 351.25,-279.89 352.53,-286.77"/>
</g>
<!-- b14 -->
<g id="node15" class="node">
<title>b14</title>
<polygon fill="white" stroke="black" points="3544,-222 3290,-222 3290,-170 3544,-170 3544,-222"/>
<text text-anchor="middle" x="3417" y="-210" font-family="Helvetica" font-size="10.00">B14</text>
<text text-anchor="middle" x="3417" y="-199" font-family="Helvetica" font-size="10.00">Loop: &lt;none&gt;</text>
<text text-anchor="middle" x="3417" y="-188" font-family="Helvetica" font-size="10.00">&#45;&#45;&#45;</text>
<text text-anchor="middle" x="3417" y="-177" font-family="Helvetica" font-size="10.00">HotSpotMethod&lt;LoopBenchmarks.fibonacciLoop(int)&gt;</text>
</g>
<!-- b1&#45;&gt;b14 -->
<g id="edge3" class="edge">
<title>b1&#45;&gt;b14</title>
<path fill="none" stroke="black" d="M1348.27,-380.5C1493.8,-377.84 1740.18,-374 1952,-374 1952,-374 1952,-374 2686,-374 2933.21,-374 3214.45,-276.46 3343.87,-225.79"/>
<polygon fill="black" stroke="black" points="3345.28,-228.99 3353.3,-222.07 3342.71,-222.48 3345.28,-228.99"/>
</g>
<!-- b3 -->
<g id="node4" class="node">
<title>b3</title>
<polygon fill="white" stroke="black" points="982,-284 728,-284 728,-232 982,-232 982,-284"/>
<text text-anchor="middle" x="855" y="-272" font-family="Helvetica" font-size="10.00">B3</text>
<text text-anchor="middle" x="855" y="-261" font-family="Helvetica" font-size="10.00">Loop: &lt;none&gt;</text>
<text text-anchor="middle" x="855" y="-250" font-family="Helvetica" font-size="10.00">&#45;&#45;&#45;</text>
<text text-anchor="middle" x="855" y="-239" font-family="Helvetica" font-size="10.00">HotSpotMethod&lt;LoopBenchmarks.fibonacciLoop(int)&gt;</text>
</g>
<!-- b2&#45;&gt;b3 -->
<g id="edge4" class="edge">
<title>b2&#45;&gt;b3</title>
<path fill="none" stroke="black" d="M616.03,-258C648.8,-258 684.24,-258 717.52,-258"/>
<polygon fill="black" stroke="black" points="717.77,-261.5 727.77,-258 717.77,-254.5 717.77,-261.5"/>
</g>
<!-- b4 -->
<g id="node5" class="node">
<title>b4</title>
<polygon fill="white" stroke="black" stroke-width="4" points="982,-155.5 728,-155.5 728,-70.5 982,-70.5 982,-155.5"/>
<polygon fill="none" stroke="black" stroke-width="4" points="986,-159.5 724,-159.5 724,-66.5 986,-66.5 986,-159.5"/>
<text text-anchor="middle" x="855" y="-143.5" font-family="Helvetica" font-size="10.00">B4</text>
<text text-anchor="middle" x="855" y="-132.5" font-family="Helvetica" font-size="10.00">Loop: &lt;none&gt;</text>
<text text-anchor="middle" x="855" y="-121.5" font-family="Helvetica" font-size="10.00">&#45;&#45;&#45;</text>
<text text-anchor="middle" x="855" y="-110.5" font-family="Helvetica" font-size="10.00">HotSpotMethod&lt;LoopBenchmarks.fibonacciLoop(int)&gt;</text>
<text text-anchor="middle" x="855" y="-99.5" font-family="Helvetica" font-size="10.00">&#45;&#45;&#45;</text>
<text text-anchor="middle" x="855" y="-88.5" font-family="Helvetica" font-size="10.00">BuboLoopMakers:</text>
<text text-anchor="middle" x="855" y="-77.5" font-family="Helvetica" font-size="10.00"> &#160;AMD64BuboRDTSCToSlot (LoopID=0)</text>
</g>
<!-- b2&#45;&gt;b4 -->
<g id="edge5" class="edge">
<title>b2&#45;&gt;b4</title>
<path fill="none" stroke="black" d="M555.5,-231.91C603.29,-212.87 669.58,-186.47 727.55,-163.37"/>
<polygon fill="black" stroke="black" points="729.15,-166.5 737.15,-159.55 726.56,-160 729.15,-166.5"/>
</g>
<!-- b5 -->
<g id="node6" class="node">
<title>b5</title>
<polygon fill="lightblue" stroke="black" points="1348,-211 1094,-211 1094,-159 1348,-159 1348,-211"/>
<text text-anchor="middle" x="1221" y="-199" font-family="Helvetica" font-size="10.00">B5</text>
<text text-anchor="middle" x="1221" y="-188" font-family="Helvetica" font-size="10.00">Loop: L0</text>
<text text-anchor="middle" x="1221" y="-177" font-family="Helvetica" font-size="10.00">&#45;&#45;&#45;</text>
<text text-anchor="middle" x="1221" y="-166" font-family="Helvetica" font-size="10.00">HotSpotMethod&lt;LoopBenchmarks.fibonacciLoop(int)&gt;</text>
</g>
<!-- b4&#45;&gt;b5 -->
<g id="edge6" class="edge">
<title>b4&#45;&gt;b5</title>
<path fill="none" stroke="black" d="M986.13,-138.74C1017.85,-145.01 1051.86,-151.74 1083.85,-158.07"/>
<polygon fill="black" stroke="black" points="1083.22,-161.51 1093.71,-160.02 1084.58,-154.65 1083.22,-161.51"/>
</g>
<!-- b6 -->
<g id="node7" class="node">
<title>b6</title>
<polygon fill="lightblue" stroke="black" points="1714,-247 1460,-247 1460,-195 1714,-195 1714,-247"/>
<text text-anchor="middle" x="1587" y="-235" font-family="Helvetica" font-size="10.00">B6</text>
<text text-anchor="middle" x="1587" y="-224" font-family="Helvetica" font-size="10.00">Loop: L0</text>
<text text-anchor="middle" x="1587" y="-213" font-family="Helvetica" font-size="10.00">&#45;&#45;&#45;</text>
<text text-anchor="middle" x="1587" y="-202" font-family="Helvetica" font-size="10.00">HotSpotMethod&lt;LoopBenchmarks.fibonacciLoop(int)&gt;</text>
</g>
<!-- b5&#45;&gt;b6 -->
<g id="edge8" class="edge">
<title>b5&#45;&gt;b6</title>
<path fill="none" stroke="black" d="M1348.03,-171.63C1405.18,-174.83 1470.49,-182.71 1518.21,-192.72"/>
<polygon fill="black" stroke="black" points="1517.6,-196.17 1528.12,-194.89 1519.1,-189.34 1517.6,-196.17"/>
</g>
<!-- b7 -->
<g id="node8" class="node">
<title>b7</title>
<polygon fill="white" stroke="black" stroke-width="4" points="1714,-119 1460,-119 1460,-23 1714,-23 1714,-119"/>
<polygon fill="none" stroke="black" stroke-width="4" points="1718,-123 1456,-123 1456,-19 1718,-19 1718,-123"/>
<text text-anchor="middle" x="1587" y="-107" font-family="Helvetica" font-size="10.00">B7</text>
<text text-anchor="middle" x="1587" y="-96" font-family="Helvetica" font-size="10.00">Loop: &lt;none&gt;</text>
<text text-anchor="middle" x="1587" y="-85" font-family="Helvetica" font-size="10.00">&#45;&#45;&#45;</text>
<text text-anchor="middle" x="1587" y="-74" font-family="Helvetica" font-size="10.00">HotSpotMethod&lt;LoopBenchmarks.fibonacciLoop(int)&gt;</text>
<text text-anchor="middle" x="1587" y="-63" font-family="Helvetica" font-size="10.00">&#45;&#45;&#45;</text>
<text text-anchor="middle" x="1587" y="-52" font-family="Helvetica" font-size="10.00">BuboLoopMakers:</text>
<text text-anchor="middle" x="1587" y="-41" font-family="Helvetica" font-size="10.00"> &#160;AMD64BuboWriteDeltaRDTSC</text>
<text text-anchor="middle" x="1587" y="-30" font-family="Helvetica" font-size="10.00"> &#160;AMD64BuboRDTSCToSlot (LoopID=1)</text>
</g>
<!-- b5&#45;&gt;b7 -->
<g id="edge7" class="edge">
<title>b5&#45;&gt;b7</title>
<path fill="none" stroke="black" d="M1305.05,-158.99C1346.77,-145.92 1398.44,-129.74 1446.06,-114.83"/>
<polygon fill="black" stroke="black" points="1447.34,-118.09 1455.84,-111.77 1445.25,-111.41 1447.34,-118.09"/>
</g>
<!-- b6&#45;&gt;b5 -->
<g id="edge9" class="edge">
<title>b6&#45;&gt;b5</title>
<path fill="none" stroke="black" d="M1460,-234.37C1402.76,-231.17 1337.34,-223.27 1289.59,-213.23"/>
<polygon fill="black" stroke="black" points="1290.19,-209.78 1279.68,-211.06 1288.69,-216.62 1290.19,-209.78"/>
</g>
<!-- b8 -->
<g id="node9" class="node">
<title>b8</title>
<polygon fill="lightgreen" stroke="black" points="2080,-172 1826,-172 1826,-120 2080,-120 2080,-172"/>
<text text-anchor="middle" x="1953" y="-160" font-family="Helvetica" font-size="10.00">B8</text>
<text text-anchor="middle" x="1953" y="-149" font-family="Helvetica" font-size="10.00">Loop: L1</text>
<text text-anchor="middle" x="1953" y="-138" font-family="Helvetica" font-size="10.00">&#45;&#45;&#45;</text>
<text text-anchor="middle" x="1953" y="-127" font-family="Helvetica" font-size="10.00">HotSpotMethod&lt;LoopBenchmarks.fibonacciLoop(int)&gt;</text>
</g>
<!-- b7&#45;&gt;b8 -->
<g id="edge10" class="edge">
<title>b7&#45;&gt;b8</title>
<path fill="none" stroke="black" d="M1718.13,-97.81C1749.85,-104.35 1783.86,-111.36 1815.85,-117.95"/>
<polygon fill="black" stroke="black" points="1815.21,-121.39 1825.71,-119.98 1816.62,-114.53 1815.21,-121.39"/>
</g>
<!-- b9 -->
<g id="node10" class="node">
<title>b9</title>
<polygon fill="lightgreen" stroke="black" points="2446,-228 2192,-228 2192,-176 2446,-176 2446,-228"/>
<text text-anchor="middle" x="2319" y="-216" font-family="Helvetica" font-size="10.00">B9</text>
<text text-anchor="middle" x="2319" y="-205" font-family="Helvetica" font-size="10.00">Loop: L1</text>
<text text-anchor="middle" x="2319" y="-194" font-family="Helvetica" font-size="10.00">&#45;&#45;&#45;</text>
<text text-anchor="middle" x="2319" y="-183" font-family="Helvetica" font-size="10.00">HotSpotMethod&lt;LoopBenchmarks.fibonacciLoop(int)&gt;</text>
</g>
<!-- b8&#45;&gt;b9 -->
<g id="edge12" class="edge">
<title>b8&#45;&gt;b9</title>
<path fill="none" stroke="black" d="M2080.03,-139.56C2141.72,-146.4 2212.91,-159.21 2261.24,-173.03"/>
<polygon fill="black" stroke="black" points="2260.3,-176.41 2270.89,-175.9 2262.3,-169.7 2260.3,-176.41"/>
</g>
<!-- b10 -->
<g id="node11" class="node">
<title>b10</title>
<polygon fill="white" stroke="black" stroke-width="4" points="2446,-100 2192,-100 2192,-4 2446,-4 2446,-100"/>
<polygon fill="none" stroke="black" stroke-width="4" points="2450,-104 2188,-104 2188,0 2450,0 2450,-104"/>
<text text-anchor="middle" x="2319" y="-88" font-family="Helvetica" font-size="10.00">B10</text>
<text text-anchor="middle" x="2319" y="-77" font-family="Helvetica" font-size="10.00">Loop: &lt;none&gt;</text>
<text text-anchor="middle" x="2319" y="-66" font-family="Helvetica" font-size="10.00">&#45;&#45;&#45;</text>
<text text-anchor="middle" x="2319" y="-55" font-family="Helvetica" font-size="10.00">HotSpotMethod&lt;LoopBenchmarks.fibonacciLoop(int)&gt;</text>
<text text-anchor="middle" x="2319" y="-44" font-family="Helvetica" font-size="10.00">&#45;&#45;&#45;</text>
<text text-anchor="middle" x="2319" y="-33" font-family="Helvetica" font-size="10.00">BuboLoopMakers:</text>
<text text-anchor="middle" x="2319" y="-22" font-family="Helvetica" font-size="10.00"> &#160;AMD64BuboWriteDeltaRDTSC</text>
<text text-anchor="middle" x="2319" y="-11" font-family="Helvetica" font-size="10.00"> &#160;AMD64BuboRDTSCToSlot (LoopID=2)</text>
</g>
<!-- b8&#45;&gt;b10 -->
<g id="edge11" class="edge">
<title>b8&#45;&gt;b10</title>
<path fill="none" stroke="black" d="M2054.91,-119.94C2092.99,-110.11 2137.02,-98.74 2178.04,-88.14"/>
<polygon fill="black" stroke="black" points="2179.04,-91.5 2187.85,-85.61 2177.29,-84.72 2179.04,-91.5"/>
</g>
<!-- b9&#45;&gt;b8 -->
<g id="edge13" class="edge">
<title>b9&#45;&gt;b8</title>
<path fill="none" stroke="black" d="M2191.95,-208.44C2130.15,-201.59 2058.82,-188.74 2010.49,-174.89"/>
<polygon fill="black" stroke="black" points="2011.42,-171.52 2000.84,-172.02 2009.43,-178.22 2011.42,-171.52"/>
</g>
<!-- b11 -->
<g id="node12" class="node">
<title>b11</title>
<polygon fill="lightpink" stroke="black" points="2812,-154 2558,-154 2558,-102 2812,-102 2812,-154"/>
<text text-anchor="middle" x="2685" y="-142" font-family="Helvetica" font-size="10.00">B11</text>
<text text-anchor="middle" x="2685" y="-131" font-family="Helvetica" font-size="10.00">Loop: L2</text>
<text text-anchor="middle" x="2685" y="-120" font-family="Helvetica" font-size="10.00">&#45;&#45;&#45;</text>
<text text-anchor="middle" x="2685" y="-109" font-family="Helvetica" font-size="10.00">HotSpotMethod&lt;LoopBenchmarks.fibonacciLoop(int)&gt;</text>
</g>
<!-- b10&#45;&gt;b11 -->
<g id="edge14" class="edge">
<title>b10&#45;&gt;b11</title>
<path fill="none" stroke="black" d="M2450.13,-79.17C2482.31,-85.89 2516.85,-93.1 2549.25,-99.86"/>
<polygon fill="black" stroke="black" points="2548.72,-103.33 2559.23,-101.95 2550.15,-96.48 2548.72,-103.33"/>
</g>
<!-- b12 -->
<g id="node13" class="node">
<title>b12</title>
<polygon fill="lightpink" stroke="black" points="3178,-227 2924,-227 2924,-175 3178,-175 3178,-227"/>
<text text-anchor="middle" x="3051" y="-215" font-family="Helvetica" font-size="10.00">B12</text>
<text text-anchor="middle" x="3051" y="-204" font-family="Helvetica" font-size="10.00">Loop: L2</text>
<text text-anchor="middle" x="3051" y="-193" font-family="Helvetica" font-size="10.00">&#45;&#45;&#45;</text>
<text text-anchor="middle" x="3051" y="-182" font-family="Helvetica" font-size="10.00">HotSpotMethod&lt;LoopBenchmarks.fibonacciLoop(int)&gt;</text>
</g>
<!-- b11&#45;&gt;b12 -->
<g id="edge16" class="edge">
<title>b11&#45;&gt;b12</title>
<path fill="none" stroke="black" d="M2812.03,-127.44C2876.41,-137.59 2951.14,-154.73 2999.43,-171.48"/>
<polygon fill="black" stroke="black" points="2998.42,-174.84 3009.02,-174.94 3000.79,-168.26 2998.42,-174.84"/>
</g>
<!-- b13 -->
<g id="node14" class="node">
<title>b13</title>
<polygon fill="white" stroke="black" stroke-width="4" points="3178,-98.5 2924,-98.5 2924,-13.5 3178,-13.5 3178,-98.5"/>
<polygon fill="none" stroke="black" stroke-width="4" points="3182,-102.5 2920,-102.5 2920,-9.5 3182,-9.5 3182,-102.5"/>
<text text-anchor="middle" x="3051" y="-86.5" font-family="Helvetica" font-size="10.00">B13</text>
<text text-anchor="middle" x="3051" y="-75.5" font-family="Helvetica" font-size="10.00">Loop: &lt;none&gt;</text>
<text text-anchor="middle" x="3051" y="-64.5" font-family="Helvetica" font-size="10.00">&#45;&#45;&#45;</text>
<text text-anchor="middle" x="3051" y="-53.5" font-family="Helvetica" font-size="10.00">HotSpotMethod&lt;LoopBenchmarks.fibonacciLoop(int)&gt;</text>
<text text-anchor="middle" x="3051" y="-42.5" font-family="Helvetica" font-size="10.00">&#45;&#45;&#45;</text>
<text text-anchor="middle" x="3051" y="-31.5" font-family="Helvetica" font-size="10.00">BuboLoopMakers:</text>
<text text-anchor="middle" x="3051" y="-20.5" font-family="Helvetica" font-size="10.00"> &#160;AMD64BuboWriteDeltaRDTSC (LoopID=2)</text>
</g>
<!-- b11&#45;&gt;b13 -->
<g id="edge15" class="edge">
<title>b11&#45;&gt;b13</title>
<path fill="none" stroke="black" d="M2812.03,-103.07C2843.59,-96.83 2877.63,-90.1 2909.82,-83.73"/>
<polygon fill="black" stroke="black" points="2910.62,-87.14 2919.75,-81.76 2909.26,-80.27 2910.62,-87.14"/>
</g>
<!-- b12&#45;&gt;b11 -->
<g id="edge17" class="edge">
<title>b12&#45;&gt;b11</title>
<path fill="none" stroke="black" d="M2923.82,-201.53C2859.5,-191.39 2784.88,-174.28 2736.63,-157.54"/>
<polygon fill="black" stroke="black" points="2737.64,-154.18 2727.05,-154.09 2735.27,-160.77 2737.64,-154.18"/>
</g>
<!-- b13&#45;&gt;b14 -->
<g id="edge18" class="edge">
<title>b13&#45;&gt;b14</title>
<path fill="none" stroke="black" d="M3172.95,-102.52C3227.65,-123.56 3290.66,-147.79 3338.82,-166.31"/>
<polygon fill="black" stroke="black" points="3337.66,-169.62 3348.25,-169.94 3340.17,-163.08 3337.66,-169.62"/>
</g>
</g>
</svg>
