<?xml version="1.0" encoding="UTF-8" standalone="no"?>
<!DOCTYPE svg PUBLIC "-//W3C//DTD SVG 1.1//EN"
 "http://www.w3.org/Graphics/SVG/1.1/DTD/svg11.dtd">
<!-- Generated by graphviz version 2.44.0 (0)
 -->
<!-- Title: CFG_113 Pages: 1 -->
<svg width="1376pt" height="377pt"
 viewBox="0.00 0.00 1376.00 377.00" xmlns="http://www.w3.org/2000/svg" xmlns:xlink="http://www.w3.org/1999/xlink">
<g id="graph0" class="graph" transform="scale(1 1) rotate(0) translate(4 373)">
<title>CFG_113</title>
<polygon fill="white" stroke="transparent" points="-4,4 -4,-373 1372,-373 1372,4 -4,4"/>
<text text-anchor="middle" x="164.5" y="-349" font-family="Times-Roman" font-size="20.00">174&#45;java.lang.String.charAt(int)</text>
<!-- b0 -->
<g id="node1" class="node">
<title>b0</title>
<polygon fill="white" stroke="black" points="294,-122.5 0,-122.5 0,-59.5 294,-59.5 294,-122.5"/>
<text text-anchor="middle" x="147" y="-110.5" font-family="Helvetica" font-size="10.00">B0</text>
<text text-anchor="middle" x="147" y="-99.5" font-family="Helvetica" font-size="10.00">Loop: &lt;none&gt;</text>
<text text-anchor="middle" x="147" y="-88.5" font-family="Helvetica" font-size="10.00">&#45;&#45;&#45;</text>
<text text-anchor="middle" x="147" y="-77.5" font-family="Helvetica" font-size="10.00">HotSpotMethod&lt;String.charAt(int)&gt;</text>
<text text-anchor="middle" x="147" y="-66.5" font-family="Helvetica" font-size="10.00">HotSpotMethod&lt;Preconditions.checkIndex(int, int, BiFunction)&gt;</text>
</g>
<!-- b1 -->
<g id="node2" class="node">
<title>b1</title>
<polygon fill="white" stroke="black" points="696,-192.5 402,-192.5 402,-129.5 696,-129.5 696,-192.5"/>
<text text-anchor="middle" x="549" y="-180.5" font-family="Helvetica" font-size="10.00">B1</text>
<text text-anchor="middle" x="549" y="-169.5" font-family="Helvetica" font-size="10.00">Loop: &lt;none&gt;</text>
<text text-anchor="middle" x="549" y="-158.5" font-family="Helvetica" font-size="10.00">&#45;&#45;&#45;</text>
<text text-anchor="middle" x="549" y="-147.5" font-family="Helvetica" font-size="10.00">HotSpotMethod&lt;Preconditions.checkIndex(int, int, BiFunction)&gt;</text>
<text text-anchor="middle" x="549" y="-136.5" font-family="Helvetica" font-size="10.00">HotSpotMethod&lt;String.isLatin1()&gt;</text>
</g>
<!-- b0&#45;&gt;b1 -->
<g id="edge1" class="edge">
<title>b0&#45;&gt;b1</title>
<path fill="none" stroke="black" d="M294.11,-116.57C325.96,-122.14 359.79,-128.06 392.01,-133.7"/>
<polygon fill="black" stroke="black" points="391.5,-137.17 401.95,-135.44 392.71,-130.27 391.5,-137.17"/>
</g>
<!-- b4 -->
<g id="node5" class="node">
<title>b4</title>
<polygon fill="white" stroke="black" points="663,-52 435,-52 435,0 663,0 663,-52"/>
<text text-anchor="middle" x="549" y="-40" font-family="Helvetica" font-size="10.00">B4</text>
<text text-anchor="middle" x="549" y="-29" font-family="Helvetica" font-size="10.00">Loop: &lt;none&gt;</text>
<text text-anchor="middle" x="549" y="-18" font-family="Helvetica" font-size="10.00">&#45;&#45;&#45;</text>
<text text-anchor="middle" x="549" y="-7" font-family="Helvetica" font-size="10.00">HotSpotMethod&lt;StringLatin1.charAt(byte[], int)&gt;</text>
</g>
<!-- b0&#45;&gt;b4 -->
<g id="edge2" class="edge">
<title>b0&#45;&gt;b4</title>
<path fill="none" stroke="black" d="M294.11,-67.26C336.99,-60.29 383.45,-52.74 424.76,-46.03"/>
<polygon fill="black" stroke="black" points="425.55,-49.44 434.86,-44.38 424.43,-42.53 425.55,-49.44"/>
</g>
<!-- b2 -->
<g id="node3" class="node">
<title>b2</title>
<polygon fill="white" stroke="black" points="1032,-339 804,-339 804,-265 1032,-265 1032,-339"/>
<text text-anchor="middle" x="918" y="-327" font-family="Helvetica" font-size="10.00">B2</text>
<text text-anchor="middle" x="918" y="-316" font-family="Helvetica" font-size="10.00">Loop: &lt;none&gt;</text>
<text text-anchor="middle" x="918" y="-305" font-family="Helvetica" font-size="10.00">&#45;&#45;&#45;</text>
<text text-anchor="middle" x="918" y="-294" font-family="Helvetica" font-size="10.00">HotSpotMethod&lt;String.isLatin1()&gt;</text>
<text text-anchor="middle" x="918" y="-283" font-family="Helvetica" font-size="10.00">HotSpotMethod&lt;StringLatin1.charAt(byte[], int)&gt;</text>
<text text-anchor="middle" x="918" y="-272" font-family="Helvetica" font-size="10.00">HotSpotMethod&lt;String.charAt(int)&gt;</text>
</g>
<!-- b1&#45;&gt;b2 -->
<g id="edge3" class="edge">
<title>b1&#45;&gt;b2</title>
<path fill="none" stroke="black" d="M632.36,-192.64C685.21,-212.95 754.34,-239.51 811.24,-261.37"/>
<polygon fill="black" stroke="black" points="810.03,-264.65 820.62,-264.97 812.54,-258.12 810.03,-264.65"/>
</g>
<!-- b3 -->
<g id="node4" class="node">
<title>b3</title>
<polygon fill="white" stroke="black" points="1032,-192.5 804,-192.5 804,-129.5 1032,-129.5 1032,-192.5"/>
<text text-anchor="middle" x="918" y="-180.5" font-family="Helvetica" font-size="10.00">B3</text>
<text text-anchor="middle" x="918" y="-169.5" font-family="Helvetica" font-size="10.00">Loop: &lt;none&gt;</text>
<text text-anchor="middle" x="918" y="-158.5" font-family="Helvetica" font-size="10.00">&#45;&#45;&#45;</text>
<text text-anchor="middle" x="918" y="-147.5" font-family="Helvetica" font-size="10.00">HotSpotMethod&lt;String.charAt(int)&gt;</text>
<text text-anchor="middle" x="918" y="-136.5" font-family="Helvetica" font-size="10.00">HotSpotMethod&lt;StringLatin1.charAt(byte[], int)&gt;</text>
</g>
<!-- b1&#45;&gt;b3 -->
<g id="edge4" class="edge">
<title>b1&#45;&gt;b3</title>
<path fill="none" stroke="black" d="M696.1,-161C728.48,-161 762.48,-161 793.83,-161"/>
<polygon fill="black" stroke="black" points="793.91,-164.5 803.91,-161 793.91,-157.5 793.91,-164.5"/>
</g>
<!-- b5 -->
<g id="node6" class="node">
<title>b5</title>
<polygon fill="white" stroke="black" points="1368,-116 1140,-116 1140,-64 1368,-64 1368,-116"/>
<text text-anchor="middle" x="1254" y="-104" font-family="Helvetica" font-size="10.00">B5</text>
<text text-anchor="middle" x="1254" y="-93" font-family="Helvetica" font-size="10.00">Loop: &lt;none&gt;</text>
<text text-anchor="middle" x="1254" y="-82" font-family="Helvetica" font-size="10.00">&#45;&#45;&#45;</text>
<text text-anchor="middle" x="1254" y="-71" font-family="Helvetica" font-size="10.00">HotSpotMethod&lt;StringLatin1.charAt(byte[], int)&gt;</text>
</g>
<!-- b3&#45;&gt;b5 -->
<g id="edge5" class="edge">
<title>b3&#45;&gt;b5</title>
<path fill="none" stroke="black" d="M1032.08,-136.96C1063.55,-130.27 1097.88,-122.97 1129.9,-116.17"/>
<polygon fill="black" stroke="black" points="1130.7,-119.58 1139.76,-114.07 1129.25,-112.73 1130.7,-119.58"/>
</g>
<!-- b4&#45;&gt;b5 -->
<g id="edge6" class="edge">
<title>b4&#45;&gt;b5</title>
<path fill="none" stroke="black" d="M663.34,-36.32C791.09,-47.95 998.06,-66.79 1129.75,-78.78"/>
<polygon fill="black" stroke="black" points="1129.61,-82.28 1139.88,-79.7 1130.24,-75.31 1129.61,-82.28"/>
</g>
</g>
</svg>
