<?xml version="1.0" encoding="UTF-8" standalone="no"?>
<!DOCTYPE svg PUBLIC "-//W3C//DTD SVG 1.1//EN"
 "http://www.w3.org/Graphics/SVG/1.1/DTD/svg11.dtd">
<!-- Generated by graphviz version 2.44.0 (0)
 -->
<!-- Title: CFG_135 Pages: 1 -->
<svg width="7760pt" height="1049pt"
 viewBox="0.00 0.00 7760.00 1049.00" xmlns="http://www.w3.org/2000/svg" xmlns:xlink="http://www.w3.org/1999/xlink">
<g id="graph0" class="graph" transform="scale(1 1) rotate(0) translate(4 1045)">
<title>CFG_135</title>
<polygon fill="white" stroke="transparent" points="-4,4 -4,-1045 7756,-1045 7756,4 -4,4"/>
<text text-anchor="middle" x="242.5" y="-1021" font-family="Times-Roman" font-size="20.00">199&#45;LoopBenchmarks.sieveLoop(boolean[], int)</text>
<!-- b0 -->
<g id="node1" class="node">
<title>b0</title>
<polygon fill="white" stroke="black" points="283,-356 0,-356 0,-304 283,-304 283,-356"/>
<text text-anchor="middle" x="141.5" y="-344" font-family="Helvetica" font-size="10.00">B0</text>
<text text-anchor="middle" x="141.5" y="-333" font-family="Helvetica" font-size="10.00">Loop: &lt;none&gt;</text>
<text text-anchor="middle" x="141.5" y="-322" font-family="Helvetica" font-size="10.00">&#45;&#45;&#45;</text>
<text text-anchor="middle" x="141.5" y="-311" font-family="Helvetica" font-size="10.00">HotSpotMethod&lt;LoopBenchmarks.sieveLoop(boolean[], int)&gt;</text>
</g>
<!-- b1 -->
<g id="node2" class="node">
<title>b1</title>
<polygon fill="white" stroke="black" points="674,-418 391,-418 391,-366 674,-366 674,-418"/>
<text text-anchor="middle" x="532.5" y="-406" font-family="Helvetica" font-size="10.00">B1</text>
<text text-anchor="middle" x="532.5" y="-395" font-family="Helvetica" font-size="10.00">Loop: &lt;none&gt;</text>
<text text-anchor="middle" x="532.5" y="-384" font-family="Helvetica" font-size="10.00">&#45;&#45;&#45;</text>
<text text-anchor="middle" x="532.5" y="-373" font-family="Helvetica" font-size="10.00">HotSpotMethod&lt;LoopBenchmarks.sieveLoop(boolean[], int)&gt;</text>
</g>
<!-- b0&#45;&gt;b1 -->
<g id="edge1" class="edge">
<title>b0&#45;&gt;b1</title>
<path fill="none" stroke="black" d="M283.21,-352.43C314.95,-357.49 348.76,-362.88 380.89,-368"/>
<polygon fill="black" stroke="black" points="380.38,-371.46 390.8,-369.58 381.48,-364.54 380.38,-371.46"/>
</g>
<!-- b2 -->
<g id="node3" class="node">
<title>b2</title>
<polygon fill="white" stroke="black" points="674,-294 391,-294 391,-242 674,-242 674,-294"/>
<text text-anchor="middle" x="532.5" y="-282" font-family="Helvetica" font-size="10.00">B2</text>
<text text-anchor="middle" x="532.5" y="-271" font-family="Helvetica" font-size="10.00">Loop: &lt;none&gt;</text>
<text text-anchor="middle" x="532.5" y="-260" font-family="Helvetica" font-size="10.00">&#45;&#45;&#45;</text>
<text text-anchor="middle" x="532.5" y="-249" font-family="Helvetica" font-size="10.00">HotSpotMethod&lt;LoopBenchmarks.sieveLoop(boolean[], int)&gt;</text>
</g>
<!-- b0&#45;&gt;b2 -->
<g id="edge2" class="edge">
<title>b0&#45;&gt;b2</title>
<path fill="none" stroke="black" d="M283.21,-307.57C314.95,-302.51 348.76,-297.12 380.89,-292"/>
<polygon fill="black" stroke="black" points="381.48,-295.46 390.8,-290.42 380.38,-288.54 381.48,-295.46"/>
</g>
<!-- b3 -->
<g id="node4" class="node">
<title>b3</title>
<polygon fill="white" stroke="black" points="1065,-356 782,-356 782,-304 1065,-304 1065,-356"/>
<text text-anchor="middle" x="923.5" y="-344" font-family="Helvetica" font-size="10.00">B3</text>
<text text-anchor="middle" x="923.5" y="-333" font-family="Helvetica" font-size="10.00">Loop: &lt;none&gt;</text>
<text text-anchor="middle" x="923.5" y="-322" font-family="Helvetica" font-size="10.00">&#45;&#45;&#45;</text>
<text text-anchor="middle" x="923.5" y="-311" font-family="Helvetica" font-size="10.00">HotSpotMethod&lt;LoopBenchmarks.sieveLoop(boolean[], int)&gt;</text>
</g>
<!-- b1&#45;&gt;b3 -->
<g id="edge3" class="edge">
<title>b1&#45;&gt;b3</title>
<path fill="none" stroke="black" d="M674.21,-369.57C705.95,-364.51 739.76,-359.12 771.89,-354"/>
<polygon fill="black" stroke="black" points="772.48,-357.46 781.8,-352.42 771.38,-350.54 772.48,-357.46"/>
</g>
<!-- b2&#45;&gt;b3 -->
<g id="edge4" class="edge">
<title>b2&#45;&gt;b3</title>
<path fill="none" stroke="black" d="M674.21,-290.43C705.95,-295.49 739.76,-300.88 771.89,-306"/>
<polygon fill="black" stroke="black" points="771.38,-309.46 781.8,-307.58 772.48,-302.54 771.38,-309.46"/>
</g>
<!-- b5 -->
<g id="node6" class="node">
<title>b5</title>
<polygon fill="white" stroke="black" points="1456,-165 1173,-165 1173,-113 1456,-113 1456,-165"/>
<text text-anchor="middle" x="1314.5" y="-153" font-family="Helvetica" font-size="10.00">B5</text>
<text text-anchor="middle" x="1314.5" y="-142" font-family="Helvetica" font-size="10.00">Loop: &lt;none&gt;</text>
<text text-anchor="middle" x="1314.5" y="-131" font-family="Helvetica" font-size="10.00">&#45;&#45;&#45;</text>
<text text-anchor="middle" x="1314.5" y="-120" font-family="Helvetica" font-size="10.00">HotSpotMethod&lt;LoopBenchmarks.sieveLoop(boolean[], int)&gt;</text>
</g>
<!-- b3&#45;&gt;b5 -->
<g id="edge6" class="edge">
<title>b3&#45;&gt;b5</title>
<path fill="none" stroke="black" d="M972.61,-303.87C1022.34,-277.14 1102.44,-234.84 1173,-201 1195.51,-190.21 1220.34,-179.01 1242.8,-169.16"/>
<polygon fill="black" stroke="black" points="1244.5,-172.24 1252.26,-165.02 1241.69,-165.82 1244.5,-172.24"/>
</g>
<!-- b7 -->
<g id="node8" class="node">
<title>b7</title>
<polygon fill="white" stroke="black" points="1847,-362 1564,-362 1564,-310 1847,-310 1847,-362"/>
<text text-anchor="middle" x="1705.5" y="-350" font-family="Helvetica" font-size="10.00">B7</text>
<text text-anchor="middle" x="1705.5" y="-339" font-family="Helvetica" font-size="10.00">Loop: &lt;none&gt;</text>
<text text-anchor="middle" x="1705.5" y="-328" font-family="Helvetica" font-size="10.00">&#45;&#45;&#45;</text>
<text text-anchor="middle" x="1705.5" y="-317" font-family="Helvetica" font-size="10.00">HotSpotMethod&lt;LoopBenchmarks.sieveLoop(boolean[], int)&gt;</text>
</g>
<!-- b3&#45;&gt;b7 -->
<g id="edge5" class="edge">
<title>b3&#45;&gt;b7</title>
<path fill="none" stroke="black" d="M964.62,-356.21C1012.1,-385.52 1094.63,-431.2 1173,-449 1295.65,-476.85 1333.08,-475.64 1456,-449 1528.17,-433.36 1604.53,-394.9 1653.26,-367.19"/>
<polygon fill="black" stroke="black" points="1655.1,-370.17 1662.03,-362.15 1651.62,-364.1 1655.1,-370.17"/>
</g>
<!-- b4 -->
<g id="node5" class="node">
<title>b4</title>
<polygon fill="white" stroke="black" points="1456,-413 1173,-413 1173,-361 1456,-361 1456,-413"/>
<text text-anchor="middle" x="1314.5" y="-401" font-family="Helvetica" font-size="10.00">B4</text>
<text text-anchor="middle" x="1314.5" y="-390" font-family="Helvetica" font-size="10.00">Loop: &lt;none&gt;</text>
<text text-anchor="middle" x="1314.5" y="-379" font-family="Helvetica" font-size="10.00">&#45;&#45;&#45;</text>
<text text-anchor="middle" x="1314.5" y="-368" font-family="Helvetica" font-size="10.00">HotSpotMethod&lt;LoopBenchmarks.sieveLoop(boolean[], int)&gt;</text>
</g>
<!-- b4&#45;&gt;b7 -->
<g id="edge7" class="edge">
<title>b4&#45;&gt;b7</title>
<path fill="none" stroke="black" d="M1456.21,-368.55C1487.81,-364.41 1521.47,-360 1553.48,-355.8"/>
<polygon fill="black" stroke="black" points="1554.34,-359.22 1563.8,-354.45 1553.43,-352.28 1554.34,-359.22"/>
</g>
<!-- b5&#45;&gt;b7 -->
<g id="edge8" class="edge">
<title>b5&#45;&gt;b7</title>
<path fill="none" stroke="black" d="M1377.56,-165.08C1402.19,-175.77 1430.63,-188.54 1456,-201 1524.04,-234.42 1600.39,-276.63 1650.29,-304.88"/>
<polygon fill="black" stroke="black" points="1648.86,-308.09 1659.29,-309.98 1652.32,-302 1648.86,-308.09"/>
</g>
<!-- b37 -->
<g id="node38" class="node">
<title>b37</title>
<polygon fill="white" stroke="black" points="2238,-165 1955,-165 1955,-113 2238,-113 2238,-165"/>
<text text-anchor="middle" x="2096.5" y="-153" font-family="Helvetica" font-size="10.00">B37</text>
<text text-anchor="middle" x="2096.5" y="-142" font-family="Helvetica" font-size="10.00">Loop: &lt;none&gt;</text>
<text text-anchor="middle" x="2096.5" y="-131" font-family="Helvetica" font-size="10.00">&#45;&#45;&#45;</text>
<text text-anchor="middle" x="2096.5" y="-120" font-family="Helvetica" font-size="10.00">HotSpotMethod&lt;LoopBenchmarks.sieveLoop(boolean[], int)&gt;</text>
</g>
<!-- b5&#45;&gt;b37 -->
<g id="edge9" class="edge">
<title>b5&#45;&gt;b37</title>
<path fill="none" stroke="black" d="M1456.3,-139C1594.18,-139 1803.56,-139 1944.76,-139"/>
<polygon fill="black" stroke="black" points="1944.8,-142.5 1954.8,-139 1944.8,-135.5 1944.8,-142.5"/>
</g>
<!-- b6 -->
<g id="node7" class="node">
<title>b6</title>
<polygon fill="white" stroke="black" points="1456,-289 1173,-289 1173,-237 1456,-237 1456,-289"/>
<text text-anchor="middle" x="1314.5" y="-277" font-family="Helvetica" font-size="10.00">B6</text>
<text text-anchor="middle" x="1314.5" y="-266" font-family="Helvetica" font-size="10.00">Loop: &lt;none&gt;</text>
<text text-anchor="middle" x="1314.5" y="-255" font-family="Helvetica" font-size="10.00">&#45;&#45;&#45;</text>
<text text-anchor="middle" x="1314.5" y="-244" font-family="Helvetica" font-size="10.00">HotSpotMethod&lt;LoopBenchmarks.sieveLoop(boolean[], int)&gt;</text>
</g>
<!-- b6&#45;&gt;b7 -->
<g id="edge10" class="edge">
<title>b6&#45;&gt;b7</title>
<path fill="none" stroke="black" d="M1454.29,-289.05C1487.11,-295.21 1522.25,-301.8 1555.51,-308.04"/>
<polygon fill="black" stroke="black" points="1555.29,-311.56 1565.76,-309.96 1556.58,-304.68 1555.29,-311.56"/>
</g>
<!-- b8 -->
<g id="node9" class="node">
<title>b8</title>
<polygon fill="white" stroke="black" points="2238,-446 1955,-446 1955,-394 2238,-394 2238,-446"/>
<text text-anchor="middle" x="2096.5" y="-434" font-family="Helvetica" font-size="10.00">B8</text>
<text text-anchor="middle" x="2096.5" y="-423" font-family="Helvetica" font-size="10.00">Loop: &lt;none&gt;</text>
<text text-anchor="middle" x="2096.5" y="-412" font-family="Helvetica" font-size="10.00">&#45;&#45;&#45;</text>
<text text-anchor="middle" x="2096.5" y="-401" font-family="Helvetica" font-size="10.00">HotSpotMethod&lt;LoopBenchmarks.sieveLoop(boolean[], int)&gt;</text>
</g>
<!-- b7&#45;&gt;b8 -->
<g id="edge11" class="edge">
<title>b7&#45;&gt;b8</title>
<path fill="none" stroke="black" d="M1826.92,-362C1870.69,-371.45 1920.35,-382.18 1964.95,-391.81"/>
<polygon fill="black" stroke="black" points="1964.47,-395.29 1974.98,-393.98 1965.95,-388.44 1964.47,-395.29"/>
</g>
<!-- b21 -->
<g id="node22" class="node">
<title>b21</title>
<polygon fill="white" stroke="black" stroke-width="4" points="4604,-327.5 4321,-327.5 4321,-242.5 4604,-242.5 4604,-327.5"/>
<polygon fill="none" stroke="black" stroke-width="4" points="4608,-331.5 4317,-331.5 4317,-238.5 4608,-238.5 4608,-331.5"/>
<text text-anchor="middle" x="4462.5" y="-315.5" font-family="Helvetica" font-size="10.00">B21</text>
<text text-anchor="middle" x="4462.5" y="-304.5" font-family="Helvetica" font-size="10.00">Loop: &lt;none&gt;</text>
<text text-anchor="middle" x="4462.5" y="-293.5" font-family="Helvetica" font-size="10.00">&#45;&#45;&#45;</text>
<text text-anchor="middle" x="4462.5" y="-282.5" font-family="Helvetica" font-size="10.00">HotSpotMethod&lt;LoopBenchmarks.sieveLoop(boolean[], int)&gt;</text>
<text text-anchor="middle" x="4462.5" y="-271.5" font-family="Helvetica" font-size="10.00">&#45;&#45;&#45;</text>
<text text-anchor="middle" x="4462.5" y="-260.5" font-family="Helvetica" font-size="10.00">BuboLoopMakers:</text>
<text text-anchor="middle" x="4462.5" y="-249.5" font-family="Helvetica" font-size="10.00"> &#160;AMD64BuboRDTSCToSlot (LoopID=0)</text>
</g>
<!-- b7&#45;&gt;b21 -->
<g id="edge12" class="edge">
<title>b7&#45;&gt;b21</title>
<path fill="none" stroke="black" d="M1847.23,-321.25C2003.28,-306.19 2262.59,-285 2486.5,-285 2486.5,-285 2486.5,-285 3669.5,-285 3890.83,-285 4146.95,-285 4306.6,-285"/>
<polygon fill="black" stroke="black" points="4306.98,-288.5 4316.98,-285 4306.98,-281.5 4306.98,-288.5"/>
</g>
<!-- b9 -->
<g id="node10" class="node">
<title>b9</title>
<polygon fill="white" stroke="black" points="2629,-581 2346,-581 2346,-529 2629,-529 2629,-581"/>
<text text-anchor="middle" x="2487.5" y="-569" font-family="Helvetica" font-size="10.00">B9</text>
<text text-anchor="middle" x="2487.5" y="-558" font-family="Helvetica" font-size="10.00">Loop: &lt;none&gt;</text>
<text text-anchor="middle" x="2487.5" y="-547" font-family="Helvetica" font-size="10.00">&#45;&#45;&#45;</text>
<text text-anchor="middle" x="2487.5" y="-536" font-family="Helvetica" font-size="10.00">HotSpotMethod&lt;LoopBenchmarks.sieveLoop(boolean[], int)&gt;</text>
</g>
<!-- b8&#45;&gt;b9 -->
<g id="edge13" class="edge">
<title>b8&#45;&gt;b9</title>
<path fill="none" stroke="black" d="M2172.5,-446.03C2238.19,-468.82 2333.55,-501.92 2401.93,-525.65"/>
<polygon fill="black" stroke="black" points="2400.8,-528.96 2411.4,-528.94 2403.1,-522.35 2400.8,-528.96"/>
</g>
<!-- b19 -->
<g id="node20" class="node">
<title>b19</title>
<polygon fill="white" stroke="black" points="2629,-446 2346,-446 2346,-394 2629,-394 2629,-446"/>
<text text-anchor="middle" x="2487.5" y="-434" font-family="Helvetica" font-size="10.00">B19</text>
<text text-anchor="middle" x="2487.5" y="-423" font-family="Helvetica" font-size="10.00">Loop: &lt;none&gt;</text>
<text text-anchor="middle" x="2487.5" y="-412" font-family="Helvetica" font-size="10.00">&#45;&#45;&#45;</text>
<text text-anchor="middle" x="2487.5" y="-401" font-family="Helvetica" font-size="10.00">HotSpotMethod&lt;LoopBenchmarks.sieveLoop(boolean[], int)&gt;</text>
</g>
<!-- b8&#45;&gt;b19 -->
<g id="edge14" class="edge">
<title>b8&#45;&gt;b19</title>
<path fill="none" stroke="black" d="M2238.21,-420C2269.81,-420 2303.47,-420 2335.48,-420"/>
<polygon fill="black" stroke="black" points="2335.8,-423.5 2345.8,-420 2335.8,-416.5 2335.8,-423.5"/>
</g>
<!-- b10 -->
<g id="node11" class="node">
<title>b10</title>
<polygon fill="white" stroke="black" points="3020,-726 2737,-726 2737,-674 3020,-674 3020,-726"/>
<text text-anchor="middle" x="2878.5" y="-714" font-family="Helvetica" font-size="10.00">B10</text>
<text text-anchor="middle" x="2878.5" y="-703" font-family="Helvetica" font-size="10.00">Loop: &lt;none&gt;</text>
<text text-anchor="middle" x="2878.5" y="-692" font-family="Helvetica" font-size="10.00">&#45;&#45;&#45;</text>
<text text-anchor="middle" x="2878.5" y="-681" font-family="Helvetica" font-size="10.00">HotSpotMethod&lt;LoopBenchmarks.sieveLoop(boolean[], int)&gt;</text>
</g>
<!-- b9&#45;&gt;b10 -->
<g id="edge15" class="edge">
<title>b9&#45;&gt;b10</title>
<path fill="none" stroke="black" d="M2558.49,-581.09C2625.87,-606.2 2727.63,-644.14 2798.02,-670.37"/>
<polygon fill="black" stroke="black" points="2797.15,-673.78 2807.74,-674 2799.59,-667.22 2797.15,-673.78"/>
</g>
<!-- b9&#45;&gt;b21 -->
<g id="edge16" class="edge">
<title>b9&#45;&gt;b21</title>
<path fill="none" stroke="black" d="M2629.06,-555C2785.96,-555 3047.41,-555 3272.5,-555 3272.5,-555 3272.5,-555 3669.5,-555 3937.54,-555 4230.63,-414.74 4373.42,-336.41"/>
<polygon fill="black" stroke="black" points="4375.12,-339.46 4382.19,-331.57 4371.74,-333.33 4375.12,-339.46"/>
</g>
<!-- b11 -->
<g id="node12" class="node">
<title>b11</title>
<polygon fill="white" stroke="black" stroke-width="4" points="3415,-892.5 3132,-892.5 3132,-807.5 3415,-807.5 3415,-892.5"/>
<polygon fill="none" stroke="black" stroke-width="4" points="3419,-896.5 3128,-896.5 3128,-803.5 3419,-803.5 3419,-896.5"/>
<text text-anchor="middle" x="3273.5" y="-880.5" font-family="Helvetica" font-size="10.00">B11</text>
<text text-anchor="middle" x="3273.5" y="-869.5" font-family="Helvetica" font-size="10.00">Loop: &lt;none&gt;</text>
<text text-anchor="middle" x="3273.5" y="-858.5" font-family="Helvetica" font-size="10.00">&#45;&#45;&#45;</text>
<text text-anchor="middle" x="3273.5" y="-847.5" font-family="Helvetica" font-size="10.00">HotSpotMethod&lt;LoopBenchmarks.sieveLoop(boolean[], int)&gt;</text>
<text text-anchor="middle" x="3273.5" y="-836.5" font-family="Helvetica" font-size="10.00">&#45;&#45;&#45;</text>
<text text-anchor="middle" x="3273.5" y="-825.5" font-family="Helvetica" font-size="10.00">BuboLoopMakers:</text>
<text text-anchor="middle" x="3273.5" y="-814.5" font-family="Helvetica" font-size="10.00"> &#160;AMD64BuboRDTSCToSlot (LoopID=1)</text>
</g>
<!-- b10&#45;&gt;b11 -->
<g id="edge17" class="edge">
<title>b10&#45;&gt;b11</title>
<path fill="none" stroke="black" d="M2947.96,-726.13C3001.09,-746.41 3076.35,-775.13 3141.02,-799.82"/>
<polygon fill="black" stroke="black" points="3139.89,-803.13 3150.48,-803.43 3142.39,-796.59 3139.89,-803.13"/>
</g>
<!-- b17 -->
<g id="node18" class="node">
<title>b17</title>
<polygon fill="white" stroke="black" points="3415,-726 3132,-726 3132,-674 3415,-674 3415,-726"/>
<text text-anchor="middle" x="3273.5" y="-714" font-family="Helvetica" font-size="10.00">B17</text>
<text text-anchor="middle" x="3273.5" y="-703" font-family="Helvetica" font-size="10.00">Loop: &lt;none&gt;</text>
<text text-anchor="middle" x="3273.5" y="-692" font-family="Helvetica" font-size="10.00">&#45;&#45;&#45;</text>
<text text-anchor="middle" x="3273.5" y="-681" font-family="Helvetica" font-size="10.00">HotSpotMethod&lt;LoopBenchmarks.sieveLoop(boolean[], int)&gt;</text>
</g>
<!-- b10&#45;&gt;b17 -->
<g id="edge18" class="edge">
<title>b10&#45;&gt;b17</title>
<path fill="none" stroke="black" d="M3020.27,-700C3053.11,-700 3088.2,-700 3121.46,-700"/>
<polygon fill="black" stroke="black" points="3121.72,-703.5 3131.72,-700 3121.72,-696.5 3121.72,-703.5"/>
</g>
<!-- b12 -->
<g id="node13" class="node">
<title>b12</title>
<polygon fill="lightblue" stroke="black" points="3810,-879 3527,-879 3527,-827 3810,-827 3810,-879"/>
<text text-anchor="middle" x="3668.5" y="-867" font-family="Helvetica" font-size="10.00">B12</text>
<text text-anchor="middle" x="3668.5" y="-856" font-family="Helvetica" font-size="10.00">Loop: L0</text>
<text text-anchor="middle" x="3668.5" y="-845" font-family="Helvetica" font-size="10.00">&#45;&#45;&#45;</text>
<text text-anchor="middle" x="3668.5" y="-834" font-family="Helvetica" font-size="10.00">HotSpotMethod&lt;LoopBenchmarks.sieveLoop(boolean[], int)&gt;</text>
</g>
<!-- b11&#45;&gt;b12 -->
<g id="edge19" class="edge">
<title>b11&#45;&gt;b12</title>
<path fill="none" stroke="black" d="M3419.16,-851.1C3450.86,-851.35 3484.5,-851.6 3516.44,-851.85"/>
<polygon fill="black" stroke="black" points="3516.72,-855.35 3526.74,-851.93 3516.77,-848.35 3516.72,-855.35"/>
</g>
<!-- b13 -->
<g id="node14" class="node">
<title>b13</title>
<polygon fill="lightblue" stroke="black" points="4205,-882 3922,-882 3922,-830 4205,-830 4205,-882"/>
<text text-anchor="middle" x="4063.5" y="-870" font-family="Helvetica" font-size="10.00">B13</text>
<text text-anchor="middle" x="4063.5" y="-859" font-family="Helvetica" font-size="10.00">Loop: L0</text>
<text text-anchor="middle" x="4063.5" y="-848" font-family="Helvetica" font-size="10.00">&#45;&#45;&#45;</text>
<text text-anchor="middle" x="4063.5" y="-837" font-family="Helvetica" font-size="10.00">HotSpotMethod&lt;LoopBenchmarks.sieveLoop(boolean[], int)&gt;</text>
</g>
<!-- b12&#45;&gt;b13 -->
<g id="edge20" class="edge">
<title>b12&#45;&gt;b13</title>
<path fill="none" stroke="black" d="M3810.27,-854.07C3843.11,-854.33 3878.2,-854.59 3911.46,-854.85"/>
<polygon fill="black" stroke="black" points="3911.69,-858.35 3921.72,-854.93 3911.75,-851.35 3911.69,-858.35"/>
</g>
<!-- b15 -->
<g id="node16" class="node">
<title>b15</title>
<polygon fill="white" stroke="black" stroke-width="4" points="4205,-753.5 3922,-753.5 3922,-668.5 4205,-668.5 4205,-753.5"/>
<polygon fill="none" stroke="black" stroke-width="4" points="4209,-757.5 3918,-757.5 3918,-664.5 4209,-664.5 4209,-757.5"/>
<text text-anchor="middle" x="4063.5" y="-741.5" font-family="Helvetica" font-size="10.00">B15</text>
<text text-anchor="middle" x="4063.5" y="-730.5" font-family="Helvetica" font-size="10.00">Loop: &lt;none&gt;</text>
<text text-anchor="middle" x="4063.5" y="-719.5" font-family="Helvetica" font-size="10.00">&#45;&#45;&#45;</text>
<text text-anchor="middle" x="4063.5" y="-708.5" font-family="Helvetica" font-size="10.00">HotSpotMethod&lt;LoopBenchmarks.sieveLoop(boolean[], int)&gt;</text>
<text text-anchor="middle" x="4063.5" y="-697.5" font-family="Helvetica" font-size="10.00">&#45;&#45;&#45;</text>
<text text-anchor="middle" x="4063.5" y="-686.5" font-family="Helvetica" font-size="10.00">BuboLoopMakers:</text>
<text text-anchor="middle" x="4063.5" y="-675.5" font-family="Helvetica" font-size="10.00"> &#160;AMD64BuboWriteDeltaRDTSC (LoopID=1)</text>
</g>
<!-- b12&#45;&gt;b15 -->
<g id="edge21" class="edge">
<title>b12&#45;&gt;b15</title>
<path fill="none" stroke="black" d="M3741.58,-826.96C3792.59,-808.52 3862.6,-783.23 3924.21,-760.97"/>
<polygon fill="black" stroke="black" points="3925.41,-764.25 3933.63,-757.56 3923.04,-757.67 3925.41,-764.25"/>
</g>
<!-- b14 -->
<g id="node15" class="node">
<title>b14</title>
<polygon fill="lightblue" stroke="black" points="4604,-1011 4321,-1011 4321,-959 4604,-959 4604,-1011"/>
<text text-anchor="middle" x="4462.5" y="-999" font-family="Helvetica" font-size="10.00">B14</text>
<text text-anchor="middle" x="4462.5" y="-988" font-family="Helvetica" font-size="10.00">Loop: L0</text>
<text text-anchor="middle" x="4462.5" y="-977" font-family="Helvetica" font-size="10.00">&#45;&#45;&#45;</text>
<text text-anchor="middle" x="4462.5" y="-966" font-family="Helvetica" font-size="10.00">HotSpotMethod&lt;LoopBenchmarks.sieveLoop(boolean[], int)&gt;</text>
</g>
<!-- b13&#45;&gt;b14 -->
<g id="edge22" class="edge">
<title>b13&#45;&gt;b14</title>
<path fill="none" stroke="black" d="M4144.84,-882.11C4210.49,-903.44 4303.25,-933.58 4371.41,-955.73"/>
<polygon fill="black" stroke="black" points="4370.69,-959.17 4381.28,-958.93 4372.85,-952.51 4370.69,-959.17"/>
</g>
<!-- b16 -->
<g id="node17" class="node">
<title>b16</title>
<polygon fill="white" stroke="black" points="4604,-882 4321,-882 4321,-830 4604,-830 4604,-882"/>
<text text-anchor="middle" x="4462.5" y="-870" font-family="Helvetica" font-size="10.00">B16</text>
<text text-anchor="middle" x="4462.5" y="-859" font-family="Helvetica" font-size="10.00">Loop: &lt;none&gt;</text>
<text text-anchor="middle" x="4462.5" y="-848" font-family="Helvetica" font-size="10.00">&#45;&#45;&#45;</text>
<text text-anchor="middle" x="4462.5" y="-837" font-family="Helvetica" font-size="10.00">HotSpotMethod&lt;LoopBenchmarks.sieveLoop(boolean[], int)&gt;</text>
</g>
<!-- b13&#45;&gt;b16 -->
<g id="edge23" class="edge">
<title>b13&#45;&gt;b16</title>
<path fill="none" stroke="black" d="M4205.03,-856C4239.23,-856 4275.96,-856 4310.63,-856"/>
<polygon fill="black" stroke="black" points="4310.83,-859.5 4320.83,-856 4310.83,-852.5 4310.83,-859.5"/>
</g>
<!-- b14&#45;&gt;b12 -->
<g id="edge24" class="edge">
<title>b14&#45;&gt;b12</title>
<path fill="none" stroke="black" d="M4320.79,-972.84C4210.58,-962.08 4053.74,-944 3918,-918 3867.81,-908.39 3812.76,-894.36 3767.26,-881.79"/>
<polygon fill="black" stroke="black" points="3767.98,-878.35 3757.41,-879.05 3766.1,-885.1 3767.98,-878.35"/>
</g>
<!-- b15&#45;&gt;b21 -->
<g id="edge25" class="edge">
<title>b15&#45;&gt;b21</title>
<path fill="none" stroke="black" d="M4140.18,-664.41C4163.39,-648.51 4188.26,-629.72 4209,-610 4297.89,-525.49 4381.1,-408.19 4426.28,-340.07"/>
<polygon fill="black" stroke="black" points="4429.28,-341.88 4431.87,-331.6 4423.44,-338.02 4429.28,-341.88"/>
</g>
<!-- b18 -->
<g id="node19" class="node">
<title>b18</title>
<polygon fill="white" stroke="black" points="4205,-176 3922,-176 3922,-124 4205,-124 4205,-176"/>
<text text-anchor="middle" x="4063.5" y="-164" font-family="Helvetica" font-size="10.00">B18</text>
<text text-anchor="middle" x="4063.5" y="-153" font-family="Helvetica" font-size="10.00">Loop: &lt;none&gt;</text>
<text text-anchor="middle" x="4063.5" y="-142" font-family="Helvetica" font-size="10.00">&#45;&#45;&#45;</text>
<text text-anchor="middle" x="4063.5" y="-131" font-family="Helvetica" font-size="10.00">HotSpotMethod&lt;LoopBenchmarks.sieveLoop(boolean[], int)&gt;</text>
</g>
<!-- b18&#45;&gt;b21 -->
<g id="edge26" class="edge">
<title>b18&#45;&gt;b21</title>
<path fill="none" stroke="black" d="M4141.05,-176.03C4190.24,-192.76 4255.76,-215.04 4314.73,-235.09"/>
<polygon fill="black" stroke="black" points="4313.92,-238.51 4324.51,-238.42 4316.17,-231.88 4313.92,-238.51"/>
</g>
<!-- b38 -->
<g id="node39" class="node">
<title>b38</title>
<polygon fill="white" stroke="black" points="3020,-446 2737,-446 2737,-394 3020,-394 3020,-446"/>
<text text-anchor="middle" x="2878.5" y="-434" font-family="Helvetica" font-size="10.00">B38</text>
<text text-anchor="middle" x="2878.5" y="-423" font-family="Helvetica" font-size="10.00">Loop: &lt;none&gt;</text>
<text text-anchor="middle" x="2878.5" y="-412" font-family="Helvetica" font-size="10.00">&#45;&#45;&#45;</text>
<text text-anchor="middle" x="2878.5" y="-401" font-family="Helvetica" font-size="10.00">HotSpotMethod&lt;LoopBenchmarks.sieveLoop(boolean[], int)&gt;</text>
</g>
<!-- b19&#45;&gt;b38 -->
<g id="edge27" class="edge">
<title>b19&#45;&gt;b38</title>
<path fill="none" stroke="black" d="M2629.21,-420C2660.81,-420 2694.47,-420 2726.48,-420"/>
<polygon fill="black" stroke="black" points="2726.8,-423.5 2736.8,-420 2726.8,-416.5 2726.8,-423.5"/>
</g>
<!-- b20 -->
<g id="node21" class="node">
<title>b20</title>
<polygon fill="white" stroke="black" points="4205,-52 3922,-52 3922,0 4205,0 4205,-52"/>
<text text-anchor="middle" x="4063.5" y="-40" font-family="Helvetica" font-size="10.00">B20</text>
<text text-anchor="middle" x="4063.5" y="-29" font-family="Helvetica" font-size="10.00">Loop: &lt;none&gt;</text>
<text text-anchor="middle" x="4063.5" y="-18" font-family="Helvetica" font-size="10.00">&#45;&#45;&#45;</text>
<text text-anchor="middle" x="4063.5" y="-7" font-family="Helvetica" font-size="10.00">HotSpotMethod&lt;LoopBenchmarks.sieveLoop(boolean[], int)&gt;</text>
</g>
<!-- b20&#45;&gt;b21 -->
<g id="edge28" class="edge">
<title>b20&#45;&gt;b21</title>
<path fill="none" stroke="black" d="M4135.37,-52.14C4159.4,-62.11 4185.97,-74.39 4209,-88 4279.65,-129.77 4352.77,-188.86 4402.02,-231.42"/>
<polygon fill="black" stroke="black" points="4399.87,-234.19 4409.72,-238.1 4404.46,-228.9 4399.87,-234.19"/>
</g>
<!-- b22 -->
<g id="node23" class="node">
<title>b22</title>
<polygon fill="lightgreen" stroke="black" points="4999,-311 4716,-311 4716,-259 4999,-259 4999,-311"/>
<text text-anchor="middle" x="4857.5" y="-299" font-family="Helvetica" font-size="10.00">B22</text>
<text text-anchor="middle" x="4857.5" y="-288" font-family="Helvetica" font-size="10.00">Loop: L1</text>
<text text-anchor="middle" x="4857.5" y="-277" font-family="Helvetica" font-size="10.00">&#45;&#45;&#45;</text>
<text text-anchor="middle" x="4857.5" y="-266" font-family="Helvetica" font-size="10.00">HotSpotMethod&lt;LoopBenchmarks.sieveLoop(boolean[], int)&gt;</text>
</g>
<!-- b21&#45;&gt;b22 -->
<g id="edge29" class="edge">
<title>b21&#45;&gt;b22</title>
<path fill="none" stroke="black" d="M4608.16,-285C4639.86,-285 4673.5,-285 4705.44,-285"/>
<polygon fill="black" stroke="black" points="4705.74,-288.5 4715.74,-285 4705.74,-281.5 4705.74,-288.5"/>
</g>
<!-- b23 -->
<g id="node24" class="node">
<title>b23</title>
<polygon fill="lightgreen" stroke="black" points="5390,-457 5107,-457 5107,-405 5390,-405 5390,-457"/>
<text text-anchor="middle" x="5248.5" y="-445" font-family="Helvetica" font-size="10.00">B23</text>
<text text-anchor="middle" x="5248.5" y="-434" font-family="Helvetica" font-size="10.00">Loop: L1</text>
<text text-anchor="middle" x="5248.5" y="-423" font-family="Helvetica" font-size="10.00">&#45;&#45;&#45;</text>
<text text-anchor="middle" x="5248.5" y="-412" font-family="Helvetica" font-size="10.00">HotSpotMethod&lt;LoopBenchmarks.sieveLoop(boolean[], int)&gt;</text>
</g>
<!-- b22&#45;&gt;b23 -->
<g id="edge30" class="edge">
<title>b22&#45;&gt;b23</title>
<path fill="none" stroke="black" d="M4928.05,-311.1C4995.46,-336.4 5097.61,-374.74 5168.16,-401.22"/>
<polygon fill="black" stroke="black" points="5167.31,-404.64 5177.9,-404.88 5169.77,-398.09 5167.31,-404.64"/>
</g>
<!-- b35 -->
<g id="node36" class="node">
<title>b35</title>
<polygon fill="white" stroke="black" points="5390,-311 5107,-311 5107,-259 5390,-259 5390,-311"/>
<text text-anchor="middle" x="5248.5" y="-299" font-family="Helvetica" font-size="10.00">B35</text>
<text text-anchor="middle" x="5248.5" y="-288" font-family="Helvetica" font-size="10.00">Loop: &lt;none&gt;</text>
<text text-anchor="middle" x="5248.5" y="-277" font-family="Helvetica" font-size="10.00">&#45;&#45;&#45;</text>
<text text-anchor="middle" x="5248.5" y="-266" font-family="Helvetica" font-size="10.00">HotSpotMethod&lt;LoopBenchmarks.sieveLoop(boolean[], int)&gt;</text>
</g>
<!-- b22&#45;&gt;b35 -->
<g id="edge31" class="edge">
<title>b22&#45;&gt;b35</title>
<path fill="none" stroke="black" d="M4999.21,-285C5030.81,-285 5064.47,-285 5096.48,-285"/>
<polygon fill="black" stroke="black" points="5096.8,-288.5 5106.8,-285 5096.8,-281.5 5096.8,-288.5"/>
</g>
<!-- b24 -->
<g id="node25" class="node">
<title>b24</title>
<polygon fill="lightgreen" stroke="black" points="5781,-603 5498,-603 5498,-551 5781,-551 5781,-603"/>
<text text-anchor="middle" x="5639.5" y="-591" font-family="Helvetica" font-size="10.00">B24</text>
<text text-anchor="middle" x="5639.5" y="-580" font-family="Helvetica" font-size="10.00">Loop: L1</text>
<text text-anchor="middle" x="5639.5" y="-569" font-family="Helvetica" font-size="10.00">&#45;&#45;&#45;</text>
<text text-anchor="middle" x="5639.5" y="-558" font-family="Helvetica" font-size="10.00">HotSpotMethod&lt;LoopBenchmarks.sieveLoop(boolean[], int)&gt;</text>
</g>
<!-- b23&#45;&gt;b24 -->
<g id="edge32" class="edge">
<title>b23&#45;&gt;b24</title>
<path fill="none" stroke="black" d="M5319.05,-457.1C5386.46,-482.4 5488.61,-520.74 5559.16,-547.22"/>
<polygon fill="black" stroke="black" points="5558.31,-550.64 5568.9,-550.88 5560.77,-544.09 5558.31,-550.64"/>
</g>
<!-- b34 -->
<g id="node35" class="node">
<title>b34</title>
<polygon fill="white" stroke="black" points="5781,-457 5498,-457 5498,-405 5781,-405 5781,-457"/>
<text text-anchor="middle" x="5639.5" y="-445" font-family="Helvetica" font-size="10.00">B34</text>
<text text-anchor="middle" x="5639.5" y="-434" font-family="Helvetica" font-size="10.00">Loop: &lt;none&gt;</text>
<text text-anchor="middle" x="5639.5" y="-423" font-family="Helvetica" font-size="10.00">&#45;&#45;&#45;</text>
<text text-anchor="middle" x="5639.5" y="-412" font-family="Helvetica" font-size="10.00">HotSpotMethod&lt;LoopBenchmarks.sieveLoop(boolean[], int)&gt;</text>
</g>
<!-- b23&#45;&gt;b34 -->
<g id="edge33" class="edge">
<title>b23&#45;&gt;b34</title>
<path fill="none" stroke="black" d="M5390.21,-431C5421.81,-431 5455.47,-431 5487.48,-431"/>
<polygon fill="black" stroke="black" points="5487.8,-434.5 5497.8,-431 5487.8,-427.5 5487.8,-434.5"/>
</g>
<!-- b25 -->
<g id="node26" class="node">
<title>b25</title>
<polygon fill="lightgreen" stroke="black" points="6172,-738 5889,-738 5889,-686 6172,-686 6172,-738"/>
<text text-anchor="middle" x="6030.5" y="-726" font-family="Helvetica" font-size="10.00">B25</text>
<text text-anchor="middle" x="6030.5" y="-715" font-family="Helvetica" font-size="10.00">Loop: L1</text>
<text text-anchor="middle" x="6030.5" y="-704" font-family="Helvetica" font-size="10.00">&#45;&#45;&#45;</text>
<text text-anchor="middle" x="6030.5" y="-693" font-family="Helvetica" font-size="10.00">HotSpotMethod&lt;LoopBenchmarks.sieveLoop(boolean[], int)&gt;</text>
</g>
<!-- b24&#45;&gt;b25 -->
<g id="edge34" class="edge">
<title>b24&#45;&gt;b25</title>
<path fill="none" stroke="black" d="M5715.5,-603.03C5781.19,-625.82 5876.55,-658.92 5944.93,-682.65"/>
<polygon fill="black" stroke="black" points="5943.8,-685.96 5954.4,-685.94 5946.1,-679.35 5943.8,-685.96"/>
</g>
<!-- b33 -->
<g id="node34" class="node">
<title>b33</title>
<polygon fill="white" stroke="black" points="6172,-603 5889,-603 5889,-551 6172,-551 6172,-603"/>
<text text-anchor="middle" x="6030.5" y="-591" font-family="Helvetica" font-size="10.00">B33</text>
<text text-anchor="middle" x="6030.5" y="-580" font-family="Helvetica" font-size="10.00">Loop: &lt;none&gt;</text>
<text text-anchor="middle" x="6030.5" y="-569" font-family="Helvetica" font-size="10.00">&#45;&#45;&#45;</text>
<text text-anchor="middle" x="6030.5" y="-558" font-family="Helvetica" font-size="10.00">HotSpotMethod&lt;LoopBenchmarks.sieveLoop(boolean[], int)&gt;</text>
</g>
<!-- b24&#45;&gt;b33 -->
<g id="edge35" class="edge">
<title>b24&#45;&gt;b33</title>
<path fill="none" stroke="black" d="M5781.21,-577C5812.81,-577 5846.47,-577 5878.48,-577"/>
<polygon fill="black" stroke="black" points="5878.8,-580.5 5888.8,-577 5878.8,-573.5 5878.8,-580.5"/>
</g>
<!-- b26 -->
<g id="node27" class="node">
<title>b26</title>
<polygon fill="white" stroke="black" points="6567,-738 6284,-738 6284,-686 6567,-686 6567,-738"/>
<text text-anchor="middle" x="6425.5" y="-726" font-family="Helvetica" font-size="10.00">B26</text>
<text text-anchor="middle" x="6425.5" y="-715" font-family="Helvetica" font-size="10.00">Loop: &lt;none&gt;</text>
<text text-anchor="middle" x="6425.5" y="-704" font-family="Helvetica" font-size="10.00">&#45;&#45;&#45;</text>
<text text-anchor="middle" x="6425.5" y="-693" font-family="Helvetica" font-size="10.00">HotSpotMethod&lt;LoopBenchmarks.sieveLoop(boolean[], int)&gt;</text>
</g>
<!-- b25&#45;&gt;b26 -->
<g id="edge36" class="edge">
<title>b25&#45;&gt;b26</title>
<path fill="none" stroke="black" d="M6172.27,-712C6205.11,-712 6240.2,-712 6273.46,-712"/>
<polygon fill="black" stroke="black" points="6273.72,-715.5 6283.72,-712 6273.72,-708.5 6273.72,-715.5"/>
</g>
<!-- b27 -->
<g id="node28" class="node">
<title>b27</title>
<polygon fill="lightgreen" stroke="black" stroke-width="4" points="6567,-899.5 6284,-899.5 6284,-814.5 6567,-814.5 6567,-899.5"/>
<polygon fill="none" stroke="black" stroke-width="4" points="6571,-903.5 6280,-903.5 6280,-810.5 6571,-810.5 6571,-903.5"/>
<text text-anchor="middle" x="6425.5" y="-887.5" font-family="Helvetica" font-size="10.00">B27</text>
<text text-anchor="middle" x="6425.5" y="-876.5" font-family="Helvetica" font-size="10.00">Loop: L1</text>
<text text-anchor="middle" x="6425.5" y="-865.5" font-family="Helvetica" font-size="10.00">&#45;&#45;&#45;</text>
<text text-anchor="middle" x="6425.5" y="-854.5" font-family="Helvetica" font-size="10.00">HotSpotMethod&lt;LoopBenchmarks.sieveLoop(boolean[], int)&gt;</text>
<text text-anchor="middle" x="6425.5" y="-843.5" font-family="Helvetica" font-size="10.00">&#45;&#45;&#45;</text>
<text text-anchor="middle" x="6425.5" y="-832.5" font-family="Helvetica" font-size="10.00">BuboLoopMakers:</text>
<text text-anchor="middle" x="6425.5" y="-821.5" font-family="Helvetica" font-size="10.00"> &#160;AMD64BuboRDTSCToSlot (LoopID=2)</text>
</g>
<!-- b25&#45;&gt;b27 -->
<g id="edge37" class="edge">
<title>b25&#45;&gt;b27</title>
<path fill="none" stroke="black" d="M6102.21,-738.09C6154.03,-757.21 6225.97,-783.75 6288.74,-806.91"/>
<polygon fill="black" stroke="black" points="6287.74,-810.27 6298.34,-810.45 6290.17,-803.71 6287.74,-810.27"/>
</g>
<!-- b36 -->
<g id="node37" class="node">
<title>b36</title>
<polygon fill="white" stroke="black" points="6962,-530 6679,-530 6679,-478 6962,-478 6962,-530"/>
<text text-anchor="middle" x="6820.5" y="-518" font-family="Helvetica" font-size="10.00">B36</text>
<text text-anchor="middle" x="6820.5" y="-507" font-family="Helvetica" font-size="10.00">Loop: &lt;none&gt;</text>
<text text-anchor="middle" x="6820.5" y="-496" font-family="Helvetica" font-size="10.00">&#45;&#45;&#45;</text>
<text text-anchor="middle" x="6820.5" y="-485" font-family="Helvetica" font-size="10.00">HotSpotMethod&lt;LoopBenchmarks.sieveLoop(boolean[], int)&gt;</text>
</g>
<!-- b26&#45;&gt;b36 -->
<g id="edge38" class="edge">
<title>b26&#45;&gt;b36</title>
<path fill="none" stroke="black" d="M6475.88,-685.87C6548.48,-647.44 6683.79,-575.83 6761.18,-534.87"/>
<polygon fill="black" stroke="black" points="6763.13,-537.8 6770.33,-530.03 6759.85,-531.61 6763.13,-537.8"/>
</g>
<!-- b28 -->
<g id="node29" class="node">
<title>b28</title>
<polygon fill="lightpink" stroke="black" points="6962,-805 6679,-805 6679,-753 6962,-753 6962,-805"/>
<text text-anchor="middle" x="6820.5" y="-793" font-family="Helvetica" font-size="10.00">B28</text>
<text text-anchor="middle" x="6820.5" y="-782" font-family="Helvetica" font-size="10.00">Loop: L2</text>
<text text-anchor="middle" x="6820.5" y="-771" font-family="Helvetica" font-size="10.00">&#45;&#45;&#45;</text>
<text text-anchor="middle" x="6820.5" y="-760" font-family="Helvetica" font-size="10.00">HotSpotMethod&lt;LoopBenchmarks.sieveLoop(boolean[], int)&gt;</text>
</g>
<!-- b27&#45;&gt;b28 -->
<g id="edge39" class="edge">
<title>b27&#45;&gt;b28</title>
<path fill="none" stroke="black" d="M6571.16,-828.29C6606.12,-821.35 6643.44,-813.94 6678.24,-807.04"/>
<polygon fill="black" stroke="black" points="6679.34,-810.39 6688.47,-805.01 6677.98,-803.52 6679.34,-810.39"/>
</g>
<!-- b29 -->
<g id="node30" class="node">
<title>b29</title>
<polygon fill="lightpink" stroke="black" points="7357,-737 7074,-737 7074,-685 7357,-685 7357,-737"/>
<text text-anchor="middle" x="7215.5" y="-725" font-family="Helvetica" font-size="10.00">B29</text>
<text text-anchor="middle" x="7215.5" y="-714" font-family="Helvetica" font-size="10.00">Loop: L2</text>
<text text-anchor="middle" x="7215.5" y="-703" font-family="Helvetica" font-size="10.00">&#45;&#45;&#45;</text>
<text text-anchor="middle" x="7215.5" y="-692" font-family="Helvetica" font-size="10.00">HotSpotMethod&lt;LoopBenchmarks.sieveLoop(boolean[], int)&gt;</text>
</g>
<!-- b28&#45;&gt;b29 -->
<g id="edge40" class="edge">
<title>b28&#45;&gt;b29</title>
<path fill="none" stroke="black" d="M6962.27,-754.64C6995.11,-748.96 7030.2,-742.89 7063.46,-737.13"/>
<polygon fill="black" stroke="black" points="7064.46,-740.51 7073.72,-735.36 7063.27,-733.62 7064.46,-740.51"/>
</g>
<!-- b31 -->
<g id="node32" class="node">
<title>b31</title>
<polygon fill="lightgreen" stroke="black" stroke-width="4" points="7357,-540.5 7074,-540.5 7074,-455.5 7357,-455.5 7357,-540.5"/>
<polygon fill="none" stroke="black" stroke-width="4" points="7361,-544.5 7070,-544.5 7070,-451.5 7361,-451.5 7361,-544.5"/>
<text text-anchor="middle" x="7215.5" y="-528.5" font-family="Helvetica" font-size="10.00">B31</text>
<text text-anchor="middle" x="7215.5" y="-517.5" font-family="Helvetica" font-size="10.00">Loop: L1</text>
<text text-anchor="middle" x="7215.5" y="-506.5" font-family="Helvetica" font-size="10.00">&#45;&#45;&#45;</text>
<text text-anchor="middle" x="7215.5" y="-495.5" font-family="Helvetica" font-size="10.00">HotSpotMethod&lt;LoopBenchmarks.sieveLoop(boolean[], int)&gt;</text>
<text text-anchor="middle" x="7215.5" y="-484.5" font-family="Helvetica" font-size="10.00">&#45;&#45;&#45;</text>
<text text-anchor="middle" x="7215.5" y="-473.5" font-family="Helvetica" font-size="10.00">BuboLoopMakers:</text>
<text text-anchor="middle" x="7215.5" y="-462.5" font-family="Helvetica" font-size="10.00"> &#160;AMD64BuboWriteDeltaRDTSC (LoopID=2)</text>
</g>
<!-- b28&#45;&gt;b31 -->
<g id="edge41" class="edge">
<title>b28&#45;&gt;b31</title>
<path fill="none" stroke="black" d="M6858.12,-752.82C6922.48,-706.8 7057.01,-610.61 7141.13,-550.46"/>
<polygon fill="black" stroke="black" points="7143.26,-553.24 7149.36,-544.58 7139.19,-547.55 7143.26,-553.24"/>
</g>
<!-- b30 -->
<g id="node31" class="node">
<title>b30</title>
<polygon fill="lightpink" stroke="black" points="7752,-866 7469,-866 7469,-814 7752,-814 7752,-866"/>
<text text-anchor="middle" x="7610.5" y="-854" font-family="Helvetica" font-size="10.00">B30</text>
<text text-anchor="middle" x="7610.5" y="-843" font-family="Helvetica" font-size="10.00">Loop: L2</text>
<text text-anchor="middle" x="7610.5" y="-832" font-family="Helvetica" font-size="10.00">&#45;&#45;&#45;</text>
<text text-anchor="middle" x="7610.5" y="-821" font-family="Helvetica" font-size="10.00">HotSpotMethod&lt;LoopBenchmarks.sieveLoop(boolean[], int)&gt;</text>
</g>
<!-- b29&#45;&gt;b30 -->
<g id="edge42" class="edge">
<title>b29&#45;&gt;b30</title>
<path fill="none" stroke="black" d="M7296.03,-737.11C7361.02,-758.44 7452.84,-788.58 7520.32,-810.73"/>
<polygon fill="black" stroke="black" points="7519.5,-814.14 7530.09,-813.93 7521.68,-807.49 7519.5,-814.14"/>
</g>
<!-- b32 -->
<g id="node33" class="node">
<title>b32</title>
<polygon fill="white" stroke="black" points="7752,-737 7469,-737 7469,-685 7752,-685 7752,-737"/>
<text text-anchor="middle" x="7610.5" y="-725" font-family="Helvetica" font-size="10.00">B32</text>
<text text-anchor="middle" x="7610.5" y="-714" font-family="Helvetica" font-size="10.00">Loop: &lt;none&gt;</text>
<text text-anchor="middle" x="7610.5" y="-703" font-family="Helvetica" font-size="10.00">&#45;&#45;&#45;</text>
<text text-anchor="middle" x="7610.5" y="-692" font-family="Helvetica" font-size="10.00">HotSpotMethod&lt;LoopBenchmarks.sieveLoop(boolean[], int)&gt;</text>
</g>
<!-- b29&#45;&gt;b32 -->
<g id="edge43" class="edge">
<title>b29&#45;&gt;b32</title>
<path fill="none" stroke="black" d="M7357.27,-711C7390.11,-711 7425.2,-711 7458.46,-711"/>
<polygon fill="black" stroke="black" points="7458.72,-714.5 7468.72,-711 7458.72,-707.5 7458.72,-714.5"/>
</g>
<!-- b30&#45;&gt;b28 -->
<g id="edge44" class="edge">
<title>b30&#45;&gt;b28</title>
<path fill="none" stroke="black" d="M7468.85,-829.11C7329.18,-818.3 7115.76,-801.78 6972.57,-790.69"/>
<polygon fill="black" stroke="black" points="6972.62,-787.19 6962.38,-789.91 6972.08,-794.17 6972.62,-787.19"/>
</g>
<!-- b31&#45;&gt;b22 -->
<g id="edge45" class="edge">
<title>b31&#45;&gt;b22</title>
<path fill="none" stroke="black" d="M7157.79,-451.44C7033.54,-354.3 6724.54,-139 6426.5,-139 5638.5,-139 5638.5,-139 5638.5,-139 5386.49,-139 5096.38,-213.54 4951.29,-256.1"/>
<polygon fill="black" stroke="black" points="4950.12,-252.8 4941.52,-258.98 4952.1,-259.51 4950.12,-252.8"/>
</g>
<!-- b33&#45;&gt;b36 -->
<g id="edge46" class="edge">
<title>b33&#45;&gt;b36</title>
<path fill="none" stroke="black" d="M6172.38,-563.95C6312.12,-551 6525.54,-531.23 6668.67,-517.97"/>
<polygon fill="black" stroke="black" points="6669.21,-521.44 6678.85,-517.03 6668.57,-514.47 6669.21,-521.44"/>
</g>
<!-- b34&#45;&gt;b36 -->
<g id="edge47" class="edge">
<title>b34&#45;&gt;b36</title>
<path fill="none" stroke="black" d="M5781.25,-439.71C6004.73,-453.55 6438.87,-480.43 6668.56,-494.65"/>
<polygon fill="black" stroke="black" points="6668.47,-498.16 6678.67,-495.28 6668.91,-491.17 6668.47,-498.16"/>
</g>
<!-- b35&#45;&gt;b36 -->
<g id="edge48" class="edge">
<title>b35&#45;&gt;b36</title>
<path fill="none" stroke="black" d="M5390.38,-299.03C5632.56,-324 6143.08,-380.31 6571,-452 6611.48,-458.78 6655.38,-467.51 6694.87,-475.87"/>
<polygon fill="black" stroke="black" points="6694.3,-479.33 6704.81,-477.99 6695.75,-472.48 6694.3,-479.33"/>
</g>
<!-- b37&#45;&gt;b38 -->
<g id="edge49" class="edge">
<title>b37&#45;&gt;b38</title>
<path fill="none" stroke="black" d="M2169.83,-165.06C2315.25,-217.45 2642.18,-335.23 2795.37,-390.41"/>
<polygon fill="black" stroke="black" points="2794.61,-393.86 2805.21,-393.96 2796.98,-387.27 2794.61,-393.86"/>
</g>
</g>
</svg>
