<?xml version="1.0" encoding="UTF-8" standalone="no"?>
<!DOCTYPE svg PUBLIC "-//W3C//DTD SVG 1.1//EN"
 "http://www.w3.org/Graphics/SVG/1.1/DTD/svg11.dtd">
<!-- Generated by graphviz version 2.44.0 (0)
 -->
<!-- Title: CFG_142 Pages: 1 -->
<svg width="3354pt" height="526pt"
 viewBox="0.00 0.00 3354.00 525.50" xmlns="http://www.w3.org/2000/svg" xmlns:xlink="http://www.w3.org/1999/xlink">
<g id="graph0" class="graph" transform="scale(1 1) rotate(0) translate(4 521.5)">
<title>CFG_142</title>
<polygon fill="white" stroke="transparent" points="-4,4 -4,-521.5 3350,-521.5 3350,4 -4,4"/>
<text text-anchor="middle" x="189" y="-497.5" font-family="Times-Roman" font-size="20.00">206&#45;LoopBenchmarks.main(String[])</text>
<!-- b0 -->
<g id="node1" class="node">
<title>b0</title>
<polygon fill="white" stroke="black" points="235,-114 0,-114 0,-62 235,-62 235,-114"/>
<text text-anchor="middle" x="117.5" y="-102" font-family="Helvetica" font-size="10.00">B0</text>
<text text-anchor="middle" x="117.5" y="-91" font-family="Helvetica" font-size="10.00">Loop: &lt;none&gt;</text>
<text text-anchor="middle" x="117.5" y="-80" font-family="Helvetica" font-size="10.00">&#45;&#45;&#45;</text>
<text text-anchor="middle" x="117.5" y="-69" font-family="Helvetica" font-size="10.00">HotSpotMethod&lt;LoopBenchmarks.main(String[])&gt;</text>
</g>
<!-- b1 -->
<g id="node2" class="node">
<title>b1</title>
<polygon fill="white" stroke="black" points="578,-187 343,-187 343,-135 578,-135 578,-187"/>
<text text-anchor="middle" x="460.5" y="-175" font-family="Helvetica" font-size="10.00">B1</text>
<text text-anchor="middle" x="460.5" y="-164" font-family="Helvetica" font-size="10.00">Loop: &lt;none&gt;</text>
<text text-anchor="middle" x="460.5" y="-153" font-family="Helvetica" font-size="10.00">&#45;&#45;&#45;</text>
<text text-anchor="middle" x="460.5" y="-142" font-family="Helvetica" font-size="10.00">HotSpotMethod&lt;LoopBenchmarks.main(String[])&gt;</text>
</g>
<!-- b0&#45;&gt;b1 -->
<g id="edge1" class="edge">
<title>b0&#45;&gt;b1</title>
<path fill="none" stroke="black" d="M235.38,-113.02C266.83,-119.75 300.99,-127.07 332.94,-133.91"/>
<polygon fill="black" stroke="black" points="332.27,-137.34 342.78,-136.01 333.73,-130.5 332.27,-137.34"/>
</g>
<!-- b15 -->
<g id="node16" class="node">
<title>b15</title>
<polygon fill="white" stroke="black" points="578,-52 343,-52 343,0 578,0 578,-52"/>
<text text-anchor="middle" x="460.5" y="-40" font-family="Helvetica" font-size="10.00">B15</text>
<text text-anchor="middle" x="460.5" y="-29" font-family="Helvetica" font-size="10.00">Loop: &lt;none&gt;</text>
<text text-anchor="middle" x="460.5" y="-18" font-family="Helvetica" font-size="10.00">&#45;&#45;&#45;</text>
<text text-anchor="middle" x="460.5" y="-7" font-family="Helvetica" font-size="10.00">HotSpotMethod&lt;LoopBenchmarks.main(String[])&gt;</text>
</g>
<!-- b0&#45;&gt;b15 -->
<g id="edge2" class="edge">
<title>b0&#45;&gt;b15</title>
<path fill="none" stroke="black" d="M235.38,-66.75C266.83,-61.03 300.99,-54.82 332.94,-49.01"/>
<polygon fill="black" stroke="black" points="333.56,-52.45 342.78,-47.22 332.31,-45.57 333.56,-52.45"/>
</g>
<!-- b2 -->
<g id="node3" class="node">
<title>b2</title>
<polygon fill="white" stroke="black" points="921,-322 686,-322 686,-270 921,-270 921,-322"/>
<text text-anchor="middle" x="803.5" y="-310" font-family="Helvetica" font-size="10.00">B2</text>
<text text-anchor="middle" x="803.5" y="-299" font-family="Helvetica" font-size="10.00">Loop: &lt;none&gt;</text>
<text text-anchor="middle" x="803.5" y="-288" font-family="Helvetica" font-size="10.00">&#45;&#45;&#45;</text>
<text text-anchor="middle" x="803.5" y="-277" font-family="Helvetica" font-size="10.00">HotSpotMethod&lt;LoopBenchmarks.main(String[])&gt;</text>
</g>
<!-- b1&#45;&gt;b2 -->
<g id="edge3" class="edge">
<title>b1&#45;&gt;b2</title>
<path fill="none" stroke="black" d="M527.25,-187.03C584.47,-209.68 667.4,-242.52 727.26,-266.21"/>
<polygon fill="black" stroke="black" points="726.08,-269.51 736.66,-269.94 728.65,-263 726.08,-269.51"/>
</g>
<!-- b14 -->
<g id="node15" class="node">
<title>b14</title>
<polygon fill="white" stroke="black" points="921,-187 686,-187 686,-135 921,-135 921,-187"/>
<text text-anchor="middle" x="803.5" y="-175" font-family="Helvetica" font-size="10.00">B14</text>
<text text-anchor="middle" x="803.5" y="-164" font-family="Helvetica" font-size="10.00">Loop: &lt;none&gt;</text>
<text text-anchor="middle" x="803.5" y="-153" font-family="Helvetica" font-size="10.00">&#45;&#45;&#45;</text>
<text text-anchor="middle" x="803.5" y="-142" font-family="Helvetica" font-size="10.00">HotSpotMethod&lt;LoopBenchmarks.main(String[])&gt;</text>
</g>
<!-- b1&#45;&gt;b14 -->
<g id="edge4" class="edge">
<title>b1&#45;&gt;b14</title>
<path fill="none" stroke="black" d="M578.38,-161C609.69,-161 643.69,-161 675.52,-161"/>
<polygon fill="black" stroke="black" points="675.78,-164.5 685.78,-161 675.78,-157.5 675.78,-164.5"/>
</g>
<!-- b3 -->
<g id="node4" class="node">
<title>b3</title>
<polygon fill="white" stroke="black" stroke-width="4" points="1268,-483.5 1033,-483.5 1033,-398.5 1268,-398.5 1268,-483.5"/>
<polygon fill="none" stroke="black" stroke-width="4" points="1272,-487.5 1029,-487.5 1029,-394.5 1272,-394.5 1272,-487.5"/>
<text text-anchor="middle" x="1150.5" y="-471.5" font-family="Helvetica" font-size="10.00">B3</text>
<text text-anchor="middle" x="1150.5" y="-460.5" font-family="Helvetica" font-size="10.00">Loop: &lt;none&gt;</text>
<text text-anchor="middle" x="1150.5" y="-449.5" font-family="Helvetica" font-size="10.00">&#45;&#45;&#45;</text>
<text text-anchor="middle" x="1150.5" y="-438.5" font-family="Helvetica" font-size="10.00">HotSpotMethod&lt;LoopBenchmarks.main(String[])&gt;</text>
<text text-anchor="middle" x="1150.5" y="-427.5" font-family="Helvetica" font-size="10.00">&#45;&#45;&#45;</text>
<text text-anchor="middle" x="1150.5" y="-416.5" font-family="Helvetica" font-size="10.00">BuboLoopMakers:</text>
<text text-anchor="middle" x="1150.5" y="-405.5" font-family="Helvetica" font-size="10.00"> &#160;AMD64BuboRDTSCToSlot (LoopID=0)</text>
</g>
<!-- b2&#45;&gt;b3 -->
<g id="edge5" class="edge">
<title>b2&#45;&gt;b3</title>
<path fill="none" stroke="black" d="M866.58,-322.09C911.78,-341.09 974.44,-367.43 1029.31,-390.48"/>
<polygon fill="black" stroke="black" points="1028.17,-393.8 1038.74,-394.45 1030.88,-387.35 1028.17,-393.8"/>
</g>
<!-- b13 -->
<g id="node14" class="node">
<title>b13</title>
<polygon fill="white" stroke="black" points="1268,-322 1033,-322 1033,-270 1268,-270 1268,-322"/>
<text text-anchor="middle" x="1150.5" y="-310" font-family="Helvetica" font-size="10.00">B13</text>
<text text-anchor="middle" x="1150.5" y="-299" font-family="Helvetica" font-size="10.00">Loop: &lt;none&gt;</text>
<text text-anchor="middle" x="1150.5" y="-288" font-family="Helvetica" font-size="10.00">&#45;&#45;&#45;</text>
<text text-anchor="middle" x="1150.5" y="-277" font-family="Helvetica" font-size="10.00">HotSpotMethod&lt;LoopBenchmarks.main(String[])&gt;</text>
</g>
<!-- b2&#45;&gt;b13 -->
<g id="edge6" class="edge">
<title>b2&#45;&gt;b13</title>
<path fill="none" stroke="black" d="M921.3,-296C953.9,-296 989.47,-296 1022.62,-296"/>
<polygon fill="black" stroke="black" points="1022.82,-299.5 1032.82,-296 1022.82,-292.5 1022.82,-299.5"/>
</g>
<!-- b4 -->
<g id="node5" class="node">
<title>b4</title>
<polygon fill="lightblue" stroke="black" points="1615,-467 1380,-467 1380,-415 1615,-415 1615,-467"/>
<text text-anchor="middle" x="1497.5" y="-455" font-family="Helvetica" font-size="10.00">B4</text>
<text text-anchor="middle" x="1497.5" y="-444" font-family="Helvetica" font-size="10.00">Loop: L0</text>
<text text-anchor="middle" x="1497.5" y="-433" font-family="Helvetica" font-size="10.00">&#45;&#45;&#45;</text>
<text text-anchor="middle" x="1497.5" y="-422" font-family="Helvetica" font-size="10.00">HotSpotMethod&lt;LoopBenchmarks.main(String[])&gt;</text>
</g>
<!-- b3&#45;&gt;b4 -->
<g id="edge7" class="edge">
<title>b3&#45;&gt;b4</title>
<path fill="none" stroke="black" d="M1272.16,-441C1303.72,-441 1337.84,-441 1369.71,-441"/>
<polygon fill="black" stroke="black" points="1369.97,-444.5 1379.97,-441 1369.97,-437.5 1369.97,-444.5"/>
</g>
<!-- b5 -->
<g id="node6" class="node">
<title>b5</title>
<polygon fill="lightblue" stroke="black" points="1962,-467 1727,-467 1727,-415 1962,-415 1962,-467"/>
<text text-anchor="middle" x="1844.5" y="-455" font-family="Helvetica" font-size="10.00">B5</text>
<text text-anchor="middle" x="1844.5" y="-444" font-family="Helvetica" font-size="10.00">Loop: L0</text>
<text text-anchor="middle" x="1844.5" y="-433" font-family="Helvetica" font-size="10.00">&#45;&#45;&#45;</text>
<text text-anchor="middle" x="1844.5" y="-422" font-family="Helvetica" font-size="10.00">HotSpotMethod&lt;LoopBenchmarks.main(String[])&gt;</text>
</g>
<!-- b4&#45;&gt;b5 -->
<g id="edge8" class="edge">
<title>b4&#45;&gt;b5</title>
<path fill="none" stroke="black" d="M1615.3,-415.29C1647.9,-413.73 1683.47,-413.58 1716.62,-414.86"/>
<polygon fill="black" stroke="black" points="1716.68,-418.36 1726.82,-415.3 1716.98,-411.37 1716.68,-418.36"/>
</g>
<!-- b6 -->
<g id="node7" class="node">
<title>b6</title>
<polygon fill="white" stroke="black" stroke-width="4" points="1962,-338.5 1727,-338.5 1727,-253.5 1962,-253.5 1962,-338.5"/>
<polygon fill="none" stroke="black" stroke-width="4" points="1966,-342.5 1723,-342.5 1723,-249.5 1966,-249.5 1966,-342.5"/>
<text text-anchor="middle" x="1844.5" y="-326.5" font-family="Helvetica" font-size="10.00">B6</text>
<text text-anchor="middle" x="1844.5" y="-315.5" font-family="Helvetica" font-size="10.00">Loop: &lt;none&gt;</text>
<text text-anchor="middle" x="1844.5" y="-304.5" font-family="Helvetica" font-size="10.00">&#45;&#45;&#45;</text>
<text text-anchor="middle" x="1844.5" y="-293.5" font-family="Helvetica" font-size="10.00">HotSpotMethod&lt;LoopBenchmarks.main(String[])&gt;</text>
<text text-anchor="middle" x="1844.5" y="-282.5" font-family="Helvetica" font-size="10.00">&#45;&#45;&#45;</text>
<text text-anchor="middle" x="1844.5" y="-271.5" font-family="Helvetica" font-size="10.00">BuboLoopMakers:</text>
<text text-anchor="middle" x="1844.5" y="-260.5" font-family="Helvetica" font-size="10.00"> &#160;AMD64BuboRDTSCToSlot (LoopID=1)</text>
</g>
<!-- b4&#45;&gt;b6 -->
<g id="edge9" class="edge">
<title>b4&#45;&gt;b6</title>
<path fill="none" stroke="black" d="M1560.58,-414.91C1605.78,-395.91 1668.44,-369.57 1723.31,-346.52"/>
<polygon fill="black" stroke="black" points="1724.88,-349.65 1732.74,-342.55 1722.17,-343.2 1724.88,-349.65"/>
</g>
<!-- b5&#45;&gt;b4 -->
<g id="edge10" class="edge">
<title>b5&#45;&gt;b4</title>
<path fill="none" stroke="black" d="M1726.82,-466.7C1694.23,-468.27 1658.66,-468.42 1625.51,-467.15"/>
<polygon fill="black" stroke="black" points="1625.44,-463.64 1615.3,-466.71 1625.14,-470.64 1625.44,-463.64"/>
</g>
<!-- b7 -->
<g id="node8" class="node">
<title>b7</title>
<polygon fill="lightgreen" stroke="black" points="2309,-322 2074,-322 2074,-270 2309,-270 2309,-322"/>
<text text-anchor="middle" x="2191.5" y="-310" font-family="Helvetica" font-size="10.00">B7</text>
<text text-anchor="middle" x="2191.5" y="-299" font-family="Helvetica" font-size="10.00">Loop: L1</text>
<text text-anchor="middle" x="2191.5" y="-288" font-family="Helvetica" font-size="10.00">&#45;&#45;&#45;</text>
<text text-anchor="middle" x="2191.5" y="-277" font-family="Helvetica" font-size="10.00">HotSpotMethod&lt;LoopBenchmarks.main(String[])&gt;</text>
</g>
<!-- b6&#45;&gt;b7 -->
<g id="edge11" class="edge">
<title>b6&#45;&gt;b7</title>
<path fill="none" stroke="black" d="M1966.16,-296C1997.72,-296 2031.84,-296 2063.71,-296"/>
<polygon fill="black" stroke="black" points="2063.97,-299.5 2073.97,-296 2063.97,-292.5 2063.97,-299.5"/>
</g>
<!-- b8 -->
<g id="node9" class="node">
<title>b8</title>
<polygon fill="lightgreen" stroke="black" points="2656,-322 2421,-322 2421,-270 2656,-270 2656,-322"/>
<text text-anchor="middle" x="2538.5" y="-310" font-family="Helvetica" font-size="10.00">B8</text>
<text text-anchor="middle" x="2538.5" y="-299" font-family="Helvetica" font-size="10.00">Loop: L1</text>
<text text-anchor="middle" x="2538.5" y="-288" font-family="Helvetica" font-size="10.00">&#45;&#45;&#45;</text>
<text text-anchor="middle" x="2538.5" y="-277" font-family="Helvetica" font-size="10.00">HotSpotMethod&lt;LoopBenchmarks.main(String[])&gt;</text>
</g>
<!-- b7&#45;&gt;b8 -->
<g id="edge12" class="edge">
<title>b7&#45;&gt;b8</title>
<path fill="none" stroke="black" d="M2309.3,-270.29C2341.9,-268.73 2377.47,-268.58 2410.62,-269.86"/>
<polygon fill="black" stroke="black" points="2410.68,-273.36 2420.82,-270.3 2410.98,-266.37 2410.68,-273.36"/>
</g>
<!-- b9 -->
<g id="node10" class="node">
<title>b9</title>
<polygon fill="white" stroke="black" stroke-width="4" points="2656,-193.5 2421,-193.5 2421,-108.5 2656,-108.5 2656,-193.5"/>
<polygon fill="none" stroke="black" stroke-width="4" points="2660,-197.5 2417,-197.5 2417,-104.5 2660,-104.5 2660,-197.5"/>
<text text-anchor="middle" x="2538.5" y="-181.5" font-family="Helvetica" font-size="10.00">B9</text>
<text text-anchor="middle" x="2538.5" y="-170.5" font-family="Helvetica" font-size="10.00">Loop: &lt;none&gt;</text>
<text text-anchor="middle" x="2538.5" y="-159.5" font-family="Helvetica" font-size="10.00">&#45;&#45;&#45;</text>
<text text-anchor="middle" x="2538.5" y="-148.5" font-family="Helvetica" font-size="10.00">HotSpotMethod&lt;LoopBenchmarks.main(String[])&gt;</text>
<text text-anchor="middle" x="2538.5" y="-137.5" font-family="Helvetica" font-size="10.00">&#45;&#45;&#45;</text>
<text text-anchor="middle" x="2538.5" y="-126.5" font-family="Helvetica" font-size="10.00">BuboLoopMakers:</text>
<text text-anchor="middle" x="2538.5" y="-115.5" font-family="Helvetica" font-size="10.00"> &#160;AMD64BuboRDTSCToSlot (LoopID=2)</text>
</g>
<!-- b7&#45;&gt;b9 -->
<g id="edge13" class="edge">
<title>b7&#45;&gt;b9</title>
<path fill="none" stroke="black" d="M2254.58,-269.91C2299.78,-250.91 2362.44,-224.57 2417.31,-201.52"/>
<polygon fill="black" stroke="black" points="2418.88,-204.65 2426.74,-197.55 2416.17,-198.2 2418.88,-204.65"/>
</g>
<!-- b8&#45;&gt;b7 -->
<g id="edge14" class="edge">
<title>b8&#45;&gt;b7</title>
<path fill="none" stroke="black" d="M2420.82,-321.7C2388.23,-323.27 2352.66,-323.42 2319.51,-322.15"/>
<polygon fill="black" stroke="black" points="2319.44,-318.64 2309.3,-321.71 2319.14,-325.64 2319.44,-318.64"/>
</g>
<!-- b10 -->
<g id="node11" class="node">
<title>b10</title>
<polygon fill="lightpink" stroke="black" points="3003,-177 2768,-177 2768,-125 3003,-125 3003,-177"/>
<text text-anchor="middle" x="2885.5" y="-165" font-family="Helvetica" font-size="10.00">B10</text>
<text text-anchor="middle" x="2885.5" y="-154" font-family="Helvetica" font-size="10.00">Loop: L2</text>
<text text-anchor="middle" x="2885.5" y="-143" font-family="Helvetica" font-size="10.00">&#45;&#45;&#45;</text>
<text text-anchor="middle" x="2885.5" y="-132" font-family="Helvetica" font-size="10.00">HotSpotMethod&lt;LoopBenchmarks.main(String[])&gt;</text>
</g>
<!-- b9&#45;&gt;b10 -->
<g id="edge15" class="edge">
<title>b9&#45;&gt;b10</title>
<path fill="none" stroke="black" d="M2660.16,-151C2691.72,-151 2725.84,-151 2757.71,-151"/>
<polygon fill="black" stroke="black" points="2757.97,-154.5 2767.97,-151 2757.97,-147.5 2757.97,-154.5"/>
</g>
<!-- b11 -->
<g id="node12" class="node">
<title>b11</title>
<polygon fill="lightpink" stroke="black" points="3346,-177 3111,-177 3111,-125 3346,-125 3346,-177"/>
<text text-anchor="middle" x="3228.5" y="-165" font-family="Helvetica" font-size="10.00">B11</text>
<text text-anchor="middle" x="3228.5" y="-154" font-family="Helvetica" font-size="10.00">Loop: L2</text>
<text text-anchor="middle" x="3228.5" y="-143" font-family="Helvetica" font-size="10.00">&#45;&#45;&#45;</text>
<text text-anchor="middle" x="3228.5" y="-132" font-family="Helvetica" font-size="10.00">HotSpotMethod&lt;LoopBenchmarks.main(String[])&gt;</text>
</g>
<!-- b10&#45;&gt;b11 -->
<g id="edge16" class="edge">
<title>b10&#45;&gt;b11</title>
<path fill="none" stroke="black" d="M3003.38,-125.22C3034.69,-123.75 3068.69,-123.61 3100.52,-124.8"/>
<polygon fill="black" stroke="black" points="3100.64,-128.31 3110.78,-125.23 3100.93,-121.31 3100.64,-128.31"/>
</g>
<!-- b12 -->
<g id="node13" class="node">
<title>b12</title>
<polygon fill="white" stroke="black" points="3346,-53 3111,-53 3111,-1 3346,-1 3346,-53"/>
<text text-anchor="middle" x="3228.5" y="-41" font-family="Helvetica" font-size="10.00">B12</text>
<text text-anchor="middle" x="3228.5" y="-30" font-family="Helvetica" font-size="10.00">Loop: &lt;none&gt;</text>
<text text-anchor="middle" x="3228.5" y="-19" font-family="Helvetica" font-size="10.00">&#45;&#45;&#45;</text>
<text text-anchor="middle" x="3228.5" y="-8" font-family="Helvetica" font-size="10.00">HotSpotMethod&lt;LoopBenchmarks.main(String[])&gt;</text>
</g>
<!-- b10&#45;&gt;b12 -->
<g id="edge17" class="edge">
<title>b10&#45;&gt;b12</title>
<path fill="none" stroke="black" d="M2958.4,-124.85C3013.35,-104.87 3089.13,-77.32 3146.27,-56.54"/>
<polygon fill="black" stroke="black" points="3147.79,-59.71 3155.99,-53 3145.4,-53.13 3147.79,-59.71"/>
</g>
<!-- b11&#45;&gt;b10 -->
<g id="edge18" class="edge">
<title>b11&#45;&gt;b10</title>
<path fill="none" stroke="black" d="M3110.78,-176.77C3079.47,-178.25 3045.47,-178.39 3013.63,-177.21"/>
<polygon fill="black" stroke="black" points="3013.51,-173.7 3003.38,-176.78 3013.22,-180.69 3013.51,-173.7"/>
</g>
<!-- b16 -->
<g id="node17" class="node">
<title>b16</title>
<polygon fill="white" stroke="black" points="1615,-187 1380,-187 1380,-135 1615,-135 1615,-187"/>
<text text-anchor="middle" x="1497.5" y="-175" font-family="Helvetica" font-size="10.00">B16</text>
<text text-anchor="middle" x="1497.5" y="-164" font-family="Helvetica" font-size="10.00">Loop: &lt;none&gt;</text>
<text text-anchor="middle" x="1497.5" y="-153" font-family="Helvetica" font-size="10.00">&#45;&#45;&#45;</text>
<text text-anchor="middle" x="1497.5" y="-142" font-family="Helvetica" font-size="10.00">HotSpotMethod&lt;LoopBenchmarks.main(String[])&gt;</text>
</g>
<!-- b13&#45;&gt;b16 -->
<g id="edge19" class="edge">
<title>b13&#45;&gt;b16</title>
<path fill="none" stroke="black" d="M1218.02,-269.97C1275.92,-247.32 1359.82,-214.48 1420.38,-190.79"/>
<polygon fill="black" stroke="black" points="1421.85,-193.97 1429.89,-187.06 1419.3,-187.45 1421.85,-193.97"/>
</g>
<!-- b14&#45;&gt;b16 -->
<g id="edge20" class="edge">
<title>b14&#45;&gt;b16</title>
<path fill="none" stroke="black" d="M921.11,-161C1045.43,-161 1241.66,-161 1369.74,-161"/>
<polygon fill="black" stroke="black" points="1369.99,-164.5 1379.99,-161 1369.99,-157.5 1369.99,-164.5"/>
</g>
<!-- b15&#45;&gt;b16 -->
<g id="edge21" class="edge">
<title>b15&#45;&gt;b16</title>
<path fill="none" stroke="black" d="M578.22,-41.22C774.09,-66.77 1167.33,-118.06 1369.73,-144.46"/>
<polygon fill="black" stroke="black" points="1369.45,-147.96 1379.81,-145.78 1370.35,-141.02 1369.45,-147.96"/>
</g>
</g>
</svg>
