<?xml version="1.0" encoding="UTF-8" standalone="no"?>
<!DOCTYPE svg PUBLIC "-//W3C//DTD SVG 1.1//EN"
 "http://www.w3.org/Graphics/SVG/1.1/DTD/svg11.dtd">
<!-- Generated by graphviz version 2.44.0 (0)
 -->
<!-- Title: CFG_147 Pages: 1 -->
<svg width="6536pt" height="545pt"
 viewBox="0.00 0.00 6536.00 545.00" xmlns="http://www.w3.org/2000/svg" xmlns:xlink="http://www.w3.org/1999/xlink">
<g id="graph0" class="graph" transform="scale(1 1) rotate(0) translate(4 541)">
<title>CFG_147</title>
<polygon fill="white" stroke="transparent" points="-4,4 -4,-541 6532,-541 6532,4 -4,4"/>
<text text-anchor="middle" x="189" y="-517" font-family="Times-Roman" font-size="20.00">211&#45;LoopBenchmarks.main(String[])</text>
<!-- b0 -->
<g id="node1" class="node">
<title>b0</title>
<polygon fill="white" stroke="black" points="235,-114 0,-114 0,-62 235,-62 235,-114"/>
<text text-anchor="middle" x="117.5" y="-102" font-family="Helvetica" font-size="10.00">B0</text>
<text text-anchor="middle" x="117.5" y="-91" font-family="Helvetica" font-size="10.00">Loop: &lt;none&gt;</text>
<text text-anchor="middle" x="117.5" y="-80" font-family="Helvetica" font-size="10.00">&#45;&#45;&#45;</text>
<text text-anchor="middle" x="117.5" y="-69" font-family="Helvetica" font-size="10.00">HotSpotMethod&lt;LoopBenchmarks.main(String[])&gt;</text>
</g>
<!-- b1 -->
<g id="node2" class="node">
<title>b1</title>
<polygon fill="white" stroke="black" points="578,-181 343,-181 343,-129 578,-129 578,-181"/>
<text text-anchor="middle" x="460.5" y="-169" font-family="Helvetica" font-size="10.00">B1</text>
<text text-anchor="middle" x="460.5" y="-158" font-family="Helvetica" font-size="10.00">Loop: &lt;none&gt;</text>
<text text-anchor="middle" x="460.5" y="-147" font-family="Helvetica" font-size="10.00">&#45;&#45;&#45;</text>
<text text-anchor="middle" x="460.5" y="-136" font-family="Helvetica" font-size="10.00">HotSpotMethod&lt;LoopBenchmarks.main(String[])&gt;</text>
</g>
<!-- b0&#45;&gt;b1 -->
<g id="edge1" class="edge">
<title>b0&#45;&gt;b1</title>
<path fill="none" stroke="black" d="M235.38,-110.96C266.83,-117.14 300.99,-123.86 332.94,-130.13"/>
<polygon fill="black" stroke="black" points="332.29,-133.57 342.78,-132.07 333.64,-126.7 332.29,-133.57"/>
</g>
<!-- b24 -->
<g id="node25" class="node">
<title>b24</title>
<polygon fill="white" stroke="black" points="578,-52 343,-52 343,0 578,0 578,-52"/>
<text text-anchor="middle" x="460.5" y="-40" font-family="Helvetica" font-size="10.00">B24</text>
<text text-anchor="middle" x="460.5" y="-29" font-family="Helvetica" font-size="10.00">Loop: &lt;none&gt;</text>
<text text-anchor="middle" x="460.5" y="-18" font-family="Helvetica" font-size="10.00">&#45;&#45;&#45;</text>
<text text-anchor="middle" x="460.5" y="-7" font-family="Helvetica" font-size="10.00">HotSpotMethod&lt;LoopBenchmarks.main(String[])&gt;</text>
</g>
<!-- b0&#45;&gt;b24 -->
<g id="edge2" class="edge">
<title>b0&#45;&gt;b24</title>
<path fill="none" stroke="black" d="M235.38,-66.75C266.83,-61.03 300.99,-54.82 332.94,-49.01"/>
<polygon fill="black" stroke="black" points="333.56,-52.45 342.78,-47.22 332.31,-45.57 333.56,-52.45"/>
</g>
<!-- b2 -->
<g id="node3" class="node">
<title>b2</title>
<polygon fill="white" stroke="black" points="1005,-316.5 686,-316.5 686,-253.5 1005,-253.5 1005,-316.5"/>
<text text-anchor="middle" x="845.5" y="-304.5" font-family="Helvetica" font-size="10.00">B2</text>
<text text-anchor="middle" x="845.5" y="-293.5" font-family="Helvetica" font-size="10.00">Loop: &lt;none&gt;</text>
<text text-anchor="middle" x="845.5" y="-282.5" font-family="Helvetica" font-size="10.00">&#45;&#45;&#45;</text>
<text text-anchor="middle" x="845.5" y="-271.5" font-family="Helvetica" font-size="10.00">HotSpotMethod&lt;LoopBenchmarks.main(String[])&gt;</text>
<text text-anchor="middle" x="845.5" y="-260.5" font-family="Helvetica" font-size="10.00">HotSpotMethod&lt;LoopBenchmarks.polynomialLoop(double[], double)&gt;</text>
</g>
<!-- b1&#45;&gt;b2 -->
<g id="edge3" class="edge">
<title>b1&#45;&gt;b2</title>
<path fill="none" stroke="black" d="M538.55,-181.15C597.03,-201 678.02,-228.49 741.98,-250.2"/>
<polygon fill="black" stroke="black" points="741.1,-253.6 751.69,-253.5 743.35,-246.97 741.1,-253.6"/>
</g>
<!-- b23 -->
<g id="node24" class="node">
<title>b23</title>
<polygon fill="white" stroke="black" points="963,-181 728,-181 728,-129 963,-129 963,-181"/>
<text text-anchor="middle" x="845.5" y="-169" font-family="Helvetica" font-size="10.00">B23</text>
<text text-anchor="middle" x="845.5" y="-158" font-family="Helvetica" font-size="10.00">Loop: &lt;none&gt;</text>
<text text-anchor="middle" x="845.5" y="-147" font-family="Helvetica" font-size="10.00">&#45;&#45;&#45;</text>
<text text-anchor="middle" x="845.5" y="-136" font-family="Helvetica" font-size="10.00">HotSpotMethod&lt;LoopBenchmarks.main(String[])&gt;</text>
</g>
<!-- b1&#45;&gt;b23 -->
<g id="edge4" class="edge">
<title>b1&#45;&gt;b23</title>
<path fill="none" stroke="black" d="M578.23,-155C622.32,-155 672.67,-155 717.64,-155"/>
<polygon fill="black" stroke="black" points="717.74,-158.5 727.74,-155 717.74,-151.5 717.74,-158.5"/>
</g>
<!-- b3 -->
<g id="node4" class="node">
<title>b3</title>
<polygon fill="white" stroke="black" points="1867,-435 1548,-435 1548,-383 1867,-383 1867,-435"/>
<text text-anchor="middle" x="1707.5" y="-423" font-family="Helvetica" font-size="10.00">B3</text>
<text text-anchor="middle" x="1707.5" y="-412" font-family="Helvetica" font-size="10.00">Loop: &lt;none&gt;</text>
<text text-anchor="middle" x="1707.5" y="-401" font-family="Helvetica" font-size="10.00">&#45;&#45;&#45;</text>
<text text-anchor="middle" x="1707.5" y="-390" font-family="Helvetica" font-size="10.00">HotSpotMethod&lt;LoopBenchmarks.polynomialLoop(double[], double)&gt;</text>
</g>
<!-- b2&#45;&gt;b3 -->
<g id="edge5" class="edge">
<title>b2&#45;&gt;b3</title>
<path fill="none" stroke="black" d="M994.5,-316.54C1032.97,-324.17 1074.45,-331.87 1113,-338 1255.65,-360.68 1418.64,-379.69 1537.67,-392.31"/>
<polygon fill="black" stroke="black" points="1537.65,-395.83 1547.97,-393.4 1538.39,-388.87 1537.65,-395.83"/>
</g>
<!-- b4 -->
<g id="node5" class="node">
<title>b4</title>
<polygon fill="white" stroke="black" stroke-width="4" points="1436,-297.5 1117,-297.5 1117,-212.5 1436,-212.5 1436,-297.5"/>
<polygon fill="none" stroke="black" stroke-width="4" points="1440,-301.5 1113,-301.5 1113,-208.5 1440,-208.5 1440,-301.5"/>
<text text-anchor="middle" x="1276.5" y="-285.5" font-family="Helvetica" font-size="10.00">B4</text>
<text text-anchor="middle" x="1276.5" y="-274.5" font-family="Helvetica" font-size="10.00">Loop: &lt;none&gt;</text>
<text text-anchor="middle" x="1276.5" y="-263.5" font-family="Helvetica" font-size="10.00">&#45;&#45;&#45;</text>
<text text-anchor="middle" x="1276.5" y="-252.5" font-family="Helvetica" font-size="10.00">HotSpotMethod&lt;LoopBenchmarks.polynomialLoop(double[], double)&gt;</text>
<text text-anchor="middle" x="1276.5" y="-241.5" font-family="Helvetica" font-size="10.00">&#45;&#45;&#45;</text>
<text text-anchor="middle" x="1276.5" y="-230.5" font-family="Helvetica" font-size="10.00">BuboLoopMakers:</text>
<text text-anchor="middle" x="1276.5" y="-219.5" font-family="Helvetica" font-size="10.00"> &#160;AMD64BuboRDTSCToSlot (LoopID=1)</text>
</g>
<!-- b2&#45;&gt;b4 -->
<g id="edge6" class="edge">
<title>b2&#45;&gt;b4</title>
<path fill="none" stroke="black" d="M1005.02,-273.91C1036.93,-271.68 1070.61,-269.33 1102.97,-267.07"/>
<polygon fill="black" stroke="black" points="1103.23,-270.56 1112.96,-266.37 1102.74,-263.57 1103.23,-270.56"/>
</g>
<!-- b14 -->
<g id="node15" class="node">
<title>b14</title>
<polygon fill="white" stroke="black" stroke-width="4" points="4457,-278 4138,-278 4138,-182 4457,-182 4457,-278"/>
<polygon fill="none" stroke="black" stroke-width="4" points="4461,-282 4134,-282 4134,-178 4461,-178 4461,-282"/>
<text text-anchor="middle" x="4297.5" y="-266" font-family="Helvetica" font-size="10.00">B14</text>
<text text-anchor="middle" x="4297.5" y="-255" font-family="Helvetica" font-size="10.00">Loop: &lt;none&gt;</text>
<text text-anchor="middle" x="4297.5" y="-244" font-family="Helvetica" font-size="10.00">&#45;&#45;&#45;</text>
<text text-anchor="middle" x="4297.5" y="-233" font-family="Helvetica" font-size="10.00">HotSpotMethod&lt;LoopBenchmarks.polynomialLoop(double[], double)&gt;</text>
<text text-anchor="middle" x="4297.5" y="-222" font-family="Helvetica" font-size="10.00">HotSpotMethod&lt;LoopBenchmarks.main(String[])&gt;</text>
<text text-anchor="middle" x="4297.5" y="-211" font-family="Helvetica" font-size="10.00">&#45;&#45;&#45;</text>
<text text-anchor="middle" x="4297.5" y="-200" font-family="Helvetica" font-size="10.00">BuboLoopMakers:</text>
<text text-anchor="middle" x="4297.5" y="-189" font-family="Helvetica" font-size="10.00"> &#160;AMD64BuboRDTSCToSlot (LoopID=0)</text>
</g>
<!-- b3&#45;&gt;b14 -->
<g id="edge7" class="edge">
<title>b3&#45;&gt;b14</title>
<path fill="none" stroke="black" d="M1867.01,-408.71C2039.56,-408.41 2323.64,-408 2568.5,-408 2568.5,-408 2568.5,-408 3432.5,-408 3679.57,-408 3958.36,-337.31 4130.77,-285.03"/>
<polygon fill="black" stroke="black" points="4131.89,-288.35 4140.43,-282.08 4129.85,-281.65 4131.89,-288.35"/>
</g>
<!-- b5 -->
<g id="node6" class="node">
<title>b5</title>
<polygon fill="lightblue" stroke="black" points="1867,-291 1548,-291 1548,-239 1867,-239 1867,-291"/>
<text text-anchor="middle" x="1707.5" y="-279" font-family="Helvetica" font-size="10.00">B5</text>
<text text-anchor="middle" x="1707.5" y="-268" font-family="Helvetica" font-size="10.00">Loop: L0</text>
<text text-anchor="middle" x="1707.5" y="-257" font-family="Helvetica" font-size="10.00">&#45;&#45;&#45;</text>
<text text-anchor="middle" x="1707.5" y="-246" font-family="Helvetica" font-size="10.00">HotSpotMethod&lt;LoopBenchmarks.polynomialLoop(double[], double)&gt;</text>
</g>
<!-- b4&#45;&gt;b5 -->
<g id="edge8" class="edge">
<title>b4&#45;&gt;b5</title>
<path fill="none" stroke="black" d="M1440.3,-258.79C1472.06,-259.54 1505.43,-260.31 1537.39,-261.06"/>
<polygon fill="black" stroke="black" points="1537.64,-264.56 1547.72,-261.3 1537.8,-257.57 1537.64,-264.56"/>
</g>
<!-- b6 -->
<g id="node7" class="node">
<title>b6</title>
<polygon fill="lightblue" stroke="black" points="2298,-296 1979,-296 1979,-244 2298,-244 2298,-296"/>
<text text-anchor="middle" x="2138.5" y="-284" font-family="Helvetica" font-size="10.00">B6</text>
<text text-anchor="middle" x="2138.5" y="-273" font-family="Helvetica" font-size="10.00">Loop: L0</text>
<text text-anchor="middle" x="2138.5" y="-262" font-family="Helvetica" font-size="10.00">&#45;&#45;&#45;</text>
<text text-anchor="middle" x="2138.5" y="-251" font-family="Helvetica" font-size="10.00">HotSpotMethod&lt;LoopBenchmarks.polynomialLoop(double[], double)&gt;</text>
</g>
<!-- b5&#45;&gt;b6 -->
<g id="edge10" class="edge">
<title>b5&#45;&gt;b6</title>
<path fill="none" stroke="black" d="M1867.02,-240.68C1912.75,-239.82 1962.13,-240.75 2006.02,-243.35"/>
<polygon fill="black" stroke="black" points="2005.97,-246.86 2016.17,-243.99 2006.41,-239.87 2005.97,-246.86"/>
</g>
<!-- b7 -->
<g id="node8" class="node">
<title>b7</title>
<polygon fill="white" stroke="black" stroke-width="4" points="2298,-168 1979,-168 1979,-72 2298,-72 2298,-168"/>
<polygon fill="none" stroke="black" stroke-width="4" points="2302,-172 1975,-172 1975,-68 2302,-68 2302,-172"/>
<text text-anchor="middle" x="2138.5" y="-156" font-family="Helvetica" font-size="10.00">B7</text>
<text text-anchor="middle" x="2138.5" y="-145" font-family="Helvetica" font-size="10.00">Loop: &lt;none&gt;</text>
<text text-anchor="middle" x="2138.5" y="-134" font-family="Helvetica" font-size="10.00">&#45;&#45;&#45;</text>
<text text-anchor="middle" x="2138.5" y="-123" font-family="Helvetica" font-size="10.00">HotSpotMethod&lt;LoopBenchmarks.polynomialLoop(double[], double)&gt;</text>
<text text-anchor="middle" x="2138.5" y="-112" font-family="Helvetica" font-size="10.00">&#45;&#45;&#45;</text>
<text text-anchor="middle" x="2138.5" y="-101" font-family="Helvetica" font-size="10.00">BuboLoopMakers:</text>
<text text-anchor="middle" x="2138.5" y="-90" font-family="Helvetica" font-size="10.00"> &#160;AMD64BuboWriteDeltaRDTSC</text>
<text text-anchor="middle" x="2138.5" y="-79" font-family="Helvetica" font-size="10.00"> &#160;AMD64BuboRDTSCToSlot (LoopID=3)</text>
</g>
<!-- b5&#45;&gt;b7 -->
<g id="edge9" class="edge">
<title>b5&#45;&gt;b7</title>
<path fill="none" stroke="black" d="M1785.69,-238.91C1838.12,-221.19 1909.42,-197.09 1974.12,-175.22"/>
<polygon fill="black" stroke="black" points="1975.27,-178.53 1983.62,-172.01 1973.03,-171.9 1975.27,-178.53"/>
</g>
<!-- b6&#45;&gt;b5 -->
<g id="edge11" class="edge">
<title>b6&#45;&gt;b5</title>
<path fill="none" stroke="black" d="M1978.9,-294.32C1933.16,-295.18 1883.76,-294.25 1839.87,-291.64"/>
<polygon fill="black" stroke="black" points="1839.91,-288.14 1829.71,-291 1839.47,-295.12 1839.91,-288.14"/>
</g>
<!-- b8 -->
<g id="node9" class="node">
<title>b8</title>
<polygon fill="lightgreen" stroke="black" points="2729,-221 2410,-221 2410,-169 2729,-169 2729,-221"/>
<text text-anchor="middle" x="2569.5" y="-209" font-family="Helvetica" font-size="10.00">B8</text>
<text text-anchor="middle" x="2569.5" y="-198" font-family="Helvetica" font-size="10.00">Loop: L1</text>
<text text-anchor="middle" x="2569.5" y="-187" font-family="Helvetica" font-size="10.00">&#45;&#45;&#45;</text>
<text text-anchor="middle" x="2569.5" y="-176" font-family="Helvetica" font-size="10.00">HotSpotMethod&lt;LoopBenchmarks.polynomialLoop(double[], double)&gt;</text>
</g>
<!-- b7&#45;&gt;b8 -->
<g id="edge12" class="edge">
<title>b7&#45;&gt;b8</title>
<path fill="none" stroke="black" d="M2302.3,-148.46C2337.36,-154.59 2374.37,-161.06 2409.29,-167.17"/>
<polygon fill="black" stroke="black" points="2409.11,-170.69 2419.57,-168.96 2410.32,-163.79 2409.11,-170.69"/>
</g>
<!-- b9 -->
<g id="node10" class="node">
<title>b9</title>
<polygon fill="lightgreen" stroke="black" points="3160,-262 2841,-262 2841,-210 3160,-210 3160,-262"/>
<text text-anchor="middle" x="3000.5" y="-250" font-family="Helvetica" font-size="10.00">B9</text>
<text text-anchor="middle" x="3000.5" y="-239" font-family="Helvetica" font-size="10.00">Loop: L1</text>
<text text-anchor="middle" x="3000.5" y="-228" font-family="Helvetica" font-size="10.00">&#45;&#45;&#45;</text>
<text text-anchor="middle" x="3000.5" y="-217" font-family="Helvetica" font-size="10.00">HotSpotMethod&lt;LoopBenchmarks.polynomialLoop(double[], double)&gt;</text>
</g>
<!-- b8&#45;&gt;b9 -->
<g id="edge14" class="edge">
<title>b8&#45;&gt;b9</title>
<path fill="none" stroke="black" d="M2729.02,-183.98C2796.32,-188.37 2871.52,-197.28 2925.51,-207.94"/>
<polygon fill="black" stroke="black" points="2924.84,-211.37 2935.34,-209.95 2926.25,-204.51 2924.84,-211.37"/>
</g>
<!-- b10 -->
<g id="node11" class="node">
<title>b10</title>
<polygon fill="white" stroke="black" stroke-width="4" points="3160,-134 2841,-134 2841,-38 3160,-38 3160,-134"/>
<polygon fill="none" stroke="black" stroke-width="4" points="3164,-138 2837,-138 2837,-34 3164,-34 3164,-138"/>
<text text-anchor="middle" x="3000.5" y="-122" font-family="Helvetica" font-size="10.00">B10</text>
<text text-anchor="middle" x="3000.5" y="-111" font-family="Helvetica" font-size="10.00">Loop: &lt;none&gt;</text>
<text text-anchor="middle" x="3000.5" y="-100" font-family="Helvetica" font-size="10.00">&#45;&#45;&#45;</text>
<text text-anchor="middle" x="3000.5" y="-89" font-family="Helvetica" font-size="10.00">HotSpotMethod&lt;LoopBenchmarks.polynomialLoop(double[], double)&gt;</text>
<text text-anchor="middle" x="3000.5" y="-78" font-family="Helvetica" font-size="10.00">&#45;&#45;&#45;</text>
<text text-anchor="middle" x="3000.5" y="-67" font-family="Helvetica" font-size="10.00">BuboLoopMakers:</text>
<text text-anchor="middle" x="3000.5" y="-56" font-family="Helvetica" font-size="10.00"> &#160;AMD64BuboWriteDeltaRDTSC</text>
<text text-anchor="middle" x="3000.5" y="-45" font-family="Helvetica" font-size="10.00"> &#160;AMD64BuboRDTSCToSlot (LoopID=4)</text>
</g>
<!-- b8&#45;&gt;b10 -->
<g id="edge13" class="edge">
<title>b8&#45;&gt;b10</title>
<path fill="none" stroke="black" d="M2672.98,-168.96C2719.07,-157.25 2774.74,-143.11 2826.96,-129.84"/>
<polygon fill="black" stroke="black" points="2827.84,-133.23 2836.67,-127.37 2826.11,-126.44 2827.84,-133.23"/>
</g>
<!-- b9&#45;&gt;b8 -->
<g id="edge15" class="edge">
<title>b9&#45;&gt;b8</title>
<path fill="none" stroke="black" d="M2840.66,-246.99C2773.46,-242.61 2698.44,-233.71 2644.54,-223.07"/>
<polygon fill="black" stroke="black" points="2645.22,-219.64 2634.73,-221.07 2643.82,-226.5 2645.22,-219.64"/>
</g>
<!-- b11 -->
<g id="node12" class="node">
<title>b11</title>
<polygon fill="lightpink" stroke="black" points="3591,-188 3272,-188 3272,-136 3591,-136 3591,-188"/>
<text text-anchor="middle" x="3431.5" y="-176" font-family="Helvetica" font-size="10.00">B11</text>
<text text-anchor="middle" x="3431.5" y="-165" font-family="Helvetica" font-size="10.00">Loop: L2</text>
<text text-anchor="middle" x="3431.5" y="-154" font-family="Helvetica" font-size="10.00">&#45;&#45;&#45;</text>
<text text-anchor="middle" x="3431.5" y="-143" font-family="Helvetica" font-size="10.00">HotSpotMethod&lt;LoopBenchmarks.polynomialLoop(double[], double)&gt;</text>
</g>
<!-- b10&#45;&gt;b11 -->
<g id="edge16" class="edge">
<title>b10&#45;&gt;b11</title>
<path fill="none" stroke="black" d="M3164.3,-114.84C3200.16,-121.19 3238.06,-127.91 3273.68,-134.22"/>
<polygon fill="black" stroke="black" points="3273.2,-137.69 3283.66,-135.99 3274.42,-130.8 3273.2,-137.69"/>
</g>
<!-- b12 -->
<g id="node13" class="node">
<title>b12</title>
<polygon fill="lightpink" stroke="black" points="4022,-261 3703,-261 3703,-209 4022,-209 4022,-261"/>
<text text-anchor="middle" x="3862.5" y="-249" font-family="Helvetica" font-size="10.00">B12</text>
<text text-anchor="middle" x="3862.5" y="-238" font-family="Helvetica" font-size="10.00">Loop: L2</text>
<text text-anchor="middle" x="3862.5" y="-227" font-family="Helvetica" font-size="10.00">&#45;&#45;&#45;</text>
<text text-anchor="middle" x="3862.5" y="-216" font-family="Helvetica" font-size="10.00">HotSpotMethod&lt;LoopBenchmarks.polynomialLoop(double[], double)&gt;</text>
</g>
<!-- b11&#45;&gt;b12 -->
<g id="edge18" class="edge">
<title>b11&#45;&gt;b12</title>
<path fill="none" stroke="black" d="M3591.02,-162.81C3665.18,-173.17 3748.92,-189.74 3803.32,-205.9"/>
<polygon fill="black" stroke="black" points="3802.54,-209.33 3813.13,-208.92 3804.59,-202.63 3802.54,-209.33"/>
</g>
<!-- b13 -->
<g id="node14" class="node">
<title>b13</title>
<polygon fill="white" stroke="black" stroke-width="4" points="4022,-132.5 3703,-132.5 3703,-47.5 4022,-47.5 4022,-132.5"/>
<polygon fill="none" stroke="black" stroke-width="4" points="4026,-136.5 3699,-136.5 3699,-43.5 4026,-43.5 4026,-136.5"/>
<text text-anchor="middle" x="3862.5" y="-120.5" font-family="Helvetica" font-size="10.00">B13</text>
<text text-anchor="middle" x="3862.5" y="-109.5" font-family="Helvetica" font-size="10.00">Loop: &lt;none&gt;</text>
<text text-anchor="middle" x="3862.5" y="-98.5" font-family="Helvetica" font-size="10.00">&#45;&#45;&#45;</text>
<text text-anchor="middle" x="3862.5" y="-87.5" font-family="Helvetica" font-size="10.00">HotSpotMethod&lt;LoopBenchmarks.polynomialLoop(double[], double)&gt;</text>
<text text-anchor="middle" x="3862.5" y="-76.5" font-family="Helvetica" font-size="10.00">&#45;&#45;&#45;</text>
<text text-anchor="middle" x="3862.5" y="-65.5" font-family="Helvetica" font-size="10.00">BuboLoopMakers:</text>
<text text-anchor="middle" x="3862.5" y="-54.5" font-family="Helvetica" font-size="10.00"> &#160;AMD64BuboWriteDeltaRDTSC (LoopID=4)</text>
</g>
<!-- b11&#45;&gt;b13 -->
<g id="edge17" class="edge">
<title>b11&#45;&gt;b13</title>
<path fill="none" stroke="black" d="M3587.68,-135.96C3620.54,-130.44 3655.42,-124.59 3688.88,-118.97"/>
<polygon fill="black" stroke="black" points="3689.46,-122.42 3698.75,-117.32 3688.3,-115.52 3689.46,-122.42"/>
</g>
<!-- b12&#45;&gt;b11 -->
<g id="edge19" class="edge">
<title>b12&#45;&gt;b11</title>
<path fill="none" stroke="black" d="M3702.73,-234.16C3628.64,-223.79 3545.01,-207.24 3490.67,-191.09"/>
<polygon fill="black" stroke="black" points="3491.46,-187.68 3480.88,-188.09 3489.41,-194.37 3491.46,-187.68"/>
</g>
<!-- b13&#45;&gt;b14 -->
<g id="edge20" class="edge">
<title>b13&#45;&gt;b14</title>
<path fill="none" stroke="black" d="M4007.38,-136.52C4045.27,-148.77 4086.51,-162.11 4125.67,-174.77"/>
<polygon fill="black" stroke="black" points="4124.98,-178.22 4135.57,-177.97 4127.14,-171.56 4124.98,-178.22"/>
</g>
<!-- b15 -->
<g id="node16" class="node">
<title>b15</title>
<polygon fill="gold" stroke="black" points="4804,-256 4569,-256 4569,-204 4804,-204 4804,-256"/>
<text text-anchor="middle" x="4686.5" y="-244" font-family="Helvetica" font-size="10.00">B15</text>
<text text-anchor="middle" x="4686.5" y="-233" font-family="Helvetica" font-size="10.00">Loop: L3</text>
<text text-anchor="middle" x="4686.5" y="-222" font-family="Helvetica" font-size="10.00">&#45;&#45;&#45;</text>
<text text-anchor="middle" x="4686.5" y="-211" font-family="Helvetica" font-size="10.00">HotSpotMethod&lt;LoopBenchmarks.main(String[])&gt;</text>
</g>
<!-- b14&#45;&gt;b15 -->
<g id="edge21" class="edge">
<title>b14&#45;&gt;b15</title>
<path fill="none" stroke="black" d="M4461.22,-230C4493.86,-230 4527.7,-230 4558.9,-230"/>
<polygon fill="black" stroke="black" points="4558.93,-233.5 4568.93,-230 4558.93,-226.5 4558.93,-233.5"/>
</g>
<!-- b16 -->
<g id="node17" class="node">
<title>b16</title>
<polygon fill="gold" stroke="black" stroke-width="4" points="5235,-434 4916,-434 4916,-338 5235,-338 5235,-434"/>
<polygon fill="none" stroke="black" stroke-width="4" points="5239,-438 4912,-438 4912,-334 5239,-334 5239,-438"/>
<text text-anchor="middle" x="5075.5" y="-422" font-family="Helvetica" font-size="10.00">B16</text>
<text text-anchor="middle" x="5075.5" y="-411" font-family="Helvetica" font-size="10.00">Loop: L3</text>
<text text-anchor="middle" x="5075.5" y="-400" font-family="Helvetica" font-size="10.00">&#45;&#45;&#45;</text>
<text text-anchor="middle" x="5075.5" y="-389" font-family="Helvetica" font-size="10.00">HotSpotMethod&lt;LoopBenchmarks.main(String[])&gt;</text>
<text text-anchor="middle" x="5075.5" y="-378" font-family="Helvetica" font-size="10.00">HotSpotMethod&lt;LoopBenchmarks.polynomialLoop(double[], double)&gt;</text>
<text text-anchor="middle" x="5075.5" y="-367" font-family="Helvetica" font-size="10.00">&#45;&#45;&#45;</text>
<text text-anchor="middle" x="5075.5" y="-356" font-family="Helvetica" font-size="10.00">BuboLoopMakers:</text>
<text text-anchor="middle" x="5075.5" y="-345" font-family="Helvetica" font-size="10.00"> &#160;AMD64BuboRDTSCToSlot (LoopID=2)</text>
</g>
<!-- b15&#45;&gt;b16 -->
<g id="edge22" class="edge">
<title>b15&#45;&gt;b16</title>
<path fill="none" stroke="black" d="M4752.28,-256.11C4802.21,-276.24 4873.09,-304.81 4935.66,-330.03"/>
<polygon fill="black" stroke="black" points="4934.64,-333.4 4945.22,-333.89 4937.26,-326.9 4934.64,-333.4"/>
</g>
<!-- b22 -->
<g id="node23" class="node">
<title>b22</title>
<polygon fill="white" stroke="black" points="5235,-261.5 4916,-261.5 4916,-198.5 5235,-198.5 5235,-261.5"/>
<text text-anchor="middle" x="5075.5" y="-249.5" font-family="Helvetica" font-size="10.00">B22</text>
<text text-anchor="middle" x="5075.5" y="-238.5" font-family="Helvetica" font-size="10.00">Loop: &lt;none&gt;</text>
<text text-anchor="middle" x="5075.5" y="-227.5" font-family="Helvetica" font-size="10.00">&#45;&#45;&#45;</text>
<text text-anchor="middle" x="5075.5" y="-216.5" font-family="Helvetica" font-size="10.00">HotSpotMethod&lt;LoopBenchmarks.polynomialLoop(double[], double)&gt;</text>
<text text-anchor="middle" x="5075.5" y="-205.5" font-family="Helvetica" font-size="10.00">HotSpotMethod&lt;LoopBenchmarks.main(String[])&gt;</text>
</g>
<!-- b15&#45;&gt;b22 -->
<g id="edge23" class="edge">
<title>b15&#45;&gt;b22</title>
<path fill="none" stroke="black" d="M4804.14,-230C4836.14,-230 4871.5,-230 4905.79,-230"/>
<polygon fill="black" stroke="black" points="4905.92,-233.5 4915.92,-230 4905.92,-226.5 4905.92,-233.5"/>
</g>
<!-- b17 -->
<g id="node18" class="node">
<title>b17</title>
<polygon fill="orange" stroke="black" points="5666,-393 5347,-393 5347,-341 5666,-341 5666,-393"/>
<text text-anchor="middle" x="5506.5" y="-381" font-family="Helvetica" font-size="10.00">B17</text>
<text text-anchor="middle" x="5506.5" y="-370" font-family="Helvetica" font-size="10.00">Loop: L4</text>
<text text-anchor="middle" x="5506.5" y="-359" font-family="Helvetica" font-size="10.00">&#45;&#45;&#45;</text>
<text text-anchor="middle" x="5506.5" y="-348" font-family="Helvetica" font-size="10.00">HotSpotMethod&lt;LoopBenchmarks.polynomialLoop(double[], double)&gt;</text>
</g>
<!-- b16&#45;&gt;b17 -->
<g id="edge24" class="edge">
<title>b16&#45;&gt;b17</title>
<path fill="none" stroke="black" d="M5239.3,-378.79C5271.06,-377.38 5304.43,-375.91 5336.39,-374.49"/>
<polygon fill="black" stroke="black" points="5336.88,-377.97 5346.72,-374.03 5336.57,-370.98 5336.88,-377.97"/>
</g>
<!-- b18 -->
<g id="node19" class="node">
<title>b18</title>
<polygon fill="orange" stroke="black" points="6097,-375 5778,-375 5778,-323 6097,-323 6097,-375"/>
<text text-anchor="middle" x="5937.5" y="-363" font-family="Helvetica" font-size="10.00">B18</text>
<text text-anchor="middle" x="5937.5" y="-352" font-family="Helvetica" font-size="10.00">Loop: L4</text>
<text text-anchor="middle" x="5937.5" y="-341" font-family="Helvetica" font-size="10.00">&#45;&#45;&#45;</text>
<text text-anchor="middle" x="5937.5" y="-330" font-family="Helvetica" font-size="10.00">HotSpotMethod&lt;LoopBenchmarks.polynomialLoop(double[], double)&gt;</text>
</g>
<!-- b17&#45;&gt;b18 -->
<g id="edge26" class="edge">
<title>b17&#45;&gt;b18</title>
<path fill="none" stroke="black" d="M5666.02,-360.35C5699.12,-358.96 5734.13,-357.49 5767.58,-356.09"/>
<polygon fill="black" stroke="black" points="5768.07,-359.57 5777.91,-355.65 5767.77,-352.58 5768.07,-359.57"/>
</g>
<!-- b20 -->
<g id="node21" class="node">
<title>b20</title>
<polygon fill="gold" stroke="black" stroke-width="4" points="6097,-210 5778,-210 5778,-114 6097,-114 6097,-210"/>
<polygon fill="none" stroke="black" stroke-width="4" points="6101,-214 5774,-214 5774,-110 6101,-110 6101,-214"/>
<text text-anchor="middle" x="5937.5" y="-198" font-family="Helvetica" font-size="10.00">B20</text>
<text text-anchor="middle" x="5937.5" y="-187" font-family="Helvetica" font-size="10.00">Loop: L3</text>
<text text-anchor="middle" x="5937.5" y="-176" font-family="Helvetica" font-size="10.00">&#45;&#45;&#45;</text>
<text text-anchor="middle" x="5937.5" y="-165" font-family="Helvetica" font-size="10.00">HotSpotMethod&lt;LoopBenchmarks.polynomialLoop(double[], double)&gt;</text>
<text text-anchor="middle" x="5937.5" y="-154" font-family="Helvetica" font-size="10.00">HotSpotMethod&lt;LoopBenchmarks.main(String[])&gt;</text>
<text text-anchor="middle" x="5937.5" y="-143" font-family="Helvetica" font-size="10.00">&#45;&#45;&#45;</text>
<text text-anchor="middle" x="5937.5" y="-132" font-family="Helvetica" font-size="10.00">BuboLoopMakers:</text>
<text text-anchor="middle" x="5937.5" y="-121" font-family="Helvetica" font-size="10.00"> &#160;AMD64BuboWriteDeltaRDTSC (LoopID=2)</text>
</g>
<!-- b17&#45;&gt;b20 -->
<g id="edge25" class="edge">
<title>b17&#45;&gt;b20</title>
<path fill="none" stroke="black" d="M5562.27,-340.83C5626.45,-310.16 5734.66,-258.45 5818.25,-218.5"/>
<polygon fill="black" stroke="black" points="5819.78,-221.66 5827.29,-214.19 5816.76,-215.34 5819.78,-221.66"/>
</g>
<!-- b19 -->
<g id="node20" class="node">
<title>b19</title>
<polygon fill="orange" stroke="black" points="6528,-507 6209,-507 6209,-455 6528,-455 6528,-507"/>
<text text-anchor="middle" x="6368.5" y="-495" font-family="Helvetica" font-size="10.00">B19</text>
<text text-anchor="middle" x="6368.5" y="-484" font-family="Helvetica" font-size="10.00">Loop: L4</text>
<text text-anchor="middle" x="6368.5" y="-473" font-family="Helvetica" font-size="10.00">&#45;&#45;&#45;</text>
<text text-anchor="middle" x="6368.5" y="-462" font-family="Helvetica" font-size="10.00">HotSpotMethod&lt;LoopBenchmarks.polynomialLoop(double[], double)&gt;</text>
</g>
<!-- b18&#45;&gt;b19 -->
<g id="edge27" class="edge">
<title>b18&#45;&gt;b19</title>
<path fill="none" stroke="black" d="M6023,-375C6094.95,-397.14 6198.24,-428.92 6272.93,-451.9"/>
<polygon fill="black" stroke="black" points="6272.23,-455.35 6282.82,-454.94 6274.29,-448.66 6272.23,-455.35"/>
</g>
<!-- b21 -->
<g id="node22" class="node">
<title>b21</title>
<polygon fill="white" stroke="black" points="6528,-380.5 6209,-380.5 6209,-317.5 6528,-317.5 6528,-380.5"/>
<text text-anchor="middle" x="6368.5" y="-368.5" font-family="Helvetica" font-size="10.00">B21</text>
<text text-anchor="middle" x="6368.5" y="-357.5" font-family="Helvetica" font-size="10.00">Loop: &lt;none&gt;</text>
<text text-anchor="middle" x="6368.5" y="-346.5" font-family="Helvetica" font-size="10.00">&#45;&#45;&#45;</text>
<text text-anchor="middle" x="6368.5" y="-335.5" font-family="Helvetica" font-size="10.00">HotSpotMethod&lt;LoopBenchmarks.main(String[])&gt;</text>
<text text-anchor="middle" x="6368.5" y="-324.5" font-family="Helvetica" font-size="10.00">HotSpotMethod&lt;LoopBenchmarks.polynomialLoop(double[], double)&gt;</text>
</g>
<!-- b18&#45;&gt;b21 -->
<g id="edge28" class="edge">
<title>b18&#45;&gt;b21</title>
<path fill="none" stroke="black" d="M6097.02,-349C6130.12,-349 6165.13,-349 6198.58,-349"/>
<polygon fill="black" stroke="black" points="6198.91,-352.5 6208.91,-349 6198.91,-345.5 6198.91,-352.5"/>
</g>
<!-- b19&#45;&gt;b17 -->
<g id="edge29" class="edge">
<title>b19&#45;&gt;b17</title>
<path fill="none" stroke="black" d="M6208.86,-464.3C6089.17,-451.22 5921.03,-431.8 5774,-411 5739.66,-406.14 5702.93,-400.42 5668.04,-394.74"/>
<polygon fill="black" stroke="black" points="5668.2,-391.22 5657.77,-393.06 5667.07,-398.13 5668.2,-391.22"/>
</g>
<!-- b20&#45;&gt;b15 -->
<g id="edge30" class="edge">
<title>b20&#45;&gt;b15</title>
<path fill="none" stroke="black" d="M5773.95,-147.39C5570.99,-132.49 5213.75,-117.3 4912,-162 4861.81,-169.43 4807.31,-185.74 4764.57,-200.51"/>
<polygon fill="black" stroke="black" points="4763.36,-197.23 4755.08,-203.84 4765.68,-203.83 4763.36,-197.23"/>
</g>
<!-- b25 -->
<g id="node26" class="node">
<title>b25</title>
<polygon fill="white" stroke="black" points="1394,-106 1159,-106 1159,-54 1394,-54 1394,-106"/>
<text text-anchor="middle" x="1276.5" y="-94" font-family="Helvetica" font-size="10.00">B25</text>
<text text-anchor="middle" x="1276.5" y="-83" font-family="Helvetica" font-size="10.00">Loop: &lt;none&gt;</text>
<text text-anchor="middle" x="1276.5" y="-72" font-family="Helvetica" font-size="10.00">&#45;&#45;&#45;</text>
<text text-anchor="middle" x="1276.5" y="-61" font-family="Helvetica" font-size="10.00">HotSpotMethod&lt;LoopBenchmarks.main(String[])&gt;</text>
</g>
<!-- b23&#45;&gt;b25 -->
<g id="edge31" class="edge">
<title>b23&#45;&gt;b25</title>
<path fill="none" stroke="black" d="M963.16,-134.6C1020.62,-124.56 1090.01,-112.43 1148.78,-102.15"/>
<polygon fill="black" stroke="black" points="1149.62,-105.56 1158.86,-100.39 1148.41,-98.67 1149.62,-105.56"/>
</g>
<!-- b24&#45;&gt;b25 -->
<g id="edge32" class="edge">
<title>b24&#45;&gt;b25</title>
<path fill="none" stroke="black" d="M578.13,-33.74C729.44,-43.77 992.47,-61.22 1148.63,-71.58"/>
<polygon fill="black" stroke="black" points="1148.55,-75.09 1158.76,-72.26 1149.01,-68.1 1148.55,-75.09"/>
</g>
</g>
</svg>
