<?xml version="1.0" encoding="UTF-8" standalone="no"?>
<!DOCTYPE svg PUBLIC "-//W3C//DTD SVG 1.1//EN"
 "http://www.w3.org/Graphics/SVG/1.1/DTD/svg11.dtd">
<!-- Generated by graphviz version 2.44.0 (0)
 -->
<!-- Title: CFG_35 Pages: 1 -->
<svg width="4008pt" height="1020pt"
 viewBox="0.00 0.00 4008.00 1020.00" xmlns="http://www.w3.org/2000/svg" xmlns:xlink="http://www.w3.org/1999/xlink">
<g id="graph0" class="graph" transform="scale(1 1) rotate(0) translate(4 1016)">
<title>CFG_35</title>
<polygon fill="white" stroke="transparent" points="-4,4 -4,-1016 4004,-1016 4004,4 -4,4"/>
<text text-anchor="middle" x="178" y="-992" font-family="Times-Roman" font-size="20.00">58&#45;java.lang.String.equals(Object)</text>
<!-- b0 -->
<g id="node1" class="node">
<title>b0</title>
<polygon fill="white" stroke="black" points="188,-190 0,-190 0,-138 188,-138 188,-190"/>
<text text-anchor="middle" x="94" y="-178" font-family="Helvetica" font-size="10.00">B0</text>
<text text-anchor="middle" x="94" y="-167" font-family="Helvetica" font-size="10.00">Loop: &lt;none&gt;</text>
<text text-anchor="middle" x="94" y="-156" font-family="Helvetica" font-size="10.00">&#45;&#45;&#45;</text>
<text text-anchor="middle" x="94" y="-145" font-family="Helvetica" font-size="10.00">HotSpotMethod&lt;String.equals(Object)&gt;</text>
</g>
<!-- b1 -->
<g id="node2" class="node">
<title>b1</title>
<polygon fill="white" stroke="black" points="511,-255 323,-255 323,-203 511,-203 511,-255"/>
<text text-anchor="middle" x="417" y="-243" font-family="Helvetica" font-size="10.00">B1</text>
<text text-anchor="middle" x="417" y="-232" font-family="Helvetica" font-size="10.00">Loop: &lt;none&gt;</text>
<text text-anchor="middle" x="417" y="-221" font-family="Helvetica" font-size="10.00">&#45;&#45;&#45;</text>
<text text-anchor="middle" x="417" y="-210" font-family="Helvetica" font-size="10.00">HotSpotMethod&lt;String.equals(Object)&gt;</text>
</g>
<!-- b0&#45;&gt;b1 -->
<g id="edge1" class="edge">
<title>b0&#45;&gt;b1</title>
<path fill="none" stroke="black" d="M188.28,-182.89C227.27,-190.78 272.72,-199.99 312.72,-208.09"/>
<polygon fill="black" stroke="black" points="312.27,-211.57 322.77,-210.12 313.66,-204.71 312.27,-211.57"/>
</g>
<!-- b2 -->
<g id="node3" class="node">
<title>b2</title>
<polygon fill="white" stroke="black" points="538,-130.5 296,-130.5 296,-67.5 538,-67.5 538,-130.5"/>
<text text-anchor="middle" x="417" y="-118.5" font-family="Helvetica" font-size="10.00">B2</text>
<text text-anchor="middle" x="417" y="-107.5" font-family="Helvetica" font-size="10.00">Loop: &lt;none&gt;</text>
<text text-anchor="middle" x="417" y="-96.5" font-family="Helvetica" font-size="10.00">&#45;&#45;&#45;</text>
<text text-anchor="middle" x="417" y="-85.5" font-family="Helvetica" font-size="10.00">HotSpotMethod&lt;String.equals(Object)&gt;</text>
<text text-anchor="middle" x="417" y="-74.5" font-family="Helvetica" font-size="10.00">HotSpotMethod&lt;StringLatin1.equals(byte[], byte[])&gt;</text>
</g>
<!-- b0&#45;&gt;b2 -->
<g id="edge2" class="edge">
<title>b0&#45;&gt;b2</title>
<path fill="none" stroke="black" d="M188.28,-145.11C218.73,-138.95 253.11,-131.98 285.77,-125.37"/>
<polygon fill="black" stroke="black" points="286.73,-128.75 295.84,-123.33 285.34,-121.89 286.73,-128.75"/>
</g>
<!-- b3 -->
<g id="node4" class="node">
<title>b3</title>
<polygon fill="white" stroke="black" points="888,-203.5 646,-203.5 646,-140.5 888,-140.5 888,-203.5"/>
<text text-anchor="middle" x="767" y="-191.5" font-family="Helvetica" font-size="10.00">B3</text>
<text text-anchor="middle" x="767" y="-180.5" font-family="Helvetica" font-size="10.00">Loop: &lt;none&gt;</text>
<text text-anchor="middle" x="767" y="-169.5" font-family="Helvetica" font-size="10.00">&#45;&#45;&#45;</text>
<text text-anchor="middle" x="767" y="-158.5" font-family="Helvetica" font-size="10.00">HotSpotMethod&lt;String.equals(Object)&gt;</text>
<text text-anchor="middle" x="767" y="-147.5" font-family="Helvetica" font-size="10.00">HotSpotMethod&lt;StringLatin1.equals(byte[], byte[])&gt;</text>
</g>
<!-- b2&#45;&gt;b3 -->
<g id="edge3" class="edge">
<title>b2&#45;&gt;b3</title>
<path fill="none" stroke="black" d="M538.25,-124.22C569.76,-130.84 603.88,-137.99 635.89,-144.71"/>
<polygon fill="black" stroke="black" points="635.24,-148.15 645.75,-146.77 636.68,-141.3 635.24,-148.15"/>
</g>
<!-- b21 -->
<g id="node22" class="node">
<title>b21</title>
<polygon fill="white" stroke="black" points="1938,-52 1696,-52 1696,0 1938,0 1938,-52"/>
<text text-anchor="middle" x="1817" y="-40" font-family="Helvetica" font-size="10.00">B21</text>
<text text-anchor="middle" x="1817" y="-29" font-family="Helvetica" font-size="10.00">Loop: &lt;none&gt;</text>
<text text-anchor="middle" x="1817" y="-18" font-family="Helvetica" font-size="10.00">&#45;&#45;&#45;</text>
<text text-anchor="middle" x="1817" y="-7" font-family="Helvetica" font-size="10.00">HotSpotMethod&lt;StringLatin1.equals(byte[], byte[])&gt;</text>
</g>
<!-- b2&#45;&gt;b21 -->
<g id="edge4" class="edge">
<title>b2&#45;&gt;b21</title>
<path fill="none" stroke="black" d="M538.1,-92.73C798.97,-79.11 1415.6,-46.91 1685.58,-32.81"/>
<polygon fill="black" stroke="black" points="1686.02,-36.29 1695.82,-32.28 1685.65,-29.3 1686.02,-36.29"/>
</g>
<!-- b4 -->
<g id="node5" class="node">
<title>b4</title>
<polygon fill="white" stroke="black" points="1238,-613.5 996,-613.5 996,-550.5 1238,-550.5 1238,-613.5"/>
<text text-anchor="middle" x="1117" y="-601.5" font-family="Helvetica" font-size="10.00">B4</text>
<text text-anchor="middle" x="1117" y="-590.5" font-family="Helvetica" font-size="10.00">Loop: &lt;none&gt;</text>
<text text-anchor="middle" x="1117" y="-579.5" font-family="Helvetica" font-size="10.00">&#45;&#45;&#45;</text>
<text text-anchor="middle" x="1117" y="-568.5" font-family="Helvetica" font-size="10.00">HotSpotMethod&lt;String.equals(Object)&gt;</text>
<text text-anchor="middle" x="1117" y="-557.5" font-family="Helvetica" font-size="10.00">HotSpotMethod&lt;StringLatin1.equals(byte[], byte[])&gt;</text>
</g>
<!-- b3&#45;&gt;b4 -->
<g id="edge5" class="edge">
<title>b3&#45;&gt;b4</title>
<path fill="none" stroke="black" d="M795.02,-203.83C857.86,-277.86 1013.69,-461.46 1082.47,-542.49"/>
<polygon fill="black" stroke="black" points="1080.1,-545.11 1089.24,-550.47 1085.44,-540.58 1080.1,-545.11"/>
</g>
<!-- b20 -->
<g id="node21" class="node">
<title>b20</title>
<polygon fill="white" stroke="black" points="1238,-203.5 996,-203.5 996,-140.5 1238,-140.5 1238,-203.5"/>
<text text-anchor="middle" x="1117" y="-191.5" font-family="Helvetica" font-size="10.00">B20</text>
<text text-anchor="middle" x="1117" y="-180.5" font-family="Helvetica" font-size="10.00">Loop: &lt;none&gt;</text>
<text text-anchor="middle" x="1117" y="-169.5" font-family="Helvetica" font-size="10.00">&#45;&#45;&#45;</text>
<text text-anchor="middle" x="1117" y="-158.5" font-family="Helvetica" font-size="10.00">HotSpotMethod&lt;String.equals(Object)&gt;</text>
<text text-anchor="middle" x="1117" y="-147.5" font-family="Helvetica" font-size="10.00">HotSpotMethod&lt;StringLatin1.equals(byte[], byte[])&gt;</text>
</g>
<!-- b3&#45;&gt;b20 -->
<g id="edge6" class="edge">
<title>b3&#45;&gt;b20</title>
<path fill="none" stroke="black" d="M888.25,-172C919.63,-172 953.59,-172 985.47,-172"/>
<polygon fill="black" stroke="black" points="985.75,-175.5 995.75,-172 985.75,-168.5 985.75,-175.5"/>
</g>
<!-- b5 -->
<g id="node6" class="node">
<title>b5</title>
<polygon fill="white" stroke="black" points="1588,-608 1346,-608 1346,-556 1588,-556 1588,-608"/>
<text text-anchor="middle" x="1467" y="-596" font-family="Helvetica" font-size="10.00">B5</text>
<text text-anchor="middle" x="1467" y="-585" font-family="Helvetica" font-size="10.00">Loop: &lt;none&gt;</text>
<text text-anchor="middle" x="1467" y="-574" font-family="Helvetica" font-size="10.00">&#45;&#45;&#45;</text>
<text text-anchor="middle" x="1467" y="-563" font-family="Helvetica" font-size="10.00">HotSpotMethod&lt;StringLatin1.equals(byte[], byte[])&gt;</text>
</g>
<!-- b4&#45;&gt;b5 -->
<g id="edge7" class="edge">
<title>b4&#45;&gt;b5</title>
<path fill="none" stroke="black" d="M1238.25,-582C1269.63,-582 1303.59,-582 1335.47,-582"/>
<polygon fill="black" stroke="black" points="1335.75,-585.5 1345.75,-582 1335.75,-578.5 1335.75,-585.5"/>
</g>
<!-- b18 -->
<g id="node19" class="node">
<title>b18</title>
<polygon fill="white" stroke="black" points="1588,-870 1346,-870 1346,-818 1588,-818 1588,-870"/>
<text text-anchor="middle" x="1467" y="-858" font-family="Helvetica" font-size="10.00">B18</text>
<text text-anchor="middle" x="1467" y="-847" font-family="Helvetica" font-size="10.00">Loop: &lt;none&gt;</text>
<text text-anchor="middle" x="1467" y="-836" font-family="Helvetica" font-size="10.00">&#45;&#45;&#45;</text>
<text text-anchor="middle" x="1467" y="-825" font-family="Helvetica" font-size="10.00">HotSpotMethod&lt;StringLatin1.equals(byte[], byte[])&gt;</text>
</g>
<!-- b4&#45;&gt;b18 -->
<g id="edge8" class="edge">
<title>b4&#45;&gt;b18</title>
<path fill="none" stroke="black" d="M1159.98,-613.6C1226.55,-663.72 1355.66,-760.93 1422.92,-811.57"/>
<polygon fill="black" stroke="black" points="1421.11,-814.58 1431.2,-817.8 1425.32,-808.99 1421.11,-814.58"/>
</g>
<!-- b7 -->
<g id="node8" class="node">
<title>b7</title>
<polygon fill="white" stroke="black" points="1938,-479 1696,-479 1696,-427 1938,-427 1938,-479"/>
<text text-anchor="middle" x="1817" y="-467" font-family="Helvetica" font-size="10.00">B7</text>
<text text-anchor="middle" x="1817" y="-456" font-family="Helvetica" font-size="10.00">Loop: &lt;none&gt;</text>
<text text-anchor="middle" x="1817" y="-445" font-family="Helvetica" font-size="10.00">&#45;&#45;&#45;</text>
<text text-anchor="middle" x="1817" y="-434" font-family="Helvetica" font-size="10.00">HotSpotMethod&lt;StringLatin1.equals(byte[], byte[])&gt;</text>
</g>
<!-- b5&#45;&gt;b7 -->
<g id="edge10" class="edge">
<title>b5&#45;&gt;b7</title>
<path fill="none" stroke="black" d="M1538.42,-555.89C1595.73,-534.65 1676.61,-504.67 1736.29,-482.55"/>
<polygon fill="black" stroke="black" points="1737.52,-485.82 1745.68,-479.07 1735.09,-479.26 1737.52,-485.82"/>
</g>
<!-- b11 -->
<g id="node12" class="node">
<title>b11</title>
<polygon fill="white" stroke="black" stroke-width="4" points="2642,-728.5 2400,-728.5 2400,-643.5 2642,-643.5 2642,-728.5"/>
<polygon fill="none" stroke="black" stroke-width="4" points="2646,-732.5 2396,-732.5 2396,-639.5 2646,-639.5 2646,-732.5"/>
<text text-anchor="middle" x="2521" y="-716.5" font-family="Helvetica" font-size="10.00">B11</text>
<text text-anchor="middle" x="2521" y="-705.5" font-family="Helvetica" font-size="10.00">Loop: &lt;none&gt;</text>
<text text-anchor="middle" x="2521" y="-694.5" font-family="Helvetica" font-size="10.00">&#45;&#45;&#45;</text>
<text text-anchor="middle" x="2521" y="-683.5" font-family="Helvetica" font-size="10.00">HotSpotMethod&lt;StringLatin1.equals(byte[], byte[])&gt;</text>
<text text-anchor="middle" x="2521" y="-672.5" font-family="Helvetica" font-size="10.00">&#45;&#45;&#45;</text>
<text text-anchor="middle" x="2521" y="-661.5" font-family="Helvetica" font-size="10.00">BuboLoopMakers:</text>
<text text-anchor="middle" x="2521" y="-650.5" font-family="Helvetica" font-size="10.00"> &#160;AMD64BuboRDTSCToSlot (LoopID=0)</text>
</g>
<!-- b5&#45;&gt;b11 -->
<g id="edge9" class="edge">
<title>b5&#45;&gt;b11</title>
<path fill="none" stroke="black" d="M1588.17,-593.88C1786.02,-613.44 2178.98,-652.29 2385.71,-672.72"/>
<polygon fill="black" stroke="black" points="2385.42,-676.21 2395.72,-673.71 2386.11,-669.25 2385.42,-676.21"/>
</g>
<!-- b6 -->
<g id="node7" class="node">
<title>b6</title>
<polygon fill="white" stroke="black" points="2288,-603 2046,-603 2046,-551 2288,-551 2288,-603"/>
<text text-anchor="middle" x="2167" y="-591" font-family="Helvetica" font-size="10.00">B6</text>
<text text-anchor="middle" x="2167" y="-580" font-family="Helvetica" font-size="10.00">Loop: &lt;none&gt;</text>
<text text-anchor="middle" x="2167" y="-569" font-family="Helvetica" font-size="10.00">&#45;&#45;&#45;</text>
<text text-anchor="middle" x="2167" y="-558" font-family="Helvetica" font-size="10.00">HotSpotMethod&lt;StringLatin1.equals(byte[], byte[])&gt;</text>
</g>
<!-- b6&#45;&gt;b11 -->
<g id="edge11" class="edge">
<title>b6&#45;&gt;b11</title>
<path fill="none" stroke="black" d="M2252.31,-603.11C2292.29,-615.49 2341.03,-630.58 2385.91,-644.48"/>
<polygon fill="black" stroke="black" points="2385.14,-647.9 2395.73,-647.52 2387.21,-641.22 2385.14,-647.9"/>
</g>
<!-- b8 -->
<g id="node9" class="node">
<title>b8</title>
<polygon fill="white" stroke="black" points="2288,-479 2046,-479 2046,-427 2288,-427 2288,-479"/>
<text text-anchor="middle" x="2167" y="-467" font-family="Helvetica" font-size="10.00">B8</text>
<text text-anchor="middle" x="2167" y="-456" font-family="Helvetica" font-size="10.00">Loop: &lt;none&gt;</text>
<text text-anchor="middle" x="2167" y="-445" font-family="Helvetica" font-size="10.00">&#45;&#45;&#45;</text>
<text text-anchor="middle" x="2167" y="-434" font-family="Helvetica" font-size="10.00">HotSpotMethod&lt;StringLatin1.equals(byte[], byte[])&gt;</text>
</g>
<!-- b7&#45;&gt;b8 -->
<g id="edge12" class="edge">
<title>b7&#45;&gt;b8</title>
<path fill="none" stroke="black" d="M1938.25,-453C1969.63,-453 2003.59,-453 2035.47,-453"/>
<polygon fill="black" stroke="black" points="2035.75,-456.5 2045.75,-453 2035.75,-449.5 2035.75,-456.5"/>
</g>
<!-- b17 -->
<g id="node18" class="node">
<title>b17</title>
<polygon fill="white" stroke="black" points="2642,-339 2400,-339 2400,-287 2642,-287 2642,-339"/>
<text text-anchor="middle" x="2521" y="-327" font-family="Helvetica" font-size="10.00">B17</text>
<text text-anchor="middle" x="2521" y="-316" font-family="Helvetica" font-size="10.00">Loop: &lt;none&gt;</text>
<text text-anchor="middle" x="2521" y="-305" font-family="Helvetica" font-size="10.00">&#45;&#45;&#45;</text>
<text text-anchor="middle" x="2521" y="-294" font-family="Helvetica" font-size="10.00">HotSpotMethod&lt;StringLatin1.equals(byte[], byte[])&gt;</text>
</g>
<!-- b7&#45;&gt;b17 -->
<g id="edge13" class="edge">
<title>b7&#45;&gt;b17</title>
<path fill="none" stroke="black" d="M1905.45,-426.96C1947.67,-414.98 1999.2,-401.18 2046,-391 2161.3,-365.9 2293.95,-344.72 2389.54,-330.79"/>
<polygon fill="black" stroke="black" points="2390.16,-334.24 2399.55,-329.34 2389.15,-327.31 2390.16,-334.24"/>
</g>
<!-- b9 -->
<g id="node10" class="node">
<title>b9</title>
<polygon fill="white" stroke="black" points="2642,-474 2400,-474 2400,-422 2642,-422 2642,-474"/>
<text text-anchor="middle" x="2521" y="-462" font-family="Helvetica" font-size="10.00">B9</text>
<text text-anchor="middle" x="2521" y="-451" font-family="Helvetica" font-size="10.00">Loop: &lt;none&gt;</text>
<text text-anchor="middle" x="2521" y="-440" font-family="Helvetica" font-size="10.00">&#45;&#45;&#45;</text>
<text text-anchor="middle" x="2521" y="-429" font-family="Helvetica" font-size="10.00">HotSpotMethod&lt;StringLatin1.equals(byte[], byte[])&gt;</text>
</g>
<!-- b8&#45;&gt;b9 -->
<g id="edge14" class="edge">
<title>b8&#45;&gt;b9</title>
<path fill="none" stroke="black" d="M2288.15,-451.29C2320.82,-450.83 2356.36,-450.32 2389.56,-449.85"/>
<polygon fill="black" stroke="black" points="2389.84,-453.35 2399.79,-449.71 2389.74,-446.35 2389.84,-453.35"/>
</g>
<!-- b8&#45;&gt;b11 -->
<g id="edge15" class="edge">
<title>b8&#45;&gt;b11</title>
<path fill="none" stroke="black" d="M2222.77,-479C2243.6,-489.48 2267.29,-502.13 2288,-515 2346.33,-551.25 2408.81,-597.79 2454.21,-633.16"/>
<polygon fill="black" stroke="black" points="2452.17,-636 2462.2,-639.4 2456.48,-630.49 2452.17,-636"/>
</g>
<!-- b22 -->
<g id="node23" class="node">
<title>b22</title>
<polygon fill="white" stroke="black" points="2996,-266 2754,-266 2754,-214 2996,-214 2996,-266"/>
<text text-anchor="middle" x="2875" y="-254" font-family="Helvetica" font-size="10.00">B22</text>
<text text-anchor="middle" x="2875" y="-243" font-family="Helvetica" font-size="10.00">Loop: &lt;none&gt;</text>
<text text-anchor="middle" x="2875" y="-232" font-family="Helvetica" font-size="10.00">&#45;&#45;&#45;</text>
<text text-anchor="middle" x="2875" y="-221" font-family="Helvetica" font-size="10.00">HotSpotMethod&lt;StringLatin1.equals(byte[], byte[])&gt;</text>
</g>
<!-- b9&#45;&gt;b22 -->
<g id="edge16" class="edge">
<title>b9&#45;&gt;b22</title>
<path fill="none" stroke="black" d="M2566.49,-421.84C2590.12,-407.94 2619.65,-390.56 2646,-375 2706.1,-339.52 2775.05,-298.67 2821.24,-271.29"/>
<polygon fill="black" stroke="black" points="2823.07,-274.28 2829.88,-266.17 2819.5,-268.25 2823.07,-274.28"/>
</g>
<!-- b10 -->
<g id="node11" class="node">
<title>b10</title>
<polygon fill="white" stroke="black" points="2288,-873 2046,-873 2046,-821 2288,-821 2288,-873"/>
<text text-anchor="middle" x="2167" y="-861" font-family="Helvetica" font-size="10.00">B10</text>
<text text-anchor="middle" x="2167" y="-850" font-family="Helvetica" font-size="10.00">Loop: &lt;none&gt;</text>
<text text-anchor="middle" x="2167" y="-839" font-family="Helvetica" font-size="10.00">&#45;&#45;&#45;</text>
<text text-anchor="middle" x="2167" y="-828" font-family="Helvetica" font-size="10.00">HotSpotMethod&lt;StringLatin1.equals(byte[], byte[])&gt;</text>
</g>
<!-- b10&#45;&gt;b11 -->
<g id="edge17" class="edge">
<title>b10&#45;&gt;b11</title>
<path fill="none" stroke="black" d="M2224.95,-820.95C2274.45,-798.31 2347.62,-764.84 2408.71,-736.9"/>
<polygon fill="black" stroke="black" points="2410.38,-739.99 2418.02,-732.65 2407.47,-733.62 2410.38,-739.99"/>
</g>
<!-- b12 -->
<g id="node13" class="node">
<title>b12</title>
<polygon fill="lightblue" stroke="black" points="2996,-712 2754,-712 2754,-660 2996,-660 2996,-712"/>
<text text-anchor="middle" x="2875" y="-700" font-family="Helvetica" font-size="10.00">B12</text>
<text text-anchor="middle" x="2875" y="-689" font-family="Helvetica" font-size="10.00">Loop: L0</text>
<text text-anchor="middle" x="2875" y="-678" font-family="Helvetica" font-size="10.00">&#45;&#45;&#45;</text>
<text text-anchor="middle" x="2875" y="-667" font-family="Helvetica" font-size="10.00">HotSpotMethod&lt;StringLatin1.equals(byte[], byte[])&gt;</text>
</g>
<!-- b11&#45;&gt;b12 -->
<g id="edge18" class="edge">
<title>b11&#45;&gt;b12</title>
<path fill="none" stroke="black" d="M2646.1,-686C2677.72,-686 2711.78,-686 2743.69,-686"/>
<polygon fill="black" stroke="black" points="2743.97,-689.5 2753.97,-686 2743.97,-682.5 2743.97,-689.5"/>
</g>
<!-- b13 -->
<g id="node14" class="node">
<title>b13</title>
<polygon fill="lightblue" stroke="black" points="3346,-847 3104,-847 3104,-795 3346,-795 3346,-847"/>
<text text-anchor="middle" x="3225" y="-835" font-family="Helvetica" font-size="10.00">B13</text>
<text text-anchor="middle" x="3225" y="-824" font-family="Helvetica" font-size="10.00">Loop: L0</text>
<text text-anchor="middle" x="3225" y="-813" font-family="Helvetica" font-size="10.00">&#45;&#45;&#45;</text>
<text text-anchor="middle" x="3225" y="-802" font-family="Helvetica" font-size="10.00">HotSpotMethod&lt;StringLatin1.equals(byte[], byte[])&gt;</text>
</g>
<!-- b12&#45;&gt;b13 -->
<g id="edge19" class="edge">
<title>b12&#45;&gt;b13</title>
<path fill="none" stroke="black" d="M2943.1,-712.03C3001.5,-734.68 3086.13,-767.52 3147.22,-791.21"/>
<polygon fill="black" stroke="black" points="3146.22,-794.58 3156.81,-794.94 3148.75,-788.06 3146.22,-794.58"/>
</g>
<!-- b16 -->
<g id="node17" class="node">
<title>b16</title>
<polygon fill="white" stroke="black" stroke-width="4" points="3329.5,-572.5 3120.5,-572.5 3120.5,-509.5 3329.5,-509.5 3329.5,-572.5"/>
<polygon fill="none" stroke="black" stroke-width="4" points="3333.5,-576.5 3116.5,-576.5 3116.5,-505.5 3333.5,-505.5 3333.5,-576.5"/>
<text text-anchor="middle" x="3225" y="-560.5" font-family="Helvetica" font-size="10.00">B16</text>
<text text-anchor="middle" x="3225" y="-549.5" font-family="Helvetica" font-size="10.00">Loop: &lt;none&gt;</text>
<text text-anchor="middle" x="3225" y="-538.5" font-family="Helvetica" font-size="10.00">&#45;&#45;&#45;</text>
<text text-anchor="middle" x="3225" y="-527.5" font-family="Helvetica" font-size="10.00">BuboLoopMakers:</text>
<text text-anchor="middle" x="3225" y="-516.5" font-family="Helvetica" font-size="10.00"> &#160;AMD64BuboWriteDeltaRDTSC (LoopID=0)</text>
</g>
<!-- b12&#45;&gt;b16 -->
<g id="edge20" class="edge">
<title>b12&#45;&gt;b16</title>
<path fill="none" stroke="black" d="M2938.62,-659.91C2991.65,-637.81 3068.49,-605.79 3129.09,-580.55"/>
<polygon fill="black" stroke="black" points="3130.78,-583.63 3138.66,-576.56 3128.09,-577.17 3130.78,-583.63"/>
</g>
<!-- b14 -->
<g id="node15" class="node">
<title>b14</title>
<polygon fill="lightblue" stroke="black" points="3700,-707 3458,-707 3458,-655 3700,-655 3700,-707"/>
<text text-anchor="middle" x="3579" y="-695" font-family="Helvetica" font-size="10.00">B14</text>
<text text-anchor="middle" x="3579" y="-684" font-family="Helvetica" font-size="10.00">Loop: L0</text>
<text text-anchor="middle" x="3579" y="-673" font-family="Helvetica" font-size="10.00">&#45;&#45;&#45;</text>
<text text-anchor="middle" x="3579" y="-662" font-family="Helvetica" font-size="10.00">HotSpotMethod&lt;StringLatin1.equals(byte[], byte[])&gt;</text>
</g>
<!-- b13&#45;&gt;b14 -->
<g id="edge21" class="edge">
<title>b13&#45;&gt;b14</title>
<path fill="none" stroke="black" d="M3291.38,-795C3351.33,-771.15 3440.07,-735.86 3502.91,-710.87"/>
<polygon fill="black" stroke="black" points="3504.37,-714.05 3512.37,-707.1 3501.78,-707.55 3504.37,-714.05"/>
</g>
<!-- b15 -->
<g id="node16" class="node">
<title>b15</title>
<polygon fill="white" stroke="black" stroke-width="4" points="3700,-868.5 3458,-868.5 3458,-783.5 3700,-783.5 3700,-868.5"/>
<polygon fill="none" stroke="black" stroke-width="4" points="3704,-872.5 3454,-872.5 3454,-779.5 3704,-779.5 3704,-872.5"/>
<text text-anchor="middle" x="3579" y="-856.5" font-family="Helvetica" font-size="10.00">B15</text>
<text text-anchor="middle" x="3579" y="-845.5" font-family="Helvetica" font-size="10.00">Loop: &lt;none&gt;</text>
<text text-anchor="middle" x="3579" y="-834.5" font-family="Helvetica" font-size="10.00">&#45;&#45;&#45;</text>
<text text-anchor="middle" x="3579" y="-823.5" font-family="Helvetica" font-size="10.00">HotSpotMethod&lt;StringLatin1.equals(byte[], byte[])&gt;</text>
<text text-anchor="middle" x="3579" y="-812.5" font-family="Helvetica" font-size="10.00">&#45;&#45;&#45;</text>
<text text-anchor="middle" x="3579" y="-801.5" font-family="Helvetica" font-size="10.00">BuboLoopMakers:</text>
<text text-anchor="middle" x="3579" y="-790.5" font-family="Helvetica" font-size="10.00"> &#160;AMD64BuboWriteDeltaRDTSC (LoopID=0)</text>
</g>
<!-- b13&#45;&gt;b15 -->
<g id="edge22" class="edge">
<title>b13&#45;&gt;b15</title>
<path fill="none" stroke="black" d="M3346.15,-822.71C3377.51,-823.15 3411.51,-823.64 3443.56,-824.09"/>
<polygon fill="black" stroke="black" points="3443.84,-827.59 3453.89,-824.24 3443.94,-820.6 3443.84,-827.59"/>
</g>
<!-- b14&#45;&gt;b12 -->
<g id="edge23" class="edge">
<title>b14&#45;&gt;b12</title>
<path fill="none" stroke="black" d="M3457.88,-681.86C3332.33,-682.75 3135.97,-684.15 3006.64,-685.07"/>
<polygon fill="black" stroke="black" points="3006.25,-681.57 2996.28,-685.14 3006.3,-688.57 3006.25,-681.57"/>
</g>
<!-- b19 -->
<g id="node20" class="node">
<title>b19</title>
<polygon fill="white" stroke="black" points="4000,-852 3812,-852 3812,-800 4000,-800 4000,-852"/>
<text text-anchor="middle" x="3906" y="-840" font-family="Helvetica" font-size="10.00">B19</text>
<text text-anchor="middle" x="3906" y="-829" font-family="Helvetica" font-size="10.00">Loop: &lt;none&gt;</text>
<text text-anchor="middle" x="3906" y="-818" font-family="Helvetica" font-size="10.00">&#45;&#45;&#45;</text>
<text text-anchor="middle" x="3906" y="-807" font-family="Helvetica" font-size="10.00">HotSpotMethod&lt;String.equals(Object)&gt;</text>
</g>
<!-- b15&#45;&gt;b19 -->
<g id="edge24" class="edge">
<title>b15&#45;&gt;b19</title>
<path fill="none" stroke="black" d="M3704.26,-826C3736.38,-826 3770.61,-826 3801.54,-826"/>
<polygon fill="black" stroke="black" points="3801.89,-829.5 3811.89,-826 3801.89,-822.5 3801.89,-829.5"/>
</g>
<!-- b16&#45;&gt;b19 -->
<g id="edge25" class="edge">
<title>b16&#45;&gt;b19</title>
<path fill="none" stroke="black" d="M3333.62,-539.6C3434.67,-542.53 3587.34,-558.13 3704,-619 3783.02,-660.23 3849.29,-744.14 3882.37,-791.49"/>
<polygon fill="black" stroke="black" points="3879.6,-793.64 3888.15,-799.89 3885.36,-789.66 3879.6,-793.64"/>
</g>
<!-- b17&#45;&gt;b22 -->
<g id="edge26" class="edge">
<title>b17&#45;&gt;b22</title>
<path fill="none" stroke="black" d="M2642.15,-288.08C2674.96,-281.28 2710.66,-273.87 2743.99,-266.96"/>
<polygon fill="black" stroke="black" points="2744.71,-270.39 2753.79,-264.93 2743.29,-263.53 2744.71,-270.39"/>
</g>
<!-- b18&#45;&gt;b19 -->
<g id="edge27" class="edge">
<title>b18&#45;&gt;b19</title>
<path fill="none" stroke="black" d="M1546.81,-870.04C1675.08,-910.03 1937.63,-982 2166,-982 2166,-982 2166,-982 3226,-982 3440.91,-982 3496.97,-966.65 3704,-909 3751.81,-895.69 3803.52,-874.16 3842.52,-856.36"/>
<polygon fill="black" stroke="black" points="3844.03,-859.52 3851.65,-852.16 3841.1,-853.17 3844.03,-859.52"/>
</g>
<!-- b20&#45;&gt;b22 -->
<g id="edge28" class="edge">
<title>b20&#45;&gt;b22</title>
<path fill="none" stroke="black" d="M1238.12,-172C1377.2,-172 1613.17,-172 1816,-172 1816,-172 1816,-172 2168,-172 2369.72,-172 2602.37,-199.85 2743.77,-219.9"/>
<polygon fill="black" stroke="black" points="2743.4,-223.38 2753.79,-221.33 2744.38,-216.45 2743.4,-223.38"/>
</g>
<!-- b21&#45;&gt;b22 -->
<g id="edge29" class="edge">
<title>b21&#45;&gt;b22</title>
<path fill="none" stroke="black" d="M1938.15,-24.91C2101.91,-26.62 2402.66,-41.17 2646,-117 2713.23,-137.95 2783.5,-179.28 2827.95,-208.23"/>
<polygon fill="black" stroke="black" points="2826.21,-211.27 2836.49,-213.84 2830.06,-205.42 2826.21,-211.27"/>
</g>
</g>
</svg>
