<?xml version="1.0" encoding="UTF-8" standalone="no"?>
<!DOCTYPE svg PUBLIC "-//W3C//DTD SVG 1.1//EN"
 "http://www.w3.org/Graphics/SVG/1.1/DTD/svg11.dtd">
<!-- Generated by graphviz version 2.44.0 (0)
 -->
<!-- Title: CFG_91 Pages: 1 -->
<svg width="2724pt" height="878pt"
 viewBox="0.00 0.00 2724.00 878.00" xmlns="http://www.w3.org/2000/svg" xmlns:xlink="http://www.w3.org/1999/xlink">
<g id="graph0" class="graph" transform="scale(1 1) rotate(0) translate(4 874)">
<title>CFG_91</title>
<polygon fill="white" stroke="transparent" points="-4,4 -4,-874 2720,-874 2720,4 -4,4"/>
<text text-anchor="middle" x="248" y="-850" font-family="Times-Roman" font-size="20.00">138&#45;java.lang.StringLatin1.equals(byte[], byte[])</text>
<!-- b0 -->
<g id="node1" class="node">
<title>b0</title>
<polygon fill="white" stroke="black" points="242,-513 0,-513 0,-461 242,-461 242,-513"/>
<text text-anchor="middle" x="121" y="-501" font-family="Helvetica" font-size="10.00">B0</text>
<text text-anchor="middle" x="121" y="-490" font-family="Helvetica" font-size="10.00">Loop: &lt;none&gt;</text>
<text text-anchor="middle" x="121" y="-479" font-family="Helvetica" font-size="10.00">&#45;&#45;&#45;</text>
<text text-anchor="middle" x="121" y="-468" font-family="Helvetica" font-size="10.00">HotSpotMethod&lt;StringLatin1.equals(byte[], byte[])&gt;</text>
</g>
<!-- b1 -->
<g id="node2" class="node">
<title>b1</title>
<polygon fill="white" stroke="black" points="592,-575 350,-575 350,-523 592,-523 592,-575"/>
<text text-anchor="middle" x="471" y="-563" font-family="Helvetica" font-size="10.00">B1</text>
<text text-anchor="middle" x="471" y="-552" font-family="Helvetica" font-size="10.00">Loop: &lt;none&gt;</text>
<text text-anchor="middle" x="471" y="-541" font-family="Helvetica" font-size="10.00">&#45;&#45;&#45;</text>
<text text-anchor="middle" x="471" y="-530" font-family="Helvetica" font-size="10.00">HotSpotMethod&lt;StringLatin1.equals(byte[], byte[])&gt;</text>
</g>
<!-- b0&#45;&gt;b1 -->
<g id="edge1" class="edge">
<title>b0&#45;&gt;b1</title>
<path fill="none" stroke="black" d="M242.25,-508.42C273.76,-514.04 307.88,-520.12 339.89,-525.82"/>
<polygon fill="black" stroke="black" points="339.29,-529.27 349.75,-527.58 340.52,-522.38 339.29,-529.27"/>
</g>
<!-- b15 -->
<g id="node16" class="node">
<title>b15</title>
<polygon fill="white" stroke="black" points="592,-451 350,-451 350,-399 592,-399 592,-451"/>
<text text-anchor="middle" x="471" y="-439" font-family="Helvetica" font-size="10.00">B15</text>
<text text-anchor="middle" x="471" y="-428" font-family="Helvetica" font-size="10.00">Loop: &lt;none&gt;</text>
<text text-anchor="middle" x="471" y="-417" font-family="Helvetica" font-size="10.00">&#45;&#45;&#45;</text>
<text text-anchor="middle" x="471" y="-406" font-family="Helvetica" font-size="10.00">HotSpotMethod&lt;StringLatin1.equals(byte[], byte[])&gt;</text>
</g>
<!-- b0&#45;&gt;b15 -->
<g id="edge2" class="edge">
<title>b0&#45;&gt;b15</title>
<path fill="none" stroke="black" d="M242.25,-465.58C273.76,-459.96 307.88,-453.88 339.89,-448.18"/>
<polygon fill="black" stroke="black" points="340.52,-451.62 349.75,-446.42 339.29,-444.73 340.52,-451.62"/>
</g>
<!-- b3 -->
<g id="node4" class="node">
<title>b3</title>
<polygon fill="white" stroke="black" points="942,-446 700,-446 700,-394 942,-394 942,-446"/>
<text text-anchor="middle" x="821" y="-434" font-family="Helvetica" font-size="10.00">B3</text>
<text text-anchor="middle" x="821" y="-423" font-family="Helvetica" font-size="10.00">Loop: &lt;none&gt;</text>
<text text-anchor="middle" x="821" y="-412" font-family="Helvetica" font-size="10.00">&#45;&#45;&#45;</text>
<text text-anchor="middle" x="821" y="-401" font-family="Helvetica" font-size="10.00">HotSpotMethod&lt;StringLatin1.equals(byte[], byte[])&gt;</text>
</g>
<!-- b1&#45;&gt;b3 -->
<g id="edge4" class="edge">
<title>b1&#45;&gt;b3</title>
<path fill="none" stroke="black" d="M542.42,-522.89C599.73,-501.65 680.61,-471.67 740.29,-449.55"/>
<polygon fill="black" stroke="black" points="741.52,-452.82 749.68,-446.07 739.09,-446.26 741.52,-452.82"/>
</g>
<!-- b7 -->
<g id="node8" class="node">
<title>b7</title>
<polygon fill="white" stroke="black" stroke-width="4" points="1646,-653.5 1404,-653.5 1404,-568.5 1646,-568.5 1646,-653.5"/>
<polygon fill="none" stroke="black" stroke-width="4" points="1650,-657.5 1400,-657.5 1400,-564.5 1650,-564.5 1650,-657.5"/>
<text text-anchor="middle" x="1525" y="-641.5" font-family="Helvetica" font-size="10.00">B7</text>
<text text-anchor="middle" x="1525" y="-630.5" font-family="Helvetica" font-size="10.00">Loop: &lt;none&gt;</text>
<text text-anchor="middle" x="1525" y="-619.5" font-family="Helvetica" font-size="10.00">&#45;&#45;&#45;</text>
<text text-anchor="middle" x="1525" y="-608.5" font-family="Helvetica" font-size="10.00">HotSpotMethod&lt;StringLatin1.equals(byte[], byte[])&gt;</text>
<text text-anchor="middle" x="1525" y="-597.5" font-family="Helvetica" font-size="10.00">&#45;&#45;&#45;</text>
<text text-anchor="middle" x="1525" y="-586.5" font-family="Helvetica" font-size="10.00">BuboLoopMakers:</text>
<text text-anchor="middle" x="1525" y="-575.5" font-family="Helvetica" font-size="10.00"> &#160;AMD64BuboRDTSCToSlot (LoopID=0)</text>
</g>
<!-- b1&#45;&gt;b7 -->
<g id="edge3" class="edge">
<title>b1&#45;&gt;b7</title>
<path fill="none" stroke="black" d="M592.15,-563.95C708.9,-577.75 891.3,-597.35 1050,-606 1164.37,-612.23 1294.48,-613.16 1389.42,-612.72"/>
<polygon fill="black" stroke="black" points="1389.67,-616.22 1399.65,-612.67 1389.63,-609.22 1389.67,-616.22"/>
</g>
<!-- b2 -->
<g id="node3" class="node">
<title>b2</title>
<polygon fill="white" stroke="black" points="1292,-570 1050,-570 1050,-518 1292,-518 1292,-570"/>
<text text-anchor="middle" x="1171" y="-558" font-family="Helvetica" font-size="10.00">B2</text>
<text text-anchor="middle" x="1171" y="-547" font-family="Helvetica" font-size="10.00">Loop: &lt;none&gt;</text>
<text text-anchor="middle" x="1171" y="-536" font-family="Helvetica" font-size="10.00">&#45;&#45;&#45;</text>
<text text-anchor="middle" x="1171" y="-525" font-family="Helvetica" font-size="10.00">HotSpotMethod&lt;StringLatin1.equals(byte[], byte[])&gt;</text>
</g>
<!-- b2&#45;&gt;b7 -->
<g id="edge5" class="edge">
<title>b2&#45;&gt;b7</title>
<path fill="none" stroke="black" d="M1292.15,-566.87C1323.65,-572.87 1357.81,-579.37 1389.98,-585.49"/>
<polygon fill="black" stroke="black" points="1389.42,-588.95 1399.89,-587.38 1390.72,-582.07 1389.42,-588.95"/>
</g>
<!-- b4 -->
<g id="node5" class="node">
<title>b4</title>
<polygon fill="white" stroke="black" points="1292,-446 1050,-446 1050,-394 1292,-394 1292,-446"/>
<text text-anchor="middle" x="1171" y="-434" font-family="Helvetica" font-size="10.00">B4</text>
<text text-anchor="middle" x="1171" y="-423" font-family="Helvetica" font-size="10.00">Loop: &lt;none&gt;</text>
<text text-anchor="middle" x="1171" y="-412" font-family="Helvetica" font-size="10.00">&#45;&#45;&#45;</text>
<text text-anchor="middle" x="1171" y="-401" font-family="Helvetica" font-size="10.00">HotSpotMethod&lt;StringLatin1.equals(byte[], byte[])&gt;</text>
</g>
<!-- b3&#45;&gt;b4 -->
<g id="edge6" class="edge">
<title>b3&#45;&gt;b4</title>
<path fill="none" stroke="black" d="M942.25,-420C973.63,-420 1007.59,-420 1039.47,-420"/>
<polygon fill="black" stroke="black" points="1039.75,-423.5 1049.75,-420 1039.75,-416.5 1039.75,-423.5"/>
</g>
<!-- b14 -->
<g id="node15" class="node">
<title>b14</title>
<polygon fill="white" stroke="black" points="1646,-255 1404,-255 1404,-203 1646,-203 1646,-255"/>
<text text-anchor="middle" x="1525" y="-243" font-family="Helvetica" font-size="10.00">B14</text>
<text text-anchor="middle" x="1525" y="-232" font-family="Helvetica" font-size="10.00">Loop: &lt;none&gt;</text>
<text text-anchor="middle" x="1525" y="-221" font-family="Helvetica" font-size="10.00">&#45;&#45;&#45;</text>
<text text-anchor="middle" x="1525" y="-210" font-family="Helvetica" font-size="10.00">HotSpotMethod&lt;StringLatin1.equals(byte[], byte[])&gt;</text>
</g>
<!-- b3&#45;&gt;b14 -->
<g id="edge7" class="edge">
<title>b3&#45;&gt;b14</title>
<path fill="none" stroke="black" d="M843.19,-393.84C879.92,-350.78 960.18,-266.52 1050,-234 1160.79,-193.88 1295.93,-197.08 1393.52,-207.68"/>
<polygon fill="black" stroke="black" points="1393.41,-211.19 1403.74,-208.83 1394.19,-204.24 1393.41,-211.19"/>
</g>
<!-- b4&#45;&gt;b7 -->
<g id="edge9" class="edge">
<title>b4&#45;&gt;b7</title>
<path fill="none" stroke="black" d="M1223.27,-446.06C1244.61,-457.01 1269.58,-469.98 1292,-482 1338.64,-507.01 1390.12,-535.54 1432.71,-559.4"/>
<polygon fill="black" stroke="black" points="1431.22,-562.57 1441.66,-564.41 1434.65,-556.47 1431.22,-562.57"/>
</g>
<!-- b4&#45;&gt;b14 -->
<g id="edge8" class="edge">
<title>b4&#45;&gt;b14</title>
<path fill="none" stroke="black" d="M1223.27,-393.94C1244.61,-382.99 1269.58,-370.02 1292,-358 1353.05,-325.27 1422.39,-286.5 1469.24,-260.07"/>
<polygon fill="black" stroke="black" points="1471.02,-263.08 1478.01,-255.12 1467.58,-256.99 1471.02,-263.08"/>
</g>
<!-- b5 -->
<g id="node6" class="node">
<title>b5</title>
<polygon fill="white" stroke="black" points="1292,-322 1050,-322 1050,-270 1292,-270 1292,-322"/>
<text text-anchor="middle" x="1171" y="-310" font-family="Helvetica" font-size="10.00">B5</text>
<text text-anchor="middle" x="1171" y="-299" font-family="Helvetica" font-size="10.00">Loop: &lt;none&gt;</text>
<text text-anchor="middle" x="1171" y="-288" font-family="Helvetica" font-size="10.00">&#45;&#45;&#45;</text>
<text text-anchor="middle" x="1171" y="-277" font-family="Helvetica" font-size="10.00">HotSpotMethod&lt;StringLatin1.equals(byte[], byte[])&gt;</text>
</g>
<!-- b5&#45;&gt;b14 -->
<g id="edge10" class="edge">
<title>b5&#45;&gt;b14</title>
<path fill="none" stroke="black" d="M1292.15,-273.13C1324.82,-266.91 1360.36,-260.15 1393.56,-253.83"/>
<polygon fill="black" stroke="black" points="1394.62,-257.19 1403.79,-251.88 1393.31,-250.31 1394.62,-257.19"/>
</g>
<!-- b6 -->
<g id="node7" class="node">
<title>b6</title>
<polygon fill="white" stroke="black" points="1292,-840 1050,-840 1050,-788 1292,-788 1292,-840"/>
<text text-anchor="middle" x="1171" y="-828" font-family="Helvetica" font-size="10.00">B6</text>
<text text-anchor="middle" x="1171" y="-817" font-family="Helvetica" font-size="10.00">Loop: &lt;none&gt;</text>
<text text-anchor="middle" x="1171" y="-806" font-family="Helvetica" font-size="10.00">&#45;&#45;&#45;</text>
<text text-anchor="middle" x="1171" y="-795" font-family="Helvetica" font-size="10.00">HotSpotMethod&lt;StringLatin1.equals(byte[], byte[])&gt;</text>
</g>
<!-- b6&#45;&gt;b7 -->
<g id="edge11" class="edge">
<title>b6&#45;&gt;b7</title>
<path fill="none" stroke="black" d="M1217.3,-787.88C1271.96,-756.35 1365.17,-702.6 1434.52,-662.6"/>
<polygon fill="black" stroke="black" points="1436.37,-665.58 1443.28,-657.55 1432.87,-659.51 1436.37,-665.58"/>
</g>
<!-- b8 -->
<g id="node9" class="node">
<title>b8</title>
<polygon fill="lightblue" stroke="black" points="2000,-637 1758,-637 1758,-585 2000,-585 2000,-637"/>
<text text-anchor="middle" x="1879" y="-625" font-family="Helvetica" font-size="10.00">B8</text>
<text text-anchor="middle" x="1879" y="-614" font-family="Helvetica" font-size="10.00">Loop: L0</text>
<text text-anchor="middle" x="1879" y="-603" font-family="Helvetica" font-size="10.00">&#45;&#45;&#45;</text>
<text text-anchor="middle" x="1879" y="-592" font-family="Helvetica" font-size="10.00">HotSpotMethod&lt;StringLatin1.equals(byte[], byte[])&gt;</text>
</g>
<!-- b7&#45;&gt;b8 -->
<g id="edge12" class="edge">
<title>b7&#45;&gt;b8</title>
<path fill="none" stroke="black" d="M1650.1,-611C1681.72,-611 1715.78,-611 1747.69,-611"/>
<polygon fill="black" stroke="black" points="1747.97,-614.5 1757.97,-611 1747.97,-607.5 1747.97,-614.5"/>
</g>
<!-- b9 -->
<g id="node10" class="node">
<title>b9</title>
<polygon fill="lightblue" stroke="black" points="2354,-782 2112,-782 2112,-730 2354,-730 2354,-782"/>
<text text-anchor="middle" x="2233" y="-770" font-family="Helvetica" font-size="10.00">B9</text>
<text text-anchor="middle" x="2233" y="-759" font-family="Helvetica" font-size="10.00">Loop: L0</text>
<text text-anchor="middle" x="2233" y="-748" font-family="Helvetica" font-size="10.00">&#45;&#45;&#45;</text>
<text text-anchor="middle" x="2233" y="-737" font-family="Helvetica" font-size="10.00">HotSpotMethod&lt;StringLatin1.equals(byte[], byte[])&gt;</text>
</g>
<!-- b8&#45;&gt;b9 -->
<g id="edge13" class="edge">
<title>b8&#45;&gt;b9</title>
<path fill="none" stroke="black" d="M1943.34,-637.09C2004.05,-662.1 2095.63,-699.83 2159.3,-726.05"/>
<polygon fill="black" stroke="black" points="2158.3,-729.42 2168.88,-730 2160.96,-722.95 2158.3,-729.42"/>
</g>
<!-- b12 -->
<g id="node13" class="node">
<title>b12</title>
<polygon fill="white" stroke="black" stroke-width="4" points="2354,-653.5 2112,-653.5 2112,-568.5 2354,-568.5 2354,-653.5"/>
<polygon fill="none" stroke="black" stroke-width="4" points="2358,-657.5 2108,-657.5 2108,-564.5 2358,-564.5 2358,-657.5"/>
<text text-anchor="middle" x="2233" y="-641.5" font-family="Helvetica" font-size="10.00">B12</text>
<text text-anchor="middle" x="2233" y="-630.5" font-family="Helvetica" font-size="10.00">Loop: &lt;none&gt;</text>
<text text-anchor="middle" x="2233" y="-619.5" font-family="Helvetica" font-size="10.00">&#45;&#45;&#45;</text>
<text text-anchor="middle" x="2233" y="-608.5" font-family="Helvetica" font-size="10.00">HotSpotMethod&lt;StringLatin1.equals(byte[], byte[])&gt;</text>
<text text-anchor="middle" x="2233" y="-597.5" font-family="Helvetica" font-size="10.00">&#45;&#45;&#45;</text>
<text text-anchor="middle" x="2233" y="-586.5" font-family="Helvetica" font-size="10.00">BuboLoopMakers:</text>
<text text-anchor="middle" x="2233" y="-575.5" font-family="Helvetica" font-size="10.00"> &#160;AMD64BuboWriteDeltaRDTSC (LoopID=0)</text>
</g>
<!-- b8&#45;&gt;b12 -->
<g id="edge14" class="edge">
<title>b8&#45;&gt;b12</title>
<path fill="none" stroke="black" d="M2000.15,-611C2031.51,-611 2065.51,-611 2097.56,-611"/>
<polygon fill="black" stroke="black" points="2097.89,-614.5 2107.89,-611 2097.89,-607.5 2097.89,-614.5"/>
</g>
<!-- b10 -->
<g id="node11" class="node">
<title>b10</title>
<polygon fill="lightblue" stroke="black" points="2712,-559 2470,-559 2470,-507 2712,-507 2712,-559"/>
<text text-anchor="middle" x="2591" y="-547" font-family="Helvetica" font-size="10.00">B10</text>
<text text-anchor="middle" x="2591" y="-536" font-family="Helvetica" font-size="10.00">Loop: L0</text>
<text text-anchor="middle" x="2591" y="-525" font-family="Helvetica" font-size="10.00">&#45;&#45;&#45;</text>
<text text-anchor="middle" x="2591" y="-514" font-family="Helvetica" font-size="10.00">HotSpotMethod&lt;StringLatin1.equals(byte[], byte[])&gt;</text>
</g>
<!-- b9&#45;&gt;b10 -->
<g id="edge15" class="edge">
<title>b9&#45;&gt;b10</title>
<path fill="none" stroke="black" d="M2290.46,-729.88C2311.97,-719.39 2336.47,-706.77 2358,-694 2426.68,-653.28 2501.87,-599.21 2547.49,-565.26"/>
<polygon fill="black" stroke="black" points="2549.74,-567.95 2555.66,-559.16 2545.55,-562.34 2549.74,-567.95"/>
</g>
<!-- b11 -->
<g id="node12" class="node">
<title>b11</title>
<polygon fill="white" stroke="black" stroke-width="4" points="2712,-798.5 2470,-798.5 2470,-713.5 2712,-713.5 2712,-798.5"/>
<polygon fill="none" stroke="black" stroke-width="4" points="2716,-802.5 2466,-802.5 2466,-709.5 2716,-709.5 2716,-802.5"/>
<text text-anchor="middle" x="2591" y="-786.5" font-family="Helvetica" font-size="10.00">B11</text>
<text text-anchor="middle" x="2591" y="-775.5" font-family="Helvetica" font-size="10.00">Loop: &lt;none&gt;</text>
<text text-anchor="middle" x="2591" y="-764.5" font-family="Helvetica" font-size="10.00">&#45;&#45;&#45;</text>
<text text-anchor="middle" x="2591" y="-753.5" font-family="Helvetica" font-size="10.00">HotSpotMethod&lt;StringLatin1.equals(byte[], byte[])&gt;</text>
<text text-anchor="middle" x="2591" y="-742.5" font-family="Helvetica" font-size="10.00">&#45;&#45;&#45;</text>
<text text-anchor="middle" x="2591" y="-731.5" font-family="Helvetica" font-size="10.00">BuboLoopMakers:</text>
<text text-anchor="middle" x="2591" y="-720.5" font-family="Helvetica" font-size="10.00"> &#160;AMD64BuboWriteDeltaRDTSC (LoopID=0)</text>
</g>
<!-- b9&#45;&gt;b11 -->
<g id="edge16" class="edge">
<title>b9&#45;&gt;b11</title>
<path fill="none" stroke="black" d="M2354.03,-756C2386.68,-756 2422.26,-756 2455.65,-756"/>
<polygon fill="black" stroke="black" points="2455.94,-759.5 2465.94,-756 2455.94,-752.5 2455.94,-759.5"/>
</g>
<!-- b10&#45;&gt;b8 -->
<g id="edge17" class="edge">
<title>b10&#45;&gt;b8</title>
<path fill="none" stroke="black" d="M2469.67,-520.07C2371.56,-512.37 2229.8,-507.76 2108,-529 2051.13,-538.92 1989.71,-561.77 1944.96,-580.83"/>
<polygon fill="black" stroke="black" points="1943.47,-577.66 1935.67,-584.84 1946.24,-584.09 1943.47,-577.66"/>
</g>
<!-- b13 -->
<g id="node14" class="node">
<title>b13</title>
<polygon fill="white" stroke="black" points="1292,-52 1050,-52 1050,0 1292,0 1292,-52"/>
<text text-anchor="middle" x="1171" y="-40" font-family="Helvetica" font-size="10.00">B13</text>
<text text-anchor="middle" x="1171" y="-29" font-family="Helvetica" font-size="10.00">Loop: &lt;none&gt;</text>
<text text-anchor="middle" x="1171" y="-18" font-family="Helvetica" font-size="10.00">&#45;&#45;&#45;</text>
<text text-anchor="middle" x="1171" y="-7" font-family="Helvetica" font-size="10.00">HotSpotMethod&lt;StringLatin1.equals(byte[], byte[])&gt;</text>
</g>
<!-- b13&#45;&gt;b14 -->
<g id="edge18" class="edge">
<title>b13&#45;&gt;b14</title>
<path fill="none" stroke="black" d="M1217.3,-52.12C1281.98,-89.43 1400.63,-157.85 1469.86,-197.78"/>
<polygon fill="black" stroke="black" points="1468.47,-201.01 1478.88,-202.98 1471.96,-194.95 1468.47,-201.01"/>
</g>
</g>
</svg>
