<?xml version="1.0" encoding="UTF-8" standalone="no"?>
<!DOCTYPE svg PUBLIC "-//W3C//DTD SVG 1.1//EN"
 "http://www.w3.org/Graphics/SVG/1.1/DTD/svg11.dtd">
<!-- Generated by graphviz version 2.44.0 (0)
 -->
<!-- Title: CFG_111 Pages: 1 -->
<svg width="5718pt" height="741pt"
 viewBox="0.00 0.00 5718.00 741.00" xmlns="http://www.w3.org/2000/svg" xmlns:xlink="http://www.w3.org/1999/xlink">
<g id="graph0" class="graph" transform="scale(1 1) rotate(0) translate(4 737)">
<title>CFG_111</title>
<polygon fill="white" stroke="transparent" points="-4,4 -4,-737 5714,-737 5714,4 -4,4"/>
<text text-anchor="middle" x="189" y="-713" font-family="Times-Roman" font-size="20.00">169&#45;LoopBenchmarks.main(String[])</text>
<!-- b0 -->
<g id="node1" class="node">
<title>b0</title>
<polygon fill="white" stroke="black" points="235,-602 0,-602 0,-550 235,-550 235,-602"/>
<text text-anchor="middle" x="117.5" y="-590" font-family="Helvetica" font-size="10.00">B0</text>
<text text-anchor="middle" x="117.5" y="-579" font-family="Helvetica" font-size="10.00">Loop: &lt;none&gt;</text>
<text text-anchor="middle" x="117.5" y="-568" font-family="Helvetica" font-size="10.00">&#45;&#45;&#45;</text>
<text text-anchor="middle" x="117.5" y="-557" font-family="Helvetica" font-size="10.00">HotSpotMethod&lt;LoopBenchmarks.main(String[])&gt;</text>
</g>
<!-- b1 -->
<g id="node2" class="node">
<title>b1</title>
<polygon fill="white" stroke="black" stroke-width="4" points="601,-699 347,-699 347,-603 601,-603 601,-699"/>
<polygon fill="none" stroke="black" stroke-width="4" points="605,-703 343,-703 343,-599 605,-599 605,-703"/>
<text text-anchor="middle" x="474" y="-687" font-family="Helvetica" font-size="10.00">B1</text>
<text text-anchor="middle" x="474" y="-676" font-family="Helvetica" font-size="10.00">Loop: &lt;none&gt;</text>
<text text-anchor="middle" x="474" y="-665" font-family="Helvetica" font-size="10.00">&#45;&#45;&#45;</text>
<text text-anchor="middle" x="474" y="-654" font-family="Helvetica" font-size="10.00">HotSpotMethod&lt;LoopBenchmarks.main(String[])&gt;</text>
<text text-anchor="middle" x="474" y="-643" font-family="Helvetica" font-size="10.00">HotSpotMethod&lt;LoopBenchmarks.fibonacciLoop(int)&gt;</text>
<text text-anchor="middle" x="474" y="-632" font-family="Helvetica" font-size="10.00">&#45;&#45;&#45;</text>
<text text-anchor="middle" x="474" y="-621" font-family="Helvetica" font-size="10.00">BuboLoopMakers:</text>
<text text-anchor="middle" x="474" y="-610" font-family="Helvetica" font-size="10.00"> &#160;AMD64BuboRDTSCToSlot (LoopID=1)</text>
</g>
<!-- b0&#45;&gt;b1 -->
<g id="edge1" class="edge">
<title>b0&#45;&gt;b1</title>
<path fill="none" stroke="black" d="M235.07,-600.66C266.34,-607.28 300.48,-614.5 332.89,-621.36"/>
<polygon fill="black" stroke="black" points="332.37,-624.83 342.88,-623.47 333.82,-617.98 332.37,-624.83"/>
</g>
<!-- b23 -->
<g id="node24" class="node">
<title>b23</title>
<polygon fill="white" stroke="black" points="591.5,-527 356.5,-527 356.5,-475 591.5,-475 591.5,-527"/>
<text text-anchor="middle" x="474" y="-515" font-family="Helvetica" font-size="10.00">B23</text>
<text text-anchor="middle" x="474" y="-504" font-family="Helvetica" font-size="10.00">Loop: &lt;none&gt;</text>
<text text-anchor="middle" x="474" y="-493" font-family="Helvetica" font-size="10.00">&#45;&#45;&#45;</text>
<text text-anchor="middle" x="474" y="-482" font-family="Helvetica" font-size="10.00">HotSpotMethod&lt;LoopBenchmarks.main(String[])&gt;</text>
</g>
<!-- b0&#45;&gt;b23 -->
<g id="edge2" class="edge">
<title>b0&#45;&gt;b23</title>
<path fill="none" stroke="black" d="M235.07,-551.34C270.67,-543.81 309.98,-535.49 346.23,-527.82"/>
<polygon fill="black" stroke="black" points="347.3,-531.17 356.36,-525.68 345.85,-524.32 347.3,-531.17"/>
</g>
<!-- b2 -->
<g id="node3" class="node">
<title>b2</title>
<polygon fill="lightblue" stroke="black" points="967,-677 713,-677 713,-625 967,-625 967,-677"/>
<text text-anchor="middle" x="840" y="-665" font-family="Helvetica" font-size="10.00">B2</text>
<text text-anchor="middle" x="840" y="-654" font-family="Helvetica" font-size="10.00">Loop: L0</text>
<text text-anchor="middle" x="840" y="-643" font-family="Helvetica" font-size="10.00">&#45;&#45;&#45;</text>
<text text-anchor="middle" x="840" y="-632" font-family="Helvetica" font-size="10.00">HotSpotMethod&lt;LoopBenchmarks.fibonacciLoop(int)&gt;</text>
</g>
<!-- b1&#45;&gt;b2 -->
<g id="edge3" class="edge">
<title>b1&#45;&gt;b2</title>
<path fill="none" stroke="black" d="M605.13,-651C636.71,-651 670.57,-651 702.44,-651"/>
<polygon fill="black" stroke="black" points="702.71,-654.5 712.71,-651 702.71,-647.5 702.71,-654.5"/>
</g>
<!-- b3 -->
<g id="node4" class="node">
<title>b3</title>
<polygon fill="lightblue" stroke="black" points="1333,-677 1079,-677 1079,-625 1333,-625 1333,-677"/>
<text text-anchor="middle" x="1206" y="-665" font-family="Helvetica" font-size="10.00">B3</text>
<text text-anchor="middle" x="1206" y="-654" font-family="Helvetica" font-size="10.00">Loop: L0</text>
<text text-anchor="middle" x="1206" y="-643" font-family="Helvetica" font-size="10.00">&#45;&#45;&#45;</text>
<text text-anchor="middle" x="1206" y="-632" font-family="Helvetica" font-size="10.00">HotSpotMethod&lt;LoopBenchmarks.fibonacciLoop(int)&gt;</text>
</g>
<!-- b2&#45;&gt;b3 -->
<g id="edge4" class="edge">
<title>b2&#45;&gt;b3</title>
<path fill="none" stroke="black" d="M967.03,-625.17C999.8,-623.76 1035.24,-623.62 1068.52,-624.76"/>
<polygon fill="black" stroke="black" points="1068.64,-628.27 1078.77,-625.16 1068.91,-621.28 1068.64,-628.27"/>
</g>
<!-- b4 -->
<g id="node5" class="node">
<title>b4</title>
<polygon fill="white" stroke="black" stroke-width="4" points="1333,-549 1079,-549 1079,-453 1333,-453 1333,-549"/>
<polygon fill="none" stroke="black" stroke-width="4" points="1337,-553 1075,-553 1075,-449 1337,-449 1337,-553"/>
<text text-anchor="middle" x="1206" y="-537" font-family="Helvetica" font-size="10.00">B4</text>
<text text-anchor="middle" x="1206" y="-526" font-family="Helvetica" font-size="10.00">Loop: &lt;none&gt;</text>
<text text-anchor="middle" x="1206" y="-515" font-family="Helvetica" font-size="10.00">&#45;&#45;&#45;</text>
<text text-anchor="middle" x="1206" y="-504" font-family="Helvetica" font-size="10.00">HotSpotMethod&lt;LoopBenchmarks.fibonacciLoop(int)&gt;</text>
<text text-anchor="middle" x="1206" y="-493" font-family="Helvetica" font-size="10.00">&#45;&#45;&#45;</text>
<text text-anchor="middle" x="1206" y="-482" font-family="Helvetica" font-size="10.00">BuboLoopMakers:</text>
<text text-anchor="middle" x="1206" y="-471" font-family="Helvetica" font-size="10.00"> &#160;AMD64BuboWriteDeltaRDTSC</text>
<text text-anchor="middle" x="1206" y="-460" font-family="Helvetica" font-size="10.00"> &#160;AMD64BuboRDTSCToSlot (LoopID=3)</text>
</g>
<!-- b2&#45;&gt;b4 -->
<g id="edge5" class="edge">
<title>b2&#45;&gt;b4</title>
<path fill="none" stroke="black" d="M904.4,-624.87C949.84,-606.15 1012.75,-580.22 1069.28,-556.93"/>
<polygon fill="black" stroke="black" points="1070.74,-560.11 1078.66,-553.06 1068.08,-553.64 1070.74,-560.11"/>
</g>
<!-- b3&#45;&gt;b2 -->
<g id="edge6" class="edge">
<title>b3&#45;&gt;b2</title>
<path fill="none" stroke="black" d="M1078.77,-676.84C1045.99,-678.24 1010.55,-678.37 977.28,-677.23"/>
<polygon fill="black" stroke="black" points="977.16,-673.72 967.03,-676.83 976.89,-680.72 977.16,-673.72"/>
</g>
<!-- b5 -->
<g id="node6" class="node">
<title>b5</title>
<polygon fill="lightgreen" stroke="black" points="1699,-527 1445,-527 1445,-475 1699,-475 1699,-527"/>
<text text-anchor="middle" x="1572" y="-515" font-family="Helvetica" font-size="10.00">B5</text>
<text text-anchor="middle" x="1572" y="-504" font-family="Helvetica" font-size="10.00">Loop: L1</text>
<text text-anchor="middle" x="1572" y="-493" font-family="Helvetica" font-size="10.00">&#45;&#45;&#45;</text>
<text text-anchor="middle" x="1572" y="-482" font-family="Helvetica" font-size="10.00">HotSpotMethod&lt;LoopBenchmarks.fibonacciLoop(int)&gt;</text>
</g>
<!-- b4&#45;&gt;b5 -->
<g id="edge7" class="edge">
<title>b4&#45;&gt;b5</title>
<path fill="none" stroke="black" d="M1337.13,-501C1368.71,-501 1402.57,-501 1434.44,-501"/>
<polygon fill="black" stroke="black" points="1434.71,-504.5 1444.71,-501 1434.71,-497.5 1434.71,-504.5"/>
</g>
<!-- b6 -->
<g id="node7" class="node">
<title>b6</title>
<polygon fill="lightgreen" stroke="black" points="2065,-527 1811,-527 1811,-475 2065,-475 2065,-527"/>
<text text-anchor="middle" x="1938" y="-515" font-family="Helvetica" font-size="10.00">B6</text>
<text text-anchor="middle" x="1938" y="-504" font-family="Helvetica" font-size="10.00">Loop: L1</text>
<text text-anchor="middle" x="1938" y="-493" font-family="Helvetica" font-size="10.00">&#45;&#45;&#45;</text>
<text text-anchor="middle" x="1938" y="-482" font-family="Helvetica" font-size="10.00">HotSpotMethod&lt;LoopBenchmarks.fibonacciLoop(int)&gt;</text>
</g>
<!-- b5&#45;&gt;b6 -->
<g id="edge8" class="edge">
<title>b5&#45;&gt;b6</title>
<path fill="none" stroke="black" d="M1699.03,-475.17C1731.8,-473.76 1767.24,-473.62 1800.52,-474.76"/>
<polygon fill="black" stroke="black" points="1800.64,-478.27 1810.77,-475.16 1800.91,-471.28 1800.64,-478.27"/>
</g>
<!-- b7 -->
<g id="node8" class="node">
<title>b7</title>
<polygon fill="white" stroke="black" stroke-width="4" points="2065,-399 1811,-399 1811,-303 2065,-303 2065,-399"/>
<polygon fill="none" stroke="black" stroke-width="4" points="2069,-403 1807,-403 1807,-299 2069,-299 2069,-403"/>
<text text-anchor="middle" x="1938" y="-387" font-family="Helvetica" font-size="10.00">B7</text>
<text text-anchor="middle" x="1938" y="-376" font-family="Helvetica" font-size="10.00">Loop: &lt;none&gt;</text>
<text text-anchor="middle" x="1938" y="-365" font-family="Helvetica" font-size="10.00">&#45;&#45;&#45;</text>
<text text-anchor="middle" x="1938" y="-354" font-family="Helvetica" font-size="10.00">HotSpotMethod&lt;LoopBenchmarks.fibonacciLoop(int)&gt;</text>
<text text-anchor="middle" x="1938" y="-343" font-family="Helvetica" font-size="10.00">&#45;&#45;&#45;</text>
<text text-anchor="middle" x="1938" y="-332" font-family="Helvetica" font-size="10.00">BuboLoopMakers:</text>
<text text-anchor="middle" x="1938" y="-321" font-family="Helvetica" font-size="10.00"> &#160;AMD64BuboWriteDeltaRDTSC</text>
<text text-anchor="middle" x="1938" y="-310" font-family="Helvetica" font-size="10.00"> &#160;AMD64BuboRDTSCToSlot (LoopID=4)</text>
</g>
<!-- b5&#45;&gt;b7 -->
<g id="edge9" class="edge">
<title>b5&#45;&gt;b7</title>
<path fill="none" stroke="black" d="M1636.4,-474.87C1681.84,-456.15 1744.75,-430.22 1801.28,-406.93"/>
<polygon fill="black" stroke="black" points="1802.74,-410.11 1810.66,-403.06 1800.08,-403.64 1802.74,-410.11"/>
</g>
<!-- b6&#45;&gt;b5 -->
<g id="edge10" class="edge">
<title>b6&#45;&gt;b5</title>
<path fill="none" stroke="black" d="M1810.77,-526.84C1777.99,-528.24 1742.55,-528.37 1709.28,-527.23"/>
<polygon fill="black" stroke="black" points="1709.16,-523.72 1699.03,-526.83 1708.89,-530.72 1709.16,-523.72"/>
</g>
<!-- b8 -->
<g id="node9" class="node">
<title>b8</title>
<polygon fill="lightpink" stroke="black" points="2431,-377 2177,-377 2177,-325 2431,-325 2431,-377"/>
<text text-anchor="middle" x="2304" y="-365" font-family="Helvetica" font-size="10.00">B8</text>
<text text-anchor="middle" x="2304" y="-354" font-family="Helvetica" font-size="10.00">Loop: L2</text>
<text text-anchor="middle" x="2304" y="-343" font-family="Helvetica" font-size="10.00">&#45;&#45;&#45;</text>
<text text-anchor="middle" x="2304" y="-332" font-family="Helvetica" font-size="10.00">HotSpotMethod&lt;LoopBenchmarks.fibonacciLoop(int)&gt;</text>
</g>
<!-- b7&#45;&gt;b8 -->
<g id="edge11" class="edge">
<title>b7&#45;&gt;b8</title>
<path fill="none" stroke="black" d="M2069.13,-351C2100.71,-351 2134.57,-351 2166.44,-351"/>
<polygon fill="black" stroke="black" points="2166.71,-354.5 2176.71,-351 2166.71,-347.5 2166.71,-354.5"/>
</g>
<!-- b9 -->
<g id="node10" class="node">
<title>b9</title>
<polygon fill="lightpink" stroke="black" points="2797,-377 2543,-377 2543,-325 2797,-325 2797,-377"/>
<text text-anchor="middle" x="2670" y="-365" font-family="Helvetica" font-size="10.00">B9</text>
<text text-anchor="middle" x="2670" y="-354" font-family="Helvetica" font-size="10.00">Loop: L2</text>
<text text-anchor="middle" x="2670" y="-343" font-family="Helvetica" font-size="10.00">&#45;&#45;&#45;</text>
<text text-anchor="middle" x="2670" y="-332" font-family="Helvetica" font-size="10.00">HotSpotMethod&lt;LoopBenchmarks.fibonacciLoop(int)&gt;</text>
</g>
<!-- b8&#45;&gt;b9 -->
<g id="edge12" class="edge">
<title>b8&#45;&gt;b9</title>
<path fill="none" stroke="black" d="M2431.03,-325.17C2463.8,-323.76 2499.24,-323.62 2532.52,-324.76"/>
<polygon fill="black" stroke="black" points="2532.64,-328.27 2542.77,-325.16 2532.91,-321.28 2532.64,-328.27"/>
</g>
<!-- b10 -->
<g id="node11" class="node">
<title>b10</title>
<polygon fill="white" stroke="black" stroke-width="4" points="2797,-248.5 2543,-248.5 2543,-141.5 2797,-141.5 2797,-248.5"/>
<polygon fill="none" stroke="black" stroke-width="4" points="2801,-252.5 2539,-252.5 2539,-137.5 2801,-137.5 2801,-252.5"/>
<text text-anchor="middle" x="2670" y="-236.5" font-family="Helvetica" font-size="10.00">B10</text>
<text text-anchor="middle" x="2670" y="-225.5" font-family="Helvetica" font-size="10.00">Loop: &lt;none&gt;</text>
<text text-anchor="middle" x="2670" y="-214.5" font-family="Helvetica" font-size="10.00">&#45;&#45;&#45;</text>
<text text-anchor="middle" x="2670" y="-203.5" font-family="Helvetica" font-size="10.00">HotSpotMethod&lt;LoopBenchmarks.fibonacciLoop(int)&gt;</text>
<text text-anchor="middle" x="2670" y="-192.5" font-family="Helvetica" font-size="10.00">HotSpotMethod&lt;LoopBenchmarks.main(String[])&gt;</text>
<text text-anchor="middle" x="2670" y="-181.5" font-family="Helvetica" font-size="10.00">&#45;&#45;&#45;</text>
<text text-anchor="middle" x="2670" y="-170.5" font-family="Helvetica" font-size="10.00">BuboLoopMakers:</text>
<text text-anchor="middle" x="2670" y="-159.5" font-family="Helvetica" font-size="10.00"> &#160;AMD64BuboWriteDeltaRDTSC</text>
<text text-anchor="middle" x="2670" y="-148.5" font-family="Helvetica" font-size="10.00"> &#160;AMD64BuboRDTSCToSlot (LoopID=0)</text>
</g>
<!-- b8&#45;&gt;b10 -->
<g id="edge13" class="edge">
<title>b8&#45;&gt;b10</title>
<path fill="none" stroke="black" d="M2365.93,-324.89C2410.5,-305.79 2472.8,-279.08 2529.34,-254.85"/>
<polygon fill="black" stroke="black" points="2530.91,-257.99 2538.72,-250.83 2528.15,-251.56 2530.91,-257.99"/>
</g>
<!-- b9&#45;&gt;b8 -->
<g id="edge14" class="edge">
<title>b9&#45;&gt;b8</title>
<path fill="none" stroke="black" d="M2542.77,-376.84C2509.99,-378.24 2474.55,-378.37 2441.28,-377.23"/>
<polygon fill="black" stroke="black" points="2441.16,-373.72 2431.03,-376.83 2440.89,-380.72 2441.16,-373.72"/>
</g>
<!-- b11 -->
<g id="node12" class="node">
<title>b11</title>
<polygon fill="gold" stroke="black" points="3144,-221 2909,-221 2909,-169 3144,-169 3144,-221"/>
<text text-anchor="middle" x="3026.5" y="-209" font-family="Helvetica" font-size="10.00">B11</text>
<text text-anchor="middle" x="3026.5" y="-198" font-family="Helvetica" font-size="10.00">Loop: L3</text>
<text text-anchor="middle" x="3026.5" y="-187" font-family="Helvetica" font-size="10.00">&#45;&#45;&#45;</text>
<text text-anchor="middle" x="3026.5" y="-176" font-family="Helvetica" font-size="10.00">HotSpotMethod&lt;LoopBenchmarks.main(String[])&gt;</text>
</g>
<!-- b10&#45;&gt;b11 -->
<g id="edge15" class="edge">
<title>b10&#45;&gt;b11</title>
<path fill="none" stroke="black" d="M2801.24,-195C2833.05,-195 2867.05,-195 2898.7,-195"/>
<polygon fill="black" stroke="black" points="2898.88,-198.5 2908.88,-195 2898.88,-191.5 2898.88,-198.5"/>
</g>
<!-- b12 -->
<g id="node13" class="node">
<title>b12</title>
<polygon fill="gold" stroke="black" stroke-width="4" points="3510,-399 3256,-399 3256,-303 3510,-303 3510,-399"/>
<polygon fill="none" stroke="black" stroke-width="4" points="3514,-403 3252,-403 3252,-299 3514,-299 3514,-403"/>
<text text-anchor="middle" x="3383" y="-387" font-family="Helvetica" font-size="10.00">B12</text>
<text text-anchor="middle" x="3383" y="-376" font-family="Helvetica" font-size="10.00">Loop: L3</text>
<text text-anchor="middle" x="3383" y="-365" font-family="Helvetica" font-size="10.00">&#45;&#45;&#45;</text>
<text text-anchor="middle" x="3383" y="-354" font-family="Helvetica" font-size="10.00">HotSpotMethod&lt;LoopBenchmarks.main(String[])&gt;</text>
<text text-anchor="middle" x="3383" y="-343" font-family="Helvetica" font-size="10.00">HotSpotMethod&lt;LoopBenchmarks.fibonacciLoop(int)&gt;</text>
<text text-anchor="middle" x="3383" y="-332" font-family="Helvetica" font-size="10.00">&#45;&#45;&#45;</text>
<text text-anchor="middle" x="3383" y="-321" font-family="Helvetica" font-size="10.00">BuboLoopMakers:</text>
<text text-anchor="middle" x="3383" y="-310" font-family="Helvetica" font-size="10.00"> &#160;AMD64BuboRDTSCToSlot (LoopID=2)</text>
</g>
<!-- b11&#45;&gt;b12 -->
<g id="edge16" class="edge">
<title>b11&#45;&gt;b12</title>
<path fill="none" stroke="black" d="M3086.84,-221.11C3132.39,-241.16 3196.97,-269.58 3254.11,-294.72"/>
<polygon fill="black" stroke="black" points="3253.02,-298.06 3263.58,-298.89 3255.84,-291.66 3253.02,-298.06"/>
</g>
<!-- b22 -->
<g id="node23" class="node">
<title>b22</title>
<polygon fill="white" stroke="black" points="3500.5,-221 3265.5,-221 3265.5,-169 3500.5,-169 3500.5,-221"/>
<text text-anchor="middle" x="3383" y="-209" font-family="Helvetica" font-size="10.00">B22</text>
<text text-anchor="middle" x="3383" y="-198" font-family="Helvetica" font-size="10.00">Loop: &lt;none&gt;</text>
<text text-anchor="middle" x="3383" y="-187" font-family="Helvetica" font-size="10.00">&#45;&#45;&#45;</text>
<text text-anchor="middle" x="3383" y="-176" font-family="Helvetica" font-size="10.00">HotSpotMethod&lt;LoopBenchmarks.main(String[])&gt;</text>
</g>
<!-- b11&#45;&gt;b22 -->
<g id="edge17" class="edge">
<title>b11&#45;&gt;b22</title>
<path fill="none" stroke="black" d="M3144.07,-195C3179.67,-195 3218.98,-195 3255.23,-195"/>
<polygon fill="black" stroke="black" points="3255.36,-198.5 3265.36,-195 3255.36,-191.5 3255.36,-198.5"/>
</g>
<!-- b13 -->
<g id="node14" class="node">
<title>b13</title>
<polygon fill="orange" stroke="black" points="3876,-380 3622,-380 3622,-328 3876,-328 3876,-380"/>
<text text-anchor="middle" x="3749" y="-368" font-family="Helvetica" font-size="10.00">B13</text>
<text text-anchor="middle" x="3749" y="-357" font-family="Helvetica" font-size="10.00">Loop: L4</text>
<text text-anchor="middle" x="3749" y="-346" font-family="Helvetica" font-size="10.00">&#45;&#45;&#45;</text>
<text text-anchor="middle" x="3749" y="-335" font-family="Helvetica" font-size="10.00">HotSpotMethod&lt;LoopBenchmarks.fibonacciLoop(int)&gt;</text>
</g>
<!-- b12&#45;&gt;b13 -->
<g id="edge18" class="edge">
<title>b12&#45;&gt;b13</title>
<path fill="none" stroke="black" d="M3514.13,-352.07C3545.71,-352.33 3579.57,-352.61 3611.44,-352.87"/>
<polygon fill="black" stroke="black" points="3611.68,-356.38 3621.71,-352.96 3611.74,-349.38 3611.68,-356.38"/>
</g>
<!-- b14 -->
<g id="node15" class="node">
<title>b14</title>
<polygon fill="orange" stroke="black" points="4242,-457 3988,-457 3988,-405 4242,-405 4242,-457"/>
<text text-anchor="middle" x="4115" y="-445" font-family="Helvetica" font-size="10.00">B14</text>
<text text-anchor="middle" x="4115" y="-434" font-family="Helvetica" font-size="10.00">Loop: L4</text>
<text text-anchor="middle" x="4115" y="-423" font-family="Helvetica" font-size="10.00">&#45;&#45;&#45;</text>
<text text-anchor="middle" x="4115" y="-412" font-family="Helvetica" font-size="10.00">HotSpotMethod&lt;LoopBenchmarks.fibonacciLoop(int)&gt;</text>
</g>
<!-- b13&#45;&gt;b14 -->
<g id="edge19" class="edge">
<title>b13&#45;&gt;b14</title>
<path fill="none" stroke="black" d="M3876.03,-354.83C3940.99,-365.78 4016.48,-383.96 4064.72,-401.39"/>
<polygon fill="black" stroke="black" points="4063.69,-404.75 4074.29,-404.98 4066.15,-398.19 4063.69,-404.75"/>
</g>
<!-- b15 -->
<g id="node16" class="node">
<title>b15</title>
<polygon fill="gold" stroke="black" stroke-width="4" points="4242,-329 3988,-329 3988,-233 4242,-233 4242,-329"/>
<polygon fill="none" stroke="black" stroke-width="4" points="4246,-333 3984,-333 3984,-229 4246,-229 4246,-333"/>
<text text-anchor="middle" x="4115" y="-317" font-family="Helvetica" font-size="10.00">B15</text>
<text text-anchor="middle" x="4115" y="-306" font-family="Helvetica" font-size="10.00">Loop: L3</text>
<text text-anchor="middle" x="4115" y="-295" font-family="Helvetica" font-size="10.00">&#45;&#45;&#45;</text>
<text text-anchor="middle" x="4115" y="-284" font-family="Helvetica" font-size="10.00">HotSpotMethod&lt;LoopBenchmarks.fibonacciLoop(int)&gt;</text>
<text text-anchor="middle" x="4115" y="-273" font-family="Helvetica" font-size="10.00">&#45;&#45;&#45;</text>
<text text-anchor="middle" x="4115" y="-262" font-family="Helvetica" font-size="10.00">BuboLoopMakers:</text>
<text text-anchor="middle" x="4115" y="-251" font-family="Helvetica" font-size="10.00"> &#160;AMD64BuboWriteDeltaRDTSC</text>
<text text-anchor="middle" x="4115" y="-240" font-family="Helvetica" font-size="10.00"> &#160;AMD64BuboRDTSCToSlot (LoopID=5)</text>
</g>
<!-- b13&#45;&gt;b15 -->
<g id="edge20" class="edge">
<title>b13&#45;&gt;b15</title>
<path fill="none" stroke="black" d="M3876.03,-328.72C3907.59,-322.4 3941.63,-315.57 3973.82,-309.11"/>
<polygon fill="black" stroke="black" points="3974.63,-312.52 3983.75,-307.12 3973.25,-305.66 3974.63,-312.52"/>
</g>
<!-- b14&#45;&gt;b13 -->
<g id="edge21" class="edge">
<title>b14&#45;&gt;b13</title>
<path fill="none" stroke="black" d="M3987.86,-430.15C3923.06,-419.23 3847.79,-401.1 3799.56,-383.71"/>
<polygon fill="black" stroke="black" points="3800.59,-380.36 3790,-380.13 3798.13,-386.91 3800.59,-380.36"/>
</g>
<!-- b16 -->
<g id="node17" class="node">
<title>b16</title>
<polygon fill="violet" stroke="black" points="4608,-307 4354,-307 4354,-255 4608,-255 4608,-307"/>
<text text-anchor="middle" x="4481" y="-295" font-family="Helvetica" font-size="10.00">B16</text>
<text text-anchor="middle" x="4481" y="-284" font-family="Helvetica" font-size="10.00">Loop: L5</text>
<text text-anchor="middle" x="4481" y="-273" font-family="Helvetica" font-size="10.00">&#45;&#45;&#45;</text>
<text text-anchor="middle" x="4481" y="-262" font-family="Helvetica" font-size="10.00">HotSpotMethod&lt;LoopBenchmarks.fibonacciLoop(int)&gt;</text>
</g>
<!-- b15&#45;&gt;b16 -->
<g id="edge22" class="edge">
<title>b15&#45;&gt;b16</title>
<path fill="none" stroke="black" d="M4246.13,-281C4277.71,-281 4311.57,-281 4343.44,-281"/>
<polygon fill="black" stroke="black" points="4343.71,-284.5 4353.71,-281 4343.71,-277.5 4343.71,-284.5"/>
</g>
<!-- b17 -->
<g id="node18" class="node">
<title>b17</title>
<polygon fill="violet" stroke="black" points="4974,-384 4720,-384 4720,-332 4974,-332 4974,-384"/>
<text text-anchor="middle" x="4847" y="-372" font-family="Helvetica" font-size="10.00">B17</text>
<text text-anchor="middle" x="4847" y="-361" font-family="Helvetica" font-size="10.00">Loop: L5</text>
<text text-anchor="middle" x="4847" y="-350" font-family="Helvetica" font-size="10.00">&#45;&#45;&#45;</text>
<text text-anchor="middle" x="4847" y="-339" font-family="Helvetica" font-size="10.00">HotSpotMethod&lt;LoopBenchmarks.fibonacciLoop(int)&gt;</text>
</g>
<!-- b16&#45;&gt;b17 -->
<g id="edge23" class="edge">
<title>b16&#45;&gt;b17</title>
<path fill="none" stroke="black" d="M4608.03,-281.83C4672.99,-292.78 4748.48,-310.96 4796.72,-328.39"/>
<polygon fill="black" stroke="black" points="4795.69,-331.75 4806.29,-331.98 4798.15,-325.19 4795.69,-331.75"/>
</g>
<!-- b18 -->
<g id="node19" class="node">
<title>b18</title>
<polygon fill="gold" stroke="black" stroke-width="4" points="4974,-256 4720,-256 4720,-160 4974,-160 4974,-256"/>
<polygon fill="none" stroke="black" stroke-width="4" points="4978,-260 4716,-260 4716,-156 4978,-156 4978,-260"/>
<text text-anchor="middle" x="4847" y="-244" font-family="Helvetica" font-size="10.00">B18</text>
<text text-anchor="middle" x="4847" y="-233" font-family="Helvetica" font-size="10.00">Loop: L3</text>
<text text-anchor="middle" x="4847" y="-222" font-family="Helvetica" font-size="10.00">&#45;&#45;&#45;</text>
<text text-anchor="middle" x="4847" y="-211" font-family="Helvetica" font-size="10.00">HotSpotMethod&lt;LoopBenchmarks.fibonacciLoop(int)&gt;</text>
<text text-anchor="middle" x="4847" y="-200" font-family="Helvetica" font-size="10.00">&#45;&#45;&#45;</text>
<text text-anchor="middle" x="4847" y="-189" font-family="Helvetica" font-size="10.00">BuboLoopMakers:</text>
<text text-anchor="middle" x="4847" y="-178" font-family="Helvetica" font-size="10.00"> &#160;AMD64BuboWriteDeltaRDTSC</text>
<text text-anchor="middle" x="4847" y="-167" font-family="Helvetica" font-size="10.00"> &#160;AMD64BuboRDTSCToSlot (LoopID=6)</text>
</g>
<!-- b16&#45;&gt;b18 -->
<g id="edge24" class="edge">
<title>b16&#45;&gt;b18</title>
<path fill="none" stroke="black" d="M4608.03,-255.72C4639.59,-249.4 4673.63,-242.57 4705.82,-236.11"/>
<polygon fill="black" stroke="black" points="4706.63,-239.52 4715.75,-234.12 4705.25,-232.66 4706.63,-239.52"/>
</g>
<!-- b17&#45;&gt;b16 -->
<g id="edge25" class="edge">
<title>b17&#45;&gt;b16</title>
<path fill="none" stroke="black" d="M4719.86,-357.15C4655.06,-346.23 4579.79,-328.1 4531.56,-310.71"/>
<polygon fill="black" stroke="black" points="4532.59,-307.36 4522,-307.13 4530.13,-313.91 4532.59,-307.36"/>
</g>
<!-- b19 -->
<g id="node20" class="node">
<title>b19</title>
<polygon fill="khaki" stroke="black" points="5340,-231 5086,-231 5086,-179 5340,-179 5340,-231"/>
<text text-anchor="middle" x="5213" y="-219" font-family="Helvetica" font-size="10.00">B19</text>
<text text-anchor="middle" x="5213" y="-208" font-family="Helvetica" font-size="10.00">Loop: L6</text>
<text text-anchor="middle" x="5213" y="-197" font-family="Helvetica" font-size="10.00">&#45;&#45;&#45;</text>
<text text-anchor="middle" x="5213" y="-186" font-family="Helvetica" font-size="10.00">HotSpotMethod&lt;LoopBenchmarks.fibonacciLoop(int)&gt;</text>
</g>
<!-- b18&#45;&gt;b19 -->
<g id="edge26" class="edge">
<title>b18&#45;&gt;b19</title>
<path fill="none" stroke="black" d="M4978.13,-206.93C5009.71,-206.67 5043.57,-206.39 5075.44,-206.13"/>
<polygon fill="black" stroke="black" points="5075.74,-209.62 5085.71,-206.04 5075.68,-202.62 5075.74,-209.62"/>
</g>
<!-- b20 -->
<g id="node21" class="node">
<title>b20</title>
<polygon fill="khaki" stroke="black" points="5706,-231 5452,-231 5452,-179 5706,-179 5706,-231"/>
<text text-anchor="middle" x="5579" y="-219" font-family="Helvetica" font-size="10.00">B20</text>
<text text-anchor="middle" x="5579" y="-208" font-family="Helvetica" font-size="10.00">Loop: L6</text>
<text text-anchor="middle" x="5579" y="-197" font-family="Helvetica" font-size="10.00">&#45;&#45;&#45;</text>
<text text-anchor="middle" x="5579" y="-186" font-family="Helvetica" font-size="10.00">HotSpotMethod&lt;LoopBenchmarks.fibonacciLoop(int)&gt;</text>
</g>
<!-- b19&#45;&gt;b20 -->
<g id="edge27" class="edge">
<title>b19&#45;&gt;b20</title>
<path fill="none" stroke="black" d="M5340.03,-179.17C5372.8,-177.76 5408.24,-177.62 5441.52,-178.76"/>
<polygon fill="black" stroke="black" points="5441.64,-182.27 5451.77,-179.16 5441.91,-175.28 5441.64,-182.27"/>
</g>
<!-- b21 -->
<g id="node22" class="node">
<title>b21</title>
<polygon fill="gold" stroke="black" stroke-width="4" points="5706,-100 5452,-100 5452,-4 5706,-4 5706,-100"/>
<polygon fill="none" stroke="black" stroke-width="4" points="5710,-104 5448,-104 5448,0 5710,0 5710,-104"/>
<text text-anchor="middle" x="5579" y="-88" font-family="Helvetica" font-size="10.00">B21</text>
<text text-anchor="middle" x="5579" y="-77" font-family="Helvetica" font-size="10.00">Loop: L3</text>
<text text-anchor="middle" x="5579" y="-66" font-family="Helvetica" font-size="10.00">&#45;&#45;&#45;</text>
<text text-anchor="middle" x="5579" y="-55" font-family="Helvetica" font-size="10.00">HotSpotMethod&lt;LoopBenchmarks.fibonacciLoop(int)&gt;</text>
<text text-anchor="middle" x="5579" y="-44" font-family="Helvetica" font-size="10.00">HotSpotMethod&lt;LoopBenchmarks.main(String[])&gt;</text>
<text text-anchor="middle" x="5579" y="-33" font-family="Helvetica" font-size="10.00">&#45;&#45;&#45;</text>
<text text-anchor="middle" x="5579" y="-22" font-family="Helvetica" font-size="10.00">BuboLoopMakers:</text>
<text text-anchor="middle" x="5579" y="-11" font-family="Helvetica" font-size="10.00"> &#160;AMD64BuboWriteDeltaRDTSC (LoopID=6)</text>
</g>
<!-- b19&#45;&gt;b21 -->
<g id="edge28" class="edge">
<title>b19&#45;&gt;b21</title>
<path fill="none" stroke="black" d="M5276.16,-178.87C5322.32,-159.47 5387,-132.28 5444.65,-108.05"/>
<polygon fill="black" stroke="black" points="5446.35,-111.13 5454.21,-104.03 5443.64,-104.68 5446.35,-111.13"/>
</g>
<!-- b20&#45;&gt;b19 -->
<g id="edge29" class="edge">
<title>b20&#45;&gt;b19</title>
<path fill="none" stroke="black" d="M5451.77,-230.84C5418.99,-232.24 5383.55,-232.37 5350.28,-231.23"/>
<polygon fill="black" stroke="black" points="5350.16,-227.72 5340.03,-230.83 5349.89,-234.72 5350.16,-227.72"/>
</g>
<!-- b21&#45;&gt;b11 -->
<g id="edge30" class="edge">
<title>b21&#45;&gt;b11</title>
<path fill="none" stroke="black" d="M5447.78,-50.57C5301.77,-49.09 5057.91,-47 4848,-47 3748,-47 3748,-47 3748,-47 3514.26,-47 3246.42,-122.66 3112.74,-165.79"/>
<polygon fill="black" stroke="black" points="3111.39,-162.55 3102.96,-168.97 3113.56,-169.21 3111.39,-162.55"/>
</g>
</g>
</svg>
