<?xml version="1.0" encoding="UTF-8" standalone="no"?>
<!DOCTYPE svg PUBLIC "-//W3C//DTD SVG 1.1//EN"
 "http://www.w3.org/Graphics/SVG/1.1/DTD/svg11.dtd">
<!-- Generated by graphviz version 2.44.0 (0)
 -->
<!-- Title: CFG_118 Pages: 1 -->
<svg width="9078pt" height="1142pt"
 viewBox="0.00 0.00 9078.00 1141.50" xmlns="http://www.w3.org/2000/svg" xmlns:xlink="http://www.w3.org/1999/xlink">
<g id="graph0" class="graph" transform="scale(1 1) rotate(0) translate(4 1137.5)">
<title>CFG_118</title>
<polygon fill="white" stroke="transparent" points="-4,4 -4,-1137.5 9074,-1137.5 9074,4 -4,4"/>
<text text-anchor="middle" x="449" y="-1113.5" font-family="Times-Roman" font-size="20.00">179&#45;java.util.regex.Pattern$BmpCharPropertyGreedy.match(Matcher, int, CharSequence)</text>
<!-- b0 -->
<g id="node1" class="node">
<title>b0</title>
<polygon fill="white" stroke="black" points="401,-1030.5 0,-1030.5 0,-978.5 401,-978.5 401,-1030.5"/>
<text text-anchor="middle" x="200.5" y="-1018.5" font-family="Helvetica" font-size="10.00">B0</text>
<text text-anchor="middle" x="200.5" y="-1007.5" font-family="Helvetica" font-size="10.00">Loop: &lt;none&gt;</text>
<text text-anchor="middle" x="200.5" y="-996.5" font-family="Helvetica" font-size="10.00">&#45;&#45;&#45;</text>
<text text-anchor="middle" x="200.5" y="-985.5" font-family="Helvetica" font-size="10.00">HotSpotMethod&lt;Pattern$BmpCharPropertyGreedy.match(Matcher, int, CharSequence)&gt;</text>
</g>
<!-- b1 -->
<g id="node2" class="node">
<title>b1</title>
<polygon fill="white" stroke="black" points="910,-968.5 509,-968.5 509,-916.5 910,-916.5 910,-968.5"/>
<text text-anchor="middle" x="709.5" y="-956.5" font-family="Helvetica" font-size="10.00">B1</text>
<text text-anchor="middle" x="709.5" y="-945.5" font-family="Helvetica" font-size="10.00">Loop: &lt;none&gt;</text>
<text text-anchor="middle" x="709.5" y="-934.5" font-family="Helvetica" font-size="10.00">&#45;&#45;&#45;</text>
<text text-anchor="middle" x="709.5" y="-923.5" font-family="Helvetica" font-size="10.00">HotSpotMethod&lt;Pattern$BmpCharPropertyGreedy.match(Matcher, int, CharSequence)&gt;</text>
</g>
<!-- b0&#45;&gt;b1 -->
<g id="edge1" class="edge">
<title>b0&#45;&gt;b1</title>
<path fill="none" stroke="black" d="M401.15,-980.08C433.17,-976.17 466.39,-972.11 498.64,-968.16"/>
<polygon fill="black" stroke="black" points="499.11,-971.63 508.61,-966.94 498.26,-964.68 499.11,-971.63"/>
</g>
<!-- b32 -->
<g id="node33" class="node">
<title>b32</title>
<polygon fill="white" stroke="black" points="910,-1103.5 509,-1103.5 509,-1051.5 910,-1051.5 910,-1103.5"/>
<text text-anchor="middle" x="709.5" y="-1091.5" font-family="Helvetica" font-size="10.00">B32</text>
<text text-anchor="middle" x="709.5" y="-1080.5" font-family="Helvetica" font-size="10.00">Loop: &lt;none&gt;</text>
<text text-anchor="middle" x="709.5" y="-1069.5" font-family="Helvetica" font-size="10.00">&#45;&#45;&#45;</text>
<text text-anchor="middle" x="709.5" y="-1058.5" font-family="Helvetica" font-size="10.00">HotSpotMethod&lt;Pattern$BmpCharPropertyGreedy.match(Matcher, int, CharSequence)&gt;</text>
</g>
<!-- b0&#45;&gt;b32 -->
<g id="edge2" class="edge">
<title>b0&#45;&gt;b32</title>
<path fill="none" stroke="black" d="M382.39,-1030.55C426.28,-1036.86 473.34,-1043.64 517.67,-1050.02"/>
<polygon fill="black" stroke="black" points="517.28,-1053.5 527.68,-1051.46 518.28,-1046.58 517.28,-1053.5"/>
</g>
<!-- b2 -->
<g id="node3" class="node">
<title>b2</title>
<polygon fill="white" stroke="black" points="1419,-839 1018,-839 1018,-754 1419,-754 1419,-839"/>
<text text-anchor="middle" x="1218.5" y="-827" font-family="Helvetica" font-size="10.00">B2</text>
<text text-anchor="middle" x="1218.5" y="-816" font-family="Helvetica" font-size="10.00">Loop: &lt;none&gt;</text>
<text text-anchor="middle" x="1218.5" y="-805" font-family="Helvetica" font-size="10.00">&#45;&#45;&#45;</text>
<text text-anchor="middle" x="1218.5" y="-794" font-family="Helvetica" font-size="10.00">HotSpotMethod&lt;Pattern$BmpCharPropertyGreedy.match(Matcher, int, CharSequence)&gt;</text>
<text text-anchor="middle" x="1218.5" y="-783" font-family="Helvetica" font-size="10.00">HotSpotMethod&lt;String.charAt(int)&gt;</text>
<text text-anchor="middle" x="1218.5" y="-772" font-family="Helvetica" font-size="10.00">HotSpotMethod&lt;StringLatin1.charAt(byte[], int)&gt;</text>
<text text-anchor="middle" x="1218.5" y="-761" font-family="Helvetica" font-size="10.00">HotSpotMethod&lt;Preconditions.checkIndex(int, int, BiFunction)&gt;</text>
</g>
<!-- b1&#45;&gt;b2 -->
<g id="edge3" class="edge">
<title>b1&#45;&gt;b2</title>
<path fill="none" stroke="black" d="M800.85,-916.48C872.67,-895.8 974.87,-866.37 1060.07,-841.83"/>
<polygon fill="black" stroke="black" points="1061.21,-845.15 1069.85,-839.02 1059.27,-838.42 1061.21,-845.15"/>
</g>
<!-- b31 -->
<g id="node32" class="node">
<title>b31</title>
<polygon fill="white" stroke="black" points="1419,-968.5 1018,-968.5 1018,-916.5 1419,-916.5 1419,-968.5"/>
<text text-anchor="middle" x="1218.5" y="-956.5" font-family="Helvetica" font-size="10.00">B31</text>
<text text-anchor="middle" x="1218.5" y="-945.5" font-family="Helvetica" font-size="10.00">Loop: &lt;none&gt;</text>
<text text-anchor="middle" x="1218.5" y="-934.5" font-family="Helvetica" font-size="10.00">&#45;&#45;&#45;</text>
<text text-anchor="middle" x="1218.5" y="-923.5" font-family="Helvetica" font-size="10.00">HotSpotMethod&lt;Pattern$BmpCharPropertyGreedy.match(Matcher, int, CharSequence)&gt;</text>
</g>
<!-- b1&#45;&gt;b31 -->
<g id="edge4" class="edge">
<title>b1&#45;&gt;b31</title>
<path fill="none" stroke="black" d="M910.15,-942.5C942.03,-942.5 975.1,-942.5 1007.22,-942.5"/>
<polygon fill="black" stroke="black" points="1007.61,-946 1017.61,-942.5 1007.61,-939 1007.61,-946"/>
</g>
<!-- b3 -->
<g id="node4" class="node">
<title>b3</title>
<polygon fill="white" stroke="black" points="1928,-682 1527,-682 1527,-619 1928,-619 1928,-682"/>
<text text-anchor="middle" x="1727.5" y="-670" font-family="Helvetica" font-size="10.00">B3</text>
<text text-anchor="middle" x="1727.5" y="-659" font-family="Helvetica" font-size="10.00">Loop: &lt;none&gt;</text>
<text text-anchor="middle" x="1727.5" y="-648" font-family="Helvetica" font-size="10.00">&#45;&#45;&#45;</text>
<text text-anchor="middle" x="1727.5" y="-637" font-family="Helvetica" font-size="10.00">HotSpotMethod&lt;Preconditions.checkIndex(int, int, BiFunction)&gt;</text>
<text text-anchor="middle" x="1727.5" y="-626" font-family="Helvetica" font-size="10.00">HotSpotMethod&lt;Pattern$BmpCharPropertyGreedy.match(Matcher, int, CharSequence)&gt;</text>
</g>
<!-- b2&#45;&gt;b3 -->
<g id="edge5" class="edge">
<title>b2&#45;&gt;b3</title>
<path fill="none" stroke="black" d="M1367.17,-753.98C1443.39,-732.03 1535.17,-705.6 1606.89,-684.94"/>
<polygon fill="black" stroke="black" points="1608.23,-688.2 1616.87,-682.07 1606.29,-681.47 1608.23,-688.2"/>
</g>
<!-- b30 -->
<g id="node31" class="node">
<title>b30</title>
<polygon fill="white" stroke="black" points="1928,-822.5 1527,-822.5 1527,-770.5 1928,-770.5 1928,-822.5"/>
<text text-anchor="middle" x="1727.5" y="-810.5" font-family="Helvetica" font-size="10.00">B30</text>
<text text-anchor="middle" x="1727.5" y="-799.5" font-family="Helvetica" font-size="10.00">Loop: &lt;none&gt;</text>
<text text-anchor="middle" x="1727.5" y="-788.5" font-family="Helvetica" font-size="10.00">&#45;&#45;&#45;</text>
<text text-anchor="middle" x="1727.5" y="-777.5" font-family="Helvetica" font-size="10.00">HotSpotMethod&lt;Pattern$BmpCharPropertyGreedy.match(Matcher, int, CharSequence)&gt;</text>
</g>
<!-- b2&#45;&gt;b30 -->
<g id="edge6" class="edge">
<title>b2&#45;&gt;b30</title>
<path fill="none" stroke="black" d="M1419.15,-796.5C1451.03,-796.5 1484.1,-796.5 1516.22,-796.5"/>
<polygon fill="black" stroke="black" points="1516.61,-800 1526.61,-796.5 1516.61,-793 1516.61,-800"/>
</g>
<!-- b4 -->
<g id="node5" class="node">
<title>b4</title>
<polygon fill="white" stroke="black" points="2437,-547 2036,-547 2036,-484 2437,-484 2437,-547"/>
<text text-anchor="middle" x="2236.5" y="-535" font-family="Helvetica" font-size="10.00">B4</text>
<text text-anchor="middle" x="2236.5" y="-524" font-family="Helvetica" font-size="10.00">Loop: &lt;none&gt;</text>
<text text-anchor="middle" x="2236.5" y="-513" font-family="Helvetica" font-size="10.00">&#45;&#45;&#45;</text>
<text text-anchor="middle" x="2236.5" y="-502" font-family="Helvetica" font-size="10.00">HotSpotMethod&lt;Pattern$BmpCharPropertyGreedy.match(Matcher, int, CharSequence)&gt;</text>
<text text-anchor="middle" x="2236.5" y="-491" font-family="Helvetica" font-size="10.00">HotSpotMethod&lt;String.isLatin1()&gt;</text>
</g>
<!-- b3&#45;&gt;b4 -->
<g id="edge7" class="edge">
<title>b3&#45;&gt;b4</title>
<path fill="none" stroke="black" d="M1847.05,-618.93C1924.93,-598.2 2026.79,-571.07 2106.67,-549.8"/>
<polygon fill="black" stroke="black" points="2108.03,-553.06 2116.79,-547.11 2106.23,-546.3 2108.03,-553.06"/>
</g>
<!-- b29 -->
<g id="node30" class="node">
<title>b29</title>
<polygon fill="white" stroke="black" points="2437,-676.5 2036,-676.5 2036,-624.5 2437,-624.5 2437,-676.5"/>
<text text-anchor="middle" x="2236.5" y="-664.5" font-family="Helvetica" font-size="10.00">B29</text>
<text text-anchor="middle" x="2236.5" y="-653.5" font-family="Helvetica" font-size="10.00">Loop: &lt;none&gt;</text>
<text text-anchor="middle" x="2236.5" y="-642.5" font-family="Helvetica" font-size="10.00">&#45;&#45;&#45;</text>
<text text-anchor="middle" x="2236.5" y="-631.5" font-family="Helvetica" font-size="10.00">HotSpotMethod&lt;Pattern$BmpCharPropertyGreedy.match(Matcher, int, CharSequence)&gt;</text>
</g>
<!-- b3&#45;&gt;b29 -->
<g id="edge8" class="edge">
<title>b3&#45;&gt;b29</title>
<path fill="none" stroke="black" d="M1928.15,-650.5C1960.03,-650.5 1993.1,-650.5 2025.22,-650.5"/>
<polygon fill="black" stroke="black" points="2025.61,-654 2035.61,-650.5 2025.61,-647 2025.61,-654"/>
</g>
<!-- b5 -->
<g id="node6" class="node">
<title>b5</title>
<polygon fill="white" stroke="black" points="2946,-417 2545,-417 2545,-332 2946,-332 2946,-417"/>
<text text-anchor="middle" x="2745.5" y="-405" font-family="Helvetica" font-size="10.00">B5</text>
<text text-anchor="middle" x="2745.5" y="-394" font-family="Helvetica" font-size="10.00">Loop: &lt;none&gt;</text>
<text text-anchor="middle" x="2745.5" y="-383" font-family="Helvetica" font-size="10.00">&#45;&#45;&#45;</text>
<text text-anchor="middle" x="2745.5" y="-372" font-family="Helvetica" font-size="10.00">HotSpotMethod&lt;String.isLatin1()&gt;</text>
<text text-anchor="middle" x="2745.5" y="-361" font-family="Helvetica" font-size="10.00">HotSpotMethod&lt;StringLatin1.charAt(byte[], int)&gt;</text>
<text text-anchor="middle" x="2745.5" y="-350" font-family="Helvetica" font-size="10.00">HotSpotMethod&lt;Pattern$$Lambda/0x800000027.is(int)&gt;</text>
<text text-anchor="middle" x="2745.5" y="-339" font-family="Helvetica" font-size="10.00">HotSpotMethod&lt;Pattern$BmpCharPropertyGreedy.match(Matcher, int, CharSequence)&gt;</text>
</g>
<!-- b4&#45;&gt;b5 -->
<g id="edge9" class="edge">
<title>b4&#45;&gt;b5</title>
<path fill="none" stroke="black" d="M2350.97,-483.94C2418.85,-465.07 2506.26,-440.76 2581.45,-419.85"/>
<polygon fill="black" stroke="black" points="2582.8,-423.1 2591.5,-417.05 2580.92,-416.36 2582.8,-423.1"/>
</g>
<!-- b28 -->
<g id="node29" class="node">
<title>b28</title>
<polygon fill="white" stroke="black" points="2946,-541.5 2545,-541.5 2545,-489.5 2946,-489.5 2946,-541.5"/>
<text text-anchor="middle" x="2745.5" y="-529.5" font-family="Helvetica" font-size="10.00">B28</text>
<text text-anchor="middle" x="2745.5" y="-518.5" font-family="Helvetica" font-size="10.00">Loop: &lt;none&gt;</text>
<text text-anchor="middle" x="2745.5" y="-507.5" font-family="Helvetica" font-size="10.00">&#45;&#45;&#45;</text>
<text text-anchor="middle" x="2745.5" y="-496.5" font-family="Helvetica" font-size="10.00">HotSpotMethod&lt;Pattern$BmpCharPropertyGreedy.match(Matcher, int, CharSequence)&gt;</text>
</g>
<!-- b4&#45;&gt;b28 -->
<g id="edge10" class="edge">
<title>b4&#45;&gt;b28</title>
<path fill="none" stroke="black" d="M2437.15,-515.5C2469.03,-515.5 2502.1,-515.5 2534.22,-515.5"/>
<polygon fill="black" stroke="black" points="2534.61,-519 2544.61,-515.5 2534.61,-512 2534.61,-519"/>
</g>
<!-- b6 -->
<g id="node7" class="node">
<title>b6</title>
<polygon fill="white" stroke="black" stroke-width="4" points="3459,-633 3058,-633 3058,-548 3459,-548 3459,-633"/>
<polygon fill="none" stroke="black" stroke-width="4" points="3463,-637 3054,-637 3054,-544 3463,-544 3463,-637"/>
<text text-anchor="middle" x="3258.5" y="-621" font-family="Helvetica" font-size="10.00">B6</text>
<text text-anchor="middle" x="3258.5" y="-610" font-family="Helvetica" font-size="10.00">Loop: &lt;none&gt;</text>
<text text-anchor="middle" x="3258.5" y="-599" font-family="Helvetica" font-size="10.00">&#45;&#45;&#45;</text>
<text text-anchor="middle" x="3258.5" y="-588" font-family="Helvetica" font-size="10.00">HotSpotMethod&lt;Pattern$BmpCharPropertyGreedy.match(Matcher, int, CharSequence)&gt;</text>
<text text-anchor="middle" x="3258.5" y="-577" font-family="Helvetica" font-size="10.00">&#45;&#45;&#45;</text>
<text text-anchor="middle" x="3258.5" y="-566" font-family="Helvetica" font-size="10.00">BuboLoopMakers:</text>
<text text-anchor="middle" x="3258.5" y="-555" font-family="Helvetica" font-size="10.00"> &#160;AMD64BuboRDTSCToSlot (LoopID=0)</text>
</g>
<!-- b5&#45;&gt;b6 -->
<g id="edge11" class="edge">
<title>b5&#45;&gt;b6</title>
<path fill="none" stroke="black" d="M2856.03,-417.02C2885.35,-428.64 2916.95,-441.37 2946,-453.5 3012.23,-481.17 3085.76,-513.43 3144.75,-539.7"/>
<polygon fill="black" stroke="black" points="3143.52,-542.99 3154.08,-543.86 3146.37,-536.59 3143.52,-542.99"/>
</g>
<!-- b15 -->
<g id="node16" class="node">
<title>b15</title>
<polygon fill="white" stroke="black" points="3972,-397.5 3571,-397.5 3571,-345.5 3972,-345.5 3972,-397.5"/>
<text text-anchor="middle" x="3771.5" y="-385.5" font-family="Helvetica" font-size="10.00">B15</text>
<text text-anchor="middle" x="3771.5" y="-374.5" font-family="Helvetica" font-size="10.00">Loop: &lt;none&gt;</text>
<text text-anchor="middle" x="3771.5" y="-363.5" font-family="Helvetica" font-size="10.00">&#45;&#45;&#45;</text>
<text text-anchor="middle" x="3771.5" y="-352.5" font-family="Helvetica" font-size="10.00">HotSpotMethod&lt;Pattern$BmpCharPropertyGreedy.match(Matcher, int, CharSequence)&gt;</text>
</g>
<!-- b5&#45;&gt;b15 -->
<g id="edge12" class="edge">
<title>b5&#45;&gt;b15</title>
<path fill="none" stroke="black" d="M2946.06,-373.92C3122.97,-373.4 3380.45,-372.64 3560.45,-372.12"/>
<polygon fill="black" stroke="black" points="3560.59,-375.62 3570.58,-372.09 3560.57,-368.62 3560.59,-375.62"/>
</g>
<!-- b7 -->
<g id="node8" class="node">
<title>b7</title>
<polygon fill="lightblue" stroke="black" points="3972,-631.5 3571,-631.5 3571,-579.5 3972,-579.5 3972,-631.5"/>
<text text-anchor="middle" x="3771.5" y="-619.5" font-family="Helvetica" font-size="10.00">B7</text>
<text text-anchor="middle" x="3771.5" y="-608.5" font-family="Helvetica" font-size="10.00">Loop: L0</text>
<text text-anchor="middle" x="3771.5" y="-597.5" font-family="Helvetica" font-size="10.00">&#45;&#45;&#45;</text>
<text text-anchor="middle" x="3771.5" y="-586.5" font-family="Helvetica" font-size="10.00">HotSpotMethod&lt;Pattern$BmpCharPropertyGreedy.match(Matcher, int, CharSequence)&gt;</text>
</g>
<!-- b6&#45;&gt;b7 -->
<g id="edge13" class="edge">
<title>b6&#45;&gt;b7</title>
<path fill="none" stroke="black" d="M3463.3,-596.48C3495.3,-597.42 3528.43,-598.39 3560.57,-599.34"/>
<polygon fill="black" stroke="black" points="3560.87,-602.85 3570.96,-599.64 3561.07,-595.85 3560.87,-602.85"/>
</g>
<!-- b8 -->
<g id="node9" class="node">
<title>b8</title>
<polygon fill="lightblue" stroke="black" points="4481,-653 4080,-653 4080,-590 4481,-590 4481,-653"/>
<text text-anchor="middle" x="4280.5" y="-641" font-family="Helvetica" font-size="10.00">B8</text>
<text text-anchor="middle" x="4280.5" y="-630" font-family="Helvetica" font-size="10.00">Loop: L0</text>
<text text-anchor="middle" x="4280.5" y="-619" font-family="Helvetica" font-size="10.00">&#45;&#45;&#45;</text>
<text text-anchor="middle" x="4280.5" y="-608" font-family="Helvetica" font-size="10.00">HotSpotMethod&lt;Pattern$BmpCharPropertyGreedy.match(Matcher, int, CharSequence)&gt;</text>
<text text-anchor="middle" x="4280.5" y="-597" font-family="Helvetica" font-size="10.00">HotSpotMethod&lt;Preconditions.checkIndex(int, int, BiFunction)&gt;</text>
</g>
<!-- b7&#45;&gt;b8 -->
<g id="edge14" class="edge">
<title>b7&#45;&gt;b8</title>
<path fill="none" stroke="black" d="M3972.15,-611.8C4004.03,-612.81 4037.1,-613.85 4069.22,-614.86"/>
<polygon fill="black" stroke="black" points="4069.51,-618.37 4079.61,-615.19 4069.73,-611.38 4069.51,-618.37"/>
</g>
<!-- b13 -->
<g id="node14" class="node">
<title>b13</title>
<polygon fill="white" stroke="black" points="4481,-514.5 4080,-514.5 4080,-462.5 4481,-462.5 4481,-514.5"/>
<text text-anchor="middle" x="4280.5" y="-502.5" font-family="Helvetica" font-size="10.00">B13</text>
<text text-anchor="middle" x="4280.5" y="-491.5" font-family="Helvetica" font-size="10.00">Loop: &lt;none&gt;</text>
<text text-anchor="middle" x="4280.5" y="-480.5" font-family="Helvetica" font-size="10.00">&#45;&#45;&#45;</text>
<text text-anchor="middle" x="4280.5" y="-469.5" font-family="Helvetica" font-size="10.00">HotSpotMethod&lt;Pattern$BmpCharPropertyGreedy.match(Matcher, int, CharSequence)&gt;</text>
</g>
<!-- b7&#45;&gt;b13 -->
<g id="edge15" class="edge">
<title>b7&#45;&gt;b13</title>
<path fill="none" stroke="black" d="M3885.33,-579.46C3965.81,-560.89 4073.95,-535.93 4156.61,-516.86"/>
<polygon fill="black" stroke="black" points="4157.6,-520.22 4166.56,-514.56 4156.03,-513.4 4157.6,-520.22"/>
</g>
<!-- b9 -->
<g id="node10" class="node">
<title>b9</title>
<polygon fill="lightblue" stroke="black" points="4990,-793.5 4589,-793.5 4589,-719.5 4990,-719.5 4990,-793.5"/>
<text text-anchor="middle" x="4789.5" y="-781.5" font-family="Helvetica" font-size="10.00">B9</text>
<text text-anchor="middle" x="4789.5" y="-770.5" font-family="Helvetica" font-size="10.00">Loop: L0</text>
<text text-anchor="middle" x="4789.5" y="-759.5" font-family="Helvetica" font-size="10.00">&#45;&#45;&#45;</text>
<text text-anchor="middle" x="4789.5" y="-748.5" font-family="Helvetica" font-size="10.00">HotSpotMethod&lt;Preconditions.checkIndex(int, int, BiFunction)&gt;</text>
<text text-anchor="middle" x="4789.5" y="-737.5" font-family="Helvetica" font-size="10.00">HotSpotMethod&lt;StringLatin1.charAt(byte[], int)&gt;</text>
<text text-anchor="middle" x="4789.5" y="-726.5" font-family="Helvetica" font-size="10.00">HotSpotMethod&lt;Pattern$BmpCharPropertyGreedy.match(Matcher, int, CharSequence)&gt;</text>
</g>
<!-- b8&#45;&gt;b9 -->
<g id="edge16" class="edge">
<title>b8&#45;&gt;b9</title>
<path fill="none" stroke="black" d="M4400.05,-653.07C4471.61,-672.12 4563.43,-696.57 4639.83,-716.91"/>
<polygon fill="black" stroke="black" points="4638.98,-720.31 4649.54,-719.5 4640.78,-713.54 4638.98,-720.31"/>
</g>
<!-- b12 -->
<g id="node13" class="node">
<title>b12</title>
<polygon fill="white" stroke="black" points="4990,-647.5 4589,-647.5 4589,-595.5 4990,-595.5 4990,-647.5"/>
<text text-anchor="middle" x="4789.5" y="-635.5" font-family="Helvetica" font-size="10.00">B12</text>
<text text-anchor="middle" x="4789.5" y="-624.5" font-family="Helvetica" font-size="10.00">Loop: &lt;none&gt;</text>
<text text-anchor="middle" x="4789.5" y="-613.5" font-family="Helvetica" font-size="10.00">&#45;&#45;&#45;</text>
<text text-anchor="middle" x="4789.5" y="-602.5" font-family="Helvetica" font-size="10.00">HotSpotMethod&lt;Pattern$BmpCharPropertyGreedy.match(Matcher, int, CharSequence)&gt;</text>
</g>
<!-- b8&#45;&gt;b12 -->
<g id="edge17" class="edge">
<title>b8&#45;&gt;b12</title>
<path fill="none" stroke="black" d="M4481.15,-621.5C4513.03,-621.5 4546.1,-621.5 4578.22,-621.5"/>
<polygon fill="black" stroke="black" points="4578.61,-625 4588.61,-621.5 4578.61,-618 4578.61,-625"/>
</g>
<!-- b10 -->
<g id="node11" class="node">
<title>b10</title>
<polygon fill="lightblue" stroke="black" points="5503,-912.5 5102,-912.5 5102,-860.5 5503,-860.5 5503,-912.5"/>
<text text-anchor="middle" x="5302.5" y="-900.5" font-family="Helvetica" font-size="10.00">B10</text>
<text text-anchor="middle" x="5302.5" y="-889.5" font-family="Helvetica" font-size="10.00">Loop: L0</text>
<text text-anchor="middle" x="5302.5" y="-878.5" font-family="Helvetica" font-size="10.00">&#45;&#45;&#45;</text>
<text text-anchor="middle" x="5302.5" y="-867.5" font-family="Helvetica" font-size="10.00">HotSpotMethod&lt;Pattern$BmpCharPropertyGreedy.match(Matcher, int, CharSequence)&gt;</text>
</g>
<!-- b9&#45;&gt;b10 -->
<g id="edge18" class="edge">
<title>b9&#45;&gt;b10</title>
<path fill="none" stroke="black" d="M4936.25,-793.58C5016.57,-814.01 5114.75,-838.99 5189.09,-857.9"/>
<polygon fill="black" stroke="black" points="5188.4,-861.34 5198.95,-860.41 5190.13,-854.55 5188.4,-861.34"/>
</g>
<!-- b11 -->
<g id="node12" class="node">
<title>b11</title>
<polygon fill="white" stroke="black" stroke-width="4" points="5503,-752 5102,-752 5102,-667 5503,-667 5503,-752"/>
<polygon fill="none" stroke="black" stroke-width="4" points="5507,-756 5098,-756 5098,-663 5507,-663 5507,-756"/>
<text text-anchor="middle" x="5302.5" y="-740" font-family="Helvetica" font-size="10.00">B11</text>
<text text-anchor="middle" x="5302.5" y="-729" font-family="Helvetica" font-size="10.00">Loop: &lt;none&gt;</text>
<text text-anchor="middle" x="5302.5" y="-718" font-family="Helvetica" font-size="10.00">&#45;&#45;&#45;</text>
<text text-anchor="middle" x="5302.5" y="-707" font-family="Helvetica" font-size="10.00">HotSpotMethod&lt;Pattern$BmpCharPropertyGreedy.match(Matcher, int, CharSequence)&gt;</text>
<text text-anchor="middle" x="5302.5" y="-696" font-family="Helvetica" font-size="10.00">&#45;&#45;&#45;</text>
<text text-anchor="middle" x="5302.5" y="-685" font-family="Helvetica" font-size="10.00">BuboLoopMakers:</text>
<text text-anchor="middle" x="5302.5" y="-674" font-family="Helvetica" font-size="10.00"> &#160;AMD64BuboWriteDeltaRDTSC (LoopID=0)</text>
</g>
<!-- b9&#45;&gt;b11 -->
<g id="edge19" class="edge">
<title>b9&#45;&gt;b11</title>
<path fill="none" stroke="black" d="M4990.26,-738.13C5022.23,-735.19 5055.41,-732.13 5087.69,-729.17"/>
<polygon fill="black" stroke="black" points="5088.03,-732.65 5097.67,-728.25 5087.39,-725.68 5088.03,-732.65"/>
</g>
<!-- b10&#45;&gt;b7 -->
<g id="edge20" class="edge">
<title>b10&#45;&gt;b7</title>
<path fill="none" stroke="black" d="M5101.75,-880.55C4958.22,-873.85 4760.57,-859.62 4589,-829.5 4317.63,-781.86 4005.91,-683.89 3858.42,-634.84"/>
<polygon fill="black" stroke="black" points="3859.11,-631.38 3848.52,-631.54 3856.9,-638.02 3859.11,-631.38"/>
</g>
<!-- b16 -->
<g id="node17" class="node">
<title>b16</title>
<polygon fill="white" stroke="black" points="6016,-511.5 5615,-511.5 5615,-459.5 6016,-459.5 6016,-511.5"/>
<text text-anchor="middle" x="5815.5" y="-499.5" font-family="Helvetica" font-size="10.00">B16</text>
<text text-anchor="middle" x="5815.5" y="-488.5" font-family="Helvetica" font-size="10.00">Loop: &lt;none&gt;</text>
<text text-anchor="middle" x="5815.5" y="-477.5" font-family="Helvetica" font-size="10.00">&#45;&#45;&#45;</text>
<text text-anchor="middle" x="5815.5" y="-466.5" font-family="Helvetica" font-size="10.00">HotSpotMethod&lt;Pattern$BmpCharPropertyGreedy.match(Matcher, int, CharSequence)&gt;</text>
</g>
<!-- b11&#45;&gt;b16 -->
<g id="edge21" class="edge">
<title>b11&#45;&gt;b16</title>
<path fill="none" stroke="black" d="M5409.69,-662.95C5510.69,-618.67 5659.66,-553.38 5745.9,-515.57"/>
<polygon fill="black" stroke="black" points="5747.32,-518.77 5755.07,-511.55 5744.51,-512.36 5747.32,-518.77"/>
</g>
<!-- b14 -->
<g id="node15" class="node">
<title>b14</title>
<polygon fill="white" stroke="black" points="5503,-528.5 5102,-528.5 5102,-476.5 5503,-476.5 5503,-528.5"/>
<text text-anchor="middle" x="5302.5" y="-516.5" font-family="Helvetica" font-size="10.00">B14</text>
<text text-anchor="middle" x="5302.5" y="-505.5" font-family="Helvetica" font-size="10.00">Loop: &lt;none&gt;</text>
<text text-anchor="middle" x="5302.5" y="-494.5" font-family="Helvetica" font-size="10.00">&#45;&#45;&#45;</text>
<text text-anchor="middle" x="5302.5" y="-483.5" font-family="Helvetica" font-size="10.00">HotSpotMethod&lt;Pattern$BmpCharPropertyGreedy.match(Matcher, int, CharSequence)&gt;</text>
</g>
<!-- b12&#45;&gt;b14 -->
<g id="edge22" class="edge">
<title>b12&#45;&gt;b14</title>
<path fill="none" stroke="black" d="M4902.33,-595.46C4984.26,-576.38 5095.41,-550.49 5179.61,-530.88"/>
<polygon fill="black" stroke="black" points="5180.54,-534.26 5189.48,-528.59 5178.95,-527.45 5180.54,-534.26"/>
</g>
<!-- b13&#45;&gt;b14 -->
<g id="edge23" class="edge">
<title>b13&#45;&gt;b14</title>
<path fill="none" stroke="black" d="M4481.19,-491.24C4657.22,-493.66 4912.82,-497.17 5091.78,-499.62"/>
<polygon fill="black" stroke="black" points="5091.8,-503.12 5101.85,-499.76 5091.9,-496.12 5091.8,-503.12"/>
</g>
<!-- b15&#45;&gt;b16 -->
<g id="edge24" class="edge">
<title>b15&#45;&gt;b16</title>
<path fill="none" stroke="black" d="M3972.28,-372.61C4295.48,-375.93 4952.79,-389.07 5507,-440.5 5553.17,-444.78 5603,-451.26 5648.82,-457.98"/>
<polygon fill="black" stroke="black" points="5648.44,-461.46 5658.84,-459.46 5649.46,-454.54 5648.44,-461.46"/>
</g>
<!-- b17 -->
<g id="node18" class="node">
<title>b17</title>
<polygon fill="white" stroke="black" points="6525,-449.5 6124,-449.5 6124,-397.5 6525,-397.5 6525,-449.5"/>
<text text-anchor="middle" x="6324.5" y="-437.5" font-family="Helvetica" font-size="10.00">B17</text>
<text text-anchor="middle" x="6324.5" y="-426.5" font-family="Helvetica" font-size="10.00">Loop: &lt;none&gt;</text>
<text text-anchor="middle" x="6324.5" y="-415.5" font-family="Helvetica" font-size="10.00">&#45;&#45;&#45;</text>
<text text-anchor="middle" x="6324.5" y="-404.5" font-family="Helvetica" font-size="10.00">HotSpotMethod&lt;Pattern$BmpCharPropertyGreedy.match(Matcher, int, CharSequence)&gt;</text>
</g>
<!-- b16&#45;&gt;b17 -->
<g id="edge25" class="edge">
<title>b16&#45;&gt;b17</title>
<path fill="none" stroke="black" d="M6016.15,-461.08C6048.17,-457.17 6081.39,-453.11 6113.64,-449.16"/>
<polygon fill="black" stroke="black" points="6114.11,-452.63 6123.61,-447.94 6113.26,-445.68 6114.11,-452.63"/>
</g>
<!-- b26 -->
<g id="node27" class="node">
<title>b26</title>
<polygon fill="white" stroke="black" points="6525,-578.5 6124,-578.5 6124,-526.5 6525,-526.5 6525,-578.5"/>
<text text-anchor="middle" x="6324.5" y="-566.5" font-family="Helvetica" font-size="10.00">B26</text>
<text text-anchor="middle" x="6324.5" y="-555.5" font-family="Helvetica" font-size="10.00">Loop: &lt;none&gt;</text>
<text text-anchor="middle" x="6324.5" y="-544.5" font-family="Helvetica" font-size="10.00">&#45;&#45;&#45;</text>
<text text-anchor="middle" x="6324.5" y="-533.5" font-family="Helvetica" font-size="10.00">HotSpotMethod&lt;Pattern$BmpCharPropertyGreedy.match(Matcher, int, CharSequence)&gt;</text>
</g>
<!-- b16&#45;&gt;b26 -->
<g id="edge26" class="edge">
<title>b16&#45;&gt;b26</title>
<path fill="none" stroke="black" d="M6013.61,-511.55C6047.41,-516.01 6082.62,-520.67 6116.67,-525.17"/>
<polygon fill="black" stroke="black" points="6116.34,-528.65 6126.72,-526.5 6117.26,-521.72 6116.34,-528.65"/>
</g>
<!-- b18 -->
<g id="node19" class="node">
<title>b18</title>
<polygon fill="white" stroke="black" points="7034,-449.5 6633,-449.5 6633,-397.5 7034,-397.5 7034,-449.5"/>
<text text-anchor="middle" x="6833.5" y="-437.5" font-family="Helvetica" font-size="10.00">B18</text>
<text text-anchor="middle" x="6833.5" y="-426.5" font-family="Helvetica" font-size="10.00">Loop: &lt;none&gt;</text>
<text text-anchor="middle" x="6833.5" y="-415.5" font-family="Helvetica" font-size="10.00">&#45;&#45;&#45;</text>
<text text-anchor="middle" x="6833.5" y="-404.5" font-family="Helvetica" font-size="10.00">HotSpotMethod&lt;Pattern$BmpCharPropertyGreedy.match(Matcher, int, CharSequence)&gt;</text>
</g>
<!-- b17&#45;&gt;b18 -->
<g id="edge27" class="edge">
<title>b17&#45;&gt;b18</title>
<path fill="none" stroke="black" d="M6525.15,-423.5C6557.03,-423.5 6590.1,-423.5 6622.22,-423.5"/>
<polygon fill="black" stroke="black" points="6622.61,-427 6632.61,-423.5 6622.61,-420 6622.61,-427"/>
</g>
<!-- b19 -->
<g id="node20" class="node">
<title>b19</title>
<polygon fill="white" stroke="black" points="7034,-325.5 6633,-325.5 6633,-273.5 7034,-273.5 7034,-325.5"/>
<text text-anchor="middle" x="6833.5" y="-313.5" font-family="Helvetica" font-size="10.00">B19</text>
<text text-anchor="middle" x="6833.5" y="-302.5" font-family="Helvetica" font-size="10.00">Loop: &lt;none&gt;</text>
<text text-anchor="middle" x="6833.5" y="-291.5" font-family="Helvetica" font-size="10.00">&#45;&#45;&#45;</text>
<text text-anchor="middle" x="6833.5" y="-280.5" font-family="Helvetica" font-size="10.00">HotSpotMethod&lt;Pattern$BmpCharPropertyGreedy.match(Matcher, int, CharSequence)&gt;</text>
</g>
<!-- b17&#45;&gt;b19 -->
<g id="edge28" class="edge">
<title>b17&#45;&gt;b19</title>
<path fill="none" stroke="black" d="M6432.09,-397.43C6515.29,-377.08 6630.73,-348.85 6716.29,-327.92"/>
<polygon fill="black" stroke="black" points="6717.17,-331.31 6726.05,-325.54 6715.5,-324.51 6717.17,-331.31"/>
</g>
<!-- b20 -->
<g id="node21" class="node">
<title>b20</title>
<polygon fill="white" stroke="black" points="7543,-268 7142,-268 7142,-205 7543,-205 7543,-268"/>
<text text-anchor="middle" x="7342.5" y="-256" font-family="Helvetica" font-size="10.00">B20</text>
<text text-anchor="middle" x="7342.5" y="-245" font-family="Helvetica" font-size="10.00">Loop: &lt;none&gt;</text>
<text text-anchor="middle" x="7342.5" y="-234" font-family="Helvetica" font-size="10.00">&#45;&#45;&#45;</text>
<text text-anchor="middle" x="7342.5" y="-223" font-family="Helvetica" font-size="10.00">HotSpotMethod&lt;Pattern$BmpCharPropertyGreedy.match(Matcher, int, CharSequence)&gt;</text>
<text text-anchor="middle" x="7342.5" y="-212" font-family="Helvetica" font-size="10.00">HotSpotMethod&lt;Pattern$LastNode.match(Matcher, int, CharSequence)&gt;</text>
</g>
<!-- b19&#45;&gt;b20 -->
<g id="edge29" class="edge">
<title>b19&#45;&gt;b20</title>
<path fill="none" stroke="black" d="M7034.15,-274.69C7066.17,-270.71 7099.39,-266.58 7131.64,-262.58"/>
<polygon fill="black" stroke="black" points="7132.12,-266.04 7141.61,-261.34 7131.26,-259.1 7132.12,-266.04"/>
</g>
<!-- b25 -->
<g id="node26" class="node">
<title>b25</title>
<polygon fill="white" stroke="black" points="7543,-433.5 7142,-433.5 7142,-381.5 7543,-381.5 7543,-433.5"/>
<text text-anchor="middle" x="7342.5" y="-421.5" font-family="Helvetica" font-size="10.00">B25</text>
<text text-anchor="middle" x="7342.5" y="-410.5" font-family="Helvetica" font-size="10.00">Loop: &lt;none&gt;</text>
<text text-anchor="middle" x="7342.5" y="-399.5" font-family="Helvetica" font-size="10.00">&#45;&#45;&#45;</text>
<text text-anchor="middle" x="7342.5" y="-388.5" font-family="Helvetica" font-size="10.00">HotSpotMethod&lt;Pattern$BmpCharPropertyGreedy.match(Matcher, int, CharSequence)&gt;</text>
</g>
<!-- b19&#45;&gt;b25 -->
<g id="edge30" class="edge">
<title>b19&#45;&gt;b25</title>
<path fill="none" stroke="black" d="M6956.58,-325.51C7032.87,-341.76 7131.11,-362.68 7209.25,-379.33"/>
<polygon fill="black" stroke="black" points="7208.65,-382.78 7219.16,-381.44 7210.11,-375.93 7208.65,-382.78"/>
</g>
<!-- b21 -->
<g id="node22" class="node">
<title>b21</title>
<polygon fill="white" stroke="black" points="8052,-63 7651,-63 7651,0 8052,0 8052,-63"/>
<text text-anchor="middle" x="7851.5" y="-51" font-family="Helvetica" font-size="10.00">B21</text>
<text text-anchor="middle" x="7851.5" y="-40" font-family="Helvetica" font-size="10.00">Loop: &lt;none&gt;</text>
<text text-anchor="middle" x="7851.5" y="-29" font-family="Helvetica" font-size="10.00">&#45;&#45;&#45;</text>
<text text-anchor="middle" x="7851.5" y="-18" font-family="Helvetica" font-size="10.00">HotSpotMethod&lt;Pattern$LastNode.match(Matcher, int, CharSequence)&gt;</text>
<text text-anchor="middle" x="7851.5" y="-7" font-family="Helvetica" font-size="10.00">HotSpotMethod&lt;Pattern$BmpCharPropertyGreedy.match(Matcher, int, CharSequence)&gt;</text>
</g>
<!-- b20&#45;&gt;b21 -->
<g id="edge31" class="edge">
<title>b20&#45;&gt;b21</title>
<path fill="none" stroke="black" d="M7421.61,-204.92C7513.81,-167.64 7666.74,-105.8 7762.89,-66.92"/>
<polygon fill="black" stroke="black" points="7764.34,-70.11 7772.3,-63.12 7761.72,-63.62 7764.34,-70.11"/>
</g>
<!-- b22 -->
<g id="node23" class="node">
<title>b22</title>
<polygon fill="white" stroke="black" points="8052,-268 7651,-268 7651,-205 8052,-205 8052,-268"/>
<text text-anchor="middle" x="7851.5" y="-256" font-family="Helvetica" font-size="10.00">B22</text>
<text text-anchor="middle" x="7851.5" y="-245" font-family="Helvetica" font-size="10.00">Loop: &lt;none&gt;</text>
<text text-anchor="middle" x="7851.5" y="-234" font-family="Helvetica" font-size="10.00">&#45;&#45;&#45;</text>
<text text-anchor="middle" x="7851.5" y="-223" font-family="Helvetica" font-size="10.00">HotSpotMethod&lt;Pattern$BmpCharPropertyGreedy.match(Matcher, int, CharSequence)&gt;</text>
<text text-anchor="middle" x="7851.5" y="-212" font-family="Helvetica" font-size="10.00">HotSpotMethod&lt;Pattern$LastNode.match(Matcher, int, CharSequence)&gt;</text>
</g>
<!-- b20&#45;&gt;b22 -->
<g id="edge32" class="edge">
<title>b20&#45;&gt;b22</title>
<path fill="none" stroke="black" d="M7543.15,-236.5C7575.03,-236.5 7608.1,-236.5 7640.22,-236.5"/>
<polygon fill="black" stroke="black" points="7640.61,-240 7650.61,-236.5 7640.61,-233 7640.61,-240"/>
</g>
<!-- b27 -->
<g id="node28" class="node">
<title>b27</title>
<polygon fill="white" stroke="black" points="9070,-300.5 8669,-300.5 8669,-248.5 9070,-248.5 9070,-300.5"/>
<text text-anchor="middle" x="8869.5" y="-288.5" font-family="Helvetica" font-size="10.00">B27</text>
<text text-anchor="middle" x="8869.5" y="-277.5" font-family="Helvetica" font-size="10.00">Loop: &lt;none&gt;</text>
<text text-anchor="middle" x="8869.5" y="-266.5" font-family="Helvetica" font-size="10.00">&#45;&#45;&#45;</text>
<text text-anchor="middle" x="8869.5" y="-255.5" font-family="Helvetica" font-size="10.00">HotSpotMethod&lt;Pattern$BmpCharPropertyGreedy.match(Matcher, int, CharSequence)&gt;</text>
</g>
<!-- b21&#45;&gt;b27 -->
<g id="edge33" class="edge">
<title>b21&#45;&gt;b27</title>
<path fill="none" stroke="black" d="M8052.05,-14.04C8196.96,-7.98 8395.77,-13.52 8561,-68.5 8671.41,-105.24 8779.49,-193.08 8833.29,-241.35"/>
<polygon fill="black" stroke="black" points="8831.06,-244.05 8840.82,-248.17 8835.76,-238.86 8831.06,-244.05"/>
</g>
<!-- b23 -->
<g id="node24" class="node">
<title>b23</title>
<polygon fill="white" stroke="black" points="8561,-168 8160,-168 8160,-105 8561,-105 8561,-168"/>
<text text-anchor="middle" x="8360.5" y="-156" font-family="Helvetica" font-size="10.00">B23</text>
<text text-anchor="middle" x="8360.5" y="-145" font-family="Helvetica" font-size="10.00">Loop: &lt;none&gt;</text>
<text text-anchor="middle" x="8360.5" y="-134" font-family="Helvetica" font-size="10.00">&#45;&#45;&#45;</text>
<text text-anchor="middle" x="8360.5" y="-123" font-family="Helvetica" font-size="10.00">HotSpotMethod&lt;Pattern$LastNode.match(Matcher, int, CharSequence)&gt;</text>
<text text-anchor="middle" x="8360.5" y="-112" font-family="Helvetica" font-size="10.00">HotSpotMethod&lt;Pattern$BmpCharPropertyGreedy.match(Matcher, int, CharSequence)&gt;</text>
</g>
<!-- b22&#45;&gt;b23 -->
<g id="edge34" class="edge">
<title>b22&#45;&gt;b23</title>
<path fill="none" stroke="black" d="M8012.22,-205C8068.75,-193.85 8132.51,-181.27 8189.83,-169.97"/>
<polygon fill="black" stroke="black" points="8190.58,-173.39 8199.71,-168.02 8189.22,-166.52 8190.58,-173.39"/>
</g>
<!-- b24 -->
<g id="node25" class="node">
<title>b24</title>
<polygon fill="white" stroke="black" points="8561,-303 8160,-303 8160,-240 8561,-240 8561,-303"/>
<text text-anchor="middle" x="8360.5" y="-291" font-family="Helvetica" font-size="10.00">B24</text>
<text text-anchor="middle" x="8360.5" y="-280" font-family="Helvetica" font-size="10.00">Loop: &lt;none&gt;</text>
<text text-anchor="middle" x="8360.5" y="-269" font-family="Helvetica" font-size="10.00">&#45;&#45;&#45;</text>
<text text-anchor="middle" x="8360.5" y="-258" font-family="Helvetica" font-size="10.00">HotSpotMethod&lt;Pattern$BmpCharPropertyGreedy.match(Matcher, int, CharSequence)&gt;</text>
<text text-anchor="middle" x="8360.5" y="-247" font-family="Helvetica" font-size="10.00">HotSpotMethod&lt;Pattern$LastNode.match(Matcher, int, CharSequence)&gt;</text>
</g>
<!-- b22&#45;&gt;b24 -->
<g id="edge35" class="edge">
<title>b22&#45;&gt;b24</title>
<path fill="none" stroke="black" d="M8052.15,-250.28C8084.03,-252.48 8117.1,-254.77 8149.22,-256.98"/>
<polygon fill="black" stroke="black" points="8149.4,-260.5 8159.61,-257.7 8149.88,-253.52 8149.4,-260.5"/>
</g>
<!-- b23&#45;&gt;b27 -->
<g id="edge36" class="edge">
<title>b23&#45;&gt;b27</title>
<path fill="none" stroke="black" d="M8477.5,-168.07C8563.4,-191.45 8679.5,-223.06 8762.83,-245.74"/>
<polygon fill="black" stroke="black" points="8762.01,-249.14 8772.57,-248.39 8763.84,-242.39 8762.01,-249.14"/>
</g>
<!-- b25&#45;&gt;b27 -->
<g id="edge37" class="edge">
<title>b25&#45;&gt;b27</title>
<path fill="none" stroke="black" d="M7543.11,-405.27C7784.98,-400.47 8204.43,-385.45 8561,-338.5 8625.01,-330.07 8695.59,-315.75 8752.97,-302.79"/>
<polygon fill="black" stroke="black" points="8753.81,-306.19 8762.79,-300.55 8752.26,-299.36 8753.81,-306.19"/>
</g>
<!-- b26&#45;&gt;b27 -->
<g id="edge38" class="edge">
<title>b26&#45;&gt;b27</title>
<path fill="none" stroke="black" d="M6525.03,-554.37C6729.89,-556.13 7057.95,-558.5 7341.5,-558.5 7341.5,-558.5 7341.5,-558.5 7852.5,-558.5 8173.92,-558.5 8255.22,-512.53 8561,-413.5 8651.12,-384.31 8750.08,-336.54 8810.75,-305.31"/>
<polygon fill="black" stroke="black" points="8812.51,-308.34 8819.79,-300.63 8809.3,-302.12 8812.51,-308.34"/>
</g>
<!-- b33 -->
<g id="node34" class="node">
<title>b33</title>
<polygon fill="white" stroke="black" points="3459,-822.5 3058,-822.5 3058,-770.5 3459,-770.5 3459,-822.5"/>
<text text-anchor="middle" x="3258.5" y="-810.5" font-family="Helvetica" font-size="10.00">B33</text>
<text text-anchor="middle" x="3258.5" y="-799.5" font-family="Helvetica" font-size="10.00">Loop: &lt;none&gt;</text>
<text text-anchor="middle" x="3258.5" y="-788.5" font-family="Helvetica" font-size="10.00">&#45;&#45;&#45;</text>
<text text-anchor="middle" x="3258.5" y="-777.5" font-family="Helvetica" font-size="10.00">HotSpotMethod&lt;Pattern$BmpCharPropertyGreedy.match(Matcher, int, CharSequence)&gt;</text>
</g>
<!-- b28&#45;&gt;b33 -->
<g id="edge39" class="edge">
<title>b28&#45;&gt;b33</title>
<path fill="none" stroke="black" d="M2823.76,-541.58C2861.58,-555.57 2907.2,-574.29 2946,-595.5 2997.72,-623.78 3004.8,-640.03 3054,-672.5 3103.86,-705.41 3162.22,-740.64 3203.63,-765.11"/>
<polygon fill="black" stroke="black" points="3202.07,-768.26 3212.46,-770.32 3205.62,-762.23 3202.07,-768.26"/>
</g>
<!-- b29&#45;&gt;b33 -->
<g id="edge40" class="edge">
<title>b29&#45;&gt;b33</title>
<path fill="none" stroke="black" d="M2437.12,-673.6C2579.26,-690.67 2774.67,-715.39 2946,-741.5 2999.04,-749.58 3056.97,-759.51 3108.33,-768.69"/>
<polygon fill="black" stroke="black" points="3107.71,-772.14 3118.17,-770.46 3108.95,-765.25 3107.71,-772.14"/>
</g>
<!-- b30&#45;&gt;b33 -->
<g id="edge41" class="edge">
<title>b30&#45;&gt;b33</title>
<path fill="none" stroke="black" d="M1928.39,-796.5C2218.09,-796.5 2752.18,-796.5 3047.46,-796.5"/>
<polygon fill="black" stroke="black" points="3047.86,-800 3057.86,-796.5 3047.86,-793 3047.86,-800"/>
</g>
<!-- b31&#45;&gt;b33 -->
<g id="edge42" class="edge">
<title>b31&#45;&gt;b33</title>
<path fill="none" stroke="black" d="M1419.22,-939.88C1741.45,-933.88 2395.6,-914.36 2946,-851.5 3003.53,-844.93 3066.51,-834.44 3120.69,-824.38"/>
<polygon fill="black" stroke="black" points="3121.52,-827.78 3130.7,-822.5 3120.23,-820.9 3121.52,-827.78"/>
</g>
<!-- b32&#45;&gt;b33 -->
<g id="edge43" class="edge">
<title>b32&#45;&gt;b33</title>
<path fill="none" stroke="black" d="M910.02,-1080.94C1114.89,-1084.16 1442.94,-1088.5 1726.5,-1088.5 1726.5,-1088.5 1726.5,-1088.5 2237.5,-1088.5 2614.35,-1088.5 3040.33,-902 3196.21,-827.1"/>
<polygon fill="black" stroke="black" points="3198.16,-830.04 3205.65,-822.54 3195.12,-823.74 3198.16,-830.04"/>
</g>
</g>
</svg>
