<?xml version="1.0" encoding="UTF-8" standalone="no"?>
<!DOCTYPE svg PUBLIC "-//W3C//DTD SVG 1.1//EN"
 "http://www.w3.org/Graphics/SVG/1.1/DTD/svg11.dtd">
<!-- Generated by graphviz version 2.44.0 (0)
 -->
<!-- Title: CFG_134 Pages: 1 -->
<svg width="7337pt" height="942pt"
 viewBox="0.00 0.00 7337.00 942.00" xmlns="http://www.w3.org/2000/svg" xmlns:xlink="http://www.w3.org/1999/xlink">
<g id="graph0" class="graph" transform="scale(1 1) rotate(0) translate(4 938)">
<title>CFG_134</title>
<polygon fill="white" stroke="transparent" points="-4,4 -4,-938 7333,-938 7333,4 -4,4"/>
<text text-anchor="middle" x="242.5" y="-914" font-family="Times-Roman" font-size="20.00">201&#45;LoopBenchmarks.sieveLoop(boolean[], int)</text>
<!-- b0 -->
<g id="node1" class="node">
<title>b0</title>
<polygon fill="white" stroke="black" points="283,-836 0,-836 0,-784 283,-784 283,-836"/>
<text text-anchor="middle" x="141.5" y="-824" font-family="Helvetica" font-size="10.00">B0</text>
<text text-anchor="middle" x="141.5" y="-813" font-family="Helvetica" font-size="10.00">Loop: &lt;none&gt;</text>
<text text-anchor="middle" x="141.5" y="-802" font-family="Helvetica" font-size="10.00">&#45;&#45;&#45;</text>
<text text-anchor="middle" x="141.5" y="-791" font-family="Helvetica" font-size="10.00">HotSpotMethod&lt;LoopBenchmarks.sieveLoop(boolean[], int)&gt;</text>
</g>
<!-- b1 -->
<g id="node2" class="node">
<title>b1</title>
<polygon fill="white" stroke="black" points="674,-898 391,-898 391,-846 674,-846 674,-898"/>
<text text-anchor="middle" x="532.5" y="-886" font-family="Helvetica" font-size="10.00">B1</text>
<text text-anchor="middle" x="532.5" y="-875" font-family="Helvetica" font-size="10.00">Loop: &lt;none&gt;</text>
<text text-anchor="middle" x="532.5" y="-864" font-family="Helvetica" font-size="10.00">&#45;&#45;&#45;</text>
<text text-anchor="middle" x="532.5" y="-853" font-family="Helvetica" font-size="10.00">HotSpotMethod&lt;LoopBenchmarks.sieveLoop(boolean[], int)&gt;</text>
</g>
<!-- b0&#45;&gt;b1 -->
<g id="edge1" class="edge">
<title>b0&#45;&gt;b1</title>
<path fill="none" stroke="black" d="M283.21,-832.43C314.95,-837.49 348.76,-842.88 380.89,-848"/>
<polygon fill="black" stroke="black" points="380.38,-851.46 390.8,-849.58 381.48,-844.54 380.38,-851.46"/>
</g>
<!-- b2 -->
<g id="node3" class="node">
<title>b2</title>
<polygon fill="white" stroke="black" points="674,-774 391,-774 391,-722 674,-722 674,-774"/>
<text text-anchor="middle" x="532.5" y="-762" font-family="Helvetica" font-size="10.00">B2</text>
<text text-anchor="middle" x="532.5" y="-751" font-family="Helvetica" font-size="10.00">Loop: &lt;none&gt;</text>
<text text-anchor="middle" x="532.5" y="-740" font-family="Helvetica" font-size="10.00">&#45;&#45;&#45;</text>
<text text-anchor="middle" x="532.5" y="-729" font-family="Helvetica" font-size="10.00">HotSpotMethod&lt;LoopBenchmarks.sieveLoop(boolean[], int)&gt;</text>
</g>
<!-- b0&#45;&gt;b2 -->
<g id="edge2" class="edge">
<title>b0&#45;&gt;b2</title>
<path fill="none" stroke="black" d="M283.21,-787.57C314.95,-782.51 348.76,-777.12 380.89,-772"/>
<polygon fill="black" stroke="black" points="381.48,-775.46 390.8,-770.42 380.38,-768.54 381.48,-775.46"/>
</g>
<!-- b3 -->
<g id="node4" class="node">
<title>b3</title>
<polygon fill="white" stroke="black" points="1065,-836 782,-836 782,-784 1065,-784 1065,-836"/>
<text text-anchor="middle" x="923.5" y="-824" font-family="Helvetica" font-size="10.00">B3</text>
<text text-anchor="middle" x="923.5" y="-813" font-family="Helvetica" font-size="10.00">Loop: &lt;none&gt;</text>
<text text-anchor="middle" x="923.5" y="-802" font-family="Helvetica" font-size="10.00">&#45;&#45;&#45;</text>
<text text-anchor="middle" x="923.5" y="-791" font-family="Helvetica" font-size="10.00">HotSpotMethod&lt;LoopBenchmarks.sieveLoop(boolean[], int)&gt;</text>
</g>
<!-- b1&#45;&gt;b3 -->
<g id="edge3" class="edge">
<title>b1&#45;&gt;b3</title>
<path fill="none" stroke="black" d="M674.21,-849.57C705.95,-844.51 739.76,-839.12 771.89,-834"/>
<polygon fill="black" stroke="black" points="772.48,-837.46 781.8,-832.42 771.38,-830.54 772.48,-837.46"/>
</g>
<!-- b2&#45;&gt;b3 -->
<g id="edge4" class="edge">
<title>b2&#45;&gt;b3</title>
<path fill="none" stroke="black" d="M674.21,-770.43C705.95,-775.49 739.76,-780.88 771.89,-786"/>
<polygon fill="black" stroke="black" points="771.38,-789.46 781.8,-787.58 772.48,-782.54 771.38,-789.46"/>
</g>
<!-- b5 -->
<g id="node6" class="node">
<title>b5</title>
<polygon fill="white" stroke="black" points="1456,-904 1173,-904 1173,-852 1456,-852 1456,-904"/>
<text text-anchor="middle" x="1314.5" y="-892" font-family="Helvetica" font-size="10.00">B5</text>
<text text-anchor="middle" x="1314.5" y="-881" font-family="Helvetica" font-size="10.00">Loop: &lt;none&gt;</text>
<text text-anchor="middle" x="1314.5" y="-870" font-family="Helvetica" font-size="10.00">&#45;&#45;&#45;</text>
<text text-anchor="middle" x="1314.5" y="-859" font-family="Helvetica" font-size="10.00">HotSpotMethod&lt;LoopBenchmarks.sieveLoop(boolean[], int)&gt;</text>
</g>
<!-- b3&#45;&gt;b5 -->
<g id="edge6" class="edge">
<title>b3&#45;&gt;b5</title>
<path fill="none" stroke="black" d="M1065.21,-834.6C1096.95,-840.15 1130.76,-846.06 1162.89,-851.67"/>
<polygon fill="black" stroke="black" points="1162.35,-855.13 1172.8,-853.41 1163.56,-848.24 1162.35,-855.13"/>
</g>
<!-- b7 -->
<g id="node8" class="node">
<title>b7</title>
<polygon fill="white" stroke="black" points="1847,-693 1564,-693 1564,-641 1847,-641 1847,-693"/>
<text text-anchor="middle" x="1705.5" y="-681" font-family="Helvetica" font-size="10.00">B7</text>
<text text-anchor="middle" x="1705.5" y="-670" font-family="Helvetica" font-size="10.00">Loop: &lt;none&gt;</text>
<text text-anchor="middle" x="1705.5" y="-659" font-family="Helvetica" font-size="10.00">&#45;&#45;&#45;</text>
<text text-anchor="middle" x="1705.5" y="-648" font-family="Helvetica" font-size="10.00">HotSpotMethod&lt;LoopBenchmarks.sieveLoop(boolean[], int)&gt;</text>
</g>
<!-- b3&#45;&gt;b7 -->
<g id="edge5" class="edge">
<title>b3&#45;&gt;b7</title>
<path fill="none" stroke="black" d="M1065.3,-784.19C1203.18,-758.91 1412.56,-720.52 1553.76,-694.64"/>
<polygon fill="black" stroke="black" points="1554.6,-698.04 1563.8,-692.79 1553.34,-691.16 1554.6,-698.04"/>
</g>
<!-- b4 -->
<g id="node5" class="node">
<title>b4</title>
<polygon fill="white" stroke="black" points="1456,-634 1173,-634 1173,-582 1456,-582 1456,-634"/>
<text text-anchor="middle" x="1314.5" y="-622" font-family="Helvetica" font-size="10.00">B4</text>
<text text-anchor="middle" x="1314.5" y="-611" font-family="Helvetica" font-size="10.00">Loop: &lt;none&gt;</text>
<text text-anchor="middle" x="1314.5" y="-600" font-family="Helvetica" font-size="10.00">&#45;&#45;&#45;</text>
<text text-anchor="middle" x="1314.5" y="-589" font-family="Helvetica" font-size="10.00">HotSpotMethod&lt;LoopBenchmarks.sieveLoop(boolean[], int)&gt;</text>
</g>
<!-- b4&#45;&gt;b7 -->
<g id="edge7" class="edge">
<title>b4&#45;&gt;b7</title>
<path fill="none" stroke="black" d="M1456.21,-629.34C1487.95,-634.16 1521.76,-639.28 1553.89,-644.16"/>
<polygon fill="black" stroke="black" points="1553.39,-647.62 1563.8,-645.66 1554.44,-640.7 1553.39,-647.62"/>
</g>
<!-- b5&#45;&gt;b7 -->
<g id="edge8" class="edge">
<title>b5&#45;&gt;b7</title>
<path fill="none" stroke="black" d="M1363.59,-851.92C1435.47,-812.92 1570.68,-739.58 1647.46,-697.94"/>
<polygon fill="black" stroke="black" points="1649.4,-700.87 1656.52,-693.02 1646.06,-694.72 1649.4,-700.87"/>
</g>
<!-- b36 -->
<g id="node37" class="node">
<title>b36</title>
<polygon fill="white" stroke="black" points="1847,-904 1564,-904 1564,-852 1847,-852 1847,-904"/>
<text text-anchor="middle" x="1705.5" y="-892" font-family="Helvetica" font-size="10.00">B36</text>
<text text-anchor="middle" x="1705.5" y="-881" font-family="Helvetica" font-size="10.00">Loop: &lt;none&gt;</text>
<text text-anchor="middle" x="1705.5" y="-870" font-family="Helvetica" font-size="10.00">&#45;&#45;&#45;</text>
<text text-anchor="middle" x="1705.5" y="-859" font-family="Helvetica" font-size="10.00">HotSpotMethod&lt;LoopBenchmarks.sieveLoop(boolean[], int)&gt;</text>
</g>
<!-- b5&#45;&gt;b36 -->
<g id="edge9" class="edge">
<title>b5&#45;&gt;b36</title>
<path fill="none" stroke="black" d="M1456.21,-878C1487.81,-878 1521.47,-878 1553.48,-878"/>
<polygon fill="black" stroke="black" points="1553.8,-881.5 1563.8,-878 1553.8,-874.5 1553.8,-881.5"/>
</g>
<!-- b6 -->
<g id="node7" class="node">
<title>b6</title>
<polygon fill="white" stroke="black" points="1456,-510 1173,-510 1173,-458 1456,-458 1456,-510"/>
<text text-anchor="middle" x="1314.5" y="-498" font-family="Helvetica" font-size="10.00">B6</text>
<text text-anchor="middle" x="1314.5" y="-487" font-family="Helvetica" font-size="10.00">Loop: &lt;none&gt;</text>
<text text-anchor="middle" x="1314.5" y="-476" font-family="Helvetica" font-size="10.00">&#45;&#45;&#45;</text>
<text text-anchor="middle" x="1314.5" y="-465" font-family="Helvetica" font-size="10.00">HotSpotMethod&lt;LoopBenchmarks.sieveLoop(boolean[], int)&gt;</text>
</g>
<!-- b6&#45;&gt;b7 -->
<g id="edge10" class="edge">
<title>b6&#45;&gt;b7</title>
<path fill="none" stroke="black" d="M1375.89,-510.06C1400.79,-520.95 1429.88,-533.88 1456,-546 1520.34,-575.85 1593.22,-611.56 1643.33,-636.42"/>
<polygon fill="black" stroke="black" points="1641.9,-639.62 1652.41,-640.93 1645.01,-633.35 1641.9,-639.62"/>
</g>
<!-- b8 -->
<g id="node9" class="node">
<title>b8</title>
<polygon fill="white" stroke="black" points="2238,-623 1955,-623 1955,-571 2238,-571 2238,-623"/>
<text text-anchor="middle" x="2096.5" y="-611" font-family="Helvetica" font-size="10.00">B8</text>
<text text-anchor="middle" x="2096.5" y="-600" font-family="Helvetica" font-size="10.00">Loop: &lt;none&gt;</text>
<text text-anchor="middle" x="2096.5" y="-589" font-family="Helvetica" font-size="10.00">&#45;&#45;&#45;</text>
<text text-anchor="middle" x="2096.5" y="-578" font-family="Helvetica" font-size="10.00">HotSpotMethod&lt;LoopBenchmarks.sieveLoop(boolean[], int)&gt;</text>
</g>
<!-- b7&#45;&gt;b8 -->
<g id="edge11" class="edge">
<title>b7&#45;&gt;b8</title>
<path fill="none" stroke="black" d="M1847.21,-641.68C1878.95,-635.97 1912.76,-629.88 1944.89,-624.1"/>
<polygon fill="black" stroke="black" points="1945.58,-627.53 1954.8,-622.32 1944.34,-620.64 1945.58,-627.53"/>
</g>
<!-- b35 -->
<g id="node36" class="node">
<title>b35</title>
<polygon fill="white" stroke="black" points="2238,-752 1955,-752 1955,-700 2238,-700 2238,-752"/>
<text text-anchor="middle" x="2096.5" y="-740" font-family="Helvetica" font-size="10.00">B35</text>
<text text-anchor="middle" x="2096.5" y="-729" font-family="Helvetica" font-size="10.00">Loop: &lt;none&gt;</text>
<text text-anchor="middle" x="2096.5" y="-718" font-family="Helvetica" font-size="10.00">&#45;&#45;&#45;</text>
<text text-anchor="middle" x="2096.5" y="-707" font-family="Helvetica" font-size="10.00">HotSpotMethod&lt;LoopBenchmarks.sieveLoop(boolean[], int)&gt;</text>
</g>
<!-- b7&#45;&gt;b35 -->
<g id="edge12" class="edge">
<title>b7&#45;&gt;b35</title>
<path fill="none" stroke="black" d="M1847.21,-688.34C1878.95,-693.16 1912.76,-698.28 1944.89,-703.16"/>
<polygon fill="black" stroke="black" points="1944.39,-706.62 1954.8,-704.66 1945.44,-699.7 1944.39,-706.62"/>
</g>
<!-- b9 -->
<g id="node10" class="node">
<title>b9</title>
<polygon fill="white" stroke="black" points="2629,-499 2346,-499 2346,-447 2629,-447 2629,-499"/>
<text text-anchor="middle" x="2487.5" y="-487" font-family="Helvetica" font-size="10.00">B9</text>
<text text-anchor="middle" x="2487.5" y="-476" font-family="Helvetica" font-size="10.00">Loop: &lt;none&gt;</text>
<text text-anchor="middle" x="2487.5" y="-465" font-family="Helvetica" font-size="10.00">&#45;&#45;&#45;</text>
<text text-anchor="middle" x="2487.5" y="-454" font-family="Helvetica" font-size="10.00">HotSpotMethod&lt;LoopBenchmarks.sieveLoop(boolean[], int)&gt;</text>
</g>
<!-- b8&#45;&gt;b9 -->
<g id="edge13" class="edge">
<title>b8&#45;&gt;b9</title>
<path fill="none" stroke="black" d="M2179.52,-570.85C2242.6,-550.75 2329.72,-522.98 2395.04,-502.15"/>
<polygon fill="black" stroke="black" points="2396.46,-505.38 2404.92,-499 2394.33,-498.71 2396.46,-505.38"/>
</g>
<!-- b34 -->
<g id="node35" class="node">
<title>b34</title>
<polygon fill="white" stroke="black" points="2629,-623 2346,-623 2346,-571 2629,-571 2629,-623"/>
<text text-anchor="middle" x="2487.5" y="-611" font-family="Helvetica" font-size="10.00">B34</text>
<text text-anchor="middle" x="2487.5" y="-600" font-family="Helvetica" font-size="10.00">Loop: &lt;none&gt;</text>
<text text-anchor="middle" x="2487.5" y="-589" font-family="Helvetica" font-size="10.00">&#45;&#45;&#45;</text>
<text text-anchor="middle" x="2487.5" y="-578" font-family="Helvetica" font-size="10.00">HotSpotMethod&lt;LoopBenchmarks.sieveLoop(boolean[], int)&gt;</text>
</g>
<!-- b8&#45;&gt;b34 -->
<g id="edge14" class="edge">
<title>b8&#45;&gt;b34</title>
<path fill="none" stroke="black" d="M2238.21,-597C2269.81,-597 2303.47,-597 2335.48,-597"/>
<polygon fill="black" stroke="black" points="2335.8,-600.5 2345.8,-597 2335.8,-593.5 2335.8,-600.5"/>
</g>
<!-- b11 -->
<g id="node12" class="node">
<title>b11</title>
<polygon fill="white" stroke="black" points="3020,-364 2737,-364 2737,-312 3020,-312 3020,-364"/>
<text text-anchor="middle" x="2878.5" y="-352" font-family="Helvetica" font-size="10.00">B11</text>
<text text-anchor="middle" x="2878.5" y="-341" font-family="Helvetica" font-size="10.00">Loop: &lt;none&gt;</text>
<text text-anchor="middle" x="2878.5" y="-330" font-family="Helvetica" font-size="10.00">&#45;&#45;&#45;</text>
<text text-anchor="middle" x="2878.5" y="-319" font-family="Helvetica" font-size="10.00">HotSpotMethod&lt;LoopBenchmarks.sieveLoop(boolean[], int)&gt;</text>
</g>
<!-- b9&#45;&gt;b11 -->
<g id="edge16" class="edge">
<title>b9&#45;&gt;b11</title>
<path fill="none" stroke="black" d="M2563.5,-446.97C2629.19,-424.18 2724.55,-391.08 2792.93,-367.35"/>
<polygon fill="black" stroke="black" points="2794.1,-370.65 2802.4,-364.06 2791.8,-364.04 2794.1,-370.65"/>
</g>
<!-- b12 -->
<g id="node13" class="node">
<title>b12</title>
<polygon fill="white" stroke="black" points="3411,-499 3128,-499 3128,-447 3411,-447 3411,-499"/>
<text text-anchor="middle" x="3269.5" y="-487" font-family="Helvetica" font-size="10.00">B12</text>
<text text-anchor="middle" x="3269.5" y="-476" font-family="Helvetica" font-size="10.00">Loop: &lt;none&gt;</text>
<text text-anchor="middle" x="3269.5" y="-465" font-family="Helvetica" font-size="10.00">&#45;&#45;&#45;</text>
<text text-anchor="middle" x="3269.5" y="-454" font-family="Helvetica" font-size="10.00">HotSpotMethod&lt;LoopBenchmarks.sieveLoop(boolean[], int)&gt;</text>
</g>
<!-- b9&#45;&gt;b12 -->
<g id="edge15" class="edge">
<title>b9&#45;&gt;b12</title>
<path fill="none" stroke="black" d="M2629.3,-473C2767.18,-473 2976.56,-473 3117.76,-473"/>
<polygon fill="black" stroke="black" points="3117.8,-476.5 3127.8,-473 3117.8,-469.5 3117.8,-476.5"/>
</g>
<!-- b10 -->
<g id="node11" class="node">
<title>b10</title>
<polygon fill="white" stroke="black" points="3020,-634 2737,-634 2737,-582 3020,-582 3020,-634"/>
<text text-anchor="middle" x="2878.5" y="-622" font-family="Helvetica" font-size="10.00">B10</text>
<text text-anchor="middle" x="2878.5" y="-611" font-family="Helvetica" font-size="10.00">Loop: &lt;none&gt;</text>
<text text-anchor="middle" x="2878.5" y="-600" font-family="Helvetica" font-size="10.00">&#45;&#45;&#45;</text>
<text text-anchor="middle" x="2878.5" y="-589" font-family="Helvetica" font-size="10.00">HotSpotMethod&lt;LoopBenchmarks.sieveLoop(boolean[], int)&gt;</text>
</g>
<!-- b10&#45;&gt;b12 -->
<g id="edge17" class="edge">
<title>b10&#45;&gt;b12</title>
<path fill="none" stroke="black" d="M2954.5,-581.97C3020.19,-559.18 3115.55,-526.08 3183.93,-502.35"/>
<polygon fill="black" stroke="black" points="3185.1,-505.65 3193.4,-499.06 3182.8,-499.04 3185.1,-505.65"/>
</g>
<!-- b11&#45;&gt;b12 -->
<g id="edge18" class="edge">
<title>b11&#45;&gt;b12</title>
<path fill="none" stroke="black" d="M2954.5,-364.03C3020.19,-386.82 3115.55,-419.92 3183.93,-443.65"/>
<polygon fill="black" stroke="black" points="3182.8,-446.96 3193.4,-446.94 3185.1,-440.35 3182.8,-446.96"/>
</g>
<!-- b13 -->
<g id="node14" class="node">
<title>b13</title>
<polygon fill="white" stroke="black" points="3802,-437 3519,-437 3519,-385 3802,-385 3802,-437"/>
<text text-anchor="middle" x="3660.5" y="-425" font-family="Helvetica" font-size="10.00">B13</text>
<text text-anchor="middle" x="3660.5" y="-414" font-family="Helvetica" font-size="10.00">Loop: &lt;none&gt;</text>
<text text-anchor="middle" x="3660.5" y="-403" font-family="Helvetica" font-size="10.00">&#45;&#45;&#45;</text>
<text text-anchor="middle" x="3660.5" y="-392" font-family="Helvetica" font-size="10.00">HotSpotMethod&lt;LoopBenchmarks.sieveLoop(boolean[], int)&gt;</text>
</g>
<!-- b12&#45;&gt;b13 -->
<g id="edge19" class="edge">
<title>b12&#45;&gt;b13</title>
<path fill="none" stroke="black" d="M3411.21,-450.57C3442.95,-445.51 3476.76,-440.12 3508.89,-435"/>
<polygon fill="black" stroke="black" points="3509.48,-438.46 3518.8,-433.42 3508.38,-431.54 3509.48,-438.46"/>
</g>
<!-- b32 -->
<g id="node33" class="node">
<title>b32</title>
<polygon fill="white" stroke="black" points="3802,-566 3519,-566 3519,-514 3802,-514 3802,-566"/>
<text text-anchor="middle" x="3660.5" y="-554" font-family="Helvetica" font-size="10.00">B32</text>
<text text-anchor="middle" x="3660.5" y="-543" font-family="Helvetica" font-size="10.00">Loop: &lt;none&gt;</text>
<text text-anchor="middle" x="3660.5" y="-532" font-family="Helvetica" font-size="10.00">&#45;&#45;&#45;</text>
<text text-anchor="middle" x="3660.5" y="-521" font-family="Helvetica" font-size="10.00">HotSpotMethod&lt;LoopBenchmarks.sieveLoop(boolean[], int)&gt;</text>
</g>
<!-- b12&#45;&gt;b32 -->
<g id="edge20" class="edge">
<title>b12&#45;&gt;b32</title>
<path fill="none" stroke="black" d="M3411.21,-497.24C3442.95,-502.7 3476.76,-508.53 3508.89,-514.06"/>
<polygon fill="black" stroke="black" points="3508.35,-517.52 3518.8,-515.77 3509.54,-510.62 3508.35,-517.52"/>
</g>
<!-- b14 -->
<g id="node15" class="node">
<title>b14</title>
<polygon fill="white" stroke="black" points="4193,-313 3910,-313 3910,-261 4193,-261 4193,-313"/>
<text text-anchor="middle" x="4051.5" y="-301" font-family="Helvetica" font-size="10.00">B14</text>
<text text-anchor="middle" x="4051.5" y="-290" font-family="Helvetica" font-size="10.00">Loop: &lt;none&gt;</text>
<text text-anchor="middle" x="4051.5" y="-279" font-family="Helvetica" font-size="10.00">&#45;&#45;&#45;</text>
<text text-anchor="middle" x="4051.5" y="-268" font-family="Helvetica" font-size="10.00">HotSpotMethod&lt;LoopBenchmarks.sieveLoop(boolean[], int)&gt;</text>
</g>
<!-- b13&#45;&gt;b14 -->
<g id="edge21" class="edge">
<title>b13&#45;&gt;b14</title>
<path fill="none" stroke="black" d="M3743.52,-384.85C3806.6,-364.75 3893.72,-336.98 3959.04,-316.15"/>
<polygon fill="black" stroke="black" points="3960.46,-319.38 3968.92,-313 3958.33,-312.71 3960.46,-319.38"/>
</g>
<!-- b31 -->
<g id="node32" class="node">
<title>b31</title>
<polygon fill="white" stroke="black" points="4193,-437 3910,-437 3910,-385 4193,-385 4193,-437"/>
<text text-anchor="middle" x="4051.5" y="-425" font-family="Helvetica" font-size="10.00">B31</text>
<text text-anchor="middle" x="4051.5" y="-414" font-family="Helvetica" font-size="10.00">Loop: &lt;none&gt;</text>
<text text-anchor="middle" x="4051.5" y="-403" font-family="Helvetica" font-size="10.00">&#45;&#45;&#45;</text>
<text text-anchor="middle" x="4051.5" y="-392" font-family="Helvetica" font-size="10.00">HotSpotMethod&lt;LoopBenchmarks.sieveLoop(boolean[], int)&gt;</text>
</g>
<!-- b13&#45;&gt;b31 -->
<g id="edge22" class="edge">
<title>b13&#45;&gt;b31</title>
<path fill="none" stroke="black" d="M3802.21,-411C3833.81,-411 3867.47,-411 3899.48,-411"/>
<polygon fill="black" stroke="black" points="3899.8,-414.5 3909.8,-411 3899.8,-407.5 3899.8,-414.5"/>
</g>
<!-- b16 -->
<g id="node17" class="node">
<title>b16</title>
<polygon fill="white" stroke="black" points="4584,-316 4301,-316 4301,-264 4584,-264 4584,-316"/>
<text text-anchor="middle" x="4442.5" y="-304" font-family="Helvetica" font-size="10.00">B16</text>
<text text-anchor="middle" x="4442.5" y="-293" font-family="Helvetica" font-size="10.00">Loop: &lt;none&gt;</text>
<text text-anchor="middle" x="4442.5" y="-282" font-family="Helvetica" font-size="10.00">&#45;&#45;&#45;</text>
<text text-anchor="middle" x="4442.5" y="-271" font-family="Helvetica" font-size="10.00">HotSpotMethod&lt;LoopBenchmarks.sieveLoop(boolean[], int)&gt;</text>
</g>
<!-- b14&#45;&gt;b16 -->
<g id="edge24" class="edge">
<title>b14&#45;&gt;b16</title>
<path fill="none" stroke="black" d="M4193.21,-288.09C4224.81,-288.33 4258.47,-288.59 4290.48,-288.84"/>
<polygon fill="black" stroke="black" points="4290.78,-292.34 4300.8,-288.91 4290.83,-285.34 4290.78,-292.34"/>
</g>
<!-- b17 -->
<g id="node18" class="node">
<title>b17</title>
<polygon fill="white" stroke="black" points="4975,-316 4692,-316 4692,-264 4975,-264 4975,-316"/>
<text text-anchor="middle" x="4833.5" y="-304" font-family="Helvetica" font-size="10.00">B17</text>
<text text-anchor="middle" x="4833.5" y="-293" font-family="Helvetica" font-size="10.00">Loop: &lt;none&gt;</text>
<text text-anchor="middle" x="4833.5" y="-282" font-family="Helvetica" font-size="10.00">&#45;&#45;&#45;</text>
<text text-anchor="middle" x="4833.5" y="-271" font-family="Helvetica" font-size="10.00">HotSpotMethod&lt;LoopBenchmarks.sieveLoop(boolean[], int)&gt;</text>
</g>
<!-- b14&#45;&gt;b17 -->
<g id="edge23" class="edge">
<title>b14&#45;&gt;b17</title>
<path fill="none" stroke="black" d="M4139.88,-260.99C4187.11,-248.27 4246.72,-234.36 4301,-228 4425.92,-213.37 4459.16,-212.66 4584,-228 4636.43,-234.44 4693.71,-248.26 4740.06,-261.21"/>
<polygon fill="black" stroke="black" points="4739.2,-264.61 4749.77,-263.96 4741.1,-257.87 4739.2,-264.61"/>
</g>
<!-- b15 -->
<g id="node16" class="node">
<title>b15</title>
<polygon fill="white" stroke="black" points="4584,-440 4301,-440 4301,-388 4584,-388 4584,-440"/>
<text text-anchor="middle" x="4442.5" y="-428" font-family="Helvetica" font-size="10.00">B15</text>
<text text-anchor="middle" x="4442.5" y="-417" font-family="Helvetica" font-size="10.00">Loop: &lt;none&gt;</text>
<text text-anchor="middle" x="4442.5" y="-406" font-family="Helvetica" font-size="10.00">&#45;&#45;&#45;</text>
<text text-anchor="middle" x="4442.5" y="-395" font-family="Helvetica" font-size="10.00">HotSpotMethod&lt;LoopBenchmarks.sieveLoop(boolean[], int)&gt;</text>
</g>
<!-- b15&#45;&gt;b17 -->
<g id="edge25" class="edge">
<title>b15&#45;&gt;b17</title>
<path fill="none" stroke="black" d="M4525.52,-387.85C4588.6,-367.75 4675.72,-339.98 4741.04,-319.15"/>
<polygon fill="black" stroke="black" points="4742.46,-322.38 4750.92,-316 4740.33,-315.71 4742.46,-322.38"/>
</g>
<!-- b16&#45;&gt;b17 -->
<g id="edge26" class="edge">
<title>b16&#45;&gt;b17</title>
<path fill="none" stroke="black" d="M4584.21,-290C4615.81,-290 4649.47,-290 4681.48,-290"/>
<polygon fill="black" stroke="black" points="4681.8,-293.5 4691.8,-290 4681.8,-286.5 4681.8,-293.5"/>
</g>
<!-- b18 -->
<g id="node19" class="node">
<title>b18</title>
<polygon fill="white" stroke="black" points="5366,-446 5083,-446 5083,-394 5366,-394 5366,-446"/>
<text text-anchor="middle" x="5224.5" y="-434" font-family="Helvetica" font-size="10.00">B18</text>
<text text-anchor="middle" x="5224.5" y="-423" font-family="Helvetica" font-size="10.00">Loop: &lt;none&gt;</text>
<text text-anchor="middle" x="5224.5" y="-412" font-family="Helvetica" font-size="10.00">&#45;&#45;&#45;</text>
<text text-anchor="middle" x="5224.5" y="-401" font-family="Helvetica" font-size="10.00">HotSpotMethod&lt;LoopBenchmarks.sieveLoop(boolean[], int)&gt;</text>
</g>
<!-- b17&#45;&gt;b18 -->
<g id="edge27" class="edge">
<title>b17&#45;&gt;b18</title>
<path fill="none" stroke="black" d="M4912.75,-316.15C4977.25,-337.71 5068.68,-368.26 5135.67,-390.65"/>
<polygon fill="black" stroke="black" points="5134.78,-394.04 5145.37,-393.89 5137,-387.4 5134.78,-394.04"/>
</g>
<!-- b25 -->
<g id="node26" class="node">
<title>b25</title>
<polygon fill="white" stroke="black" stroke-width="4" points="6152,-271.5 5869,-271.5 5869,-186.5 6152,-186.5 6152,-271.5"/>
<polygon fill="none" stroke="black" stroke-width="4" points="6156,-275.5 5865,-275.5 5865,-182.5 6156,-182.5 6156,-275.5"/>
<text text-anchor="middle" x="6010.5" y="-259.5" font-family="Helvetica" font-size="10.00">B25</text>
<text text-anchor="middle" x="6010.5" y="-248.5" font-family="Helvetica" font-size="10.00">Loop: &lt;none&gt;</text>
<text text-anchor="middle" x="6010.5" y="-237.5" font-family="Helvetica" font-size="10.00">&#45;&#45;&#45;</text>
<text text-anchor="middle" x="6010.5" y="-226.5" font-family="Helvetica" font-size="10.00">HotSpotMethod&lt;LoopBenchmarks.sieveLoop(boolean[], int)&gt;</text>
<text text-anchor="middle" x="6010.5" y="-215.5" font-family="Helvetica" font-size="10.00">&#45;&#45;&#45;</text>
<text text-anchor="middle" x="6010.5" y="-204.5" font-family="Helvetica" font-size="10.00">BuboLoopMakers:</text>
<text text-anchor="middle" x="6010.5" y="-193.5" font-family="Helvetica" font-size="10.00"> &#160;AMD64BuboRDTSCToSlot (LoopID=0)</text>
</g>
<!-- b17&#45;&gt;b25 -->
<g id="edge28" class="edge">
<title>b17&#45;&gt;b25</title>
<path fill="none" stroke="black" d="M4975.26,-274.5C5104.69,-260.99 5302.01,-242.32 5474,-234 5602.08,-227.8 5747.59,-226.83 5854.57,-227.26"/>
<polygon fill="black" stroke="black" points="5854.79,-230.76 5864.8,-227.3 5854.82,-223.76 5854.79,-230.76"/>
</g>
<!-- b19 -->
<g id="node20" class="node">
<title>b19</title>
<polygon fill="white" stroke="black" points="5757,-446 5474,-446 5474,-394 5757,-394 5757,-446"/>
<text text-anchor="middle" x="5615.5" y="-434" font-family="Helvetica" font-size="10.00">B19</text>
<text text-anchor="middle" x="5615.5" y="-423" font-family="Helvetica" font-size="10.00">Loop: &lt;none&gt;</text>
<text text-anchor="middle" x="5615.5" y="-412" font-family="Helvetica" font-size="10.00">&#45;&#45;&#45;</text>
<text text-anchor="middle" x="5615.5" y="-401" font-family="Helvetica" font-size="10.00">HotSpotMethod&lt;LoopBenchmarks.sieveLoop(boolean[], int)&gt;</text>
</g>
<!-- b18&#45;&gt;b19 -->
<g id="edge29" class="edge">
<title>b18&#45;&gt;b19</title>
<path fill="none" stroke="black" d="M5366.21,-420C5397.81,-420 5431.47,-420 5463.48,-420"/>
<polygon fill="black" stroke="black" points="5463.8,-423.5 5473.8,-420 5463.8,-416.5 5463.8,-423.5"/>
</g>
<!-- b23 -->
<g id="node24" class="node">
<title>b23</title>
<polygon fill="white" stroke="black" points="6152,-632 5869,-632 5869,-580 6152,-580 6152,-632"/>
<text text-anchor="middle" x="6010.5" y="-620" font-family="Helvetica" font-size="10.00">B23</text>
<text text-anchor="middle" x="6010.5" y="-609" font-family="Helvetica" font-size="10.00">Loop: &lt;none&gt;</text>
<text text-anchor="middle" x="6010.5" y="-598" font-family="Helvetica" font-size="10.00">&#45;&#45;&#45;</text>
<text text-anchor="middle" x="6010.5" y="-587" font-family="Helvetica" font-size="10.00">HotSpotMethod&lt;LoopBenchmarks.sieveLoop(boolean[], int)&gt;</text>
</g>
<!-- b18&#45;&gt;b23 -->
<g id="edge30" class="edge">
<title>b18&#45;&gt;b23</title>
<path fill="none" stroke="black" d="M5236.6,-446.1C5265.07,-509.2 5347.46,-669.26 5474,-730 5641.69,-810.49 5864.46,-696.53 5961.22,-637.56"/>
<polygon fill="black" stroke="black" points="5963.24,-640.43 5969.91,-632.21 5959.56,-634.47 5963.24,-640.43"/>
</g>
<!-- b19&#45;&gt;b23 -->
<g id="edge32" class="edge">
<title>b19&#45;&gt;b23</title>
<path fill="none" stroke="black" d="M5676.91,-446.01C5701.82,-456.9 5730.9,-469.84 5757,-482 5823.05,-512.78 5897.89,-549.8 5948.83,-575.34"/>
<polygon fill="black" stroke="black" points="5947.55,-578.61 5958.05,-579.97 5950.69,-572.35 5947.55,-578.61"/>
</g>
<!-- b19&#45;&gt;b25 -->
<g id="edge31" class="edge">
<title>b19&#45;&gt;b25</title>
<path fill="none" stroke="black" d="M5677.7,-393.89C5702.47,-383.09 5731.24,-370.25 5757,-358 5808.79,-333.37 5865.73,-304.44 5912.41,-280.23"/>
<polygon fill="black" stroke="black" points="5914.04,-283.33 5921.3,-275.61 5910.81,-277.12 5914.04,-283.33"/>
</g>
<!-- b20 -->
<g id="node21" class="node">
<title>b20</title>
<polygon fill="white" stroke="black" points="5757,-52 5474,-52 5474,0 5757,0 5757,-52"/>
<text text-anchor="middle" x="5615.5" y="-40" font-family="Helvetica" font-size="10.00">B20</text>
<text text-anchor="middle" x="5615.5" y="-29" font-family="Helvetica" font-size="10.00">Loop: &lt;none&gt;</text>
<text text-anchor="middle" x="5615.5" y="-18" font-family="Helvetica" font-size="10.00">&#45;&#45;&#45;</text>
<text text-anchor="middle" x="5615.5" y="-7" font-family="Helvetica" font-size="10.00">HotSpotMethod&lt;LoopBenchmarks.sieveLoop(boolean[], int)&gt;</text>
</g>
<!-- b20&#45;&gt;b25 -->
<g id="edge33" class="edge">
<title>b20&#45;&gt;b25</title>
<path fill="none" stroke="black" d="M5667.07,-52.12C5728.23,-83.71 5832.6,-137.62 5910.07,-177.64"/>
<polygon fill="black" stroke="black" points="5908.89,-180.97 5919.38,-182.45 5912.1,-174.75 5908.89,-180.97"/>
</g>
<!-- b21 -->
<g id="node22" class="node">
<title>b21</title>
<polygon fill="white" stroke="black" points="5757,-694 5474,-694 5474,-642 5757,-642 5757,-694"/>
<text text-anchor="middle" x="5615.5" y="-682" font-family="Helvetica" font-size="10.00">B21</text>
<text text-anchor="middle" x="5615.5" y="-671" font-family="Helvetica" font-size="10.00">Loop: &lt;none&gt;</text>
<text text-anchor="middle" x="5615.5" y="-660" font-family="Helvetica" font-size="10.00">&#45;&#45;&#45;</text>
<text text-anchor="middle" x="5615.5" y="-649" font-family="Helvetica" font-size="10.00">HotSpotMethod&lt;LoopBenchmarks.sieveLoop(boolean[], int)&gt;</text>
</g>
<!-- b21&#45;&gt;b23 -->
<g id="edge34" class="edge">
<title>b21&#45;&gt;b23</title>
<path fill="none" stroke="black" d="M5757.27,-645.79C5790.11,-640.61 5825.2,-635.07 5858.46,-629.83"/>
<polygon fill="black" stroke="black" points="5859.39,-633.23 5868.72,-628.21 5858.3,-626.31 5859.39,-633.23"/>
</g>
<!-- b22 -->
<g id="node23" class="node">
<title>b22</title>
<polygon fill="white" stroke="black" points="5757,-570 5474,-570 5474,-518 5757,-518 5757,-570"/>
<text text-anchor="middle" x="5615.5" y="-558" font-family="Helvetica" font-size="10.00">B22</text>
<text text-anchor="middle" x="5615.5" y="-547" font-family="Helvetica" font-size="10.00">Loop: &lt;none&gt;</text>
<text text-anchor="middle" x="5615.5" y="-536" font-family="Helvetica" font-size="10.00">&#45;&#45;&#45;</text>
<text text-anchor="middle" x="5615.5" y="-525" font-family="Helvetica" font-size="10.00">HotSpotMethod&lt;LoopBenchmarks.sieveLoop(boolean[], int)&gt;</text>
</g>
<!-- b22&#45;&gt;b23 -->
<g id="edge35" class="edge">
<title>b22&#45;&gt;b23</title>
<path fill="none" stroke="black" d="M5757.27,-566.21C5790.11,-571.39 5825.2,-576.93 5858.46,-582.17"/>
<polygon fill="black" stroke="black" points="5858.3,-585.69 5868.72,-583.79 5859.39,-578.77 5858.3,-585.69"/>
</g>
<!-- b24 -->
<g id="node25" class="node">
<title>b24</title>
<polygon fill="white" stroke="black" points="5757,-322 5474,-322 5474,-270 5757,-270 5757,-322"/>
<text text-anchor="middle" x="5615.5" y="-310" font-family="Helvetica" font-size="10.00">B24</text>
<text text-anchor="middle" x="5615.5" y="-299" font-family="Helvetica" font-size="10.00">Loop: &lt;none&gt;</text>
<text text-anchor="middle" x="5615.5" y="-288" font-family="Helvetica" font-size="10.00">&#45;&#45;&#45;</text>
<text text-anchor="middle" x="5615.5" y="-277" font-family="Helvetica" font-size="10.00">HotSpotMethod&lt;LoopBenchmarks.sieveLoop(boolean[], int)&gt;</text>
</g>
<!-- b24&#45;&gt;b25 -->
<g id="edge36" class="edge">
<title>b24&#45;&gt;b25</title>
<path fill="none" stroke="black" d="M5757.27,-272C5788.91,-266.61 5822.65,-260.86 5854.82,-255.37"/>
<polygon fill="black" stroke="black" points="5855.48,-258.81 5864.75,-253.68 5854.3,-251.91 5855.48,-258.81"/>
</g>
<!-- b26 -->
<g id="node27" class="node">
<title>b26</title>
<polygon fill="lightblue" stroke="black" points="6547,-255 6264,-255 6264,-203 6547,-203 6547,-255"/>
<text text-anchor="middle" x="6405.5" y="-243" font-family="Helvetica" font-size="10.00">B26</text>
<text text-anchor="middle" x="6405.5" y="-232" font-family="Helvetica" font-size="10.00">Loop: L0</text>
<text text-anchor="middle" x="6405.5" y="-221" font-family="Helvetica" font-size="10.00">&#45;&#45;&#45;</text>
<text text-anchor="middle" x="6405.5" y="-210" font-family="Helvetica" font-size="10.00">HotSpotMethod&lt;LoopBenchmarks.sieveLoop(boolean[], int)&gt;</text>
</g>
<!-- b25&#45;&gt;b26 -->
<g id="edge37" class="edge">
<title>b25&#45;&gt;b26</title>
<path fill="none" stroke="black" d="M6156.16,-229C6187.86,-229 6221.5,-229 6253.44,-229"/>
<polygon fill="black" stroke="black" points="6253.74,-232.5 6263.74,-229 6253.74,-225.5 6253.74,-232.5"/>
</g>
<!-- b27 -->
<g id="node28" class="node">
<title>b27</title>
<polygon fill="lightblue" stroke="black" points="6938,-193 6655,-193 6655,-141 6938,-141 6938,-193"/>
<text text-anchor="middle" x="6796.5" y="-181" font-family="Helvetica" font-size="10.00">B27</text>
<text text-anchor="middle" x="6796.5" y="-170" font-family="Helvetica" font-size="10.00">Loop: L0</text>
<text text-anchor="middle" x="6796.5" y="-159" font-family="Helvetica" font-size="10.00">&#45;&#45;&#45;</text>
<text text-anchor="middle" x="6796.5" y="-148" font-family="Helvetica" font-size="10.00">HotSpotMethod&lt;LoopBenchmarks.sieveLoop(boolean[], int)&gt;</text>
</g>
<!-- b26&#45;&gt;b27 -->
<g id="edge38" class="edge">
<title>b26&#45;&gt;b27</title>
<path fill="none" stroke="black" d="M6547.21,-206.57C6578.95,-201.51 6612.76,-196.12 6644.89,-191"/>
<polygon fill="black" stroke="black" points="6645.48,-194.46 6654.8,-189.42 6644.38,-187.54 6645.48,-194.46"/>
</g>
<!-- b30 -->
<g id="node31" class="node">
<title>b30</title>
<polygon fill="white" stroke="black" points="6938,-317 6655,-317 6655,-265 6938,-265 6938,-317"/>
<text text-anchor="middle" x="6796.5" y="-305" font-family="Helvetica" font-size="10.00">B30</text>
<text text-anchor="middle" x="6796.5" y="-294" font-family="Helvetica" font-size="10.00">Loop: &lt;none&gt;</text>
<text text-anchor="middle" x="6796.5" y="-283" font-family="Helvetica" font-size="10.00">&#45;&#45;&#45;</text>
<text text-anchor="middle" x="6796.5" y="-272" font-family="Helvetica" font-size="10.00">HotSpotMethod&lt;LoopBenchmarks.sieveLoop(boolean[], int)&gt;</text>
</g>
<!-- b26&#45;&gt;b30 -->
<g id="edge39" class="edge">
<title>b26&#45;&gt;b30</title>
<path fill="none" stroke="black" d="M6547.21,-251.43C6578.95,-256.49 6612.76,-261.88 6644.89,-267"/>
<polygon fill="black" stroke="black" points="6644.38,-270.46 6654.8,-268.58 6645.48,-263.54 6644.38,-270.46"/>
</g>
<!-- b28 -->
<g id="node29" class="node">
<title>b28</title>
<polygon fill="lightblue" stroke="black" points="7329,-257 7046,-257 7046,-205 7329,-205 7329,-257"/>
<text text-anchor="middle" x="7187.5" y="-245" font-family="Helvetica" font-size="10.00">B28</text>
<text text-anchor="middle" x="7187.5" y="-234" font-family="Helvetica" font-size="10.00">Loop: L0</text>
<text text-anchor="middle" x="7187.5" y="-223" font-family="Helvetica" font-size="10.00">&#45;&#45;&#45;</text>
<text text-anchor="middle" x="7187.5" y="-212" font-family="Helvetica" font-size="10.00">HotSpotMethod&lt;LoopBenchmarks.sieveLoop(boolean[], int)&gt;</text>
</g>
<!-- b27&#45;&gt;b28 -->
<g id="edge40" class="edge">
<title>b27&#45;&gt;b28</title>
<path fill="none" stroke="black" d="M6938.21,-190.15C6969.95,-195.37 7003.76,-200.94 7035.89,-206.22"/>
<polygon fill="black" stroke="black" points="7035.37,-209.68 7045.8,-207.85 7036.5,-202.77 7035.37,-209.68"/>
</g>
<!-- b29 -->
<g id="node30" class="node">
<title>b29</title>
<polygon fill="lightblue" stroke="black" points="7329,-128 7046,-128 7046,-76 7329,-76 7329,-128"/>
<text text-anchor="middle" x="7187.5" y="-116" font-family="Helvetica" font-size="10.00">B29</text>
<text text-anchor="middle" x="7187.5" y="-105" font-family="Helvetica" font-size="10.00">Loop: L0</text>
<text text-anchor="middle" x="7187.5" y="-94" font-family="Helvetica" font-size="10.00">&#45;&#45;&#45;</text>
<text text-anchor="middle" x="7187.5" y="-83" font-family="Helvetica" font-size="10.00">HotSpotMethod&lt;LoopBenchmarks.sieveLoop(boolean[], int)&gt;</text>
</g>
<!-- b27&#45;&gt;b29 -->
<g id="edge41" class="edge">
<title>b27&#45;&gt;b29</title>
<path fill="none" stroke="black" d="M6938.21,-143.49C6969.95,-138.18 7003.76,-132.53 7035.89,-127.17"/>
<polygon fill="black" stroke="black" points="7036.52,-130.61 7045.8,-125.51 7035.36,-123.71 7036.52,-130.61"/>
</g>
<!-- b28&#45;&gt;b26 -->
<g id="edge42" class="edge">
<title>b28&#45;&gt;b26</title>
<path fill="none" stroke="black" d="M7147.74,-257.06C7100.56,-287.06 7017.35,-334.57 6938,-353 6815.48,-381.45 6777.42,-381.85 6655,-353 6579.89,-335.3 6501.58,-291.27 6453.41,-260.75"/>
<polygon fill="black" stroke="black" points="6455.09,-257.66 6444.78,-255.21 6451.31,-263.56 6455.09,-257.66"/>
</g>
<!-- b29&#45;&gt;b26 -->
<g id="edge43" class="edge">
<title>b29&#45;&gt;b26</title>
<path fill="none" stroke="black" d="M7045.94,-85.62C6937.58,-77.09 6784.81,-74.02 6655,-105 6579.94,-122.91 6501.61,-166.89 6453.44,-197.34"/>
<polygon fill="black" stroke="black" points="6451.34,-194.53 6444.8,-202.86 6455.11,-200.43 6451.34,-194.53"/>
</g>
<!-- b33 -->
<g id="node34" class="node">
<title>b33</title>
<polygon fill="white" stroke="black" points="4584,-569 4301,-569 4301,-517 4584,-517 4584,-569"/>
<text text-anchor="middle" x="4442.5" y="-557" font-family="Helvetica" font-size="10.00">B33</text>
<text text-anchor="middle" x="4442.5" y="-546" font-family="Helvetica" font-size="10.00">Loop: &lt;none&gt;</text>
<text text-anchor="middle" x="4442.5" y="-535" font-family="Helvetica" font-size="10.00">&#45;&#45;&#45;</text>
<text text-anchor="middle" x="4442.5" y="-524" font-family="Helvetica" font-size="10.00">HotSpotMethod&lt;LoopBenchmarks.sieveLoop(boolean[], int)&gt;</text>
</g>
<!-- b31&#45;&gt;b33 -->
<g id="edge44" class="edge">
<title>b31&#45;&gt;b33</title>
<path fill="none" stroke="black" d="M4129.35,-437.08C4194.35,-459.14 4287.43,-490.72 4355.02,-513.66"/>
<polygon fill="black" stroke="black" points="4354.21,-517.08 4364.81,-516.98 4356.46,-510.45 4354.21,-517.08"/>
</g>
<!-- b32&#45;&gt;b33 -->
<g id="edge45" class="edge">
<title>b32&#45;&gt;b33</title>
<path fill="none" stroke="black" d="M3802.3,-540.54C3940.18,-541.07 4149.56,-541.88 4290.76,-542.42"/>
<polygon fill="black" stroke="black" points="4290.79,-545.92 4300.8,-542.46 4290.82,-538.92 4290.79,-545.92"/>
</g>
<!-- b37 -->
<g id="node38" class="node">
<title>b37</title>
<polygon fill="white" stroke="black" points="3020,-758 2737,-758 2737,-706 3020,-706 3020,-758"/>
<text text-anchor="middle" x="2878.5" y="-746" font-family="Helvetica" font-size="10.00">B37</text>
<text text-anchor="middle" x="2878.5" y="-735" font-family="Helvetica" font-size="10.00">Loop: &lt;none&gt;</text>
<text text-anchor="middle" x="2878.5" y="-724" font-family="Helvetica" font-size="10.00">&#45;&#45;&#45;</text>
<text text-anchor="middle" x="2878.5" y="-713" font-family="Helvetica" font-size="10.00">HotSpotMethod&lt;LoopBenchmarks.sieveLoop(boolean[], int)&gt;</text>
</g>
<!-- b34&#45;&gt;b37 -->
<g id="edge46" class="edge">
<title>b34&#45;&gt;b37</title>
<path fill="none" stroke="black" d="M2563.5,-623.03C2629.19,-645.82 2724.55,-678.92 2792.93,-702.65"/>
<polygon fill="black" stroke="black" points="2791.8,-705.96 2802.4,-705.94 2794.1,-699.35 2791.8,-705.96"/>
</g>
<!-- b35&#45;&gt;b37 -->
<g id="edge47" class="edge">
<title>b35&#45;&gt;b37</title>
<path fill="none" stroke="black" d="M2238.3,-727.08C2376.18,-728.14 2585.56,-729.75 2726.76,-730.84"/>
<polygon fill="black" stroke="black" points="2726.78,-734.34 2736.8,-730.92 2726.83,-727.34 2726.78,-734.34"/>
</g>
<!-- b36&#45;&gt;b37 -->
<g id="edge48" class="edge">
<title>b36&#45;&gt;b37</title>
<path fill="none" stroke="black" d="M1847.35,-868.26C2028.79,-854.65 2353.59,-826.73 2629,-784 2670.45,-777.57 2715.41,-768.74 2755.56,-760.17"/>
<polygon fill="black" stroke="black" points="2756.34,-763.58 2765.39,-758.06 2754.87,-756.74 2756.34,-763.58"/>
</g>
</g>
</svg>
