<?xml version="1.0" encoding="UTF-8" standalone="no"?>
<!DOCTYPE svg PUBLIC "-//W3C//DTD SVG 1.1//EN"
 "http://www.w3.org/Graphics/SVG/1.1/DTD/svg11.dtd">
<!-- Generated by graphviz version 2.44.0 (0)
 -->
<!-- Title: CFG_30 Pages: 1 -->
<svg width="3220pt" height="516pt"
 viewBox="0.00 0.00 3220.00 516.00" xmlns="http://www.w3.org/2000/svg" xmlns:xlink="http://www.w3.org/1999/xlink">
<g id="graph0" class="graph" transform="scale(1 1) rotate(0) translate(4 512)">
<title>CFG_30</title>
<polygon fill="white" stroke="transparent" points="-4,4 -4,-512 3216,-512 3216,4 -4,4"/>
<text text-anchor="middle" x="303" y="-488" font-family="Times-Roman" font-size="20.00">53&#45;java.util.ImmutableCollections$SetN$SetNIterator.next()</text>
<!-- b0 -->
<g id="node1" class="node">
<title>b0</title>
<polygon fill="white" stroke="black" points="305,-114 0,-114 0,-62 305,-62 305,-114"/>
<text text-anchor="middle" x="152.5" y="-102" font-family="Helvetica" font-size="10.00">B0</text>
<text text-anchor="middle" x="152.5" y="-91" font-family="Helvetica" font-size="10.00">Loop: &lt;none&gt;</text>
<text text-anchor="middle" x="152.5" y="-80" font-family="Helvetica" font-size="10.00">&#45;&#45;&#45;</text>
<text text-anchor="middle" x="152.5" y="-69" font-family="Helvetica" font-size="10.00">HotSpotMethod&lt;ImmutableCollections$SetN$SetNIterator.next()&gt;</text>
</g>
<!-- b1 -->
<g id="node2" class="node">
<title>b1</title>
<polygon fill="white" stroke="black" points="718,-181 413,-181 413,-129 718,-129 718,-181"/>
<text text-anchor="middle" x="565.5" y="-169" font-family="Helvetica" font-size="10.00">B1</text>
<text text-anchor="middle" x="565.5" y="-158" font-family="Helvetica" font-size="10.00">Loop: &lt;none&gt;</text>
<text text-anchor="middle" x="565.5" y="-147" font-family="Helvetica" font-size="10.00">&#45;&#45;&#45;</text>
<text text-anchor="middle" x="565.5" y="-136" font-family="Helvetica" font-size="10.00">HotSpotMethod&lt;ImmutableCollections$SetN$SetNIterator.next()&gt;</text>
</g>
<!-- b0&#45;&gt;b1 -->
<g id="edge1" class="edge">
<title>b0&#45;&gt;b1</title>
<path fill="none" stroke="black" d="M305.08,-112.71C336.91,-117.9 370.59,-123.39 402.77,-128.64"/>
<polygon fill="black" stroke="black" points="402.27,-132.1 412.7,-130.25 403.4,-125.19 402.27,-132.1"/>
</g>
<!-- b12 -->
<g id="node13" class="node">
<title>b12</title>
<polygon fill="white" stroke="black" points="718,-52 413,-52 413,0 718,0 718,-52"/>
<text text-anchor="middle" x="565.5" y="-40" font-family="Helvetica" font-size="10.00">B12</text>
<text text-anchor="middle" x="565.5" y="-29" font-family="Helvetica" font-size="10.00">Loop: &lt;none&gt;</text>
<text text-anchor="middle" x="565.5" y="-18" font-family="Helvetica" font-size="10.00">&#45;&#45;&#45;</text>
<text text-anchor="middle" x="565.5" y="-7" font-family="Helvetica" font-size="10.00">HotSpotMethod&lt;ImmutableCollections$SetN$SetNIterator.next()&gt;</text>
</g>
<!-- b0&#45;&gt;b12 -->
<g id="edge2" class="edge">
<title>b0&#45;&gt;b12</title>
<path fill="none" stroke="black" d="M305.08,-65.13C336.91,-60.33 370.59,-55.25 402.77,-50.4"/>
<polygon fill="black" stroke="black" points="403.34,-53.85 412.7,-48.9 402.29,-46.93 403.34,-53.85"/>
</g>
<!-- b2 -->
<g id="node3" class="node">
<title>b2</title>
<polygon fill="white" stroke="black" points="1131,-181 826,-181 826,-129 1131,-129 1131,-181"/>
<text text-anchor="middle" x="978.5" y="-169" font-family="Helvetica" font-size="10.00">B2</text>
<text text-anchor="middle" x="978.5" y="-158" font-family="Helvetica" font-size="10.00">Loop: &lt;none&gt;</text>
<text text-anchor="middle" x="978.5" y="-147" font-family="Helvetica" font-size="10.00">&#45;&#45;&#45;</text>
<text text-anchor="middle" x="978.5" y="-136" font-family="Helvetica" font-size="10.00">HotSpotMethod&lt;ImmutableCollections$SetN$SetNIterator.next()&gt;</text>
</g>
<!-- b1&#45;&gt;b2 -->
<g id="edge3" class="edge">
<title>b1&#45;&gt;b2</title>
<path fill="none" stroke="black" d="M718.08,-155C749.77,-155 783.3,-155 815.35,-155"/>
<polygon fill="black" stroke="black" points="815.7,-158.5 825.7,-155 815.7,-151.5 815.7,-158.5"/>
</g>
<!-- b3 -->
<g id="node4" class="node">
<title>b3</title>
<polygon fill="white" stroke="black" points="1131,-305 826,-305 826,-253 1131,-253 1131,-305"/>
<text text-anchor="middle" x="978.5" y="-293" font-family="Helvetica" font-size="10.00">B3</text>
<text text-anchor="middle" x="978.5" y="-282" font-family="Helvetica" font-size="10.00">Loop: &lt;none&gt;</text>
<text text-anchor="middle" x="978.5" y="-271" font-family="Helvetica" font-size="10.00">&#45;&#45;&#45;</text>
<text text-anchor="middle" x="978.5" y="-260" font-family="Helvetica" font-size="10.00">HotSpotMethod&lt;ImmutableCollections$SetN$SetNIterator.next()&gt;</text>
</g>
<!-- b1&#45;&gt;b3 -->
<g id="edge4" class="edge">
<title>b1&#45;&gt;b3</title>
<path fill="none" stroke="black" d="M652.91,-181.07C719.81,-201.25 812.42,-229.2 881.6,-250.07"/>
<polygon fill="black" stroke="black" points="880.62,-253.43 891.21,-252.96 882.64,-246.73 880.62,-253.43"/>
</g>
<!-- b13 -->
<g id="node14" class="node">
<title>b13</title>
<polygon fill="white" stroke="black" points="1548,-103 1243,-103 1243,-51 1548,-51 1548,-103"/>
<text text-anchor="middle" x="1395.5" y="-91" font-family="Helvetica" font-size="10.00">B13</text>
<text text-anchor="middle" x="1395.5" y="-80" font-family="Helvetica" font-size="10.00">Loop: &lt;none&gt;</text>
<text text-anchor="middle" x="1395.5" y="-69" font-family="Helvetica" font-size="10.00">&#45;&#45;&#45;</text>
<text text-anchor="middle" x="1395.5" y="-58" font-family="Helvetica" font-size="10.00">HotSpotMethod&lt;ImmutableCollections$SetN$SetNIterator.next()&gt;</text>
</g>
<!-- b2&#45;&gt;b13 -->
<g id="edge5" class="edge">
<title>b2&#45;&gt;b13</title>
<path fill="none" stroke="black" d="M1117.98,-128.97C1159.11,-121.24 1204.33,-112.74 1246.07,-104.9"/>
<polygon fill="black" stroke="black" points="1246.85,-108.31 1256.04,-103.02 1245.56,-101.43 1246.85,-108.31"/>
</g>
<!-- b4 -->
<g id="node5" class="node">
<title>b4</title>
<polygon fill="white" stroke="black" stroke-width="4" points="1548,-292.5 1243,-292.5 1243,-207.5 1548,-207.5 1548,-292.5"/>
<polygon fill="none" stroke="black" stroke-width="4" points="1552,-296.5 1239,-296.5 1239,-203.5 1552,-203.5 1552,-296.5"/>
<text text-anchor="middle" x="1395.5" y="-280.5" font-family="Helvetica" font-size="10.00">B4</text>
<text text-anchor="middle" x="1395.5" y="-269.5" font-family="Helvetica" font-size="10.00">Loop: &lt;none&gt;</text>
<text text-anchor="middle" x="1395.5" y="-258.5" font-family="Helvetica" font-size="10.00">&#45;&#45;&#45;</text>
<text text-anchor="middle" x="1395.5" y="-247.5" font-family="Helvetica" font-size="10.00">HotSpotMethod&lt;ImmutableCollections$SetN$SetNIterator.next()&gt;</text>
<text text-anchor="middle" x="1395.5" y="-236.5" font-family="Helvetica" font-size="10.00">&#45;&#45;&#45;</text>
<text text-anchor="middle" x="1395.5" y="-225.5" font-family="Helvetica" font-size="10.00">BuboLoopMakers:</text>
<text text-anchor="middle" x="1395.5" y="-214.5" font-family="Helvetica" font-size="10.00"> &#160;AMD64BuboRDTSCToSlot (LoopID=0)</text>
</g>
<!-- b3&#45;&gt;b4 -->
<g id="edge6" class="edge">
<title>b3&#45;&gt;b4</title>
<path fill="none" stroke="black" d="M1131.09,-268.41C1162.74,-266.2 1196.27,-263.85 1228.42,-261.61"/>
<polygon fill="black" stroke="black" points="1229.07,-265.07 1238.8,-260.88 1228.58,-258.09 1229.07,-265.07"/>
</g>
<!-- b10 -->
<g id="node11" class="node">
<title>b10</title>
<polygon fill="white" stroke="black" points="1965,-478 1660,-478 1660,-426 1965,-426 1965,-478"/>
<text text-anchor="middle" x="1812.5" y="-466" font-family="Helvetica" font-size="10.00">B10</text>
<text text-anchor="middle" x="1812.5" y="-455" font-family="Helvetica" font-size="10.00">Loop: &lt;none&gt;</text>
<text text-anchor="middle" x="1812.5" y="-444" font-family="Helvetica" font-size="10.00">&#45;&#45;&#45;</text>
<text text-anchor="middle" x="1812.5" y="-433" font-family="Helvetica" font-size="10.00">HotSpotMethod&lt;ImmutableCollections$SetN$SetNIterator.next()&gt;</text>
</g>
<!-- b3&#45;&gt;b10 -->
<g id="edge7" class="edge">
<title>b3&#45;&gt;b10</title>
<path fill="none" stroke="black" d="M1104.96,-305.09C1258.81,-337.08 1518.55,-391.09 1676.59,-423.95"/>
<polygon fill="black" stroke="black" points="1675.88,-427.37 1686.38,-425.98 1677.3,-420.52 1675.88,-427.37"/>
</g>
<!-- b5 -->
<g id="node6" class="node">
<title>b5</title>
<polygon fill="lightblue" stroke="black" points="1965,-268 1660,-268 1660,-216 1965,-216 1965,-268"/>
<text text-anchor="middle" x="1812.5" y="-256" font-family="Helvetica" font-size="10.00">B5</text>
<text text-anchor="middle" x="1812.5" y="-245" font-family="Helvetica" font-size="10.00">Loop: L0</text>
<text text-anchor="middle" x="1812.5" y="-234" font-family="Helvetica" font-size="10.00">&#45;&#45;&#45;</text>
<text text-anchor="middle" x="1812.5" y="-223" font-family="Helvetica" font-size="10.00">HotSpotMethod&lt;ImmutableCollections$SetN$SetNIterator.next()&gt;</text>
</g>
<!-- b4&#45;&gt;b5 -->
<g id="edge8" class="edge">
<title>b4&#45;&gt;b5</title>
<path fill="none" stroke="black" d="M1552.21,-247C1583.96,-246.39 1617.45,-245.74 1649.41,-245.12"/>
<polygon fill="black" stroke="black" points="1649.81,-248.62 1659.74,-244.93 1649.67,-241.62 1649.81,-248.62"/>
</g>
<!-- b6 -->
<g id="node7" class="node">
<title>b6</title>
<polygon fill="lightblue" stroke="black" points="2378,-341 2073,-341 2073,-289 2378,-289 2378,-341"/>
<text text-anchor="middle" x="2225.5" y="-329" font-family="Helvetica" font-size="10.00">B6</text>
<text text-anchor="middle" x="2225.5" y="-318" font-family="Helvetica" font-size="10.00">Loop: L0</text>
<text text-anchor="middle" x="2225.5" y="-307" font-family="Helvetica" font-size="10.00">&#45;&#45;&#45;</text>
<text text-anchor="middle" x="2225.5" y="-296" font-family="Helvetica" font-size="10.00">HotSpotMethod&lt;ImmutableCollections$SetN$SetNIterator.next()&gt;</text>
</g>
<!-- b5&#45;&gt;b6 -->
<g id="edge9" class="edge">
<title>b5&#45;&gt;b6</title>
<path fill="none" stroke="black" d="M1960.14,-268.05C1995.12,-274.26 2032.58,-280.91 2067.99,-287.2"/>
<polygon fill="black" stroke="black" points="2067.46,-290.66 2077.92,-288.96 2068.68,-283.77 2067.46,-290.66"/>
</g>
<!-- b9 -->
<g id="node10" class="node">
<title>b9</title>
<polygon fill="white" stroke="black" points="2378,-217 2073,-217 2073,-165 2378,-165 2378,-217"/>
<text text-anchor="middle" x="2225.5" y="-205" font-family="Helvetica" font-size="10.00">B9</text>
<text text-anchor="middle" x="2225.5" y="-194" font-family="Helvetica" font-size="10.00">Loop: &lt;none&gt;</text>
<text text-anchor="middle" x="2225.5" y="-183" font-family="Helvetica" font-size="10.00">&#45;&#45;&#45;</text>
<text text-anchor="middle" x="2225.5" y="-172" font-family="Helvetica" font-size="10.00">HotSpotMethod&lt;ImmutableCollections$SetN$SetNIterator.next()&gt;</text>
</g>
<!-- b5&#45;&gt;b9 -->
<g id="edge10" class="edge">
<title>b5&#45;&gt;b9</title>
<path fill="none" stroke="black" d="M1965.08,-223.19C1996.91,-219.24 2030.59,-215.06 2062.77,-211.07"/>
<polygon fill="black" stroke="black" points="2063.21,-214.54 2072.7,-209.84 2062.35,-207.59 2063.21,-214.54"/>
</g>
<!-- b7 -->
<g id="node8" class="node">
<title>b7</title>
<polygon fill="lightblue" stroke="black" points="2795,-134 2490,-134 2490,-82 2795,-82 2795,-134"/>
<text text-anchor="middle" x="2642.5" y="-122" font-family="Helvetica" font-size="10.00">B7</text>
<text text-anchor="middle" x="2642.5" y="-111" font-family="Helvetica" font-size="10.00">Loop: L0</text>
<text text-anchor="middle" x="2642.5" y="-100" font-family="Helvetica" font-size="10.00">&#45;&#45;&#45;</text>
<text text-anchor="middle" x="2642.5" y="-89" font-family="Helvetica" font-size="10.00">HotSpotMethod&lt;ImmutableCollections$SetN$SetNIterator.next()&gt;</text>
</g>
<!-- b6&#45;&gt;b7 -->
<g id="edge11" class="edge">
<title>b6&#45;&gt;b7</title>
<path fill="none" stroke="black" d="M2295.1,-288.86C2321.33,-278.36 2351.33,-265.74 2378,-253 2452.82,-217.25 2536.22,-170.05 2588.76,-139.37"/>
<polygon fill="black" stroke="black" points="2590.7,-142.29 2597.56,-134.21 2587.16,-136.25 2590.7,-142.29"/>
</g>
<!-- b8 -->
<g id="node9" class="node">
<title>b8</title>
<polygon fill="white" stroke="black" stroke-width="4" points="2795,-346.5 2490,-346.5 2490,-261.5 2795,-261.5 2795,-346.5"/>
<polygon fill="none" stroke="black" stroke-width="4" points="2799,-350.5 2486,-350.5 2486,-257.5 2799,-257.5 2799,-350.5"/>
<text text-anchor="middle" x="2642.5" y="-334.5" font-family="Helvetica" font-size="10.00">B8</text>
<text text-anchor="middle" x="2642.5" y="-323.5" font-family="Helvetica" font-size="10.00">Loop: &lt;none&gt;</text>
<text text-anchor="middle" x="2642.5" y="-312.5" font-family="Helvetica" font-size="10.00">&#45;&#45;&#45;</text>
<text text-anchor="middle" x="2642.5" y="-301.5" font-family="Helvetica" font-size="10.00">HotSpotMethod&lt;ImmutableCollections$SetN$SetNIterator.next()&gt;</text>
<text text-anchor="middle" x="2642.5" y="-290.5" font-family="Helvetica" font-size="10.00">&#45;&#45;&#45;</text>
<text text-anchor="middle" x="2642.5" y="-279.5" font-family="Helvetica" font-size="10.00">BuboLoopMakers:</text>
<text text-anchor="middle" x="2642.5" y="-268.5" font-family="Helvetica" font-size="10.00"> &#160;AMD64BuboWriteDeltaRDTSC (LoopID=0)</text>
</g>
<!-- b6&#45;&gt;b8 -->
<g id="edge12" class="edge">
<title>b6&#45;&gt;b8</title>
<path fill="none" stroke="black" d="M2378.09,-310.98C2409.74,-310.14 2443.27,-309.25 2475.42,-308.4"/>
<polygon fill="black" stroke="black" points="2475.9,-311.89 2485.8,-308.13 2475.71,-304.89 2475.9,-311.89"/>
</g>
<!-- b7&#45;&gt;b5 -->
<g id="edge13" class="edge">
<title>b7&#45;&gt;b5</title>
<path fill="none" stroke="black" d="M2489.9,-98.42C2374.22,-94.74 2211.67,-97.43 2073,-129 1998.65,-145.92 1919.08,-183.85 1867.95,-211.1"/>
<polygon fill="black" stroke="black" points="1866.2,-208.07 1859.05,-215.89 1869.51,-214.23 1866.2,-208.07"/>
</g>
<!-- b11 -->
<g id="node12" class="node">
<title>b11</title>
<polygon fill="white" stroke="black" points="3212,-408 2907,-408 2907,-356 3212,-356 3212,-408"/>
<text text-anchor="middle" x="3059.5" y="-396" font-family="Helvetica" font-size="10.00">B11</text>
<text text-anchor="middle" x="3059.5" y="-385" font-family="Helvetica" font-size="10.00">Loop: &lt;none&gt;</text>
<text text-anchor="middle" x="3059.5" y="-374" font-family="Helvetica" font-size="10.00">&#45;&#45;&#45;</text>
<text text-anchor="middle" x="3059.5" y="-363" font-family="Helvetica" font-size="10.00">HotSpotMethod&lt;ImmutableCollections$SetN$SetNIterator.next()&gt;</text>
</g>
<!-- b8&#45;&gt;b11 -->
<g id="edge14" class="edge">
<title>b8&#45;&gt;b11</title>
<path fill="none" stroke="black" d="M2799.21,-333.27C2835.48,-340.08 2874,-347.32 2909.94,-354.08"/>
<polygon fill="black" stroke="black" points="2909.53,-357.56 2920.01,-355.97 2910.83,-350.68 2909.53,-357.56"/>
</g>
<!-- b10&#45;&gt;b11 -->
<g id="edge15" class="edge">
<title>b10&#45;&gt;b11</title>
<path fill="none" stroke="black" d="M1965.23,-443.47C2201.24,-430.2 2654.29,-404.73 2896.46,-391.11"/>
<polygon fill="black" stroke="black" points="2896.98,-394.59 2906.77,-390.53 2896.58,-387.6 2896.98,-394.59"/>
</g>
<!-- b12&#45;&gt;b13 -->
<g id="edge16" class="edge">
<title>b12&#45;&gt;b13</title>
<path fill="none" stroke="black" d="M718.37,-35.35C864.18,-44.34 1083.7,-57.86 1232.74,-67.04"/>
<polygon fill="black" stroke="black" points="1232.7,-70.54 1242.9,-67.66 1233.13,-63.55 1232.7,-70.54"/>
</g>
</g>
</svg>
