<?xml version="1.0" encoding="UTF-8" standalone="no"?>
<!DOCTYPE svg PUBLIC "-//W3C//DTD SVG 1.1//EN"
 "http://www.w3.org/Graphics/SVG/1.1/DTD/svg11.dtd">
<!-- Generated by graphviz version 2.44.0 (0)
 -->
<!-- Title: CFG_98 Pages: 1 -->
<svg width="446pt" height="214pt"
 viewBox="0.00 0.00 446.00 214.00" xmlns="http://www.w3.org/2000/svg" xmlns:xlink="http://www.w3.org/1999/xlink">
<g id="graph0" class="graph" transform="scale(1 1) rotate(0) translate(4 210)">
<title>CFG_98</title>
<polygon fill="white" stroke="transparent" points="-4,4 -4,-210 442,-210 442,4 -4,4"/>
<text text-anchor="middle" x="158" y="-186" font-family="Times-Roman" font-size="20.00">146&#45;java.lang.String.isLatin1()</text>
<!-- b0 -->
<g id="node1" class="node">
<title>b0</title>
<polygon fill="white" stroke="black" points="165,-114 0,-114 0,-62 165,-62 165,-114"/>
<text text-anchor="middle" x="82.5" y="-102" font-family="Helvetica" font-size="10.00">B0</text>
<text text-anchor="middle" x="82.5" y="-91" font-family="Helvetica" font-size="10.00">Loop: &lt;none&gt;</text>
<text text-anchor="middle" x="82.5" y="-80" font-family="Helvetica" font-size="10.00">&#45;&#45;&#45;</text>
<text text-anchor="middle" x="82.5" y="-69" font-family="Helvetica" font-size="10.00">HotSpotMethod&lt;String.isLatin1()&gt;</text>
</g>
<!-- b1 -->
<g id="node2" class="node">
<title>b1</title>
<polygon fill="white" stroke="black" points="438,-176 273,-176 273,-124 438,-124 438,-176"/>
<text text-anchor="middle" x="355.5" y="-164" font-family="Helvetica" font-size="10.00">B1</text>
<text text-anchor="middle" x="355.5" y="-153" font-family="Helvetica" font-size="10.00">Loop: &lt;none&gt;</text>
<text text-anchor="middle" x="355.5" y="-142" font-family="Helvetica" font-size="10.00">&#45;&#45;&#45;</text>
<text text-anchor="middle" x="355.5" y="-131" font-family="Helvetica" font-size="10.00">HotSpotMethod&lt;String.isLatin1()&gt;</text>
</g>
<!-- b0&#45;&gt;b1 -->
<g id="edge1" class="edge">
<title>b0&#45;&gt;b1</title>
<path fill="none" stroke="black" d="M165.18,-106.69C195.97,-113.73 231.2,-121.79 262.85,-129.03"/>
<polygon fill="black" stroke="black" points="262.46,-132.53 272.99,-131.35 264.02,-125.71 262.46,-132.53"/>
</g>
<!-- b2 -->
<g id="node3" class="node">
<title>b2</title>
<polygon fill="white" stroke="black" points="438,-52 273,-52 273,0 438,0 438,-52"/>
<text text-anchor="middle" x="355.5" y="-40" font-family="Helvetica" font-size="10.00">B2</text>
<text text-anchor="middle" x="355.5" y="-29" font-family="Helvetica" font-size="10.00">Loop: &lt;none&gt;</text>
<text text-anchor="middle" x="355.5" y="-18" font-family="Helvetica" font-size="10.00">&#45;&#45;&#45;</text>
<text text-anchor="middle" x="355.5" y="-7" font-family="Helvetica" font-size="10.00">HotSpotMethod&lt;String.isLatin1()&gt;</text>
</g>
<!-- b0&#45;&gt;b2 -->
<g id="edge2" class="edge">
<title>b0&#45;&gt;b2</title>
<path fill="none" stroke="black" d="M165.18,-69.31C195.97,-62.27 231.2,-54.21 262.85,-46.97"/>
<polygon fill="black" stroke="black" points="264.02,-50.29 272.99,-44.65 262.46,-43.47 264.02,-50.29"/>
</g>
</g>
</svg>
