<?xml version="1.0" encoding="UTF-8" standalone="no"?>
<!DOCTYPE svg PUBLIC "-//W3C//DTD SVG 1.1//EN"
 "http://www.w3.org/Graphics/SVG/1.1/DTD/svg11.dtd">
<!-- Generated by graphviz version 2.44.0 (0)
 -->
<!-- Title: CFG_122 Pages: 1 -->
<svg width="6341pt" height="967pt"
 viewBox="0.00 0.00 6341.00 966.61" xmlns="http://www.w3.org/2000/svg" xmlns:xlink="http://www.w3.org/1999/xlink">
<g id="graph0" class="graph" transform="scale(1 1) rotate(0) translate(4 962.61)">
<title>CFG_122</title>
<polygon fill="white" stroke="transparent" points="-4,4 -4,-962.61 6337,-962.61 6337,4 -4,4"/>
<text text-anchor="middle" x="189" y="-938.61" font-family="Times-Roman" font-size="20.00">184&#45;LoopBenchmarks.main(String[])</text>
<!-- b0 -->
<g id="node1" class="node">
<title>b0</title>
<polygon fill="white" stroke="black" points="331,-346.61 0,-346.61 0,-283.61 331,-283.61 331,-346.61"/>
<text text-anchor="middle" x="165.5" y="-334.61" font-family="Helvetica" font-size="10.00">B0</text>
<text text-anchor="middle" x="165.5" y="-323.61" font-family="Helvetica" font-size="10.00">Loop: &lt;none&gt;</text>
<text text-anchor="middle" x="165.5" y="-312.61" font-family="Helvetica" font-size="10.00">&#45;&#45;&#45;</text>
<text text-anchor="middle" x="165.5" y="-301.61" font-family="Helvetica" font-size="10.00">HotSpotMethod&lt;LoopBenchmarks.main(String[])&gt;</text>
<text text-anchor="middle" x="165.5" y="-290.61" font-family="Helvetica" font-size="10.00">HotSpotMethod&lt;LoopBenchmarks.mandelbrotLoop(double, double, int)&gt;</text>
</g>
<!-- b1 -->
<g id="node2" class="node">
<title>b1</title>
<polygon fill="white" stroke="black" stroke-width="4" points="774,-468.11 443,-468.11 443,-372.11 774,-372.11 774,-468.11"/>
<polygon fill="none" stroke="black" stroke-width="4" points="778,-472.11 439,-472.11 439,-368.11 778,-368.11 778,-472.11"/>
<text text-anchor="middle" x="608.5" y="-456.11" font-family="Helvetica" font-size="10.00">B1</text>
<text text-anchor="middle" x="608.5" y="-445.11" font-family="Helvetica" font-size="10.00">Loop: &lt;none&gt;</text>
<text text-anchor="middle" x="608.5" y="-434.11" font-family="Helvetica" font-size="10.00">&#45;&#45;&#45;</text>
<text text-anchor="middle" x="608.5" y="-423.11" font-family="Helvetica" font-size="10.00">HotSpotMethod&lt;LoopBenchmarks.main(String[])&gt;</text>
<text text-anchor="middle" x="608.5" y="-412.11" font-family="Helvetica" font-size="10.00">HotSpotMethod&lt;LoopBenchmarks.mandelbrotLoop(double, double, int)&gt;</text>
<text text-anchor="middle" x="608.5" y="-401.11" font-family="Helvetica" font-size="10.00">&#45;&#45;&#45;</text>
<text text-anchor="middle" x="608.5" y="-390.11" font-family="Helvetica" font-size="10.00">BuboLoopMakers:</text>
<text text-anchor="middle" x="608.5" y="-379.11" font-family="Helvetica" font-size="10.00"> &#160;AMD64BuboRDTSCToSlot (LoopID=3)</text>
</g>
<!-- b0&#45;&gt;b1 -->
<g id="edge1" class="edge">
<title>b0&#45;&gt;b1</title>
<path fill="none" stroke="black" d="M298.81,-346.61C339.74,-356.35 385.51,-367.25 429.02,-377.61"/>
<polygon fill="black" stroke="black" points="428.31,-381.04 438.85,-379.95 429.93,-374.23 428.31,-381.04"/>
</g>
<!-- b15 -->
<g id="node16" class="node">
<title>b15</title>
<polygon fill="white" stroke="black" points="1217,-217.61 886,-217.61 886,-154.61 1217,-154.61 1217,-217.61"/>
<text text-anchor="middle" x="1051.5" y="-205.61" font-family="Helvetica" font-size="10.00">B15</text>
<text text-anchor="middle" x="1051.5" y="-194.61" font-family="Helvetica" font-size="10.00">Loop: &lt;none&gt;</text>
<text text-anchor="middle" x="1051.5" y="-183.61" font-family="Helvetica" font-size="10.00">&#45;&#45;&#45;</text>
<text text-anchor="middle" x="1051.5" y="-172.61" font-family="Helvetica" font-size="10.00">HotSpotMethod&lt;LoopBenchmarks.mandelbrotLoop(double, double, int)&gt;</text>
<text text-anchor="middle" x="1051.5" y="-161.61" font-family="Helvetica" font-size="10.00">HotSpotMethod&lt;LoopBenchmarks.main(String[])&gt;</text>
</g>
<!-- b0&#45;&gt;b15 -->
<g id="edge2" class="edge">
<title>b0&#45;&gt;b15</title>
<path fill="none" stroke="black" d="M331.22,-291.07C486.16,-268.46 717.37,-234.72 875.56,-211.63"/>
<polygon fill="black" stroke="black" points="876.49,-215.04 885.88,-210.13 875.48,-208.11 876.49,-215.04"/>
</g>
<!-- b2 -->
<g id="node3" class="node">
<title>b2</title>
<polygon fill="lightblue" stroke="black" points="1217,-471.11 886,-471.11 886,-419.11 1217,-419.11 1217,-471.11"/>
<text text-anchor="middle" x="1051.5" y="-459.11" font-family="Helvetica" font-size="10.00">B2</text>
<text text-anchor="middle" x="1051.5" y="-448.11" font-family="Helvetica" font-size="10.00">Loop: L0</text>
<text text-anchor="middle" x="1051.5" y="-437.11" font-family="Helvetica" font-size="10.00">&#45;&#45;&#45;</text>
<text text-anchor="middle" x="1051.5" y="-426.11" font-family="Helvetica" font-size="10.00">HotSpotMethod&lt;LoopBenchmarks.mandelbrotLoop(double, double, int)&gt;</text>
</g>
<!-- b1&#45;&gt;b2 -->
<g id="edge3" class="edge">
<title>b1&#45;&gt;b2</title>
<path fill="none" stroke="black" d="M778.11,-429.66C810.04,-431.47 843.5,-433.37 875.61,-435.19"/>
<polygon fill="black" stroke="black" points="875.8,-438.71 885.99,-435.78 876.2,-431.72 875.8,-438.71"/>
</g>
<!-- b3 -->
<g id="node4" class="node">
<title>b3</title>
<polygon fill="lightblue" stroke="black" points="1656,-496.11 1325,-496.11 1325,-444.11 1656,-444.11 1656,-496.11"/>
<text text-anchor="middle" x="1490.5" y="-484.11" font-family="Helvetica" font-size="10.00">B3</text>
<text text-anchor="middle" x="1490.5" y="-473.11" font-family="Helvetica" font-size="10.00">Loop: L0</text>
<text text-anchor="middle" x="1490.5" y="-462.11" font-family="Helvetica" font-size="10.00">&#45;&#45;&#45;</text>
<text text-anchor="middle" x="1490.5" y="-451.11" font-family="Helvetica" font-size="10.00">HotSpotMethod&lt;LoopBenchmarks.mandelbrotLoop(double, double, int)&gt;</text>
</g>
<!-- b2&#45;&gt;b3 -->
<g id="edge4" class="edge">
<title>b2&#45;&gt;b3</title>
<path fill="none" stroke="black" d="M1217.09,-454.52C1248.85,-456.34 1282.24,-458.25 1314.33,-460.08"/>
<polygon fill="black" stroke="black" points="1314.51,-463.6 1324.7,-460.68 1314.91,-456.61 1314.51,-463.6"/>
</g>
<!-- b14 -->
<g id="node15" class="node">
<title>b14</title>
<polygon fill="white" stroke="black" points="1656,-372.11 1325,-372.11 1325,-320.11 1656,-320.11 1656,-372.11"/>
<text text-anchor="middle" x="1490.5" y="-360.11" font-family="Helvetica" font-size="10.00">B14</text>
<text text-anchor="middle" x="1490.5" y="-349.11" font-family="Helvetica" font-size="10.00">Loop: &lt;none&gt;</text>
<text text-anchor="middle" x="1490.5" y="-338.11" font-family="Helvetica" font-size="10.00">&#45;&#45;&#45;</text>
<text text-anchor="middle" x="1490.5" y="-327.11" font-family="Helvetica" font-size="10.00">HotSpotMethod&lt;LoopBenchmarks.mandelbrotLoop(double, double, int)&gt;</text>
</g>
<!-- b2&#45;&gt;b14 -->
<g id="edge5" class="edge">
<title>b2&#45;&gt;b14</title>
<path fill="none" stroke="black" d="M1167.32,-419.09C1228.05,-405.34 1302.69,-388.43 1364.83,-374.35"/>
<polygon fill="black" stroke="black" points="1365.71,-377.74 1374.69,-372.12 1364.17,-370.91 1365.71,-377.74"/>
</g>
<!-- b4 -->
<g id="node5" class="node">
<title>b4</title>
<polygon fill="lightblue" stroke="black" points="2099,-646.11 1768,-646.11 1768,-594.11 2099,-594.11 2099,-646.11"/>
<text text-anchor="middle" x="1933.5" y="-634.11" font-family="Helvetica" font-size="10.00">B4</text>
<text text-anchor="middle" x="1933.5" y="-623.11" font-family="Helvetica" font-size="10.00">Loop: L0</text>
<text text-anchor="middle" x="1933.5" y="-612.11" font-family="Helvetica" font-size="10.00">&#45;&#45;&#45;</text>
<text text-anchor="middle" x="1933.5" y="-601.11" font-family="Helvetica" font-size="10.00">HotSpotMethod&lt;LoopBenchmarks.mandelbrotLoop(double, double, int)&gt;</text>
</g>
<!-- b3&#45;&gt;b4 -->
<g id="edge6" class="edge">
<title>b3&#45;&gt;b4</title>
<path fill="none" stroke="black" d="M1568.06,-496.15C1645.57,-522.51 1765.21,-563.2 1846.07,-590.71"/>
<polygon fill="black" stroke="black" points="1845.14,-594.09 1855.73,-594 1847.39,-587.46 1845.14,-594.09"/>
</g>
<!-- b5 -->
<g id="node6" class="node">
<title>b5</title>
<polygon fill="white" stroke="black" stroke-width="4" points="2099,-517.61 1768,-517.61 1768,-410.61 2099,-410.61 2099,-517.61"/>
<polygon fill="none" stroke="black" stroke-width="4" points="2103,-521.61 1764,-521.61 1764,-406.61 2103,-406.61 2103,-521.61"/>
<text text-anchor="middle" x="1933.5" y="-505.61" font-family="Helvetica" font-size="10.00">B5</text>
<text text-anchor="middle" x="1933.5" y="-494.61" font-family="Helvetica" font-size="10.00">Loop: &lt;none&gt;</text>
<text text-anchor="middle" x="1933.5" y="-483.61" font-family="Helvetica" font-size="10.00">&#45;&#45;&#45;</text>
<text text-anchor="middle" x="1933.5" y="-472.61" font-family="Helvetica" font-size="10.00">HotSpotMethod&lt;LoopBenchmarks.mandelbrotLoop(double, double, int)&gt;</text>
<text text-anchor="middle" x="1933.5" y="-461.61" font-family="Helvetica" font-size="10.00">HotSpotMethod&lt;LoopBenchmarks.main(String[])&gt;</text>
<text text-anchor="middle" x="1933.5" y="-450.61" font-family="Helvetica" font-size="10.00">&#45;&#45;&#45;</text>
<text text-anchor="middle" x="1933.5" y="-439.61" font-family="Helvetica" font-size="10.00">BuboLoopMakers:</text>
<text text-anchor="middle" x="1933.5" y="-428.61" font-family="Helvetica" font-size="10.00"> &#160;AMD64BuboWriteDeltaRDTSC</text>
<text text-anchor="middle" x="1933.5" y="-417.61" font-family="Helvetica" font-size="10.00"> &#160;AMD64BuboRDTSCToSlot (LoopID=2)</text>
</g>
<!-- b3&#45;&gt;b5 -->
<g id="edge7" class="edge">
<title>b3&#45;&gt;b5</title>
<path fill="none" stroke="black" d="M1656.03,-467.87C1687.97,-467.43 1721.59,-466.98 1753.96,-466.54"/>
<polygon fill="black" stroke="black" points="1754.01,-470.03 1763.96,-466.4 1753.91,-463.04 1754.01,-470.03"/>
</g>
<!-- b4&#45;&gt;b2 -->
<g id="edge8" class="edge">
<title>b4&#45;&gt;b2</title>
<path fill="none" stroke="black" d="M1767.73,-603.69C1644.75,-589.65 1473.11,-566.23 1325,-532.11 1259.15,-516.93 1186.31,-493.31 1132.51,-474.5"/>
<polygon fill="black" stroke="black" points="1133.63,-471.19 1123.04,-471.17 1131.31,-477.79 1133.63,-471.19"/>
</g>
<!-- b6 -->
<g id="node7" class="node">
<title>b6</title>
<polygon fill="lightgreen" stroke="black" points="2446,-503.11 2211,-503.11 2211,-451.11 2446,-451.11 2446,-503.11"/>
<text text-anchor="middle" x="2328.5" y="-491.11" font-family="Helvetica" font-size="10.00">B6</text>
<text text-anchor="middle" x="2328.5" y="-480.11" font-family="Helvetica" font-size="10.00">Loop: L1</text>
<text text-anchor="middle" x="2328.5" y="-469.11" font-family="Helvetica" font-size="10.00">&#45;&#45;&#45;</text>
<text text-anchor="middle" x="2328.5" y="-458.11" font-family="Helvetica" font-size="10.00">HotSpotMethod&lt;LoopBenchmarks.main(String[])&gt;</text>
</g>
<!-- b5&#45;&gt;b6 -->
<g id="edge9" class="edge">
<title>b5&#45;&gt;b6</title>
<path fill="none" stroke="black" d="M2103.16,-469.69C2135.94,-470.77 2169.78,-471.89 2200.92,-472.92"/>
<polygon fill="black" stroke="black" points="2200.82,-476.42 2210.93,-473.25 2201.05,-469.42 2200.82,-476.42"/>
</g>
<!-- b7 -->
<g id="node8" class="node">
<title>b7</title>
<polygon fill="lightgreen" stroke="black" stroke-width="4" points="2889,-749.11 2558,-749.11 2558,-653.11 2889,-653.11 2889,-749.11"/>
<polygon fill="none" stroke="black" stroke-width="4" points="2893,-753.11 2554,-753.11 2554,-649.11 2893,-649.11 2893,-753.11"/>
<text text-anchor="middle" x="2723.5" y="-737.11" font-family="Helvetica" font-size="10.00">B7</text>
<text text-anchor="middle" x="2723.5" y="-726.11" font-family="Helvetica" font-size="10.00">Loop: L1</text>
<text text-anchor="middle" x="2723.5" y="-715.11" font-family="Helvetica" font-size="10.00">&#45;&#45;&#45;</text>
<text text-anchor="middle" x="2723.5" y="-704.11" font-family="Helvetica" font-size="10.00">HotSpotMethod&lt;LoopBenchmarks.main(String[])&gt;</text>
<text text-anchor="middle" x="2723.5" y="-693.11" font-family="Helvetica" font-size="10.00">HotSpotMethod&lt;LoopBenchmarks.mandelbrotLoop(double, double, int)&gt;</text>
<text text-anchor="middle" x="2723.5" y="-682.11" font-family="Helvetica" font-size="10.00">&#45;&#45;&#45;</text>
<text text-anchor="middle" x="2723.5" y="-671.11" font-family="Helvetica" font-size="10.00">BuboLoopMakers:</text>
<text text-anchor="middle" x="2723.5" y="-660.11" font-family="Helvetica" font-size="10.00"> &#160;AMD64BuboRDTSCToSlot (LoopID=4)</text>
</g>
<!-- b6&#45;&gt;b7 -->
<g id="edge10" class="edge">
<title>b6&#45;&gt;b7</title>
<path fill="none" stroke="black" d="M2375.35,-503.24C2435.5,-537.52 2542.71,-598.63 2622.12,-643.89"/>
<polygon fill="black" stroke="black" points="2620.75,-647.14 2631.18,-649.05 2624.22,-641.06 2620.75,-647.14"/>
</g>
<!-- b12 -->
<g id="node13" class="node">
<title>b12</title>
<polygon fill="white" stroke="black" stroke-width="4" points="2841,-372.61 2606,-372.61 2606,-287.61 2841,-287.61 2841,-372.61"/>
<polygon fill="none" stroke="black" stroke-width="4" points="2845,-376.61 2602,-376.61 2602,-283.61 2845,-283.61 2845,-376.61"/>
<text text-anchor="middle" x="2723.5" y="-360.61" font-family="Helvetica" font-size="10.00">B12</text>
<text text-anchor="middle" x="2723.5" y="-349.61" font-family="Helvetica" font-size="10.00">Loop: &lt;none&gt;</text>
<text text-anchor="middle" x="2723.5" y="-338.61" font-family="Helvetica" font-size="10.00">&#45;&#45;&#45;</text>
<text text-anchor="middle" x="2723.5" y="-327.61" font-family="Helvetica" font-size="10.00">HotSpotMethod&lt;LoopBenchmarks.main(String[])&gt;</text>
<text text-anchor="middle" x="2723.5" y="-316.61" font-family="Helvetica" font-size="10.00">&#45;&#45;&#45;</text>
<text text-anchor="middle" x="2723.5" y="-305.61" font-family="Helvetica" font-size="10.00">BuboLoopMakers:</text>
<text text-anchor="middle" x="2723.5" y="-294.61" font-family="Helvetica" font-size="10.00"> &#160;AMD64BuboWriteDeltaRDTSC (LoopID=2)</text>
</g>
<!-- b6&#45;&gt;b12 -->
<g id="edge11" class="edge">
<title>b6&#45;&gt;b12</title>
<path fill="none" stroke="black" d="M2399.31,-450.99C2452.71,-431.02 2527.87,-402.91 2592.27,-378.82"/>
<polygon fill="black" stroke="black" points="2593.55,-382.08 2601.69,-375.3 2591.1,-375.52 2593.55,-382.08"/>
</g>
<!-- b8 -->
<g id="node9" class="node">
<title>b8</title>
<polygon fill="lightpink" stroke="black" points="3332,-754.11 3001,-754.11 3001,-702.11 3332,-702.11 3332,-754.11"/>
<text text-anchor="middle" x="3166.5" y="-742.11" font-family="Helvetica" font-size="10.00">B8</text>
<text text-anchor="middle" x="3166.5" y="-731.11" font-family="Helvetica" font-size="10.00">Loop: L2</text>
<text text-anchor="middle" x="3166.5" y="-720.11" font-family="Helvetica" font-size="10.00">&#45;&#45;&#45;</text>
<text text-anchor="middle" x="3166.5" y="-709.11" font-family="Helvetica" font-size="10.00">HotSpotMethod&lt;LoopBenchmarks.mandelbrotLoop(double, double, int)&gt;</text>
</g>
<!-- b7&#45;&gt;b8 -->
<g id="edge12" class="edge">
<title>b7&#45;&gt;b8</title>
<path fill="none" stroke="black" d="M2893.11,-711.43C2925.04,-713.38 2958.5,-715.43 2990.61,-717.4"/>
<polygon fill="black" stroke="black" points="2990.79,-720.92 3000.99,-718.03 2991.22,-713.93 2990.79,-720.92"/>
</g>
<!-- b9 -->
<g id="node10" class="node">
<title>b9</title>
<polygon fill="lightpink" stroke="black" points="3771,-647.11 3440,-647.11 3440,-595.11 3771,-595.11 3771,-647.11"/>
<text text-anchor="middle" x="3605.5" y="-635.11" font-family="Helvetica" font-size="10.00">B9</text>
<text text-anchor="middle" x="3605.5" y="-624.11" font-family="Helvetica" font-size="10.00">Loop: L2</text>
<text text-anchor="middle" x="3605.5" y="-613.11" font-family="Helvetica" font-size="10.00">&#45;&#45;&#45;</text>
<text text-anchor="middle" x="3605.5" y="-602.11" font-family="Helvetica" font-size="10.00">HotSpotMethod&lt;LoopBenchmarks.mandelbrotLoop(double, double, int)&gt;</text>
</g>
<!-- b8&#45;&gt;b9 -->
<g id="edge13" class="edge">
<title>b8&#45;&gt;b9</title>
<path fill="none" stroke="black" d="M3273.84,-702.07C3338.61,-686.21 3421.4,-665.94 3487.94,-649.64"/>
<polygon fill="black" stroke="black" points="3489.18,-652.95 3498.06,-647.17 3487.51,-646.15 3489.18,-652.95"/>
</g>
<!-- b13 -->
<g id="node14" class="node">
<title>b13</title>
<polygon fill="white" stroke="black" points="3771,-928.61 3440,-928.61 3440,-865.61 3771,-865.61 3771,-928.61"/>
<text text-anchor="middle" x="3605.5" y="-916.61" font-family="Helvetica" font-size="10.00">B13</text>
<text text-anchor="middle" x="3605.5" y="-905.61" font-family="Helvetica" font-size="10.00">Loop: &lt;none&gt;</text>
<text text-anchor="middle" x="3605.5" y="-894.61" font-family="Helvetica" font-size="10.00">&#45;&#45;&#45;</text>
<text text-anchor="middle" x="3605.5" y="-883.61" font-family="Helvetica" font-size="10.00">HotSpotMethod&lt;LoopBenchmarks.main(String[])&gt;</text>
<text text-anchor="middle" x="3605.5" y="-872.61" font-family="Helvetica" font-size="10.00">HotSpotMethod&lt;LoopBenchmarks.mandelbrotLoop(double, double, int)&gt;</text>
</g>
<!-- b8&#45;&gt;b13 -->
<g id="edge14" class="edge">
<title>b8&#45;&gt;b13</title>
<path fill="none" stroke="black" d="M3234.82,-754.14C3309.52,-783.03 3430.44,-829.79 3513.52,-861.92"/>
<polygon fill="black" stroke="black" points="3512.36,-865.23 3522.95,-865.57 3514.89,-858.7 3512.36,-865.23"/>
</g>
<!-- b10 -->
<g id="node11" class="node">
<title>b10</title>
<polygon fill="lightpink" stroke="black" points="4214,-769.11 3883,-769.11 3883,-717.11 4214,-717.11 4214,-769.11"/>
<text text-anchor="middle" x="4048.5" y="-757.11" font-family="Helvetica" font-size="10.00">B10</text>
<text text-anchor="middle" x="4048.5" y="-746.11" font-family="Helvetica" font-size="10.00">Loop: L2</text>
<text text-anchor="middle" x="4048.5" y="-735.11" font-family="Helvetica" font-size="10.00">&#45;&#45;&#45;</text>
<text text-anchor="middle" x="4048.5" y="-724.11" font-family="Helvetica" font-size="10.00">HotSpotMethod&lt;LoopBenchmarks.mandelbrotLoop(double, double, int)&gt;</text>
</g>
<!-- b9&#45;&gt;b10 -->
<g id="edge15" class="edge">
<title>b9&#45;&gt;b10</title>
<path fill="none" stroke="black" d="M3700.56,-647.13C3771.86,-666.85 3869.79,-693.94 3943.43,-714.32"/>
<polygon fill="black" stroke="black" points="3942.63,-717.73 3953.2,-717.02 3944.5,-710.98 3942.63,-717.73"/>
</g>
<!-- b11 -->
<g id="node12" class="node">
<title>b11</title>
<polygon fill="lightgreen" stroke="black" stroke-width="4" points="4214,-614.11 3883,-614.11 3883,-518.11 4214,-518.11 4214,-614.11"/>
<polygon fill="none" stroke="black" stroke-width="4" points="4218,-618.11 3879,-618.11 3879,-514.11 4218,-514.11 4218,-618.11"/>
<text text-anchor="middle" x="4048.5" y="-602.11" font-family="Helvetica" font-size="10.00">B11</text>
<text text-anchor="middle" x="4048.5" y="-591.11" font-family="Helvetica" font-size="10.00">Loop: L1</text>
<text text-anchor="middle" x="4048.5" y="-580.11" font-family="Helvetica" font-size="10.00">&#45;&#45;&#45;</text>
<text text-anchor="middle" x="4048.5" y="-569.11" font-family="Helvetica" font-size="10.00">HotSpotMethod&lt;LoopBenchmarks.mandelbrotLoop(double, double, int)&gt;</text>
<text text-anchor="middle" x="4048.5" y="-558.11" font-family="Helvetica" font-size="10.00">HotSpotMethod&lt;LoopBenchmarks.main(String[])&gt;</text>
<text text-anchor="middle" x="4048.5" y="-547.11" font-family="Helvetica" font-size="10.00">&#45;&#45;&#45;</text>
<text text-anchor="middle" x="4048.5" y="-536.11" font-family="Helvetica" font-size="10.00">BuboLoopMakers:</text>
<text text-anchor="middle" x="4048.5" y="-525.11" font-family="Helvetica" font-size="10.00"> &#160;AMD64BuboWriteDeltaRDTSC (LoopID=4)</text>
</g>
<!-- b9&#45;&gt;b11 -->
<g id="edge16" class="edge">
<title>b9&#45;&gt;b11</title>
<path fill="none" stroke="black" d="M3771.03,-600.59C3802.97,-596.6 3836.59,-592.41 3868.96,-588.37"/>
<polygon fill="black" stroke="black" points="3869.47,-591.84 3878.96,-587.13 3868.6,-584.89 3869.47,-591.84"/>
</g>
<!-- b10&#45;&gt;b8 -->
<g id="edge17" class="edge">
<title>b10&#45;&gt;b8</title>
<path fill="none" stroke="black" d="M3882.8,-740.3C3728.84,-737.67 3499.7,-733.77 3342.5,-731.09"/>
<polygon fill="black" stroke="black" points="3342.31,-727.59 3332.25,-730.91 3342.19,-734.58 3342.31,-727.59"/>
</g>
<!-- b11&#45;&gt;b6 -->
<g id="edge18" class="edge">
<title>b11&#45;&gt;b6</title>
<path fill="none" stroke="black" d="M3878.96,-557.37C3535.53,-539.58 2761.43,-499.48 2456.44,-483.68"/>
<polygon fill="black" stroke="black" points="2456.4,-480.18 2446.23,-483.15 2456.04,-487.17 2456.4,-480.18"/>
</g>
<!-- b16 -->
<g id="node17" class="node">
<title>b16</title>
<polygon fill="white" stroke="black" stroke-width="4" points="3284,-230.61 3049,-230.61 3049,-145.61 3284,-145.61 3284,-230.61"/>
<polygon fill="none" stroke="black" stroke-width="4" points="3288,-234.61 3045,-234.61 3045,-141.61 3288,-141.61 3288,-234.61"/>
<text text-anchor="middle" x="3166.5" y="-218.61" font-family="Helvetica" font-size="10.00">B16</text>
<text text-anchor="middle" x="3166.5" y="-207.61" font-family="Helvetica" font-size="10.00">Loop: &lt;none&gt;</text>
<text text-anchor="middle" x="3166.5" y="-196.61" font-family="Helvetica" font-size="10.00">&#45;&#45;&#45;</text>
<text text-anchor="middle" x="3166.5" y="-185.61" font-family="Helvetica" font-size="10.00">HotSpotMethod&lt;LoopBenchmarks.main(String[])&gt;</text>
<text text-anchor="middle" x="3166.5" y="-174.61" font-family="Helvetica" font-size="10.00">&#45;&#45;&#45;</text>
<text text-anchor="middle" x="3166.5" y="-163.61" font-family="Helvetica" font-size="10.00">BuboLoopMakers:</text>
<text text-anchor="middle" x="3166.5" y="-152.61" font-family="Helvetica" font-size="10.00"> &#160;AMD64BuboRDTSCToSlot (LoopID=0)</text>
</g>
<!-- b12&#45;&gt;b16 -->
<g id="edge19" class="edge">
<title>b12&#45;&gt;b16</title>
<path fill="none" stroke="black" d="M2845.01,-291.3C2903.95,-272.32 2974.99,-249.45 3035.19,-230.06"/>
<polygon fill="black" stroke="black" points="3036.31,-233.38 3044.76,-226.98 3034.17,-226.72 3036.31,-233.38"/>
</g>
<!-- b15&#45;&gt;b16 -->
<g id="edge20" class="edge">
<title>b15&#45;&gt;b16</title>
<path fill="none" stroke="black" d="M1217.11,-182.52C1393.9,-178.99 1683.07,-174.11 1932.5,-174.11 1932.5,-174.11 1932.5,-174.11 2329.5,-174.11 2578.85,-174.11 2869.98,-180.41 3034.55,-184.56"/>
<polygon fill="black" stroke="black" points="3034.63,-188.06 3044.72,-184.81 3034.81,-181.06 3034.63,-188.06"/>
</g>
<!-- b17 -->
<g id="node18" class="node">
<title>b17</title>
<polygon fill="gold" stroke="black" points="3723,-214.11 3488,-214.11 3488,-162.11 3723,-162.11 3723,-214.11"/>
<text text-anchor="middle" x="3605.5" y="-202.11" font-family="Helvetica" font-size="10.00">B17</text>
<text text-anchor="middle" x="3605.5" y="-191.11" font-family="Helvetica" font-size="10.00">Loop: L3</text>
<text text-anchor="middle" x="3605.5" y="-180.11" font-family="Helvetica" font-size="10.00">&#45;&#45;&#45;</text>
<text text-anchor="middle" x="3605.5" y="-169.11" font-family="Helvetica" font-size="10.00">HotSpotMethod&lt;LoopBenchmarks.main(String[])&gt;</text>
</g>
<!-- b16&#45;&gt;b17 -->
<g id="edge21" class="edge">
<title>b16&#45;&gt;b17</title>
<path fill="none" stroke="black" d="M3288.07,-188.11C3346.94,-188.11 3417.77,-188.11 3477.47,-188.11"/>
<polygon fill="black" stroke="black" points="3477.72,-191.61 3487.72,-188.11 3477.72,-184.61 3477.72,-191.61"/>
</g>
<!-- b18 -->
<g id="node19" class="node">
<title>b18</title>
<polygon fill="gold" stroke="black" stroke-width="4" points="4166,-230.61 3931,-230.61 3931,-145.61 4166,-145.61 4166,-230.61"/>
<polygon fill="none" stroke="black" stroke-width="4" points="4170,-234.61 3927,-234.61 3927,-141.61 4170,-141.61 4170,-234.61"/>
<text text-anchor="middle" x="4048.5" y="-218.61" font-family="Helvetica" font-size="10.00">B18</text>
<text text-anchor="middle" x="4048.5" y="-207.61" font-family="Helvetica" font-size="10.00">Loop: L3</text>
<text text-anchor="middle" x="4048.5" y="-196.61" font-family="Helvetica" font-size="10.00">&#45;&#45;&#45;</text>
<text text-anchor="middle" x="4048.5" y="-185.61" font-family="Helvetica" font-size="10.00">HotSpotMethod&lt;LoopBenchmarks.main(String[])&gt;</text>
<text text-anchor="middle" x="4048.5" y="-174.61" font-family="Helvetica" font-size="10.00">&#45;&#45;&#45;</text>
<text text-anchor="middle" x="4048.5" y="-163.61" font-family="Helvetica" font-size="10.00">BuboLoopMakers:</text>
<text text-anchor="middle" x="4048.5" y="-152.61" font-family="Helvetica" font-size="10.00"> &#160;AMD64BuboRDTSCToSlot (LoopID=1)</text>
</g>
<!-- b17&#45;&gt;b18 -->
<g id="edge22" class="edge">
<title>b17&#45;&gt;b18</title>
<path fill="none" stroke="black" d="M3723.23,-188.11C3782.7,-188.11 3855.2,-188.11 3916.56,-188.11"/>
<polygon fill="black" stroke="black" points="3916.7,-191.61 3926.7,-188.11 3916.7,-184.61 3916.7,-191.61"/>
</g>
<!-- b27 -->
<g id="node28" class="node">
<title>b27</title>
<polygon fill="white" stroke="black" points="4214,-69.61 3883,-69.61 3883,-6.61 4214,-6.61 4214,-69.61"/>
<text text-anchor="middle" x="4048.5" y="-57.61" font-family="Helvetica" font-size="10.00">B27</text>
<text text-anchor="middle" x="4048.5" y="-46.61" font-family="Helvetica" font-size="10.00">Loop: &lt;none&gt;</text>
<text text-anchor="middle" x="4048.5" y="-35.61" font-family="Helvetica" font-size="10.00">&#45;&#45;&#45;</text>
<text text-anchor="middle" x="4048.5" y="-24.61" font-family="Helvetica" font-size="10.00">HotSpotMethod&lt;LoopBenchmarks.mandelbrotLoop(double, double, int)&gt;</text>
<text text-anchor="middle" x="4048.5" y="-13.61" font-family="Helvetica" font-size="10.00">HotSpotMethod&lt;LoopBenchmarks.main(String[])&gt;</text>
</g>
<!-- b17&#45;&gt;b27 -->
<g id="edge23" class="edge">
<title>b17&#45;&gt;b27</title>
<path fill="none" stroke="black" d="M3683.06,-162.06C3755.59,-137.39 3865.01,-100.18 3945.03,-72.96"/>
<polygon fill="black" stroke="black" points="3946.3,-76.22 3954.64,-69.69 3944.05,-69.6 3946.3,-76.22"/>
</g>
<!-- b19 -->
<g id="node20" class="node">
<title>b19</title>
<polygon fill="orange" stroke="black" points="4561,-212.11 4326,-212.11 4326,-160.11 4561,-160.11 4561,-212.11"/>
<text text-anchor="middle" x="4443.5" y="-200.11" font-family="Helvetica" font-size="10.00">B19</text>
<text text-anchor="middle" x="4443.5" y="-189.11" font-family="Helvetica" font-size="10.00">Loop: L4</text>
<text text-anchor="middle" x="4443.5" y="-178.11" font-family="Helvetica" font-size="10.00">&#45;&#45;&#45;</text>
<text text-anchor="middle" x="4443.5" y="-167.11" font-family="Helvetica" font-size="10.00">HotSpotMethod&lt;LoopBenchmarks.main(String[])&gt;</text>
</g>
<!-- b18&#45;&gt;b19 -->
<g id="edge24" class="edge">
<title>b18&#45;&gt;b19</title>
<path fill="none" stroke="black" d="M4170.08,-187.49C4216.22,-187.26 4268.96,-186.99 4315.67,-186.75"/>
<polygon fill="black" stroke="black" points="4315.87,-190.25 4325.85,-186.7 4315.83,-183.25 4315.87,-190.25"/>
</g>
<!-- b20 -->
<g id="node21" class="node">
<title>b20</title>
<polygon fill="orange" stroke="black" stroke-width="4" points="5004,-230.11 4673,-230.11 4673,-134.11 5004,-134.11 5004,-230.11"/>
<polygon fill="none" stroke="black" stroke-width="4" points="5008,-234.11 4669,-234.11 4669,-130.11 5008,-130.11 5008,-234.11"/>
<text text-anchor="middle" x="4838.5" y="-218.11" font-family="Helvetica" font-size="10.00">B20</text>
<text text-anchor="middle" x="4838.5" y="-207.11" font-family="Helvetica" font-size="10.00">Loop: L4</text>
<text text-anchor="middle" x="4838.5" y="-196.11" font-family="Helvetica" font-size="10.00">&#45;&#45;&#45;</text>
<text text-anchor="middle" x="4838.5" y="-185.11" font-family="Helvetica" font-size="10.00">HotSpotMethod&lt;LoopBenchmarks.main(String[])&gt;</text>
<text text-anchor="middle" x="4838.5" y="-174.11" font-family="Helvetica" font-size="10.00">HotSpotMethod&lt;LoopBenchmarks.mandelbrotLoop(double, double, int)&gt;</text>
<text text-anchor="middle" x="4838.5" y="-163.11" font-family="Helvetica" font-size="10.00">&#45;&#45;&#45;</text>
<text text-anchor="middle" x="4838.5" y="-152.11" font-family="Helvetica" font-size="10.00">BuboLoopMakers:</text>
<text text-anchor="middle" x="4838.5" y="-141.11" font-family="Helvetica" font-size="10.00"> &#160;AMD64BuboRDTSCToSlot (LoopID=5)</text>
</g>
<!-- b19&#45;&gt;b20 -->
<g id="edge25" class="edge">
<title>b19&#45;&gt;b20</title>
<path fill="none" stroke="black" d="M4561.08,-184.92C4591.74,-184.61 4625.53,-184.26 4658.65,-183.93"/>
<polygon fill="black" stroke="black" points="4658.94,-187.42 4668.9,-183.82 4658.86,-180.42 4658.94,-187.42"/>
</g>
<!-- b25 -->
<g id="node26" class="node">
<title>b25</title>
<polygon fill="gold" stroke="black" stroke-width="4" points="4956,-395.61 4721,-395.61 4721,-310.61 4956,-310.61 4956,-395.61"/>
<polygon fill="none" stroke="black" stroke-width="4" points="4960,-399.61 4717,-399.61 4717,-306.61 4960,-306.61 4960,-399.61"/>
<text text-anchor="middle" x="4838.5" y="-383.61" font-family="Helvetica" font-size="10.00">B25</text>
<text text-anchor="middle" x="4838.5" y="-372.61" font-family="Helvetica" font-size="10.00">Loop: L3</text>
<text text-anchor="middle" x="4838.5" y="-361.61" font-family="Helvetica" font-size="10.00">&#45;&#45;&#45;</text>
<text text-anchor="middle" x="4838.5" y="-350.61" font-family="Helvetica" font-size="10.00">HotSpotMethod&lt;LoopBenchmarks.main(String[])&gt;</text>
<text text-anchor="middle" x="4838.5" y="-339.61" font-family="Helvetica" font-size="10.00">&#45;&#45;&#45;</text>
<text text-anchor="middle" x="4838.5" y="-328.61" font-family="Helvetica" font-size="10.00">BuboLoopMakers:</text>
<text text-anchor="middle" x="4838.5" y="-317.61" font-family="Helvetica" font-size="10.00"> &#160;AMD64BuboWriteDeltaRDTSC (LoopID=1)</text>
</g>
<!-- b19&#45;&gt;b25 -->
<g id="edge26" class="edge">
<title>b19&#45;&gt;b25</title>
<path fill="none" stroke="black" d="M4505.91,-212.2C4562.62,-236.3 4648.43,-272.76 4718.55,-302.56"/>
<polygon fill="black" stroke="black" points="4717.32,-305.84 4727.9,-306.53 4720.06,-299.4 4717.32,-305.84"/>
</g>
<!-- b21 -->
<g id="node22" class="node">
<title>b21</title>
<polygon fill="violet" stroke="black" points="5447,-235.11 5116,-235.11 5116,-183.11 5447,-183.11 5447,-235.11"/>
<text text-anchor="middle" x="5281.5" y="-223.11" font-family="Helvetica" font-size="10.00">B21</text>
<text text-anchor="middle" x="5281.5" y="-212.11" font-family="Helvetica" font-size="10.00">Loop: L5</text>
<text text-anchor="middle" x="5281.5" y="-201.11" font-family="Helvetica" font-size="10.00">&#45;&#45;&#45;</text>
<text text-anchor="middle" x="5281.5" y="-190.11" font-family="Helvetica" font-size="10.00">HotSpotMethod&lt;LoopBenchmarks.mandelbrotLoop(double, double, int)&gt;</text>
</g>
<!-- b20&#45;&gt;b21 -->
<g id="edge27" class="edge">
<title>b20&#45;&gt;b21</title>
<path fill="none" stroke="black" d="M5008.11,-192.43C5040.04,-194.38 5073.5,-196.43 5105.61,-198.4"/>
<polygon fill="black" stroke="black" points="5105.79,-201.92 5115.99,-199.03 5106.22,-194.93 5105.79,-201.92"/>
</g>
<!-- b22 -->
<g id="node23" class="node">
<title>b22</title>
<polygon fill="violet" stroke="black" points="5886,-263.11 5555,-263.11 5555,-211.11 5886,-211.11 5886,-263.11"/>
<text text-anchor="middle" x="5720.5" y="-251.11" font-family="Helvetica" font-size="10.00">B22</text>
<text text-anchor="middle" x="5720.5" y="-240.11" font-family="Helvetica" font-size="10.00">Loop: L5</text>
<text text-anchor="middle" x="5720.5" y="-229.11" font-family="Helvetica" font-size="10.00">&#45;&#45;&#45;</text>
<text text-anchor="middle" x="5720.5" y="-218.11" font-family="Helvetica" font-size="10.00">HotSpotMethod&lt;LoopBenchmarks.mandelbrotLoop(double, double, int)&gt;</text>
</g>
<!-- b21&#45;&gt;b22 -->
<g id="edge28" class="edge">
<title>b21&#45;&gt;b22</title>
<path fill="none" stroke="black" d="M5447.09,-219.65C5478.85,-221.69 5512.24,-223.83 5544.33,-225.88"/>
<polygon fill="black" stroke="black" points="5544.49,-229.4 5554.7,-226.55 5544.94,-222.41 5544.49,-229.4"/>
</g>
<!-- b26 -->
<g id="node27" class="node">
<title>b26</title>
<polygon fill="white" stroke="black" points="5886,-138.61 5555,-138.61 5555,-75.61 5886,-75.61 5886,-138.61"/>
<text text-anchor="middle" x="5720.5" y="-126.61" font-family="Helvetica" font-size="10.00">B26</text>
<text text-anchor="middle" x="5720.5" y="-115.61" font-family="Helvetica" font-size="10.00">Loop: &lt;none&gt;</text>
<text text-anchor="middle" x="5720.5" y="-104.61" font-family="Helvetica" font-size="10.00">&#45;&#45;&#45;</text>
<text text-anchor="middle" x="5720.5" y="-93.61" font-family="Helvetica" font-size="10.00">HotSpotMethod&lt;LoopBenchmarks.main(String[])&gt;</text>
<text text-anchor="middle" x="5720.5" y="-82.61" font-family="Helvetica" font-size="10.00">HotSpotMethod&lt;LoopBenchmarks.mandelbrotLoop(double, double, int)&gt;</text>
</g>
<!-- b21&#45;&gt;b26 -->
<g id="edge29" class="edge">
<title>b21&#45;&gt;b26</title>
<path fill="none" stroke="black" d="M5393.9,-183.1C5448.88,-170.27 5515.87,-154.64 5574.76,-140.89"/>
<polygon fill="black" stroke="black" points="5575.58,-144.29 5584.52,-138.61 5573.98,-137.48 5575.58,-144.29"/>
</g>
<!-- b23 -->
<g id="node24" class="node">
<title>b23</title>
<polygon fill="violet" stroke="black" points="6329,-330.11 5998,-330.11 5998,-278.11 6329,-278.11 6329,-330.11"/>
<text text-anchor="middle" x="6163.5" y="-318.11" font-family="Helvetica" font-size="10.00">B23</text>
<text text-anchor="middle" x="6163.5" y="-307.11" font-family="Helvetica" font-size="10.00">Loop: L5</text>
<text text-anchor="middle" x="6163.5" y="-296.11" font-family="Helvetica" font-size="10.00">&#45;&#45;&#45;</text>
<text text-anchor="middle" x="6163.5" y="-285.11" font-family="Helvetica" font-size="10.00">HotSpotMethod&lt;LoopBenchmarks.mandelbrotLoop(double, double, int)&gt;</text>
</g>
<!-- b22&#45;&gt;b23 -->
<g id="edge30" class="edge">
<title>b22&#45;&gt;b23</title>
<path fill="none" stroke="black" d="M5886.03,-262.1C5919.08,-267.12 5953.93,-272.42 5987.32,-277.49"/>
<polygon fill="black" stroke="black" points="5987.23,-281.02 5997.64,-279.06 5988.28,-274.1 5987.23,-281.02"/>
</g>
<!-- b24 -->
<g id="node25" class="node">
<title>b24</title>
<polygon fill="orange" stroke="black" stroke-width="4" points="6329,-142.11 5998,-142.11 5998,-46.11 6329,-46.11 6329,-142.11"/>
<polygon fill="none" stroke="black" stroke-width="4" points="6333,-146.11 5994,-146.11 5994,-42.11 6333,-42.11 6333,-146.11"/>
<text text-anchor="middle" x="6163.5" y="-130.11" font-family="Helvetica" font-size="10.00">B24</text>
<text text-anchor="middle" x="6163.5" y="-119.11" font-family="Helvetica" font-size="10.00">Loop: L4</text>
<text text-anchor="middle" x="6163.5" y="-108.11" font-family="Helvetica" font-size="10.00">&#45;&#45;&#45;</text>
<text text-anchor="middle" x="6163.5" y="-97.11" font-family="Helvetica" font-size="10.00">HotSpotMethod&lt;LoopBenchmarks.mandelbrotLoop(double, double, int)&gt;</text>
<text text-anchor="middle" x="6163.5" y="-86.11" font-family="Helvetica" font-size="10.00">HotSpotMethod&lt;LoopBenchmarks.main(String[])&gt;</text>
<text text-anchor="middle" x="6163.5" y="-75.11" font-family="Helvetica" font-size="10.00">&#45;&#45;&#45;</text>
<text text-anchor="middle" x="6163.5" y="-64.11" font-family="Helvetica" font-size="10.00">BuboLoopMakers:</text>
<text text-anchor="middle" x="6163.5" y="-53.11" font-family="Helvetica" font-size="10.00"> &#160;AMD64BuboWriteDeltaRDTSC (LoopID=5)</text>
</g>
<!-- b22&#45;&gt;b24 -->
<g id="edge31" class="edge">
<title>b22&#45;&gt;b24</title>
<path fill="none" stroke="black" d="M5801.87,-211.04C5855.03,-193.81 5926.75,-170.55 5992.22,-149.32"/>
<polygon fill="black" stroke="black" points="5993.4,-152.62 6001.83,-146.2 5991.24,-145.96 5993.4,-152.62"/>
</g>
<!-- b23&#45;&gt;b21 -->
<g id="edge32" class="edge">
<title>b23&#45;&gt;b21</title>
<path fill="none" stroke="black" d="M5997.91,-316.45C5875.03,-322.36 5703.42,-323.61 5555,-299.11 5484.17,-287.41 5406.74,-260.37 5352.58,-238.96"/>
<polygon fill="black" stroke="black" points="5353.67,-235.62 5343.08,-235.17 5351.07,-242.13 5353.67,-235.62"/>
</g>
<!-- b24&#45;&gt;b19 -->
<g id="edge33" class="edge">
<title>b24&#45;&gt;b19</title>
<path fill="none" stroke="black" d="M5993.66,-55.06C5958.28,-48.42 5921.07,-42.56 5886,-39.11 5347.17,13.97 5196.74,26.94 4669,-94.11 4610.74,-107.47 4548.09,-134.29 4503.81,-155.54"/>
<polygon fill="black" stroke="black" points="4502.12,-152.47 4494.65,-159.98 4505.18,-158.76 4502.12,-152.47"/>
</g>
<!-- b25&#45;&gt;b17 -->
<g id="edge34" class="edge">
<title>b25&#45;&gt;b17</title>
<path fill="none" stroke="black" d="M4716.87,-350.61C4534.09,-345.04 4176.74,-327.16 3879,-270.11 3813.68,-257.59 3741.7,-235.56 3688.13,-217.49"/>
<polygon fill="black" stroke="black" points="3688.95,-214.06 3678.35,-214.16 3686.69,-220.69 3688.95,-214.06"/>
</g>
</g>
</svg>
