<?xml version="1.0" encoding="UTF-8" standalone="no"?>
<!DOCTYPE svg PUBLIC "-//W3C//DTD SVG 1.1//EN"
 "http://www.w3.org/Graphics/SVG/1.1/DTD/svg11.dtd">
<!-- Generated by graphviz version 2.44.0 (0)
 -->
<!-- Title: CFG_129 Pages: 1 -->
<svg width="9858pt" height="2606pt"
 viewBox="0.00 0.00 9858.00 2606.37" xmlns="http://www.w3.org/2000/svg" xmlns:xlink="http://www.w3.org/1999/xlink">
<g id="graph0" class="graph" transform="scale(1 1) rotate(0) translate(4 2602.37)">
<title>CFG_129</title>
<polygon fill="white" stroke="transparent" points="-4,4 -4,-2602.37 9854,-2602.37 9854,4 -4,4"/>
<text text-anchor="middle" x="399" y="-2578.37" font-family="Times-Roman" font-size="20.00">195&#45;LoopBenchmarks.matrixMultiplyLoop(double[][], double[][], double[][], int)</text>
<!-- b0 -->
<g id="node1" class="node">
<title>b0</title>
<polygon fill="white" stroke="black" points="414,-575 0,-575 0,-523 414,-523 414,-575"/>
<text text-anchor="middle" x="207" y="-563" font-family="Helvetica" font-size="10.00">B0</text>
<text text-anchor="middle" x="207" y="-552" font-family="Helvetica" font-size="10.00">Loop: &lt;none&gt;</text>
<text text-anchor="middle" x="207" y="-541" font-family="Helvetica" font-size="10.00">&#45;&#45;&#45;</text>
<text text-anchor="middle" x="207" y="-530" font-family="Helvetica" font-size="10.00">HotSpotMethod&lt;LoopBenchmarks.matrixMultiplyLoop(double[][], double[][], double[][], int)&gt;</text>
</g>
<!-- b2 -->
<g id="node3" class="node">
<title>b2</title>
<polygon fill="white" stroke="black" points="936,-446 522,-446 522,-394 936,-394 936,-446"/>
<text text-anchor="middle" x="729" y="-434" font-family="Helvetica" font-size="10.00">B2</text>
<text text-anchor="middle" x="729" y="-423" font-family="Helvetica" font-size="10.00">Loop: &lt;none&gt;</text>
<text text-anchor="middle" x="729" y="-412" font-family="Helvetica" font-size="10.00">&#45;&#45;&#45;</text>
<text text-anchor="middle" x="729" y="-401" font-family="Helvetica" font-size="10.00">HotSpotMethod&lt;LoopBenchmarks.matrixMultiplyLoop(double[][], double[][], double[][], int)&gt;</text>
</g>
<!-- b0&#45;&gt;b2 -->
<g id="edge2" class="edge">
<title>b0&#45;&gt;b2</title>
<path fill="none" stroke="black" d="M312.92,-522.97C399.85,-501.41 523.23,-470.8 612.86,-448.56"/>
<polygon fill="black" stroke="black" points="613.94,-451.9 622.8,-446.1 612.25,-445.11 613.94,-451.9"/>
</g>
<!-- b6 -->
<g id="node7" class="node">
<title>b6</title>
<polygon fill="white" stroke="black" stroke-width="4" points="1984,-653.5 1570,-653.5 1570,-568.5 1984,-568.5 1984,-653.5"/>
<polygon fill="none" stroke="black" stroke-width="4" points="1988,-657.5 1566,-657.5 1566,-564.5 1988,-564.5 1988,-657.5"/>
<text text-anchor="middle" x="1777" y="-641.5" font-family="Helvetica" font-size="10.00">B6</text>
<text text-anchor="middle" x="1777" y="-630.5" font-family="Helvetica" font-size="10.00">Loop: &lt;none&gt;</text>
<text text-anchor="middle" x="1777" y="-619.5" font-family="Helvetica" font-size="10.00">&#45;&#45;&#45;</text>
<text text-anchor="middle" x="1777" y="-608.5" font-family="Helvetica" font-size="10.00">HotSpotMethod&lt;LoopBenchmarks.matrixMultiplyLoop(double[][], double[][], double[][], int)&gt;</text>
<text text-anchor="middle" x="1777" y="-597.5" font-family="Helvetica" font-size="10.00">&#45;&#45;&#45;</text>
<text text-anchor="middle" x="1777" y="-586.5" font-family="Helvetica" font-size="10.00">BuboLoopMakers:</text>
<text text-anchor="middle" x="1777" y="-575.5" font-family="Helvetica" font-size="10.00"> &#160;AMD64BuboRDTSCToSlot (LoopID=0)</text>
</g>
<!-- b0&#45;&gt;b6 -->
<g id="edge1" class="edge">
<title>b0&#45;&gt;b6</title>
<path fill="none" stroke="black" d="M414.38,-566.6C583.46,-580.18 829.03,-597.94 1044,-606 1215.61,-612.43 1410.01,-613.47 1555.32,-613.01"/>
<polygon fill="black" stroke="black" points="1555.71,-616.51 1565.7,-612.97 1555.69,-609.51 1555.71,-616.51"/>
</g>
<!-- b1 -->
<g id="node2" class="node">
<title>b1</title>
<polygon fill="white" stroke="black" points="1458,-570 1044,-570 1044,-518 1458,-518 1458,-570"/>
<text text-anchor="middle" x="1251" y="-558" font-family="Helvetica" font-size="10.00">B1</text>
<text text-anchor="middle" x="1251" y="-547" font-family="Helvetica" font-size="10.00">Loop: &lt;none&gt;</text>
<text text-anchor="middle" x="1251" y="-536" font-family="Helvetica" font-size="10.00">&#45;&#45;&#45;</text>
<text text-anchor="middle" x="1251" y="-525" font-family="Helvetica" font-size="10.00">HotSpotMethod&lt;LoopBenchmarks.matrixMultiplyLoop(double[][], double[][], double[][], int)&gt;</text>
</g>
<!-- b1&#45;&gt;b6 -->
<g id="edge3" class="edge">
<title>b1&#45;&gt;b6</title>
<path fill="none" stroke="black" d="M1455.72,-570.05C1488.42,-574.23 1522.4,-578.57 1555.47,-582.8"/>
<polygon fill="black" stroke="black" points="1555.34,-586.31 1565.7,-584.11 1556.23,-579.37 1555.34,-586.31"/>
</g>
<!-- b3 -->
<g id="node4" class="node">
<title>b3</title>
<polygon fill="white" stroke="black" points="1458,-446 1044,-446 1044,-394 1458,-394 1458,-446"/>
<text text-anchor="middle" x="1251" y="-434" font-family="Helvetica" font-size="10.00">B3</text>
<text text-anchor="middle" x="1251" y="-423" font-family="Helvetica" font-size="10.00">Loop: &lt;none&gt;</text>
<text text-anchor="middle" x="1251" y="-412" font-family="Helvetica" font-size="10.00">&#45;&#45;&#45;</text>
<text text-anchor="middle" x="1251" y="-401" font-family="Helvetica" font-size="10.00">HotSpotMethod&lt;LoopBenchmarks.matrixMultiplyLoop(double[][], double[][], double[][], int)&gt;</text>
</g>
<!-- b2&#45;&gt;b3 -->
<g id="edge4" class="edge">
<title>b2&#45;&gt;b3</title>
<path fill="none" stroke="black" d="M936.26,-420C968.39,-420 1001.65,-420 1033.98,-420"/>
<polygon fill="black" stroke="black" points="1033.98,-423.5 1043.98,-420 1033.98,-416.5 1033.98,-423.5"/>
</g>
<!-- b38 -->
<g id="node39" class="node">
<title>b38</title>
<polygon fill="white" stroke="black" points="1984,-255 1570,-255 1570,-203 1984,-203 1984,-255"/>
<text text-anchor="middle" x="1777" y="-243" font-family="Helvetica" font-size="10.00">B38</text>
<text text-anchor="middle" x="1777" y="-232" font-family="Helvetica" font-size="10.00">Loop: &lt;none&gt;</text>
<text text-anchor="middle" x="1777" y="-221" font-family="Helvetica" font-size="10.00">&#45;&#45;&#45;</text>
<text text-anchor="middle" x="1777" y="-210" font-family="Helvetica" font-size="10.00">HotSpotMethod&lt;LoopBenchmarks.matrixMultiplyLoop(double[][], double[][], double[][], int)&gt;</text>
</g>
<!-- b2&#45;&gt;b38 -->
<g id="edge5" class="edge">
<title>b2&#45;&gt;b38</title>
<path fill="none" stroke="black" d="M761.26,-393.65C814.91,-350.33 929.83,-265.7 1044,-234 1216.67,-186.06 1421.21,-189.42 1570.13,-202.1"/>
<polygon fill="black" stroke="black" points="1570.03,-205.61 1580.3,-202.99 1570.64,-198.64 1570.03,-205.61"/>
</g>
<!-- b3&#45;&gt;b6 -->
<g id="edge7" class="edge">
<title>b3&#45;&gt;b6</title>
<path fill="none" stroke="black" d="M1345.14,-446.04C1380.7,-456.5 1421.45,-469.12 1458,-482 1525.34,-505.73 1599.32,-535.52 1658.96,-560.48"/>
<polygon fill="black" stroke="black" points="1657.83,-563.8 1668.41,-564.45 1660.54,-557.35 1657.83,-563.8"/>
</g>
<!-- b3&#45;&gt;b38 -->
<g id="edge6" class="edge">
<title>b3&#45;&gt;b38</title>
<path fill="none" stroke="black" d="M1345.14,-393.96C1380.7,-383.5 1421.45,-370.88 1458,-358 1544.98,-327.34 1643.05,-286.59 1706.99,-259.16"/>
<polygon fill="black" stroke="black" points="1708.76,-262.21 1716.56,-255.05 1705.99,-255.78 1708.76,-262.21"/>
</g>
<!-- b4 -->
<g id="node5" class="node">
<title>b4</title>
<polygon fill="white" stroke="black" points="1458,-52 1044,-52 1044,0 1458,0 1458,-52"/>
<text text-anchor="middle" x="1251" y="-40" font-family="Helvetica" font-size="10.00">B4</text>
<text text-anchor="middle" x="1251" y="-29" font-family="Helvetica" font-size="10.00">Loop: &lt;none&gt;</text>
<text text-anchor="middle" x="1251" y="-18" font-family="Helvetica" font-size="10.00">&#45;&#45;&#45;</text>
<text text-anchor="middle" x="1251" y="-7" font-family="Helvetica" font-size="10.00">HotSpotMethod&lt;LoopBenchmarks.matrixMultiplyLoop(double[][], double[][], double[][], int)&gt;</text>
</g>
<!-- b4&#45;&gt;b38 -->
<g id="edge8" class="edge">
<title>b4&#45;&gt;b38</title>
<path fill="none" stroke="black" d="M1319.16,-52.02C1416.64,-89.78 1596.85,-159.59 1699.38,-199.32"/>
<polygon fill="black" stroke="black" points="1698.16,-202.6 1708.75,-202.95 1700.69,-196.07 1698.16,-202.6"/>
</g>
<!-- b5 -->
<g id="node6" class="node">
<title>b5</title>
<polygon fill="white" stroke="black" points="1458,-840 1044,-840 1044,-788 1458,-788 1458,-840"/>
<text text-anchor="middle" x="1251" y="-828" font-family="Helvetica" font-size="10.00">B5</text>
<text text-anchor="middle" x="1251" y="-817" font-family="Helvetica" font-size="10.00">Loop: &lt;none&gt;</text>
<text text-anchor="middle" x="1251" y="-806" font-family="Helvetica" font-size="10.00">&#45;&#45;&#45;</text>
<text text-anchor="middle" x="1251" y="-795" font-family="Helvetica" font-size="10.00">HotSpotMethod&lt;LoopBenchmarks.matrixMultiplyLoop(double[][], double[][], double[][], int)&gt;</text>
</g>
<!-- b5&#45;&gt;b6 -->
<g id="edge9" class="edge">
<title>b5&#45;&gt;b6</title>
<path fill="none" stroke="black" d="M1319.16,-787.98C1401.45,-756.1 1542.67,-701.39 1646.37,-661.22"/>
<polygon fill="black" stroke="black" points="1647.91,-664.38 1655.97,-657.5 1645.38,-657.85 1647.91,-664.38"/>
</g>
<!-- b7 -->
<g id="node8" class="node">
<title>b7</title>
<polygon fill="lightblue" stroke="black" points="2510,-637 2096,-637 2096,-585 2510,-585 2510,-637"/>
<text text-anchor="middle" x="2303" y="-625" font-family="Helvetica" font-size="10.00">B7</text>
<text text-anchor="middle" x="2303" y="-614" font-family="Helvetica" font-size="10.00">Loop: L0</text>
<text text-anchor="middle" x="2303" y="-603" font-family="Helvetica" font-size="10.00">&#45;&#45;&#45;</text>
<text text-anchor="middle" x="2303" y="-592" font-family="Helvetica" font-size="10.00">HotSpotMethod&lt;LoopBenchmarks.matrixMultiplyLoop(double[][], double[][], double[][], int)&gt;</text>
</g>
<!-- b6&#45;&gt;b7 -->
<g id="edge10" class="edge">
<title>b6&#45;&gt;b7</title>
<path fill="none" stroke="black" d="M1988.11,-611C2020.1,-611 2053.16,-611 2085.29,-611"/>
<polygon fill="black" stroke="black" points="2085.68,-614.5 2095.68,-611 2085.68,-607.5 2085.68,-614.5"/>
</g>
<!-- b8 -->
<g id="node9" class="node">
<title>b8</title>
<polygon fill="lightblue" stroke="black" points="3036,-783 2622,-783 2622,-731 3036,-731 3036,-783"/>
<text text-anchor="middle" x="2829" y="-771" font-family="Helvetica" font-size="10.00">B8</text>
<text text-anchor="middle" x="2829" y="-760" font-family="Helvetica" font-size="10.00">Loop: L0</text>
<text text-anchor="middle" x="2829" y="-749" font-family="Helvetica" font-size="10.00">&#45;&#45;&#45;</text>
<text text-anchor="middle" x="2829" y="-738" font-family="Helvetica" font-size="10.00">HotSpotMethod&lt;LoopBenchmarks.matrixMultiplyLoop(double[][], double[][], double[][], int)&gt;</text>
</g>
<!-- b7&#45;&gt;b8 -->
<g id="edge11" class="edge">
<title>b7&#45;&gt;b8</title>
<path fill="none" stroke="black" d="M2397.38,-637.02C2489.4,-662.66 2629.69,-701.74 2724.93,-728.28"/>
<polygon fill="black" stroke="black" points="2724.01,-731.66 2734.58,-730.97 2725.88,-724.91 2724.01,-731.66"/>
</g>
<!-- b30 -->
<g id="node31" class="node">
<title>b30</title>
<polygon fill="white" stroke="black" stroke-width="4" points="3036,-497.5 2622,-497.5 2622,-412.5 3036,-412.5 3036,-497.5"/>
<polygon fill="none" stroke="black" stroke-width="4" points="3040,-501.5 2618,-501.5 2618,-408.5 3040,-408.5 3040,-501.5"/>
<text text-anchor="middle" x="2829" y="-485.5" font-family="Helvetica" font-size="10.00">B30</text>
<text text-anchor="middle" x="2829" y="-474.5" font-family="Helvetica" font-size="10.00">Loop: &lt;none&gt;</text>
<text text-anchor="middle" x="2829" y="-463.5" font-family="Helvetica" font-size="10.00">&#45;&#45;&#45;</text>
<text text-anchor="middle" x="2829" y="-452.5" font-family="Helvetica" font-size="10.00">HotSpotMethod&lt;LoopBenchmarks.matrixMultiplyLoop(double[][], double[][], double[][], int)&gt;</text>
<text text-anchor="middle" x="2829" y="-441.5" font-family="Helvetica" font-size="10.00">&#45;&#45;&#45;</text>
<text text-anchor="middle" x="2829" y="-430.5" font-family="Helvetica" font-size="10.00">BuboLoopMakers:</text>
<text text-anchor="middle" x="2829" y="-419.5" font-family="Helvetica" font-size="10.00"> &#160;AMD64BuboWriteDeltaRDTSC (LoopID=0)</text>
</g>
<!-- b7&#45;&gt;b30 -->
<g id="edge12" class="edge">
<title>b7&#45;&gt;b30</title>
<path fill="none" stroke="black" d="M2391.41,-584.98C2464.95,-563.08 2572.16,-531.16 2661.94,-504.44"/>
<polygon fill="black" stroke="black" points="2663.1,-507.75 2671.68,-501.54 2661.1,-501.04 2663.1,-507.75"/>
</g>
<!-- b9 -->
<g id="node10" class="node">
<title>b9</title>
<polygon fill="lightblue" stroke="black" points="3562,-1188 3148,-1188 3148,-1136 3562,-1136 3562,-1188"/>
<text text-anchor="middle" x="3355" y="-1176" font-family="Helvetica" font-size="10.00">B9</text>
<text text-anchor="middle" x="3355" y="-1165" font-family="Helvetica" font-size="10.00">Loop: L0</text>
<text text-anchor="middle" x="3355" y="-1154" font-family="Helvetica" font-size="10.00">&#45;&#45;&#45;</text>
<text text-anchor="middle" x="3355" y="-1143" font-family="Helvetica" font-size="10.00">HotSpotMethod&lt;LoopBenchmarks.matrixMultiplyLoop(double[][], double[][], double[][], int)&gt;</text>
</g>
<!-- b8&#45;&gt;b9 -->
<g id="edge13" class="edge">
<title>b8&#45;&gt;b9</title>
<path fill="none" stroke="black" d="M2863.98,-783.26C2956.18,-854.53 3210.94,-1051.43 3311.95,-1129.5"/>
<polygon fill="black" stroke="black" points="3310.05,-1132.45 3320.1,-1135.8 3314.33,-1126.91 3310.05,-1132.45"/>
</g>
<!-- b36 -->
<g id="node37" class="node">
<title>b36</title>
<polygon fill="white" stroke="black" points="7220,-1526 6806,-1526 6806,-1474 7220,-1474 7220,-1526"/>
<text text-anchor="middle" x="7013" y="-1514" font-family="Helvetica" font-size="10.00">B36</text>
<text text-anchor="middle" x="7013" y="-1503" font-family="Helvetica" font-size="10.00">Loop: &lt;none&gt;</text>
<text text-anchor="middle" x="7013" y="-1492" font-family="Helvetica" font-size="10.00">&#45;&#45;&#45;</text>
<text text-anchor="middle" x="7013" y="-1481" font-family="Helvetica" font-size="10.00">HotSpotMethod&lt;LoopBenchmarks.matrixMultiplyLoop(double[][], double[][], double[][], int)&gt;</text>
</g>
<!-- b8&#45;&gt;b36 -->
<g id="edge14" class="edge">
<title>b8&#45;&gt;b36</title>
<path fill="none" stroke="black" d="M3036.41,-757C3247.39,-757 3584.54,-757 3876,-757 3876,-757 3876,-757 5966,-757 6291.18,-757 6428.18,-642.71 6694,-830 6918.55,-988.21 6989.68,-1348.04 7007.16,-1463.57"/>
<polygon fill="black" stroke="black" points="7003.72,-1464.27 7008.64,-1473.66 7010.65,-1463.25 7003.72,-1464.27"/>
</g>
<!-- b11 -->
<g id="node12" class="node">
<title>b11</title>
<polygon fill="lightblue" stroke="black" points="4084,-1188 3670,-1188 3670,-1136 4084,-1136 4084,-1188"/>
<text text-anchor="middle" x="3877" y="-1176" font-family="Helvetica" font-size="10.00">B11</text>
<text text-anchor="middle" x="3877" y="-1165" font-family="Helvetica" font-size="10.00">Loop: L0</text>
<text text-anchor="middle" x="3877" y="-1154" font-family="Helvetica" font-size="10.00">&#45;&#45;&#45;</text>
<text text-anchor="middle" x="3877" y="-1143" font-family="Helvetica" font-size="10.00">HotSpotMethod&lt;LoopBenchmarks.matrixMultiplyLoop(double[][], double[][], double[][], int)&gt;</text>
</g>
<!-- b9&#45;&gt;b11 -->
<g id="edge16" class="edge">
<title>b9&#45;&gt;b11</title>
<path fill="none" stroke="black" d="M3562.26,-1162C3594.39,-1162 3627.65,-1162 3659.98,-1162"/>
<polygon fill="black" stroke="black" points="3659.98,-1165.5 3669.98,-1162 3659.98,-1158.5 3659.98,-1165.5"/>
</g>
<!-- b15 -->
<g id="node16" class="node">
<title>b15</title>
<polygon fill="lightblue" stroke="black" points="5128,-1587 4714,-1587 4714,-1535 5128,-1535 5128,-1587"/>
<text text-anchor="middle" x="4921" y="-1575" font-family="Helvetica" font-size="10.00">B15</text>
<text text-anchor="middle" x="4921" y="-1564" font-family="Helvetica" font-size="10.00">Loop: L0</text>
<text text-anchor="middle" x="4921" y="-1553" font-family="Helvetica" font-size="10.00">&#45;&#45;&#45;</text>
<text text-anchor="middle" x="4921" y="-1542" font-family="Helvetica" font-size="10.00">HotSpotMethod&lt;LoopBenchmarks.matrixMultiplyLoop(double[][], double[][], double[][], int)&gt;</text>
</g>
<!-- b9&#45;&gt;b15 -->
<g id="edge15" class="edge">
<title>b9&#45;&gt;b15</title>
<path fill="none" stroke="black" d="M3389.64,-1188.27C3498.06,-1271.05 3851.16,-1526.09 4192,-1612 4406.91,-1666.17 4668.03,-1622.5 4811.87,-1589.4"/>
<polygon fill="black" stroke="black" points="4813.07,-1592.72 4822.02,-1587.04 4811.48,-1585.9 4813.07,-1592.72"/>
</g>
<!-- b10 -->
<g id="node11" class="node">
<title>b10</title>
<polygon fill="lightblue" stroke="black" points="4606,-1576 4192,-1576 4192,-1524 4606,-1524 4606,-1576"/>
<text text-anchor="middle" x="4399" y="-1564" font-family="Helvetica" font-size="10.00">B10</text>
<text text-anchor="middle" x="4399" y="-1553" font-family="Helvetica" font-size="10.00">Loop: L0</text>
<text text-anchor="middle" x="4399" y="-1542" font-family="Helvetica" font-size="10.00">&#45;&#45;&#45;</text>
<text text-anchor="middle" x="4399" y="-1531" font-family="Helvetica" font-size="10.00">HotSpotMethod&lt;LoopBenchmarks.matrixMultiplyLoop(double[][], double[][], double[][], int)&gt;</text>
</g>
<!-- b10&#45;&gt;b15 -->
<g id="edge17" class="edge">
<title>b10&#45;&gt;b15</title>
<path fill="none" stroke="black" d="M4606.26,-1554.36C4638.39,-1555.04 4671.65,-1555.75 4703.98,-1556.43"/>
<polygon fill="black" stroke="black" points="4703.91,-1559.93 4713.98,-1556.64 4704.06,-1552.93 4703.91,-1559.93"/>
</g>
<!-- b12 -->
<g id="node13" class="node">
<title>b12</title>
<polygon fill="lightblue" stroke="black" points="4606,-1323 4192,-1323 4192,-1271 4606,-1271 4606,-1323"/>
<text text-anchor="middle" x="4399" y="-1311" font-family="Helvetica" font-size="10.00">B12</text>
<text text-anchor="middle" x="4399" y="-1300" font-family="Helvetica" font-size="10.00">Loop: L0</text>
<text text-anchor="middle" x="4399" y="-1289" font-family="Helvetica" font-size="10.00">&#45;&#45;&#45;</text>
<text text-anchor="middle" x="4399" y="-1278" font-family="Helvetica" font-size="10.00">HotSpotMethod&lt;LoopBenchmarks.matrixMultiplyLoop(double[][], double[][], double[][], int)&gt;</text>
</g>
<!-- b11&#45;&gt;b12 -->
<g id="edge18" class="edge">
<title>b11&#45;&gt;b12</title>
<path fill="none" stroke="black" d="M3978.26,-1188.03C4066.96,-1211.06 4196.16,-1244.6 4287.75,-1268.38"/>
<polygon fill="black" stroke="black" points="4287.05,-1271.81 4297.6,-1270.94 4288.8,-1265.04 4287.05,-1271.81"/>
</g>
<!-- b11&#45;&gt;b36 -->
<g id="edge19" class="edge">
<title>b11&#45;&gt;b36</title>
<path fill="none" stroke="black" d="M3999.26,-1135.97C4192.9,-1096.74 4584.36,-1027 4920,-1027 4920,-1027 4920,-1027 5966,-1027 6291.18,-1027 6408.56,-944.24 6694,-1100 6850.59,-1185.45 6957.38,-1383.44 6995.99,-1464.46"/>
<polygon fill="black" stroke="black" points="6992.94,-1466.19 7000.36,-1473.75 6999.27,-1463.21 6992.94,-1466.19"/>
</g>
<!-- b12&#45;&gt;b15 -->
<g id="edge21" class="edge">
<title>b12&#45;&gt;b15</title>
<path fill="none" stroke="black" d="M4496.49,-1323.01C4531.68,-1333.88 4571.34,-1347.79 4606,-1364 4708.24,-1411.8 4817.76,-1486.56 4876.6,-1528.91"/>
<polygon fill="black" stroke="black" points="4874.76,-1531.9 4884.91,-1534.92 4878.86,-1526.22 4874.76,-1531.9"/>
</g>
<!-- b12&#45;&gt;b36 -->
<g id="edge20" class="edge">
<title>b12&#45;&gt;b36</title>
<path fill="none" stroke="black" d="M4606.11,-1297C4816.32,-1297 5151.88,-1297 5442,-1297 5442,-1297 5442,-1297 5966,-1297 6291.18,-1297 6378.45,-1291.44 6694,-1370 6787.31,-1393.23 6889.22,-1438.76 6951.88,-1469.29"/>
<polygon fill="black" stroke="black" points="6950.7,-1472.61 6961.22,-1473.87 6953.78,-1466.32 6950.7,-1472.61"/>
</g>
<!-- b13 -->
<g id="node14" class="node">
<title>b13</title>
<polygon fill="white" stroke="black" points="6694,-918 6280,-918 6280,-866 6694,-866 6694,-918"/>
<text text-anchor="middle" x="6487" y="-906" font-family="Helvetica" font-size="10.00">B13</text>
<text text-anchor="middle" x="6487" y="-895" font-family="Helvetica" font-size="10.00">Loop: &lt;none&gt;</text>
<text text-anchor="middle" x="6487" y="-884" font-family="Helvetica" font-size="10.00">&#45;&#45;&#45;</text>
<text text-anchor="middle" x="6487" y="-873" font-family="Helvetica" font-size="10.00">HotSpotMethod&lt;LoopBenchmarks.matrixMultiplyLoop(double[][], double[][], double[][], int)&gt;</text>
</g>
<!-- b13&#45;&gt;b36 -->
<g id="edge22" class="edge">
<title>b13&#45;&gt;b36</title>
<path fill="none" stroke="black" d="M6593.41,-918.05C6628.11,-930.3 6665.16,-947.73 6694,-972 6863.05,-1114.26 6966.27,-1370.52 6999.88,-1464.34"/>
<polygon fill="black" stroke="black" points="6996.64,-1465.67 7003.28,-1473.93 7003.24,-1463.34 6996.64,-1465.67"/>
</g>
<!-- b14 -->
<g id="node15" class="node">
<title>b14</title>
<polygon fill="lightblue" stroke="black" points="4606,-1452 4192,-1452 4192,-1400 4606,-1400 4606,-1452"/>
<text text-anchor="middle" x="4399" y="-1440" font-family="Helvetica" font-size="10.00">B14</text>
<text text-anchor="middle" x="4399" y="-1429" font-family="Helvetica" font-size="10.00">Loop: L0</text>
<text text-anchor="middle" x="4399" y="-1418" font-family="Helvetica" font-size="10.00">&#45;&#45;&#45;</text>
<text text-anchor="middle" x="4399" y="-1407" font-family="Helvetica" font-size="10.00">HotSpotMethod&lt;LoopBenchmarks.matrixMultiplyLoop(double[][], double[][], double[][], int)&gt;</text>
</g>
<!-- b14&#45;&gt;b15 -->
<g id="edge23" class="edge">
<title>b14&#45;&gt;b15</title>
<path fill="none" stroke="black" d="M4500.26,-1452.03C4588.96,-1475.06 4718.16,-1508.6 4809.75,-1532.38"/>
<polygon fill="black" stroke="black" points="4809.05,-1535.81 4819.6,-1534.94 4810.8,-1529.04 4809.05,-1535.81"/>
</g>
<!-- b16 -->
<g id="node17" class="node">
<title>b16</title>
<polygon fill="lightblue" stroke="black" points="5650,-1993 5236,-1993 5236,-1941 5650,-1941 5650,-1993"/>
<text text-anchor="middle" x="5443" y="-1981" font-family="Helvetica" font-size="10.00">B16</text>
<text text-anchor="middle" x="5443" y="-1970" font-family="Helvetica" font-size="10.00">Loop: L0</text>
<text text-anchor="middle" x="5443" y="-1959" font-family="Helvetica" font-size="10.00">&#45;&#45;&#45;</text>
<text text-anchor="middle" x="5443" y="-1948" font-family="Helvetica" font-size="10.00">HotSpotMethod&lt;LoopBenchmarks.matrixMultiplyLoop(double[][], double[][], double[][], int)&gt;</text>
</g>
<!-- b15&#45;&gt;b16 -->
<g id="edge24" class="edge">
<title>b15&#45;&gt;b16</title>
<path fill="none" stroke="black" d="M4955.32,-1587.01C5046.56,-1658.26 5300.34,-1856.4 5400.54,-1934.63"/>
<polygon fill="black" stroke="black" points="5398.59,-1937.54 5408.62,-1940.94 5402.89,-1932.03 5398.59,-1937.54"/>
</g>
<!-- b15&#45;&gt;b36 -->
<g id="edge25" class="edge">
<title>b15&#45;&gt;b36</title>
<path fill="none" stroke="black" d="M5128.12,-1554.98C5524.89,-1543.4 6391.26,-1518.12 6795.82,-1506.31"/>
<polygon fill="black" stroke="black" points="6795.99,-1509.81 6805.88,-1506.02 6795.79,-1502.81 6795.99,-1509.81"/>
</g>
<!-- b18 -->
<g id="node19" class="node">
<title>b18</title>
<polygon fill="lightblue" stroke="black" points="6172,-1993 5758,-1993 5758,-1941 6172,-1941 6172,-1993"/>
<text text-anchor="middle" x="5965" y="-1981" font-family="Helvetica" font-size="10.00">B18</text>
<text text-anchor="middle" x="5965" y="-1970" font-family="Helvetica" font-size="10.00">Loop: L0</text>
<text text-anchor="middle" x="5965" y="-1959" font-family="Helvetica" font-size="10.00">&#45;&#45;&#45;</text>
<text text-anchor="middle" x="5965" y="-1948" font-family="Helvetica" font-size="10.00">HotSpotMethod&lt;LoopBenchmarks.matrixMultiplyLoop(double[][], double[][], double[][], int)&gt;</text>
</g>
<!-- b16&#45;&gt;b18 -->
<g id="edge27" class="edge">
<title>b16&#45;&gt;b18</title>
<path fill="none" stroke="black" d="M5650.26,-1967C5682.39,-1967 5715.65,-1967 5747.98,-1967"/>
<polygon fill="black" stroke="black" points="5747.98,-1970.5 5757.98,-1967 5747.98,-1963.5 5747.98,-1970.5"/>
</g>
<!-- b22 -->
<g id="node23" class="node">
<title>b22</title>
<polygon fill="lightblue" stroke="black" stroke-width="4" points="7220,-2386.5 6806,-2386.5 6806,-2301.5 7220,-2301.5 7220,-2386.5"/>
<polygon fill="none" stroke="black" stroke-width="4" points="7224,-2390.5 6802,-2390.5 6802,-2297.5 7224,-2297.5 7224,-2390.5"/>
<text text-anchor="middle" x="7013" y="-2374.5" font-family="Helvetica" font-size="10.00">B22</text>
<text text-anchor="middle" x="7013" y="-2363.5" font-family="Helvetica" font-size="10.00">Loop: L0</text>
<text text-anchor="middle" x="7013" y="-2352.5" font-family="Helvetica" font-size="10.00">&#45;&#45;&#45;</text>
<text text-anchor="middle" x="7013" y="-2341.5" font-family="Helvetica" font-size="10.00">HotSpotMethod&lt;LoopBenchmarks.matrixMultiplyLoop(double[][], double[][], double[][], int)&gt;</text>
<text text-anchor="middle" x="7013" y="-2330.5" font-family="Helvetica" font-size="10.00">&#45;&#45;&#45;</text>
<text text-anchor="middle" x="7013" y="-2319.5" font-family="Helvetica" font-size="10.00">BuboLoopMakers:</text>
<text text-anchor="middle" x="7013" y="-2308.5" font-family="Helvetica" font-size="10.00"> &#160;AMD64BuboRDTSCToSlot (LoopID=1)</text>
</g>
<!-- b16&#45;&gt;b22 -->
<g id="edge26" class="edge">
<title>b16&#45;&gt;b22</title>
<path fill="none" stroke="black" d="M5469.68,-1993.17C5565.46,-2088.67 5915.16,-2418.6 6280,-2530 6455.98,-2583.73 6516.4,-2578.12 6694,-2530 6789.12,-2504.22 6884.94,-2442.1 6946.15,-2396.71"/>
<polygon fill="black" stroke="black" points="6948.27,-2399.5 6954.19,-2390.71 6944.08,-2393.89 6948.27,-2399.5"/>
</g>
<!-- b17 -->
<g id="node18" class="node">
<title>b17</title>
<polygon fill="lightblue" stroke="black" points="6694,-2494 6280,-2494 6280,-2442 6694,-2442 6694,-2494"/>
<text text-anchor="middle" x="6487" y="-2482" font-family="Helvetica" font-size="10.00">B17</text>
<text text-anchor="middle" x="6487" y="-2471" font-family="Helvetica" font-size="10.00">Loop: L0</text>
<text text-anchor="middle" x="6487" y="-2460" font-family="Helvetica" font-size="10.00">&#45;&#45;&#45;</text>
<text text-anchor="middle" x="6487" y="-2449" font-family="Helvetica" font-size="10.00">HotSpotMethod&lt;LoopBenchmarks.matrixMultiplyLoop(double[][], double[][], double[][], int)&gt;</text>
</g>
<!-- b17&#45;&gt;b22 -->
<g id="edge28" class="edge">
<title>b17&#45;&gt;b22</title>
<path fill="none" stroke="black" d="M6598.17,-2441.93C6658.3,-2427.7 6734.73,-2409.61 6805.5,-2392.87"/>
<polygon fill="black" stroke="black" points="6806.52,-2396.22 6815.45,-2390.51 6804.91,-2389.41 6806.52,-2396.22"/>
</g>
<!-- b19 -->
<g id="node20" class="node">
<title>b19</title>
<polygon fill="lightblue" stroke="black" points="6694,-2246 6280,-2246 6280,-2194 6694,-2194 6694,-2246"/>
<text text-anchor="middle" x="6487" y="-2234" font-family="Helvetica" font-size="10.00">B19</text>
<text text-anchor="middle" x="6487" y="-2223" font-family="Helvetica" font-size="10.00">Loop: L0</text>
<text text-anchor="middle" x="6487" y="-2212" font-family="Helvetica" font-size="10.00">&#45;&#45;&#45;</text>
<text text-anchor="middle" x="6487" y="-2201" font-family="Helvetica" font-size="10.00">HotSpotMethod&lt;LoopBenchmarks.matrixMultiplyLoop(double[][], double[][], double[][], int)&gt;</text>
</g>
<!-- b18&#45;&gt;b19 -->
<g id="edge29" class="edge">
<title>b18&#45;&gt;b19</title>
<path fill="none" stroke="black" d="M6002.02,-1993.14C6058.72,-2033.28 6173.35,-2110.45 6280,-2158 6308.78,-2170.83 6340.96,-2181.94 6371.18,-2191.07"/>
<polygon fill="black" stroke="black" points="6370.34,-2194.47 6380.92,-2193.96 6372.33,-2187.76 6370.34,-2194.47"/>
</g>
<!-- b18&#45;&gt;b36 -->
<g id="edge30" class="edge">
<title>b18&#45;&gt;b36</title>
<path fill="none" stroke="black" d="M6006.58,-1940.96C6065.41,-1903.82 6178.47,-1834.76 6280,-1786 6311.21,-1771.01 6753.17,-1599.97 6934.86,-1529.78"/>
<polygon fill="black" stroke="black" points="6936.29,-1532.98 6944.36,-1526.11 6933.77,-1526.45 6936.29,-1532.98"/>
</g>
<!-- b19&#45;&gt;b22 -->
<g id="edge32" class="edge">
<title>b19&#45;&gt;b22</title>
<path fill="none" stroke="black" d="M6598.17,-2246.07C6658.3,-2260.3 6734.73,-2278.39 6805.5,-2295.13"/>
<polygon fill="black" stroke="black" points="6804.91,-2298.59 6815.45,-2297.49 6806.52,-2291.78 6804.91,-2298.59"/>
</g>
<!-- b19&#45;&gt;b36 -->
<g id="edge31" class="edge">
<title>b19&#45;&gt;b36</title>
<path fill="none" stroke="black" d="M6630.86,-2193.97C6653.68,-2185.24 6675.75,-2173.58 6694,-2158 6898.52,-1983.46 6982.34,-1647 7005.15,-1536.29"/>
<polygon fill="black" stroke="black" points="7008.62,-1536.79 7007.17,-1526.3 7001.76,-1535.41 7008.62,-1536.79"/>
</g>
<!-- b20 -->
<g id="node21" class="node">
<title>b20</title>
<polygon fill="white" stroke="black" points="6694,-2122 6280,-2122 6280,-2070 6694,-2070 6694,-2122"/>
<text text-anchor="middle" x="6487" y="-2110" font-family="Helvetica" font-size="10.00">B20</text>
<text text-anchor="middle" x="6487" y="-2099" font-family="Helvetica" font-size="10.00">Loop: &lt;none&gt;</text>
<text text-anchor="middle" x="6487" y="-2088" font-family="Helvetica" font-size="10.00">&#45;&#45;&#45;</text>
<text text-anchor="middle" x="6487" y="-2077" font-family="Helvetica" font-size="10.00">HotSpotMethod&lt;LoopBenchmarks.matrixMultiplyLoop(double[][], double[][], double[][], int)&gt;</text>
</g>
<!-- b20&#45;&gt;b36 -->
<g id="edge33" class="edge">
<title>b20&#45;&gt;b36</title>
<path fill="none" stroke="black" d="M6626,-2069.99C6650.24,-2061.25 6674.06,-2049.57 6694,-2034 6870.21,-1896.39 6969.5,-1631.72 7000.95,-1535.81"/>
<polygon fill="black" stroke="black" points="7004.37,-1536.61 7004.12,-1526.02 6997.71,-1534.45 7004.37,-1536.61"/>
</g>
<!-- b21 -->
<g id="node22" class="node">
<title>b21</title>
<polygon fill="lightblue" stroke="black" points="6694,-2370 6280,-2370 6280,-2318 6694,-2318 6694,-2370"/>
<text text-anchor="middle" x="6487" y="-2358" font-family="Helvetica" font-size="10.00">B21</text>
<text text-anchor="middle" x="6487" y="-2347" font-family="Helvetica" font-size="10.00">Loop: L0</text>
<text text-anchor="middle" x="6487" y="-2336" font-family="Helvetica" font-size="10.00">&#45;&#45;&#45;</text>
<text text-anchor="middle" x="6487" y="-2325" font-family="Helvetica" font-size="10.00">HotSpotMethod&lt;LoopBenchmarks.matrixMultiplyLoop(double[][], double[][], double[][], int)&gt;</text>
</g>
<!-- b21&#45;&gt;b22 -->
<g id="edge34" class="edge">
<title>b21&#45;&gt;b22</title>
<path fill="none" stroke="black" d="M6694.35,-2344C6726.4,-2344 6759.62,-2344 6791.96,-2344"/>
<polygon fill="black" stroke="black" points="6791.97,-2347.5 6801.97,-2344 6791.97,-2340.5 6791.97,-2347.5"/>
</g>
<!-- b23 -->
<g id="node24" class="node">
<title>b23</title>
<polygon fill="lightgreen" stroke="black" points="7746,-2056 7332,-2056 7332,-2004 7746,-2004 7746,-2056"/>
<text text-anchor="middle" x="7539" y="-2044" font-family="Helvetica" font-size="10.00">B23</text>
<text text-anchor="middle" x="7539" y="-2033" font-family="Helvetica" font-size="10.00">Loop: L1</text>
<text text-anchor="middle" x="7539" y="-2022" font-family="Helvetica" font-size="10.00">&#45;&#45;&#45;</text>
<text text-anchor="middle" x="7539" y="-2011" font-family="Helvetica" font-size="10.00">HotSpotMethod&lt;LoopBenchmarks.matrixMultiplyLoop(double[][], double[][], double[][], int)&gt;</text>
</g>
<!-- b22&#45;&gt;b23 -->
<g id="edge35" class="edge">
<title>b22&#45;&gt;b23</title>
<path fill="none" stroke="black" d="M7091.6,-2297.5C7199.79,-2232.67 7393.06,-2116.85 7485.69,-2061.35"/>
<polygon fill="black" stroke="black" points="7487.56,-2064.31 7494.33,-2056.17 7483.96,-2058.3 7487.56,-2064.31"/>
</g>
<!-- b24 -->
<g id="node25" class="node">
<title>b24</title>
<polygon fill="lightgreen" stroke="black" stroke-width="4" points="8272,-1994.5 7858,-1994.5 7858,-1909.5 8272,-1909.5 8272,-1994.5"/>
<polygon fill="none" stroke="black" stroke-width="4" points="8276,-1998.5 7854,-1998.5 7854,-1905.5 8276,-1905.5 8276,-1998.5"/>
<text text-anchor="middle" x="8065" y="-1982.5" font-family="Helvetica" font-size="10.00">B24</text>
<text text-anchor="middle" x="8065" y="-1971.5" font-family="Helvetica" font-size="10.00">Loop: L1</text>
<text text-anchor="middle" x="8065" y="-1960.5" font-family="Helvetica" font-size="10.00">&#45;&#45;&#45;</text>
<text text-anchor="middle" x="8065" y="-1949.5" font-family="Helvetica" font-size="10.00">HotSpotMethod&lt;LoopBenchmarks.matrixMultiplyLoop(double[][], double[][], double[][], int)&gt;</text>
<text text-anchor="middle" x="8065" y="-1938.5" font-family="Helvetica" font-size="10.00">&#45;&#45;&#45;</text>
<text text-anchor="middle" x="8065" y="-1927.5" font-family="Helvetica" font-size="10.00">BuboLoopMakers:</text>
<text text-anchor="middle" x="8065" y="-1916.5" font-family="Helvetica" font-size="10.00"> &#160;AMD64BuboRDTSCToSlot (LoopID=2)</text>
</g>
<!-- b23&#45;&gt;b24 -->
<g id="edge36" class="edge">
<title>b23&#45;&gt;b24</title>
<path fill="none" stroke="black" d="M7714.85,-2003.97C7756.13,-1997.83 7800.66,-1991.2 7843.66,-1984.8"/>
<polygon fill="black" stroke="black" points="7844.31,-1988.24 7853.68,-1983.31 7843.27,-1981.32 7844.31,-1988.24"/>
</g>
<!-- b29 -->
<g id="node30" class="node">
<title>b29</title>
<polygon fill="lightblue" stroke="black" stroke-width="4" points="8272,-1437.5 7858,-1437.5 7858,-1352.5 8272,-1352.5 8272,-1437.5"/>
<polygon fill="none" stroke="black" stroke-width="4" points="8276,-1441.5 7854,-1441.5 7854,-1348.5 8276,-1348.5 8276,-1441.5"/>
<text text-anchor="middle" x="8065" y="-1425.5" font-family="Helvetica" font-size="10.00">B29</text>
<text text-anchor="middle" x="8065" y="-1414.5" font-family="Helvetica" font-size="10.00">Loop: L0</text>
<text text-anchor="middle" x="8065" y="-1403.5" font-family="Helvetica" font-size="10.00">&#45;&#45;&#45;</text>
<text text-anchor="middle" x="8065" y="-1392.5" font-family="Helvetica" font-size="10.00">HotSpotMethod&lt;LoopBenchmarks.matrixMultiplyLoop(double[][], double[][], double[][], int)&gt;</text>
<text text-anchor="middle" x="8065" y="-1381.5" font-family="Helvetica" font-size="10.00">&#45;&#45;&#45;</text>
<text text-anchor="middle" x="8065" y="-1370.5" font-family="Helvetica" font-size="10.00">BuboLoopMakers:</text>
<text text-anchor="middle" x="8065" y="-1359.5" font-family="Helvetica" font-size="10.00"> &#160;AMD64BuboWriteDeltaRDTSC (LoopID=1)</text>
</g>
<!-- b23&#45;&gt;b29 -->
<g id="edge37" class="edge">
<title>b23&#45;&gt;b29</title>
<path fill="none" stroke="black" d="M7561.52,-2003.92C7639.8,-1909.06 7910.51,-1581.01 8018.75,-1449.83"/>
<polygon fill="black" stroke="black" points="8021.67,-1451.8 8025.33,-1441.86 8016.27,-1447.34 8021.67,-1451.8"/>
</g>
<!-- b25 -->
<g id="node26" class="node">
<title>b25</title>
<polygon fill="lightpink" stroke="black" points="8798,-1978 8384,-1978 8384,-1926 8798,-1926 8798,-1978"/>
<text text-anchor="middle" x="8591" y="-1966" font-family="Helvetica" font-size="10.00">B25</text>
<text text-anchor="middle" x="8591" y="-1955" font-family="Helvetica" font-size="10.00">Loop: L2</text>
<text text-anchor="middle" x="8591" y="-1944" font-family="Helvetica" font-size="10.00">&#45;&#45;&#45;</text>
<text text-anchor="middle" x="8591" y="-1933" font-family="Helvetica" font-size="10.00">HotSpotMethod&lt;LoopBenchmarks.matrixMultiplyLoop(double[][], double[][], double[][], int)&gt;</text>
</g>
<!-- b24&#45;&gt;b25 -->
<g id="edge38" class="edge">
<title>b24&#45;&gt;b25</title>
<path fill="none" stroke="black" d="M8276.11,-1952C8308.1,-1952 8341.16,-1952 8373.29,-1952"/>
<polygon fill="black" stroke="black" points="8373.68,-1955.5 8383.68,-1952 8373.68,-1948.5 8373.68,-1955.5"/>
</g>
<!-- b26 -->
<g id="node27" class="node">
<title>b26</title>
<polygon fill="lightpink" stroke="black" points="9324,-1843 8910,-1843 8910,-1791 9324,-1791 9324,-1843"/>
<text text-anchor="middle" x="9117" y="-1831" font-family="Helvetica" font-size="10.00">B26</text>
<text text-anchor="middle" x="9117" y="-1820" font-family="Helvetica" font-size="10.00">Loop: L2</text>
<text text-anchor="middle" x="9117" y="-1809" font-family="Helvetica" font-size="10.00">&#45;&#45;&#45;</text>
<text text-anchor="middle" x="9117" y="-1798" font-family="Helvetica" font-size="10.00">HotSpotMethod&lt;LoopBenchmarks.matrixMultiplyLoop(double[][], double[][], double[][], int)&gt;</text>
</g>
<!-- b25&#45;&gt;b26 -->
<g id="edge39" class="edge">
<title>b25&#45;&gt;b26</title>
<path fill="none" stroke="black" d="M8693.03,-1925.97C8782.42,-1902.94 8912.61,-1869.4 9004.9,-1845.62"/>
<polygon fill="black" stroke="black" points="9006.02,-1848.95 9014.83,-1843.06 9004.27,-1842.17 9006.02,-1848.95"/>
</g>
<!-- b28 -->
<g id="node29" class="node">
<title>b28</title>
<polygon fill="lightgreen" stroke="black" stroke-width="4" points="9324,-2150.5 8910,-2150.5 8910,-2065.5 9324,-2065.5 9324,-2150.5"/>
<polygon fill="none" stroke="black" stroke-width="4" points="9328,-2154.5 8906,-2154.5 8906,-2061.5 9328,-2061.5 9328,-2154.5"/>
<text text-anchor="middle" x="9117" y="-2138.5" font-family="Helvetica" font-size="10.00">B28</text>
<text text-anchor="middle" x="9117" y="-2127.5" font-family="Helvetica" font-size="10.00">Loop: L1</text>
<text text-anchor="middle" x="9117" y="-2116.5" font-family="Helvetica" font-size="10.00">&#45;&#45;&#45;</text>
<text text-anchor="middle" x="9117" y="-2105.5" font-family="Helvetica" font-size="10.00">HotSpotMethod&lt;LoopBenchmarks.matrixMultiplyLoop(double[][], double[][], double[][], int)&gt;</text>
<text text-anchor="middle" x="9117" y="-2094.5" font-family="Helvetica" font-size="10.00">&#45;&#45;&#45;</text>
<text text-anchor="middle" x="9117" y="-2083.5" font-family="Helvetica" font-size="10.00">BuboLoopMakers:</text>
<text text-anchor="middle" x="9117" y="-2072.5" font-family="Helvetica" font-size="10.00"> &#160;AMD64BuboWriteDeltaRDTSC (LoopID=2)</text>
</g>
<!-- b25&#45;&gt;b28 -->
<g id="edge40" class="edge">
<title>b25&#45;&gt;b28</title>
<path fill="none" stroke="black" d="M8679.41,-1978.02C8752.95,-1999.92 8860.16,-2031.84 8949.94,-2058.56"/>
<polygon fill="black" stroke="black" points="8949.1,-2061.96 8959.68,-2061.46 8951.1,-2055.25 8949.1,-2061.96"/>
</g>
<!-- b27 -->
<g id="node28" class="node">
<title>b27</title>
<polygon fill="lightpink" stroke="black" points="9850,-1972 9436,-1972 9436,-1920 9850,-1920 9850,-1972"/>
<text text-anchor="middle" x="9643" y="-1960" font-family="Helvetica" font-size="10.00">B27</text>
<text text-anchor="middle" x="9643" y="-1949" font-family="Helvetica" font-size="10.00">Loop: L2</text>
<text text-anchor="middle" x="9643" y="-1938" font-family="Helvetica" font-size="10.00">&#45;&#45;&#45;</text>
<text text-anchor="middle" x="9643" y="-1927" font-family="Helvetica" font-size="10.00">HotSpotMethod&lt;LoopBenchmarks.matrixMultiplyLoop(double[][], double[][], double[][], int)&gt;</text>
</g>
<!-- b26&#45;&gt;b27 -->
<g id="edge41" class="edge">
<title>b26&#45;&gt;b27</title>
<path fill="none" stroke="black" d="M9223.72,-1843.03C9311.41,-1864.61 9435.9,-1895.26 9526.25,-1917.51"/>
<polygon fill="black" stroke="black" points="9525.44,-1920.91 9535.99,-1919.9 9527.12,-1914.11 9525.44,-1920.91"/>
</g>
<!-- b31 -->
<g id="node32" class="node">
<title>b31</title>
<polygon fill="white" stroke="black" points="9850,-1843 9436,-1843 9436,-1791 9850,-1791 9850,-1843"/>
<text text-anchor="middle" x="9643" y="-1831" font-family="Helvetica" font-size="10.00">B31</text>
<text text-anchor="middle" x="9643" y="-1820" font-family="Helvetica" font-size="10.00">Loop: &lt;none&gt;</text>
<text text-anchor="middle" x="9643" y="-1809" font-family="Helvetica" font-size="10.00">&#45;&#45;&#45;</text>
<text text-anchor="middle" x="9643" y="-1798" font-family="Helvetica" font-size="10.00">HotSpotMethod&lt;LoopBenchmarks.matrixMultiplyLoop(double[][], double[][], double[][], int)&gt;</text>
</g>
<!-- b26&#45;&gt;b31 -->
<g id="edge42" class="edge">
<title>b26&#45;&gt;b31</title>
<path fill="none" stroke="black" d="M9324.35,-1817C9357.57,-1817 9392.04,-1817 9425.49,-1817"/>
<polygon fill="black" stroke="black" points="9425.84,-1820.5 9435.84,-1817 9425.84,-1813.5 9425.84,-1820.5"/>
</g>
<!-- b27&#45;&gt;b25 -->
<g id="edge43" class="edge">
<title>b27&#45;&gt;b25</title>
<path fill="none" stroke="black" d="M9435.83,-1947.18C9254.77,-1948.21 8992.28,-1949.71 8808.27,-1950.76"/>
<polygon fill="black" stroke="black" points="8808.17,-1947.26 8798.19,-1950.82 8808.21,-1954.26 8808.17,-1947.26"/>
</g>
<!-- b28&#45;&gt;b23 -->
<g id="edge44" class="edge">
<title>b28&#45;&gt;b23</title>
<path fill="none" stroke="black" d="M8905.83,-2097.6C8606.23,-2082.77 8059.18,-2055.7 7756.26,-2040.7"/>
<polygon fill="black" stroke="black" points="7756.2,-2037.2 7746.03,-2040.2 7755.85,-2044.19 7756.2,-2037.2"/>
</g>
<!-- b29&#45;&gt;b7 -->
<g id="edge45" class="edge">
<title>b29&#45;&gt;b7</title>
<path fill="none" stroke="black" d="M8034.25,-1348.31C7922.65,-1179.52 7509.95,-611 7014,-611 3354,-611 3354,-611 3354,-611 3065.54,-611 2732.51,-611 2520.23,-611"/>
<polygon fill="black" stroke="black" points="2520.21,-607.5 2510.21,-611 2520.21,-614.5 2520.21,-607.5"/>
</g>
<!-- b32 -->
<g id="node33" class="node">
<title>b32</title>
<polygon fill="white" stroke="black" points="6694,-1998 6280,-1998 6280,-1946 6694,-1946 6694,-1998"/>
<text text-anchor="middle" x="6487" y="-1986" font-family="Helvetica" font-size="10.00">B32</text>
<text text-anchor="middle" x="6487" y="-1975" font-family="Helvetica" font-size="10.00">Loop: &lt;none&gt;</text>
<text text-anchor="middle" x="6487" y="-1964" font-family="Helvetica" font-size="10.00">&#45;&#45;&#45;</text>
<text text-anchor="middle" x="6487" y="-1953" font-family="Helvetica" font-size="10.00">HotSpotMethod&lt;LoopBenchmarks.matrixMultiplyLoop(double[][], double[][], double[][], int)&gt;</text>
</g>
<!-- b32&#45;&gt;b36 -->
<g id="edge46" class="edge">
<title>b32&#45;&gt;b36</title>
<path fill="none" stroke="black" d="M6618.58,-1946C6644.94,-1937.19 6671.45,-1925.49 6694,-1910 6842.78,-1807.83 6953.46,-1614.45 6994.55,-1535.21"/>
<polygon fill="black" stroke="black" points="6997.76,-1536.62 6999.21,-1526.13 6991.53,-1533.42 6997.76,-1536.62"/>
</g>
<!-- b33 -->
<g id="node34" class="node">
<title>b33</title>
<polygon fill="white" stroke="black" points="6694,-1874 6280,-1874 6280,-1822 6694,-1822 6694,-1874"/>
<text text-anchor="middle" x="6487" y="-1862" font-family="Helvetica" font-size="10.00">B33</text>
<text text-anchor="middle" x="6487" y="-1851" font-family="Helvetica" font-size="10.00">Loop: &lt;none&gt;</text>
<text text-anchor="middle" x="6487" y="-1840" font-family="Helvetica" font-size="10.00">&#45;&#45;&#45;</text>
<text text-anchor="middle" x="6487" y="-1829" font-family="Helvetica" font-size="10.00">HotSpotMethod&lt;LoopBenchmarks.matrixMultiplyLoop(double[][], double[][], double[][], int)&gt;</text>
</g>
<!-- b33&#45;&gt;b36 -->
<g id="edge47" class="edge">
<title>b33&#45;&gt;b36</title>
<path fill="none" stroke="black" d="M6573.36,-1821.97C6611.61,-1808.54 6656.46,-1790.26 6694,-1768 6809.65,-1699.4 6925.33,-1588.77 6979.79,-1533.57"/>
<polygon fill="black" stroke="black" points="6982.56,-1535.75 6987.06,-1526.16 6977.56,-1530.85 6982.56,-1535.75"/>
</g>
<!-- b34 -->
<g id="node35" class="node">
<title>b34</title>
<polygon fill="white" stroke="black" points="6694,-1458 6280,-1458 6280,-1406 6694,-1406 6694,-1458"/>
<text text-anchor="middle" x="6487" y="-1446" font-family="Helvetica" font-size="10.00">B34</text>
<text text-anchor="middle" x="6487" y="-1435" font-family="Helvetica" font-size="10.00">Loop: &lt;none&gt;</text>
<text text-anchor="middle" x="6487" y="-1424" font-family="Helvetica" font-size="10.00">&#45;&#45;&#45;</text>
<text text-anchor="middle" x="6487" y="-1413" font-family="Helvetica" font-size="10.00">HotSpotMethod&lt;LoopBenchmarks.matrixMultiplyLoop(double[][], double[][], double[][], int)&gt;</text>
</g>
<!-- b34&#45;&gt;b36 -->
<g id="edge48" class="edge">
<title>b34&#45;&gt;b36</title>
<path fill="none" stroke="black" d="M6688.72,-1458.05C6725.7,-1462.85 6764.4,-1467.87 6801.66,-1472.7"/>
<polygon fill="black" stroke="black" points="6801.24,-1476.18 6811.61,-1473.99 6802.14,-1469.24 6801.24,-1476.18"/>
</g>
<!-- b35 -->
<g id="node36" class="node">
<title>b35</title>
<polygon fill="white" stroke="black" points="6694,-1188 6280,-1188 6280,-1136 6694,-1136 6694,-1188"/>
<text text-anchor="middle" x="6487" y="-1176" font-family="Helvetica" font-size="10.00">B35</text>
<text text-anchor="middle" x="6487" y="-1165" font-family="Helvetica" font-size="10.00">Loop: &lt;none&gt;</text>
<text text-anchor="middle" x="6487" y="-1154" font-family="Helvetica" font-size="10.00">&#45;&#45;&#45;</text>
<text text-anchor="middle" x="6487" y="-1143" font-family="Helvetica" font-size="10.00">HotSpotMethod&lt;LoopBenchmarks.matrixMultiplyLoop(double[][], double[][], double[][], int)&gt;</text>
</g>
<!-- b35&#45;&gt;b36 -->
<g id="edge49" class="edge">
<title>b35&#45;&gt;b36</title>
<path fill="none" stroke="black" d="M6572.16,-1188C6610.6,-1201.53 6655.93,-1219.9 6694,-1242 6807.62,-1307.97 6922.92,-1413.15 6978.26,-1466.54"/>
<polygon fill="black" stroke="black" points="6976.05,-1469.28 6985.67,-1473.73 6980.92,-1464.25 6976.05,-1469.28"/>
</g>
<!-- b37 -->
<g id="node38" class="node">
<title>b37</title>
<polygon fill="white" stroke="black" points="1458,-322 1044,-322 1044,-270 1458,-270 1458,-322"/>
<text text-anchor="middle" x="1251" y="-310" font-family="Helvetica" font-size="10.00">B37</text>
<text text-anchor="middle" x="1251" y="-299" font-family="Helvetica" font-size="10.00">Loop: &lt;none&gt;</text>
<text text-anchor="middle" x="1251" y="-288" font-family="Helvetica" font-size="10.00">&#45;&#45;&#45;</text>
<text text-anchor="middle" x="1251" y="-277" font-family="Helvetica" font-size="10.00">HotSpotMethod&lt;LoopBenchmarks.matrixMultiplyLoop(double[][], double[][], double[][], int)&gt;</text>
</g>
<!-- b37&#45;&gt;b38 -->
<g id="edge50" class="edge">
<title>b37&#45;&gt;b38</title>
<path fill="none" stroke="black" d="M1455.72,-269.95C1490.8,-265.47 1527.36,-260.79 1562.69,-256.27"/>
<polygon fill="black" stroke="black" points="1563.14,-259.75 1572.62,-255 1562.25,-252.8 1563.14,-259.75"/>
</g>
</g>
</svg>
