<?xml version="1.0" encoding="UTF-8" standalone="no"?>
<!DOCTYPE svg PUBLIC "-//W3C//DTD SVG 1.1//EN"
 "http://www.w3.org/Graphics/SVG/1.1/DTD/svg11.dtd">
<!-- Generated by graphviz version 2.44.0 (0)
 -->
<!-- Title: CFG_131 Pages: 1 -->
<svg width="4991pt" height="812pt"
 viewBox="0.00 0.00 4991.00 812.00" xmlns="http://www.w3.org/2000/svg" xmlns:xlink="http://www.w3.org/1999/xlink">
<g id="graph0" class="graph" transform="scale(1 1) rotate(0) translate(4 808)">
<title>CFG_131</title>
<polygon fill="white" stroke="transparent" points="-4,4 -4,-808 4987,-808 4987,4 -4,4"/>
<text text-anchor="middle" x="242.5" y="-784" font-family="Times-Roman" font-size="20.00">198&#45;LoopBenchmarks.sieveLoop(boolean[], int)</text>
<!-- b0 -->
<g id="node1" class="node">
<title>b0</title>
<polygon fill="white" stroke="black" points="283,-243 0,-243 0,-191 283,-191 283,-243"/>
<text text-anchor="middle" x="141.5" y="-231" font-family="Helvetica" font-size="10.00">B0</text>
<text text-anchor="middle" x="141.5" y="-220" font-family="Helvetica" font-size="10.00">Loop: &lt;none&gt;</text>
<text text-anchor="middle" x="141.5" y="-209" font-family="Helvetica" font-size="10.00">&#45;&#45;&#45;</text>
<text text-anchor="middle" x="141.5" y="-198" font-family="Helvetica" font-size="10.00">HotSpotMethod&lt;LoopBenchmarks.sieveLoop(boolean[], int)&gt;</text>
</g>
<!-- b1 -->
<g id="node2" class="node">
<title>b1</title>
<polygon fill="white" stroke="black" points="674,-305 391,-305 391,-253 674,-253 674,-305"/>
<text text-anchor="middle" x="532.5" y="-293" font-family="Helvetica" font-size="10.00">B1</text>
<text text-anchor="middle" x="532.5" y="-282" font-family="Helvetica" font-size="10.00">Loop: &lt;none&gt;</text>
<text text-anchor="middle" x="532.5" y="-271" font-family="Helvetica" font-size="10.00">&#45;&#45;&#45;</text>
<text text-anchor="middle" x="532.5" y="-260" font-family="Helvetica" font-size="10.00">HotSpotMethod&lt;LoopBenchmarks.sieveLoop(boolean[], int)&gt;</text>
</g>
<!-- b0&#45;&gt;b1 -->
<g id="edge1" class="edge">
<title>b0&#45;&gt;b1</title>
<path fill="none" stroke="black" d="M283.21,-239.43C314.95,-244.49 348.76,-249.88 380.89,-255"/>
<polygon fill="black" stroke="black" points="380.38,-258.46 390.8,-256.58 381.48,-251.54 380.38,-258.46"/>
</g>
<!-- b2 -->
<g id="node3" class="node">
<title>b2</title>
<polygon fill="white" stroke="black" points="674,-181 391,-181 391,-129 674,-129 674,-181"/>
<text text-anchor="middle" x="532.5" y="-169" font-family="Helvetica" font-size="10.00">B2</text>
<text text-anchor="middle" x="532.5" y="-158" font-family="Helvetica" font-size="10.00">Loop: &lt;none&gt;</text>
<text text-anchor="middle" x="532.5" y="-147" font-family="Helvetica" font-size="10.00">&#45;&#45;&#45;</text>
<text text-anchor="middle" x="532.5" y="-136" font-family="Helvetica" font-size="10.00">HotSpotMethod&lt;LoopBenchmarks.sieveLoop(boolean[], int)&gt;</text>
</g>
<!-- b0&#45;&gt;b2 -->
<g id="edge2" class="edge">
<title>b0&#45;&gt;b2</title>
<path fill="none" stroke="black" d="M283.21,-194.57C314.95,-189.51 348.76,-184.12 380.89,-179"/>
<polygon fill="black" stroke="black" points="381.48,-182.46 390.8,-177.42 380.38,-175.54 381.48,-182.46"/>
</g>
<!-- b3 -->
<g id="node4" class="node">
<title>b3</title>
<polygon fill="white" stroke="black" points="1065,-243 782,-243 782,-191 1065,-191 1065,-243"/>
<text text-anchor="middle" x="923.5" y="-231" font-family="Helvetica" font-size="10.00">B3</text>
<text text-anchor="middle" x="923.5" y="-220" font-family="Helvetica" font-size="10.00">Loop: &lt;none&gt;</text>
<text text-anchor="middle" x="923.5" y="-209" font-family="Helvetica" font-size="10.00">&#45;&#45;&#45;</text>
<text text-anchor="middle" x="923.5" y="-198" font-family="Helvetica" font-size="10.00">HotSpotMethod&lt;LoopBenchmarks.sieveLoop(boolean[], int)&gt;</text>
</g>
<!-- b1&#45;&gt;b3 -->
<g id="edge3" class="edge">
<title>b1&#45;&gt;b3</title>
<path fill="none" stroke="black" d="M674.21,-256.57C705.95,-251.51 739.76,-246.12 771.89,-241"/>
<polygon fill="black" stroke="black" points="772.48,-244.46 781.8,-239.42 771.38,-237.54 772.48,-244.46"/>
</g>
<!-- b2&#45;&gt;b3 -->
<g id="edge4" class="edge">
<title>b2&#45;&gt;b3</title>
<path fill="none" stroke="black" d="M674.21,-177.43C705.95,-182.49 739.76,-187.88 771.89,-193"/>
<polygon fill="black" stroke="black" points="771.38,-196.46 781.8,-194.58 772.48,-189.54 771.38,-196.46"/>
</g>
<!-- b5 -->
<g id="node6" class="node">
<title>b5</title>
<polygon fill="white" stroke="black" points="1456,-52 1173,-52 1173,0 1456,0 1456,-52"/>
<text text-anchor="middle" x="1314.5" y="-40" font-family="Helvetica" font-size="10.00">B5</text>
<text text-anchor="middle" x="1314.5" y="-29" font-family="Helvetica" font-size="10.00">Loop: &lt;none&gt;</text>
<text text-anchor="middle" x="1314.5" y="-18" font-family="Helvetica" font-size="10.00">&#45;&#45;&#45;</text>
<text text-anchor="middle" x="1314.5" y="-7" font-family="Helvetica" font-size="10.00">HotSpotMethod&lt;LoopBenchmarks.sieveLoop(boolean[], int)&gt;</text>
</g>
<!-- b3&#45;&gt;b5 -->
<g id="edge6" class="edge">
<title>b3&#45;&gt;b5</title>
<path fill="none" stroke="black" d="M972.61,-190.87C1022.34,-164.14 1102.44,-121.84 1173,-88 1195.51,-77.21 1220.34,-66.01 1242.8,-56.16"/>
<polygon fill="black" stroke="black" points="1244.5,-59.24 1252.26,-52.02 1241.69,-52.82 1244.5,-59.24"/>
</g>
<!-- b7 -->
<g id="node8" class="node">
<title>b7</title>
<polygon fill="white" stroke="black" points="1847,-260 1564,-260 1564,-208 1847,-208 1847,-260"/>
<text text-anchor="middle" x="1705.5" y="-248" font-family="Helvetica" font-size="10.00">B7</text>
<text text-anchor="middle" x="1705.5" y="-237" font-family="Helvetica" font-size="10.00">Loop: &lt;none&gt;</text>
<text text-anchor="middle" x="1705.5" y="-226" font-family="Helvetica" font-size="10.00">&#45;&#45;&#45;</text>
<text text-anchor="middle" x="1705.5" y="-215" font-family="Helvetica" font-size="10.00">HotSpotMethod&lt;LoopBenchmarks.sieveLoop(boolean[], int)&gt;</text>
</g>
<!-- b3&#45;&gt;b7 -->
<g id="edge5" class="edge">
<title>b3&#45;&gt;b7</title>
<path fill="none" stroke="black" d="M964.62,-243.21C1012.1,-272.52 1094.63,-318.2 1173,-336 1295.65,-363.85 1332.6,-360.34 1456,-336 1524.77,-322.43 1598.46,-289.63 1647.57,-264.86"/>
<polygon fill="black" stroke="black" points="1649.44,-267.84 1656.76,-260.18 1646.26,-261.61 1649.44,-267.84"/>
</g>
<!-- b4 -->
<g id="node5" class="node">
<title>b4</title>
<polygon fill="white" stroke="black" points="1456,-300 1173,-300 1173,-248 1456,-248 1456,-300"/>
<text text-anchor="middle" x="1314.5" y="-288" font-family="Helvetica" font-size="10.00">B4</text>
<text text-anchor="middle" x="1314.5" y="-277" font-family="Helvetica" font-size="10.00">Loop: &lt;none&gt;</text>
<text text-anchor="middle" x="1314.5" y="-266" font-family="Helvetica" font-size="10.00">&#45;&#45;&#45;</text>
<text text-anchor="middle" x="1314.5" y="-255" font-family="Helvetica" font-size="10.00">HotSpotMethod&lt;LoopBenchmarks.sieveLoop(boolean[], int)&gt;</text>
</g>
<!-- b4&#45;&gt;b7 -->
<g id="edge7" class="edge">
<title>b4&#45;&gt;b7</title>
<path fill="none" stroke="black" d="M1456.21,-259.53C1487.81,-256.28 1521.47,-252.82 1553.48,-249.53"/>
<polygon fill="black" stroke="black" points="1554.21,-252.97 1563.8,-248.47 1553.5,-246.01 1554.21,-252.97"/>
</g>
<!-- b5&#45;&gt;b7 -->
<g id="edge8" class="edge">
<title>b5&#45;&gt;b7</title>
<path fill="none" stroke="black" d="M1378.82,-52.1C1403.24,-62.63 1431.2,-75.3 1456,-88 1526.79,-124.26 1605.48,-171.78 1654.96,-202.6"/>
<polygon fill="black" stroke="black" points="1653.22,-205.63 1663.55,-207.96 1656.92,-199.7 1653.22,-205.63"/>
</g>
<!-- b22 -->
<g id="node23" class="node">
<title>b22</title>
<polygon fill="white" stroke="black" points="1847,-52 1564,-52 1564,0 1847,0 1847,-52"/>
<text text-anchor="middle" x="1705.5" y="-40" font-family="Helvetica" font-size="10.00">B22</text>
<text text-anchor="middle" x="1705.5" y="-29" font-family="Helvetica" font-size="10.00">Loop: &lt;none&gt;</text>
<text text-anchor="middle" x="1705.5" y="-18" font-family="Helvetica" font-size="10.00">&#45;&#45;&#45;</text>
<text text-anchor="middle" x="1705.5" y="-7" font-family="Helvetica" font-size="10.00">HotSpotMethod&lt;LoopBenchmarks.sieveLoop(boolean[], int)&gt;</text>
</g>
<!-- b5&#45;&gt;b22 -->
<g id="edge9" class="edge">
<title>b5&#45;&gt;b22</title>
<path fill="none" stroke="black" d="M1456.21,-26C1487.81,-26 1521.47,-26 1553.48,-26"/>
<polygon fill="black" stroke="black" points="1553.8,-29.5 1563.8,-26 1553.8,-22.5 1553.8,-29.5"/>
</g>
<!-- b6 -->
<g id="node7" class="node">
<title>b6</title>
<polygon fill="white" stroke="black" points="1456,-176 1173,-176 1173,-124 1456,-124 1456,-176"/>
<text text-anchor="middle" x="1314.5" y="-164" font-family="Helvetica" font-size="10.00">B6</text>
<text text-anchor="middle" x="1314.5" y="-153" font-family="Helvetica" font-size="10.00">Loop: &lt;none&gt;</text>
<text text-anchor="middle" x="1314.5" y="-142" font-family="Helvetica" font-size="10.00">&#45;&#45;&#45;</text>
<text text-anchor="middle" x="1314.5" y="-131" font-family="Helvetica" font-size="10.00">HotSpotMethod&lt;LoopBenchmarks.sieveLoop(boolean[], int)&gt;</text>
</g>
<!-- b6&#45;&gt;b7 -->
<g id="edge10" class="edge">
<title>b6&#45;&gt;b7</title>
<path fill="none" stroke="black" d="M1435.92,-176C1479.69,-185.45 1529.35,-196.18 1573.95,-205.81"/>
<polygon fill="black" stroke="black" points="1573.47,-209.29 1583.98,-207.98 1574.95,-202.44 1573.47,-209.29"/>
</g>
<!-- b8 -->
<g id="node9" class="node">
<title>b8</title>
<polygon fill="white" stroke="black" points="2238,-344 1955,-344 1955,-292 2238,-292 2238,-344"/>
<text text-anchor="middle" x="2096.5" y="-332" font-family="Helvetica" font-size="10.00">B8</text>
<text text-anchor="middle" x="2096.5" y="-321" font-family="Helvetica" font-size="10.00">Loop: &lt;none&gt;</text>
<text text-anchor="middle" x="2096.5" y="-310" font-family="Helvetica" font-size="10.00">&#45;&#45;&#45;</text>
<text text-anchor="middle" x="2096.5" y="-299" font-family="Helvetica" font-size="10.00">HotSpotMethod&lt;LoopBenchmarks.sieveLoop(boolean[], int)&gt;</text>
</g>
<!-- b7&#45;&gt;b8 -->
<g id="edge11" class="edge">
<title>b7&#45;&gt;b8</title>
<path fill="none" stroke="black" d="M1826.92,-260C1870.69,-269.45 1920.35,-280.18 1964.95,-289.81"/>
<polygon fill="black" stroke="black" points="1964.47,-293.29 1974.98,-291.98 1965.95,-286.44 1964.47,-293.29"/>
</g>
<!-- b21 -->
<g id="node22" class="node">
<title>b21</title>
<polygon fill="white" stroke="black" points="2238,-209 1955,-209 1955,-157 2238,-157 2238,-209"/>
<text text-anchor="middle" x="2096.5" y="-197" font-family="Helvetica" font-size="10.00">B21</text>
<text text-anchor="middle" x="2096.5" y="-186" font-family="Helvetica" font-size="10.00">Loop: &lt;none&gt;</text>
<text text-anchor="middle" x="2096.5" y="-175" font-family="Helvetica" font-size="10.00">&#45;&#45;&#45;</text>
<text text-anchor="middle" x="2096.5" y="-164" font-family="Helvetica" font-size="10.00">HotSpotMethod&lt;LoopBenchmarks.sieveLoop(boolean[], int)&gt;</text>
</g>
<!-- b7&#45;&gt;b21 -->
<g id="edge12" class="edge">
<title>b7&#45;&gt;b21</title>
<path fill="none" stroke="black" d="M1847.21,-215.55C1878.81,-211.41 1912.47,-207 1944.48,-202.8"/>
<polygon fill="black" stroke="black" points="1945.34,-206.22 1954.8,-201.45 1944.43,-199.28 1945.34,-206.22"/>
</g>
<!-- b9 -->
<g id="node10" class="node">
<title>b9</title>
<polygon fill="white" stroke="black" points="2629,-479 2346,-479 2346,-427 2629,-427 2629,-479"/>
<text text-anchor="middle" x="2487.5" y="-467" font-family="Helvetica" font-size="10.00">B9</text>
<text text-anchor="middle" x="2487.5" y="-456" font-family="Helvetica" font-size="10.00">Loop: &lt;none&gt;</text>
<text text-anchor="middle" x="2487.5" y="-445" font-family="Helvetica" font-size="10.00">&#45;&#45;&#45;</text>
<text text-anchor="middle" x="2487.5" y="-434" font-family="Helvetica" font-size="10.00">HotSpotMethod&lt;LoopBenchmarks.sieveLoop(boolean[], int)&gt;</text>
</g>
<!-- b8&#45;&gt;b9 -->
<g id="edge13" class="edge">
<title>b8&#45;&gt;b9</title>
<path fill="none" stroke="black" d="M2172.5,-344.03C2238.19,-366.82 2333.55,-399.92 2401.93,-423.65"/>
<polygon fill="black" stroke="black" points="2400.8,-426.96 2411.4,-426.94 2403.1,-420.35 2400.8,-426.96"/>
</g>
<!-- b20 -->
<g id="node21" class="node">
<title>b20</title>
<polygon fill="white" stroke="black" points="2629,-344 2346,-344 2346,-292 2629,-292 2629,-344"/>
<text text-anchor="middle" x="2487.5" y="-332" font-family="Helvetica" font-size="10.00">B20</text>
<text text-anchor="middle" x="2487.5" y="-321" font-family="Helvetica" font-size="10.00">Loop: &lt;none&gt;</text>
<text text-anchor="middle" x="2487.5" y="-310" font-family="Helvetica" font-size="10.00">&#45;&#45;&#45;</text>
<text text-anchor="middle" x="2487.5" y="-299" font-family="Helvetica" font-size="10.00">HotSpotMethod&lt;LoopBenchmarks.sieveLoop(boolean[], int)&gt;</text>
</g>
<!-- b8&#45;&gt;b20 -->
<g id="edge14" class="edge">
<title>b8&#45;&gt;b20</title>
<path fill="none" stroke="black" d="M2238.21,-318C2269.81,-318 2303.47,-318 2335.48,-318"/>
<polygon fill="black" stroke="black" points="2335.8,-321.5 2345.8,-318 2335.8,-314.5 2335.8,-321.5"/>
</g>
<!-- b10 -->
<g id="node11" class="node">
<title>b10</title>
<polygon fill="white" stroke="black" points="3020,-603 2737,-603 2737,-551 3020,-551 3020,-603"/>
<text text-anchor="middle" x="2878.5" y="-591" font-family="Helvetica" font-size="10.00">B10</text>
<text text-anchor="middle" x="2878.5" y="-580" font-family="Helvetica" font-size="10.00">Loop: &lt;none&gt;</text>
<text text-anchor="middle" x="2878.5" y="-569" font-family="Helvetica" font-size="10.00">&#45;&#45;&#45;</text>
<text text-anchor="middle" x="2878.5" y="-558" font-family="Helvetica" font-size="10.00">HotSpotMethod&lt;LoopBenchmarks.sieveLoop(boolean[], int)&gt;</text>
</g>
<!-- b9&#45;&gt;b10 -->
<g id="edge15" class="edge">
<title>b9&#45;&gt;b10</title>
<path fill="none" stroke="black" d="M2570.52,-479.15C2633.6,-499.25 2720.72,-527.02 2786.04,-547.85"/>
<polygon fill="black" stroke="black" points="2785.33,-551.29 2795.92,-551 2787.46,-544.62 2785.33,-551.29"/>
</g>
<!-- b19 -->
<g id="node20" class="node">
<title>b19</title>
<polygon fill="white" stroke="black" points="3020,-479 2737,-479 2737,-427 3020,-427 3020,-479"/>
<text text-anchor="middle" x="2878.5" y="-467" font-family="Helvetica" font-size="10.00">B19</text>
<text text-anchor="middle" x="2878.5" y="-456" font-family="Helvetica" font-size="10.00">Loop: &lt;none&gt;</text>
<text text-anchor="middle" x="2878.5" y="-445" font-family="Helvetica" font-size="10.00">&#45;&#45;&#45;</text>
<text text-anchor="middle" x="2878.5" y="-434" font-family="Helvetica" font-size="10.00">HotSpotMethod&lt;LoopBenchmarks.sieveLoop(boolean[], int)&gt;</text>
</g>
<!-- b9&#45;&gt;b19 -->
<g id="edge16" class="edge">
<title>b9&#45;&gt;b19</title>
<path fill="none" stroke="black" d="M2629.21,-453C2660.81,-453 2694.47,-453 2726.48,-453"/>
<polygon fill="black" stroke="black" points="2726.8,-456.5 2736.8,-453 2726.8,-449.5 2726.8,-456.5"/>
</g>
<!-- b11 -->
<g id="node12" class="node">
<title>b11</title>
<polygon fill="white" stroke="black" stroke-width="4" points="3415,-658.5 3132,-658.5 3132,-573.5 3415,-573.5 3415,-658.5"/>
<polygon fill="none" stroke="black" stroke-width="4" points="3419,-662.5 3128,-662.5 3128,-569.5 3419,-569.5 3419,-662.5"/>
<text text-anchor="middle" x="3273.5" y="-646.5" font-family="Helvetica" font-size="10.00">B11</text>
<text text-anchor="middle" x="3273.5" y="-635.5" font-family="Helvetica" font-size="10.00">Loop: &lt;none&gt;</text>
<text text-anchor="middle" x="3273.5" y="-624.5" font-family="Helvetica" font-size="10.00">&#45;&#45;&#45;</text>
<text text-anchor="middle" x="3273.5" y="-613.5" font-family="Helvetica" font-size="10.00">HotSpotMethod&lt;LoopBenchmarks.sieveLoop(boolean[], int)&gt;</text>
<text text-anchor="middle" x="3273.5" y="-602.5" font-family="Helvetica" font-size="10.00">&#45;&#45;&#45;</text>
<text text-anchor="middle" x="3273.5" y="-591.5" font-family="Helvetica" font-size="10.00">BuboLoopMakers:</text>
<text text-anchor="middle" x="3273.5" y="-580.5" font-family="Helvetica" font-size="10.00"> &#160;AMD64BuboRDTSCToSlot (LoopID=0)</text>
</g>
<!-- b10&#45;&gt;b11 -->
<g id="edge17" class="edge">
<title>b10&#45;&gt;b11</title>
<path fill="none" stroke="black" d="M3020.27,-590.97C3051.77,-594.1 3085.36,-597.43 3117.4,-600.61"/>
<polygon fill="black" stroke="black" points="3117.45,-604.13 3127.75,-601.64 3118.14,-597.16 3117.45,-604.13"/>
</g>
<!-- b18 -->
<g id="node19" class="node">
<title>b18</title>
<polygon fill="white" stroke="black" points="3415,-497 3132,-497 3132,-445 3415,-445 3415,-497"/>
<text text-anchor="middle" x="3273.5" y="-485" font-family="Helvetica" font-size="10.00">B18</text>
<text text-anchor="middle" x="3273.5" y="-474" font-family="Helvetica" font-size="10.00">Loop: &lt;none&gt;</text>
<text text-anchor="middle" x="3273.5" y="-463" font-family="Helvetica" font-size="10.00">&#45;&#45;&#45;</text>
<text text-anchor="middle" x="3273.5" y="-452" font-family="Helvetica" font-size="10.00">HotSpotMethod&lt;LoopBenchmarks.sieveLoop(boolean[], int)&gt;</text>
</g>
<!-- b10&#45;&gt;b18 -->
<g id="edge18" class="edge">
<title>b10&#45;&gt;b18</title>
<path fill="none" stroke="black" d="M2976.14,-550.93C3033.73,-535.4 3106.91,-515.66 3166.13,-499.69"/>
<polygon fill="black" stroke="black" points="3167.15,-503.04 3175.89,-497.06 3165.32,-496.28 3167.15,-503.04"/>
</g>
<!-- b12 -->
<g id="node13" class="node">
<title>b12</title>
<polygon fill="lightblue" stroke="black" points="3810,-642 3527,-642 3527,-590 3810,-590 3810,-642"/>
<text text-anchor="middle" x="3668.5" y="-630" font-family="Helvetica" font-size="10.00">B12</text>
<text text-anchor="middle" x="3668.5" y="-619" font-family="Helvetica" font-size="10.00">Loop: L0</text>
<text text-anchor="middle" x="3668.5" y="-608" font-family="Helvetica" font-size="10.00">&#45;&#45;&#45;</text>
<text text-anchor="middle" x="3668.5" y="-597" font-family="Helvetica" font-size="10.00">HotSpotMethod&lt;LoopBenchmarks.sieveLoop(boolean[], int)&gt;</text>
</g>
<!-- b11&#45;&gt;b12 -->
<g id="edge19" class="edge">
<title>b11&#45;&gt;b12</title>
<path fill="none" stroke="black" d="M3419.16,-616C3450.86,-616 3484.5,-616 3516.44,-616"/>
<polygon fill="black" stroke="black" points="3516.74,-619.5 3526.74,-616 3516.74,-612.5 3516.74,-619.5"/>
</g>
<!-- b13 -->
<g id="node14" class="node">
<title>b13</title>
<polygon fill="lightblue" stroke="black" points="4201,-642 3918,-642 3918,-590 4201,-590 4201,-642"/>
<text text-anchor="middle" x="4059.5" y="-630" font-family="Helvetica" font-size="10.00">B13</text>
<text text-anchor="middle" x="4059.5" y="-619" font-family="Helvetica" font-size="10.00">Loop: L0</text>
<text text-anchor="middle" x="4059.5" y="-608" font-family="Helvetica" font-size="10.00">&#45;&#45;&#45;</text>
<text text-anchor="middle" x="4059.5" y="-597" font-family="Helvetica" font-size="10.00">HotSpotMethod&lt;LoopBenchmarks.sieveLoop(boolean[], int)&gt;</text>
</g>
<!-- b12&#45;&gt;b13 -->
<g id="edge20" class="edge">
<title>b12&#45;&gt;b13</title>
<path fill="none" stroke="black" d="M3810.21,-616C3841.81,-616 3875.47,-616 3907.48,-616"/>
<polygon fill="black" stroke="black" points="3907.8,-619.5 3917.8,-616 3907.8,-612.5 3907.8,-619.5"/>
</g>
<!-- b16 -->
<g id="node17" class="node">
<title>b16</title>
<polygon fill="white" stroke="black" points="4201,-518 3918,-518 3918,-466 4201,-466 4201,-518"/>
<text text-anchor="middle" x="4059.5" y="-506" font-family="Helvetica" font-size="10.00">B16</text>
<text text-anchor="middle" x="4059.5" y="-495" font-family="Helvetica" font-size="10.00">Loop: &lt;none&gt;</text>
<text text-anchor="middle" x="4059.5" y="-484" font-family="Helvetica" font-size="10.00">&#45;&#45;&#45;</text>
<text text-anchor="middle" x="4059.5" y="-473" font-family="Helvetica" font-size="10.00">HotSpotMethod&lt;LoopBenchmarks.sieveLoop(boolean[], int)&gt;</text>
</g>
<!-- b12&#45;&gt;b16 -->
<g id="edge21" class="edge">
<title>b12&#45;&gt;b16</title>
<path fill="none" stroke="black" d="M3751.52,-589.85C3814.6,-569.75 3901.72,-541.98 3967.04,-521.15"/>
<polygon fill="black" stroke="black" points="3968.46,-524.38 3976.92,-518 3966.33,-517.71 3968.46,-524.38"/>
</g>
<!-- b14 -->
<g id="node15" class="node">
<title>b14</title>
<polygon fill="lightblue" stroke="black" points="4592,-774 4309,-774 4309,-722 4592,-722 4592,-774"/>
<text text-anchor="middle" x="4450.5" y="-762" font-family="Helvetica" font-size="10.00">B14</text>
<text text-anchor="middle" x="4450.5" y="-751" font-family="Helvetica" font-size="10.00">Loop: L0</text>
<text text-anchor="middle" x="4450.5" y="-740" font-family="Helvetica" font-size="10.00">&#45;&#45;&#45;</text>
<text text-anchor="middle" x="4450.5" y="-729" font-family="Helvetica" font-size="10.00">HotSpotMethod&lt;LoopBenchmarks.sieveLoop(boolean[], int)&gt;</text>
</g>
<!-- b13&#45;&gt;b14 -->
<g id="edge22" class="edge">
<title>b13&#45;&gt;b14</title>
<path fill="none" stroke="black" d="M4137.35,-642.08C4202.35,-664.14 4295.43,-695.72 4363.02,-718.66"/>
<polygon fill="black" stroke="black" points="4362.21,-722.08 4372.81,-721.98 4364.46,-715.45 4362.21,-722.08"/>
</g>
<!-- b15 -->
<g id="node16" class="node">
<title>b15</title>
<polygon fill="white" stroke="black" points="4592,-645 4309,-645 4309,-593 4592,-593 4592,-645"/>
<text text-anchor="middle" x="4450.5" y="-633" font-family="Helvetica" font-size="10.00">B15</text>
<text text-anchor="middle" x="4450.5" y="-622" font-family="Helvetica" font-size="10.00">Loop: &lt;none&gt;</text>
<text text-anchor="middle" x="4450.5" y="-611" font-family="Helvetica" font-size="10.00">&#45;&#45;&#45;</text>
<text text-anchor="middle" x="4450.5" y="-600" font-family="Helvetica" font-size="10.00">HotSpotMethod&lt;LoopBenchmarks.sieveLoop(boolean[], int)&gt;</text>
</g>
<!-- b13&#45;&gt;b15 -->
<g id="edge23" class="edge">
<title>b13&#45;&gt;b15</title>
<path fill="none" stroke="black" d="M4201.21,-617.09C4232.81,-617.33 4266.47,-617.59 4298.48,-617.84"/>
<polygon fill="black" stroke="black" points="4298.78,-621.34 4308.8,-617.91 4298.83,-614.34 4298.78,-621.34"/>
</g>
<!-- b14&#45;&gt;b12 -->
<g id="edge24" class="edge">
<title>b14&#45;&gt;b12</title>
<path fill="none" stroke="black" d="M4308.92,-733.89C4201.38,-722.03 4049.67,-703.01 3918,-678 3869.98,-668.88 3817.37,-656.16 3772.98,-644.61"/>
<polygon fill="black" stroke="black" points="3773.61,-641.16 3763.05,-642.01 3771.84,-647.93 3773.61,-641.16"/>
</g>
<!-- b17 -->
<g id="node18" class="node">
<title>b17</title>
<polygon fill="white" stroke="black" points="4983,-577 4700,-577 4700,-525 4983,-525 4983,-577"/>
<text text-anchor="middle" x="4841.5" y="-565" font-family="Helvetica" font-size="10.00">B17</text>
<text text-anchor="middle" x="4841.5" y="-554" font-family="Helvetica" font-size="10.00">Loop: &lt;none&gt;</text>
<text text-anchor="middle" x="4841.5" y="-543" font-family="Helvetica" font-size="10.00">&#45;&#45;&#45;</text>
<text text-anchor="middle" x="4841.5" y="-532" font-family="Helvetica" font-size="10.00">HotSpotMethod&lt;LoopBenchmarks.sieveLoop(boolean[], int)&gt;</text>
</g>
<!-- b15&#45;&gt;b17 -->
<g id="edge25" class="edge">
<title>b15&#45;&gt;b17</title>
<path fill="none" stroke="black" d="M4592.21,-594.4C4623.95,-588.85 4657.76,-582.94 4689.89,-577.33"/>
<polygon fill="black" stroke="black" points="4690.56,-580.76 4699.8,-575.59 4689.35,-573.87 4690.56,-580.76"/>
</g>
<!-- b16&#45;&gt;b17 -->
<g id="edge26" class="edge">
<title>b16&#45;&gt;b17</title>
<path fill="none" stroke="black" d="M4201.3,-502.65C4339.18,-513.08 4548.56,-528.92 4689.76,-539.6"/>
<polygon fill="black" stroke="black" points="4689.57,-543.09 4699.8,-540.36 4690.1,-536.11 4689.57,-543.09"/>
</g>
<!-- b23 -->
<g id="node24" class="node">
<title>b23</title>
<polygon fill="white" stroke="black" points="3415,-305 3132,-305 3132,-253 3415,-253 3415,-305"/>
<text text-anchor="middle" x="3273.5" y="-293" font-family="Helvetica" font-size="10.00">B23</text>
<text text-anchor="middle" x="3273.5" y="-282" font-family="Helvetica" font-size="10.00">Loop: &lt;none&gt;</text>
<text text-anchor="middle" x="3273.5" y="-271" font-family="Helvetica" font-size="10.00">&#45;&#45;&#45;</text>
<text text-anchor="middle" x="3273.5" y="-260" font-family="Helvetica" font-size="10.00">HotSpotMethod&lt;LoopBenchmarks.sieveLoop(boolean[], int)&gt;</text>
</g>
<!-- b19&#45;&gt;b23 -->
<g id="edge27" class="edge">
<title>b19&#45;&gt;b23</title>
<path fill="none" stroke="black" d="M2938.34,-426.95C3009.49,-395.45 3129.04,-342.52 3204.19,-309.24"/>
<polygon fill="black" stroke="black" points="3205.86,-312.33 3213.58,-305.09 3203.02,-305.93 3205.86,-312.33"/>
</g>
<!-- b20&#45;&gt;b23 -->
<g id="edge28" class="edge">
<title>b20&#45;&gt;b23</title>
<path fill="none" stroke="black" d="M2629.12,-311.01C2767.89,-304.1 2979.38,-293.58 3121.62,-286.51"/>
<polygon fill="black" stroke="black" points="3121.92,-289.99 3131.74,-286 3121.58,-283 3121.92,-289.99"/>
</g>
<!-- b21&#45;&gt;b23 -->
<g id="edge29" class="edge">
<title>b21&#45;&gt;b23</title>
<path fill="none" stroke="black" d="M2238.07,-194.48C2460.75,-212.68 2892.79,-247.98 3121.7,-266.68"/>
<polygon fill="black" stroke="black" points="3121.52,-270.18 3131.77,-267.5 3122.09,-263.2 3121.52,-270.18"/>
</g>
<!-- b22&#45;&gt;b23 -->
<g id="edge30" class="edge">
<title>b22&#45;&gt;b23</title>
<path fill="none" stroke="black" d="M1847.11,-42.88C2088.16,-72.68 2595.41,-139.18 3020,-220 3066.05,-228.76 3116.41,-240.16 3159.96,-250.6"/>
<polygon fill="black" stroke="black" points="3159.18,-254.01 3169.72,-252.95 3160.81,-247.2 3159.18,-254.01"/>
</g>
</g>
</svg>
