<?xml version="1.0" encoding="UTF-8" standalone="no"?>
<!DOCTYPE svg PUBLIC "-//W3C//DTD SVG 1.1//EN"
 "http://www.w3.org/Graphics/SVG/1.1/DTD/svg11.dtd">
<!-- Generated by graphviz version 2.44.0 (0)
 -->
<!-- Title: CFG_140 Pages: 1 -->
<svg width="3775pt" height="646pt"
 viewBox="0.00 0.00 3775.00 646.00" xmlns="http://www.w3.org/2000/svg" xmlns:xlink="http://www.w3.org/1999/xlink">
<g id="graph0" class="graph" transform="scale(1 1) rotate(0) translate(4 642)">
<title>CFG_140</title>
<polygon fill="white" stroke="transparent" points="-4,4 -4,-642 3771,-642 3771,4 -4,4"/>
<text text-anchor="middle" x="286" y="-618" font-family="Times-Roman" font-size="20.00">210&#45;LoopBenchmarks.polynomialLoop(double[], double)</text>
<!-- b0 -->
<g id="node1" class="node">
<title>b0</title>
<polygon fill="white" stroke="black" points="319,-267 0,-267 0,-215 319,-215 319,-267"/>
<text text-anchor="middle" x="159.5" y="-255" font-family="Helvetica" font-size="10.00">B0</text>
<text text-anchor="middle" x="159.5" y="-244" font-family="Helvetica" font-size="10.00">Loop: &lt;none&gt;</text>
<text text-anchor="middle" x="159.5" y="-233" font-family="Helvetica" font-size="10.00">&#45;&#45;&#45;</text>
<text text-anchor="middle" x="159.5" y="-222" font-family="Helvetica" font-size="10.00">HotSpotMethod&lt;LoopBenchmarks.polynomialLoop(double[], double)&gt;</text>
</g>
<!-- b2 -->
<g id="node3" class="node">
<title>b2</title>
<polygon fill="white" stroke="black" stroke-width="4" points="750,-512.5 431,-512.5 431,-427.5 750,-427.5 750,-512.5"/>
<polygon fill="none" stroke="black" stroke-width="4" points="754,-516.5 427,-516.5 427,-423.5 754,-423.5 754,-516.5"/>
<text text-anchor="middle" x="590.5" y="-500.5" font-family="Helvetica" font-size="10.00">B2</text>
<text text-anchor="middle" x="590.5" y="-489.5" font-family="Helvetica" font-size="10.00">Loop: &lt;none&gt;</text>
<text text-anchor="middle" x="590.5" y="-478.5" font-family="Helvetica" font-size="10.00">&#45;&#45;&#45;</text>
<text text-anchor="middle" x="590.5" y="-467.5" font-family="Helvetica" font-size="10.00">HotSpotMethod&lt;LoopBenchmarks.polynomialLoop(double[], double)&gt;</text>
<text text-anchor="middle" x="590.5" y="-456.5" font-family="Helvetica" font-size="10.00">&#45;&#45;&#45;</text>
<text text-anchor="middle" x="590.5" y="-445.5" font-family="Helvetica" font-size="10.00">BuboLoopMakers:</text>
<text text-anchor="middle" x="590.5" y="-434.5" font-family="Helvetica" font-size="10.00"> &#160;AMD64BuboRDTSCToSlot (LoopID=0)</text>
</g>
<!-- b0&#45;&gt;b2 -->
<g id="edge2" class="edge">
<title>b0&#45;&gt;b2</title>
<path fill="none" stroke="black" d="M209.29,-267.05C278.09,-303.77 405.01,-371.52 493.2,-418.59"/>
<polygon fill="black" stroke="black" points="491.67,-421.75 502.14,-423.37 494.97,-415.57 491.67,-421.75"/>
</g>
<!-- b12 -->
<g id="node13" class="node">
<title>b12</title>
<polygon fill="white" stroke="black" points="3767,-187 3448,-187 3448,-135 3767,-135 3767,-187"/>
<text text-anchor="middle" x="3607.5" y="-175" font-family="Helvetica" font-size="10.00">B12</text>
<text text-anchor="middle" x="3607.5" y="-164" font-family="Helvetica" font-size="10.00">Loop: &lt;none&gt;</text>
<text text-anchor="middle" x="3607.5" y="-153" font-family="Helvetica" font-size="10.00">&#45;&#45;&#45;</text>
<text text-anchor="middle" x="3607.5" y="-142" font-family="Helvetica" font-size="10.00">HotSpotMethod&lt;LoopBenchmarks.polynomialLoop(double[], double)&gt;</text>
</g>
<!-- b0&#45;&gt;b12 -->
<g id="edge1" class="edge">
<title>b0&#45;&gt;b12</title>
<path fill="none" stroke="black" d="M319.38,-217.32C491.67,-193.73 774.96,-161 1020.5,-161 1020.5,-161 1020.5,-161 2746.5,-161 2986.58,-161 3264.36,-161 3437.76,-161"/>
<polygon fill="black" stroke="black" points="3437.99,-164.5 3447.99,-161 3437.99,-157.5 3437.99,-164.5"/>
</g>
<!-- b1 -->
<g id="node2" class="node">
<title>b1</title>
<polygon fill="white" stroke="black" points="3336,-52 3017,-52 3017,0 3336,0 3336,-52"/>
<text text-anchor="middle" x="3176.5" y="-40" font-family="Helvetica" font-size="10.00">B1</text>
<text text-anchor="middle" x="3176.5" y="-29" font-family="Helvetica" font-size="10.00">Loop: &lt;none&gt;</text>
<text text-anchor="middle" x="3176.5" y="-18" font-family="Helvetica" font-size="10.00">&#45;&#45;&#45;</text>
<text text-anchor="middle" x="3176.5" y="-7" font-family="Helvetica" font-size="10.00">HotSpotMethod&lt;LoopBenchmarks.polynomialLoop(double[], double)&gt;</text>
</g>
<!-- b1&#45;&gt;b12 -->
<g id="edge3" class="edge">
<title>b1&#45;&gt;b12</title>
<path fill="none" stroke="black" d="M3260.22,-52.03C3332.8,-74.87 3438.26,-108.06 3513.7,-131.8"/>
<polygon fill="black" stroke="black" points="3513.08,-135.27 3523.67,-134.94 3515.19,-128.6 3513.08,-135.27"/>
</g>
<!-- b3 -->
<g id="node4" class="node">
<title>b3</title>
<polygon fill="lightblue" stroke="black" points="1181,-533 862,-533 862,-481 1181,-481 1181,-533"/>
<text text-anchor="middle" x="1021.5" y="-521" font-family="Helvetica" font-size="10.00">B3</text>
<text text-anchor="middle" x="1021.5" y="-510" font-family="Helvetica" font-size="10.00">Loop: L0</text>
<text text-anchor="middle" x="1021.5" y="-499" font-family="Helvetica" font-size="10.00">&#45;&#45;&#45;</text>
<text text-anchor="middle" x="1021.5" y="-488" font-family="Helvetica" font-size="10.00">HotSpotMethod&lt;LoopBenchmarks.polynomialLoop(double[], double)&gt;</text>
</g>
<!-- b2&#45;&gt;b3 -->
<g id="edge4" class="edge">
<title>b2&#45;&gt;b3</title>
<path fill="none" stroke="black" d="M754.3,-484.04C786.06,-486.78 819.43,-489.66 851.39,-492.41"/>
<polygon fill="black" stroke="black" points="851.45,-495.93 861.72,-493.31 852.05,-488.96 851.45,-495.93"/>
</g>
<!-- b4 -->
<g id="node5" class="node">
<title>b4</title>
<polygon fill="lightblue" stroke="black" points="1612,-608 1293,-608 1293,-556 1612,-556 1612,-608"/>
<text text-anchor="middle" x="1452.5" y="-596" font-family="Helvetica" font-size="10.00">B4</text>
<text text-anchor="middle" x="1452.5" y="-585" font-family="Helvetica" font-size="10.00">Loop: L0</text>
<text text-anchor="middle" x="1452.5" y="-574" font-family="Helvetica" font-size="10.00">&#45;&#45;&#45;</text>
<text text-anchor="middle" x="1452.5" y="-563" font-family="Helvetica" font-size="10.00">HotSpotMethod&lt;LoopBenchmarks.polynomialLoop(double[], double)&gt;</text>
</g>
<!-- b3&#45;&gt;b4 -->
<g id="edge6" class="edge">
<title>b3&#45;&gt;b4</title>
<path fill="none" stroke="black" d="M1181.02,-508.55C1255.4,-519.29 1339.43,-536.32 1393.81,-552.78"/>
<polygon fill="black" stroke="black" points="1393.02,-556.2 1403.61,-555.85 1395.11,-549.52 1393.02,-556.2"/>
</g>
<!-- b5 -->
<g id="node6" class="node">
<title>b5</title>
<polygon fill="white" stroke="black" stroke-width="4" points="1612,-480 1293,-480 1293,-384 1612,-384 1612,-480"/>
<polygon fill="none" stroke="black" stroke-width="4" points="1616,-484 1289,-484 1289,-380 1616,-380 1616,-484"/>
<text text-anchor="middle" x="1452.5" y="-468" font-family="Helvetica" font-size="10.00">B5</text>
<text text-anchor="middle" x="1452.5" y="-457" font-family="Helvetica" font-size="10.00">Loop: &lt;none&gt;</text>
<text text-anchor="middle" x="1452.5" y="-446" font-family="Helvetica" font-size="10.00">&#45;&#45;&#45;</text>
<text text-anchor="middle" x="1452.5" y="-435" font-family="Helvetica" font-size="10.00">HotSpotMethod&lt;LoopBenchmarks.polynomialLoop(double[], double)&gt;</text>
<text text-anchor="middle" x="1452.5" y="-424" font-family="Helvetica" font-size="10.00">&#45;&#45;&#45;</text>
<text text-anchor="middle" x="1452.5" y="-413" font-family="Helvetica" font-size="10.00">BuboLoopMakers:</text>
<text text-anchor="middle" x="1452.5" y="-402" font-family="Helvetica" font-size="10.00"> &#160;AMD64BuboWriteDeltaRDTSC</text>
<text text-anchor="middle" x="1452.5" y="-391" font-family="Helvetica" font-size="10.00"> &#160;AMD64BuboRDTSCToSlot (LoopID=1)</text>
</g>
<!-- b3&#45;&gt;b5 -->
<g id="edge5" class="edge">
<title>b3&#45;&gt;b5</title>
<path fill="none" stroke="black" d="M1171.34,-480.98C1205.96,-474.93 1243.1,-468.43 1278.66,-462.22"/>
<polygon fill="black" stroke="black" points="1279.39,-465.64 1288.64,-460.47 1278.19,-458.75 1279.39,-465.64"/>
</g>
<!-- b4&#45;&gt;b3 -->
<g id="edge7" class="edge">
<title>b4&#45;&gt;b3</title>
<path fill="none" stroke="black" d="M1292.58,-580.39C1218.14,-569.63 1134.1,-552.57 1079.83,-536.11"/>
<polygon fill="black" stroke="black" points="1080.64,-532.7 1070.05,-533.04 1078.54,-539.37 1080.64,-532.7"/>
</g>
<!-- b6 -->
<g id="node7" class="node">
<title>b6</title>
<polygon fill="lightgreen" stroke="black" points="2043,-493 1724,-493 1724,-441 2043,-441 2043,-493"/>
<text text-anchor="middle" x="1883.5" y="-481" font-family="Helvetica" font-size="10.00">B6</text>
<text text-anchor="middle" x="1883.5" y="-470" font-family="Helvetica" font-size="10.00">Loop: L1</text>
<text text-anchor="middle" x="1883.5" y="-459" font-family="Helvetica" font-size="10.00">&#45;&#45;&#45;</text>
<text text-anchor="middle" x="1883.5" y="-448" font-family="Helvetica" font-size="10.00">HotSpotMethod&lt;LoopBenchmarks.polynomialLoop(double[], double)&gt;</text>
</g>
<!-- b5&#45;&gt;b6 -->
<g id="edge8" class="edge">
<title>b5&#45;&gt;b6</title>
<path fill="none" stroke="black" d="M1616.3,-445.28C1648.06,-447.87 1681.43,-450.6 1713.39,-453.2"/>
<polygon fill="black" stroke="black" points="1713.46,-456.72 1723.72,-454.05 1714.03,-449.74 1713.46,-456.72"/>
</g>
<!-- b7 -->
<g id="node8" class="node">
<title>b7</title>
<polygon fill="lightgreen" stroke="black" points="2474,-568 2155,-568 2155,-516 2474,-516 2474,-568"/>
<text text-anchor="middle" x="2314.5" y="-556" font-family="Helvetica" font-size="10.00">B7</text>
<text text-anchor="middle" x="2314.5" y="-545" font-family="Helvetica" font-size="10.00">Loop: L1</text>
<text text-anchor="middle" x="2314.5" y="-534" font-family="Helvetica" font-size="10.00">&#45;&#45;&#45;</text>
<text text-anchor="middle" x="2314.5" y="-523" font-family="Helvetica" font-size="10.00">HotSpotMethod&lt;LoopBenchmarks.polynomialLoop(double[], double)&gt;</text>
</g>
<!-- b6&#45;&gt;b7 -->
<g id="edge10" class="edge">
<title>b6&#45;&gt;b7</title>
<path fill="none" stroke="black" d="M2043.02,-468.55C2117.4,-479.29 2201.43,-496.32 2255.81,-512.78"/>
<polygon fill="black" stroke="black" points="2255.02,-516.2 2265.61,-515.85 2257.11,-509.52 2255.02,-516.2"/>
</g>
<!-- b8 -->
<g id="node9" class="node">
<title>b8</title>
<polygon fill="white" stroke="black" stroke-width="4" points="2474,-440 2155,-440 2155,-344 2474,-344 2474,-440"/>
<polygon fill="none" stroke="black" stroke-width="4" points="2478,-444 2151,-444 2151,-340 2478,-340 2478,-444"/>
<text text-anchor="middle" x="2314.5" y="-428" font-family="Helvetica" font-size="10.00">B8</text>
<text text-anchor="middle" x="2314.5" y="-417" font-family="Helvetica" font-size="10.00">Loop: &lt;none&gt;</text>
<text text-anchor="middle" x="2314.5" y="-406" font-family="Helvetica" font-size="10.00">&#45;&#45;&#45;</text>
<text text-anchor="middle" x="2314.5" y="-395" font-family="Helvetica" font-size="10.00">HotSpotMethod&lt;LoopBenchmarks.polynomialLoop(double[], double)&gt;</text>
<text text-anchor="middle" x="2314.5" y="-384" font-family="Helvetica" font-size="10.00">&#45;&#45;&#45;</text>
<text text-anchor="middle" x="2314.5" y="-373" font-family="Helvetica" font-size="10.00">BuboLoopMakers:</text>
<text text-anchor="middle" x="2314.5" y="-362" font-family="Helvetica" font-size="10.00"> &#160;AMD64BuboWriteDeltaRDTSC</text>
<text text-anchor="middle" x="2314.5" y="-351" font-family="Helvetica" font-size="10.00"> &#160;AMD64BuboRDTSCToSlot (LoopID=2)</text>
</g>
<!-- b6&#45;&gt;b8 -->
<g id="edge9" class="edge">
<title>b6&#45;&gt;b8</title>
<path fill="none" stroke="black" d="M2033.34,-440.98C2067.96,-434.93 2105.1,-428.43 2140.66,-422.22"/>
<polygon fill="black" stroke="black" points="2141.39,-425.64 2150.64,-420.47 2140.19,-418.75 2141.39,-425.64"/>
</g>
<!-- b7&#45;&gt;b6 -->
<g id="edge11" class="edge">
<title>b7&#45;&gt;b6</title>
<path fill="none" stroke="black" d="M2154.58,-540.39C2080.14,-529.63 1996.1,-512.57 1941.83,-496.11"/>
<polygon fill="black" stroke="black" points="1942.64,-492.7 1932.05,-493.04 1940.54,-499.37 1942.64,-492.7"/>
</g>
<!-- b9 -->
<g id="node10" class="node">
<title>b9</title>
<polygon fill="lightpink" stroke="black" points="2905,-453 2586,-453 2586,-401 2905,-401 2905,-453"/>
<text text-anchor="middle" x="2745.5" y="-441" font-family="Helvetica" font-size="10.00">B9</text>
<text text-anchor="middle" x="2745.5" y="-430" font-family="Helvetica" font-size="10.00">Loop: L2</text>
<text text-anchor="middle" x="2745.5" y="-419" font-family="Helvetica" font-size="10.00">&#45;&#45;&#45;</text>
<text text-anchor="middle" x="2745.5" y="-408" font-family="Helvetica" font-size="10.00">HotSpotMethod&lt;LoopBenchmarks.polynomialLoop(double[], double)&gt;</text>
</g>
<!-- b8&#45;&gt;b9 -->
<g id="edge12" class="edge">
<title>b8&#45;&gt;b9</title>
<path fill="none" stroke="black" d="M2478.3,-405.28C2510.06,-407.87 2543.43,-410.6 2575.39,-413.2"/>
<polygon fill="black" stroke="black" points="2575.46,-416.72 2585.72,-414.05 2576.03,-409.74 2575.46,-416.72"/>
</g>
<!-- b10 -->
<g id="node11" class="node">
<title>b10</title>
<polygon fill="lightpink" stroke="black" points="3336,-488 3017,-488 3017,-436 3336,-436 3336,-488"/>
<text text-anchor="middle" x="3176.5" y="-476" font-family="Helvetica" font-size="10.00">B10</text>
<text text-anchor="middle" x="3176.5" y="-465" font-family="Helvetica" font-size="10.00">Loop: L2</text>
<text text-anchor="middle" x="3176.5" y="-454" font-family="Helvetica" font-size="10.00">&#45;&#45;&#45;</text>
<text text-anchor="middle" x="3176.5" y="-443" font-family="Helvetica" font-size="10.00">HotSpotMethod&lt;LoopBenchmarks.polynomialLoop(double[], double)&gt;</text>
</g>
<!-- b9&#45;&gt;b10 -->
<g id="edge14" class="edge">
<title>b9&#45;&gt;b10</title>
<path fill="none" stroke="black" d="M2905.02,-413.77C2970.39,-417.11 3043.21,-424.62 3096.81,-434.12"/>
<polygon fill="black" stroke="black" points="3096.46,-437.62 3106.93,-435.98 3097.72,-430.73 3096.46,-437.62"/>
</g>
<!-- b11 -->
<g id="node12" class="node">
<title>b11</title>
<polygon fill="white" stroke="black" stroke-width="4" points="3336,-359.5 3017,-359.5 3017,-274.5 3336,-274.5 3336,-359.5"/>
<polygon fill="none" stroke="black" stroke-width="4" points="3340,-363.5 3013,-363.5 3013,-270.5 3340,-270.5 3340,-363.5"/>
<text text-anchor="middle" x="3176.5" y="-347.5" font-family="Helvetica" font-size="10.00">B11</text>
<text text-anchor="middle" x="3176.5" y="-336.5" font-family="Helvetica" font-size="10.00">Loop: &lt;none&gt;</text>
<text text-anchor="middle" x="3176.5" y="-325.5" font-family="Helvetica" font-size="10.00">&#45;&#45;&#45;</text>
<text text-anchor="middle" x="3176.5" y="-314.5" font-family="Helvetica" font-size="10.00">HotSpotMethod&lt;LoopBenchmarks.polynomialLoop(double[], double)&gt;</text>
<text text-anchor="middle" x="3176.5" y="-303.5" font-family="Helvetica" font-size="10.00">&#45;&#45;&#45;</text>
<text text-anchor="middle" x="3176.5" y="-292.5" font-family="Helvetica" font-size="10.00">BuboLoopMakers:</text>
<text text-anchor="middle" x="3176.5" y="-281.5" font-family="Helvetica" font-size="10.00"> &#160;AMD64BuboWriteDeltaRDTSC (LoopID=2)</text>
</g>
<!-- b9&#45;&gt;b11 -->
<g id="edge13" class="edge">
<title>b9&#45;&gt;b11</title>
<path fill="none" stroke="black" d="M2848.17,-400.93C2894.47,-389.06 2950.58,-374.67 3003.16,-361.19"/>
<polygon fill="black" stroke="black" points="3004.12,-364.56 3012.94,-358.68 3002.38,-357.78 3004.12,-364.56"/>
</g>
<!-- b10&#45;&gt;b9 -->
<g id="edge15" class="edge">
<title>b10&#45;&gt;b9</title>
<path fill="none" stroke="black" d="M3016.8,-475.22C2951.62,-471.88 2879.05,-464.4 2825.53,-454.94"/>
<polygon fill="black" stroke="black" points="2825.89,-451.45 2815.43,-453.08 2824.63,-458.33 2825.89,-451.45"/>
</g>
<!-- b11&#45;&gt;b12 -->
<g id="edge16" class="edge">
<title>b11&#45;&gt;b12</title>
<path fill="none" stroke="black" d="M3305.63,-270.41C3376.76,-244.54 3463.1,-213.15 3525.01,-190.63"/>
<polygon fill="black" stroke="black" points="3526.53,-193.8 3534.73,-187.1 3524.14,-187.22 3526.53,-193.8"/>
</g>
</g>
</svg>
