<?xml version="1.0" encoding="UTF-8" standalone="no"?>
<!DOCTYPE svg PUBLIC "-//W3C//DTD SVG 1.1//EN"
 "http://www.w3.org/Graphics/SVG/1.1/DTD/svg11.dtd">
<!-- Generated by graphviz version 2.44.0 (0)
 -->
<!-- Title: CFG_35 Pages: 1 -->
<svg width="3992pt" height="1020pt"
 viewBox="0.00 0.00 3992.00 1020.00" xmlns="http://www.w3.org/2000/svg" xmlns:xlink="http://www.w3.org/1999/xlink">
<g id="graph0" class="graph" transform="scale(1 1) rotate(0) translate(4 1016)">
<title>CFG_35</title>
<polygon fill="white" stroke="transparent" points="-4,4 -4,-1016 3988,-1016 3988,4 -4,4"/>
<text text-anchor="middle" x="178" y="-992" font-family="Times-Roman" font-size="20.00">58&#45;java.lang.String.equals(Object)</text>
<!-- b0 -->
<g id="node1" class="node">
<title>b0</title>
<polygon fill="white" stroke="black" points="188,-190 0,-190 0,-138 188,-138 188,-190"/>
<text text-anchor="middle" x="94" y="-178" font-family="Helvetica" font-size="10.00">B0</text>
<text text-anchor="middle" x="94" y="-167" font-family="Helvetica" font-size="10.00">Loop: &lt;none&gt;</text>
<text text-anchor="middle" x="94" y="-156" font-family="Helvetica" font-size="10.00">&#45;&#45;&#45;</text>
<text text-anchor="middle" x="94" y="-145" font-family="Helvetica" font-size="10.00">HotSpotMethod&lt;String.equals(Object)&gt;</text>
</g>
<!-- b1 -->
<g id="node2" class="node">
<title>b1</title>
<polygon fill="white" stroke="black" points="511,-255 323,-255 323,-203 511,-203 511,-255"/>
<text text-anchor="middle" x="417" y="-243" font-family="Helvetica" font-size="10.00">B1</text>
<text text-anchor="middle" x="417" y="-232" font-family="Helvetica" font-size="10.00">Loop: &lt;none&gt;</text>
<text text-anchor="middle" x="417" y="-221" font-family="Helvetica" font-size="10.00">&#45;&#45;&#45;</text>
<text text-anchor="middle" x="417" y="-210" font-family="Helvetica" font-size="10.00">HotSpotMethod&lt;String.equals(Object)&gt;</text>
</g>
<!-- b0&#45;&gt;b1 -->
<g id="edge1" class="edge">
<title>b0&#45;&gt;b1</title>
<path fill="none" stroke="black" d="M188.28,-182.89C227.27,-190.78 272.72,-199.99 312.72,-208.09"/>
<polygon fill="black" stroke="black" points="312.27,-211.57 322.77,-210.12 313.66,-204.71 312.27,-211.57"/>
</g>
<!-- b2 -->
<g id="node3" class="node">
<title>b2</title>
<polygon fill="white" stroke="black" points="538,-130.5 296,-130.5 296,-67.5 538,-67.5 538,-130.5"/>
<text text-anchor="middle" x="417" y="-118.5" font-family="Helvetica" font-size="10.00">B2</text>
<text text-anchor="middle" x="417" y="-107.5" font-family="Helvetica" font-size="10.00">Loop: &lt;none&gt;</text>
<text text-anchor="middle" x="417" y="-96.5" font-family="Helvetica" font-size="10.00">&#45;&#45;&#45;</text>
<text text-anchor="middle" x="417" y="-85.5" font-family="Helvetica" font-size="10.00">HotSpotMethod&lt;String.equals(Object)&gt;</text>
<text text-anchor="middle" x="417" y="-74.5" font-family="Helvetica" font-size="10.00">HotSpotMethod&lt;StringLatin1.equals(byte[], byte[])&gt;</text>
</g>
<!-- b0&#45;&gt;b2 -->
<g id="edge2" class="edge">
<title>b0&#45;&gt;b2</title>
<path fill="none" stroke="black" d="M188.28,-145.11C218.73,-138.95 253.11,-131.98 285.77,-125.37"/>
<polygon fill="black" stroke="black" points="286.73,-128.75 295.84,-123.33 285.34,-121.89 286.73,-128.75"/>
</g>
<!-- b3 -->
<g id="node4" class="node">
<title>b3</title>
<polygon fill="white" stroke="black" points="888,-203.5 646,-203.5 646,-140.5 888,-140.5 888,-203.5"/>
<text text-anchor="middle" x="767" y="-191.5" font-family="Helvetica" font-size="10.00">B3</text>
<text text-anchor="middle" x="767" y="-180.5" font-family="Helvetica" font-size="10.00">Loop: &lt;none&gt;</text>
<text text-anchor="middle" x="767" y="-169.5" font-family="Helvetica" font-size="10.00">&#45;&#45;&#45;</text>
<text text-anchor="middle" x="767" y="-158.5" font-family="Helvetica" font-size="10.00">HotSpotMethod&lt;String.equals(Object)&gt;</text>
<text text-anchor="middle" x="767" y="-147.5" font-family="Helvetica" font-size="10.00">HotSpotMethod&lt;StringLatin1.equals(byte[], byte[])&gt;</text>
</g>
<!-- b2&#45;&gt;b3 -->
<g id="edge3" class="edge">
<title>b2&#45;&gt;b3</title>
<path fill="none" stroke="black" d="M538.25,-124.22C569.76,-130.84 603.88,-137.99 635.89,-144.71"/>
<polygon fill="black" stroke="black" points="635.24,-148.15 645.75,-146.77 636.68,-141.3 635.24,-148.15"/>
</g>
<!-- b21 -->
<g id="node22" class="node">
<title>b21</title>
<polygon fill="white" stroke="black" points="1938,-52 1696,-52 1696,0 1938,0 1938,-52"/>
<text text-anchor="middle" x="1817" y="-40" font-family="Helvetica" font-size="10.00">B21</text>
<text text-anchor="middle" x="1817" y="-29" font-family="Helvetica" font-size="10.00">Loop: &lt;none&gt;</text>
<text text-anchor="middle" x="1817" y="-18" font-family="Helvetica" font-size="10.00">&#45;&#45;&#45;</text>
<text text-anchor="middle" x="1817" y="-7" font-family="Helvetica" font-size="10.00">HotSpotMethod&lt;StringLatin1.equals(byte[], byte[])&gt;</text>
</g>
<!-- b2&#45;&gt;b21 -->
<g id="edge4" class="edge">
<title>b2&#45;&gt;b21</title>
<path fill="none" stroke="black" d="M538.1,-92.73C798.97,-79.11 1415.6,-46.91 1685.58,-32.81"/>
<polygon fill="black" stroke="black" points="1686.02,-36.29 1695.82,-32.28 1685.65,-29.3 1686.02,-36.29"/>
</g>
<!-- b4 -->
<g id="node5" class="node">
<title>b4</title>
<polygon fill="white" stroke="black" points="1238,-613.5 996,-613.5 996,-550.5 1238,-550.5 1238,-613.5"/>
<text text-anchor="middle" x="1117" y="-601.5" font-family="Helvetica" font-size="10.00">B4</text>
<text text-anchor="middle" x="1117" y="-590.5" font-family="Helvetica" font-size="10.00">Loop: &lt;none&gt;</text>
<text text-anchor="middle" x="1117" y="-579.5" font-family="Helvetica" font-size="10.00">&#45;&#45;&#45;</text>
<text text-anchor="middle" x="1117" y="-568.5" font-family="Helvetica" font-size="10.00">HotSpotMethod&lt;String.equals(Object)&gt;</text>
<text text-anchor="middle" x="1117" y="-557.5" font-family="Helvetica" font-size="10.00">HotSpotMethod&lt;StringLatin1.equals(byte[], byte[])&gt;</text>
</g>
<!-- b3&#45;&gt;b4 -->
<g id="edge5" class="edge">
<title>b3&#45;&gt;b4</title>
<path fill="none" stroke="black" d="M795.02,-203.83C857.86,-277.86 1013.69,-461.46 1082.47,-542.49"/>
<polygon fill="black" stroke="black" points="1080.1,-545.11 1089.24,-550.47 1085.44,-540.58 1080.1,-545.11"/>
</g>
<!-- b20 -->
<g id="node21" class="node">
<title>b20</title>
<polygon fill="white" stroke="black" points="1238,-203.5 996,-203.5 996,-140.5 1238,-140.5 1238,-203.5"/>
<text text-anchor="middle" x="1117" y="-191.5" font-family="Helvetica" font-size="10.00">B20</text>
<text text-anchor="middle" x="1117" y="-180.5" font-family="Helvetica" font-size="10.00">Loop: &lt;none&gt;</text>
<text text-anchor="middle" x="1117" y="-169.5" font-family="Helvetica" font-size="10.00">&#45;&#45;&#45;</text>
<text text-anchor="middle" x="1117" y="-158.5" font-family="Helvetica" font-size="10.00">HotSpotMethod&lt;String.equals(Object)&gt;</text>
<text text-anchor="middle" x="1117" y="-147.5" font-family="Helvetica" font-size="10.00">HotSpotMethod&lt;StringLatin1.equals(byte[], byte[])&gt;</text>
</g>
<!-- b3&#45;&gt;b20 -->
<g id="edge6" class="edge">
<title>b3&#45;&gt;b20</title>
<path fill="none" stroke="black" d="M888.25,-172C919.63,-172 953.59,-172 985.47,-172"/>
<polygon fill="black" stroke="black" points="985.75,-175.5 995.75,-172 985.75,-168.5 985.75,-175.5"/>
</g>
<!-- b5 -->
<g id="node6" class="node">
<title>b5</title>
<polygon fill="white" stroke="black" points="1588,-608 1346,-608 1346,-556 1588,-556 1588,-608"/>
<text text-anchor="middle" x="1467" y="-596" font-family="Helvetica" font-size="10.00">B5</text>
<text text-anchor="middle" x="1467" y="-585" font-family="Helvetica" font-size="10.00">Loop: &lt;none&gt;</text>
<text text-anchor="middle" x="1467" y="-574" font-family="Helvetica" font-size="10.00">&#45;&#45;&#45;</text>
<text text-anchor="middle" x="1467" y="-563" font-family="Helvetica" font-size="10.00">HotSpotMethod&lt;StringLatin1.equals(byte[], byte[])&gt;</text>
</g>
<!-- b4&#45;&gt;b5 -->
<g id="edge7" class="edge">
<title>b4&#45;&gt;b5</title>
<path fill="none" stroke="black" d="M1238.25,-582C1269.63,-582 1303.59,-582 1335.47,-582"/>
<polygon fill="black" stroke="black" points="1335.75,-585.5 1345.75,-582 1335.75,-578.5 1335.75,-585.5"/>
</g>
<!-- b18 -->
<g id="node19" class="node">
<title>b18</title>
<polygon fill="white" stroke="black" points="1588,-870 1346,-870 1346,-818 1588,-818 1588,-870"/>
<text text-anchor="middle" x="1467" y="-858" font-family="Helvetica" font-size="10.00">B18</text>
<text text-anchor="middle" x="1467" y="-847" font-family="Helvetica" font-size="10.00">Loop: &lt;none&gt;</text>
<text text-anchor="middle" x="1467" y="-836" font-family="Helvetica" font-size="10.00">&#45;&#45;&#45;</text>
<text text-anchor="middle" x="1467" y="-825" font-family="Helvetica" font-size="10.00">HotSpotMethod&lt;StringLatin1.equals(byte[], byte[])&gt;</text>
</g>
<!-- b4&#45;&gt;b18 -->
<g id="edge8" class="edge">
<title>b4&#45;&gt;b18</title>
<path fill="none" stroke="black" d="M1159.98,-613.6C1226.55,-663.72 1355.66,-760.93 1422.92,-811.57"/>
<polygon fill="black" stroke="black" points="1421.11,-814.58 1431.2,-817.8 1425.32,-808.99 1421.11,-814.58"/>
</g>
<!-- b7 -->
<g id="node8" class="node">
<title>b7</title>
<polygon fill="white" stroke="black" points="1938,-479 1696,-479 1696,-427 1938,-427 1938,-479"/>
<text text-anchor="middle" x="1817" y="-467" font-family="Helvetica" font-size="10.00">B7</text>
<text text-anchor="middle" x="1817" y="-456" font-family="Helvetica" font-size="10.00">Loop: &lt;none&gt;</text>
<text text-anchor="middle" x="1817" y="-445" font-family="Helvetica" font-size="10.00">&#45;&#45;&#45;</text>
<text text-anchor="middle" x="1817" y="-434" font-family="Helvetica" font-size="10.00">HotSpotMethod&lt;StringLatin1.equals(byte[], byte[])&gt;</text>
</g>
<!-- b5&#45;&gt;b7 -->
<g id="edge10" class="edge">
<title>b5&#45;&gt;b7</title>
<path fill="none" stroke="black" d="M1538.42,-555.89C1595.73,-534.65 1676.61,-504.67 1736.29,-482.55"/>
<polygon fill="black" stroke="black" points="1737.52,-485.82 1745.68,-479.07 1735.09,-479.26 1737.52,-485.82"/>
</g>
<!-- b11 -->
<g id="node12" class="node">
<title>b11</title>
<polygon fill="white" stroke="black" points="2638,-738 2396,-738 2396,-686 2638,-686 2638,-738"/>
<text text-anchor="middle" x="2517" y="-726" font-family="Helvetica" font-size="10.00">B11</text>
<text text-anchor="middle" x="2517" y="-715" font-family="Helvetica" font-size="10.00">Loop: &lt;none&gt;</text>
<text text-anchor="middle" x="2517" y="-704" font-family="Helvetica" font-size="10.00">&#45;&#45;&#45;</text>
<text text-anchor="middle" x="2517" y="-693" font-family="Helvetica" font-size="10.00">HotSpotMethod&lt;StringLatin1.equals(byte[], byte[])&gt;</text>
</g>
<!-- b5&#45;&gt;b11 -->
<g id="edge9" class="edge">
<title>b5&#45;&gt;b11</title>
<path fill="none" stroke="black" d="M1588.22,-596.91C1786.62,-621.52 2180.98,-670.44 2385.77,-695.85"/>
<polygon fill="black" stroke="black" points="2385.62,-699.35 2395.98,-697.11 2386.48,-692.41 2385.62,-699.35"/>
</g>
<!-- b6 -->
<g id="node7" class="node">
<title>b6</title>
<polygon fill="white" stroke="black" points="2288,-603 2046,-603 2046,-551 2288,-551 2288,-603"/>
<text text-anchor="middle" x="2167" y="-591" font-family="Helvetica" font-size="10.00">B6</text>
<text text-anchor="middle" x="2167" y="-580" font-family="Helvetica" font-size="10.00">Loop: &lt;none&gt;</text>
<text text-anchor="middle" x="2167" y="-569" font-family="Helvetica" font-size="10.00">&#45;&#45;&#45;</text>
<text text-anchor="middle" x="2167" y="-558" font-family="Helvetica" font-size="10.00">HotSpotMethod&lt;StringLatin1.equals(byte[], byte[])&gt;</text>
</g>
<!-- b6&#45;&gt;b11 -->
<g id="edge11" class="edge">
<title>b6&#45;&gt;b11</title>
<path fill="none" stroke="black" d="M2235.1,-603.03C2293.5,-625.68 2378.13,-658.52 2439.22,-682.21"/>
<polygon fill="black" stroke="black" points="2438.22,-685.58 2448.81,-685.94 2440.75,-679.06 2438.22,-685.58"/>
</g>
<!-- b8 -->
<g id="node9" class="node">
<title>b8</title>
<polygon fill="white" stroke="black" points="2288,-479 2046,-479 2046,-427 2288,-427 2288,-479"/>
<text text-anchor="middle" x="2167" y="-467" font-family="Helvetica" font-size="10.00">B8</text>
<text text-anchor="middle" x="2167" y="-456" font-family="Helvetica" font-size="10.00">Loop: &lt;none&gt;</text>
<text text-anchor="middle" x="2167" y="-445" font-family="Helvetica" font-size="10.00">&#45;&#45;&#45;</text>
<text text-anchor="middle" x="2167" y="-434" font-family="Helvetica" font-size="10.00">HotSpotMethod&lt;StringLatin1.equals(byte[], byte[])&gt;</text>
</g>
<!-- b7&#45;&gt;b8 -->
<g id="edge12" class="edge">
<title>b7&#45;&gt;b8</title>
<path fill="none" stroke="black" d="M1938.25,-453C1969.63,-453 2003.59,-453 2035.47,-453"/>
<polygon fill="black" stroke="black" points="2035.75,-456.5 2045.75,-453 2035.75,-449.5 2035.75,-456.5"/>
</g>
<!-- b17 -->
<g id="node18" class="node">
<title>b17</title>
<polygon fill="white" stroke="black" points="2638,-339 2396,-339 2396,-287 2638,-287 2638,-339"/>
<text text-anchor="middle" x="2517" y="-327" font-family="Helvetica" font-size="10.00">B17</text>
<text text-anchor="middle" x="2517" y="-316" font-family="Helvetica" font-size="10.00">Loop: &lt;none&gt;</text>
<text text-anchor="middle" x="2517" y="-305" font-family="Helvetica" font-size="10.00">&#45;&#45;&#45;</text>
<text text-anchor="middle" x="2517" y="-294" font-family="Helvetica" font-size="10.00">HotSpotMethod&lt;StringLatin1.equals(byte[], byte[])&gt;</text>
</g>
<!-- b7&#45;&gt;b17 -->
<g id="edge13" class="edge">
<title>b7&#45;&gt;b17</title>
<path fill="none" stroke="black" d="M1905.46,-426.99C1947.68,-415.01 1999.21,-401.22 2046,-391 2159.95,-366.12 2290.97,-344.98 2385.68,-331.01"/>
<polygon fill="black" stroke="black" points="2386.21,-334.47 2395.59,-329.56 2385.19,-327.55 2386.21,-334.47"/>
</g>
<!-- b9 -->
<g id="node10" class="node">
<title>b9</title>
<polygon fill="white" stroke="black" points="2638,-471 2396,-471 2396,-419 2638,-419 2638,-471"/>
<text text-anchor="middle" x="2517" y="-459" font-family="Helvetica" font-size="10.00">B9</text>
<text text-anchor="middle" x="2517" y="-448" font-family="Helvetica" font-size="10.00">Loop: &lt;none&gt;</text>
<text text-anchor="middle" x="2517" y="-437" font-family="Helvetica" font-size="10.00">&#45;&#45;&#45;</text>
<text text-anchor="middle" x="2517" y="-426" font-family="Helvetica" font-size="10.00">HotSpotMethod&lt;StringLatin1.equals(byte[], byte[])&gt;</text>
</g>
<!-- b8&#45;&gt;b9 -->
<g id="edge14" class="edge">
<title>b8&#45;&gt;b9</title>
<path fill="none" stroke="black" d="M2288.25,-450.24C2319.63,-449.51 2353.59,-448.73 2385.47,-448"/>
<polygon fill="black" stroke="black" points="2385.83,-451.49 2395.75,-447.76 2385.67,-444.5 2385.83,-451.49"/>
</g>
<!-- b8&#45;&gt;b11 -->
<g id="edge15" class="edge">
<title>b8&#45;&gt;b11</title>
<path fill="none" stroke="black" d="M2225.13,-479.07C2245.57,-489.28 2268.38,-501.73 2288,-515 2362.6,-565.46 2439.98,-637.15 2482.66,-678.69"/>
<polygon fill="black" stroke="black" points="2480.37,-681.34 2489.96,-685.84 2485.26,-676.34 2480.37,-681.34"/>
</g>
<!-- b22 -->
<g id="node23" class="node">
<title>b22</title>
<polygon fill="white" stroke="black" points="2988,-269 2746,-269 2746,-217 2988,-217 2988,-269"/>
<text text-anchor="middle" x="2867" y="-257" font-family="Helvetica" font-size="10.00">B22</text>
<text text-anchor="middle" x="2867" y="-246" font-family="Helvetica" font-size="10.00">Loop: &lt;none&gt;</text>
<text text-anchor="middle" x="2867" y="-235" font-family="Helvetica" font-size="10.00">&#45;&#45;&#45;</text>
<text text-anchor="middle" x="2867" y="-224" font-family="Helvetica" font-size="10.00">HotSpotMethod&lt;StringLatin1.equals(byte[], byte[])&gt;</text>
</g>
<!-- b9&#45;&gt;b22 -->
<g id="edge16" class="edge">
<title>b9&#45;&gt;b22</title>
<path fill="none" stroke="black" d="M2563.14,-418.8C2627.03,-381.71 2743.65,-314.02 2812.03,-274.33"/>
<polygon fill="black" stroke="black" points="2814.05,-277.2 2820.94,-269.15 2810.54,-271.15 2814.05,-277.2"/>
</g>
<!-- b10 -->
<g id="node11" class="node">
<title>b10</title>
<polygon fill="white" stroke="black" points="2288,-873 2046,-873 2046,-821 2288,-821 2288,-873"/>
<text text-anchor="middle" x="2167" y="-861" font-family="Helvetica" font-size="10.00">B10</text>
<text text-anchor="middle" x="2167" y="-850" font-family="Helvetica" font-size="10.00">Loop: &lt;none&gt;</text>
<text text-anchor="middle" x="2167" y="-839" font-family="Helvetica" font-size="10.00">&#45;&#45;&#45;</text>
<text text-anchor="middle" x="2167" y="-828" font-family="Helvetica" font-size="10.00">HotSpotMethod&lt;StringLatin1.equals(byte[], byte[])&gt;</text>
</g>
<!-- b10&#45;&gt;b11 -->
<g id="edge17" class="edge">
<title>b10&#45;&gt;b11</title>
<path fill="none" stroke="black" d="M2235.1,-820.97C2293.5,-798.32 2378.13,-765.48 2439.22,-741.79"/>
<polygon fill="black" stroke="black" points="2440.75,-744.94 2448.81,-738.06 2438.22,-738.42 2440.75,-744.94"/>
</g>
<!-- b12 -->
<g id="node13" class="node">
<title>b12</title>
<polygon fill="lightblue" stroke="black" points="2988,-738 2746,-738 2746,-686 2988,-686 2988,-738"/>
<text text-anchor="middle" x="2867" y="-726" font-family="Helvetica" font-size="10.00">B12</text>
<text text-anchor="middle" x="2867" y="-715" font-family="Helvetica" font-size="10.00">Loop: L0</text>
<text text-anchor="middle" x="2867" y="-704" font-family="Helvetica" font-size="10.00">&#45;&#45;&#45;</text>
<text text-anchor="middle" x="2867" y="-693" font-family="Helvetica" font-size="10.00">HotSpotMethod&lt;StringLatin1.equals(byte[], byte[])&gt;</text>
</g>
<!-- b11&#45;&gt;b12 -->
<g id="edge18" class="edge">
<title>b11&#45;&gt;b12</title>
<path fill="none" stroke="black" d="M2638.25,-712C2669.63,-712 2703.59,-712 2735.47,-712"/>
<polygon fill="black" stroke="black" points="2735.75,-715.5 2745.75,-712 2735.75,-708.5 2735.75,-715.5"/>
</g>
<!-- b13 -->
<g id="node14" class="node">
<title>b13</title>
<polygon fill="lightblue" stroke="black" points="3338,-873 3096,-873 3096,-821 3338,-821 3338,-873"/>
<text text-anchor="middle" x="3217" y="-861" font-family="Helvetica" font-size="10.00">B13</text>
<text text-anchor="middle" x="3217" y="-850" font-family="Helvetica" font-size="10.00">Loop: L0</text>
<text text-anchor="middle" x="3217" y="-839" font-family="Helvetica" font-size="10.00">&#45;&#45;&#45;</text>
<text text-anchor="middle" x="3217" y="-828" font-family="Helvetica" font-size="10.00">HotSpotMethod&lt;StringLatin1.equals(byte[], byte[])&gt;</text>
</g>
<!-- b12&#45;&gt;b13 -->
<g id="edge19" class="edge">
<title>b12&#45;&gt;b13</title>
<path fill="none" stroke="black" d="M2935.1,-738.03C2993.5,-760.68 3078.13,-793.52 3139.22,-817.21"/>
<polygon fill="black" stroke="black" points="3138.22,-820.58 3148.81,-820.94 3140.75,-814.06 3138.22,-820.58"/>
</g>
<!-- b16 -->
<g id="node17" class="node">
<title>b16</title>
<polygon fill="white" stroke="black" points="3255.5,-603 3178.5,-603 3178.5,-567 3255.5,-567 3255.5,-603"/>
<text text-anchor="middle" x="3217" y="-588" font-family="Helvetica" font-size="10.00">B16</text>
<text text-anchor="middle" x="3217" y="-577" font-family="Helvetica" font-size="10.00">Loop: &lt;none&gt;</text>
</g>
<!-- b12&#45;&gt;b16 -->
<g id="edge20" class="edge">
<title>b12&#45;&gt;b16</title>
<path fill="none" stroke="black" d="M2939.26,-685.99C3007.83,-660.97 3109.55,-623.85 3168.68,-602.27"/>
<polygon fill="black" stroke="black" points="3169.95,-605.53 3178.14,-598.82 3167.55,-598.96 3169.95,-605.53"/>
</g>
<!-- b14 -->
<g id="node15" class="node">
<title>b14</title>
<polygon fill="lightblue" stroke="black" points="3688,-748 3446,-748 3446,-696 3688,-696 3688,-748"/>
<text text-anchor="middle" x="3567" y="-736" font-family="Helvetica" font-size="10.00">B14</text>
<text text-anchor="middle" x="3567" y="-725" font-family="Helvetica" font-size="10.00">Loop: L0</text>
<text text-anchor="middle" x="3567" y="-714" font-family="Helvetica" font-size="10.00">&#45;&#45;&#45;</text>
<text text-anchor="middle" x="3567" y="-703" font-family="Helvetica" font-size="10.00">HotSpotMethod&lt;StringLatin1.equals(byte[], byte[])&gt;</text>
</g>
<!-- b13&#45;&gt;b14 -->
<g id="edge21" class="edge">
<title>b13&#45;&gt;b14</title>
<path fill="none" stroke="black" d="M3290.53,-820.95C3346.95,-800.68 3425.24,-772.56 3483.95,-751.47"/>
<polygon fill="black" stroke="black" points="3485.34,-754.69 3493.56,-748.02 3482.97,-748.11 3485.34,-754.69"/>
</g>
<!-- b15 -->
<g id="node16" class="node">
<title>b15</title>
<polygon fill="white" stroke="black" points="3688,-873 3446,-873 3446,-821 3688,-821 3688,-873"/>
<text text-anchor="middle" x="3567" y="-861" font-family="Helvetica" font-size="10.00">B15</text>
<text text-anchor="middle" x="3567" y="-850" font-family="Helvetica" font-size="10.00">Loop: &lt;none&gt;</text>
<text text-anchor="middle" x="3567" y="-839" font-family="Helvetica" font-size="10.00">&#45;&#45;&#45;</text>
<text text-anchor="middle" x="3567" y="-828" font-family="Helvetica" font-size="10.00">HotSpotMethod&lt;StringLatin1.equals(byte[], byte[])&gt;</text>
</g>
<!-- b13&#45;&gt;b15 -->
<g id="edge22" class="edge">
<title>b13&#45;&gt;b15</title>
<path fill="none" stroke="black" d="M3338.25,-847C3369.63,-847 3403.59,-847 3435.47,-847"/>
<polygon fill="black" stroke="black" points="3435.75,-850.5 3445.75,-847 3435.75,-843.5 3435.75,-850.5"/>
</g>
<!-- b14&#45;&gt;b12 -->
<g id="edge23" class="edge">
<title>b14&#45;&gt;b12</title>
<path fill="none" stroke="black" d="M3445.97,-720.28C3321.37,-718.5 3127.07,-715.71 2998.67,-713.87"/>
<polygon fill="black" stroke="black" points="2998.44,-710.37 2988.39,-713.72 2998.34,-717.37 2998.44,-710.37"/>
</g>
<!-- b19 -->
<g id="node20" class="node">
<title>b19</title>
<polygon fill="white" stroke="black" points="3984,-873 3796,-873 3796,-821 3984,-821 3984,-873"/>
<text text-anchor="middle" x="3890" y="-861" font-family="Helvetica" font-size="10.00">B19</text>
<text text-anchor="middle" x="3890" y="-850" font-family="Helvetica" font-size="10.00">Loop: &lt;none&gt;</text>
<text text-anchor="middle" x="3890" y="-839" font-family="Helvetica" font-size="10.00">&#45;&#45;&#45;</text>
<text text-anchor="middle" x="3890" y="-828" font-family="Helvetica" font-size="10.00">HotSpotMethod&lt;String.equals(Object)&gt;</text>
</g>
<!-- b15&#45;&gt;b19 -->
<g id="edge24" class="edge">
<title>b15&#45;&gt;b19</title>
<path fill="none" stroke="black" d="M3688.44,-847C3720.41,-847 3754.64,-847 3785.61,-847"/>
<polygon fill="black" stroke="black" points="3785.98,-850.5 3795.98,-847 3785.98,-843.5 3785.98,-850.5"/>
</g>
<!-- b16&#45;&gt;b19 -->
<g id="edge25" class="edge">
<title>b16&#45;&gt;b19</title>
<path fill="none" stroke="black" d="M3255.55,-583.78C3338.18,-582.58 3540.21,-587.92 3688,-660 3762.45,-696.31 3828.46,-769.51 3863.17,-812.77"/>
<polygon fill="black" stroke="black" points="3860.53,-815.08 3869.48,-820.75 3866.02,-810.73 3860.53,-815.08"/>
</g>
<!-- b17&#45;&gt;b22 -->
<g id="edge26" class="edge">
<title>b17&#45;&gt;b22</title>
<path fill="none" stroke="black" d="M2638.25,-288.81C2669.76,-282.47 2703.88,-275.61 2735.89,-269.17"/>
<polygon fill="black" stroke="black" points="2736.63,-272.59 2745.75,-267.19 2735.25,-265.73 2736.63,-272.59"/>
</g>
<!-- b18&#45;&gt;b19 -->
<g id="edge27" class="edge">
<title>b18&#45;&gt;b19</title>
<path fill="none" stroke="black" d="M1546.81,-870.04C1675.08,-910.03 1937.63,-982 2166,-982 2166,-982 2166,-982 3218,-982 3431.09,-982 3674.9,-915.76 3801.83,-876.07"/>
<polygon fill="black" stroke="black" points="3803.02,-879.37 3811.51,-873.03 3800.92,-872.69 3803.02,-879.37"/>
</g>
<!-- b20&#45;&gt;b22 -->
<g id="edge28" class="edge">
<title>b20&#45;&gt;b22</title>
<path fill="none" stroke="black" d="M1238.12,-172C1377.2,-172 1613.17,-172 1816,-172 1816,-172 1816,-172 2168,-172 2366.95,-172 2596.16,-200.9 2736.03,-221.82"/>
<polygon fill="black" stroke="black" points="2735.54,-225.29 2745.95,-223.32 2736.58,-218.37 2735.54,-225.29"/>
</g>
<!-- b21&#45;&gt;b22 -->
<g id="edge29" class="edge">
<title>b21&#45;&gt;b22</title>
<path fill="none" stroke="black" d="M1938.14,-24.74C2100.69,-26.29 2397.92,-40.71 2638,-117 2706.09,-138.64 2776.96,-181.55 2821.26,-211.24"/>
<polygon fill="black" stroke="black" points="2819.51,-214.28 2829.75,-216.99 2823.43,-208.49 2819.51,-214.28"/>
</g>
</g>
</svg>
