<?xml version="1.0" encoding="UTF-8" standalone="no"?>
<!DOCTYPE svg PUBLIC "-//W3C//DTD SVG 1.1//EN"
 "http://www.w3.org/Graphics/SVG/1.1/DTD/svg11.dtd">
<!-- Generated by graphviz version 2.44.0 (0)
 -->
<!-- Title: CFG_73 Pages: 1 -->
<svg width="2796pt" height="513pt"
 viewBox="0.00 0.00 2796.00 513.35" xmlns="http://www.w3.org/2000/svg" xmlns:xlink="http://www.w3.org/1999/xlink">
<g id="graph0" class="graph" transform="scale(1 1) rotate(0) translate(4 509.35)">
<title>CFG_73</title>
<polygon fill="white" stroke="transparent" points="-4,4 -4,-509.35 2792,-509.35 2792,4 -4,4"/>
<text text-anchor="middle" x="208.5" y="-485.35" font-family="Times-Roman" font-size="20.00">124&#45;LoopBenchmarks.fibonacciLoop(int)</text>
<!-- b0 -->
<g id="node1" class="node">
<title>b0</title>
<polygon fill="white" stroke="black" points="254,-415.35 0,-415.35 0,-363.35 254,-363.35 254,-415.35"/>
<text text-anchor="middle" x="127" y="-403.35" font-family="Helvetica" font-size="10.00">B0</text>
<text text-anchor="middle" x="127" y="-392.35" font-family="Helvetica" font-size="10.00">Loop: &lt;none&gt;</text>
<text text-anchor="middle" x="127" y="-381.35" font-family="Helvetica" font-size="10.00">&#45;&#45;&#45;</text>
<text text-anchor="middle" x="127" y="-370.35" font-family="Helvetica" font-size="10.00">HotSpotMethod&lt;LoopBenchmarks.fibonacciLoop(int)&gt;</text>
</g>
<!-- b1 -->
<g id="node2" class="node">
<title>b1</title>
<polygon fill="white" stroke="black" points="1340,-475.35 1086,-475.35 1086,-423.35 1340,-423.35 1340,-475.35"/>
<text text-anchor="middle" x="1213" y="-463.35" font-family="Helvetica" font-size="10.00">B1</text>
<text text-anchor="middle" x="1213" y="-452.35" font-family="Helvetica" font-size="10.00">Loop: &lt;none&gt;</text>
<text text-anchor="middle" x="1213" y="-441.35" font-family="Helvetica" font-size="10.00">&#45;&#45;&#45;</text>
<text text-anchor="middle" x="1213" y="-430.35" font-family="Helvetica" font-size="10.00">HotSpotMethod&lt;LoopBenchmarks.fibonacciLoop(int)&gt;</text>
</g>
<!-- b0&#45;&gt;b1 -->
<g id="edge1" class="edge">
<title>b0&#45;&gt;b1</title>
<path fill="none" stroke="black" d="M254.2,-396.34C459.47,-407.7 863.95,-430.09 1075.6,-441.8"/>
<polygon fill="black" stroke="black" points="1075.67,-445.31 1085.85,-442.37 1076.05,-438.32 1075.67,-445.31"/>
</g>
<!-- b2 -->
<g id="node3" class="node">
<title>b2</title>
<polygon fill="white" stroke="black" points="616,-348.35 362,-348.35 362,-296.35 616,-296.35 616,-348.35"/>
<text text-anchor="middle" x="489" y="-336.35" font-family="Helvetica" font-size="10.00">B2</text>
<text text-anchor="middle" x="489" y="-325.35" font-family="Helvetica" font-size="10.00">Loop: &lt;none&gt;</text>
<text text-anchor="middle" x="489" y="-314.35" font-family="Helvetica" font-size="10.00">&#45;&#45;&#45;</text>
<text text-anchor="middle" x="489" y="-303.35" font-family="Helvetica" font-size="10.00">HotSpotMethod&lt;LoopBenchmarks.fibonacciLoop(int)&gt;</text>
</g>
<!-- b0&#45;&gt;b2 -->
<g id="edge2" class="edge">
<title>b0&#45;&gt;b2</title>
<path fill="none" stroke="black" d="M254.16,-365.87C285.76,-359.99 319.79,-353.66 351.84,-347.69"/>
<polygon fill="black" stroke="black" points="352.53,-351.13 361.72,-345.86 351.25,-344.24 352.53,-351.13"/>
</g>
<!-- b14 -->
<g id="node15" class="node">
<title>b14</title>
<polygon fill="white" stroke="black" points="2788,-177.35 2534,-177.35 2534,-125.35 2788,-125.35 2788,-177.35"/>
<text text-anchor="middle" x="2661" y="-165.35" font-family="Helvetica" font-size="10.00">B14</text>
<text text-anchor="middle" x="2661" y="-154.35" font-family="Helvetica" font-size="10.00">Loop: &lt;none&gt;</text>
<text text-anchor="middle" x="2661" y="-143.35" font-family="Helvetica" font-size="10.00">&#45;&#45;&#45;</text>
<text text-anchor="middle" x="2661" y="-132.35" font-family="Helvetica" font-size="10.00">HotSpotMethod&lt;LoopBenchmarks.fibonacciLoop(int)&gt;</text>
</g>
<!-- b1&#45;&gt;b14 -->
<g id="edge3" class="edge">
<title>b1&#45;&gt;b14</title>
<path fill="none" stroke="black" d="M1340.29,-460.72C1566.91,-476.21 2053.67,-486.88 2426,-337.35 2510.5,-303.42 2589.1,-228.62 2630.18,-184.92"/>
<polygon fill="black" stroke="black" points="2632.93,-187.11 2637.17,-177.4 2627.8,-182.34 2632.93,-187.11"/>
</g>
<!-- b3 -->
<g id="node4" class="node">
<title>b3</title>
<polygon fill="white" stroke="black" points="978,-348.35 724,-348.35 724,-296.35 978,-296.35 978,-348.35"/>
<text text-anchor="middle" x="851" y="-336.35" font-family="Helvetica" font-size="10.00">B3</text>
<text text-anchor="middle" x="851" y="-325.35" font-family="Helvetica" font-size="10.00">Loop: &lt;none&gt;</text>
<text text-anchor="middle" x="851" y="-314.35" font-family="Helvetica" font-size="10.00">&#45;&#45;&#45;</text>
<text text-anchor="middle" x="851" y="-303.35" font-family="Helvetica" font-size="10.00">HotSpotMethod&lt;LoopBenchmarks.fibonacciLoop(int)&gt;</text>
</g>
<!-- b2&#45;&gt;b3 -->
<g id="edge4" class="edge">
<title>b2&#45;&gt;b3</title>
<path fill="none" stroke="black" d="M616.16,-322.35C647.62,-322.35 681.49,-322.35 713.43,-322.35"/>
<polygon fill="black" stroke="black" points="713.72,-325.85 723.72,-322.35 713.72,-318.85 713.72,-325.85"/>
</g>
<!-- b4 -->
<g id="node5" class="node">
<title>b4</title>
<polygon fill="white" stroke="black" points="978,-224.35 724,-224.35 724,-172.35 978,-172.35 978,-224.35"/>
<text text-anchor="middle" x="851" y="-212.35" font-family="Helvetica" font-size="10.00">B4</text>
<text text-anchor="middle" x="851" y="-201.35" font-family="Helvetica" font-size="10.00">Loop: &lt;none&gt;</text>
<text text-anchor="middle" x="851" y="-190.35" font-family="Helvetica" font-size="10.00">&#45;&#45;&#45;</text>
<text text-anchor="middle" x="851" y="-179.35" font-family="Helvetica" font-size="10.00">HotSpotMethod&lt;LoopBenchmarks.fibonacciLoop(int)&gt;</text>
</g>
<!-- b2&#45;&gt;b4 -->
<g id="edge5" class="edge">
<title>b2&#45;&gt;b4</title>
<path fill="none" stroke="black" d="M565.91,-296.21C624.16,-276.14 704.58,-248.44 764.99,-227.64"/>
<polygon fill="black" stroke="black" points="766.19,-230.92 774.51,-224.36 763.91,-224.3 766.19,-230.92"/>
</g>
<!-- b5 -->
<g id="node6" class="node">
<title>b5</title>
<polygon fill="lightblue" stroke="black" points="1340,-239.35 1086,-239.35 1086,-187.35 1340,-187.35 1340,-239.35"/>
<text text-anchor="middle" x="1213" y="-227.35" font-family="Helvetica" font-size="10.00">B5</text>
<text text-anchor="middle" x="1213" y="-216.35" font-family="Helvetica" font-size="10.00">Loop: L0</text>
<text text-anchor="middle" x="1213" y="-205.35" font-family="Helvetica" font-size="10.00">&#45;&#45;&#45;</text>
<text text-anchor="middle" x="1213" y="-194.35" font-family="Helvetica" font-size="10.00">HotSpotMethod&lt;LoopBenchmarks.fibonacciLoop(int)&gt;</text>
</g>
<!-- b4&#45;&gt;b5 -->
<g id="edge6" class="edge">
<title>b4&#45;&gt;b5</title>
<path fill="none" stroke="black" d="M978.16,-203.61C1009.62,-204.92 1043.49,-206.33 1075.43,-207.66"/>
<polygon fill="black" stroke="black" points="1075.58,-211.17 1085.72,-208.09 1075.87,-204.18 1075.58,-211.17"/>
</g>
<!-- b6 -->
<g id="node7" class="node">
<title>b6</title>
<polygon fill="lightblue" stroke="black" points="1702,-270.35 1448,-270.35 1448,-218.35 1702,-218.35 1702,-270.35"/>
<text text-anchor="middle" x="1575" y="-258.35" font-family="Helvetica" font-size="10.00">B6</text>
<text text-anchor="middle" x="1575" y="-247.35" font-family="Helvetica" font-size="10.00">Loop: L0</text>
<text text-anchor="middle" x="1575" y="-236.35" font-family="Helvetica" font-size="10.00">&#45;&#45;&#45;</text>
<text text-anchor="middle" x="1575" y="-225.35" font-family="Helvetica" font-size="10.00">HotSpotMethod&lt;LoopBenchmarks.fibonacciLoop(int)&gt;</text>
</g>
<!-- b5&#45;&gt;b6 -->
<g id="edge8" class="edge">
<title>b5&#45;&gt;b6</title>
<path fill="none" stroke="black" d="M1340.16,-198.32C1394.92,-200.73 1457,-207.39 1503.43,-216.32"/>
<polygon fill="black" stroke="black" points="1502.89,-219.78 1513.39,-218.32 1504.27,-212.92 1502.89,-219.78"/>
</g>
<!-- b7 -->
<g id="node8" class="node">
<title>b7</title>
<polygon fill="white" stroke="black" points="1702,-146.35 1448,-146.35 1448,-94.35 1702,-94.35 1702,-146.35"/>
<text text-anchor="middle" x="1575" y="-134.35" font-family="Helvetica" font-size="10.00">B7</text>
<text text-anchor="middle" x="1575" y="-123.35" font-family="Helvetica" font-size="10.00">Loop: &lt;none&gt;</text>
<text text-anchor="middle" x="1575" y="-112.35" font-family="Helvetica" font-size="10.00">&#45;&#45;&#45;</text>
<text text-anchor="middle" x="1575" y="-101.35" font-family="Helvetica" font-size="10.00">HotSpotMethod&lt;LoopBenchmarks.fibonacciLoop(int)&gt;</text>
</g>
<!-- b5&#45;&gt;b7 -->
<g id="edge7" class="edge">
<title>b5&#45;&gt;b7</title>
<path fill="none" stroke="black" d="M1314.76,-187.32C1361.07,-175.36 1416.13,-161.14 1463.57,-148.88"/>
<polygon fill="black" stroke="black" points="1464.46,-152.27 1473.27,-146.38 1462.71,-145.49 1464.46,-152.27"/>
</g>
<!-- b6&#45;&gt;b5 -->
<g id="edge9" class="edge">
<title>b6&#45;&gt;b5</title>
<path fill="none" stroke="black" d="M1447.68,-259.38C1392.97,-256.97 1330.99,-250.31 1284.61,-241.39"/>
<polygon fill="black" stroke="black" points="1285.16,-237.93 1274.66,-239.39 1283.78,-244.8 1285.16,-237.93"/>
</g>
<!-- b8 -->
<g id="node9" class="node">
<title>b8</title>
<polygon fill="lightgreen" stroke="black" points="2064,-270.35 1810,-270.35 1810,-218.35 2064,-218.35 2064,-270.35"/>
<text text-anchor="middle" x="1937" y="-258.35" font-family="Helvetica" font-size="10.00">B8</text>
<text text-anchor="middle" x="1937" y="-247.35" font-family="Helvetica" font-size="10.00">Loop: L1</text>
<text text-anchor="middle" x="1937" y="-236.35" font-family="Helvetica" font-size="10.00">&#45;&#45;&#45;</text>
<text text-anchor="middle" x="1937" y="-225.35" font-family="Helvetica" font-size="10.00">HotSpotMethod&lt;LoopBenchmarks.fibonacciLoop(int)&gt;</text>
</g>
<!-- b7&#45;&gt;b8 -->
<g id="edge10" class="edge">
<title>b7&#45;&gt;b8</title>
<path fill="none" stroke="black" d="M1651.91,-146.5C1710.16,-166.56 1790.58,-194.26 1850.99,-215.07"/>
<polygon fill="black" stroke="black" points="1849.91,-218.4 1860.51,-218.35 1852.19,-211.78 1849.91,-218.4"/>
</g>
<!-- b9 -->
<g id="node10" class="node">
<title>b9</title>
<polygon fill="lightgreen" stroke="black" points="2426,-301.35 2172,-301.35 2172,-249.35 2426,-249.35 2426,-301.35"/>
<text text-anchor="middle" x="2299" y="-289.35" font-family="Helvetica" font-size="10.00">B9</text>
<text text-anchor="middle" x="2299" y="-278.35" font-family="Helvetica" font-size="10.00">Loop: L1</text>
<text text-anchor="middle" x="2299" y="-267.35" font-family="Helvetica" font-size="10.00">&#45;&#45;&#45;</text>
<text text-anchor="middle" x="2299" y="-256.35" font-family="Helvetica" font-size="10.00">HotSpotMethod&lt;LoopBenchmarks.fibonacciLoop(int)&gt;</text>
</g>
<!-- b8&#45;&gt;b9 -->
<g id="edge12" class="edge">
<title>b8&#45;&gt;b9</title>
<path fill="none" stroke="black" d="M2064.16,-229.32C2118.92,-231.73 2181,-238.39 2227.43,-247.32"/>
<polygon fill="black" stroke="black" points="2226.89,-250.78 2237.39,-249.32 2228.27,-243.92 2226.89,-250.78"/>
</g>
<!-- b11 -->
<g id="node12" class="node">
<title>b11</title>
<polygon fill="lightpink" stroke="black" points="2426,-53.35 2172,-53.35 2172,-1.35 2426,-1.35 2426,-53.35"/>
<text text-anchor="middle" x="2299" y="-41.35" font-family="Helvetica" font-size="10.00">B11</text>
<text text-anchor="middle" x="2299" y="-30.35" font-family="Helvetica" font-size="10.00">Loop: L2</text>
<text text-anchor="middle" x="2299" y="-19.35" font-family="Helvetica" font-size="10.00">&#45;&#45;&#45;</text>
<text text-anchor="middle" x="2299" y="-8.35" font-family="Helvetica" font-size="10.00">HotSpotMethod&lt;LoopBenchmarks.fibonacciLoop(int)&gt;</text>
</g>
<!-- b8&#45;&gt;b11 -->
<g id="edge11" class="edge">
<title>b8&#45;&gt;b11</title>
<path fill="none" stroke="black" d="M1974.36,-218.16C2019.61,-186.06 2099.74,-130.84 2172,-89.35 2191.07,-78.4 2212.35,-67.47 2231.91,-57.9"/>
<polygon fill="black" stroke="black" points="2233.59,-60.98 2241.06,-53.47 2230.53,-54.68 2233.59,-60.98"/>
</g>
<!-- b9&#45;&gt;b8 -->
<g id="edge13" class="edge">
<title>b9&#45;&gt;b8</title>
<path fill="none" stroke="black" d="M2171.68,-290.38C2116.97,-287.97 2054.99,-281.31 2008.61,-272.39"/>
<polygon fill="black" stroke="black" points="2009.16,-268.93 1998.66,-270.39 2007.78,-275.8 2009.16,-268.93"/>
</g>
<!-- b10 -->
<g id="node11" class="node">
<title>b10</title>
<polygon fill="white" stroke="black" points="2064,-53.35 1810,-53.35 1810,-1.35 2064,-1.35 2064,-53.35"/>
<text text-anchor="middle" x="1937" y="-41.35" font-family="Helvetica" font-size="10.00">B10</text>
<text text-anchor="middle" x="1937" y="-30.35" font-family="Helvetica" font-size="10.00">Loop: &lt;none&gt;</text>
<text text-anchor="middle" x="1937" y="-19.35" font-family="Helvetica" font-size="10.00">&#45;&#45;&#45;</text>
<text text-anchor="middle" x="1937" y="-8.35" font-family="Helvetica" font-size="10.00">HotSpotMethod&lt;LoopBenchmarks.fibonacciLoop(int)&gt;</text>
</g>
<!-- b10&#45;&gt;b11 -->
<g id="edge14" class="edge">
<title>b10&#45;&gt;b11</title>
<path fill="none" stroke="black" d="M2064.16,-27.35C2095.62,-27.35 2129.49,-27.35 2161.43,-27.35"/>
<polygon fill="black" stroke="black" points="2161.72,-30.85 2171.72,-27.35 2161.72,-23.85 2161.72,-30.85"/>
</g>
<!-- b12 -->
<g id="node13" class="node">
<title>b12</title>
<polygon fill="lightpink" stroke="black" points="2788,-53.35 2534,-53.35 2534,-1.35 2788,-1.35 2788,-53.35"/>
<text text-anchor="middle" x="2661" y="-41.35" font-family="Helvetica" font-size="10.00">B12</text>
<text text-anchor="middle" x="2661" y="-30.35" font-family="Helvetica" font-size="10.00">Loop: L2</text>
<text text-anchor="middle" x="2661" y="-19.35" font-family="Helvetica" font-size="10.00">&#45;&#45;&#45;</text>
<text text-anchor="middle" x="2661" y="-8.35" font-family="Helvetica" font-size="10.00">HotSpotMethod&lt;LoopBenchmarks.fibonacciLoop(int)&gt;</text>
</g>
<!-- b11&#45;&gt;b12 -->
<g id="edge16" class="edge">
<title>b11&#45;&gt;b12</title>
<path fill="none" stroke="black" d="M2426.16,-1.46C2457.62,-0.13 2491.49,0 2523.43,-1.06"/>
<polygon fill="black" stroke="black" points="2523.6,-4.57 2533.72,-1.45 2523.86,2.42 2523.6,-4.57"/>
</g>
<!-- b11&#45;&gt;b14 -->
<g id="edge15" class="edge">
<title>b11&#45;&gt;b14</title>
<path fill="none" stroke="black" d="M2375.91,-53.5C2434.16,-73.56 2514.58,-101.26 2574.99,-122.07"/>
<polygon fill="black" stroke="black" points="2573.91,-125.4 2584.51,-125.35 2576.19,-118.78 2573.91,-125.4"/>
</g>
<!-- b12&#45;&gt;b11 -->
<g id="edge17" class="edge">
<title>b12&#45;&gt;b11</title>
<path fill="none" stroke="black" d="M2533.72,-53.26C2502.26,-54.58 2468.38,-54.71 2436.46,-53.64"/>
<polygon fill="black" stroke="black" points="2436.29,-50.13 2426.16,-53.25 2436.02,-57.12 2436.29,-50.13"/>
</g>
<!-- b13 -->
<g id="node14" class="node">
<title>b13</title>
<polygon fill="white" stroke="black" points="2426,-177.35 2172,-177.35 2172,-125.35 2426,-125.35 2426,-177.35"/>
<text text-anchor="middle" x="2299" y="-165.35" font-family="Helvetica" font-size="10.00">B13</text>
<text text-anchor="middle" x="2299" y="-154.35" font-family="Helvetica" font-size="10.00">Loop: &lt;none&gt;</text>
<text text-anchor="middle" x="2299" y="-143.35" font-family="Helvetica" font-size="10.00">&#45;&#45;&#45;</text>
<text text-anchor="middle" x="2299" y="-132.35" font-family="Helvetica" font-size="10.00">HotSpotMethod&lt;LoopBenchmarks.fibonacciLoop(int)&gt;</text>
</g>
<!-- b13&#45;&gt;b14 -->
<g id="edge18" class="edge">
<title>b13&#45;&gt;b14</title>
<path fill="none" stroke="black" d="M2426.16,-151.35C2457.62,-151.35 2491.49,-151.35 2523.43,-151.35"/>
<polygon fill="black" stroke="black" points="2523.72,-154.85 2533.72,-151.35 2523.72,-147.85 2523.72,-154.85"/>
</g>
</g>
</svg>
