<?xml version="1.0" encoding="UTF-8" standalone="no"?>
<!DOCTYPE svg PUBLIC "-//W3C//DTD SVG 1.1//EN"
 "http://www.w3.org/Graphics/SVG/1.1/DTD/svg11.dtd">
<!-- Generated by graphviz version 2.44.0 (0)
 -->
<!-- Title: CFG_74 Pages: 1 -->
<svg width="4568pt" height="641pt"
 viewBox="0.00 0.00 4568.00 641.00" xmlns="http://www.w3.org/2000/svg" xmlns:xlink="http://www.w3.org/1999/xlink">
<g id="graph0" class="graph" transform="scale(1 1) rotate(0) translate(4 637)">
<title>CFG_74</title>
<polygon fill="white" stroke="transparent" points="-4,4 -4,-637 4564,-637 4564,4 -4,4"/>
<text text-anchor="middle" x="189" y="-613" font-family="Times-Roman" font-size="20.00">125&#45;LoopBenchmarks.main(String[])</text>
<!-- b0 -->
<g id="node1" class="node">
<title>b0</title>
<polygon fill="white" stroke="black" points="235,-532.5 0,-532.5 0,-480.5 235,-480.5 235,-532.5"/>
<text text-anchor="middle" x="117.5" y="-520.5" font-family="Helvetica" font-size="10.00">B0</text>
<text text-anchor="middle" x="117.5" y="-509.5" font-family="Helvetica" font-size="10.00">Loop: &lt;none&gt;</text>
<text text-anchor="middle" x="117.5" y="-498.5" font-family="Helvetica" font-size="10.00">&#45;&#45;&#45;</text>
<text text-anchor="middle" x="117.5" y="-487.5" font-family="Helvetica" font-size="10.00">HotSpotMethod&lt;LoopBenchmarks.main(String[])&gt;</text>
</g>
<!-- b1 -->
<g id="node2" class="node">
<title>b1</title>
<polygon fill="white" stroke="black" points="597,-603 343,-603 343,-540 597,-540 597,-603"/>
<text text-anchor="middle" x="470" y="-591" font-family="Helvetica" font-size="10.00">B1</text>
<text text-anchor="middle" x="470" y="-580" font-family="Helvetica" font-size="10.00">Loop: &lt;none&gt;</text>
<text text-anchor="middle" x="470" y="-569" font-family="Helvetica" font-size="10.00">&#45;&#45;&#45;</text>
<text text-anchor="middle" x="470" y="-558" font-family="Helvetica" font-size="10.00">HotSpotMethod&lt;LoopBenchmarks.main(String[])&gt;</text>
<text text-anchor="middle" x="470" y="-547" font-family="Helvetica" font-size="10.00">HotSpotMethod&lt;LoopBenchmarks.fibonacciLoop(int)&gt;</text>
</g>
<!-- b0&#45;&gt;b1 -->
<g id="edge1" class="edge">
<title>b0&#45;&gt;b1</title>
<path fill="none" stroke="black" d="M235.21,-528.14C266.52,-533.95 300.65,-540.28 332.91,-546.26"/>
<polygon fill="black" stroke="black" points="332.39,-549.73 342.86,-548.11 333.67,-542.84 332.39,-549.73"/>
</g>
<!-- b23 -->
<g id="node24" class="node">
<title>b23</title>
<polygon fill="white" stroke="black" points="587.5,-467.5 352.5,-467.5 352.5,-415.5 587.5,-415.5 587.5,-467.5"/>
<text text-anchor="middle" x="470" y="-455.5" font-family="Helvetica" font-size="10.00">B23</text>
<text text-anchor="middle" x="470" y="-444.5" font-family="Helvetica" font-size="10.00">Loop: &lt;none&gt;</text>
<text text-anchor="middle" x="470" y="-433.5" font-family="Helvetica" font-size="10.00">&#45;&#45;&#45;</text>
<text text-anchor="middle" x="470" y="-422.5" font-family="Helvetica" font-size="10.00">HotSpotMethod&lt;LoopBenchmarks.main(String[])&gt;</text>
</g>
<!-- b0&#45;&gt;b23 -->
<g id="edge2" class="edge">
<title>b0&#45;&gt;b23</title>
<path fill="none" stroke="black" d="M235.21,-484.86C269.56,-478.49 307.29,-471.49 342.24,-465.01"/>
<polygon fill="black" stroke="black" points="343.31,-468.37 352.5,-463.1 342.03,-461.49 343.31,-468.37"/>
</g>
<!-- b2 -->
<g id="node3" class="node">
<title>b2</title>
<polygon fill="lightblue" stroke="black" points="959,-597.5 705,-597.5 705,-545.5 959,-545.5 959,-597.5"/>
<text text-anchor="middle" x="832" y="-585.5" font-family="Helvetica" font-size="10.00">B2</text>
<text text-anchor="middle" x="832" y="-574.5" font-family="Helvetica" font-size="10.00">Loop: L0</text>
<text text-anchor="middle" x="832" y="-563.5" font-family="Helvetica" font-size="10.00">&#45;&#45;&#45;</text>
<text text-anchor="middle" x="832" y="-552.5" font-family="Helvetica" font-size="10.00">HotSpotMethod&lt;LoopBenchmarks.fibonacciLoop(int)&gt;</text>
</g>
<!-- b1&#45;&gt;b2 -->
<g id="edge3" class="edge">
<title>b1&#45;&gt;b2</title>
<path fill="none" stroke="black" d="M597.16,-571.5C628.62,-571.5 662.49,-571.5 694.43,-571.5"/>
<polygon fill="black" stroke="black" points="694.72,-575 704.72,-571.5 694.72,-568 694.72,-575"/>
</g>
<!-- b3 -->
<g id="node4" class="node">
<title>b3</title>
<polygon fill="lightblue" stroke="black" points="1321,-597.5 1067,-597.5 1067,-545.5 1321,-545.5 1321,-597.5"/>
<text text-anchor="middle" x="1194" y="-585.5" font-family="Helvetica" font-size="10.00">B3</text>
<text text-anchor="middle" x="1194" y="-574.5" font-family="Helvetica" font-size="10.00">Loop: L0</text>
<text text-anchor="middle" x="1194" y="-563.5" font-family="Helvetica" font-size="10.00">&#45;&#45;&#45;</text>
<text text-anchor="middle" x="1194" y="-552.5" font-family="Helvetica" font-size="10.00">HotSpotMethod&lt;LoopBenchmarks.fibonacciLoop(int)&gt;</text>
</g>
<!-- b2&#45;&gt;b3 -->
<g id="edge4" class="edge">
<title>b2&#45;&gt;b3</title>
<path fill="none" stroke="black" d="M959.16,-545.6C990.62,-544.28 1024.49,-544.15 1056.43,-545.21"/>
<polygon fill="black" stroke="black" points="1056.6,-548.72 1066.72,-545.6 1056.86,-541.72 1056.6,-548.72"/>
</g>
<!-- b4 -->
<g id="node5" class="node">
<title>b4</title>
<polygon fill="white" stroke="black" points="1321,-473.5 1067,-473.5 1067,-421.5 1321,-421.5 1321,-473.5"/>
<text text-anchor="middle" x="1194" y="-461.5" font-family="Helvetica" font-size="10.00">B4</text>
<text text-anchor="middle" x="1194" y="-450.5" font-family="Helvetica" font-size="10.00">Loop: &lt;none&gt;</text>
<text text-anchor="middle" x="1194" y="-439.5" font-family="Helvetica" font-size="10.00">&#45;&#45;&#45;</text>
<text text-anchor="middle" x="1194" y="-428.5" font-family="Helvetica" font-size="10.00">HotSpotMethod&lt;LoopBenchmarks.fibonacciLoop(int)&gt;</text>
</g>
<!-- b2&#45;&gt;b4 -->
<g id="edge5" class="edge">
<title>b2&#45;&gt;b4</title>
<path fill="none" stroke="black" d="M908.91,-545.35C967.16,-525.29 1047.58,-497.59 1107.99,-476.78"/>
<polygon fill="black" stroke="black" points="1109.19,-480.07 1117.51,-473.5 1106.91,-473.45 1109.19,-480.07"/>
</g>
<!-- b3&#45;&gt;b2 -->
<g id="edge6" class="edge">
<title>b3&#45;&gt;b2</title>
<path fill="none" stroke="black" d="M1066.72,-597.4C1035.26,-598.72 1001.38,-598.85 969.46,-597.79"/>
<polygon fill="black" stroke="black" points="969.29,-594.28 959.16,-597.4 969.02,-601.27 969.29,-594.28"/>
</g>
<!-- b5 -->
<g id="node6" class="node">
<title>b5</title>
<polygon fill="lightgreen" stroke="black" points="1683,-473.5 1429,-473.5 1429,-421.5 1683,-421.5 1683,-473.5"/>
<text text-anchor="middle" x="1556" y="-461.5" font-family="Helvetica" font-size="10.00">B5</text>
<text text-anchor="middle" x="1556" y="-450.5" font-family="Helvetica" font-size="10.00">Loop: L1</text>
<text text-anchor="middle" x="1556" y="-439.5" font-family="Helvetica" font-size="10.00">&#45;&#45;&#45;</text>
<text text-anchor="middle" x="1556" y="-428.5" font-family="Helvetica" font-size="10.00">HotSpotMethod&lt;LoopBenchmarks.fibonacciLoop(int)&gt;</text>
</g>
<!-- b4&#45;&gt;b5 -->
<g id="edge7" class="edge">
<title>b4&#45;&gt;b5</title>
<path fill="none" stroke="black" d="M1321.16,-447.5C1352.62,-447.5 1386.49,-447.5 1418.43,-447.5"/>
<polygon fill="black" stroke="black" points="1418.72,-451 1428.72,-447.5 1418.72,-444 1418.72,-451"/>
</g>
<!-- b6 -->
<g id="node7" class="node">
<title>b6</title>
<polygon fill="lightgreen" stroke="black" points="2045,-473.5 1791,-473.5 1791,-421.5 2045,-421.5 2045,-473.5"/>
<text text-anchor="middle" x="1918" y="-461.5" font-family="Helvetica" font-size="10.00">B6</text>
<text text-anchor="middle" x="1918" y="-450.5" font-family="Helvetica" font-size="10.00">Loop: L1</text>
<text text-anchor="middle" x="1918" y="-439.5" font-family="Helvetica" font-size="10.00">&#45;&#45;&#45;</text>
<text text-anchor="middle" x="1918" y="-428.5" font-family="Helvetica" font-size="10.00">HotSpotMethod&lt;LoopBenchmarks.fibonacciLoop(int)&gt;</text>
</g>
<!-- b5&#45;&gt;b6 -->
<g id="edge8" class="edge">
<title>b5&#45;&gt;b6</title>
<path fill="none" stroke="black" d="M1683.16,-421.6C1714.62,-420.28 1748.49,-420.15 1780.43,-421.21"/>
<polygon fill="black" stroke="black" points="1780.6,-424.72 1790.72,-421.6 1780.86,-417.72 1780.6,-424.72"/>
</g>
<!-- b8 -->
<g id="node9" class="node">
<title>b8</title>
<polygon fill="lightpink" stroke="black" points="2045,-349.5 1791,-349.5 1791,-297.5 2045,-297.5 2045,-349.5"/>
<text text-anchor="middle" x="1918" y="-337.5" font-family="Helvetica" font-size="10.00">B8</text>
<text text-anchor="middle" x="1918" y="-326.5" font-family="Helvetica" font-size="10.00">Loop: L2</text>
<text text-anchor="middle" x="1918" y="-315.5" font-family="Helvetica" font-size="10.00">&#45;&#45;&#45;</text>
<text text-anchor="middle" x="1918" y="-304.5" font-family="Helvetica" font-size="10.00">HotSpotMethod&lt;LoopBenchmarks.fibonacciLoop(int)&gt;</text>
</g>
<!-- b5&#45;&gt;b8 -->
<g id="edge9" class="edge">
<title>b5&#45;&gt;b8</title>
<path fill="none" stroke="black" d="M1632.91,-421.35C1691.16,-401.29 1771.58,-373.59 1831.99,-352.78"/>
<polygon fill="black" stroke="black" points="1833.19,-356.07 1841.51,-349.5 1830.91,-349.45 1833.19,-356.07"/>
</g>
<!-- b6&#45;&gt;b5 -->
<g id="edge10" class="edge">
<title>b6&#45;&gt;b5</title>
<path fill="none" stroke="black" d="M1790.72,-473.4C1759.26,-474.72 1725.38,-474.85 1693.46,-473.79"/>
<polygon fill="black" stroke="black" points="1693.29,-470.28 1683.16,-473.4 1693.02,-477.27 1693.29,-470.28"/>
</g>
<!-- b7 -->
<g id="node8" class="node">
<title>b7</title>
<polygon fill="white" stroke="black" points="1683,-349.5 1429,-349.5 1429,-297.5 1683,-297.5 1683,-349.5"/>
<text text-anchor="middle" x="1556" y="-337.5" font-family="Helvetica" font-size="10.00">B7</text>
<text text-anchor="middle" x="1556" y="-326.5" font-family="Helvetica" font-size="10.00">Loop: &lt;none&gt;</text>
<text text-anchor="middle" x="1556" y="-315.5" font-family="Helvetica" font-size="10.00">&#45;&#45;&#45;</text>
<text text-anchor="middle" x="1556" y="-304.5" font-family="Helvetica" font-size="10.00">HotSpotMethod&lt;LoopBenchmarks.fibonacciLoop(int)&gt;</text>
</g>
<!-- b7&#45;&gt;b8 -->
<g id="edge11" class="edge">
<title>b7&#45;&gt;b8</title>
<path fill="none" stroke="black" d="M1683.16,-323.5C1714.62,-323.5 1748.49,-323.5 1780.43,-323.5"/>
<polygon fill="black" stroke="black" points="1780.72,-327 1790.72,-323.5 1780.72,-320 1780.72,-327"/>
</g>
<!-- b9 -->
<g id="node10" class="node">
<title>b9</title>
<polygon fill="lightpink" stroke="black" points="2407,-349.5 2153,-349.5 2153,-297.5 2407,-297.5 2407,-349.5"/>
<text text-anchor="middle" x="2280" y="-337.5" font-family="Helvetica" font-size="10.00">B9</text>
<text text-anchor="middle" x="2280" y="-326.5" font-family="Helvetica" font-size="10.00">Loop: L2</text>
<text text-anchor="middle" x="2280" y="-315.5" font-family="Helvetica" font-size="10.00">&#45;&#45;&#45;</text>
<text text-anchor="middle" x="2280" y="-304.5" font-family="Helvetica" font-size="10.00">HotSpotMethod&lt;LoopBenchmarks.fibonacciLoop(int)&gt;</text>
</g>
<!-- b8&#45;&gt;b9 -->
<g id="edge12" class="edge">
<title>b8&#45;&gt;b9</title>
<path fill="none" stroke="black" d="M2045.16,-297.6C2076.62,-296.28 2110.49,-296.15 2142.43,-297.21"/>
<polygon fill="black" stroke="black" points="2142.6,-300.72 2152.72,-297.6 2142.86,-293.72 2142.6,-300.72"/>
</g>
<!-- b10 -->
<g id="node11" class="node">
<title>b10</title>
<polygon fill="white" stroke="black" points="2407,-225 2153,-225 2153,-162 2407,-162 2407,-225"/>
<text text-anchor="middle" x="2280" y="-213" font-family="Helvetica" font-size="10.00">B10</text>
<text text-anchor="middle" x="2280" y="-202" font-family="Helvetica" font-size="10.00">Loop: &lt;none&gt;</text>
<text text-anchor="middle" x="2280" y="-191" font-family="Helvetica" font-size="10.00">&#45;&#45;&#45;</text>
<text text-anchor="middle" x="2280" y="-180" font-family="Helvetica" font-size="10.00">HotSpotMethod&lt;LoopBenchmarks.fibonacciLoop(int)&gt;</text>
<text text-anchor="middle" x="2280" y="-169" font-family="Helvetica" font-size="10.00">HotSpotMethod&lt;LoopBenchmarks.main(String[])&gt;</text>
</g>
<!-- b8&#45;&gt;b10 -->
<g id="edge13" class="edge">
<title>b8&#45;&gt;b10</title>
<path fill="none" stroke="black" d="M1991.42,-297.35C2046.28,-277.54 2122.21,-250.12 2182.27,-228.43"/>
<polygon fill="black" stroke="black" points="2183.55,-231.69 2191.77,-225 2181.17,-225.11 2183.55,-231.69"/>
</g>
<!-- b9&#45;&gt;b8 -->
<g id="edge14" class="edge">
<title>b9&#45;&gt;b8</title>
<path fill="none" stroke="black" d="M2152.72,-349.4C2121.26,-350.72 2087.38,-350.85 2055.46,-349.79"/>
<polygon fill="black" stroke="black" points="2055.29,-346.28 2045.16,-349.4 2055.02,-353.27 2055.29,-346.28"/>
</g>
<!-- b11 -->
<g id="node12" class="node">
<title>b11</title>
<polygon fill="gold" stroke="black" points="2750,-219.5 2515,-219.5 2515,-167.5 2750,-167.5 2750,-219.5"/>
<text text-anchor="middle" x="2632.5" y="-207.5" font-family="Helvetica" font-size="10.00">B11</text>
<text text-anchor="middle" x="2632.5" y="-196.5" font-family="Helvetica" font-size="10.00">Loop: L3</text>
<text text-anchor="middle" x="2632.5" y="-185.5" font-family="Helvetica" font-size="10.00">&#45;&#45;&#45;</text>
<text text-anchor="middle" x="2632.5" y="-174.5" font-family="Helvetica" font-size="10.00">HotSpotMethod&lt;LoopBenchmarks.main(String[])&gt;</text>
</g>
<!-- b10&#45;&gt;b11 -->
<g id="edge15" class="edge">
<title>b10&#45;&gt;b11</title>
<path fill="none" stroke="black" d="M2407.04,-193.5C2438.74,-193.5 2472.78,-193.5 2504.53,-193.5"/>
<polygon fill="black" stroke="black" points="2504.75,-197 2514.75,-193.5 2504.75,-190 2504.75,-197"/>
</g>
<!-- b12 -->
<g id="node13" class="node">
<title>b12</title>
<polygon fill="gold" stroke="black" points="3112,-414 2858,-414 2858,-351 3112,-351 3112,-414"/>
<text text-anchor="middle" x="2985" y="-402" font-family="Helvetica" font-size="10.00">B12</text>
<text text-anchor="middle" x="2985" y="-391" font-family="Helvetica" font-size="10.00">Loop: L3</text>
<text text-anchor="middle" x="2985" y="-380" font-family="Helvetica" font-size="10.00">&#45;&#45;&#45;</text>
<text text-anchor="middle" x="2985" y="-369" font-family="Helvetica" font-size="10.00">HotSpotMethod&lt;LoopBenchmarks.main(String[])&gt;</text>
<text text-anchor="middle" x="2985" y="-358" font-family="Helvetica" font-size="10.00">HotSpotMethod&lt;LoopBenchmarks.fibonacciLoop(int)&gt;</text>
</g>
<!-- b11&#45;&gt;b12 -->
<g id="edge16" class="edge">
<title>b11&#45;&gt;b12</title>
<path fill="none" stroke="black" d="M2681.87,-219.58C2742.7,-252.39 2847.51,-308.9 2916.29,-345.99"/>
<polygon fill="black" stroke="black" points="2914.87,-349.2 2925.33,-350.86 2918.19,-343.04 2914.87,-349.2"/>
</g>
<!-- b22 -->
<g id="node23" class="node">
<title>b22</title>
<polygon fill="white" stroke="black" points="3102.5,-219.5 2867.5,-219.5 2867.5,-167.5 3102.5,-167.5 3102.5,-219.5"/>
<text text-anchor="middle" x="2985" y="-207.5" font-family="Helvetica" font-size="10.00">B22</text>
<text text-anchor="middle" x="2985" y="-196.5" font-family="Helvetica" font-size="10.00">Loop: &lt;none&gt;</text>
<text text-anchor="middle" x="2985" y="-185.5" font-family="Helvetica" font-size="10.00">&#45;&#45;&#45;</text>
<text text-anchor="middle" x="2985" y="-174.5" font-family="Helvetica" font-size="10.00">HotSpotMethod&lt;LoopBenchmarks.main(String[])&gt;</text>
</g>
<!-- b11&#45;&gt;b22 -->
<g id="edge17" class="edge">
<title>b11&#45;&gt;b22</title>
<path fill="none" stroke="black" d="M2750.21,-193.5C2784.56,-193.5 2822.29,-193.5 2857.24,-193.5"/>
<polygon fill="black" stroke="black" points="2857.5,-197 2867.5,-193.5 2857.5,-190 2857.5,-197"/>
</g>
<!-- b13 -->
<g id="node14" class="node">
<title>b13</title>
<polygon fill="orange" stroke="black" points="3474,-437.5 3220,-437.5 3220,-385.5 3474,-385.5 3474,-437.5"/>
<text text-anchor="middle" x="3347" y="-425.5" font-family="Helvetica" font-size="10.00">B13</text>
<text text-anchor="middle" x="3347" y="-414.5" font-family="Helvetica" font-size="10.00">Loop: L4</text>
<text text-anchor="middle" x="3347" y="-403.5" font-family="Helvetica" font-size="10.00">&#45;&#45;&#45;</text>
<text text-anchor="middle" x="3347" y="-392.5" font-family="Helvetica" font-size="10.00">HotSpotMethod&lt;LoopBenchmarks.fibonacciLoop(int)&gt;</text>
</g>
<!-- b12&#45;&gt;b13 -->
<g id="edge18" class="edge">
<title>b12&#45;&gt;b13</title>
<path fill="none" stroke="black" d="M3112.16,-392.66C3143.62,-395.2 3177.49,-397.93 3209.43,-400.5"/>
<polygon fill="black" stroke="black" points="3209.47,-404.01 3219.72,-401.33 3210.03,-397.04 3209.47,-404.01"/>
</g>
<!-- b14 -->
<g id="node15" class="node">
<title>b14</title>
<polygon fill="orange" stroke="black" points="3836,-437.5 3582,-437.5 3582,-385.5 3836,-385.5 3836,-437.5"/>
<text text-anchor="middle" x="3709" y="-425.5" font-family="Helvetica" font-size="10.00">B14</text>
<text text-anchor="middle" x="3709" y="-414.5" font-family="Helvetica" font-size="10.00">Loop: L4</text>
<text text-anchor="middle" x="3709" y="-403.5" font-family="Helvetica" font-size="10.00">&#45;&#45;&#45;</text>
<text text-anchor="middle" x="3709" y="-392.5" font-family="Helvetica" font-size="10.00">HotSpotMethod&lt;LoopBenchmarks.fibonacciLoop(int)&gt;</text>
</g>
<!-- b13&#45;&gt;b14 -->
<g id="edge19" class="edge">
<title>b13&#45;&gt;b14</title>
<path fill="none" stroke="black" d="M3474.16,-385.6C3505.62,-384.28 3539.49,-384.15 3571.43,-385.21"/>
<polygon fill="black" stroke="black" points="3571.6,-388.72 3581.72,-385.6 3571.86,-381.72 3571.6,-388.72"/>
</g>
<!-- b16 -->
<g id="node17" class="node">
<title>b16</title>
<polygon fill="violet" stroke="black" points="3836,-313.5 3582,-313.5 3582,-261.5 3836,-261.5 3836,-313.5"/>
<text text-anchor="middle" x="3709" y="-301.5" font-family="Helvetica" font-size="10.00">B16</text>
<text text-anchor="middle" x="3709" y="-290.5" font-family="Helvetica" font-size="10.00">Loop: L5</text>
<text text-anchor="middle" x="3709" y="-279.5" font-family="Helvetica" font-size="10.00">&#45;&#45;&#45;</text>
<text text-anchor="middle" x="3709" y="-268.5" font-family="Helvetica" font-size="10.00">HotSpotMethod&lt;LoopBenchmarks.fibonacciLoop(int)&gt;</text>
</g>
<!-- b13&#45;&gt;b16 -->
<g id="edge20" class="edge">
<title>b13&#45;&gt;b16</title>
<path fill="none" stroke="black" d="M3423.91,-385.35C3482.16,-365.29 3562.58,-337.59 3622.99,-316.78"/>
<polygon fill="black" stroke="black" points="3624.19,-320.07 3632.51,-313.5 3621.91,-313.45 3624.19,-320.07"/>
</g>
<!-- b14&#45;&gt;b13 -->
<g id="edge21" class="edge">
<title>b14&#45;&gt;b13</title>
<path fill="none" stroke="black" d="M3581.72,-437.4C3550.26,-438.72 3516.38,-438.85 3484.46,-437.79"/>
<polygon fill="black" stroke="black" points="3484.29,-434.28 3474.16,-437.4 3484.02,-441.27 3484.29,-434.28"/>
</g>
<!-- b15 -->
<g id="node16" class="node">
<title>b15</title>
<polygon fill="gold" stroke="black" points="3474,-313.5 3220,-313.5 3220,-261.5 3474,-261.5 3474,-313.5"/>
<text text-anchor="middle" x="3347" y="-301.5" font-family="Helvetica" font-size="10.00">B15</text>
<text text-anchor="middle" x="3347" y="-290.5" font-family="Helvetica" font-size="10.00">Loop: L3</text>
<text text-anchor="middle" x="3347" y="-279.5" font-family="Helvetica" font-size="10.00">&#45;&#45;&#45;</text>
<text text-anchor="middle" x="3347" y="-268.5" font-family="Helvetica" font-size="10.00">HotSpotMethod&lt;LoopBenchmarks.fibonacciLoop(int)&gt;</text>
</g>
<!-- b15&#45;&gt;b16 -->
<g id="edge22" class="edge">
<title>b15&#45;&gt;b16</title>
<path fill="none" stroke="black" d="M3474.16,-287.5C3505.62,-287.5 3539.49,-287.5 3571.43,-287.5"/>
<polygon fill="black" stroke="black" points="3571.72,-291 3581.72,-287.5 3571.72,-284 3571.72,-291"/>
</g>
<!-- b17 -->
<g id="node18" class="node">
<title>b17</title>
<polygon fill="violet" stroke="black" points="4198,-313.5 3944,-313.5 3944,-261.5 4198,-261.5 4198,-313.5"/>
<text text-anchor="middle" x="4071" y="-301.5" font-family="Helvetica" font-size="10.00">B17</text>
<text text-anchor="middle" x="4071" y="-290.5" font-family="Helvetica" font-size="10.00">Loop: L5</text>
<text text-anchor="middle" x="4071" y="-279.5" font-family="Helvetica" font-size="10.00">&#45;&#45;&#45;</text>
<text text-anchor="middle" x="4071" y="-268.5" font-family="Helvetica" font-size="10.00">HotSpotMethod&lt;LoopBenchmarks.fibonacciLoop(int)&gt;</text>
</g>
<!-- b16&#45;&gt;b17 -->
<g id="edge23" class="edge">
<title>b16&#45;&gt;b17</title>
<path fill="none" stroke="black" d="M3836.16,-261.6C3867.62,-260.28 3901.49,-260.15 3933.43,-261.21"/>
<polygon fill="black" stroke="black" points="3933.6,-264.72 3943.72,-261.6 3933.86,-257.72 3933.6,-264.72"/>
</g>
<!-- b19 -->
<g id="node20" class="node">
<title>b19</title>
<polygon fill="khaki" stroke="black" points="4198,-189.5 3944,-189.5 3944,-137.5 4198,-137.5 4198,-189.5"/>
<text text-anchor="middle" x="4071" y="-177.5" font-family="Helvetica" font-size="10.00">B19</text>
<text text-anchor="middle" x="4071" y="-166.5" font-family="Helvetica" font-size="10.00">Loop: L6</text>
<text text-anchor="middle" x="4071" y="-155.5" font-family="Helvetica" font-size="10.00">&#45;&#45;&#45;</text>
<text text-anchor="middle" x="4071" y="-144.5" font-family="Helvetica" font-size="10.00">HotSpotMethod&lt;LoopBenchmarks.fibonacciLoop(int)&gt;</text>
</g>
<!-- b16&#45;&gt;b19 -->
<g id="edge24" class="edge">
<title>b16&#45;&gt;b19</title>
<path fill="none" stroke="black" d="M3785.91,-261.35C3844.16,-241.29 3924.58,-213.59 3984.99,-192.78"/>
<polygon fill="black" stroke="black" points="3986.19,-196.07 3994.51,-189.5 3983.91,-189.45 3986.19,-196.07"/>
</g>
<!-- b17&#45;&gt;b16 -->
<g id="edge25" class="edge">
<title>b17&#45;&gt;b16</title>
<path fill="none" stroke="black" d="M3943.72,-313.4C3912.26,-314.72 3878.38,-314.85 3846.46,-313.79"/>
<polygon fill="black" stroke="black" points="3846.29,-310.28 3836.16,-313.4 3846.02,-317.27 3846.29,-310.28"/>
</g>
<!-- b18 -->
<g id="node19" class="node">
<title>b18</title>
<polygon fill="gold" stroke="black" points="3836,-189.5 3582,-189.5 3582,-137.5 3836,-137.5 3836,-189.5"/>
<text text-anchor="middle" x="3709" y="-177.5" font-family="Helvetica" font-size="10.00">B18</text>
<text text-anchor="middle" x="3709" y="-166.5" font-family="Helvetica" font-size="10.00">Loop: L3</text>
<text text-anchor="middle" x="3709" y="-155.5" font-family="Helvetica" font-size="10.00">&#45;&#45;&#45;</text>
<text text-anchor="middle" x="3709" y="-144.5" font-family="Helvetica" font-size="10.00">HotSpotMethod&lt;LoopBenchmarks.fibonacciLoop(int)&gt;</text>
</g>
<!-- b18&#45;&gt;b19 -->
<g id="edge26" class="edge">
<title>b18&#45;&gt;b19</title>
<path fill="none" stroke="black" d="M3836.16,-163.5C3867.62,-163.5 3901.49,-163.5 3933.43,-163.5"/>
<polygon fill="black" stroke="black" points="3933.72,-167 3943.72,-163.5 3933.72,-160 3933.72,-167"/>
</g>
<!-- b20 -->
<g id="node21" class="node">
<title>b20</title>
<polygon fill="khaki" stroke="black" points="4560,-189.5 4306,-189.5 4306,-137.5 4560,-137.5 4560,-189.5"/>
<text text-anchor="middle" x="4433" y="-177.5" font-family="Helvetica" font-size="10.00">B20</text>
<text text-anchor="middle" x="4433" y="-166.5" font-family="Helvetica" font-size="10.00">Loop: L6</text>
<text text-anchor="middle" x="4433" y="-155.5" font-family="Helvetica" font-size="10.00">&#45;&#45;&#45;</text>
<text text-anchor="middle" x="4433" y="-144.5" font-family="Helvetica" font-size="10.00">HotSpotMethod&lt;LoopBenchmarks.fibonacciLoop(int)&gt;</text>
</g>
<!-- b19&#45;&gt;b20 -->
<g id="edge27" class="edge">
<title>b19&#45;&gt;b20</title>
<path fill="none" stroke="black" d="M4198.16,-137.6C4229.62,-136.28 4263.49,-136.15 4295.43,-137.21"/>
<polygon fill="black" stroke="black" points="4295.6,-140.72 4305.72,-137.6 4295.86,-133.72 4295.6,-140.72"/>
</g>
<!-- b21 -->
<g id="node22" class="node">
<title>b21</title>
<polygon fill="gold" stroke="black" points="4560,-63 4306,-63 4306,0 4560,0 4560,-63"/>
<text text-anchor="middle" x="4433" y="-51" font-family="Helvetica" font-size="10.00">B21</text>
<text text-anchor="middle" x="4433" y="-40" font-family="Helvetica" font-size="10.00">Loop: L3</text>
<text text-anchor="middle" x="4433" y="-29" font-family="Helvetica" font-size="10.00">&#45;&#45;&#45;</text>
<text text-anchor="middle" x="4433" y="-18" font-family="Helvetica" font-size="10.00">HotSpotMethod&lt;LoopBenchmarks.fibonacciLoop(int)&gt;</text>
<text text-anchor="middle" x="4433" y="-7" font-family="Helvetica" font-size="10.00">HotSpotMethod&lt;LoopBenchmarks.main(String[])&gt;</text>
</g>
<!-- b19&#45;&gt;b21 -->
<g id="edge28" class="edge">
<title>b19&#45;&gt;b21</title>
<path fill="none" stroke="black" d="M4143.12,-137.42C4198.36,-117.17 4275.52,-88.88 4336.19,-66.63"/>
<polygon fill="black" stroke="black" points="4337.6,-69.84 4345.79,-63.11 4335.19,-63.27 4337.6,-69.84"/>
</g>
<!-- b20&#45;&gt;b19 -->
<g id="edge29" class="edge">
<title>b20&#45;&gt;b19</title>
<path fill="none" stroke="black" d="M4305.72,-189.4C4274.26,-190.72 4240.38,-190.85 4208.46,-189.79"/>
<polygon fill="black" stroke="black" points="4208.29,-186.28 4198.16,-189.4 4208.02,-193.27 4208.29,-186.28"/>
</g>
<!-- b21&#45;&gt;b11 -->
<g id="edge30" class="edge">
<title>b21&#45;&gt;b11</title>
<path fill="none" stroke="black" d="M4305.81,-30.66C4161.71,-29.77 3918.86,-28.5 3710,-28.5 3346,-28.5 3346,-28.5 3346,-28.5 3108.79,-28.5 2838.34,-116.38 2709.5,-163.87"/>
<polygon fill="black" stroke="black" points="2708.25,-160.6 2700.09,-167.36 2710.68,-167.16 2708.25,-160.6"/>
</g>
</g>
</svg>
