<?xml version="1.0" encoding="UTF-8" standalone="no"?>
<!DOCTYPE svg PUBLIC "-//W3C//DTD SVG 1.1//EN"
 "http://www.w3.org/Graphics/SVG/1.1/DTD/svg11.dtd">
<!-- Generated by graphviz version 2.44.0 (0)
 -->
<!-- Title: CFG_78 Pages: 1 -->
<svg width="1106pt" height="501pt"
 viewBox="0.00 0.00 1106.00 501.00" xmlns="http://www.w3.org/2000/svg" xmlns:xlink="http://www.w3.org/1999/xlink">
<g id="graph0" class="graph" transform="scale(1 1) rotate(0) translate(4 497)">
<title>CFG_78</title>
<polygon fill="white" stroke="transparent" points="-4,4 -4,-497 1102,-497 1102,4 -4,4"/>
<text text-anchor="middle" x="208" y="-473" font-family="Times-Roman" font-size="20.00">132&#45;java.lang.String.checkIndex(int, int)</text>
<!-- b0 -->
<g id="node1" class="node">
<title>b0</title>
<polygon fill="white" stroke="black" points="294,-389.5 0,-389.5 0,-337.5 294,-337.5 294,-389.5"/>
<text text-anchor="middle" x="147" y="-377.5" font-family="Helvetica" font-size="10.00">B0</text>
<text text-anchor="middle" x="147" y="-366.5" font-family="Helvetica" font-size="10.00">Loop: &lt;none&gt;</text>
<text text-anchor="middle" x="147" y="-355.5" font-family="Helvetica" font-size="10.00">&#45;&#45;&#45;</text>
<text text-anchor="middle" x="147" y="-344.5" font-family="Helvetica" font-size="10.00">HotSpotMethod&lt;Preconditions.checkIndex(int, int, BiFunction)&gt;</text>
</g>
<!-- b2 -->
<g id="node3" class="node">
<title>b2</title>
<polygon fill="white" stroke="black" points="696,-457.5 402,-457.5 402,-405.5 696,-405.5 696,-457.5"/>
<text text-anchor="middle" x="549" y="-445.5" font-family="Helvetica" font-size="10.00">B2</text>
<text text-anchor="middle" x="549" y="-434.5" font-family="Helvetica" font-size="10.00">Loop: &lt;none&gt;</text>
<text text-anchor="middle" x="549" y="-423.5" font-family="Helvetica" font-size="10.00">&#45;&#45;&#45;</text>
<text text-anchor="middle" x="549" y="-412.5" font-family="Helvetica" font-size="10.00">HotSpotMethod&lt;Preconditions.checkIndex(int, int, BiFunction)&gt;</text>
</g>
<!-- b0&#45;&gt;b2 -->
<g id="edge2" class="edge">
<title>b0&#45;&gt;b2</title>
<path fill="none" stroke="black" d="M294.11,-388.34C325.96,-393.75 359.79,-399.5 392.01,-404.98"/>
<polygon fill="black" stroke="black" points="391.51,-408.45 401.95,-406.67 392.68,-401.55 391.51,-408.45"/>
</g>
<!-- b5 -->
<g id="node6" class="node">
<title>b5</title>
<polygon fill="white" stroke="black" points="1098,-255.5 804,-255.5 804,-203.5 1098,-203.5 1098,-255.5"/>
<text text-anchor="middle" x="951" y="-243.5" font-family="Helvetica" font-size="10.00">B5</text>
<text text-anchor="middle" x="951" y="-232.5" font-family="Helvetica" font-size="10.00">Loop: &lt;none&gt;</text>
<text text-anchor="middle" x="951" y="-221.5" font-family="Helvetica" font-size="10.00">&#45;&#45;&#45;</text>
<text text-anchor="middle" x="951" y="-210.5" font-family="Helvetica" font-size="10.00">HotSpotMethod&lt;Preconditions.checkIndex(int, int, BiFunction)&gt;</text>
</g>
<!-- b0&#45;&gt;b5 -->
<g id="edge1" class="edge">
<title>b0&#45;&gt;b5</title>
<path fill="none" stroke="black" d="M294.17,-339.08C435.47,-315.47 648.84,-279.82 793.53,-255.64"/>
<polygon fill="black" stroke="black" points="794.54,-259.02 803.82,-253.92 793.38,-252.12 794.54,-259.02"/>
</g>
<!-- b1 -->
<g id="node2" class="node">
<title>b1</title>
<polygon fill="white" stroke="black" points="696,-187.5 402,-187.5 402,-135.5 696,-135.5 696,-187.5"/>
<text text-anchor="middle" x="549" y="-175.5" font-family="Helvetica" font-size="10.00">B1</text>
<text text-anchor="middle" x="549" y="-164.5" font-family="Helvetica" font-size="10.00">Loop: &lt;none&gt;</text>
<text text-anchor="middle" x="549" y="-153.5" font-family="Helvetica" font-size="10.00">&#45;&#45;&#45;</text>
<text text-anchor="middle" x="549" y="-142.5" font-family="Helvetica" font-size="10.00">HotSpotMethod&lt;Preconditions.checkIndex(int, int, BiFunction)&gt;</text>
</g>
<!-- b1&#45;&gt;b5 -->
<g id="edge3" class="edge">
<title>b1&#45;&gt;b5</title>
<path fill="none" stroke="black" d="M696.11,-186.34C727.96,-191.75 761.79,-197.5 794.01,-202.98"/>
<polygon fill="black" stroke="black" points="793.51,-206.45 803.95,-204.67 794.68,-199.55 793.51,-206.45"/>
</g>
<!-- b3 -->
<g id="node4" class="node">
<title>b3</title>
<polygon fill="white" stroke="black" points="1098,-463 804,-463 804,-400 1098,-400 1098,-463"/>
<text text-anchor="middle" x="951" y="-451" font-family="Helvetica" font-size="10.00">B3</text>
<text text-anchor="middle" x="951" y="-440" font-family="Helvetica" font-size="10.00">Loop: &lt;none&gt;</text>
<text text-anchor="middle" x="951" y="-429" font-family="Helvetica" font-size="10.00">&#45;&#45;&#45;</text>
<text text-anchor="middle" x="951" y="-418" font-family="Helvetica" font-size="10.00">HotSpotMethod&lt;Preconditions.checkIndex(int, int, BiFunction)&gt;</text>
<text text-anchor="middle" x="951" y="-407" font-family="Helvetica" font-size="10.00">HotSpotMethod&lt;String.checkIndex(int, int)&gt;</text>
</g>
<!-- b2&#45;&gt;b3 -->
<g id="edge4" class="edge">
<title>b2&#45;&gt;b3</title>
<path fill="none" stroke="black" d="M696.11,-431.5C727.82,-431.5 761.5,-431.5 793.59,-431.5"/>
<polygon fill="black" stroke="black" points="793.95,-435 803.95,-431.5 793.95,-428 793.95,-435"/>
</g>
<!-- b2&#45;&gt;b5 -->
<g id="edge5" class="edge">
<title>b2&#45;&gt;b5</title>
<path fill="none" stroke="black" d="M601.88,-405.3C675.62,-368.06 810.46,-299.97 888.93,-260.34"/>
<polygon fill="black" stroke="black" points="890.86,-263.29 898.21,-255.65 887.7,-257.04 890.86,-263.29"/>
</g>
<!-- b4 -->
<g id="node5" class="node">
<title>b4</title>
<polygon fill="white" stroke="black" points="696,-63 402,-63 402,0 696,0 696,-63"/>
<text text-anchor="middle" x="549" y="-51" font-family="Helvetica" font-size="10.00">B4</text>
<text text-anchor="middle" x="549" y="-40" font-family="Helvetica" font-size="10.00">Loop: &lt;none&gt;</text>
<text text-anchor="middle" x="549" y="-29" font-family="Helvetica" font-size="10.00">&#45;&#45;&#45;</text>
<text text-anchor="middle" x="549" y="-18" font-family="Helvetica" font-size="10.00">HotSpotMethod&lt;String.checkIndex(int, int)&gt;</text>
<text text-anchor="middle" x="549" y="-7" font-family="Helvetica" font-size="10.00">HotSpotMethod&lt;Preconditions.checkIndex(int, int, BiFunction)&gt;</text>
</g>
<!-- b4&#45;&gt;b5 -->
<g id="edge6" class="edge">
<title>b4&#45;&gt;b5</title>
<path fill="none" stroke="black" d="M619.32,-63.15C643.66,-74.43 671.13,-87.35 696,-99.5 763.39,-132.43 839.92,-171.88 891.2,-198.62"/>
<polygon fill="black" stroke="black" points="889.67,-201.77 900.15,-203.3 892.91,-195.57 889.67,-201.77"/>
</g>
</g>
</svg>
