<?xml version="1.0" encoding="UTF-8" standalone="no"?>
<!DOCTYPE svg PUBLIC "-//W3C//DTD SVG 1.1//EN"
 "http://www.w3.org/Graphics/SVG/1.1/DTD/svg11.dtd">
<!-- Generated by graphviz version 2.44.0 (0)
 -->
<!-- Title: CFG_88 Pages: 1 -->
<svg width="5950pt" height="770pt"
 viewBox="0.00 0.00 5950.00 769.50" xmlns="http://www.w3.org/2000/svg" xmlns:xlink="http://www.w3.org/1999/xlink">
<g id="graph0" class="graph" transform="scale(1 1) rotate(0) translate(4 765.5)">
<title>CFG_88</title>
<polygon fill="white" stroke="transparent" points="-4,4 -4,-765.5 5946,-765.5 5946,4 -4,4"/>
<text text-anchor="middle" x="189" y="-741.5" font-family="Times-Roman" font-size="20.00">143&#45;LoopBenchmarks.main(String[])</text>
<!-- b0 -->
<g id="node1" class="node">
<title>b0</title>
<polygon fill="white" stroke="black" points="331,-419.5 0,-419.5 0,-356.5 331,-356.5 331,-419.5"/>
<text text-anchor="middle" x="165.5" y="-407.5" font-family="Helvetica" font-size="10.00">B0</text>
<text text-anchor="middle" x="165.5" y="-396.5" font-family="Helvetica" font-size="10.00">Loop: &lt;none&gt;</text>
<text text-anchor="middle" x="165.5" y="-385.5" font-family="Helvetica" font-size="10.00">&#45;&#45;&#45;</text>
<text text-anchor="middle" x="165.5" y="-374.5" font-family="Helvetica" font-size="10.00">HotSpotMethod&lt;LoopBenchmarks.main(String[])&gt;</text>
<text text-anchor="middle" x="165.5" y="-363.5" font-family="Helvetica" font-size="10.00">HotSpotMethod&lt;LoopBenchmarks.mandelbrotLoop(double, double, int)&gt;</text>
</g>
<!-- b1 -->
<g id="node2" class="node">
<title>b1</title>
<polygon fill="white" stroke="black" points="770,-519.5 439,-519.5 439,-456.5 770,-456.5 770,-519.5"/>
<text text-anchor="middle" x="604.5" y="-507.5" font-family="Helvetica" font-size="10.00">B1</text>
<text text-anchor="middle" x="604.5" y="-496.5" font-family="Helvetica" font-size="10.00">Loop: &lt;none&gt;</text>
<text text-anchor="middle" x="604.5" y="-485.5" font-family="Helvetica" font-size="10.00">&#45;&#45;&#45;</text>
<text text-anchor="middle" x="604.5" y="-474.5" font-family="Helvetica" font-size="10.00">HotSpotMethod&lt;LoopBenchmarks.main(String[])&gt;</text>
<text text-anchor="middle" x="604.5" y="-463.5" font-family="Helvetica" font-size="10.00">HotSpotMethod&lt;LoopBenchmarks.mandelbrotLoop(double, double, int)&gt;</text>
</g>
<!-- b0&#45;&gt;b1 -->
<g id="edge1" class="edge">
<title>b0&#45;&gt;b1</title>
<path fill="none" stroke="black" d="M304.17,-419.5C352.39,-430.54 406.71,-442.97 455.72,-454.18"/>
<polygon fill="black" stroke="black" points="455.24,-457.66 465.77,-456.48 456.8,-450.84 455.24,-457.66"/>
</g>
<!-- b15 -->
<g id="node16" class="node">
<title>b15</title>
<polygon fill="white" stroke="black" points="1209,-290.5 878,-290.5 878,-227.5 1209,-227.5 1209,-290.5"/>
<text text-anchor="middle" x="1043.5" y="-278.5" font-family="Helvetica" font-size="10.00">B15</text>
<text text-anchor="middle" x="1043.5" y="-267.5" font-family="Helvetica" font-size="10.00">Loop: &lt;none&gt;</text>
<text text-anchor="middle" x="1043.5" y="-256.5" font-family="Helvetica" font-size="10.00">&#45;&#45;&#45;</text>
<text text-anchor="middle" x="1043.5" y="-245.5" font-family="Helvetica" font-size="10.00">HotSpotMethod&lt;LoopBenchmarks.mandelbrotLoop(double, double, int)&gt;</text>
<text text-anchor="middle" x="1043.5" y="-234.5" font-family="Helvetica" font-size="10.00">HotSpotMethod&lt;LoopBenchmarks.main(String[])&gt;</text>
</g>
<!-- b0&#45;&gt;b15 -->
<g id="edge2" class="edge">
<title>b0&#45;&gt;b15</title>
<path fill="none" stroke="black" d="M331.01,-363.77C483.99,-341.25 711.16,-307.79 867.44,-284.78"/>
<polygon fill="black" stroke="black" points="868.25,-288.2 877.63,-283.28 867.23,-281.27 868.25,-288.2"/>
</g>
<!-- b2 -->
<g id="node3" class="node">
<title>b2</title>
<polygon fill="lightblue" stroke="black" points="1209,-521 878,-521 878,-469 1209,-469 1209,-521"/>
<text text-anchor="middle" x="1043.5" y="-509" font-family="Helvetica" font-size="10.00">B2</text>
<text text-anchor="middle" x="1043.5" y="-498" font-family="Helvetica" font-size="10.00">Loop: L0</text>
<text text-anchor="middle" x="1043.5" y="-487" font-family="Helvetica" font-size="10.00">&#45;&#45;&#45;</text>
<text text-anchor="middle" x="1043.5" y="-476" font-family="Helvetica" font-size="10.00">HotSpotMethod&lt;LoopBenchmarks.mandelbrotLoop(double, double, int)&gt;</text>
</g>
<!-- b1&#45;&gt;b2 -->
<g id="edge3" class="edge">
<title>b1&#45;&gt;b2</title>
<path fill="none" stroke="black" d="M770.09,-490.64C801.85,-491.15 835.24,-491.68 867.33,-492.19"/>
<polygon fill="black" stroke="black" points="867.64,-495.7 877.7,-492.36 867.75,-488.7 867.64,-495.7"/>
</g>
<!-- b3 -->
<g id="node4" class="node">
<title>b3</title>
<polygon fill="lightblue" stroke="black" points="1648,-529 1317,-529 1317,-477 1648,-477 1648,-529"/>
<text text-anchor="middle" x="1482.5" y="-517" font-family="Helvetica" font-size="10.00">B3</text>
<text text-anchor="middle" x="1482.5" y="-506" font-family="Helvetica" font-size="10.00">Loop: L0</text>
<text text-anchor="middle" x="1482.5" y="-495" font-family="Helvetica" font-size="10.00">&#45;&#45;&#45;</text>
<text text-anchor="middle" x="1482.5" y="-484" font-family="Helvetica" font-size="10.00">HotSpotMethod&lt;LoopBenchmarks.mandelbrotLoop(double, double, int)&gt;</text>
</g>
<!-- b2&#45;&gt;b3 -->
<g id="edge4" class="edge">
<title>b2&#45;&gt;b3</title>
<path fill="none" stroke="black" d="M1209.09,-498.01C1240.85,-498.59 1274.24,-499.21 1306.33,-499.79"/>
<polygon fill="black" stroke="black" points="1306.63,-503.3 1316.7,-499.98 1306.76,-496.3 1306.63,-503.3"/>
</g>
<!-- b14 -->
<g id="node15" class="node">
<title>b14</title>
<polygon fill="white" stroke="black" points="1648,-405 1317,-405 1317,-353 1648,-353 1648,-405"/>
<text text-anchor="middle" x="1482.5" y="-393" font-family="Helvetica" font-size="10.00">B14</text>
<text text-anchor="middle" x="1482.5" y="-382" font-family="Helvetica" font-size="10.00">Loop: &lt;none&gt;</text>
<text text-anchor="middle" x="1482.5" y="-371" font-family="Helvetica" font-size="10.00">&#45;&#45;&#45;</text>
<text text-anchor="middle" x="1482.5" y="-360" font-family="Helvetica" font-size="10.00">HotSpotMethod&lt;LoopBenchmarks.mandelbrotLoop(double, double, int)&gt;</text>
</g>
<!-- b2&#45;&gt;b14 -->
<g id="edge5" class="edge">
<title>b2&#45;&gt;b14</title>
<path fill="none" stroke="black" d="M1142.57,-468.97C1211.19,-450.75 1302.85,-426.42 1373.55,-407.66"/>
<polygon fill="black" stroke="black" points="1374.61,-410.99 1383.38,-405.05 1372.82,-404.23 1374.61,-410.99"/>
</g>
<!-- b4 -->
<g id="node5" class="node">
<title>b4</title>
<polygon fill="lightblue" stroke="black" points="2087,-661 1756,-661 1756,-609 2087,-609 2087,-661"/>
<text text-anchor="middle" x="1921.5" y="-649" font-family="Helvetica" font-size="10.00">B4</text>
<text text-anchor="middle" x="1921.5" y="-638" font-family="Helvetica" font-size="10.00">Loop: L0</text>
<text text-anchor="middle" x="1921.5" y="-627" font-family="Helvetica" font-size="10.00">&#45;&#45;&#45;</text>
<text text-anchor="middle" x="1921.5" y="-616" font-family="Helvetica" font-size="10.00">HotSpotMethod&lt;LoopBenchmarks.mandelbrotLoop(double, double, int)&gt;</text>
</g>
<!-- b3&#45;&gt;b4 -->
<g id="edge6" class="edge">
<title>b3&#45;&gt;b4</title>
<path fill="none" stroke="black" d="M1569.58,-529C1643.02,-551.18 1748.51,-583.05 1824.64,-606.04"/>
<polygon fill="black" stroke="black" points="1823.65,-609.4 1834.24,-608.94 1825.68,-602.7 1823.65,-609.4"/>
</g>
<!-- b5 -->
<g id="node6" class="node">
<title>b5</title>
<polygon fill="white" stroke="black" points="2087,-534.5 1756,-534.5 1756,-471.5 2087,-471.5 2087,-534.5"/>
<text text-anchor="middle" x="1921.5" y="-522.5" font-family="Helvetica" font-size="10.00">B5</text>
<text text-anchor="middle" x="1921.5" y="-511.5" font-family="Helvetica" font-size="10.00">Loop: &lt;none&gt;</text>
<text text-anchor="middle" x="1921.5" y="-500.5" font-family="Helvetica" font-size="10.00">&#45;&#45;&#45;</text>
<text text-anchor="middle" x="1921.5" y="-489.5" font-family="Helvetica" font-size="10.00">HotSpotMethod&lt;LoopBenchmarks.mandelbrotLoop(double, double, int)&gt;</text>
<text text-anchor="middle" x="1921.5" y="-478.5" font-family="Helvetica" font-size="10.00">HotSpotMethod&lt;LoopBenchmarks.main(String[])&gt;</text>
</g>
<!-- b3&#45;&gt;b5 -->
<g id="edge7" class="edge">
<title>b3&#45;&gt;b5</title>
<path fill="none" stroke="black" d="M1648.09,-503C1679.85,-503 1713.24,-503 1745.33,-503"/>
<polygon fill="black" stroke="black" points="1745.7,-506.5 1755.7,-503 1745.7,-499.5 1745.7,-506.5"/>
</g>
<!-- b4&#45;&gt;b2 -->
<g id="edge8" class="edge">
<title>b4&#45;&gt;b2</title>
<path fill="none" stroke="black" d="M1755.99,-622C1634.14,-610.91 1464.39,-592.35 1317,-565 1258.69,-554.18 1194.38,-537.88 1142.9,-523.72"/>
<polygon fill="black" stroke="black" points="1143.68,-520.31 1133.1,-521.02 1141.81,-527.06 1143.68,-520.31"/>
</g>
<!-- b6 -->
<g id="node7" class="node">
<title>b6</title>
<polygon fill="lightgreen" stroke="black" points="2430,-529 2195,-529 2195,-477 2430,-477 2430,-529"/>
<text text-anchor="middle" x="2312.5" y="-517" font-family="Helvetica" font-size="10.00">B6</text>
<text text-anchor="middle" x="2312.5" y="-506" font-family="Helvetica" font-size="10.00">Loop: L1</text>
<text text-anchor="middle" x="2312.5" y="-495" font-family="Helvetica" font-size="10.00">&#45;&#45;&#45;</text>
<text text-anchor="middle" x="2312.5" y="-484" font-family="Helvetica" font-size="10.00">HotSpotMethod&lt;LoopBenchmarks.main(String[])&gt;</text>
</g>
<!-- b5&#45;&gt;b6 -->
<g id="edge9" class="edge">
<title>b5&#45;&gt;b6</title>
<path fill="none" stroke="black" d="M2087.19,-503C2119.82,-503 2153.59,-503 2184.72,-503"/>
<polygon fill="black" stroke="black" points="2184.73,-506.5 2194.73,-503 2184.73,-499.5 2184.73,-506.5"/>
</g>
<!-- b7 -->
<g id="node8" class="node">
<title>b7</title>
<polygon fill="lightgreen" stroke="black" points="2869,-534.5 2538,-534.5 2538,-471.5 2869,-471.5 2869,-534.5"/>
<text text-anchor="middle" x="2703.5" y="-522.5" font-family="Helvetica" font-size="10.00">B7</text>
<text text-anchor="middle" x="2703.5" y="-511.5" font-family="Helvetica" font-size="10.00">Loop: L1</text>
<text text-anchor="middle" x="2703.5" y="-500.5" font-family="Helvetica" font-size="10.00">&#45;&#45;&#45;</text>
<text text-anchor="middle" x="2703.5" y="-489.5" font-family="Helvetica" font-size="10.00">HotSpotMethod&lt;LoopBenchmarks.main(String[])&gt;</text>
<text text-anchor="middle" x="2703.5" y="-478.5" font-family="Helvetica" font-size="10.00">HotSpotMethod&lt;LoopBenchmarks.mandelbrotLoop(double, double, int)&gt;</text>
</g>
<!-- b6&#45;&gt;b7 -->
<g id="edge10" class="edge">
<title>b6&#45;&gt;b7</title>
<path fill="none" stroke="black" d="M2430.21,-503C2460.84,-503 2494.54,-503 2527.49,-503"/>
<polygon fill="black" stroke="black" points="2527.69,-506.5 2537.69,-503 2527.69,-499.5 2527.69,-506.5"/>
</g>
<!-- b16 -->
<g id="node17" class="node">
<title>b16</title>
<polygon fill="white" stroke="black" points="2821,-202 2586,-202 2586,-150 2821,-150 2821,-202"/>
<text text-anchor="middle" x="2703.5" y="-190" font-family="Helvetica" font-size="10.00">B16</text>
<text text-anchor="middle" x="2703.5" y="-179" font-family="Helvetica" font-size="10.00">Loop: &lt;none&gt;</text>
<text text-anchor="middle" x="2703.5" y="-168" font-family="Helvetica" font-size="10.00">&#45;&#45;&#45;</text>
<text text-anchor="middle" x="2703.5" y="-157" font-family="Helvetica" font-size="10.00">HotSpotMethod&lt;LoopBenchmarks.main(String[])&gt;</text>
</g>
<!-- b6&#45;&gt;b16 -->
<g id="edge11" class="edge">
<title>b6&#45;&gt;b16</title>
<path fill="none" stroke="black" d="M2344.68,-476.79C2415.04,-417.64 2586.04,-273.89 2663.38,-208.89"/>
<polygon fill="black" stroke="black" points="2666.04,-211.22 2671.45,-202.1 2661.54,-205.86 2666.04,-211.22"/>
</g>
<!-- b8 -->
<g id="node9" class="node">
<title>b8</title>
<polygon fill="lightpink" stroke="black" points="3308,-529 2977,-529 2977,-477 3308,-477 3308,-529"/>
<text text-anchor="middle" x="3142.5" y="-517" font-family="Helvetica" font-size="10.00">B8</text>
<text text-anchor="middle" x="3142.5" y="-506" font-family="Helvetica" font-size="10.00">Loop: L2</text>
<text text-anchor="middle" x="3142.5" y="-495" font-family="Helvetica" font-size="10.00">&#45;&#45;&#45;</text>
<text text-anchor="middle" x="3142.5" y="-484" font-family="Helvetica" font-size="10.00">HotSpotMethod&lt;LoopBenchmarks.mandelbrotLoop(double, double, int)&gt;</text>
</g>
<!-- b7&#45;&gt;b8 -->
<g id="edge12" class="edge">
<title>b7&#45;&gt;b8</title>
<path fill="none" stroke="black" d="M2869.09,-503C2900.85,-503 2934.24,-503 2966.33,-503"/>
<polygon fill="black" stroke="black" points="2966.7,-506.5 2976.7,-503 2966.7,-499.5 2966.7,-506.5"/>
</g>
<!-- b9 -->
<g id="node10" class="node">
<title>b9</title>
<polygon fill="lightpink" stroke="black" points="3747,-659 3416,-659 3416,-607 3747,-607 3747,-659"/>
<text text-anchor="middle" x="3581.5" y="-647" font-family="Helvetica" font-size="10.00">B9</text>
<text text-anchor="middle" x="3581.5" y="-636" font-family="Helvetica" font-size="10.00">Loop: L2</text>
<text text-anchor="middle" x="3581.5" y="-625" font-family="Helvetica" font-size="10.00">&#45;&#45;&#45;</text>
<text text-anchor="middle" x="3581.5" y="-614" font-family="Helvetica" font-size="10.00">HotSpotMethod&lt;LoopBenchmarks.mandelbrotLoop(double, double, int)&gt;</text>
</g>
<!-- b8&#45;&gt;b9 -->
<g id="edge13" class="edge">
<title>b8&#45;&gt;b9</title>
<path fill="none" stroke="black" d="M3231.15,-529.07C3303.99,-550.74 3407.56,-581.55 3483.01,-604"/>
<polygon fill="black" stroke="black" points="3482.42,-607.47 3493,-606.97 3484.41,-600.76 3482.42,-607.47"/>
</g>
<!-- b13 -->
<g id="node14" class="node">
<title>b13</title>
<polygon fill="white" stroke="black" points="3747,-534.5 3416,-534.5 3416,-471.5 3747,-471.5 3747,-534.5"/>
<text text-anchor="middle" x="3581.5" y="-522.5" font-family="Helvetica" font-size="10.00">B13</text>
<text text-anchor="middle" x="3581.5" y="-511.5" font-family="Helvetica" font-size="10.00">Loop: &lt;none&gt;</text>
<text text-anchor="middle" x="3581.5" y="-500.5" font-family="Helvetica" font-size="10.00">&#45;&#45;&#45;</text>
<text text-anchor="middle" x="3581.5" y="-489.5" font-family="Helvetica" font-size="10.00">HotSpotMethod&lt;LoopBenchmarks.main(String[])&gt;</text>
<text text-anchor="middle" x="3581.5" y="-478.5" font-family="Helvetica" font-size="10.00">HotSpotMethod&lt;LoopBenchmarks.mandelbrotLoop(double, double, int)&gt;</text>
</g>
<!-- b8&#45;&gt;b13 -->
<g id="edge14" class="edge">
<title>b8&#45;&gt;b13</title>
<path fill="none" stroke="black" d="M3308.09,-503C3339.85,-503 3373.24,-503 3405.33,-503"/>
<polygon fill="black" stroke="black" points="3405.7,-506.5 3415.7,-503 3405.7,-499.5 3405.7,-506.5"/>
</g>
<!-- b10 -->
<g id="node11" class="node">
<title>b10</title>
<polygon fill="lightpink" stroke="black" points="4186,-492 3855,-492 3855,-440 4186,-440 4186,-492"/>
<text text-anchor="middle" x="4020.5" y="-480" font-family="Helvetica" font-size="10.00">B10</text>
<text text-anchor="middle" x="4020.5" y="-469" font-family="Helvetica" font-size="10.00">Loop: L2</text>
<text text-anchor="middle" x="4020.5" y="-458" font-family="Helvetica" font-size="10.00">&#45;&#45;&#45;</text>
<text text-anchor="middle" x="4020.5" y="-447" font-family="Helvetica" font-size="10.00">HotSpotMethod&lt;LoopBenchmarks.mandelbrotLoop(double, double, int)&gt;</text>
</g>
<!-- b9&#45;&gt;b10 -->
<g id="edge15" class="edge">
<title>b9&#45;&gt;b10</title>
<path fill="none" stroke="black" d="M3652.18,-606.87C3681.48,-595.85 3715.91,-582.85 3747,-571 3813.14,-545.79 3888.19,-516.85 3942.76,-495.74"/>
<polygon fill="black" stroke="black" points="3944.3,-498.9 3952.36,-492.03 3941.77,-492.37 3944.3,-498.9"/>
</g>
<!-- b11 -->
<g id="node12" class="node">
<title>b11</title>
<polygon fill="lightgreen" stroke="black" points="4186,-731.5 3855,-731.5 3855,-668.5 4186,-668.5 4186,-731.5"/>
<text text-anchor="middle" x="4020.5" y="-719.5" font-family="Helvetica" font-size="10.00">B11</text>
<text text-anchor="middle" x="4020.5" y="-708.5" font-family="Helvetica" font-size="10.00">Loop: L1</text>
<text text-anchor="middle" x="4020.5" y="-697.5" font-family="Helvetica" font-size="10.00">&#45;&#45;&#45;</text>
<text text-anchor="middle" x="4020.5" y="-686.5" font-family="Helvetica" font-size="10.00">HotSpotMethod&lt;LoopBenchmarks.mandelbrotLoop(double, double, int)&gt;</text>
<text text-anchor="middle" x="4020.5" y="-675.5" font-family="Helvetica" font-size="10.00">HotSpotMethod&lt;LoopBenchmarks.main(String[])&gt;</text>
</g>
<!-- b9&#45;&gt;b11 -->
<g id="edge16" class="edge">
<title>b9&#45;&gt;b11</title>
<path fill="none" stroke="black" d="M3747.09,-658.23C3778.99,-663.13 3812.53,-668.27 3844.74,-673.21"/>
<polygon fill="black" stroke="black" points="3844.28,-676.68 3854.7,-674.73 3845.34,-669.76 3844.28,-676.68"/>
</g>
<!-- b10&#45;&gt;b8 -->
<g id="edge17" class="edge">
<title>b10&#45;&gt;b8</title>
<path fill="none" stroke="black" d="M3854.71,-442.76C3733.09,-429.26 3563.75,-418.1 3416,-436 3355.46,-443.33 3288.96,-459.52 3236.82,-474.14"/>
<polygon fill="black" stroke="black" points="3235.59,-470.85 3226.92,-476.94 3237.5,-477.58 3235.59,-470.85"/>
</g>
<!-- b11&#45;&gt;b6 -->
<g id="edge18" class="edge">
<title>b11&#45;&gt;b6</title>
<path fill="none" stroke="black" d="M3854.69,-704.49C3733.23,-706.37 3564.11,-706.02 3416,-695 3022.99,-665.75 2922.83,-655.93 2538,-571 2491.33,-560.7 2440.27,-545.55 2398.65,-532.17"/>
<polygon fill="black" stroke="black" points="2399.7,-528.83 2389.1,-529.07 2397.54,-535.49 2399.7,-528.83"/>
</g>
<!-- b12 -->
<g id="node13" class="node">
<title>b12</title>
<polygon fill="white" stroke="black" points="2430,-135 2195,-135 2195,-83 2430,-83 2430,-135"/>
<text text-anchor="middle" x="2312.5" y="-123" font-family="Helvetica" font-size="10.00">B12</text>
<text text-anchor="middle" x="2312.5" y="-112" font-family="Helvetica" font-size="10.00">Loop: &lt;none&gt;</text>
<text text-anchor="middle" x="2312.5" y="-101" font-family="Helvetica" font-size="10.00">&#45;&#45;&#45;</text>
<text text-anchor="middle" x="2312.5" y="-90" font-family="Helvetica" font-size="10.00">HotSpotMethod&lt;LoopBenchmarks.main(String[])&gt;</text>
</g>
<!-- b12&#45;&gt;b16 -->
<g id="edge19" class="edge">
<title>b12&#45;&gt;b16</title>
<path fill="none" stroke="black" d="M2430.21,-129.1C2476.18,-137.02 2529.08,-146.13 2575.96,-154.21"/>
<polygon fill="black" stroke="black" points="2575.42,-157.66 2585.87,-155.91 2576.61,-150.77 2575.42,-157.66"/>
</g>
<!-- b15&#45;&gt;b16 -->
<g id="edge20" class="edge">
<title>b15&#45;&gt;b16</title>
<path fill="none" stroke="black" d="M1209.16,-250.76C1539.92,-234.2 2278.76,-197.21 2575.52,-182.36"/>
<polygon fill="black" stroke="black" points="2576.08,-185.83 2585.89,-181.84 2575.73,-178.84 2576.08,-185.83"/>
</g>
<!-- b17 -->
<g id="node18" class="node">
<title>b17</title>
<polygon fill="gold" stroke="black" points="3260,-129 3025,-129 3025,-77 3260,-77 3260,-129"/>
<text text-anchor="middle" x="3142.5" y="-117" font-family="Helvetica" font-size="10.00">B17</text>
<text text-anchor="middle" x="3142.5" y="-106" font-family="Helvetica" font-size="10.00">Loop: L3</text>
<text text-anchor="middle" x="3142.5" y="-95" font-family="Helvetica" font-size="10.00">&#45;&#45;&#45;</text>
<text text-anchor="middle" x="3142.5" y="-84" font-family="Helvetica" font-size="10.00">HotSpotMethod&lt;LoopBenchmarks.main(String[])&gt;</text>
</g>
<!-- b16&#45;&gt;b17 -->
<g id="edge21" class="edge">
<title>b16&#45;&gt;b17</title>
<path fill="none" stroke="black" d="M2821.03,-156.53C2880.79,-146.55 2953.66,-134.38 3014.81,-124.16"/>
<polygon fill="black" stroke="black" points="3015.63,-127.58 3024.91,-122.48 3014.47,-120.67 3015.63,-127.58"/>
</g>
<!-- b18 -->
<g id="node19" class="node">
<title>b18</title>
<polygon fill="gold" stroke="black" points="3699,-253 3464,-253 3464,-201 3699,-201 3699,-253"/>
<text text-anchor="middle" x="3581.5" y="-241" font-family="Helvetica" font-size="10.00">B18</text>
<text text-anchor="middle" x="3581.5" y="-230" font-family="Helvetica" font-size="10.00">Loop: L3</text>
<text text-anchor="middle" x="3581.5" y="-219" font-family="Helvetica" font-size="10.00">&#45;&#45;&#45;</text>
<text text-anchor="middle" x="3581.5" y="-208" font-family="Helvetica" font-size="10.00">HotSpotMethod&lt;LoopBenchmarks.main(String[])&gt;</text>
</g>
<!-- b17&#45;&gt;b18 -->
<g id="edge22" class="edge">
<title>b17&#45;&gt;b18</title>
<path fill="none" stroke="black" d="M3235.38,-129.07C3306.65,-149.3 3405.38,-177.31 3478.99,-198.2"/>
<polygon fill="black" stroke="black" points="3478.17,-201.6 3488.75,-200.96 3480.08,-194.87 3478.17,-201.6"/>
</g>
<!-- b27 -->
<g id="node28" class="node">
<title>b27</title>
<polygon fill="white" stroke="black" points="3747,-128.5 3416,-128.5 3416,-65.5 3747,-65.5 3747,-128.5"/>
<text text-anchor="middle" x="3581.5" y="-116.5" font-family="Helvetica" font-size="10.00">B27</text>
<text text-anchor="middle" x="3581.5" y="-105.5" font-family="Helvetica" font-size="10.00">Loop: &lt;none&gt;</text>
<text text-anchor="middle" x="3581.5" y="-94.5" font-family="Helvetica" font-size="10.00">&#45;&#45;&#45;</text>
<text text-anchor="middle" x="3581.5" y="-83.5" font-family="Helvetica" font-size="10.00">HotSpotMethod&lt;LoopBenchmarks.mandelbrotLoop(double, double, int)&gt;</text>
<text text-anchor="middle" x="3581.5" y="-72.5" font-family="Helvetica" font-size="10.00">HotSpotMethod&lt;LoopBenchmarks.main(String[])&gt;</text>
</g>
<!-- b17&#45;&gt;b27 -->
<g id="edge23" class="edge">
<title>b17&#45;&gt;b27</title>
<path fill="none" stroke="black" d="M3260.03,-101.4C3304.74,-100.79 3356.79,-100.07 3405.78,-99.4"/>
<polygon fill="black" stroke="black" points="3405.9,-102.9 3415.85,-99.26 3405.81,-95.9 3405.9,-102.9"/>
</g>
<!-- b19 -->
<g id="node20" class="node">
<title>b19</title>
<polygon fill="orange" stroke="black" points="4138,-235 3903,-235 3903,-183 4138,-183 4138,-235"/>
<text text-anchor="middle" x="4020.5" y="-223" font-family="Helvetica" font-size="10.00">B19</text>
<text text-anchor="middle" x="4020.5" y="-212" font-family="Helvetica" font-size="10.00">Loop: L4</text>
<text text-anchor="middle" x="4020.5" y="-201" font-family="Helvetica" font-size="10.00">&#45;&#45;&#45;</text>
<text text-anchor="middle" x="4020.5" y="-190" font-family="Helvetica" font-size="10.00">HotSpotMethod&lt;LoopBenchmarks.main(String[])&gt;</text>
</g>
<!-- b18&#45;&gt;b19 -->
<g id="edge24" class="edge">
<title>b18&#45;&gt;b19</title>
<path fill="none" stroke="black" d="M3699.03,-222.2C3758.79,-219.74 3831.66,-216.74 3892.81,-214.22"/>
<polygon fill="black" stroke="black" points="3893.06,-217.71 3902.91,-213.8 3892.78,-210.72 3893.06,-217.71"/>
</g>
<!-- b20 -->
<g id="node21" class="node">
<title>b20</title>
<polygon fill="orange" stroke="black" points="4625,-222.5 4294,-222.5 4294,-159.5 4625,-159.5 4625,-222.5"/>
<text text-anchor="middle" x="4459.5" y="-210.5" font-family="Helvetica" font-size="10.00">B20</text>
<text text-anchor="middle" x="4459.5" y="-199.5" font-family="Helvetica" font-size="10.00">Loop: L4</text>
<text text-anchor="middle" x="4459.5" y="-188.5" font-family="Helvetica" font-size="10.00">&#45;&#45;&#45;</text>
<text text-anchor="middle" x="4459.5" y="-177.5" font-family="Helvetica" font-size="10.00">HotSpotMethod&lt;LoopBenchmarks.main(String[])&gt;</text>
<text text-anchor="middle" x="4459.5" y="-166.5" font-family="Helvetica" font-size="10.00">HotSpotMethod&lt;LoopBenchmarks.mandelbrotLoop(double, double, int)&gt;</text>
</g>
<!-- b19&#45;&gt;b20 -->
<g id="edge25" class="edge">
<title>b19&#45;&gt;b20</title>
<path fill="none" stroke="black" d="M4138.03,-204.2C4182.74,-202.36 4234.79,-200.21 4283.78,-198.2"/>
<polygon fill="black" stroke="black" points="4284.01,-201.69 4293.85,-197.78 4283.72,-194.7 4284.01,-201.69"/>
</g>
<!-- b25 -->
<g id="node26" class="node">
<title>b25</title>
<polygon fill="gold" stroke="black" points="4577,-52 4342,-52 4342,0 4577,0 4577,-52"/>
<text text-anchor="middle" x="4459.5" y="-40" font-family="Helvetica" font-size="10.00">B25</text>
<text text-anchor="middle" x="4459.5" y="-29" font-family="Helvetica" font-size="10.00">Loop: L3</text>
<text text-anchor="middle" x="4459.5" y="-18" font-family="Helvetica" font-size="10.00">&#45;&#45;&#45;</text>
<text text-anchor="middle" x="4459.5" y="-7" font-family="Helvetica" font-size="10.00">HotSpotMethod&lt;LoopBenchmarks.main(String[])&gt;</text>
</g>
<!-- b19&#45;&gt;b25 -->
<g id="edge26" class="edge">
<title>b19&#45;&gt;b25</title>
<path fill="none" stroke="black" d="M4083.65,-182.97C4163.71,-149.45 4302.59,-91.29 4386.96,-55.96"/>
<polygon fill="black" stroke="black" points="4388.34,-59.17 4396.21,-52.08 4385.64,-52.72 4388.34,-59.17"/>
</g>
<!-- b21 -->
<g id="node22" class="node">
<title>b21</title>
<polygon fill="violet" stroke="black" points="5064,-186 4733,-186 4733,-134 5064,-134 5064,-186"/>
<text text-anchor="middle" x="4898.5" y="-174" font-family="Helvetica" font-size="10.00">B21</text>
<text text-anchor="middle" x="4898.5" y="-163" font-family="Helvetica" font-size="10.00">Loop: L5</text>
<text text-anchor="middle" x="4898.5" y="-152" font-family="Helvetica" font-size="10.00">&#45;&#45;&#45;</text>
<text text-anchor="middle" x="4898.5" y="-141" font-family="Helvetica" font-size="10.00">HotSpotMethod&lt;LoopBenchmarks.mandelbrotLoop(double, double, int)&gt;</text>
</g>
<!-- b20&#45;&gt;b21 -->
<g id="edge27" class="edge">
<title>b20&#45;&gt;b21</title>
<path fill="none" stroke="black" d="M4625.09,-179.32C4656.85,-177.07 4690.24,-174.7 4722.33,-172.43"/>
<polygon fill="black" stroke="black" points="4722.97,-175.89 4732.7,-171.69 4722.47,-168.91 4722.97,-175.89"/>
</g>
<!-- b22 -->
<g id="node23" class="node">
<title>b22</title>
<polygon fill="violet" stroke="black" points="5503,-254 5172,-254 5172,-202 5503,-202 5503,-254"/>
<text text-anchor="middle" x="5337.5" y="-242" font-family="Helvetica" font-size="10.00">B22</text>
<text text-anchor="middle" x="5337.5" y="-231" font-family="Helvetica" font-size="10.00">Loop: L5</text>
<text text-anchor="middle" x="5337.5" y="-220" font-family="Helvetica" font-size="10.00">&#45;&#45;&#45;</text>
<text text-anchor="middle" x="5337.5" y="-209" font-family="Helvetica" font-size="10.00">HotSpotMethod&lt;LoopBenchmarks.mandelbrotLoop(double, double, int)&gt;</text>
</g>
<!-- b21&#45;&gt;b22 -->
<g id="edge28" class="edge">
<title>b21&#45;&gt;b22</title>
<path fill="none" stroke="black" d="M5064.09,-185.61C5095.99,-190.58 5129.53,-195.79 5161.74,-200.81"/>
<polygon fill="black" stroke="black" points="5161.28,-204.28 5171.7,-202.36 5162.35,-197.36 5161.28,-204.28"/>
</g>
<!-- b26 -->
<g id="node27" class="node">
<title>b26</title>
<polygon fill="white" stroke="black" points="5503,-129.5 5172,-129.5 5172,-66.5 5503,-66.5 5503,-129.5"/>
<text text-anchor="middle" x="5337.5" y="-117.5" font-family="Helvetica" font-size="10.00">B26</text>
<text text-anchor="middle" x="5337.5" y="-106.5" font-family="Helvetica" font-size="10.00">Loop: &lt;none&gt;</text>
<text text-anchor="middle" x="5337.5" y="-95.5" font-family="Helvetica" font-size="10.00">&#45;&#45;&#45;</text>
<text text-anchor="middle" x="5337.5" y="-84.5" font-family="Helvetica" font-size="10.00">HotSpotMethod&lt;LoopBenchmarks.main(String[])&gt;</text>
<text text-anchor="middle" x="5337.5" y="-73.5" font-family="Helvetica" font-size="10.00">HotSpotMethod&lt;LoopBenchmarks.mandelbrotLoop(double, double, int)&gt;</text>
</g>
<!-- b21&#45;&gt;b26 -->
<g id="edge29" class="edge">
<title>b21&#45;&gt;b26</title>
<path fill="none" stroke="black" d="M5064.09,-136.65C5095.99,-132.12 5129.53,-127.36 5161.74,-122.79"/>
<polygon fill="black" stroke="black" points="5162.29,-126.25 5171.7,-121.38 5161.3,-119.32 5162.29,-126.25"/>
</g>
<!-- b23 -->
<g id="node24" class="node">
<title>b23</title>
<polygon fill="violet" stroke="black" points="5942,-121 5611,-121 5611,-69 5942,-69 5942,-121"/>
<text text-anchor="middle" x="5776.5" y="-109" font-family="Helvetica" font-size="10.00">B23</text>
<text text-anchor="middle" x="5776.5" y="-98" font-family="Helvetica" font-size="10.00">Loop: L5</text>
<text text-anchor="middle" x="5776.5" y="-87" font-family="Helvetica" font-size="10.00">&#45;&#45;&#45;</text>
<text text-anchor="middle" x="5776.5" y="-76" font-family="Helvetica" font-size="10.00">HotSpotMethod&lt;LoopBenchmarks.mandelbrotLoop(double, double, int)&gt;</text>
</g>
<!-- b22&#45;&gt;b23 -->
<g id="edge30" class="edge">
<title>b22&#45;&gt;b23</title>
<path fill="none" stroke="black" d="M5424.06,-201.96C5497.69,-179.55 5603.81,-147.25 5680.15,-124.02"/>
<polygon fill="black" stroke="black" points="5681.23,-127.35 5689.78,-121.09 5679.19,-120.65 5681.23,-127.35"/>
</g>
<!-- b24 -->
<g id="node25" class="node">
<title>b24</title>
<polygon fill="orange" stroke="black" points="5942,-326.5 5611,-326.5 5611,-263.5 5942,-263.5 5942,-326.5"/>
<text text-anchor="middle" x="5776.5" y="-314.5" font-family="Helvetica" font-size="10.00">B24</text>
<text text-anchor="middle" x="5776.5" y="-303.5" font-family="Helvetica" font-size="10.00">Loop: L4</text>
<text text-anchor="middle" x="5776.5" y="-292.5" font-family="Helvetica" font-size="10.00">&#45;&#45;&#45;</text>
<text text-anchor="middle" x="5776.5" y="-281.5" font-family="Helvetica" font-size="10.00">HotSpotMethod&lt;LoopBenchmarks.mandelbrotLoop(double, double, int)&gt;</text>
<text text-anchor="middle" x="5776.5" y="-270.5" font-family="Helvetica" font-size="10.00">HotSpotMethod&lt;LoopBenchmarks.main(String[])&gt;</text>
</g>
<!-- b22&#45;&gt;b24 -->
<g id="edge31" class="edge">
<title>b22&#45;&gt;b24</title>
<path fill="none" stroke="black" d="M5503.09,-253.23C5534.99,-258.13 5568.53,-263.27 5600.74,-268.21"/>
<polygon fill="black" stroke="black" points="5600.28,-271.68 5610.7,-269.73 5601.34,-264.76 5600.28,-271.68"/>
</g>
<!-- b23&#45;&gt;b21 -->
<g id="edge32" class="edge">
<title>b23&#45;&gt;b21</title>
<path fill="none" stroke="black" d="M5692.02,-68.9C5574.63,-36.06 5354.69,11.35 5172,-30 5088.63,-48.87 5000.91,-96.44 4948.2,-128.5"/>
<polygon fill="black" stroke="black" points="4946.1,-125.68 4939.41,-133.9 4949.77,-131.65 4946.1,-125.68"/>
</g>
<!-- b24&#45;&gt;b19 -->
<g id="edge33" class="edge">
<title>b24&#45;&gt;b19</title>
<path fill="none" stroke="black" d="M5610.76,-300C5336.62,-306.31 4769.89,-310.78 4294,-259 4246.11,-253.79 4193.99,-245 4148.27,-236.24"/>
<polygon fill="black" stroke="black" points="4148.8,-232.77 4138.31,-234.31 4147.46,-239.65 4148.8,-232.77"/>
</g>
<!-- b25&#45;&gt;b17 -->
<g id="edge34" class="edge">
<title>b25&#45;&gt;b17</title>
<path fill="none" stroke="black" d="M4341.73,-16.43C4148.24,-2.79 3749.4,15.95 3416,-29 3351.86,-37.65 3281.39,-57.06 3228.19,-73.83"/>
<polygon fill="black" stroke="black" points="3226.93,-70.56 3218.46,-76.93 3229.05,-77.23 3226.93,-70.56"/>
</g>
</g>
</svg>
