<?xml version="1.0" encoding="UTF-8" standalone="no"?>
<!DOCTYPE svg PUBLIC "-//W3C//DTD SVG 1.1//EN"
 "http://www.w3.org/Graphics/SVG/1.1/DTD/svg11.dtd">
<!-- Generated by graphviz version 2.44.0 (0)
 -->
<!-- Title: CFG_98 Pages: 1 -->
<svg width="6547pt" height="1242pt"
 viewBox="0.00 0.00 6547.00 1242.00" xmlns="http://www.w3.org/2000/svg" xmlns:xlink="http://www.w3.org/1999/xlink">
<g id="graph0" class="graph" transform="scale(1 1) rotate(0) translate(4 1238)">
<title>CFG_98</title>
<polygon fill="white" stroke="transparent" points="-4,4 -4,-1238 6543,-1238 6543,4 -4,4"/>
<text text-anchor="middle" x="242.5" y="-1214" font-family="Times-Roman" font-size="20.00">155&#45;LoopBenchmarks.sieveLoop(boolean[], int)</text>
<!-- b0 -->
<g id="node1" class="node">
<title>b0</title>
<polygon fill="white" stroke="black" points="283,-1136 0,-1136 0,-1084 283,-1084 283,-1136"/>
<text text-anchor="middle" x="141.5" y="-1124" font-family="Helvetica" font-size="10.00">B0</text>
<text text-anchor="middle" x="141.5" y="-1113" font-family="Helvetica" font-size="10.00">Loop: &lt;none&gt;</text>
<text text-anchor="middle" x="141.5" y="-1102" font-family="Helvetica" font-size="10.00">&#45;&#45;&#45;</text>
<text text-anchor="middle" x="141.5" y="-1091" font-family="Helvetica" font-size="10.00">HotSpotMethod&lt;LoopBenchmarks.sieveLoop(boolean[], int)&gt;</text>
</g>
<!-- b1 -->
<g id="node2" class="node">
<title>b1</title>
<polygon fill="white" stroke="black" points="674,-1198 391,-1198 391,-1146 674,-1146 674,-1198"/>
<text text-anchor="middle" x="532.5" y="-1186" font-family="Helvetica" font-size="10.00">B1</text>
<text text-anchor="middle" x="532.5" y="-1175" font-family="Helvetica" font-size="10.00">Loop: &lt;none&gt;</text>
<text text-anchor="middle" x="532.5" y="-1164" font-family="Helvetica" font-size="10.00">&#45;&#45;&#45;</text>
<text text-anchor="middle" x="532.5" y="-1153" font-family="Helvetica" font-size="10.00">HotSpotMethod&lt;LoopBenchmarks.sieveLoop(boolean[], int)&gt;</text>
</g>
<!-- b0&#45;&gt;b1 -->
<g id="edge1" class="edge">
<title>b0&#45;&gt;b1</title>
<path fill="none" stroke="black" d="M283.21,-1132.43C314.95,-1137.49 348.76,-1142.88 380.89,-1148"/>
<polygon fill="black" stroke="black" points="380.38,-1151.46 390.8,-1149.58 381.48,-1144.54 380.38,-1151.46"/>
</g>
<!-- b2 -->
<g id="node3" class="node">
<title>b2</title>
<polygon fill="white" stroke="black" points="674,-1074 391,-1074 391,-1022 674,-1022 674,-1074"/>
<text text-anchor="middle" x="532.5" y="-1062" font-family="Helvetica" font-size="10.00">B2</text>
<text text-anchor="middle" x="532.5" y="-1051" font-family="Helvetica" font-size="10.00">Loop: &lt;none&gt;</text>
<text text-anchor="middle" x="532.5" y="-1040" font-family="Helvetica" font-size="10.00">&#45;&#45;&#45;</text>
<text text-anchor="middle" x="532.5" y="-1029" font-family="Helvetica" font-size="10.00">HotSpotMethod&lt;LoopBenchmarks.sieveLoop(boolean[], int)&gt;</text>
</g>
<!-- b0&#45;&gt;b2 -->
<g id="edge2" class="edge">
<title>b0&#45;&gt;b2</title>
<path fill="none" stroke="black" d="M283.21,-1087.57C314.95,-1082.51 348.76,-1077.12 380.89,-1072"/>
<polygon fill="black" stroke="black" points="381.48,-1075.46 390.8,-1070.42 380.38,-1068.54 381.48,-1075.46"/>
</g>
<!-- b3 -->
<g id="node4" class="node">
<title>b3</title>
<polygon fill="white" stroke="black" points="1065,-1136 782,-1136 782,-1084 1065,-1084 1065,-1136"/>
<text text-anchor="middle" x="923.5" y="-1124" font-family="Helvetica" font-size="10.00">B3</text>
<text text-anchor="middle" x="923.5" y="-1113" font-family="Helvetica" font-size="10.00">Loop: &lt;none&gt;</text>
<text text-anchor="middle" x="923.5" y="-1102" font-family="Helvetica" font-size="10.00">&#45;&#45;&#45;</text>
<text text-anchor="middle" x="923.5" y="-1091" font-family="Helvetica" font-size="10.00">HotSpotMethod&lt;LoopBenchmarks.sieveLoop(boolean[], int)&gt;</text>
</g>
<!-- b1&#45;&gt;b3 -->
<g id="edge3" class="edge">
<title>b1&#45;&gt;b3</title>
<path fill="none" stroke="black" d="M674.21,-1149.57C705.95,-1144.51 739.76,-1139.12 771.89,-1134"/>
<polygon fill="black" stroke="black" points="772.48,-1137.46 781.8,-1132.42 771.38,-1130.54 772.48,-1137.46"/>
</g>
<!-- b2&#45;&gt;b3 -->
<g id="edge4" class="edge">
<title>b2&#45;&gt;b3</title>
<path fill="none" stroke="black" d="M674.21,-1070.43C705.95,-1075.49 739.76,-1080.88 771.89,-1086"/>
<polygon fill="black" stroke="black" points="771.38,-1089.46 781.8,-1087.58 772.48,-1082.54 771.38,-1089.46"/>
</g>
<!-- b5 -->
<g id="node6" class="node">
<title>b5</title>
<polygon fill="white" stroke="black" points="1456,-1204 1173,-1204 1173,-1152 1456,-1152 1456,-1204"/>
<text text-anchor="middle" x="1314.5" y="-1192" font-family="Helvetica" font-size="10.00">B5</text>
<text text-anchor="middle" x="1314.5" y="-1181" font-family="Helvetica" font-size="10.00">Loop: &lt;none&gt;</text>
<text text-anchor="middle" x="1314.5" y="-1170" font-family="Helvetica" font-size="10.00">&#45;&#45;&#45;</text>
<text text-anchor="middle" x="1314.5" y="-1159" font-family="Helvetica" font-size="10.00">HotSpotMethod&lt;LoopBenchmarks.sieveLoop(boolean[], int)&gt;</text>
</g>
<!-- b3&#45;&gt;b5 -->
<g id="edge6" class="edge">
<title>b3&#45;&gt;b5</title>
<path fill="none" stroke="black" d="M1065.21,-1134.6C1096.95,-1140.15 1130.76,-1146.06 1162.89,-1151.67"/>
<polygon fill="black" stroke="black" points="1162.35,-1155.13 1172.8,-1153.41 1163.56,-1148.24 1162.35,-1155.13"/>
</g>
<!-- b7 -->
<g id="node8" class="node">
<title>b7</title>
<polygon fill="white" stroke="black" points="1847,-993 1564,-993 1564,-941 1847,-941 1847,-993"/>
<text text-anchor="middle" x="1705.5" y="-981" font-family="Helvetica" font-size="10.00">B7</text>
<text text-anchor="middle" x="1705.5" y="-970" font-family="Helvetica" font-size="10.00">Loop: &lt;none&gt;</text>
<text text-anchor="middle" x="1705.5" y="-959" font-family="Helvetica" font-size="10.00">&#45;&#45;&#45;</text>
<text text-anchor="middle" x="1705.5" y="-948" font-family="Helvetica" font-size="10.00">HotSpotMethod&lt;LoopBenchmarks.sieveLoop(boolean[], int)&gt;</text>
</g>
<!-- b3&#45;&gt;b7 -->
<g id="edge5" class="edge">
<title>b3&#45;&gt;b7</title>
<path fill="none" stroke="black" d="M1065.3,-1084.19C1203.18,-1058.91 1412.56,-1020.52 1553.76,-994.64"/>
<polygon fill="black" stroke="black" points="1554.6,-998.04 1563.8,-992.79 1553.34,-991.16 1554.6,-998.04"/>
</g>
<!-- b4 -->
<g id="node5" class="node">
<title>b4</title>
<polygon fill="white" stroke="black" points="1456,-934 1173,-934 1173,-882 1456,-882 1456,-934"/>
<text text-anchor="middle" x="1314.5" y="-922" font-family="Helvetica" font-size="10.00">B4</text>
<text text-anchor="middle" x="1314.5" y="-911" font-family="Helvetica" font-size="10.00">Loop: &lt;none&gt;</text>
<text text-anchor="middle" x="1314.5" y="-900" font-family="Helvetica" font-size="10.00">&#45;&#45;&#45;</text>
<text text-anchor="middle" x="1314.5" y="-889" font-family="Helvetica" font-size="10.00">HotSpotMethod&lt;LoopBenchmarks.sieveLoop(boolean[], int)&gt;</text>
</g>
<!-- b4&#45;&gt;b7 -->
<g id="edge7" class="edge">
<title>b4&#45;&gt;b7</title>
<path fill="none" stroke="black" d="M1456.21,-929.34C1487.95,-934.16 1521.76,-939.28 1553.89,-944.16"/>
<polygon fill="black" stroke="black" points="1553.39,-947.62 1563.8,-945.66 1554.44,-940.7 1553.39,-947.62"/>
</g>
<!-- b5&#45;&gt;b7 -->
<g id="edge8" class="edge">
<title>b5&#45;&gt;b7</title>
<path fill="none" stroke="black" d="M1363.59,-1151.92C1435.47,-1112.92 1570.68,-1039.58 1647.46,-997.94"/>
<polygon fill="black" stroke="black" points="1649.4,-1000.87 1656.52,-993.02 1646.06,-994.72 1649.4,-1000.87"/>
</g>
<!-- b33 -->
<g id="node34" class="node">
<title>b33</title>
<polygon fill="white" stroke="black" points="1847,-1204 1564,-1204 1564,-1152 1847,-1152 1847,-1204"/>
<text text-anchor="middle" x="1705.5" y="-1192" font-family="Helvetica" font-size="10.00">B33</text>
<text text-anchor="middle" x="1705.5" y="-1181" font-family="Helvetica" font-size="10.00">Loop: &lt;none&gt;</text>
<text text-anchor="middle" x="1705.5" y="-1170" font-family="Helvetica" font-size="10.00">&#45;&#45;&#45;</text>
<text text-anchor="middle" x="1705.5" y="-1159" font-family="Helvetica" font-size="10.00">HotSpotMethod&lt;LoopBenchmarks.sieveLoop(boolean[], int)&gt;</text>
</g>
<!-- b5&#45;&gt;b33 -->
<g id="edge9" class="edge">
<title>b5&#45;&gt;b33</title>
<path fill="none" stroke="black" d="M1456.21,-1178C1487.81,-1178 1521.47,-1178 1553.48,-1178"/>
<polygon fill="black" stroke="black" points="1553.8,-1181.5 1563.8,-1178 1553.8,-1174.5 1553.8,-1181.5"/>
</g>
<!-- b6 -->
<g id="node7" class="node">
<title>b6</title>
<polygon fill="white" stroke="black" points="1456,-810 1173,-810 1173,-758 1456,-758 1456,-810"/>
<text text-anchor="middle" x="1314.5" y="-798" font-family="Helvetica" font-size="10.00">B6</text>
<text text-anchor="middle" x="1314.5" y="-787" font-family="Helvetica" font-size="10.00">Loop: &lt;none&gt;</text>
<text text-anchor="middle" x="1314.5" y="-776" font-family="Helvetica" font-size="10.00">&#45;&#45;&#45;</text>
<text text-anchor="middle" x="1314.5" y="-765" font-family="Helvetica" font-size="10.00">HotSpotMethod&lt;LoopBenchmarks.sieveLoop(boolean[], int)&gt;</text>
</g>
<!-- b6&#45;&gt;b7 -->
<g id="edge10" class="edge">
<title>b6&#45;&gt;b7</title>
<path fill="none" stroke="black" d="M1375.89,-810.06C1400.79,-820.95 1429.88,-833.88 1456,-846 1520.34,-875.85 1593.22,-911.56 1643.33,-936.42"/>
<polygon fill="black" stroke="black" points="1641.9,-939.62 1652.41,-940.93 1645.01,-933.35 1641.9,-939.62"/>
</g>
<!-- b8 -->
<g id="node9" class="node">
<title>b8</title>
<polygon fill="white" stroke="black" points="2238,-923 1955,-923 1955,-871 2238,-871 2238,-923"/>
<text text-anchor="middle" x="2096.5" y="-911" font-family="Helvetica" font-size="10.00">B8</text>
<text text-anchor="middle" x="2096.5" y="-900" font-family="Helvetica" font-size="10.00">Loop: &lt;none&gt;</text>
<text text-anchor="middle" x="2096.5" y="-889" font-family="Helvetica" font-size="10.00">&#45;&#45;&#45;</text>
<text text-anchor="middle" x="2096.5" y="-878" font-family="Helvetica" font-size="10.00">HotSpotMethod&lt;LoopBenchmarks.sieveLoop(boolean[], int)&gt;</text>
</g>
<!-- b7&#45;&gt;b8 -->
<g id="edge11" class="edge">
<title>b7&#45;&gt;b8</title>
<path fill="none" stroke="black" d="M1847.21,-941.68C1878.95,-935.97 1912.76,-929.88 1944.89,-924.1"/>
<polygon fill="black" stroke="black" points="1945.58,-927.53 1954.8,-922.32 1944.34,-920.64 1945.58,-927.53"/>
</g>
<!-- b32 -->
<g id="node33" class="node">
<title>b32</title>
<polygon fill="white" stroke="black" points="2238,-1052 1955,-1052 1955,-1000 2238,-1000 2238,-1052"/>
<text text-anchor="middle" x="2096.5" y="-1040" font-family="Helvetica" font-size="10.00">B32</text>
<text text-anchor="middle" x="2096.5" y="-1029" font-family="Helvetica" font-size="10.00">Loop: &lt;none&gt;</text>
<text text-anchor="middle" x="2096.5" y="-1018" font-family="Helvetica" font-size="10.00">&#45;&#45;&#45;</text>
<text text-anchor="middle" x="2096.5" y="-1007" font-family="Helvetica" font-size="10.00">HotSpotMethod&lt;LoopBenchmarks.sieveLoop(boolean[], int)&gt;</text>
</g>
<!-- b7&#45;&gt;b32 -->
<g id="edge12" class="edge">
<title>b7&#45;&gt;b32</title>
<path fill="none" stroke="black" d="M1847.21,-988.34C1878.95,-993.16 1912.76,-998.28 1944.89,-1003.16"/>
<polygon fill="black" stroke="black" points="1944.39,-1006.62 1954.8,-1004.66 1945.44,-999.7 1944.39,-1006.62"/>
</g>
<!-- b9 -->
<g id="node10" class="node">
<title>b9</title>
<polygon fill="white" stroke="black" points="2629,-799 2346,-799 2346,-747 2629,-747 2629,-799"/>
<text text-anchor="middle" x="2487.5" y="-787" font-family="Helvetica" font-size="10.00">B9</text>
<text text-anchor="middle" x="2487.5" y="-776" font-family="Helvetica" font-size="10.00">Loop: &lt;none&gt;</text>
<text text-anchor="middle" x="2487.5" y="-765" font-family="Helvetica" font-size="10.00">&#45;&#45;&#45;</text>
<text text-anchor="middle" x="2487.5" y="-754" font-family="Helvetica" font-size="10.00">HotSpotMethod&lt;LoopBenchmarks.sieveLoop(boolean[], int)&gt;</text>
</g>
<!-- b8&#45;&gt;b9 -->
<g id="edge13" class="edge">
<title>b8&#45;&gt;b9</title>
<path fill="none" stroke="black" d="M2179.52,-870.85C2242.6,-850.75 2329.72,-822.98 2395.04,-802.15"/>
<polygon fill="black" stroke="black" points="2396.46,-805.38 2404.92,-799 2394.33,-798.71 2396.46,-805.38"/>
</g>
<!-- b31 -->
<g id="node32" class="node">
<title>b31</title>
<polygon fill="white" stroke="black" points="2629,-923 2346,-923 2346,-871 2629,-871 2629,-923"/>
<text text-anchor="middle" x="2487.5" y="-911" font-family="Helvetica" font-size="10.00">B31</text>
<text text-anchor="middle" x="2487.5" y="-900" font-family="Helvetica" font-size="10.00">Loop: &lt;none&gt;</text>
<text text-anchor="middle" x="2487.5" y="-889" font-family="Helvetica" font-size="10.00">&#45;&#45;&#45;</text>
<text text-anchor="middle" x="2487.5" y="-878" font-family="Helvetica" font-size="10.00">HotSpotMethod&lt;LoopBenchmarks.sieveLoop(boolean[], int)&gt;</text>
</g>
<!-- b8&#45;&gt;b31 -->
<g id="edge14" class="edge">
<title>b8&#45;&gt;b31</title>
<path fill="none" stroke="black" d="M2238.21,-897C2269.81,-897 2303.47,-897 2335.48,-897"/>
<polygon fill="black" stroke="black" points="2335.8,-900.5 2345.8,-897 2335.8,-893.5 2335.8,-900.5"/>
</g>
<!-- b10 -->
<g id="node11" class="node">
<title>b10</title>
<polygon fill="white" stroke="black" points="3020,-708 2737,-708 2737,-656 3020,-656 3020,-708"/>
<text text-anchor="middle" x="2878.5" y="-696" font-family="Helvetica" font-size="10.00">B10</text>
<text text-anchor="middle" x="2878.5" y="-685" font-family="Helvetica" font-size="10.00">Loop: &lt;none&gt;</text>
<text text-anchor="middle" x="2878.5" y="-674" font-family="Helvetica" font-size="10.00">&#45;&#45;&#45;</text>
<text text-anchor="middle" x="2878.5" y="-663" font-family="Helvetica" font-size="10.00">HotSpotMethod&lt;LoopBenchmarks.sieveLoop(boolean[], int)&gt;</text>
</g>
<!-- b9&#45;&gt;b10 -->
<g id="edge15" class="edge">
<title>b9&#45;&gt;b10</title>
<path fill="none" stroke="black" d="M2599.71,-746.98C2648.65,-735.53 2706.27,-722.06 2756.31,-710.35"/>
<polygon fill="black" stroke="black" points="2757.27,-713.72 2766.21,-708.04 2755.67,-706.91 2757.27,-713.72"/>
</g>
<!-- b29 -->
<g id="node30" class="node">
<title>b29</title>
<polygon fill="white" stroke="black" points="3411,-934 3128,-934 3128,-882 3411,-882 3411,-934"/>
<text text-anchor="middle" x="3269.5" y="-922" font-family="Helvetica" font-size="10.00">B29</text>
<text text-anchor="middle" x="3269.5" y="-911" font-family="Helvetica" font-size="10.00">Loop: &lt;none&gt;</text>
<text text-anchor="middle" x="3269.5" y="-900" font-family="Helvetica" font-size="10.00">&#45;&#45;&#45;</text>
<text text-anchor="middle" x="3269.5" y="-889" font-family="Helvetica" font-size="10.00">HotSpotMethod&lt;LoopBenchmarks.sieveLoop(boolean[], int)&gt;</text>
</g>
<!-- b9&#45;&gt;b29 -->
<g id="edge16" class="edge">
<title>b9&#45;&gt;b29</title>
<path fill="none" stroke="black" d="M2629.3,-797.37C2767.18,-821.23 2976.56,-857.47 3117.76,-881.91"/>
<polygon fill="black" stroke="black" points="3117.35,-885.39 3127.8,-883.65 3118.55,-878.49 3117.35,-885.39"/>
</g>
<!-- b11 -->
<g id="node12" class="node">
<title>b11</title>
<polygon fill="white" stroke="black" points="3411,-708 3128,-708 3128,-656 3411,-656 3411,-708"/>
<text text-anchor="middle" x="3269.5" y="-696" font-family="Helvetica" font-size="10.00">B11</text>
<text text-anchor="middle" x="3269.5" y="-685" font-family="Helvetica" font-size="10.00">Loop: &lt;none&gt;</text>
<text text-anchor="middle" x="3269.5" y="-674" font-family="Helvetica" font-size="10.00">&#45;&#45;&#45;</text>
<text text-anchor="middle" x="3269.5" y="-663" font-family="Helvetica" font-size="10.00">HotSpotMethod&lt;LoopBenchmarks.sieveLoop(boolean[], int)&gt;</text>
</g>
<!-- b10&#45;&gt;b11 -->
<g id="edge17" class="edge">
<title>b10&#45;&gt;b11</title>
<path fill="none" stroke="black" d="M3020.21,-682C3051.81,-682 3085.47,-682 3117.48,-682"/>
<polygon fill="black" stroke="black" points="3117.8,-685.5 3127.8,-682 3117.8,-678.5 3117.8,-685.5"/>
</g>
<!-- b17 -->
<g id="node18" class="node">
<title>b17</title>
<polygon fill="white" stroke="black" points="4193,-480 3910,-480 3910,-428 4193,-428 4193,-480"/>
<text text-anchor="middle" x="4051.5" y="-468" font-family="Helvetica" font-size="10.00">B17</text>
<text text-anchor="middle" x="4051.5" y="-457" font-family="Helvetica" font-size="10.00">Loop: &lt;none&gt;</text>
<text text-anchor="middle" x="4051.5" y="-446" font-family="Helvetica" font-size="10.00">&#45;&#45;&#45;</text>
<text text-anchor="middle" x="4051.5" y="-435" font-family="Helvetica" font-size="10.00">HotSpotMethod&lt;LoopBenchmarks.sieveLoop(boolean[], int)&gt;</text>
</g>
<!-- b10&#45;&gt;b17 -->
<g id="edge18" class="edge">
<title>b10&#45;&gt;b17</title>
<path fill="none" stroke="black" d="M2977.41,-655.98C3023.02,-644.26 3078.11,-630.7 3128,-620 3398.48,-561.99 3716.53,-507.82 3899.69,-477.98"/>
<polygon fill="black" stroke="black" points="3900.36,-481.41 3909.66,-476.35 3899.23,-474.5 3900.36,-481.41"/>
</g>
<!-- b12 -->
<g id="node13" class="node">
<title>b12</title>
<polygon fill="white" stroke="black" points="3802,-672 3519,-672 3519,-620 3802,-620 3802,-672"/>
<text text-anchor="middle" x="3660.5" y="-660" font-family="Helvetica" font-size="10.00">B12</text>
<text text-anchor="middle" x="3660.5" y="-649" font-family="Helvetica" font-size="10.00">Loop: &lt;none&gt;</text>
<text text-anchor="middle" x="3660.5" y="-638" font-family="Helvetica" font-size="10.00">&#45;&#45;&#45;</text>
<text text-anchor="middle" x="3660.5" y="-627" font-family="Helvetica" font-size="10.00">HotSpotMethod&lt;LoopBenchmarks.sieveLoop(boolean[], int)&gt;</text>
</g>
<!-- b11&#45;&gt;b12 -->
<g id="edge19" class="edge">
<title>b11&#45;&gt;b12</title>
<path fill="none" stroke="black" d="M3411.21,-668.98C3442.81,-666.05 3476.47,-662.94 3508.48,-659.98"/>
<polygon fill="black" stroke="black" points="3509.17,-663.43 3518.8,-659.02 3508.52,-656.46 3509.17,-663.43"/>
</g>
<!-- b15 -->
<g id="node16" class="node">
<title>b15</title>
<polygon fill="white" stroke="black" points="4193,-807 3910,-807 3910,-755 4193,-755 4193,-807"/>
<text text-anchor="middle" x="4051.5" y="-795" font-family="Helvetica" font-size="10.00">B15</text>
<text text-anchor="middle" x="4051.5" y="-784" font-family="Helvetica" font-size="10.00">Loop: &lt;none&gt;</text>
<text text-anchor="middle" x="4051.5" y="-773" font-family="Helvetica" font-size="10.00">&#45;&#45;&#45;</text>
<text text-anchor="middle" x="4051.5" y="-762" font-family="Helvetica" font-size="10.00">HotSpotMethod&lt;LoopBenchmarks.sieveLoop(boolean[], int)&gt;</text>
</g>
<!-- b11&#45;&gt;b15 -->
<g id="edge20" class="edge">
<title>b11&#45;&gt;b15</title>
<path fill="none" stroke="black" d="M3411.3,-699.87C3549.18,-717.37 3758.56,-743.95 3899.76,-761.87"/>
<polygon fill="black" stroke="black" points="3899.44,-765.36 3909.8,-763.14 3900.32,-758.41 3899.44,-765.36"/>
</g>
<!-- b14 -->
<g id="node15" class="node">
<title>b14</title>
<polygon fill="white" stroke="black" points="4584,-672 4301,-672 4301,-620 4584,-620 4584,-672"/>
<text text-anchor="middle" x="4442.5" y="-660" font-family="Helvetica" font-size="10.00">B14</text>
<text text-anchor="middle" x="4442.5" y="-649" font-family="Helvetica" font-size="10.00">Loop: &lt;none&gt;</text>
<text text-anchor="middle" x="4442.5" y="-638" font-family="Helvetica" font-size="10.00">&#45;&#45;&#45;</text>
<text text-anchor="middle" x="4442.5" y="-627" font-family="Helvetica" font-size="10.00">HotSpotMethod&lt;LoopBenchmarks.sieveLoop(boolean[], int)&gt;</text>
</g>
<!-- b12&#45;&gt;b14 -->
<g id="edge22" class="edge">
<title>b12&#45;&gt;b14</title>
<path fill="none" stroke="black" d="M3802.3,-646C3940.18,-646 4149.56,-646 4290.76,-646"/>
<polygon fill="black" stroke="black" points="4290.8,-649.5 4300.8,-646 4290.8,-642.5 4290.8,-649.5"/>
</g>
<!-- b12&#45;&gt;b17 -->
<g id="edge21" class="edge">
<title>b12&#45;&gt;b17</title>
<path fill="none" stroke="black" d="M3714.37,-619.91C3785.83,-584.63 3913.01,-521.86 3988.77,-484.47"/>
<polygon fill="black" stroke="black" points="3990.33,-487.6 3997.75,-480.04 3987.23,-481.32 3990.33,-487.6"/>
</g>
<!-- b13 -->
<g id="node14" class="node">
<title>b13</title>
<polygon fill="white" stroke="black" points="3802,-402 3519,-402 3519,-350 3802,-350 3802,-402"/>
<text text-anchor="middle" x="3660.5" y="-390" font-family="Helvetica" font-size="10.00">B13</text>
<text text-anchor="middle" x="3660.5" y="-379" font-family="Helvetica" font-size="10.00">Loop: &lt;none&gt;</text>
<text text-anchor="middle" x="3660.5" y="-368" font-family="Helvetica" font-size="10.00">&#45;&#45;&#45;</text>
<text text-anchor="middle" x="3660.5" y="-357" font-family="Helvetica" font-size="10.00">HotSpotMethod&lt;LoopBenchmarks.sieveLoop(boolean[], int)&gt;</text>
</g>
<!-- b13&#45;&gt;b17 -->
<g id="edge23" class="edge">
<title>b13&#45;&gt;b17</title>
<path fill="none" stroke="black" d="M3791.3,-402.03C3829.7,-409.73 3871.89,-418.19 3910.87,-426"/>
<polygon fill="black" stroke="black" points="3910.22,-429.44 3920.71,-427.98 3911.59,-422.58 3910.22,-429.44"/>
</g>
<!-- b30 -->
<g id="node31" class="node">
<title>b30</title>
<polygon fill="white" stroke="black" points="4975,-739 4692,-739 4692,-687 4975,-687 4975,-739"/>
<text text-anchor="middle" x="4833.5" y="-727" font-family="Helvetica" font-size="10.00">B30</text>
<text text-anchor="middle" x="4833.5" y="-716" font-family="Helvetica" font-size="10.00">Loop: &lt;none&gt;</text>
<text text-anchor="middle" x="4833.5" y="-705" font-family="Helvetica" font-size="10.00">&#45;&#45;&#45;</text>
<text text-anchor="middle" x="4833.5" y="-694" font-family="Helvetica" font-size="10.00">HotSpotMethod&lt;LoopBenchmarks.sieveLoop(boolean[], int)&gt;</text>
</g>
<!-- b14&#45;&gt;b30 -->
<g id="edge24" class="edge">
<title>b14&#45;&gt;b30</title>
<path fill="none" stroke="black" d="M4584.21,-670.24C4615.95,-675.7 4649.76,-681.53 4681.89,-687.06"/>
<polygon fill="black" stroke="black" points="4681.35,-690.52 4691.8,-688.77 4682.54,-683.62 4681.35,-690.52"/>
</g>
<!-- b15&#45;&gt;b30 -->
<g id="edge25" class="edge">
<title>b15&#45;&gt;b30</title>
<path fill="none" stroke="black" d="M4193.3,-768.73C4331.18,-756.7 4540.56,-738.45 4681.76,-726.14"/>
<polygon fill="black" stroke="black" points="4682.14,-729.62 4691.8,-725.27 4681.54,-722.65 4682.14,-729.62"/>
</g>
<!-- b16 -->
<g id="node17" class="node">
<title>b16</title>
<polygon fill="white" stroke="black" points="3802,-278 3519,-278 3519,-226 3802,-226 3802,-278"/>
<text text-anchor="middle" x="3660.5" y="-266" font-family="Helvetica" font-size="10.00">B16</text>
<text text-anchor="middle" x="3660.5" y="-255" font-family="Helvetica" font-size="10.00">Loop: &lt;none&gt;</text>
<text text-anchor="middle" x="3660.5" y="-244" font-family="Helvetica" font-size="10.00">&#45;&#45;&#45;</text>
<text text-anchor="middle" x="3660.5" y="-233" font-family="Helvetica" font-size="10.00">HotSpotMethod&lt;LoopBenchmarks.sieveLoop(boolean[], int)&gt;</text>
</g>
<!-- b16&#45;&gt;b17 -->
<g id="edge26" class="edge">
<title>b16&#45;&gt;b17</title>
<path fill="none" stroke="black" d="M3724.01,-278.03C3748.57,-288.66 3776.85,-301.4 3802,-314 3871.33,-348.73 3948.83,-393.35 3998.56,-422.78"/>
<polygon fill="black" stroke="black" points="3996.82,-425.81 4007.21,-427.9 4000.39,-419.79 3996.82,-425.81"/>
</g>
<!-- b18 -->
<g id="node19" class="node">
<title>b18</title>
<polygon fill="white" stroke="black" points="4584,-424 4301,-424 4301,-372 4584,-372 4584,-424"/>
<text text-anchor="middle" x="4442.5" y="-412" font-family="Helvetica" font-size="10.00">B18</text>
<text text-anchor="middle" x="4442.5" y="-401" font-family="Helvetica" font-size="10.00">Loop: &lt;none&gt;</text>
<text text-anchor="middle" x="4442.5" y="-390" font-family="Helvetica" font-size="10.00">&#45;&#45;&#45;</text>
<text text-anchor="middle" x="4442.5" y="-379" font-family="Helvetica" font-size="10.00">HotSpotMethod&lt;LoopBenchmarks.sieveLoop(boolean[], int)&gt;</text>
</g>
<!-- b17&#45;&gt;b18 -->
<g id="edge27" class="edge">
<title>b17&#45;&gt;b18</title>
<path fill="none" stroke="black" d="M4193.21,-433.74C4224.95,-429.17 4258.76,-424.31 4290.89,-419.68"/>
<polygon fill="black" stroke="black" points="4291.4,-423.14 4300.8,-418.25 4290.41,-416.22 4291.4,-423.14"/>
</g>
<!-- b28 -->
<g id="node29" class="node">
<title>b28</title>
<polygon fill="white" stroke="black" points="4584,-548 4301,-548 4301,-496 4584,-496 4584,-548"/>
<text text-anchor="middle" x="4442.5" y="-536" font-family="Helvetica" font-size="10.00">B28</text>
<text text-anchor="middle" x="4442.5" y="-525" font-family="Helvetica" font-size="10.00">Loop: &lt;none&gt;</text>
<text text-anchor="middle" x="4442.5" y="-514" font-family="Helvetica" font-size="10.00">&#45;&#45;&#45;</text>
<text text-anchor="middle" x="4442.5" y="-503" font-family="Helvetica" font-size="10.00">HotSpotMethod&lt;LoopBenchmarks.sieveLoop(boolean[], int)&gt;</text>
</g>
<!-- b17&#45;&gt;b28 -->
<g id="edge28" class="edge">
<title>b17&#45;&gt;b28</title>
<path fill="none" stroke="black" d="M4193.21,-478.6C4224.95,-484.15 4258.76,-490.06 4290.89,-495.67"/>
<polygon fill="black" stroke="black" points="4290.35,-499.13 4300.8,-497.41 4291.56,-492.24 4290.35,-499.13"/>
</g>
<!-- b19 -->
<g id="node20" class="node">
<title>b19</title>
<polygon fill="lightblue" stroke="black" points="4975,-424 4692,-424 4692,-372 4975,-372 4975,-424"/>
<text text-anchor="middle" x="4833.5" y="-412" font-family="Helvetica" font-size="10.00">B19</text>
<text text-anchor="middle" x="4833.5" y="-401" font-family="Helvetica" font-size="10.00">Loop: L0</text>
<text text-anchor="middle" x="4833.5" y="-390" font-family="Helvetica" font-size="10.00">&#45;&#45;&#45;</text>
<text text-anchor="middle" x="4833.5" y="-379" font-family="Helvetica" font-size="10.00">HotSpotMethod&lt;LoopBenchmarks.sieveLoop(boolean[], int)&gt;</text>
</g>
<!-- b18&#45;&gt;b19 -->
<g id="edge29" class="edge">
<title>b18&#45;&gt;b19</title>
<path fill="none" stroke="black" d="M4584.21,-398C4615.81,-398 4649.47,-398 4681.48,-398"/>
<polygon fill="black" stroke="black" points="4681.8,-401.5 4691.8,-398 4681.8,-394.5 4681.8,-401.5"/>
</g>
<!-- b20 -->
<g id="node21" class="node">
<title>b20</title>
<polygon fill="lightblue" stroke="black" points="5366,-424 5083,-424 5083,-372 5366,-372 5366,-424"/>
<text text-anchor="middle" x="5224.5" y="-412" font-family="Helvetica" font-size="10.00">B20</text>
<text text-anchor="middle" x="5224.5" y="-401" font-family="Helvetica" font-size="10.00">Loop: L0</text>
<text text-anchor="middle" x="5224.5" y="-390" font-family="Helvetica" font-size="10.00">&#45;&#45;&#45;</text>
<text text-anchor="middle" x="5224.5" y="-379" font-family="Helvetica" font-size="10.00">HotSpotMethod&lt;LoopBenchmarks.sieveLoop(boolean[], int)&gt;</text>
</g>
<!-- b19&#45;&gt;b20 -->
<g id="edge30" class="edge">
<title>b19&#45;&gt;b20</title>
<path fill="none" stroke="black" d="M4973.56,-372C5006.18,-370.79 5041.06,-370.68 5074.1,-371.66"/>
<polygon fill="black" stroke="black" points="5074.18,-375.16 5084.29,-371.99 5074.42,-368.16 5074.18,-375.16"/>
</g>
<!-- b21 -->
<g id="node22" class="node">
<title>b21</title>
<polygon fill="white" stroke="black" points="5366,-300 5083,-300 5083,-248 5366,-248 5366,-300"/>
<text text-anchor="middle" x="5224.5" y="-288" font-family="Helvetica" font-size="10.00">B21</text>
<text text-anchor="middle" x="5224.5" y="-277" font-family="Helvetica" font-size="10.00">Loop: &lt;none&gt;</text>
<text text-anchor="middle" x="5224.5" y="-266" font-family="Helvetica" font-size="10.00">&#45;&#45;&#45;</text>
<text text-anchor="middle" x="5224.5" y="-255" font-family="Helvetica" font-size="10.00">HotSpotMethod&lt;LoopBenchmarks.sieveLoop(boolean[], int)&gt;</text>
</g>
<!-- b19&#45;&gt;b21 -->
<g id="edge31" class="edge">
<title>b19&#45;&gt;b21</title>
<path fill="none" stroke="black" d="M4916.52,-371.85C4979.6,-351.75 5066.72,-323.98 5132.04,-303.15"/>
<polygon fill="black" stroke="black" points="5133.46,-306.38 5141.92,-300 5131.33,-299.71 5133.46,-306.38"/>
</g>
<!-- b20&#45;&gt;b19 -->
<g id="edge32" class="edge">
<title>b20&#45;&gt;b19</title>
<path fill="none" stroke="black" d="M5084.29,-424.01C5051.67,-425.21 5016.79,-425.32 4983.75,-424.34"/>
<polygon fill="black" stroke="black" points="4983.68,-420.84 4973.56,-424 4983.44,-427.83 4983.68,-420.84"/>
</g>
<!-- b22 -->
<g id="node23" class="node">
<title>b22</title>
<polygon fill="lightgreen" stroke="black" points="5757,-300 5474,-300 5474,-248 5757,-248 5757,-300"/>
<text text-anchor="middle" x="5615.5" y="-288" font-family="Helvetica" font-size="10.00">B22</text>
<text text-anchor="middle" x="5615.5" y="-277" font-family="Helvetica" font-size="10.00">Loop: L1</text>
<text text-anchor="middle" x="5615.5" y="-266" font-family="Helvetica" font-size="10.00">&#45;&#45;&#45;</text>
<text text-anchor="middle" x="5615.5" y="-255" font-family="Helvetica" font-size="10.00">HotSpotMethod&lt;LoopBenchmarks.sieveLoop(boolean[], int)&gt;</text>
</g>
<!-- b21&#45;&gt;b22 -->
<g id="edge33" class="edge">
<title>b21&#45;&gt;b22</title>
<path fill="none" stroke="black" d="M5366.21,-274C5397.81,-274 5431.47,-274 5463.48,-274"/>
<polygon fill="black" stroke="black" points="5463.8,-277.5 5473.8,-274 5463.8,-270.5 5463.8,-277.5"/>
</g>
<!-- b23 -->
<g id="node24" class="node">
<title>b23</title>
<polygon fill="lightgreen" stroke="black" points="6148,-300 5865,-300 5865,-248 6148,-248 6148,-300"/>
<text text-anchor="middle" x="6006.5" y="-288" font-family="Helvetica" font-size="10.00">B23</text>
<text text-anchor="middle" x="6006.5" y="-277" font-family="Helvetica" font-size="10.00">Loop: L1</text>
<text text-anchor="middle" x="6006.5" y="-266" font-family="Helvetica" font-size="10.00">&#45;&#45;&#45;</text>
<text text-anchor="middle" x="6006.5" y="-255" font-family="Helvetica" font-size="10.00">HotSpotMethod&lt;LoopBenchmarks.sieveLoop(boolean[], int)&gt;</text>
</g>
<!-- b22&#45;&gt;b23 -->
<g id="edge34" class="edge">
<title>b22&#45;&gt;b23</title>
<path fill="none" stroke="black" d="M5755.56,-248C5788.18,-246.79 5823.06,-246.68 5856.1,-247.66"/>
<polygon fill="black" stroke="black" points="5856.18,-251.16 5866.29,-247.99 5856.42,-244.16 5856.18,-251.16"/>
</g>
<!-- b25 -->
<g id="node26" class="node">
<title>b25</title>
<polygon fill="lightpink" stroke="black" points="6148,-176 5865,-176 5865,-124 6148,-124 6148,-176"/>
<text text-anchor="middle" x="6006.5" y="-164" font-family="Helvetica" font-size="10.00">B25</text>
<text text-anchor="middle" x="6006.5" y="-153" font-family="Helvetica" font-size="10.00">Loop: L2</text>
<text text-anchor="middle" x="6006.5" y="-142" font-family="Helvetica" font-size="10.00">&#45;&#45;&#45;</text>
<text text-anchor="middle" x="6006.5" y="-131" font-family="Helvetica" font-size="10.00">HotSpotMethod&lt;LoopBenchmarks.sieveLoop(boolean[], int)&gt;</text>
</g>
<!-- b22&#45;&gt;b25 -->
<g id="edge35" class="edge">
<title>b22&#45;&gt;b25</title>
<path fill="none" stroke="black" d="M5698.52,-247.85C5761.6,-227.75 5848.72,-199.98 5914.04,-179.15"/>
<polygon fill="black" stroke="black" points="5915.46,-182.38 5923.92,-176 5913.33,-175.71 5915.46,-182.38"/>
</g>
<!-- b23&#45;&gt;b22 -->
<g id="edge36" class="edge">
<title>b23&#45;&gt;b22</title>
<path fill="none" stroke="black" d="M5866.29,-300.01C5833.67,-301.21 5798.79,-301.32 5765.75,-300.34"/>
<polygon fill="black" stroke="black" points="5765.68,-296.84 5755.56,-300 5765.44,-303.83 5765.68,-296.84"/>
</g>
<!-- b24 -->
<g id="node25" class="node">
<title>b24</title>
<polygon fill="white" stroke="black" points="5757,-176 5474,-176 5474,-124 5757,-124 5757,-176"/>
<text text-anchor="middle" x="5615.5" y="-164" font-family="Helvetica" font-size="10.00">B24</text>
<text text-anchor="middle" x="5615.5" y="-153" font-family="Helvetica" font-size="10.00">Loop: &lt;none&gt;</text>
<text text-anchor="middle" x="5615.5" y="-142" font-family="Helvetica" font-size="10.00">&#45;&#45;&#45;</text>
<text text-anchor="middle" x="5615.5" y="-131" font-family="Helvetica" font-size="10.00">HotSpotMethod&lt;LoopBenchmarks.sieveLoop(boolean[], int)&gt;</text>
</g>
<!-- b24&#45;&gt;b25 -->
<g id="edge37" class="edge">
<title>b24&#45;&gt;b25</title>
<path fill="none" stroke="black" d="M5757.21,-150C5788.81,-150 5822.47,-150 5854.48,-150"/>
<polygon fill="black" stroke="black" points="5854.8,-153.5 5864.8,-150 5854.8,-146.5 5854.8,-153.5"/>
</g>
<!-- b26 -->
<g id="node27" class="node">
<title>b26</title>
<polygon fill="lightpink" stroke="black" points="6539,-176 6256,-176 6256,-124 6539,-124 6539,-176"/>
<text text-anchor="middle" x="6397.5" y="-164" font-family="Helvetica" font-size="10.00">B26</text>
<text text-anchor="middle" x="6397.5" y="-153" font-family="Helvetica" font-size="10.00">Loop: L2</text>
<text text-anchor="middle" x="6397.5" y="-142" font-family="Helvetica" font-size="10.00">&#45;&#45;&#45;</text>
<text text-anchor="middle" x="6397.5" y="-131" font-family="Helvetica" font-size="10.00">HotSpotMethod&lt;LoopBenchmarks.sieveLoop(boolean[], int)&gt;</text>
</g>
<!-- b25&#45;&gt;b26 -->
<g id="edge38" class="edge">
<title>b25&#45;&gt;b26</title>
<path fill="none" stroke="black" d="M6146.56,-124C6179.18,-122.79 6214.06,-122.68 6247.1,-123.66"/>
<polygon fill="black" stroke="black" points="6247.18,-127.16 6257.29,-123.99 6247.42,-120.16 6247.18,-127.16"/>
</g>
<!-- b27 -->
<g id="node28" class="node">
<title>b27</title>
<polygon fill="white" stroke="black" points="6539,-52 6256,-52 6256,0 6539,0 6539,-52"/>
<text text-anchor="middle" x="6397.5" y="-40" font-family="Helvetica" font-size="10.00">B27</text>
<text text-anchor="middle" x="6397.5" y="-29" font-family="Helvetica" font-size="10.00">Loop: &lt;none&gt;</text>
<text text-anchor="middle" x="6397.5" y="-18" font-family="Helvetica" font-size="10.00">&#45;&#45;&#45;</text>
<text text-anchor="middle" x="6397.5" y="-7" font-family="Helvetica" font-size="10.00">HotSpotMethod&lt;LoopBenchmarks.sieveLoop(boolean[], int)&gt;</text>
</g>
<!-- b25&#45;&gt;b27 -->
<g id="edge39" class="edge">
<title>b25&#45;&gt;b27</title>
<path fill="none" stroke="black" d="M6089.52,-123.85C6152.6,-103.75 6239.72,-75.98 6305.04,-55.15"/>
<polygon fill="black" stroke="black" points="6306.46,-58.38 6314.92,-52 6304.33,-51.71 6306.46,-58.38"/>
</g>
<!-- b26&#45;&gt;b25 -->
<g id="edge40" class="edge">
<title>b26&#45;&gt;b25</title>
<path fill="none" stroke="black" d="M6257.29,-176.01C6224.67,-177.21 6189.79,-177.32 6156.75,-176.34"/>
<polygon fill="black" stroke="black" points="6156.68,-172.84 6146.56,-176 6156.44,-179.83 6156.68,-172.84"/>
</g>
<!-- b28&#45;&gt;b30 -->
<g id="edge41" class="edge">
<title>b28&#45;&gt;b30</title>
<path fill="none" stroke="black" d="M4504.74,-548.02C4529.51,-558.81 4558.28,-571.66 4584,-584 4650.43,-615.86 4725.31,-655.21 4775.34,-682.02"/>
<polygon fill="black" stroke="black" points="4773.92,-685.23 4784.39,-686.87 4777.23,-679.06 4773.92,-685.23"/>
</g>
<!-- b29&#45;&gt;b30 -->
<g id="edge42" class="edge">
<title>b29&#45;&gt;b30</title>
<path fill="none" stroke="black" d="M3411.02,-909.78C3653.53,-909.95 4164.94,-897.56 4584,-802 4646.23,-787.81 4714.3,-762.72 4763.43,-742.79"/>
<polygon fill="black" stroke="black" points="4764.76,-746.03 4772.69,-739 4762.11,-739.55 4764.76,-746.03"/>
</g>
<!-- b34 -->
<g id="node35" class="node">
<title>b34</title>
<polygon fill="white" stroke="black" points="3020,-1058 2737,-1058 2737,-1006 3020,-1006 3020,-1058"/>
<text text-anchor="middle" x="2878.5" y="-1046" font-family="Helvetica" font-size="10.00">B34</text>
<text text-anchor="middle" x="2878.5" y="-1035" font-family="Helvetica" font-size="10.00">Loop: &lt;none&gt;</text>
<text text-anchor="middle" x="2878.5" y="-1024" font-family="Helvetica" font-size="10.00">&#45;&#45;&#45;</text>
<text text-anchor="middle" x="2878.5" y="-1013" font-family="Helvetica" font-size="10.00">HotSpotMethod&lt;LoopBenchmarks.sieveLoop(boolean[], int)&gt;</text>
</g>
<!-- b31&#45;&gt;b34 -->
<g id="edge43" class="edge">
<title>b31&#45;&gt;b34</title>
<path fill="none" stroke="black" d="M2563.5,-923.03C2629.19,-945.82 2724.55,-978.92 2792.93,-1002.65"/>
<polygon fill="black" stroke="black" points="2791.8,-1005.96 2802.4,-1005.94 2794.1,-999.35 2791.8,-1005.96"/>
</g>
<!-- b32&#45;&gt;b34 -->
<g id="edge44" class="edge">
<title>b32&#45;&gt;b34</title>
<path fill="none" stroke="black" d="M2238.3,-1027.08C2376.18,-1028.14 2585.56,-1029.75 2726.76,-1030.84"/>
<polygon fill="black" stroke="black" points="2726.78,-1034.34 2736.8,-1030.92 2726.83,-1027.34 2726.78,-1034.34"/>
</g>
<!-- b33&#45;&gt;b34 -->
<g id="edge45" class="edge">
<title>b33&#45;&gt;b34</title>
<path fill="none" stroke="black" d="M1847.35,-1168.26C2028.79,-1154.65 2353.59,-1126.73 2629,-1084 2670.45,-1077.57 2715.41,-1068.74 2755.56,-1060.17"/>
<polygon fill="black" stroke="black" points="2756.34,-1063.58 2765.39,-1058.06 2754.87,-1056.74 2756.34,-1063.58"/>
</g>
</g>
</svg>
