<?xml version="1.0" encoding="UTF-8" standalone="no"?>
<!DOCTYPE svg PUBLIC "-//W3C//DTD SVG 1.1//EN"
 "http://www.w3.org/Graphics/SVG/1.1/DTD/svg11.dtd">
<!-- Generated by graphviz version 2.44.0 (0)
 -->
<!-- Title: CFG_101 Pages: 1 -->
<svg width="7329pt" height="1085pt"
 viewBox="0.00 0.00 7329.00 1085.00" xmlns="http://www.w3.org/2000/svg" xmlns:xlink="http://www.w3.org/1999/xlink">
<g id="graph0" class="graph" transform="scale(1 1) rotate(0) translate(4 1081)">
<title>CFG_101</title>
<polygon fill="white" stroke="transparent" points="-4,4 -4,-1081 7325,-1081 7325,4 -4,4"/>
<text text-anchor="middle" x="242.5" y="-1057" font-family="Times-Roman" font-size="20.00">158&#45;LoopBenchmarks.sieveLoop(boolean[], int)</text>
<!-- b0 -->
<g id="node1" class="node">
<title>b0</title>
<polygon fill="white" stroke="black" points="283,-445 0,-445 0,-393 283,-393 283,-445"/>
<text text-anchor="middle" x="141.5" y="-433" font-family="Helvetica" font-size="10.00">B0</text>
<text text-anchor="middle" x="141.5" y="-422" font-family="Helvetica" font-size="10.00">Loop: &lt;none&gt;</text>
<text text-anchor="middle" x="141.5" y="-411" font-family="Helvetica" font-size="10.00">&#45;&#45;&#45;</text>
<text text-anchor="middle" x="141.5" y="-400" font-family="Helvetica" font-size="10.00">HotSpotMethod&lt;LoopBenchmarks.sieveLoop(boolean[], int)&gt;</text>
</g>
<!-- b1 -->
<g id="node2" class="node">
<title>b1</title>
<polygon fill="white" stroke="black" points="674,-507 391,-507 391,-455 674,-455 674,-507"/>
<text text-anchor="middle" x="532.5" y="-495" font-family="Helvetica" font-size="10.00">B1</text>
<text text-anchor="middle" x="532.5" y="-484" font-family="Helvetica" font-size="10.00">Loop: &lt;none&gt;</text>
<text text-anchor="middle" x="532.5" y="-473" font-family="Helvetica" font-size="10.00">&#45;&#45;&#45;</text>
<text text-anchor="middle" x="532.5" y="-462" font-family="Helvetica" font-size="10.00">HotSpotMethod&lt;LoopBenchmarks.sieveLoop(boolean[], int)&gt;</text>
</g>
<!-- b0&#45;&gt;b1 -->
<g id="edge1" class="edge">
<title>b0&#45;&gt;b1</title>
<path fill="none" stroke="black" d="M283.21,-441.43C314.95,-446.49 348.76,-451.88 380.89,-457"/>
<polygon fill="black" stroke="black" points="380.38,-460.46 390.8,-458.58 381.48,-453.54 380.38,-460.46"/>
</g>
<!-- b2 -->
<g id="node3" class="node">
<title>b2</title>
<polygon fill="white" stroke="black" points="674,-383 391,-383 391,-331 674,-331 674,-383"/>
<text text-anchor="middle" x="532.5" y="-371" font-family="Helvetica" font-size="10.00">B2</text>
<text text-anchor="middle" x="532.5" y="-360" font-family="Helvetica" font-size="10.00">Loop: &lt;none&gt;</text>
<text text-anchor="middle" x="532.5" y="-349" font-family="Helvetica" font-size="10.00">&#45;&#45;&#45;</text>
<text text-anchor="middle" x="532.5" y="-338" font-family="Helvetica" font-size="10.00">HotSpotMethod&lt;LoopBenchmarks.sieveLoop(boolean[], int)&gt;</text>
</g>
<!-- b0&#45;&gt;b2 -->
<g id="edge2" class="edge">
<title>b0&#45;&gt;b2</title>
<path fill="none" stroke="black" d="M283.21,-396.57C314.95,-391.51 348.76,-386.12 380.89,-381"/>
<polygon fill="black" stroke="black" points="381.48,-384.46 390.8,-379.42 380.38,-377.54 381.48,-384.46"/>
</g>
<!-- b3 -->
<g id="node4" class="node">
<title>b3</title>
<polygon fill="white" stroke="black" points="1065,-445 782,-445 782,-393 1065,-393 1065,-445"/>
<text text-anchor="middle" x="923.5" y="-433" font-family="Helvetica" font-size="10.00">B3</text>
<text text-anchor="middle" x="923.5" y="-422" font-family="Helvetica" font-size="10.00">Loop: &lt;none&gt;</text>
<text text-anchor="middle" x="923.5" y="-411" font-family="Helvetica" font-size="10.00">&#45;&#45;&#45;</text>
<text text-anchor="middle" x="923.5" y="-400" font-family="Helvetica" font-size="10.00">HotSpotMethod&lt;LoopBenchmarks.sieveLoop(boolean[], int)&gt;</text>
</g>
<!-- b1&#45;&gt;b3 -->
<g id="edge3" class="edge">
<title>b1&#45;&gt;b3</title>
<path fill="none" stroke="black" d="M674.21,-458.57C705.95,-453.51 739.76,-448.12 771.89,-443"/>
<polygon fill="black" stroke="black" points="772.48,-446.46 781.8,-441.42 771.38,-439.54 772.48,-446.46"/>
</g>
<!-- b2&#45;&gt;b3 -->
<g id="edge4" class="edge">
<title>b2&#45;&gt;b3</title>
<path fill="none" stroke="black" d="M674.21,-379.43C705.95,-384.49 739.76,-389.88 771.89,-395"/>
<polygon fill="black" stroke="black" points="771.38,-398.46 781.8,-396.58 772.48,-391.54 771.38,-398.46"/>
</g>
<!-- b5 -->
<g id="node6" class="node">
<title>b5</title>
<polygon fill="white" stroke="black" points="1456,-316 1173,-316 1173,-264 1456,-264 1456,-316"/>
<text text-anchor="middle" x="1314.5" y="-304" font-family="Helvetica" font-size="10.00">B5</text>
<text text-anchor="middle" x="1314.5" y="-293" font-family="Helvetica" font-size="10.00">Loop: &lt;none&gt;</text>
<text text-anchor="middle" x="1314.5" y="-282" font-family="Helvetica" font-size="10.00">&#45;&#45;&#45;</text>
<text text-anchor="middle" x="1314.5" y="-271" font-family="Helvetica" font-size="10.00">HotSpotMethod&lt;LoopBenchmarks.sieveLoop(boolean[], int)&gt;</text>
</g>
<!-- b3&#45;&gt;b5 -->
<g id="edge6" class="edge">
<title>b3&#45;&gt;b5</title>
<path fill="none" stroke="black" d="M1003.22,-392.89C1067.55,-371.56 1158.44,-341.42 1225.22,-319.27"/>
<polygon fill="black" stroke="black" points="1226.51,-322.54 1234.9,-316.07 1224.3,-315.89 1226.51,-322.54"/>
</g>
<!-- b7 -->
<g id="node8" class="node">
<title>b7</title>
<polygon fill="white" stroke="black" points="1847,-575 1564,-575 1564,-523 1847,-523 1847,-575"/>
<text text-anchor="middle" x="1705.5" y="-563" font-family="Helvetica" font-size="10.00">B7</text>
<text text-anchor="middle" x="1705.5" y="-552" font-family="Helvetica" font-size="10.00">Loop: &lt;none&gt;</text>
<text text-anchor="middle" x="1705.5" y="-541" font-family="Helvetica" font-size="10.00">&#45;&#45;&#45;</text>
<text text-anchor="middle" x="1705.5" y="-530" font-family="Helvetica" font-size="10.00">HotSpotMethod&lt;LoopBenchmarks.sieveLoop(boolean[], int)&gt;</text>
</g>
<!-- b3&#45;&gt;b7 -->
<g id="edge5" class="edge">
<title>b3&#45;&gt;b7</title>
<path fill="none" stroke="black" d="M1028.66,-445.06C1072.97,-455.59 1125.32,-467.28 1173,-476 1300.7,-499.37 1446.9,-518.93 1553.6,-531.9"/>
<polygon fill="black" stroke="black" points="1553.45,-535.41 1563.8,-533.14 1554.29,-528.46 1553.45,-535.41"/>
</g>
<!-- b4 -->
<g id="node5" class="node">
<title>b4</title>
<polygon fill="white" stroke="black" points="1456,-440 1173,-440 1173,-388 1456,-388 1456,-440"/>
<text text-anchor="middle" x="1314.5" y="-428" font-family="Helvetica" font-size="10.00">B4</text>
<text text-anchor="middle" x="1314.5" y="-417" font-family="Helvetica" font-size="10.00">Loop: &lt;none&gt;</text>
<text text-anchor="middle" x="1314.5" y="-406" font-family="Helvetica" font-size="10.00">&#45;&#45;&#45;</text>
<text text-anchor="middle" x="1314.5" y="-395" font-family="Helvetica" font-size="10.00">HotSpotMethod&lt;LoopBenchmarks.sieveLoop(boolean[], int)&gt;</text>
</g>
<!-- b4&#45;&gt;b7 -->
<g id="edge7" class="edge">
<title>b4&#45;&gt;b7</title>
<path fill="none" stroke="black" d="M1390.5,-440.03C1456.19,-462.82 1551.55,-495.92 1619.93,-519.65"/>
<polygon fill="black" stroke="black" points="1618.8,-522.96 1629.4,-522.94 1621.1,-516.35 1618.8,-522.96"/>
</g>
<!-- b5&#45;&gt;b7 -->
<g id="edge8" class="edge">
<title>b5&#45;&gt;b7</title>
<path fill="none" stroke="black" d="M1384.07,-316.12C1407.53,-326.13 1433.51,-338.43 1456,-352 1537.54,-401.21 1622.36,-473.87 1668.78,-515.82"/>
<polygon fill="black" stroke="black" points="1666.69,-518.64 1676.45,-522.78 1671.4,-513.46 1666.69,-518.64"/>
</g>
<!-- b37 -->
<g id="node38" class="node">
<title>b37</title>
<polygon fill="white" stroke="black" points="2238,-316 1955,-316 1955,-264 2238,-264 2238,-316"/>
<text text-anchor="middle" x="2096.5" y="-304" font-family="Helvetica" font-size="10.00">B37</text>
<text text-anchor="middle" x="2096.5" y="-293" font-family="Helvetica" font-size="10.00">Loop: &lt;none&gt;</text>
<text text-anchor="middle" x="2096.5" y="-282" font-family="Helvetica" font-size="10.00">&#45;&#45;&#45;</text>
<text text-anchor="middle" x="2096.5" y="-271" font-family="Helvetica" font-size="10.00">HotSpotMethod&lt;LoopBenchmarks.sieveLoop(boolean[], int)&gt;</text>
</g>
<!-- b5&#45;&gt;b37 -->
<g id="edge9" class="edge">
<title>b5&#45;&gt;b37</title>
<path fill="none" stroke="black" d="M1456.3,-290C1594.18,-290 1803.56,-290 1944.76,-290"/>
<polygon fill="black" stroke="black" points="1944.8,-293.5 1954.8,-290 1944.8,-286.5 1944.8,-293.5"/>
</g>
<!-- b6 -->
<g id="node7" class="node">
<title>b6</title>
<polygon fill="white" stroke="black" points="1456,-710 1173,-710 1173,-658 1456,-658 1456,-710"/>
<text text-anchor="middle" x="1314.5" y="-698" font-family="Helvetica" font-size="10.00">B6</text>
<text text-anchor="middle" x="1314.5" y="-687" font-family="Helvetica" font-size="10.00">Loop: &lt;none&gt;</text>
<text text-anchor="middle" x="1314.5" y="-676" font-family="Helvetica" font-size="10.00">&#45;&#45;&#45;</text>
<text text-anchor="middle" x="1314.5" y="-665" font-family="Helvetica" font-size="10.00">HotSpotMethod&lt;LoopBenchmarks.sieveLoop(boolean[], int)&gt;</text>
</g>
<!-- b6&#45;&gt;b7 -->
<g id="edge10" class="edge">
<title>b6&#45;&gt;b7</title>
<path fill="none" stroke="black" d="M1390.5,-657.97C1456.19,-635.18 1551.55,-602.08 1619.93,-578.35"/>
<polygon fill="black" stroke="black" points="1621.1,-581.65 1629.4,-575.06 1618.8,-575.04 1621.1,-581.65"/>
</g>
<!-- b8 -->
<g id="node9" class="node">
<title>b8</title>
<polygon fill="white" stroke="black" points="2238,-575 1955,-575 1955,-523 2238,-523 2238,-575"/>
<text text-anchor="middle" x="2096.5" y="-563" font-family="Helvetica" font-size="10.00">B8</text>
<text text-anchor="middle" x="2096.5" y="-552" font-family="Helvetica" font-size="10.00">Loop: &lt;none&gt;</text>
<text text-anchor="middle" x="2096.5" y="-541" font-family="Helvetica" font-size="10.00">&#45;&#45;&#45;</text>
<text text-anchor="middle" x="2096.5" y="-530" font-family="Helvetica" font-size="10.00">HotSpotMethod&lt;LoopBenchmarks.sieveLoop(boolean[], int)&gt;</text>
</g>
<!-- b7&#45;&gt;b8 -->
<g id="edge11" class="edge">
<title>b7&#45;&gt;b8</title>
<path fill="none" stroke="black" d="M1847.21,-549C1878.81,-549 1912.47,-549 1944.48,-549"/>
<polygon fill="black" stroke="black" points="1944.8,-552.5 1954.8,-549 1944.8,-545.5 1944.8,-552.5"/>
</g>
<!-- b21 -->
<g id="node22" class="node">
<title>b21</title>
<polygon fill="white" stroke="black" points="4193,-519 3910,-519 3910,-467 4193,-467 4193,-519"/>
<text text-anchor="middle" x="4051.5" y="-507" font-family="Helvetica" font-size="10.00">B21</text>
<text text-anchor="middle" x="4051.5" y="-496" font-family="Helvetica" font-size="10.00">Loop: &lt;none&gt;</text>
<text text-anchor="middle" x="4051.5" y="-485" font-family="Helvetica" font-size="10.00">&#45;&#45;&#45;</text>
<text text-anchor="middle" x="4051.5" y="-474" font-family="Helvetica" font-size="10.00">HotSpotMethod&lt;LoopBenchmarks.sieveLoop(boolean[], int)&gt;</text>
</g>
<!-- b7&#45;&gt;b21 -->
<g id="edge12" class="edge">
<title>b7&#45;&gt;b21</title>
<path fill="none" stroke="black" d="M1749.1,-575.13C1863.75,-642.89 2190.23,-819 2486.5,-819 2486.5,-819 2486.5,-819 3270.5,-819 3573.34,-819 3894.72,-607.22 4008.02,-525.05"/>
<polygon fill="black" stroke="black" points="4010.11,-527.85 4016.13,-519.13 4005.99,-522.2 4010.11,-527.85"/>
</g>
<!-- b9 -->
<g id="node10" class="node">
<title>b9</title>
<polygon fill="white" stroke="black" points="2629,-575 2346,-575 2346,-523 2629,-523 2629,-575"/>
<text text-anchor="middle" x="2487.5" y="-563" font-family="Helvetica" font-size="10.00">B9</text>
<text text-anchor="middle" x="2487.5" y="-552" font-family="Helvetica" font-size="10.00">Loop: &lt;none&gt;</text>
<text text-anchor="middle" x="2487.5" y="-541" font-family="Helvetica" font-size="10.00">&#45;&#45;&#45;</text>
<text text-anchor="middle" x="2487.5" y="-530" font-family="Helvetica" font-size="10.00">HotSpotMethod&lt;LoopBenchmarks.sieveLoop(boolean[], int)&gt;</text>
</g>
<!-- b8&#45;&gt;b9 -->
<g id="edge13" class="edge">
<title>b8&#45;&gt;b9</title>
<path fill="none" stroke="black" d="M2238.21,-549C2269.81,-549 2303.47,-549 2335.48,-549"/>
<polygon fill="black" stroke="black" points="2335.8,-552.5 2345.8,-549 2335.8,-545.5 2335.8,-552.5"/>
</g>
<!-- b19 -->
<g id="node20" class="node">
<title>b19</title>
<polygon fill="white" stroke="black" points="2629,-451 2346,-451 2346,-399 2629,-399 2629,-451"/>
<text text-anchor="middle" x="2487.5" y="-439" font-family="Helvetica" font-size="10.00">B19</text>
<text text-anchor="middle" x="2487.5" y="-428" font-family="Helvetica" font-size="10.00">Loop: &lt;none&gt;</text>
<text text-anchor="middle" x="2487.5" y="-417" font-family="Helvetica" font-size="10.00">&#45;&#45;&#45;</text>
<text text-anchor="middle" x="2487.5" y="-406" font-family="Helvetica" font-size="10.00">HotSpotMethod&lt;LoopBenchmarks.sieveLoop(boolean[], int)&gt;</text>
</g>
<!-- b8&#45;&gt;b19 -->
<g id="edge14" class="edge">
<title>b8&#45;&gt;b19</title>
<path fill="none" stroke="black" d="M2179.52,-522.85C2242.6,-502.75 2329.72,-474.98 2395.04,-454.15"/>
<polygon fill="black" stroke="black" points="2396.46,-457.38 2404.92,-451 2394.33,-450.71 2396.46,-457.38"/>
</g>
<!-- b10 -->
<g id="node11" class="node">
<title>b10</title>
<polygon fill="white" stroke="black" points="3020,-586 2737,-586 2737,-534 3020,-534 3020,-586"/>
<text text-anchor="middle" x="2878.5" y="-574" font-family="Helvetica" font-size="10.00">B10</text>
<text text-anchor="middle" x="2878.5" y="-563" font-family="Helvetica" font-size="10.00">Loop: &lt;none&gt;</text>
<text text-anchor="middle" x="2878.5" y="-552" font-family="Helvetica" font-size="10.00">&#45;&#45;&#45;</text>
<text text-anchor="middle" x="2878.5" y="-541" font-family="Helvetica" font-size="10.00">HotSpotMethod&lt;LoopBenchmarks.sieveLoop(boolean[], int)&gt;</text>
</g>
<!-- b9&#45;&gt;b10 -->
<g id="edge15" class="edge">
<title>b9&#45;&gt;b10</title>
<path fill="none" stroke="black" d="M2629.21,-552.98C2660.81,-553.87 2694.47,-554.82 2726.48,-555.73"/>
<polygon fill="black" stroke="black" points="2726.71,-559.24 2736.8,-556.02 2726.91,-552.24 2726.71,-559.24"/>
</g>
<!-- b9&#45;&gt;b21 -->
<g id="edge16" class="edge">
<title>b9&#45;&gt;b21</title>
<path fill="none" stroke="black" d="M2592.07,-522.95C2636.39,-513.06 2688.92,-502.98 2737,-498 3156.21,-454.62 3654.71,-471.27 3899.53,-483.88"/>
<polygon fill="black" stroke="black" points="3899.4,-487.38 3909.57,-484.4 3899.76,-480.39 3899.4,-487.38"/>
</g>
<!-- b11 -->
<g id="node12" class="node">
<title>b11</title>
<polygon fill="white" stroke="black" points="3411,-710 3128,-710 3128,-658 3411,-658 3411,-710"/>
<text text-anchor="middle" x="3269.5" y="-698" font-family="Helvetica" font-size="10.00">B11</text>
<text text-anchor="middle" x="3269.5" y="-687" font-family="Helvetica" font-size="10.00">Loop: &lt;none&gt;</text>
<text text-anchor="middle" x="3269.5" y="-676" font-family="Helvetica" font-size="10.00">&#45;&#45;&#45;</text>
<text text-anchor="middle" x="3269.5" y="-665" font-family="Helvetica" font-size="10.00">HotSpotMethod&lt;LoopBenchmarks.sieveLoop(boolean[], int)&gt;</text>
</g>
<!-- b10&#45;&gt;b11 -->
<g id="edge17" class="edge">
<title>b10&#45;&gt;b11</title>
<path fill="none" stroke="black" d="M2961.52,-586.15C3024.6,-606.25 3111.72,-634.02 3177.04,-654.85"/>
<polygon fill="black" stroke="black" points="3176.33,-658.29 3186.92,-658 3178.46,-651.62 3176.33,-658.29"/>
</g>
<!-- b17 -->
<g id="node18" class="node">
<title>b17</title>
<polygon fill="white" stroke="black" points="3411,-586 3128,-586 3128,-534 3411,-534 3411,-586"/>
<text text-anchor="middle" x="3269.5" y="-574" font-family="Helvetica" font-size="10.00">B17</text>
<text text-anchor="middle" x="3269.5" y="-563" font-family="Helvetica" font-size="10.00">Loop: &lt;none&gt;</text>
<text text-anchor="middle" x="3269.5" y="-552" font-family="Helvetica" font-size="10.00">&#45;&#45;&#45;</text>
<text text-anchor="middle" x="3269.5" y="-541" font-family="Helvetica" font-size="10.00">HotSpotMethod&lt;LoopBenchmarks.sieveLoop(boolean[], int)&gt;</text>
</g>
<!-- b10&#45;&gt;b17 -->
<g id="edge18" class="edge">
<title>b10&#45;&gt;b17</title>
<path fill="none" stroke="black" d="M3020.21,-560C3051.81,-560 3085.47,-560 3117.48,-560"/>
<polygon fill="black" stroke="black" points="3117.8,-563.5 3127.8,-560 3117.8,-556.5 3117.8,-563.5"/>
</g>
<!-- b12 -->
<g id="node13" class="node">
<title>b12</title>
<polygon fill="lightblue" stroke="black" points="3802,-980 3519,-980 3519,-928 3802,-928 3802,-980"/>
<text text-anchor="middle" x="3660.5" y="-968" font-family="Helvetica" font-size="10.00">B12</text>
<text text-anchor="middle" x="3660.5" y="-957" font-family="Helvetica" font-size="10.00">Loop: L0</text>
<text text-anchor="middle" x="3660.5" y="-946" font-family="Helvetica" font-size="10.00">&#45;&#45;&#45;</text>
<text text-anchor="middle" x="3660.5" y="-935" font-family="Helvetica" font-size="10.00">HotSpotMethod&lt;LoopBenchmarks.sieveLoop(boolean[], int)&gt;</text>
</g>
<!-- b11&#45;&gt;b12 -->
<g id="edge19" class="edge">
<title>b11&#45;&gt;b12</title>
<path fill="none" stroke="black" d="M3308.15,-710.13C3379.75,-759.83 3535.33,-867.82 3613.18,-921.85"/>
<polygon fill="black" stroke="black" points="3611.62,-925.02 3621.83,-927.85 3615.61,-919.27 3611.62,-925.02"/>
</g>
<!-- b13 -->
<g id="node14" class="node">
<title>b13</title>
<polygon fill="lightblue" stroke="black" points="4193,-1047 3910,-1047 3910,-995 4193,-995 4193,-1047"/>
<text text-anchor="middle" x="4051.5" y="-1035" font-family="Helvetica" font-size="10.00">B13</text>
<text text-anchor="middle" x="4051.5" y="-1024" font-family="Helvetica" font-size="10.00">Loop: L0</text>
<text text-anchor="middle" x="4051.5" y="-1013" font-family="Helvetica" font-size="10.00">&#45;&#45;&#45;</text>
<text text-anchor="middle" x="4051.5" y="-1002" font-family="Helvetica" font-size="10.00">HotSpotMethod&lt;LoopBenchmarks.sieveLoop(boolean[], int)&gt;</text>
</g>
<!-- b12&#45;&gt;b13 -->
<g id="edge20" class="edge">
<title>b12&#45;&gt;b13</title>
<path fill="none" stroke="black" d="M3802.21,-978.24C3833.95,-983.7 3867.76,-989.53 3899.89,-995.06"/>
<polygon fill="black" stroke="black" points="3899.35,-998.52 3909.8,-996.77 3900.54,-991.62 3899.35,-998.52"/>
</g>
<!-- b12&#45;&gt;b21 -->
<g id="edge21" class="edge">
<title>b12&#45;&gt;b21</title>
<path fill="none" stroke="black" d="M3721.37,-927.89C3748.02,-914.36 3778.6,-896.03 3802,-874 3914.81,-767.8 4000.66,-600.6 4034.62,-528.28"/>
<polygon fill="black" stroke="black" points="4037.83,-529.67 4038.88,-519.13 4031.49,-526.72 4037.83,-529.67"/>
</g>
<!-- b14 -->
<g id="node15" class="node">
<title>b14</title>
<polygon fill="lightblue" stroke="black" points="4584,-918 4301,-918 4301,-866 4584,-866 4584,-918"/>
<text text-anchor="middle" x="4442.5" y="-906" font-family="Helvetica" font-size="10.00">B14</text>
<text text-anchor="middle" x="4442.5" y="-895" font-family="Helvetica" font-size="10.00">Loop: L0</text>
<text text-anchor="middle" x="4442.5" y="-884" font-family="Helvetica" font-size="10.00">&#45;&#45;&#45;</text>
<text text-anchor="middle" x="4442.5" y="-873" font-family="Helvetica" font-size="10.00">HotSpotMethod&lt;LoopBenchmarks.sieveLoop(boolean[], int)&gt;</text>
</g>
<!-- b13&#45;&gt;b14 -->
<g id="edge22" class="edge">
<title>b13&#45;&gt;b14</title>
<path fill="none" stroke="black" d="M4131.22,-994.89C4195.55,-973.56 4286.44,-943.42 4353.22,-921.27"/>
<polygon fill="black" stroke="black" points="4354.51,-924.54 4362.9,-918.07 4352.3,-917.89 4354.51,-924.54"/>
</g>
<!-- b16 -->
<g id="node17" class="node">
<title>b16</title>
<polygon fill="white" stroke="black" points="4584,-1047 4301,-1047 4301,-995 4584,-995 4584,-1047"/>
<text text-anchor="middle" x="4442.5" y="-1035" font-family="Helvetica" font-size="10.00">B16</text>
<text text-anchor="middle" x="4442.5" y="-1024" font-family="Helvetica" font-size="10.00">Loop: &lt;none&gt;</text>
<text text-anchor="middle" x="4442.5" y="-1013" font-family="Helvetica" font-size="10.00">&#45;&#45;&#45;</text>
<text text-anchor="middle" x="4442.5" y="-1002" font-family="Helvetica" font-size="10.00">HotSpotMethod&lt;LoopBenchmarks.sieveLoop(boolean[], int)&gt;</text>
</g>
<!-- b13&#45;&gt;b16 -->
<g id="edge23" class="edge">
<title>b13&#45;&gt;b16</title>
<path fill="none" stroke="black" d="M4193.21,-1021C4224.81,-1021 4258.47,-1021 4290.48,-1021"/>
<polygon fill="black" stroke="black" points="4290.8,-1024.5 4300.8,-1021 4290.8,-1017.5 4290.8,-1024.5"/>
</g>
<!-- b14&#45;&gt;b12 -->
<g id="edge24" class="edge">
<title>b14&#45;&gt;b12</title>
<path fill="none" stroke="black" d="M4300.8,-903.18C4162.96,-914.14 3953.58,-930.78 3812.35,-942.01"/>
<polygon fill="black" stroke="black" points="3811.99,-938.53 3802.3,-942.81 3812.55,-945.5 3811.99,-938.53"/>
</g>
<!-- b15 -->
<g id="node16" class="node">
<title>b15</title>
<polygon fill="white" stroke="black" points="3802,-316 3519,-316 3519,-264 3802,-264 3802,-316"/>
<text text-anchor="middle" x="3660.5" y="-304" font-family="Helvetica" font-size="10.00">B15</text>
<text text-anchor="middle" x="3660.5" y="-293" font-family="Helvetica" font-size="10.00">Loop: &lt;none&gt;</text>
<text text-anchor="middle" x="3660.5" y="-282" font-family="Helvetica" font-size="10.00">&#45;&#45;&#45;</text>
<text text-anchor="middle" x="3660.5" y="-271" font-family="Helvetica" font-size="10.00">HotSpotMethod&lt;LoopBenchmarks.sieveLoop(boolean[], int)&gt;</text>
</g>
<!-- b15&#45;&gt;b21 -->
<g id="edge25" class="edge">
<title>b15&#45;&gt;b21</title>
<path fill="none" stroke="black" d="M3711.56,-316.12C3783.33,-353.58 3915.23,-422.41 3991.6,-462.26"/>
<polygon fill="black" stroke="black" points="3990.15,-465.45 4000.63,-466.98 3993.39,-459.25 3990.15,-465.45"/>
</g>
<!-- b18 -->
<g id="node19" class="node">
<title>b18</title>
<polygon fill="white" stroke="black" points="3802,-192 3519,-192 3519,-140 3802,-140 3802,-192"/>
<text text-anchor="middle" x="3660.5" y="-180" font-family="Helvetica" font-size="10.00">B18</text>
<text text-anchor="middle" x="3660.5" y="-169" font-family="Helvetica" font-size="10.00">Loop: &lt;none&gt;</text>
<text text-anchor="middle" x="3660.5" y="-158" font-family="Helvetica" font-size="10.00">&#45;&#45;&#45;</text>
<text text-anchor="middle" x="3660.5" y="-147" font-family="Helvetica" font-size="10.00">HotSpotMethod&lt;LoopBenchmarks.sieveLoop(boolean[], int)&gt;</text>
</g>
<!-- b18&#45;&gt;b21 -->
<g id="edge26" class="edge">
<title>b18&#45;&gt;b21</title>
<path fill="none" stroke="black" d="M3735.6,-192.12C3757.95,-201.69 3781.88,-213.74 3802,-228 3897,-295.33 3984.22,-403.37 4025.47,-458.39"/>
<polygon fill="black" stroke="black" points="4022.92,-460.81 4031.69,-466.75 4028.53,-456.64 4022.92,-460.81"/>
</g>
<!-- b38 -->
<g id="node39" class="node">
<title>b38</title>
<polygon fill="white" stroke="black" points="3020,-316 2737,-316 2737,-264 3020,-264 3020,-316"/>
<text text-anchor="middle" x="2878.5" y="-304" font-family="Helvetica" font-size="10.00">B38</text>
<text text-anchor="middle" x="2878.5" y="-293" font-family="Helvetica" font-size="10.00">Loop: &lt;none&gt;</text>
<text text-anchor="middle" x="2878.5" y="-282" font-family="Helvetica" font-size="10.00">&#45;&#45;&#45;</text>
<text text-anchor="middle" x="2878.5" y="-271" font-family="Helvetica" font-size="10.00">HotSpotMethod&lt;LoopBenchmarks.sieveLoop(boolean[], int)&gt;</text>
</g>
<!-- b19&#45;&gt;b38 -->
<g id="edge27" class="edge">
<title>b19&#45;&gt;b38</title>
<path fill="none" stroke="black" d="M2563.5,-398.97C2629.19,-376.18 2724.55,-343.08 2792.93,-319.35"/>
<polygon fill="black" stroke="black" points="2794.1,-322.65 2802.4,-316.06 2791.8,-316.04 2794.1,-322.65"/>
</g>
<!-- b20 -->
<g id="node21" class="node">
<title>b20</title>
<polygon fill="white" stroke="black" points="3802,-586 3519,-586 3519,-534 3802,-534 3802,-586"/>
<text text-anchor="middle" x="3660.5" y="-574" font-family="Helvetica" font-size="10.00">B20</text>
<text text-anchor="middle" x="3660.5" y="-563" font-family="Helvetica" font-size="10.00">Loop: &lt;none&gt;</text>
<text text-anchor="middle" x="3660.5" y="-552" font-family="Helvetica" font-size="10.00">&#45;&#45;&#45;</text>
<text text-anchor="middle" x="3660.5" y="-541" font-family="Helvetica" font-size="10.00">HotSpotMethod&lt;LoopBenchmarks.sieveLoop(boolean[], int)&gt;</text>
</g>
<!-- b20&#45;&gt;b21 -->
<g id="edge28" class="edge">
<title>b20&#45;&gt;b21</title>
<path fill="none" stroke="black" d="M3802.21,-535.76C3833.95,-530.3 3867.76,-524.47 3899.89,-518.94"/>
<polygon fill="black" stroke="black" points="3900.54,-522.38 3909.8,-517.23 3899.35,-515.48 3900.54,-522.38"/>
</g>
<!-- b22 -->
<g id="node23" class="node">
<title>b22</title>
<polygon fill="lightgreen" stroke="black" points="4584,-519 4301,-519 4301,-467 4584,-467 4584,-519"/>
<text text-anchor="middle" x="4442.5" y="-507" font-family="Helvetica" font-size="10.00">B22</text>
<text text-anchor="middle" x="4442.5" y="-496" font-family="Helvetica" font-size="10.00">Loop: L1</text>
<text text-anchor="middle" x="4442.5" y="-485" font-family="Helvetica" font-size="10.00">&#45;&#45;&#45;</text>
<text text-anchor="middle" x="4442.5" y="-474" font-family="Helvetica" font-size="10.00">HotSpotMethod&lt;LoopBenchmarks.sieveLoop(boolean[], int)&gt;</text>
</g>
<!-- b21&#45;&gt;b22 -->
<g id="edge29" class="edge">
<title>b21&#45;&gt;b22</title>
<path fill="none" stroke="black" d="M4193.21,-493C4224.81,-493 4258.47,-493 4290.48,-493"/>
<polygon fill="black" stroke="black" points="4290.8,-496.5 4300.8,-493 4290.8,-489.5 4290.8,-496.5"/>
</g>
<!-- b23 -->
<g id="node24" class="node">
<title>b23</title>
<polygon fill="lightgreen" stroke="black" points="4975,-519 4692,-519 4692,-467 4975,-467 4975,-519"/>
<text text-anchor="middle" x="4833.5" y="-507" font-family="Helvetica" font-size="10.00">B23</text>
<text text-anchor="middle" x="4833.5" y="-496" font-family="Helvetica" font-size="10.00">Loop: L1</text>
<text text-anchor="middle" x="4833.5" y="-485" font-family="Helvetica" font-size="10.00">&#45;&#45;&#45;</text>
<text text-anchor="middle" x="4833.5" y="-474" font-family="Helvetica" font-size="10.00">HotSpotMethod&lt;LoopBenchmarks.sieveLoop(boolean[], int)&gt;</text>
</g>
<!-- b22&#45;&gt;b23 -->
<g id="edge30" class="edge">
<title>b22&#45;&gt;b23</title>
<path fill="none" stroke="black" d="M4584.21,-493C4615.81,-493 4649.47,-493 4681.48,-493"/>
<polygon fill="black" stroke="black" points="4681.8,-496.5 4691.8,-493 4681.8,-489.5 4681.8,-496.5"/>
</g>
<!-- b35 -->
<g id="node36" class="node">
<title>b35</title>
<polygon fill="white" stroke="black" points="4975,-690 4692,-690 4692,-638 4975,-638 4975,-690"/>
<text text-anchor="middle" x="4833.5" y="-678" font-family="Helvetica" font-size="10.00">B35</text>
<text text-anchor="middle" x="4833.5" y="-667" font-family="Helvetica" font-size="10.00">Loop: &lt;none&gt;</text>
<text text-anchor="middle" x="4833.5" y="-656" font-family="Helvetica" font-size="10.00">&#45;&#45;&#45;</text>
<text text-anchor="middle" x="4833.5" y="-645" font-family="Helvetica" font-size="10.00">HotSpotMethod&lt;LoopBenchmarks.sieveLoop(boolean[], int)&gt;</text>
</g>
<!-- b22&#45;&gt;b35 -->
<g id="edge31" class="edge">
<title>b22&#45;&gt;b35</title>
<path fill="none" stroke="black" d="M4503,-519.16C4573.32,-550.07 4690.08,-601.39 4764.07,-633.92"/>
<polygon fill="black" stroke="black" points="4762.76,-637.17 4773.32,-637.99 4765.58,-630.76 4762.76,-637.17"/>
</g>
<!-- b24 -->
<g id="node25" class="node">
<title>b24</title>
<polygon fill="lightgreen" stroke="black" points="5366,-446 5083,-446 5083,-394 5366,-394 5366,-446"/>
<text text-anchor="middle" x="5224.5" y="-434" font-family="Helvetica" font-size="10.00">B24</text>
<text text-anchor="middle" x="5224.5" y="-423" font-family="Helvetica" font-size="10.00">Loop: L1</text>
<text text-anchor="middle" x="5224.5" y="-412" font-family="Helvetica" font-size="10.00">&#45;&#45;&#45;</text>
<text text-anchor="middle" x="5224.5" y="-401" font-family="Helvetica" font-size="10.00">HotSpotMethod&lt;LoopBenchmarks.sieveLoop(boolean[], int)&gt;</text>
</g>
<!-- b23&#45;&gt;b24 -->
<g id="edge32" class="edge">
<title>b23&#45;&gt;b24</title>
<path fill="none" stroke="black" d="M4973.29,-466.95C5006.11,-460.79 5041.25,-454.2 5074.51,-447.96"/>
<polygon fill="black" stroke="black" points="5075.58,-451.32 5084.76,-446.04 5074.29,-444.44 5075.58,-451.32"/>
</g>
<!-- b34 -->
<g id="node35" class="node">
<title>b34</title>
<polygon fill="white" stroke="black" points="5366,-581 5083,-581 5083,-529 5366,-529 5366,-581"/>
<text text-anchor="middle" x="5224.5" y="-569" font-family="Helvetica" font-size="10.00">B34</text>
<text text-anchor="middle" x="5224.5" y="-558" font-family="Helvetica" font-size="10.00">Loop: &lt;none&gt;</text>
<text text-anchor="middle" x="5224.5" y="-547" font-family="Helvetica" font-size="10.00">&#45;&#45;&#45;</text>
<text text-anchor="middle" x="5224.5" y="-536" font-family="Helvetica" font-size="10.00">HotSpotMethod&lt;LoopBenchmarks.sieveLoop(boolean[], int)&gt;</text>
</g>
<!-- b23&#45;&gt;b34 -->
<g id="edge33" class="edge">
<title>b23&#45;&gt;b34</title>
<path fill="none" stroke="black" d="M4975.21,-515.43C5006.95,-520.49 5040.76,-525.88 5072.89,-531"/>
<polygon fill="black" stroke="black" points="5072.38,-534.46 5082.8,-532.58 5073.48,-527.54 5072.38,-534.46"/>
</g>
<!-- b25 -->
<g id="node26" class="node">
<title>b25</title>
<polygon fill="lightgreen" stroke="black" points="5757,-311 5474,-311 5474,-259 5757,-259 5757,-311"/>
<text text-anchor="middle" x="5615.5" y="-299" font-family="Helvetica" font-size="10.00">B25</text>
<text text-anchor="middle" x="5615.5" y="-288" font-family="Helvetica" font-size="10.00">Loop: L1</text>
<text text-anchor="middle" x="5615.5" y="-277" font-family="Helvetica" font-size="10.00">&#45;&#45;&#45;</text>
<text text-anchor="middle" x="5615.5" y="-266" font-family="Helvetica" font-size="10.00">HotSpotMethod&lt;LoopBenchmarks.sieveLoop(boolean[], int)&gt;</text>
</g>
<!-- b24&#45;&gt;b25 -->
<g id="edge34" class="edge">
<title>b24&#45;&gt;b25</title>
<path fill="none" stroke="black" d="M5300.5,-393.97C5366.19,-371.18 5461.55,-338.08 5529.93,-314.35"/>
<polygon fill="black" stroke="black" points="5531.1,-317.65 5539.4,-311.06 5528.8,-311.04 5531.1,-317.65"/>
</g>
<!-- b33 -->
<g id="node34" class="node">
<title>b33</title>
<polygon fill="white" stroke="black" points="5757,-446 5474,-446 5474,-394 5757,-394 5757,-446"/>
<text text-anchor="middle" x="5615.5" y="-434" font-family="Helvetica" font-size="10.00">B33</text>
<text text-anchor="middle" x="5615.5" y="-423" font-family="Helvetica" font-size="10.00">Loop: &lt;none&gt;</text>
<text text-anchor="middle" x="5615.5" y="-412" font-family="Helvetica" font-size="10.00">&#45;&#45;&#45;</text>
<text text-anchor="middle" x="5615.5" y="-401" font-family="Helvetica" font-size="10.00">HotSpotMethod&lt;LoopBenchmarks.sieveLoop(boolean[], int)&gt;</text>
</g>
<!-- b24&#45;&gt;b33 -->
<g id="edge35" class="edge">
<title>b24&#45;&gt;b33</title>
<path fill="none" stroke="black" d="M5366.21,-420C5397.81,-420 5431.47,-420 5463.48,-420"/>
<polygon fill="black" stroke="black" points="5463.8,-423.5 5473.8,-420 5463.8,-416.5 5463.8,-423.5"/>
</g>
<!-- b26 -->
<g id="node27" class="node">
<title>b26</title>
<polygon fill="white" stroke="black" points="6148,-311 5865,-311 5865,-259 6148,-259 6148,-311"/>
<text text-anchor="middle" x="6006.5" y="-299" font-family="Helvetica" font-size="10.00">B26</text>
<text text-anchor="middle" x="6006.5" y="-288" font-family="Helvetica" font-size="10.00">Loop: &lt;none&gt;</text>
<text text-anchor="middle" x="6006.5" y="-277" font-family="Helvetica" font-size="10.00">&#45;&#45;&#45;</text>
<text text-anchor="middle" x="6006.5" y="-266" font-family="Helvetica" font-size="10.00">HotSpotMethod&lt;LoopBenchmarks.sieveLoop(boolean[], int)&gt;</text>
</g>
<!-- b25&#45;&gt;b26 -->
<g id="edge36" class="edge">
<title>b25&#45;&gt;b26</title>
<path fill="none" stroke="black" d="M5757.21,-285C5788.81,-285 5822.47,-285 5854.48,-285"/>
<polygon fill="black" stroke="black" points="5854.8,-288.5 5864.8,-285 5854.8,-281.5 5854.8,-288.5"/>
</g>
<!-- b27 -->
<g id="node28" class="node">
<title>b27</title>
<polygon fill="lightgreen" stroke="black" points="6148,-187 5865,-187 5865,-135 6148,-135 6148,-187"/>
<text text-anchor="middle" x="6006.5" y="-175" font-family="Helvetica" font-size="10.00">B27</text>
<text text-anchor="middle" x="6006.5" y="-164" font-family="Helvetica" font-size="10.00">Loop: L1</text>
<text text-anchor="middle" x="6006.5" y="-153" font-family="Helvetica" font-size="10.00">&#45;&#45;&#45;</text>
<text text-anchor="middle" x="6006.5" y="-142" font-family="Helvetica" font-size="10.00">HotSpotMethod&lt;LoopBenchmarks.sieveLoop(boolean[], int)&gt;</text>
</g>
<!-- b25&#45;&gt;b27 -->
<g id="edge37" class="edge">
<title>b25&#45;&gt;b27</title>
<path fill="none" stroke="black" d="M5698.52,-258.85C5761.6,-238.75 5848.72,-210.98 5914.04,-190.15"/>
<polygon fill="black" stroke="black" points="5915.46,-193.38 5923.92,-187 5913.33,-186.71 5915.46,-193.38"/>
</g>
<!-- b36 -->
<g id="node37" class="node">
<title>b36</title>
<polygon fill="white" stroke="black" points="6539,-519 6256,-519 6256,-467 6539,-467 6539,-519"/>
<text text-anchor="middle" x="6397.5" y="-507" font-family="Helvetica" font-size="10.00">B36</text>
<text text-anchor="middle" x="6397.5" y="-496" font-family="Helvetica" font-size="10.00">Loop: &lt;none&gt;</text>
<text text-anchor="middle" x="6397.5" y="-485" font-family="Helvetica" font-size="10.00">&#45;&#45;&#45;</text>
<text text-anchor="middle" x="6397.5" y="-474" font-family="Helvetica" font-size="10.00">HotSpotMethod&lt;LoopBenchmarks.sieveLoop(boolean[], int)&gt;</text>
</g>
<!-- b26&#45;&gt;b36 -->
<g id="edge38" class="edge">
<title>b26&#45;&gt;b36</title>
<path fill="none" stroke="black" d="M6056.37,-311.13C6128.24,-349.56 6262.17,-421.17 6338.78,-462.13"/>
<polygon fill="black" stroke="black" points="6337.36,-465.35 6347.83,-466.97 6340.66,-459.17 6337.36,-465.35"/>
</g>
<!-- b28 -->
<g id="node29" class="node">
<title>b28</title>
<polygon fill="lightpink" stroke="black" points="6539,-187 6256,-187 6256,-135 6539,-135 6539,-187"/>
<text text-anchor="middle" x="6397.5" y="-175" font-family="Helvetica" font-size="10.00">B28</text>
<text text-anchor="middle" x="6397.5" y="-164" font-family="Helvetica" font-size="10.00">Loop: L2</text>
<text text-anchor="middle" x="6397.5" y="-153" font-family="Helvetica" font-size="10.00">&#45;&#45;&#45;</text>
<text text-anchor="middle" x="6397.5" y="-142" font-family="Helvetica" font-size="10.00">HotSpotMethod&lt;LoopBenchmarks.sieveLoop(boolean[], int)&gt;</text>
</g>
<!-- b27&#45;&gt;b28 -->
<g id="edge39" class="edge">
<title>b27&#45;&gt;b28</title>
<path fill="none" stroke="black" d="M6148.21,-161C6179.81,-161 6213.47,-161 6245.48,-161"/>
<polygon fill="black" stroke="black" points="6245.8,-164.5 6255.8,-161 6245.8,-157.5 6245.8,-164.5"/>
</g>
<!-- b29 -->
<g id="node30" class="node">
<title>b29</title>
<polygon fill="lightpink" stroke="black" points="6930,-322 6647,-322 6647,-270 6930,-270 6930,-322"/>
<text text-anchor="middle" x="6788.5" y="-310" font-family="Helvetica" font-size="10.00">B29</text>
<text text-anchor="middle" x="6788.5" y="-299" font-family="Helvetica" font-size="10.00">Loop: L2</text>
<text text-anchor="middle" x="6788.5" y="-288" font-family="Helvetica" font-size="10.00">&#45;&#45;&#45;</text>
<text text-anchor="middle" x="6788.5" y="-277" font-family="Helvetica" font-size="10.00">HotSpotMethod&lt;LoopBenchmarks.sieveLoop(boolean[], int)&gt;</text>
</g>
<!-- b28&#45;&gt;b29 -->
<g id="edge40" class="edge">
<title>b28&#45;&gt;b29</title>
<path fill="none" stroke="black" d="M6473.5,-187.03C6539.19,-209.82 6634.55,-242.92 6702.93,-266.65"/>
<polygon fill="black" stroke="black" points="6701.8,-269.96 6712.4,-269.94 6704.1,-263.35 6701.8,-269.96"/>
</g>
<!-- b31 -->
<g id="node32" class="node">
<title>b31</title>
<polygon fill="lightgreen" stroke="black" points="6930,-52 6647,-52 6647,0 6930,0 6930,-52"/>
<text text-anchor="middle" x="6788.5" y="-40" font-family="Helvetica" font-size="10.00">B31</text>
<text text-anchor="middle" x="6788.5" y="-29" font-family="Helvetica" font-size="10.00">Loop: L1</text>
<text text-anchor="middle" x="6788.5" y="-18" font-family="Helvetica" font-size="10.00">&#45;&#45;&#45;</text>
<text text-anchor="middle" x="6788.5" y="-7" font-family="Helvetica" font-size="10.00">HotSpotMethod&lt;LoopBenchmarks.sieveLoop(boolean[], int)&gt;</text>
</g>
<!-- b28&#45;&gt;b31 -->
<g id="edge41" class="edge">
<title>b28&#45;&gt;b31</title>
<path fill="none" stroke="black" d="M6473.5,-134.97C6539.19,-112.18 6634.55,-79.08 6702.93,-55.35"/>
<polygon fill="black" stroke="black" points="6704.1,-58.65 6712.4,-52.06 6701.8,-52.04 6704.1,-58.65"/>
</g>
<!-- b30 -->
<g id="node31" class="node">
<title>b30</title>
<polygon fill="lightpink" stroke="black" points="7321,-193 7038,-193 7038,-141 7321,-141 7321,-193"/>
<text text-anchor="middle" x="7179.5" y="-181" font-family="Helvetica" font-size="10.00">B30</text>
<text text-anchor="middle" x="7179.5" y="-170" font-family="Helvetica" font-size="10.00">Loop: L2</text>
<text text-anchor="middle" x="7179.5" y="-159" font-family="Helvetica" font-size="10.00">&#45;&#45;&#45;</text>
<text text-anchor="middle" x="7179.5" y="-148" font-family="Helvetica" font-size="10.00">HotSpotMethod&lt;LoopBenchmarks.sieveLoop(boolean[], int)&gt;</text>
</g>
<!-- b29&#45;&gt;b30 -->
<g id="edge42" class="edge">
<title>b29&#45;&gt;b30</title>
<path fill="none" stroke="black" d="M6868.22,-269.89C6932.55,-248.56 7023.44,-218.42 7090.22,-196.27"/>
<polygon fill="black" stroke="black" points="7091.51,-199.54 7099.9,-193.07 7089.3,-192.89 7091.51,-199.54"/>
</g>
<!-- b32 -->
<g id="node33" class="node">
<title>b32</title>
<polygon fill="white" stroke="black" points="7321,-322 7038,-322 7038,-270 7321,-270 7321,-322"/>
<text text-anchor="middle" x="7179.5" y="-310" font-family="Helvetica" font-size="10.00">B32</text>
<text text-anchor="middle" x="7179.5" y="-299" font-family="Helvetica" font-size="10.00">Loop: &lt;none&gt;</text>
<text text-anchor="middle" x="7179.5" y="-288" font-family="Helvetica" font-size="10.00">&#45;&#45;&#45;</text>
<text text-anchor="middle" x="7179.5" y="-277" font-family="Helvetica" font-size="10.00">HotSpotMethod&lt;LoopBenchmarks.sieveLoop(boolean[], int)&gt;</text>
</g>
<!-- b29&#45;&gt;b32 -->
<g id="edge43" class="edge">
<title>b29&#45;&gt;b32</title>
<path fill="none" stroke="black" d="M6930.21,-296C6961.81,-296 6995.47,-296 7027.48,-296"/>
<polygon fill="black" stroke="black" points="7027.8,-299.5 7037.8,-296 7027.8,-292.5 7027.8,-299.5"/>
</g>
<!-- b30&#45;&gt;b28 -->
<g id="edge44" class="edge">
<title>b30&#45;&gt;b28</title>
<path fill="none" stroke="black" d="M7037.8,-165.92C6899.96,-164.86 6690.58,-163.25 6549.35,-162.16"/>
<polygon fill="black" stroke="black" points="6549.33,-158.66 6539.3,-162.08 6549.27,-165.66 6549.33,-158.66"/>
</g>
<!-- b31&#45;&gt;b22 -->
<g id="edge45" class="edge">
<title>b31&#45;&gt;b22</title>
<path fill="none" stroke="black" d="M6646.95,-26C6490.77,-26 6231.11,-26 6007.5,-26 5223.5,-26 5223.5,-26 5223.5,-26 4885.9,-26 4567.92,-352.02 4472.46,-459.26"/>
<polygon fill="black" stroke="black" points="4469.71,-457.08 4465.71,-466.89 4474.96,-461.72 4469.71,-457.08"/>
</g>
<!-- b33&#45;&gt;b36 -->
<g id="edge46" class="edge">
<title>b33&#45;&gt;b36</title>
<path fill="none" stroke="black" d="M5757.3,-433.18C5895.18,-446.08 6104.56,-465.68 6245.76,-478.89"/>
<polygon fill="black" stroke="black" points="6245.52,-482.39 6255.8,-479.83 6246.17,-475.42 6245.52,-482.39"/>
</g>
<!-- b34&#45;&gt;b36 -->
<g id="edge47" class="edge">
<title>b34&#45;&gt;b36</title>
<path fill="none" stroke="black" d="M5366.22,-549.37C5547.17,-541.88 5871.11,-527.63 6148,-511 6179.56,-509.1 6213.35,-506.82 6245.53,-504.53"/>
<polygon fill="black" stroke="black" points="6246.2,-508 6255.92,-503.79 6245.7,-501.01 6246.2,-508"/>
</g>
<!-- b35&#45;&gt;b36 -->
<g id="edge48" class="edge">
<title>b35&#45;&gt;b36</title>
<path fill="none" stroke="black" d="M4975.42,-665.36C5217.48,-665.22 5726.86,-654.13 6148,-573 6207.46,-561.55 6272.53,-540.26 6321.17,-522.52"/>
<polygon fill="black" stroke="black" points="6322.49,-525.77 6330.67,-519.03 6320.08,-519.2 6322.49,-525.77"/>
</g>
<!-- b37&#45;&gt;b38 -->
<g id="edge49" class="edge">
<title>b37&#45;&gt;b38</title>
<path fill="none" stroke="black" d="M2238.3,-290C2376.18,-290 2585.56,-290 2726.76,-290"/>
<polygon fill="black" stroke="black" points="2726.8,-293.5 2736.8,-290 2726.8,-286.5 2726.8,-293.5"/>
</g>
</g>
</svg>
