<?xml version="1.0" encoding="UTF-8" standalone="no"?>
<!DOCTYPE svg PUBLIC "-//W3C//DTD SVG 1.1//EN"
 "http://www.w3.org/Graphics/SVG/1.1/DTD/svg11.dtd">
<!-- Generated by graphviz version 2.44.0 (0)
 -->
<!-- Title: CFG_102 Pages: 1 -->
<svg width="7329pt" height="909pt"
 viewBox="0.00 0.00 7329.00 909.00" xmlns="http://www.w3.org/2000/svg" xmlns:xlink="http://www.w3.org/1999/xlink">
<g id="graph0" class="graph" transform="scale(1 1) rotate(0) translate(4 905)">
<title>CFG_102</title>
<polygon fill="white" stroke="transparent" points="-4,4 -4,-905 7325,-905 7325,4 -4,4"/>
<text text-anchor="middle" x="242.5" y="-881" font-family="Times-Roman" font-size="20.00">159&#45;LoopBenchmarks.sieveLoop(boolean[], int)</text>
<!-- b0 -->
<g id="node1" class="node">
<title>b0</title>
<polygon fill="white" stroke="black" points="283,-249 0,-249 0,-197 283,-197 283,-249"/>
<text text-anchor="middle" x="141.5" y="-237" font-family="Helvetica" font-size="10.00">B0</text>
<text text-anchor="middle" x="141.5" y="-226" font-family="Helvetica" font-size="10.00">Loop: &lt;none&gt;</text>
<text text-anchor="middle" x="141.5" y="-215" font-family="Helvetica" font-size="10.00">&#45;&#45;&#45;</text>
<text text-anchor="middle" x="141.5" y="-204" font-family="Helvetica" font-size="10.00">HotSpotMethod&lt;LoopBenchmarks.sieveLoop(boolean[], int)&gt;</text>
</g>
<!-- b1 -->
<g id="node2" class="node">
<title>b1</title>
<polygon fill="white" stroke="black" points="674,-311 391,-311 391,-259 674,-259 674,-311"/>
<text text-anchor="middle" x="532.5" y="-299" font-family="Helvetica" font-size="10.00">B1</text>
<text text-anchor="middle" x="532.5" y="-288" font-family="Helvetica" font-size="10.00">Loop: &lt;none&gt;</text>
<text text-anchor="middle" x="532.5" y="-277" font-family="Helvetica" font-size="10.00">&#45;&#45;&#45;</text>
<text text-anchor="middle" x="532.5" y="-266" font-family="Helvetica" font-size="10.00">HotSpotMethod&lt;LoopBenchmarks.sieveLoop(boolean[], int)&gt;</text>
</g>
<!-- b0&#45;&gt;b1 -->
<g id="edge1" class="edge">
<title>b0&#45;&gt;b1</title>
<path fill="none" stroke="black" d="M283.21,-245.43C314.95,-250.49 348.76,-255.88 380.89,-261"/>
<polygon fill="black" stroke="black" points="380.38,-264.46 390.8,-262.58 381.48,-257.54 380.38,-264.46"/>
</g>
<!-- b2 -->
<g id="node3" class="node">
<title>b2</title>
<polygon fill="white" stroke="black" points="674,-187 391,-187 391,-135 674,-135 674,-187"/>
<text text-anchor="middle" x="532.5" y="-175" font-family="Helvetica" font-size="10.00">B2</text>
<text text-anchor="middle" x="532.5" y="-164" font-family="Helvetica" font-size="10.00">Loop: &lt;none&gt;</text>
<text text-anchor="middle" x="532.5" y="-153" font-family="Helvetica" font-size="10.00">&#45;&#45;&#45;</text>
<text text-anchor="middle" x="532.5" y="-142" font-family="Helvetica" font-size="10.00">HotSpotMethod&lt;LoopBenchmarks.sieveLoop(boolean[], int)&gt;</text>
</g>
<!-- b0&#45;&gt;b2 -->
<g id="edge2" class="edge">
<title>b0&#45;&gt;b2</title>
<path fill="none" stroke="black" d="M283.21,-200.57C314.95,-195.51 348.76,-190.12 380.89,-185"/>
<polygon fill="black" stroke="black" points="381.48,-188.46 390.8,-183.42 380.38,-181.54 381.48,-188.46"/>
</g>
<!-- b3 -->
<g id="node4" class="node">
<title>b3</title>
<polygon fill="white" stroke="black" points="1065,-249 782,-249 782,-197 1065,-197 1065,-249"/>
<text text-anchor="middle" x="923.5" y="-237" font-family="Helvetica" font-size="10.00">B3</text>
<text text-anchor="middle" x="923.5" y="-226" font-family="Helvetica" font-size="10.00">Loop: &lt;none&gt;</text>
<text text-anchor="middle" x="923.5" y="-215" font-family="Helvetica" font-size="10.00">&#45;&#45;&#45;</text>
<text text-anchor="middle" x="923.5" y="-204" font-family="Helvetica" font-size="10.00">HotSpotMethod&lt;LoopBenchmarks.sieveLoop(boolean[], int)&gt;</text>
</g>
<!-- b1&#45;&gt;b3 -->
<g id="edge3" class="edge">
<title>b1&#45;&gt;b3</title>
<path fill="none" stroke="black" d="M674.21,-262.57C705.95,-257.51 739.76,-252.12 771.89,-247"/>
<polygon fill="black" stroke="black" points="772.48,-250.46 781.8,-245.42 771.38,-243.54 772.48,-250.46"/>
</g>
<!-- b2&#45;&gt;b3 -->
<g id="edge4" class="edge">
<title>b2&#45;&gt;b3</title>
<path fill="none" stroke="black" d="M674.21,-183.43C705.95,-188.49 739.76,-193.88 771.89,-199"/>
<polygon fill="black" stroke="black" points="771.38,-202.46 781.8,-200.58 772.48,-195.54 771.38,-202.46"/>
</g>
<!-- b5 -->
<g id="node6" class="node">
<title>b5</title>
<polygon fill="white" stroke="black" points="1456,-58 1173,-58 1173,-6 1456,-6 1456,-58"/>
<text text-anchor="middle" x="1314.5" y="-46" font-family="Helvetica" font-size="10.00">B5</text>
<text text-anchor="middle" x="1314.5" y="-35" font-family="Helvetica" font-size="10.00">Loop: &lt;none&gt;</text>
<text text-anchor="middle" x="1314.5" y="-24" font-family="Helvetica" font-size="10.00">&#45;&#45;&#45;</text>
<text text-anchor="middle" x="1314.5" y="-13" font-family="Helvetica" font-size="10.00">HotSpotMethod&lt;LoopBenchmarks.sieveLoop(boolean[], int)&gt;</text>
</g>
<!-- b3&#45;&gt;b5 -->
<g id="edge6" class="edge">
<title>b3&#45;&gt;b5</title>
<path fill="none" stroke="black" d="M972.61,-196.87C1022.34,-170.14 1102.44,-127.84 1173,-94 1195.51,-83.21 1220.34,-72.01 1242.8,-62.16"/>
<polygon fill="black" stroke="black" points="1244.5,-65.24 1252.26,-58.02 1241.69,-58.82 1244.5,-65.24"/>
</g>
<!-- b7 -->
<g id="node8" class="node">
<title>b7</title>
<polygon fill="white" stroke="black" points="1847,-306 1564,-306 1564,-254 1847,-254 1847,-306"/>
<text text-anchor="middle" x="1705.5" y="-294" font-family="Helvetica" font-size="10.00">B7</text>
<text text-anchor="middle" x="1705.5" y="-283" font-family="Helvetica" font-size="10.00">Loop: &lt;none&gt;</text>
<text text-anchor="middle" x="1705.5" y="-272" font-family="Helvetica" font-size="10.00">&#45;&#45;&#45;</text>
<text text-anchor="middle" x="1705.5" y="-261" font-family="Helvetica" font-size="10.00">HotSpotMethod&lt;LoopBenchmarks.sieveLoop(boolean[], int)&gt;</text>
</g>
<!-- b3&#45;&gt;b7 -->
<g id="edge5" class="edge">
<title>b3&#45;&gt;b7</title>
<path fill="none" stroke="black" d="M964.62,-249.21C1012.1,-278.52 1094.63,-324.2 1173,-342 1325.86,-376.71 1508.12,-338.73 1614.61,-308.8"/>
<polygon fill="black" stroke="black" points="1615.7,-312.13 1624.36,-306.03 1613.78,-305.4 1615.7,-312.13"/>
</g>
<!-- b4 -->
<g id="node5" class="node">
<title>b4</title>
<polygon fill="white" stroke="black" points="1456,-306 1173,-306 1173,-254 1456,-254 1456,-306"/>
<text text-anchor="middle" x="1314.5" y="-294" font-family="Helvetica" font-size="10.00">B4</text>
<text text-anchor="middle" x="1314.5" y="-283" font-family="Helvetica" font-size="10.00">Loop: &lt;none&gt;</text>
<text text-anchor="middle" x="1314.5" y="-272" font-family="Helvetica" font-size="10.00">&#45;&#45;&#45;</text>
<text text-anchor="middle" x="1314.5" y="-261" font-family="Helvetica" font-size="10.00">HotSpotMethod&lt;LoopBenchmarks.sieveLoop(boolean[], int)&gt;</text>
</g>
<!-- b4&#45;&gt;b7 -->
<g id="edge7" class="edge">
<title>b4&#45;&gt;b7</title>
<path fill="none" stroke="black" d="M1456.21,-280C1487.81,-280 1521.47,-280 1553.48,-280"/>
<polygon fill="black" stroke="black" points="1553.8,-283.5 1563.8,-280 1553.8,-276.5 1553.8,-283.5"/>
</g>
<!-- b5&#45;&gt;b7 -->
<g id="edge8" class="edge">
<title>b5&#45;&gt;b7</title>
<path fill="none" stroke="black" d="M1382.79,-58.02C1406.51,-68.14 1432.98,-80.54 1456,-94 1535.38,-140.41 1619.34,-207.58 1666.51,-247.22"/>
<polygon fill="black" stroke="black" points="1664.42,-250.04 1674.32,-253.82 1668.94,-244.69 1664.42,-250.04"/>
</g>
<!-- b37 -->
<g id="node38" class="node">
<title>b37</title>
<polygon fill="white" stroke="black" points="2238,-53 1955,-53 1955,-1 2238,-1 2238,-53"/>
<text text-anchor="middle" x="2096.5" y="-41" font-family="Helvetica" font-size="10.00">B37</text>
<text text-anchor="middle" x="2096.5" y="-30" font-family="Helvetica" font-size="10.00">Loop: &lt;none&gt;</text>
<text text-anchor="middle" x="2096.5" y="-19" font-family="Helvetica" font-size="10.00">&#45;&#45;&#45;</text>
<text text-anchor="middle" x="2096.5" y="-8" font-family="Helvetica" font-size="10.00">HotSpotMethod&lt;LoopBenchmarks.sieveLoop(boolean[], int)&gt;</text>
</g>
<!-- b5&#45;&gt;b37 -->
<g id="edge9" class="edge">
<title>b5&#45;&gt;b37</title>
<path fill="none" stroke="black" d="M1456.3,-31.1C1594.18,-30.21 1803.56,-28.87 1944.76,-27.97"/>
<polygon fill="black" stroke="black" points="1944.83,-31.47 1954.8,-27.9 1944.78,-24.47 1944.83,-31.47"/>
</g>
<!-- b6 -->
<g id="node7" class="node">
<title>b6</title>
<polygon fill="white" stroke="black" points="1456,-182 1173,-182 1173,-130 1456,-130 1456,-182"/>
<text text-anchor="middle" x="1314.5" y="-170" font-family="Helvetica" font-size="10.00">B6</text>
<text text-anchor="middle" x="1314.5" y="-159" font-family="Helvetica" font-size="10.00">Loop: &lt;none&gt;</text>
<text text-anchor="middle" x="1314.5" y="-148" font-family="Helvetica" font-size="10.00">&#45;&#45;&#45;</text>
<text text-anchor="middle" x="1314.5" y="-137" font-family="Helvetica" font-size="10.00">HotSpotMethod&lt;LoopBenchmarks.sieveLoop(boolean[], int)&gt;</text>
</g>
<!-- b6&#45;&gt;b7 -->
<g id="edge10" class="edge">
<title>b6&#45;&gt;b7</title>
<path fill="none" stroke="black" d="M1397.52,-182.15C1460.6,-202.25 1547.72,-230.02 1613.04,-250.85"/>
<polygon fill="black" stroke="black" points="1612.33,-254.29 1622.92,-254 1614.46,-247.62 1612.33,-254.29"/>
</g>
<!-- b8 -->
<g id="node9" class="node">
<title>b8</title>
<polygon fill="white" stroke="black" points="2238,-306 1955,-306 1955,-254 2238,-254 2238,-306"/>
<text text-anchor="middle" x="2096.5" y="-294" font-family="Helvetica" font-size="10.00">B8</text>
<text text-anchor="middle" x="2096.5" y="-283" font-family="Helvetica" font-size="10.00">Loop: &lt;none&gt;</text>
<text text-anchor="middle" x="2096.5" y="-272" font-family="Helvetica" font-size="10.00">&#45;&#45;&#45;</text>
<text text-anchor="middle" x="2096.5" y="-261" font-family="Helvetica" font-size="10.00">HotSpotMethod&lt;LoopBenchmarks.sieveLoop(boolean[], int)&gt;</text>
</g>
<!-- b7&#45;&gt;b8 -->
<g id="edge11" class="edge">
<title>b7&#45;&gt;b8</title>
<path fill="none" stroke="black" d="M1847.21,-280C1878.81,-280 1912.47,-280 1944.48,-280"/>
<polygon fill="black" stroke="black" points="1944.8,-283.5 1954.8,-280 1944.8,-276.5 1944.8,-283.5"/>
</g>
<!-- b21 -->
<g id="node22" class="node">
<title>b21</title>
<polygon fill="white" stroke="black" points="4193,-539 3910,-539 3910,-487 4193,-487 4193,-539"/>
<text text-anchor="middle" x="4051.5" y="-527" font-family="Helvetica" font-size="10.00">B21</text>
<text text-anchor="middle" x="4051.5" y="-516" font-family="Helvetica" font-size="10.00">Loop: &lt;none&gt;</text>
<text text-anchor="middle" x="4051.5" y="-505" font-family="Helvetica" font-size="10.00">&#45;&#45;&#45;</text>
<text text-anchor="middle" x="4051.5" y="-494" font-family="Helvetica" font-size="10.00">HotSpotMethod&lt;LoopBenchmarks.sieveLoop(boolean[], int)&gt;</text>
</g>
<!-- b7&#45;&gt;b21 -->
<g id="edge12" class="edge">
<title>b7&#45;&gt;b21</title>
<path fill="none" stroke="black" d="M1733.61,-306.18C1828.54,-394.95 2157.95,-679 2486.5,-679 2486.5,-679 2486.5,-679 3270.5,-679 3508.94,-679 3570.81,-664.37 3802,-606 3864.73,-590.16 3933.42,-563.71 3982.66,-543.06"/>
<polygon fill="black" stroke="black" points="3984.08,-546.26 3991.93,-539.14 3981.36,-539.81 3984.08,-546.26"/>
</g>
<!-- b9 -->
<g id="node10" class="node">
<title>b9</title>
<polygon fill="white" stroke="black" points="2629,-311 2346,-311 2346,-259 2629,-259 2629,-311"/>
<text text-anchor="middle" x="2487.5" y="-299" font-family="Helvetica" font-size="10.00">B9</text>
<text text-anchor="middle" x="2487.5" y="-288" font-family="Helvetica" font-size="10.00">Loop: &lt;none&gt;</text>
<text text-anchor="middle" x="2487.5" y="-277" font-family="Helvetica" font-size="10.00">&#45;&#45;&#45;</text>
<text text-anchor="middle" x="2487.5" y="-266" font-family="Helvetica" font-size="10.00">HotSpotMethod&lt;LoopBenchmarks.sieveLoop(boolean[], int)&gt;</text>
</g>
<!-- b8&#45;&gt;b9 -->
<g id="edge13" class="edge">
<title>b8&#45;&gt;b9</title>
<path fill="none" stroke="black" d="M2238.21,-281.81C2269.81,-282.21 2303.47,-282.65 2335.48,-283.06"/>
<polygon fill="black" stroke="black" points="2335.76,-286.56 2345.8,-283.19 2335.85,-279.56 2335.76,-286.56"/>
</g>
<!-- b19 -->
<g id="node20" class="node">
<title>b19</title>
<polygon fill="white" stroke="black" points="2629,-187 2346,-187 2346,-135 2629,-135 2629,-187"/>
<text text-anchor="middle" x="2487.5" y="-175" font-family="Helvetica" font-size="10.00">B19</text>
<text text-anchor="middle" x="2487.5" y="-164" font-family="Helvetica" font-size="10.00">Loop: &lt;none&gt;</text>
<text text-anchor="middle" x="2487.5" y="-153" font-family="Helvetica" font-size="10.00">&#45;&#45;&#45;</text>
<text text-anchor="middle" x="2487.5" y="-142" font-family="Helvetica" font-size="10.00">HotSpotMethod&lt;LoopBenchmarks.sieveLoop(boolean[], int)&gt;</text>
</g>
<!-- b8&#45;&gt;b19 -->
<g id="edge14" class="edge">
<title>b8&#45;&gt;b19</title>
<path fill="none" stroke="black" d="M2182.87,-253.88C2244.56,-235.01 2327.91,-209.52 2391.67,-190.01"/>
<polygon fill="black" stroke="black" points="2392.79,-193.33 2401.33,-187.05 2390.74,-186.63 2392.79,-193.33"/>
</g>
<!-- b10 -->
<g id="node11" class="node">
<title>b10</title>
<polygon fill="white" stroke="black" points="3020,-353 2737,-353 2737,-301 3020,-301 3020,-353"/>
<text text-anchor="middle" x="2878.5" y="-341" font-family="Helvetica" font-size="10.00">B10</text>
<text text-anchor="middle" x="2878.5" y="-330" font-family="Helvetica" font-size="10.00">Loop: &lt;none&gt;</text>
<text text-anchor="middle" x="2878.5" y="-319" font-family="Helvetica" font-size="10.00">&#45;&#45;&#45;</text>
<text text-anchor="middle" x="2878.5" y="-308" font-family="Helvetica" font-size="10.00">HotSpotMethod&lt;LoopBenchmarks.sieveLoop(boolean[], int)&gt;</text>
</g>
<!-- b9&#45;&gt;b10 -->
<g id="edge15" class="edge">
<title>b9&#45;&gt;b10</title>
<path fill="none" stroke="black" d="M2629.21,-300.19C2660.81,-303.6 2694.47,-307.24 2726.48,-310.69"/>
<polygon fill="black" stroke="black" points="2726.49,-314.22 2736.8,-311.81 2727.24,-307.26 2726.49,-314.22"/>
</g>
<!-- b9&#45;&gt;b21 -->
<g id="edge16" class="edge">
<title>b9&#45;&gt;b21</title>
<path fill="none" stroke="black" d="M2566.69,-258.98C2777.48,-193.53 3370.71,-40.58 3802,-234 3914.87,-284.62 3997.48,-414.66 4032.28,-477.69"/>
<polygon fill="black" stroke="black" points="4029.41,-479.74 4037.26,-486.85 4035.56,-476.39 4029.41,-479.74"/>
</g>
<!-- b11 -->
<g id="node12" class="node">
<title>b11</title>
<polygon fill="white" stroke="black" points="3411,-539 3128,-539 3128,-487 3411,-487 3411,-539"/>
<text text-anchor="middle" x="3269.5" y="-527" font-family="Helvetica" font-size="10.00">B11</text>
<text text-anchor="middle" x="3269.5" y="-516" font-family="Helvetica" font-size="10.00">Loop: &lt;none&gt;</text>
<text text-anchor="middle" x="3269.5" y="-505" font-family="Helvetica" font-size="10.00">&#45;&#45;&#45;</text>
<text text-anchor="middle" x="3269.5" y="-494" font-family="Helvetica" font-size="10.00">HotSpotMethod&lt;LoopBenchmarks.sieveLoop(boolean[], int)&gt;</text>
</g>
<!-- b10&#45;&gt;b11 -->
<g id="edge17" class="edge">
<title>b10&#45;&gt;b11</title>
<path fill="none" stroke="black" d="M2934,-353.06C3005.08,-387.05 3129.24,-446.41 3204.66,-482.47"/>
<polygon fill="black" stroke="black" points="3203.53,-485.81 3214.06,-486.97 3206.55,-479.5 3203.53,-485.81"/>
</g>
<!-- b17 -->
<g id="node18" class="node">
<title>b17</title>
<polygon fill="white" stroke="black" points="3411,-353 3128,-353 3128,-301 3411,-301 3411,-353"/>
<text text-anchor="middle" x="3269.5" y="-341" font-family="Helvetica" font-size="10.00">B17</text>
<text text-anchor="middle" x="3269.5" y="-330" font-family="Helvetica" font-size="10.00">Loop: &lt;none&gt;</text>
<text text-anchor="middle" x="3269.5" y="-319" font-family="Helvetica" font-size="10.00">&#45;&#45;&#45;</text>
<text text-anchor="middle" x="3269.5" y="-308" font-family="Helvetica" font-size="10.00">HotSpotMethod&lt;LoopBenchmarks.sieveLoop(boolean[], int)&gt;</text>
</g>
<!-- b10&#45;&gt;b17 -->
<g id="edge18" class="edge">
<title>b10&#45;&gt;b17</title>
<path fill="none" stroke="black" d="M3020.21,-327C3051.81,-327 3085.47,-327 3117.48,-327"/>
<polygon fill="black" stroke="black" points="3117.8,-330.5 3127.8,-327 3117.8,-323.5 3117.8,-330.5"/>
</g>
<!-- b12 -->
<g id="node13" class="node">
<title>b12</title>
<polygon fill="lightblue" stroke="black" points="3802,-840 3519,-840 3519,-788 3802,-788 3802,-840"/>
<text text-anchor="middle" x="3660.5" y="-828" font-family="Helvetica" font-size="10.00">B12</text>
<text text-anchor="middle" x="3660.5" y="-817" font-family="Helvetica" font-size="10.00">Loop: L0</text>
<text text-anchor="middle" x="3660.5" y="-806" font-family="Helvetica" font-size="10.00">&#45;&#45;&#45;</text>
<text text-anchor="middle" x="3660.5" y="-795" font-family="Helvetica" font-size="10.00">HotSpotMethod&lt;LoopBenchmarks.sieveLoop(boolean[], int)&gt;</text>
</g>
<!-- b11&#45;&gt;b12 -->
<g id="edge19" class="edge">
<title>b11&#45;&gt;b12</title>
<path fill="none" stroke="black" d="M3304.34,-539.19C3375.41,-594.18 3540.03,-721.56 3617.61,-781.59"/>
<polygon fill="black" stroke="black" points="3615.69,-784.52 3625.74,-787.88 3619.97,-778.99 3615.69,-784.52"/>
</g>
<!-- b13 -->
<g id="node14" class="node">
<title>b13</title>
<polygon fill="lightblue" stroke="black" points="4193,-871 3910,-871 3910,-819 4193,-819 4193,-871"/>
<text text-anchor="middle" x="4051.5" y="-859" font-family="Helvetica" font-size="10.00">B13</text>
<text text-anchor="middle" x="4051.5" y="-848" font-family="Helvetica" font-size="10.00">Loop: L0</text>
<text text-anchor="middle" x="4051.5" y="-837" font-family="Helvetica" font-size="10.00">&#45;&#45;&#45;</text>
<text text-anchor="middle" x="4051.5" y="-826" font-family="Helvetica" font-size="10.00">HotSpotMethod&lt;LoopBenchmarks.sieveLoop(boolean[], int)&gt;</text>
</g>
<!-- b12&#45;&gt;b13 -->
<g id="edge20" class="edge">
<title>b12&#45;&gt;b13</title>
<path fill="none" stroke="black" d="M3802.21,-825.21C3833.81,-827.73 3867.47,-830.41 3899.48,-832.96"/>
<polygon fill="black" stroke="black" points="3899.56,-836.48 3909.8,-833.79 3900.11,-829.5 3899.56,-836.48"/>
</g>
<!-- b12&#45;&gt;b21 -->
<g id="edge21" class="edge">
<title>b12&#45;&gt;b21</title>
<path fill="none" stroke="black" d="M3713.15,-787.95C3740.42,-773.38 3773.95,-754.12 3802,-734 3884.88,-674.55 3971.71,-591.9 4017.57,-546.39"/>
<polygon fill="black" stroke="black" points="4020.23,-548.68 4024.84,-539.14 4015.29,-543.72 4020.23,-548.68"/>
</g>
<!-- b14 -->
<g id="node15" class="node">
<title>b14</title>
<polygon fill="lightblue" stroke="black" points="4584,-742 4301,-742 4301,-690 4584,-690 4584,-742"/>
<text text-anchor="middle" x="4442.5" y="-730" font-family="Helvetica" font-size="10.00">B14</text>
<text text-anchor="middle" x="4442.5" y="-719" font-family="Helvetica" font-size="10.00">Loop: L0</text>
<text text-anchor="middle" x="4442.5" y="-708" font-family="Helvetica" font-size="10.00">&#45;&#45;&#45;</text>
<text text-anchor="middle" x="4442.5" y="-697" font-family="Helvetica" font-size="10.00">HotSpotMethod&lt;LoopBenchmarks.sieveLoop(boolean[], int)&gt;</text>
</g>
<!-- b13&#45;&gt;b14 -->
<g id="edge22" class="edge">
<title>b13&#45;&gt;b14</title>
<path fill="none" stroke="black" d="M4131.22,-818.89C4195.55,-797.56 4286.44,-767.42 4353.22,-745.27"/>
<polygon fill="black" stroke="black" points="4354.51,-748.54 4362.9,-742.07 4352.3,-741.89 4354.51,-748.54"/>
</g>
<!-- b16 -->
<g id="node17" class="node">
<title>b16</title>
<polygon fill="white" stroke="black" points="4584,-871 4301,-871 4301,-819 4584,-819 4584,-871"/>
<text text-anchor="middle" x="4442.5" y="-859" font-family="Helvetica" font-size="10.00">B16</text>
<text text-anchor="middle" x="4442.5" y="-848" font-family="Helvetica" font-size="10.00">Loop: &lt;none&gt;</text>
<text text-anchor="middle" x="4442.5" y="-837" font-family="Helvetica" font-size="10.00">&#45;&#45;&#45;</text>
<text text-anchor="middle" x="4442.5" y="-826" font-family="Helvetica" font-size="10.00">HotSpotMethod&lt;LoopBenchmarks.sieveLoop(boolean[], int)&gt;</text>
</g>
<!-- b13&#45;&gt;b16 -->
<g id="edge23" class="edge">
<title>b13&#45;&gt;b16</title>
<path fill="none" stroke="black" d="M4193.21,-845C4224.81,-845 4258.47,-845 4290.48,-845"/>
<polygon fill="black" stroke="black" points="4290.8,-848.5 4300.8,-845 4290.8,-841.5 4290.8,-848.5"/>
</g>
<!-- b14&#45;&gt;b12 -->
<g id="edge24" class="edge">
<title>b14&#45;&gt;b12</title>
<path fill="none" stroke="black" d="M4300.8,-733.68C4162.96,-751 3953.58,-777.3 3812.35,-795.05"/>
<polygon fill="black" stroke="black" points="3811.79,-791.59 3802.3,-796.31 3812.66,-798.54 3811.79,-791.59"/>
</g>
<!-- b15 -->
<g id="node16" class="node">
<title>b15</title>
<polygon fill="white" stroke="black" points="3802,-570 3519,-570 3519,-518 3802,-518 3802,-570"/>
<text text-anchor="middle" x="3660.5" y="-558" font-family="Helvetica" font-size="10.00">B15</text>
<text text-anchor="middle" x="3660.5" y="-547" font-family="Helvetica" font-size="10.00">Loop: &lt;none&gt;</text>
<text text-anchor="middle" x="3660.5" y="-536" font-family="Helvetica" font-size="10.00">&#45;&#45;&#45;</text>
<text text-anchor="middle" x="3660.5" y="-525" font-family="Helvetica" font-size="10.00">HotSpotMethod&lt;LoopBenchmarks.sieveLoop(boolean[], int)&gt;</text>
</g>
<!-- b15&#45;&gt;b21 -->
<g id="edge25" class="edge">
<title>b15&#45;&gt;b21</title>
<path fill="none" stroke="black" d="M3802.21,-532.79C3833.81,-530.27 3867.47,-527.59 3899.48,-525.04"/>
<polygon fill="black" stroke="black" points="3900.11,-528.5 3909.8,-524.21 3899.56,-521.52 3900.11,-528.5"/>
</g>
<!-- b18 -->
<g id="node19" class="node">
<title>b18</title>
<polygon fill="white" stroke="black" points="3802,-446 3519,-446 3519,-394 3802,-394 3802,-446"/>
<text text-anchor="middle" x="3660.5" y="-434" font-family="Helvetica" font-size="10.00">B18</text>
<text text-anchor="middle" x="3660.5" y="-423" font-family="Helvetica" font-size="10.00">Loop: &lt;none&gt;</text>
<text text-anchor="middle" x="3660.5" y="-412" font-family="Helvetica" font-size="10.00">&#45;&#45;&#45;</text>
<text text-anchor="middle" x="3660.5" y="-401" font-family="Helvetica" font-size="10.00">HotSpotMethod&lt;LoopBenchmarks.sieveLoop(boolean[], int)&gt;</text>
</g>
<!-- b18&#45;&gt;b21 -->
<g id="edge26" class="edge">
<title>b18&#45;&gt;b21</title>
<path fill="none" stroke="black" d="M3770.38,-446.03C3820.63,-458.04 3880.41,-472.34 3931.82,-484.63"/>
<polygon fill="black" stroke="black" points="3931.11,-488.06 3941.65,-486.98 3932.74,-481.25 3931.11,-488.06"/>
</g>
<!-- b38 -->
<g id="node39" class="node">
<title>b38</title>
<polygon fill="white" stroke="black" points="3020,-52 2737,-52 2737,0 3020,0 3020,-52"/>
<text text-anchor="middle" x="2878.5" y="-40" font-family="Helvetica" font-size="10.00">B38</text>
<text text-anchor="middle" x="2878.5" y="-29" font-family="Helvetica" font-size="10.00">Loop: &lt;none&gt;</text>
<text text-anchor="middle" x="2878.5" y="-18" font-family="Helvetica" font-size="10.00">&#45;&#45;&#45;</text>
<text text-anchor="middle" x="2878.5" y="-7" font-family="Helvetica" font-size="10.00">HotSpotMethod&lt;LoopBenchmarks.sieveLoop(boolean[], int)&gt;</text>
</g>
<!-- b19&#45;&gt;b38 -->
<g id="edge27" class="edge">
<title>b19&#45;&gt;b38</title>
<path fill="none" stroke="black" d="M2563.5,-134.97C2629.19,-112.18 2724.55,-79.08 2792.93,-55.35"/>
<polygon fill="black" stroke="black" points="2794.1,-58.65 2802.4,-52.06 2791.8,-52.04 2794.1,-58.65"/>
</g>
<!-- b20 -->
<g id="node21" class="node">
<title>b20</title>
<polygon fill="white" stroke="black" points="3802,-322 3519,-322 3519,-270 3802,-270 3802,-322"/>
<text text-anchor="middle" x="3660.5" y="-310" font-family="Helvetica" font-size="10.00">B20</text>
<text text-anchor="middle" x="3660.5" y="-299" font-family="Helvetica" font-size="10.00">Loop: &lt;none&gt;</text>
<text text-anchor="middle" x="3660.5" y="-288" font-family="Helvetica" font-size="10.00">&#45;&#45;&#45;</text>
<text text-anchor="middle" x="3660.5" y="-277" font-family="Helvetica" font-size="10.00">HotSpotMethod&lt;LoopBenchmarks.sieveLoop(boolean[], int)&gt;</text>
</g>
<!-- b20&#45;&gt;b21 -->
<g id="edge28" class="edge">
<title>b20&#45;&gt;b21</title>
<path fill="none" stroke="black" d="M3725.71,-322.05C3749.97,-332.49 3777.61,-345.1 3802,-358 3874.71,-396.47 3954.77,-448.22 4003.85,-481.1"/>
<polygon fill="black" stroke="black" points="4002.09,-484.14 4012.34,-486.82 4006,-478.33 4002.09,-484.14"/>
</g>
<!-- b22 -->
<g id="node23" class="node">
<title>b22</title>
<polygon fill="lightgreen" stroke="black" points="4584,-539 4301,-539 4301,-487 4584,-487 4584,-539"/>
<text text-anchor="middle" x="4442.5" y="-527" font-family="Helvetica" font-size="10.00">B22</text>
<text text-anchor="middle" x="4442.5" y="-516" font-family="Helvetica" font-size="10.00">Loop: L1</text>
<text text-anchor="middle" x="4442.5" y="-505" font-family="Helvetica" font-size="10.00">&#45;&#45;&#45;</text>
<text text-anchor="middle" x="4442.5" y="-494" font-family="Helvetica" font-size="10.00">HotSpotMethod&lt;LoopBenchmarks.sieveLoop(boolean[], int)&gt;</text>
</g>
<!-- b21&#45;&gt;b22 -->
<g id="edge29" class="edge">
<title>b21&#45;&gt;b22</title>
<path fill="none" stroke="black" d="M4193.21,-513C4224.81,-513 4258.47,-513 4290.48,-513"/>
<polygon fill="black" stroke="black" points="4290.8,-516.5 4300.8,-513 4290.8,-509.5 4290.8,-516.5"/>
</g>
<!-- b23 -->
<g id="node24" class="node">
<title>b23</title>
<polygon fill="lightgreen" stroke="black" points="4975,-601 4692,-601 4692,-549 4975,-549 4975,-601"/>
<text text-anchor="middle" x="4833.5" y="-589" font-family="Helvetica" font-size="10.00">B23</text>
<text text-anchor="middle" x="4833.5" y="-578" font-family="Helvetica" font-size="10.00">Loop: L1</text>
<text text-anchor="middle" x="4833.5" y="-567" font-family="Helvetica" font-size="10.00">&#45;&#45;&#45;</text>
<text text-anchor="middle" x="4833.5" y="-556" font-family="Helvetica" font-size="10.00">HotSpotMethod&lt;LoopBenchmarks.sieveLoop(boolean[], int)&gt;</text>
</g>
<!-- b22&#45;&gt;b23 -->
<g id="edge30" class="edge">
<title>b22&#45;&gt;b23</title>
<path fill="none" stroke="black" d="M4584.21,-535.43C4615.95,-540.49 4649.76,-545.88 4681.89,-551"/>
<polygon fill="black" stroke="black" points="4681.38,-554.46 4691.8,-552.58 4682.48,-547.54 4681.38,-554.46"/>
</g>
<!-- b35 -->
<g id="node36" class="node">
<title>b35</title>
<polygon fill="white" stroke="black" points="4975,-466 4692,-466 4692,-414 4975,-414 4975,-466"/>
<text text-anchor="middle" x="4833.5" y="-454" font-family="Helvetica" font-size="10.00">B35</text>
<text text-anchor="middle" x="4833.5" y="-443" font-family="Helvetica" font-size="10.00">Loop: &lt;none&gt;</text>
<text text-anchor="middle" x="4833.5" y="-432" font-family="Helvetica" font-size="10.00">&#45;&#45;&#45;</text>
<text text-anchor="middle" x="4833.5" y="-421" font-family="Helvetica" font-size="10.00">HotSpotMethod&lt;LoopBenchmarks.sieveLoop(boolean[], int)&gt;</text>
</g>
<!-- b22&#45;&gt;b35 -->
<g id="edge31" class="edge">
<title>b22&#45;&gt;b35</title>
<path fill="none" stroke="black" d="M4582.29,-486.95C4615.11,-480.79 4650.25,-474.2 4683.51,-467.96"/>
<polygon fill="black" stroke="black" points="4684.58,-471.32 4693.76,-466.04 4683.29,-464.44 4684.58,-471.32"/>
</g>
<!-- b24 -->
<g id="node25" class="node">
<title>b24</title>
<polygon fill="lightgreen" stroke="black" points="5366,-725 5083,-725 5083,-673 5366,-673 5366,-725"/>
<text text-anchor="middle" x="5224.5" y="-713" font-family="Helvetica" font-size="10.00">B24</text>
<text text-anchor="middle" x="5224.5" y="-702" font-family="Helvetica" font-size="10.00">Loop: L1</text>
<text text-anchor="middle" x="5224.5" y="-691" font-family="Helvetica" font-size="10.00">&#45;&#45;&#45;</text>
<text text-anchor="middle" x="5224.5" y="-680" font-family="Helvetica" font-size="10.00">HotSpotMethod&lt;LoopBenchmarks.sieveLoop(boolean[], int)&gt;</text>
</g>
<!-- b23&#45;&gt;b24 -->
<g id="edge32" class="edge">
<title>b23&#45;&gt;b24</title>
<path fill="none" stroke="black" d="M4916.52,-601.15C4979.6,-621.25 5066.72,-649.02 5132.04,-669.85"/>
<polygon fill="black" stroke="black" points="5131.33,-673.29 5141.92,-673 5133.46,-666.62 5131.33,-673.29"/>
</g>
<!-- b34 -->
<g id="node35" class="node">
<title>b34</title>
<polygon fill="white" stroke="black" points="5366,-601 5083,-601 5083,-549 5366,-549 5366,-601"/>
<text text-anchor="middle" x="5224.5" y="-589" font-family="Helvetica" font-size="10.00">B34</text>
<text text-anchor="middle" x="5224.5" y="-578" font-family="Helvetica" font-size="10.00">Loop: &lt;none&gt;</text>
<text text-anchor="middle" x="5224.5" y="-567" font-family="Helvetica" font-size="10.00">&#45;&#45;&#45;</text>
<text text-anchor="middle" x="5224.5" y="-556" font-family="Helvetica" font-size="10.00">HotSpotMethod&lt;LoopBenchmarks.sieveLoop(boolean[], int)&gt;</text>
</g>
<!-- b23&#45;&gt;b34 -->
<g id="edge33" class="edge">
<title>b23&#45;&gt;b34</title>
<path fill="none" stroke="black" d="M4975.21,-575C5006.81,-575 5040.47,-575 5072.48,-575"/>
<polygon fill="black" stroke="black" points="5072.8,-578.5 5082.8,-575 5072.8,-571.5 5072.8,-578.5"/>
</g>
<!-- b25 -->
<g id="node26" class="node">
<title>b25</title>
<polygon fill="lightgreen" stroke="black" points="5757,-860 5474,-860 5474,-808 5757,-808 5757,-860"/>
<text text-anchor="middle" x="5615.5" y="-848" font-family="Helvetica" font-size="10.00">B25</text>
<text text-anchor="middle" x="5615.5" y="-837" font-family="Helvetica" font-size="10.00">Loop: L1</text>
<text text-anchor="middle" x="5615.5" y="-826" font-family="Helvetica" font-size="10.00">&#45;&#45;&#45;</text>
<text text-anchor="middle" x="5615.5" y="-815" font-family="Helvetica" font-size="10.00">HotSpotMethod&lt;LoopBenchmarks.sieveLoop(boolean[], int)&gt;</text>
</g>
<!-- b24&#45;&gt;b25 -->
<g id="edge34" class="edge">
<title>b24&#45;&gt;b25</title>
<path fill="none" stroke="black" d="M5300.5,-725.03C5366.19,-747.82 5461.55,-780.92 5529.93,-804.65"/>
<polygon fill="black" stroke="black" points="5528.8,-807.96 5539.4,-807.94 5531.1,-801.35 5528.8,-807.96"/>
</g>
<!-- b26 -->
<g id="node27" class="node">
<title>b26</title>
<polygon fill="lightgreen" stroke="black" points="5757,-736 5474,-736 5474,-684 5757,-684 5757,-736"/>
<text text-anchor="middle" x="5615.5" y="-724" font-family="Helvetica" font-size="10.00">B26</text>
<text text-anchor="middle" x="5615.5" y="-713" font-family="Helvetica" font-size="10.00">Loop: L1</text>
<text text-anchor="middle" x="5615.5" y="-702" font-family="Helvetica" font-size="10.00">&#45;&#45;&#45;</text>
<text text-anchor="middle" x="5615.5" y="-691" font-family="Helvetica" font-size="10.00">HotSpotMethod&lt;LoopBenchmarks.sieveLoop(boolean[], int)&gt;</text>
</g>
<!-- b24&#45;&gt;b26 -->
<g id="edge35" class="edge">
<title>b24&#45;&gt;b26</title>
<path fill="none" stroke="black" d="M5366.21,-702.98C5397.81,-703.87 5431.47,-704.82 5463.48,-705.73"/>
<polygon fill="black" stroke="black" points="5463.71,-709.24 5473.8,-706.02 5463.91,-702.24 5463.71,-709.24"/>
</g>
<!-- b25&#45;&gt;b22 -->
<g id="edge36" class="edge">
<title>b25&#45;&gt;b22</title>
<path fill="none" stroke="black" d="M5473.73,-821.28C5365.92,-809.95 5213.95,-790.53 5083,-761 4905.16,-720.9 4860.96,-705.46 4692,-637 4623.85,-609.39 4548.71,-570.67 4499.09,-543.87"/>
<polygon fill="black" stroke="black" points="4500.59,-540.7 4490.13,-539.01 4497.25,-546.86 4500.59,-540.7"/>
</g>
<!-- b27 -->
<g id="node28" class="node">
<title>b27</title>
<polygon fill="lightgreen" stroke="black" points="6148,-860 5865,-860 5865,-808 6148,-808 6148,-860"/>
<text text-anchor="middle" x="6006.5" y="-848" font-family="Helvetica" font-size="10.00">B27</text>
<text text-anchor="middle" x="6006.5" y="-837" font-family="Helvetica" font-size="10.00">Loop: L1</text>
<text text-anchor="middle" x="6006.5" y="-826" font-family="Helvetica" font-size="10.00">&#45;&#45;&#45;</text>
<text text-anchor="middle" x="6006.5" y="-815" font-family="Helvetica" font-size="10.00">HotSpotMethod&lt;LoopBenchmarks.sieveLoop(boolean[], int)&gt;</text>
</g>
<!-- b26&#45;&gt;b27 -->
<g id="edge37" class="edge">
<title>b26&#45;&gt;b27</title>
<path fill="none" stroke="black" d="M5698.52,-736.15C5761.6,-756.25 5848.72,-784.02 5914.04,-804.85"/>
<polygon fill="black" stroke="black" points="5913.33,-808.29 5923.92,-808 5915.46,-801.62 5913.33,-808.29"/>
</g>
<!-- b33 -->
<g id="node34" class="node">
<title>b33</title>
<polygon fill="white" stroke="black" points="6148,-736 5865,-736 5865,-684 6148,-684 6148,-736"/>
<text text-anchor="middle" x="6006.5" y="-724" font-family="Helvetica" font-size="10.00">B33</text>
<text text-anchor="middle" x="6006.5" y="-713" font-family="Helvetica" font-size="10.00">Loop: &lt;none&gt;</text>
<text text-anchor="middle" x="6006.5" y="-702" font-family="Helvetica" font-size="10.00">&#45;&#45;&#45;</text>
<text text-anchor="middle" x="6006.5" y="-691" font-family="Helvetica" font-size="10.00">HotSpotMethod&lt;LoopBenchmarks.sieveLoop(boolean[], int)&gt;</text>
</g>
<!-- b26&#45;&gt;b33 -->
<g id="edge38" class="edge">
<title>b26&#45;&gt;b33</title>
<path fill="none" stroke="black" d="M5757.21,-710C5788.81,-710 5822.47,-710 5854.48,-710"/>
<polygon fill="black" stroke="black" points="5854.8,-713.5 5864.8,-710 5854.8,-706.5 5854.8,-713.5"/>
</g>
<!-- b28 -->
<g id="node29" class="node">
<title>b28</title>
<polygon fill="lightpink" stroke="black" points="6539,-792 6256,-792 6256,-740 6539,-740 6539,-792"/>
<text text-anchor="middle" x="6397.5" y="-780" font-family="Helvetica" font-size="10.00">B28</text>
<text text-anchor="middle" x="6397.5" y="-769" font-family="Helvetica" font-size="10.00">Loop: L2</text>
<text text-anchor="middle" x="6397.5" y="-758" font-family="Helvetica" font-size="10.00">&#45;&#45;&#45;</text>
<text text-anchor="middle" x="6397.5" y="-747" font-family="Helvetica" font-size="10.00">HotSpotMethod&lt;LoopBenchmarks.sieveLoop(boolean[], int)&gt;</text>
</g>
<!-- b27&#45;&gt;b28 -->
<g id="edge39" class="edge">
<title>b27&#45;&gt;b28</title>
<path fill="none" stroke="black" d="M6148.21,-809.4C6179.95,-803.85 6213.76,-797.94 6245.89,-792.33"/>
<polygon fill="black" stroke="black" points="6246.56,-795.76 6255.8,-790.59 6245.35,-788.87 6246.56,-795.76"/>
</g>
<!-- b29 -->
<g id="node30" class="node">
<title>b29</title>
<polygon fill="lightpink" stroke="black" points="6930,-859 6647,-859 6647,-807 6930,-807 6930,-859"/>
<text text-anchor="middle" x="6788.5" y="-847" font-family="Helvetica" font-size="10.00">B29</text>
<text text-anchor="middle" x="6788.5" y="-836" font-family="Helvetica" font-size="10.00">Loop: L2</text>
<text text-anchor="middle" x="6788.5" y="-825" font-family="Helvetica" font-size="10.00">&#45;&#45;&#45;</text>
<text text-anchor="middle" x="6788.5" y="-814" font-family="Helvetica" font-size="10.00">HotSpotMethod&lt;LoopBenchmarks.sieveLoop(boolean[], int)&gt;</text>
</g>
<!-- b28&#45;&gt;b29 -->
<g id="edge40" class="edge">
<title>b28&#45;&gt;b29</title>
<path fill="none" stroke="black" d="M6539.21,-790.24C6570.95,-795.7 6604.76,-801.53 6636.89,-807.06"/>
<polygon fill="black" stroke="black" points="6636.35,-810.52 6646.8,-808.77 6637.54,-803.62 6636.35,-810.52"/>
</g>
<!-- b31 -->
<g id="node32" class="node">
<title>b31</title>
<polygon fill="lightgreen" stroke="black" points="6930,-516 6647,-516 6647,-464 6930,-464 6930,-516"/>
<text text-anchor="middle" x="6788.5" y="-504" font-family="Helvetica" font-size="10.00">B31</text>
<text text-anchor="middle" x="6788.5" y="-493" font-family="Helvetica" font-size="10.00">Loop: L1</text>
<text text-anchor="middle" x="6788.5" y="-482" font-family="Helvetica" font-size="10.00">&#45;&#45;&#45;</text>
<text text-anchor="middle" x="6788.5" y="-471" font-family="Helvetica" font-size="10.00">HotSpotMethod&lt;LoopBenchmarks.sieveLoop(boolean[], int)&gt;</text>
</g>
<!-- b28&#45;&gt;b31 -->
<g id="edge41" class="edge">
<title>b28&#45;&gt;b31</title>
<path fill="none" stroke="black" d="M6435.45,-739.79C6507.03,-689 6664.4,-577.34 6742.17,-522.16"/>
<polygon fill="black" stroke="black" points="6744.67,-524.68 6750.8,-516.04 6740.62,-518.97 6744.67,-524.68"/>
</g>
<!-- b30 -->
<g id="node31" class="node">
<title>b30</title>
<polygon fill="lightpink" stroke="black" points="7321,-730 7038,-730 7038,-678 7321,-678 7321,-730"/>
<text text-anchor="middle" x="7179.5" y="-718" font-family="Helvetica" font-size="10.00">B30</text>
<text text-anchor="middle" x="7179.5" y="-707" font-family="Helvetica" font-size="10.00">Loop: L2</text>
<text text-anchor="middle" x="7179.5" y="-696" font-family="Helvetica" font-size="10.00">&#45;&#45;&#45;</text>
<text text-anchor="middle" x="7179.5" y="-685" font-family="Helvetica" font-size="10.00">HotSpotMethod&lt;LoopBenchmarks.sieveLoop(boolean[], int)&gt;</text>
</g>
<!-- b29&#45;&gt;b30 -->
<g id="edge42" class="edge">
<title>b29&#45;&gt;b30</title>
<path fill="none" stroke="black" d="M6868.22,-806.89C6932.55,-785.56 7023.44,-755.42 7090.22,-733.27"/>
<polygon fill="black" stroke="black" points="7091.51,-736.54 7099.9,-730.07 7089.3,-729.89 7091.51,-736.54"/>
</g>
<!-- b32 -->
<g id="node33" class="node">
<title>b32</title>
<polygon fill="white" stroke="black" points="7321,-859 7038,-859 7038,-807 7321,-807 7321,-859"/>
<text text-anchor="middle" x="7179.5" y="-847" font-family="Helvetica" font-size="10.00">B32</text>
<text text-anchor="middle" x="7179.5" y="-836" font-family="Helvetica" font-size="10.00">Loop: &lt;none&gt;</text>
<text text-anchor="middle" x="7179.5" y="-825" font-family="Helvetica" font-size="10.00">&#45;&#45;&#45;</text>
<text text-anchor="middle" x="7179.5" y="-814" font-family="Helvetica" font-size="10.00">HotSpotMethod&lt;LoopBenchmarks.sieveLoop(boolean[], int)&gt;</text>
</g>
<!-- b29&#45;&gt;b32 -->
<g id="edge43" class="edge">
<title>b29&#45;&gt;b32</title>
<path fill="none" stroke="black" d="M6930.21,-833C6961.81,-833 6995.47,-833 7027.48,-833"/>
<polygon fill="black" stroke="black" points="7027.8,-836.5 7037.8,-833 7027.8,-829.5 7027.8,-836.5"/>
</g>
<!-- b30&#45;&gt;b28 -->
<g id="edge44" class="edge">
<title>b30&#45;&gt;b28</title>
<path fill="none" stroke="black" d="M7037.8,-715.18C6899.96,-726.14 6690.58,-742.78 6549.35,-754.01"/>
<polygon fill="black" stroke="black" points="6548.99,-750.53 6539.3,-754.81 6549.55,-757.5 6548.99,-750.53"/>
</g>
<!-- b31&#45;&gt;b22 -->
<g id="edge45" class="edge">
<title>b31&#45;&gt;b22</title>
<path fill="none" stroke="black" d="M6730.66,-463.99C6603.78,-408.4 6286.66,-283 6007.5,-283 5223.5,-283 5223.5,-283 5223.5,-283 4983.53,-283 4918.45,-298.59 4692,-378 4617.85,-404 4539.29,-450.25 4490.82,-481.27"/>
<polygon fill="black" stroke="black" points="4488.63,-478.52 4482.12,-486.88 4492.42,-484.4 4488.63,-478.52"/>
</g>
<!-- b36 -->
<g id="node37" class="node">
<title>b36</title>
<polygon fill="white" stroke="black" points="6539,-601 6256,-601 6256,-549 6539,-549 6539,-601"/>
<text text-anchor="middle" x="6397.5" y="-589" font-family="Helvetica" font-size="10.00">B36</text>
<text text-anchor="middle" x="6397.5" y="-578" font-family="Helvetica" font-size="10.00">Loop: &lt;none&gt;</text>
<text text-anchor="middle" x="6397.5" y="-567" font-family="Helvetica" font-size="10.00">&#45;&#45;&#45;</text>
<text text-anchor="middle" x="6397.5" y="-556" font-family="Helvetica" font-size="10.00">HotSpotMethod&lt;LoopBenchmarks.sieveLoop(boolean[], int)&gt;</text>
</g>
<!-- b33&#45;&gt;b36 -->
<g id="edge46" class="edge">
<title>b33&#45;&gt;b36</title>
<path fill="none" stroke="black" d="M6082.5,-683.97C6148.19,-661.18 6243.55,-628.08 6311.93,-604.35"/>
<polygon fill="black" stroke="black" points="6313.1,-607.65 6321.4,-601.06 6310.8,-601.04 6313.1,-607.65"/>
</g>
<!-- b34&#45;&gt;b36 -->
<g id="edge47" class="edge">
<title>b34&#45;&gt;b36</title>
<path fill="none" stroke="black" d="M5366.17,-575C5588.17,-575 6017.91,-575 6245.92,-575"/>
<polygon fill="black" stroke="black" points="6245.96,-578.5 6255.96,-575 6245.96,-571.5 6245.96,-578.5"/>
</g>
<!-- b35&#45;&gt;b36 -->
<g id="edge48" class="edge">
<title>b35&#45;&gt;b36</title>
<path fill="none" stroke="black" d="M4975.18,-452.16C5268.62,-477.52 5943.73,-535.87 6245.71,-561.97"/>
<polygon fill="black" stroke="black" points="6245.59,-565.47 6255.85,-562.84 6246.19,-558.5 6245.59,-565.47"/>
</g>
<!-- b37&#45;&gt;b38 -->
<g id="edge49" class="edge">
<title>b37&#45;&gt;b38</title>
<path fill="none" stroke="black" d="M2238.3,-26.82C2376.18,-26.64 2585.56,-26.37 2726.76,-26.19"/>
<polygon fill="black" stroke="black" points="2726.81,-29.69 2736.8,-26.18 2726.8,-22.69 2726.81,-29.69"/>
</g>
</g>
</svg>
