<?xml version="1.0" encoding="UTF-8" standalone="no"?>
<!DOCTYPE svg PUBLIC "-//W3C//DTD SVG 1.1//EN"
 "http://www.w3.org/Graphics/SVG/1.1/DTD/svg11.dtd">
<!-- Generated by graphviz version 2.44.0 (0)
 -->
<!-- Title: CFG_104 Pages: 1 -->
<svg width="4340pt" height="634pt"
 viewBox="0.00 0.00 4340.00 634.39" xmlns="http://www.w3.org/2000/svg" xmlns:xlink="http://www.w3.org/1999/xlink">
<g id="graph0" class="graph" transform="scale(1 1) rotate(0) translate(4 630.39)">
<title>CFG_104</title>
<polygon fill="white" stroke="transparent" points="-4,4 -4,-630.39 4336,-630.39 4336,4 -4,4"/>
<text text-anchor="middle" x="189" y="-606.39" font-family="Times-Roman" font-size="20.00">161&#45;LoopBenchmarks.main(String[])</text>
<!-- b0 -->
<g id="node1" class="node">
<title>b0</title>
<polygon fill="white" stroke="black" points="740,-122.5 0,-122.5 0,-59.5 740,-59.5 740,-122.5"/>
<text text-anchor="middle" x="370" y="-110.5" font-family="Helvetica" font-size="10.00">B0</text>
<text text-anchor="middle" x="370" y="-99.5" font-family="Helvetica" font-size="10.00">Loop: &lt;none&gt;</text>
<text text-anchor="middle" x="370" y="-88.5" font-family="Helvetica" font-size="10.00">&#45;&#45;&#45;</text>
<text text-anchor="middle" x="370" y="-77.5" font-family="Helvetica" font-size="10.00">HotSpotMethod&lt;LoopBenchmarks.main(String[])&gt;</text>
<text text-anchor="middle" x="370" y="-66.5" font-family="Helvetica" font-size="10.00">SnippetResolvedJavaMethod{name=&#39;instanceofExact&#39;, type=SnippetResolvedJavaType{javaClass=class jdk.graal.compiler.hotspot.replacements.InstanceOfSnippets}}</text>
</g>
<!-- b1 -->
<g id="node2" class="node">
<title>b1</title>
<polygon fill="white" stroke="black" points="1588,-195.5 848,-195.5 848,-132.5 1588,-132.5 1588,-195.5"/>
<text text-anchor="middle" x="1218" y="-183.5" font-family="Helvetica" font-size="10.00">B1</text>
<text text-anchor="middle" x="1218" y="-172.5" font-family="Helvetica" font-size="10.00">Loop: &lt;none&gt;</text>
<text text-anchor="middle" x="1218" y="-161.5" font-family="Helvetica" font-size="10.00">&#45;&#45;&#45;</text>
<text text-anchor="middle" x="1218" y="-150.5" font-family="Helvetica" font-size="10.00">SnippetResolvedJavaMethod{name=&#39;instanceofExact&#39;, type=SnippetResolvedJavaType{javaClass=class jdk.graal.compiler.hotspot.replacements.InstanceOfSnippets}}</text>
<text text-anchor="middle" x="1218" y="-139.5" font-family="Helvetica" font-size="10.00">HotSpotMethod&lt;LoopBenchmarks.main(String[])&gt;</text>
</g>
<!-- b0&#45;&gt;b1 -->
<g id="edge1" class="edge">
<title>b0&#45;&gt;b1</title>
<path fill="none" stroke="black" d="M736.23,-122.51C771.12,-125.53 806.54,-128.58 841.53,-131.6"/>
<polygon fill="black" stroke="black" points="841.61,-135.12 851.87,-132.49 842.21,-128.15 841.61,-135.12"/>
</g>
<!-- b17 -->
<g id="node18" class="node">
<title>b17</title>
<polygon fill="white" stroke="black" points="1335.5,-52 1100.5,-52 1100.5,0 1335.5,0 1335.5,-52"/>
<text text-anchor="middle" x="1218" y="-40" font-family="Helvetica" font-size="10.00">B17</text>
<text text-anchor="middle" x="1218" y="-29" font-family="Helvetica" font-size="10.00">Loop: &lt;none&gt;</text>
<text text-anchor="middle" x="1218" y="-18" font-family="Helvetica" font-size="10.00">&#45;&#45;&#45;</text>
<text text-anchor="middle" x="1218" y="-7" font-family="Helvetica" font-size="10.00">HotSpotMethod&lt;LoopBenchmarks.main(String[])&gt;</text>
</g>
<!-- b0&#45;&gt;b17 -->
<g id="edge2" class="edge">
<title>b0&#45;&gt;b17</title>
<path fill="none" stroke="black" d="M740.22,-62.63C865.36,-53.02 996.89,-42.91 1090.02,-35.76"/>
<polygon fill="black" stroke="black" points="1090.35,-39.24 1100.05,-34.99 1089.81,-32.26 1090.35,-39.24"/>
</g>
<!-- b2 -->
<g id="node3" class="node">
<title>b2</title>
<polygon fill="white" stroke="black" points="1931,-336 1696,-336 1696,-284 1931,-284 1931,-336"/>
<text text-anchor="middle" x="1813.5" y="-324" font-family="Helvetica" font-size="10.00">B2</text>
<text text-anchor="middle" x="1813.5" y="-313" font-family="Helvetica" font-size="10.00">Loop: &lt;none&gt;</text>
<text text-anchor="middle" x="1813.5" y="-302" font-family="Helvetica" font-size="10.00">&#45;&#45;&#45;</text>
<text text-anchor="middle" x="1813.5" y="-291" font-family="Helvetica" font-size="10.00">HotSpotMethod&lt;LoopBenchmarks.main(String[])&gt;</text>
</g>
<!-- b1&#45;&gt;b2 -->
<g id="edge3" class="edge">
<title>b1&#45;&gt;b2</title>
<path fill="none" stroke="black" d="M1347.05,-195.5C1450.93,-221.05 1596.12,-256.77 1696.59,-281.49"/>
<polygon fill="black" stroke="black" points="1695.93,-284.93 1706.48,-283.92 1697.6,-278.13 1695.93,-284.93"/>
</g>
<!-- b16 -->
<g id="node17" class="node">
<title>b16</title>
<polygon fill="white" stroke="black" points="1931,-190 1696,-190 1696,-138 1931,-138 1931,-190"/>
<text text-anchor="middle" x="1813.5" y="-178" font-family="Helvetica" font-size="10.00">B16</text>
<text text-anchor="middle" x="1813.5" y="-167" font-family="Helvetica" font-size="10.00">Loop: &lt;none&gt;</text>
<text text-anchor="middle" x="1813.5" y="-156" font-family="Helvetica" font-size="10.00">&#45;&#45;&#45;</text>
<text text-anchor="middle" x="1813.5" y="-145" font-family="Helvetica" font-size="10.00">HotSpotMethod&lt;LoopBenchmarks.main(String[])&gt;</text>
</g>
<!-- b1&#45;&gt;b16 -->
<g id="edge4" class="edge">
<title>b1&#45;&gt;b16</title>
<path fill="none" stroke="black" d="M1588.12,-164C1622.6,-164 1655.69,-164 1685.37,-164"/>
<polygon fill="black" stroke="black" points="1685.72,-167.5 1695.72,-164 1685.72,-160.5 1685.72,-167.5"/>
</g>
<!-- b3 -->
<g id="node4" class="node">
<title>b3</title>
<polygon fill="white" stroke="black" points="2274,-471 2039,-471 2039,-419 2274,-419 2274,-471"/>
<text text-anchor="middle" x="2156.5" y="-459" font-family="Helvetica" font-size="10.00">B3</text>
<text text-anchor="middle" x="2156.5" y="-448" font-family="Helvetica" font-size="10.00">Loop: &lt;none&gt;</text>
<text text-anchor="middle" x="2156.5" y="-437" font-family="Helvetica" font-size="10.00">&#45;&#45;&#45;</text>
<text text-anchor="middle" x="2156.5" y="-426" font-family="Helvetica" font-size="10.00">HotSpotMethod&lt;LoopBenchmarks.main(String[])&gt;</text>
</g>
<!-- b2&#45;&gt;b3 -->
<g id="edge5" class="edge">
<title>b2&#45;&gt;b3</title>
<path fill="none" stroke="black" d="M1880.25,-336.03C1937.47,-358.68 2020.4,-391.52 2080.26,-415.21"/>
<polygon fill="black" stroke="black" points="2079.08,-418.51 2089.66,-418.94 2081.65,-412 2079.08,-418.51"/>
</g>
<!-- b15 -->
<g id="node16" class="node">
<title>b15</title>
<polygon fill="white" stroke="black" points="2274,-336 2039,-336 2039,-284 2274,-284 2274,-336"/>
<text text-anchor="middle" x="2156.5" y="-324" font-family="Helvetica" font-size="10.00">B15</text>
<text text-anchor="middle" x="2156.5" y="-313" font-family="Helvetica" font-size="10.00">Loop: &lt;none&gt;</text>
<text text-anchor="middle" x="2156.5" y="-302" font-family="Helvetica" font-size="10.00">&#45;&#45;&#45;</text>
<text text-anchor="middle" x="2156.5" y="-291" font-family="Helvetica" font-size="10.00">HotSpotMethod&lt;LoopBenchmarks.main(String[])&gt;</text>
</g>
<!-- b2&#45;&gt;b15 -->
<g id="edge6" class="edge">
<title>b2&#45;&gt;b15</title>
<path fill="none" stroke="black" d="M1931.38,-310C1962.69,-310 1996.69,-310 2028.52,-310"/>
<polygon fill="black" stroke="black" points="2028.78,-313.5 2038.78,-310 2028.78,-306.5 2028.78,-313.5"/>
</g>
<!-- b4 -->
<g id="node5" class="node">
<title>b4</title>
<polygon fill="white" stroke="black" points="2617,-595 2382,-595 2382,-543 2617,-543 2617,-595"/>
<text text-anchor="middle" x="2499.5" y="-583" font-family="Helvetica" font-size="10.00">B4</text>
<text text-anchor="middle" x="2499.5" y="-572" font-family="Helvetica" font-size="10.00">Loop: &lt;none&gt;</text>
<text text-anchor="middle" x="2499.5" y="-561" font-family="Helvetica" font-size="10.00">&#45;&#45;&#45;</text>
<text text-anchor="middle" x="2499.5" y="-550" font-family="Helvetica" font-size="10.00">HotSpotMethod&lt;LoopBenchmarks.main(String[])&gt;</text>
</g>
<!-- b3&#45;&gt;b4 -->
<g id="edge7" class="edge">
<title>b3&#45;&gt;b4</title>
<path fill="none" stroke="black" d="M2229.4,-471.15C2284.35,-491.13 2360.13,-518.68 2417.27,-539.46"/>
<polygon fill="black" stroke="black" points="2416.4,-542.87 2426.99,-543 2418.79,-536.29 2416.4,-542.87"/>
</g>
<!-- b14 -->
<g id="node15" class="node">
<title>b14</title>
<polygon fill="white" stroke="black" points="2617,-471 2382,-471 2382,-419 2617,-419 2617,-471"/>
<text text-anchor="middle" x="2499.5" y="-459" font-family="Helvetica" font-size="10.00">B14</text>
<text text-anchor="middle" x="2499.5" y="-448" font-family="Helvetica" font-size="10.00">Loop: &lt;none&gt;</text>
<text text-anchor="middle" x="2499.5" y="-437" font-family="Helvetica" font-size="10.00">&#45;&#45;&#45;</text>
<text text-anchor="middle" x="2499.5" y="-426" font-family="Helvetica" font-size="10.00">HotSpotMethod&lt;LoopBenchmarks.main(String[])&gt;</text>
</g>
<!-- b3&#45;&gt;b14 -->
<g id="edge8" class="edge">
<title>b3&#45;&gt;b14</title>
<path fill="none" stroke="black" d="M2274.38,-445C2305.69,-445 2339.69,-445 2371.52,-445"/>
<polygon fill="black" stroke="black" points="2371.78,-448.5 2381.78,-445 2371.78,-441.5 2371.78,-448.5"/>
</g>
<!-- b5 -->
<g id="node6" class="node">
<title>b5</title>
<polygon fill="lightblue" stroke="black" points="2960,-595 2725,-595 2725,-543 2960,-543 2960,-595"/>
<text text-anchor="middle" x="2842.5" y="-583" font-family="Helvetica" font-size="10.00">B5</text>
<text text-anchor="middle" x="2842.5" y="-572" font-family="Helvetica" font-size="10.00">Loop: L0</text>
<text text-anchor="middle" x="2842.5" y="-561" font-family="Helvetica" font-size="10.00">&#45;&#45;&#45;</text>
<text text-anchor="middle" x="2842.5" y="-550" font-family="Helvetica" font-size="10.00">HotSpotMethod&lt;LoopBenchmarks.main(String[])&gt;</text>
</g>
<!-- b4&#45;&gt;b5 -->
<g id="edge9" class="edge">
<title>b4&#45;&gt;b5</title>
<path fill="none" stroke="black" d="M2617.38,-569C2648.69,-569 2682.69,-569 2714.52,-569"/>
<polygon fill="black" stroke="black" points="2714.78,-572.5 2724.78,-569 2714.78,-565.5 2714.78,-572.5"/>
</g>
<!-- b6 -->
<g id="node7" class="node">
<title>b6</title>
<polygon fill="lightblue" stroke="black" points="3303,-595 3068,-595 3068,-543 3303,-543 3303,-595"/>
<text text-anchor="middle" x="3185.5" y="-583" font-family="Helvetica" font-size="10.00">B6</text>
<text text-anchor="middle" x="3185.5" y="-572" font-family="Helvetica" font-size="10.00">Loop: L0</text>
<text text-anchor="middle" x="3185.5" y="-561" font-family="Helvetica" font-size="10.00">&#45;&#45;&#45;</text>
<text text-anchor="middle" x="3185.5" y="-550" font-family="Helvetica" font-size="10.00">HotSpotMethod&lt;LoopBenchmarks.main(String[])&gt;</text>
</g>
<!-- b5&#45;&gt;b6 -->
<g id="edge10" class="edge">
<title>b5&#45;&gt;b6</title>
<path fill="none" stroke="black" d="M2960.38,-543.22C2991.69,-541.75 3025.69,-541.61 3057.52,-542.8"/>
<polygon fill="black" stroke="black" points="3057.64,-546.31 3067.78,-543.23 3057.93,-539.31 3057.64,-546.31"/>
</g>
<!-- b7 -->
<g id="node8" class="node">
<title>b7</title>
<polygon fill="white" stroke="black" points="3303,-471 3068,-471 3068,-419 3303,-419 3303,-471"/>
<text text-anchor="middle" x="3185.5" y="-459" font-family="Helvetica" font-size="10.00">B7</text>
<text text-anchor="middle" x="3185.5" y="-448" font-family="Helvetica" font-size="10.00">Loop: &lt;none&gt;</text>
<text text-anchor="middle" x="3185.5" y="-437" font-family="Helvetica" font-size="10.00">&#45;&#45;&#45;</text>
<text text-anchor="middle" x="3185.5" y="-426" font-family="Helvetica" font-size="10.00">HotSpotMethod&lt;LoopBenchmarks.main(String[])&gt;</text>
</g>
<!-- b5&#45;&gt;b7 -->
<g id="edge11" class="edge">
<title>b5&#45;&gt;b7</title>
<path fill="none" stroke="black" d="M2915.4,-542.85C2970.35,-522.87 3046.13,-495.32 3103.27,-474.54"/>
<polygon fill="black" stroke="black" points="3104.79,-477.71 3112.99,-471 3102.4,-471.13 3104.79,-477.71"/>
</g>
<!-- b6&#45;&gt;b5 -->
<g id="edge12" class="edge">
<title>b6&#45;&gt;b5</title>
<path fill="none" stroke="black" d="M3067.78,-594.77C3036.47,-596.25 3002.47,-596.39 2970.63,-595.21"/>
<polygon fill="black" stroke="black" points="2970.51,-591.7 2960.38,-594.78 2970.22,-598.69 2970.51,-591.7"/>
</g>
<!-- b8 -->
<g id="node9" class="node">
<title>b8</title>
<polygon fill="lightgreen" stroke="black" points="3646,-471 3411,-471 3411,-419 3646,-419 3646,-471"/>
<text text-anchor="middle" x="3528.5" y="-459" font-family="Helvetica" font-size="10.00">B8</text>
<text text-anchor="middle" x="3528.5" y="-448" font-family="Helvetica" font-size="10.00">Loop: L1</text>
<text text-anchor="middle" x="3528.5" y="-437" font-family="Helvetica" font-size="10.00">&#45;&#45;&#45;</text>
<text text-anchor="middle" x="3528.5" y="-426" font-family="Helvetica" font-size="10.00">HotSpotMethod&lt;LoopBenchmarks.main(String[])&gt;</text>
</g>
<!-- b7&#45;&gt;b8 -->
<g id="edge13" class="edge">
<title>b7&#45;&gt;b8</title>
<path fill="none" stroke="black" d="M3303.38,-445C3334.69,-445 3368.69,-445 3400.52,-445"/>
<polygon fill="black" stroke="black" points="3400.78,-448.5 3410.78,-445 3400.78,-441.5 3400.78,-448.5"/>
</g>
<!-- b9 -->
<g id="node10" class="node">
<title>b9</title>
<polygon fill="lightgreen" stroke="black" points="3989,-471 3754,-471 3754,-419 3989,-419 3989,-471"/>
<text text-anchor="middle" x="3871.5" y="-459" font-family="Helvetica" font-size="10.00">B9</text>
<text text-anchor="middle" x="3871.5" y="-448" font-family="Helvetica" font-size="10.00">Loop: L1</text>
<text text-anchor="middle" x="3871.5" y="-437" font-family="Helvetica" font-size="10.00">&#45;&#45;&#45;</text>
<text text-anchor="middle" x="3871.5" y="-426" font-family="Helvetica" font-size="10.00">HotSpotMethod&lt;LoopBenchmarks.main(String[])&gt;</text>
</g>
<!-- b8&#45;&gt;b9 -->
<g id="edge14" class="edge">
<title>b8&#45;&gt;b9</title>
<path fill="none" stroke="black" d="M3646.38,-419.22C3677.69,-417.75 3711.69,-417.61 3743.52,-418.8"/>
<polygon fill="black" stroke="black" points="3743.64,-422.31 3753.78,-419.23 3743.93,-415.31 3743.64,-422.31"/>
</g>
<!-- b11 -->
<g id="node12" class="node">
<title>b11</title>
<polygon fill="lightpink" stroke="black" points="3989,-347 3754,-347 3754,-295 3989,-295 3989,-347"/>
<text text-anchor="middle" x="3871.5" y="-335" font-family="Helvetica" font-size="10.00">B11</text>
<text text-anchor="middle" x="3871.5" y="-324" font-family="Helvetica" font-size="10.00">Loop: L2</text>
<text text-anchor="middle" x="3871.5" y="-313" font-family="Helvetica" font-size="10.00">&#45;&#45;&#45;</text>
<text text-anchor="middle" x="3871.5" y="-302" font-family="Helvetica" font-size="10.00">HotSpotMethod&lt;LoopBenchmarks.main(String[])&gt;</text>
</g>
<!-- b8&#45;&gt;b11 -->
<g id="edge15" class="edge">
<title>b8&#45;&gt;b11</title>
<path fill="none" stroke="black" d="M3601.4,-418.85C3656.35,-398.87 3732.13,-371.32 3789.27,-350.54"/>
<polygon fill="black" stroke="black" points="3790.79,-353.71 3798.99,-347 3788.4,-347.13 3790.79,-353.71"/>
</g>
<!-- b9&#45;&gt;b8 -->
<g id="edge16" class="edge">
<title>b9&#45;&gt;b8</title>
<path fill="none" stroke="black" d="M3753.78,-470.77C3722.47,-472.25 3688.47,-472.39 3656.63,-471.21"/>
<polygon fill="black" stroke="black" points="3656.51,-467.7 3646.38,-470.78 3656.22,-474.69 3656.51,-467.7"/>
</g>
<!-- b10 -->
<g id="node11" class="node">
<title>b10</title>
<polygon fill="white" stroke="black" points="3646,-347 3411,-347 3411,-295 3646,-295 3646,-347"/>
<text text-anchor="middle" x="3528.5" y="-335" font-family="Helvetica" font-size="10.00">B10</text>
<text text-anchor="middle" x="3528.5" y="-324" font-family="Helvetica" font-size="10.00">Loop: &lt;none&gt;</text>
<text text-anchor="middle" x="3528.5" y="-313" font-family="Helvetica" font-size="10.00">&#45;&#45;&#45;</text>
<text text-anchor="middle" x="3528.5" y="-302" font-family="Helvetica" font-size="10.00">HotSpotMethod&lt;LoopBenchmarks.main(String[])&gt;</text>
</g>
<!-- b10&#45;&gt;b11 -->
<g id="edge17" class="edge">
<title>b10&#45;&gt;b11</title>
<path fill="none" stroke="black" d="M3646.38,-321C3677.69,-321 3711.69,-321 3743.52,-321"/>
<polygon fill="black" stroke="black" points="3743.78,-324.5 3753.78,-321 3743.78,-317.5 3743.78,-324.5"/>
</g>
<!-- b12 -->
<g id="node13" class="node">
<title>b12</title>
<polygon fill="lightpink" stroke="black" points="4332,-347 4097,-347 4097,-295 4332,-295 4332,-347"/>
<text text-anchor="middle" x="4214.5" y="-335" font-family="Helvetica" font-size="10.00">B12</text>
<text text-anchor="middle" x="4214.5" y="-324" font-family="Helvetica" font-size="10.00">Loop: L2</text>
<text text-anchor="middle" x="4214.5" y="-313" font-family="Helvetica" font-size="10.00">&#45;&#45;&#45;</text>
<text text-anchor="middle" x="4214.5" y="-302" font-family="Helvetica" font-size="10.00">HotSpotMethod&lt;LoopBenchmarks.main(String[])&gt;</text>
</g>
<!-- b11&#45;&gt;b12 -->
<g id="edge18" class="edge">
<title>b11&#45;&gt;b12</title>
<path fill="none" stroke="black" d="M3989.38,-295.22C4020.69,-293.75 4054.69,-293.61 4086.52,-294.8"/>
<polygon fill="black" stroke="black" points="4086.64,-298.31 4096.78,-295.23 4086.93,-291.31 4086.64,-298.31"/>
</g>
<!-- b13 -->
<g id="node14" class="node">
<title>b13</title>
<polygon fill="white" stroke="black" points="4332,-223 4097,-223 4097,-171 4332,-171 4332,-223"/>
<text text-anchor="middle" x="4214.5" y="-211" font-family="Helvetica" font-size="10.00">B13</text>
<text text-anchor="middle" x="4214.5" y="-200" font-family="Helvetica" font-size="10.00">Loop: &lt;none&gt;</text>
<text text-anchor="middle" x="4214.5" y="-189" font-family="Helvetica" font-size="10.00">&#45;&#45;&#45;</text>
<text text-anchor="middle" x="4214.5" y="-178" font-family="Helvetica" font-size="10.00">HotSpotMethod&lt;LoopBenchmarks.main(String[])&gt;</text>
</g>
<!-- b11&#45;&gt;b13 -->
<g id="edge19" class="edge">
<title>b11&#45;&gt;b13</title>
<path fill="none" stroke="black" d="M3944.4,-294.85C3999.35,-274.87 4075.13,-247.32 4132.27,-226.54"/>
<polygon fill="black" stroke="black" points="4133.79,-229.71 4141.99,-223 4131.4,-223.13 4133.79,-229.71"/>
</g>
<!-- b12&#45;&gt;b11 -->
<g id="edge20" class="edge">
<title>b12&#45;&gt;b11</title>
<path fill="none" stroke="black" d="M4096.78,-346.77C4065.47,-348.25 4031.47,-348.39 3999.63,-347.21"/>
<polygon fill="black" stroke="black" points="3999.51,-343.7 3989.38,-346.78 3999.22,-350.69 3999.51,-343.7"/>
</g>
<!-- b18 -->
<g id="node19" class="node">
<title>b18</title>
<polygon fill="white" stroke="black" points="2960,-263 2725,-263 2725,-211 2960,-211 2960,-263"/>
<text text-anchor="middle" x="2842.5" y="-251" font-family="Helvetica" font-size="10.00">B18</text>
<text text-anchor="middle" x="2842.5" y="-240" font-family="Helvetica" font-size="10.00">Loop: &lt;none&gt;</text>
<text text-anchor="middle" x="2842.5" y="-229" font-family="Helvetica" font-size="10.00">&#45;&#45;&#45;</text>
<text text-anchor="middle" x="2842.5" y="-218" font-family="Helvetica" font-size="10.00">HotSpotMethod&lt;LoopBenchmarks.main(String[])&gt;</text>
</g>
<!-- b14&#45;&gt;b18 -->
<g id="edge21" class="edge">
<title>b14&#45;&gt;b18</title>
<path fill="none" stroke="black" d="M2543.34,-418.87C2606.08,-380.6 2722.79,-309.41 2790.08,-268.37"/>
<polygon fill="black" stroke="black" points="2792.12,-271.22 2798.83,-263.03 2788.47,-265.25 2792.12,-271.22"/>
</g>
<!-- b15&#45;&gt;b18 -->
<g id="edge22" class="edge">
<title>b15&#45;&gt;b18</title>
<path fill="none" stroke="black" d="M2274.31,-297.53C2396.81,-284.46 2588.7,-263.98 2714.79,-250.52"/>
<polygon fill="black" stroke="black" points="2715.32,-253.99 2724.89,-249.45 2714.57,-247.03 2715.32,-253.99"/>
</g>
<!-- b16&#45;&gt;b18 -->
<g id="edge23" class="edge">
<title>b16&#45;&gt;b18</title>
<path fill="none" stroke="black" d="M1931.31,-172.3C2125.7,-186.12 2514.03,-213.72 2714.79,-227.99"/>
<polygon fill="black" stroke="black" points="2714.58,-231.49 2724.8,-228.7 2715.07,-224.5 2714.58,-231.49"/>
</g>
<!-- b17&#45;&gt;b18 -->
<g id="edge24" class="edge">
<title>b17&#45;&gt;b18</title>
<path fill="none" stroke="black" d="M1335.63,-34.94C1576.34,-54.38 2145.15,-105.42 2617,-187 2652.1,-193.07 2689.99,-200.98 2724.47,-208.71"/>
<polygon fill="black" stroke="black" points="2724.05,-212.2 2734.57,-210.99 2725.59,-205.37 2724.05,-212.2"/>
</g>
</g>
</svg>
