<?xml version="1.0" encoding="UTF-8" standalone="no"?>
<!DOCTYPE svg PUBLIC "-//W3C//DTD SVG 1.1//EN"
 "http://www.w3.org/Graphics/SVG/1.1/DTD/svg11.dtd">
<!-- Generated by graphviz version 2.44.0 (0)
 -->
<!-- Title: CFG_108 Pages: 1 -->
<svg width="2987pt" height="485pt"
 viewBox="0.00 0.00 2987.00 485.39" xmlns="http://www.w3.org/2000/svg" xmlns:xlink="http://www.w3.org/1999/xlink">
<g id="graph0" class="graph" transform="scale(1 1) rotate(0) translate(4 481.39)">
<title>CFG_108</title>
<polygon fill="white" stroke="transparent" points="-4,4 -4,-481.39 2983,-481.39 2983,4 -4,4"/>
<text text-anchor="middle" x="189" y="-457.39" font-family="Times-Roman" font-size="20.00">165&#45;LoopBenchmarks.main(String[])</text>
<!-- b0 -->
<g id="node1" class="node">
<title>b0</title>
<polygon fill="white" stroke="black" points="235,-114 0,-114 0,-62 235,-62 235,-114"/>
<text text-anchor="middle" x="117.5" y="-102" font-family="Helvetica" font-size="10.00">B0</text>
<text text-anchor="middle" x="117.5" y="-91" font-family="Helvetica" font-size="10.00">Loop: &lt;none&gt;</text>
<text text-anchor="middle" x="117.5" y="-80" font-family="Helvetica" font-size="10.00">&#45;&#45;&#45;</text>
<text text-anchor="middle" x="117.5" y="-69" font-family="Helvetica" font-size="10.00">HotSpotMethod&lt;LoopBenchmarks.main(String[])&gt;</text>
</g>
<!-- b1 -->
<g id="node2" class="node">
<title>b1</title>
<polygon fill="white" stroke="black" points="578,-187 343,-187 343,-135 578,-135 578,-187"/>
<text text-anchor="middle" x="460.5" y="-175" font-family="Helvetica" font-size="10.00">B1</text>
<text text-anchor="middle" x="460.5" y="-164" font-family="Helvetica" font-size="10.00">Loop: &lt;none&gt;</text>
<text text-anchor="middle" x="460.5" y="-153" font-family="Helvetica" font-size="10.00">&#45;&#45;&#45;</text>
<text text-anchor="middle" x="460.5" y="-142" font-family="Helvetica" font-size="10.00">HotSpotMethod&lt;LoopBenchmarks.main(String[])&gt;</text>
</g>
<!-- b0&#45;&gt;b1 -->
<g id="edge1" class="edge">
<title>b0&#45;&gt;b1</title>
<path fill="none" stroke="black" d="M235.38,-113.02C266.83,-119.75 300.99,-127.07 332.94,-133.91"/>
<polygon fill="black" stroke="black" points="332.27,-137.34 342.78,-136.01 333.73,-130.5 332.27,-137.34"/>
</g>
<!-- b15 -->
<g id="node16" class="node">
<title>b15</title>
<polygon fill="white" stroke="black" points="578,-52 343,-52 343,0 578,0 578,-52"/>
<text text-anchor="middle" x="460.5" y="-40" font-family="Helvetica" font-size="10.00">B15</text>
<text text-anchor="middle" x="460.5" y="-29" font-family="Helvetica" font-size="10.00">Loop: &lt;none&gt;</text>
<text text-anchor="middle" x="460.5" y="-18" font-family="Helvetica" font-size="10.00">&#45;&#45;&#45;</text>
<text text-anchor="middle" x="460.5" y="-7" font-family="Helvetica" font-size="10.00">HotSpotMethod&lt;LoopBenchmarks.main(String[])&gt;</text>
</g>
<!-- b0&#45;&gt;b15 -->
<g id="edge2" class="edge">
<title>b0&#45;&gt;b15</title>
<path fill="none" stroke="black" d="M235.38,-66.75C266.83,-61.03 300.99,-54.82 332.94,-49.01"/>
<polygon fill="black" stroke="black" points="333.56,-52.45 342.78,-47.22 332.31,-45.57 333.56,-52.45"/>
</g>
<!-- b2 -->
<g id="node3" class="node">
<title>b2</title>
<polygon fill="white" stroke="black" points="921,-322 686,-322 686,-270 921,-270 921,-322"/>
<text text-anchor="middle" x="803.5" y="-310" font-family="Helvetica" font-size="10.00">B2</text>
<text text-anchor="middle" x="803.5" y="-299" font-family="Helvetica" font-size="10.00">Loop: &lt;none&gt;</text>
<text text-anchor="middle" x="803.5" y="-288" font-family="Helvetica" font-size="10.00">&#45;&#45;&#45;</text>
<text text-anchor="middle" x="803.5" y="-277" font-family="Helvetica" font-size="10.00">HotSpotMethod&lt;LoopBenchmarks.main(String[])&gt;</text>
</g>
<!-- b1&#45;&gt;b2 -->
<g id="edge3" class="edge">
<title>b1&#45;&gt;b2</title>
<path fill="none" stroke="black" d="M527.25,-187.03C584.47,-209.68 667.4,-242.52 727.26,-266.21"/>
<polygon fill="black" stroke="black" points="726.08,-269.51 736.66,-269.94 728.65,-263 726.08,-269.51"/>
</g>
<!-- b14 -->
<g id="node15" class="node">
<title>b14</title>
<polygon fill="white" stroke="black" points="921,-187 686,-187 686,-135 921,-135 921,-187"/>
<text text-anchor="middle" x="803.5" y="-175" font-family="Helvetica" font-size="10.00">B14</text>
<text text-anchor="middle" x="803.5" y="-164" font-family="Helvetica" font-size="10.00">Loop: &lt;none&gt;</text>
<text text-anchor="middle" x="803.5" y="-153" font-family="Helvetica" font-size="10.00">&#45;&#45;&#45;</text>
<text text-anchor="middle" x="803.5" y="-142" font-family="Helvetica" font-size="10.00">HotSpotMethod&lt;LoopBenchmarks.main(String[])&gt;</text>
</g>
<!-- b1&#45;&gt;b14 -->
<g id="edge4" class="edge">
<title>b1&#45;&gt;b14</title>
<path fill="none" stroke="black" d="M578.38,-161C609.69,-161 643.69,-161 675.52,-161"/>
<polygon fill="black" stroke="black" points="675.78,-164.5 685.78,-161 675.78,-157.5 675.78,-164.5"/>
</g>
<!-- b3 -->
<g id="node4" class="node">
<title>b3</title>
<polygon fill="white" stroke="black" points="1264,-446 1029,-446 1029,-394 1264,-394 1264,-446"/>
<text text-anchor="middle" x="1146.5" y="-434" font-family="Helvetica" font-size="10.00">B3</text>
<text text-anchor="middle" x="1146.5" y="-423" font-family="Helvetica" font-size="10.00">Loop: &lt;none&gt;</text>
<text text-anchor="middle" x="1146.5" y="-412" font-family="Helvetica" font-size="10.00">&#45;&#45;&#45;</text>
<text text-anchor="middle" x="1146.5" y="-401" font-family="Helvetica" font-size="10.00">HotSpotMethod&lt;LoopBenchmarks.main(String[])&gt;</text>
</g>
<!-- b2&#45;&gt;b3 -->
<g id="edge5" class="edge">
<title>b2&#45;&gt;b3</title>
<path fill="none" stroke="black" d="M876.4,-322.15C931.35,-342.13 1007.13,-369.68 1064.27,-390.46"/>
<polygon fill="black" stroke="black" points="1063.4,-393.87 1073.99,-394 1065.79,-387.29 1063.4,-393.87"/>
</g>
<!-- b13 -->
<g id="node14" class="node">
<title>b13</title>
<polygon fill="white" stroke="black" points="1264,-322 1029,-322 1029,-270 1264,-270 1264,-322"/>
<text text-anchor="middle" x="1146.5" y="-310" font-family="Helvetica" font-size="10.00">B13</text>
<text text-anchor="middle" x="1146.5" y="-299" font-family="Helvetica" font-size="10.00">Loop: &lt;none&gt;</text>
<text text-anchor="middle" x="1146.5" y="-288" font-family="Helvetica" font-size="10.00">&#45;&#45;&#45;</text>
<text text-anchor="middle" x="1146.5" y="-277" font-family="Helvetica" font-size="10.00">HotSpotMethod&lt;LoopBenchmarks.main(String[])&gt;</text>
</g>
<!-- b2&#45;&gt;b13 -->
<g id="edge6" class="edge">
<title>b2&#45;&gt;b13</title>
<path fill="none" stroke="black" d="M921.38,-296C952.69,-296 986.69,-296 1018.52,-296"/>
<polygon fill="black" stroke="black" points="1018.78,-299.5 1028.78,-296 1018.78,-292.5 1018.78,-299.5"/>
</g>
<!-- b4 -->
<g id="node5" class="node">
<title>b4</title>
<polygon fill="lightblue" stroke="black" points="1607,-446 1372,-446 1372,-394 1607,-394 1607,-446"/>
<text text-anchor="middle" x="1489.5" y="-434" font-family="Helvetica" font-size="10.00">B4</text>
<text text-anchor="middle" x="1489.5" y="-423" font-family="Helvetica" font-size="10.00">Loop: L0</text>
<text text-anchor="middle" x="1489.5" y="-412" font-family="Helvetica" font-size="10.00">&#45;&#45;&#45;</text>
<text text-anchor="middle" x="1489.5" y="-401" font-family="Helvetica" font-size="10.00">HotSpotMethod&lt;LoopBenchmarks.main(String[])&gt;</text>
</g>
<!-- b3&#45;&gt;b4 -->
<g id="edge7" class="edge">
<title>b3&#45;&gt;b4</title>
<path fill="none" stroke="black" d="M1264.38,-420C1295.69,-420 1329.69,-420 1361.52,-420"/>
<polygon fill="black" stroke="black" points="1361.78,-423.5 1371.78,-420 1361.78,-416.5 1361.78,-423.5"/>
</g>
<!-- b5 -->
<g id="node6" class="node">
<title>b5</title>
<polygon fill="lightblue" stroke="black" points="1950,-446 1715,-446 1715,-394 1950,-394 1950,-446"/>
<text text-anchor="middle" x="1832.5" y="-434" font-family="Helvetica" font-size="10.00">B5</text>
<text text-anchor="middle" x="1832.5" y="-423" font-family="Helvetica" font-size="10.00">Loop: L0</text>
<text text-anchor="middle" x="1832.5" y="-412" font-family="Helvetica" font-size="10.00">&#45;&#45;&#45;</text>
<text text-anchor="middle" x="1832.5" y="-401" font-family="Helvetica" font-size="10.00">HotSpotMethod&lt;LoopBenchmarks.main(String[])&gt;</text>
</g>
<!-- b4&#45;&gt;b5 -->
<g id="edge8" class="edge">
<title>b4&#45;&gt;b5</title>
<path fill="none" stroke="black" d="M1607.38,-394.22C1638.69,-392.75 1672.69,-392.61 1704.52,-393.8"/>
<polygon fill="black" stroke="black" points="1704.64,-397.31 1714.78,-394.23 1704.93,-390.31 1704.64,-397.31"/>
</g>
<!-- b6 -->
<g id="node7" class="node">
<title>b6</title>
<polygon fill="white" stroke="black" points="1950,-322 1715,-322 1715,-270 1950,-270 1950,-322"/>
<text text-anchor="middle" x="1832.5" y="-310" font-family="Helvetica" font-size="10.00">B6</text>
<text text-anchor="middle" x="1832.5" y="-299" font-family="Helvetica" font-size="10.00">Loop: &lt;none&gt;</text>
<text text-anchor="middle" x="1832.5" y="-288" font-family="Helvetica" font-size="10.00">&#45;&#45;&#45;</text>
<text text-anchor="middle" x="1832.5" y="-277" font-family="Helvetica" font-size="10.00">HotSpotMethod&lt;LoopBenchmarks.main(String[])&gt;</text>
</g>
<!-- b4&#45;&gt;b6 -->
<g id="edge9" class="edge">
<title>b4&#45;&gt;b6</title>
<path fill="none" stroke="black" d="M1562.4,-393.85C1617.35,-373.87 1693.13,-346.32 1750.27,-325.54"/>
<polygon fill="black" stroke="black" points="1751.79,-328.71 1759.99,-322 1749.4,-322.13 1751.79,-328.71"/>
</g>
<!-- b5&#45;&gt;b4 -->
<g id="edge10" class="edge">
<title>b5&#45;&gt;b4</title>
<path fill="none" stroke="black" d="M1714.78,-445.77C1683.47,-447.25 1649.47,-447.39 1617.63,-446.21"/>
<polygon fill="black" stroke="black" points="1617.51,-442.7 1607.38,-445.78 1617.22,-449.69 1617.51,-442.7"/>
</g>
<!-- b7 -->
<g id="node8" class="node">
<title>b7</title>
<polygon fill="lightgreen" stroke="black" points="2293,-322 2058,-322 2058,-270 2293,-270 2293,-322"/>
<text text-anchor="middle" x="2175.5" y="-310" font-family="Helvetica" font-size="10.00">B7</text>
<text text-anchor="middle" x="2175.5" y="-299" font-family="Helvetica" font-size="10.00">Loop: L1</text>
<text text-anchor="middle" x="2175.5" y="-288" font-family="Helvetica" font-size="10.00">&#45;&#45;&#45;</text>
<text text-anchor="middle" x="2175.5" y="-277" font-family="Helvetica" font-size="10.00">HotSpotMethod&lt;LoopBenchmarks.main(String[])&gt;</text>
</g>
<!-- b6&#45;&gt;b7 -->
<g id="edge11" class="edge">
<title>b6&#45;&gt;b7</title>
<path fill="none" stroke="black" d="M1950.38,-296C1981.69,-296 2015.69,-296 2047.52,-296"/>
<polygon fill="black" stroke="black" points="2047.78,-299.5 2057.78,-296 2047.78,-292.5 2047.78,-299.5"/>
</g>
<!-- b8 -->
<g id="node9" class="node">
<title>b8</title>
<polygon fill="lightgreen" stroke="black" points="2636,-322 2401,-322 2401,-270 2636,-270 2636,-322"/>
<text text-anchor="middle" x="2518.5" y="-310" font-family="Helvetica" font-size="10.00">B8</text>
<text text-anchor="middle" x="2518.5" y="-299" font-family="Helvetica" font-size="10.00">Loop: L1</text>
<text text-anchor="middle" x="2518.5" y="-288" font-family="Helvetica" font-size="10.00">&#45;&#45;&#45;</text>
<text text-anchor="middle" x="2518.5" y="-277" font-family="Helvetica" font-size="10.00">HotSpotMethod&lt;LoopBenchmarks.main(String[])&gt;</text>
</g>
<!-- b7&#45;&gt;b8 -->
<g id="edge12" class="edge">
<title>b7&#45;&gt;b8</title>
<path fill="none" stroke="black" d="M2293.38,-270.22C2324.69,-268.75 2358.69,-268.61 2390.52,-269.8"/>
<polygon fill="black" stroke="black" points="2390.64,-273.31 2400.78,-270.23 2390.93,-266.31 2390.64,-273.31"/>
</g>
<!-- b10 -->
<g id="node11" class="node">
<title>b10</title>
<polygon fill="lightpink" stroke="black" points="2636,-198 2401,-198 2401,-146 2636,-146 2636,-198"/>
<text text-anchor="middle" x="2518.5" y="-186" font-family="Helvetica" font-size="10.00">B10</text>
<text text-anchor="middle" x="2518.5" y="-175" font-family="Helvetica" font-size="10.00">Loop: L2</text>
<text text-anchor="middle" x="2518.5" y="-164" font-family="Helvetica" font-size="10.00">&#45;&#45;&#45;</text>
<text text-anchor="middle" x="2518.5" y="-153" font-family="Helvetica" font-size="10.00">HotSpotMethod&lt;LoopBenchmarks.main(String[])&gt;</text>
</g>
<!-- b7&#45;&gt;b10 -->
<g id="edge13" class="edge">
<title>b7&#45;&gt;b10</title>
<path fill="none" stroke="black" d="M2248.4,-269.85C2303.35,-249.87 2379.13,-222.32 2436.27,-201.54"/>
<polygon fill="black" stroke="black" points="2437.79,-204.71 2445.99,-198 2435.4,-198.13 2437.79,-204.71"/>
</g>
<!-- b8&#45;&gt;b7 -->
<g id="edge14" class="edge">
<title>b8&#45;&gt;b7</title>
<path fill="none" stroke="black" d="M2400.78,-321.77C2369.47,-323.25 2335.47,-323.39 2303.63,-322.21"/>
<polygon fill="black" stroke="black" points="2303.51,-318.7 2293.38,-321.78 2303.22,-325.69 2303.51,-318.7"/>
</g>
<!-- b9 -->
<g id="node10" class="node">
<title>b9</title>
<polygon fill="white" stroke="black" points="2293,-198 2058,-198 2058,-146 2293,-146 2293,-198"/>
<text text-anchor="middle" x="2175.5" y="-186" font-family="Helvetica" font-size="10.00">B9</text>
<text text-anchor="middle" x="2175.5" y="-175" font-family="Helvetica" font-size="10.00">Loop: &lt;none&gt;</text>
<text text-anchor="middle" x="2175.5" y="-164" font-family="Helvetica" font-size="10.00">&#45;&#45;&#45;</text>
<text text-anchor="middle" x="2175.5" y="-153" font-family="Helvetica" font-size="10.00">HotSpotMethod&lt;LoopBenchmarks.main(String[])&gt;</text>
</g>
<!-- b9&#45;&gt;b10 -->
<g id="edge15" class="edge">
<title>b9&#45;&gt;b10</title>
<path fill="none" stroke="black" d="M2293.38,-172C2324.69,-172 2358.69,-172 2390.52,-172"/>
<polygon fill="black" stroke="black" points="2390.78,-175.5 2400.78,-172 2390.78,-168.5 2390.78,-175.5"/>
</g>
<!-- b11 -->
<g id="node12" class="node">
<title>b11</title>
<polygon fill="lightpink" stroke="black" points="2979,-198 2744,-198 2744,-146 2979,-146 2979,-198"/>
<text text-anchor="middle" x="2861.5" y="-186" font-family="Helvetica" font-size="10.00">B11</text>
<text text-anchor="middle" x="2861.5" y="-175" font-family="Helvetica" font-size="10.00">Loop: L2</text>
<text text-anchor="middle" x="2861.5" y="-164" font-family="Helvetica" font-size="10.00">&#45;&#45;&#45;</text>
<text text-anchor="middle" x="2861.5" y="-153" font-family="Helvetica" font-size="10.00">HotSpotMethod&lt;LoopBenchmarks.main(String[])&gt;</text>
</g>
<!-- b10&#45;&gt;b11 -->
<g id="edge16" class="edge">
<title>b10&#45;&gt;b11</title>
<path fill="none" stroke="black" d="M2636.38,-146.22C2667.69,-144.75 2701.69,-144.61 2733.52,-145.8"/>
<polygon fill="black" stroke="black" points="2733.64,-149.31 2743.78,-146.23 2733.93,-142.31 2733.64,-149.31"/>
</g>
<!-- b12 -->
<g id="node13" class="node">
<title>b12</title>
<polygon fill="white" stroke="black" points="2979,-74 2744,-74 2744,-22 2979,-22 2979,-74"/>
<text text-anchor="middle" x="2861.5" y="-62" font-family="Helvetica" font-size="10.00">B12</text>
<text text-anchor="middle" x="2861.5" y="-51" font-family="Helvetica" font-size="10.00">Loop: &lt;none&gt;</text>
<text text-anchor="middle" x="2861.5" y="-40" font-family="Helvetica" font-size="10.00">&#45;&#45;&#45;</text>
<text text-anchor="middle" x="2861.5" y="-29" font-family="Helvetica" font-size="10.00">HotSpotMethod&lt;LoopBenchmarks.main(String[])&gt;</text>
</g>
<!-- b10&#45;&gt;b12 -->
<g id="edge17" class="edge">
<title>b10&#45;&gt;b12</title>
<path fill="none" stroke="black" d="M2591.4,-145.85C2646.35,-125.87 2722.13,-98.32 2779.27,-77.54"/>
<polygon fill="black" stroke="black" points="2780.79,-80.71 2788.99,-74 2778.4,-74.13 2780.79,-80.71"/>
</g>
<!-- b11&#45;&gt;b10 -->
<g id="edge18" class="edge">
<title>b11&#45;&gt;b10</title>
<path fill="none" stroke="black" d="M2743.78,-197.77C2712.47,-199.25 2678.47,-199.39 2646.63,-198.21"/>
<polygon fill="black" stroke="black" points="2646.51,-194.7 2636.38,-197.78 2646.22,-201.69 2646.51,-194.7"/>
</g>
<!-- b16 -->
<g id="node17" class="node">
<title>b16</title>
<polygon fill="white" stroke="black" points="1607,-187 1372,-187 1372,-135 1607,-135 1607,-187"/>
<text text-anchor="middle" x="1489.5" y="-175" font-family="Helvetica" font-size="10.00">B16</text>
<text text-anchor="middle" x="1489.5" y="-164" font-family="Helvetica" font-size="10.00">Loop: &lt;none&gt;</text>
<text text-anchor="middle" x="1489.5" y="-153" font-family="Helvetica" font-size="10.00">&#45;&#45;&#45;</text>
<text text-anchor="middle" x="1489.5" y="-142" font-family="Helvetica" font-size="10.00">HotSpotMethod&lt;LoopBenchmarks.main(String[])&gt;</text>
</g>
<!-- b13&#45;&gt;b16 -->
<g id="edge19" class="edge">
<title>b13&#45;&gt;b16</title>
<path fill="none" stroke="black" d="M1213.25,-269.97C1270.47,-247.32 1353.4,-214.48 1413.26,-190.79"/>
<polygon fill="black" stroke="black" points="1414.65,-194 1422.66,-187.06 1412.08,-187.49 1414.65,-194"/>
</g>
<!-- b14&#45;&gt;b16 -->
<g id="edge20" class="edge">
<title>b14&#45;&gt;b16</title>
<path fill="none" stroke="black" d="M921.31,-161C1043.81,-161 1235.7,-161 1361.79,-161"/>
<polygon fill="black" stroke="black" points="1361.89,-164.5 1371.89,-161 1361.89,-157.5 1361.89,-164.5"/>
</g>
<!-- b15&#45;&gt;b16 -->
<g id="edge21" class="edge">
<title>b15&#45;&gt;b16</title>
<path fill="none" stroke="black" d="M578.31,-41.35C772.7,-66.91 1161.03,-117.95 1361.79,-144.34"/>
<polygon fill="black" stroke="black" points="1361.43,-147.83 1371.8,-145.66 1362.34,-140.89 1361.43,-147.83"/>
</g>
</g>
</svg>
