<?xml version="1.0" encoding="UTF-8" standalone="no"?>
<!DOCTYPE svg PUBLIC "-//W3C//DTD SVG 1.1//EN"
 "http://www.w3.org/Graphics/SVG/1.1/DTD/svg11.dtd">
<!-- Generated by graphviz version 2.44.0 (0)
 -->
<!-- Title: CFG_111 Pages: 1 -->
<svg width="7159pt" height="1267pt"
 viewBox="0.00 0.00 7159.00 1266.85" xmlns="http://www.w3.org/2000/svg" xmlns:xlink="http://www.w3.org/1999/xlink">
<g id="graph0" class="graph" transform="scale(1 1) rotate(0) translate(4 1262.85)">
<title>CFG_111</title>
<polygon fill="white" stroke="transparent" points="-4,4 -4,-1262.85 7155,-1262.85 7155,4 -4,4"/>
<text text-anchor="middle" x="286" y="-1238.85" font-family="Times-Roman" font-size="20.00">168&#45;LoopBenchmarks.polynomialLoop(double[], double)</text>
<!-- b0 -->
<g id="node1" class="node">
<title>b0</title>
<polygon fill="white" stroke="black" points="319,-510 0,-510 0,-458 319,-458 319,-510"/>
<text text-anchor="middle" x="159.5" y="-498" font-family="Helvetica" font-size="10.00">B0</text>
<text text-anchor="middle" x="159.5" y="-487" font-family="Helvetica" font-size="10.00">Loop: &lt;none&gt;</text>
<text text-anchor="middle" x="159.5" y="-476" font-family="Helvetica" font-size="10.00">&#45;&#45;&#45;</text>
<text text-anchor="middle" x="159.5" y="-465" font-family="Helvetica" font-size="10.00">HotSpotMethod&lt;LoopBenchmarks.polynomialLoop(double[], double)&gt;</text>
</g>
<!-- b1 -->
<g id="node2" class="node">
<title>b1</title>
<polygon fill="white" stroke="black" points="746,-572 427,-572 427,-520 746,-520 746,-572"/>
<text text-anchor="middle" x="586.5" y="-560" font-family="Helvetica" font-size="10.00">B1</text>
<text text-anchor="middle" x="586.5" y="-549" font-family="Helvetica" font-size="10.00">Loop: &lt;none&gt;</text>
<text text-anchor="middle" x="586.5" y="-538" font-family="Helvetica" font-size="10.00">&#45;&#45;&#45;</text>
<text text-anchor="middle" x="586.5" y="-527" font-family="Helvetica" font-size="10.00">HotSpotMethod&lt;LoopBenchmarks.polynomialLoop(double[], double)&gt;</text>
</g>
<!-- b0&#45;&gt;b1 -->
<g id="edge1" class="edge">
<title>b0&#45;&gt;b1</title>
<path fill="none" stroke="black" d="M319.06,-507.13C351.02,-511.79 384.72,-516.71 417,-521.42"/>
<polygon fill="black" stroke="black" points="416.57,-524.89 426.97,-522.87 417.58,-517.97 416.57,-524.89"/>
</g>
<!-- b2 -->
<g id="node3" class="node">
<title>b2</title>
<polygon fill="white" stroke="black" points="746,-448 427,-448 427,-396 746,-396 746,-448"/>
<text text-anchor="middle" x="586.5" y="-436" font-family="Helvetica" font-size="10.00">B2</text>
<text text-anchor="middle" x="586.5" y="-425" font-family="Helvetica" font-size="10.00">Loop: &lt;none&gt;</text>
<text text-anchor="middle" x="586.5" y="-414" font-family="Helvetica" font-size="10.00">&#45;&#45;&#45;</text>
<text text-anchor="middle" x="586.5" y="-403" font-family="Helvetica" font-size="10.00">HotSpotMethod&lt;LoopBenchmarks.polynomialLoop(double[], double)&gt;</text>
</g>
<!-- b0&#45;&gt;b2 -->
<g id="edge2" class="edge">
<title>b0&#45;&gt;b2</title>
<path fill="none" stroke="black" d="M319.06,-460.87C351.02,-456.21 384.72,-451.29 417,-446.58"/>
<polygon fill="black" stroke="black" points="417.58,-450.03 426.97,-445.13 416.57,-443.11 417.58,-450.03"/>
</g>
<!-- b3 -->
<g id="node4" class="node">
<title>b3</title>
<polygon fill="white" stroke="black" points="1173,-510 854,-510 854,-458 1173,-458 1173,-510"/>
<text text-anchor="middle" x="1013.5" y="-498" font-family="Helvetica" font-size="10.00">B3</text>
<text text-anchor="middle" x="1013.5" y="-487" font-family="Helvetica" font-size="10.00">Loop: &lt;none&gt;</text>
<text text-anchor="middle" x="1013.5" y="-476" font-family="Helvetica" font-size="10.00">&#45;&#45;&#45;</text>
<text text-anchor="middle" x="1013.5" y="-465" font-family="Helvetica" font-size="10.00">HotSpotMethod&lt;LoopBenchmarks.polynomialLoop(double[], double)&gt;</text>
</g>
<!-- b1&#45;&gt;b3 -->
<g id="edge3" class="edge">
<title>b1&#45;&gt;b3</title>
<path fill="none" stroke="black" d="M746.06,-522.87C778.02,-518.21 811.72,-513.29 844,-508.58"/>
<polygon fill="black" stroke="black" points="844.58,-512.03 853.97,-507.13 843.57,-505.11 844.58,-512.03"/>
</g>
<!-- b2&#45;&gt;b3 -->
<g id="edge4" class="edge">
<title>b2&#45;&gt;b3</title>
<path fill="none" stroke="black" d="M746.06,-445.13C778.02,-449.79 811.72,-454.71 844,-459.42"/>
<polygon fill="black" stroke="black" points="843.57,-462.89 853.97,-460.87 844.58,-455.97 843.57,-462.89"/>
</g>
<!-- b5 -->
<g id="node6" class="node">
<title>b5</title>
<polygon fill="white" stroke="black" points="1600,-319 1281,-319 1281,-267 1600,-267 1600,-319"/>
<text text-anchor="middle" x="1440.5" y="-307" font-family="Helvetica" font-size="10.00">B5</text>
<text text-anchor="middle" x="1440.5" y="-296" font-family="Helvetica" font-size="10.00">Loop: &lt;none&gt;</text>
<text text-anchor="middle" x="1440.5" y="-285" font-family="Helvetica" font-size="10.00">&#45;&#45;&#45;</text>
<text text-anchor="middle" x="1440.5" y="-274" font-family="Helvetica" font-size="10.00">HotSpotMethod&lt;LoopBenchmarks.polynomialLoop(double[], double)&gt;</text>
</g>
<!-- b3&#45;&gt;b5 -->
<g id="edge6" class="edge">
<title>b3&#45;&gt;b5</title>
<path fill="none" stroke="black" d="M1065.53,-457.83C1118.77,-430.87 1204.93,-388.23 1281,-355 1306.45,-343.88 1334.58,-332.57 1359.99,-322.71"/>
<polygon fill="black" stroke="black" points="1361.51,-325.87 1369.58,-319 1358.99,-319.34 1361.51,-325.87"/>
</g>
<!-- b7 -->
<g id="node8" class="node">
<title>b7</title>
<polygon fill="white" stroke="black" points="2027,-567 1708,-567 1708,-515 2027,-515 2027,-567"/>
<text text-anchor="middle" x="1867.5" y="-555" font-family="Helvetica" font-size="10.00">B7</text>
<text text-anchor="middle" x="1867.5" y="-544" font-family="Helvetica" font-size="10.00">Loop: &lt;none&gt;</text>
<text text-anchor="middle" x="1867.5" y="-533" font-family="Helvetica" font-size="10.00">&#45;&#45;&#45;</text>
<text text-anchor="middle" x="1867.5" y="-522" font-family="Helvetica" font-size="10.00">HotSpotMethod&lt;LoopBenchmarks.polynomialLoop(double[], double)&gt;</text>
</g>
<!-- b3&#45;&gt;b7 -->
<g id="edge5" class="edge">
<title>b3&#45;&gt;b7</title>
<path fill="none" stroke="black" d="M1057.81,-510.23C1108.99,-539.55 1197.74,-585.26 1281,-603 1450.75,-639.18 1652.91,-600.09 1769.8,-569.66"/>
<polygon fill="black" stroke="black" points="1771.02,-572.96 1779.8,-567.02 1769.23,-566.19 1771.02,-572.96"/>
</g>
<!-- b4 -->
<g id="node5" class="node">
<title>b4</title>
<polygon fill="white" stroke="black" points="1600,-567 1281,-567 1281,-515 1600,-515 1600,-567"/>
<text text-anchor="middle" x="1440.5" y="-555" font-family="Helvetica" font-size="10.00">B4</text>
<text text-anchor="middle" x="1440.5" y="-544" font-family="Helvetica" font-size="10.00">Loop: &lt;none&gt;</text>
<text text-anchor="middle" x="1440.5" y="-533" font-family="Helvetica" font-size="10.00">&#45;&#45;&#45;</text>
<text text-anchor="middle" x="1440.5" y="-522" font-family="Helvetica" font-size="10.00">HotSpotMethod&lt;LoopBenchmarks.polynomialLoop(double[], double)&gt;</text>
</g>
<!-- b4&#45;&gt;b7 -->
<g id="edge7" class="edge">
<title>b4&#45;&gt;b7</title>
<path fill="none" stroke="black" d="M1600.06,-541C1631.88,-541 1665.43,-541 1697.59,-541"/>
<polygon fill="black" stroke="black" points="1697.97,-544.5 1707.97,-541 1697.97,-537.5 1697.97,-544.5"/>
</g>
<!-- b5&#45;&gt;b7 -->
<g id="edge8" class="edge">
<title>b5&#45;&gt;b7</title>
<path fill="none" stroke="black" d="M1518.92,-319.09C1545.25,-329.06 1574.47,-341.34 1600,-355 1685.3,-400.62 1775.89,-468.57 1826.41,-508.47"/>
<polygon fill="black" stroke="black" points="1824.46,-511.39 1834.47,-514.86 1828.81,-505.9 1824.46,-511.39"/>
</g>
<!-- b33 -->
<g id="node34" class="node">
<title>b33</title>
<polygon fill="white" stroke="black" points="2454,-86 2135,-86 2135,-34 2454,-34 2454,-86"/>
<text text-anchor="middle" x="2294.5" y="-74" font-family="Helvetica" font-size="10.00">B33</text>
<text text-anchor="middle" x="2294.5" y="-63" font-family="Helvetica" font-size="10.00">Loop: &lt;none&gt;</text>
<text text-anchor="middle" x="2294.5" y="-52" font-family="Helvetica" font-size="10.00">&#45;&#45;&#45;</text>
<text text-anchor="middle" x="2294.5" y="-41" font-family="Helvetica" font-size="10.00">HotSpotMethod&lt;LoopBenchmarks.polynomialLoop(double[], double)&gt;</text>
</g>
<!-- b5&#45;&gt;b33 -->
<g id="edge9" class="edge">
<title>b5&#45;&gt;b33</title>
<path fill="none" stroke="black" d="M1536.76,-266.95C1697.48,-223 2021.29,-134.44 2188.41,-88.74"/>
<polygon fill="black" stroke="black" points="2189.48,-92.07 2198.21,-86.06 2187.64,-85.32 2189.48,-92.07"/>
</g>
<!-- b6 -->
<g id="node7" class="node">
<title>b6</title>
<polygon fill="white" stroke="black" points="1600,-443 1281,-443 1281,-391 1600,-391 1600,-443"/>
<text text-anchor="middle" x="1440.5" y="-431" font-family="Helvetica" font-size="10.00">B6</text>
<text text-anchor="middle" x="1440.5" y="-420" font-family="Helvetica" font-size="10.00">Loop: &lt;none&gt;</text>
<text text-anchor="middle" x="1440.5" y="-409" font-family="Helvetica" font-size="10.00">&#45;&#45;&#45;</text>
<text text-anchor="middle" x="1440.5" y="-398" font-family="Helvetica" font-size="10.00">HotSpotMethod&lt;LoopBenchmarks.polynomialLoop(double[], double)&gt;</text>
</g>
<!-- b6&#45;&gt;b7 -->
<g id="edge10" class="edge">
<title>b6&#45;&gt;b7</title>
<path fill="none" stroke="black" d="M1530.85,-443.07C1600.03,-463.25 1695.8,-491.2 1767.34,-512.07"/>
<polygon fill="black" stroke="black" points="1766.69,-515.52 1777.27,-514.96 1768.65,-508.8 1766.69,-515.52"/>
</g>
<!-- b9 -->
<g id="node10" class="node">
<title>b9</title>
<polygon fill="white" stroke="black" points="2454,-567 2135,-567 2135,-515 2454,-515 2454,-567"/>
<text text-anchor="middle" x="2294.5" y="-555" font-family="Helvetica" font-size="10.00">B9</text>
<text text-anchor="middle" x="2294.5" y="-544" font-family="Helvetica" font-size="10.00">Loop: &lt;none&gt;</text>
<text text-anchor="middle" x="2294.5" y="-533" font-family="Helvetica" font-size="10.00">&#45;&#45;&#45;</text>
<text text-anchor="middle" x="2294.5" y="-522" font-family="Helvetica" font-size="10.00">HotSpotMethod&lt;LoopBenchmarks.polynomialLoop(double[], double)&gt;</text>
</g>
<!-- b7&#45;&gt;b9 -->
<g id="edge12" class="edge">
<title>b7&#45;&gt;b9</title>
<path fill="none" stroke="black" d="M2027.06,-541C2058.88,-541 2092.43,-541 2124.59,-541"/>
<polygon fill="black" stroke="black" points="2124.97,-544.5 2134.97,-541 2124.97,-537.5 2124.97,-544.5"/>
</g>
<!-- b28 -->
<g id="node29" class="node">
<title>b28</title>
<polygon fill="white" stroke="black" points="7151,-982 6832,-982 6832,-930 7151,-930 7151,-982"/>
<text text-anchor="middle" x="6991.5" y="-970" font-family="Helvetica" font-size="10.00">B28</text>
<text text-anchor="middle" x="6991.5" y="-959" font-family="Helvetica" font-size="10.00">Loop: &lt;none&gt;</text>
<text text-anchor="middle" x="6991.5" y="-948" font-family="Helvetica" font-size="10.00">&#45;&#45;&#45;</text>
<text text-anchor="middle" x="6991.5" y="-937" font-family="Helvetica" font-size="10.00">HotSpotMethod&lt;LoopBenchmarks.polynomialLoop(double[], double)&gt;</text>
</g>
<!-- b7&#45;&gt;b28 -->
<g id="edge11" class="edge">
<title>b7&#45;&gt;b28</title>
<path fill="none" stroke="black" d="M1883.19,-567.02C1955.95,-692.14 2291.56,-1226 2720.5,-1226 2720.5,-1226 2720.5,-1226 6138.5,-1226 6400.74,-1226 6480.5,-1250.34 6724,-1153 6819.09,-1114.99 6910.77,-1034.61 6957.82,-989.15"/>
<polygon fill="black" stroke="black" points="6960.27,-991.65 6964.99,-982.16 6955.38,-986.64 6960.27,-991.65"/>
</g>
<!-- b8 -->
<g id="node9" class="node">
<title>b8</title>
<polygon fill="white" stroke="black" points="6724,-1117 6405,-1117 6405,-1065 6724,-1065 6724,-1117"/>
<text text-anchor="middle" x="6564.5" y="-1105" font-family="Helvetica" font-size="10.00">B8</text>
<text text-anchor="middle" x="6564.5" y="-1094" font-family="Helvetica" font-size="10.00">Loop: &lt;none&gt;</text>
<text text-anchor="middle" x="6564.5" y="-1083" font-family="Helvetica" font-size="10.00">&#45;&#45;&#45;</text>
<text text-anchor="middle" x="6564.5" y="-1072" font-family="Helvetica" font-size="10.00">HotSpotMethod&lt;LoopBenchmarks.polynomialLoop(double[], double)&gt;</text>
</g>
<!-- b8&#45;&gt;b28 -->
<g id="edge13" class="edge">
<title>b8&#45;&gt;b28</title>
<path fill="none" stroke="black" d="M6647.44,-1064.97C6719.35,-1042.13 6823.83,-1008.94 6898.56,-985.2"/>
<polygon fill="black" stroke="black" points="6899.97,-988.43 6908.45,-982.06 6897.86,-981.76 6899.97,-988.43"/>
</g>
<!-- b10 -->
<g id="node11" class="node">
<title>b10</title>
<polygon fill="white" stroke="black" points="2881,-650 2562,-650 2562,-598 2881,-598 2881,-650"/>
<text text-anchor="middle" x="2721.5" y="-638" font-family="Helvetica" font-size="10.00">B10</text>
<text text-anchor="middle" x="2721.5" y="-627" font-family="Helvetica" font-size="10.00">Loop: &lt;none&gt;</text>
<text text-anchor="middle" x="2721.5" y="-616" font-family="Helvetica" font-size="10.00">&#45;&#45;&#45;</text>
<text text-anchor="middle" x="2721.5" y="-605" font-family="Helvetica" font-size="10.00">HotSpotMethod&lt;LoopBenchmarks.polynomialLoop(double[], double)&gt;</text>
</g>
<!-- b9&#45;&gt;b10 -->
<g id="edge14" class="edge">
<title>b9&#45;&gt;b10</title>
<path fill="none" stroke="black" d="M2428.81,-567.03C2476.06,-576.26 2529.42,-586.68 2577.45,-596.06"/>
<polygon fill="black" stroke="black" points="2576.82,-599.51 2587.3,-597.99 2578.16,-592.64 2576.82,-599.51"/>
</g>
<!-- b32 -->
<g id="node33" class="node">
<title>b32</title>
<polygon fill="white" stroke="black" points="3735,-251 3416,-251 3416,-199 3735,-199 3735,-251"/>
<text text-anchor="middle" x="3575.5" y="-239" font-family="Helvetica" font-size="10.00">B32</text>
<text text-anchor="middle" x="3575.5" y="-228" font-family="Helvetica" font-size="10.00">Loop: &lt;none&gt;</text>
<text text-anchor="middle" x="3575.5" y="-217" font-family="Helvetica" font-size="10.00">&#45;&#45;&#45;</text>
<text text-anchor="middle" x="3575.5" y="-206" font-family="Helvetica" font-size="10.00">HotSpotMethod&lt;LoopBenchmarks.polynomialLoop(double[], double)&gt;</text>
</g>
<!-- b9&#45;&gt;b32 -->
<g id="edge15" class="edge">
<title>b9&#45;&gt;b32</title>
<path fill="none" stroke="black" d="M2400.98,-514.94C2638.25,-456.32 3212.47,-314.45 3458.95,-253.55"/>
<polygon fill="black" stroke="black" points="3460.14,-256.86 3469.01,-251.06 3458.47,-250.06 3460.14,-256.86"/>
</g>
<!-- b11 -->
<g id="node12" class="node">
<title>b11</title>
<polygon fill="white" stroke="black" points="3308,-878 2989,-878 2989,-826 3308,-826 3308,-878"/>
<text text-anchor="middle" x="3148.5" y="-866" font-family="Helvetica" font-size="10.00">B11</text>
<text text-anchor="middle" x="3148.5" y="-855" font-family="Helvetica" font-size="10.00">Loop: &lt;none&gt;</text>
<text text-anchor="middle" x="3148.5" y="-844" font-family="Helvetica" font-size="10.00">&#45;&#45;&#45;</text>
<text text-anchor="middle" x="3148.5" y="-833" font-family="Helvetica" font-size="10.00">HotSpotMethod&lt;LoopBenchmarks.polynomialLoop(double[], double)&gt;</text>
</g>
<!-- b10&#45;&gt;b11 -->
<g id="edge16" class="edge">
<title>b10&#45;&gt;b11</title>
<path fill="none" stroke="black" d="M2771.25,-650.15C2850.25,-692.53 3005.84,-776 3090.07,-821.19"/>
<polygon fill="black" stroke="black" points="3088.52,-824.33 3098.99,-825.98 3091.83,-818.16 3088.52,-824.33"/>
</g>
<!-- b12 -->
<g id="node13" class="node">
<title>b12</title>
<polygon fill="white" stroke="black" points="3308,-650 2989,-650 2989,-598 3308,-598 3308,-650"/>
<text text-anchor="middle" x="3148.5" y="-638" font-family="Helvetica" font-size="10.00">B12</text>
<text text-anchor="middle" x="3148.5" y="-627" font-family="Helvetica" font-size="10.00">Loop: &lt;none&gt;</text>
<text text-anchor="middle" x="3148.5" y="-616" font-family="Helvetica" font-size="10.00">&#45;&#45;&#45;</text>
<text text-anchor="middle" x="3148.5" y="-605" font-family="Helvetica" font-size="10.00">HotSpotMethod&lt;LoopBenchmarks.polynomialLoop(double[], double)&gt;</text>
</g>
<!-- b10&#45;&gt;b12 -->
<g id="edge17" class="edge">
<title>b10&#45;&gt;b12</title>
<path fill="none" stroke="black" d="M2881.06,-624C2912.88,-624 2946.43,-624 2978.59,-624"/>
<polygon fill="black" stroke="black" points="2978.97,-627.5 2988.97,-624 2978.97,-620.5 2978.97,-627.5"/>
</g>
<!-- b11&#45;&gt;b28 -->
<g id="edge18" class="edge">
<title>b11&#45;&gt;b28</title>
<path fill="none" stroke="black" d="M3280.62,-878.04C3447.4,-908.85 3744.64,-956 4001.5,-956 4001.5,-956 4001.5,-956 6138.5,-956 6375.62,-956 6649.86,-956 6821.75,-956"/>
<polygon fill="black" stroke="black" points="6821.9,-959.5 6831.9,-956 6821.9,-952.5 6821.9,-959.5"/>
</g>
<!-- b14 -->
<g id="node15" class="node">
<title>b14</title>
<polygon fill="white" stroke="black" points="3735,-453 3416,-453 3416,-401 3735,-401 3735,-453"/>
<text text-anchor="middle" x="3575.5" y="-441" font-family="Helvetica" font-size="10.00">B14</text>
<text text-anchor="middle" x="3575.5" y="-430" font-family="Helvetica" font-size="10.00">Loop: &lt;none&gt;</text>
<text text-anchor="middle" x="3575.5" y="-419" font-family="Helvetica" font-size="10.00">&#45;&#45;&#45;</text>
<text text-anchor="middle" x="3575.5" y="-408" font-family="Helvetica" font-size="10.00">HotSpotMethod&lt;LoopBenchmarks.polynomialLoop(double[], double)&gt;</text>
</g>
<!-- b12&#45;&gt;b14 -->
<g id="edge20" class="edge">
<title>b12&#45;&gt;b14</title>
<path fill="none" stroke="black" d="M3205.94,-597.84C3284.4,-561.47 3426.11,-495.78 3509.09,-457.32"/>
<polygon fill="black" stroke="black" points="3510.57,-460.49 3518.17,-453.11 3507.62,-454.14 3510.57,-460.49"/>
</g>
<!-- b17 -->
<g id="node18" class="node">
<title>b17</title>
<polygon fill="white" stroke="black" points="4589,-645 4270,-645 4270,-593 4589,-593 4589,-645"/>
<text text-anchor="middle" x="4429.5" y="-633" font-family="Helvetica" font-size="10.00">B17</text>
<text text-anchor="middle" x="4429.5" y="-622" font-family="Helvetica" font-size="10.00">Loop: &lt;none&gt;</text>
<text text-anchor="middle" x="4429.5" y="-611" font-family="Helvetica" font-size="10.00">&#45;&#45;&#45;</text>
<text text-anchor="middle" x="4429.5" y="-600" font-family="Helvetica" font-size="10.00">HotSpotMethod&lt;LoopBenchmarks.polynomialLoop(double[], double)&gt;</text>
</g>
<!-- b12&#45;&gt;b17 -->
<g id="edge19" class="edge">
<title>b12&#45;&gt;b17</title>
<path fill="none" stroke="black" d="M3229.43,-650.03C3401.59,-702.37 3819.59,-809.42 4162,-737 4240.62,-720.37 4324.26,-678.96 4376.43,-649.92"/>
<polygon fill="black" stroke="black" points="4378.16,-652.96 4385.16,-645.01 4374.73,-646.86 4378.16,-652.96"/>
</g>
<!-- b13 -->
<g id="node14" class="node">
<title>b13</title>
<polygon fill="white" stroke="black" points="4162,-701 3843,-701 3843,-649 4162,-649 4162,-701"/>
<text text-anchor="middle" x="4002.5" y="-689" font-family="Helvetica" font-size="10.00">B13</text>
<text text-anchor="middle" x="4002.5" y="-678" font-family="Helvetica" font-size="10.00">Loop: &lt;none&gt;</text>
<text text-anchor="middle" x="4002.5" y="-667" font-family="Helvetica" font-size="10.00">&#45;&#45;&#45;</text>
<text text-anchor="middle" x="4002.5" y="-656" font-family="Helvetica" font-size="10.00">HotSpotMethod&lt;LoopBenchmarks.polynomialLoop(double[], double)&gt;</text>
</g>
<!-- b13&#45;&gt;b17 -->
<g id="edge21" class="edge">
<title>b13&#45;&gt;b17</title>
<path fill="none" stroke="black" d="M4162.06,-654.11C4194.02,-649.9 4227.72,-645.46 4260,-641.2"/>
<polygon fill="black" stroke="black" points="4260.52,-644.66 4269.97,-639.89 4259.6,-637.72 4260.52,-644.66"/>
</g>
<!-- b15 -->
<g id="node16" class="node">
<title>b15</title>
<polygon fill="white" stroke="black" points="4162,-453 3843,-453 3843,-401 4162,-401 4162,-453"/>
<text text-anchor="middle" x="4002.5" y="-441" font-family="Helvetica" font-size="10.00">B15</text>
<text text-anchor="middle" x="4002.5" y="-430" font-family="Helvetica" font-size="10.00">Loop: &lt;none&gt;</text>
<text text-anchor="middle" x="4002.5" y="-419" font-family="Helvetica" font-size="10.00">&#45;&#45;&#45;</text>
<text text-anchor="middle" x="4002.5" y="-408" font-family="Helvetica" font-size="10.00">HotSpotMethod&lt;LoopBenchmarks.polynomialLoop(double[], double)&gt;</text>
</g>
<!-- b14&#45;&gt;b15 -->
<g id="edge22" class="edge">
<title>b14&#45;&gt;b15</title>
<path fill="none" stroke="black" d="M3735.06,-427C3766.88,-427 3800.43,-427 3832.59,-427"/>
<polygon fill="black" stroke="black" points="3832.97,-430.5 3842.97,-427 3832.97,-423.5 3832.97,-430.5"/>
</g>
<!-- b31 -->
<g id="node32" class="node">
<title>b31</title>
<polygon fill="white" stroke="black" points="4589,-318 4270,-318 4270,-266 4589,-266 4589,-318"/>
<text text-anchor="middle" x="4429.5" y="-306" font-family="Helvetica" font-size="10.00">B31</text>
<text text-anchor="middle" x="4429.5" y="-295" font-family="Helvetica" font-size="10.00">Loop: &lt;none&gt;</text>
<text text-anchor="middle" x="4429.5" y="-284" font-family="Helvetica" font-size="10.00">&#45;&#45;&#45;</text>
<text text-anchor="middle" x="4429.5" y="-273" font-family="Helvetica" font-size="10.00">HotSpotMethod&lt;LoopBenchmarks.polynomialLoop(double[], double)&gt;</text>
</g>
<!-- b14&#45;&gt;b31 -->
<g id="edge23" class="edge">
<title>b14&#45;&gt;b31</title>
<path fill="none" stroke="black" d="M3677.23,-400.95C3726.88,-388.77 3787.82,-374.83 3843,-365 3982.52,-340.14 4142.23,-320.83 4259.57,-308.33"/>
<polygon fill="black" stroke="black" points="4260.14,-311.79 4269.72,-307.26 4259.4,-304.83 4260.14,-311.79"/>
</g>
<!-- b15&#45;&gt;b17 -->
<g id="edge24" class="edge">
<title>b15&#45;&gt;b17</title>
<path fill="none" stroke="black" d="M4073.83,-453.11C4101.52,-463.75 4133.45,-476.48 4162,-489 4234.2,-520.67 4315.38,-560.97 4368.97,-588.24"/>
<polygon fill="black" stroke="black" points="4367.49,-591.41 4377.98,-592.84 4370.67,-585.18 4367.49,-591.41"/>
</g>
<!-- b30 -->
<g id="node31" class="node">
<title>b30</title>
<polygon fill="white" stroke="black" points="5016,-453 4697,-453 4697,-401 5016,-401 5016,-453"/>
<text text-anchor="middle" x="4856.5" y="-441" font-family="Helvetica" font-size="10.00">B30</text>
<text text-anchor="middle" x="4856.5" y="-430" font-family="Helvetica" font-size="10.00">Loop: &lt;none&gt;</text>
<text text-anchor="middle" x="4856.5" y="-419" font-family="Helvetica" font-size="10.00">&#45;&#45;&#45;</text>
<text text-anchor="middle" x="4856.5" y="-408" font-family="Helvetica" font-size="10.00">HotSpotMethod&lt;LoopBenchmarks.polynomialLoop(double[], double)&gt;</text>
</g>
<!-- b15&#45;&gt;b30 -->
<g id="edge25" class="edge">
<title>b15&#45;&gt;b30</title>
<path fill="none" stroke="black" d="M4162.26,-427C4311.44,-427 4533.99,-427 4686.44,-427"/>
<polygon fill="black" stroke="black" points="4686.84,-430.5 4696.84,-427 4686.84,-423.5 4686.84,-430.5"/>
</g>
<!-- b16 -->
<g id="node17" class="node">
<title>b16</title>
<polygon fill="white" stroke="black" points="4162,-577 3843,-577 3843,-525 4162,-525 4162,-577"/>
<text text-anchor="middle" x="4002.5" y="-565" font-family="Helvetica" font-size="10.00">B16</text>
<text text-anchor="middle" x="4002.5" y="-554" font-family="Helvetica" font-size="10.00">Loop: &lt;none&gt;</text>
<text text-anchor="middle" x="4002.5" y="-543" font-family="Helvetica" font-size="10.00">&#45;&#45;&#45;</text>
<text text-anchor="middle" x="4002.5" y="-532" font-family="Helvetica" font-size="10.00">HotSpotMethod&lt;LoopBenchmarks.polynomialLoop(double[], double)&gt;</text>
</g>
<!-- b16&#45;&gt;b17 -->
<g id="edge26" class="edge">
<title>b16&#45;&gt;b17</title>
<path fill="none" stroke="black" d="M4162.06,-576.37C4194.02,-581.48 4227.72,-586.87 4260,-592.04"/>
<polygon fill="black" stroke="black" points="4259.55,-595.51 4269.97,-593.64 4260.65,-588.6 4259.55,-595.51"/>
</g>
<!-- b18 -->
<g id="node19" class="node">
<title>b18</title>
<polygon fill="white" stroke="black" points="5016,-701 4697,-701 4697,-649 5016,-649 5016,-701"/>
<text text-anchor="middle" x="4856.5" y="-689" font-family="Helvetica" font-size="10.00">B18</text>
<text text-anchor="middle" x="4856.5" y="-678" font-family="Helvetica" font-size="10.00">Loop: &lt;none&gt;</text>
<text text-anchor="middle" x="4856.5" y="-667" font-family="Helvetica" font-size="10.00">&#45;&#45;&#45;</text>
<text text-anchor="middle" x="4856.5" y="-656" font-family="Helvetica" font-size="10.00">HotSpotMethod&lt;LoopBenchmarks.polynomialLoop(double[], double)&gt;</text>
</g>
<!-- b17&#45;&gt;b18 -->
<g id="edge27" class="edge">
<title>b17&#45;&gt;b18</title>
<path fill="none" stroke="black" d="M4589.06,-639.89C4621.02,-644.1 4654.72,-648.54 4687,-652.8"/>
<polygon fill="black" stroke="black" points="4686.6,-656.28 4696.97,-654.11 4687.52,-649.34 4686.6,-656.28"/>
</g>
<!-- b29 -->
<g id="node30" class="node">
<title>b29</title>
<polygon fill="white" stroke="black" points="5016,-577 4697,-577 4697,-525 5016,-525 5016,-577"/>
<text text-anchor="middle" x="4856.5" y="-565" font-family="Helvetica" font-size="10.00">B29</text>
<text text-anchor="middle" x="4856.5" y="-554" font-family="Helvetica" font-size="10.00">Loop: &lt;none&gt;</text>
<text text-anchor="middle" x="4856.5" y="-543" font-family="Helvetica" font-size="10.00">&#45;&#45;&#45;</text>
<text text-anchor="middle" x="4856.5" y="-532" font-family="Helvetica" font-size="10.00">HotSpotMethod&lt;LoopBenchmarks.polynomialLoop(double[], double)&gt;</text>
</g>
<!-- b17&#45;&gt;b29 -->
<g id="edge28" class="edge">
<title>b17&#45;&gt;b29</title>
<path fill="none" stroke="black" d="M4589.06,-593.63C4621.02,-588.52 4654.72,-583.13 4687,-577.96"/>
<polygon fill="black" stroke="black" points="4687.65,-581.4 4696.97,-576.36 4686.55,-574.49 4687.65,-581.4"/>
</g>
<!-- b19 -->
<g id="node20" class="node">
<title>b19</title>
<polygon fill="lightblue" stroke="black" points="5443,-619 5124,-619 5124,-567 5443,-567 5443,-619"/>
<text text-anchor="middle" x="5283.5" y="-607" font-family="Helvetica" font-size="10.00">B19</text>
<text text-anchor="middle" x="5283.5" y="-596" font-family="Helvetica" font-size="10.00">Loop: L0</text>
<text text-anchor="middle" x="5283.5" y="-585" font-family="Helvetica" font-size="10.00">&#45;&#45;&#45;</text>
<text text-anchor="middle" x="5283.5" y="-574" font-family="Helvetica" font-size="10.00">HotSpotMethod&lt;LoopBenchmarks.polynomialLoop(double[], double)&gt;</text>
</g>
<!-- b18&#45;&gt;b19 -->
<g id="edge29" class="edge">
<title>b18&#45;&gt;b19</title>
<path fill="none" stroke="black" d="M4992.26,-649C5038.57,-640.06 5090.58,-630.03 5137.65,-620.95"/>
<polygon fill="black" stroke="black" points="5138.46,-624.36 5147.62,-619.02 5137.14,-617.48 5138.46,-624.36"/>
</g>
<!-- b20 -->
<g id="node21" class="node">
<title>b20</title>
<polygon fill="lightblue" stroke="black" points="5870,-557 5551,-557 5551,-505 5870,-505 5870,-557"/>
<text text-anchor="middle" x="5710.5" y="-545" font-family="Helvetica" font-size="10.00">B20</text>
<text text-anchor="middle" x="5710.5" y="-534" font-family="Helvetica" font-size="10.00">Loop: L0</text>
<text text-anchor="middle" x="5710.5" y="-523" font-family="Helvetica" font-size="10.00">&#45;&#45;&#45;</text>
<text text-anchor="middle" x="5710.5" y="-512" font-family="Helvetica" font-size="10.00">HotSpotMethod&lt;LoopBenchmarks.polynomialLoop(double[], double)&gt;</text>
</g>
<!-- b19&#45;&gt;b20 -->
<g id="edge31" class="edge">
<title>b19&#45;&gt;b20</title>
<path fill="none" stroke="black" d="M5336.61,-566.94C5387.42,-552.45 5467.47,-538.09 5540.4,-529.18"/>
<polygon fill="black" stroke="black" points="5541.13,-532.61 5550.64,-527.95 5540.3,-525.66 5541.13,-532.61"/>
</g>
<!-- b21 -->
<g id="node22" class="node">
<title>b21</title>
<polygon fill="white" stroke="black" points="5870,-681 5551,-681 5551,-629 5870,-629 5870,-681"/>
<text text-anchor="middle" x="5710.5" y="-669" font-family="Helvetica" font-size="10.00">B21</text>
<text text-anchor="middle" x="5710.5" y="-658" font-family="Helvetica" font-size="10.00">Loop: &lt;none&gt;</text>
<text text-anchor="middle" x="5710.5" y="-647" font-family="Helvetica" font-size="10.00">&#45;&#45;&#45;</text>
<text text-anchor="middle" x="5710.5" y="-636" font-family="Helvetica" font-size="10.00">HotSpotMethod&lt;LoopBenchmarks.polynomialLoop(double[], double)&gt;</text>
</g>
<!-- b19&#45;&gt;b21 -->
<g id="edge30" class="edge">
<title>b19&#45;&gt;b21</title>
<path fill="none" stroke="black" d="M5443.06,-616.13C5475.02,-620.79 5508.72,-625.71 5541,-630.42"/>
<polygon fill="black" stroke="black" points="5540.57,-633.89 5550.97,-631.87 5541.58,-626.97 5540.57,-633.89"/>
</g>
<!-- b20&#45;&gt;b19 -->
<g id="edge32" class="edge">
<title>b20&#45;&gt;b19</title>
<path fill="none" stroke="black" d="M5657.54,-557.02C5606.67,-571.54 5526.39,-585.94 5453.32,-594.86"/>
<polygon fill="black" stroke="black" points="5452.57,-591.42 5443.06,-596.08 5453.4,-598.37 5452.57,-591.42"/>
</g>
<!-- b22 -->
<g id="node23" class="node">
<title>b22</title>
<polygon fill="lightgreen" stroke="black" points="6297,-599 5978,-599 5978,-547 6297,-547 6297,-599"/>
<text text-anchor="middle" x="6137.5" y="-587" font-family="Helvetica" font-size="10.00">B22</text>
<text text-anchor="middle" x="6137.5" y="-576" font-family="Helvetica" font-size="10.00">Loop: L1</text>
<text text-anchor="middle" x="6137.5" y="-565" font-family="Helvetica" font-size="10.00">&#45;&#45;&#45;</text>
<text text-anchor="middle" x="6137.5" y="-554" font-family="Helvetica" font-size="10.00">HotSpotMethod&lt;LoopBenchmarks.polynomialLoop(double[], double)&gt;</text>
</g>
<!-- b21&#45;&gt;b22 -->
<g id="edge33" class="edge">
<title>b21&#45;&gt;b22</title>
<path fill="none" stroke="black" d="M5846.26,-629C5892.57,-620.06 5944.58,-610.03 5991.65,-600.95"/>
<polygon fill="black" stroke="black" points="5992.46,-604.36 6001.62,-599.02 5991.14,-597.48 5992.46,-604.36"/>
</g>
<!-- b23 -->
<g id="node24" class="node">
<title>b23</title>
<polygon fill="lightgreen" stroke="black" points="6724,-599 6405,-599 6405,-547 6724,-547 6724,-599"/>
<text text-anchor="middle" x="6564.5" y="-587" font-family="Helvetica" font-size="10.00">B23</text>
<text text-anchor="middle" x="6564.5" y="-576" font-family="Helvetica" font-size="10.00">Loop: L1</text>
<text text-anchor="middle" x="6564.5" y="-565" font-family="Helvetica" font-size="10.00">&#45;&#45;&#45;</text>
<text text-anchor="middle" x="6564.5" y="-554" font-family="Helvetica" font-size="10.00">HotSpotMethod&lt;LoopBenchmarks.polynomialLoop(double[], double)&gt;</text>
</g>
<!-- b22&#45;&gt;b23 -->
<g id="edge35" class="edge">
<title>b22&#45;&gt;b23</title>
<path fill="none" stroke="black" d="M6290.43,-547C6326.37,-545.78 6364.83,-545.68 6401.21,-546.68"/>
<polygon fill="black" stroke="black" points="6401.31,-550.19 6411.41,-546.99 6401.52,-543.19 6401.31,-550.19"/>
</g>
<!-- b25 -->
<g id="node26" class="node">
<title>b25</title>
<polygon fill="lightpink" stroke="black" points="6724,-723 6405,-723 6405,-671 6724,-671 6724,-723"/>
<text text-anchor="middle" x="6564.5" y="-711" font-family="Helvetica" font-size="10.00">B25</text>
<text text-anchor="middle" x="6564.5" y="-700" font-family="Helvetica" font-size="10.00">Loop: L2</text>
<text text-anchor="middle" x="6564.5" y="-689" font-family="Helvetica" font-size="10.00">&#45;&#45;&#45;</text>
<text text-anchor="middle" x="6564.5" y="-678" font-family="Helvetica" font-size="10.00">HotSpotMethod&lt;LoopBenchmarks.polynomialLoop(double[], double)&gt;</text>
</g>
<!-- b22&#45;&gt;b25 -->
<g id="edge34" class="edge">
<title>b22&#45;&gt;b25</title>
<path fill="none" stroke="black" d="M6227.85,-599.07C6297.03,-619.25 6392.8,-647.2 6464.34,-668.07"/>
<polygon fill="black" stroke="black" points="6463.69,-671.52 6474.27,-670.96 6465.65,-664.8 6463.69,-671.52"/>
</g>
<!-- b23&#45;&gt;b22 -->
<g id="edge36" class="edge">
<title>b23&#45;&gt;b22</title>
<path fill="none" stroke="black" d="M6411.41,-599.01C6375.47,-600.22 6337.01,-600.32 6300.63,-599.31"/>
<polygon fill="black" stroke="black" points="6300.54,-595.81 6290.43,-599 6300.32,-602.81 6300.54,-595.81"/>
</g>
<!-- b24 -->
<g id="node25" class="node">
<title>b24</title>
<polygon fill="white" stroke="black" points="6297,-723 5978,-723 5978,-671 6297,-671 6297,-723"/>
<text text-anchor="middle" x="6137.5" y="-711" font-family="Helvetica" font-size="10.00">B24</text>
<text text-anchor="middle" x="6137.5" y="-700" font-family="Helvetica" font-size="10.00">Loop: &lt;none&gt;</text>
<text text-anchor="middle" x="6137.5" y="-689" font-family="Helvetica" font-size="10.00">&#45;&#45;&#45;</text>
<text text-anchor="middle" x="6137.5" y="-678" font-family="Helvetica" font-size="10.00">HotSpotMethod&lt;LoopBenchmarks.polynomialLoop(double[], double)&gt;</text>
</g>
<!-- b24&#45;&gt;b25 -->
<g id="edge37" class="edge">
<title>b24&#45;&gt;b25</title>
<path fill="none" stroke="black" d="M6297.06,-697C6328.88,-697 6362.43,-697 6394.59,-697"/>
<polygon fill="black" stroke="black" points="6394.97,-700.5 6404.97,-697 6394.97,-693.5 6394.97,-700.5"/>
</g>
<!-- b26 -->
<g id="node27" class="node">
<title>b26</title>
<polygon fill="lightpink" stroke="black" points="7151,-723 6832,-723 6832,-671 7151,-671 7151,-723"/>
<text text-anchor="middle" x="6991.5" y="-711" font-family="Helvetica" font-size="10.00">B26</text>
<text text-anchor="middle" x="6991.5" y="-700" font-family="Helvetica" font-size="10.00">Loop: L2</text>
<text text-anchor="middle" x="6991.5" y="-689" font-family="Helvetica" font-size="10.00">&#45;&#45;&#45;</text>
<text text-anchor="middle" x="6991.5" y="-678" font-family="Helvetica" font-size="10.00">HotSpotMethod&lt;LoopBenchmarks.polynomialLoop(double[], double)&gt;</text>
</g>
<!-- b25&#45;&gt;b26 -->
<g id="edge39" class="edge">
<title>b25&#45;&gt;b26</title>
<path fill="none" stroke="black" d="M6717.43,-671C6753.37,-669.78 6791.83,-669.68 6828.21,-670.68"/>
<polygon fill="black" stroke="black" points="6828.31,-674.19 6838.41,-670.99 6828.52,-667.19 6828.31,-674.19"/>
</g>
<!-- b25&#45;&gt;b28 -->
<g id="edge38" class="edge">
<title>b25&#45;&gt;b28</title>
<path fill="none" stroke="black" d="M6643.94,-723C6670.08,-732.88 6698.91,-745.14 6724,-759 6811.54,-807.36 6903.07,-880.87 6952.81,-923.08"/>
<polygon fill="black" stroke="black" points="6950.84,-926.01 6960.72,-929.83 6955.38,-920.68 6950.84,-926.01"/>
</g>
<!-- b26&#45;&gt;b25 -->
<g id="edge40" class="edge">
<title>b26&#45;&gt;b25</title>
<path fill="none" stroke="black" d="M6838.41,-723.01C6802.47,-724.22 6764.01,-724.32 6727.63,-723.31"/>
<polygon fill="black" stroke="black" points="6727.54,-719.81 6717.43,-723 6727.32,-726.81 6727.54,-719.81"/>
</g>
<!-- b27 -->
<g id="node28" class="node">
<title>b27</title>
<polygon fill="white" stroke="black" points="6724,-847 6405,-847 6405,-795 6724,-795 6724,-847"/>
<text text-anchor="middle" x="6564.5" y="-835" font-family="Helvetica" font-size="10.00">B27</text>
<text text-anchor="middle" x="6564.5" y="-824" font-family="Helvetica" font-size="10.00">Loop: &lt;none&gt;</text>
<text text-anchor="middle" x="6564.5" y="-813" font-family="Helvetica" font-size="10.00">&#45;&#45;&#45;</text>
<text text-anchor="middle" x="6564.5" y="-802" font-family="Helvetica" font-size="10.00">HotSpotMethod&lt;LoopBenchmarks.polynomialLoop(double[], double)&gt;</text>
</g>
<!-- b27&#45;&gt;b28 -->
<g id="edge41" class="edge">
<title>b27&#45;&gt;b28</title>
<path fill="none" stroke="black" d="M6647.44,-847.03C6719.35,-869.87 6823.83,-903.06 6898.56,-926.8"/>
<polygon fill="black" stroke="black" points="6897.86,-930.24 6908.45,-929.94 6899.97,-923.57 6897.86,-930.24"/>
</g>
<!-- b34 -->
<g id="node35" class="node">
<title>b34</title>
<polygon fill="white" stroke="black" points="5443,-318 5124,-318 5124,-266 5443,-266 5443,-318"/>
<text text-anchor="middle" x="5283.5" y="-306" font-family="Helvetica" font-size="10.00">B34</text>
<text text-anchor="middle" x="5283.5" y="-295" font-family="Helvetica" font-size="10.00">Loop: &lt;none&gt;</text>
<text text-anchor="middle" x="5283.5" y="-284" font-family="Helvetica" font-size="10.00">&#45;&#45;&#45;</text>
<text text-anchor="middle" x="5283.5" y="-273" font-family="Helvetica" font-size="10.00">HotSpotMethod&lt;LoopBenchmarks.polynomialLoop(double[], double)&gt;</text>
</g>
<!-- b29&#45;&gt;b34 -->
<g id="edge42" class="edge">
<title>b29&#45;&gt;b34</title>
<path fill="none" stroke="black" d="M4935.94,-525C4962.08,-515.12 4990.91,-502.86 5016,-489 5103.54,-440.64 5195.07,-367.13 5244.81,-324.92"/>
<polygon fill="black" stroke="black" points="5247.38,-327.32 5252.72,-318.17 5242.84,-321.99 5247.38,-327.32"/>
</g>
<!-- b30&#45;&gt;b34 -->
<g id="edge43" class="edge">
<title>b30&#45;&gt;b34</title>
<path fill="none" stroke="black" d="M4939.44,-400.97C5011.35,-378.13 5115.83,-344.94 5190.56,-321.2"/>
<polygon fill="black" stroke="black" points="5191.97,-324.43 5200.45,-318.06 5189.86,-317.76 5191.97,-324.43"/>
</g>
<!-- b31&#45;&gt;b34 -->
<g id="edge44" class="edge">
<title>b31&#45;&gt;b34</title>
<path fill="none" stroke="black" d="M4589.26,-292C4738.44,-292 4960.99,-292 5113.44,-292"/>
<polygon fill="black" stroke="black" points="5113.84,-295.5 5123.84,-292 5113.84,-288.5 5113.84,-295.5"/>
</g>
<!-- b32&#45;&gt;b34 -->
<g id="edge45" class="edge">
<title>b32&#45;&gt;b34</title>
<path fill="none" stroke="black" d="M3735.32,-221.65C3934.77,-218.4 4287.43,-215.8 4589,-230 4768.53,-238.45 4973.45,-258 5113.71,-272.9"/>
<polygon fill="black" stroke="black" points="5113.38,-276.39 5123.69,-273.97 5114.12,-269.43 5113.38,-276.39"/>
</g>
<!-- b33&#45;&gt;b34 -->
<g id="edge46" class="edge">
<title>b33&#45;&gt;b34</title>
<path fill="none" stroke="black" d="M2454.25,-42.12C2625.19,-24.44 2905.24,0 3147.5,0 3147.5,0 3147.5,0 4430.5,0 4749.26,0 5100.62,-185.16 5230.53,-260.59"/>
<polygon fill="black" stroke="black" points="5229.1,-263.81 5239.5,-265.83 5232.63,-257.76 5229.1,-263.81"/>
</g>
</g>
</svg>
