<?xml version="1.0" encoding="UTF-8" standalone="no"?>
<!DOCTYPE svg PUBLIC "-//W3C//DTD SVG 1.1//EN"
 "http://www.w3.org/Graphics/SVG/1.1/DTD/svg11.dtd">
<!-- Generated by graphviz version 2.44.0 (0)
 -->
<!-- Title: CFG_122 Pages: 1 -->
<svg width="8456pt" height="1528pt"
 viewBox="0.00 0.00 8456.00 1528.00" xmlns="http://www.w3.org/2000/svg" xmlns:xlink="http://www.w3.org/1999/xlink">
<g id="graph0" class="graph" transform="scale(1 1) rotate(0) translate(4 1524)">
<title>CFG_122</title>
<polygon fill="white" stroke="transparent" points="-4,4 -4,-1524 8452,-1524 8452,4 -4,4"/>
<text text-anchor="middle" x="189" y="-1500" font-family="Times-Roman" font-size="20.00">180&#45;LoopBenchmarks.main(String[])</text>
<!-- b0 -->
<g id="node1" class="node">
<title>b0</title>
<polygon fill="white" stroke="black" points="740,-322.5 0,-322.5 0,-259.5 740,-259.5 740,-322.5"/>
<text text-anchor="middle" x="370" y="-310.5" font-family="Helvetica" font-size="10.00">B0</text>
<text text-anchor="middle" x="370" y="-299.5" font-family="Helvetica" font-size="10.00">Loop: &lt;none&gt;</text>
<text text-anchor="middle" x="370" y="-288.5" font-family="Helvetica" font-size="10.00">&#45;&#45;&#45;</text>
<text text-anchor="middle" x="370" y="-277.5" font-family="Helvetica" font-size="10.00">HotSpotMethod&lt;LoopBenchmarks.main(String[])&gt;</text>
<text text-anchor="middle" x="370" y="-266.5" font-family="Helvetica" font-size="10.00">SnippetResolvedJavaMethod{name=&#39;instanceofExact&#39;, type=SnippetResolvedJavaType{javaClass=class jdk.graal.compiler.hotspot.replacements.InstanceOfSnippets}}</text>
</g>
<!-- b1 -->
<g id="node2" class="node">
<title>b1</title>
<polygon fill="white" stroke="black" points="1588,-457.5 848,-457.5 848,-394.5 1588,-394.5 1588,-457.5"/>
<text text-anchor="middle" x="1218" y="-445.5" font-family="Helvetica" font-size="10.00">B1</text>
<text text-anchor="middle" x="1218" y="-434.5" font-family="Helvetica" font-size="10.00">Loop: &lt;none&gt;</text>
<text text-anchor="middle" x="1218" y="-423.5" font-family="Helvetica" font-size="10.00">&#45;&#45;&#45;</text>
<text text-anchor="middle" x="1218" y="-412.5" font-family="Helvetica" font-size="10.00">SnippetResolvedJavaMethod{name=&#39;instanceofExact&#39;, type=SnippetResolvedJavaType{javaClass=class jdk.graal.compiler.hotspot.replacements.InstanceOfSnippets}}</text>
<text text-anchor="middle" x="1218" y="-401.5" font-family="Helvetica" font-size="10.00">HotSpotMethod&lt;LoopBenchmarks.main(String[])&gt;</text>
</g>
<!-- b0&#45;&gt;b1 -->
<g id="edge1" class="edge">
<title>b0&#45;&gt;b1</title>
<path fill="none" stroke="black" d="M568.55,-322.52C700.98,-343.66 875.06,-371.44 1009.51,-392.89"/>
<polygon fill="black" stroke="black" points="1009.1,-396.37 1019.53,-394.49 1010.2,-389.46 1009.1,-396.37"/>
</g>
<!-- b43 -->
<g id="node44" class="node">
<title>b43</title>
<polygon fill="white" stroke="black" points="2274,-215 2039,-215 2039,-163 2274,-163 2274,-215"/>
<text text-anchor="middle" x="2156.5" y="-203" font-family="Helvetica" font-size="10.00">B43</text>
<text text-anchor="middle" x="2156.5" y="-192" font-family="Helvetica" font-size="10.00">Loop: &lt;none&gt;</text>
<text text-anchor="middle" x="2156.5" y="-181" font-family="Helvetica" font-size="10.00">&#45;&#45;&#45;</text>
<text text-anchor="middle" x="2156.5" y="-170" font-family="Helvetica" font-size="10.00">HotSpotMethod&lt;LoopBenchmarks.main(String[])&gt;</text>
</g>
<!-- b0&#45;&gt;b43 -->
<g id="edge2" class="edge">
<title>b0&#45;&gt;b43</title>
<path fill="none" stroke="black" d="M740.21,-269.9C1142.31,-246.91 1763.48,-211.41 2028.58,-196.25"/>
<polygon fill="black" stroke="black" points="2028.84,-199.75 2038.63,-195.68 2028.45,-192.76 2028.84,-199.75"/>
</g>
<!-- b2 -->
<g id="node3" class="node">
<title>b2</title>
<polygon fill="white" stroke="black" points="1931,-452 1696,-452 1696,-400 1931,-400 1931,-452"/>
<text text-anchor="middle" x="1813.5" y="-440" font-family="Helvetica" font-size="10.00">B2</text>
<text text-anchor="middle" x="1813.5" y="-429" font-family="Helvetica" font-size="10.00">Loop: &lt;none&gt;</text>
<text text-anchor="middle" x="1813.5" y="-418" font-family="Helvetica" font-size="10.00">&#45;&#45;&#45;</text>
<text text-anchor="middle" x="1813.5" y="-407" font-family="Helvetica" font-size="10.00">HotSpotMethod&lt;LoopBenchmarks.main(String[])&gt;</text>
</g>
<!-- b1&#45;&gt;b2 -->
<g id="edge3" class="edge">
<title>b1&#45;&gt;b2</title>
<path fill="none" stroke="black" d="M1588.12,-426C1622.6,-426 1655.69,-426 1685.37,-426"/>
<polygon fill="black" stroke="black" points="1685.72,-429.5 1695.72,-426 1685.72,-422.5 1685.72,-429.5"/>
</g>
<!-- b42 -->
<g id="node43" class="node">
<title>b42</title>
<polygon fill="white" stroke="black" points="1931,-662 1696,-662 1696,-610 1931,-610 1931,-662"/>
<text text-anchor="middle" x="1813.5" y="-650" font-family="Helvetica" font-size="10.00">B42</text>
<text text-anchor="middle" x="1813.5" y="-639" font-family="Helvetica" font-size="10.00">Loop: &lt;none&gt;</text>
<text text-anchor="middle" x="1813.5" y="-628" font-family="Helvetica" font-size="10.00">&#45;&#45;&#45;</text>
<text text-anchor="middle" x="1813.5" y="-617" font-family="Helvetica" font-size="10.00">HotSpotMethod&lt;LoopBenchmarks.main(String[])&gt;</text>
</g>
<!-- b1&#45;&gt;b42 -->
<g id="edge4" class="edge">
<title>b1&#45;&gt;b42</title>
<path fill="none" stroke="black" d="M1308.17,-457.55C1422.16,-497.88 1618,-567.18 1729.12,-606.5"/>
<polygon fill="black" stroke="black" points="1728.02,-609.82 1738.62,-609.86 1730.36,-603.22 1728.02,-609.82"/>
</g>
<!-- b3 -->
<g id="node4" class="node">
<title>b3</title>
<polygon fill="white" stroke="black" points="2274,-490 2039,-490 2039,-438 2274,-438 2274,-490"/>
<text text-anchor="middle" x="2156.5" y="-478" font-family="Helvetica" font-size="10.00">B3</text>
<text text-anchor="middle" x="2156.5" y="-467" font-family="Helvetica" font-size="10.00">Loop: &lt;none&gt;</text>
<text text-anchor="middle" x="2156.5" y="-456" font-family="Helvetica" font-size="10.00">&#45;&#45;&#45;</text>
<text text-anchor="middle" x="2156.5" y="-445" font-family="Helvetica" font-size="10.00">HotSpotMethod&lt;LoopBenchmarks.main(String[])&gt;</text>
</g>
<!-- b2&#45;&gt;b3 -->
<g id="edge5" class="edge">
<title>b2&#45;&gt;b3</title>
<path fill="none" stroke="black" d="M1931.38,-439.02C1962.69,-442.51 1996.69,-446.3 2028.52,-449.85"/>
<polygon fill="black" stroke="black" points="2028.45,-453.36 2038.78,-450.99 2029.23,-446.41 2028.45,-453.36"/>
</g>
<!-- b30 -->
<g id="node31" class="node">
<title>b30</title>
<polygon fill="white" stroke="black" points="6390,-868 6155,-868 6155,-816 6390,-816 6390,-868"/>
<text text-anchor="middle" x="6272.5" y="-856" font-family="Helvetica" font-size="10.00">B30</text>
<text text-anchor="middle" x="6272.5" y="-845" font-family="Helvetica" font-size="10.00">Loop: &lt;none&gt;</text>
<text text-anchor="middle" x="6272.5" y="-834" font-family="Helvetica" font-size="10.00">&#45;&#45;&#45;</text>
<text text-anchor="middle" x="6272.5" y="-823" font-family="Helvetica" font-size="10.00">HotSpotMethod&lt;LoopBenchmarks.main(String[])&gt;</text>
</g>
<!-- b2&#45;&gt;b30 -->
<g id="edge6" class="edge">
<title>b2&#45;&gt;b30</title>
<path fill="none" stroke="black" d="M1892.62,-399.99C2100.33,-333.22 2684.54,-161 3184.5,-161 3184.5,-161 3184.5,-161 5587.5,-161 5956.92,-161 6197.34,-666.04 6256.97,-806.27"/>
<polygon fill="black" stroke="black" points="6253.85,-807.86 6260.95,-815.72 6260.3,-805.15 6253.85,-807.86"/>
</g>
<!-- b4 -->
<g id="node5" class="node">
<title>b4</title>
<polygon fill="white" stroke="black" points="2617,-614 2382,-614 2382,-562 2617,-562 2617,-614"/>
<text text-anchor="middle" x="2499.5" y="-602" font-family="Helvetica" font-size="10.00">B4</text>
<text text-anchor="middle" x="2499.5" y="-591" font-family="Helvetica" font-size="10.00">Loop: &lt;none&gt;</text>
<text text-anchor="middle" x="2499.5" y="-580" font-family="Helvetica" font-size="10.00">&#45;&#45;&#45;</text>
<text text-anchor="middle" x="2499.5" y="-569" font-family="Helvetica" font-size="10.00">HotSpotMethod&lt;LoopBenchmarks.main(String[])&gt;</text>
</g>
<!-- b3&#45;&gt;b4 -->
<g id="edge7" class="edge">
<title>b3&#45;&gt;b4</title>
<path fill="none" stroke="black" d="M2229.4,-490.15C2284.35,-510.13 2360.13,-537.68 2417.27,-558.46"/>
<polygon fill="black" stroke="black" points="2416.4,-561.87 2426.99,-562 2418.79,-555.29 2416.4,-561.87"/>
</g>
<!-- b28 -->
<g id="node29" class="node">
<title>b28</title>
<polygon fill="white" stroke="black" points="2617,-490 2382,-490 2382,-438 2617,-438 2617,-490"/>
<text text-anchor="middle" x="2499.5" y="-478" font-family="Helvetica" font-size="10.00">B28</text>
<text text-anchor="middle" x="2499.5" y="-467" font-family="Helvetica" font-size="10.00">Loop: &lt;none&gt;</text>
<text text-anchor="middle" x="2499.5" y="-456" font-family="Helvetica" font-size="10.00">&#45;&#45;&#45;</text>
<text text-anchor="middle" x="2499.5" y="-445" font-family="Helvetica" font-size="10.00">HotSpotMethod&lt;LoopBenchmarks.main(String[])&gt;</text>
</g>
<!-- b3&#45;&gt;b28 -->
<g id="edge8" class="edge">
<title>b3&#45;&gt;b28</title>
<path fill="none" stroke="black" d="M2274.38,-464C2305.69,-464 2339.69,-464 2371.52,-464"/>
<polygon fill="black" stroke="black" points="2371.78,-467.5 2381.78,-464 2371.78,-460.5 2371.78,-467.5"/>
</g>
<!-- b5 -->
<g id="node6" class="node">
<title>b5</title>
<polygon fill="white" stroke="black" points="2960,-884 2725,-884 2725,-832 2960,-832 2960,-884"/>
<text text-anchor="middle" x="2842.5" y="-872" font-family="Helvetica" font-size="10.00">B5</text>
<text text-anchor="middle" x="2842.5" y="-861" font-family="Helvetica" font-size="10.00">Loop: &lt;none&gt;</text>
<text text-anchor="middle" x="2842.5" y="-850" font-family="Helvetica" font-size="10.00">&#45;&#45;&#45;</text>
<text text-anchor="middle" x="2842.5" y="-839" font-family="Helvetica" font-size="10.00">HotSpotMethod&lt;LoopBenchmarks.main(String[])&gt;</text>
</g>
<!-- b4&#45;&gt;b5 -->
<g id="edge9" class="edge">
<title>b4&#45;&gt;b5</title>
<path fill="none" stroke="black" d="M2533.51,-614.13C2596.15,-663.73 2732.1,-771.38 2800.48,-825.52"/>
<polygon fill="black" stroke="black" points="2798.46,-828.39 2808.48,-831.85 2802.81,-822.9 2798.46,-828.39"/>
</g>
<!-- b27 -->
<g id="node28" class="node">
<title>b27</title>
<polygon fill="white" stroke="black" points="2960,-614 2725,-614 2725,-562 2960,-562 2960,-614"/>
<text text-anchor="middle" x="2842.5" y="-602" font-family="Helvetica" font-size="10.00">B27</text>
<text text-anchor="middle" x="2842.5" y="-591" font-family="Helvetica" font-size="10.00">Loop: &lt;none&gt;</text>
<text text-anchor="middle" x="2842.5" y="-580" font-family="Helvetica" font-size="10.00">&#45;&#45;&#45;</text>
<text text-anchor="middle" x="2842.5" y="-569" font-family="Helvetica" font-size="10.00">HotSpotMethod&lt;LoopBenchmarks.main(String[])&gt;</text>
</g>
<!-- b4&#45;&gt;b27 -->
<g id="edge10" class="edge">
<title>b4&#45;&gt;b27</title>
<path fill="none" stroke="black" d="M2617.38,-588C2648.69,-588 2682.69,-588 2714.52,-588"/>
<polygon fill="black" stroke="black" points="2714.78,-591.5 2724.78,-588 2714.78,-584.5 2714.78,-591.5"/>
</g>
<!-- b6 -->
<g id="node7" class="node">
<title>b6</title>
<polygon fill="white" stroke="black" points="3303,-727 3068,-727 3068,-675 3303,-675 3303,-727"/>
<text text-anchor="middle" x="3185.5" y="-715" font-family="Helvetica" font-size="10.00">B6</text>
<text text-anchor="middle" x="3185.5" y="-704" font-family="Helvetica" font-size="10.00">Loop: &lt;none&gt;</text>
<text text-anchor="middle" x="3185.5" y="-693" font-family="Helvetica" font-size="10.00">&#45;&#45;&#45;</text>
<text text-anchor="middle" x="3185.5" y="-682" font-family="Helvetica" font-size="10.00">HotSpotMethod&lt;LoopBenchmarks.main(String[])&gt;</text>
</g>
<!-- b5&#45;&gt;b6 -->
<g id="edge11" class="edge">
<title>b5&#45;&gt;b6</title>
<path fill="none" stroke="black" d="M2900.19,-831.9C2960.39,-804.18 3055.43,-760.43 3118.84,-731.23"/>
<polygon fill="black" stroke="black" points="3120.34,-734.39 3127.96,-727.03 3117.41,-728.04 3120.34,-734.39"/>
</g>
<!-- b5&#45;&gt;b30 -->
<g id="edge12" class="edge">
<title>b5&#45;&gt;b30</title>
<path fill="none" stroke="black" d="M2939.52,-884.07C3071.11,-917.44 3315.37,-971 3527.5,-971 3527.5,-971 3527.5,-971 5587.5,-971 5802,-971 6047.88,-908.98 6178.51,-870.95"/>
<polygon fill="black" stroke="black" points="6179.86,-874.2 6188.48,-868.03 6177.9,-867.48 6179.86,-874.2"/>
</g>
<!-- b7 -->
<g id="node8" class="node">
<title>b7</title>
<polygon fill="white" stroke="black" points="3646,-468 3411,-468 3411,-416 3646,-416 3646,-468"/>
<text text-anchor="middle" x="3528.5" y="-456" font-family="Helvetica" font-size="10.00">B7</text>
<text text-anchor="middle" x="3528.5" y="-445" font-family="Helvetica" font-size="10.00">Loop: &lt;none&gt;</text>
<text text-anchor="middle" x="3528.5" y="-434" font-family="Helvetica" font-size="10.00">&#45;&#45;&#45;</text>
<text text-anchor="middle" x="3528.5" y="-423" font-family="Helvetica" font-size="10.00">HotSpotMethod&lt;LoopBenchmarks.main(String[])&gt;</text>
</g>
<!-- b6&#45;&gt;b7 -->
<g id="edge13" class="edge">
<title>b6&#45;&gt;b7</title>
<path fill="none" stroke="black" d="M3220.76,-674.98C3283.57,-627.28 3416.96,-525.96 3485.27,-474.08"/>
<polygon fill="black" stroke="black" points="3487.42,-476.84 3493.27,-468 3483.18,-471.26 3487.42,-476.84"/>
</g>
<!-- b13 -->
<g id="node14" class="node">
<title>b13</title>
<polygon fill="white" stroke="black" points="4332,-664 4097,-664 4097,-612 4332,-612 4332,-664"/>
<text text-anchor="middle" x="4214.5" y="-652" font-family="Helvetica" font-size="10.00">B13</text>
<text text-anchor="middle" x="4214.5" y="-641" font-family="Helvetica" font-size="10.00">Loop: &lt;none&gt;</text>
<text text-anchor="middle" x="4214.5" y="-630" font-family="Helvetica" font-size="10.00">&#45;&#45;&#45;</text>
<text text-anchor="middle" x="4214.5" y="-619" font-family="Helvetica" font-size="10.00">HotSpotMethod&lt;LoopBenchmarks.main(String[])&gt;</text>
</g>
<!-- b6&#45;&gt;b13 -->
<g id="edge14" class="edge">
<title>b6&#45;&gt;b13</title>
<path fill="none" stroke="black" d="M3303.31,-693.83C3497.7,-681.91 3886.03,-658.09 4086.79,-645.77"/>
<polygon fill="black" stroke="black" points="4087.03,-649.26 4096.8,-645.16 4086.6,-642.28 4087.03,-649.26"/>
</g>
<!-- b8 -->
<g id="node9" class="node">
<title>b8</title>
<polygon fill="white" stroke="black" points="3989,-468 3754,-468 3754,-416 3989,-416 3989,-468"/>
<text text-anchor="middle" x="3871.5" y="-456" font-family="Helvetica" font-size="10.00">B8</text>
<text text-anchor="middle" x="3871.5" y="-445" font-family="Helvetica" font-size="10.00">Loop: &lt;none&gt;</text>
<text text-anchor="middle" x="3871.5" y="-434" font-family="Helvetica" font-size="10.00">&#45;&#45;&#45;</text>
<text text-anchor="middle" x="3871.5" y="-423" font-family="Helvetica" font-size="10.00">HotSpotMethod&lt;LoopBenchmarks.main(String[])&gt;</text>
</g>
<!-- b7&#45;&gt;b8 -->
<g id="edge15" class="edge">
<title>b7&#45;&gt;b8</title>
<path fill="none" stroke="black" d="M3646.38,-442C3677.69,-442 3711.69,-442 3743.52,-442"/>
<polygon fill="black" stroke="black" points="3743.78,-445.5 3753.78,-442 3743.78,-438.5 3743.78,-445.5"/>
</g>
<!-- b11 -->
<g id="node12" class="node">
<title>b11</title>
<polygon fill="white" stroke="black" points="4332,-333 4097,-333 4097,-281 4332,-281 4332,-333"/>
<text text-anchor="middle" x="4214.5" y="-321" font-family="Helvetica" font-size="10.00">B11</text>
<text text-anchor="middle" x="4214.5" y="-310" font-family="Helvetica" font-size="10.00">Loop: &lt;none&gt;</text>
<text text-anchor="middle" x="4214.5" y="-299" font-family="Helvetica" font-size="10.00">&#45;&#45;&#45;</text>
<text text-anchor="middle" x="4214.5" y="-288" font-family="Helvetica" font-size="10.00">HotSpotMethod&lt;LoopBenchmarks.main(String[])&gt;</text>
</g>
<!-- b7&#45;&gt;b11 -->
<g id="edge16" class="edge">
<title>b7&#45;&gt;b11</title>
<path fill="none" stroke="black" d="M3615.03,-415.96C3656.68,-403.89 3707.67,-390.05 3754,-380 3865.58,-355.81 3994.03,-336.08 4086.7,-323.25"/>
<polygon fill="black" stroke="black" points="4087.26,-326.71 4096.69,-321.88 4086.3,-319.78 4087.26,-326.71"/>
</g>
<!-- b10 -->
<g id="node11" class="node">
<title>b10</title>
<polygon fill="white" stroke="black" points="4675,-468 4440,-468 4440,-416 4675,-416 4675,-468"/>
<text text-anchor="middle" x="4557.5" y="-456" font-family="Helvetica" font-size="10.00">B10</text>
<text text-anchor="middle" x="4557.5" y="-445" font-family="Helvetica" font-size="10.00">Loop: &lt;none&gt;</text>
<text text-anchor="middle" x="4557.5" y="-434" font-family="Helvetica" font-size="10.00">&#45;&#45;&#45;</text>
<text text-anchor="middle" x="4557.5" y="-423" font-family="Helvetica" font-size="10.00">HotSpotMethod&lt;LoopBenchmarks.main(String[])&gt;</text>
</g>
<!-- b8&#45;&gt;b10 -->
<g id="edge18" class="edge">
<title>b8&#45;&gt;b10</title>
<path fill="none" stroke="black" d="M3989.31,-442C4111.81,-442 4303.7,-442 4429.79,-442"/>
<polygon fill="black" stroke="black" points="4429.89,-445.5 4439.89,-442 4429.89,-438.5 4429.89,-445.5"/>
</g>
<!-- b8&#45;&gt;b13 -->
<g id="edge17" class="edge">
<title>b8&#45;&gt;b13</title>
<path fill="none" stroke="black" d="M3922.68,-468.02C3943.35,-478.91 3967.45,-491.84 3989,-504 4049.23,-537.97 4117.28,-578.97 4162.51,-606.59"/>
<polygon fill="black" stroke="black" points="4160.89,-609.7 4171.24,-611.93 4164.54,-603.73 4160.89,-609.7"/>
</g>
<!-- b9 -->
<g id="node10" class="node">
<title>b9</title>
<polygon fill="white" stroke="black" points="3989,-862 3754,-862 3754,-810 3989,-810 3989,-862"/>
<text text-anchor="middle" x="3871.5" y="-850" font-family="Helvetica" font-size="10.00">B9</text>
<text text-anchor="middle" x="3871.5" y="-839" font-family="Helvetica" font-size="10.00">Loop: &lt;none&gt;</text>
<text text-anchor="middle" x="3871.5" y="-828" font-family="Helvetica" font-size="10.00">&#45;&#45;&#45;</text>
<text text-anchor="middle" x="3871.5" y="-817" font-family="Helvetica" font-size="10.00">HotSpotMethod&lt;LoopBenchmarks.main(String[])&gt;</text>
</g>
<!-- b9&#45;&gt;b13 -->
<g id="edge19" class="edge">
<title>b9&#45;&gt;b13</title>
<path fill="none" stroke="black" d="M3917.43,-809.91C3979.91,-773.63 4092.88,-708.04 4159.75,-669.21"/>
<polygon fill="black" stroke="black" points="4161.58,-672.19 4168.47,-664.15 4158.06,-666.14 4161.58,-672.19"/>
</g>
<!-- b25 -->
<g id="node26" class="node">
<title>b25</title>
<polygon fill="white" stroke="black" points="5018,-468 4783,-468 4783,-416 5018,-416 5018,-468"/>
<text text-anchor="middle" x="4900.5" y="-456" font-family="Helvetica" font-size="10.00">B25</text>
<text text-anchor="middle" x="4900.5" y="-445" font-family="Helvetica" font-size="10.00">Loop: &lt;none&gt;</text>
<text text-anchor="middle" x="4900.5" y="-434" font-family="Helvetica" font-size="10.00">&#45;&#45;&#45;</text>
<text text-anchor="middle" x="4900.5" y="-423" font-family="Helvetica" font-size="10.00">HotSpotMethod&lt;LoopBenchmarks.main(String[])&gt;</text>
</g>
<!-- b10&#45;&gt;b25 -->
<g id="edge20" class="edge">
<title>b10&#45;&gt;b25</title>
<path fill="none" stroke="black" d="M4675.38,-442C4706.69,-442 4740.69,-442 4772.52,-442"/>
<polygon fill="black" stroke="black" points="4772.78,-445.5 4782.78,-442 4772.78,-438.5 4772.78,-445.5"/>
</g>
<!-- b11&#45;&gt;b25 -->
<g id="edge21" class="edge">
<title>b11&#45;&gt;b25</title>
<path fill="none" stroke="black" d="M4332.31,-321.88C4425.59,-334.64 4559.35,-354.93 4675,-380 4717.8,-389.28 4764.58,-401.81 4804.3,-413.17"/>
<polygon fill="black" stroke="black" points="4803.4,-416.55 4813.97,-415.96 4805.33,-409.83 4803.4,-416.55"/>
</g>
<!-- b12 -->
<g id="node13" class="node">
<title>b12</title>
<polygon fill="white" stroke="black" points="3989,-592 3754,-592 3754,-540 3989,-540 3989,-592"/>
<text text-anchor="middle" x="3871.5" y="-580" font-family="Helvetica" font-size="10.00">B12</text>
<text text-anchor="middle" x="3871.5" y="-569" font-family="Helvetica" font-size="10.00">Loop: &lt;none&gt;</text>
<text text-anchor="middle" x="3871.5" y="-558" font-family="Helvetica" font-size="10.00">&#45;&#45;&#45;</text>
<text text-anchor="middle" x="3871.5" y="-547" font-family="Helvetica" font-size="10.00">HotSpotMethod&lt;LoopBenchmarks.main(String[])&gt;</text>
</g>
<!-- b12&#45;&gt;b13 -->
<g id="edge22" class="edge">
<title>b12&#45;&gt;b13</title>
<path fill="none" stroke="black" d="M3989.38,-590.68C4020.83,-597.32 4054.99,-604.53 4086.94,-611.28"/>
<polygon fill="black" stroke="black" points="4086.27,-614.71 4096.78,-613.35 4087.72,-607.86 4086.27,-614.71"/>
</g>
<!-- b14 -->
<g id="node15" class="node">
<title>b14</title>
<polygon fill="white" stroke="black" points="4675,-724 4440,-724 4440,-672 4675,-672 4675,-724"/>
<text text-anchor="middle" x="4557.5" y="-712" font-family="Helvetica" font-size="10.00">B14</text>
<text text-anchor="middle" x="4557.5" y="-701" font-family="Helvetica" font-size="10.00">Loop: &lt;none&gt;</text>
<text text-anchor="middle" x="4557.5" y="-690" font-family="Helvetica" font-size="10.00">&#45;&#45;&#45;</text>
<text text-anchor="middle" x="4557.5" y="-679" font-family="Helvetica" font-size="10.00">HotSpotMethod&lt;LoopBenchmarks.main(String[])&gt;</text>
</g>
<!-- b13&#45;&gt;b14 -->
<g id="edge23" class="edge">
<title>b13&#45;&gt;b14</title>
<path fill="none" stroke="black" d="M4332.38,-658.56C4363.69,-664.07 4397.69,-670.06 4429.52,-675.66"/>
<polygon fill="black" stroke="black" points="4429.32,-679.18 4439.78,-677.46 4430.53,-672.28 4429.32,-679.18"/>
</g>
<!-- b24 -->
<g id="node25" class="node">
<title>b24</title>
<polygon fill="white" stroke="black" points="4675,-597 4440,-597 4440,-545 4675,-545 4675,-597"/>
<text text-anchor="middle" x="4557.5" y="-585" font-family="Helvetica" font-size="10.00">B24</text>
<text text-anchor="middle" x="4557.5" y="-574" font-family="Helvetica" font-size="10.00">Loop: &lt;none&gt;</text>
<text text-anchor="middle" x="4557.5" y="-563" font-family="Helvetica" font-size="10.00">&#45;&#45;&#45;</text>
<text text-anchor="middle" x="4557.5" y="-552" font-family="Helvetica" font-size="10.00">HotSpotMethod&lt;LoopBenchmarks.main(String[])&gt;</text>
</g>
<!-- b13&#45;&gt;b24 -->
<g id="edge24" class="edge">
<title>b13&#45;&gt;b24</title>
<path fill="none" stroke="black" d="M4332.38,-615.04C4363.83,-608.86 4397.99,-602.14 4429.94,-595.87"/>
<polygon fill="black" stroke="black" points="4430.64,-599.3 4439.78,-593.93 4429.29,-592.43 4430.64,-599.3"/>
</g>
<!-- b15 -->
<g id="node16" class="node">
<title>b15</title>
<polygon fill="lightblue" stroke="black" points="5018,-725 4783,-725 4783,-673 5018,-673 5018,-725"/>
<text text-anchor="middle" x="4900.5" y="-713" font-family="Helvetica" font-size="10.00">B15</text>
<text text-anchor="middle" x="4900.5" y="-702" font-family="Helvetica" font-size="10.00">Loop: L0</text>
<text text-anchor="middle" x="4900.5" y="-691" font-family="Helvetica" font-size="10.00">&#45;&#45;&#45;</text>
<text text-anchor="middle" x="4900.5" y="-680" font-family="Helvetica" font-size="10.00">HotSpotMethod&lt;LoopBenchmarks.main(String[])&gt;</text>
</g>
<!-- b14&#45;&gt;b15 -->
<g id="edge25" class="edge">
<title>b14&#45;&gt;b15</title>
<path fill="none" stroke="black" d="M4675.38,-698.34C4706.69,-698.43 4740.69,-698.53 4772.52,-698.63"/>
<polygon fill="black" stroke="black" points="4772.77,-702.13 4782.78,-698.66 4772.79,-695.13 4772.77,-702.13"/>
</g>
<!-- b16 -->
<g id="node17" class="node">
<title>b16</title>
<polygon fill="lightblue" stroke="black" points="5361,-725 5126,-725 5126,-673 5361,-673 5361,-725"/>
<text text-anchor="middle" x="5243.5" y="-713" font-family="Helvetica" font-size="10.00">B16</text>
<text text-anchor="middle" x="5243.5" y="-702" font-family="Helvetica" font-size="10.00">Loop: L0</text>
<text text-anchor="middle" x="5243.5" y="-691" font-family="Helvetica" font-size="10.00">&#45;&#45;&#45;</text>
<text text-anchor="middle" x="5243.5" y="-680" font-family="Helvetica" font-size="10.00">HotSpotMethod&lt;LoopBenchmarks.main(String[])&gt;</text>
</g>
<!-- b15&#45;&gt;b16 -->
<g id="edge26" class="edge">
<title>b15&#45;&gt;b16</title>
<path fill="none" stroke="black" d="M5018.38,-673.22C5049.69,-671.75 5083.69,-671.61 5115.52,-672.8"/>
<polygon fill="black" stroke="black" points="5115.64,-676.31 5125.78,-673.23 5115.93,-669.31 5115.64,-676.31"/>
</g>
<!-- b17 -->
<g id="node18" class="node">
<title>b17</title>
<polygon fill="white" stroke="black" points="5361,-851 5126,-851 5126,-799 5361,-799 5361,-851"/>
<text text-anchor="middle" x="5243.5" y="-839" font-family="Helvetica" font-size="10.00">B17</text>
<text text-anchor="middle" x="5243.5" y="-828" font-family="Helvetica" font-size="10.00">Loop: &lt;none&gt;</text>
<text text-anchor="middle" x="5243.5" y="-817" font-family="Helvetica" font-size="10.00">&#45;&#45;&#45;</text>
<text text-anchor="middle" x="5243.5" y="-806" font-family="Helvetica" font-size="10.00">HotSpotMethod&lt;LoopBenchmarks.main(String[])&gt;</text>
</g>
<!-- b15&#45;&gt;b17 -->
<g id="edge27" class="edge">
<title>b15&#45;&gt;b17</title>
<path fill="none" stroke="black" d="M4972.16,-725.11C5027.59,-745.59 5104.78,-774.11 5162.49,-795.43"/>
<polygon fill="black" stroke="black" points="5161.34,-798.74 5171.94,-798.93 5163.77,-792.18 5161.34,-798.74"/>
</g>
<!-- b16&#45;&gt;b15 -->
<g id="edge28" class="edge">
<title>b16&#45;&gt;b15</title>
<path fill="none" stroke="black" d="M5125.78,-724.77C5094.47,-726.25 5060.47,-726.39 5028.63,-725.21"/>
<polygon fill="black" stroke="black" points="5028.51,-721.7 5018.38,-724.78 5028.22,-728.69 5028.51,-721.7"/>
</g>
<!-- b18 -->
<g id="node19" class="node">
<title>b18</title>
<polygon fill="lightgreen" stroke="black" points="5704,-862 5469,-862 5469,-810 5704,-810 5704,-862"/>
<text text-anchor="middle" x="5586.5" y="-850" font-family="Helvetica" font-size="10.00">B18</text>
<text text-anchor="middle" x="5586.5" y="-839" font-family="Helvetica" font-size="10.00">Loop: L1</text>
<text text-anchor="middle" x="5586.5" y="-828" font-family="Helvetica" font-size="10.00">&#45;&#45;&#45;</text>
<text text-anchor="middle" x="5586.5" y="-817" font-family="Helvetica" font-size="10.00">HotSpotMethod&lt;LoopBenchmarks.main(String[])&gt;</text>
</g>
<!-- b17&#45;&gt;b18 -->
<g id="edge29" class="edge">
<title>b17&#45;&gt;b18</title>
<path fill="none" stroke="black" d="M5361.38,-828.77C5392.69,-829.78 5426.69,-830.88 5458.52,-831.9"/>
<polygon fill="black" stroke="black" points="5458.67,-835.41 5468.78,-832.23 5458.9,-828.41 5458.67,-835.41"/>
</g>
<!-- b19 -->
<g id="node20" class="node">
<title>b19</title>
<polygon fill="lightgreen" stroke="black" points="6047,-862 5812,-862 5812,-810 6047,-810 6047,-862"/>
<text text-anchor="middle" x="5929.5" y="-850" font-family="Helvetica" font-size="10.00">B19</text>
<text text-anchor="middle" x="5929.5" y="-839" font-family="Helvetica" font-size="10.00">Loop: L1</text>
<text text-anchor="middle" x="5929.5" y="-828" font-family="Helvetica" font-size="10.00">&#45;&#45;&#45;</text>
<text text-anchor="middle" x="5929.5" y="-817" font-family="Helvetica" font-size="10.00">HotSpotMethod&lt;LoopBenchmarks.main(String[])&gt;</text>
</g>
<!-- b18&#45;&gt;b19 -->
<g id="edge30" class="edge">
<title>b18&#45;&gt;b19</title>
<path fill="none" stroke="black" d="M5704.38,-810.22C5735.69,-808.75 5769.69,-808.61 5801.52,-809.8"/>
<polygon fill="black" stroke="black" points="5801.64,-813.31 5811.78,-810.23 5801.93,-806.31 5801.64,-813.31"/>
</g>
<!-- b21 -->
<g id="node22" class="node">
<title>b21</title>
<polygon fill="lightpink" stroke="black" points="6047,-1256 5812,-1256 5812,-1204 6047,-1204 6047,-1256"/>
<text text-anchor="middle" x="5929.5" y="-1244" font-family="Helvetica" font-size="10.00">B21</text>
<text text-anchor="middle" x="5929.5" y="-1233" font-family="Helvetica" font-size="10.00">Loop: L2</text>
<text text-anchor="middle" x="5929.5" y="-1222" font-family="Helvetica" font-size="10.00">&#45;&#45;&#45;</text>
<text text-anchor="middle" x="5929.5" y="-1211" font-family="Helvetica" font-size="10.00">HotSpotMethod&lt;LoopBenchmarks.main(String[])&gt;</text>
</g>
<!-- b18&#45;&gt;b21 -->
<g id="edge31" class="edge">
<title>b18&#45;&gt;b21</title>
<path fill="none" stroke="black" d="M5599.74,-862.44C5628.93,-923.14 5708.03,-1074.46 5812,-1168 5825.24,-1179.91 5841.18,-1190.31 5856.97,-1199.01"/>
<polygon fill="black" stroke="black" points="5855.75,-1202.33 5866.22,-1203.94 5859.04,-1196.15 5855.75,-1202.33"/>
</g>
<!-- b19&#45;&gt;b18 -->
<g id="edge32" class="edge">
<title>b19&#45;&gt;b18</title>
<path fill="none" stroke="black" d="M5811.78,-861.77C5780.47,-863.25 5746.47,-863.39 5714.63,-862.21"/>
<polygon fill="black" stroke="black" points="5714.51,-858.7 5704.38,-861.78 5714.22,-865.69 5714.51,-858.7"/>
</g>
<!-- b20 -->
<g id="node21" class="node">
<title>b20</title>
<polygon fill="white" stroke="black" points="5704,-1256 5469,-1256 5469,-1204 5704,-1204 5704,-1256"/>
<text text-anchor="middle" x="5586.5" y="-1244" font-family="Helvetica" font-size="10.00">B20</text>
<text text-anchor="middle" x="5586.5" y="-1233" font-family="Helvetica" font-size="10.00">Loop: &lt;none&gt;</text>
<text text-anchor="middle" x="5586.5" y="-1222" font-family="Helvetica" font-size="10.00">&#45;&#45;&#45;</text>
<text text-anchor="middle" x="5586.5" y="-1211" font-family="Helvetica" font-size="10.00">HotSpotMethod&lt;LoopBenchmarks.main(String[])&gt;</text>
</g>
<!-- b20&#45;&gt;b21 -->
<g id="edge33" class="edge">
<title>b20&#45;&gt;b21</title>
<path fill="none" stroke="black" d="M5704.38,-1230C5735.69,-1230 5769.69,-1230 5801.52,-1230"/>
<polygon fill="black" stroke="black" points="5801.78,-1233.5 5811.78,-1230 5801.78,-1226.5 5801.78,-1233.5"/>
</g>
<!-- b22 -->
<g id="node23" class="node">
<title>b22</title>
<polygon fill="lightpink" stroke="black" points="6390,-1256 6155,-1256 6155,-1204 6390,-1204 6390,-1256"/>
<text text-anchor="middle" x="6272.5" y="-1244" font-family="Helvetica" font-size="10.00">B22</text>
<text text-anchor="middle" x="6272.5" y="-1233" font-family="Helvetica" font-size="10.00">Loop: L2</text>
<text text-anchor="middle" x="6272.5" y="-1222" font-family="Helvetica" font-size="10.00">&#45;&#45;&#45;</text>
<text text-anchor="middle" x="6272.5" y="-1211" font-family="Helvetica" font-size="10.00">HotSpotMethod&lt;LoopBenchmarks.main(String[])&gt;</text>
</g>
<!-- b21&#45;&gt;b22 -->
<g id="edge34" class="edge">
<title>b21&#45;&gt;b22</title>
<path fill="none" stroke="black" d="M6047.38,-1204.22C6078.69,-1202.75 6112.69,-1202.61 6144.52,-1203.8"/>
<polygon fill="black" stroke="black" points="6144.64,-1207.31 6154.78,-1204.23 6144.93,-1200.31 6144.64,-1207.31"/>
</g>
<!-- b21&#45;&gt;b30 -->
<g id="edge35" class="edge">
<title>b21&#45;&gt;b30</title>
<path fill="none" stroke="black" d="M5992.71,-1203.85C6011.38,-1194.24 6031.1,-1182.18 6047,-1168 6145,-1080.58 6221.79,-942.01 6254.43,-877.38"/>
<polygon fill="black" stroke="black" points="6257.58,-878.9 6258.92,-868.39 6251.32,-875.77 6257.58,-878.9"/>
</g>
<!-- b22&#45;&gt;b21 -->
<g id="edge36" class="edge">
<title>b22&#45;&gt;b21</title>
<path fill="none" stroke="black" d="M6154.78,-1255.77C6123.47,-1257.25 6089.47,-1257.39 6057.63,-1256.21"/>
<polygon fill="black" stroke="black" points="6057.51,-1252.7 6047.38,-1255.78 6057.22,-1259.69 6057.51,-1252.7"/>
</g>
<!-- b23 -->
<g id="node24" class="node">
<title>b23</title>
<polygon fill="white" stroke="black" points="6047,-52 5812,-52 5812,0 6047,0 6047,-52"/>
<text text-anchor="middle" x="5929.5" y="-40" font-family="Helvetica" font-size="10.00">B23</text>
<text text-anchor="middle" x="5929.5" y="-29" font-family="Helvetica" font-size="10.00">Loop: &lt;none&gt;</text>
<text text-anchor="middle" x="5929.5" y="-18" font-family="Helvetica" font-size="10.00">&#45;&#45;&#45;</text>
<text text-anchor="middle" x="5929.5" y="-7" font-family="Helvetica" font-size="10.00">HotSpotMethod&lt;LoopBenchmarks.main(String[])&gt;</text>
</g>
<!-- b23&#45;&gt;b30 -->
<g id="edge37" class="edge">
<title>b23&#45;&gt;b30</title>
<path fill="none" stroke="black" d="M5983.6,-52.07C6005.99,-65.43 6030.61,-83.64 6047,-106 6214.94,-335.1 6258.78,-691.41 6268.81,-805.53"/>
<polygon fill="black" stroke="black" points="6265.35,-806.13 6269.68,-815.8 6272.33,-805.54 6265.35,-806.13"/>
</g>
<!-- b24&#45;&gt;b25 -->
<g id="edge38" class="edge">
<title>b24&#45;&gt;b25</title>
<path fill="none" stroke="black" d="M4627.51,-544.89C4683.55,-523.69 4762.59,-493.79 4821.03,-471.68"/>
<polygon fill="black" stroke="black" points="4822.48,-474.88 4830.6,-468.07 4820,-468.33 4822.48,-474.88"/>
</g>
<!-- b26 -->
<g id="node27" class="node">
<title>b26</title>
<polygon fill="white" stroke="black" points="6047,-1132 5812,-1132 5812,-1080 6047,-1080 6047,-1132"/>
<text text-anchor="middle" x="5929.5" y="-1120" font-family="Helvetica" font-size="10.00">B26</text>
<text text-anchor="middle" x="5929.5" y="-1109" font-family="Helvetica" font-size="10.00">Loop: &lt;none&gt;</text>
<text text-anchor="middle" x="5929.5" y="-1098" font-family="Helvetica" font-size="10.00">&#45;&#45;&#45;</text>
<text text-anchor="middle" x="5929.5" y="-1087" font-family="Helvetica" font-size="10.00">HotSpotMethod&lt;LoopBenchmarks.main(String[])&gt;</text>
</g>
<!-- b26&#45;&gt;b30 -->
<g id="edge39" class="edge">
<title>b26&#45;&gt;b30</title>
<path fill="none" stroke="black" d="M5970.18,-1079.97C5992.99,-1064.7 6021.99,-1044.79 6047,-1026 6114.33,-975.43 6189.42,-912.48 6233.44,-874.86"/>
<polygon fill="black" stroke="black" points="6235.97,-877.3 6241.29,-868.14 6231.42,-871.99 6235.97,-877.3"/>
</g>
<!-- b44 -->
<g id="node45" class="node">
<title>b44</title>
<polygon fill="white" stroke="black" points="3303,-541 3068,-541 3068,-489 3303,-489 3303,-541"/>
<text text-anchor="middle" x="3185.5" y="-529" font-family="Helvetica" font-size="10.00">B44</text>
<text text-anchor="middle" x="3185.5" y="-518" font-family="Helvetica" font-size="10.00">Loop: &lt;none&gt;</text>
<text text-anchor="middle" x="3185.5" y="-507" font-family="Helvetica" font-size="10.00">&#45;&#45;&#45;</text>
<text text-anchor="middle" x="3185.5" y="-496" font-family="Helvetica" font-size="10.00">HotSpotMethod&lt;LoopBenchmarks.main(String[])&gt;</text>
</g>
<!-- b27&#45;&gt;b44 -->
<g id="edge40" class="edge">
<title>b27&#45;&gt;b44</title>
<path fill="none" stroke="black" d="M2960.38,-562.98C2991.83,-556.25 3025.99,-548.93 3057.94,-542.09"/>
<polygon fill="black" stroke="black" points="3058.73,-545.5 3067.78,-539.99 3057.27,-538.66 3058.73,-545.5"/>
</g>
<!-- b28&#45;&gt;b44 -->
<g id="edge41" class="edge">
<title>b28&#45;&gt;b44</title>
<path fill="none" stroke="black" d="M2617.31,-472.71C2739.81,-481.84 2931.7,-496.15 3057.79,-505.55"/>
<polygon fill="black" stroke="black" points="3057.66,-509.05 3067.89,-506.31 3058.18,-502.07 3057.66,-509.05"/>
</g>
<!-- b29 -->
<g id="node30" class="node">
<title>b29</title>
<polygon fill="white" stroke="black" points="6047,-738 5812,-738 5812,-686 6047,-686 6047,-738"/>
<text text-anchor="middle" x="5929.5" y="-726" font-family="Helvetica" font-size="10.00">B29</text>
<text text-anchor="middle" x="5929.5" y="-715" font-family="Helvetica" font-size="10.00">Loop: &lt;none&gt;</text>
<text text-anchor="middle" x="5929.5" y="-704" font-family="Helvetica" font-size="10.00">&#45;&#45;&#45;</text>
<text text-anchor="middle" x="5929.5" y="-693" font-family="Helvetica" font-size="10.00">HotSpotMethod&lt;LoopBenchmarks.main(String[])&gt;</text>
</g>
<!-- b29&#45;&gt;b30 -->
<g id="edge42" class="edge">
<title>b29&#45;&gt;b30</title>
<path fill="none" stroke="black" d="M5999.1,-738.15C6055.29,-759.57 6134.8,-789.89 6193.42,-812.24"/>
<polygon fill="black" stroke="black" points="6192.42,-815.6 6203.01,-815.89 6194.92,-809.06 6192.42,-815.6"/>
</g>
<!-- b31 -->
<g id="node32" class="node">
<title>b31</title>
<polygon fill="gold" stroke="black" points="6733,-868 6498,-868 6498,-816 6733,-816 6733,-868"/>
<text text-anchor="middle" x="6615.5" y="-856" font-family="Helvetica" font-size="10.00">B31</text>
<text text-anchor="middle" x="6615.5" y="-845" font-family="Helvetica" font-size="10.00">Loop: L3</text>
<text text-anchor="middle" x="6615.5" y="-834" font-family="Helvetica" font-size="10.00">&#45;&#45;&#45;</text>
<text text-anchor="middle" x="6615.5" y="-823" font-family="Helvetica" font-size="10.00">HotSpotMethod&lt;LoopBenchmarks.main(String[])&gt;</text>
</g>
<!-- b30&#45;&gt;b31 -->
<g id="edge43" class="edge">
<title>b30&#45;&gt;b31</title>
<path fill="none" stroke="black" d="M6390.38,-842C6421.69,-842 6455.69,-842 6487.52,-842"/>
<polygon fill="black" stroke="black" points="6487.78,-845.5 6497.78,-842 6487.78,-838.5 6487.78,-845.5"/>
</g>
<!-- b32 -->
<g id="node33" class="node">
<title>b32</title>
<polygon fill="gold" stroke="black" points="7076,-992 6841,-992 6841,-940 7076,-940 7076,-992"/>
<text text-anchor="middle" x="6958.5" y="-980" font-family="Helvetica" font-size="10.00">B32</text>
<text text-anchor="middle" x="6958.5" y="-969" font-family="Helvetica" font-size="10.00">Loop: L3</text>
<text text-anchor="middle" x="6958.5" y="-958" font-family="Helvetica" font-size="10.00">&#45;&#45;&#45;</text>
<text text-anchor="middle" x="6958.5" y="-947" font-family="Helvetica" font-size="10.00">HotSpotMethod&lt;LoopBenchmarks.main(String[])&gt;</text>
</g>
<!-- b31&#45;&gt;b32 -->
<g id="edge44" class="edge">
<title>b31&#45;&gt;b32</title>
<path fill="none" stroke="black" d="M6688.4,-868.15C6743.35,-888.13 6819.13,-915.68 6876.27,-936.46"/>
<polygon fill="black" stroke="black" points="6875.4,-939.87 6885.99,-940 6877.79,-933.29 6875.4,-939.87"/>
</g>
<!-- b41 -->
<g id="node42" class="node">
<title>b41</title>
<polygon fill="white" stroke="black" points="7076,-868 6841,-868 6841,-816 7076,-816 7076,-868"/>
<text text-anchor="middle" x="6958.5" y="-856" font-family="Helvetica" font-size="10.00">B41</text>
<text text-anchor="middle" x="6958.5" y="-845" font-family="Helvetica" font-size="10.00">Loop: &lt;none&gt;</text>
<text text-anchor="middle" x="6958.5" y="-834" font-family="Helvetica" font-size="10.00">&#45;&#45;&#45;</text>
<text text-anchor="middle" x="6958.5" y="-823" font-family="Helvetica" font-size="10.00">HotSpotMethod&lt;LoopBenchmarks.main(String[])&gt;</text>
</g>
<!-- b31&#45;&gt;b41 -->
<g id="edge45" class="edge">
<title>b31&#45;&gt;b41</title>
<path fill="none" stroke="black" d="M6733.38,-842C6764.69,-842 6798.69,-842 6830.52,-842"/>
<polygon fill="black" stroke="black" points="6830.78,-845.5 6840.78,-842 6830.78,-838.5 6830.78,-845.5"/>
</g>
<!-- b33 -->
<g id="node34" class="node">
<title>b33</title>
<polygon fill="orange" stroke="black" points="7419,-976 7184,-976 7184,-924 7419,-924 7419,-976"/>
<text text-anchor="middle" x="7301.5" y="-964" font-family="Helvetica" font-size="10.00">B33</text>
<text text-anchor="middle" x="7301.5" y="-953" font-family="Helvetica" font-size="10.00">Loop: L4</text>
<text text-anchor="middle" x="7301.5" y="-942" font-family="Helvetica" font-size="10.00">&#45;&#45;&#45;</text>
<text text-anchor="middle" x="7301.5" y="-931" font-family="Helvetica" font-size="10.00">HotSpotMethod&lt;LoopBenchmarks.main(String[])&gt;</text>
</g>
<!-- b32&#45;&gt;b33 -->
<g id="edge46" class="edge">
<title>b32&#45;&gt;b33</title>
<path fill="none" stroke="black" d="M7076.38,-960.52C7107.69,-959.05 7141.69,-957.45 7173.52,-955.96"/>
<polygon fill="black" stroke="black" points="7173.95,-959.44 7183.78,-955.48 7173.62,-952.45 7173.95,-959.44"/>
</g>
<!-- b34 -->
<g id="node35" class="node">
<title>b34</title>
<polygon fill="orange" stroke="black" points="7762,-1096 7527,-1096 7527,-1044 7762,-1044 7762,-1096"/>
<text text-anchor="middle" x="7644.5" y="-1084" font-family="Helvetica" font-size="10.00">B34</text>
<text text-anchor="middle" x="7644.5" y="-1073" font-family="Helvetica" font-size="10.00">Loop: L4</text>
<text text-anchor="middle" x="7644.5" y="-1062" font-family="Helvetica" font-size="10.00">&#45;&#45;&#45;</text>
<text text-anchor="middle" x="7644.5" y="-1051" font-family="Helvetica" font-size="10.00">HotSpotMethod&lt;LoopBenchmarks.main(String[])&gt;</text>
</g>
<!-- b33&#45;&gt;b34 -->
<g id="edge47" class="edge">
<title>b33&#45;&gt;b34</title>
<path fill="none" stroke="black" d="M7376.49,-976.04C7430.47,-995.03 7503.69,-1020.8 7559.8,-1040.55"/>
<polygon fill="black" stroke="black" points="7558.76,-1043.89 7569.36,-1043.91 7561.09,-1037.29 7558.76,-1043.89"/>
</g>
<!-- b37 -->
<g id="node38" class="node">
<title>b37</title>
<polygon fill="gold" stroke="black" points="7762,-795 7527,-795 7527,-743 7762,-743 7762,-795"/>
<text text-anchor="middle" x="7644.5" y="-783" font-family="Helvetica" font-size="10.00">B37</text>
<text text-anchor="middle" x="7644.5" y="-772" font-family="Helvetica" font-size="10.00">Loop: L3</text>
<text text-anchor="middle" x="7644.5" y="-761" font-family="Helvetica" font-size="10.00">&#45;&#45;&#45;</text>
<text text-anchor="middle" x="7644.5" y="-750" font-family="Helvetica" font-size="10.00">HotSpotMethod&lt;LoopBenchmarks.main(String[])&gt;</text>
</g>
<!-- b33&#45;&gt;b37 -->
<g id="edge48" class="edge">
<title>b33&#45;&gt;b37</title>
<path fill="none" stroke="black" d="M7351.72,-923.87C7413.55,-891.06 7519.5,-834.82 7585.29,-799.9"/>
<polygon fill="black" stroke="black" points="7587.1,-802.9 7594.29,-795.12 7583.82,-796.71 7587.1,-802.9"/>
</g>
<!-- b35 -->
<g id="node36" class="node">
<title>b35</title>
<polygon fill="orange" stroke="black" points="8105,-1096 7870,-1096 7870,-1044 8105,-1044 8105,-1096"/>
<text text-anchor="middle" x="7987.5" y="-1084" font-family="Helvetica" font-size="10.00">B35</text>
<text text-anchor="middle" x="7987.5" y="-1073" font-family="Helvetica" font-size="10.00">Loop: L4</text>
<text text-anchor="middle" x="7987.5" y="-1062" font-family="Helvetica" font-size="10.00">&#45;&#45;&#45;</text>
<text text-anchor="middle" x="7987.5" y="-1051" font-family="Helvetica" font-size="10.00">HotSpotMethod&lt;LoopBenchmarks.main(String[])&gt;</text>
</g>
<!-- b34&#45;&gt;b35 -->
<g id="edge49" class="edge">
<title>b34&#45;&gt;b35</title>
<path fill="none" stroke="black" d="M7762.38,-1070C7793.69,-1070 7827.69,-1070 7859.52,-1070"/>
<polygon fill="black" stroke="black" points="7859.78,-1073.5 7869.78,-1070 7859.78,-1066.5 7859.78,-1073.5"/>
</g>
<!-- b40 -->
<g id="node41" class="node">
<title>b40</title>
<polygon fill="white" stroke="black" points="8448,-1287 8213,-1287 8213,-1235 8448,-1235 8448,-1287"/>
<text text-anchor="middle" x="8330.5" y="-1275" font-family="Helvetica" font-size="10.00">B40</text>
<text text-anchor="middle" x="8330.5" y="-1264" font-family="Helvetica" font-size="10.00">Loop: &lt;none&gt;</text>
<text text-anchor="middle" x="8330.5" y="-1253" font-family="Helvetica" font-size="10.00">&#45;&#45;&#45;</text>
<text text-anchor="middle" x="8330.5" y="-1242" font-family="Helvetica" font-size="10.00">HotSpotMethod&lt;LoopBenchmarks.main(String[])&gt;</text>
</g>
<!-- b34&#45;&gt;b40 -->
<g id="edge50" class="edge">
<title>b34&#45;&gt;b40</title>
<path fill="none" stroke="black" d="M7666.27,-1096.15C7702.31,-1139.19 7781.13,-1223.42 7870,-1256 7977.14,-1295.28 8108.01,-1292.22 8202.64,-1281.88"/>
<polygon fill="black" stroke="black" points="8203.29,-1285.33 8212.83,-1280.72 8202.5,-1278.37 8203.29,-1285.33"/>
</g>
<!-- b36 -->
<g id="node37" class="node">
<title>b36</title>
<polygon fill="orange" stroke="black" points="8448,-1029 8213,-1029 8213,-977 8448,-977 8448,-1029"/>
<text text-anchor="middle" x="8330.5" y="-1017" font-family="Helvetica" font-size="10.00">B36</text>
<text text-anchor="middle" x="8330.5" y="-1006" font-family="Helvetica" font-size="10.00">Loop: L4</text>
<text text-anchor="middle" x="8330.5" y="-995" font-family="Helvetica" font-size="10.00">&#45;&#45;&#45;</text>
<text text-anchor="middle" x="8330.5" y="-984" font-family="Helvetica" font-size="10.00">HotSpotMethod&lt;LoopBenchmarks.main(String[])&gt;</text>
</g>
<!-- b35&#45;&gt;b36 -->
<g id="edge51" class="edge">
<title>b35&#45;&gt;b36</title>
<path fill="none" stroke="black" d="M8105.38,-1047.04C8136.83,-1040.86 8170.99,-1034.14 8202.94,-1027.87"/>
<polygon fill="black" stroke="black" points="8203.64,-1031.3 8212.78,-1025.93 8202.29,-1024.43 8203.64,-1031.3"/>
</g>
<!-- b35&#45;&gt;b40 -->
<g id="edge52" class="edge">
<title>b35&#45;&gt;b40</title>
<path fill="none" stroke="black" d="M8038.29,-1096.04C8059.01,-1107 8083.25,-1119.97 8105,-1132 8164,-1164.64 8230.94,-1203.32 8276.25,-1229.75"/>
<polygon fill="black" stroke="black" points="8274.62,-1232.85 8285.02,-1234.87 8278.15,-1226.81 8274.62,-1232.85"/>
</g>
<!-- b36&#45;&gt;b33 -->
<g id="edge53" class="edge">
<title>b36&#45;&gt;b33</title>
<path fill="none" stroke="black" d="M8212.8,-996.98C8018.48,-986.95 7630.15,-966.91 7429.32,-956.54"/>
<polygon fill="black" stroke="black" points="7429.48,-953.05 7419.31,-956.03 7429.12,-960.04 7429.48,-953.05"/>
</g>
<!-- b37&#45;&gt;b31 -->
<g id="edge54" class="edge">
<title>b37&#45;&gt;b31</title>
<path fill="none" stroke="black" d="M7526.83,-761.33C7370,-753.12 7082.92,-745.52 6841,-780 6794.12,-786.68 6743.15,-800.23 6701.64,-812.95"/>
<polygon fill="black" stroke="black" points="6700.36,-809.69 6691.85,-816 6702.44,-816.37 6700.36,-809.69"/>
</g>
<!-- b38 -->
<g id="node39" class="node">
<title>b38</title>
<polygon fill="white" stroke="black" points="8105,-1220 7870,-1220 7870,-1168 8105,-1168 8105,-1220"/>
<text text-anchor="middle" x="7987.5" y="-1208" font-family="Helvetica" font-size="10.00">B38</text>
<text text-anchor="middle" x="7987.5" y="-1197" font-family="Helvetica" font-size="10.00">Loop: &lt;none&gt;</text>
<text text-anchor="middle" x="7987.5" y="-1186" font-family="Helvetica" font-size="10.00">&#45;&#45;&#45;</text>
<text text-anchor="middle" x="7987.5" y="-1175" font-family="Helvetica" font-size="10.00">HotSpotMethod&lt;LoopBenchmarks.main(String[])&gt;</text>
</g>
<!-- b38&#45;&gt;b40 -->
<g id="edge55" class="edge">
<title>b38&#45;&gt;b40</title>
<path fill="none" stroke="black" d="M8105.38,-1216.96C8136.83,-1223.14 8170.99,-1229.86 8202.94,-1236.13"/>
<polygon fill="black" stroke="black" points="8202.29,-1239.57 8212.78,-1238.07 8203.64,-1232.7 8202.29,-1239.57"/>
</g>
<!-- b39 -->
<g id="node40" class="node">
<title>b39</title>
<polygon fill="white" stroke="black" points="8105,-1490 7870,-1490 7870,-1438 8105,-1438 8105,-1490"/>
<text text-anchor="middle" x="7987.5" y="-1478" font-family="Helvetica" font-size="10.00">B39</text>
<text text-anchor="middle" x="7987.5" y="-1467" font-family="Helvetica" font-size="10.00">Loop: &lt;none&gt;</text>
<text text-anchor="middle" x="7987.5" y="-1456" font-family="Helvetica" font-size="10.00">&#45;&#45;&#45;</text>
<text text-anchor="middle" x="7987.5" y="-1445" font-family="Helvetica" font-size="10.00">HotSpotMethod&lt;LoopBenchmarks.main(String[])&gt;</text>
</g>
<!-- b39&#45;&gt;b40 -->
<g id="edge56" class="edge">
<title>b39&#45;&gt;b40</title>
<path fill="none" stroke="black" d="M8032.38,-1437.88C8095.04,-1400.57 8209.98,-1332.15 8277.05,-1292.22"/>
<polygon fill="black" stroke="black" points="8278.98,-1295.15 8285.79,-1287.02 8275.4,-1289.13 8278.98,-1295.15"/>
</g>
<!-- b42&#45;&gt;b44 -->
<g id="edge57" class="edge">
<title>b42&#45;&gt;b44</title>
<path fill="none" stroke="black" d="M1931.05,-658.46C2141.26,-694.39 2595.88,-751.05 2960,-650 3031.49,-630.16 3103.02,-580.79 3145.52,-547.58"/>
<polygon fill="black" stroke="black" points="3147.96,-550.12 3153.63,-541.17 3143.61,-544.63 3147.96,-550.12"/>
</g>
<!-- b43&#45;&gt;b44 -->
<g id="edge58" class="edge">
<title>b43&#45;&gt;b44</title>
<path fill="none" stroke="black" d="M2239.81,-215.13C2429.15,-275.23 2894.51,-422.95 3092.71,-485.86"/>
<polygon fill="black" stroke="black" points="3091.92,-489.29 3102.51,-488.98 3094.04,-482.61 3091.92,-489.29"/>
</g>
</g>
</svg>
