<?xml version="1.0" encoding="UTF-8" standalone="no"?>
<!DOCTYPE svg PUBLIC "-//W3C//DTD SVG 1.1//EN"
 "http://www.w3.org/Graphics/SVG/1.1/DTD/svg11.dtd">
<!-- Generated by graphviz version 2.44.0 (0)
 -->
<!-- Title: CFG_30 Pages: 1 -->
<svg width="4856pt" height="549pt"
 viewBox="0.00 0.00 4856.00 549.00" xmlns="http://www.w3.org/2000/svg" xmlns:xlink="http://www.w3.org/1999/xlink">
<g id="graph0" class="graph" transform="scale(1 1) rotate(0) translate(4 545)">
<title>CFG_30</title>
<polygon fill="white" stroke="transparent" points="-4,4 -4,-545 4852,-545 4852,4 -4,4"/>
<text text-anchor="middle" x="286.5" y="-521" font-family="Times-Roman" font-size="20.00">java.util.ImmutableCollections$SetN$SetNIterator.next()</text>
<!-- b0 -->
<g id="node1" class="node">
<title>b0</title>
<polygon fill="white" stroke="black" points="305,-316 0,-316 0,-264 305,-264 305,-316"/>
<text text-anchor="middle" x="152.5" y="-304" font-family="Helvetica" font-size="10.00">B0</text>
<text text-anchor="middle" x="152.5" y="-293" font-family="Helvetica" font-size="10.00">Loop: &lt;none&gt;</text>
<text text-anchor="middle" x="152.5" y="-282" font-family="Helvetica" font-size="10.00">&#45;&#45;&#45;</text>
<text text-anchor="middle" x="152.5" y="-271" font-family="Helvetica" font-size="10.00">HotSpotMethod&lt;ImmutableCollections$SetN$SetNIterator.next()&gt;</text>
</g>
<!-- b1 -->
<g id="node2" class="node">
<title>b1</title>
<polygon fill="white" stroke="black" points="718,-378 413,-378 413,-326 718,-326 718,-378"/>
<text text-anchor="middle" x="565.5" y="-366" font-family="Helvetica" font-size="10.00">B1</text>
<text text-anchor="middle" x="565.5" y="-355" font-family="Helvetica" font-size="10.00">Loop: &lt;none&gt;</text>
<text text-anchor="middle" x="565.5" y="-344" font-family="Helvetica" font-size="10.00">&#45;&#45;&#45;</text>
<text text-anchor="middle" x="565.5" y="-333" font-family="Helvetica" font-size="10.00">HotSpotMethod&lt;ImmutableCollections$SetN$SetNIterator.next()&gt;</text>
</g>
<!-- b0&#45;&gt;b1 -->
<g id="edge1" class="edge">
<title>b0&#45;&gt;b1</title>
<path fill="none" stroke="black" d="M305.08,-312.87C336.91,-317.67 370.59,-322.75 402.77,-327.6"/>
<polygon fill="black" stroke="black" points="402.29,-331.07 412.7,-329.1 403.34,-324.15 402.29,-331.07"/>
</g>
<!-- b2 -->
<g id="node3" class="node">
<title>b2</title>
<polygon fill="white" stroke="black" points="718,-254 413,-254 413,-202 718,-202 718,-254"/>
<text text-anchor="middle" x="565.5" y="-242" font-family="Helvetica" font-size="10.00">B2</text>
<text text-anchor="middle" x="565.5" y="-231" font-family="Helvetica" font-size="10.00">Loop: &lt;none&gt;</text>
<text text-anchor="middle" x="565.5" y="-220" font-family="Helvetica" font-size="10.00">&#45;&#45;&#45;</text>
<text text-anchor="middle" x="565.5" y="-209" font-family="Helvetica" font-size="10.00">HotSpotMethod&lt;ImmutableCollections$SetN$SetNIterator.next()&gt;</text>
</g>
<!-- b0&#45;&gt;b2 -->
<g id="edge2" class="edge">
<title>b0&#45;&gt;b2</title>
<path fill="none" stroke="black" d="M305.08,-267.13C336.91,-262.33 370.59,-257.25 402.77,-252.4"/>
<polygon fill="black" stroke="black" points="403.34,-255.85 412.7,-250.9 402.29,-248.93 403.34,-255.85"/>
</g>
<!-- b3 -->
<g id="node4" class="node">
<title>b3</title>
<polygon fill="white" stroke="black" points="1131,-322 826,-322 826,-270 1131,-270 1131,-322"/>
<text text-anchor="middle" x="978.5" y="-310" font-family="Helvetica" font-size="10.00">B3</text>
<text text-anchor="middle" x="978.5" y="-299" font-family="Helvetica" font-size="10.00">Loop: &lt;none&gt;</text>
<text text-anchor="middle" x="978.5" y="-288" font-family="Helvetica" font-size="10.00">&#45;&#45;&#45;</text>
<text text-anchor="middle" x="978.5" y="-277" font-family="Helvetica" font-size="10.00">HotSpotMethod&lt;ImmutableCollections$SetN$SetNIterator.next()&gt;</text>
</g>
<!-- b2&#45;&gt;b3 -->
<g id="edge3" class="edge">
<title>b2&#45;&gt;b3</title>
<path fill="none" stroke="black" d="M718.08,-253.08C749.91,-258.34 783.59,-263.92 815.77,-269.24"/>
<polygon fill="black" stroke="black" points="815.27,-272.71 825.7,-270.89 816.41,-265.8 815.27,-272.71"/>
</g>
<!-- b5 -->
<g id="node6" class="node">
<title>b5</title>
<polygon fill="white" stroke="black" points="1544,-187 1239,-187 1239,-135 1544,-135 1544,-187"/>
<text text-anchor="middle" x="1391.5" y="-175" font-family="Helvetica" font-size="10.00">B5</text>
<text text-anchor="middle" x="1391.5" y="-164" font-family="Helvetica" font-size="10.00">Loop: &lt;none&gt;</text>
<text text-anchor="middle" x="1391.5" y="-153" font-family="Helvetica" font-size="10.00">&#45;&#45;&#45;</text>
<text text-anchor="middle" x="1391.5" y="-142" font-family="Helvetica" font-size="10.00">HotSpotMethod&lt;ImmutableCollections$SetN$SetNIterator.next()&gt;</text>
</g>
<!-- b2&#45;&gt;b5 -->
<g id="edge4" class="edge">
<title>b2&#45;&gt;b5</title>
<path fill="none" stroke="black" d="M718.11,-215.67C862.95,-203.9 1080.52,-186.2 1228.66,-174.16"/>
<polygon fill="black" stroke="black" points="1229.08,-177.64 1238.76,-173.34 1228.51,-170.66 1229.08,-177.64"/>
</g>
<!-- b3&#45;&gt;b5 -->
<g id="edge5" class="edge">
<title>b3&#45;&gt;b5</title>
<path fill="none" stroke="black" d="M1058.74,-269.97C1128.28,-247.13 1229.32,-213.94 1301.59,-190.2"/>
<polygon fill="black" stroke="black" points="1302.74,-193.51 1311.15,-187.06 1300.56,-186.86 1302.74,-193.51"/>
</g>
<!-- b4 -->
<g id="node5" class="node">
<title>b4</title>
<polygon fill="white" stroke="black" points="1131,-52 826,-52 826,0 1131,0 1131,-52"/>
<text text-anchor="middle" x="978.5" y="-40" font-family="Helvetica" font-size="10.00">B4</text>
<text text-anchor="middle" x="978.5" y="-29" font-family="Helvetica" font-size="10.00">Loop: &lt;none&gt;</text>
<text text-anchor="middle" x="978.5" y="-18" font-family="Helvetica" font-size="10.00">&#45;&#45;&#45;</text>
<text text-anchor="middle" x="978.5" y="-7" font-family="Helvetica" font-size="10.00">HotSpotMethod&lt;ImmutableCollections$SetN$SetNIterator.next()&gt;</text>
</g>
<!-- b4&#45;&gt;b5 -->
<g id="edge6" class="edge">
<title>b4&#45;&gt;b5</title>
<path fill="none" stroke="black" d="M1058.74,-52.03C1128.28,-74.87 1229.32,-108.06 1301.59,-131.8"/>
<polygon fill="black" stroke="black" points="1300.56,-135.14 1311.15,-134.94 1302.74,-128.49 1300.56,-135.14"/>
</g>
<!-- b6 -->
<g id="node7" class="node">
<title>b6</title>
<polygon fill="white" stroke="black" points="1957,-249 1652,-249 1652,-197 1957,-197 1957,-249"/>
<text text-anchor="middle" x="1804.5" y="-237" font-family="Helvetica" font-size="10.00">B6</text>
<text text-anchor="middle" x="1804.5" y="-226" font-family="Helvetica" font-size="10.00">Loop: &lt;none&gt;</text>
<text text-anchor="middle" x="1804.5" y="-215" font-family="Helvetica" font-size="10.00">&#45;&#45;&#45;</text>
<text text-anchor="middle" x="1804.5" y="-204" font-family="Helvetica" font-size="10.00">HotSpotMethod&lt;ImmutableCollections$SetN$SetNIterator.next()&gt;</text>
</g>
<!-- b5&#45;&gt;b6 -->
<g id="edge7" class="edge">
<title>b5&#45;&gt;b6</title>
<path fill="none" stroke="black" d="M1544.08,-183.87C1575.91,-188.67 1609.59,-193.75 1641.77,-198.6"/>
<polygon fill="black" stroke="black" points="1641.29,-202.07 1651.7,-200.1 1642.34,-195.15 1641.29,-202.07"/>
</g>
<!-- b18 -->
<g id="node19" class="node">
<title>b18</title>
<polygon fill="white" stroke="black" points="1957,-125 1652,-125 1652,-73 1957,-73 1957,-125"/>
<text text-anchor="middle" x="1804.5" y="-113" font-family="Helvetica" font-size="10.00">B18</text>
<text text-anchor="middle" x="1804.5" y="-102" font-family="Helvetica" font-size="10.00">Loop: &lt;none&gt;</text>
<text text-anchor="middle" x="1804.5" y="-91" font-family="Helvetica" font-size="10.00">&#45;&#45;&#45;</text>
<text text-anchor="middle" x="1804.5" y="-80" font-family="Helvetica" font-size="10.00">HotSpotMethod&lt;ImmutableCollections$SetN$SetNIterator.next()&gt;</text>
</g>
<!-- b5&#45;&gt;b18 -->
<g id="edge8" class="edge">
<title>b5&#45;&gt;b18</title>
<path fill="none" stroke="black" d="M1544.08,-138.13C1575.91,-133.33 1609.59,-128.25 1641.77,-123.4"/>
<polygon fill="black" stroke="black" points="1642.34,-126.85 1651.7,-121.9 1641.29,-119.93 1642.34,-126.85"/>
</g>
<!-- b7 -->
<g id="node8" class="node">
<title>b7</title>
<polygon fill="white" stroke="black" points="2370,-318 2065,-318 2065,-266 2370,-266 2370,-318"/>
<text text-anchor="middle" x="2217.5" y="-306" font-family="Helvetica" font-size="10.00">B7</text>
<text text-anchor="middle" x="2217.5" y="-295" font-family="Helvetica" font-size="10.00">Loop: &lt;none&gt;</text>
<text text-anchor="middle" x="2217.5" y="-284" font-family="Helvetica" font-size="10.00">&#45;&#45;&#45;</text>
<text text-anchor="middle" x="2217.5" y="-273" font-family="Helvetica" font-size="10.00">HotSpotMethod&lt;ImmutableCollections$SetN$SetNIterator.next()&gt;</text>
</g>
<!-- b6&#45;&gt;b7 -->
<g id="edge9" class="edge">
<title>b6&#45;&gt;b7</title>
<path fill="none" stroke="black" d="M1957.08,-248.45C1988.91,-253.79 2022.59,-259.45 2054.77,-264.85"/>
<polygon fill="black" stroke="black" points="2054.26,-268.31 2064.7,-266.52 2055.42,-261.41 2054.26,-268.31"/>
</g>
<!-- b16 -->
<g id="node17" class="node">
<title>b16</title>
<polygon fill="white" stroke="black" points="2783,-175 2478,-175 2478,-123 2783,-123 2783,-175"/>
<text text-anchor="middle" x="2630.5" y="-163" font-family="Helvetica" font-size="10.00">B16</text>
<text text-anchor="middle" x="2630.5" y="-152" font-family="Helvetica" font-size="10.00">Loop: &lt;none&gt;</text>
<text text-anchor="middle" x="2630.5" y="-141" font-family="Helvetica" font-size="10.00">&#45;&#45;&#45;</text>
<text text-anchor="middle" x="2630.5" y="-130" font-family="Helvetica" font-size="10.00">HotSpotMethod&lt;ImmutableCollections$SetN$SetNIterator.next()&gt;</text>
</g>
<!-- b6&#45;&gt;b16 -->
<g id="edge10" class="edge">
<title>b6&#45;&gt;b16</title>
<path fill="none" stroke="black" d="M1957.11,-209.38C2101.95,-196.38 2319.52,-176.84 2467.66,-163.53"/>
<polygon fill="black" stroke="black" points="2468.12,-167.01 2477.76,-162.63 2467.49,-160.04 2468.12,-167.01"/>
</g>
<!-- b8 -->
<g id="node9" class="node">
<title>b8</title>
<polygon fill="lightblue" stroke="black" points="2783,-319 2478,-319 2478,-267 2783,-267 2783,-319"/>
<text text-anchor="middle" x="2630.5" y="-307" font-family="Helvetica" font-size="10.00">B8</text>
<text text-anchor="middle" x="2630.5" y="-296" font-family="Helvetica" font-size="10.00">Loop: L0</text>
<text text-anchor="middle" x="2630.5" y="-285" font-family="Helvetica" font-size="10.00">&#45;&#45;&#45;</text>
<text text-anchor="middle" x="2630.5" y="-274" font-family="Helvetica" font-size="10.00">HotSpotMethod&lt;ImmutableCollections$SetN$SetNIterator.next()&gt;</text>
</g>
<!-- b7&#45;&gt;b8 -->
<g id="edge11" class="edge">
<title>b7&#45;&gt;b8</title>
<path fill="none" stroke="black" d="M2370.08,-292.37C2401.77,-292.45 2435.3,-292.53 2467.35,-292.61"/>
<polygon fill="black" stroke="black" points="2467.7,-296.11 2477.7,-292.63 2467.71,-289.11 2467.7,-296.11"/>
</g>
<!-- b9 -->
<g id="node10" class="node">
<title>b9</title>
<polygon fill="lightblue" stroke="black" points="3196,-511 2891,-511 2891,-459 3196,-459 3196,-511"/>
<text text-anchor="middle" x="3043.5" y="-499" font-family="Helvetica" font-size="10.00">B9</text>
<text text-anchor="middle" x="3043.5" y="-488" font-family="Helvetica" font-size="10.00">Loop: L0</text>
<text text-anchor="middle" x="3043.5" y="-477" font-family="Helvetica" font-size="10.00">&#45;&#45;&#45;</text>
<text text-anchor="middle" x="3043.5" y="-466" font-family="Helvetica" font-size="10.00">HotSpotMethod&lt;ImmutableCollections$SetN$SetNIterator.next()&gt;</text>
</g>
<!-- b8&#45;&gt;b9 -->
<g id="edge12" class="edge">
<title>b8&#45;&gt;b9</title>
<path fill="none" stroke="black" d="M2680.71,-319.05C2732.5,-346.15 2816.68,-389.24 2891,-423 2915.21,-434 2941.97,-445.24 2966.17,-455.08"/>
<polygon fill="black" stroke="black" points="2965.08,-458.41 2975.66,-458.92 2967.7,-451.93 2965.08,-458.41"/>
</g>
<!-- b10 -->
<g id="node11" class="node">
<title>b10</title>
<polygon fill="lightblue" stroke="black" points="3196,-387 2891,-387 2891,-335 3196,-335 3196,-387"/>
<text text-anchor="middle" x="3043.5" y="-375" font-family="Helvetica" font-size="10.00">B10</text>
<text text-anchor="middle" x="3043.5" y="-364" font-family="Helvetica" font-size="10.00">Loop: L0</text>
<text text-anchor="middle" x="3043.5" y="-353" font-family="Helvetica" font-size="10.00">&#45;&#45;&#45;</text>
<text text-anchor="middle" x="3043.5" y="-342" font-family="Helvetica" font-size="10.00">HotSpotMethod&lt;ImmutableCollections$SetN$SetNIterator.next()&gt;</text>
</g>
<!-- b8&#45;&gt;b10 -->
<g id="edge13" class="edge">
<title>b8&#45;&gt;b10</title>
<path fill="none" stroke="black" d="M2783.08,-318.08C2814.91,-323.34 2848.59,-328.92 2880.77,-334.24"/>
<polygon fill="black" stroke="black" points="2880.27,-337.71 2890.7,-335.89 2881.41,-330.8 2880.27,-337.71"/>
</g>
<!-- b11 -->
<g id="node12" class="node">
<title>b11</title>
<polygon fill="lightblue" stroke="black" points="3609,-449 3304,-449 3304,-397 3609,-397 3609,-449"/>
<text text-anchor="middle" x="3456.5" y="-437" font-family="Helvetica" font-size="10.00">B11</text>
<text text-anchor="middle" x="3456.5" y="-426" font-family="Helvetica" font-size="10.00">Loop: L0</text>
<text text-anchor="middle" x="3456.5" y="-415" font-family="Helvetica" font-size="10.00">&#45;&#45;&#45;</text>
<text text-anchor="middle" x="3456.5" y="-404" font-family="Helvetica" font-size="10.00">HotSpotMethod&lt;ImmutableCollections$SetN$SetNIterator.next()&gt;</text>
</g>
<!-- b9&#45;&gt;b11 -->
<g id="edge14" class="edge">
<title>b9&#45;&gt;b11</title>
<path fill="none" stroke="black" d="M3196.08,-462.13C3227.91,-457.33 3261.59,-452.25 3293.77,-447.4"/>
<polygon fill="black" stroke="black" points="3294.34,-450.85 3303.7,-445.9 3293.29,-443.93 3294.34,-450.85"/>
</g>
<!-- b10&#45;&gt;b11 -->
<g id="edge15" class="edge">
<title>b10&#45;&gt;b11</title>
<path fill="none" stroke="black" d="M3196.08,-383.87C3227.91,-388.67 3261.59,-393.75 3293.77,-398.6"/>
<polygon fill="black" stroke="black" points="3293.29,-402.07 3303.7,-400.1 3294.34,-395.15 3293.29,-402.07"/>
</g>
<!-- b12 -->
<g id="node13" class="node">
<title>b12</title>
<polygon fill="lightblue" stroke="black" points="4022,-511 3717,-511 3717,-459 4022,-459 4022,-511"/>
<text text-anchor="middle" x="3869.5" y="-499" font-family="Helvetica" font-size="10.00">B12</text>
<text text-anchor="middle" x="3869.5" y="-488" font-family="Helvetica" font-size="10.00">Loop: L0</text>
<text text-anchor="middle" x="3869.5" y="-477" font-family="Helvetica" font-size="10.00">&#45;&#45;&#45;</text>
<text text-anchor="middle" x="3869.5" y="-466" font-family="Helvetica" font-size="10.00">HotSpotMethod&lt;ImmutableCollections$SetN$SetNIterator.next()&gt;</text>
</g>
<!-- b11&#45;&gt;b12 -->
<g id="edge16" class="edge">
<title>b11&#45;&gt;b12</title>
<path fill="none" stroke="black" d="M3609.08,-445.87C3640.91,-450.67 3674.59,-455.75 3706.77,-460.6"/>
<polygon fill="black" stroke="black" points="3706.29,-464.07 3716.7,-462.1 3707.34,-457.15 3706.29,-464.07"/>
</g>
<!-- b15 -->
<g id="node16" class="node">
<title>b15</title>
<polygon fill="white" stroke="black" points="4022,-387 3717,-387 3717,-335 4022,-335 4022,-387"/>
<text text-anchor="middle" x="3869.5" y="-375" font-family="Helvetica" font-size="10.00">B15</text>
<text text-anchor="middle" x="3869.5" y="-364" font-family="Helvetica" font-size="10.00">Loop: &lt;none&gt;</text>
<text text-anchor="middle" x="3869.5" y="-353" font-family="Helvetica" font-size="10.00">&#45;&#45;&#45;</text>
<text text-anchor="middle" x="3869.5" y="-342" font-family="Helvetica" font-size="10.00">HotSpotMethod&lt;ImmutableCollections$SetN$SetNIterator.next()&gt;</text>
</g>
<!-- b11&#45;&gt;b15 -->
<g id="edge17" class="edge">
<title>b11&#45;&gt;b15</title>
<path fill="none" stroke="black" d="M3609.08,-400.13C3640.91,-395.33 3674.59,-390.25 3706.77,-385.4"/>
<polygon fill="black" stroke="black" points="3707.34,-388.85 3716.7,-383.9 3706.29,-381.93 3707.34,-388.85"/>
</g>
<!-- b13 -->
<g id="node14" class="node">
<title>b13</title>
<polygon fill="lightblue" stroke="black" points="4435,-319 4130,-319 4130,-267 4435,-267 4435,-319"/>
<text text-anchor="middle" x="4282.5" y="-307" font-family="Helvetica" font-size="10.00">B13</text>
<text text-anchor="middle" x="4282.5" y="-296" font-family="Helvetica" font-size="10.00">Loop: L0</text>
<text text-anchor="middle" x="4282.5" y="-285" font-family="Helvetica" font-size="10.00">&#45;&#45;&#45;</text>
<text text-anchor="middle" x="4282.5" y="-274" font-family="Helvetica" font-size="10.00">HotSpotMethod&lt;ImmutableCollections$SetN$SetNIterator.next()&gt;</text>
</g>
<!-- b12&#45;&gt;b13 -->
<g id="edge18" class="edge">
<title>b12&#45;&gt;b13</title>
<path fill="none" stroke="black" d="M3937.34,-458.92C3963.88,-448.23 3994.57,-435.46 4022,-423 4092.11,-391.15 4170.99,-351 4223.19,-323.81"/>
<polygon fill="black" stroke="black" points="4225.05,-326.78 4232.29,-319.05 4221.81,-320.58 4225.05,-326.78"/>
</g>
<!-- b14 -->
<g id="node15" class="node">
<title>b14</title>
<polygon fill="white" stroke="black" points="4435,-477 4130,-477 4130,-425 4435,-425 4435,-477"/>
<text text-anchor="middle" x="4282.5" y="-465" font-family="Helvetica" font-size="10.00">B14</text>
<text text-anchor="middle" x="4282.5" y="-454" font-family="Helvetica" font-size="10.00">Loop: &lt;none&gt;</text>
<text text-anchor="middle" x="4282.5" y="-443" font-family="Helvetica" font-size="10.00">&#45;&#45;&#45;</text>
<text text-anchor="middle" x="4282.5" y="-432" font-family="Helvetica" font-size="10.00">HotSpotMethod&lt;ImmutableCollections$SetN$SetNIterator.next()&gt;</text>
</g>
<!-- b12&#45;&gt;b14 -->
<g id="edge19" class="edge">
<title>b12&#45;&gt;b14</title>
<path fill="none" stroke="black" d="M4022.08,-472.46C4053.77,-469.84 4087.3,-467.07 4119.35,-464.41"/>
<polygon fill="black" stroke="black" points="4120.03,-467.87 4129.7,-463.56 4119.45,-460.89 4120.03,-467.87"/>
</g>
<!-- b13&#45;&gt;b8 -->
<g id="edge20" class="edge">
<title>b13&#45;&gt;b8</title>
<path fill="none" stroke="black" d="M4129.73,-293C3818.91,-293 3112.41,-293 2793.29,-293"/>
<polygon fill="black" stroke="black" points="2793.03,-289.5 2783.03,-293 2793.03,-296.5 2793.03,-289.5"/>
</g>
<!-- b17 -->
<g id="node18" class="node">
<title>b17</title>
<polygon fill="white" stroke="black" points="4848,-241 4543,-241 4543,-189 4848,-189 4848,-241"/>
<text text-anchor="middle" x="4695.5" y="-229" font-family="Helvetica" font-size="10.00">B17</text>
<text text-anchor="middle" x="4695.5" y="-218" font-family="Helvetica" font-size="10.00">Loop: &lt;none&gt;</text>
<text text-anchor="middle" x="4695.5" y="-207" font-family="Helvetica" font-size="10.00">&#45;&#45;&#45;</text>
<text text-anchor="middle" x="4695.5" y="-196" font-family="Helvetica" font-size="10.00">HotSpotMethod&lt;ImmutableCollections$SetN$SetNIterator.next()&gt;</text>
</g>
<!-- b14&#45;&gt;b17 -->
<g id="edge21" class="edge">
<title>b14&#45;&gt;b17</title>
<path fill="none" stroke="black" d="M4329.05,-424.84C4405.23,-381.1 4558.13,-293.31 4639.92,-246.34"/>
<polygon fill="black" stroke="black" points="4642.13,-249.11 4649.06,-241.09 4638.64,-243.04 4642.13,-249.11"/>
</g>
<!-- b16&#45;&gt;b17 -->
<g id="edge22" class="edge">
<title>b16&#45;&gt;b17</title>
<path fill="none" stroke="black" d="M2783.05,-128.67C2948.11,-108.32 3220.07,-80 3455.5,-80 3455.5,-80 3455.5,-80 3870.5,-80 4131.5,-80 4432.96,-146.78 4588.86,-186.4"/>
<polygon fill="black" stroke="black" points="4588.37,-189.89 4598.92,-188.97 4590.1,-183.1 4588.37,-189.89"/>
</g>
</g>
</svg>
