<?xml version="1.0" encoding="UTF-8" standalone="no"?>
<!DOCTYPE svg PUBLIC "-//W3C//DTD SVG 1.1//EN"
 "http://www.w3.org/Graphics/SVG/1.1/DTD/svg11.dtd">
<!-- Generated by graphviz version 2.44.0 (0)
 -->
<!-- Title: CFG_43 Pages: 1 -->
<svg width="2543pt" height="226pt"
 viewBox="0.00 0.00 2543.00 225.50" xmlns="http://www.w3.org/2000/svg" xmlns:xlink="http://www.w3.org/1999/xlink">
<g id="graph0" class="graph" transform="scale(1 1) rotate(0) translate(4 221.5)">
<title>CFG_43</title>
<polygon fill="white" stroke="transparent" points="-4,4 -4,-221.5 2539,-221.5 2539,4 -4,4"/>
<text text-anchor="middle" x="327" y="-197.5" font-family="Times-Roman" font-size="20.00">java.util.HashMap.newNode(int, Object, Object, HashMap$Node)</text>
<!-- b0 -->
<g id="node1" class="node">
<title>b0</title>
<polygon fill="white" stroke="black" points="773,-122.5 0,-122.5 0,-59.5 773,-59.5 773,-122.5"/>
<text text-anchor="middle" x="386.5" y="-110.5" font-family="Helvetica" font-size="10.00">B0</text>
<text text-anchor="middle" x="386.5" y="-99.5" font-family="Helvetica" font-size="10.00">Loop: &lt;none&gt;</text>
<text text-anchor="middle" x="386.5" y="-88.5" font-family="Helvetica" font-size="10.00">&#45;&#45;&#45;</text>
<text text-anchor="middle" x="386.5" y="-77.5" font-family="Helvetica" font-size="10.00">SnippetResolvedJavaMethod{name=&#39;allocateInstance&#39;, type=SnippetResolvedJavaType{javaClass=class jdk.graal.compiler.hotspot.replacements.HotSpotAllocationSnippets}}</text>
<text text-anchor="middle" x="386.5" y="-66.5" font-family="Helvetica" font-size="10.00">HotSpotMethod&lt;HashMap.newNode(int, Object, Object, HashMap$Node)&gt;</text>
</g>
<!-- b1 -->
<g id="node2" class="node">
<title>b1</title>
<polygon fill="white" stroke="black" points="1654,-187.5 881,-187.5 881,-124.5 1654,-124.5 1654,-187.5"/>
<text text-anchor="middle" x="1267.5" y="-175.5" font-family="Helvetica" font-size="10.00">B1</text>
<text text-anchor="middle" x="1267.5" y="-164.5" font-family="Helvetica" font-size="10.00">Loop: &lt;none&gt;</text>
<text text-anchor="middle" x="1267.5" y="-153.5" font-family="Helvetica" font-size="10.00">&#45;&#45;&#45;</text>
<text text-anchor="middle" x="1267.5" y="-142.5" font-family="Helvetica" font-size="10.00">SnippetResolvedJavaMethod{name=&#39;allocateInstance&#39;, type=SnippetResolvedJavaType{javaClass=class jdk.graal.compiler.hotspot.replacements.HotSpotAllocationSnippets}}</text>
<text text-anchor="middle" x="1267.5" y="-131.5" font-family="Helvetica" font-size="10.00">HotSpotMethod&lt;HashMap.newNode(int, Object, Object, HashMap$Node)&gt;</text>
</g>
<!-- b0&#45;&gt;b1 -->
<g id="edge1" class="edge">
<title>b0&#45;&gt;b1</title>
<path fill="none" stroke="black" d="M773.04,-119.51C805.44,-121.91 838.24,-124.33 870.71,-126.73"/>
<polygon fill="black" stroke="black" points="870.54,-130.23 880.78,-127.48 871.06,-123.25 870.54,-130.23"/>
</g>
<!-- b2 -->
<g id="node3" class="node">
<title>b2</title>
<polygon fill="white" stroke="black" points="1654,-52 881,-52 881,0 1654,0 1654,-52"/>
<text text-anchor="middle" x="1267.5" y="-40" font-family="Helvetica" font-size="10.00">B2</text>
<text text-anchor="middle" x="1267.5" y="-29" font-family="Helvetica" font-size="10.00">Loop: &lt;none&gt;</text>
<text text-anchor="middle" x="1267.5" y="-18" font-family="Helvetica" font-size="10.00">&#45;&#45;&#45;</text>
<text text-anchor="middle" x="1267.5" y="-7" font-family="Helvetica" font-size="10.00">SnippetResolvedJavaMethod{name=&#39;allocateInstance&#39;, type=SnippetResolvedJavaType{javaClass=class jdk.graal.compiler.hotspot.replacements.HotSpotAllocationSnippets}}</text>
</g>
<!-- b0&#45;&gt;b2 -->
<g id="edge2" class="edge">
<title>b0&#45;&gt;b2</title>
<path fill="none" stroke="black" d="M773.04,-62.49C816.8,-59.25 861.28,-55.96 904.72,-52.75"/>
<polygon fill="black" stroke="black" points="905.13,-56.23 914.85,-52 904.62,-49.25 905.13,-56.23"/>
</g>
<!-- b3 -->
<g id="node4" class="node">
<title>b3</title>
<polygon fill="white" stroke="black" points="2535,-122.5 1762,-122.5 1762,-59.5 2535,-59.5 2535,-122.5"/>
<text text-anchor="middle" x="2148.5" y="-110.5" font-family="Helvetica" font-size="10.00">B3</text>
<text text-anchor="middle" x="2148.5" y="-99.5" font-family="Helvetica" font-size="10.00">Loop: &lt;none&gt;</text>
<text text-anchor="middle" x="2148.5" y="-88.5" font-family="Helvetica" font-size="10.00">&#45;&#45;&#45;</text>
<text text-anchor="middle" x="2148.5" y="-77.5" font-family="Helvetica" font-size="10.00">SnippetResolvedJavaMethod{name=&#39;allocateInstance&#39;, type=SnippetResolvedJavaType{javaClass=class jdk.graal.compiler.hotspot.replacements.HotSpotAllocationSnippets}}</text>
<text text-anchor="middle" x="2148.5" y="-66.5" font-family="Helvetica" font-size="10.00">HotSpotMethod&lt;HashMap.newNode(int, Object, Object, HashMap$Node)&gt;</text>
</g>
<!-- b1&#45;&gt;b3 -->
<g id="edge3" class="edge">
<title>b1&#45;&gt;b3</title>
<path fill="none" stroke="black" d="M1654.04,-127.49C1686.44,-125.09 1719.24,-122.67 1751.71,-120.27"/>
<polygon fill="black" stroke="black" points="1752.06,-123.75 1761.78,-119.52 1751.54,-116.77 1752.06,-123.75"/>
</g>
<!-- b2&#45;&gt;b3 -->
<g id="edge4" class="edge">
<title>b2&#45;&gt;b3</title>
<path fill="none" stroke="black" d="M1620.33,-52.02C1663.44,-55.21 1707.74,-58.48 1751.45,-61.71"/>
<polygon fill="black" stroke="black" points="1751.42,-65.22 1761.65,-62.47 1751.94,-58.24 1751.42,-65.22"/>
</g>
</g>
</svg>
