<?xml version="1.0" encoding="UTF-8" standalone="no"?>
<!DOCTYPE svg PUBLIC "-//W3C//DTD SVG 1.1//EN"
 "http://www.w3.org/Graphics/SVG/1.1/DTD/svg11.dtd">
<!-- Generated by graphviz version 2.44.0 (0)
 -->
<!-- Title: CFG_51 Pages: 1 -->
<svg width="8146pt" height="1140pt"
 viewBox="0.00 0.00 8146.00 1140.00" xmlns="http://www.w3.org/2000/svg" xmlns:xlink="http://www.w3.org/1999/xlink">
<g id="graph0" class="graph" transform="scale(1 1) rotate(0) translate(4 1136)">
<title>CFG_51</title>
<polygon fill="white" stroke="transparent" points="-4,4 -4,-1136 8142,-1136 8142,4 -4,4"/>
<text text-anchor="middle" x="349" y="-1112" font-family="Times-Roman" font-size="20.00">jdk.internal.util.ArraysSupport.unsignedHashCode(int, byte[], int, int)</text>
<!-- b0 -->
<g id="node1" class="node">
<title>b0</title>
<polygon fill="white" stroke="black" points="326,-647 0,-647 0,-595 326,-595 326,-647"/>
<text text-anchor="middle" x="163" y="-635" font-family="Helvetica" font-size="10.00">B0</text>
<text text-anchor="middle" x="163" y="-624" font-family="Helvetica" font-size="10.00">Loop: &lt;none&gt;</text>
<text text-anchor="middle" x="163" y="-613" font-family="Helvetica" font-size="10.00">&#45;&#45;&#45;</text>
<text text-anchor="middle" x="163" y="-602" font-family="Helvetica" font-size="10.00">HotSpotMethod&lt;ArraysSupport.unsignedHashCode(int, byte[], int, int)&gt;</text>
</g>
<!-- b1 -->
<g id="node2" class="node">
<title>b1</title>
<polygon fill="white" stroke="black" points="760,-709 434,-709 434,-657 760,-657 760,-709"/>
<text text-anchor="middle" x="597" y="-697" font-family="Helvetica" font-size="10.00">B1</text>
<text text-anchor="middle" x="597" y="-686" font-family="Helvetica" font-size="10.00">Loop: &lt;none&gt;</text>
<text text-anchor="middle" x="597" y="-675" font-family="Helvetica" font-size="10.00">&#45;&#45;&#45;</text>
<text text-anchor="middle" x="597" y="-664" font-family="Helvetica" font-size="10.00">HotSpotMethod&lt;ArraysSupport.unsignedHashCode(int, byte[], int, int)&gt;</text>
</g>
<!-- b0&#45;&gt;b1 -->
<g id="edge1" class="edge">
<title>b0&#45;&gt;b1</title>
<path fill="none" stroke="black" d="M326.09,-644.26C357.98,-648.84 391.56,-653.66 423.77,-658.28"/>
<polygon fill="black" stroke="black" points="423.32,-661.75 433.72,-659.71 424.32,-654.82 423.32,-661.75"/>
</g>
<!-- b2 -->
<g id="node3" class="node">
<title>b2</title>
<polygon fill="white" stroke="black" points="760,-585 434,-585 434,-533 760,-533 760,-585"/>
<text text-anchor="middle" x="597" y="-573" font-family="Helvetica" font-size="10.00">B2</text>
<text text-anchor="middle" x="597" y="-562" font-family="Helvetica" font-size="10.00">Loop: &lt;none&gt;</text>
<text text-anchor="middle" x="597" y="-551" font-family="Helvetica" font-size="10.00">&#45;&#45;&#45;</text>
<text text-anchor="middle" x="597" y="-540" font-family="Helvetica" font-size="10.00">HotSpotMethod&lt;ArraysSupport.unsignedHashCode(int, byte[], int, int)&gt;</text>
</g>
<!-- b0&#45;&gt;b2 -->
<g id="edge2" class="edge">
<title>b0&#45;&gt;b2</title>
<path fill="none" stroke="black" d="M326.09,-597.74C357.98,-593.16 391.56,-588.34 423.77,-583.72"/>
<polygon fill="black" stroke="black" points="424.32,-587.18 433.72,-582.29 423.32,-580.25 424.32,-587.18"/>
</g>
<!-- b3 -->
<g id="node4" class="node">
<title>b3</title>
<polygon fill="white" stroke="black" points="1194,-647 868,-647 868,-595 1194,-595 1194,-647"/>
<text text-anchor="middle" x="1031" y="-635" font-family="Helvetica" font-size="10.00">B3</text>
<text text-anchor="middle" x="1031" y="-624" font-family="Helvetica" font-size="10.00">Loop: &lt;none&gt;</text>
<text text-anchor="middle" x="1031" y="-613" font-family="Helvetica" font-size="10.00">&#45;&#45;&#45;</text>
<text text-anchor="middle" x="1031" y="-602" font-family="Helvetica" font-size="10.00">HotSpotMethod&lt;ArraysSupport.unsignedHashCode(int, byte[], int, int)&gt;</text>
</g>
<!-- b1&#45;&gt;b3 -->
<g id="edge3" class="edge">
<title>b1&#45;&gt;b3</title>
<path fill="none" stroke="black" d="M760.09,-659.74C791.98,-655.16 825.56,-650.34 857.77,-645.72"/>
<polygon fill="black" stroke="black" points="858.32,-649.18 867.72,-644.29 857.32,-642.25 858.32,-649.18"/>
</g>
<!-- b2&#45;&gt;b3 -->
<g id="edge4" class="edge">
<title>b2&#45;&gt;b3</title>
<path fill="none" stroke="black" d="M760.09,-582.26C791.98,-586.84 825.56,-591.66 857.77,-596.28"/>
<polygon fill="black" stroke="black" points="857.32,-599.75 867.72,-597.71 858.32,-592.82 857.32,-599.75"/>
</g>
<!-- b5 -->
<g id="node6" class="node">
<title>b5</title>
<polygon fill="white" stroke="black" points="1628,-456 1302,-456 1302,-404 1628,-404 1628,-456"/>
<text text-anchor="middle" x="1465" y="-444" font-family="Helvetica" font-size="10.00">B5</text>
<text text-anchor="middle" x="1465" y="-433" font-family="Helvetica" font-size="10.00">Loop: &lt;none&gt;</text>
<text text-anchor="middle" x="1465" y="-422" font-family="Helvetica" font-size="10.00">&#45;&#45;&#45;</text>
<text text-anchor="middle" x="1465" y="-411" font-family="Helvetica" font-size="10.00">HotSpotMethod&lt;ArraysSupport.unsignedHashCode(int, byte[], int, int)&gt;</text>
</g>
<!-- b3&#45;&gt;b5 -->
<g id="edge6" class="edge">
<title>b3&#45;&gt;b5</title>
<path fill="none" stroke="black" d="M1083.45,-594.9C1137.36,-567.91 1224.79,-525.16 1302,-492 1328,-480.83 1356.74,-469.51 1382.7,-459.65"/>
<polygon fill="black" stroke="black" points="1384.01,-462.9 1392.13,-456.09 1381.54,-456.35 1384.01,-462.9"/>
</g>
<!-- b7 -->
<g id="node8" class="node">
<title>b7</title>
<polygon fill="white" stroke="black" points="2062,-704 1736,-704 1736,-652 2062,-652 2062,-704"/>
<text text-anchor="middle" x="1899" y="-692" font-family="Helvetica" font-size="10.00">B7</text>
<text text-anchor="middle" x="1899" y="-681" font-family="Helvetica" font-size="10.00">Loop: &lt;none&gt;</text>
<text text-anchor="middle" x="1899" y="-670" font-family="Helvetica" font-size="10.00">&#45;&#45;&#45;</text>
<text text-anchor="middle" x="1899" y="-659" font-family="Helvetica" font-size="10.00">HotSpotMethod&lt;ArraysSupport.unsignedHashCode(int, byte[], int, int)&gt;</text>
</g>
<!-- b3&#45;&gt;b7 -->
<g id="edge5" class="edge">
<title>b3&#45;&gt;b7</title>
<path fill="none" stroke="black" d="M1075.93,-647.23C1127.82,-676.56 1217.79,-722.27 1302,-740 1475.15,-776.47 1681.32,-737.1 1800.19,-706.58"/>
<polygon fill="black" stroke="black" points="1801.21,-709.93 1810.01,-704.03 1799.45,-703.16 1801.21,-709.93"/>
</g>
<!-- b4 -->
<g id="node5" class="node">
<title>b4</title>
<polygon fill="white" stroke="black" points="1628,-704 1302,-704 1302,-652 1628,-652 1628,-704"/>
<text text-anchor="middle" x="1465" y="-692" font-family="Helvetica" font-size="10.00">B4</text>
<text text-anchor="middle" x="1465" y="-681" font-family="Helvetica" font-size="10.00">Loop: &lt;none&gt;</text>
<text text-anchor="middle" x="1465" y="-670" font-family="Helvetica" font-size="10.00">&#45;&#45;&#45;</text>
<text text-anchor="middle" x="1465" y="-659" font-family="Helvetica" font-size="10.00">HotSpotMethod&lt;ArraysSupport.unsignedHashCode(int, byte[], int, int)&gt;</text>
</g>
<!-- b4&#45;&gt;b7 -->
<g id="edge7" class="edge">
<title>b4&#45;&gt;b7</title>
<path fill="none" stroke="black" d="M1628.09,-678C1659.85,-678 1693.27,-678 1725.35,-678"/>
<polygon fill="black" stroke="black" points="1725.72,-681.5 1735.72,-678 1725.72,-674.5 1725.72,-681.5"/>
</g>
<!-- b5&#45;&gt;b7 -->
<g id="edge8" class="edge">
<title>b5&#45;&gt;b7</title>
<path fill="none" stroke="black" d="M1545.52,-456.15C1572.33,-466.08 1602.02,-478.33 1628,-492 1714.37,-537.45 1806.16,-605.45 1857.37,-645.41"/>
<polygon fill="black" stroke="black" points="1855.5,-648.4 1865.53,-651.81 1859.82,-642.89 1855.5,-648.4"/>
</g>
<!-- b33 -->
<g id="node34" class="node">
<title>b33</title>
<polygon fill="white" stroke="black" points="2496,-71 2170,-71 2170,-19 2496,-19 2496,-71"/>
<text text-anchor="middle" x="2333" y="-59" font-family="Helvetica" font-size="10.00">B33</text>
<text text-anchor="middle" x="2333" y="-48" font-family="Helvetica" font-size="10.00">Loop: &lt;none&gt;</text>
<text text-anchor="middle" x="2333" y="-37" font-family="Helvetica" font-size="10.00">&#45;&#45;&#45;</text>
<text text-anchor="middle" x="2333" y="-26" font-family="Helvetica" font-size="10.00">HotSpotMethod&lt;ArraysSupport.unsignedHashCode(int, byte[], int, int)&gt;</text>
</g>
<!-- b5&#45;&gt;b33 -->
<g id="edge9" class="edge">
<title>b5&#45;&gt;b33</title>
<path fill="none" stroke="black" d="M1524.5,-403.99C1679.2,-335.22 2098.48,-148.82 2263.73,-75.35"/>
<polygon fill="black" stroke="black" points="2265.58,-78.36 2273.3,-71.1 2262.74,-71.96 2265.58,-78.36"/>
</g>
<!-- b6 -->
<g id="node7" class="node">
<title>b6</title>
<polygon fill="white" stroke="black" points="1628,-580 1302,-580 1302,-528 1628,-528 1628,-580"/>
<text text-anchor="middle" x="1465" y="-568" font-family="Helvetica" font-size="10.00">B6</text>
<text text-anchor="middle" x="1465" y="-557" font-family="Helvetica" font-size="10.00">Loop: &lt;none&gt;</text>
<text text-anchor="middle" x="1465" y="-546" font-family="Helvetica" font-size="10.00">&#45;&#45;&#45;</text>
<text text-anchor="middle" x="1465" y="-535" font-family="Helvetica" font-size="10.00">HotSpotMethod&lt;ArraysSupport.unsignedHashCode(int, byte[], int, int)&gt;</text>
</g>
<!-- b6&#45;&gt;b7 -->
<g id="edge10" class="edge">
<title>b6&#45;&gt;b7</title>
<path fill="none" stroke="black" d="M1556.82,-580.07C1627.29,-600.3 1724.89,-628.31 1797.65,-649.2"/>
<polygon fill="black" stroke="black" points="1796.72,-652.57 1807.3,-651.96 1798.65,-645.84 1796.72,-652.57"/>
</g>
<!-- b8 -->
<g id="node9" class="node">
<title>b8</title>
<polygon fill="white" stroke="black" points="2496,-704 2170,-704 2170,-652 2496,-652 2496,-704"/>
<text text-anchor="middle" x="2333" y="-692" font-family="Helvetica" font-size="10.00">B8</text>
<text text-anchor="middle" x="2333" y="-681" font-family="Helvetica" font-size="10.00">Loop: &lt;none&gt;</text>
<text text-anchor="middle" x="2333" y="-670" font-family="Helvetica" font-size="10.00">&#45;&#45;&#45;</text>
<text text-anchor="middle" x="2333" y="-659" font-family="Helvetica" font-size="10.00">HotSpotMethod&lt;ArraysSupport.unsignedHashCode(int, byte[], int, int)&gt;</text>
</g>
<!-- b7&#45;&gt;b8 -->
<g id="edge11" class="edge">
<title>b7&#45;&gt;b8</title>
<path fill="none" stroke="black" d="M2062.09,-678C2093.85,-678 2127.27,-678 2159.35,-678"/>
<polygon fill="black" stroke="black" points="2159.72,-681.5 2169.72,-678 2159.72,-674.5 2159.72,-681.5"/>
</g>
<!-- b32 -->
<g id="node33" class="node">
<title>b32</title>
<polygon fill="white" stroke="black" points="8138,-369 7812,-369 7812,-317 8138,-317 8138,-369"/>
<text text-anchor="middle" x="7975" y="-357" font-family="Helvetica" font-size="10.00">B32</text>
<text text-anchor="middle" x="7975" y="-346" font-family="Helvetica" font-size="10.00">Loop: &lt;none&gt;</text>
<text text-anchor="middle" x="7975" y="-335" font-family="Helvetica" font-size="10.00">&#45;&#45;&#45;</text>
<text text-anchor="middle" x="7975" y="-324" font-family="Helvetica" font-size="10.00">HotSpotMethod&lt;ArraysSupport.unsignedHashCode(int, byte[], int, int)&gt;</text>
</g>
<!-- b7&#45;&gt;b32 -->
<g id="edge12" class="edge">
<title>b7&#45;&gt;b32</title>
<path fill="none" stroke="black" d="M1928.52,-704.2C2032.23,-796.64 2402.32,-1102 2766,-1102 2766,-1102 2766,-1102 7108,-1102 7553.05,-1102 7878.93,-528.07 7956.36,-378.36"/>
<polygon fill="black" stroke="black" points="7959.65,-379.62 7961.1,-369.13 7953.42,-376.43 7959.65,-379.62"/>
</g>
<!-- b9 -->
<g id="node10" class="node">
<title>b9</title>
<polygon fill="white" stroke="black" points="2930,-542.5 2604,-542.5 2604,-479.5 2930,-479.5 2930,-542.5"/>
<text text-anchor="middle" x="2767" y="-530.5" font-family="Helvetica" font-size="10.00">B9</text>
<text text-anchor="middle" x="2767" y="-519.5" font-family="Helvetica" font-size="10.00">Loop: &lt;none&gt;</text>
<text text-anchor="middle" x="2767" y="-508.5" font-family="Helvetica" font-size="10.00">&#45;&#45;&#45;</text>
<text text-anchor="middle" x="2767" y="-497.5" font-family="Helvetica" font-size="10.00">HotSpotMethod&lt;ArraysSupport.unsignedHashCode(int, byte[], int, int)&gt;</text>
<text text-anchor="middle" x="2767" y="-486.5" font-family="Helvetica" font-size="10.00">HotSpotMethod&lt;Byte.toUnsignedInt(byte)&gt;</text>
</g>
<!-- b8&#45;&gt;b9 -->
<g id="edge13" class="edge">
<title>b8&#45;&gt;b9</title>
<path fill="none" stroke="black" d="M2401.5,-651.91C2474.93,-623.52 2592.73,-577.98 2674.45,-546.39"/>
<polygon fill="black" stroke="black" points="2676.17,-549.48 2684.24,-542.61 2673.65,-542.95 2676.17,-549.48"/>
</g>
<!-- b30 -->
<g id="node31" class="node">
<title>b30</title>
<polygon fill="white" stroke="black" points="3798,-982 3472,-982 3472,-930 3798,-930 3798,-982"/>
<text text-anchor="middle" x="3635" y="-970" font-family="Helvetica" font-size="10.00">B30</text>
<text text-anchor="middle" x="3635" y="-959" font-family="Helvetica" font-size="10.00">Loop: &lt;none&gt;</text>
<text text-anchor="middle" x="3635" y="-948" font-family="Helvetica" font-size="10.00">&#45;&#45;&#45;</text>
<text text-anchor="middle" x="3635" y="-937" font-family="Helvetica" font-size="10.00">HotSpotMethod&lt;ArraysSupport.unsignedHashCode(int, byte[], int, int)&gt;</text>
</g>
<!-- b8&#45;&gt;b30 -->
<g id="edge14" class="edge">
<title>b8&#45;&gt;b30</title>
<path fill="none" stroke="black" d="M2455.72,-704.03C2700.35,-756.34 3249.79,-873.84 3502.4,-927.86"/>
<polygon fill="black" stroke="black" points="3501.85,-931.32 3512.36,-929.99 3503.32,-924.47 3501.85,-931.32"/>
</g>
<!-- b10 -->
<g id="node11" class="node">
<title>b10</title>
<polygon fill="white" stroke="black" points="3364,-537 3038,-537 3038,-485 3364,-485 3364,-537"/>
<text text-anchor="middle" x="3201" y="-525" font-family="Helvetica" font-size="10.00">B10</text>
<text text-anchor="middle" x="3201" y="-514" font-family="Helvetica" font-size="10.00">Loop: &lt;none&gt;</text>
<text text-anchor="middle" x="3201" y="-503" font-family="Helvetica" font-size="10.00">&#45;&#45;&#45;</text>
<text text-anchor="middle" x="3201" y="-492" font-family="Helvetica" font-size="10.00">HotSpotMethod&lt;ArraysSupport.unsignedHashCode(int, byte[], int, int)&gt;</text>
</g>
<!-- b9&#45;&gt;b10 -->
<g id="edge15" class="edge">
<title>b9&#45;&gt;b10</title>
<path fill="none" stroke="black" d="M2930.09,-511C2961.85,-511 2995.27,-511 3027.35,-511"/>
<polygon fill="black" stroke="black" points="3027.72,-514.5 3037.72,-511 3027.72,-507.5 3027.72,-514.5"/>
</g>
<!-- b29 -->
<g id="node30" class="node">
<title>b29</title>
<polygon fill="white" stroke="black" points="6402,-172 6076,-172 6076,-120 6402,-120 6402,-172"/>
<text text-anchor="middle" x="6239" y="-160" font-family="Helvetica" font-size="10.00">B29</text>
<text text-anchor="middle" x="6239" y="-149" font-family="Helvetica" font-size="10.00">Loop: &lt;none&gt;</text>
<text text-anchor="middle" x="6239" y="-138" font-family="Helvetica" font-size="10.00">&#45;&#45;&#45;</text>
<text text-anchor="middle" x="6239" y="-127" font-family="Helvetica" font-size="10.00">HotSpotMethod&lt;ArraysSupport.unsignedHashCode(int, byte[], int, int)&gt;</text>
</g>
<!-- b9&#45;&gt;b29 -->
<g id="edge16" class="edge">
<title>b9&#45;&gt;b29</title>
<path fill="none" stroke="black" d="M2809.5,-479.25C2929.86,-390.44 3292.19,-146 3634,-146 3634,-146 3634,-146 5372,-146 5612.77,-146 5891.19,-146 6065.94,-146"/>
<polygon fill="black" stroke="black" points="6066,-149.5 6076,-146 6066,-142.5 6066,-149.5"/>
</g>
<!-- b11 -->
<g id="node12" class="node">
<title>b11</title>
<polygon fill="white" stroke="black" points="3798,-453 3472,-453 3472,-401 3798,-401 3798,-453"/>
<text text-anchor="middle" x="3635" y="-441" font-family="Helvetica" font-size="10.00">B11</text>
<text text-anchor="middle" x="3635" y="-430" font-family="Helvetica" font-size="10.00">Loop: &lt;none&gt;</text>
<text text-anchor="middle" x="3635" y="-419" font-family="Helvetica" font-size="10.00">&#45;&#45;&#45;</text>
<text text-anchor="middle" x="3635" y="-408" font-family="Helvetica" font-size="10.00">HotSpotMethod&lt;ArraysSupport.unsignedHashCode(int, byte[], int, int)&gt;</text>
</g>
<!-- b10&#45;&gt;b11 -->
<g id="edge17" class="edge">
<title>b10&#45;&gt;b11</title>
<path fill="none" stroke="black" d="M3335.73,-485C3384.75,-475.47 3440.41,-464.64 3490.27,-454.95"/>
<polygon fill="black" stroke="black" points="3491.01,-458.37 3500.16,-453.02 3489.67,-451.5 3491.01,-458.37"/>
</g>
<!-- b17 -->
<g id="node18" class="node">
<title>b17</title>
<polygon fill="white" stroke="black" points="4666,-621 4340,-621 4340,-569 4666,-569 4666,-621"/>
<text text-anchor="middle" x="4503" y="-609" font-family="Helvetica" font-size="10.00">B17</text>
<text text-anchor="middle" x="4503" y="-598" font-family="Helvetica" font-size="10.00">Loop: &lt;none&gt;</text>
<text text-anchor="middle" x="4503" y="-587" font-family="Helvetica" font-size="10.00">&#45;&#45;&#45;</text>
<text text-anchor="middle" x="4503" y="-576" font-family="Helvetica" font-size="10.00">HotSpotMethod&lt;ArraysSupport.unsignedHashCode(int, byte[], int, int)&gt;</text>
</g>
<!-- b10&#45;&gt;b17 -->
<g id="edge18" class="edge">
<title>b10&#45;&gt;b17</title>
<path fill="none" stroke="black" d="M3249.69,-537.12C3396.65,-614.25 3855.42,-829.99 4232,-737 4317.79,-715.82 4406.44,-661.93 4457.78,-626.96"/>
<polygon fill="black" stroke="black" points="4460.06,-629.65 4466.31,-621.09 4456.09,-623.88 4460.06,-629.65"/>
</g>
<!-- b12 -->
<g id="node13" class="node">
<title>b12</title>
<polygon fill="white" stroke="black" points="4232,-453 3906,-453 3906,-401 4232,-401 4232,-453"/>
<text text-anchor="middle" x="4069" y="-441" font-family="Helvetica" font-size="10.00">B12</text>
<text text-anchor="middle" x="4069" y="-430" font-family="Helvetica" font-size="10.00">Loop: &lt;none&gt;</text>
<text text-anchor="middle" x="4069" y="-419" font-family="Helvetica" font-size="10.00">&#45;&#45;&#45;</text>
<text text-anchor="middle" x="4069" y="-408" font-family="Helvetica" font-size="10.00">HotSpotMethod&lt;ArraysSupport.unsignedHashCode(int, byte[], int, int)&gt;</text>
</g>
<!-- b11&#45;&gt;b12 -->
<g id="edge19" class="edge">
<title>b11&#45;&gt;b12</title>
<path fill="none" stroke="black" d="M3798.09,-427C3829.85,-427 3863.27,-427 3895.35,-427"/>
<polygon fill="black" stroke="black" points="3895.72,-430.5 3905.72,-427 3895.72,-423.5 3895.72,-430.5"/>
</g>
<!-- b15 -->
<g id="node16" class="node">
<title>b15</title>
<polygon fill="white" stroke="black" points="4666,-318 4340,-318 4340,-266 4666,-266 4666,-318"/>
<text text-anchor="middle" x="4503" y="-306" font-family="Helvetica" font-size="10.00">B15</text>
<text text-anchor="middle" x="4503" y="-295" font-family="Helvetica" font-size="10.00">Loop: &lt;none&gt;</text>
<text text-anchor="middle" x="4503" y="-284" font-family="Helvetica" font-size="10.00">&#45;&#45;&#45;</text>
<text text-anchor="middle" x="4503" y="-273" font-family="Helvetica" font-size="10.00">HotSpotMethod&lt;ArraysSupport.unsignedHashCode(int, byte[], int, int)&gt;</text>
</g>
<!-- b11&#45;&gt;b15 -->
<g id="edge20" class="edge">
<title>b11&#45;&gt;b15</title>
<path fill="none" stroke="black" d="M3738.06,-400.93C3788.37,-388.75 3850.1,-374.81 3906,-365 4047.94,-340.08 4210.37,-320.79 4329.78,-308.31"/>
<polygon fill="black" stroke="black" points="4330.17,-311.79 4339.75,-307.27 4329.44,-304.83 4330.17,-311.79"/>
</g>
<!-- b14 -->
<g id="node15" class="node">
<title>b14</title>
<polygon fill="white" stroke="black" points="5100,-453 4774,-453 4774,-401 5100,-401 5100,-453"/>
<text text-anchor="middle" x="4937" y="-441" font-family="Helvetica" font-size="10.00">B14</text>
<text text-anchor="middle" x="4937" y="-430" font-family="Helvetica" font-size="10.00">Loop: &lt;none&gt;</text>
<text text-anchor="middle" x="4937" y="-419" font-family="Helvetica" font-size="10.00">&#45;&#45;&#45;</text>
<text text-anchor="middle" x="4937" y="-408" font-family="Helvetica" font-size="10.00">HotSpotMethod&lt;ArraysSupport.unsignedHashCode(int, byte[], int, int)&gt;</text>
</g>
<!-- b12&#45;&gt;b14 -->
<g id="edge22" class="edge">
<title>b12&#45;&gt;b14</title>
<path fill="none" stroke="black" d="M4232.13,-427C4383.65,-427 4609.14,-427 4763.83,-427"/>
<polygon fill="black" stroke="black" points="4763.92,-430.5 4773.92,-427 4763.92,-423.5 4763.92,-430.5"/>
</g>
<!-- b12&#45;&gt;b17 -->
<g id="edge21" class="edge">
<title>b12&#45;&gt;b17</title>
<path fill="none" stroke="black" d="M4138.63,-453.12C4167.48,-464.13 4201.39,-477.14 4232,-489 4297.78,-514.5 4372.42,-543.83 4426.52,-565.17"/>
<polygon fill="black" stroke="black" points="4425.45,-568.51 4436.04,-568.92 4428.02,-562 4425.45,-568.51"/>
</g>
<!-- b13 -->
<g id="node14" class="node">
<title>b13</title>
<polygon fill="white" stroke="black" points="4232,-701 3906,-701 3906,-649 4232,-649 4232,-701"/>
<text text-anchor="middle" x="4069" y="-689" font-family="Helvetica" font-size="10.00">B13</text>
<text text-anchor="middle" x="4069" y="-678" font-family="Helvetica" font-size="10.00">Loop: &lt;none&gt;</text>
<text text-anchor="middle" x="4069" y="-667" font-family="Helvetica" font-size="10.00">&#45;&#45;&#45;</text>
<text text-anchor="middle" x="4069" y="-656" font-family="Helvetica" font-size="10.00">HotSpotMethod&lt;ArraysSupport.unsignedHashCode(int, byte[], int, int)&gt;</text>
</g>
<!-- b13&#45;&gt;b17 -->
<g id="edge23" class="edge">
<title>b13&#45;&gt;b17</title>
<path fill="none" stroke="black" d="M4210.56,-648.97C4255.65,-640.62 4305.75,-631.34 4351.52,-622.87"/>
<polygon fill="black" stroke="black" points="4352.33,-626.28 4361.52,-621.01 4351.05,-619.39 4352.33,-626.28"/>
</g>
<!-- b34 -->
<g id="node35" class="node">
<title>b34</title>
<polygon fill="white" stroke="black" points="5534,-453 5208,-453 5208,-401 5534,-401 5534,-453"/>
<text text-anchor="middle" x="5371" y="-441" font-family="Helvetica" font-size="10.00">B34</text>
<text text-anchor="middle" x="5371" y="-430" font-family="Helvetica" font-size="10.00">Loop: &lt;none&gt;</text>
<text text-anchor="middle" x="5371" y="-419" font-family="Helvetica" font-size="10.00">&#45;&#45;&#45;</text>
<text text-anchor="middle" x="5371" y="-408" font-family="Helvetica" font-size="10.00">HotSpotMethod&lt;ArraysSupport.unsignedHashCode(int, byte[], int, int)&gt;</text>
</g>
<!-- b14&#45;&gt;b34 -->
<g id="edge24" class="edge">
<title>b14&#45;&gt;b34</title>
<path fill="none" stroke="black" d="M5100.09,-427C5131.85,-427 5165.27,-427 5197.35,-427"/>
<polygon fill="black" stroke="black" points="5197.72,-430.5 5207.72,-427 5197.72,-423.5 5197.72,-430.5"/>
</g>
<!-- b15&#45;&gt;b34 -->
<g id="edge25" class="edge">
<title>b15&#45;&gt;b34</title>
<path fill="none" stroke="black" d="M4666.25,-307.27C4786.48,-319.71 4954.07,-339.38 5100,-365 5152.29,-374.18 5209.7,-386.97 5258.08,-398.55"/>
<polygon fill="black" stroke="black" points="5257.4,-401.99 5267.94,-400.93 5259.04,-395.19 5257.4,-401.99"/>
</g>
<!-- b16 -->
<g id="node17" class="node">
<title>b16</title>
<polygon fill="white" stroke="black" points="4232,-577 3906,-577 3906,-525 4232,-525 4232,-577"/>
<text text-anchor="middle" x="4069" y="-565" font-family="Helvetica" font-size="10.00">B16</text>
<text text-anchor="middle" x="4069" y="-554" font-family="Helvetica" font-size="10.00">Loop: &lt;none&gt;</text>
<text text-anchor="middle" x="4069" y="-543" font-family="Helvetica" font-size="10.00">&#45;&#45;&#45;</text>
<text text-anchor="middle" x="4069" y="-532" font-family="Helvetica" font-size="10.00">HotSpotMethod&lt;ArraysSupport.unsignedHashCode(int, byte[], int, int)&gt;</text>
</g>
<!-- b16&#45;&gt;b17 -->
<g id="edge26" class="edge">
<title>b16&#45;&gt;b17</title>
<path fill="none" stroke="black" d="M4232.09,-567.51C4263.98,-570.76 4297.56,-574.18 4329.77,-577.46"/>
<polygon fill="black" stroke="black" points="4329.42,-580.94 4339.72,-578.47 4330.13,-573.98 4329.42,-580.94"/>
</g>
<!-- b18 -->
<g id="node19" class="node">
<title>b18</title>
<polygon fill="white" stroke="black" points="5100,-757 4774,-757 4774,-705 5100,-705 5100,-757"/>
<text text-anchor="middle" x="4937" y="-745" font-family="Helvetica" font-size="10.00">B18</text>
<text text-anchor="middle" x="4937" y="-734" font-family="Helvetica" font-size="10.00">Loop: &lt;none&gt;</text>
<text text-anchor="middle" x="4937" y="-723" font-family="Helvetica" font-size="10.00">&#45;&#45;&#45;</text>
<text text-anchor="middle" x="4937" y="-712" font-family="Helvetica" font-size="10.00">HotSpotMethod&lt;ArraysSupport.unsignedHashCode(int, byte[], int, int)&gt;</text>
</g>
<!-- b17&#45;&gt;b18 -->
<g id="edge27" class="edge">
<title>b17&#45;&gt;b18</title>
<path fill="none" stroke="black" d="M4586.78,-621.06C4660.2,-644.18 4767.32,-677.9 4843.53,-701.89"/>
<polygon fill="black" stroke="black" points="4842.54,-705.25 4853.13,-704.91 4844.64,-698.57 4842.54,-705.25"/>
</g>
<!-- b28 -->
<g id="node29" class="node">
<title>b28</title>
<polygon fill="white" stroke="black" points="5100,-579 4774,-579 4774,-527 5100,-527 5100,-579"/>
<text text-anchor="middle" x="4937" y="-567" font-family="Helvetica" font-size="10.00">B28</text>
<text text-anchor="middle" x="4937" y="-556" font-family="Helvetica" font-size="10.00">Loop: &lt;none&gt;</text>
<text text-anchor="middle" x="4937" y="-545" font-family="Helvetica" font-size="10.00">&#45;&#45;&#45;</text>
<text text-anchor="middle" x="4937" y="-534" font-family="Helvetica" font-size="10.00">HotSpotMethod&lt;ArraysSupport.unsignedHashCode(int, byte[], int, int)&gt;</text>
</g>
<!-- b17&#45;&gt;b28 -->
<g id="edge28" class="edge">
<title>b17&#45;&gt;b28</title>
<path fill="none" stroke="black" d="M4666.09,-579.24C4697.85,-576.15 4731.27,-572.9 4763.35,-569.79"/>
<polygon fill="black" stroke="black" points="4764.11,-573.23 4773.72,-568.78 4763.43,-566.26 4764.11,-573.23"/>
</g>
<!-- b19 -->
<g id="node20" class="node">
<title>b19</title>
<polygon fill="lightblue" stroke="black" points="5534,-759 5208,-759 5208,-707 5534,-707 5534,-759"/>
<text text-anchor="middle" x="5371" y="-747" font-family="Helvetica" font-size="10.00">B19</text>
<text text-anchor="middle" x="5371" y="-736" font-family="Helvetica" font-size="10.00">Loop: L0</text>
<text text-anchor="middle" x="5371" y="-725" font-family="Helvetica" font-size="10.00">&#45;&#45;&#45;</text>
<text text-anchor="middle" x="5371" y="-714" font-family="Helvetica" font-size="10.00">HotSpotMethod&lt;ArraysSupport.unsignedHashCode(int, byte[], int, int)&gt;</text>
</g>
<!-- b18&#45;&gt;b19 -->
<g id="edge29" class="edge">
<title>b18&#45;&gt;b19</title>
<path fill="none" stroke="black" d="M5100.09,-731.75C5131.85,-731.9 5165.27,-732.05 5197.35,-732.2"/>
<polygon fill="black" stroke="black" points="5197.7,-735.7 5207.72,-732.25 5197.74,-728.7 5197.7,-735.7"/>
</g>
<!-- b20 -->
<g id="node21" class="node">
<title>b20</title>
<polygon fill="lightblue" stroke="black" points="5968,-783.5 5642,-783.5 5642,-720.5 5968,-720.5 5968,-783.5"/>
<text text-anchor="middle" x="5805" y="-771.5" font-family="Helvetica" font-size="10.00">B20</text>
<text text-anchor="middle" x="5805" y="-760.5" font-family="Helvetica" font-size="10.00">Loop: L0</text>
<text text-anchor="middle" x="5805" y="-749.5" font-family="Helvetica" font-size="10.00">&#45;&#45;&#45;</text>
<text text-anchor="middle" x="5805" y="-738.5" font-family="Helvetica" font-size="10.00">HotSpotMethod&lt;ArraysSupport.unsignedHashCode(int, byte[], int, int)&gt;</text>
<text text-anchor="middle" x="5805" y="-727.5" font-family="Helvetica" font-size="10.00">HotSpotMethod&lt;Byte.toUnsignedInt(byte)&gt;</text>
</g>
<!-- b19&#45;&gt;b20 -->
<g id="edge30" class="edge">
<title>b19&#45;&gt;b20</title>
<path fill="none" stroke="black" d="M5534.09,-713.89C5573.65,-714.49 5615.79,-716.48 5654.72,-719.61"/>
<polygon fill="black" stroke="black" points="5654.82,-723.13 5665.07,-720.48 5655.4,-716.16 5654.82,-723.13"/>
</g>
<!-- b21 -->
<g id="node22" class="node">
<title>b21</title>
<polygon fill="white" stroke="black" points="5968,-648 5642,-648 5642,-596 5968,-596 5968,-648"/>
<text text-anchor="middle" x="5805" y="-636" font-family="Helvetica" font-size="10.00">B21</text>
<text text-anchor="middle" x="5805" y="-625" font-family="Helvetica" font-size="10.00">Loop: &lt;none&gt;</text>
<text text-anchor="middle" x="5805" y="-614" font-family="Helvetica" font-size="10.00">&#45;&#45;&#45;</text>
<text text-anchor="middle" x="5805" y="-603" font-family="Helvetica" font-size="10.00">HotSpotMethod&lt;ArraysSupport.unsignedHashCode(int, byte[], int, int)&gt;</text>
</g>
<!-- b19&#45;&gt;b21 -->
<g id="edge31" class="edge">
<title>b19&#45;&gt;b21</title>
<path fill="none" stroke="black" d="M5473.28,-706.98C5539.13,-690.06 5625,-667.99 5692.74,-650.59"/>
<polygon fill="black" stroke="black" points="5693.79,-653.93 5702.6,-648.05 5692.05,-647.15 5693.79,-653.93"/>
</g>
<!-- b20&#45;&gt;b19 -->
<g id="edge32" class="edge">
<title>b20&#45;&gt;b19</title>
<path fill="none" stroke="black" d="M5641.82,-771.11C5583.71,-770.22 5520.05,-766.34 5469.16,-760.25"/>
<polygon fill="black" stroke="black" points="5469.52,-756.77 5459.16,-759.01 5468.65,-763.72 5469.52,-756.77"/>
</g>
<!-- b22 -->
<g id="node23" class="node">
<title>b22</title>
<polygon fill="lightgreen" stroke="black" points="6402,-649 6076,-649 6076,-597 6402,-597 6402,-649"/>
<text text-anchor="middle" x="6239" y="-637" font-family="Helvetica" font-size="10.00">B22</text>
<text text-anchor="middle" x="6239" y="-626" font-family="Helvetica" font-size="10.00">Loop: L1</text>
<text text-anchor="middle" x="6239" y="-615" font-family="Helvetica" font-size="10.00">&#45;&#45;&#45;</text>
<text text-anchor="middle" x="6239" y="-604" font-family="Helvetica" font-size="10.00">HotSpotMethod&lt;ArraysSupport.unsignedHashCode(int, byte[], int, int)&gt;</text>
</g>
<!-- b21&#45;&gt;b22 -->
<g id="edge33" class="edge">
<title>b21&#45;&gt;b22</title>
<path fill="none" stroke="black" d="M5968.09,-622.38C5999.85,-622.45 6033.27,-622.53 6065.35,-622.6"/>
<polygon fill="black" stroke="black" points="6065.71,-626.1 6075.72,-622.62 6065.73,-619.1 6065.71,-626.1"/>
</g>
<!-- b23 -->
<g id="node24" class="node">
<title>b23</title>
<polygon fill="lightgreen" stroke="black" points="6836,-659.5 6510,-659.5 6510,-596.5 6836,-596.5 6836,-659.5"/>
<text text-anchor="middle" x="6673" y="-647.5" font-family="Helvetica" font-size="10.00">B23</text>
<text text-anchor="middle" x="6673" y="-636.5" font-family="Helvetica" font-size="10.00">Loop: L1</text>
<text text-anchor="middle" x="6673" y="-625.5" font-family="Helvetica" font-size="10.00">&#45;&#45;&#45;</text>
<text text-anchor="middle" x="6673" y="-614.5" font-family="Helvetica" font-size="10.00">HotSpotMethod&lt;ArraysSupport.unsignedHashCode(int, byte[], int, int)&gt;</text>
<text text-anchor="middle" x="6673" y="-603.5" font-family="Helvetica" font-size="10.00">HotSpotMethod&lt;Byte.toUnsignedInt(byte)&gt;</text>
</g>
<!-- b22&#45;&gt;b23 -->
<g id="edge34" class="edge">
<title>b22&#45;&gt;b23</title>
<path fill="none" stroke="black" d="M6402.09,-598.64C6433.85,-598.09 6467.27,-598.39 6499.35,-599.49"/>
<polygon fill="black" stroke="black" points="6499.6,-603 6509.72,-599.88 6499.86,-596.01 6499.6,-603"/>
</g>
<!-- b24 -->
<g id="node25" class="node">
<title>b24</title>
<polygon fill="white" stroke="black" points="6836,-524 6510,-524 6510,-472 6836,-472 6836,-524"/>
<text text-anchor="middle" x="6673" y="-512" font-family="Helvetica" font-size="10.00">B24</text>
<text text-anchor="middle" x="6673" y="-501" font-family="Helvetica" font-size="10.00">Loop: &lt;none&gt;</text>
<text text-anchor="middle" x="6673" y="-490" font-family="Helvetica" font-size="10.00">&#45;&#45;&#45;</text>
<text text-anchor="middle" x="6673" y="-479" font-family="Helvetica" font-size="10.00">HotSpotMethod&lt;ArraysSupport.unsignedHashCode(int, byte[], int, int)&gt;</text>
</g>
<!-- b22&#45;&gt;b24 -->
<g id="edge35" class="edge">
<title>b22&#45;&gt;b24</title>
<path fill="none" stroke="black" d="M6330.04,-596.95C6400.79,-576.47 6499.28,-547.98 6572.39,-526.82"/>
<polygon fill="black" stroke="black" points="6573.45,-530.16 6582.08,-524.02 6571.5,-523.44 6573.45,-530.16"/>
</g>
<!-- b23&#45;&gt;b22 -->
<g id="edge36" class="edge">
<title>b23&#45;&gt;b22</title>
<path fill="none" stroke="black" d="M6509.9,-652.36C6464.45,-653.15 6415.6,-652.2 6372.12,-649.63"/>
<polygon fill="black" stroke="black" points="6372.26,-646.13 6362.06,-649 6371.82,-653.12 6372.26,-646.13"/>
</g>
<!-- b25 -->
<g id="node26" class="node">
<title>b25</title>
<polygon fill="lightpink" stroke="black" points="7270,-534 6944,-534 6944,-482 7270,-482 7270,-534"/>
<text text-anchor="middle" x="7107" y="-522" font-family="Helvetica" font-size="10.00">B25</text>
<text text-anchor="middle" x="7107" y="-511" font-family="Helvetica" font-size="10.00">Loop: L2</text>
<text text-anchor="middle" x="7107" y="-500" font-family="Helvetica" font-size="10.00">&#45;&#45;&#45;</text>
<text text-anchor="middle" x="7107" y="-489" font-family="Helvetica" font-size="10.00">HotSpotMethod&lt;ArraysSupport.unsignedHashCode(int, byte[], int, int)&gt;</text>
</g>
<!-- b24&#45;&gt;b25 -->
<g id="edge37" class="edge">
<title>b24&#45;&gt;b25</title>
<path fill="none" stroke="black" d="M6836.09,-501.75C6867.85,-502.49 6901.27,-503.26 6933.35,-504"/>
<polygon fill="black" stroke="black" points="6933.64,-507.51 6943.72,-504.24 6933.8,-500.51 6933.64,-507.51"/>
</g>
<!-- b26 -->
<g id="node27" class="node">
<title>b26</title>
<polygon fill="lightpink" stroke="black" points="7704,-566.5 7378,-566.5 7378,-503.5 7704,-503.5 7704,-566.5"/>
<text text-anchor="middle" x="7541" y="-554.5" font-family="Helvetica" font-size="10.00">B26</text>
<text text-anchor="middle" x="7541" y="-543.5" font-family="Helvetica" font-size="10.00">Loop: L2</text>
<text text-anchor="middle" x="7541" y="-532.5" font-family="Helvetica" font-size="10.00">&#45;&#45;&#45;</text>
<text text-anchor="middle" x="7541" y="-521.5" font-family="Helvetica" font-size="10.00">HotSpotMethod&lt;ArraysSupport.unsignedHashCode(int, byte[], int, int)&gt;</text>
<text text-anchor="middle" x="7541" y="-510.5" font-family="Helvetica" font-size="10.00">HotSpotMethod&lt;Byte.toUnsignedInt(byte)&gt;</text>
</g>
<!-- b25&#45;&gt;b26 -->
<g id="edge38" class="edge">
<title>b25&#45;&gt;b26</title>
<path fill="none" stroke="black" d="M7270.09,-491.89C7317.61,-493.49 7368.85,-497.17 7413.79,-502.3"/>
<polygon fill="black" stroke="black" points="7413.53,-505.8 7423.87,-503.49 7414.35,-498.84 7413.53,-505.8"/>
</g>
<!-- b27 -->
<g id="node28" class="node">
<title>b27</title>
<polygon fill="white" stroke="black" points="7704,-307 7378,-307 7378,-255 7704,-255 7704,-307"/>
<text text-anchor="middle" x="7541" y="-295" font-family="Helvetica" font-size="10.00">B27</text>
<text text-anchor="middle" x="7541" y="-284" font-family="Helvetica" font-size="10.00">Loop: &lt;none&gt;</text>
<text text-anchor="middle" x="7541" y="-273" font-family="Helvetica" font-size="10.00">&#45;&#45;&#45;</text>
<text text-anchor="middle" x="7541" y="-262" font-family="Helvetica" font-size="10.00">HotSpotMethod&lt;ArraysSupport.unsignedHashCode(int, byte[], int, int)&gt;</text>
</g>
<!-- b25&#45;&gt;b27 -->
<g id="edge39" class="edge">
<title>b25&#45;&gt;b27</title>
<path fill="none" stroke="black" d="M7145.64,-481.94C7196.7,-447.3 7291.48,-385.54 7378,-343 7402.08,-331.16 7429.03,-320.05 7453.93,-310.59"/>
<polygon fill="black" stroke="black" points="7455.23,-313.84 7463.36,-307.05 7452.77,-307.29 7455.23,-313.84"/>
</g>
<!-- b26&#45;&gt;b25 -->
<g id="edge40" class="edge">
<title>b26&#45;&gt;b25</title>
<path fill="none" stroke="black" d="M7377.64,-551.1C7315.51,-549 7247.05,-543.34 7194.66,-535.55"/>
<polygon fill="black" stroke="black" points="7195.15,-532.08 7184.74,-534.01 7194.08,-539 7195.15,-532.08"/>
</g>
<!-- b27&#45;&gt;b32 -->
<g id="edge41" class="edge">
<title>b27&#45;&gt;b32</title>
<path fill="none" stroke="black" d="M7704.09,-304.26C7735.98,-308.84 7769.56,-313.66 7801.77,-318.28"/>
<polygon fill="black" stroke="black" points="7801.32,-321.75 7811.72,-319.71 7802.32,-314.82 7801.32,-321.75"/>
</g>
<!-- b28&#45;&gt;b34 -->
<g id="edge42" class="edge">
<title>b28&#45;&gt;b34</title>
<path fill="none" stroke="black" d="M5027.25,-526.97C5098.18,-506.28 5197.34,-477.36 5270.77,-455.94"/>
<polygon fill="black" stroke="black" points="5271.88,-459.27 5280.5,-453.11 5269.92,-452.55 5271.88,-459.27"/>
</g>
<!-- b29&#45;&gt;b32 -->
<g id="edge43" class="edge">
<title>b29&#45;&gt;b32</title>
<path fill="none" stroke="black" d="M6402.09,-134.32C6675.18,-118.99 7242.4,-105.95 7704,-219 7784.04,-238.6 7869.33,-282.03 7922.15,-311.91"/>
<polygon fill="black" stroke="black" points="7920.56,-315.04 7930.98,-316.95 7924.03,-308.96 7920.56,-315.04"/>
</g>
<!-- b30&#45;&gt;b34 -->
<g id="edge44" class="edge">
<title>b30&#45;&gt;b34</title>
<path fill="none" stroke="black" d="M3798.02,-977.93C4082.46,-1008.21 4681.14,-1034.52 5100,-793 5135.17,-772.72 5288.12,-548.76 5346.89,-461.51"/>
<polygon fill="black" stroke="black" points="5349.92,-463.26 5352.6,-453.01 5344.11,-459.36 5349.92,-463.26"/>
</g>
<!-- b31 -->
<g id="node32" class="node">
<title>b31</title>
<polygon fill="white" stroke="black" points="7704,-431 7378,-431 7378,-379 7704,-379 7704,-431"/>
<text text-anchor="middle" x="7541" y="-419" font-family="Helvetica" font-size="10.00">B31</text>
<text text-anchor="middle" x="7541" y="-408" font-family="Helvetica" font-size="10.00">Loop: &lt;none&gt;</text>
<text text-anchor="middle" x="7541" y="-397" font-family="Helvetica" font-size="10.00">&#45;&#45;&#45;</text>
<text text-anchor="middle" x="7541" y="-386" font-family="Helvetica" font-size="10.00">HotSpotMethod&lt;ArraysSupport.unsignedHashCode(int, byte[], int, int)&gt;</text>
</g>
<!-- b31&#45;&gt;b32 -->
<g id="edge45" class="edge">
<title>b31&#45;&gt;b32</title>
<path fill="none" stroke="black" d="M7704.09,-381.74C7735.98,-377.16 7769.56,-372.34 7801.77,-367.72"/>
<polygon fill="black" stroke="black" points="7802.32,-371.18 7811.72,-366.29 7801.32,-364.25 7802.32,-371.18"/>
</g>
<!-- b33&#45;&gt;b34 -->
<g id="edge46" class="edge">
<title>b33&#45;&gt;b34</title>
<path fill="none" stroke="black" d="M2496.27,-31.53C2670.18,-18.27 2954.42,0 3200,0 3200,0 3200,0 4504,0 4860.05,0 5221.42,-293.95 5334.18,-394.07"/>
<polygon fill="black" stroke="black" points="5332.08,-396.88 5341.87,-400.93 5336.74,-391.66 5332.08,-396.88"/>
</g>
</g>
</svg>
