<?xml version="1.0" encoding="UTF-8" standalone="no"?>
<!DOCTYPE svg PUBLIC "-//W3C//DTD SVG 1.1//EN"
 "http://www.w3.org/Graphics/SVG/1.1/DTD/svg11.dtd">
<!-- Generated by graphviz version 2.44.0 (0)
 -->
<!-- Title: CFG_94 Pages: 1 -->
<svg width="2600pt" height="512pt"
 viewBox="0.00 0.00 2600.00 511.50" xmlns="http://www.w3.org/2000/svg" xmlns:xlink="http://www.w3.org/1999/xlink">
<g id="graph0" class="graph" transform="scale(1 1) rotate(0) translate(4 507.5)">
<title>CFG_94</title>
<polygon fill="white" stroke="transparent" points="-4,4 -4,-507.5 2596,-507.5 2596,4 -4,4"/>
<text text-anchor="middle" x="117" y="-483.5" font-family="Times-Roman" font-size="20.00">Bounce$Ball.bounce()</text>
<!-- b0 -->
<g id="node1" class="node">
<title>b0</title>
<polygon fill="white" stroke="black" points="192,-397 0,-397 0,-345 192,-345 192,-397"/>
<text text-anchor="middle" x="96" y="-385" font-family="Helvetica" font-size="10.00">B0</text>
<text text-anchor="middle" x="96" y="-374" font-family="Helvetica" font-size="10.00">Loop: &lt;none&gt;</text>
<text text-anchor="middle" x="96" y="-363" font-family="Helvetica" font-size="10.00">&#45;&#45;&#45;</text>
<text text-anchor="middle" x="96" y="-352" font-family="Helvetica" font-size="10.00">HotSpotMethod&lt;Bounce$Ball.bounce()&gt;</text>
</g>
<!-- b1 -->
<g id="node2" class="node">
<title>b1</title>
<polygon fill="white" stroke="black" points="492,-462 300,-462 300,-410 492,-410 492,-462"/>
<text text-anchor="middle" x="396" y="-450" font-family="Helvetica" font-size="10.00">B1</text>
<text text-anchor="middle" x="396" y="-439" font-family="Helvetica" font-size="10.00">Loop: &lt;none&gt;</text>
<text text-anchor="middle" x="396" y="-428" font-family="Helvetica" font-size="10.00">&#45;&#45;&#45;</text>
<text text-anchor="middle" x="396" y="-417" font-family="Helvetica" font-size="10.00">HotSpotMethod&lt;Bounce$Ball.bounce()&gt;</text>
</g>
<!-- b0&#45;&gt;b1 -->
<g id="edge1" class="edge">
<title>b0&#45;&gt;b1</title>
<path fill="none" stroke="black" d="M192.11,-391.75C223.29,-398.55 258.11,-406.14 289.98,-413.09"/>
<polygon fill="black" stroke="black" points="289.26,-416.52 299.77,-415.23 290.75,-409.68 289.26,-416.52"/>
</g>
<!-- b2 -->
<g id="node3" class="node">
<title>b2</title>
<polygon fill="white" stroke="black" points="492,-337.5 300,-337.5 300,-274.5 492,-274.5 492,-337.5"/>
<text text-anchor="middle" x="396" y="-325.5" font-family="Helvetica" font-size="10.00">B2</text>
<text text-anchor="middle" x="396" y="-314.5" font-family="Helvetica" font-size="10.00">Loop: &lt;none&gt;</text>
<text text-anchor="middle" x="396" y="-303.5" font-family="Helvetica" font-size="10.00">&#45;&#45;&#45;</text>
<text text-anchor="middle" x="396" y="-292.5" font-family="Helvetica" font-size="10.00">HotSpotMethod&lt;Bounce$Ball.bounce()&gt;</text>
<text text-anchor="middle" x="396" y="-281.5" font-family="Helvetica" font-size="10.00">HotSpotMethod&lt;Math.abs(int)&gt;</text>
</g>
<!-- b0&#45;&gt;b2 -->
<g id="edge2" class="edge">
<title>b0&#45;&gt;b2</title>
<path fill="none" stroke="black" d="M192.11,-350.25C223.29,-343.45 258.11,-335.86 289.98,-328.91"/>
<polygon fill="black" stroke="black" points="290.75,-332.32 299.77,-326.77 289.26,-325.48 290.75,-332.32"/>
</g>
<!-- b3 -->
<g id="node4" class="node">
<title>b3</title>
<polygon fill="white" stroke="black" points="792,-397 600,-397 600,-345 792,-345 792,-397"/>
<text text-anchor="middle" x="696" y="-385" font-family="Helvetica" font-size="10.00">B3</text>
<text text-anchor="middle" x="696" y="-374" font-family="Helvetica" font-size="10.00">Loop: &lt;none&gt;</text>
<text text-anchor="middle" x="696" y="-363" font-family="Helvetica" font-size="10.00">&#45;&#45;&#45;</text>
<text text-anchor="middle" x="696" y="-352" font-family="Helvetica" font-size="10.00">HotSpotMethod&lt;Bounce$Ball.bounce()&gt;</text>
</g>
<!-- b1&#45;&gt;b3 -->
<g id="edge3" class="edge">
<title>b1&#45;&gt;b3</title>
<path fill="none" stroke="black" d="M492.11,-415.25C523.29,-408.45 558.11,-400.86 589.98,-393.91"/>
<polygon fill="black" stroke="black" points="590.75,-397.32 599.77,-391.77 589.26,-390.48 590.75,-397.32"/>
</g>
<!-- b2&#45;&gt;b3 -->
<g id="edge4" class="edge">
<title>b2&#45;&gt;b3</title>
<path fill="none" stroke="black" d="M492.11,-326.75C523.29,-333.55 558.11,-341.14 589.98,-348.09"/>
<polygon fill="black" stroke="black" points="589.26,-351.52 599.77,-350.23 590.75,-344.68 589.26,-351.52"/>
</g>
<!-- b4 -->
<g id="node5" class="node">
<title>b4</title>
<polygon fill="white" stroke="black" points="1092,-473.5 900,-473.5 900,-410.5 1092,-410.5 1092,-473.5"/>
<text text-anchor="middle" x="996" y="-461.5" font-family="Helvetica" font-size="10.00">B4</text>
<text text-anchor="middle" x="996" y="-450.5" font-family="Helvetica" font-size="10.00">Loop: &lt;none&gt;</text>
<text text-anchor="middle" x="996" y="-439.5" font-family="Helvetica" font-size="10.00">&#45;&#45;&#45;</text>
<text text-anchor="middle" x="996" y="-428.5" font-family="Helvetica" font-size="10.00">HotSpotMethod&lt;Bounce$Ball.bounce()&gt;</text>
<text text-anchor="middle" x="996" y="-417.5" font-family="Helvetica" font-size="10.00">HotSpotMethod&lt;Math.abs(int)&gt;</text>
</g>
<!-- b3&#45;&gt;b4 -->
<g id="edge5" class="edge">
<title>b3&#45;&gt;b4</title>
<path fill="none" stroke="black" d="M792.11,-393.66C823.29,-401.09 858.11,-409.39 889.98,-416.98"/>
<polygon fill="black" stroke="black" points="889.23,-420.4 899.77,-419.31 890.86,-413.59 889.23,-420.4"/>
</g>
<!-- b6 -->
<g id="node7" class="node">
<title>b6</title>
<polygon fill="white" stroke="black" points="1392,-327 1200,-327 1200,-275 1392,-275 1392,-327"/>
<text text-anchor="middle" x="1296" y="-315" font-family="Helvetica" font-size="10.00">B6</text>
<text text-anchor="middle" x="1296" y="-304" font-family="Helvetica" font-size="10.00">Loop: &lt;none&gt;</text>
<text text-anchor="middle" x="1296" y="-293" font-family="Helvetica" font-size="10.00">&#45;&#45;&#45;</text>
<text text-anchor="middle" x="1296" y="-282" font-family="Helvetica" font-size="10.00">HotSpotMethod&lt;Bounce$Ball.bounce()&gt;</text>
</g>
<!-- b3&#45;&gt;b6 -->
<g id="edge6" class="edge">
<title>b3&#45;&gt;b6</title>
<path fill="none" stroke="black" d="M792.09,-359.87C900.53,-347.18 1077.32,-326.48 1189.81,-313.31"/>
<polygon fill="black" stroke="black" points="1190.29,-316.78 1199.81,-312.14 1189.47,-309.83 1190.29,-316.78"/>
</g>
<!-- b4&#45;&gt;b6 -->
<g id="edge7" class="edge">
<title>b4&#45;&gt;b6</title>
<path fill="none" stroke="black" d="M1063.88,-410.36C1113.69,-386.79 1181.32,-354.79 1230.54,-331.5"/>
<polygon fill="black" stroke="black" points="1232.28,-334.55 1239.82,-327.11 1229.28,-328.22 1232.28,-334.55"/>
</g>
<!-- b5 -->
<g id="node6" class="node">
<title>b5</title>
<polygon fill="white" stroke="black" points="1092,-192 900,-192 900,-140 1092,-140 1092,-192"/>
<text text-anchor="middle" x="996" y="-180" font-family="Helvetica" font-size="10.00">B5</text>
<text text-anchor="middle" x="996" y="-169" font-family="Helvetica" font-size="10.00">Loop: &lt;none&gt;</text>
<text text-anchor="middle" x="996" y="-158" font-family="Helvetica" font-size="10.00">&#45;&#45;&#45;</text>
<text text-anchor="middle" x="996" y="-147" font-family="Helvetica" font-size="10.00">HotSpotMethod&lt;Bounce$Ball.bounce()&gt;</text>
</g>
<!-- b5&#45;&gt;b6 -->
<g id="edge8" class="edge">
<title>b5&#45;&gt;b6</title>
<path fill="none" stroke="black" d="M1054.46,-192.03C1104.16,-214.54 1176.04,-247.11 1228.28,-270.77"/>
<polygon fill="black" stroke="black" points="1226.91,-274 1237.47,-274.94 1229.8,-267.62 1226.91,-274"/>
</g>
<!-- b8 -->
<g id="node9" class="node">
<title>b8</title>
<polygon fill="white" stroke="black" points="1692,-403.5 1500,-403.5 1500,-340.5 1692,-340.5 1692,-403.5"/>
<text text-anchor="middle" x="1596" y="-391.5" font-family="Helvetica" font-size="10.00">B8</text>
<text text-anchor="middle" x="1596" y="-380.5" font-family="Helvetica" font-size="10.00">Loop: &lt;none&gt;</text>
<text text-anchor="middle" x="1596" y="-369.5" font-family="Helvetica" font-size="10.00">&#45;&#45;&#45;</text>
<text text-anchor="middle" x="1596" y="-358.5" font-family="Helvetica" font-size="10.00">HotSpotMethod&lt;Bounce$Ball.bounce()&gt;</text>
<text text-anchor="middle" x="1596" y="-347.5" font-family="Helvetica" font-size="10.00">HotSpotMethod&lt;Math.abs(int)&gt;</text>
</g>
<!-- b6&#45;&gt;b8 -->
<g id="edge10" class="edge">
<title>b6&#45;&gt;b8</title>
<path fill="none" stroke="black" d="M1392.11,-323.66C1423.29,-331.09 1458.11,-339.39 1489.98,-346.98"/>
<polygon fill="black" stroke="black" points="1489.23,-350.4 1499.77,-349.31 1490.86,-343.59 1489.23,-350.4"/>
</g>
<!-- b9 -->
<g id="node10" class="node">
<title>b9</title>
<polygon fill="white" stroke="black" points="1992,-257 1800,-257 1800,-205 1992,-205 1992,-257"/>
<text text-anchor="middle" x="1896" y="-245" font-family="Helvetica" font-size="10.00">B9</text>
<text text-anchor="middle" x="1896" y="-234" font-family="Helvetica" font-size="10.00">Loop: &lt;none&gt;</text>
<text text-anchor="middle" x="1896" y="-223" font-family="Helvetica" font-size="10.00">&#45;&#45;&#45;</text>
<text text-anchor="middle" x="1896" y="-212" font-family="Helvetica" font-size="10.00">HotSpotMethod&lt;Bounce$Ball.bounce()&gt;</text>
</g>
<!-- b6&#45;&gt;b9 -->
<g id="edge9" class="edge">
<title>b6&#45;&gt;b9</title>
<path fill="none" stroke="black" d="M1392.09,-289.87C1500.53,-277.18 1677.32,-256.48 1789.81,-243.31"/>
<polygon fill="black" stroke="black" points="1790.29,-246.78 1799.81,-242.14 1789.47,-239.83 1790.29,-246.78"/>
</g>
<!-- b7 -->
<g id="node8" class="node">
<title>b7</title>
<polygon fill="white" stroke="black" points="1692,-122 1500,-122 1500,-70 1692,-70 1692,-122"/>
<text text-anchor="middle" x="1596" y="-110" font-family="Helvetica" font-size="10.00">B7</text>
<text text-anchor="middle" x="1596" y="-99" font-family="Helvetica" font-size="10.00">Loop: &lt;none&gt;</text>
<text text-anchor="middle" x="1596" y="-88" font-family="Helvetica" font-size="10.00">&#45;&#45;&#45;</text>
<text text-anchor="middle" x="1596" y="-77" font-family="Helvetica" font-size="10.00">HotSpotMethod&lt;Bounce$Ball.bounce()&gt;</text>
</g>
<!-- b7&#45;&gt;b9 -->
<g id="edge11" class="edge">
<title>b7&#45;&gt;b9</title>
<path fill="none" stroke="black" d="M1654.46,-122.03C1704.16,-144.54 1776.04,-177.11 1828.28,-200.77"/>
<polygon fill="black" stroke="black" points="1826.91,-204 1837.47,-204.94 1829.8,-197.62 1826.91,-204"/>
</g>
<!-- b8&#45;&gt;b9 -->
<g id="edge12" class="edge">
<title>b8&#45;&gt;b9</title>
<path fill="none" stroke="black" d="M1663.88,-340.36C1713.69,-316.79 1781.32,-284.79 1830.54,-261.5"/>
<polygon fill="black" stroke="black" points="1832.28,-264.55 1839.82,-257.11 1829.28,-258.22 1832.28,-264.55"/>
</g>
<!-- b10 -->
<g id="node11" class="node">
<title>b10</title>
<polygon fill="white" stroke="black" points="2292,-333.5 2100,-333.5 2100,-270.5 2292,-270.5 2292,-333.5"/>
<text text-anchor="middle" x="2196" y="-321.5" font-family="Helvetica" font-size="10.00">B10</text>
<text text-anchor="middle" x="2196" y="-310.5" font-family="Helvetica" font-size="10.00">Loop: &lt;none&gt;</text>
<text text-anchor="middle" x="2196" y="-299.5" font-family="Helvetica" font-size="10.00">&#45;&#45;&#45;</text>
<text text-anchor="middle" x="2196" y="-288.5" font-family="Helvetica" font-size="10.00">HotSpotMethod&lt;Bounce$Ball.bounce()&gt;</text>
<text text-anchor="middle" x="2196" y="-277.5" font-family="Helvetica" font-size="10.00">HotSpotMethod&lt;Math.abs(int)&gt;</text>
</g>
<!-- b9&#45;&gt;b10 -->
<g id="edge13" class="edge">
<title>b9&#45;&gt;b10</title>
<path fill="none" stroke="black" d="M1992.11,-253.66C2023.29,-261.09 2058.11,-269.39 2089.98,-276.98"/>
<polygon fill="black" stroke="black" points="2089.23,-280.4 2099.77,-279.31 2090.86,-273.59 2089.23,-280.4"/>
</g>
<!-- b12 -->
<g id="node13" class="node">
<title>b12</title>
<polygon fill="white" stroke="black" points="2592,-187 2400,-187 2400,-135 2592,-135 2592,-187"/>
<text text-anchor="middle" x="2496" y="-175" font-family="Helvetica" font-size="10.00">B12</text>
<text text-anchor="middle" x="2496" y="-164" font-family="Helvetica" font-size="10.00">Loop: &lt;none&gt;</text>
<text text-anchor="middle" x="2496" y="-153" font-family="Helvetica" font-size="10.00">&#45;&#45;&#45;</text>
<text text-anchor="middle" x="2496" y="-142" font-family="Helvetica" font-size="10.00">HotSpotMethod&lt;Bounce$Ball.bounce()&gt;</text>
</g>
<!-- b9&#45;&gt;b12 -->
<g id="edge14" class="edge">
<title>b9&#45;&gt;b12</title>
<path fill="none" stroke="black" d="M1992.09,-219.87C2100.53,-207.18 2277.32,-186.48 2389.81,-173.31"/>
<polygon fill="black" stroke="black" points="2390.29,-176.78 2399.81,-172.14 2389.47,-169.83 2390.29,-176.78"/>
</g>
<!-- b10&#45;&gt;b12 -->
<g id="edge15" class="edge">
<title>b10&#45;&gt;b12</title>
<path fill="none" stroke="black" d="M2263.88,-270.36C2313.69,-246.79 2381.32,-214.79 2430.54,-191.5"/>
<polygon fill="black" stroke="black" points="2432.28,-194.55 2439.82,-187.11 2429.28,-188.22 2432.28,-194.55"/>
</g>
<!-- b11 -->
<g id="node12" class="node">
<title>b11</title>
<polygon fill="white" stroke="black" points="2292,-52 2100,-52 2100,0 2292,0 2292,-52"/>
<text text-anchor="middle" x="2196" y="-40" font-family="Helvetica" font-size="10.00">B11</text>
<text text-anchor="middle" x="2196" y="-29" font-family="Helvetica" font-size="10.00">Loop: &lt;none&gt;</text>
<text text-anchor="middle" x="2196" y="-18" font-family="Helvetica" font-size="10.00">&#45;&#45;&#45;</text>
<text text-anchor="middle" x="2196" y="-7" font-family="Helvetica" font-size="10.00">HotSpotMethod&lt;Bounce$Ball.bounce()&gt;</text>
</g>
<!-- b11&#45;&gt;b12 -->
<g id="edge16" class="edge">
<title>b11&#45;&gt;b12</title>
<path fill="none" stroke="black" d="M2254.46,-52.03C2304.16,-74.54 2376.04,-107.11 2428.28,-130.77"/>
<polygon fill="black" stroke="black" points="2426.91,-134 2437.47,-134.94 2429.8,-127.62 2426.91,-134"/>
</g>
</g>
</svg>
