<?xml version="1.0" encoding="UTF-8" standalone="no"?>
<!DOCTYPE svg PUBLIC "-//W3C//DTD SVG 1.1//EN"
 "http://www.w3.org/Graphics/SVG/1.1/DTD/svg11.dtd">
<!-- Generated by graphviz version 2.44.0 (0)
 -->
<!-- Title: CFG_98 Pages: 1 -->
<svg width="2134pt" height="392pt"
 viewBox="0.00 0.00 2134.00 391.95" xmlns="http://www.w3.org/2000/svg" xmlns:xlink="http://www.w3.org/1999/xlink">
<g id="graph0" class="graph" transform="scale(1 1) rotate(0) translate(4 387.95)">
<title>CFG_98</title>
<polygon fill="white" stroke="transparent" points="-4,4 -4,-387.95 2130,-387.95 2130,4 -4,4"/>
<text text-anchor="middle" x="146.5" y="-363.95" font-family="Times-Roman" font-size="20.00">Bounce.verifyResult(Object)</text>
<!-- b0 -->
<g id="node1" class="node">
<title>b0</title>
<polygon fill="white" stroke="black" points="218,-243 0,-243 0,-191 218,-191 218,-243"/>
<text text-anchor="middle" x="109" y="-231" font-family="Helvetica" font-size="10.00">B0</text>
<text text-anchor="middle" x="109" y="-220" font-family="Helvetica" font-size="10.00">Loop: &lt;none&gt;</text>
<text text-anchor="middle" x="109" y="-209" font-family="Helvetica" font-size="10.00">&#45;&#45;&#45;</text>
<text text-anchor="middle" x="109" y="-198" font-family="Helvetica" font-size="10.00">HotSpotMethod&lt;Bounce.verifyResult(Object)&gt;</text>
</g>
<!-- b1 -->
<g id="node2" class="node">
<title>b1</title>
<polygon fill="white" stroke="black" points="544,-305 326,-305 326,-253 544,-253 544,-305"/>
<text text-anchor="middle" x="435" y="-293" font-family="Helvetica" font-size="10.00">B1</text>
<text text-anchor="middle" x="435" y="-282" font-family="Helvetica" font-size="10.00">Loop: &lt;none&gt;</text>
<text text-anchor="middle" x="435" y="-271" font-family="Helvetica" font-size="10.00">&#45;&#45;&#45;</text>
<text text-anchor="middle" x="435" y="-260" font-family="Helvetica" font-size="10.00">HotSpotMethod&lt;Bounce.verifyResult(Object)&gt;</text>
</g>
<!-- b0&#45;&gt;b1 -->
<g id="edge1" class="edge">
<title>b0&#45;&gt;b1</title>
<path fill="none" stroke="black" d="M218.34,-237.73C249.55,-243.7 283.75,-250.25 315.54,-256.33"/>
<polygon fill="black" stroke="black" points="315.28,-259.85 325.76,-258.29 316.6,-252.97 315.28,-259.85"/>
</g>
<!-- b2 -->
<g id="node3" class="node">
<title>b2</title>
<polygon fill="white" stroke="black" points="544,-181 326,-181 326,-129 544,-129 544,-181"/>
<text text-anchor="middle" x="435" y="-169" font-family="Helvetica" font-size="10.00">B2</text>
<text text-anchor="middle" x="435" y="-158" font-family="Helvetica" font-size="10.00">Loop: &lt;none&gt;</text>
<text text-anchor="middle" x="435" y="-147" font-family="Helvetica" font-size="10.00">&#45;&#45;&#45;</text>
<text text-anchor="middle" x="435" y="-136" font-family="Helvetica" font-size="10.00">HotSpotMethod&lt;Bounce.verifyResult(Object)&gt;</text>
</g>
<!-- b0&#45;&gt;b2 -->
<g id="edge2" class="edge">
<title>b0&#45;&gt;b2</title>
<path fill="none" stroke="black" d="M218.34,-196.27C249.55,-190.3 283.75,-183.75 315.54,-177.67"/>
<polygon fill="black" stroke="black" points="316.6,-181.03 325.76,-175.71 315.28,-174.15 316.6,-181.03"/>
</g>
<!-- b3 -->
<g id="node4" class="node">
<title>b3</title>
<polygon fill="white" stroke="black" points="870,-243 652,-243 652,-191 870,-191 870,-243"/>
<text text-anchor="middle" x="761" y="-231" font-family="Helvetica" font-size="10.00">B3</text>
<text text-anchor="middle" x="761" y="-220" font-family="Helvetica" font-size="10.00">Loop: &lt;none&gt;</text>
<text text-anchor="middle" x="761" y="-209" font-family="Helvetica" font-size="10.00">&#45;&#45;&#45;</text>
<text text-anchor="middle" x="761" y="-198" font-family="Helvetica" font-size="10.00">HotSpotMethod&lt;Bounce.verifyResult(Object)&gt;</text>
</g>
<!-- b1&#45;&gt;b3 -->
<g id="edge3" class="edge">
<title>b1&#45;&gt;b3</title>
<path fill="none" stroke="black" d="M544.34,-258.27C575.55,-252.3 609.75,-245.75 641.54,-239.67"/>
<polygon fill="black" stroke="black" points="642.6,-243.03 651.76,-237.71 641.28,-236.15 642.6,-243.03"/>
</g>
<!-- b2&#45;&gt;b3 -->
<g id="edge4" class="edge">
<title>b2&#45;&gt;b3</title>
<path fill="none" stroke="black" d="M544.34,-175.73C575.55,-181.7 609.75,-188.25 641.54,-194.33"/>
<polygon fill="black" stroke="black" points="641.28,-197.85 651.76,-196.29 642.6,-190.97 641.28,-197.85"/>
</g>
<!-- b5 -->
<g id="node6" class="node">
<title>b5</title>
<polygon fill="white" stroke="black" points="1196,-52 978,-52 978,0 1196,0 1196,-52"/>
<text text-anchor="middle" x="1087" y="-40" font-family="Helvetica" font-size="10.00">B5</text>
<text text-anchor="middle" x="1087" y="-29" font-family="Helvetica" font-size="10.00">Loop: &lt;none&gt;</text>
<text text-anchor="middle" x="1087" y="-18" font-family="Helvetica" font-size="10.00">&#45;&#45;&#45;</text>
<text text-anchor="middle" x="1087" y="-7" font-family="Helvetica" font-size="10.00">HotSpotMethod&lt;Bounce.verifyResult(Object)&gt;</text>
</g>
<!-- b3&#45;&gt;b5 -->
<g id="edge6" class="edge">
<title>b3&#45;&gt;b5</title>
<path fill="none" stroke="black" d="M805.31,-190.84C848.83,-164.62 917.88,-123.2 978,-88 995.32,-77.86 1014.27,-66.92 1031.41,-57.1"/>
<polygon fill="black" stroke="black" points="1033.24,-60.08 1040.18,-52.07 1029.76,-54.01 1033.24,-60.08"/>
</g>
<!-- b7 -->
<g id="node8" class="node">
<title>b7</title>
<polygon fill="white" stroke="black" points="1522,-246 1304,-246 1304,-194 1522,-194 1522,-246"/>
<text text-anchor="middle" x="1413" y="-234" font-family="Helvetica" font-size="10.00">B7</text>
<text text-anchor="middle" x="1413" y="-223" font-family="Helvetica" font-size="10.00">Loop: &lt;none&gt;</text>
<text text-anchor="middle" x="1413" y="-212" font-family="Helvetica" font-size="10.00">&#45;&#45;&#45;</text>
<text text-anchor="middle" x="1413" y="-201" font-family="Helvetica" font-size="10.00">HotSpotMethod&lt;Bounce.verifyResult(Object)&gt;</text>
</g>
<!-- b3&#45;&gt;b7 -->
<g id="edge5" class="edge">
<title>b3&#45;&gt;b7</title>
<path fill="none" stroke="black" d="M796.33,-243.17C837.09,-272.43 908.34,-318.08 978,-336 1071.83,-360.14 1102.04,-359.63 1196,-336 1260.49,-319.78 1326.72,-280.15 1368.54,-251.73"/>
<polygon fill="black" stroke="black" points="1370.57,-254.58 1376.83,-246.03 1366.61,-248.81 1370.57,-254.58"/>
</g>
<!-- b4 -->
<g id="node5" class="node">
<title>b4</title>
<polygon fill="white" stroke="black" points="1196,-300 978,-300 978,-248 1196,-248 1196,-300"/>
<text text-anchor="middle" x="1087" y="-288" font-family="Helvetica" font-size="10.00">B4</text>
<text text-anchor="middle" x="1087" y="-277" font-family="Helvetica" font-size="10.00">Loop: &lt;none&gt;</text>
<text text-anchor="middle" x="1087" y="-266" font-family="Helvetica" font-size="10.00">&#45;&#45;&#45;</text>
<text text-anchor="middle" x="1087" y="-255" font-family="Helvetica" font-size="10.00">HotSpotMethod&lt;Bounce.verifyResult(Object)&gt;</text>
</g>
<!-- b4&#45;&gt;b7 -->
<g id="edge7" class="edge">
<title>b4&#45;&gt;b7</title>
<path fill="none" stroke="black" d="M1196.34,-255.94C1227.55,-250.74 1261.75,-245.04 1293.54,-239.74"/>
<polygon fill="black" stroke="black" points="1294.48,-243.14 1303.76,-238.04 1293.32,-236.23 1294.48,-243.14"/>
</g>
<!-- b5&#45;&gt;b7 -->
<g id="edge8" class="edge">
<title>b5&#45;&gt;b7</title>
<path fill="none" stroke="black" d="M1134.14,-52.12C1153.34,-63.08 1175.82,-76.04 1196,-88 1252.95,-121.74 1317.66,-161.47 1361.28,-188.47"/>
<polygon fill="black" stroke="black" points="1359.65,-191.57 1369.99,-193.86 1363.33,-185.62 1359.65,-191.57"/>
</g>
<!-- b10 -->
<g id="node11" class="node">
<title>b10</title>
<polygon fill="white" stroke="black" points="1498,-52 1328,-52 1328,0 1498,0 1498,-52"/>
<text text-anchor="middle" x="1413" y="-40" font-family="Helvetica" font-size="10.00">B10</text>
<text text-anchor="middle" x="1413" y="-29" font-family="Helvetica" font-size="10.00">Loop: &lt;none&gt;</text>
<text text-anchor="middle" x="1413" y="-18" font-family="Helvetica" font-size="10.00">&#45;&#45;&#45;</text>
<text text-anchor="middle" x="1413" y="-7" font-family="Helvetica" font-size="10.00">HotSpotMethod&lt;Integer.intValue()&gt;</text>
</g>
<!-- b5&#45;&gt;b10 -->
<g id="edge9" class="edge">
<title>b5&#45;&gt;b10</title>
<path fill="none" stroke="black" d="M1196.34,-26C1235.69,-26 1279.79,-26 1317.82,-26"/>
<polygon fill="black" stroke="black" points="1317.86,-29.5 1327.86,-26 1317.86,-22.5 1317.86,-29.5"/>
</g>
<!-- b6 -->
<g id="node7" class="node">
<title>b6</title>
<polygon fill="white" stroke="black" points="1196,-176 978,-176 978,-124 1196,-124 1196,-176"/>
<text text-anchor="middle" x="1087" y="-164" font-family="Helvetica" font-size="10.00">B6</text>
<text text-anchor="middle" x="1087" y="-153" font-family="Helvetica" font-size="10.00">Loop: &lt;none&gt;</text>
<text text-anchor="middle" x="1087" y="-142" font-family="Helvetica" font-size="10.00">&#45;&#45;&#45;</text>
<text text-anchor="middle" x="1087" y="-131" font-family="Helvetica" font-size="10.00">HotSpotMethod&lt;Bounce.verifyResult(Object)&gt;</text>
</g>
<!-- b6&#45;&gt;b7 -->
<g id="edge10" class="edge">
<title>b6&#45;&gt;b7</title>
<path fill="none" stroke="black" d="M1196.34,-173.41C1227.68,-180.18 1262.04,-187.6 1293.95,-194.49"/>
<polygon fill="black" stroke="black" points="1293.25,-197.92 1303.76,-196.62 1294.73,-191.08 1293.25,-197.92"/>
</g>
<!-- b8 -->
<g id="node9" class="node">
<title>b8</title>
<polygon fill="white" stroke="black" points="1848,-323 1630,-323 1630,-271 1848,-271 1848,-323"/>
<text text-anchor="middle" x="1739" y="-311" font-family="Helvetica" font-size="10.00">B8</text>
<text text-anchor="middle" x="1739" y="-300" font-family="Helvetica" font-size="10.00">Loop: &lt;none&gt;</text>
<text text-anchor="middle" x="1739" y="-289" font-family="Helvetica" font-size="10.00">&#45;&#45;&#45;</text>
<text text-anchor="middle" x="1739" y="-278" font-family="Helvetica" font-size="10.00">HotSpotMethod&lt;Bounce.verifyResult(Object)&gt;</text>
</g>
<!-- b7&#45;&gt;b8 -->
<g id="edge11" class="edge">
<title>b7&#45;&gt;b8</title>
<path fill="none" stroke="black" d="M1522.34,-245.75C1553.68,-253.2 1588.04,-261.36 1619.95,-268.94"/>
<polygon fill="black" stroke="black" points="1619.23,-272.37 1629.76,-271.28 1620.84,-265.56 1619.23,-272.37"/>
</g>
<!-- b9 -->
<g id="node10" class="node">
<title>b9</title>
<polygon fill="white" stroke="black" points="1848,-198.5 1630,-198.5 1630,-135.5 1848,-135.5 1848,-198.5"/>
<text text-anchor="middle" x="1739" y="-186.5" font-family="Helvetica" font-size="10.00">B9</text>
<text text-anchor="middle" x="1739" y="-175.5" font-family="Helvetica" font-size="10.00">Loop: &lt;none&gt;</text>
<text text-anchor="middle" x="1739" y="-164.5" font-family="Helvetica" font-size="10.00">&#45;&#45;&#45;</text>
<text text-anchor="middle" x="1739" y="-153.5" font-family="Helvetica" font-size="10.00">HotSpotMethod&lt;Bounce.verifyResult(Object)&gt;</text>
<text text-anchor="middle" x="1739" y="-142.5" font-family="Helvetica" font-size="10.00">HotSpotMethod&lt;Integer.intValue()&gt;</text>
</g>
<!-- b7&#45;&gt;b9 -->
<g id="edge12" class="edge">
<title>b7&#45;&gt;b9</title>
<path fill="none" stroke="black" d="M1522.34,-202.28C1553.55,-197.17 1587.75,-191.58 1619.54,-186.38"/>
<polygon fill="black" stroke="black" points="1620.46,-189.77 1629.76,-184.71 1619.33,-182.87 1620.46,-189.77"/>
</g>
<!-- b11 -->
<g id="node12" class="node">
<title>b11</title>
<polygon fill="white" stroke="black" points="2126,-122 1956,-122 1956,-70 2126,-70 2126,-122"/>
<text text-anchor="middle" x="2041" y="-110" font-family="Helvetica" font-size="10.00">B11</text>
<text text-anchor="middle" x="2041" y="-99" font-family="Helvetica" font-size="10.00">Loop: &lt;none&gt;</text>
<text text-anchor="middle" x="2041" y="-88" font-family="Helvetica" font-size="10.00">&#45;&#45;&#45;</text>
<text text-anchor="middle" x="2041" y="-77" font-family="Helvetica" font-size="10.00">HotSpotMethod&lt;Integer.intValue()&gt;</text>
</g>
<!-- b9&#45;&gt;b11 -->
<g id="edge13" class="edge">
<title>b9&#45;&gt;b11</title>
<path fill="none" stroke="black" d="M1848.31,-141.37C1880.26,-133.8 1914.96,-125.59 1945.94,-118.26"/>
<polygon fill="black" stroke="black" points="1946.93,-121.62 1955.86,-115.91 1945.32,-114.81 1946.93,-121.62"/>
</g>
<!-- b10&#45;&gt;b11 -->
<g id="edge14" class="edge">
<title>b10&#45;&gt;b11</title>
<path fill="none" stroke="black" d="M1498.1,-35.4C1614.53,-48.42 1824.2,-71.87 1945.78,-85.46"/>
<polygon fill="black" stroke="black" points="1945.49,-88.95 1955.82,-86.59 1946.27,-82 1945.49,-88.95"/>
</g>
</g>
</svg>
