<?xml version="1.0" encoding="UTF-8" standalone="no"?>
<!DOCTYPE svg PUBLIC "-//W3C//DTD SVG 1.1//EN"
 "http://www.w3.org/Graphics/SVG/1.1/DTD/svg11.dtd">
<!-- Generated by graphviz version 2.44.0 (0)
 -->
<!-- Title: CFG_108 Pages: 1 -->
<svg width="8008pt" height="1148pt"
 viewBox="0.00 0.00 8008.00 1148.00" xmlns="http://www.w3.org/2000/svg" xmlns:xlink="http://www.w3.org/1999/xlink">
<g id="graph0" class="graph" transform="scale(1 1) rotate(0) translate(4 1144)">
<title>CFG_108</title>
<polygon fill="white" stroke="transparent" points="-4,4 -4,-1144 8004,-1144 8004,4 -4,4"/>
<text text-anchor="middle" x="194" y="-1120" font-family="Times-Roman" font-size="20.00">Benchmark.innerBenchmarkLoop(int)</text>
<!-- b0 -->
<g id="node1" class="node">
<title>b0</title>
<polygon fill="white" stroke="black" points="260,-188 0,-188 0,-136 260,-136 260,-188"/>
<text text-anchor="middle" x="130" y="-176" font-family="Helvetica" font-size="10.00">B0</text>
<text text-anchor="middle" x="130" y="-165" font-family="Helvetica" font-size="10.00">Loop: &lt;none&gt;</text>
<text text-anchor="middle" x="130" y="-154" font-family="Helvetica" font-size="10.00">&#45;&#45;&#45;</text>
<text text-anchor="middle" x="130" y="-143" font-family="Helvetica" font-size="10.00">HotSpotMethod&lt;Benchmark.innerBenchmarkLoop(int)&gt;</text>
</g>
<!-- b1 -->
<g id="node2" class="node">
<title>b1</title>
<polygon fill="white" stroke="black" points="628,-259 368,-259 368,-207 628,-207 628,-259"/>
<text text-anchor="middle" x="498" y="-247" font-family="Helvetica" font-size="10.00">B1</text>
<text text-anchor="middle" x="498" y="-236" font-family="Helvetica" font-size="10.00">Loop: &lt;none&gt;</text>
<text text-anchor="middle" x="498" y="-225" font-family="Helvetica" font-size="10.00">&#45;&#45;&#45;</text>
<text text-anchor="middle" x="498" y="-214" font-family="Helvetica" font-size="10.00">HotSpotMethod&lt;Benchmark.innerBenchmarkLoop(int)&gt;</text>
</g>
<!-- b0&#45;&gt;b1 -->
<g id="edge1" class="edge">
<title>b0&#45;&gt;b1</title>
<path fill="none" stroke="black" d="M260.04,-187.03C291.75,-193.18 325.83,-199.79 357.98,-206.03"/>
<polygon fill="black" stroke="black" points="357.41,-209.49 367.89,-207.95 358.74,-202.61 357.41,-209.49"/>
</g>
<!-- b45 -->
<g id="node46" class="node">
<title>b45</title>
<polygon fill="white" stroke="black" points="996,-52 736,-52 736,0 996,0 996,-52"/>
<text text-anchor="middle" x="866" y="-40" font-family="Helvetica" font-size="10.00">B45</text>
<text text-anchor="middle" x="866" y="-29" font-family="Helvetica" font-size="10.00">Loop: &lt;none&gt;</text>
<text text-anchor="middle" x="866" y="-18" font-family="Helvetica" font-size="10.00">&#45;&#45;&#45;</text>
<text text-anchor="middle" x="866" y="-7" font-family="Helvetica" font-size="10.00">HotSpotMethod&lt;Benchmark.innerBenchmarkLoop(int)&gt;</text>
</g>
<!-- b0&#45;&gt;b45 -->
<g id="edge2" class="edge">
<title>b0&#45;&gt;b45</title>
<path fill="none" stroke="black" d="M260.11,-138.08C390.74,-113.87 592.02,-76.58 726.06,-51.74"/>
<polygon fill="black" stroke="black" points="726.8,-55.17 735.99,-49.9 725.52,-48.28 726.8,-55.17"/>
</g>
<!-- b2 -->
<g id="node3" class="node">
<title>b2</title>
<polygon fill="white" stroke="black" points="996,-259 736,-259 736,-207 996,-207 996,-259"/>
<text text-anchor="middle" x="866" y="-247" font-family="Helvetica" font-size="10.00">B2</text>
<text text-anchor="middle" x="866" y="-236" font-family="Helvetica" font-size="10.00">Loop: &lt;none&gt;</text>
<text text-anchor="middle" x="866" y="-225" font-family="Helvetica" font-size="10.00">&#45;&#45;&#45;</text>
<text text-anchor="middle" x="866" y="-214" font-family="Helvetica" font-size="10.00">HotSpotMethod&lt;Benchmark.innerBenchmarkLoop(int)&gt;</text>
</g>
<!-- b1&#45;&gt;b2 -->
<g id="edge3" class="edge">
<title>b1&#45;&gt;b2</title>
<path fill="none" stroke="black" d="M628.04,-233C659.61,-233 693.53,-233 725.57,-233"/>
<polygon fill="black" stroke="black" points="725.89,-236.5 735.89,-233 725.89,-229.5 725.89,-236.5"/>
</g>
<!-- b44 -->
<g id="node45" class="node">
<title>b44</title>
<polygon fill="white" stroke="black" points="6232,-462 5972,-462 5972,-410 6232,-410 6232,-462"/>
<text text-anchor="middle" x="6102" y="-450" font-family="Helvetica" font-size="10.00">B44</text>
<text text-anchor="middle" x="6102" y="-439" font-family="Helvetica" font-size="10.00">Loop: &lt;none&gt;</text>
<text text-anchor="middle" x="6102" y="-428" font-family="Helvetica" font-size="10.00">&#45;&#45;&#45;</text>
<text text-anchor="middle" x="6102" y="-417" font-family="Helvetica" font-size="10.00">HotSpotMethod&lt;Benchmark.innerBenchmarkLoop(int)&gt;</text>
</g>
<!-- b1&#45;&gt;b44 -->
<g id="edge4" class="edge">
<title>b1&#45;&gt;b44</title>
<path fill="none" stroke="black" d="M529.89,-259.24C626.66,-338.66 935.23,-571 1233,-571 1233,-571 1233,-571 5359,-571 5594.27,-571 5864.83,-504.49 6005.22,-464.84"/>
<polygon fill="black" stroke="black" points="6006.44,-468.13 6015.11,-462.03 6004.53,-461.4 6006.44,-468.13"/>
</g>
<!-- b3 -->
<g id="node4" class="node">
<title>b3</title>
<polygon fill="white" stroke="black" points="1364,-332.5 1104,-332.5 1104,-269.5 1364,-269.5 1364,-332.5"/>
<text text-anchor="middle" x="1234" y="-320.5" font-family="Helvetica" font-size="10.00">B3</text>
<text text-anchor="middle" x="1234" y="-309.5" font-family="Helvetica" font-size="10.00">Loop: &lt;none&gt;</text>
<text text-anchor="middle" x="1234" y="-298.5" font-family="Helvetica" font-size="10.00">&#45;&#45;&#45;</text>
<text text-anchor="middle" x="1234" y="-287.5" font-family="Helvetica" font-size="10.00">HotSpotMethod&lt;Benchmark.innerBenchmarkLoop(int)&gt;</text>
<text text-anchor="middle" x="1234" y="-276.5" font-family="Helvetica" font-size="10.00">HotSpotMethod&lt;Bounce.verifyResult(Object)&gt;</text>
</g>
<!-- b2&#45;&gt;b3 -->
<g id="edge5" class="edge">
<title>b2&#45;&gt;b3</title>
<path fill="none" stroke="black" d="M996.04,-256.97C1027.75,-262.87 1061.83,-269.2 1093.98,-275.17"/>
<polygon fill="black" stroke="black" points="1093.42,-278.63 1103.89,-277.01 1094.7,-271.75 1093.42,-278.63"/>
</g>
<!-- b42 -->
<g id="node43" class="node">
<title>b42</title>
<polygon fill="white" stroke="black" points="1364,-197.5 1104,-197.5 1104,-134.5 1364,-134.5 1364,-197.5"/>
<text text-anchor="middle" x="1234" y="-185.5" font-family="Helvetica" font-size="10.00">B42</text>
<text text-anchor="middle" x="1234" y="-174.5" font-family="Helvetica" font-size="10.00">Loop: &lt;none&gt;</text>
<text text-anchor="middle" x="1234" y="-163.5" font-family="Helvetica" font-size="10.00">&#45;&#45;&#45;</text>
<text text-anchor="middle" x="1234" y="-152.5" font-family="Helvetica" font-size="10.00">HotSpotMethod&lt;Integer.intValue()&gt;</text>
<text text-anchor="middle" x="1234" y="-141.5" font-family="Helvetica" font-size="10.00">HotSpotMethod&lt;Benchmark.innerBenchmarkLoop(int)&gt;</text>
</g>
<!-- b2&#45;&gt;b42 -->
<g id="edge6" class="edge">
<title>b2&#45;&gt;b42</title>
<path fill="none" stroke="black" d="M996.04,-209.38C1027.75,-203.57 1061.83,-197.34 1093.98,-191.45"/>
<polygon fill="black" stroke="black" points="1094.69,-194.88 1103.89,-189.63 1093.43,-187.99 1094.69,-194.88"/>
</g>
<!-- b4 -->
<g id="node5" class="node">
<title>b4</title>
<polygon fill="white" stroke="black" points="1711,-327 1493,-327 1493,-275 1711,-275 1711,-327"/>
<text text-anchor="middle" x="1602" y="-315" font-family="Helvetica" font-size="10.00">B4</text>
<text text-anchor="middle" x="1602" y="-304" font-family="Helvetica" font-size="10.00">Loop: &lt;none&gt;</text>
<text text-anchor="middle" x="1602" y="-293" font-family="Helvetica" font-size="10.00">&#45;&#45;&#45;</text>
<text text-anchor="middle" x="1602" y="-282" font-family="Helvetica" font-size="10.00">HotSpotMethod&lt;Bounce.verifyResult(Object)&gt;</text>
</g>
<!-- b3&#45;&gt;b4 -->
<g id="edge7" class="edge">
<title>b3&#45;&gt;b4</title>
<path fill="none" stroke="black" d="M1364.04,-301C1402.67,-301 1444.83,-301 1482.74,-301"/>
<polygon fill="black" stroke="black" points="1482.79,-304.5 1492.79,-301 1482.79,-297.5 1482.79,-304.5"/>
</g>
<!-- b5 -->
<g id="node6" class="node">
<title>b5</title>
<polygon fill="white" stroke="black" points="1711,-203 1493,-203 1493,-151 1711,-151 1711,-203"/>
<text text-anchor="middle" x="1602" y="-191" font-family="Helvetica" font-size="10.00">B5</text>
<text text-anchor="middle" x="1602" y="-180" font-family="Helvetica" font-size="10.00">Loop: &lt;none&gt;</text>
<text text-anchor="middle" x="1602" y="-169" font-family="Helvetica" font-size="10.00">&#45;&#45;&#45;</text>
<text text-anchor="middle" x="1602" y="-158" font-family="Helvetica" font-size="10.00">HotSpotMethod&lt;Bounce.verifyResult(Object)&gt;</text>
</g>
<!-- b3&#45;&gt;b5 -->
<g id="edge8" class="edge">
<title>b3&#45;&gt;b5</title>
<path fill="none" stroke="black" d="M1328.3,-269.39C1385.66,-249.96 1458.64,-225.23 1514.67,-206.25"/>
<polygon fill="black" stroke="black" points="1515.87,-209.54 1524.21,-203.01 1513.62,-202.91 1515.87,-209.54"/>
</g>
<!-- b6 -->
<g id="node7" class="node">
<title>b6</title>
<polygon fill="white" stroke="black" points="2058,-203 1840,-203 1840,-151 2058,-151 2058,-203"/>
<text text-anchor="middle" x="1949" y="-191" font-family="Helvetica" font-size="10.00">B6</text>
<text text-anchor="middle" x="1949" y="-180" font-family="Helvetica" font-size="10.00">Loop: &lt;none&gt;</text>
<text text-anchor="middle" x="1949" y="-169" font-family="Helvetica" font-size="10.00">&#45;&#45;&#45;</text>
<text text-anchor="middle" x="1949" y="-158" font-family="Helvetica" font-size="10.00">HotSpotMethod&lt;Bounce.verifyResult(Object)&gt;</text>
</g>
<!-- b4&#45;&gt;b6 -->
<g id="edge9" class="edge">
<title>b4&#45;&gt;b6</title>
<path fill="none" stroke="black" d="M1675.74,-274.85C1731.46,-254.83 1808.32,-227.2 1866.17,-206.41"/>
<polygon fill="black" stroke="black" points="1867.42,-209.68 1875.65,-203 1865.06,-203.09 1867.42,-209.68"/>
</g>
<!-- b5&#45;&gt;b6 -->
<g id="edge10" class="edge">
<title>b5&#45;&gt;b6</title>
<path fill="none" stroke="black" d="M1711.21,-177C1748.85,-177 1791.26,-177 1829.68,-177"/>
<polygon fill="black" stroke="black" points="1829.87,-180.5 1839.87,-177 1829.87,-173.5 1829.87,-180.5"/>
</g>
<!-- b8 -->
<g id="node9" class="node">
<title>b8</title>
<polygon fill="white" stroke="black" points="2384,-68 2166,-68 2166,-16 2384,-16 2384,-68"/>
<text text-anchor="middle" x="2275" y="-56" font-family="Helvetica" font-size="10.00">B8</text>
<text text-anchor="middle" x="2275" y="-45" font-family="Helvetica" font-size="10.00">Loop: &lt;none&gt;</text>
<text text-anchor="middle" x="2275" y="-34" font-family="Helvetica" font-size="10.00">&#45;&#45;&#45;</text>
<text text-anchor="middle" x="2275" y="-23" font-family="Helvetica" font-size="10.00">HotSpotMethod&lt;Bounce.verifyResult(Object)&gt;</text>
</g>
<!-- b6&#45;&gt;b8 -->
<g id="edge12" class="edge">
<title>b6&#45;&gt;b8</title>
<path fill="none" stroke="black" d="M2012.47,-150.97C2066.73,-128.36 2145.31,-95.62 2202.16,-71.93"/>
<polygon fill="black" stroke="black" points="2203.56,-75.14 2211.45,-68.06 2200.87,-68.68 2203.56,-75.14"/>
</g>
<!-- b10 -->
<g id="node11" class="node">
<title>b10</title>
<polygon fill="white" stroke="black" points="2710,-273 2492,-273 2492,-221 2710,-221 2710,-273"/>
<text text-anchor="middle" x="2601" y="-261" font-family="Helvetica" font-size="10.00">B10</text>
<text text-anchor="middle" x="2601" y="-250" font-family="Helvetica" font-size="10.00">Loop: &lt;none&gt;</text>
<text text-anchor="middle" x="2601" y="-239" font-family="Helvetica" font-size="10.00">&#45;&#45;&#45;</text>
<text text-anchor="middle" x="2601" y="-228" font-family="Helvetica" font-size="10.00">HotSpotMethod&lt;Bounce.verifyResult(Object)&gt;</text>
</g>
<!-- b6&#45;&gt;b10 -->
<g id="edge11" class="edge">
<title>b6&#45;&gt;b10</title>
<path fill="none" stroke="black" d="M2058.06,-188.64C2175.08,-201.24 2361.14,-221.28 2481.92,-234.28"/>
<polygon fill="black" stroke="black" points="2481.63,-237.77 2491.95,-235.36 2482.38,-230.81 2481.63,-237.77"/>
</g>
<!-- b7 -->
<g id="node8" class="node">
<title>b7</title>
<polygon fill="white" stroke="black" points="2384,-338 2166,-338 2166,-286 2384,-286 2384,-338"/>
<text text-anchor="middle" x="2275" y="-326" font-family="Helvetica" font-size="10.00">B7</text>
<text text-anchor="middle" x="2275" y="-315" font-family="Helvetica" font-size="10.00">Loop: &lt;none&gt;</text>
<text text-anchor="middle" x="2275" y="-304" font-family="Helvetica" font-size="10.00">&#45;&#45;&#45;</text>
<text text-anchor="middle" x="2275" y="-293" font-family="Helvetica" font-size="10.00">HotSpotMethod&lt;Bounce.verifyResult(Object)&gt;</text>
</g>
<!-- b7&#45;&gt;b10 -->
<g id="edge13" class="edge">
<title>b7&#45;&gt;b10</title>
<path fill="none" stroke="black" d="M2384.34,-290.27C2415.68,-283.98 2450.04,-277.08 2481.95,-270.68"/>
<polygon fill="black" stroke="black" points="2482.65,-274.11 2491.76,-268.71 2481.27,-267.25 2482.65,-274.11"/>
</g>
<!-- b8&#45;&gt;b10 -->
<g id="edge14" class="edge">
<title>b8&#45;&gt;b10</title>
<path fill="none" stroke="black" d="M2317.36,-68.17C2376.84,-105.8 2486.35,-175.09 2550.19,-215.48"/>
<polygon fill="black" stroke="black" points="2548.56,-218.6 2558.88,-220.98 2552.3,-212.68 2548.56,-218.6"/>
</g>
<!-- b40 -->
<g id="node41" class="node">
<title>b40</title>
<polygon fill="white" stroke="black" points="2686,-68 2516,-68 2516,-16 2686,-16 2686,-68"/>
<text text-anchor="middle" x="2601" y="-56" font-family="Helvetica" font-size="10.00">B40</text>
<text text-anchor="middle" x="2601" y="-45" font-family="Helvetica" font-size="10.00">Loop: &lt;none&gt;</text>
<text text-anchor="middle" x="2601" y="-34" font-family="Helvetica" font-size="10.00">&#45;&#45;&#45;</text>
<text text-anchor="middle" x="2601" y="-23" font-family="Helvetica" font-size="10.00">HotSpotMethod&lt;Integer.intValue()&gt;</text>
</g>
<!-- b8&#45;&gt;b40 -->
<g id="edge15" class="edge">
<title>b8&#45;&gt;b40</title>
<path fill="none" stroke="black" d="M2384.34,-42C2423.69,-42 2467.79,-42 2505.82,-42"/>
<polygon fill="black" stroke="black" points="2505.86,-45.5 2515.86,-42 2505.86,-38.5 2505.86,-45.5"/>
</g>
<!-- b9 -->
<g id="node10" class="node">
<title>b9</title>
<polygon fill="white" stroke="black" points="2384,-462 2166,-462 2166,-410 2384,-410 2384,-462"/>
<text text-anchor="middle" x="2275" y="-450" font-family="Helvetica" font-size="10.00">B9</text>
<text text-anchor="middle" x="2275" y="-439" font-family="Helvetica" font-size="10.00">Loop: &lt;none&gt;</text>
<text text-anchor="middle" x="2275" y="-428" font-family="Helvetica" font-size="10.00">&#45;&#45;&#45;</text>
<text text-anchor="middle" x="2275" y="-417" font-family="Helvetica" font-size="10.00">HotSpotMethod&lt;Bounce.verifyResult(Object)&gt;</text>
</g>
<!-- b9&#45;&gt;b10 -->
<g id="edge16" class="edge">
<title>b9&#45;&gt;b10</title>
<path fill="none" stroke="black" d="M2321.78,-409.86C2341.02,-398.84 2363.62,-385.84 2384,-374 2439.78,-341.59 2503.41,-304.12 2547.08,-278.32"/>
<polygon fill="black" stroke="black" points="2548.99,-281.26 2555.81,-273.16 2545.42,-275.23 2548.99,-281.26"/>
</g>
<!-- b11 -->
<g id="node12" class="node">
<title>b11</title>
<polygon fill="white" stroke="black" points="3078,-349.5 2818,-349.5 2818,-286.5 3078,-286.5 3078,-349.5"/>
<text text-anchor="middle" x="2948" y="-337.5" font-family="Helvetica" font-size="10.00">B11</text>
<text text-anchor="middle" x="2948" y="-326.5" font-family="Helvetica" font-size="10.00">Loop: &lt;none&gt;</text>
<text text-anchor="middle" x="2948" y="-315.5" font-family="Helvetica" font-size="10.00">&#45;&#45;&#45;</text>
<text text-anchor="middle" x="2948" y="-304.5" font-family="Helvetica" font-size="10.00">HotSpotMethod&lt;Bounce.verifyResult(Object)&gt;</text>
<text text-anchor="middle" x="2948" y="-293.5" font-family="Helvetica" font-size="10.00">HotSpotMethod&lt;Benchmark.innerBenchmarkLoop(int)&gt;</text>
</g>
<!-- b10&#45;&gt;b11 -->
<g id="edge17" class="edge">
<title>b10&#45;&gt;b11</title>
<path fill="none" stroke="black" d="M2710.21,-269.27C2741.11,-275.63 2775.21,-282.65 2807.68,-289.33"/>
<polygon fill="black" stroke="black" points="2807.2,-292.8 2817.7,-291.39 2808.61,-285.95 2807.2,-292.8"/>
</g>
<!-- b39 -->
<g id="node40" class="node">
<title>b39</title>
<polygon fill="white" stroke="black" points="3078,-214.5 2818,-214.5 2818,-151.5 3078,-151.5 3078,-214.5"/>
<text text-anchor="middle" x="2948" y="-202.5" font-family="Helvetica" font-size="10.00">B39</text>
<text text-anchor="middle" x="2948" y="-191.5" font-family="Helvetica" font-size="10.00">Loop: &lt;none&gt;</text>
<text text-anchor="middle" x="2948" y="-180.5" font-family="Helvetica" font-size="10.00">&#45;&#45;&#45;</text>
<text text-anchor="middle" x="2948" y="-169.5" font-family="Helvetica" font-size="10.00">HotSpotMethod&lt;Benchmark.innerBenchmarkLoop(int)&gt;</text>
<text text-anchor="middle" x="2948" y="-158.5" font-family="Helvetica" font-size="10.00">HotSpotMethod&lt;Integer.intValue()&gt;</text>
</g>
<!-- b10&#45;&gt;b39 -->
<g id="edge18" class="edge">
<title>b10&#45;&gt;b39</title>
<path fill="none" stroke="black" d="M2710.21,-226.93C2741.11,-221.19 2775.21,-214.87 2807.68,-208.84"/>
<polygon fill="black" stroke="black" points="2808.51,-212.25 2817.7,-206.99 2807.23,-205.37 2808.51,-212.25"/>
</g>
<!-- b12 -->
<g id="node13" class="node">
<title>b12</title>
<polygon fill="white" stroke="black" points="3446,-743.5 3186,-743.5 3186,-680.5 3446,-680.5 3446,-743.5"/>
<text text-anchor="middle" x="3316" y="-731.5" font-family="Helvetica" font-size="10.00">B12</text>
<text text-anchor="middle" x="3316" y="-720.5" font-family="Helvetica" font-size="10.00">Loop: &lt;none&gt;</text>
<text text-anchor="middle" x="3316" y="-709.5" font-family="Helvetica" font-size="10.00">&#45;&#45;&#45;</text>
<text text-anchor="middle" x="3316" y="-698.5" font-family="Helvetica" font-size="10.00">HotSpotMethod&lt;Benchmark.innerBenchmarkLoop(int)&gt;</text>
<text text-anchor="middle" x="3316" y="-687.5" font-family="Helvetica" font-size="10.00">HotSpotMethod&lt;Bounce.verifyResult(Object)&gt;</text>
</g>
<!-- b11&#45;&gt;b12 -->
<g id="edge19" class="edge">
<title>b11&#45;&gt;b12</title>
<path fill="none" stroke="black" d="M2978.33,-349.58C3044.59,-420.9 3205.68,-594.32 3278.36,-672.56"/>
<polygon fill="black" stroke="black" points="3276.16,-675.33 3285.53,-680.27 3281.29,-670.56 3276.16,-675.33"/>
</g>
<!-- b11&#45;&gt;b44 -->
<g id="edge20" class="edge">
<title>b11&#45;&gt;b44</title>
<path fill="none" stroke="black" d="M3078.11,-313.07C3220.92,-308.05 3457.85,-301 3662,-301 3662,-301 3662,-301 5359,-301 5594.27,-301 5864.83,-367.51 6005.22,-407.16"/>
<polygon fill="black" stroke="black" points="6004.53,-410.6 6015.11,-409.97 6006.44,-403.87 6004.53,-410.6"/>
</g>
<!-- b13 -->
<g id="node14" class="node">
<title>b13</title>
<polygon fill="white" stroke="black" points="3772,-862 3554,-862 3554,-810 3772,-810 3772,-862"/>
<text text-anchor="middle" x="3663" y="-850" font-family="Helvetica" font-size="10.00">B13</text>
<text text-anchor="middle" x="3663" y="-839" font-family="Helvetica" font-size="10.00">Loop: &lt;none&gt;</text>
<text text-anchor="middle" x="3663" y="-828" font-family="Helvetica" font-size="10.00">&#45;&#45;&#45;</text>
<text text-anchor="middle" x="3663" y="-817" font-family="Helvetica" font-size="10.00">HotSpotMethod&lt;Bounce.verifyResult(Object)&gt;</text>
</g>
<!-- b12&#45;&gt;b13 -->
<g id="edge21" class="edge">
<title>b12&#45;&gt;b13</title>
<path fill="none" stroke="black" d="M3404.95,-743.61C3458.8,-762.96 3527.24,-787.57 3579.97,-806.52"/>
<polygon fill="black" stroke="black" points="3579.03,-809.9 3589.62,-809.99 3581.39,-803.31 3579.03,-809.9"/>
</g>
<!-- b14 -->
<g id="node15" class="node">
<title>b14</title>
<polygon fill="white" stroke="black" points="3772,-738 3554,-738 3554,-686 3772,-686 3772,-738"/>
<text text-anchor="middle" x="3663" y="-726" font-family="Helvetica" font-size="10.00">B14</text>
<text text-anchor="middle" x="3663" y="-715" font-family="Helvetica" font-size="10.00">Loop: &lt;none&gt;</text>
<text text-anchor="middle" x="3663" y="-704" font-family="Helvetica" font-size="10.00">&#45;&#45;&#45;</text>
<text text-anchor="middle" x="3663" y="-693" font-family="Helvetica" font-size="10.00">HotSpotMethod&lt;Bounce.verifyResult(Object)&gt;</text>
</g>
<!-- b12&#45;&gt;b14 -->
<g id="edge22" class="edge">
<title>b12&#45;&gt;b14</title>
<path fill="none" stroke="black" d="M3446.45,-712C3478.36,-712 3512.38,-712 3543.74,-712"/>
<polygon fill="black" stroke="black" points="3543.82,-715.5 3553.82,-712 3543.82,-708.5 3543.82,-715.5"/>
</g>
<!-- b15 -->
<g id="node16" class="node">
<title>b15</title>
<polygon fill="white" stroke="black" points="4098,-862 3880,-862 3880,-810 4098,-810 4098,-862"/>
<text text-anchor="middle" x="3989" y="-850" font-family="Helvetica" font-size="10.00">B15</text>
<text text-anchor="middle" x="3989" y="-839" font-family="Helvetica" font-size="10.00">Loop: &lt;none&gt;</text>
<text text-anchor="middle" x="3989" y="-828" font-family="Helvetica" font-size="10.00">&#45;&#45;&#45;</text>
<text text-anchor="middle" x="3989" y="-817" font-family="Helvetica" font-size="10.00">HotSpotMethod&lt;Bounce.verifyResult(Object)&gt;</text>
</g>
<!-- b13&#45;&gt;b15 -->
<g id="edge23" class="edge">
<title>b13&#45;&gt;b15</title>
<path fill="none" stroke="black" d="M3772.34,-836C3803.55,-836 3837.75,-836 3869.54,-836"/>
<polygon fill="black" stroke="black" points="3869.76,-839.5 3879.76,-836 3869.76,-832.5 3869.76,-839.5"/>
</g>
<!-- b14&#45;&gt;b15 -->
<g id="edge24" class="edge">
<title>b14&#45;&gt;b15</title>
<path fill="none" stroke="black" d="M3732.32,-738.15C3784.42,-758.09 3856.23,-785.57 3910.48,-806.33"/>
<polygon fill="black" stroke="black" points="3909.47,-809.69 3920.06,-810 3911.97,-803.15 3909.47,-809.69"/>
</g>
<!-- b16 -->
<g id="node17" class="node">
<title>b16</title>
<polygon fill="white" stroke="black" points="4424,-862 4206,-862 4206,-810 4424,-810 4424,-862"/>
<text text-anchor="middle" x="4315" y="-850" font-family="Helvetica" font-size="10.00">B16</text>
<text text-anchor="middle" x="4315" y="-839" font-family="Helvetica" font-size="10.00">Loop: &lt;none&gt;</text>
<text text-anchor="middle" x="4315" y="-828" font-family="Helvetica" font-size="10.00">&#45;&#45;&#45;</text>
<text text-anchor="middle" x="4315" y="-817" font-family="Helvetica" font-size="10.00">HotSpotMethod&lt;Bounce.verifyResult(Object)&gt;</text>
</g>
<!-- b15&#45;&gt;b16 -->
<g id="edge25" class="edge">
<title>b15&#45;&gt;b16</title>
<path fill="none" stroke="black" d="M4098.34,-836C4129.55,-836 4163.75,-836 4195.54,-836"/>
<polygon fill="black" stroke="black" points="4195.76,-839.5 4205.76,-836 4195.76,-832.5 4195.76,-839.5"/>
</g>
<!-- b17 -->
<g id="node18" class="node">
<title>b17</title>
<polygon fill="white" stroke="black" points="4424,-1110 4206,-1110 4206,-1058 4424,-1058 4424,-1110"/>
<text text-anchor="middle" x="4315" y="-1098" font-family="Helvetica" font-size="10.00">B17</text>
<text text-anchor="middle" x="4315" y="-1087" font-family="Helvetica" font-size="10.00">Loop: &lt;none&gt;</text>
<text text-anchor="middle" x="4315" y="-1076" font-family="Helvetica" font-size="10.00">&#45;&#45;&#45;</text>
<text text-anchor="middle" x="4315" y="-1065" font-family="Helvetica" font-size="10.00">HotSpotMethod&lt;Bounce.verifyResult(Object)&gt;</text>
</g>
<!-- b15&#45;&gt;b17 -->
<g id="edge26" class="edge">
<title>b15&#45;&gt;b17</title>
<path fill="none" stroke="black" d="M4016.91,-862.15C4056.47,-899.88 4133.5,-970.67 4206,-1022 4221.41,-1032.91 4238.87,-1043.59 4255.2,-1052.93"/>
<polygon fill="black" stroke="black" points="4253.7,-1056.1 4264.13,-1057.97 4257.14,-1050.01 4253.7,-1056.1"/>
</g>
<!-- b19 -->
<g id="node20" class="node">
<title>b19</title>
<polygon fill="white" stroke="black" points="4750,-986 4532,-986 4532,-934 4750,-934 4750,-986"/>
<text text-anchor="middle" x="4641" y="-974" font-family="Helvetica" font-size="10.00">B19</text>
<text text-anchor="middle" x="4641" y="-963" font-family="Helvetica" font-size="10.00">Loop: &lt;none&gt;</text>
<text text-anchor="middle" x="4641" y="-952" font-family="Helvetica" font-size="10.00">&#45;&#45;&#45;</text>
<text text-anchor="middle" x="4641" y="-941" font-family="Helvetica" font-size="10.00">HotSpotMethod&lt;Bounce.verifyResult(Object)&gt;</text>
</g>
<!-- b16&#45;&gt;b19 -->
<g id="edge27" class="edge">
<title>b16&#45;&gt;b19</title>
<path fill="none" stroke="black" d="M4384.32,-862.15C4436.42,-882.09 4508.23,-909.57 4562.48,-930.33"/>
<polygon fill="black" stroke="black" points="4561.47,-933.69 4572.06,-934 4563.97,-927.15 4561.47,-933.69"/>
</g>
<!-- b17&#45;&gt;b19 -->
<g id="edge28" class="edge">
<title>b17&#45;&gt;b19</title>
<path fill="none" stroke="black" d="M4384.32,-1057.85C4436.42,-1037.91 4508.23,-1010.43 4562.48,-989.67"/>
<polygon fill="black" stroke="black" points="4563.97,-992.85 4572.06,-986 4561.47,-986.31 4563.97,-992.85"/>
</g>
<!-- b36 -->
<g id="node37" class="node">
<title>b36</title>
<polygon fill="white" stroke="black" points="4726,-1110 4556,-1110 4556,-1058 4726,-1058 4726,-1110"/>
<text text-anchor="middle" x="4641" y="-1098" font-family="Helvetica" font-size="10.00">B36</text>
<text text-anchor="middle" x="4641" y="-1087" font-family="Helvetica" font-size="10.00">Loop: &lt;none&gt;</text>
<text text-anchor="middle" x="4641" y="-1076" font-family="Helvetica" font-size="10.00">&#45;&#45;&#45;</text>
<text text-anchor="middle" x="4641" y="-1065" font-family="Helvetica" font-size="10.00">HotSpotMethod&lt;Integer.intValue()&gt;</text>
</g>
<!-- b17&#45;&gt;b36 -->
<g id="edge29" class="edge">
<title>b17&#45;&gt;b36</title>
<path fill="none" stroke="black" d="M4424.34,-1084C4463.69,-1084 4507.79,-1084 4545.82,-1084"/>
<polygon fill="black" stroke="black" points="4545.86,-1087.5 4555.86,-1084 4545.86,-1080.5 4545.86,-1087.5"/>
</g>
<!-- b18 -->
<g id="node19" class="node">
<title>b18</title>
<polygon fill="white" stroke="black" points="4424,-986 4206,-986 4206,-934 4424,-934 4424,-986"/>
<text text-anchor="middle" x="4315" y="-974" font-family="Helvetica" font-size="10.00">B18</text>
<text text-anchor="middle" x="4315" y="-963" font-family="Helvetica" font-size="10.00">Loop: &lt;none&gt;</text>
<text text-anchor="middle" x="4315" y="-952" font-family="Helvetica" font-size="10.00">&#45;&#45;&#45;</text>
<text text-anchor="middle" x="4315" y="-941" font-family="Helvetica" font-size="10.00">HotSpotMethod&lt;Bounce.verifyResult(Object)&gt;</text>
</g>
<!-- b18&#45;&gt;b19 -->
<g id="edge30" class="edge">
<title>b18&#45;&gt;b19</title>
<path fill="none" stroke="black" d="M4424.34,-960C4455.55,-960 4489.75,-960 4521.54,-960"/>
<polygon fill="black" stroke="black" points="4521.76,-963.5 4531.76,-960 4521.76,-956.5 4521.76,-963.5"/>
</g>
<!-- b20 -->
<g id="node21" class="node">
<title>b20</title>
<polygon fill="white" stroke="black" points="5118,-861.5 4858,-861.5 4858,-798.5 5118,-798.5 5118,-861.5"/>
<text text-anchor="middle" x="4988" y="-849.5" font-family="Helvetica" font-size="10.00">B20</text>
<text text-anchor="middle" x="4988" y="-838.5" font-family="Helvetica" font-size="10.00">Loop: &lt;none&gt;</text>
<text text-anchor="middle" x="4988" y="-827.5" font-family="Helvetica" font-size="10.00">&#45;&#45;&#45;</text>
<text text-anchor="middle" x="4988" y="-816.5" font-family="Helvetica" font-size="10.00">HotSpotMethod&lt;Bounce.verifyResult(Object)&gt;</text>
<text text-anchor="middle" x="4988" y="-805.5" font-family="Helvetica" font-size="10.00">HotSpotMethod&lt;Benchmark.innerBenchmarkLoop(int)&gt;</text>
</g>
<!-- b19&#45;&gt;b20 -->
<g id="edge31" class="edge">
<title>b19&#45;&gt;b20</title>
<path fill="none" stroke="black" d="M4711.4,-933.85C4763.87,-914.08 4836.44,-886.73 4893.94,-865.06"/>
<polygon fill="black" stroke="black" points="4895.28,-868.3 4903.4,-861.5 4892.81,-861.75 4895.28,-868.3"/>
</g>
<!-- b35 -->
<g id="node36" class="node">
<title>b35</title>
<polygon fill="white" stroke="black" points="5073,-986 4903,-986 4903,-934 5073,-934 5073,-986"/>
<text text-anchor="middle" x="4988" y="-974" font-family="Helvetica" font-size="10.00">B35</text>
<text text-anchor="middle" x="4988" y="-963" font-family="Helvetica" font-size="10.00">Loop: &lt;none&gt;</text>
<text text-anchor="middle" x="4988" y="-952" font-family="Helvetica" font-size="10.00">&#45;&#45;&#45;</text>
<text text-anchor="middle" x="4988" y="-941" font-family="Helvetica" font-size="10.00">HotSpotMethod&lt;Integer.intValue()&gt;</text>
</g>
<!-- b19&#45;&gt;b35 -->
<g id="edge32" class="edge">
<title>b19&#45;&gt;b35</title>
<path fill="none" stroke="black" d="M4750.21,-960C4795.95,-960 4848.73,-960 4892.84,-960"/>
<polygon fill="black" stroke="black" points="4892.98,-963.5 4902.98,-960 4892.98,-956.5 4892.98,-963.5"/>
</g>
<!-- b21 -->
<g id="node22" class="node">
<title>b21</title>
<polygon fill="lightblue" stroke="black" points="5490,-856 5226,-856 5226,-804 5490,-804 5490,-856"/>
<text text-anchor="middle" x="5358" y="-844" font-family="Helvetica" font-size="10.00">B21</text>
<text text-anchor="middle" x="5358" y="-833" font-family="Helvetica" font-size="10.00">Loop: L0</text>
<text text-anchor="middle" x="5358" y="-822" font-family="Helvetica" font-size="10.00">&#45;&#45;&#45;</text>
<text text-anchor="middle" x="5358" y="-811" font-family="Helvetica" font-size="10.00">HotSpotMethod&lt;BuboAgentCompilerMarkers.Marker0()&gt;</text>
</g>
<!-- b20&#45;&gt;b21 -->
<g id="edge33" class="edge">
<title>b20&#45;&gt;b21</title>
<path fill="none" stroke="black" d="M5118.23,-830C5149.71,-830 5183.56,-830 5215.58,-830"/>
<polygon fill="black" stroke="black" points="5215.91,-833.5 5225.91,-830 5215.91,-826.5 5215.91,-833.5"/>
</g>
<!-- b22 -->
<g id="node23" class="node">
<title>b22</title>
<polygon fill="lightblue" stroke="black" points="5862,-856 5598,-856 5598,-804 5862,-804 5862,-856"/>
<text text-anchor="middle" x="5730" y="-844" font-family="Helvetica" font-size="10.00">B22</text>
<text text-anchor="middle" x="5730" y="-833" font-family="Helvetica" font-size="10.00">Loop: L0</text>
<text text-anchor="middle" x="5730" y="-822" font-family="Helvetica" font-size="10.00">&#45;&#45;&#45;</text>
<text text-anchor="middle" x="5730" y="-811" font-family="Helvetica" font-size="10.00">HotSpotMethod&lt;BuboAgentCompilerMarkers.Marker0()&gt;</text>
</g>
<!-- b21&#45;&gt;b22 -->
<g id="edge34" class="edge">
<title>b21&#45;&gt;b22</title>
<path fill="none" stroke="black" d="M5490.23,-830C5521.73,-830 5555.51,-830 5587.46,-830"/>
<polygon fill="black" stroke="black" points="5587.76,-833.5 5597.76,-830 5587.76,-826.5 5587.76,-833.5"/>
</g>
<!-- b31 -->
<g id="node32" class="node">
<title>b31</title>
<polygon fill="white" stroke="black" points="5860,-732 5600,-732 5600,-680 5860,-680 5860,-732"/>
<text text-anchor="middle" x="5730" y="-720" font-family="Helvetica" font-size="10.00">B31</text>
<text text-anchor="middle" x="5730" y="-709" font-family="Helvetica" font-size="10.00">Loop: &lt;none&gt;</text>
<text text-anchor="middle" x="5730" y="-698" font-family="Helvetica" font-size="10.00">&#45;&#45;&#45;</text>
<text text-anchor="middle" x="5730" y="-687" font-family="Helvetica" font-size="10.00">HotSpotMethod&lt;Benchmark.innerBenchmarkLoop(int)&gt;</text>
</g>
<!-- b21&#45;&gt;b31 -->
<g id="edge35" class="edge">
<title>b21&#45;&gt;b31</title>
<path fill="none" stroke="black" d="M5437.02,-803.85C5496.89,-783.79 5579.54,-756.09 5641.63,-735.28"/>
<polygon fill="black" stroke="black" points="5643.04,-738.5 5651.41,-732 5640.82,-731.86 5643.04,-738.5"/>
</g>
<!-- b23 -->
<g id="node24" class="node">
<title>b23</title>
<polygon fill="lightblue" stroke="black" points="6234,-732 5970,-732 5970,-680 6234,-680 6234,-732"/>
<text text-anchor="middle" x="6102" y="-720" font-family="Helvetica" font-size="10.00">B23</text>
<text text-anchor="middle" x="6102" y="-709" font-family="Helvetica" font-size="10.00">Loop: L0</text>
<text text-anchor="middle" x="6102" y="-698" font-family="Helvetica" font-size="10.00">&#45;&#45;&#45;</text>
<text text-anchor="middle" x="6102" y="-687" font-family="Helvetica" font-size="10.00">HotSpotMethod&lt;BuboAgentCompilerMarkers.Marker0()&gt;</text>
</g>
<!-- b22&#45;&gt;b23 -->
<g id="edge36" class="edge">
<title>b22&#45;&gt;b23</title>
<path fill="none" stroke="black" d="M5809.02,-803.85C5868.89,-783.79 5951.54,-756.09 6013.63,-735.28"/>
<polygon fill="black" stroke="black" points="6015.04,-738.5 6023.41,-732 6012.82,-731.86 6015.04,-738.5"/>
</g>
<!-- b24 -->
<g id="node25" class="node">
<title>b24</title>
<polygon fill="lightblue" stroke="black" points="6234,-856 5970,-856 5970,-804 6234,-804 6234,-856"/>
<text text-anchor="middle" x="6102" y="-844" font-family="Helvetica" font-size="10.00">B24</text>
<text text-anchor="middle" x="6102" y="-833" font-family="Helvetica" font-size="10.00">Loop: L0</text>
<text text-anchor="middle" x="6102" y="-822" font-family="Helvetica" font-size="10.00">&#45;&#45;&#45;</text>
<text text-anchor="middle" x="6102" y="-811" font-family="Helvetica" font-size="10.00">HotSpotMethod&lt;BuboAgentCompilerMarkers.Marker0()&gt;</text>
</g>
<!-- b22&#45;&gt;b24 -->
<g id="edge37" class="edge">
<title>b22&#45;&gt;b24</title>
<path fill="none" stroke="black" d="M5862.23,-830C5893.73,-830 5927.51,-830 5959.46,-830"/>
<polygon fill="black" stroke="black" points="5959.76,-833.5 5969.76,-830 5959.76,-826.5 5959.76,-833.5"/>
</g>
<!-- b25 -->
<g id="node26" class="node">
<title>b25</title>
<polygon fill="lightblue" stroke="black" points="6606,-794 6342,-794 6342,-742 6606,-742 6606,-794"/>
<text text-anchor="middle" x="6474" y="-782" font-family="Helvetica" font-size="10.00">B25</text>
<text text-anchor="middle" x="6474" y="-771" font-family="Helvetica" font-size="10.00">Loop: L0</text>
<text text-anchor="middle" x="6474" y="-760" font-family="Helvetica" font-size="10.00">&#45;&#45;&#45;</text>
<text text-anchor="middle" x="6474" y="-749" font-family="Helvetica" font-size="10.00">HotSpotMethod&lt;BuboAgentCompilerMarkers.Marker0()&gt;</text>
</g>
<!-- b23&#45;&gt;b25 -->
<g id="edge38" class="edge">
<title>b23&#45;&gt;b25</title>
<path fill="none" stroke="black" d="M6234.23,-727.99C6265.87,-733.29 6299.8,-738.98 6331.87,-744.35"/>
<polygon fill="black" stroke="black" points="6331.32,-747.81 6341.76,-746.01 6332.47,-740.9 6331.32,-747.81"/>
</g>
<!-- b24&#45;&gt;b25 -->
<g id="edge39" class="edge">
<title>b24&#45;&gt;b25</title>
<path fill="none" stroke="black" d="M6234.23,-808.01C6265.87,-802.71 6299.8,-797.02 6331.87,-791.65"/>
<polygon fill="black" stroke="black" points="6332.47,-795.1 6341.76,-789.99 6331.32,-788.19 6332.47,-795.1"/>
</g>
<!-- b26 -->
<g id="node27" class="node">
<title>b26</title>
<polygon fill="lightblue" stroke="black" points="6978,-732 6714,-732 6714,-680 6978,-680 6978,-732"/>
<text text-anchor="middle" x="6846" y="-720" font-family="Helvetica" font-size="10.00">B26</text>
<text text-anchor="middle" x="6846" y="-709" font-family="Helvetica" font-size="10.00">Loop: L0</text>
<text text-anchor="middle" x="6846" y="-698" font-family="Helvetica" font-size="10.00">&#45;&#45;&#45;</text>
<text text-anchor="middle" x="6846" y="-687" font-family="Helvetica" font-size="10.00">HotSpotMethod&lt;BuboAgentCompilerMarkers.Marker0()&gt;</text>
</g>
<!-- b25&#45;&gt;b26 -->
<g id="edge40" class="edge">
<title>b25&#45;&gt;b26</title>
<path fill="none" stroke="black" d="M6606.23,-746.01C6637.87,-740.71 6671.8,-735.02 6703.87,-729.65"/>
<polygon fill="black" stroke="black" points="6704.47,-733.1 6713.76,-727.99 6703.32,-726.19 6704.47,-733.1"/>
</g>
<!-- b27 -->
<g id="node28" class="node">
<title>b27</title>
<polygon fill="lightblue" stroke="black" points="6978,-856 6714,-856 6714,-804 6978,-804 6978,-856"/>
<text text-anchor="middle" x="6846" y="-844" font-family="Helvetica" font-size="10.00">B27</text>
<text text-anchor="middle" x="6846" y="-833" font-family="Helvetica" font-size="10.00">Loop: L0</text>
<text text-anchor="middle" x="6846" y="-822" font-family="Helvetica" font-size="10.00">&#45;&#45;&#45;</text>
<text text-anchor="middle" x="6846" y="-811" font-family="Helvetica" font-size="10.00">HotSpotMethod&lt;BuboAgentCompilerMarkers.Marker0()&gt;</text>
</g>
<!-- b25&#45;&gt;b27 -->
<g id="edge41" class="edge">
<title>b25&#45;&gt;b27</title>
<path fill="none" stroke="black" d="M6606.23,-789.99C6637.87,-795.29 6671.8,-800.98 6703.87,-806.35"/>
<polygon fill="black" stroke="black" points="6703.32,-809.81 6713.76,-808.01 6704.47,-802.9 6703.32,-809.81"/>
</g>
<!-- b29 -->
<g id="node30" class="node">
<title>b29</title>
<polygon fill="lightblue" stroke="black" points="7350,-732 7086,-732 7086,-680 7350,-680 7350,-732"/>
<text text-anchor="middle" x="7218" y="-720" font-family="Helvetica" font-size="10.00">B29</text>
<text text-anchor="middle" x="7218" y="-709" font-family="Helvetica" font-size="10.00">Loop: L0</text>
<text text-anchor="middle" x="7218" y="-698" font-family="Helvetica" font-size="10.00">&#45;&#45;&#45;</text>
<text text-anchor="middle" x="7218" y="-687" font-family="Helvetica" font-size="10.00">HotSpotMethod&lt;BuboAgentCompilerMarkers.Marker0()&gt;</text>
</g>
<!-- b26&#45;&gt;b29 -->
<g id="edge42" class="edge">
<title>b26&#45;&gt;b29</title>
<path fill="none" stroke="black" d="M6978.23,-706C7009.73,-706 7043.51,-706 7075.46,-706"/>
<polygon fill="black" stroke="black" points="7075.76,-709.5 7085.76,-706 7075.76,-702.5 7075.76,-709.5"/>
</g>
<!-- b27&#45;&gt;b29 -->
<g id="edge43" class="edge">
<title>b27&#45;&gt;b29</title>
<path fill="none" stroke="black" d="M6925.02,-803.85C6984.89,-783.79 7067.54,-756.09 7129.63,-735.28"/>
<polygon fill="black" stroke="black" points="7131.04,-738.5 7139.41,-732 7128.82,-731.86 7131.04,-738.5"/>
</g>
<!-- b33 -->
<g id="node34" class="node">
<title>b33</title>
<polygon fill="white" stroke="black" points="7303,-856 7133,-856 7133,-804 7303,-804 7303,-856"/>
<text text-anchor="middle" x="7218" y="-844" font-family="Helvetica" font-size="10.00">B33</text>
<text text-anchor="middle" x="7218" y="-833" font-family="Helvetica" font-size="10.00">Loop: &lt;none&gt;</text>
<text text-anchor="middle" x="7218" y="-822" font-family="Helvetica" font-size="10.00">&#45;&#45;&#45;</text>
<text text-anchor="middle" x="7218" y="-811" font-family="Helvetica" font-size="10.00">HotSpotMethod&lt;Integer.intValue()&gt;</text>
</g>
<!-- b27&#45;&gt;b33 -->
<g id="edge44" class="edge">
<title>b27&#45;&gt;b33</title>
<path fill="none" stroke="black" d="M6978.23,-830C7025.94,-830 7078.88,-830 7122.76,-830"/>
<polygon fill="black" stroke="black" points="7122.85,-833.5 7132.85,-830 7122.85,-826.5 7122.85,-833.5"/>
</g>
<!-- b28 -->
<g id="node29" class="node">
<title>b28</title>
<polygon fill="lightblue" stroke="black" points="6955,-608 6737,-608 6737,-556 6955,-556 6955,-608"/>
<text text-anchor="middle" x="6846" y="-596" font-family="Helvetica" font-size="10.00">B28</text>
<text text-anchor="middle" x="6846" y="-585" font-family="Helvetica" font-size="10.00">Loop: L0</text>
<text text-anchor="middle" x="6846" y="-574" font-family="Helvetica" font-size="10.00">&#45;&#45;&#45;</text>
<text text-anchor="middle" x="6846" y="-563" font-family="Helvetica" font-size="10.00">HotSpotMethod&lt;Bounce.verifyResult(Object)&gt;</text>
</g>
<!-- b28&#45;&gt;b29 -->
<g id="edge45" class="edge">
<title>b28&#45;&gt;b29</title>
<path fill="none" stroke="black" d="M6925.02,-608.15C6984.89,-628.21 7067.54,-655.91 7129.63,-676.72"/>
<polygon fill="black" stroke="black" points="7128.82,-680.14 7139.41,-680 7131.04,-673.5 7128.82,-680.14"/>
</g>
<!-- b30 -->
<g id="node31" class="node">
<title>b30</title>
<polygon fill="lightblue" stroke="black" points="7722,-991 7458,-991 7458,-939 7722,-939 7722,-991"/>
<text text-anchor="middle" x="7590" y="-979" font-family="Helvetica" font-size="10.00">B30</text>
<text text-anchor="middle" x="7590" y="-968" font-family="Helvetica" font-size="10.00">Loop: L0</text>
<text text-anchor="middle" x="7590" y="-957" font-family="Helvetica" font-size="10.00">&#45;&#45;&#45;</text>
<text text-anchor="middle" x="7590" y="-946" font-family="Helvetica" font-size="10.00">HotSpotMethod&lt;BuboAgentCompilerMarkers.Marker0()&gt;</text>
</g>
<!-- b29&#45;&gt;b30 -->
<g id="edge46" class="edge">
<title>b29&#45;&gt;b30</title>
<path fill="none" stroke="black" d="M7282.32,-732.14C7304.37,-742.23 7328.86,-754.58 7350,-768 7428.53,-817.86 7510.06,-890.29 7554.68,-932.02"/>
<polygon fill="black" stroke="black" points="7552.36,-934.65 7562.05,-938.95 7557.16,-929.55 7552.36,-934.65"/>
</g>
<!-- b32 -->
<g id="node33" class="node">
<title>b32</title>
<polygon fill="white" stroke="black" points="7720,-720.5 7460,-720.5 7460,-657.5 7720,-657.5 7720,-720.5"/>
<text text-anchor="middle" x="7590" y="-708.5" font-family="Helvetica" font-size="10.00">B32</text>
<text text-anchor="middle" x="7590" y="-697.5" font-family="Helvetica" font-size="10.00">Loop: &lt;none&gt;</text>
<text text-anchor="middle" x="7590" y="-686.5" font-family="Helvetica" font-size="10.00">&#45;&#45;&#45;</text>
<text text-anchor="middle" x="7590" y="-675.5" font-family="Helvetica" font-size="10.00">HotSpotMethod&lt;Benchmark.innerBenchmarkLoop(int)&gt;</text>
<text text-anchor="middle" x="7590" y="-664.5" font-family="Helvetica" font-size="10.00">HotSpotMethod&lt;Integer.intValue()&gt;</text>
</g>
<!-- b29&#45;&gt;b32 -->
<g id="edge47" class="edge">
<title>b29&#45;&gt;b32</title>
<path fill="none" stroke="black" d="M7350.23,-699.97C7382.53,-698.49 7417.22,-696.89 7449.87,-695.39"/>
<polygon fill="black" stroke="black" points="7450.11,-698.89 7459.94,-694.93 7449.79,-691.89 7450.11,-698.89"/>
</g>
<!-- b30&#45;&gt;b21 -->
<g id="edge48" class="edge">
<title>b30&#45;&gt;b21</title>
<path fill="none" stroke="black" d="M7457.98,-965C7309.72,-965 7061,-965 6847,-965 6101,-965 6101,-965 6101,-965 5865.73,-965 5595.17,-898.49 5454.78,-858.84"/>
<polygon fill="black" stroke="black" points="5455.47,-855.4 5444.89,-856.03 5453.56,-862.13 5455.47,-855.4"/>
</g>
<!-- b31&#45;&gt;b44 -->
<g id="edge49" class="edge">
<title>b31&#45;&gt;b44</title>
<path fill="none" stroke="black" d="M5776.74,-679.94C5802.31,-664.91 5834.48,-645.23 5862,-626 5935.73,-574.48 6016.72,-507.78 6062.95,-468.66"/>
<polygon fill="black" stroke="black" points="6065.26,-471.3 6070.62,-462.16 6060.73,-465.96 6065.26,-471.3"/>
</g>
<!-- b34 -->
<g id="node35" class="node">
<title>b34</title>
<polygon fill="white" stroke="black" points="8000,-785 7830,-785 7830,-733 8000,-733 8000,-785"/>
<text text-anchor="middle" x="7915" y="-773" font-family="Helvetica" font-size="10.00">B34</text>
<text text-anchor="middle" x="7915" y="-762" font-family="Helvetica" font-size="10.00">Loop: &lt;none&gt;</text>
<text text-anchor="middle" x="7915" y="-751" font-family="Helvetica" font-size="10.00">&#45;&#45;&#45;</text>
<text text-anchor="middle" x="7915" y="-740" font-family="Helvetica" font-size="10.00">HotSpotMethod&lt;Integer.intValue()&gt;</text>
</g>
<!-- b32&#45;&gt;b34 -->
<g id="edge50" class="edge">
<title>b32&#45;&gt;b34</title>
<path fill="none" stroke="black" d="M7720.05,-716.97C7753.35,-724.18 7788.56,-731.82 7819.72,-738.57"/>
<polygon fill="black" stroke="black" points="7819.17,-742.03 7829.68,-740.73 7820.65,-735.19 7819.17,-742.03"/>
</g>
<!-- b33&#45;&gt;b34 -->
<g id="edge51" class="edge">
<title>b33&#45;&gt;b34</title>
<path fill="none" stroke="black" d="M7303.18,-821.4C7433.63,-808.07 7683.75,-782.52 7819.96,-768.61"/>
<polygon fill="black" stroke="black" points="7820.37,-772.08 7829.97,-767.58 7819.66,-765.12 7820.37,-772.08"/>
</g>
<!-- b37 -->
<g id="node38" class="node">
<title>b37</title>
<polygon fill="white" stroke="black" points="5443,-1053 5273,-1053 5273,-1001 5443,-1001 5443,-1053"/>
<text text-anchor="middle" x="5358" y="-1041" font-family="Helvetica" font-size="10.00">B37</text>
<text text-anchor="middle" x="5358" y="-1030" font-family="Helvetica" font-size="10.00">Loop: &lt;none&gt;</text>
<text text-anchor="middle" x="5358" y="-1019" font-family="Helvetica" font-size="10.00">&#45;&#45;&#45;</text>
<text text-anchor="middle" x="5358" y="-1008" font-family="Helvetica" font-size="10.00">HotSpotMethod&lt;Integer.intValue()&gt;</text>
</g>
<!-- b35&#45;&gt;b37 -->
<g id="edge52" class="edge">
<title>b35&#45;&gt;b37</title>
<path fill="none" stroke="black" d="M5073.43,-975.37C5129.99,-985.67 5204.53,-999.24 5262.99,-1009.88"/>
<polygon fill="black" stroke="black" points="5262.5,-1013.35 5272.97,-1011.7 5263.75,-1006.47 5262.5,-1013.35"/>
</g>
<!-- b36&#45;&gt;b37 -->
<g id="edge53" class="edge">
<title>b36&#45;&gt;b37</title>
<path fill="none" stroke="black" d="M4726.12,-1077.29C4860.36,-1066.59 5122.17,-1045.72 5262.61,-1034.52"/>
<polygon fill="black" stroke="black" points="5263.23,-1037.99 5272.92,-1033.7 5262.68,-1031.01 5263.23,-1037.99"/>
</g>
<!-- b38 -->
<g id="node39" class="node">
<title>b38</title>
<polygon fill="white" stroke="black" points="5860,-191.5 5600,-191.5 5600,-128.5 5860,-128.5 5860,-191.5"/>
<text text-anchor="middle" x="5730" y="-179.5" font-family="Helvetica" font-size="10.00">B38</text>
<text text-anchor="middle" x="5730" y="-168.5" font-family="Helvetica" font-size="10.00">Loop: &lt;none&gt;</text>
<text text-anchor="middle" x="5730" y="-157.5" font-family="Helvetica" font-size="10.00">&#45;&#45;&#45;</text>
<text text-anchor="middle" x="5730" y="-146.5" font-family="Helvetica" font-size="10.00">HotSpotMethod&lt;Integer.intValue()&gt;</text>
<text text-anchor="middle" x="5730" y="-135.5" font-family="Helvetica" font-size="10.00">HotSpotMethod&lt;Benchmark.innerBenchmarkLoop(int)&gt;</text>
</g>
<!-- b38&#45;&gt;b44 -->
<g id="edge54" class="edge">
<title>b38&#45;&gt;b44</title>
<path fill="none" stroke="black" d="M5781.49,-191.62C5806.13,-207.44 5835.99,-227.18 5862,-246 5934.67,-298.57 6015.69,-364.66 6062.27,-403.42"/>
<polygon fill="black" stroke="black" points="6060.08,-406.15 6070,-409.87 6064.57,-400.78 6060.08,-406.15"/>
</g>
<!-- b41 -->
<g id="node42" class="node">
<title>b41</title>
<polygon fill="white" stroke="black" points="3401,-130 3231,-130 3231,-78 3401,-78 3401,-130"/>
<text text-anchor="middle" x="3316" y="-118" font-family="Helvetica" font-size="10.00">B41</text>
<text text-anchor="middle" x="3316" y="-107" font-family="Helvetica" font-size="10.00">Loop: &lt;none&gt;</text>
<text text-anchor="middle" x="3316" y="-96" font-family="Helvetica" font-size="10.00">&#45;&#45;&#45;</text>
<text text-anchor="middle" x="3316" y="-85" font-family="Helvetica" font-size="10.00">HotSpotMethod&lt;Integer.intValue()&gt;</text>
</g>
<!-- b39&#45;&gt;b41 -->
<g id="edge55" class="edge">
<title>b39&#45;&gt;b41</title>
<path fill="none" stroke="black" d="M3078.04,-155.15C3125.1,-144.99 3177.4,-133.7 3220.86,-124.32"/>
<polygon fill="black" stroke="black" points="3221.82,-127.69 3230.85,-122.16 3220.34,-120.85 3221.82,-127.69"/>
</g>
<!-- b40&#45;&gt;b41 -->
<g id="edge56" class="edge">
<title>b40&#45;&gt;b41</title>
<path fill="none" stroke="black" d="M2686.24,-49.33C2820.15,-60.97 3080.73,-83.63 3220.7,-95.8"/>
<polygon fill="black" stroke="black" points="3220.71,-99.31 3230.98,-96.69 3221.32,-92.34 3220.71,-99.31"/>
</g>
<!-- b46 -->
<g id="node47" class="node">
<title>b46</title>
<polygon fill="white" stroke="black" points="1732,-65 1472,-65 1472,-13 1732,-13 1732,-65"/>
<text text-anchor="middle" x="1602" y="-53" font-family="Helvetica" font-size="10.00">B46</text>
<text text-anchor="middle" x="1602" y="-42" font-family="Helvetica" font-size="10.00">Loop: &lt;none&gt;</text>
<text text-anchor="middle" x="1602" y="-31" font-family="Helvetica" font-size="10.00">&#45;&#45;&#45;</text>
<text text-anchor="middle" x="1602" y="-20" font-family="Helvetica" font-size="10.00">HotSpotMethod&lt;Benchmark.innerBenchmarkLoop(int)&gt;</text>
</g>
<!-- b42&#45;&gt;b46 -->
<g id="edge57" class="edge">
<title>b42&#45;&gt;b46</title>
<path fill="none" stroke="black" d="M1325.94,-134.44C1384.18,-114.24 1459.24,-88.19 1516.23,-68.41"/>
<polygon fill="black" stroke="black" points="1517.63,-71.63 1525.93,-65.05 1515.34,-65.02 1517.63,-71.63"/>
</g>
<!-- b43 -->
<g id="node44" class="node">
<title>b43</title>
<polygon fill="white" stroke="black" points="5860,-462 5600,-462 5600,-410 5860,-410 5860,-462"/>
<text text-anchor="middle" x="5730" y="-450" font-family="Helvetica" font-size="10.00">B43</text>
<text text-anchor="middle" x="5730" y="-439" font-family="Helvetica" font-size="10.00">Loop: &lt;none&gt;</text>
<text text-anchor="middle" x="5730" y="-428" font-family="Helvetica" font-size="10.00">&#45;&#45;&#45;</text>
<text text-anchor="middle" x="5730" y="-417" font-family="Helvetica" font-size="10.00">HotSpotMethod&lt;Benchmark.innerBenchmarkLoop(int)&gt;</text>
</g>
<!-- b43&#45;&gt;b44 -->
<g id="edge58" class="edge">
<title>b43&#45;&gt;b44</title>
<path fill="none" stroke="black" d="M5860.15,-436C5892.93,-436 5928.29,-436 5961.55,-436"/>
<polygon fill="black" stroke="black" points="5961.81,-439.5 5971.81,-436 5961.81,-432.5 5961.81,-439.5"/>
</g>
<!-- b45&#45;&gt;b46 -->
<g id="edge59" class="edge">
<title>b45&#45;&gt;b46</title>
<path fill="none" stroke="black" d="M996.11,-28.29C1126.61,-30.6 1327.61,-34.16 1461.65,-36.53"/>
<polygon fill="black" stroke="black" points="1461.93,-40.04 1471.99,-36.72 1462.05,-33.04 1461.93,-40.04"/>
</g>
</g>
</svg>
