<?xml version="1.0" encoding="UTF-8" standalone="no"?>
<!DOCTYPE svg PUBLIC "-//W3C//DTD SVG 1.1//EN"
 "http://www.w3.org/Graphics/SVG/1.1/DTD/svg11.dtd">
<!-- Generated by graphviz version 2.44.0 (0)
 -->
<!-- Title: CFG_109 Pages: 1 -->
<svg width="5558pt" height="754pt"
 viewBox="0.00 0.00 5558.00 754.00" xmlns="http://www.w3.org/2000/svg" xmlns:xlink="http://www.w3.org/1999/xlink">
<g id="graph0" class="graph" transform="scale(1 1) rotate(0) translate(4 750)">
<title>CFG_109</title>
<polygon fill="white" stroke="transparent" points="-4,4 -4,-750 5554,-750 5554,4 -4,4"/>
<text text-anchor="middle" x="194" y="-726" font-family="Times-Roman" font-size="20.00">Benchmark.innerBenchmarkLoop(int)</text>
<!-- b0 -->
<g id="node1" class="node">
<title>b0</title>
<polygon fill="white" stroke="black" points="260,-257 0,-257 0,-205 260,-205 260,-257"/>
<text text-anchor="middle" x="130" y="-245" font-family="Helvetica" font-size="10.00">B0</text>
<text text-anchor="middle" x="130" y="-234" font-family="Helvetica" font-size="10.00">Loop: &lt;none&gt;</text>
<text text-anchor="middle" x="130" y="-223" font-family="Helvetica" font-size="10.00">&#45;&#45;&#45;</text>
<text text-anchor="middle" x="130" y="-212" font-family="Helvetica" font-size="10.00">HotSpotMethod&lt;Benchmark.innerBenchmarkLoop(int)&gt;</text>
</g>
<!-- b2 -->
<g id="node3" class="node">
<title>b2</title>
<polygon fill="white" stroke="black" points="628,-328 368,-328 368,-276 628,-276 628,-328"/>
<text text-anchor="middle" x="498" y="-316" font-family="Helvetica" font-size="10.00">B2</text>
<text text-anchor="middle" x="498" y="-305" font-family="Helvetica" font-size="10.00">Loop: &lt;none&gt;</text>
<text text-anchor="middle" x="498" y="-294" font-family="Helvetica" font-size="10.00">&#45;&#45;&#45;</text>
<text text-anchor="middle" x="498" y="-283" font-family="Helvetica" font-size="10.00">HotSpotMethod&lt;Benchmark.innerBenchmarkLoop(int)&gt;</text>
</g>
<!-- b0&#45;&gt;b2 -->
<g id="edge2" class="edge">
<title>b0&#45;&gt;b2</title>
<path fill="none" stroke="black" d="M260.04,-256.03C291.75,-262.18 325.83,-268.79 357.98,-275.03"/>
<polygon fill="black" stroke="black" points="357.41,-278.49 367.89,-276.95 358.74,-271.61 357.41,-278.49"/>
</g>
<!-- b23 -->
<g id="node24" class="node">
<title>b23</title>
<polygon fill="white" stroke="black" points="3782,-187 3522,-187 3522,-135 3782,-135 3782,-187"/>
<text text-anchor="middle" x="3652" y="-175" font-family="Helvetica" font-size="10.00">B23</text>
<text text-anchor="middle" x="3652" y="-164" font-family="Helvetica" font-size="10.00">Loop: &lt;none&gt;</text>
<text text-anchor="middle" x="3652" y="-153" font-family="Helvetica" font-size="10.00">&#45;&#45;&#45;</text>
<text text-anchor="middle" x="3652" y="-142" font-family="Helvetica" font-size="10.00">HotSpotMethod&lt;Benchmark.innerBenchmarkLoop(int)&gt;</text>
</g>
<!-- b0&#45;&gt;b23 -->
<g id="edge1" class="edge">
<title>b0&#45;&gt;b23</title>
<path fill="none" stroke="black" d="M260.25,-211.17C406.59,-190.48 652.35,-161 865,-161 865,-161 865,-161 2909,-161 3119.14,-161 3362.75,-161 3511.86,-161"/>
<polygon fill="black" stroke="black" points="3511.98,-164.5 3521.98,-161 3511.98,-157.5 3511.98,-164.5"/>
</g>
<!-- b1 -->
<g id="node2" class="node">
<title>b1</title>
<polygon fill="white" stroke="black" points="3410,-52 3150,-52 3150,0 3410,0 3410,-52"/>
<text text-anchor="middle" x="3280" y="-40" font-family="Helvetica" font-size="10.00">B1</text>
<text text-anchor="middle" x="3280" y="-29" font-family="Helvetica" font-size="10.00">Loop: &lt;none&gt;</text>
<text text-anchor="middle" x="3280" y="-18" font-family="Helvetica" font-size="10.00">&#45;&#45;&#45;</text>
<text text-anchor="middle" x="3280" y="-7" font-family="Helvetica" font-size="10.00">HotSpotMethod&lt;Benchmark.innerBenchmarkLoop(int)&gt;</text>
</g>
<!-- b1&#45;&gt;b23 -->
<g id="edge3" class="edge">
<title>b1&#45;&gt;b23</title>
<path fill="none" stroke="black" d="M3352.34,-52.03C3414.69,-74.78 3505.15,-107.79 3570.16,-131.51"/>
<polygon fill="black" stroke="black" points="3568.97,-134.8 3579.56,-134.94 3571.37,-128.22 3568.97,-134.8"/>
</g>
<!-- b3 -->
<g id="node4" class="node">
<title>b3</title>
<polygon fill="white" stroke="black" points="996,-333.5 736,-333.5 736,-270.5 996,-270.5 996,-333.5"/>
<text text-anchor="middle" x="866" y="-321.5" font-family="Helvetica" font-size="10.00">B3</text>
<text text-anchor="middle" x="866" y="-310.5" font-family="Helvetica" font-size="10.00">Loop: &lt;none&gt;</text>
<text text-anchor="middle" x="866" y="-299.5" font-family="Helvetica" font-size="10.00">&#45;&#45;&#45;</text>
<text text-anchor="middle" x="866" y="-288.5" font-family="Helvetica" font-size="10.00">HotSpotMethod&lt;Benchmark.innerBenchmarkLoop(int)&gt;</text>
<text text-anchor="middle" x="866" y="-277.5" font-family="Helvetica" font-size="10.00">HotSpotMethod&lt;Bounce.verifyResult(Object)&gt;</text>
</g>
<!-- b2&#45;&gt;b3 -->
<g id="edge4" class="edge">
<title>b2&#45;&gt;b3</title>
<path fill="none" stroke="black" d="M628.04,-302C659.61,-302 693.53,-302 725.57,-302"/>
<polygon fill="black" stroke="black" points="725.89,-305.5 735.89,-302 725.89,-298.5 725.89,-305.5"/>
</g>
<!-- b30 -->
<g id="node31" class="node">
<title>b30</title>
<polygon fill="white" stroke="black" points="996,-468.5 736,-468.5 736,-405.5 996,-405.5 996,-468.5"/>
<text text-anchor="middle" x="866" y="-456.5" font-family="Helvetica" font-size="10.00">B30</text>
<text text-anchor="middle" x="866" y="-445.5" font-family="Helvetica" font-size="10.00">Loop: &lt;none&gt;</text>
<text text-anchor="middle" x="866" y="-434.5" font-family="Helvetica" font-size="10.00">&#45;&#45;&#45;</text>
<text text-anchor="middle" x="866" y="-423.5" font-family="Helvetica" font-size="10.00">HotSpotMethod&lt;Integer.intValue()&gt;</text>
<text text-anchor="middle" x="866" y="-412.5" font-family="Helvetica" font-size="10.00">HotSpotMethod&lt;Benchmark.innerBenchmarkLoop(int)&gt;</text>
</g>
<!-- b2&#45;&gt;b30 -->
<g id="edge5" class="edge">
<title>b2&#45;&gt;b30</title>
<path fill="none" stroke="black" d="M569.57,-328.03C626.57,-349.05 707.34,-378.85 770.02,-401.97"/>
<polygon fill="black" stroke="black" points="768.93,-405.29 779.52,-405.47 771.35,-398.73 768.93,-405.29"/>
</g>
<!-- b4 -->
<g id="node5" class="node">
<title>b4</title>
<polygon fill="white" stroke="black" points="1322,-325 1104,-325 1104,-273 1322,-273 1322,-325"/>
<text text-anchor="middle" x="1213" y="-313" font-family="Helvetica" font-size="10.00">B4</text>
<text text-anchor="middle" x="1213" y="-302" font-family="Helvetica" font-size="10.00">Loop: &lt;none&gt;</text>
<text text-anchor="middle" x="1213" y="-291" font-family="Helvetica" font-size="10.00">&#45;&#45;&#45;</text>
<text text-anchor="middle" x="1213" y="-280" font-family="Helvetica" font-size="10.00">HotSpotMethod&lt;Bounce.verifyResult(Object)&gt;</text>
</g>
<!-- b3&#45;&gt;b4 -->
<g id="edge6" class="edge">
<title>b3&#45;&gt;b4</title>
<path fill="none" stroke="black" d="M996.45,-300.87C1028.36,-300.6 1062.38,-300.3 1093.74,-300.03"/>
<polygon fill="black" stroke="black" points="1093.85,-303.53 1103.82,-299.94 1093.79,-296.53 1093.85,-303.53"/>
</g>
<!-- b5 -->
<g id="node6" class="node">
<title>b5</title>
<polygon fill="white" stroke="black" points="1322,-449 1104,-449 1104,-397 1322,-397 1322,-449"/>
<text text-anchor="middle" x="1213" y="-437" font-family="Helvetica" font-size="10.00">B5</text>
<text text-anchor="middle" x="1213" y="-426" font-family="Helvetica" font-size="10.00">Loop: &lt;none&gt;</text>
<text text-anchor="middle" x="1213" y="-415" font-family="Helvetica" font-size="10.00">&#45;&#45;&#45;</text>
<text text-anchor="middle" x="1213" y="-404" font-family="Helvetica" font-size="10.00">HotSpotMethod&lt;Bounce.verifyResult(Object)&gt;</text>
</g>
<!-- b3&#45;&gt;b5 -->
<g id="edge7" class="edge">
<title>b3&#45;&gt;b5</title>
<path fill="none" stroke="black" d="M957.19,-333.63C1010.1,-352.19 1076.5,-375.48 1128.26,-393.63"/>
<polygon fill="black" stroke="black" points="1127.15,-396.95 1137.74,-396.96 1129.46,-390.34 1127.15,-396.95"/>
</g>
<!-- b6 -->
<g id="node7" class="node">
<title>b6</title>
<polygon fill="white" stroke="black" points="1648,-391 1430,-391 1430,-339 1648,-339 1648,-391"/>
<text text-anchor="middle" x="1539" y="-379" font-family="Helvetica" font-size="10.00">B6</text>
<text text-anchor="middle" x="1539" y="-368" font-family="Helvetica" font-size="10.00">Loop: &lt;none&gt;</text>
<text text-anchor="middle" x="1539" y="-357" font-family="Helvetica" font-size="10.00">&#45;&#45;&#45;</text>
<text text-anchor="middle" x="1539" y="-346" font-family="Helvetica" font-size="10.00">HotSpotMethod&lt;Bounce.verifyResult(Object)&gt;</text>
</g>
<!-- b4&#45;&gt;b6 -->
<g id="edge8" class="edge">
<title>b4&#45;&gt;b6</title>
<path fill="none" stroke="black" d="M1322.34,-321.07C1353.68,-327.45 1388.04,-334.45 1419.95,-340.95"/>
<polygon fill="black" stroke="black" points="1419.27,-344.39 1429.76,-342.95 1420.66,-337.53 1419.27,-344.39"/>
</g>
<!-- b5&#45;&gt;b6 -->
<g id="edge9" class="edge">
<title>b5&#45;&gt;b6</title>
<path fill="none" stroke="black" d="M1322.34,-403.61C1353.55,-398.02 1387.75,-391.9 1419.54,-386.21"/>
<polygon fill="black" stroke="black" points="1420.54,-389.58 1429.76,-384.38 1419.3,-382.69 1420.54,-389.58"/>
</g>
<!-- b8 -->
<g id="node9" class="node">
<title>b8</title>
<polygon fill="white" stroke="black" points="1974,-716 1756,-716 1756,-664 1974,-664 1974,-716"/>
<text text-anchor="middle" x="1865" y="-704" font-family="Helvetica" font-size="10.00">B8</text>
<text text-anchor="middle" x="1865" y="-693" font-family="Helvetica" font-size="10.00">Loop: &lt;none&gt;</text>
<text text-anchor="middle" x="1865" y="-682" font-family="Helvetica" font-size="10.00">&#45;&#45;&#45;</text>
<text text-anchor="middle" x="1865" y="-671" font-family="Helvetica" font-size="10.00">HotSpotMethod&lt;Bounce.verifyResult(Object)&gt;</text>
</g>
<!-- b6&#45;&gt;b8 -->
<g id="edge11" class="edge">
<title>b6&#45;&gt;b8</title>
<path fill="none" stroke="black" d="M1556.73,-391.17C1589.97,-441.69 1668.72,-554.16 1756,-628 1769.52,-639.44 1785.45,-649.91 1800.86,-658.85"/>
<polygon fill="black" stroke="black" points="1799.42,-662.06 1809.85,-663.94 1802.87,-655.97 1799.42,-662.06"/>
</g>
<!-- b10 -->
<g id="node11" class="node">
<title>b10</title>
<polygon fill="white" stroke="black" points="2300,-524 2082,-524 2082,-472 2300,-472 2300,-524"/>
<text text-anchor="middle" x="2191" y="-512" font-family="Helvetica" font-size="10.00">B10</text>
<text text-anchor="middle" x="2191" y="-501" font-family="Helvetica" font-size="10.00">Loop: &lt;none&gt;</text>
<text text-anchor="middle" x="2191" y="-490" font-family="Helvetica" font-size="10.00">&#45;&#45;&#45;</text>
<text text-anchor="middle" x="2191" y="-479" font-family="Helvetica" font-size="10.00">HotSpotMethod&lt;Bounce.verifyResult(Object)&gt;</text>
</g>
<!-- b6&#45;&gt;b10 -->
<g id="edge10" class="edge">
<title>b6&#45;&gt;b10</title>
<path fill="none" stroke="black" d="M1648.19,-355.07C1737.27,-350.12 1866.02,-350.43 1974,-380 2038.39,-397.63 2104.64,-437.69 2146.49,-466.24"/>
<polygon fill="black" stroke="black" points="2144.57,-469.16 2154.79,-471.96 2148.55,-463.4 2144.57,-469.16"/>
</g>
<!-- b7 -->
<g id="node8" class="node">
<title>b7</title>
<polygon fill="white" stroke="black" points="1974,-592 1756,-592 1756,-540 1974,-540 1974,-592"/>
<text text-anchor="middle" x="1865" y="-580" font-family="Helvetica" font-size="10.00">B7</text>
<text text-anchor="middle" x="1865" y="-569" font-family="Helvetica" font-size="10.00">Loop: &lt;none&gt;</text>
<text text-anchor="middle" x="1865" y="-558" font-family="Helvetica" font-size="10.00">&#45;&#45;&#45;</text>
<text text-anchor="middle" x="1865" y="-547" font-family="Helvetica" font-size="10.00">HotSpotMethod&lt;Bounce.verifyResult(Object)&gt;</text>
</g>
<!-- b7&#45;&gt;b10 -->
<g id="edge12" class="edge">
<title>b7&#45;&gt;b10</title>
<path fill="none" stroke="black" d="M1974.34,-543.26C2005.68,-536.68 2040.04,-529.47 2071.95,-522.78"/>
<polygon fill="black" stroke="black" points="2072.7,-526.2 2081.76,-520.72 2071.26,-519.34 2072.7,-526.2"/>
</g>
<!-- b8&#45;&gt;b10 -->
<g id="edge13" class="edge">
<title>b8&#45;&gt;b10</title>
<path fill="none" stroke="black" d="M1911.84,-663.96C1931.09,-652.96 1953.68,-639.94 1974,-628 2030.48,-594.8 2094.76,-555.98 2138.41,-529.46"/>
<polygon fill="black" stroke="black" points="2140.4,-532.35 2147.12,-524.16 2136.76,-526.36 2140.4,-532.35"/>
</g>
<!-- b28 -->
<g id="node29" class="node">
<title>b28</title>
<polygon fill="white" stroke="black" points="2276,-715 2106,-715 2106,-663 2276,-663 2276,-715"/>
<text text-anchor="middle" x="2191" y="-703" font-family="Helvetica" font-size="10.00">B28</text>
<text text-anchor="middle" x="2191" y="-692" font-family="Helvetica" font-size="10.00">Loop: &lt;none&gt;</text>
<text text-anchor="middle" x="2191" y="-681" font-family="Helvetica" font-size="10.00">&#45;&#45;&#45;</text>
<text text-anchor="middle" x="2191" y="-670" font-family="Helvetica" font-size="10.00">HotSpotMethod&lt;Integer.intValue()&gt;</text>
</g>
<!-- b8&#45;&gt;b28 -->
<g id="edge14" class="edge">
<title>b8&#45;&gt;b28</title>
<path fill="none" stroke="black" d="M1974.34,-689.67C2013.69,-689.54 2057.79,-689.41 2095.82,-689.29"/>
<polygon fill="black" stroke="black" points="2095.87,-692.79 2105.86,-689.26 2095.85,-685.79 2095.87,-692.79"/>
</g>
<!-- b9 -->
<g id="node10" class="node">
<title>b9</title>
<polygon fill="white" stroke="black" points="1974,-468 1756,-468 1756,-416 1974,-416 1974,-468"/>
<text text-anchor="middle" x="1865" y="-456" font-family="Helvetica" font-size="10.00">B9</text>
<text text-anchor="middle" x="1865" y="-445" font-family="Helvetica" font-size="10.00">Loop: &lt;none&gt;</text>
<text text-anchor="middle" x="1865" y="-434" font-family="Helvetica" font-size="10.00">&#45;&#45;&#45;</text>
<text text-anchor="middle" x="1865" y="-423" font-family="Helvetica" font-size="10.00">HotSpotMethod&lt;Bounce.verifyResult(Object)&gt;</text>
</g>
<!-- b9&#45;&gt;b10 -->
<g id="edge15" class="edge">
<title>b9&#45;&gt;b10</title>
<path fill="none" stroke="black" d="M1974.34,-460.73C2005.55,-466.12 2039.75,-472.03 2071.54,-477.52"/>
<polygon fill="black" stroke="black" points="2071.31,-481.04 2081.76,-479.29 2072.51,-474.14 2071.31,-481.04"/>
</g>
<!-- b11 -->
<g id="node12" class="node">
<title>b11</title>
<polygon fill="white" stroke="black" points="2668,-455.5 2408,-455.5 2408,-392.5 2668,-392.5 2668,-455.5"/>
<text text-anchor="middle" x="2538" y="-443.5" font-family="Helvetica" font-size="10.00">B11</text>
<text text-anchor="middle" x="2538" y="-432.5" font-family="Helvetica" font-size="10.00">Loop: &lt;none&gt;</text>
<text text-anchor="middle" x="2538" y="-421.5" font-family="Helvetica" font-size="10.00">&#45;&#45;&#45;</text>
<text text-anchor="middle" x="2538" y="-410.5" font-family="Helvetica" font-size="10.00">HotSpotMethod&lt;Bounce.verifyResult(Object)&gt;</text>
<text text-anchor="middle" x="2538" y="-399.5" font-family="Helvetica" font-size="10.00">HotSpotMethod&lt;Benchmark.innerBenchmarkLoop(int)&gt;</text>
</g>
<!-- b10&#45;&gt;b11 -->
<g id="edge16" class="edge">
<title>b10&#45;&gt;b11</title>
<path fill="none" stroke="black" d="M2300.21,-474.79C2331.11,-468.16 2365.21,-460.85 2397.68,-453.88"/>
<polygon fill="black" stroke="black" points="2398.66,-457.25 2407.7,-451.73 2397.19,-450.41 2398.66,-457.25"/>
</g>
<!-- b27 -->
<g id="node28" class="node">
<title>b27</title>
<polygon fill="white" stroke="black" points="2623,-580 2453,-580 2453,-528 2623,-528 2623,-580"/>
<text text-anchor="middle" x="2538" y="-568" font-family="Helvetica" font-size="10.00">B27</text>
<text text-anchor="middle" x="2538" y="-557" font-family="Helvetica" font-size="10.00">Loop: &lt;none&gt;</text>
<text text-anchor="middle" x="2538" y="-546" font-family="Helvetica" font-size="10.00">&#45;&#45;&#45;</text>
<text text-anchor="middle" x="2538" y="-535" font-family="Helvetica" font-size="10.00">HotSpotMethod&lt;Integer.intValue()&gt;</text>
</g>
<!-- b10&#45;&gt;b27 -->
<g id="edge17" class="edge">
<title>b10&#45;&gt;b27</title>
<path fill="none" stroke="black" d="M2300.21,-515.57C2345.95,-522.99 2398.73,-531.56 2442.84,-538.72"/>
<polygon fill="black" stroke="black" points="2442.55,-542.21 2452.98,-540.36 2443.67,-535.3 2442.55,-542.21"/>
</g>
<!-- b12 -->
<g id="node13" class="node">
<title>b12</title>
<polygon fill="lightblue" stroke="black" points="3040,-449 2776,-449 2776,-397 3040,-397 3040,-449"/>
<text text-anchor="middle" x="2908" y="-437" font-family="Helvetica" font-size="10.00">B12</text>
<text text-anchor="middle" x="2908" y="-426" font-family="Helvetica" font-size="10.00">Loop: L0</text>
<text text-anchor="middle" x="2908" y="-415" font-family="Helvetica" font-size="10.00">&#45;&#45;&#45;</text>
<text text-anchor="middle" x="2908" y="-404" font-family="Helvetica" font-size="10.00">HotSpotMethod&lt;BuboAgentCompilerMarkers.Marker0()&gt;</text>
</g>
<!-- b11&#45;&gt;b12 -->
<g id="edge18" class="edge">
<title>b11&#45;&gt;b12</title>
<path fill="none" stroke="black" d="M2668.23,-423.65C2699.71,-423.56 2733.56,-423.47 2765.58,-423.38"/>
<polygon fill="black" stroke="black" points="2765.92,-426.88 2775.91,-423.36 2765.9,-419.88 2765.92,-426.88"/>
</g>
<!-- b13 -->
<g id="node14" class="node">
<title>b13</title>
<polygon fill="lightblue" stroke="black" points="3412,-449 3148,-449 3148,-397 3412,-397 3412,-449"/>
<text text-anchor="middle" x="3280" y="-437" font-family="Helvetica" font-size="10.00">B13</text>
<text text-anchor="middle" x="3280" y="-426" font-family="Helvetica" font-size="10.00">Loop: L0</text>
<text text-anchor="middle" x="3280" y="-415" font-family="Helvetica" font-size="10.00">&#45;&#45;&#45;</text>
<text text-anchor="middle" x="3280" y="-404" font-family="Helvetica" font-size="10.00">HotSpotMethod&lt;BuboAgentCompilerMarkers.Marker0()&gt;</text>
</g>
<!-- b12&#45;&gt;b13 -->
<g id="edge19" class="edge">
<title>b12&#45;&gt;b13</title>
<path fill="none" stroke="black" d="M3040.23,-423C3071.73,-423 3105.51,-423 3137.46,-423"/>
<polygon fill="black" stroke="black" points="3137.76,-426.5 3147.76,-423 3137.76,-419.5 3137.76,-426.5"/>
</g>
<!-- b22 -->
<g id="node23" class="node">
<title>b22</title>
<polygon fill="white" stroke="black" points="3410,-324 3150,-324 3150,-272 3410,-272 3410,-324"/>
<text text-anchor="middle" x="3280" y="-312" font-family="Helvetica" font-size="10.00">B22</text>
<text text-anchor="middle" x="3280" y="-301" font-family="Helvetica" font-size="10.00">Loop: &lt;none&gt;</text>
<text text-anchor="middle" x="3280" y="-290" font-family="Helvetica" font-size="10.00">&#45;&#45;&#45;</text>
<text text-anchor="middle" x="3280" y="-279" font-family="Helvetica" font-size="10.00">HotSpotMethod&lt;Benchmark.innerBenchmarkLoop(int)&gt;</text>
</g>
<!-- b12&#45;&gt;b22 -->
<g id="edge20" class="edge">
<title>b12&#45;&gt;b22</title>
<path fill="none" stroke="black" d="M2986.11,-396.95C3046.22,-376.64 3129.69,-348.44 3192.15,-327.34"/>
<polygon fill="black" stroke="black" points="3193.63,-330.54 3201.99,-324.02 3191.39,-323.9 3193.63,-330.54"/>
</g>
<!-- b14 -->
<g id="node15" class="node">
<title>b14</title>
<polygon fill="lightblue" stroke="black" points="3784,-325 3520,-325 3520,-273 3784,-273 3784,-325"/>
<text text-anchor="middle" x="3652" y="-313" font-family="Helvetica" font-size="10.00">B14</text>
<text text-anchor="middle" x="3652" y="-302" font-family="Helvetica" font-size="10.00">Loop: L0</text>
<text text-anchor="middle" x="3652" y="-291" font-family="Helvetica" font-size="10.00">&#45;&#45;&#45;</text>
<text text-anchor="middle" x="3652" y="-280" font-family="Helvetica" font-size="10.00">HotSpotMethod&lt;BuboAgentCompilerMarkers.Marker0()&gt;</text>
</g>
<!-- b13&#45;&gt;b14 -->
<g id="edge21" class="edge">
<title>b13&#45;&gt;b14</title>
<path fill="none" stroke="black" d="M3359.02,-396.85C3418.89,-376.79 3501.54,-349.09 3563.63,-328.28"/>
<polygon fill="black" stroke="black" points="3565.04,-331.5 3573.41,-325 3562.82,-324.86 3565.04,-331.5"/>
</g>
<!-- b15 -->
<g id="node16" class="node">
<title>b15</title>
<polygon fill="lightblue" stroke="black" points="3784,-449 3520,-449 3520,-397 3784,-397 3784,-449"/>
<text text-anchor="middle" x="3652" y="-437" font-family="Helvetica" font-size="10.00">B15</text>
<text text-anchor="middle" x="3652" y="-426" font-family="Helvetica" font-size="10.00">Loop: L0</text>
<text text-anchor="middle" x="3652" y="-415" font-family="Helvetica" font-size="10.00">&#45;&#45;&#45;</text>
<text text-anchor="middle" x="3652" y="-404" font-family="Helvetica" font-size="10.00">HotSpotMethod&lt;BuboAgentCompilerMarkers.Marker0()&gt;</text>
</g>
<!-- b13&#45;&gt;b15 -->
<g id="edge22" class="edge">
<title>b13&#45;&gt;b15</title>
<path fill="none" stroke="black" d="M3412.23,-423C3443.73,-423 3477.51,-423 3509.46,-423"/>
<polygon fill="black" stroke="black" points="3509.76,-426.5 3519.76,-423 3509.76,-419.5 3509.76,-426.5"/>
</g>
<!-- b16 -->
<g id="node17" class="node">
<title>b16</title>
<polygon fill="lightblue" stroke="black" points="4156,-325 3892,-325 3892,-273 4156,-273 4156,-325"/>
<text text-anchor="middle" x="4024" y="-313" font-family="Helvetica" font-size="10.00">B16</text>
<text text-anchor="middle" x="4024" y="-302" font-family="Helvetica" font-size="10.00">Loop: L0</text>
<text text-anchor="middle" x="4024" y="-291" font-family="Helvetica" font-size="10.00">&#45;&#45;&#45;</text>
<text text-anchor="middle" x="4024" y="-280" font-family="Helvetica" font-size="10.00">HotSpotMethod&lt;BuboAgentCompilerMarkers.Marker0()&gt;</text>
</g>
<!-- b14&#45;&gt;b16 -->
<g id="edge23" class="edge">
<title>b14&#45;&gt;b16</title>
<path fill="none" stroke="black" d="M3784.23,-299C3815.73,-299 3849.51,-299 3881.46,-299"/>
<polygon fill="black" stroke="black" points="3881.76,-302.5 3891.76,-299 3881.76,-295.5 3881.76,-302.5"/>
</g>
<!-- b15&#45;&gt;b16 -->
<g id="edge24" class="edge">
<title>b15&#45;&gt;b16</title>
<path fill="none" stroke="black" d="M3731.02,-396.85C3790.89,-376.79 3873.54,-349.09 3935.63,-328.28"/>
<polygon fill="black" stroke="black" points="3937.04,-331.5 3945.41,-325 3934.82,-324.86 3937.04,-331.5"/>
</g>
<!-- b17 -->
<g id="node18" class="node">
<title>b17</title>
<polygon fill="lightblue" stroke="black" points="4528,-325 4264,-325 4264,-273 4528,-273 4528,-325"/>
<text text-anchor="middle" x="4396" y="-313" font-family="Helvetica" font-size="10.00">B17</text>
<text text-anchor="middle" x="4396" y="-302" font-family="Helvetica" font-size="10.00">Loop: L0</text>
<text text-anchor="middle" x="4396" y="-291" font-family="Helvetica" font-size="10.00">&#45;&#45;&#45;</text>
<text text-anchor="middle" x="4396" y="-280" font-family="Helvetica" font-size="10.00">HotSpotMethod&lt;BuboAgentCompilerMarkers.Marker0()&gt;</text>
</g>
<!-- b16&#45;&gt;b17 -->
<g id="edge25" class="edge">
<title>b16&#45;&gt;b17</title>
<path fill="none" stroke="black" d="M4156.23,-299C4187.73,-299 4221.51,-299 4253.46,-299"/>
<polygon fill="black" stroke="black" points="4253.76,-302.5 4263.76,-299 4253.76,-295.5 4253.76,-302.5"/>
</g>
<!-- b18 -->
<g id="node19" class="node">
<title>b18</title>
<polygon fill="lightblue" stroke="black" points="4528,-201 4264,-201 4264,-149 4528,-149 4528,-201"/>
<text text-anchor="middle" x="4396" y="-189" font-family="Helvetica" font-size="10.00">B18</text>
<text text-anchor="middle" x="4396" y="-178" font-family="Helvetica" font-size="10.00">Loop: L0</text>
<text text-anchor="middle" x="4396" y="-167" font-family="Helvetica" font-size="10.00">&#45;&#45;&#45;</text>
<text text-anchor="middle" x="4396" y="-156" font-family="Helvetica" font-size="10.00">HotSpotMethod&lt;BuboAgentCompilerMarkers.Marker0()&gt;</text>
</g>
<!-- b16&#45;&gt;b18 -->
<g id="edge26" class="edge">
<title>b16&#45;&gt;b18</title>
<path fill="none" stroke="black" d="M4103.02,-272.85C4162.89,-252.79 4245.54,-225.09 4307.63,-204.28"/>
<polygon fill="black" stroke="black" points="4309.04,-207.5 4317.41,-201 4306.82,-200.86 4309.04,-207.5"/>
</g>
<!-- b20 -->
<g id="node21" class="node">
<title>b20</title>
<polygon fill="lightblue" stroke="black" points="4900,-342 4636,-342 4636,-290 4900,-290 4900,-342"/>
<text text-anchor="middle" x="4768" y="-330" font-family="Helvetica" font-size="10.00">B20</text>
<text text-anchor="middle" x="4768" y="-319" font-family="Helvetica" font-size="10.00">Loop: L0</text>
<text text-anchor="middle" x="4768" y="-308" font-family="Helvetica" font-size="10.00">&#45;&#45;&#45;</text>
<text text-anchor="middle" x="4768" y="-297" font-family="Helvetica" font-size="10.00">HotSpotMethod&lt;BuboAgentCompilerMarkers.Marker0()&gt;</text>
</g>
<!-- b17&#45;&gt;b20 -->
<g id="edge27" class="edge">
<title>b17&#45;&gt;b20</title>
<path fill="none" stroke="black" d="M4528.23,-305.03C4559.73,-306.48 4593.51,-308.03 4625.46,-309.5"/>
<polygon fill="black" stroke="black" points="4625.61,-313.01 4635.76,-309.97 4625.93,-306.01 4625.61,-313.01"/>
</g>
<!-- b18&#45;&gt;b20 -->
<g id="edge28" class="edge">
<title>b18&#45;&gt;b20</title>
<path fill="none" stroke="black" d="M4465.29,-201.03C4528.58,-225.14 4622.67,-261 4688.91,-286.24"/>
<polygon fill="black" stroke="black" points="4687.89,-289.6 4698.48,-289.89 4690.38,-283.06 4687.89,-289.6"/>
</g>
<!-- b25 -->
<g id="node26" class="node">
<title>b25</title>
<polygon fill="white" stroke="black" points="4853,-201 4683,-201 4683,-149 4853,-149 4853,-201"/>
<text text-anchor="middle" x="4768" y="-189" font-family="Helvetica" font-size="10.00">B25</text>
<text text-anchor="middle" x="4768" y="-178" font-family="Helvetica" font-size="10.00">Loop: &lt;none&gt;</text>
<text text-anchor="middle" x="4768" y="-167" font-family="Helvetica" font-size="10.00">&#45;&#45;&#45;</text>
<text text-anchor="middle" x="4768" y="-156" font-family="Helvetica" font-size="10.00">HotSpotMethod&lt;Integer.intValue()&gt;</text>
</g>
<!-- b18&#45;&gt;b25 -->
<g id="edge29" class="edge">
<title>b18&#45;&gt;b25</title>
<path fill="none" stroke="black" d="M4528.23,-175C4575.94,-175 4628.88,-175 4672.76,-175"/>
<polygon fill="black" stroke="black" points="4672.85,-178.5 4682.85,-175 4672.85,-171.5 4672.85,-178.5"/>
</g>
<!-- b19 -->
<g id="node20" class="node">
<title>b19</title>
<polygon fill="lightblue" stroke="black" points="4505,-449 4287,-449 4287,-397 4505,-397 4505,-449"/>
<text text-anchor="middle" x="4396" y="-437" font-family="Helvetica" font-size="10.00">B19</text>
<text text-anchor="middle" x="4396" y="-426" font-family="Helvetica" font-size="10.00">Loop: L0</text>
<text text-anchor="middle" x="4396" y="-415" font-family="Helvetica" font-size="10.00">&#45;&#45;&#45;</text>
<text text-anchor="middle" x="4396" y="-404" font-family="Helvetica" font-size="10.00">HotSpotMethod&lt;Bounce.verifyResult(Object)&gt;</text>
</g>
<!-- b19&#45;&gt;b20 -->
<g id="edge30" class="edge">
<title>b19&#45;&gt;b20</title>
<path fill="none" stroke="black" d="M4487.04,-396.96C4541.42,-381.23 4610.83,-361.16 4666.92,-344.94"/>
<polygon fill="black" stroke="black" points="4668.24,-348.2 4676.88,-342.06 4666.3,-341.48 4668.24,-348.2"/>
</g>
<!-- b21 -->
<g id="node22" class="node">
<title>b21</title>
<polygon fill="lightblue" stroke="black" points="5272,-528 5008,-528 5008,-476 5272,-476 5272,-528"/>
<text text-anchor="middle" x="5140" y="-516" font-family="Helvetica" font-size="10.00">B21</text>
<text text-anchor="middle" x="5140" y="-505" font-family="Helvetica" font-size="10.00">Loop: L0</text>
<text text-anchor="middle" x="5140" y="-494" font-family="Helvetica" font-size="10.00">&#45;&#45;&#45;</text>
<text text-anchor="middle" x="5140" y="-483" font-family="Helvetica" font-size="10.00">HotSpotMethod&lt;BuboAgentCompilerMarkers.Marker0()&gt;</text>
</g>
<!-- b20&#45;&gt;b21 -->
<g id="edge31" class="edge">
<title>b20&#45;&gt;b21</title>
<path fill="none" stroke="black" d="M4820.84,-342.06C4888.45,-376.05 5006.54,-435.41 5078.27,-471.47"/>
<polygon fill="black" stroke="black" points="5076.71,-474.6 5087.22,-475.97 5079.85,-468.35 5076.71,-474.6"/>
</g>
<!-- b24 -->
<g id="node25" class="node">
<title>b24</title>
<polygon fill="white" stroke="black" points="5270,-347.5 5010,-347.5 5010,-284.5 5270,-284.5 5270,-347.5"/>
<text text-anchor="middle" x="5140" y="-335.5" font-family="Helvetica" font-size="10.00">B24</text>
<text text-anchor="middle" x="5140" y="-324.5" font-family="Helvetica" font-size="10.00">Loop: &lt;none&gt;</text>
<text text-anchor="middle" x="5140" y="-313.5" font-family="Helvetica" font-size="10.00">&#45;&#45;&#45;</text>
<text text-anchor="middle" x="5140" y="-302.5" font-family="Helvetica" font-size="10.00">HotSpotMethod&lt;Benchmark.innerBenchmarkLoop(int)&gt;</text>
<text text-anchor="middle" x="5140" y="-291.5" font-family="Helvetica" font-size="10.00">HotSpotMethod&lt;Integer.intValue()&gt;</text>
</g>
<!-- b20&#45;&gt;b24 -->
<g id="edge32" class="edge">
<title>b20&#45;&gt;b24</title>
<path fill="none" stroke="black" d="M4900.23,-316C4932.53,-316 4967.22,-316 4999.87,-316"/>
<polygon fill="black" stroke="black" points="4999.94,-319.5 5009.94,-316 4999.94,-312.5 4999.94,-319.5"/>
</g>
<!-- b21&#45;&gt;b12 -->
<g id="edge33" class="edge">
<title>b21&#45;&gt;b12</title>
<path fill="none" stroke="black" d="M5007.87,-517.9C4859.77,-534.45 4611.45,-558 4397,-558 3651,-558 3651,-558 3651,-558 3415.73,-558 3145.17,-491.49 3004.78,-451.84"/>
<polygon fill="black" stroke="black" points="3005.47,-448.4 2994.89,-449.03 3003.56,-455.13 3005.47,-448.4"/>
</g>
<!-- b22&#45;&gt;b23 -->
<g id="edge34" class="edge">
<title>b22&#45;&gt;b23</title>
<path fill="none" stroke="black" d="M3351.47,-271.91C3414.12,-248.71 3505.66,-214.82 3571.03,-190.61"/>
<polygon fill="black" stroke="black" points="3572.32,-193.86 3580.48,-187.11 3569.89,-187.3 3572.32,-193.86"/>
</g>
<!-- b26 -->
<g id="node27" class="node">
<title>b26</title>
<polygon fill="white" stroke="black" points="5550,-271 5380,-271 5380,-219 5550,-219 5550,-271"/>
<text text-anchor="middle" x="5465" y="-259" font-family="Helvetica" font-size="10.00">B26</text>
<text text-anchor="middle" x="5465" y="-248" font-family="Helvetica" font-size="10.00">Loop: &lt;none&gt;</text>
<text text-anchor="middle" x="5465" y="-237" font-family="Helvetica" font-size="10.00">&#45;&#45;&#45;</text>
<text text-anchor="middle" x="5465" y="-226" font-family="Helvetica" font-size="10.00">HotSpotMethod&lt;Integer.intValue()&gt;</text>
</g>
<!-- b24&#45;&gt;b26 -->
<g id="edge35" class="edge">
<title>b24&#45;&gt;b26</title>
<path fill="none" stroke="black" d="M5270.05,-287.63C5303.35,-280.31 5338.56,-272.57 5369.72,-265.72"/>
<polygon fill="black" stroke="black" points="5370.67,-269.1 5379.68,-263.53 5369.17,-262.26 5370.67,-269.1"/>
</g>
<!-- b25&#45;&gt;b26 -->
<g id="edge36" class="edge">
<title>b25&#45;&gt;b26</title>
<path fill="none" stroke="black" d="M4853.18,-183.48C4983.63,-196.62 5233.75,-221.81 5369.96,-235.53"/>
<polygon fill="black" stroke="black" points="5369.67,-239.02 5379.97,-236.54 5370.37,-232.05 5369.67,-239.02"/>
</g>
<!-- b29 -->
<g id="node30" class="node">
<title>b29</title>
<polygon fill="white" stroke="black" points="2993,-647 2823,-647 2823,-595 2993,-595 2993,-647"/>
<text text-anchor="middle" x="2908" y="-635" font-family="Helvetica" font-size="10.00">B29</text>
<text text-anchor="middle" x="2908" y="-624" font-family="Helvetica" font-size="10.00">Loop: &lt;none&gt;</text>
<text text-anchor="middle" x="2908" y="-613" font-family="Helvetica" font-size="10.00">&#45;&#45;&#45;</text>
<text text-anchor="middle" x="2908" y="-602" font-family="Helvetica" font-size="10.00">HotSpotMethod&lt;Integer.intValue()&gt;</text>
</g>
<!-- b27&#45;&gt;b29 -->
<g id="edge37" class="edge">
<title>b27&#45;&gt;b29</title>
<path fill="none" stroke="black" d="M2623.43,-569.37C2679.99,-579.67 2754.53,-593.24 2812.99,-603.88"/>
<polygon fill="black" stroke="black" points="2812.5,-607.35 2822.97,-605.7 2813.75,-600.47 2812.5,-607.35"/>
</g>
<!-- b28&#45;&gt;b29 -->
<g id="edge38" class="edge">
<title>b28&#45;&gt;b29</title>
<path fill="none" stroke="black" d="M2276.12,-681C2410.36,-668.23 2672.17,-643.33 2812.61,-629.98"/>
<polygon fill="black" stroke="black" points="2813.3,-633.43 2822.92,-629 2812.64,-626.46 2813.3,-633.43"/>
</g>
</g>
</svg>
