<?xml version="1.0" encoding="UTF-8" standalone="no"?>
<!DOCTYPE svg PUBLIC "-//W3C//DTD SVG 1.1//EN"
 "http://www.w3.org/Graphics/SVG/1.1/DTD/svg11.dtd">
<!-- Generated by graphviz version 2.44.0 (0)
 -->
<!-- Title: CFG_52 Pages: 1 -->
<svg width="8178pt" height="1166pt"
 viewBox="0.00 0.00 8178.00 1166.00" xmlns="http://www.w3.org/2000/svg" xmlns:xlink="http://www.w3.org/1999/xlink">
<g id="graph0" class="graph" transform="scale(1 1) rotate(0) translate(4 1162)">
<title>CFG_52</title>
<polygon fill="white" stroke="transparent" points="-4,4 -4,-1162 8174,-1162 8174,4 -4,4"/>
<text text-anchor="middle" x="365.5" y="-1138" font-family="Times-Roman" font-size="20.00">84&#45;jdk.internal.util.ArraysSupport.unsignedHashCode(int, byte[], int, int)</text>
<!-- b0 -->
<g id="node1" class="node">
<title>b0</title>
<polygon fill="white" stroke="black" points="326,-731 0,-731 0,-679 326,-679 326,-731"/>
<text text-anchor="middle" x="163" y="-719" font-family="Helvetica" font-size="10.00">B0</text>
<text text-anchor="middle" x="163" y="-708" font-family="Helvetica" font-size="10.00">Loop: &lt;none&gt;</text>
<text text-anchor="middle" x="163" y="-697" font-family="Helvetica" font-size="10.00">&#45;&#45;&#45;</text>
<text text-anchor="middle" x="163" y="-686" font-family="Helvetica" font-size="10.00">HotSpotMethod&lt;ArraysSupport.unsignedHashCode(int, byte[], int, int)&gt;</text>
</g>
<!-- b1 -->
<g id="node2" class="node">
<title>b1</title>
<polygon fill="white" stroke="black" points="760,-793 434,-793 434,-741 760,-741 760,-793"/>
<text text-anchor="middle" x="597" y="-781" font-family="Helvetica" font-size="10.00">B1</text>
<text text-anchor="middle" x="597" y="-770" font-family="Helvetica" font-size="10.00">Loop: &lt;none&gt;</text>
<text text-anchor="middle" x="597" y="-759" font-family="Helvetica" font-size="10.00">&#45;&#45;&#45;</text>
<text text-anchor="middle" x="597" y="-748" font-family="Helvetica" font-size="10.00">HotSpotMethod&lt;ArraysSupport.unsignedHashCode(int, byte[], int, int)&gt;</text>
</g>
<!-- b0&#45;&gt;b1 -->
<g id="edge1" class="edge">
<title>b0&#45;&gt;b1</title>
<path fill="none" stroke="black" d="M326.09,-728.26C357.98,-732.84 391.56,-737.66 423.77,-742.28"/>
<polygon fill="black" stroke="black" points="423.32,-745.75 433.72,-743.71 424.32,-738.82 423.32,-745.75"/>
</g>
<!-- b2 -->
<g id="node3" class="node">
<title>b2</title>
<polygon fill="white" stroke="black" points="760,-669 434,-669 434,-617 760,-617 760,-669"/>
<text text-anchor="middle" x="597" y="-657" font-family="Helvetica" font-size="10.00">B2</text>
<text text-anchor="middle" x="597" y="-646" font-family="Helvetica" font-size="10.00">Loop: &lt;none&gt;</text>
<text text-anchor="middle" x="597" y="-635" font-family="Helvetica" font-size="10.00">&#45;&#45;&#45;</text>
<text text-anchor="middle" x="597" y="-624" font-family="Helvetica" font-size="10.00">HotSpotMethod&lt;ArraysSupport.unsignedHashCode(int, byte[], int, int)&gt;</text>
</g>
<!-- b0&#45;&gt;b2 -->
<g id="edge2" class="edge">
<title>b0&#45;&gt;b2</title>
<path fill="none" stroke="black" d="M326.09,-681.74C357.98,-677.16 391.56,-672.34 423.77,-667.72"/>
<polygon fill="black" stroke="black" points="424.32,-671.18 433.72,-666.29 423.32,-664.25 424.32,-671.18"/>
</g>
<!-- b3 -->
<g id="node4" class="node">
<title>b3</title>
<polygon fill="white" stroke="black" points="1194,-731 868,-731 868,-679 1194,-679 1194,-731"/>
<text text-anchor="middle" x="1031" y="-719" font-family="Helvetica" font-size="10.00">B3</text>
<text text-anchor="middle" x="1031" y="-708" font-family="Helvetica" font-size="10.00">Loop: &lt;none&gt;</text>
<text text-anchor="middle" x="1031" y="-697" font-family="Helvetica" font-size="10.00">&#45;&#45;&#45;</text>
<text text-anchor="middle" x="1031" y="-686" font-family="Helvetica" font-size="10.00">HotSpotMethod&lt;ArraysSupport.unsignedHashCode(int, byte[], int, int)&gt;</text>
</g>
<!-- b1&#45;&gt;b3 -->
<g id="edge3" class="edge">
<title>b1&#45;&gt;b3</title>
<path fill="none" stroke="black" d="M760.09,-743.74C791.98,-739.16 825.56,-734.34 857.77,-729.72"/>
<polygon fill="black" stroke="black" points="858.32,-733.18 867.72,-728.29 857.32,-726.25 858.32,-733.18"/>
</g>
<!-- b2&#45;&gt;b3 -->
<g id="edge4" class="edge">
<title>b2&#45;&gt;b3</title>
<path fill="none" stroke="black" d="M760.09,-666.26C791.98,-670.84 825.56,-675.66 857.77,-680.28"/>
<polygon fill="black" stroke="black" points="857.32,-683.75 867.72,-681.71 858.32,-676.82 857.32,-683.75"/>
</g>
<!-- b5 -->
<g id="node6" class="node">
<title>b5</title>
<polygon fill="white" stroke="black" points="1628,-540 1302,-540 1302,-488 1628,-488 1628,-540"/>
<text text-anchor="middle" x="1465" y="-528" font-family="Helvetica" font-size="10.00">B5</text>
<text text-anchor="middle" x="1465" y="-517" font-family="Helvetica" font-size="10.00">Loop: &lt;none&gt;</text>
<text text-anchor="middle" x="1465" y="-506" font-family="Helvetica" font-size="10.00">&#45;&#45;&#45;</text>
<text text-anchor="middle" x="1465" y="-495" font-family="Helvetica" font-size="10.00">HotSpotMethod&lt;ArraysSupport.unsignedHashCode(int, byte[], int, int)&gt;</text>
</g>
<!-- b3&#45;&gt;b5 -->
<g id="edge6" class="edge">
<title>b3&#45;&gt;b5</title>
<path fill="none" stroke="black" d="M1083.45,-678.9C1137.36,-651.91 1224.79,-609.16 1302,-576 1328,-564.83 1356.74,-553.51 1382.7,-543.65"/>
<polygon fill="black" stroke="black" points="1384.01,-546.9 1392.13,-540.09 1381.54,-540.35 1384.01,-546.9"/>
</g>
<!-- b7 -->
<g id="node8" class="node">
<title>b7</title>
<polygon fill="white" stroke="black" points="2062,-788 1736,-788 1736,-736 2062,-736 2062,-788"/>
<text text-anchor="middle" x="1899" y="-776" font-family="Helvetica" font-size="10.00">B7</text>
<text text-anchor="middle" x="1899" y="-765" font-family="Helvetica" font-size="10.00">Loop: &lt;none&gt;</text>
<text text-anchor="middle" x="1899" y="-754" font-family="Helvetica" font-size="10.00">&#45;&#45;&#45;</text>
<text text-anchor="middle" x="1899" y="-743" font-family="Helvetica" font-size="10.00">HotSpotMethod&lt;ArraysSupport.unsignedHashCode(int, byte[], int, int)&gt;</text>
</g>
<!-- b3&#45;&gt;b7 -->
<g id="edge5" class="edge">
<title>b3&#45;&gt;b7</title>
<path fill="none" stroke="black" d="M1075.93,-731.23C1127.82,-760.56 1217.79,-806.27 1302,-824 1475.15,-860.47 1681.32,-821.1 1800.19,-790.58"/>
<polygon fill="black" stroke="black" points="1801.21,-793.93 1810.01,-788.03 1799.45,-787.16 1801.21,-793.93"/>
</g>
<!-- b4 -->
<g id="node5" class="node">
<title>b4</title>
<polygon fill="white" stroke="black" points="1628,-788 1302,-788 1302,-736 1628,-736 1628,-788"/>
<text text-anchor="middle" x="1465" y="-776" font-family="Helvetica" font-size="10.00">B4</text>
<text text-anchor="middle" x="1465" y="-765" font-family="Helvetica" font-size="10.00">Loop: &lt;none&gt;</text>
<text text-anchor="middle" x="1465" y="-754" font-family="Helvetica" font-size="10.00">&#45;&#45;&#45;</text>
<text text-anchor="middle" x="1465" y="-743" font-family="Helvetica" font-size="10.00">HotSpotMethod&lt;ArraysSupport.unsignedHashCode(int, byte[], int, int)&gt;</text>
</g>
<!-- b4&#45;&gt;b7 -->
<g id="edge7" class="edge">
<title>b4&#45;&gt;b7</title>
<path fill="none" stroke="black" d="M1628.09,-762C1659.85,-762 1693.27,-762 1725.35,-762"/>
<polygon fill="black" stroke="black" points="1725.72,-765.5 1735.72,-762 1725.72,-758.5 1725.72,-765.5"/>
</g>
<!-- b5&#45;&gt;b7 -->
<g id="edge8" class="edge">
<title>b5&#45;&gt;b7</title>
<path fill="none" stroke="black" d="M1545.52,-540.15C1572.33,-550.08 1602.02,-562.33 1628,-576 1714.37,-621.45 1806.16,-689.45 1857.37,-729.41"/>
<polygon fill="black" stroke="black" points="1855.5,-732.4 1865.53,-735.81 1859.82,-726.89 1855.5,-732.4"/>
</g>
<!-- b33 -->
<g id="node34" class="node">
<title>b33</title>
<polygon fill="white" stroke="black" points="3798,-52 3472,-52 3472,0 3798,0 3798,-52"/>
<text text-anchor="middle" x="3635" y="-40" font-family="Helvetica" font-size="10.00">B33</text>
<text text-anchor="middle" x="3635" y="-29" font-family="Helvetica" font-size="10.00">Loop: &lt;none&gt;</text>
<text text-anchor="middle" x="3635" y="-18" font-family="Helvetica" font-size="10.00">&#45;&#45;&#45;</text>
<text text-anchor="middle" x="3635" y="-7" font-family="Helvetica" font-size="10.00">HotSpotMethod&lt;ArraysSupport.unsignedHashCode(int, byte[], int, int)&gt;</text>
</g>
<!-- b5&#45;&gt;b33 -->
<g id="edge9" class="edge">
<title>b5&#45;&gt;b33</title>
<path fill="none" stroke="black" d="M1490.04,-487.76C1585.66,-386.4 1952.33,-26 2332,-26 2332,-26 2332,-26 2768,-26 3008.77,-26 3287.19,-26 3461.94,-26"/>
<polygon fill="black" stroke="black" points="3462,-29.5 3472,-26 3462,-22.5 3462,-29.5"/>
</g>
<!-- b6 -->
<g id="node7" class="node">
<title>b6</title>
<polygon fill="white" stroke="black" points="1628,-664 1302,-664 1302,-612 1628,-612 1628,-664"/>
<text text-anchor="middle" x="1465" y="-652" font-family="Helvetica" font-size="10.00">B6</text>
<text text-anchor="middle" x="1465" y="-641" font-family="Helvetica" font-size="10.00">Loop: &lt;none&gt;</text>
<text text-anchor="middle" x="1465" y="-630" font-family="Helvetica" font-size="10.00">&#45;&#45;&#45;</text>
<text text-anchor="middle" x="1465" y="-619" font-family="Helvetica" font-size="10.00">HotSpotMethod&lt;ArraysSupport.unsignedHashCode(int, byte[], int, int)&gt;</text>
</g>
<!-- b6&#45;&gt;b7 -->
<g id="edge10" class="edge">
<title>b6&#45;&gt;b7</title>
<path fill="none" stroke="black" d="M1556.82,-664.07C1627.29,-684.3 1724.89,-712.31 1797.65,-733.2"/>
<polygon fill="black" stroke="black" points="1796.72,-736.57 1807.3,-735.96 1798.65,-729.84 1796.72,-736.57"/>
</g>
<!-- b8 -->
<g id="node9" class="node">
<title>b8</title>
<polygon fill="white" stroke="black" points="2496,-788 2170,-788 2170,-736 2496,-736 2496,-788"/>
<text text-anchor="middle" x="2333" y="-776" font-family="Helvetica" font-size="10.00">B8</text>
<text text-anchor="middle" x="2333" y="-765" font-family="Helvetica" font-size="10.00">Loop: &lt;none&gt;</text>
<text text-anchor="middle" x="2333" y="-754" font-family="Helvetica" font-size="10.00">&#45;&#45;&#45;</text>
<text text-anchor="middle" x="2333" y="-743" font-family="Helvetica" font-size="10.00">HotSpotMethod&lt;ArraysSupport.unsignedHashCode(int, byte[], int, int)&gt;</text>
</g>
<!-- b7&#45;&gt;b8 -->
<g id="edge11" class="edge">
<title>b7&#45;&gt;b8</title>
<path fill="none" stroke="black" d="M2062.09,-762C2093.85,-762 2127.27,-762 2159.35,-762"/>
<polygon fill="black" stroke="black" points="2159.72,-765.5 2169.72,-762 2159.72,-758.5 2159.72,-765.5"/>
</g>
<!-- b31 -->
<g id="node32" class="node">
<title>b31</title>
<polygon fill="white" stroke="black" points="6418,-1064 6092,-1064 6092,-1012 6418,-1012 6418,-1064"/>
<text text-anchor="middle" x="6255" y="-1052" font-family="Helvetica" font-size="10.00">B31</text>
<text text-anchor="middle" x="6255" y="-1041" font-family="Helvetica" font-size="10.00">Loop: &lt;none&gt;</text>
<text text-anchor="middle" x="6255" y="-1030" font-family="Helvetica" font-size="10.00">&#45;&#45;&#45;</text>
<text text-anchor="middle" x="6255" y="-1019" font-family="Helvetica" font-size="10.00">HotSpotMethod&lt;ArraysSupport.unsignedHashCode(int, byte[], int, int)&gt;</text>
</g>
<!-- b7&#45;&gt;b31 -->
<g id="edge12" class="edge">
<title>b7&#45;&gt;b31</title>
<path fill="none" stroke="black" d="M1933.68,-788.03C2045.37,-871.64 2416.29,-1128 2766,-1128 2766,-1128 2766,-1128 5380,-1128 5626.9,-1128 5910.97,-1092.02 6086.51,-1065.56"/>
<polygon fill="black" stroke="black" points="6087.25,-1068.99 6096.61,-1064.03 6086.2,-1062.07 6087.25,-1068.99"/>
</g>
<!-- b9 -->
<g id="node10" class="node">
<title>b9</title>
<polygon fill="white" stroke="black" points="2930,-676.5 2604,-676.5 2604,-613.5 2930,-613.5 2930,-676.5"/>
<text text-anchor="middle" x="2767" y="-664.5" font-family="Helvetica" font-size="10.00">B9</text>
<text text-anchor="middle" x="2767" y="-653.5" font-family="Helvetica" font-size="10.00">Loop: &lt;none&gt;</text>
<text text-anchor="middle" x="2767" y="-642.5" font-family="Helvetica" font-size="10.00">&#45;&#45;&#45;</text>
<text text-anchor="middle" x="2767" y="-631.5" font-family="Helvetica" font-size="10.00">HotSpotMethod&lt;ArraysSupport.unsignedHashCode(int, byte[], int, int)&gt;</text>
<text text-anchor="middle" x="2767" y="-620.5" font-family="Helvetica" font-size="10.00">HotSpotMethod&lt;Byte.toUnsignedInt(byte)&gt;</text>
</g>
<!-- b8&#45;&gt;b9 -->
<g id="edge13" class="edge">
<title>b8&#45;&gt;b9</title>
<path fill="none" stroke="black" d="M2430.14,-735.96C2491.87,-719.24 2572.72,-697.35 2639.62,-679.23"/>
<polygon fill="black" stroke="black" points="2640.64,-682.58 2649.38,-676.58 2638.81,-675.82 2640.64,-682.58"/>
</g>
<!-- b30 -->
<g id="node31" class="node">
<title>b30</title>
<polygon fill="white" stroke="black" points="2930,-905 2604,-905 2604,-853 2930,-853 2930,-905"/>
<text text-anchor="middle" x="2767" y="-893" font-family="Helvetica" font-size="10.00">B30</text>
<text text-anchor="middle" x="2767" y="-882" font-family="Helvetica" font-size="10.00">Loop: &lt;none&gt;</text>
<text text-anchor="middle" x="2767" y="-871" font-family="Helvetica" font-size="10.00">&#45;&#45;&#45;</text>
<text text-anchor="middle" x="2767" y="-860" font-family="Helvetica" font-size="10.00">HotSpotMethod&lt;ArraysSupport.unsignedHashCode(int, byte[], int, int)&gt;</text>
</g>
<!-- b8&#45;&gt;b30 -->
<g id="edge14" class="edge">
<title>b8&#45;&gt;b30</title>
<path fill="none" stroke="black" d="M2430.14,-788.04C2498.29,-806.5 2589.73,-831.26 2660,-850.29"/>
<polygon fill="black" stroke="black" points="2659.2,-853.7 2669.77,-852.94 2661.03,-846.94 2659.2,-853.7"/>
</g>
<!-- b10 -->
<g id="node11" class="node">
<title>b10</title>
<polygon fill="white" stroke="black" points="3364,-671 3038,-671 3038,-619 3364,-619 3364,-671"/>
<text text-anchor="middle" x="3201" y="-659" font-family="Helvetica" font-size="10.00">B10</text>
<text text-anchor="middle" x="3201" y="-648" font-family="Helvetica" font-size="10.00">Loop: &lt;none&gt;</text>
<text text-anchor="middle" x="3201" y="-637" font-family="Helvetica" font-size="10.00">&#45;&#45;&#45;</text>
<text text-anchor="middle" x="3201" y="-626" font-family="Helvetica" font-size="10.00">HotSpotMethod&lt;ArraysSupport.unsignedHashCode(int, byte[], int, int)&gt;</text>
</g>
<!-- b9&#45;&gt;b10 -->
<g id="edge15" class="edge">
<title>b9&#45;&gt;b10</title>
<path fill="none" stroke="black" d="M2930.09,-645C2961.85,-645 2995.27,-645 3027.35,-645"/>
<polygon fill="black" stroke="black" points="3027.72,-648.5 3037.72,-645 3027.72,-641.5 3027.72,-648.5"/>
</g>
<!-- b29 -->
<g id="node30" class="node">
<title>b29</title>
<polygon fill="white" stroke="black" points="7294,-198 6968,-198 6968,-146 7294,-146 7294,-198"/>
<text text-anchor="middle" x="7131" y="-186" font-family="Helvetica" font-size="10.00">B29</text>
<text text-anchor="middle" x="7131" y="-175" font-family="Helvetica" font-size="10.00">Loop: &lt;none&gt;</text>
<text text-anchor="middle" x="7131" y="-164" font-family="Helvetica" font-size="10.00">&#45;&#45;&#45;</text>
<text text-anchor="middle" x="7131" y="-153" font-family="Helvetica" font-size="10.00">HotSpotMethod&lt;ArraysSupport.unsignedHashCode(int, byte[], int, int)&gt;</text>
</g>
<!-- b9&#45;&gt;b29 -->
<g id="edge16" class="edge">
<title>b9&#45;&gt;b29</title>
<path fill="none" stroke="black" d="M2798.45,-613.23C2903.52,-507.18 3264.82,-172 3634,-172 3634,-172 3634,-172 6256,-172 6499.55,-172 6781.28,-172 6957.56,-172"/>
<polygon fill="black" stroke="black" points="6957.71,-175.5 6967.71,-172 6957.71,-168.5 6957.71,-175.5"/>
</g>
<!-- b11 -->
<g id="node12" class="node">
<title>b11</title>
<polygon fill="white" stroke="black" points="3798,-479 3472,-479 3472,-427 3798,-427 3798,-479"/>
<text text-anchor="middle" x="3635" y="-467" font-family="Helvetica" font-size="10.00">B11</text>
<text text-anchor="middle" x="3635" y="-456" font-family="Helvetica" font-size="10.00">Loop: &lt;none&gt;</text>
<text text-anchor="middle" x="3635" y="-445" font-family="Helvetica" font-size="10.00">&#45;&#45;&#45;</text>
<text text-anchor="middle" x="3635" y="-434" font-family="Helvetica" font-size="10.00">HotSpotMethod&lt;ArraysSupport.unsignedHashCode(int, byte[], int, int)&gt;</text>
</g>
<!-- b10&#45;&gt;b11 -->
<g id="edge17" class="edge">
<title>b10&#45;&gt;b11</title>
<path fill="none" stroke="black" d="M3260.71,-618.91C3340.32,-583.53 3482.17,-520.48 3566.22,-483.13"/>
<polygon fill="black" stroke="black" points="3567.7,-486.3 3575.42,-479.04 3564.86,-479.9 3567.7,-486.3"/>
</g>
<!-- b17 -->
<g id="node18" class="node">
<title>b17</title>
<polygon fill="white" stroke="black" points="4666,-674 4340,-674 4340,-622 4666,-622 4666,-674"/>
<text text-anchor="middle" x="4503" y="-662" font-family="Helvetica" font-size="10.00">B17</text>
<text text-anchor="middle" x="4503" y="-651" font-family="Helvetica" font-size="10.00">Loop: &lt;none&gt;</text>
<text text-anchor="middle" x="4503" y="-640" font-family="Helvetica" font-size="10.00">&#45;&#45;&#45;</text>
<text text-anchor="middle" x="4503" y="-629" font-family="Helvetica" font-size="10.00">HotSpotMethod&lt;ArraysSupport.unsignedHashCode(int, byte[], int, int)&gt;</text>
</g>
<!-- b10&#45;&gt;b17 -->
<g id="edge18" class="edge">
<title>b10&#45;&gt;b17</title>
<path fill="none" stroke="black" d="M3281.89,-671.1C3456.02,-724.29 3882.16,-834.4 4232,-763 4310.57,-746.96 4394.59,-707.18 4447.66,-678.9"/>
<polygon fill="black" stroke="black" points="4449.4,-681.94 4456.55,-674.12 4446.08,-675.78 4449.4,-681.94"/>
</g>
<!-- b12 -->
<g id="node13" class="node">
<title>b12</title>
<polygon fill="white" stroke="black" points="4232,-479 3906,-479 3906,-427 4232,-427 4232,-479"/>
<text text-anchor="middle" x="4069" y="-467" font-family="Helvetica" font-size="10.00">B12</text>
<text text-anchor="middle" x="4069" y="-456" font-family="Helvetica" font-size="10.00">Loop: &lt;none&gt;</text>
<text text-anchor="middle" x="4069" y="-445" font-family="Helvetica" font-size="10.00">&#45;&#45;&#45;</text>
<text text-anchor="middle" x="4069" y="-434" font-family="Helvetica" font-size="10.00">HotSpotMethod&lt;ArraysSupport.unsignedHashCode(int, byte[], int, int)&gt;</text>
</g>
<!-- b11&#45;&gt;b12 -->
<g id="edge19" class="edge">
<title>b11&#45;&gt;b12</title>
<path fill="none" stroke="black" d="M3798.09,-453C3829.85,-453 3863.27,-453 3895.35,-453"/>
<polygon fill="black" stroke="black" points="3895.72,-456.5 3905.72,-453 3895.72,-449.5 3895.72,-456.5"/>
</g>
<!-- b15 -->
<g id="node16" class="node">
<title>b15</title>
<polygon fill="white" stroke="black" points="4666,-344 4340,-344 4340,-292 4666,-292 4666,-344"/>
<text text-anchor="middle" x="4503" y="-332" font-family="Helvetica" font-size="10.00">B15</text>
<text text-anchor="middle" x="4503" y="-321" font-family="Helvetica" font-size="10.00">Loop: &lt;none&gt;</text>
<text text-anchor="middle" x="4503" y="-310" font-family="Helvetica" font-size="10.00">&#45;&#45;&#45;</text>
<text text-anchor="middle" x="4503" y="-299" font-family="Helvetica" font-size="10.00">HotSpotMethod&lt;ArraysSupport.unsignedHashCode(int, byte[], int, int)&gt;</text>
</g>
<!-- b11&#45;&gt;b15 -->
<g id="edge20" class="edge">
<title>b11&#45;&gt;b15</title>
<path fill="none" stroke="black" d="M3738.06,-426.93C3788.37,-414.75 3850.1,-400.81 3906,-391 4047.94,-366.08 4210.37,-346.79 4329.78,-334.31"/>
<polygon fill="black" stroke="black" points="4330.17,-337.79 4339.75,-333.27 4329.44,-330.83 4330.17,-337.79"/>
</g>
<!-- b14 -->
<g id="node15" class="node">
<title>b14</title>
<polygon fill="white" stroke="black" points="5104,-479 4778,-479 4778,-427 5104,-427 5104,-479"/>
<text text-anchor="middle" x="4941" y="-467" font-family="Helvetica" font-size="10.00">B14</text>
<text text-anchor="middle" x="4941" y="-456" font-family="Helvetica" font-size="10.00">Loop: &lt;none&gt;</text>
<text text-anchor="middle" x="4941" y="-445" font-family="Helvetica" font-size="10.00">&#45;&#45;&#45;</text>
<text text-anchor="middle" x="4941" y="-434" font-family="Helvetica" font-size="10.00">HotSpotMethod&lt;ArraysSupport.unsignedHashCode(int, byte[], int, int)&gt;</text>
</g>
<!-- b12&#45;&gt;b14 -->
<g id="edge22" class="edge">
<title>b12&#45;&gt;b14</title>
<path fill="none" stroke="black" d="M4232.11,-453C4384.6,-453 4612.15,-453 4767.83,-453"/>
<polygon fill="black" stroke="black" points="4767.98,-456.5 4777.98,-453 4767.98,-449.5 4767.98,-456.5"/>
</g>
<!-- b12&#45;&gt;b17 -->
<g id="edge21" class="edge">
<title>b12&#45;&gt;b17</title>
<path fill="none" stroke="black" d="M4142.35,-479.06C4170.56,-489.65 4203.02,-502.35 4232,-515 4306.02,-547.31 4389.08,-589.09 4443.28,-617.12"/>
<polygon fill="black" stroke="black" points="4441.9,-620.35 4452.39,-621.84 4445.12,-614.13 4441.9,-620.35"/>
</g>
<!-- b13 -->
<g id="node14" class="node">
<title>b13</title>
<polygon fill="white" stroke="black" points="4232,-603 3906,-603 3906,-551 4232,-551 4232,-603"/>
<text text-anchor="middle" x="4069" y="-591" font-family="Helvetica" font-size="10.00">B13</text>
<text text-anchor="middle" x="4069" y="-580" font-family="Helvetica" font-size="10.00">Loop: &lt;none&gt;</text>
<text text-anchor="middle" x="4069" y="-569" font-family="Helvetica" font-size="10.00">&#45;&#45;&#45;</text>
<text text-anchor="middle" x="4069" y="-558" font-family="Helvetica" font-size="10.00">HotSpotMethod&lt;ArraysSupport.unsignedHashCode(int, byte[], int, int)&gt;</text>
</g>
<!-- b13&#45;&gt;b17 -->
<g id="edge23" class="edge">
<title>b13&#45;&gt;b17</title>
<path fill="none" stroke="black" d="M4228.41,-603.03C4262.6,-608.65 4298.87,-614.61 4333.43,-620.3"/>
<polygon fill="black" stroke="black" points="4333.18,-623.8 4343.61,-621.97 4334.31,-616.89 4333.18,-623.8"/>
</g>
<!-- b34 -->
<g id="node35" class="node">
<title>b34</title>
<polygon fill="white" stroke="black" points="5542,-479 5216,-479 5216,-427 5542,-427 5542,-479"/>
<text text-anchor="middle" x="5379" y="-467" font-family="Helvetica" font-size="10.00">B34</text>
<text text-anchor="middle" x="5379" y="-456" font-family="Helvetica" font-size="10.00">Loop: &lt;none&gt;</text>
<text text-anchor="middle" x="5379" y="-445" font-family="Helvetica" font-size="10.00">&#45;&#45;&#45;</text>
<text text-anchor="middle" x="5379" y="-434" font-family="Helvetica" font-size="10.00">HotSpotMethod&lt;ArraysSupport.unsignedHashCode(int, byte[], int, int)&gt;</text>
</g>
<!-- b14&#45;&gt;b34 -->
<g id="edge24" class="edge">
<title>b14&#45;&gt;b34</title>
<path fill="none" stroke="black" d="M5104.04,-453C5137.08,-453 5171.96,-453 5205.35,-453"/>
<polygon fill="black" stroke="black" points="5205.66,-456.5 5215.66,-453 5205.66,-449.5 5205.66,-456.5"/>
</g>
<!-- b15&#45;&gt;b34 -->
<g id="edge25" class="edge">
<title>b15&#45;&gt;b34</title>
<path fill="none" stroke="black" d="M4666.19,-332.92C4788.18,-345.27 4959.21,-365 5108,-391 5160.41,-400.16 5217.95,-412.98 5266.39,-424.59"/>
<polygon fill="black" stroke="black" points="5265.73,-428.03 5276.27,-426.97 5267.37,-421.22 5265.73,-428.03"/>
</g>
<!-- b16 -->
<g id="node17" class="node">
<title>b16</title>
<polygon fill="white" stroke="black" points="4232,-727 3906,-727 3906,-675 4232,-675 4232,-727"/>
<text text-anchor="middle" x="4069" y="-715" font-family="Helvetica" font-size="10.00">B16</text>
<text text-anchor="middle" x="4069" y="-704" font-family="Helvetica" font-size="10.00">Loop: &lt;none&gt;</text>
<text text-anchor="middle" x="4069" y="-693" font-family="Helvetica" font-size="10.00">&#45;&#45;&#45;</text>
<text text-anchor="middle" x="4069" y="-682" font-family="Helvetica" font-size="10.00">HotSpotMethod&lt;ArraysSupport.unsignedHashCode(int, byte[], int, int)&gt;</text>
</g>
<!-- b16&#45;&gt;b17 -->
<g id="edge26" class="edge">
<title>b16&#45;&gt;b17</title>
<path fill="none" stroke="black" d="M4232.09,-681.11C4263.98,-677.2 4297.56,-673.08 4329.77,-669.13"/>
<polygon fill="black" stroke="black" points="4330.22,-672.6 4339.72,-667.91 4329.37,-665.65 4330.22,-672.6"/>
</g>
<!-- b18 -->
<g id="node19" class="node">
<title>b18</title>
<polygon fill="white" stroke="black" stroke-width="4" points="5104,-789.5 4778,-789.5 4778,-704.5 5104,-704.5 5104,-789.5"/>
<polygon fill="none" stroke="black" stroke-width="4" points="5108,-793.5 4774,-793.5 4774,-700.5 5108,-700.5 5108,-793.5"/>
<text text-anchor="middle" x="4941" y="-777.5" font-family="Helvetica" font-size="10.00">B18</text>
<text text-anchor="middle" x="4941" y="-766.5" font-family="Helvetica" font-size="10.00">Loop: &lt;none&gt;</text>
<text text-anchor="middle" x="4941" y="-755.5" font-family="Helvetica" font-size="10.00">&#45;&#45;&#45;</text>
<text text-anchor="middle" x="4941" y="-744.5" font-family="Helvetica" font-size="10.00">HotSpotMethod&lt;ArraysSupport.unsignedHashCode(int, byte[], int, int)&gt;</text>
<text text-anchor="middle" x="4941" y="-733.5" font-family="Helvetica" font-size="10.00">&#45;&#45;&#45;</text>
<text text-anchor="middle" x="4941" y="-722.5" font-family="Helvetica" font-size="10.00">BuboLoopMakers:</text>
<text text-anchor="middle" x="4941" y="-711.5" font-family="Helvetica" font-size="10.00"> &#160;AMD64BuboRDTSCToSlot (LoopID=0)</text>
</g>
<!-- b17&#45;&gt;b18 -->
<g id="edge27" class="edge">
<title>b17&#45;&gt;b18</title>
<path fill="none" stroke="black" d="M4618.55,-674.01C4663.02,-684.11 4714.97,-695.9 4763.97,-707.03"/>
<polygon fill="black" stroke="black" points="4763.2,-710.44 4773.73,-709.25 4764.75,-703.62 4763.2,-710.44"/>
</g>
<!-- b28 -->
<g id="node29" class="node">
<title>b28</title>
<polygon fill="white" stroke="black" points="5104,-620 4778,-620 4778,-568 5104,-568 5104,-620"/>
<text text-anchor="middle" x="4941" y="-608" font-family="Helvetica" font-size="10.00">B28</text>
<text text-anchor="middle" x="4941" y="-597" font-family="Helvetica" font-size="10.00">Loop: &lt;none&gt;</text>
<text text-anchor="middle" x="4941" y="-586" font-family="Helvetica" font-size="10.00">&#45;&#45;&#45;</text>
<text text-anchor="middle" x="4941" y="-575" font-family="Helvetica" font-size="10.00">HotSpotMethod&lt;ArraysSupport.unsignedHashCode(int, byte[], int, int)&gt;</text>
</g>
<!-- b17&#45;&gt;b28 -->
<g id="edge28" class="edge">
<title>b17&#45;&gt;b28</title>
<path fill="none" stroke="black" d="M4666.04,-627.93C4699.08,-623.84 4733.96,-619.52 4767.35,-615.38"/>
<polygon fill="black" stroke="black" points="4768.16,-618.81 4777.66,-614.11 4767.3,-611.86 4768.16,-618.81"/>
</g>
<!-- b19 -->
<g id="node20" class="node">
<title>b19</title>
<polygon fill="lightblue" stroke="black" points="5542,-775 5216,-775 5216,-723 5542,-723 5542,-775"/>
<text text-anchor="middle" x="5379" y="-763" font-family="Helvetica" font-size="10.00">B19</text>
<text text-anchor="middle" x="5379" y="-752" font-family="Helvetica" font-size="10.00">Loop: L0</text>
<text text-anchor="middle" x="5379" y="-741" font-family="Helvetica" font-size="10.00">&#45;&#45;&#45;</text>
<text text-anchor="middle" x="5379" y="-730" font-family="Helvetica" font-size="10.00">HotSpotMethod&lt;ArraysSupport.unsignedHashCode(int, byte[], int, int)&gt;</text>
</g>
<!-- b18&#45;&gt;b19 -->
<g id="edge29" class="edge">
<title>b18&#45;&gt;b19</title>
<path fill="none" stroke="black" d="M5108.08,-747.76C5140,-747.91 5173.5,-748.06 5205.61,-748.21"/>
<polygon fill="black" stroke="black" points="5205.97,-751.71 5215.99,-748.26 5206,-744.71 5205.97,-751.71"/>
</g>
<!-- b20 -->
<g id="node21" class="node">
<title>b20</title>
<polygon fill="lightblue" stroke="black" points="5980,-781.5 5654,-781.5 5654,-718.5 5980,-718.5 5980,-781.5"/>
<text text-anchor="middle" x="5817" y="-769.5" font-family="Helvetica" font-size="10.00">B20</text>
<text text-anchor="middle" x="5817" y="-758.5" font-family="Helvetica" font-size="10.00">Loop: L0</text>
<text text-anchor="middle" x="5817" y="-747.5" font-family="Helvetica" font-size="10.00">&#45;&#45;&#45;</text>
<text text-anchor="middle" x="5817" y="-736.5" font-family="Helvetica" font-size="10.00">HotSpotMethod&lt;ArraysSupport.unsignedHashCode(int, byte[], int, int)&gt;</text>
<text text-anchor="middle" x="5817" y="-725.5" font-family="Helvetica" font-size="10.00">HotSpotMethod&lt;Byte.toUnsignedInt(byte)&gt;</text>
</g>
<!-- b19&#45;&gt;b20 -->
<g id="edge30" class="edge">
<title>b19&#45;&gt;b20</title>
<path fill="none" stroke="black" d="M5542.04,-723.18C5575.08,-722.28 5609.96,-722.27 5643.35,-723.13"/>
<polygon fill="black" stroke="black" points="5643.56,-726.64 5653.66,-723.43 5643.76,-719.64 5643.56,-726.64"/>
</g>
<!-- b21 -->
<g id="node22" class="node">
<title>b21</title>
<polygon fill="white" stroke="black" stroke-width="4" points="5980,-642 5654,-642 5654,-546 5980,-546 5980,-642"/>
<polygon fill="none" stroke="black" stroke-width="4" points="5984,-646 5650,-646 5650,-542 5984,-542 5984,-646"/>
<text text-anchor="middle" x="5817" y="-630" font-family="Helvetica" font-size="10.00">B21</text>
<text text-anchor="middle" x="5817" y="-619" font-family="Helvetica" font-size="10.00">Loop: &lt;none&gt;</text>
<text text-anchor="middle" x="5817" y="-608" font-family="Helvetica" font-size="10.00">&#45;&#45;&#45;</text>
<text text-anchor="middle" x="5817" y="-597" font-family="Helvetica" font-size="10.00">HotSpotMethod&lt;ArraysSupport.unsignedHashCode(int, byte[], int, int)&gt;</text>
<text text-anchor="middle" x="5817" y="-586" font-family="Helvetica" font-size="10.00">&#45;&#45;&#45;</text>
<text text-anchor="middle" x="5817" y="-575" font-family="Helvetica" font-size="10.00">BuboLoopMakers:</text>
<text text-anchor="middle" x="5817" y="-564" font-family="Helvetica" font-size="10.00"> &#160;AMD64BuboWriteDeltaRDTSC</text>
<text text-anchor="middle" x="5817" y="-553" font-family="Helvetica" font-size="10.00"> &#160;AMD64BuboRDTSCToSlot (LoopID=1)</text>
</g>
<!-- b19&#45;&gt;b21 -->
<g id="edge31" class="edge">
<title>b19&#45;&gt;b21</title>
<path fill="none" stroke="black" d="M5453.47,-722.88C5509.68,-702.9 5589.22,-674.62 5659.48,-649.64"/>
<polygon fill="black" stroke="black" points="5661.08,-652.79 5669.33,-646.14 5658.73,-646.2 5661.08,-652.79"/>
</g>
<!-- b20&#45;&gt;b19 -->
<g id="edge32" class="edge">
<title>b20&#45;&gt;b19</title>
<path fill="none" stroke="black" d="M5653.7,-775.83C5615.47,-776.86 5574.79,-776.71 5536.81,-775.39"/>
<polygon fill="black" stroke="black" points="5536.82,-771.89 5526.7,-775.01 5536.56,-778.88 5536.82,-771.89"/>
</g>
<!-- b22 -->
<g id="node23" class="node">
<title>b22</title>
<polygon fill="lightgreen" stroke="black" points="6418,-621 6092,-621 6092,-569 6418,-569 6418,-621"/>
<text text-anchor="middle" x="6255" y="-609" font-family="Helvetica" font-size="10.00">B22</text>
<text text-anchor="middle" x="6255" y="-598" font-family="Helvetica" font-size="10.00">Loop: L1</text>
<text text-anchor="middle" x="6255" y="-587" font-family="Helvetica" font-size="10.00">&#45;&#45;&#45;</text>
<text text-anchor="middle" x="6255" y="-576" font-family="Helvetica" font-size="10.00">HotSpotMethod&lt;ArraysSupport.unsignedHashCode(int, byte[], int, int)&gt;</text>
</g>
<!-- b21&#45;&gt;b22 -->
<g id="edge33" class="edge">
<title>b21&#45;&gt;b22</title>
<path fill="none" stroke="black" d="M5984.08,-594.38C6016,-594.45 6049.5,-594.53 6081.61,-594.6"/>
<polygon fill="black" stroke="black" points="6081.98,-598.11 6091.99,-594.63 6081.99,-591.11 6081.98,-598.11"/>
</g>
<!-- b23 -->
<g id="node24" class="node">
<title>b23</title>
<polygon fill="lightgreen" stroke="black" points="6856,-660.5 6530,-660.5 6530,-597.5 6856,-597.5 6856,-660.5"/>
<text text-anchor="middle" x="6693" y="-648.5" font-family="Helvetica" font-size="10.00">B23</text>
<text text-anchor="middle" x="6693" y="-637.5" font-family="Helvetica" font-size="10.00">Loop: L1</text>
<text text-anchor="middle" x="6693" y="-626.5" font-family="Helvetica" font-size="10.00">&#45;&#45;&#45;</text>
<text text-anchor="middle" x="6693" y="-615.5" font-family="Helvetica" font-size="10.00">HotSpotMethod&lt;ArraysSupport.unsignedHashCode(int, byte[], int, int)&gt;</text>
<text text-anchor="middle" x="6693" y="-604.5" font-family="Helvetica" font-size="10.00">HotSpotMethod&lt;Byte.toUnsignedInt(byte)&gt;</text>
</g>
<!-- b22&#45;&gt;b23 -->
<g id="edge34" class="edge">
<title>b22&#45;&gt;b23</title>
<path fill="none" stroke="black" d="M6418.04,-581.44C6471.18,-584.02 6529.08,-589.25 6577.91,-596.04"/>
<polygon fill="black" stroke="black" points="6577.47,-599.51 6587.86,-597.46 6578.46,-592.58 6577.47,-599.51"/>
</g>
<!-- b24 -->
<g id="node25" class="node">
<title>b24</title>
<polygon fill="white" stroke="black" stroke-width="4" points="6856,-521 6530,-521 6530,-425 6856,-425 6856,-521"/>
<polygon fill="none" stroke="black" stroke-width="4" points="6860,-525 6526,-525 6526,-421 6860,-421 6860,-525"/>
<text text-anchor="middle" x="6693" y="-509" font-family="Helvetica" font-size="10.00">B24</text>
<text text-anchor="middle" x="6693" y="-498" font-family="Helvetica" font-size="10.00">Loop: &lt;none&gt;</text>
<text text-anchor="middle" x="6693" y="-487" font-family="Helvetica" font-size="10.00">&#45;&#45;&#45;</text>
<text text-anchor="middle" x="6693" y="-476" font-family="Helvetica" font-size="10.00">HotSpotMethod&lt;ArraysSupport.unsignedHashCode(int, byte[], int, int)&gt;</text>
<text text-anchor="middle" x="6693" y="-465" font-family="Helvetica" font-size="10.00">&#45;&#45;&#45;</text>
<text text-anchor="middle" x="6693" y="-454" font-family="Helvetica" font-size="10.00">BuboLoopMakers:</text>
<text text-anchor="middle" x="6693" y="-443" font-family="Helvetica" font-size="10.00"> &#160;AMD64BuboWriteDeltaRDTSC</text>
<text text-anchor="middle" x="6693" y="-432" font-family="Helvetica" font-size="10.00"> &#160;AMD64BuboRDTSCToSlot (LoopID=2)</text>
</g>
<!-- b22&#45;&gt;b24 -->
<g id="edge35" class="edge">
<title>b22&#45;&gt;b24</title>
<path fill="none" stroke="black" d="M6349,-568.98C6397.58,-555.38 6458.68,-538.29 6515.79,-522.31"/>
<polygon fill="black" stroke="black" points="6516.98,-525.61 6525.66,-519.54 6515.09,-518.87 6516.98,-525.61"/>
</g>
<!-- b23&#45;&gt;b22 -->
<g id="edge36" class="edge">
<title>b23&#45;&gt;b22</title>
<path fill="none" stroke="black" d="M6529.67,-642.54C6463.73,-639.33 6390.51,-632.05 6336.41,-622.77"/>
<polygon fill="black" stroke="black" points="6336.99,-619.32 6326.54,-621.01 6335.77,-626.21 6336.99,-619.32"/>
</g>
<!-- b25 -->
<g id="node26" class="node">
<title>b25</title>
<polygon fill="lightpink" stroke="black" points="7294,-503 6968,-503 6968,-451 7294,-451 7294,-503"/>
<text text-anchor="middle" x="7131" y="-491" font-family="Helvetica" font-size="10.00">B25</text>
<text text-anchor="middle" x="7131" y="-480" font-family="Helvetica" font-size="10.00">Loop: L2</text>
<text text-anchor="middle" x="7131" y="-469" font-family="Helvetica" font-size="10.00">&#45;&#45;&#45;</text>
<text text-anchor="middle" x="7131" y="-458" font-family="Helvetica" font-size="10.00">HotSpotMethod&lt;ArraysSupport.unsignedHashCode(int, byte[], int, int)&gt;</text>
</g>
<!-- b24&#45;&gt;b25 -->
<g id="edge37" class="edge">
<title>b24&#45;&gt;b25</title>
<path fill="none" stroke="black" d="M6860.08,-474.52C6892,-474.82 6925.5,-475.12 6957.61,-475.42"/>
<polygon fill="black" stroke="black" points="6957.95,-478.92 6967.99,-475.51 6958.02,-471.92 6957.95,-478.92"/>
</g>
<!-- b26 -->
<g id="node27" class="node">
<title>b26</title>
<polygon fill="lightpink" stroke="black" points="7732,-509.5 7406,-509.5 7406,-446.5 7732,-446.5 7732,-509.5"/>
<text text-anchor="middle" x="7569" y="-497.5" font-family="Helvetica" font-size="10.00">B26</text>
<text text-anchor="middle" x="7569" y="-486.5" font-family="Helvetica" font-size="10.00">Loop: L2</text>
<text text-anchor="middle" x="7569" y="-475.5" font-family="Helvetica" font-size="10.00">&#45;&#45;&#45;</text>
<text text-anchor="middle" x="7569" y="-464.5" font-family="Helvetica" font-size="10.00">HotSpotMethod&lt;ArraysSupport.unsignedHashCode(int, byte[], int, int)&gt;</text>
<text text-anchor="middle" x="7569" y="-453.5" font-family="Helvetica" font-size="10.00">HotSpotMethod&lt;Byte.toUnsignedInt(byte)&gt;</text>
</g>
<!-- b25&#45;&gt;b26 -->
<g id="edge38" class="edge">
<title>b25&#45;&gt;b26</title>
<path fill="none" stroke="black" d="M7294.04,-451.18C7327.08,-450.28 7361.96,-450.27 7395.35,-451.13"/>
<polygon fill="black" stroke="black" points="7395.56,-454.64 7405.66,-451.43 7395.76,-447.64 7395.56,-454.64"/>
</g>
<!-- b27 -->
<g id="node28" class="node">
<title>b27</title>
<polygon fill="white" stroke="black" stroke-width="4" points="7732,-370.5 7406,-370.5 7406,-285.5 7732,-285.5 7732,-370.5"/>
<polygon fill="none" stroke="black" stroke-width="4" points="7736,-374.5 7402,-374.5 7402,-281.5 7736,-281.5 7736,-374.5"/>
<text text-anchor="middle" x="7569" y="-358.5" font-family="Helvetica" font-size="10.00">B27</text>
<text text-anchor="middle" x="7569" y="-347.5" font-family="Helvetica" font-size="10.00">Loop: &lt;none&gt;</text>
<text text-anchor="middle" x="7569" y="-336.5" font-family="Helvetica" font-size="10.00">&#45;&#45;&#45;</text>
<text text-anchor="middle" x="7569" y="-325.5" font-family="Helvetica" font-size="10.00">HotSpotMethod&lt;ArraysSupport.unsignedHashCode(int, byte[], int, int)&gt;</text>
<text text-anchor="middle" x="7569" y="-314.5" font-family="Helvetica" font-size="10.00">&#45;&#45;&#45;</text>
<text text-anchor="middle" x="7569" y="-303.5" font-family="Helvetica" font-size="10.00">BuboLoopMakers:</text>
<text text-anchor="middle" x="7569" y="-292.5" font-family="Helvetica" font-size="10.00"> &#160;AMD64BuboWriteDeltaRDTSC (LoopID=2)</text>
</g>
<!-- b25&#45;&gt;b27 -->
<g id="edge39" class="edge">
<title>b25&#45;&gt;b27</title>
<path fill="none" stroke="black" d="M7208.19,-450.96C7267.18,-430.8 7350.64,-402.28 7422.33,-377.78"/>
<polygon fill="black" stroke="black" points="7423.58,-381.05 7431.91,-374.51 7421.31,-374.43 7423.58,-381.05"/>
</g>
<!-- b26&#45;&gt;b25 -->
<g id="edge40" class="edge">
<title>b26&#45;&gt;b25</title>
<path fill="none" stroke="black" d="M7405.7,-503.83C7367.47,-504.86 7326.79,-504.71 7288.81,-503.39"/>
<polygon fill="black" stroke="black" points="7288.82,-499.89 7278.7,-503.01 7288.56,-506.88 7288.82,-499.89"/>
</g>
<!-- b32 -->
<g id="node33" class="node">
<title>b32</title>
<polygon fill="white" stroke="black" points="8170,-354 7844,-354 7844,-302 8170,-302 8170,-354"/>
<text text-anchor="middle" x="8007" y="-342" font-family="Helvetica" font-size="10.00">B32</text>
<text text-anchor="middle" x="8007" y="-331" font-family="Helvetica" font-size="10.00">Loop: &lt;none&gt;</text>
<text text-anchor="middle" x="8007" y="-320" font-family="Helvetica" font-size="10.00">&#45;&#45;&#45;</text>
<text text-anchor="middle" x="8007" y="-309" font-family="Helvetica" font-size="10.00">HotSpotMethod&lt;ArraysSupport.unsignedHashCode(int, byte[], int, int)&gt;</text>
</g>
<!-- b27&#45;&gt;b32 -->
<g id="edge41" class="edge">
<title>b27&#45;&gt;b32</title>
<path fill="none" stroke="black" d="M7736.08,-328C7768,-328 7801.5,-328 7833.61,-328"/>
<polygon fill="black" stroke="black" points="7833.99,-331.5 7843.99,-328 7833.99,-324.5 7833.99,-331.5"/>
</g>
<!-- b28&#45;&gt;b34 -->
<g id="edge42" class="edge">
<title>b28&#45;&gt;b34</title>
<path fill="none" stroke="black" d="M5022.48,-567.97C5097.51,-543.71 5209.29,-507.56 5287.42,-482.29"/>
<polygon fill="black" stroke="black" points="5288.82,-485.52 5297.25,-479.11 5286.66,-478.86 5288.82,-485.52"/>
</g>
<!-- b29&#45;&gt;b32 -->
<g id="edge43" class="edge">
<title>b29&#45;&gt;b32</title>
<path fill="none" stroke="black" d="M7294.15,-183.72C7416.5,-194.46 7587.99,-213.57 7736,-245 7800.24,-258.64 7871.15,-280.72 7924.18,-298.68"/>
<polygon fill="black" stroke="black" points="7923.27,-302.07 7933.87,-301.98 7925.53,-295.45 7923.27,-302.07"/>
</g>
<!-- b30&#45;&gt;b34 -->
<g id="edge44" class="edge">
<title>b30&#45;&gt;b34</title>
<path fill="none" stroke="black" d="M2902.78,-905.06C3072.61,-935.57 3373.77,-982 3634,-982 3634,-982 3634,-982 4504,-982 4780.81,-982 4879.21,-985.82 5108,-830 5125.24,-818.26 5291.62,-578.3 5354.29,-487.45"/>
<polygon fill="black" stroke="black" points="5357.22,-489.35 5360.02,-479.13 5351.46,-485.38 5357.22,-489.35"/>
</g>
<!-- b31&#45;&gt;b32 -->
<g id="edge45" class="edge">
<title>b31&#45;&gt;b32</title>
<path fill="none" stroke="black" d="M6381.96,-1012C6645.26,-954.3 7268.2,-800.12 7736,-545 7830.22,-493.62 7924.28,-408.43 7972.62,-361.53"/>
<polygon fill="black" stroke="black" points="7975.27,-363.83 7979.98,-354.34 7970.38,-358.82 7975.27,-363.83"/>
</g>
<!-- b33&#45;&gt;b34 -->
<g id="edge46" class="edge">
<title>b33&#45;&gt;b34</title>
<path fill="none" stroke="black" d="M3798.2,-44.97C4073.44,-80.29 4646.96,-167.52 5108,-328 5183.63,-354.33 5266.68,-394.61 5320.42,-422.29"/>
<polygon fill="black" stroke="black" points="5318.96,-425.47 5329.45,-426.96 5322.18,-419.26 5318.96,-425.47"/>
</g>
</g>
</svg>
