<?xml version="1.0" encoding="UTF-8" standalone="no"?>
<!DOCTYPE svg PUBLIC "-//W3C//DTD SVG 1.1//EN"
 "http://www.w3.org/Graphics/SVG/1.1/DTD/svg11.dtd">
<!-- Generated by graphviz version 2.44.0 (0)
 -->
<!-- Title: CFG_122 Pages: 1 -->
<svg width="6341pt" height="980pt"
 viewBox="0.00 0.00 6341.00 980.11" xmlns="http://www.w3.org/2000/svg" xmlns:xlink="http://www.w3.org/1999/xlink">
<g id="graph0" class="graph" transform="scale(1 1) rotate(0) translate(4 976.11)">
<title>CFG_122</title>
<polygon fill="white" stroke="transparent" points="-4,4 -4,-976.11 6337,-976.11 6337,4 -4,4"/>
<text text-anchor="middle" x="189" y="-952.11" font-family="Times-Roman" font-size="20.00">184&#45;LoopBenchmarks.main(String[])</text>
<!-- b0 -->
<g id="node1" class="node">
<title>b0</title>
<polygon fill="white" stroke="black" points="331,-462.61 0,-462.61 0,-399.61 331,-399.61 331,-462.61"/>
<text text-anchor="middle" x="165.5" y="-450.61" font-family="Helvetica" font-size="10.00">B0</text>
<text text-anchor="middle" x="165.5" y="-439.61" font-family="Helvetica" font-size="10.00">Loop: &lt;none&gt;</text>
<text text-anchor="middle" x="165.5" y="-428.61" font-family="Helvetica" font-size="10.00">&#45;&#45;&#45;</text>
<text text-anchor="middle" x="165.5" y="-417.61" font-family="Helvetica" font-size="10.00">HotSpotMethod&lt;LoopBenchmarks.main(String[])&gt;</text>
<text text-anchor="middle" x="165.5" y="-406.61" font-family="Helvetica" font-size="10.00">HotSpotMethod&lt;LoopBenchmarks.mandelbrotLoop(double, double, int)&gt;</text>
</g>
<!-- b1 -->
<g id="node2" class="node">
<title>b1</title>
<polygon fill="white" stroke="black" stroke-width="4" points="774,-609.11 443,-609.11 443,-513.11 774,-513.11 774,-609.11"/>
<polygon fill="none" stroke="black" stroke-width="4" points="778,-613.11 439,-613.11 439,-509.11 778,-509.11 778,-613.11"/>
<text text-anchor="middle" x="608.5" y="-597.11" font-family="Helvetica" font-size="10.00">B1</text>
<text text-anchor="middle" x="608.5" y="-586.11" font-family="Helvetica" font-size="10.00">Loop: &lt;none&gt;</text>
<text text-anchor="middle" x="608.5" y="-575.11" font-family="Helvetica" font-size="10.00">&#45;&#45;&#45;</text>
<text text-anchor="middle" x="608.5" y="-564.11" font-family="Helvetica" font-size="10.00">HotSpotMethod&lt;LoopBenchmarks.main(String[])&gt;</text>
<text text-anchor="middle" x="608.5" y="-553.11" font-family="Helvetica" font-size="10.00">HotSpotMethod&lt;LoopBenchmarks.mandelbrotLoop(double, double, int)&gt;</text>
<text text-anchor="middle" x="608.5" y="-542.11" font-family="Helvetica" font-size="10.00">&#45;&#45;&#45;</text>
<text text-anchor="middle" x="608.5" y="-531.11" font-family="Helvetica" font-size="10.00">BuboLoopMakers:</text>
<text text-anchor="middle" x="608.5" y="-520.11" font-family="Helvetica" font-size="10.00"> &#160;AMD64BuboRDTSCToSlot (LoopID=3)</text>
</g>
<!-- b0&#45;&gt;b1 -->
<g id="edge1" class="edge">
<title>b0&#45;&gt;b1</title>
<path fill="none" stroke="black" d="M273.54,-462.66C320.21,-476.42 376.22,-492.93 428.91,-508.46"/>
<polygon fill="black" stroke="black" points="428.12,-511.88 438.71,-511.35 430.1,-505.16 428.12,-511.88"/>
</g>
<!-- b16 -->
<g id="node17" class="node">
<title>b16</title>
<polygon fill="white" stroke="black" stroke-width="4" points="3284,-393.61 3049,-393.61 3049,-308.61 3284,-308.61 3284,-393.61"/>
<polygon fill="none" stroke="black" stroke-width="4" points="3288,-397.61 3045,-397.61 3045,-304.61 3288,-304.61 3288,-397.61"/>
<text text-anchor="middle" x="3166.5" y="-381.61" font-family="Helvetica" font-size="10.00">B16</text>
<text text-anchor="middle" x="3166.5" y="-370.61" font-family="Helvetica" font-size="10.00">Loop: &lt;none&gt;</text>
<text text-anchor="middle" x="3166.5" y="-359.61" font-family="Helvetica" font-size="10.00">&#45;&#45;&#45;</text>
<text text-anchor="middle" x="3166.5" y="-348.61" font-family="Helvetica" font-size="10.00">HotSpotMethod&lt;LoopBenchmarks.main(String[])&gt;</text>
<text text-anchor="middle" x="3166.5" y="-337.61" font-family="Helvetica" font-size="10.00">&#45;&#45;&#45;</text>
<text text-anchor="middle" x="3166.5" y="-326.61" font-family="Helvetica" font-size="10.00">BuboLoopMakers:</text>
<text text-anchor="middle" x="3166.5" y="-315.61" font-family="Helvetica" font-size="10.00"> &#160;AMD64BuboRDTSCToSlot (LoopID=0)</text>
</g>
<!-- b0&#45;&gt;b16 -->
<g id="edge2" class="edge">
<title>b0&#45;&gt;b16</title>
<path fill="none" stroke="black" d="M331.06,-407.27C508.28,-383.69 798.74,-351.11 1050.5,-351.11 1050.5,-351.11 1050.5,-351.11 2329.5,-351.11 2578.82,-351.11 2869.96,-351.11 3034.54,-351.11"/>
<polygon fill="black" stroke="black" points="3034.71,-354.61 3044.71,-351.11 3034.71,-347.61 3034.71,-354.61"/>
</g>
<!-- b2 -->
<g id="node3" class="node">
<title>b2</title>
<polygon fill="lightblue" stroke="black" points="1217,-630.11 886,-630.11 886,-578.11 1217,-578.11 1217,-630.11"/>
<text text-anchor="middle" x="1051.5" y="-618.11" font-family="Helvetica" font-size="10.00">B2</text>
<text text-anchor="middle" x="1051.5" y="-607.11" font-family="Helvetica" font-size="10.00">Loop: L0</text>
<text text-anchor="middle" x="1051.5" y="-596.11" font-family="Helvetica" font-size="10.00">&#45;&#45;&#45;</text>
<text text-anchor="middle" x="1051.5" y="-585.11" font-family="Helvetica" font-size="10.00">HotSpotMethod&lt;LoopBenchmarks.mandelbrotLoop(double, double, int)&gt;</text>
</g>
<!-- b1&#45;&gt;b2 -->
<g id="edge3" class="edge">
<title>b1&#45;&gt;b2</title>
<path fill="none" stroke="black" d="M778.11,-577.55C810.17,-580.67 843.79,-583.95 876.03,-587.09"/>
<polygon fill="black" stroke="black" points="875.69,-590.58 885.99,-588.06 876.37,-583.61 875.69,-590.58"/>
</g>
<!-- b3 -->
<g id="node4" class="node">
<title>b3</title>
<polygon fill="lightblue" stroke="black" points="1656,-673.11 1325,-673.11 1325,-621.11 1656,-621.11 1656,-673.11"/>
<text text-anchor="middle" x="1490.5" y="-661.11" font-family="Helvetica" font-size="10.00">B3</text>
<text text-anchor="middle" x="1490.5" y="-650.11" font-family="Helvetica" font-size="10.00">Loop: L0</text>
<text text-anchor="middle" x="1490.5" y="-639.11" font-family="Helvetica" font-size="10.00">&#45;&#45;&#45;</text>
<text text-anchor="middle" x="1490.5" y="-628.11" font-family="Helvetica" font-size="10.00">HotSpotMethod&lt;LoopBenchmarks.mandelbrotLoop(double, double, int)&gt;</text>
</g>
<!-- b2&#45;&gt;b3 -->
<g id="edge4" class="edge">
<title>b2&#45;&gt;b3</title>
<path fill="none" stroke="black" d="M1217.09,-620.3C1248.99,-623.44 1282.53,-626.74 1314.74,-629.91"/>
<polygon fill="black" stroke="black" points="1314.4,-633.39 1324.7,-630.89 1315.09,-626.43 1314.4,-633.39"/>
</g>
<!-- b14 -->
<g id="node15" class="node">
<title>b14</title>
<polygon fill="white" stroke="black" points="1656,-549.11 1325,-549.11 1325,-497.11 1656,-497.11 1656,-549.11"/>
<text text-anchor="middle" x="1490.5" y="-537.11" font-family="Helvetica" font-size="10.00">B14</text>
<text text-anchor="middle" x="1490.5" y="-526.11" font-family="Helvetica" font-size="10.00">Loop: &lt;none&gt;</text>
<text text-anchor="middle" x="1490.5" y="-515.11" font-family="Helvetica" font-size="10.00">&#45;&#45;&#45;</text>
<text text-anchor="middle" x="1490.5" y="-504.11" font-family="Helvetica" font-size="10.00">HotSpotMethod&lt;LoopBenchmarks.mandelbrotLoop(double, double, int)&gt;</text>
</g>
<!-- b2&#45;&gt;b14 -->
<g id="edge5" class="edge">
<title>b2&#45;&gt;b14</title>
<path fill="none" stroke="black" d="M1192.87,-578.09C1239.48,-569.45 1291.54,-559.8 1338.88,-551.02"/>
<polygon fill="black" stroke="black" points="1339.71,-554.43 1348.91,-549.17 1338.43,-547.55 1339.71,-554.43"/>
</g>
<!-- b4 -->
<g id="node5" class="node">
<title>b4</title>
<polygon fill="lightblue" stroke="black" points="2099,-823.11 1768,-823.11 1768,-771.11 2099,-771.11 2099,-823.11"/>
<text text-anchor="middle" x="1933.5" y="-811.11" font-family="Helvetica" font-size="10.00">B4</text>
<text text-anchor="middle" x="1933.5" y="-800.11" font-family="Helvetica" font-size="10.00">Loop: L0</text>
<text text-anchor="middle" x="1933.5" y="-789.11" font-family="Helvetica" font-size="10.00">&#45;&#45;&#45;</text>
<text text-anchor="middle" x="1933.5" y="-778.11" font-family="Helvetica" font-size="10.00">HotSpotMethod&lt;LoopBenchmarks.mandelbrotLoop(double, double, int)&gt;</text>
</g>
<!-- b3&#45;&gt;b4 -->
<g id="edge6" class="edge">
<title>b3&#45;&gt;b4</title>
<path fill="none" stroke="black" d="M1568.06,-673.15C1645.57,-699.51 1765.21,-740.2 1846.07,-767.71"/>
<polygon fill="black" stroke="black" points="1845.14,-771.09 1855.73,-771 1847.39,-764.46 1845.14,-771.09"/>
</g>
<!-- b5 -->
<g id="node6" class="node">
<title>b5</title>
<polygon fill="white" stroke="black" stroke-width="4" points="2099,-694.61 1768,-694.61 1768,-587.61 2099,-587.61 2099,-694.61"/>
<polygon fill="none" stroke="black" stroke-width="4" points="2103,-698.61 1764,-698.61 1764,-583.61 2103,-583.61 2103,-698.61"/>
<text text-anchor="middle" x="1933.5" y="-682.61" font-family="Helvetica" font-size="10.00">B5</text>
<text text-anchor="middle" x="1933.5" y="-671.61" font-family="Helvetica" font-size="10.00">Loop: &lt;none&gt;</text>
<text text-anchor="middle" x="1933.5" y="-660.61" font-family="Helvetica" font-size="10.00">&#45;&#45;&#45;</text>
<text text-anchor="middle" x="1933.5" y="-649.61" font-family="Helvetica" font-size="10.00">HotSpotMethod&lt;LoopBenchmarks.mandelbrotLoop(double, double, int)&gt;</text>
<text text-anchor="middle" x="1933.5" y="-638.61" font-family="Helvetica" font-size="10.00">HotSpotMethod&lt;LoopBenchmarks.main(String[])&gt;</text>
<text text-anchor="middle" x="1933.5" y="-627.61" font-family="Helvetica" font-size="10.00">&#45;&#45;&#45;</text>
<text text-anchor="middle" x="1933.5" y="-616.61" font-family="Helvetica" font-size="10.00">BuboLoopMakers:</text>
<text text-anchor="middle" x="1933.5" y="-605.61" font-family="Helvetica" font-size="10.00"> &#160;AMD64BuboWriteDeltaRDTSC</text>
<text text-anchor="middle" x="1933.5" y="-594.61" font-family="Helvetica" font-size="10.00"> &#160;AMD64BuboRDTSCToSlot (LoopID=2)</text>
</g>
<!-- b3&#45;&gt;b5 -->
<g id="edge7" class="edge">
<title>b3&#45;&gt;b5</title>
<path fill="none" stroke="black" d="M1656.03,-644.87C1687.97,-644.43 1721.59,-643.98 1753.96,-643.54"/>
<polygon fill="black" stroke="black" points="1754.01,-647.03 1763.96,-643.4 1753.91,-640.04 1754.01,-647.03"/>
</g>
<!-- b4&#45;&gt;b2 -->
<g id="edge8" class="edge">
<title>b4&#45;&gt;b2</title>
<path fill="none" stroke="black" d="M1767.75,-783.31C1644.41,-770.57 1472.31,-747.63 1325,-709.11 1252.32,-690.1 1172.48,-657.91 1118.12,-634.18"/>
<polygon fill="black" stroke="black" points="1119.51,-630.97 1108.95,-630.15 1116.7,-637.37 1119.51,-630.97"/>
</g>
<!-- b6 -->
<g id="node7" class="node">
<title>b6</title>
<polygon fill="lightgreen" stroke="black" points="2446,-685.11 2211,-685.11 2211,-633.11 2446,-633.11 2446,-685.11"/>
<text text-anchor="middle" x="2328.5" y="-673.11" font-family="Helvetica" font-size="10.00">B6</text>
<text text-anchor="middle" x="2328.5" y="-662.11" font-family="Helvetica" font-size="10.00">Loop: L1</text>
<text text-anchor="middle" x="2328.5" y="-651.11" font-family="Helvetica" font-size="10.00">&#45;&#45;&#45;</text>
<text text-anchor="middle" x="2328.5" y="-640.11" font-family="Helvetica" font-size="10.00">HotSpotMethod&lt;LoopBenchmarks.main(String[])&gt;</text>
</g>
<!-- b5&#45;&gt;b6 -->
<g id="edge9" class="edge">
<title>b5&#45;&gt;b6</title>
<path fill="none" stroke="black" d="M2103.16,-648.83C2135.94,-650.33 2169.78,-651.88 2200.92,-653.31"/>
<polygon fill="black" stroke="black" points="2200.78,-656.81 2210.93,-653.77 2201.1,-649.81 2200.78,-656.81"/>
</g>
<!-- b7 -->
<g id="node8" class="node">
<title>b7</title>
<polygon fill="lightgreen" stroke="black" stroke-width="4" points="2889,-726.11 2558,-726.11 2558,-630.11 2889,-630.11 2889,-726.11"/>
<polygon fill="none" stroke="black" stroke-width="4" points="2893,-730.11 2554,-730.11 2554,-626.11 2893,-626.11 2893,-730.11"/>
<text text-anchor="middle" x="2723.5" y="-714.11" font-family="Helvetica" font-size="10.00">B7</text>
<text text-anchor="middle" x="2723.5" y="-703.11" font-family="Helvetica" font-size="10.00">Loop: L1</text>
<text text-anchor="middle" x="2723.5" y="-692.11" font-family="Helvetica" font-size="10.00">&#45;&#45;&#45;</text>
<text text-anchor="middle" x="2723.5" y="-681.11" font-family="Helvetica" font-size="10.00">HotSpotMethod&lt;LoopBenchmarks.main(String[])&gt;</text>
<text text-anchor="middle" x="2723.5" y="-670.11" font-family="Helvetica" font-size="10.00">HotSpotMethod&lt;LoopBenchmarks.mandelbrotLoop(double, double, int)&gt;</text>
<text text-anchor="middle" x="2723.5" y="-659.11" font-family="Helvetica" font-size="10.00">&#45;&#45;&#45;</text>
<text text-anchor="middle" x="2723.5" y="-648.11" font-family="Helvetica" font-size="10.00">BuboLoopMakers:</text>
<text text-anchor="middle" x="2723.5" y="-637.11" font-family="Helvetica" font-size="10.00"> &#160;AMD64BuboRDTSCToSlot (LoopID=4)</text>
</g>
<!-- b6&#45;&gt;b7 -->
<g id="edge10" class="edge">
<title>b6&#45;&gt;b7</title>
<path fill="none" stroke="black" d="M2446.08,-664.74C2476.74,-666.22 2510.53,-667.86 2543.65,-669.46"/>
<polygon fill="black" stroke="black" points="2543.74,-672.97 2553.9,-669.95 2544.08,-665.98 2543.74,-672.97"/>
</g>
<!-- b12 -->
<g id="node13" class="node">
<title>b12</title>
<polygon fill="white" stroke="black" stroke-width="4" points="2841,-549.61 2606,-549.61 2606,-464.61 2841,-464.61 2841,-549.61"/>
<polygon fill="none" stroke="black" stroke-width="4" points="2845,-553.61 2602,-553.61 2602,-460.61 2845,-460.61 2845,-553.61"/>
<text text-anchor="middle" x="2723.5" y="-537.61" font-family="Helvetica" font-size="10.00">B12</text>
<text text-anchor="middle" x="2723.5" y="-526.61" font-family="Helvetica" font-size="10.00">Loop: &lt;none&gt;</text>
<text text-anchor="middle" x="2723.5" y="-515.61" font-family="Helvetica" font-size="10.00">&#45;&#45;&#45;</text>
<text text-anchor="middle" x="2723.5" y="-504.61" font-family="Helvetica" font-size="10.00">HotSpotMethod&lt;LoopBenchmarks.main(String[])&gt;</text>
<text text-anchor="middle" x="2723.5" y="-493.61" font-family="Helvetica" font-size="10.00">&#45;&#45;&#45;</text>
<text text-anchor="middle" x="2723.5" y="-482.61" font-family="Helvetica" font-size="10.00">BuboLoopMakers:</text>
<text text-anchor="middle" x="2723.5" y="-471.61" font-family="Helvetica" font-size="10.00"> &#160;AMD64BuboWriteDeltaRDTSC (LoopID=2)</text>
</g>
<!-- b6&#45;&gt;b12 -->
<g id="edge11" class="edge">
<title>b6&#45;&gt;b12</title>
<path fill="none" stroke="black" d="M2397.06,-632.98C2450.61,-612.27 2527.03,-582.71 2592.36,-557.44"/>
<polygon fill="black" stroke="black" points="2593.85,-560.62 2601.92,-553.74 2591.33,-554.09 2593.85,-560.62"/>
</g>
<!-- b8 -->
<g id="node9" class="node">
<title>b8</title>
<polygon fill="lightpink" stroke="black" points="3332,-690.11 3001,-690.11 3001,-638.11 3332,-638.11 3332,-690.11"/>
<text text-anchor="middle" x="3166.5" y="-678.11" font-family="Helvetica" font-size="10.00">B8</text>
<text text-anchor="middle" x="3166.5" y="-667.11" font-family="Helvetica" font-size="10.00">Loop: L2</text>
<text text-anchor="middle" x="3166.5" y="-656.11" font-family="Helvetica" font-size="10.00">&#45;&#45;&#45;</text>
<text text-anchor="middle" x="3166.5" y="-645.11" font-family="Helvetica" font-size="10.00">HotSpotMethod&lt;LoopBenchmarks.mandelbrotLoop(double, double, int)&gt;</text>
</g>
<!-- b7&#45;&gt;b8 -->
<g id="edge12" class="edge">
<title>b7&#45;&gt;b8</title>
<path fill="none" stroke="black" d="M2893.11,-672.75C2925.04,-671.74 2958.5,-670.68 2990.61,-669.66"/>
<polygon fill="black" stroke="black" points="2991.1,-673.14 3000.99,-669.33 2990.88,-666.15 2991.1,-673.14"/>
</g>
<!-- b9 -->
<g id="node10" class="node">
<title>b9</title>
<polygon fill="lightpink" stroke="black" points="3771,-811.11 3440,-811.11 3440,-759.11 3771,-759.11 3771,-811.11"/>
<text text-anchor="middle" x="3605.5" y="-799.11" font-family="Helvetica" font-size="10.00">B9</text>
<text text-anchor="middle" x="3605.5" y="-788.11" font-family="Helvetica" font-size="10.00">Loop: L2</text>
<text text-anchor="middle" x="3605.5" y="-777.11" font-family="Helvetica" font-size="10.00">&#45;&#45;&#45;</text>
<text text-anchor="middle" x="3605.5" y="-766.11" font-family="Helvetica" font-size="10.00">HotSpotMethod&lt;LoopBenchmarks.mandelbrotLoop(double, double, int)&gt;</text>
</g>
<!-- b8&#45;&gt;b9 -->
<g id="edge13" class="edge">
<title>b8&#45;&gt;b9</title>
<path fill="none" stroke="black" d="M3261.52,-690.14C3331.71,-709.57 3427.64,-736.13 3500.19,-756.22"/>
<polygon fill="black" stroke="black" points="3499.7,-759.72 3510.27,-759.01 3501.57,-752.97 3499.7,-759.72"/>
</g>
<!-- b13 -->
<g id="node14" class="node">
<title>b13</title>
<polygon fill="white" stroke="black" points="3771,-540.61 3440,-540.61 3440,-477.61 3771,-477.61 3771,-540.61"/>
<text text-anchor="middle" x="3605.5" y="-528.61" font-family="Helvetica" font-size="10.00">B13</text>
<text text-anchor="middle" x="3605.5" y="-517.61" font-family="Helvetica" font-size="10.00">Loop: &lt;none&gt;</text>
<text text-anchor="middle" x="3605.5" y="-506.61" font-family="Helvetica" font-size="10.00">&#45;&#45;&#45;</text>
<text text-anchor="middle" x="3605.5" y="-495.61" font-family="Helvetica" font-size="10.00">HotSpotMethod&lt;LoopBenchmarks.main(String[])&gt;</text>
<text text-anchor="middle" x="3605.5" y="-484.61" font-family="Helvetica" font-size="10.00">HotSpotMethod&lt;LoopBenchmarks.mandelbrotLoop(double, double, int)&gt;</text>
</g>
<!-- b8&#45;&gt;b13 -->
<g id="edge14" class="edge">
<title>b8&#45;&gt;b13</title>
<path fill="none" stroke="black" d="M3241.14,-637.99C3313.83,-612.2 3425.46,-572.61 3505.81,-544.11"/>
<polygon fill="black" stroke="black" points="3507.19,-547.33 3515.44,-540.69 3504.85,-540.74 3507.19,-547.33"/>
</g>
<!-- b10 -->
<g id="node11" class="node">
<title>b10</title>
<polygon fill="lightpink" stroke="black" points="4214,-706.11 3883,-706.11 3883,-654.11 4214,-654.11 4214,-706.11"/>
<text text-anchor="middle" x="4048.5" y="-694.11" font-family="Helvetica" font-size="10.00">B10</text>
<text text-anchor="middle" x="4048.5" y="-683.11" font-family="Helvetica" font-size="10.00">Loop: L2</text>
<text text-anchor="middle" x="4048.5" y="-672.11" font-family="Helvetica" font-size="10.00">&#45;&#45;&#45;</text>
<text text-anchor="middle" x="4048.5" y="-661.11" font-family="Helvetica" font-size="10.00">HotSpotMethod&lt;LoopBenchmarks.mandelbrotLoop(double, double, int)&gt;</text>
</g>
<!-- b9&#45;&gt;b10 -->
<g id="edge15" class="edge">
<title>b9&#45;&gt;b10</title>
<path fill="none" stroke="black" d="M3715.79,-759.08C3780.21,-743.75 3861.78,-724.33 3927.91,-708.58"/>
<polygon fill="black" stroke="black" points="3929.05,-711.91 3937.97,-706.19 3927.43,-705.1 3929.05,-711.91"/>
</g>
<!-- b11 -->
<g id="node12" class="node">
<title>b11</title>
<polygon fill="lightgreen" stroke="black" stroke-width="4" points="4214,-938.11 3883,-938.11 3883,-842.11 4214,-842.11 4214,-938.11"/>
<polygon fill="none" stroke="black" stroke-width="4" points="4218,-942.11 3879,-942.11 3879,-838.11 4218,-838.11 4218,-942.11"/>
<text text-anchor="middle" x="4048.5" y="-926.11" font-family="Helvetica" font-size="10.00">B11</text>
<text text-anchor="middle" x="4048.5" y="-915.11" font-family="Helvetica" font-size="10.00">Loop: L1</text>
<text text-anchor="middle" x="4048.5" y="-904.11" font-family="Helvetica" font-size="10.00">&#45;&#45;&#45;</text>
<text text-anchor="middle" x="4048.5" y="-893.11" font-family="Helvetica" font-size="10.00">HotSpotMethod&lt;LoopBenchmarks.mandelbrotLoop(double, double, int)&gt;</text>
<text text-anchor="middle" x="4048.5" y="-882.11" font-family="Helvetica" font-size="10.00">HotSpotMethod&lt;LoopBenchmarks.main(String[])&gt;</text>
<text text-anchor="middle" x="4048.5" y="-871.11" font-family="Helvetica" font-size="10.00">&#45;&#45;&#45;</text>
<text text-anchor="middle" x="4048.5" y="-860.11" font-family="Helvetica" font-size="10.00">BuboLoopMakers:</text>
<text text-anchor="middle" x="4048.5" y="-849.11" font-family="Helvetica" font-size="10.00"> &#160;AMD64BuboWriteDeltaRDTSC (LoopID=4)</text>
</g>
<!-- b9&#45;&gt;b11 -->
<g id="edge16" class="edge">
<title>b9&#45;&gt;b11</title>
<path fill="none" stroke="black" d="M3715.79,-811.13C3762.04,-822.14 3817.14,-835.26 3869.01,-847.61"/>
<polygon fill="black" stroke="black" points="3868.45,-851.07 3878.99,-849.99 3870.07,-844.26 3868.45,-851.07"/>
</g>
<!-- b10&#45;&gt;b8 -->
<g id="edge17" class="edge">
<title>b10&#45;&gt;b8</title>
<path fill="none" stroke="black" d="M3882.8,-677.11C3728.84,-674.31 3499.7,-670.15 3342.5,-667.29"/>
<polygon fill="black" stroke="black" points="3342.31,-663.78 3332.25,-667.1 3342.18,-670.78 3342.31,-663.78"/>
</g>
<!-- b11&#45;&gt;b6 -->
<g id="edge18" class="edge">
<title>b11&#45;&gt;b6</title>
<path fill="none" stroke="black" d="M3878.81,-896.09C3598.39,-901.65 3020.98,-894.32 2554,-766.11 2491.68,-748.99 2425.48,-715.31 2381.25,-690.29"/>
<polygon fill="black" stroke="black" points="2382.85,-687.17 2372.43,-685.24 2379.38,-693.25 2382.85,-687.17"/>
</g>
<!-- b12&#45;&gt;b16 -->
<g id="edge19" class="edge">
<title>b12&#45;&gt;b16</title>
<path fill="none" stroke="black" d="M2845.01,-464.48C2903.95,-443.63 2974.99,-418.5 3035.19,-397.2"/>
<polygon fill="black" stroke="black" points="3036.5,-400.45 3044.76,-393.82 3034.16,-393.85 3036.5,-400.45"/>
</g>
<!-- b15 -->
<g id="node16" class="node">
<title>b15</title>
<polygon fill="white" stroke="black" points="2889,-241.61 2558,-241.61 2558,-178.61 2889,-178.61 2889,-241.61"/>
<text text-anchor="middle" x="2723.5" y="-229.61" font-family="Helvetica" font-size="10.00">B15</text>
<text text-anchor="middle" x="2723.5" y="-218.61" font-family="Helvetica" font-size="10.00">Loop: &lt;none&gt;</text>
<text text-anchor="middle" x="2723.5" y="-207.61" font-family="Helvetica" font-size="10.00">&#45;&#45;&#45;</text>
<text text-anchor="middle" x="2723.5" y="-196.61" font-family="Helvetica" font-size="10.00">HotSpotMethod&lt;LoopBenchmarks.mandelbrotLoop(double, double, int)&gt;</text>
<text text-anchor="middle" x="2723.5" y="-185.61" font-family="Helvetica" font-size="10.00">HotSpotMethod&lt;LoopBenchmarks.main(String[])&gt;</text>
</g>
<!-- b15&#45;&gt;b16 -->
<g id="edge20" class="edge">
<title>b15&#45;&gt;b16</title>
<path fill="none" stroke="black" d="M2823.19,-241.66C2885.63,-261.62 2967.05,-287.66 3034.82,-309.32"/>
<polygon fill="black" stroke="black" points="3034.13,-312.78 3044.72,-312.49 3036.26,-306.11 3034.13,-312.78"/>
</g>
<!-- b17 -->
<g id="node18" class="node">
<title>b17</title>
<polygon fill="gold" stroke="black" points="3723,-377.11 3488,-377.11 3488,-325.11 3723,-325.11 3723,-377.11"/>
<text text-anchor="middle" x="3605.5" y="-365.11" font-family="Helvetica" font-size="10.00">B17</text>
<text text-anchor="middle" x="3605.5" y="-354.11" font-family="Helvetica" font-size="10.00">Loop: L3</text>
<text text-anchor="middle" x="3605.5" y="-343.11" font-family="Helvetica" font-size="10.00">&#45;&#45;&#45;</text>
<text text-anchor="middle" x="3605.5" y="-332.11" font-family="Helvetica" font-size="10.00">HotSpotMethod&lt;LoopBenchmarks.main(String[])&gt;</text>
</g>
<!-- b16&#45;&gt;b17 -->
<g id="edge21" class="edge">
<title>b16&#45;&gt;b17</title>
<path fill="none" stroke="black" d="M3288.07,-351.11C3346.94,-351.11 3417.77,-351.11 3477.47,-351.11"/>
<polygon fill="black" stroke="black" points="3477.72,-354.61 3487.72,-351.11 3477.72,-347.61 3477.72,-354.61"/>
</g>
<!-- b18 -->
<g id="node19" class="node">
<title>b18</title>
<polygon fill="gold" stroke="black" stroke-width="4" points="4166,-235.61 3931,-235.61 3931,-150.61 4166,-150.61 4166,-235.61"/>
<polygon fill="none" stroke="black" stroke-width="4" points="4170,-239.61 3927,-239.61 3927,-146.61 4170,-146.61 4170,-239.61"/>
<text text-anchor="middle" x="4048.5" y="-223.61" font-family="Helvetica" font-size="10.00">B18</text>
<text text-anchor="middle" x="4048.5" y="-212.61" font-family="Helvetica" font-size="10.00">Loop: L3</text>
<text text-anchor="middle" x="4048.5" y="-201.61" font-family="Helvetica" font-size="10.00">&#45;&#45;&#45;</text>
<text text-anchor="middle" x="4048.5" y="-190.61" font-family="Helvetica" font-size="10.00">HotSpotMethod&lt;LoopBenchmarks.main(String[])&gt;</text>
<text text-anchor="middle" x="4048.5" y="-179.61" font-family="Helvetica" font-size="10.00">&#45;&#45;&#45;</text>
<text text-anchor="middle" x="4048.5" y="-168.61" font-family="Helvetica" font-size="10.00">BuboLoopMakers:</text>
<text text-anchor="middle" x="4048.5" y="-157.61" font-family="Helvetica" font-size="10.00"> &#160;AMD64BuboRDTSCToSlot (LoopID=1)</text>
</g>
<!-- b17&#45;&gt;b18 -->
<g id="edge22" class="edge">
<title>b17&#45;&gt;b18</title>
<path fill="none" stroke="black" d="M3679.32,-325.02C3743.72,-301.94 3839.23,-267.73 3916.83,-239.92"/>
<polygon fill="black" stroke="black" points="3918.45,-243.06 3926.68,-236.39 3916.09,-236.47 3918.45,-243.06"/>
</g>
<!-- b27 -->
<g id="node28" class="node">
<title>b27</title>
<polygon fill="white" stroke="black" points="4214,-523.61 3883,-523.61 3883,-460.61 4214,-460.61 4214,-523.61"/>
<text text-anchor="middle" x="4048.5" y="-511.61" font-family="Helvetica" font-size="10.00">B27</text>
<text text-anchor="middle" x="4048.5" y="-500.61" font-family="Helvetica" font-size="10.00">Loop: &lt;none&gt;</text>
<text text-anchor="middle" x="4048.5" y="-489.61" font-family="Helvetica" font-size="10.00">&#45;&#45;&#45;</text>
<text text-anchor="middle" x="4048.5" y="-478.61" font-family="Helvetica" font-size="10.00">HotSpotMethod&lt;LoopBenchmarks.mandelbrotLoop(double, double, int)&gt;</text>
<text text-anchor="middle" x="4048.5" y="-467.61" font-family="Helvetica" font-size="10.00">HotSpotMethod&lt;LoopBenchmarks.main(String[])&gt;</text>
</g>
<!-- b17&#45;&gt;b27 -->
<g id="edge23" class="edge">
<title>b17&#45;&gt;b27</title>
<path fill="none" stroke="black" d="M3687.9,-377.13C3758.55,-399.72 3861.39,-432.6 3939.01,-457.42"/>
<polygon fill="black" stroke="black" points="3938.24,-460.85 3948.83,-460.56 3940.37,-454.18 3938.24,-460.85"/>
</g>
<!-- b19 -->
<g id="node20" class="node">
<title>b19</title>
<polygon fill="orange" stroke="black" points="4561,-212.11 4326,-212.11 4326,-160.11 4561,-160.11 4561,-212.11"/>
<text text-anchor="middle" x="4443.5" y="-200.11" font-family="Helvetica" font-size="10.00">B19</text>
<text text-anchor="middle" x="4443.5" y="-189.11" font-family="Helvetica" font-size="10.00">Loop: L4</text>
<text text-anchor="middle" x="4443.5" y="-178.11" font-family="Helvetica" font-size="10.00">&#45;&#45;&#45;</text>
<text text-anchor="middle" x="4443.5" y="-167.11" font-family="Helvetica" font-size="10.00">HotSpotMethod&lt;LoopBenchmarks.main(String[])&gt;</text>
</g>
<!-- b18&#45;&gt;b19 -->
<g id="edge24" class="edge">
<title>b18&#45;&gt;b19</title>
<path fill="none" stroke="black" d="M4170.08,-190.96C4216.22,-190.14 4268.96,-189.2 4315.67,-188.37"/>
<polygon fill="black" stroke="black" points="4315.91,-191.86 4325.85,-188.18 4315.79,-184.86 4315.91,-191.86"/>
</g>
<!-- b20 -->
<g id="node21" class="node">
<title>b20</title>
<polygon fill="orange" stroke="black" stroke-width="4" points="5004,-230.11 4673,-230.11 4673,-134.11 5004,-134.11 5004,-230.11"/>
<polygon fill="none" stroke="black" stroke-width="4" points="5008,-234.11 4669,-234.11 4669,-130.11 5008,-130.11 5008,-234.11"/>
<text text-anchor="middle" x="4838.5" y="-218.11" font-family="Helvetica" font-size="10.00">B20</text>
<text text-anchor="middle" x="4838.5" y="-207.11" font-family="Helvetica" font-size="10.00">Loop: L4</text>
<text text-anchor="middle" x="4838.5" y="-196.11" font-family="Helvetica" font-size="10.00">&#45;&#45;&#45;</text>
<text text-anchor="middle" x="4838.5" y="-185.11" font-family="Helvetica" font-size="10.00">HotSpotMethod&lt;LoopBenchmarks.main(String[])&gt;</text>
<text text-anchor="middle" x="4838.5" y="-174.11" font-family="Helvetica" font-size="10.00">HotSpotMethod&lt;LoopBenchmarks.mandelbrotLoop(double, double, int)&gt;</text>
<text text-anchor="middle" x="4838.5" y="-163.11" font-family="Helvetica" font-size="10.00">&#45;&#45;&#45;</text>
<text text-anchor="middle" x="4838.5" y="-152.11" font-family="Helvetica" font-size="10.00">BuboLoopMakers:</text>
<text text-anchor="middle" x="4838.5" y="-141.11" font-family="Helvetica" font-size="10.00"> &#160;AMD64BuboRDTSCToSlot (LoopID=5)</text>
</g>
<!-- b19&#45;&gt;b20 -->
<g id="edge25" class="edge">
<title>b19&#45;&gt;b20</title>
<path fill="none" stroke="black" d="M4561.08,-184.92C4591.74,-184.61 4625.53,-184.26 4658.65,-183.93"/>
<polygon fill="black" stroke="black" points="4658.94,-187.42 4668.9,-183.82 4658.86,-180.42 4658.94,-187.42"/>
</g>
<!-- b25 -->
<g id="node26" class="node">
<title>b25</title>
<polygon fill="gold" stroke="black" stroke-width="4" points="4956,-395.61 4721,-395.61 4721,-310.61 4956,-310.61 4956,-395.61"/>
<polygon fill="none" stroke="black" stroke-width="4" points="4960,-399.61 4717,-399.61 4717,-306.61 4960,-306.61 4960,-399.61"/>
<text text-anchor="middle" x="4838.5" y="-383.61" font-family="Helvetica" font-size="10.00">B25</text>
<text text-anchor="middle" x="4838.5" y="-372.61" font-family="Helvetica" font-size="10.00">Loop: L3</text>
<text text-anchor="middle" x="4838.5" y="-361.61" font-family="Helvetica" font-size="10.00">&#45;&#45;&#45;</text>
<text text-anchor="middle" x="4838.5" y="-350.61" font-family="Helvetica" font-size="10.00">HotSpotMethod&lt;LoopBenchmarks.main(String[])&gt;</text>
<text text-anchor="middle" x="4838.5" y="-339.61" font-family="Helvetica" font-size="10.00">&#45;&#45;&#45;</text>
<text text-anchor="middle" x="4838.5" y="-328.61" font-family="Helvetica" font-size="10.00">BuboLoopMakers:</text>
<text text-anchor="middle" x="4838.5" y="-317.61" font-family="Helvetica" font-size="10.00"> &#160;AMD64BuboWriteDeltaRDTSC (LoopID=1)</text>
</g>
<!-- b19&#45;&gt;b25 -->
<g id="edge26" class="edge">
<title>b19&#45;&gt;b25</title>
<path fill="none" stroke="black" d="M4505.91,-212.2C4562.62,-236.3 4648.43,-272.76 4718.55,-302.56"/>
<polygon fill="black" stroke="black" points="4717.32,-305.84 4727.9,-306.53 4720.06,-299.4 4717.32,-305.84"/>
</g>
<!-- b21 -->
<g id="node22" class="node">
<title>b21</title>
<polygon fill="violet" stroke="black" points="5447,-235.11 5116,-235.11 5116,-183.11 5447,-183.11 5447,-235.11"/>
<text text-anchor="middle" x="5281.5" y="-223.11" font-family="Helvetica" font-size="10.00">B21</text>
<text text-anchor="middle" x="5281.5" y="-212.11" font-family="Helvetica" font-size="10.00">Loop: L5</text>
<text text-anchor="middle" x="5281.5" y="-201.11" font-family="Helvetica" font-size="10.00">&#45;&#45;&#45;</text>
<text text-anchor="middle" x="5281.5" y="-190.11" font-family="Helvetica" font-size="10.00">HotSpotMethod&lt;LoopBenchmarks.mandelbrotLoop(double, double, int)&gt;</text>
</g>
<!-- b20&#45;&gt;b21 -->
<g id="edge27" class="edge">
<title>b20&#45;&gt;b21</title>
<path fill="none" stroke="black" d="M5008.11,-192.43C5040.04,-194.38 5073.5,-196.43 5105.61,-198.4"/>
<polygon fill="black" stroke="black" points="5105.79,-201.92 5115.99,-199.03 5106.22,-194.93 5105.79,-201.92"/>
</g>
<!-- b22 -->
<g id="node23" class="node">
<title>b22</title>
<polygon fill="violet" stroke="black" points="5886,-263.11 5555,-263.11 5555,-211.11 5886,-211.11 5886,-263.11"/>
<text text-anchor="middle" x="5720.5" y="-251.11" font-family="Helvetica" font-size="10.00">B22</text>
<text text-anchor="middle" x="5720.5" y="-240.11" font-family="Helvetica" font-size="10.00">Loop: L5</text>
<text text-anchor="middle" x="5720.5" y="-229.11" font-family="Helvetica" font-size="10.00">&#45;&#45;&#45;</text>
<text text-anchor="middle" x="5720.5" y="-218.11" font-family="Helvetica" font-size="10.00">HotSpotMethod&lt;LoopBenchmarks.mandelbrotLoop(double, double, int)&gt;</text>
</g>
<!-- b21&#45;&gt;b22 -->
<g id="edge28" class="edge">
<title>b21&#45;&gt;b22</title>
<path fill="none" stroke="black" d="M5447.09,-219.65C5478.85,-221.69 5512.24,-223.83 5544.33,-225.88"/>
<polygon fill="black" stroke="black" points="5544.49,-229.4 5554.7,-226.55 5544.94,-222.41 5544.49,-229.4"/>
</g>
<!-- b26 -->
<g id="node27" class="node">
<title>b26</title>
<polygon fill="white" stroke="black" points="5886,-138.61 5555,-138.61 5555,-75.61 5886,-75.61 5886,-138.61"/>
<text text-anchor="middle" x="5720.5" y="-126.61" font-family="Helvetica" font-size="10.00">B26</text>
<text text-anchor="middle" x="5720.5" y="-115.61" font-family="Helvetica" font-size="10.00">Loop: &lt;none&gt;</text>
<text text-anchor="middle" x="5720.5" y="-104.61" font-family="Helvetica" font-size="10.00">&#45;&#45;&#45;</text>
<text text-anchor="middle" x="5720.5" y="-93.61" font-family="Helvetica" font-size="10.00">HotSpotMethod&lt;LoopBenchmarks.main(String[])&gt;</text>
<text text-anchor="middle" x="5720.5" y="-82.61" font-family="Helvetica" font-size="10.00">HotSpotMethod&lt;LoopBenchmarks.mandelbrotLoop(double, double, int)&gt;</text>
</g>
<!-- b21&#45;&gt;b26 -->
<g id="edge29" class="edge">
<title>b21&#45;&gt;b26</title>
<path fill="none" stroke="black" d="M5393.9,-183.1C5448.88,-170.27 5515.87,-154.64 5574.76,-140.89"/>
<polygon fill="black" stroke="black" points="5575.58,-144.29 5584.52,-138.61 5573.98,-137.48 5575.58,-144.29"/>
</g>
<!-- b23 -->
<g id="node24" class="node">
<title>b23</title>
<polygon fill="violet" stroke="black" points="6329,-330.11 5998,-330.11 5998,-278.11 6329,-278.11 6329,-330.11"/>
<text text-anchor="middle" x="6163.5" y="-318.11" font-family="Helvetica" font-size="10.00">B23</text>
<text text-anchor="middle" x="6163.5" y="-307.11" font-family="Helvetica" font-size="10.00">Loop: L5</text>
<text text-anchor="middle" x="6163.5" y="-296.11" font-family="Helvetica" font-size="10.00">&#45;&#45;&#45;</text>
<text text-anchor="middle" x="6163.5" y="-285.11" font-family="Helvetica" font-size="10.00">HotSpotMethod&lt;LoopBenchmarks.mandelbrotLoop(double, double, int)&gt;</text>
</g>
<!-- b22&#45;&gt;b23 -->
<g id="edge30" class="edge">
<title>b22&#45;&gt;b23</title>
<path fill="none" stroke="black" d="M5886.03,-262.1C5919.08,-267.12 5953.93,-272.42 5987.32,-277.49"/>
<polygon fill="black" stroke="black" points="5987.23,-281.02 5997.64,-279.06 5988.28,-274.1 5987.23,-281.02"/>
</g>
<!-- b24 -->
<g id="node25" class="node">
<title>b24</title>
<polygon fill="orange" stroke="black" stroke-width="4" points="6329,-142.11 5998,-142.11 5998,-46.11 6329,-46.11 6329,-142.11"/>
<polygon fill="none" stroke="black" stroke-width="4" points="6333,-146.11 5994,-146.11 5994,-42.11 6333,-42.11 6333,-146.11"/>
<text text-anchor="middle" x="6163.5" y="-130.11" font-family="Helvetica" font-size="10.00">B24</text>
<text text-anchor="middle" x="6163.5" y="-119.11" font-family="Helvetica" font-size="10.00">Loop: L4</text>
<text text-anchor="middle" x="6163.5" y="-108.11" font-family="Helvetica" font-size="10.00">&#45;&#45;&#45;</text>
<text text-anchor="middle" x="6163.5" y="-97.11" font-family="Helvetica" font-size="10.00">HotSpotMethod&lt;LoopBenchmarks.mandelbrotLoop(double, double, int)&gt;</text>
<text text-anchor="middle" x="6163.5" y="-86.11" font-family="Helvetica" font-size="10.00">HotSpotMethod&lt;LoopBenchmarks.main(String[])&gt;</text>
<text text-anchor="middle" x="6163.5" y="-75.11" font-family="Helvetica" font-size="10.00">&#45;&#45;&#45;</text>
<text text-anchor="middle" x="6163.5" y="-64.11" font-family="Helvetica" font-size="10.00">BuboLoopMakers:</text>
<text text-anchor="middle" x="6163.5" y="-53.11" font-family="Helvetica" font-size="10.00"> &#160;AMD64BuboWriteDeltaRDTSC (LoopID=5)</text>
</g>
<!-- b22&#45;&gt;b24 -->
<g id="edge31" class="edge">
<title>b22&#45;&gt;b24</title>
<path fill="none" stroke="black" d="M5801.87,-211.04C5855.03,-193.81 5926.75,-170.55 5992.22,-149.32"/>
<polygon fill="black" stroke="black" points="5993.4,-152.62 6001.83,-146.2 5991.24,-145.96 5993.4,-152.62"/>
</g>
<!-- b23&#45;&gt;b21 -->
<g id="edge32" class="edge">
<title>b23&#45;&gt;b21</title>
<path fill="none" stroke="black" d="M5997.91,-316.45C5875.03,-322.36 5703.42,-323.61 5555,-299.11 5484.17,-287.41 5406.74,-260.37 5352.58,-238.96"/>
<polygon fill="black" stroke="black" points="5353.67,-235.62 5343.08,-235.17 5351.07,-242.13 5353.67,-235.62"/>
</g>
<!-- b24&#45;&gt;b19 -->
<g id="edge33" class="edge">
<title>b24&#45;&gt;b19</title>
<path fill="none" stroke="black" d="M5993.66,-55.06C5958.28,-48.42 5921.07,-42.56 5886,-39.11 5347.17,13.97 5196.74,26.94 4669,-94.11 4610.74,-107.47 4548.09,-134.29 4503.81,-155.54"/>
<polygon fill="black" stroke="black" points="4502.12,-152.47 4494.65,-159.98 4505.18,-158.76 4502.12,-152.47"/>
</g>
<!-- b25&#45;&gt;b17 -->
<g id="edge34" class="edge">
<title>b25&#45;&gt;b17</title>
<path fill="none" stroke="black" d="M4716.77,-352.91C4483.19,-352.53 3971.5,-351.7 3733.24,-351.31"/>
<polygon fill="black" stroke="black" points="3733.15,-347.81 3723.14,-351.3 3733.14,-354.81 3733.15,-347.81"/>
</g>
</g>
</svg>
