<?xml version="1.0" encoding="UTF-8" standalone="no"?>
<!DOCTYPE svg PUBLIC "-//W3C//DTD SVG 1.1//EN"
 "http://www.w3.org/Graphics/SVG/1.1/DTD/svg11.dtd">
<!-- Generated by graphviz version 2.44.0 (0)
 -->
<!-- Title: CFG_133 Pages: 1 -->
<svg width="7760pt" height="1060pt"
 viewBox="0.00 0.00 7760.00 1060.00" xmlns="http://www.w3.org/2000/svg" xmlns:xlink="http://www.w3.org/1999/xlink">
<g id="graph0" class="graph" transform="scale(1 1) rotate(0) translate(4 1056)">
<title>CFG_133</title>
<polygon fill="white" stroke="transparent" points="-4,4 -4,-1056 7756,-1056 7756,4 -4,4"/>
<text text-anchor="middle" x="242.5" y="-1032" font-family="Times-Roman" font-size="20.00">200&#45;LoopBenchmarks.sieveLoop(boolean[], int)</text>
<!-- b0 -->
<g id="node1" class="node">
<title>b0</title>
<polygon fill="white" stroke="black" points="283,-243 0,-243 0,-191 283,-191 283,-243"/>
<text text-anchor="middle" x="141.5" y="-231" font-family="Helvetica" font-size="10.00">B0</text>
<text text-anchor="middle" x="141.5" y="-220" font-family="Helvetica" font-size="10.00">Loop: &lt;none&gt;</text>
<text text-anchor="middle" x="141.5" y="-209" font-family="Helvetica" font-size="10.00">&#45;&#45;&#45;</text>
<text text-anchor="middle" x="141.5" y="-198" font-family="Helvetica" font-size="10.00">HotSpotMethod&lt;LoopBenchmarks.sieveLoop(boolean[], int)&gt;</text>
</g>
<!-- b1 -->
<g id="node2" class="node">
<title>b1</title>
<polygon fill="white" stroke="black" points="674,-305 391,-305 391,-253 674,-253 674,-305"/>
<text text-anchor="middle" x="532.5" y="-293" font-family="Helvetica" font-size="10.00">B1</text>
<text text-anchor="middle" x="532.5" y="-282" font-family="Helvetica" font-size="10.00">Loop: &lt;none&gt;</text>
<text text-anchor="middle" x="532.5" y="-271" font-family="Helvetica" font-size="10.00">&#45;&#45;&#45;</text>
<text text-anchor="middle" x="532.5" y="-260" font-family="Helvetica" font-size="10.00">HotSpotMethod&lt;LoopBenchmarks.sieveLoop(boolean[], int)&gt;</text>
</g>
<!-- b0&#45;&gt;b1 -->
<g id="edge1" class="edge">
<title>b0&#45;&gt;b1</title>
<path fill="none" stroke="black" d="M283.21,-239.43C314.95,-244.49 348.76,-249.88 380.89,-255"/>
<polygon fill="black" stroke="black" points="380.38,-258.46 390.8,-256.58 381.48,-251.54 380.38,-258.46"/>
</g>
<!-- b2 -->
<g id="node3" class="node">
<title>b2</title>
<polygon fill="white" stroke="black" points="674,-181 391,-181 391,-129 674,-129 674,-181"/>
<text text-anchor="middle" x="532.5" y="-169" font-family="Helvetica" font-size="10.00">B2</text>
<text text-anchor="middle" x="532.5" y="-158" font-family="Helvetica" font-size="10.00">Loop: &lt;none&gt;</text>
<text text-anchor="middle" x="532.5" y="-147" font-family="Helvetica" font-size="10.00">&#45;&#45;&#45;</text>
<text text-anchor="middle" x="532.5" y="-136" font-family="Helvetica" font-size="10.00">HotSpotMethod&lt;LoopBenchmarks.sieveLoop(boolean[], int)&gt;</text>
</g>
<!-- b0&#45;&gt;b2 -->
<g id="edge2" class="edge">
<title>b0&#45;&gt;b2</title>
<path fill="none" stroke="black" d="M283.21,-194.57C314.95,-189.51 348.76,-184.12 380.89,-179"/>
<polygon fill="black" stroke="black" points="381.48,-182.46 390.8,-177.42 380.38,-175.54 381.48,-182.46"/>
</g>
<!-- b3 -->
<g id="node4" class="node">
<title>b3</title>
<polygon fill="white" stroke="black" points="1065,-243 782,-243 782,-191 1065,-191 1065,-243"/>
<text text-anchor="middle" x="923.5" y="-231" font-family="Helvetica" font-size="10.00">B3</text>
<text text-anchor="middle" x="923.5" y="-220" font-family="Helvetica" font-size="10.00">Loop: &lt;none&gt;</text>
<text text-anchor="middle" x="923.5" y="-209" font-family="Helvetica" font-size="10.00">&#45;&#45;&#45;</text>
<text text-anchor="middle" x="923.5" y="-198" font-family="Helvetica" font-size="10.00">HotSpotMethod&lt;LoopBenchmarks.sieveLoop(boolean[], int)&gt;</text>
</g>
<!-- b1&#45;&gt;b3 -->
<g id="edge3" class="edge">
<title>b1&#45;&gt;b3</title>
<path fill="none" stroke="black" d="M674.21,-256.57C705.95,-251.51 739.76,-246.12 771.89,-241"/>
<polygon fill="black" stroke="black" points="772.48,-244.46 781.8,-239.42 771.38,-237.54 772.48,-244.46"/>
</g>
<!-- b2&#45;&gt;b3 -->
<g id="edge4" class="edge">
<title>b2&#45;&gt;b3</title>
<path fill="none" stroke="black" d="M674.21,-177.43C705.95,-182.49 739.76,-187.88 771.89,-193"/>
<polygon fill="black" stroke="black" points="771.38,-196.46 781.8,-194.58 772.48,-189.54 771.38,-196.46"/>
</g>
<!-- b5 -->
<g id="node6" class="node">
<title>b5</title>
<polygon fill="white" stroke="black" points="1456,-52 1173,-52 1173,0 1456,0 1456,-52"/>
<text text-anchor="middle" x="1314.5" y="-40" font-family="Helvetica" font-size="10.00">B5</text>
<text text-anchor="middle" x="1314.5" y="-29" font-family="Helvetica" font-size="10.00">Loop: &lt;none&gt;</text>
<text text-anchor="middle" x="1314.5" y="-18" font-family="Helvetica" font-size="10.00">&#45;&#45;&#45;</text>
<text text-anchor="middle" x="1314.5" y="-7" font-family="Helvetica" font-size="10.00">HotSpotMethod&lt;LoopBenchmarks.sieveLoop(boolean[], int)&gt;</text>
</g>
<!-- b3&#45;&gt;b5 -->
<g id="edge6" class="edge">
<title>b3&#45;&gt;b5</title>
<path fill="none" stroke="black" d="M972.61,-190.87C1022.34,-164.14 1102.44,-121.84 1173,-88 1195.51,-77.21 1220.34,-66.01 1242.8,-56.16"/>
<polygon fill="black" stroke="black" points="1244.5,-59.24 1252.26,-52.02 1241.69,-52.82 1244.5,-59.24"/>
</g>
<!-- b7 -->
<g id="node8" class="node">
<title>b7</title>
<polygon fill="white" stroke="black" points="1847,-249 1564,-249 1564,-197 1847,-197 1847,-249"/>
<text text-anchor="middle" x="1705.5" y="-237" font-family="Helvetica" font-size="10.00">B7</text>
<text text-anchor="middle" x="1705.5" y="-226" font-family="Helvetica" font-size="10.00">Loop: &lt;none&gt;</text>
<text text-anchor="middle" x="1705.5" y="-215" font-family="Helvetica" font-size="10.00">&#45;&#45;&#45;</text>
<text text-anchor="middle" x="1705.5" y="-204" font-family="Helvetica" font-size="10.00">HotSpotMethod&lt;LoopBenchmarks.sieveLoop(boolean[], int)&gt;</text>
</g>
<!-- b3&#45;&gt;b7 -->
<g id="edge5" class="edge">
<title>b3&#45;&gt;b7</title>
<path fill="none" stroke="black" d="M964.62,-243.21C1012.1,-272.52 1094.63,-318.2 1173,-336 1295.65,-363.85 1333.08,-362.64 1456,-336 1528.17,-320.36 1604.53,-281.9 1653.26,-254.19"/>
<polygon fill="black" stroke="black" points="1655.1,-257.17 1662.03,-249.15 1651.62,-251.1 1655.1,-257.17"/>
</g>
<!-- b4 -->
<g id="node5" class="node">
<title>b4</title>
<polygon fill="white" stroke="black" points="1456,-300 1173,-300 1173,-248 1456,-248 1456,-300"/>
<text text-anchor="middle" x="1314.5" y="-288" font-family="Helvetica" font-size="10.00">B4</text>
<text text-anchor="middle" x="1314.5" y="-277" font-family="Helvetica" font-size="10.00">Loop: &lt;none&gt;</text>
<text text-anchor="middle" x="1314.5" y="-266" font-family="Helvetica" font-size="10.00">&#45;&#45;&#45;</text>
<text text-anchor="middle" x="1314.5" y="-255" font-family="Helvetica" font-size="10.00">HotSpotMethod&lt;LoopBenchmarks.sieveLoop(boolean[], int)&gt;</text>
</g>
<!-- b4&#45;&gt;b7 -->
<g id="edge7" class="edge">
<title>b4&#45;&gt;b7</title>
<path fill="none" stroke="black" d="M1456.21,-255.55C1487.81,-251.41 1521.47,-247 1553.48,-242.8"/>
<polygon fill="black" stroke="black" points="1554.34,-246.22 1563.8,-241.45 1553.43,-239.28 1554.34,-246.22"/>
</g>
<!-- b5&#45;&gt;b7 -->
<g id="edge8" class="edge">
<title>b5&#45;&gt;b7</title>
<path fill="none" stroke="black" d="M1377.56,-52.08C1402.19,-62.77 1430.63,-75.54 1456,-88 1524.04,-121.42 1600.39,-163.63 1650.29,-191.88"/>
<polygon fill="black" stroke="black" points="1648.86,-195.09 1659.29,-196.98 1652.32,-189 1648.86,-195.09"/>
</g>
<!-- b37 -->
<g id="node38" class="node">
<title>b37</title>
<polygon fill="white" stroke="black" points="2238,-52 1955,-52 1955,0 2238,0 2238,-52"/>
<text text-anchor="middle" x="2096.5" y="-40" font-family="Helvetica" font-size="10.00">B37</text>
<text text-anchor="middle" x="2096.5" y="-29" font-family="Helvetica" font-size="10.00">Loop: &lt;none&gt;</text>
<text text-anchor="middle" x="2096.5" y="-18" font-family="Helvetica" font-size="10.00">&#45;&#45;&#45;</text>
<text text-anchor="middle" x="2096.5" y="-7" font-family="Helvetica" font-size="10.00">HotSpotMethod&lt;LoopBenchmarks.sieveLoop(boolean[], int)&gt;</text>
</g>
<!-- b5&#45;&gt;b37 -->
<g id="edge9" class="edge">
<title>b5&#45;&gt;b37</title>
<path fill="none" stroke="black" d="M1456.3,-26C1594.18,-26 1803.56,-26 1944.76,-26"/>
<polygon fill="black" stroke="black" points="1944.8,-29.5 1954.8,-26 1944.8,-22.5 1944.8,-29.5"/>
</g>
<!-- b6 -->
<g id="node7" class="node">
<title>b6</title>
<polygon fill="white" stroke="black" points="1456,-176 1173,-176 1173,-124 1456,-124 1456,-176"/>
<text text-anchor="middle" x="1314.5" y="-164" font-family="Helvetica" font-size="10.00">B6</text>
<text text-anchor="middle" x="1314.5" y="-153" font-family="Helvetica" font-size="10.00">Loop: &lt;none&gt;</text>
<text text-anchor="middle" x="1314.5" y="-142" font-family="Helvetica" font-size="10.00">&#45;&#45;&#45;</text>
<text text-anchor="middle" x="1314.5" y="-131" font-family="Helvetica" font-size="10.00">HotSpotMethod&lt;LoopBenchmarks.sieveLoop(boolean[], int)&gt;</text>
</g>
<!-- b6&#45;&gt;b7 -->
<g id="edge10" class="edge">
<title>b6&#45;&gt;b7</title>
<path fill="none" stroke="black" d="M1454.29,-176.05C1487.11,-182.21 1522.25,-188.8 1555.51,-195.04"/>
<polygon fill="black" stroke="black" points="1555.29,-198.56 1565.76,-196.96 1556.58,-191.68 1555.29,-198.56"/>
</g>
<!-- b8 -->
<g id="node9" class="node">
<title>b8</title>
<polygon fill="white" stroke="black" points="2238,-333 1955,-333 1955,-281 2238,-281 2238,-333"/>
<text text-anchor="middle" x="2096.5" y="-321" font-family="Helvetica" font-size="10.00">B8</text>
<text text-anchor="middle" x="2096.5" y="-310" font-family="Helvetica" font-size="10.00">Loop: &lt;none&gt;</text>
<text text-anchor="middle" x="2096.5" y="-299" font-family="Helvetica" font-size="10.00">&#45;&#45;&#45;</text>
<text text-anchor="middle" x="2096.5" y="-288" font-family="Helvetica" font-size="10.00">HotSpotMethod&lt;LoopBenchmarks.sieveLoop(boolean[], int)&gt;</text>
</g>
<!-- b7&#45;&gt;b8 -->
<g id="edge11" class="edge">
<title>b7&#45;&gt;b8</title>
<path fill="none" stroke="black" d="M1826.92,-249C1870.69,-258.45 1920.35,-269.18 1964.95,-278.81"/>
<polygon fill="black" stroke="black" points="1964.47,-282.29 1974.98,-280.98 1965.95,-275.44 1964.47,-282.29"/>
</g>
<!-- b21 -->
<g id="node22" class="node">
<title>b21</title>
<polygon fill="white" stroke="black" stroke-width="4" points="4604,-495.5 4321,-495.5 4321,-410.5 4604,-410.5 4604,-495.5"/>
<polygon fill="none" stroke="black" stroke-width="4" points="4608,-499.5 4317,-499.5 4317,-406.5 4608,-406.5 4608,-499.5"/>
<text text-anchor="middle" x="4462.5" y="-483.5" font-family="Helvetica" font-size="10.00">B21</text>
<text text-anchor="middle" x="4462.5" y="-472.5" font-family="Helvetica" font-size="10.00">Loop: &lt;none&gt;</text>
<text text-anchor="middle" x="4462.5" y="-461.5" font-family="Helvetica" font-size="10.00">&#45;&#45;&#45;</text>
<text text-anchor="middle" x="4462.5" y="-450.5" font-family="Helvetica" font-size="10.00">HotSpotMethod&lt;LoopBenchmarks.sieveLoop(boolean[], int)&gt;</text>
<text text-anchor="middle" x="4462.5" y="-439.5" font-family="Helvetica" font-size="10.00">&#45;&#45;&#45;</text>
<text text-anchor="middle" x="4462.5" y="-428.5" font-family="Helvetica" font-size="10.00">BuboLoopMakers:</text>
<text text-anchor="middle" x="4462.5" y="-417.5" font-family="Helvetica" font-size="10.00"> &#160;AMD64BuboRDTSCToSlot (LoopID=0)</text>
</g>
<!-- b7&#45;&gt;b21 -->
<g id="edge12" class="edge">
<title>b7&#45;&gt;b21</title>
<path fill="none" stroke="black" d="M1847.23,-208.25C2003.28,-193.19 2262.59,-172 2486.5,-172 2486.5,-172 2486.5,-172 3669.5,-172 3940.84,-172 4235.94,-320.31 4377.06,-401.44"/>
<polygon fill="black" stroke="black" points="4375.31,-404.47 4385.72,-406.44 4378.82,-398.41 4375.31,-404.47"/>
</g>
<!-- b9 -->
<g id="node10" class="node">
<title>b9</title>
<polygon fill="white" stroke="black" points="2629,-457 2346,-457 2346,-405 2629,-405 2629,-457"/>
<text text-anchor="middle" x="2487.5" y="-445" font-family="Helvetica" font-size="10.00">B9</text>
<text text-anchor="middle" x="2487.5" y="-434" font-family="Helvetica" font-size="10.00">Loop: &lt;none&gt;</text>
<text text-anchor="middle" x="2487.5" y="-423" font-family="Helvetica" font-size="10.00">&#45;&#45;&#45;</text>
<text text-anchor="middle" x="2487.5" y="-412" font-family="Helvetica" font-size="10.00">HotSpotMethod&lt;LoopBenchmarks.sieveLoop(boolean[], int)&gt;</text>
</g>
<!-- b8&#45;&gt;b9 -->
<g id="edge13" class="edge">
<title>b8&#45;&gt;b9</title>
<path fill="none" stroke="black" d="M2179.52,-333.15C2242.6,-353.25 2329.72,-381.02 2395.04,-401.85"/>
<polygon fill="black" stroke="black" points="2394.33,-405.29 2404.92,-405 2396.46,-398.62 2394.33,-405.29"/>
</g>
<!-- b19 -->
<g id="node20" class="node">
<title>b19</title>
<polygon fill="white" stroke="black" points="2629,-333 2346,-333 2346,-281 2629,-281 2629,-333"/>
<text text-anchor="middle" x="2487.5" y="-321" font-family="Helvetica" font-size="10.00">B19</text>
<text text-anchor="middle" x="2487.5" y="-310" font-family="Helvetica" font-size="10.00">Loop: &lt;none&gt;</text>
<text text-anchor="middle" x="2487.5" y="-299" font-family="Helvetica" font-size="10.00">&#45;&#45;&#45;</text>
<text text-anchor="middle" x="2487.5" y="-288" font-family="Helvetica" font-size="10.00">HotSpotMethod&lt;LoopBenchmarks.sieveLoop(boolean[], int)&gt;</text>
</g>
<!-- b8&#45;&gt;b19 -->
<g id="edge14" class="edge">
<title>b8&#45;&gt;b19</title>
<path fill="none" stroke="black" d="M2238.21,-307C2269.81,-307 2303.47,-307 2335.48,-307"/>
<polygon fill="black" stroke="black" points="2335.8,-310.5 2345.8,-307 2335.8,-303.5 2335.8,-310.5"/>
</g>
<!-- b10 -->
<g id="node11" class="node">
<title>b10</title>
<polygon fill="white" stroke="black" points="3020,-582 2737,-582 2737,-530 3020,-530 3020,-582"/>
<text text-anchor="middle" x="2878.5" y="-570" font-family="Helvetica" font-size="10.00">B10</text>
<text text-anchor="middle" x="2878.5" y="-559" font-family="Helvetica" font-size="10.00">Loop: &lt;none&gt;</text>
<text text-anchor="middle" x="2878.5" y="-548" font-family="Helvetica" font-size="10.00">&#45;&#45;&#45;</text>
<text text-anchor="middle" x="2878.5" y="-537" font-family="Helvetica" font-size="10.00">HotSpotMethod&lt;LoopBenchmarks.sieveLoop(boolean[], int)&gt;</text>
</g>
<!-- b9&#45;&gt;b10 -->
<g id="edge15" class="edge">
<title>b9&#45;&gt;b10</title>
<path fill="none" stroke="black" d="M2569.57,-457.05C2633.03,-477.44 2721.25,-505.79 2787,-526.92"/>
<polygon fill="black" stroke="black" points="2785.94,-530.25 2796.53,-529.98 2788.08,-523.59 2785.94,-530.25"/>
</g>
<!-- b9&#45;&gt;b21 -->
<g id="edge16" class="edge">
<title>b9&#45;&gt;b21</title>
<path fill="none" stroke="black" d="M2598.78,-404.93C2749.87,-371.56 3030.13,-318 3272.5,-318 3272.5,-318 3272.5,-318 3669.5,-318 3893.56,-318 4148.27,-371.15 4306.95,-410.76"/>
<polygon fill="black" stroke="black" points="4306.24,-414.19 4316.79,-413.23 4307.94,-407.4 4306.24,-414.19"/>
</g>
<!-- b11 -->
<g id="node12" class="node">
<title>b11</title>
<polygon fill="white" stroke="black" stroke-width="4" points="3415,-805.5 3132,-805.5 3132,-720.5 3415,-720.5 3415,-805.5"/>
<polygon fill="none" stroke="black" stroke-width="4" points="3419,-809.5 3128,-809.5 3128,-716.5 3419,-716.5 3419,-809.5"/>
<text text-anchor="middle" x="3273.5" y="-793.5" font-family="Helvetica" font-size="10.00">B11</text>
<text text-anchor="middle" x="3273.5" y="-782.5" font-family="Helvetica" font-size="10.00">Loop: &lt;none&gt;</text>
<text text-anchor="middle" x="3273.5" y="-771.5" font-family="Helvetica" font-size="10.00">&#45;&#45;&#45;</text>
<text text-anchor="middle" x="3273.5" y="-760.5" font-family="Helvetica" font-size="10.00">HotSpotMethod&lt;LoopBenchmarks.sieveLoop(boolean[], int)&gt;</text>
<text text-anchor="middle" x="3273.5" y="-749.5" font-family="Helvetica" font-size="10.00">&#45;&#45;&#45;</text>
<text text-anchor="middle" x="3273.5" y="-738.5" font-family="Helvetica" font-size="10.00">BuboLoopMakers:</text>
<text text-anchor="middle" x="3273.5" y="-727.5" font-family="Helvetica" font-size="10.00"> &#160;AMD64BuboRDTSCToSlot (LoopID=1)</text>
</g>
<!-- b10&#45;&gt;b11 -->
<g id="edge17" class="edge">
<title>b10&#45;&gt;b11</title>
<path fill="none" stroke="black" d="M2928.88,-582.01C2990.41,-614.42 3096.99,-670.56 3175.18,-711.74"/>
<polygon fill="black" stroke="black" points="3173.61,-714.87 3184.09,-716.43 3176.87,-708.67 3173.61,-714.87"/>
</g>
<!-- b17 -->
<g id="node18" class="node">
<title>b17</title>
<polygon fill="white" stroke="black" points="3415,-582 3132,-582 3132,-530 3415,-530 3415,-582"/>
<text text-anchor="middle" x="3273.5" y="-570" font-family="Helvetica" font-size="10.00">B17</text>
<text text-anchor="middle" x="3273.5" y="-559" font-family="Helvetica" font-size="10.00">Loop: &lt;none&gt;</text>
<text text-anchor="middle" x="3273.5" y="-548" font-family="Helvetica" font-size="10.00">&#45;&#45;&#45;</text>
<text text-anchor="middle" x="3273.5" y="-537" font-family="Helvetica" font-size="10.00">HotSpotMethod&lt;LoopBenchmarks.sieveLoop(boolean[], int)&gt;</text>
</g>
<!-- b10&#45;&gt;b17 -->
<g id="edge18" class="edge">
<title>b10&#45;&gt;b17</title>
<path fill="none" stroke="black" d="M3020.27,-556C3053.11,-556 3088.2,-556 3121.46,-556"/>
<polygon fill="black" stroke="black" points="3121.72,-559.5 3131.72,-556 3121.72,-552.5 3121.72,-559.5"/>
</g>
<!-- b12 -->
<g id="node13" class="node">
<title>b12</title>
<polygon fill="lightblue" stroke="black" points="3810,-820 3527,-820 3527,-768 3810,-768 3810,-820"/>
<text text-anchor="middle" x="3668.5" y="-808" font-family="Helvetica" font-size="10.00">B12</text>
<text text-anchor="middle" x="3668.5" y="-797" font-family="Helvetica" font-size="10.00">Loop: L0</text>
<text text-anchor="middle" x="3668.5" y="-786" font-family="Helvetica" font-size="10.00">&#45;&#45;&#45;</text>
<text text-anchor="middle" x="3668.5" y="-775" font-family="Helvetica" font-size="10.00">HotSpotMethod&lt;LoopBenchmarks.sieveLoop(boolean[], int)&gt;</text>
</g>
<!-- b11&#45;&gt;b12 -->
<g id="edge19" class="edge">
<title>b11&#45;&gt;b12</title>
<path fill="none" stroke="black" d="M3419.16,-774.41C3450.86,-776.91 3484.5,-779.56 3516.44,-782.08"/>
<polygon fill="black" stroke="black" points="3516.5,-785.6 3526.74,-782.9 3517.05,-778.62 3516.5,-785.6"/>
</g>
<!-- b13 -->
<g id="node14" class="node">
<title>b13</title>
<polygon fill="lightblue" stroke="black" points="4205,-893 3922,-893 3922,-841 4205,-841 4205,-893"/>
<text text-anchor="middle" x="4063.5" y="-881" font-family="Helvetica" font-size="10.00">B13</text>
<text text-anchor="middle" x="4063.5" y="-870" font-family="Helvetica" font-size="10.00">Loop: L0</text>
<text text-anchor="middle" x="4063.5" y="-859" font-family="Helvetica" font-size="10.00">&#45;&#45;&#45;</text>
<text text-anchor="middle" x="4063.5" y="-848" font-family="Helvetica" font-size="10.00">HotSpotMethod&lt;LoopBenchmarks.sieveLoop(boolean[], int)&gt;</text>
</g>
<!-- b12&#45;&gt;b13 -->
<g id="edge20" class="edge">
<title>b12&#45;&gt;b13</title>
<path fill="none" stroke="black" d="M3809.72,-820.05C3843.02,-826.23 3878.68,-832.86 3912.41,-839.12"/>
<polygon fill="black" stroke="black" points="3911.87,-842.58 3922.34,-840.96 3913.14,-835.7 3911.87,-842.58"/>
</g>
<!-- b15 -->
<g id="node16" class="node">
<title>b15</title>
<polygon fill="white" stroke="black" stroke-width="4" points="4205,-764.5 3922,-764.5 3922,-679.5 4205,-679.5 4205,-764.5"/>
<polygon fill="none" stroke="black" stroke-width="4" points="4209,-768.5 3918,-768.5 3918,-675.5 4209,-675.5 4209,-768.5"/>
<text text-anchor="middle" x="4063.5" y="-752.5" font-family="Helvetica" font-size="10.00">B15</text>
<text text-anchor="middle" x="4063.5" y="-741.5" font-family="Helvetica" font-size="10.00">Loop: &lt;none&gt;</text>
<text text-anchor="middle" x="4063.5" y="-730.5" font-family="Helvetica" font-size="10.00">&#45;&#45;&#45;</text>
<text text-anchor="middle" x="4063.5" y="-719.5" font-family="Helvetica" font-size="10.00">HotSpotMethod&lt;LoopBenchmarks.sieveLoop(boolean[], int)&gt;</text>
<text text-anchor="middle" x="4063.5" y="-708.5" font-family="Helvetica" font-size="10.00">&#45;&#45;&#45;</text>
<text text-anchor="middle" x="4063.5" y="-697.5" font-family="Helvetica" font-size="10.00">BuboLoopMakers:</text>
<text text-anchor="middle" x="4063.5" y="-686.5" font-family="Helvetica" font-size="10.00"> &#160;AMD64BuboWriteDeltaRDTSC (LoopID=1)</text>
</g>
<!-- b12&#45;&gt;b15 -->
<g id="edge21" class="edge">
<title>b12&#45;&gt;b15</title>
<path fill="none" stroke="black" d="M3810.27,-768.21C3841.91,-762.41 3875.65,-756.23 3907.82,-750.34"/>
<polygon fill="black" stroke="black" points="3908.54,-753.76 3917.75,-748.52 3907.28,-746.88 3908.54,-753.76"/>
</g>
<!-- b14 -->
<g id="node15" class="node">
<title>b14</title>
<polygon fill="lightblue" stroke="black" points="4604,-1022 4321,-1022 4321,-970 4604,-970 4604,-1022"/>
<text text-anchor="middle" x="4462.5" y="-1010" font-family="Helvetica" font-size="10.00">B14</text>
<text text-anchor="middle" x="4462.5" y="-999" font-family="Helvetica" font-size="10.00">Loop: L0</text>
<text text-anchor="middle" x="4462.5" y="-988" font-family="Helvetica" font-size="10.00">&#45;&#45;&#45;</text>
<text text-anchor="middle" x="4462.5" y="-977" font-family="Helvetica" font-size="10.00">HotSpotMethod&lt;LoopBenchmarks.sieveLoop(boolean[], int)&gt;</text>
</g>
<!-- b13&#45;&gt;b14 -->
<g id="edge22" class="edge">
<title>b13&#45;&gt;b14</title>
<path fill="none" stroke="black" d="M4144.84,-893.11C4210.49,-914.44 4303.25,-944.58 4371.41,-966.73"/>
<polygon fill="black" stroke="black" points="4370.69,-970.17 4381.28,-969.93 4372.85,-963.51 4370.69,-970.17"/>
</g>
<!-- b16 -->
<g id="node17" class="node">
<title>b16</title>
<polygon fill="white" stroke="black" points="4604,-893 4321,-893 4321,-841 4604,-841 4604,-893"/>
<text text-anchor="middle" x="4462.5" y="-881" font-family="Helvetica" font-size="10.00">B16</text>
<text text-anchor="middle" x="4462.5" y="-870" font-family="Helvetica" font-size="10.00">Loop: &lt;none&gt;</text>
<text text-anchor="middle" x="4462.5" y="-859" font-family="Helvetica" font-size="10.00">&#45;&#45;&#45;</text>
<text text-anchor="middle" x="4462.5" y="-848" font-family="Helvetica" font-size="10.00">HotSpotMethod&lt;LoopBenchmarks.sieveLoop(boolean[], int)&gt;</text>
</g>
<!-- b13&#45;&gt;b16 -->
<g id="edge23" class="edge">
<title>b13&#45;&gt;b16</title>
<path fill="none" stroke="black" d="M4205.03,-867C4239.23,-867 4275.96,-867 4310.63,-867"/>
<polygon fill="black" stroke="black" points="4310.83,-870.5 4320.83,-867 4310.83,-863.5 4310.83,-870.5"/>
</g>
<!-- b14&#45;&gt;b12 -->
<g id="edge24" class="edge">
<title>b14&#45;&gt;b12</title>
<path fill="none" stroke="black" d="M4320.77,-993.03C4209.18,-987.28 4050.52,-971.47 3918,-929 3842.51,-904.81 3763.4,-857.43 3715.26,-825.74"/>
<polygon fill="black" stroke="black" points="3716.91,-822.63 3706.64,-820.02 3713.03,-828.46 3716.91,-822.63"/>
</g>
<!-- b15&#45;&gt;b21 -->
<g id="edge25" class="edge">
<title>b15&#45;&gt;b21</title>
<path fill="none" stroke="black" d="M4149.52,-675.31C4169.3,-663.85 4190.1,-651.33 4209,-639 4273.57,-596.86 4343.97,-544.43 4393.99,-505.98"/>
<polygon fill="black" stroke="black" points="4396.37,-508.57 4402.15,-499.69 4392.1,-503.02 4396.37,-508.57"/>
</g>
<!-- b18 -->
<g id="node19" class="node">
<title>b18</title>
<polygon fill="white" stroke="black" points="4205,-603 3922,-603 3922,-551 4205,-551 4205,-603"/>
<text text-anchor="middle" x="4063.5" y="-591" font-family="Helvetica" font-size="10.00">B18</text>
<text text-anchor="middle" x="4063.5" y="-580" font-family="Helvetica" font-size="10.00">Loop: &lt;none&gt;</text>
<text text-anchor="middle" x="4063.5" y="-569" font-family="Helvetica" font-size="10.00">&#45;&#45;&#45;</text>
<text text-anchor="middle" x="4063.5" y="-558" font-family="Helvetica" font-size="10.00">HotSpotMethod&lt;LoopBenchmarks.sieveLoop(boolean[], int)&gt;</text>
</g>
<!-- b18&#45;&gt;b21 -->
<g id="edge26" class="edge">
<title>b18&#45;&gt;b21</title>
<path fill="none" stroke="black" d="M4148.21,-550.85C4194.35,-536.44 4253.1,-518.09 4307.22,-501.19"/>
<polygon fill="black" stroke="black" points="4308.42,-504.48 4316.92,-498.16 4306.33,-497.8 4308.42,-504.48"/>
</g>
<!-- b38 -->
<g id="node39" class="node">
<title>b38</title>
<polygon fill="white" stroke="black" points="3020,-58 2737,-58 2737,-6 3020,-6 3020,-58"/>
<text text-anchor="middle" x="2878.5" y="-46" font-family="Helvetica" font-size="10.00">B38</text>
<text text-anchor="middle" x="2878.5" y="-35" font-family="Helvetica" font-size="10.00">Loop: &lt;none&gt;</text>
<text text-anchor="middle" x="2878.5" y="-24" font-family="Helvetica" font-size="10.00">&#45;&#45;&#45;</text>
<text text-anchor="middle" x="2878.5" y="-13" font-family="Helvetica" font-size="10.00">HotSpotMethod&lt;LoopBenchmarks.sieveLoop(boolean[], int)&gt;</text>
</g>
<!-- b19&#45;&gt;b38 -->
<g id="edge27" class="edge">
<title>b19&#45;&gt;b38</title>
<path fill="none" stroke="black" d="M2525.45,-280.88C2597.08,-230.24 2754.64,-118.85 2832.35,-63.92"/>
<polygon fill="black" stroke="black" points="2834.37,-66.78 2840.52,-58.15 2830.33,-61.06 2834.37,-66.78"/>
</g>
<!-- b20 -->
<g id="node21" class="node">
<title>b20</title>
<polygon fill="white" stroke="black" points="4205,-479 3922,-479 3922,-427 4205,-427 4205,-479"/>
<text text-anchor="middle" x="4063.5" y="-467" font-family="Helvetica" font-size="10.00">B20</text>
<text text-anchor="middle" x="4063.5" y="-456" font-family="Helvetica" font-size="10.00">Loop: &lt;none&gt;</text>
<text text-anchor="middle" x="4063.5" y="-445" font-family="Helvetica" font-size="10.00">&#45;&#45;&#45;</text>
<text text-anchor="middle" x="4063.5" y="-434" font-family="Helvetica" font-size="10.00">HotSpotMethod&lt;LoopBenchmarks.sieveLoop(boolean[], int)&gt;</text>
</g>
<!-- b20&#45;&gt;b21 -->
<g id="edge28" class="edge">
<title>b20&#45;&gt;b21</title>
<path fill="none" stroke="black" d="M4205.03,-453C4237.87,-453 4273.04,-453 4306.48,-453"/>
<polygon fill="black" stroke="black" points="4306.8,-456.5 4316.8,-453 4306.8,-449.5 4306.8,-456.5"/>
</g>
<!-- b22 -->
<g id="node23" class="node">
<title>b22</title>
<polygon fill="lightgreen" stroke="black" points="4999,-479 4716,-479 4716,-427 4999,-427 4999,-479"/>
<text text-anchor="middle" x="4857.5" y="-467" font-family="Helvetica" font-size="10.00">B22</text>
<text text-anchor="middle" x="4857.5" y="-456" font-family="Helvetica" font-size="10.00">Loop: L1</text>
<text text-anchor="middle" x="4857.5" y="-445" font-family="Helvetica" font-size="10.00">&#45;&#45;&#45;</text>
<text text-anchor="middle" x="4857.5" y="-434" font-family="Helvetica" font-size="10.00">HotSpotMethod&lt;LoopBenchmarks.sieveLoop(boolean[], int)&gt;</text>
</g>
<!-- b21&#45;&gt;b22 -->
<g id="edge29" class="edge">
<title>b21&#45;&gt;b22</title>
<path fill="none" stroke="black" d="M4608.16,-453C4639.86,-453 4673.5,-453 4705.44,-453"/>
<polygon fill="black" stroke="black" points="4705.74,-456.5 4715.74,-453 4705.74,-449.5 4705.74,-456.5"/>
</g>
<!-- b23 -->
<g id="node24" class="node">
<title>b23</title>
<polygon fill="lightgreen" stroke="black" points="5390,-682 5107,-682 5107,-630 5390,-630 5390,-682"/>
<text text-anchor="middle" x="5248.5" y="-670" font-family="Helvetica" font-size="10.00">B23</text>
<text text-anchor="middle" x="5248.5" y="-659" font-family="Helvetica" font-size="10.00">Loop: L1</text>
<text text-anchor="middle" x="5248.5" y="-648" font-family="Helvetica" font-size="10.00">&#45;&#45;&#45;</text>
<text text-anchor="middle" x="5248.5" y="-637" font-family="Helvetica" font-size="10.00">HotSpotMethod&lt;LoopBenchmarks.sieveLoop(boolean[], int)&gt;</text>
</g>
<!-- b22&#45;&gt;b23 -->
<g id="edge30" class="edge">
<title>b22&#45;&gt;b23</title>
<path fill="none" stroke="black" d="M4908.56,-479.12C4980.33,-516.58 5112.23,-585.41 5188.6,-625.26"/>
<polygon fill="black" stroke="black" points="5187.15,-628.45 5197.63,-629.98 5190.39,-622.25 5187.15,-628.45"/>
</g>
<!-- b35 -->
<g id="node36" class="node">
<title>b35</title>
<polygon fill="white" stroke="black" points="5390,-406 5107,-406 5107,-354 5390,-354 5390,-406"/>
<text text-anchor="middle" x="5248.5" y="-394" font-family="Helvetica" font-size="10.00">B35</text>
<text text-anchor="middle" x="5248.5" y="-383" font-family="Helvetica" font-size="10.00">Loop: &lt;none&gt;</text>
<text text-anchor="middle" x="5248.5" y="-372" font-family="Helvetica" font-size="10.00">&#45;&#45;&#45;</text>
<text text-anchor="middle" x="5248.5" y="-361" font-family="Helvetica" font-size="10.00">HotSpotMethod&lt;LoopBenchmarks.sieveLoop(boolean[], int)&gt;</text>
</g>
<!-- b22&#45;&gt;b35 -->
<g id="edge31" class="edge">
<title>b22&#45;&gt;b35</title>
<path fill="none" stroke="black" d="M4997.29,-426.95C5030.11,-420.79 5065.25,-414.2 5098.51,-407.96"/>
<polygon fill="black" stroke="black" points="5099.58,-411.32 5108.76,-406.04 5098.29,-404.44 5099.58,-411.32"/>
</g>
<!-- b24 -->
<g id="node25" class="node">
<title>b24</title>
<polygon fill="lightgreen" stroke="black" points="5781,-682 5498,-682 5498,-630 5781,-630 5781,-682"/>
<text text-anchor="middle" x="5639.5" y="-670" font-family="Helvetica" font-size="10.00">B24</text>
<text text-anchor="middle" x="5639.5" y="-659" font-family="Helvetica" font-size="10.00">Loop: L1</text>
<text text-anchor="middle" x="5639.5" y="-648" font-family="Helvetica" font-size="10.00">&#45;&#45;&#45;</text>
<text text-anchor="middle" x="5639.5" y="-637" font-family="Helvetica" font-size="10.00">HotSpotMethod&lt;LoopBenchmarks.sieveLoop(boolean[], int)&gt;</text>
</g>
<!-- b23&#45;&gt;b24 -->
<g id="edge32" class="edge">
<title>b23&#45;&gt;b24</title>
<path fill="none" stroke="black" d="M5390.21,-656C5421.81,-656 5455.47,-656 5487.48,-656"/>
<polygon fill="black" stroke="black" points="5487.8,-659.5 5497.8,-656 5487.8,-652.5 5487.8,-659.5"/>
</g>
<!-- b34 -->
<g id="node35" class="node">
<title>b34</title>
<polygon fill="white" stroke="black" points="5781,-822 5498,-822 5498,-770 5781,-770 5781,-822"/>
<text text-anchor="middle" x="5639.5" y="-810" font-family="Helvetica" font-size="10.00">B34</text>
<text text-anchor="middle" x="5639.5" y="-799" font-family="Helvetica" font-size="10.00">Loop: &lt;none&gt;</text>
<text text-anchor="middle" x="5639.5" y="-788" font-family="Helvetica" font-size="10.00">&#45;&#45;&#45;</text>
<text text-anchor="middle" x="5639.5" y="-777" font-family="Helvetica" font-size="10.00">HotSpotMethod&lt;LoopBenchmarks.sieveLoop(boolean[], int)&gt;</text>
</g>
<!-- b23&#45;&gt;b34 -->
<g id="edge33" class="edge">
<title>b23&#45;&gt;b34</title>
<path fill="none" stroke="black" d="M5321.76,-682C5388.28,-705.95 5486.88,-741.43 5556.37,-766.44"/>
<polygon fill="black" stroke="black" points="5555.38,-769.8 5565.97,-769.9 5557.75,-763.22 5555.38,-769.8"/>
</g>
<!-- b25 -->
<g id="node26" class="node">
<title>b25</title>
<polygon fill="lightgreen" stroke="black" points="6172,-552 5889,-552 5889,-500 6172,-500 6172,-552"/>
<text text-anchor="middle" x="6030.5" y="-540" font-family="Helvetica" font-size="10.00">B25</text>
<text text-anchor="middle" x="6030.5" y="-529" font-family="Helvetica" font-size="10.00">Loop: L1</text>
<text text-anchor="middle" x="6030.5" y="-518" font-family="Helvetica" font-size="10.00">&#45;&#45;&#45;</text>
<text text-anchor="middle" x="6030.5" y="-507" font-family="Helvetica" font-size="10.00">HotSpotMethod&lt;LoopBenchmarks.sieveLoop(boolean[], int)&gt;</text>
</g>
<!-- b24&#45;&gt;b25 -->
<g id="edge34" class="edge">
<title>b24&#45;&gt;b25</title>
<path fill="none" stroke="black" d="M5718.75,-629.85C5783.25,-608.29 5874.68,-577.74 5941.67,-555.35"/>
<polygon fill="black" stroke="black" points="5943,-558.6 5951.37,-552.11 5940.78,-551.96 5943,-558.6"/>
</g>
<!-- b26 -->
<g id="node27" class="node">
<title>b26</title>
<polygon fill="lightgreen" stroke="black" points="6172,-681 5889,-681 5889,-629 6172,-629 6172,-681"/>
<text text-anchor="middle" x="6030.5" y="-669" font-family="Helvetica" font-size="10.00">B26</text>
<text text-anchor="middle" x="6030.5" y="-658" font-family="Helvetica" font-size="10.00">Loop: L1</text>
<text text-anchor="middle" x="6030.5" y="-647" font-family="Helvetica" font-size="10.00">&#45;&#45;&#45;</text>
<text text-anchor="middle" x="6030.5" y="-636" font-family="Helvetica" font-size="10.00">HotSpotMethod&lt;LoopBenchmarks.sieveLoop(boolean[], int)&gt;</text>
</g>
<!-- b24&#45;&gt;b26 -->
<g id="edge35" class="edge">
<title>b24&#45;&gt;b26</title>
<path fill="none" stroke="black" d="M5781.21,-655.64C5812.81,-655.56 5846.47,-655.47 5878.48,-655.39"/>
<polygon fill="black" stroke="black" points="5878.81,-658.89 5888.8,-655.36 5878.79,-651.89 5878.81,-658.89"/>
</g>
<!-- b25&#45;&gt;b22 -->
<g id="edge36" class="edge">
<title>b25&#45;&gt;b22</title>
<path fill="none" stroke="black" d="M5888.96,-517.24C5667.03,-503.4 5237.29,-476.61 5009.21,-462.39"/>
<polygon fill="black" stroke="black" points="5009.37,-458.9 4999.17,-461.77 5008.93,-465.88 5009.37,-458.9"/>
</g>
<!-- b27 -->
<g id="node28" class="node">
<title>b27</title>
<polygon fill="lightgreen" stroke="black" stroke-width="4" points="6567,-697.5 6284,-697.5 6284,-612.5 6567,-612.5 6567,-697.5"/>
<polygon fill="none" stroke="black" stroke-width="4" points="6571,-701.5 6280,-701.5 6280,-608.5 6571,-608.5 6571,-701.5"/>
<text text-anchor="middle" x="6425.5" y="-685.5" font-family="Helvetica" font-size="10.00">B27</text>
<text text-anchor="middle" x="6425.5" y="-674.5" font-family="Helvetica" font-size="10.00">Loop: L1</text>
<text text-anchor="middle" x="6425.5" y="-663.5" font-family="Helvetica" font-size="10.00">&#45;&#45;&#45;</text>
<text text-anchor="middle" x="6425.5" y="-652.5" font-family="Helvetica" font-size="10.00">HotSpotMethod&lt;LoopBenchmarks.sieveLoop(boolean[], int)&gt;</text>
<text text-anchor="middle" x="6425.5" y="-641.5" font-family="Helvetica" font-size="10.00">&#45;&#45;&#45;</text>
<text text-anchor="middle" x="6425.5" y="-630.5" font-family="Helvetica" font-size="10.00">BuboLoopMakers:</text>
<text text-anchor="middle" x="6425.5" y="-619.5" font-family="Helvetica" font-size="10.00"> &#160;AMD64BuboRDTSCToSlot (LoopID=2)</text>
</g>
<!-- b26&#45;&gt;b27 -->
<g id="edge37" class="edge">
<title>b26&#45;&gt;b27</title>
<path fill="none" stroke="black" d="M6172.27,-655C6203.77,-655 6237.36,-655 6269.4,-655"/>
<polygon fill="black" stroke="black" points="6269.75,-658.5 6279.75,-655 6269.75,-651.5 6269.75,-658.5"/>
</g>
<!-- b33 -->
<g id="node34" class="node">
<title>b33</title>
<polygon fill="white" stroke="black" points="6567,-536 6284,-536 6284,-484 6567,-484 6567,-536"/>
<text text-anchor="middle" x="6425.5" y="-524" font-family="Helvetica" font-size="10.00">B33</text>
<text text-anchor="middle" x="6425.5" y="-513" font-family="Helvetica" font-size="10.00">Loop: &lt;none&gt;</text>
<text text-anchor="middle" x="6425.5" y="-502" font-family="Helvetica" font-size="10.00">&#45;&#45;&#45;</text>
<text text-anchor="middle" x="6425.5" y="-491" font-family="Helvetica" font-size="10.00">HotSpotMethod&lt;LoopBenchmarks.sieveLoop(boolean[], int)&gt;</text>
</g>
<!-- b26&#45;&gt;b33 -->
<g id="edge38" class="edge">
<title>b26&#45;&gt;b33</title>
<path fill="none" stroke="black" d="M6102.21,-628.91C6170.28,-603.8 6273.09,-565.86 6344.21,-539.63"/>
<polygon fill="black" stroke="black" points="6345.85,-542.75 6354.02,-536 6343.43,-536.18 6345.85,-542.75"/>
</g>
<!-- b28 -->
<g id="node29" class="node">
<title>b28</title>
<polygon fill="lightpink" stroke="black" points="6962,-670 6679,-670 6679,-618 6962,-618 6962,-670"/>
<text text-anchor="middle" x="6820.5" y="-658" font-family="Helvetica" font-size="10.00">B28</text>
<text text-anchor="middle" x="6820.5" y="-647" font-family="Helvetica" font-size="10.00">Loop: L2</text>
<text text-anchor="middle" x="6820.5" y="-636" font-family="Helvetica" font-size="10.00">&#45;&#45;&#45;</text>
<text text-anchor="middle" x="6820.5" y="-625" font-family="Helvetica" font-size="10.00">HotSpotMethod&lt;LoopBenchmarks.sieveLoop(boolean[], int)&gt;</text>
</g>
<!-- b27&#45;&gt;b28 -->
<g id="edge39" class="edge">
<title>b27&#45;&gt;b28</title>
<path fill="none" stroke="black" d="M6571.16,-650.95C6602.86,-650.06 6636.5,-649.12 6668.44,-648.23"/>
<polygon fill="black" stroke="black" points="6668.84,-651.72 6678.74,-647.94 6668.65,-644.72 6668.84,-651.72"/>
</g>
<!-- b29 -->
<g id="node30" class="node">
<title>b29</title>
<polygon fill="lightpink" stroke="black" points="7357,-602 7074,-602 7074,-550 7357,-550 7357,-602"/>
<text text-anchor="middle" x="7215.5" y="-590" font-family="Helvetica" font-size="10.00">B29</text>
<text text-anchor="middle" x="7215.5" y="-579" font-family="Helvetica" font-size="10.00">Loop: L2</text>
<text text-anchor="middle" x="7215.5" y="-568" font-family="Helvetica" font-size="10.00">&#45;&#45;&#45;</text>
<text text-anchor="middle" x="7215.5" y="-557" font-family="Helvetica" font-size="10.00">HotSpotMethod&lt;LoopBenchmarks.sieveLoop(boolean[], int)&gt;</text>
</g>
<!-- b28&#45;&gt;b29 -->
<g id="edge40" class="edge">
<title>b28&#45;&gt;b29</title>
<path fill="none" stroke="black" d="M6962.27,-619.64C6995.11,-613.96 7030.2,-607.89 7063.46,-602.13"/>
<polygon fill="black" stroke="black" points="7064.46,-605.51 7073.72,-600.36 7063.27,-598.62 7064.46,-605.51"/>
</g>
<!-- b31 -->
<g id="node32" class="node">
<title>b31</title>
<polygon fill="lightgreen" stroke="black" stroke-width="4" points="7357,-411.5 7074,-411.5 7074,-326.5 7357,-326.5 7357,-411.5"/>
<polygon fill="none" stroke="black" stroke-width="4" points="7361,-415.5 7070,-415.5 7070,-322.5 7361,-322.5 7361,-415.5"/>
<text text-anchor="middle" x="7215.5" y="-399.5" font-family="Helvetica" font-size="10.00">B31</text>
<text text-anchor="middle" x="7215.5" y="-388.5" font-family="Helvetica" font-size="10.00">Loop: L1</text>
<text text-anchor="middle" x="7215.5" y="-377.5" font-family="Helvetica" font-size="10.00">&#45;&#45;&#45;</text>
<text text-anchor="middle" x="7215.5" y="-366.5" font-family="Helvetica" font-size="10.00">HotSpotMethod&lt;LoopBenchmarks.sieveLoop(boolean[], int)&gt;</text>
<text text-anchor="middle" x="7215.5" y="-355.5" font-family="Helvetica" font-size="10.00">&#45;&#45;&#45;</text>
<text text-anchor="middle" x="7215.5" y="-344.5" font-family="Helvetica" font-size="10.00">BuboLoopMakers:</text>
<text text-anchor="middle" x="7215.5" y="-333.5" font-family="Helvetica" font-size="10.00"> &#160;AMD64BuboWriteDeltaRDTSC (LoopID=2)</text>
</g>
<!-- b28&#45;&gt;b31 -->
<g id="edge41" class="edge">
<title>b28&#45;&gt;b31</title>
<path fill="none" stroke="black" d="M6878.69,-617.98C6904.79,-605.28 6935.67,-589.08 6962,-572 7031.88,-526.68 7105.4,-465.87 7154.97,-422.65"/>
<polygon fill="black" stroke="black" points="7157.5,-425.09 7162.71,-415.87 7152.89,-419.82 7157.5,-425.09"/>
</g>
<!-- b30 -->
<g id="node31" class="node">
<title>b30</title>
<polygon fill="lightpink" stroke="black" points="7752,-731 7469,-731 7469,-679 7752,-679 7752,-731"/>
<text text-anchor="middle" x="7610.5" y="-719" font-family="Helvetica" font-size="10.00">B30</text>
<text text-anchor="middle" x="7610.5" y="-708" font-family="Helvetica" font-size="10.00">Loop: L2</text>
<text text-anchor="middle" x="7610.5" y="-697" font-family="Helvetica" font-size="10.00">&#45;&#45;&#45;</text>
<text text-anchor="middle" x="7610.5" y="-686" font-family="Helvetica" font-size="10.00">HotSpotMethod&lt;LoopBenchmarks.sieveLoop(boolean[], int)&gt;</text>
</g>
<!-- b29&#45;&gt;b30 -->
<g id="edge42" class="edge">
<title>b29&#45;&gt;b30</title>
<path fill="none" stroke="black" d="M7296.03,-602.11C7361.02,-623.44 7452.84,-653.58 7520.32,-675.73"/>
<polygon fill="black" stroke="black" points="7519.5,-679.14 7530.09,-678.93 7521.68,-672.49 7519.5,-679.14"/>
</g>
<!-- b32 -->
<g id="node33" class="node">
<title>b32</title>
<polygon fill="white" stroke="black" points="7752,-602 7469,-602 7469,-550 7752,-550 7752,-602"/>
<text text-anchor="middle" x="7610.5" y="-590" font-family="Helvetica" font-size="10.00">B32</text>
<text text-anchor="middle" x="7610.5" y="-579" font-family="Helvetica" font-size="10.00">Loop: &lt;none&gt;</text>
<text text-anchor="middle" x="7610.5" y="-568" font-family="Helvetica" font-size="10.00">&#45;&#45;&#45;</text>
<text text-anchor="middle" x="7610.5" y="-557" font-family="Helvetica" font-size="10.00">HotSpotMethod&lt;LoopBenchmarks.sieveLoop(boolean[], int)&gt;</text>
</g>
<!-- b29&#45;&gt;b32 -->
<g id="edge43" class="edge">
<title>b29&#45;&gt;b32</title>
<path fill="none" stroke="black" d="M7357.27,-576C7390.11,-576 7425.2,-576 7458.46,-576"/>
<polygon fill="black" stroke="black" points="7458.72,-579.5 7468.72,-576 7458.72,-572.5 7458.72,-579.5"/>
</g>
<!-- b30&#45;&gt;b28 -->
<g id="edge44" class="edge">
<title>b30&#45;&gt;b28</title>
<path fill="none" stroke="black" d="M7468.85,-694.11C7329.18,-683.3 7115.76,-666.78 6972.57,-655.69"/>
<polygon fill="black" stroke="black" points="6972.62,-652.19 6962.38,-654.91 6972.08,-659.17 6972.62,-652.19"/>
</g>
<!-- b31&#45;&gt;b22 -->
<g id="edge45" class="edge">
<title>b31&#45;&gt;b22</title>
<path fill="none" stroke="black" d="M7069.91,-327.56C6912.89,-286.28 6654.03,-229 6426.5,-229 5638.5,-229 5638.5,-229 5638.5,-229 5398.99,-229 5333.45,-239.98 5107,-318 5032.71,-343.59 4954.19,-389.95 4905.76,-421.1"/>
<polygon fill="black" stroke="black" points="4903.56,-418.36 4897.07,-426.73 4907.37,-424.23 4903.56,-418.36"/>
</g>
<!-- b36 -->
<g id="node37" class="node">
<title>b36</title>
<polygon fill="white" stroke="black" points="6962,-536 6679,-536 6679,-484 6962,-484 6962,-536"/>
<text text-anchor="middle" x="6820.5" y="-524" font-family="Helvetica" font-size="10.00">B36</text>
<text text-anchor="middle" x="6820.5" y="-513" font-family="Helvetica" font-size="10.00">Loop: &lt;none&gt;</text>
<text text-anchor="middle" x="6820.5" y="-502" font-family="Helvetica" font-size="10.00">&#45;&#45;&#45;</text>
<text text-anchor="middle" x="6820.5" y="-491" font-family="Helvetica" font-size="10.00">HotSpotMethod&lt;LoopBenchmarks.sieveLoop(boolean[], int)&gt;</text>
</g>
<!-- b33&#45;&gt;b36 -->
<g id="edge46" class="edge">
<title>b33&#45;&gt;b36</title>
<path fill="none" stroke="black" d="M6567.27,-510C6600.11,-510 6635.2,-510 6668.46,-510"/>
<polygon fill="black" stroke="black" points="6668.72,-513.5 6678.72,-510 6668.72,-506.5 6668.72,-513.5"/>
</g>
<!-- b34&#45;&gt;b36 -->
<g id="edge47" class="edge">
<title>b34&#45;&gt;b36</title>
<path fill="none" stroke="black" d="M5773.92,-822.06C5964.28,-852.01 6318.67,-880.39 6571,-738 6644.44,-696.56 6615.57,-637.57 6679,-582 6697.84,-565.49 6721.14,-551.59 6743.32,-540.54"/>
<polygon fill="black" stroke="black" points="6744.93,-543.65 6752.4,-536.14 6741.88,-537.35 6744.93,-543.65"/>
</g>
<!-- b35&#45;&gt;b36 -->
<g id="edge48" class="edge">
<title>b35&#45;&gt;b36</title>
<path fill="none" stroke="black" d="M5390.23,-378.36C5632.73,-377.52 6144.39,-384.42 6571,-448 6621.7,-455.56 6677.14,-468.88 6722.76,-481.25"/>
<polygon fill="black" stroke="black" points="6722.07,-484.69 6732.64,-483.95 6723.92,-477.94 6722.07,-484.69"/>
</g>
<!-- b37&#45;&gt;b38 -->
<g id="edge49" class="edge">
<title>b37&#45;&gt;b38</title>
<path fill="none" stroke="black" d="M2238.3,-27.08C2376.18,-28.14 2585.56,-29.75 2726.76,-30.84"/>
<polygon fill="black" stroke="black" points="2726.78,-34.34 2736.8,-30.92 2726.83,-27.34 2726.78,-34.34"/>
</g>
</g>
</svg>
