<?xml version="1.0" encoding="UTF-8" standalone="no"?>
<!DOCTYPE svg PUBLIC "-//W3C//DTD SVG 1.1//EN"
 "http://www.w3.org/Graphics/SVG/1.1/DTD/svg11.dtd">
<!-- Generated by graphviz version 2.44.0 (0)
 -->
<!-- Title: CFG_144 Pages: 1 -->
<svg width="4367pt" height="593pt"
 viewBox="0.00 0.00 4367.00 592.50" xmlns="http://www.w3.org/2000/svg" xmlns:xlink="http://www.w3.org/1999/xlink">
<g id="graph0" class="graph" transform="scale(1 1) rotate(0) translate(4 588.5)">
<title>CFG_144</title>
<polygon fill="white" stroke="transparent" points="-4,4 -4,-588.5 4363,-588.5 4363,4 -4,4"/>
<text text-anchor="middle" x="189" y="-564.5" font-family="Times-Roman" font-size="20.00">215&#45;LoopBenchmarks.main(String[])</text>
<!-- b0 -->
<g id="node1" class="node">
<title>b0</title>
<polygon fill="white" stroke="black" points="235,-243 0,-243 0,-191 235,-191 235,-243"/>
<text text-anchor="middle" x="117.5" y="-231" font-family="Helvetica" font-size="10.00">B0</text>
<text text-anchor="middle" x="117.5" y="-220" font-family="Helvetica" font-size="10.00">Loop: &lt;none&gt;</text>
<text text-anchor="middle" x="117.5" y="-209" font-family="Helvetica" font-size="10.00">&#45;&#45;&#45;</text>
<text text-anchor="middle" x="117.5" y="-198" font-family="Helvetica" font-size="10.00">HotSpotMethod&lt;LoopBenchmarks.main(String[])&gt;</text>
</g>
<!-- b1 -->
<g id="node2" class="node">
<title>b1</title>
<polygon fill="white" stroke="black" points="578,-305 343,-305 343,-253 578,-253 578,-305"/>
<text text-anchor="middle" x="460.5" y="-293" font-family="Helvetica" font-size="10.00">B1</text>
<text text-anchor="middle" x="460.5" y="-282" font-family="Helvetica" font-size="10.00">Loop: &lt;none&gt;</text>
<text text-anchor="middle" x="460.5" y="-271" font-family="Helvetica" font-size="10.00">&#45;&#45;&#45;</text>
<text text-anchor="middle" x="460.5" y="-260" font-family="Helvetica" font-size="10.00">HotSpotMethod&lt;LoopBenchmarks.main(String[])&gt;</text>
</g>
<!-- b0&#45;&gt;b1 -->
<g id="edge1" class="edge">
<title>b0&#45;&gt;b1</title>
<path fill="none" stroke="black" d="M235.38,-238.25C266.83,-243.97 300.99,-250.18 332.94,-255.99"/>
<polygon fill="black" stroke="black" points="332.31,-259.43 342.78,-257.78 333.56,-252.55 332.31,-259.43"/>
</g>
<!-- b2 -->
<g id="node3" class="node">
<title>b2</title>
<polygon fill="white" stroke="black" points="578,-181 343,-181 343,-129 578,-129 578,-181"/>
<text text-anchor="middle" x="460.5" y="-169" font-family="Helvetica" font-size="10.00">B2</text>
<text text-anchor="middle" x="460.5" y="-158" font-family="Helvetica" font-size="10.00">Loop: &lt;none&gt;</text>
<text text-anchor="middle" x="460.5" y="-147" font-family="Helvetica" font-size="10.00">&#45;&#45;&#45;</text>
<text text-anchor="middle" x="460.5" y="-136" font-family="Helvetica" font-size="10.00">HotSpotMethod&lt;LoopBenchmarks.main(String[])&gt;</text>
</g>
<!-- b0&#45;&gt;b2 -->
<g id="edge2" class="edge">
<title>b0&#45;&gt;b2</title>
<path fill="none" stroke="black" d="M235.38,-195.75C266.83,-190.03 300.99,-183.82 332.94,-178.01"/>
<polygon fill="black" stroke="black" points="333.56,-181.45 342.78,-176.22 332.31,-174.57 333.56,-181.45"/>
</g>
<!-- b3 -->
<g id="node4" class="node">
<title>b3</title>
<polygon fill="white" stroke="black" points="921,-243 686,-243 686,-191 921,-191 921,-243"/>
<text text-anchor="middle" x="803.5" y="-231" font-family="Helvetica" font-size="10.00">B3</text>
<text text-anchor="middle" x="803.5" y="-220" font-family="Helvetica" font-size="10.00">Loop: &lt;none&gt;</text>
<text text-anchor="middle" x="803.5" y="-209" font-family="Helvetica" font-size="10.00">&#45;&#45;&#45;</text>
<text text-anchor="middle" x="803.5" y="-198" font-family="Helvetica" font-size="10.00">HotSpotMethod&lt;LoopBenchmarks.main(String[])&gt;</text>
</g>
<!-- b1&#45;&gt;b3 -->
<g id="edge3" class="edge">
<title>b1&#45;&gt;b3</title>
<path fill="none" stroke="black" d="M578.38,-257.75C609.83,-252.03 643.99,-245.82 675.94,-240.01"/>
<polygon fill="black" stroke="black" points="676.56,-243.45 685.78,-238.22 675.31,-236.57 676.56,-243.45"/>
</g>
<!-- b2&#45;&gt;b3 -->
<g id="edge4" class="edge">
<title>b2&#45;&gt;b3</title>
<path fill="none" stroke="black" d="M578.38,-176.25C609.83,-181.97 643.99,-188.18 675.94,-193.99"/>
<polygon fill="black" stroke="black" points="675.31,-197.43 685.78,-195.78 676.56,-190.55 675.31,-197.43"/>
</g>
<!-- b5 -->
<g id="node6" class="node">
<title>b5</title>
<polygon fill="white" stroke="black" points="1264,-52 1029,-52 1029,0 1264,0 1264,-52"/>
<text text-anchor="middle" x="1146.5" y="-40" font-family="Helvetica" font-size="10.00">B5</text>
<text text-anchor="middle" x="1146.5" y="-29" font-family="Helvetica" font-size="10.00">Loop: &lt;none&gt;</text>
<text text-anchor="middle" x="1146.5" y="-18" font-family="Helvetica" font-size="10.00">&#45;&#45;&#45;</text>
<text text-anchor="middle" x="1146.5" y="-7" font-family="Helvetica" font-size="10.00">HotSpotMethod&lt;LoopBenchmarks.main(String[])&gt;</text>
</g>
<!-- b3&#45;&gt;b5 -->
<g id="edge6" class="edge">
<title>b3&#45;&gt;b5</title>
<path fill="none" stroke="black" d="M848.98,-190.87C894.1,-164.5 966.07,-122.82 1029,-88 1047.69,-77.66 1068.22,-66.63 1086.77,-56.78"/>
<polygon fill="black" stroke="black" points="1088.51,-59.82 1095.71,-52.04 1085.23,-53.63 1088.51,-59.82"/>
</g>
<!-- b7 -->
<g id="node8" class="node">
<title>b7</title>
<polygon fill="white" stroke="black" points="1607,-246 1372,-246 1372,-194 1607,-194 1607,-246"/>
<text text-anchor="middle" x="1489.5" y="-234" font-family="Helvetica" font-size="10.00">B7</text>
<text text-anchor="middle" x="1489.5" y="-223" font-family="Helvetica" font-size="10.00">Loop: &lt;none&gt;</text>
<text text-anchor="middle" x="1489.5" y="-212" font-family="Helvetica" font-size="10.00">&#45;&#45;&#45;</text>
<text text-anchor="middle" x="1489.5" y="-201" font-family="Helvetica" font-size="10.00">HotSpotMethod&lt;LoopBenchmarks.main(String[])&gt;</text>
</g>
<!-- b3&#45;&gt;b7 -->
<g id="edge5" class="edge">
<title>b3&#45;&gt;b7</title>
<path fill="none" stroke="black" d="M840.35,-243.18C882.87,-272.46 957.08,-318.12 1029,-336 1130.36,-361.2 1162.51,-360.67 1264,-336 1330.74,-319.78 1399.82,-280.01 1443.41,-251.57"/>
<polygon fill="black" stroke="black" points="1445.36,-254.47 1451.78,-246.04 1441.5,-248.63 1445.36,-254.47"/>
</g>
<!-- b4 -->
<g id="node5" class="node">
<title>b4</title>
<polygon fill="white" stroke="black" points="1264,-300 1029,-300 1029,-248 1264,-248 1264,-300"/>
<text text-anchor="middle" x="1146.5" y="-288" font-family="Helvetica" font-size="10.00">B4</text>
<text text-anchor="middle" x="1146.5" y="-277" font-family="Helvetica" font-size="10.00">Loop: &lt;none&gt;</text>
<text text-anchor="middle" x="1146.5" y="-266" font-family="Helvetica" font-size="10.00">&#45;&#45;&#45;</text>
<text text-anchor="middle" x="1146.5" y="-255" font-family="Helvetica" font-size="10.00">HotSpotMethod&lt;LoopBenchmarks.main(String[])&gt;</text>
</g>
<!-- b4&#45;&gt;b7 -->
<g id="edge7" class="edge">
<title>b4&#45;&gt;b7</title>
<path fill="none" stroke="black" d="M1264.38,-255.49C1295.69,-250.53 1329.69,-245.15 1361.52,-240.11"/>
<polygon fill="black" stroke="black" points="1362.45,-243.51 1371.78,-238.48 1361.35,-236.59 1362.45,-243.51"/>
</g>
<!-- b5&#45;&gt;b7 -->
<g id="edge8" class="edge">
<title>b5&#45;&gt;b7</title>
<path fill="none" stroke="black" d="M1197.64,-52.09C1218.3,-62.99 1242.41,-75.91 1264,-88 1323.73,-121.44 1391.34,-161.49 1436.61,-188.65"/>
<polygon fill="black" stroke="black" points="1434.98,-191.75 1445.36,-193.9 1438.59,-185.75 1434.98,-191.75"/>
</g>
<!-- b23 -->
<g id="node24" class="node">
<title>b23</title>
<polygon fill="white" stroke="black" points="2293,-52 2058,-52 2058,0 2293,0 2293,-52"/>
<text text-anchor="middle" x="2175.5" y="-40" font-family="Helvetica" font-size="10.00">B23</text>
<text text-anchor="middle" x="2175.5" y="-29" font-family="Helvetica" font-size="10.00">Loop: &lt;none&gt;</text>
<text text-anchor="middle" x="2175.5" y="-18" font-family="Helvetica" font-size="10.00">&#45;&#45;&#45;</text>
<text text-anchor="middle" x="2175.5" y="-7" font-family="Helvetica" font-size="10.00">HotSpotMethod&lt;LoopBenchmarks.main(String[])&gt;</text>
</g>
<!-- b5&#45;&gt;b23 -->
<g id="edge9" class="edge">
<title>b5&#45;&gt;b23</title>
<path fill="none" stroke="black" d="M1264.31,-26C1458.7,-26 1847.03,-26 2047.79,-26"/>
<polygon fill="black" stroke="black" points="2047.8,-29.5 2057.8,-26 2047.8,-22.5 2047.8,-29.5"/>
</g>
<!-- b6 -->
<g id="node7" class="node">
<title>b6</title>
<polygon fill="white" stroke="black" points="1264,-176 1029,-176 1029,-124 1264,-124 1264,-176"/>
<text text-anchor="middle" x="1146.5" y="-164" font-family="Helvetica" font-size="10.00">B6</text>
<text text-anchor="middle" x="1146.5" y="-153" font-family="Helvetica" font-size="10.00">Loop: &lt;none&gt;</text>
<text text-anchor="middle" x="1146.5" y="-142" font-family="Helvetica" font-size="10.00">&#45;&#45;&#45;</text>
<text text-anchor="middle" x="1146.5" y="-131" font-family="Helvetica" font-size="10.00">HotSpotMethod&lt;LoopBenchmarks.main(String[])&gt;</text>
</g>
<!-- b6&#45;&gt;b7 -->
<g id="edge10" class="edge">
<title>b6&#45;&gt;b7</title>
<path fill="none" stroke="black" d="M1264.38,-173.99C1295.83,-180.45 1329.99,-187.46 1361.94,-194.02"/>
<polygon fill="black" stroke="black" points="1361.28,-197.46 1371.78,-196.04 1362.69,-190.6 1361.28,-197.46"/>
</g>
<!-- b8 -->
<g id="node9" class="node">
<title>b8</title>
<polygon fill="white" stroke="black" points="1950,-316 1715,-316 1715,-264 1950,-264 1950,-316"/>
<text text-anchor="middle" x="1832.5" y="-304" font-family="Helvetica" font-size="10.00">B8</text>
<text text-anchor="middle" x="1832.5" y="-293" font-family="Helvetica" font-size="10.00">Loop: &lt;none&gt;</text>
<text text-anchor="middle" x="1832.5" y="-282" font-family="Helvetica" font-size="10.00">&#45;&#45;&#45;</text>
<text text-anchor="middle" x="1832.5" y="-271" font-family="Helvetica" font-size="10.00">HotSpotMethod&lt;LoopBenchmarks.main(String[])&gt;</text>
</g>
<!-- b7&#45;&gt;b8 -->
<g id="edge11" class="edge">
<title>b7&#45;&gt;b8</title>
<path fill="none" stroke="black" d="M1607.38,-243.99C1638.83,-250.45 1672.99,-257.46 1704.94,-264.02"/>
<polygon fill="black" stroke="black" points="1704.28,-267.46 1714.78,-266.04 1705.69,-260.6 1704.28,-267.46"/>
</g>
<!-- b9 -->
<g id="node10" class="node">
<title>b9</title>
<polygon fill="white" stroke="black" points="1950,-192 1715,-192 1715,-140 1950,-140 1950,-192"/>
<text text-anchor="middle" x="1832.5" y="-180" font-family="Helvetica" font-size="10.00">B9</text>
<text text-anchor="middle" x="1832.5" y="-169" font-family="Helvetica" font-size="10.00">Loop: &lt;none&gt;</text>
<text text-anchor="middle" x="1832.5" y="-158" font-family="Helvetica" font-size="10.00">&#45;&#45;&#45;</text>
<text text-anchor="middle" x="1832.5" y="-147" font-family="Helvetica" font-size="10.00">HotSpotMethod&lt;LoopBenchmarks.main(String[])&gt;</text>
</g>
<!-- b7&#45;&gt;b9 -->
<g id="edge12" class="edge">
<title>b7&#45;&gt;b9</title>
<path fill="none" stroke="black" d="M1607.38,-201.49C1638.69,-196.53 1672.69,-191.15 1704.52,-186.11"/>
<polygon fill="black" stroke="black" points="1705.45,-189.51 1714.78,-184.48 1704.35,-182.59 1705.45,-189.51"/>
</g>
<!-- b10 -->
<g id="node11" class="node">
<title>b10</title>
<polygon fill="white" stroke="black" points="2293,-257 2058,-257 2058,-205 2293,-205 2293,-257"/>
<text text-anchor="middle" x="2175.5" y="-245" font-family="Helvetica" font-size="10.00">B10</text>
<text text-anchor="middle" x="2175.5" y="-234" font-family="Helvetica" font-size="10.00">Loop: &lt;none&gt;</text>
<text text-anchor="middle" x="2175.5" y="-223" font-family="Helvetica" font-size="10.00">&#45;&#45;&#45;</text>
<text text-anchor="middle" x="2175.5" y="-212" font-family="Helvetica" font-size="10.00">HotSpotMethod&lt;LoopBenchmarks.main(String[])&gt;</text>
</g>
<!-- b8&#45;&gt;b10 -->
<g id="edge13" class="edge">
<title>b8&#45;&gt;b10</title>
<path fill="none" stroke="black" d="M1950.38,-269.78C1981.69,-264.36 2015.69,-258.48 2047.52,-252.97"/>
<polygon fill="black" stroke="black" points="2048.52,-256.35 2057.78,-251.2 2047.33,-249.45 2048.52,-256.35"/>
</g>
<!-- b9&#45;&gt;b10 -->
<g id="edge14" class="edge">
<title>b9&#45;&gt;b10</title>
<path fill="none" stroke="black" d="M1950.38,-188.28C1981.83,-194.27 2015.99,-200.78 2047.94,-206.88"/>
<polygon fill="black" stroke="black" points="2047.3,-210.32 2057.78,-208.75 2048.61,-203.44 2047.3,-210.32"/>
</g>
<!-- b12 -->
<g id="node13" class="node">
<title>b12</title>
<polygon fill="white" stroke="black" points="2636,-198 2401,-198 2401,-146 2636,-146 2636,-198"/>
<text text-anchor="middle" x="2518.5" y="-186" font-family="Helvetica" font-size="10.00">B12</text>
<text text-anchor="middle" x="2518.5" y="-175" font-family="Helvetica" font-size="10.00">Loop: &lt;none&gt;</text>
<text text-anchor="middle" x="2518.5" y="-164" font-family="Helvetica" font-size="10.00">&#45;&#45;&#45;</text>
<text text-anchor="middle" x="2518.5" y="-153" font-family="Helvetica" font-size="10.00">HotSpotMethod&lt;LoopBenchmarks.main(String[])&gt;</text>
</g>
<!-- b10&#45;&gt;b12 -->
<g id="edge16" class="edge">
<title>b10&#45;&gt;b12</title>
<path fill="none" stroke="black" d="M2293.38,-210.78C2324.69,-205.36 2358.69,-199.48 2390.52,-193.97"/>
<polygon fill="black" stroke="black" points="2391.52,-197.35 2400.78,-192.2 2390.33,-190.45 2391.52,-197.35"/>
</g>
<!-- b14 -->
<g id="node15" class="node">
<title>b14</title>
<polygon fill="white" stroke="black" points="2979,-389 2744,-389 2744,-337 2979,-337 2979,-389"/>
<text text-anchor="middle" x="2861.5" y="-377" font-family="Helvetica" font-size="10.00">B14</text>
<text text-anchor="middle" x="2861.5" y="-366" font-family="Helvetica" font-size="10.00">Loop: &lt;none&gt;</text>
<text text-anchor="middle" x="2861.5" y="-355" font-family="Helvetica" font-size="10.00">&#45;&#45;&#45;</text>
<text text-anchor="middle" x="2861.5" y="-344" font-family="Helvetica" font-size="10.00">HotSpotMethod&lt;LoopBenchmarks.main(String[])&gt;</text>
</g>
<!-- b10&#45;&gt;b14 -->
<g id="edge15" class="edge">
<title>b10&#45;&gt;b14</title>
<path fill="none" stroke="black" d="M2190.02,-257.36C2219.59,-311.69 2295.86,-434.98 2401,-482 2496.34,-524.64 2534.64,-507.2 2636,-482 2703.42,-465.24 2772.86,-424.06 2816.31,-394.85"/>
<polygon fill="black" stroke="black" points="2818.35,-397.7 2824.65,-389.18 2814.41,-391.91 2818.35,-397.7"/>
</g>
<!-- b11 -->
<g id="node12" class="node">
<title>b11</title>
<polygon fill="white" stroke="black" points="2636,-446 2401,-446 2401,-394 2636,-394 2636,-446"/>
<text text-anchor="middle" x="2518.5" y="-434" font-family="Helvetica" font-size="10.00">B11</text>
<text text-anchor="middle" x="2518.5" y="-423" font-family="Helvetica" font-size="10.00">Loop: &lt;none&gt;</text>
<text text-anchor="middle" x="2518.5" y="-412" font-family="Helvetica" font-size="10.00">&#45;&#45;&#45;</text>
<text text-anchor="middle" x="2518.5" y="-401" font-family="Helvetica" font-size="10.00">HotSpotMethod&lt;LoopBenchmarks.main(String[])&gt;</text>
</g>
<!-- b11&#45;&gt;b14 -->
<g id="edge17" class="edge">
<title>b11&#45;&gt;b14</title>
<path fill="none" stroke="black" d="M2636.38,-400.46C2667.69,-395.23 2701.69,-389.55 2733.52,-384.22"/>
<polygon fill="black" stroke="black" points="2734.49,-387.61 2743.78,-382.51 2733.34,-380.71 2734.49,-387.61"/>
</g>
<!-- b12&#45;&gt;b14 -->
<g id="edge18" class="edge">
<title>b12&#45;&gt;b14</title>
<path fill="none" stroke="black" d="M2569.29,-198.04C2590.01,-209 2614.25,-221.97 2636,-234 2695,-266.64 2761.94,-305.32 2807.25,-331.75"/>
<polygon fill="black" stroke="black" points="2805.62,-334.85 2816.02,-336.87 2809.15,-328.81 2805.62,-334.85"/>
</g>
<!-- b22 -->
<g id="node23" class="node">
<title>b22</title>
<polygon fill="white" stroke="black" points="2979,-198 2744,-198 2744,-146 2979,-146 2979,-198"/>
<text text-anchor="middle" x="2861.5" y="-186" font-family="Helvetica" font-size="10.00">B22</text>
<text text-anchor="middle" x="2861.5" y="-175" font-family="Helvetica" font-size="10.00">Loop: &lt;none&gt;</text>
<text text-anchor="middle" x="2861.5" y="-164" font-family="Helvetica" font-size="10.00">&#45;&#45;&#45;</text>
<text text-anchor="middle" x="2861.5" y="-153" font-family="Helvetica" font-size="10.00">HotSpotMethod&lt;LoopBenchmarks.main(String[])&gt;</text>
</g>
<!-- b12&#45;&gt;b22 -->
<g id="edge19" class="edge">
<title>b12&#45;&gt;b22</title>
<path fill="none" stroke="black" d="M2636.38,-172C2667.69,-172 2701.69,-172 2733.52,-172"/>
<polygon fill="black" stroke="black" points="2733.78,-175.5 2743.78,-172 2733.78,-168.5 2733.78,-175.5"/>
</g>
<!-- b13 -->
<g id="node14" class="node">
<title>b13</title>
<polygon fill="white" stroke="black" points="2636,-322 2401,-322 2401,-270 2636,-270 2636,-322"/>
<text text-anchor="middle" x="2518.5" y="-310" font-family="Helvetica" font-size="10.00">B13</text>
<text text-anchor="middle" x="2518.5" y="-299" font-family="Helvetica" font-size="10.00">Loop: &lt;none&gt;</text>
<text text-anchor="middle" x="2518.5" y="-288" font-family="Helvetica" font-size="10.00">&#45;&#45;&#45;</text>
<text text-anchor="middle" x="2518.5" y="-277" font-family="Helvetica" font-size="10.00">HotSpotMethod&lt;LoopBenchmarks.main(String[])&gt;</text>
</g>
<!-- b13&#45;&gt;b14 -->
<g id="edge20" class="edge">
<title>b13&#45;&gt;b14</title>
<path fill="none" stroke="black" d="M2636.38,-318.96C2667.83,-325.14 2701.99,-331.86 2733.94,-338.13"/>
<polygon fill="black" stroke="black" points="2733.29,-341.57 2743.78,-340.07 2734.64,-334.7 2733.29,-341.57"/>
</g>
<!-- b15 -->
<g id="node16" class="node">
<title>b15</title>
<polygon fill="white" stroke="black" points="3322,-457 3087,-457 3087,-405 3322,-405 3322,-457"/>
<text text-anchor="middle" x="3204.5" y="-445" font-family="Helvetica" font-size="10.00">B15</text>
<text text-anchor="middle" x="3204.5" y="-434" font-family="Helvetica" font-size="10.00">Loop: &lt;none&gt;</text>
<text text-anchor="middle" x="3204.5" y="-423" font-family="Helvetica" font-size="10.00">&#45;&#45;&#45;</text>
<text text-anchor="middle" x="3204.5" y="-412" font-family="Helvetica" font-size="10.00">HotSpotMethod&lt;LoopBenchmarks.main(String[])&gt;</text>
</g>
<!-- b14&#45;&gt;b15 -->
<g id="edge21" class="edge">
<title>b14&#45;&gt;b15</title>
<path fill="none" stroke="black" d="M2979.38,-386.31C3010.83,-392.58 3044.99,-399.39 3076.94,-405.76"/>
<polygon fill="black" stroke="black" points="3076.29,-409.2 3086.78,-407.72 3077.65,-402.34 3076.29,-409.2"/>
</g>
<!-- b21 -->
<g id="node22" class="node">
<title>b21</title>
<polygon fill="white" stroke="black" points="3322,-333 3087,-333 3087,-281 3322,-281 3322,-333"/>
<text text-anchor="middle" x="3204.5" y="-321" font-family="Helvetica" font-size="10.00">B21</text>
<text text-anchor="middle" x="3204.5" y="-310" font-family="Helvetica" font-size="10.00">Loop: &lt;none&gt;</text>
<text text-anchor="middle" x="3204.5" y="-299" font-family="Helvetica" font-size="10.00">&#45;&#45;&#45;</text>
<text text-anchor="middle" x="3204.5" y="-288" font-family="Helvetica" font-size="10.00">HotSpotMethod&lt;LoopBenchmarks.main(String[])&gt;</text>
</g>
<!-- b14&#45;&gt;b21 -->
<g id="edge22" class="edge">
<title>b14&#45;&gt;b21</title>
<path fill="none" stroke="black" d="M2979.38,-343.81C3010.69,-338.66 3044.69,-333.08 3076.52,-327.85"/>
<polygon fill="black" stroke="black" points="3077.48,-331.24 3086.78,-326.17 3076.34,-324.34 3077.48,-331.24"/>
</g>
<!-- b16 -->
<g id="node17" class="node">
<title>b16</title>
<polygon fill="white" stroke="black" stroke-width="4" points="3669,-550.5 3434,-550.5 3434,-465.5 3669,-465.5 3669,-550.5"/>
<polygon fill="none" stroke="black" stroke-width="4" points="3673,-554.5 3430,-554.5 3430,-461.5 3673,-461.5 3673,-554.5"/>
<text text-anchor="middle" x="3551.5" y="-538.5" font-family="Helvetica" font-size="10.00">B16</text>
<text text-anchor="middle" x="3551.5" y="-527.5" font-family="Helvetica" font-size="10.00">Loop: &lt;none&gt;</text>
<text text-anchor="middle" x="3551.5" y="-516.5" font-family="Helvetica" font-size="10.00">&#45;&#45;&#45;</text>
<text text-anchor="middle" x="3551.5" y="-505.5" font-family="Helvetica" font-size="10.00">HotSpotMethod&lt;LoopBenchmarks.main(String[])&gt;</text>
<text text-anchor="middle" x="3551.5" y="-494.5" font-family="Helvetica" font-size="10.00">&#45;&#45;&#45;</text>
<text text-anchor="middle" x="3551.5" y="-483.5" font-family="Helvetica" font-size="10.00">BuboLoopMakers:</text>
<text text-anchor="middle" x="3551.5" y="-472.5" font-family="Helvetica" font-size="10.00"> &#160;AMD64BuboRDTSCToSlot (LoopID=0)</text>
</g>
<!-- b15&#45;&gt;b16 -->
<g id="edge23" class="edge">
<title>b15&#45;&gt;b16</title>
<path fill="none" stroke="black" d="M3322.3,-457.07C3353.75,-464.09 3387.96,-471.72 3420.09,-478.89"/>
<polygon fill="black" stroke="black" points="3419.47,-482.34 3429.99,-481.1 3421,-475.51 3419.47,-482.34"/>
</g>
<!-- b20 -->
<g id="node21" class="node">
<title>b20</title>
<polygon fill="white" stroke="black" points="3669,-389 3434,-389 3434,-337 3669,-337 3669,-389"/>
<text text-anchor="middle" x="3551.5" y="-377" font-family="Helvetica" font-size="10.00">B20</text>
<text text-anchor="middle" x="3551.5" y="-366" font-family="Helvetica" font-size="10.00">Loop: &lt;none&gt;</text>
<text text-anchor="middle" x="3551.5" y="-355" font-family="Helvetica" font-size="10.00">&#45;&#45;&#45;</text>
<text text-anchor="middle" x="3551.5" y="-344" font-family="Helvetica" font-size="10.00">HotSpotMethod&lt;LoopBenchmarks.main(String[])&gt;</text>
</g>
<!-- b15&#45;&gt;b20 -->
<g id="edge24" class="edge">
<title>b15&#45;&gt;b20</title>
<path fill="none" stroke="black" d="M3322.3,-407.98C3354.9,-401.55 3390.47,-394.54 3423.62,-388.01"/>
<polygon fill="black" stroke="black" points="3424.68,-391.37 3433.82,-386 3423.33,-384.5 3424.68,-391.37"/>
</g>
<!-- b17 -->
<g id="node18" class="node">
<title>b17</title>
<polygon fill="lightblue" stroke="black" points="4016,-534 3781,-534 3781,-482 4016,-482 4016,-534"/>
<text text-anchor="middle" x="3898.5" y="-522" font-family="Helvetica" font-size="10.00">B17</text>
<text text-anchor="middle" x="3898.5" y="-511" font-family="Helvetica" font-size="10.00">Loop: L0</text>
<text text-anchor="middle" x="3898.5" y="-500" font-family="Helvetica" font-size="10.00">&#45;&#45;&#45;</text>
<text text-anchor="middle" x="3898.5" y="-489" font-family="Helvetica" font-size="10.00">HotSpotMethod&lt;LoopBenchmarks.main(String[])&gt;</text>
</g>
<!-- b16&#45;&gt;b17 -->
<g id="edge25" class="edge">
<title>b16&#45;&gt;b17</title>
<path fill="none" stroke="black" d="M3673.16,-508C3704.72,-508 3738.84,-508 3770.71,-508"/>
<polygon fill="black" stroke="black" points="3770.97,-511.5 3780.97,-508 3770.97,-504.5 3770.97,-511.5"/>
</g>
<!-- b18 -->
<g id="node19" class="node">
<title>b18</title>
<polygon fill="lightblue" stroke="black" points="4359,-534 4124,-534 4124,-482 4359,-482 4359,-534"/>
<text text-anchor="middle" x="4241.5" y="-522" font-family="Helvetica" font-size="10.00">B18</text>
<text text-anchor="middle" x="4241.5" y="-511" font-family="Helvetica" font-size="10.00">Loop: L0</text>
<text text-anchor="middle" x="4241.5" y="-500" font-family="Helvetica" font-size="10.00">&#45;&#45;&#45;</text>
<text text-anchor="middle" x="4241.5" y="-489" font-family="Helvetica" font-size="10.00">HotSpotMethod&lt;LoopBenchmarks.main(String[])&gt;</text>
</g>
<!-- b17&#45;&gt;b18 -->
<g id="edge26" class="edge">
<title>b17&#45;&gt;b18</title>
<path fill="none" stroke="black" d="M4016.38,-482.22C4047.69,-480.75 4081.69,-480.61 4113.52,-481.8"/>
<polygon fill="black" stroke="black" points="4113.64,-485.31 4123.78,-482.23 4113.93,-478.31 4113.64,-485.31"/>
</g>
<!-- b19 -->
<g id="node20" class="node">
<title>b19</title>
<polygon fill="white" stroke="black" points="4359,-410 4124,-410 4124,-358 4359,-358 4359,-410"/>
<text text-anchor="middle" x="4241.5" y="-398" font-family="Helvetica" font-size="10.00">B19</text>
<text text-anchor="middle" x="4241.5" y="-387" font-family="Helvetica" font-size="10.00">Loop: &lt;none&gt;</text>
<text text-anchor="middle" x="4241.5" y="-376" font-family="Helvetica" font-size="10.00">&#45;&#45;&#45;</text>
<text text-anchor="middle" x="4241.5" y="-365" font-family="Helvetica" font-size="10.00">HotSpotMethod&lt;LoopBenchmarks.main(String[])&gt;</text>
</g>
<!-- b17&#45;&gt;b19 -->
<g id="edge27" class="edge">
<title>b17&#45;&gt;b19</title>
<path fill="none" stroke="black" d="M3971.4,-481.85C4026.35,-461.87 4102.13,-434.32 4159.27,-413.54"/>
<polygon fill="black" stroke="black" points="4160.79,-416.71 4168.99,-410 4158.4,-410.13 4160.79,-416.71"/>
</g>
<!-- b18&#45;&gt;b17 -->
<g id="edge28" class="edge">
<title>b18&#45;&gt;b17</title>
<path fill="none" stroke="black" d="M4123.78,-533.77C4092.47,-535.25 4058.47,-535.39 4026.63,-534.21"/>
<polygon fill="black" stroke="black" points="4026.51,-530.7 4016.38,-533.78 4026.22,-537.69 4026.51,-530.7"/>
</g>
<!-- b24 -->
<g id="node25" class="node">
<title>b24</title>
<polygon fill="white" stroke="black" points="3669,-198 3434,-198 3434,-146 3669,-146 3669,-198"/>
<text text-anchor="middle" x="3551.5" y="-186" font-family="Helvetica" font-size="10.00">B24</text>
<text text-anchor="middle" x="3551.5" y="-175" font-family="Helvetica" font-size="10.00">Loop: &lt;none&gt;</text>
<text text-anchor="middle" x="3551.5" y="-164" font-family="Helvetica" font-size="10.00">&#45;&#45;&#45;</text>
<text text-anchor="middle" x="3551.5" y="-153" font-family="Helvetica" font-size="10.00">HotSpotMethod&lt;LoopBenchmarks.main(String[])&gt;</text>
</g>
<!-- b21&#45;&gt;b24 -->
<g id="edge29" class="edge">
<title>b21&#45;&gt;b24</title>
<path fill="none" stroke="black" d="M3272.02,-280.97C3329.92,-258.32 3413.82,-225.48 3474.38,-201.79"/>
<polygon fill="black" stroke="black" points="3475.85,-204.97 3483.89,-198.06 3473.3,-198.45 3475.85,-204.97"/>
</g>
<!-- b22&#45;&gt;b24 -->
<g id="edge30" class="edge">
<title>b22&#45;&gt;b24</title>
<path fill="none" stroke="black" d="M2979.21,-172C3102.58,-172 3296.53,-172 3423.62,-172"/>
<polygon fill="black" stroke="black" points="3423.79,-175.5 3433.79,-172 3423.79,-168.5 3423.79,-175.5"/>
</g>
<!-- b23&#45;&gt;b24 -->
<g id="edge31" class="edge">
<title>b23&#45;&gt;b24</title>
<path fill="none" stroke="black" d="M2293.13,-38.07C2449.33,-54.26 2735.06,-84 2979,-110 3132.08,-126.32 3308.18,-145.48 3423.98,-158.14"/>
<polygon fill="black" stroke="black" points="3423.62,-161.62 3433.94,-159.23 3424.38,-154.66 3423.62,-161.62"/>
</g>
</g>
</svg>
