<?xml version="1.0" encoding="UTF-8" standalone="no"?>
<!DOCTYPE svg PUBLIC "-//W3C//DTD SVG 1.1//EN"
 "http://www.w3.org/Graphics/SVG/1.1/DTD/svg11.dtd">
<!-- Generated by graphviz version 2.44.0 (0)
 -->
<!-- Title: CFG_145 Pages: 1 -->
<svg width="1936pt" height="458pt"
 viewBox="0.00 0.00 1936.00 458.00" xmlns="http://www.w3.org/2000/svg" xmlns:xlink="http://www.w3.org/1999/xlink">
<g id="graph0" class="graph" transform="scale(1 1) rotate(0) translate(4 454)">
<title>CFG_145</title>
<polygon fill="white" stroke="transparent" points="-4,4 -4,-454 1932,-454 1932,4 -4,4"/>
<text text-anchor="middle" x="257" y="-430" font-family="Times-Roman" font-size="20.00">217&#45;LoopBenchmarks.monteCarloPiLoop(long, int)</text>
<!-- b0 -->
<g id="node1" class="node">
<title>b0</title>
<polygon fill="white" stroke="black" points="296,-342 0,-342 0,-290 296,-290 296,-342"/>
<text text-anchor="middle" x="148" y="-330" font-family="Helvetica" font-size="10.00">B0</text>
<text text-anchor="middle" x="148" y="-319" font-family="Helvetica" font-size="10.00">Loop: &lt;none&gt;</text>
<text text-anchor="middle" x="148" y="-308" font-family="Helvetica" font-size="10.00">&#45;&#45;&#45;</text>
<text text-anchor="middle" x="148" y="-297" font-family="Helvetica" font-size="10.00">HotSpotMethod&lt;LoopBenchmarks.monteCarloPiLoop(long, int)&gt;</text>
</g>
<!-- b1 -->
<g id="node2" class="node">
<title>b1</title>
<polygon fill="white" stroke="black" points="1112,-420 816,-420 816,-368 1112,-368 1112,-420"/>
<text text-anchor="middle" x="964" y="-408" font-family="Helvetica" font-size="10.00">B1</text>
<text text-anchor="middle" x="964" y="-397" font-family="Helvetica" font-size="10.00">Loop: &lt;none&gt;</text>
<text text-anchor="middle" x="964" y="-386" font-family="Helvetica" font-size="10.00">&#45;&#45;&#45;</text>
<text text-anchor="middle" x="964" y="-375" font-family="Helvetica" font-size="10.00">HotSpotMethod&lt;LoopBenchmarks.monteCarloPiLoop(long, int)&gt;</text>
</g>
<!-- b0&#45;&gt;b1 -->
<g id="edge1" class="edge">
<title>b0&#45;&gt;b1</title>
<path fill="none" stroke="black" d="M296.41,-330.13C440.28,-343.91 658.44,-364.82 805.63,-378.92"/>
<polygon fill="black" stroke="black" points="805.37,-382.41 815.66,-379.88 806.04,-375.44 805.37,-382.41"/>
</g>
<!-- b2 -->
<g id="node3" class="node">
<title>b2</title>
<polygon fill="white" stroke="black" stroke-width="4" points="704,-280.5 408,-280.5 408,-195.5 704,-195.5 704,-280.5"/>
<polygon fill="none" stroke="black" stroke-width="4" points="708,-284.5 404,-284.5 404,-191.5 708,-191.5 708,-284.5"/>
<text text-anchor="middle" x="556" y="-268.5" font-family="Helvetica" font-size="10.00">B2</text>
<text text-anchor="middle" x="556" y="-257.5" font-family="Helvetica" font-size="10.00">Loop: &lt;none&gt;</text>
<text text-anchor="middle" x="556" y="-246.5" font-family="Helvetica" font-size="10.00">&#45;&#45;&#45;</text>
<text text-anchor="middle" x="556" y="-235.5" font-family="Helvetica" font-size="10.00">HotSpotMethod&lt;LoopBenchmarks.monteCarloPiLoop(long, int)&gt;</text>
<text text-anchor="middle" x="556" y="-224.5" font-family="Helvetica" font-size="10.00">&#45;&#45;&#45;</text>
<text text-anchor="middle" x="556" y="-213.5" font-family="Helvetica" font-size="10.00">BuboLoopMakers:</text>
<text text-anchor="middle" x="556" y="-202.5" font-family="Helvetica" font-size="10.00"> &#160;AMD64BuboRDTSCToSlot (LoopID=0)</text>
</g>
<!-- b0&#45;&gt;b2 -->
<g id="edge2" class="edge">
<title>b0&#45;&gt;b2</title>
<path fill="none" stroke="black" d="M284.47,-289.97C319.46,-283.25 357.47,-275.95 393.64,-269"/>
<polygon fill="black" stroke="black" points="394.63,-272.37 403.79,-267.05 393.31,-265.5 394.63,-272.37"/>
</g>
<!-- b8 -->
<g id="node9" class="node">
<title>b8</title>
<polygon fill="white" stroke="black" points="1928,-342 1632,-342 1632,-290 1928,-290 1928,-342"/>
<text text-anchor="middle" x="1780" y="-330" font-family="Helvetica" font-size="10.00">B8</text>
<text text-anchor="middle" x="1780" y="-319" font-family="Helvetica" font-size="10.00">Loop: &lt;none&gt;</text>
<text text-anchor="middle" x="1780" y="-308" font-family="Helvetica" font-size="10.00">&#45;&#45;&#45;</text>
<text text-anchor="middle" x="1780" y="-297" font-family="Helvetica" font-size="10.00">HotSpotMethod&lt;LoopBenchmarks.monteCarloPiLoop(long, int)&gt;</text>
</g>
<!-- b1&#45;&gt;b8 -->
<g id="edge3" class="edge">
<title>b1&#45;&gt;b8</title>
<path fill="none" stroke="black" d="M1112.41,-379.87C1256.28,-366.09 1474.44,-345.18 1621.63,-331.08"/>
<polygon fill="black" stroke="black" points="1622.04,-334.56 1631.66,-330.12 1621.37,-327.59 1622.04,-334.56"/>
</g>
<!-- b3 -->
<g id="node4" class="node">
<title>b3</title>
<polygon fill="lightblue" stroke="black" points="1112,-119 816,-119 816,-67 1112,-67 1112,-119"/>
<text text-anchor="middle" x="964" y="-107" font-family="Helvetica" font-size="10.00">B3</text>
<text text-anchor="middle" x="964" y="-96" font-family="Helvetica" font-size="10.00">Loop: L0</text>
<text text-anchor="middle" x="964" y="-85" font-family="Helvetica" font-size="10.00">&#45;&#45;&#45;</text>
<text text-anchor="middle" x="964" y="-74" font-family="Helvetica" font-size="10.00">HotSpotMethod&lt;LoopBenchmarks.monteCarloPiLoop(long, int)&gt;</text>
</g>
<!-- b2&#45;&gt;b3 -->
<g id="edge4" class="edge">
<title>b2&#45;&gt;b3</title>
<path fill="none" stroke="black" d="M687.42,-191.42C750.87,-168.76 825.23,-142.2 880.7,-122.39"/>
<polygon fill="black" stroke="black" points="881.89,-125.68 890.13,-119.02 879.54,-119.09 881.89,-125.68"/>
</g>
<!-- b4 -->
<g id="node5" class="node">
<title>b4</title>
<polygon fill="lightblue" stroke="black" points="1520,-119 1224,-119 1224,-67 1520,-67 1520,-119"/>
<text text-anchor="middle" x="1372" y="-107" font-family="Helvetica" font-size="10.00">B4</text>
<text text-anchor="middle" x="1372" y="-96" font-family="Helvetica" font-size="10.00">Loop: L0</text>
<text text-anchor="middle" x="1372" y="-85" font-family="Helvetica" font-size="10.00">&#45;&#45;&#45;</text>
<text text-anchor="middle" x="1372" y="-74" font-family="Helvetica" font-size="10.00">HotSpotMethod&lt;LoopBenchmarks.monteCarloPiLoop(long, int)&gt;</text>
</g>
<!-- b3&#45;&gt;b4 -->
<g id="edge5" class="edge">
<title>b3&#45;&gt;b4</title>
<path fill="none" stroke="black" d="M1110.14,-67C1144.33,-65.79 1180.9,-65.68 1215.52,-66.67"/>
<polygon fill="black" stroke="black" points="1215.6,-70.17 1225.71,-66.99 1215.83,-63.18 1215.6,-70.17"/>
</g>
<!-- b7 -->
<g id="node8" class="node">
<title>b7</title>
<polygon fill="white" stroke="black" stroke-width="4" points="1520,-280.5 1224,-280.5 1224,-195.5 1520,-195.5 1520,-280.5"/>
<polygon fill="none" stroke="black" stroke-width="4" points="1524,-284.5 1220,-284.5 1220,-191.5 1524,-191.5 1524,-284.5"/>
<text text-anchor="middle" x="1372" y="-268.5" font-family="Helvetica" font-size="10.00">B7</text>
<text text-anchor="middle" x="1372" y="-257.5" font-family="Helvetica" font-size="10.00">Loop: &lt;none&gt;</text>
<text text-anchor="middle" x="1372" y="-246.5" font-family="Helvetica" font-size="10.00">&#45;&#45;&#45;</text>
<text text-anchor="middle" x="1372" y="-235.5" font-family="Helvetica" font-size="10.00">HotSpotMethod&lt;LoopBenchmarks.monteCarloPiLoop(long, int)&gt;</text>
<text text-anchor="middle" x="1372" y="-224.5" font-family="Helvetica" font-size="10.00">&#45;&#45;&#45;</text>
<text text-anchor="middle" x="1372" y="-213.5" font-family="Helvetica" font-size="10.00">BuboLoopMakers:</text>
<text text-anchor="middle" x="1372" y="-202.5" font-family="Helvetica" font-size="10.00"> &#160;AMD64BuboWriteDeltaRDTSC (LoopID=0)</text>
</g>
<!-- b3&#45;&gt;b7 -->
<g id="edge6" class="edge">
<title>b3&#45;&gt;b7</title>
<path fill="none" stroke="black" d="M1038.05,-119.09C1091.69,-138.25 1166.21,-164.86 1231.15,-188.05"/>
<polygon fill="black" stroke="black" points="1230.07,-191.38 1240.66,-191.45 1232.42,-184.79 1230.07,-191.38"/>
</g>
<!-- b4&#45;&gt;b3 -->
<g id="edge7" class="edge">
<title>b4&#45;&gt;b3</title>
<path fill="none" stroke="black" d="M1225.71,-119.01C1191.52,-120.21 1154.95,-120.32 1120.33,-119.33"/>
<polygon fill="black" stroke="black" points="1120.25,-115.82 1110.14,-119 1120.02,-122.82 1120.25,-115.82"/>
</g>
<!-- b6 -->
<g id="node7" class="node">
<title>b6</title>
<polygon fill="lightblue" stroke="black" points="1928,-52 1632,-52 1632,0 1928,0 1928,-52"/>
<text text-anchor="middle" x="1780" y="-40" font-family="Helvetica" font-size="10.00">B6</text>
<text text-anchor="middle" x="1780" y="-29" font-family="Helvetica" font-size="10.00">Loop: L0</text>
<text text-anchor="middle" x="1780" y="-18" font-family="Helvetica" font-size="10.00">&#45;&#45;&#45;</text>
<text text-anchor="middle" x="1780" y="-7" font-family="Helvetica" font-size="10.00">HotSpotMethod&lt;LoopBenchmarks.monteCarloPiLoop(long, int)&gt;</text>
</g>
<!-- b4&#45;&gt;b6 -->
<g id="edge8" class="edge">
<title>b4&#45;&gt;b6</title>
<path fill="none" stroke="black" d="M1520.15,-68.72C1553.05,-63.29 1588.08,-57.51 1621.39,-52.01"/>
<polygon fill="black" stroke="black" points="1622.37,-55.39 1631.67,-50.31 1621.23,-48.49 1622.37,-55.39"/>
</g>
<!-- b5 -->
<g id="node6" class="node">
<title>b5</title>
<polygon fill="lightblue" stroke="black" points="704,-119 408,-119 408,-67 704,-67 704,-119"/>
<text text-anchor="middle" x="556" y="-107" font-family="Helvetica" font-size="10.00">B5</text>
<text text-anchor="middle" x="556" y="-96" font-family="Helvetica" font-size="10.00">Loop: L0</text>
<text text-anchor="middle" x="556" y="-85" font-family="Helvetica" font-size="10.00">&#45;&#45;&#45;</text>
<text text-anchor="middle" x="556" y="-74" font-family="Helvetica" font-size="10.00">HotSpotMethod&lt;LoopBenchmarks.monteCarloPiLoop(long, int)&gt;</text>
</g>
<!-- b5&#45;&gt;b3 -->
<g id="edge9" class="edge">
<title>b5&#45;&gt;b3</title>
<path fill="none" stroke="black" d="M704.15,-93C737.05,-93 772.08,-93 805.39,-93"/>
<polygon fill="black" stroke="black" points="805.67,-96.5 815.67,-93 805.67,-89.5 805.67,-96.5"/>
</g>
<!-- b6&#45;&gt;b3 -->
<g id="edge10" class="edge">
<title>b6&#45;&gt;b3</title>
<path fill="none" stroke="black" d="M1631.86,-18.15C1518.78,-14.33 1358.93,-13.72 1220,-31 1166.39,-37.67 1107.73,-51.46 1060.2,-64.35"/>
<polygon fill="black" stroke="black" points="1059.26,-60.98 1050.54,-67 1061.11,-67.73 1059.26,-60.98"/>
</g>
<!-- b7&#45;&gt;b8 -->
<g id="edge11" class="edge">
<title>b7&#45;&gt;b8</title>
<path fill="none" stroke="black" d="M1524.18,-267.04C1559.93,-273.91 1597.99,-281.22 1633.48,-288.04"/>
<polygon fill="black" stroke="black" points="1632.94,-291.5 1643.42,-289.95 1634.26,-284.63 1632.94,-291.5"/>
</g>
</g>
</svg>
