<?xml version="1.0" encoding="UTF-8" standalone="no"?>
<!DOCTYPE svg PUBLIC "-//W3C//DTD SVG 1.1//EN"
 "http://www.w3.org/Graphics/SVG/1.1/DTD/svg11.dtd">
<!-- Generated by graphviz version 2.44.0 (0)
 -->
<!-- Title: CFG_32 Pages: 1 -->
<svg width="3688pt" height="1296pt"
 viewBox="0.00 0.00 3688.00 1295.50" xmlns="http://www.w3.org/2000/svg" xmlns:xlink="http://www.w3.org/1999/xlink">
<g id="graph0" class="graph" transform="scale(1 1) rotate(0) translate(4 1291.5)">
<title>CFG_32</title>
<polygon fill="white" stroke="transparent" points="-4,4 -4,-1291.5 3684,-1291.5 3684,4 -4,4"/>
<text text-anchor="middle" x="179.5" y="-1267.5" font-family="Times-Roman" font-size="20.00">55&#45;java.util.HashMap.hash(Object)</text>
<!-- b0 -->
<g id="node1" class="node">
<title>b0</title>
<polygon fill="white" stroke="black" points="77,-636 0,-636 0,-600 77,-600 77,-636"/>
<text text-anchor="middle" x="38.5" y="-621" font-family="Helvetica" font-size="10.00">B0</text>
<text text-anchor="middle" x="38.5" y="-610" font-family="Helvetica" font-size="10.00">Loop: &lt;none&gt;</text>
</g>
<!-- b1 -->
<g id="node2" class="node">
<title>b1</title>
<polygon fill="white" stroke="black" points="662,-644 486,-644 486,-592 662,-592 662,-644"/>
<text text-anchor="middle" x="574" y="-632" font-family="Helvetica" font-size="10.00">B1</text>
<text text-anchor="middle" x="574" y="-621" font-family="Helvetica" font-size="10.00">Loop: &lt;none&gt;</text>
<text text-anchor="middle" x="574" y="-610" font-family="Helvetica" font-size="10.00">&#45;&#45;&#45;</text>
<text text-anchor="middle" x="574" y="-599" font-family="Helvetica" font-size="10.00">HotSpotMethod&lt;String.hashCode()&gt;</text>
</g>
<!-- b0&#45;&gt;b1 -->
<g id="edge1" class="edge">
<title>b0&#45;&gt;b1</title>
<path fill="none" stroke="black" d="M77.01,-618C158.94,-618 356.09,-618 475.69,-618"/>
<polygon fill="black" stroke="black" points="475.94,-621.5 485.94,-618 475.94,-614.5 475.94,-621.5"/>
</g>
<!-- b10 -->
<g id="node11" class="node">
<title>b10</title>
<polygon fill="white" stroke="black" points="963,-1122 185,-1122 185,-1048 963,-1048 963,-1122"/>
<text text-anchor="middle" x="574" y="-1110" font-family="Helvetica" font-size="10.00">B10</text>
<text text-anchor="middle" x="574" y="-1099" font-family="Helvetica" font-size="10.00">Loop: &lt;none&gt;</text>
<text text-anchor="middle" x="574" y="-1088" font-family="Helvetica" font-size="10.00">&#45;&#45;&#45;</text>
<text text-anchor="middle" x="574" y="-1077" font-family="Helvetica" font-size="10.00">HotSpotMethod&lt;ResolvedModule.hashCode()&gt;</text>
<text text-anchor="middle" x="574" y="-1066" font-family="Helvetica" font-size="10.00">HotSpotMethod&lt;Object.hashCode()&gt;</text>
<text text-anchor="middle" x="574" y="-1055" font-family="Helvetica" font-size="10.00">SnippetResolvedJavaMethod{name=&#39;identityHashCodeSnippet&#39;, type=SnippetResolvedJavaType{javaClass=class jdk.graal.compiler.replacements.IdentityHashCodeSnippets}}</text>
</g>
<!-- b0&#45;&gt;b10 -->
<g id="edge2" class="edge">
<title>b0&#45;&gt;b10</title>
<path fill="none" stroke="black" d="M60.09,-636.02C137.12,-703.45 409.71,-942.06 523.03,-1041.25"/>
<polygon fill="black" stroke="black" points="520.75,-1043.91 530.58,-1047.87 525.36,-1038.65 520.75,-1043.91"/>
</g>
<!-- b18 -->
<g id="node19" class="node">
<title>b18</title>
<polygon fill="white" stroke="black" points="672.5,-374 475.5,-374 475.5,-322 672.5,-322 672.5,-374"/>
<text text-anchor="middle" x="574" y="-362" font-family="Helvetica" font-size="10.00">B18</text>
<text text-anchor="middle" x="574" y="-351" font-family="Helvetica" font-size="10.00">Loop: &lt;none&gt;</text>
<text text-anchor="middle" x="574" y="-340" font-family="Helvetica" font-size="10.00">&#45;&#45;&#45;</text>
<text text-anchor="middle" x="574" y="-329" font-family="Helvetica" font-size="10.00">HotSpotMethod&lt;HashMap.hash(Object)&gt;</text>
</g>
<!-- b0&#45;&gt;b18 -->
<g id="edge3" class="edge">
<title>b0&#45;&gt;b18</title>
<path fill="none" stroke="black" d="M75.33,-599.87C165.09,-554.44 400.37,-435.37 512.23,-378.75"/>
<polygon fill="black" stroke="black" points="514.03,-381.77 521.37,-374.13 510.87,-375.52 514.03,-381.77"/>
</g>
<!-- b2 -->
<g id="node3" class="node">
<title>b2</title>
<polygon fill="white" stroke="black" points="1548,-571 1372,-571 1372,-519 1548,-519 1548,-571"/>
<text text-anchor="middle" x="1460" y="-559" font-family="Helvetica" font-size="10.00">B2</text>
<text text-anchor="middle" x="1460" y="-548" font-family="Helvetica" font-size="10.00">Loop: &lt;none&gt;</text>
<text text-anchor="middle" x="1460" y="-537" font-family="Helvetica" font-size="10.00">&#45;&#45;&#45;</text>
<text text-anchor="middle" x="1460" y="-526" font-family="Helvetica" font-size="10.00">HotSpotMethod&lt;String.hashCode()&gt;</text>
</g>
<!-- b1&#45;&gt;b2 -->
<g id="edge4" class="edge">
<title>b1&#45;&gt;b2</title>
<path fill="none" stroke="black" d="M662.18,-610.8C828.1,-597.1 1188.17,-567.36 1361.68,-553.04"/>
<polygon fill="black" stroke="black" points="1362.14,-556.51 1371.82,-552.2 1361.57,-549.53 1362.14,-556.51"/>
</g>
<!-- b17 -->
<g id="node18" class="node">
<title>b17</title>
<polygon fill="white" stroke="black" points="3680,-644 3483,-644 3483,-592 3680,-592 3680,-644"/>
<text text-anchor="middle" x="3581.5" y="-632" font-family="Helvetica" font-size="10.00">B17</text>
<text text-anchor="middle" x="3581.5" y="-621" font-family="Helvetica" font-size="10.00">Loop: &lt;none&gt;</text>
<text text-anchor="middle" x="3581.5" y="-610" font-family="Helvetica" font-size="10.00">&#45;&#45;&#45;</text>
<text text-anchor="middle" x="3581.5" y="-599" font-family="Helvetica" font-size="10.00">HotSpotMethod&lt;HashMap.hash(Object)&gt;</text>
</g>
<!-- b1&#45;&gt;b17 -->
<g id="edge5" class="edge">
<title>b1&#45;&gt;b17</title>
<path fill="none" stroke="black" d="M662.43,-624.16C919.99,-641.76 1698.37,-691 2345,-691 2345,-691 2345,-691 2957.5,-691 3139.47,-691 3349.32,-659.9 3473.12,-638.3"/>
<polygon fill="black" stroke="black" points="3473.75,-641.74 3482.99,-636.56 3472.54,-634.85 3473.75,-641.74"/>
</g>
<!-- b3 -->
<g id="node4" class="node">
<title>b3</title>
<polygon fill="white" stroke="black" points="2459.5,-422.5 2232.5,-422.5 2232.5,-359.5 2459.5,-359.5 2459.5,-422.5"/>
<text text-anchor="middle" x="2346" y="-410.5" font-family="Helvetica" font-size="10.00">B3</text>
<text text-anchor="middle" x="2346" y="-399.5" font-family="Helvetica" font-size="10.00">Loop: &lt;none&gt;</text>
<text text-anchor="middle" x="2346" y="-388.5" font-family="Helvetica" font-size="10.00">&#45;&#45;&#45;</text>
<text text-anchor="middle" x="2346" y="-377.5" font-family="Helvetica" font-size="10.00">HotSpotMethod&lt;String.hashCode()&gt;</text>
<text text-anchor="middle" x="2346" y="-366.5" font-family="Helvetica" font-size="10.00">HotSpotMethod&lt;StringLatin1.hashCode(byte[])&gt;</text>
</g>
<!-- b2&#45;&gt;b3 -->
<g id="edge6" class="edge">
<title>b2&#45;&gt;b3</title>
<path fill="none" stroke="black" d="M1548.18,-529.81C1706.36,-502.26 2040.99,-443.96 2222.2,-412.39"/>
<polygon fill="black" stroke="black" points="2223.06,-415.8 2232.31,-410.63 2221.86,-408.9 2223.06,-415.8"/>
</g>
<!-- b2&#45;&gt;b17 -->
<g id="edge7" class="edge">
<title>b2&#45;&gt;b17</title>
<path fill="none" stroke="black" d="M1548.04,-548C1884.81,-559.6 3101.98,-601.52 3472.63,-614.28"/>
<polygon fill="black" stroke="black" points="3472.71,-617.79 3482.82,-614.64 3472.95,-610.79 3472.71,-617.79"/>
</g>
<!-- b4 -->
<g id="node5" class="node">
<title>b4</title>
<polygon fill="white" stroke="black" points="3070,-422.5 2843,-422.5 2843,-359.5 3070,-359.5 3070,-422.5"/>
<text text-anchor="middle" x="2956.5" y="-410.5" font-family="Helvetica" font-size="10.00">B4</text>
<text text-anchor="middle" x="2956.5" y="-399.5" font-family="Helvetica" font-size="10.00">Loop: &lt;none&gt;</text>
<text text-anchor="middle" x="2956.5" y="-388.5" font-family="Helvetica" font-size="10.00">&#45;&#45;&#45;</text>
<text text-anchor="middle" x="2956.5" y="-377.5" font-family="Helvetica" font-size="10.00">HotSpotMethod&lt;String.hashCode()&gt;</text>
<text text-anchor="middle" x="2956.5" y="-366.5" font-family="Helvetica" font-size="10.00">HotSpotMethod&lt;StringLatin1.hashCode(byte[])&gt;</text>
</g>
<!-- b3&#45;&gt;b4 -->
<g id="edge8" class="edge">
<title>b3&#45;&gt;b4</title>
<path fill="none" stroke="black" d="M2459.67,-391C2565.61,-391 2723.8,-391 2832.87,-391"/>
<polygon fill="black" stroke="black" points="2832.94,-394.5 2842.94,-391 2832.94,-387.5 2832.94,-394.5"/>
</g>
<!-- b7 -->
<g id="node8" class="node">
<title>b7</title>
<polygon fill="white" stroke="black" points="3055,-262.5 2858,-262.5 2858,-199.5 3055,-199.5 3055,-262.5"/>
<text text-anchor="middle" x="2956.5" y="-250.5" font-family="Helvetica" font-size="10.00">B7</text>
<text text-anchor="middle" x="2956.5" y="-239.5" font-family="Helvetica" font-size="10.00">Loop: &lt;none&gt;</text>
<text text-anchor="middle" x="2956.5" y="-228.5" font-family="Helvetica" font-size="10.00">&#45;&#45;&#45;</text>
<text text-anchor="middle" x="2956.5" y="-217.5" font-family="Helvetica" font-size="10.00">HotSpotMethod&lt;String.hashCode()&gt;</text>
<text text-anchor="middle" x="2956.5" y="-206.5" font-family="Helvetica" font-size="10.00">HotSpotMethod&lt;HashMap.hash(Object)&gt;</text>
</g>
<!-- b3&#45;&gt;b7 -->
<g id="edge9" class="edge">
<title>b3&#45;&gt;b7</title>
<path fill="none" stroke="black" d="M2459.67,-361.37C2570.56,-332.22 2738.68,-288.01 2847.81,-259.32"/>
<polygon fill="black" stroke="black" points="2848.74,-262.69 2857.52,-256.76 2846.96,-255.92 2848.74,-262.69"/>
</g>
<!-- b5 -->
<g id="node6" class="node">
<title>b5</title>
<polygon fill="white" stroke="black" points="3364.5,-436 3188.5,-436 3188.5,-384 3364.5,-384 3364.5,-436"/>
<text text-anchor="middle" x="3276.5" y="-424" font-family="Helvetica" font-size="10.00">B5</text>
<text text-anchor="middle" x="3276.5" y="-413" font-family="Helvetica" font-size="10.00">Loop: &lt;none&gt;</text>
<text text-anchor="middle" x="3276.5" y="-402" font-family="Helvetica" font-size="10.00">&#45;&#45;&#45;</text>
<text text-anchor="middle" x="3276.5" y="-391" font-family="Helvetica" font-size="10.00">HotSpotMethod&lt;String.hashCode()&gt;</text>
</g>
<!-- b4&#45;&gt;b5 -->
<g id="edge10" class="edge">
<title>b4&#45;&gt;b5</title>
<path fill="none" stroke="black" d="M3070.06,-397.73C3105.43,-399.84 3144.16,-402.15 3178.37,-404.2"/>
<polygon fill="black" stroke="black" points="3178.16,-407.69 3188.36,-404.79 3178.58,-400.7 3178.16,-407.69"/>
</g>
<!-- b6 -->
<g id="node7" class="node">
<title>b6</title>
<polygon fill="white" stroke="black" points="3364.5,-312 3188.5,-312 3188.5,-260 3364.5,-260 3364.5,-312"/>
<text text-anchor="middle" x="3276.5" y="-300" font-family="Helvetica" font-size="10.00">B6</text>
<text text-anchor="middle" x="3276.5" y="-289" font-family="Helvetica" font-size="10.00">Loop: &lt;none&gt;</text>
<text text-anchor="middle" x="3276.5" y="-278" font-family="Helvetica" font-size="10.00">&#45;&#45;&#45;</text>
<text text-anchor="middle" x="3276.5" y="-267" font-family="Helvetica" font-size="10.00">HotSpotMethod&lt;String.hashCode()&gt;</text>
</g>
<!-- b4&#45;&gt;b6 -->
<g id="edge11" class="edge">
<title>b4&#45;&gt;b6</title>
<path fill="none" stroke="black" d="M3052.91,-359.5C3095.51,-345.43 3145.4,-328.96 3187.14,-315.17"/>
<polygon fill="black" stroke="black" points="3188.34,-318.46 3196.74,-312 3186.15,-311.82 3188.34,-318.46"/>
</g>
<!-- b6&#45;&gt;b17 -->
<g id="edge12" class="edge">
<title>b6&#45;&gt;b17</title>
<path fill="none" stroke="black" d="M3326.04,-312.19C3342.49,-322.24 3360.38,-334.56 3375,-348 3454.7,-421.26 3525.87,-528.47 3559.69,-583.14"/>
<polygon fill="black" stroke="black" points="3556.77,-585.08 3564.98,-591.77 3562.73,-581.42 3556.77,-585.08"/>
</g>
<!-- b19 -->
<g id="node20" class="node">
<title>b19</title>
<polygon fill="white" stroke="black" points="3375,-52 3178,-52 3178,0 3375,0 3375,-52"/>
<text text-anchor="middle" x="3276.5" y="-40" font-family="Helvetica" font-size="10.00">B19</text>
<text text-anchor="middle" x="3276.5" y="-29" font-family="Helvetica" font-size="10.00">Loop: &lt;none&gt;</text>
<text text-anchor="middle" x="3276.5" y="-18" font-family="Helvetica" font-size="10.00">&#45;&#45;&#45;</text>
<text text-anchor="middle" x="3276.5" y="-7" font-family="Helvetica" font-size="10.00">HotSpotMethod&lt;HashMap.hash(Object)&gt;</text>
</g>
<!-- b7&#45;&gt;b19 -->
<g id="edge13" class="edge">
<title>b7&#45;&gt;b19</title>
<path fill="none" stroke="black" d="M3006.03,-199.35C3050.65,-170.29 3118.68,-126.09 3178,-88 3193.38,-78.12 3210.16,-67.42 3225.4,-57.74"/>
<polygon fill="black" stroke="black" points="3227.61,-60.48 3234.17,-52.16 3223.86,-54.57 3227.61,-60.48"/>
</g>
<!-- b8 -->
<g id="node9" class="node">
<title>b8</title>
<polygon fill="white" stroke="black" points="3375,-187.5 3178,-187.5 3178,-124.5 3375,-124.5 3375,-187.5"/>
<text text-anchor="middle" x="3276.5" y="-175.5" font-family="Helvetica" font-size="10.00">B8</text>
<text text-anchor="middle" x="3276.5" y="-164.5" font-family="Helvetica" font-size="10.00">Loop: &lt;none&gt;</text>
<text text-anchor="middle" x="3276.5" y="-153.5" font-family="Helvetica" font-size="10.00">&#45;&#45;&#45;</text>
<text text-anchor="middle" x="3276.5" y="-142.5" font-family="Helvetica" font-size="10.00">HotSpotMethod&lt;HashMap.hash(Object)&gt;</text>
<text text-anchor="middle" x="3276.5" y="-131.5" font-family="Helvetica" font-size="10.00">HotSpotMethod&lt;String.hashCode()&gt;</text>
</g>
<!-- b8&#45;&gt;b17 -->
<g id="edge14" class="edge">
<title>b8&#45;&gt;b17</title>
<path fill="none" stroke="black" d="M3332.61,-187.62C3347.57,-197.93 3362.94,-210.28 3375,-224 3474.99,-337.71 3542.45,-508.65 3568.49,-582.23"/>
<polygon fill="black" stroke="black" points="3565.28,-583.67 3571.89,-591.95 3571.89,-581.36 3565.28,-583.67"/>
</g>
<!-- b9 -->
<g id="node10" class="node">
<title>b9</title>
<polygon fill="white" stroke="black" points="3364.5,-998 3188.5,-998 3188.5,-946 3364.5,-946 3364.5,-998"/>
<text text-anchor="middle" x="3276.5" y="-986" font-family="Helvetica" font-size="10.00">B9</text>
<text text-anchor="middle" x="3276.5" y="-975" font-family="Helvetica" font-size="10.00">Loop: &lt;none&gt;</text>
<text text-anchor="middle" x="3276.5" y="-964" font-family="Helvetica" font-size="10.00">&#45;&#45;&#45;</text>
<text text-anchor="middle" x="3276.5" y="-953" font-family="Helvetica" font-size="10.00">HotSpotMethod&lt;String.hashCode()&gt;</text>
</g>
<!-- b9&#45;&gt;b17 -->
<g id="edge15" class="edge">
<title>b9&#45;&gt;b17</title>
<path fill="none" stroke="black" d="M3313.56,-945.77C3332.76,-931 3356.22,-911.61 3375,-892 3450.37,-813.27 3523.16,-706.81 3558.43,-652.7"/>
<polygon fill="black" stroke="black" points="3561.46,-654.45 3563.96,-644.16 3555.59,-650.65 3561.46,-654.45"/>
</g>
<!-- b12 -->
<g id="node13" class="node">
<title>b12</title>
<polygon fill="white" stroke="black" points="1849,-1257.5 1071,-1257.5 1071,-1194.5 1849,-1194.5 1849,-1257.5"/>
<text text-anchor="middle" x="1460" y="-1245.5" font-family="Helvetica" font-size="10.00">B12</text>
<text text-anchor="middle" x="1460" y="-1234.5" font-family="Helvetica" font-size="10.00">Loop: &lt;none&gt;</text>
<text text-anchor="middle" x="1460" y="-1223.5" font-family="Helvetica" font-size="10.00">&#45;&#45;&#45;</text>
<text text-anchor="middle" x="1460" y="-1212.5" font-family="Helvetica" font-size="10.00">SnippetResolvedJavaMethod{name=&#39;identityHashCodeSnippet&#39;, type=SnippetResolvedJavaType{javaClass=class jdk.graal.compiler.replacements.IdentityHashCodeSnippets}}</text>
<text text-anchor="middle" x="1460" y="-1201.5" font-family="Helvetica" font-size="10.00">HotSpotMethod&lt;Object.hashCode()&gt;</text>
</g>
<!-- b10&#45;&gt;b12 -->
<g id="edge17" class="edge">
<title>b10&#45;&gt;b12</title>
<path fill="none" stroke="black" d="M806.97,-1122C944.84,-1143.99 1118.23,-1171.65 1251.54,-1192.91"/>
<polygon fill="black" stroke="black" points="1251.04,-1196.37 1261.47,-1194.49 1252.15,-1189.46 1251.04,-1196.37"/>
</g>
<!-- b14 -->
<g id="node15" class="node">
<title>b14</title>
<polygon fill="white" stroke="black" points="2735,-1049.5 1957,-1049.5 1957,-986.5 2735,-986.5 2735,-1049.5"/>
<text text-anchor="middle" x="2346" y="-1037.5" font-family="Helvetica" font-size="10.00">B14</text>
<text text-anchor="middle" x="2346" y="-1026.5" font-family="Helvetica" font-size="10.00">Loop: &lt;none&gt;</text>
<text text-anchor="middle" x="2346" y="-1015.5" font-family="Helvetica" font-size="10.00">&#45;&#45;&#45;</text>
<text text-anchor="middle" x="2346" y="-1004.5" font-family="Helvetica" font-size="10.00">SnippetResolvedJavaMethod{name=&#39;identityHashCodeSnippet&#39;, type=SnippetResolvedJavaType{javaClass=class jdk.graal.compiler.replacements.IdentityHashCodeSnippets}}</text>
<text text-anchor="middle" x="2346" y="-993.5" font-family="Helvetica" font-size="10.00">HotSpotMethod&lt;ResolvedModule.hashCode()&gt;</text>
</g>
<!-- b10&#45;&gt;b14 -->
<g id="edge16" class="edge">
<title>b10&#45;&gt;b14</title>
<path fill="none" stroke="black" d="M963.16,-1070.31C1254.67,-1059.27 1652.58,-1044.21 1946.56,-1033.08"/>
<polygon fill="black" stroke="black" points="1947.11,-1036.56 1956.97,-1032.69 1946.85,-1029.57 1947.11,-1036.56"/>
</g>
<!-- b11 -->
<g id="node12" class="node">
<title>b11</title>
<polygon fill="white" stroke="black" points="1849,-976 1071,-976 1071,-924 1849,-924 1849,-976"/>
<text text-anchor="middle" x="1460" y="-964" font-family="Helvetica" font-size="10.00">B11</text>
<text text-anchor="middle" x="1460" y="-953" font-family="Helvetica" font-size="10.00">Loop: &lt;none&gt;</text>
<text text-anchor="middle" x="1460" y="-942" font-family="Helvetica" font-size="10.00">&#45;&#45;&#45;</text>
<text text-anchor="middle" x="1460" y="-931" font-family="Helvetica" font-size="10.00">SnippetResolvedJavaMethod{name=&#39;identityHashCodeSnippet&#39;, type=SnippetResolvedJavaType{javaClass=class jdk.graal.compiler.replacements.IdentityHashCodeSnippets}}</text>
</g>
<!-- b11&#45;&gt;b14 -->
<g id="edge18" class="edge">
<title>b11&#45;&gt;b14</title>
<path fill="none" stroke="black" d="M1799.3,-976.02C1847.51,-979.73 1897.46,-983.57 1946.69,-987.36"/>
<polygon fill="black" stroke="black" points="1946.61,-990.87 1956.85,-988.14 1947.15,-983.89 1946.61,-990.87"/>
</g>
<!-- b12&#45;&gt;b14 -->
<g id="edge19" class="edge">
<title>b12&#45;&gt;b14</title>
<path fill="none" stroke="black" d="M1642.96,-1194.41C1708.76,-1180.7 1783.07,-1162.56 1849,-1140 1899.22,-1122.82 1906.47,-1105.25 1957,-1089 2004.67,-1073.67 2056.77,-1061.31 2106.87,-1051.46"/>
<polygon fill="black" stroke="black" points="2107.71,-1054.87 2116.86,-1049.53 2106.38,-1048 2107.71,-1054.87"/>
</g>
<!-- b15 -->
<g id="node16" class="node">
<title>b15</title>
<polygon fill="white" stroke="black" points="2735,-1187.5 1957,-1187.5 1957,-1124.5 2735,-1124.5 2735,-1187.5"/>
<text text-anchor="middle" x="2346" y="-1175.5" font-family="Helvetica" font-size="10.00">B15</text>
<text text-anchor="middle" x="2346" y="-1164.5" font-family="Helvetica" font-size="10.00">Loop: &lt;none&gt;</text>
<text text-anchor="middle" x="2346" y="-1153.5" font-family="Helvetica" font-size="10.00">&#45;&#45;&#45;</text>
<text text-anchor="middle" x="2346" y="-1142.5" font-family="Helvetica" font-size="10.00">SnippetResolvedJavaMethod{name=&#39;identityHashCodeSnippet&#39;, type=SnippetResolvedJavaType{javaClass=class jdk.graal.compiler.replacements.IdentityHashCodeSnippets}}</text>
<text text-anchor="middle" x="2346" y="-1131.5" font-family="Helvetica" font-size="10.00">HotSpotMethod&lt;Object.hashCode()&gt;</text>
</g>
<!-- b12&#45;&gt;b15 -->
<g id="edge20" class="edge">
<title>b12&#45;&gt;b15</title>
<path fill="none" stroke="black" d="M1849.06,-1195.27C1881.42,-1192.71 1914.17,-1190.12 1946.6,-1187.55"/>
<polygon fill="black" stroke="black" points="1946.97,-1191.03 1956.66,-1186.75 1946.41,-1184.05 1946.97,-1191.03"/>
</g>
<!-- b13 -->
<g id="node14" class="node">
<title>b13</title>
<polygon fill="white" stroke="black" points="1849,-852 1071,-852 1071,-800 1849,-800 1849,-852"/>
<text text-anchor="middle" x="1460" y="-840" font-family="Helvetica" font-size="10.00">B13</text>
<text text-anchor="middle" x="1460" y="-829" font-family="Helvetica" font-size="10.00">Loop: &lt;none&gt;</text>
<text text-anchor="middle" x="1460" y="-818" font-family="Helvetica" font-size="10.00">&#45;&#45;&#45;</text>
<text text-anchor="middle" x="1460" y="-807" font-family="Helvetica" font-size="10.00">SnippetResolvedJavaMethod{name=&#39;identityHashCodeSnippet&#39;, type=SnippetResolvedJavaType{javaClass=class jdk.graal.compiler.replacements.IdentityHashCodeSnippets}}</text>
</g>
<!-- b13&#45;&gt;b14 -->
<g id="edge21" class="edge">
<title>b13&#45;&gt;b14</title>
<path fill="none" stroke="black" d="M1647.69,-852.04C1711.76,-861.99 1783.75,-874.27 1849,-888 1979.46,-915.45 2127.03,-955.28 2227.04,-983.6"/>
<polygon fill="black" stroke="black" points="2226.3,-987.03 2236.87,-986.39 2228.21,-980.29 2226.3,-987.03"/>
</g>
<!-- b16 -->
<g id="node17" class="node">
<title>b16</title>
<polygon fill="white" stroke="black" points="3067,-1049.5 2846,-1049.5 2846,-986.5 3067,-986.5 3067,-1049.5"/>
<text text-anchor="middle" x="2956.5" y="-1037.5" font-family="Helvetica" font-size="10.00">B16</text>
<text text-anchor="middle" x="2956.5" y="-1026.5" font-family="Helvetica" font-size="10.00">Loop: &lt;none&gt;</text>
<text text-anchor="middle" x="2956.5" y="-1015.5" font-family="Helvetica" font-size="10.00">&#45;&#45;&#45;</text>
<text text-anchor="middle" x="2956.5" y="-1004.5" font-family="Helvetica" font-size="10.00">HotSpotMethod&lt;Object.hashCode()&gt;</text>
<text text-anchor="middle" x="2956.5" y="-993.5" font-family="Helvetica" font-size="10.00">HotSpotMethod&lt;ResolvedModule.hashCode()&gt;</text>
</g>
<!-- b14&#45;&gt;b16 -->
<g id="edge22" class="edge">
<title>b14&#45;&gt;b16</title>
<path fill="none" stroke="black" d="M2735.39,-1018C2771.23,-1018 2805.38,-1018 2835.63,-1018"/>
<polygon fill="black" stroke="black" points="2835.73,-1021.5 2845.73,-1018 2835.73,-1014.5 2835.73,-1021.5"/>
</g>
<!-- b15&#45;&gt;b16 -->
<g id="edge23" class="edge">
<title>b15&#45;&gt;b16</title>
<path fill="none" stroke="black" d="M2548.35,-1124.43C2608.69,-1113.69 2674.81,-1100.65 2735,-1086 2773.68,-1076.58 2815.55,-1064.23 2852.31,-1052.64"/>
<polygon fill="black" stroke="black" points="2853.57,-1055.92 2862.04,-1049.56 2851.45,-1049.24 2853.57,-1055.92"/>
</g>
<!-- b16&#45;&gt;b17 -->
<g id="edge24" class="edge">
<title>b16&#45;&gt;b17</title>
<path fill="none" stroke="black" d="M3006.65,-986.45C3123,-911.74 3414.28,-724.73 3530.99,-649.79"/>
<polygon fill="black" stroke="black" points="3533.23,-652.51 3539.75,-644.16 3529.45,-646.62 3533.23,-652.51"/>
</g>
<!-- b18&#45;&gt;b19 -->
<g id="edge25" class="edge">
<title>b18&#45;&gt;b19</title>
<path fill="none" stroke="black" d="M672.71,-336.35C1091.15,-286.46 2730.55,-90.98 3167.82,-38.84"/>
<polygon fill="black" stroke="black" points="3168.41,-42.29 3177.92,-37.63 3167.58,-35.34 3168.41,-42.29"/>
</g>
</g>
</svg>
