<?xml version="1.0" encoding="UTF-8" standalone="no"?>
<!DOCTYPE svg PUBLIC "-//W3C//DTD SVG 1.1//EN"
 "http://www.w3.org/Graphics/SVG/1.1/DTD/svg11.dtd">
<!-- Generated by graphviz version 2.44.0 (0)
 -->
<!-- Title: CFG_53 Pages: 1 -->
<svg width="5542pt" height="735pt"
 viewBox="0.00 0.00 5542.00 735.00" xmlns="http://www.w3.org/2000/svg" xmlns:xlink="http://www.w3.org/1999/xlink">
<g id="graph0" class="graph" transform="scale(1 1) rotate(0) translate(4 731)">
<title>CFG_53</title>
<polygon fill="white" stroke="transparent" points="-4,4 -4,-731 5538,-731 5538,4 -4,4"/>
<text text-anchor="middle" x="365.5" y="-707" font-family="Times-Roman" font-size="20.00">85&#45;jdk.internal.util.ArraysSupport.unsignedHashCode(int, byte[], int, int)</text>
<!-- b0 -->
<g id="node1" class="node">
<title>b0</title>
<polygon fill="white" stroke="black" points="326,-235 0,-235 0,-183 326,-183 326,-235"/>
<text text-anchor="middle" x="163" y="-223" font-family="Helvetica" font-size="10.00">B0</text>
<text text-anchor="middle" x="163" y="-212" font-family="Helvetica" font-size="10.00">Loop: &lt;none&gt;</text>
<text text-anchor="middle" x="163" y="-201" font-family="Helvetica" font-size="10.00">&#45;&#45;&#45;</text>
<text text-anchor="middle" x="163" y="-190" font-family="Helvetica" font-size="10.00">HotSpotMethod&lt;ArraysSupport.unsignedHashCode(int, byte[], int, int)&gt;</text>
</g>
<!-- b1 -->
<g id="node2" class="node">
<title>b1</title>
<polygon fill="white" stroke="black" points="760,-303 434,-303 434,-251 760,-251 760,-303"/>
<text text-anchor="middle" x="597" y="-291" font-family="Helvetica" font-size="10.00">B1</text>
<text text-anchor="middle" x="597" y="-280" font-family="Helvetica" font-size="10.00">Loop: &lt;none&gt;</text>
<text text-anchor="middle" x="597" y="-269" font-family="Helvetica" font-size="10.00">&#45;&#45;&#45;</text>
<text text-anchor="middle" x="597" y="-258" font-family="Helvetica" font-size="10.00">HotSpotMethod&lt;ArraysSupport.unsignedHashCode(int, byte[], int, int)&gt;</text>
</g>
<!-- b0&#45;&gt;b1 -->
<g id="edge1" class="edge">
<title>b0&#45;&gt;b1</title>
<path fill="none" stroke="black" d="M326.09,-234.51C357.98,-239.53 391.56,-244.82 423.77,-249.89"/>
<polygon fill="black" stroke="black" points="423.3,-253.36 433.72,-251.46 424.39,-246.44 423.3,-253.36"/>
</g>
<!-- b21 -->
<g id="node22" class="node">
<title>b21</title>
<polygon fill="white" stroke="black" points="1194,-97 868,-97 868,-45 1194,-45 1194,-97"/>
<text text-anchor="middle" x="1031" y="-85" font-family="Helvetica" font-size="10.00">B21</text>
<text text-anchor="middle" x="1031" y="-74" font-family="Helvetica" font-size="10.00">Loop: &lt;none&gt;</text>
<text text-anchor="middle" x="1031" y="-63" font-family="Helvetica" font-size="10.00">&#45;&#45;&#45;</text>
<text text-anchor="middle" x="1031" y="-52" font-family="Helvetica" font-size="10.00">HotSpotMethod&lt;ArraysSupport.unsignedHashCode(int, byte[], int, int)&gt;</text>
</g>
<!-- b0&#45;&gt;b21 -->
<g id="edge2" class="edge">
<title>b0&#45;&gt;b21</title>
<path fill="none" stroke="black" d="M326.13,-183.16C477.65,-159.02 703.14,-123.09 857.83,-98.44"/>
<polygon fill="black" stroke="black" points="858.59,-101.86 867.92,-96.83 857.49,-94.95 858.59,-101.86"/>
</g>
<!-- b2 -->
<g id="node3" class="node">
<title>b2</title>
<polygon fill="white" stroke="black" points="1194,-562 868,-562 868,-510 1194,-510 1194,-562"/>
<text text-anchor="middle" x="1031" y="-550" font-family="Helvetica" font-size="10.00">B2</text>
<text text-anchor="middle" x="1031" y="-539" font-family="Helvetica" font-size="10.00">Loop: &lt;none&gt;</text>
<text text-anchor="middle" x="1031" y="-528" font-family="Helvetica" font-size="10.00">&#45;&#45;&#45;</text>
<text text-anchor="middle" x="1031" y="-517" font-family="Helvetica" font-size="10.00">HotSpotMethod&lt;ArraysSupport.unsignedHashCode(int, byte[], int, int)&gt;</text>
</g>
<!-- b1&#45;&gt;b2 -->
<g id="edge3" class="edge">
<title>b1&#45;&gt;b2</title>
<path fill="none" stroke="black" d="M641.4,-303.02C721.37,-350.97 891.68,-453.07 977.81,-504.71"/>
<polygon fill="black" stroke="black" points="976.25,-507.86 986.63,-510 979.85,-501.85 976.25,-507.86"/>
</g>
<!-- b8 -->
<g id="node9" class="node">
<title>b8</title>
<polygon fill="white" stroke="black" points="2062,-370 1736,-370 1736,-318 2062,-318 2062,-370"/>
<text text-anchor="middle" x="1899" y="-358" font-family="Helvetica" font-size="10.00">B8</text>
<text text-anchor="middle" x="1899" y="-347" font-family="Helvetica" font-size="10.00">Loop: &lt;none&gt;</text>
<text text-anchor="middle" x="1899" y="-336" font-family="Helvetica" font-size="10.00">&#45;&#45;&#45;</text>
<text text-anchor="middle" x="1899" y="-325" font-family="Helvetica" font-size="10.00">HotSpotMethod&lt;ArraysSupport.unsignedHashCode(int, byte[], int, int)&gt;</text>
</g>
<!-- b1&#45;&gt;b8 -->
<g id="edge4" class="edge">
<title>b1&#45;&gt;b8</title>
<path fill="none" stroke="black" d="M760.02,-285.35C1006.52,-298.05 1473.67,-322.13 1725.99,-335.13"/>
<polygon fill="black" stroke="black" points="1725.82,-338.63 1735.99,-335.65 1726.18,-331.64 1725.82,-338.63"/>
</g>
<!-- b3 -->
<g id="node4" class="node">
<title>b3</title>
<polygon fill="white" stroke="black" points="1628,-562 1302,-562 1302,-510 1628,-510 1628,-562"/>
<text text-anchor="middle" x="1465" y="-550" font-family="Helvetica" font-size="10.00">B3</text>
<text text-anchor="middle" x="1465" y="-539" font-family="Helvetica" font-size="10.00">Loop: &lt;none&gt;</text>
<text text-anchor="middle" x="1465" y="-528" font-family="Helvetica" font-size="10.00">&#45;&#45;&#45;</text>
<text text-anchor="middle" x="1465" y="-517" font-family="Helvetica" font-size="10.00">HotSpotMethod&lt;ArraysSupport.unsignedHashCode(int, byte[], int, int)&gt;</text>
</g>
<!-- b2&#45;&gt;b3 -->
<g id="edge5" class="edge">
<title>b2&#45;&gt;b3</title>
<path fill="none" stroke="black" d="M1194.09,-536C1225.85,-536 1259.27,-536 1291.35,-536"/>
<polygon fill="black" stroke="black" points="1291.72,-539.5 1301.72,-536 1291.72,-532.5 1291.72,-539.5"/>
</g>
<!-- b6 -->
<g id="node7" class="node">
<title>b6</title>
<polygon fill="white" stroke="black" points="2062,-697 1736,-697 1736,-645 2062,-645 2062,-697"/>
<text text-anchor="middle" x="1899" y="-685" font-family="Helvetica" font-size="10.00">B6</text>
<text text-anchor="middle" x="1899" y="-674" font-family="Helvetica" font-size="10.00">Loop: &lt;none&gt;</text>
<text text-anchor="middle" x="1899" y="-663" font-family="Helvetica" font-size="10.00">&#45;&#45;&#45;</text>
<text text-anchor="middle" x="1899" y="-652" font-family="Helvetica" font-size="10.00">HotSpotMethod&lt;ArraysSupport.unsignedHashCode(int, byte[], int, int)&gt;</text>
</g>
<!-- b2&#45;&gt;b6 -->
<g id="edge6" class="edge">
<title>b2&#45;&gt;b6</title>
<path fill="none" stroke="black" d="M1134.06,-562.07C1184.37,-574.25 1246.1,-588.19 1302,-598 1443.94,-622.92 1606.37,-642.21 1725.78,-654.69"/>
<polygon fill="black" stroke="black" points="1725.44,-658.17 1735.75,-655.73 1726.17,-651.21 1725.44,-658.17"/>
</g>
<!-- b5 -->
<g id="node6" class="node">
<title>b5</title>
<polygon fill="white" stroke="black" points="2496,-562 2170,-562 2170,-510 2496,-510 2496,-562"/>
<text text-anchor="middle" x="2333" y="-550" font-family="Helvetica" font-size="10.00">B5</text>
<text text-anchor="middle" x="2333" y="-539" font-family="Helvetica" font-size="10.00">Loop: &lt;none&gt;</text>
<text text-anchor="middle" x="2333" y="-528" font-family="Helvetica" font-size="10.00">&#45;&#45;&#45;</text>
<text text-anchor="middle" x="2333" y="-517" font-family="Helvetica" font-size="10.00">HotSpotMethod&lt;ArraysSupport.unsignedHashCode(int, byte[], int, int)&gt;</text>
</g>
<!-- b3&#45;&gt;b5 -->
<g id="edge8" class="edge">
<title>b3&#45;&gt;b5</title>
<path fill="none" stroke="black" d="M1628.13,-536C1779.65,-536 2005.14,-536 2159.83,-536"/>
<polygon fill="black" stroke="black" points="2159.92,-539.5 2169.92,-536 2159.92,-532.5 2159.92,-539.5"/>
</g>
<!-- b3&#45;&gt;b8 -->
<g id="edge7" class="edge">
<title>b3&#45;&gt;b8</title>
<path fill="none" stroke="black" d="M1537.89,-509.95C1566.18,-499.32 1598.83,-486.58 1628,-474 1701.16,-442.45 1783.41,-402.13 1837.69,-374.82"/>
<polygon fill="black" stroke="black" points="1839.47,-377.84 1846.83,-370.21 1836.32,-371.59 1839.47,-377.84"/>
</g>
<!-- b4 -->
<g id="node5" class="node">
<title>b4</title>
<polygon fill="white" stroke="black" points="1628,-168 1302,-168 1302,-116 1628,-116 1628,-168"/>
<text text-anchor="middle" x="1465" y="-156" font-family="Helvetica" font-size="10.00">B4</text>
<text text-anchor="middle" x="1465" y="-145" font-family="Helvetica" font-size="10.00">Loop: &lt;none&gt;</text>
<text text-anchor="middle" x="1465" y="-134" font-family="Helvetica" font-size="10.00">&#45;&#45;&#45;</text>
<text text-anchor="middle" x="1465" y="-123" font-family="Helvetica" font-size="10.00">HotSpotMethod&lt;ArraysSupport.unsignedHashCode(int, byte[], int, int)&gt;</text>
</g>
<!-- b4&#45;&gt;b8 -->
<g id="edge9" class="edge">
<title>b4&#45;&gt;b8</title>
<path fill="none" stroke="black" d="M1522.03,-168.2C1601.91,-205.55 1748.19,-273.95 1832.82,-313.52"/>
<polygon fill="black" stroke="black" points="1831.52,-316.78 1842.07,-317.85 1834.49,-310.44 1831.52,-316.78"/>
</g>
<!-- b20 -->
<g id="node21" class="node">
<title>b20</title>
<polygon fill="white" stroke="black" points="2930,-562 2604,-562 2604,-510 2930,-510 2930,-562"/>
<text text-anchor="middle" x="2767" y="-550" font-family="Helvetica" font-size="10.00">B20</text>
<text text-anchor="middle" x="2767" y="-539" font-family="Helvetica" font-size="10.00">Loop: &lt;none&gt;</text>
<text text-anchor="middle" x="2767" y="-528" font-family="Helvetica" font-size="10.00">&#45;&#45;&#45;</text>
<text text-anchor="middle" x="2767" y="-517" font-family="Helvetica" font-size="10.00">HotSpotMethod&lt;ArraysSupport.unsignedHashCode(int, byte[], int, int)&gt;</text>
</g>
<!-- b5&#45;&gt;b20 -->
<g id="edge10" class="edge">
<title>b5&#45;&gt;b20</title>
<path fill="none" stroke="black" d="M2496.09,-536C2527.85,-536 2561.27,-536 2593.35,-536"/>
<polygon fill="black" stroke="black" points="2593.72,-539.5 2603.72,-536 2593.72,-532.5 2593.72,-539.5"/>
</g>
<!-- b6&#45;&gt;b20 -->
<g id="edge11" class="edge">
<title>b6&#45;&gt;b20</title>
<path fill="none" stroke="black" d="M2062.25,-655.73C2182.48,-643.29 2350.07,-623.62 2496,-598 2548.29,-588.82 2605.7,-576.03 2654.08,-564.45"/>
<polygon fill="black" stroke="black" points="2655.04,-567.81 2663.94,-562.07 2653.4,-561.01 2655.04,-567.81"/>
</g>
<!-- b7 -->
<g id="node8" class="node">
<title>b7</title>
<polygon fill="white" stroke="black" points="1628,-438 1302,-438 1302,-386 1628,-386 1628,-438"/>
<text text-anchor="middle" x="1465" y="-426" font-family="Helvetica" font-size="10.00">B7</text>
<text text-anchor="middle" x="1465" y="-415" font-family="Helvetica" font-size="10.00">Loop: &lt;none&gt;</text>
<text text-anchor="middle" x="1465" y="-404" font-family="Helvetica" font-size="10.00">&#45;&#45;&#45;</text>
<text text-anchor="middle" x="1465" y="-393" font-family="Helvetica" font-size="10.00">HotSpotMethod&lt;ArraysSupport.unsignedHashCode(int, byte[], int, int)&gt;</text>
</g>
<!-- b7&#45;&gt;b8 -->
<g id="edge12" class="edge">
<title>b7&#45;&gt;b8</title>
<path fill="none" stroke="black" d="M1628.09,-386.49C1659.98,-381.47 1693.56,-376.18 1725.77,-371.11"/>
<polygon fill="black" stroke="black" points="1726.39,-374.56 1735.72,-369.54 1725.3,-367.64 1726.39,-374.56"/>
</g>
<!-- b9 -->
<g id="node10" class="node">
<title>b9</title>
<polygon fill="white" stroke="black" points="2496,-314 2170,-314 2170,-262 2496,-262 2496,-314"/>
<text text-anchor="middle" x="2333" y="-302" font-family="Helvetica" font-size="10.00">B9</text>
<text text-anchor="middle" x="2333" y="-291" font-family="Helvetica" font-size="10.00">Loop: &lt;none&gt;</text>
<text text-anchor="middle" x="2333" y="-280" font-family="Helvetica" font-size="10.00">&#45;&#45;&#45;</text>
<text text-anchor="middle" x="2333" y="-269" font-family="Helvetica" font-size="10.00">HotSpotMethod&lt;ArraysSupport.unsignedHashCode(int, byte[], int, int)&gt;</text>
</g>
<!-- b8&#45;&gt;b9 -->
<g id="edge13" class="edge">
<title>b8&#45;&gt;b9</title>
<path fill="none" stroke="black" d="M2062.09,-322.99C2093.98,-318.85 2127.56,-314.5 2159.77,-310.33"/>
<polygon fill="black" stroke="black" points="2160.25,-313.79 2169.72,-309.04 2159.35,-306.85 2160.25,-313.79"/>
</g>
<!-- b19 -->
<g id="node20" class="node">
<title>b19</title>
<polygon fill="white" stroke="black" points="2496,-438 2170,-438 2170,-386 2496,-386 2496,-438"/>
<text text-anchor="middle" x="2333" y="-426" font-family="Helvetica" font-size="10.00">B19</text>
<text text-anchor="middle" x="2333" y="-415" font-family="Helvetica" font-size="10.00">Loop: &lt;none&gt;</text>
<text text-anchor="middle" x="2333" y="-404" font-family="Helvetica" font-size="10.00">&#45;&#45;&#45;</text>
<text text-anchor="middle" x="2333" y="-393" font-family="Helvetica" font-size="10.00">HotSpotMethod&lt;ArraysSupport.unsignedHashCode(int, byte[], int, int)&gt;</text>
</g>
<!-- b8&#45;&gt;b19 -->
<g id="edge14" class="edge">
<title>b8&#45;&gt;b19</title>
<path fill="none" stroke="black" d="M2062.09,-369.51C2093.98,-374.53 2127.56,-379.82 2159.77,-384.89"/>
<polygon fill="black" stroke="black" points="2159.3,-388.36 2169.72,-386.46 2160.39,-381.44 2159.3,-388.36"/>
</g>
<!-- b10 -->
<g id="node11" class="node">
<title>b10</title>
<polygon fill="lightblue" stroke="black" points="2930,-342 2604,-342 2604,-290 2930,-290 2930,-342"/>
<text text-anchor="middle" x="2767" y="-330" font-family="Helvetica" font-size="10.00">B10</text>
<text text-anchor="middle" x="2767" y="-319" font-family="Helvetica" font-size="10.00">Loop: L0</text>
<text text-anchor="middle" x="2767" y="-308" font-family="Helvetica" font-size="10.00">&#45;&#45;&#45;</text>
<text text-anchor="middle" x="2767" y="-297" font-family="Helvetica" font-size="10.00">HotSpotMethod&lt;ArraysSupport.unsignedHashCode(int, byte[], int, int)&gt;</text>
</g>
<!-- b9&#45;&gt;b10 -->
<g id="edge15" class="edge">
<title>b9&#45;&gt;b10</title>
<path fill="none" stroke="black" d="M2496.09,-298.51C2527.85,-300.56 2561.27,-302.73 2593.35,-304.81"/>
<polygon fill="black" stroke="black" points="2593.51,-308.33 2603.72,-305.48 2593.97,-301.34 2593.51,-308.33"/>
</g>
<!-- b11 -->
<g id="node12" class="node">
<title>b11</title>
<polygon fill="lightblue" stroke="black" points="3364,-361.5 3038,-361.5 3038,-298.5 3364,-298.5 3364,-361.5"/>
<text text-anchor="middle" x="3201" y="-349.5" font-family="Helvetica" font-size="10.00">B11</text>
<text text-anchor="middle" x="3201" y="-338.5" font-family="Helvetica" font-size="10.00">Loop: L0</text>
<text text-anchor="middle" x="3201" y="-327.5" font-family="Helvetica" font-size="10.00">&#45;&#45;&#45;</text>
<text text-anchor="middle" x="3201" y="-316.5" font-family="Helvetica" font-size="10.00">HotSpotMethod&lt;ArraysSupport.unsignedHashCode(int, byte[], int, int)&gt;</text>
<text text-anchor="middle" x="3201" y="-305.5" font-family="Helvetica" font-size="10.00">HotSpotMethod&lt;Byte.toUnsignedInt(byte)&gt;</text>
</g>
<!-- b10&#45;&gt;b11 -->
<g id="edge16" class="edge">
<title>b10&#45;&gt;b11</title>
<path fill="none" stroke="black" d="M2930.09,-295.01C2961.85,-295.13 2995.27,-296.12 3027.35,-297.89"/>
<polygon fill="black" stroke="black" points="3027.53,-301.41 3037.72,-298.5 3027.94,-294.42 3027.53,-301.41"/>
</g>
<!-- b12 -->
<g id="node13" class="node">
<title>b12</title>
<polygon fill="white" stroke="black" points="3364,-226 3038,-226 3038,-174 3364,-174 3364,-226"/>
<text text-anchor="middle" x="3201" y="-214" font-family="Helvetica" font-size="10.00">B12</text>
<text text-anchor="middle" x="3201" y="-203" font-family="Helvetica" font-size="10.00">Loop: &lt;none&gt;</text>
<text text-anchor="middle" x="3201" y="-192" font-family="Helvetica" font-size="10.00">&#45;&#45;&#45;</text>
<text text-anchor="middle" x="3201" y="-181" font-family="Helvetica" font-size="10.00">HotSpotMethod&lt;ArraysSupport.unsignedHashCode(int, byte[], int, int)&gt;</text>
</g>
<!-- b10&#45;&gt;b12 -->
<g id="edge17" class="edge">
<title>b10&#45;&gt;b12</title>
<path fill="none" stroke="black" d="M2864.95,-289.97C2932.78,-271.75 3023.39,-247.42 3093.28,-228.66"/>
<polygon fill="black" stroke="black" points="3094.25,-232.02 3103,-226.05 3092.44,-225.26 3094.25,-232.02"/>
</g>
<!-- b11&#45;&gt;b10 -->
<g id="edge18" class="edge">
<title>b11&#45;&gt;b10</title>
<path fill="none" stroke="black" d="M3037.95,-350.99C2983.19,-350.79 2923.49,-347.98 2874.18,-343.06"/>
<polygon fill="black" stroke="black" points="2874.45,-339.57 2864.14,-342.02 2873.73,-346.53 2874.45,-339.57"/>
</g>
<!-- b13 -->
<g id="node14" class="node">
<title>b13</title>
<polygon fill="lightgreen" stroke="black" points="3798,-283 3472,-283 3472,-231 3798,-231 3798,-283"/>
<text text-anchor="middle" x="3635" y="-271" font-family="Helvetica" font-size="10.00">B13</text>
<text text-anchor="middle" x="3635" y="-260" font-family="Helvetica" font-size="10.00">Loop: L1</text>
<text text-anchor="middle" x="3635" y="-249" font-family="Helvetica" font-size="10.00">&#45;&#45;&#45;</text>
<text text-anchor="middle" x="3635" y="-238" font-family="Helvetica" font-size="10.00">HotSpotMethod&lt;ArraysSupport.unsignedHashCode(int, byte[], int, int)&gt;</text>
</g>
<!-- b12&#45;&gt;b13 -->
<g id="edge19" class="edge">
<title>b12&#45;&gt;b13</title>
<path fill="none" stroke="black" d="M3364.09,-221.39C3395.98,-225.6 3429.56,-230.02 3461.77,-234.28"/>
<polygon fill="black" stroke="black" points="3461.35,-237.75 3471.72,-235.59 3462.26,-230.81 3461.35,-237.75"/>
</g>
<!-- b14 -->
<g id="node15" class="node">
<title>b14</title>
<polygon fill="lightgreen" stroke="black" points="4232,-357.5 3906,-357.5 3906,-294.5 4232,-294.5 4232,-357.5"/>
<text text-anchor="middle" x="4069" y="-345.5" font-family="Helvetica" font-size="10.00">B14</text>
<text text-anchor="middle" x="4069" y="-334.5" font-family="Helvetica" font-size="10.00">Loop: L1</text>
<text text-anchor="middle" x="4069" y="-323.5" font-family="Helvetica" font-size="10.00">&#45;&#45;&#45;</text>
<text text-anchor="middle" x="4069" y="-312.5" font-family="Helvetica" font-size="10.00">HotSpotMethod&lt;ArraysSupport.unsignedHashCode(int, byte[], int, int)&gt;</text>
<text text-anchor="middle" x="4069" y="-301.5" font-family="Helvetica" font-size="10.00">HotSpotMethod&lt;Byte.toUnsignedInt(byte)&gt;</text>
</g>
<!-- b13&#45;&gt;b14 -->
<g id="edge20" class="edge">
<title>b13&#45;&gt;b14</title>
<path fill="none" stroke="black" d="M3798.09,-256.65C3863.34,-265.19 3935.6,-278.33 3988.92,-291.93"/>
<polygon fill="black" stroke="black" points="3988.09,-295.33 3998.65,-294.47 3989.86,-288.56 3988.09,-295.33"/>
</g>
<!-- b15 -->
<g id="node16" class="node">
<title>b15</title>
<polygon fill="white" stroke="black" points="4232,-222 3906,-222 3906,-170 4232,-170 4232,-222"/>
<text text-anchor="middle" x="4069" y="-210" font-family="Helvetica" font-size="10.00">B15</text>
<text text-anchor="middle" x="4069" y="-199" font-family="Helvetica" font-size="10.00">Loop: &lt;none&gt;</text>
<text text-anchor="middle" x="4069" y="-188" font-family="Helvetica" font-size="10.00">&#45;&#45;&#45;</text>
<text text-anchor="middle" x="4069" y="-177" font-family="Helvetica" font-size="10.00">HotSpotMethod&lt;ArraysSupport.unsignedHashCode(int, byte[], int, int)&gt;</text>
</g>
<!-- b13&#45;&gt;b15 -->
<g id="edge21" class="edge">
<title>b13&#45;&gt;b15</title>
<path fill="none" stroke="black" d="M3798.09,-234.11C3829.98,-229.61 3863.56,-224.87 3895.77,-220.32"/>
<polygon fill="black" stroke="black" points="3896.31,-223.78 3905.72,-218.91 3895.33,-216.85 3896.31,-223.78"/>
</g>
<!-- b14&#45;&gt;b13 -->
<g id="edge22" class="edge">
<title>b14&#45;&gt;b13</title>
<path fill="none" stroke="black" d="M3905.69,-326.32C3832.22,-316.69 3749.9,-301.24 3695.75,-285.88"/>
<polygon fill="black" stroke="black" points="3696.56,-282.47 3685.98,-283.02 3694.59,-289.19 3696.56,-282.47"/>
</g>
<!-- b16 -->
<g id="node17" class="node">
<title>b16</title>
<polygon fill="lightpink" stroke="black" points="4666,-222 4340,-222 4340,-170 4666,-170 4666,-222"/>
<text text-anchor="middle" x="4503" y="-210" font-family="Helvetica" font-size="10.00">B16</text>
<text text-anchor="middle" x="4503" y="-199" font-family="Helvetica" font-size="10.00">Loop: L2</text>
<text text-anchor="middle" x="4503" y="-188" font-family="Helvetica" font-size="10.00">&#45;&#45;&#45;</text>
<text text-anchor="middle" x="4503" y="-177" font-family="Helvetica" font-size="10.00">HotSpotMethod&lt;ArraysSupport.unsignedHashCode(int, byte[], int, int)&gt;</text>
</g>
<!-- b15&#45;&gt;b16 -->
<g id="edge23" class="edge">
<title>b15&#45;&gt;b16</title>
<path fill="none" stroke="black" d="M4232.09,-196C4263.85,-196 4297.27,-196 4329.35,-196"/>
<polygon fill="black" stroke="black" points="4329.72,-199.5 4339.72,-196 4329.72,-192.5 4329.72,-199.5"/>
</g>
<!-- b17 -->
<g id="node18" class="node">
<title>b17</title>
<polygon fill="lightpink" stroke="black" points="5100,-296.5 4774,-296.5 4774,-233.5 5100,-233.5 5100,-296.5"/>
<text text-anchor="middle" x="4937" y="-284.5" font-family="Helvetica" font-size="10.00">B17</text>
<text text-anchor="middle" x="4937" y="-273.5" font-family="Helvetica" font-size="10.00">Loop: L2</text>
<text text-anchor="middle" x="4937" y="-262.5" font-family="Helvetica" font-size="10.00">&#45;&#45;&#45;</text>
<text text-anchor="middle" x="4937" y="-251.5" font-family="Helvetica" font-size="10.00">HotSpotMethod&lt;ArraysSupport.unsignedHashCode(int, byte[], int, int)&gt;</text>
<text text-anchor="middle" x="4937" y="-240.5" font-family="Helvetica" font-size="10.00">HotSpotMethod&lt;Byte.toUnsignedInt(byte)&gt;</text>
</g>
<!-- b16&#45;&gt;b17 -->
<g id="edge24" class="edge">
<title>b16&#45;&gt;b17</title>
<path fill="none" stroke="black" d="M4666.09,-195.65C4731.34,-204.19 4803.6,-217.33 4856.92,-230.93"/>
<polygon fill="black" stroke="black" points="4856.09,-234.33 4866.65,-233.47 4857.86,-227.56 4856.09,-234.33"/>
</g>
<!-- b18 -->
<g id="node19" class="node">
<title>b18</title>
<polygon fill="white" stroke="black" points="5100,-161 4774,-161 4774,-109 5100,-109 5100,-161"/>
<text text-anchor="middle" x="4937" y="-149" font-family="Helvetica" font-size="10.00">B18</text>
<text text-anchor="middle" x="4937" y="-138" font-family="Helvetica" font-size="10.00">Loop: &lt;none&gt;</text>
<text text-anchor="middle" x="4937" y="-127" font-family="Helvetica" font-size="10.00">&#45;&#45;&#45;</text>
<text text-anchor="middle" x="4937" y="-116" font-family="Helvetica" font-size="10.00">HotSpotMethod&lt;ArraysSupport.unsignedHashCode(int, byte[], int, int)&gt;</text>
</g>
<!-- b16&#45;&gt;b18 -->
<g id="edge25" class="edge">
<title>b16&#45;&gt;b18</title>
<path fill="none" stroke="black" d="M4666.09,-173.11C4697.98,-168.61 4731.56,-163.87 4763.77,-159.32"/>
<polygon fill="black" stroke="black" points="4764.31,-162.78 4773.72,-157.91 4763.33,-155.85 4764.31,-162.78"/>
</g>
<!-- b17&#45;&gt;b16 -->
<g id="edge26" class="edge">
<title>b17&#45;&gt;b16</title>
<path fill="none" stroke="black" d="M4773.69,-265.32C4700.22,-255.69 4617.9,-240.24 4563.75,-224.88"/>
<polygon fill="black" stroke="black" points="4564.56,-221.47 4553.98,-222.02 4562.59,-228.19 4564.56,-221.47"/>
</g>
<!-- b22 -->
<g id="node23" class="node">
<title>b22</title>
<polygon fill="white" stroke="black" points="5534,-93 5208,-93 5208,-41 5534,-41 5534,-93"/>
<text text-anchor="middle" x="5371" y="-81" font-family="Helvetica" font-size="10.00">B22</text>
<text text-anchor="middle" x="5371" y="-70" font-family="Helvetica" font-size="10.00">Loop: &lt;none&gt;</text>
<text text-anchor="middle" x="5371" y="-59" font-family="Helvetica" font-size="10.00">&#45;&#45;&#45;</text>
<text text-anchor="middle" x="5371" y="-48" font-family="Helvetica" font-size="10.00">HotSpotMethod&lt;ArraysSupport.unsignedHashCode(int, byte[], int, int)&gt;</text>
</g>
<!-- b18&#45;&gt;b22 -->
<g id="edge27" class="edge">
<title>b18&#45;&gt;b22</title>
<path fill="none" stroke="black" d="M5100.09,-109.49C5131.98,-104.47 5165.56,-99.18 5197.77,-94.11"/>
<polygon fill="black" stroke="black" points="5198.39,-97.56 5207.72,-92.54 5197.3,-90.64 5198.39,-97.56"/>
</g>
<!-- b19&#45;&gt;b20 -->
<g id="edge28" class="edge">
<title>b19&#45;&gt;b20</title>
<path fill="none" stroke="black" d="M2424.82,-438.07C2495.29,-458.3 2592.89,-486.31 2665.65,-507.2"/>
<polygon fill="black" stroke="black" points="2664.72,-510.57 2675.3,-509.96 2666.65,-503.84 2664.72,-510.57"/>
</g>
<!-- b21&#45;&gt;b22 -->
<g id="edge29" class="edge">
<title>b21&#45;&gt;b22</title>
<path fill="none" stroke="black" d="M1194.08,-49.75C1367.83,-28.83 1651.92,0 1898,0 1898,0 1898,0 4504,0 4745.3,0 5023.3,-26.18 5197.84,-45.81"/>
<polygon fill="black" stroke="black" points="5197.56,-49.3 5207.89,-46.94 5198.34,-42.34 5197.56,-49.3"/>
</g>
</g>
</svg>
