<?xml version="1.0" encoding="UTF-8" standalone="no"?>
<!DOCTYPE svg PUBLIC "-//W3C//DTD SVG 1.1//EN"
 "http://www.w3.org/Graphics/SVG/1.1/DTD/svg11.dtd">
<!-- Generated by graphviz version 2.44.0 (0)
 -->
<!-- Title: CFG_55 Pages: 1 -->
<svg width="6564pt" height="1318pt"
 viewBox="0.00 0.00 6564.00 1318.19" xmlns="http://www.w3.org/2000/svg" xmlns:xlink="http://www.w3.org/1999/xlink">
<g id="graph0" class="graph" transform="scale(1 1) rotate(0) translate(4 1314.19)">
<title>CFG_55</title>
<polygon fill="white" stroke="transparent" points="-4,4 -4,-1314.19 6560,-1314.19 6560,4 -4,4"/>
<text text-anchor="middle" x="286" y="-1290.19" font-family="Times-Roman" font-size="20.00">87&#45;java.lang.StringCoding.countPositives(byte[], int, int)</text>
<!-- b0 -->
<g id="node1" class="node">
<title>b0</title>
<polygon fill="white" stroke="black" points="284,-891.19 0,-891.19 0,-839.19 284,-839.19 284,-891.19"/>
<text text-anchor="middle" x="142" y="-879.19" font-family="Helvetica" font-size="10.00">B0</text>
<text text-anchor="middle" x="142" y="-868.19" font-family="Helvetica" font-size="10.00">Loop: &lt;none&gt;</text>
<text text-anchor="middle" x="142" y="-857.19" font-family="Helvetica" font-size="10.00">&#45;&#45;&#45;</text>
<text text-anchor="middle" x="142" y="-846.19" font-family="Helvetica" font-size="10.00">HotSpotMethod&lt;StringCoding.countPositives(byte[], int, int)&gt;</text>
</g>
<!-- b1 -->
<g id="node2" class="node">
<title>b1</title>
<polygon fill="white" stroke="black" points="676,-953.19 392,-953.19 392,-901.19 676,-901.19 676,-953.19"/>
<text text-anchor="middle" x="534" y="-941.19" font-family="Helvetica" font-size="10.00">B1</text>
<text text-anchor="middle" x="534" y="-930.19" font-family="Helvetica" font-size="10.00">Loop: &lt;none&gt;</text>
<text text-anchor="middle" x="534" y="-919.19" font-family="Helvetica" font-size="10.00">&#45;&#45;&#45;</text>
<text text-anchor="middle" x="534" y="-908.19" font-family="Helvetica" font-size="10.00">HotSpotMethod&lt;StringCoding.countPositives(byte[], int, int)&gt;</text>
</g>
<!-- b0&#45;&gt;b1 -->
<g id="edge1" class="edge">
<title>b0&#45;&gt;b1</title>
<path fill="none" stroke="black" d="M284.07,-887.62C315.9,-892.68 349.79,-898.06 382,-903.19"/>
<polygon fill="black" stroke="black" points="381.52,-906.65 391.94,-904.77 382.62,-899.74 381.52,-906.65"/>
</g>
<!-- b2 -->
<g id="node3" class="node">
<title>b2</title>
<polygon fill="white" stroke="black" points="676,-829.19 392,-829.19 392,-777.19 676,-777.19 676,-829.19"/>
<text text-anchor="middle" x="534" y="-817.19" font-family="Helvetica" font-size="10.00">B2</text>
<text text-anchor="middle" x="534" y="-806.19" font-family="Helvetica" font-size="10.00">Loop: &lt;none&gt;</text>
<text text-anchor="middle" x="534" y="-795.19" font-family="Helvetica" font-size="10.00">&#45;&#45;&#45;</text>
<text text-anchor="middle" x="534" y="-784.19" font-family="Helvetica" font-size="10.00">HotSpotMethod&lt;StringCoding.countPositives(byte[], int, int)&gt;</text>
</g>
<!-- b0&#45;&gt;b2 -->
<g id="edge2" class="edge">
<title>b0&#45;&gt;b2</title>
<path fill="none" stroke="black" d="M284.07,-842.76C315.9,-837.7 349.79,-832.31 382,-827.19"/>
<polygon fill="black" stroke="black" points="382.62,-830.64 391.94,-825.61 381.52,-823.73 382.62,-830.64"/>
</g>
<!-- b3 -->
<g id="node4" class="node">
<title>b3</title>
<polygon fill="white" stroke="black" points="1068,-891.19 784,-891.19 784,-839.19 1068,-839.19 1068,-891.19"/>
<text text-anchor="middle" x="926" y="-879.19" font-family="Helvetica" font-size="10.00">B3</text>
<text text-anchor="middle" x="926" y="-868.19" font-family="Helvetica" font-size="10.00">Loop: &lt;none&gt;</text>
<text text-anchor="middle" x="926" y="-857.19" font-family="Helvetica" font-size="10.00">&#45;&#45;&#45;</text>
<text text-anchor="middle" x="926" y="-846.19" font-family="Helvetica" font-size="10.00">HotSpotMethod&lt;StringCoding.countPositives(byte[], int, int)&gt;</text>
</g>
<!-- b1&#45;&gt;b3 -->
<g id="edge3" class="edge">
<title>b1&#45;&gt;b3</title>
<path fill="none" stroke="black" d="M676.07,-904.76C707.9,-899.7 741.79,-894.31 774,-889.19"/>
<polygon fill="black" stroke="black" points="774.62,-892.64 783.94,-887.61 773.52,-885.73 774.62,-892.64"/>
</g>
<!-- b2&#45;&gt;b3 -->
<g id="edge4" class="edge">
<title>b2&#45;&gt;b3</title>
<path fill="none" stroke="black" d="M676.07,-825.62C707.9,-830.68 741.79,-836.06 774,-841.19"/>
<polygon fill="black" stroke="black" points="773.52,-844.65 783.94,-842.77 774.62,-837.74 773.52,-844.65"/>
</g>
<!-- b5 -->
<g id="node6" class="node">
<title>b5</title>
<polygon fill="white" stroke="black" points="1460,-762.19 1176,-762.19 1176,-710.19 1460,-710.19 1460,-762.19"/>
<text text-anchor="middle" x="1318" y="-750.19" font-family="Helvetica" font-size="10.00">B5</text>
<text text-anchor="middle" x="1318" y="-739.19" font-family="Helvetica" font-size="10.00">Loop: &lt;none&gt;</text>
<text text-anchor="middle" x="1318" y="-728.19" font-family="Helvetica" font-size="10.00">&#45;&#45;&#45;</text>
<text text-anchor="middle" x="1318" y="-717.19" font-family="Helvetica" font-size="10.00">HotSpotMethod&lt;StringCoding.countPositives(byte[], int, int)&gt;</text>
</g>
<!-- b3&#45;&gt;b5 -->
<g id="edge6" class="edge">
<title>b3&#45;&gt;b5</title>
<path fill="none" stroke="black" d="M1005.92,-839.08C1070.41,-817.75 1161.54,-787.61 1228.5,-765.46"/>
<polygon fill="black" stroke="black" points="1229.8,-768.72 1238.2,-762.26 1227.6,-762.07 1229.8,-768.72"/>
</g>
<!-- b7 -->
<g id="node8" class="node">
<title>b7</title>
<polygon fill="white" stroke="black" points="1852,-1021.19 1568,-1021.19 1568,-969.19 1852,-969.19 1852,-1021.19"/>
<text text-anchor="middle" x="1710" y="-1009.19" font-family="Helvetica" font-size="10.00">B7</text>
<text text-anchor="middle" x="1710" y="-998.19" font-family="Helvetica" font-size="10.00">Loop: &lt;none&gt;</text>
<text text-anchor="middle" x="1710" y="-987.19" font-family="Helvetica" font-size="10.00">&#45;&#45;&#45;</text>
<text text-anchor="middle" x="1710" y="-976.19" font-family="Helvetica" font-size="10.00">HotSpotMethod&lt;StringCoding.countPositives(byte[], int, int)&gt;</text>
</g>
<!-- b3&#45;&gt;b7 -->
<g id="edge5" class="edge">
<title>b3&#45;&gt;b7</title>
<path fill="none" stroke="black" d="M1031.37,-891.26C1075.77,-901.78 1128.23,-913.47 1176,-922.19 1304.06,-945.57 1450.67,-965.13 1557.67,-978.1"/>
<polygon fill="black" stroke="black" points="1557.55,-981.61 1567.9,-979.33 1558.39,-974.66 1557.55,-981.61"/>
</g>
<!-- b4 -->
<g id="node5" class="node">
<title>b4</title>
<polygon fill="white" stroke="black" points="1460,-886.19 1176,-886.19 1176,-834.19 1460,-834.19 1460,-886.19"/>
<text text-anchor="middle" x="1318" y="-874.19" font-family="Helvetica" font-size="10.00">B4</text>
<text text-anchor="middle" x="1318" y="-863.19" font-family="Helvetica" font-size="10.00">Loop: &lt;none&gt;</text>
<text text-anchor="middle" x="1318" y="-852.19" font-family="Helvetica" font-size="10.00">&#45;&#45;&#45;</text>
<text text-anchor="middle" x="1318" y="-841.19" font-family="Helvetica" font-size="10.00">HotSpotMethod&lt;StringCoding.countPositives(byte[], int, int)&gt;</text>
</g>
<!-- b4&#45;&gt;b7 -->
<g id="edge7" class="edge">
<title>b4&#45;&gt;b7</title>
<path fill="none" stroke="black" d="M1394.2,-886.22C1460.05,-909.01 1555.66,-942.11 1624.22,-965.84"/>
<polygon fill="black" stroke="black" points="1623.11,-969.16 1633.7,-969.13 1625.4,-962.55 1623.11,-969.16"/>
</g>
<!-- b5&#45;&gt;b7 -->
<g id="edge8" class="edge">
<title>b5&#45;&gt;b7</title>
<path fill="none" stroke="black" d="M1387.81,-762.29C1411.36,-772.3 1437.43,-784.61 1460,-798.19 1541.7,-847.36 1626.69,-920.04 1673.21,-962"/>
<polygon fill="black" stroke="black" points="1671.13,-964.83 1680.89,-968.96 1675.83,-959.65 1671.13,-964.83"/>
</g>
<!-- b33 -->
<g id="node34" class="node">
<title>b33</title>
<polygon fill="white" stroke="black" points="2244,-252.19 1960,-252.19 1960,-200.19 2244,-200.19 2244,-252.19"/>
<text text-anchor="middle" x="2102" y="-240.19" font-family="Helvetica" font-size="10.00">B33</text>
<text text-anchor="middle" x="2102" y="-229.19" font-family="Helvetica" font-size="10.00">Loop: &lt;none&gt;</text>
<text text-anchor="middle" x="2102" y="-218.19" font-family="Helvetica" font-size="10.00">&#45;&#45;&#45;</text>
<text text-anchor="middle" x="2102" y="-207.19" font-family="Helvetica" font-size="10.00">HotSpotMethod&lt;StringCoding.countPositives(byte[], int, int)&gt;</text>
</g>
<!-- b5&#45;&gt;b33 -->
<g id="edge9" class="edge">
<title>b5&#45;&gt;b33</title>
<path fill="none" stroke="black" d="M1359.13,-710.02C1490.69,-624.22 1908.74,-351.57 2052.16,-258.04"/>
<polygon fill="black" stroke="black" points="2054.34,-260.8 2060.8,-252.41 2050.51,-254.94 2054.34,-260.8"/>
</g>
<!-- b6 -->
<g id="node7" class="node">
<title>b6</title>
<polygon fill="white" stroke="black" points="1460,-1156.19 1176,-1156.19 1176,-1104.19 1460,-1104.19 1460,-1156.19"/>
<text text-anchor="middle" x="1318" y="-1144.19" font-family="Helvetica" font-size="10.00">B6</text>
<text text-anchor="middle" x="1318" y="-1133.19" font-family="Helvetica" font-size="10.00">Loop: &lt;none&gt;</text>
<text text-anchor="middle" x="1318" y="-1122.19" font-family="Helvetica" font-size="10.00">&#45;&#45;&#45;</text>
<text text-anchor="middle" x="1318" y="-1111.19" font-family="Helvetica" font-size="10.00">HotSpotMethod&lt;StringCoding.countPositives(byte[], int, int)&gt;</text>
</g>
<!-- b6&#45;&gt;b7 -->
<g id="edge10" class="edge">
<title>b6&#45;&gt;b7</title>
<path fill="none" stroke="black" d="M1394.2,-1104.16C1460.05,-1081.37 1555.66,-1048.27 1624.22,-1024.54"/>
<polygon fill="black" stroke="black" points="1625.4,-1027.83 1633.7,-1021.25 1623.11,-1021.22 1625.4,-1027.83"/>
</g>
<!-- b8 -->
<g id="node9" class="node">
<title>b8</title>
<polygon fill="white" stroke="black" points="2244,-1021.19 1960,-1021.19 1960,-969.19 2244,-969.19 2244,-1021.19"/>
<text text-anchor="middle" x="2102" y="-1009.19" font-family="Helvetica" font-size="10.00">B8</text>
<text text-anchor="middle" x="2102" y="-998.19" font-family="Helvetica" font-size="10.00">Loop: &lt;none&gt;</text>
<text text-anchor="middle" x="2102" y="-987.19" font-family="Helvetica" font-size="10.00">&#45;&#45;&#45;</text>
<text text-anchor="middle" x="2102" y="-976.19" font-family="Helvetica" font-size="10.00">HotSpotMethod&lt;StringCoding.countPositives(byte[], int, int)&gt;</text>
</g>
<!-- b7&#45;&gt;b8 -->
<g id="edge11" class="edge">
<title>b7&#45;&gt;b8</title>
<path fill="none" stroke="black" d="M1852.07,-995.19C1883.76,-995.19 1917.5,-995.19 1949.59,-995.19"/>
<polygon fill="black" stroke="black" points="1949.94,-998.69 1959.94,-995.19 1949.94,-991.69 1949.94,-998.69"/>
</g>
<!-- b32 -->
<g id="node33" class="node">
<title>b32</title>
<polygon fill="white" stroke="black" points="6556,-1011.19 6272,-1011.19 6272,-959.19 6556,-959.19 6556,-1011.19"/>
<text text-anchor="middle" x="6414" y="-999.19" font-family="Helvetica" font-size="10.00">B32</text>
<text text-anchor="middle" x="6414" y="-988.19" font-family="Helvetica" font-size="10.00">Loop: &lt;none&gt;</text>
<text text-anchor="middle" x="6414" y="-977.19" font-family="Helvetica" font-size="10.00">&#45;&#45;&#45;</text>
<text text-anchor="middle" x="6414" y="-966.19" font-family="Helvetica" font-size="10.00">HotSpotMethod&lt;StringCoding.countPositives(byte[], int, int)&gt;</text>
</g>
<!-- b7&#45;&gt;b32 -->
<g id="edge12" class="edge">
<title>b7&#45;&gt;b32</title>
<path fill="none" stroke="black" d="M1751.06,-1021.24C1863.26,-1091.59 2192.08,-1280.19 2493,-1280.19 2493,-1280.19 2493,-1280.19 5631,-1280.19 5926.86,-1280.19 6247.51,-1093.05 6365.77,-1016.87"/>
<polygon fill="black" stroke="black" points="6367.78,-1019.75 6374.27,-1011.37 6363.97,-1013.87 6367.78,-1019.75"/>
</g>
<!-- b9 -->
<g id="node10" class="node">
<title>b9</title>
<polygon fill="white" stroke="black" points="2636,-910.19 2352,-910.19 2352,-858.19 2636,-858.19 2636,-910.19"/>
<text text-anchor="middle" x="2494" y="-898.19" font-family="Helvetica" font-size="10.00">B9</text>
<text text-anchor="middle" x="2494" y="-887.19" font-family="Helvetica" font-size="10.00">Loop: &lt;none&gt;</text>
<text text-anchor="middle" x="2494" y="-876.19" font-family="Helvetica" font-size="10.00">&#45;&#45;&#45;</text>
<text text-anchor="middle" x="2494" y="-865.19" font-family="Helvetica" font-size="10.00">HotSpotMethod&lt;StringCoding.countPositives(byte[], int, int)&gt;</text>
</g>
<!-- b8&#45;&gt;b9 -->
<g id="edge13" class="edge">
<title>b8&#45;&gt;b9</title>
<path fill="none" stroke="black" d="M2194.44,-969.17C2253.63,-952.32 2330.77,-930.36 2391.81,-912.99"/>
<polygon fill="black" stroke="black" points="2392.8,-916.35 2401.46,-910.24 2390.88,-909.61 2392.8,-916.35"/>
</g>
<!-- b30 -->
<g id="node31" class="node">
<title>b30</title>
<polygon fill="white" stroke="black" points="3420,-1155.19 3136,-1155.19 3136,-1103.19 3420,-1103.19 3420,-1155.19"/>
<text text-anchor="middle" x="3278" y="-1143.19" font-family="Helvetica" font-size="10.00">B30</text>
<text text-anchor="middle" x="3278" y="-1132.19" font-family="Helvetica" font-size="10.00">Loop: &lt;none&gt;</text>
<text text-anchor="middle" x="3278" y="-1121.19" font-family="Helvetica" font-size="10.00">&#45;&#45;&#45;</text>
<text text-anchor="middle" x="3278" y="-1110.19" font-family="Helvetica" font-size="10.00">HotSpotMethod&lt;StringCoding.countPositives(byte[], int, int)&gt;</text>
</g>
<!-- b8&#45;&gt;b30 -->
<g id="edge14" class="edge">
<title>b8&#45;&gt;b30</title>
<path fill="none" stroke="black" d="M2244.03,-1011.29C2466.45,-1036.67 2896.86,-1085.8 3125.57,-1111.91"/>
<polygon fill="black" stroke="black" points="3125.31,-1115.4 3135.64,-1113.06 3126.1,-1108.44 3125.31,-1115.4"/>
</g>
<!-- b10 -->
<g id="node11" class="node">
<title>b10</title>
<polygon fill="white" stroke="black" points="3812,-334.19 3528,-334.19 3528,-282.19 3812,-282.19 3812,-334.19"/>
<text text-anchor="middle" x="3670" y="-322.19" font-family="Helvetica" font-size="10.00">B10</text>
<text text-anchor="middle" x="3670" y="-311.19" font-family="Helvetica" font-size="10.00">Loop: &lt;none&gt;</text>
<text text-anchor="middle" x="3670" y="-300.19" font-family="Helvetica" font-size="10.00">&#45;&#45;&#45;</text>
<text text-anchor="middle" x="3670" y="-289.19" font-family="Helvetica" font-size="10.00">HotSpotMethod&lt;StringCoding.countPositives(byte[], int, int)&gt;</text>
</g>
<!-- b9&#45;&gt;b10 -->
<g id="edge15" class="edge">
<title>b9&#45;&gt;b10</title>
<path fill="none" stroke="black" d="M2548.11,-858.13C2740.43,-763.77 3400.01,-440.17 3606.61,-338.8"/>
<polygon fill="black" stroke="black" points="3608.37,-341.84 3615.81,-334.29 3605.29,-335.55 3608.37,-341.84"/>
</g>
<!-- b11 -->
<g id="node12" class="node">
<title>b11</title>
<polygon fill="white" stroke="black" points="3028,-910.19 2744,-910.19 2744,-858.19 3028,-858.19 3028,-910.19"/>
<text text-anchor="middle" x="2886" y="-898.19" font-family="Helvetica" font-size="10.00">B11</text>
<text text-anchor="middle" x="2886" y="-887.19" font-family="Helvetica" font-size="10.00">Loop: &lt;none&gt;</text>
<text text-anchor="middle" x="2886" y="-876.19" font-family="Helvetica" font-size="10.00">&#45;&#45;&#45;</text>
<text text-anchor="middle" x="2886" y="-865.19" font-family="Helvetica" font-size="10.00">HotSpotMethod&lt;StringCoding.countPositives(byte[], int, int)&gt;</text>
</g>
<!-- b9&#45;&gt;b11 -->
<g id="edge16" class="edge">
<title>b9&#45;&gt;b11</title>
<path fill="none" stroke="black" d="M2636.07,-884.19C2667.76,-884.19 2701.5,-884.19 2733.59,-884.19"/>
<polygon fill="black" stroke="black" points="2733.94,-887.69 2743.94,-884.19 2733.94,-880.69 2733.94,-887.69"/>
</g>
<!-- b34 -->
<g id="node35" class="node">
<title>b34</title>
<polygon fill="white" stroke="black" points="5772,-573.19 5488,-573.19 5488,-521.19 5772,-521.19 5772,-573.19"/>
<text text-anchor="middle" x="5630" y="-561.19" font-family="Helvetica" font-size="10.00">B34</text>
<text text-anchor="middle" x="5630" y="-550.19" font-family="Helvetica" font-size="10.00">Loop: &lt;none&gt;</text>
<text text-anchor="middle" x="5630" y="-539.19" font-family="Helvetica" font-size="10.00">&#45;&#45;&#45;</text>
<text text-anchor="middle" x="5630" y="-528.19" font-family="Helvetica" font-size="10.00">HotSpotMethod&lt;StringCoding.countPositives(byte[], int, int)&gt;</text>
</g>
<!-- b10&#45;&gt;b34 -->
<g id="edge17" class="edge">
<title>b10&#45;&gt;b34</title>
<path fill="none" stroke="black" d="M3762.09,-282.16C3808.86,-270.12 3867.01,-257.18 3920,-251.19 4045.42,-237.02 4077.91,-245.31 4204,-251.19 4728.38,-275.66 4890.09,-172.62 5380,-361.19 5468.54,-395.27 5552.92,-470.28 5597.08,-513.92"/>
<polygon fill="black" stroke="black" points="5594.79,-516.57 5604.34,-521.16 5599.74,-511.62 5594.79,-516.57"/>
</g>
<!-- b12 -->
<g id="node13" class="node">
<title>b12</title>
<polygon fill="white" stroke="black" points="3420,-801.19 3136,-801.19 3136,-749.19 3420,-749.19 3420,-801.19"/>
<text text-anchor="middle" x="3278" y="-789.19" font-family="Helvetica" font-size="10.00">B12</text>
<text text-anchor="middle" x="3278" y="-778.19" font-family="Helvetica" font-size="10.00">Loop: &lt;none&gt;</text>
<text text-anchor="middle" x="3278" y="-767.19" font-family="Helvetica" font-size="10.00">&#45;&#45;&#45;</text>
<text text-anchor="middle" x="3278" y="-756.19" font-family="Helvetica" font-size="10.00">HotSpotMethod&lt;StringCoding.countPositives(byte[], int, int)&gt;</text>
</g>
<!-- b11&#45;&gt;b12 -->
<g id="edge18" class="edge">
<title>b11&#45;&gt;b12</title>
<path fill="none" stroke="black" d="M2980.41,-858.08C3038.69,-841.79 3113.76,-820.81 3173.79,-804.04"/>
<polygon fill="black" stroke="black" points="3174.98,-807.34 3183.67,-801.27 3173.1,-800.59 3174.98,-807.34"/>
</g>
<!-- b11&#45;&gt;b32 -->
<g id="edge19" class="edge">
<title>b11&#45;&gt;b32</title>
<path fill="none" stroke="black" d="M3007.24,-910.23C3160.21,-941.04 3432.92,-988.19 3669,-988.19 3669,-988.19 3669,-988.19 4455,-988.19 5088.88,-988.19 5246.26,-1034.08 5880,-1047.19 6006.2,-1049.8 6038.72,-1062.55 6164,-1047.19 6216.53,-1040.75 6273.93,-1026.93 6320.37,-1013.98"/>
<polygon fill="black" stroke="black" points="6321.43,-1017.31 6330.1,-1011.23 6319.53,-1010.58 6321.43,-1017.31"/>
</g>
<!-- b13 -->
<g id="node14" class="node">
<title>b13</title>
<polygon fill="white" stroke="black" points="3812,-801.19 3528,-801.19 3528,-749.19 3812,-749.19 3812,-801.19"/>
<text text-anchor="middle" x="3670" y="-789.19" font-family="Helvetica" font-size="10.00">B13</text>
<text text-anchor="middle" x="3670" y="-778.19" font-family="Helvetica" font-size="10.00">Loop: &lt;none&gt;</text>
<text text-anchor="middle" x="3670" y="-767.19" font-family="Helvetica" font-size="10.00">&#45;&#45;&#45;</text>
<text text-anchor="middle" x="3670" y="-756.19" font-family="Helvetica" font-size="10.00">HotSpotMethod&lt;StringCoding.countPositives(byte[], int, int)&gt;</text>
</g>
<!-- b12&#45;&gt;b13 -->
<g id="edge20" class="edge">
<title>b12&#45;&gt;b13</title>
<path fill="none" stroke="black" d="M3420.07,-775.19C3451.76,-775.19 3485.5,-775.19 3517.59,-775.19"/>
<polygon fill="black" stroke="black" points="3517.94,-778.69 3527.94,-775.19 3517.94,-771.69 3517.94,-778.69"/>
</g>
<!-- b19 -->
<g id="node20" class="node">
<title>b19</title>
<polygon fill="white" stroke="black" points="4596,-525.19 4312,-525.19 4312,-473.19 4596,-473.19 4596,-525.19"/>
<text text-anchor="middle" x="4454" y="-513.19" font-family="Helvetica" font-size="10.00">B19</text>
<text text-anchor="middle" x="4454" y="-502.19" font-family="Helvetica" font-size="10.00">Loop: &lt;none&gt;</text>
<text text-anchor="middle" x="4454" y="-491.19" font-family="Helvetica" font-size="10.00">&#45;&#45;&#45;</text>
<text text-anchor="middle" x="4454" y="-480.19" font-family="Helvetica" font-size="10.00">HotSpotMethod&lt;StringCoding.countPositives(byte[], int, int)&gt;</text>
</g>
<!-- b12&#45;&gt;b19 -->
<g id="edge21" class="edge">
<title>b12&#45;&gt;b19</title>
<path fill="none" stroke="black" d="M3381.88,-749.16C3426.72,-737.93 3479.92,-724.74 3528,-713.19 3813.5,-644.63 4149.55,-567.86 4327.56,-527.51"/>
<polygon fill="black" stroke="black" points="4328.51,-530.89 4337.49,-525.26 4326.96,-524.06 4328.51,-530.89"/>
</g>
<!-- b14 -->
<g id="node15" class="node">
<title>b14</title>
<polygon fill="white" stroke="black" points="4204,-733.19 3920,-733.19 3920,-681.19 4204,-681.19 4204,-733.19"/>
<text text-anchor="middle" x="4062" y="-721.19" font-family="Helvetica" font-size="10.00">B14</text>
<text text-anchor="middle" x="4062" y="-710.19" font-family="Helvetica" font-size="10.00">Loop: &lt;none&gt;</text>
<text text-anchor="middle" x="4062" y="-699.19" font-family="Helvetica" font-size="10.00">&#45;&#45;&#45;</text>
<text text-anchor="middle" x="4062" y="-688.19" font-family="Helvetica" font-size="10.00">HotSpotMethod&lt;StringCoding.countPositives(byte[], int, int)&gt;</text>
</g>
<!-- b13&#45;&gt;b14 -->
<g id="edge22" class="edge">
<title>b13&#45;&gt;b14</title>
<path fill="none" stroke="black" d="M3812.07,-750.59C3843.9,-745.04 3877.79,-739.13 3910,-733.52"/>
<polygon fill="black" stroke="black" points="3910.69,-736.95 3919.94,-731.78 3909.49,-730.05 3910.69,-736.95"/>
</g>
<!-- b17 -->
<g id="node18" class="node">
<title>b17</title>
<polygon fill="white" stroke="black" points="4596,-868.19 4312,-868.19 4312,-816.19 4596,-816.19 4596,-868.19"/>
<text text-anchor="middle" x="4454" y="-856.19" font-family="Helvetica" font-size="10.00">B17</text>
<text text-anchor="middle" x="4454" y="-845.19" font-family="Helvetica" font-size="10.00">Loop: &lt;none&gt;</text>
<text text-anchor="middle" x="4454" y="-834.19" font-family="Helvetica" font-size="10.00">&#45;&#45;&#45;</text>
<text text-anchor="middle" x="4454" y="-823.19" font-family="Helvetica" font-size="10.00">HotSpotMethod&lt;StringCoding.countPositives(byte[], int, int)&gt;</text>
</g>
<!-- b13&#45;&gt;b17 -->
<g id="edge23" class="edge">
<title>b13&#45;&gt;b17</title>
<path fill="none" stroke="black" d="M3812.16,-787.28C3950.39,-799.13 4160.31,-817.11 4301.87,-829.24"/>
<polygon fill="black" stroke="black" points="4301.68,-832.74 4311.94,-830.1 4302.28,-825.76 4301.68,-832.74"/>
</g>
<!-- b16 -->
<g id="node17" class="node">
<title>b16</title>
<polygon fill="white" stroke="black" points="4988,-714.19 4704,-714.19 4704,-662.19 4988,-662.19 4988,-714.19"/>
<text text-anchor="middle" x="4846" y="-702.19" font-family="Helvetica" font-size="10.00">B16</text>
<text text-anchor="middle" x="4846" y="-691.19" font-family="Helvetica" font-size="10.00">Loop: &lt;none&gt;</text>
<text text-anchor="middle" x="4846" y="-680.19" font-family="Helvetica" font-size="10.00">&#45;&#45;&#45;</text>
<text text-anchor="middle" x="4846" y="-669.19" font-family="Helvetica" font-size="10.00">HotSpotMethod&lt;StringCoding.countPositives(byte[], int, int)&gt;</text>
</g>
<!-- b14&#45;&gt;b16 -->
<g id="edge25" class="edge">
<title>b14&#45;&gt;b16</title>
<path fill="none" stroke="black" d="M4204.16,-703.76C4342.39,-700.4 4552.31,-695.3 4693.87,-691.86"/>
<polygon fill="black" stroke="black" points="4694.03,-695.36 4703.94,-691.62 4693.86,-688.36 4694.03,-695.36"/>
</g>
<!-- b14&#45;&gt;b19 -->
<g id="edge24" class="edge">
<title>b14&#45;&gt;b19</title>
<path fill="none" stroke="black" d="M4112,-681.06C4184.05,-642.63 4318.32,-571.02 4395.13,-530.05"/>
<polygon fill="black" stroke="black" points="4397.03,-533.01 4404.2,-525.22 4393.73,-526.83 4397.03,-533.01"/>
</g>
<!-- b15 -->
<g id="node16" class="node">
<title>b15</title>
<polygon fill="white" stroke="black" points="4204,-463.19 3920,-463.19 3920,-411.19 4204,-411.19 4204,-463.19"/>
<text text-anchor="middle" x="4062" y="-451.19" font-family="Helvetica" font-size="10.00">B15</text>
<text text-anchor="middle" x="4062" y="-440.19" font-family="Helvetica" font-size="10.00">Loop: &lt;none&gt;</text>
<text text-anchor="middle" x="4062" y="-429.19" font-family="Helvetica" font-size="10.00">&#45;&#45;&#45;</text>
<text text-anchor="middle" x="4062" y="-418.19" font-family="Helvetica" font-size="10.00">HotSpotMethod&lt;StringCoding.countPositives(byte[], int, int)&gt;</text>
</g>
<!-- b15&#45;&gt;b19 -->
<g id="edge26" class="edge">
<title>b15&#45;&gt;b19</title>
<path fill="none" stroke="black" d="M4204.07,-459.62C4235.9,-464.68 4269.79,-470.06 4302,-475.19"/>
<polygon fill="black" stroke="black" points="4301.52,-478.65 4311.94,-476.77 4302.62,-471.74 4301.52,-478.65"/>
</g>
<!-- b16&#45;&gt;b34 -->
<g id="edge27" class="edge">
<title>b16&#45;&gt;b34</title>
<path fill="none" stroke="black" d="M4988.2,-671.05C5096,-657.06 5247.98,-635.35 5380,-609.19 5427.53,-599.77 5479.63,-587.16 5523.82,-575.78"/>
<polygon fill="black" stroke="black" points="5524.91,-579.11 5533.71,-573.22 5523.15,-572.34 5524.91,-579.11"/>
</g>
<!-- b17&#45;&gt;b34 -->
<g id="edge28" class="edge">
<title>b17&#45;&gt;b34</title>
<path fill="none" stroke="black" d="M4596.28,-833.71C4781.03,-819.23 5112.62,-781.5 5380,-687.19 5455.89,-660.42 5535.61,-611.34 5583.81,-578.99"/>
<polygon fill="black" stroke="black" points="5585.83,-581.85 5592.15,-573.35 5581.91,-576.06 5585.83,-581.85"/>
</g>
<!-- b18 -->
<g id="node19" class="node">
<title>b18</title>
<polygon fill="white" stroke="black" points="4204,-339.19 3920,-339.19 3920,-287.19 4204,-287.19 4204,-339.19"/>
<text text-anchor="middle" x="4062" y="-327.19" font-family="Helvetica" font-size="10.00">B18</text>
<text text-anchor="middle" x="4062" y="-316.19" font-family="Helvetica" font-size="10.00">Loop: &lt;none&gt;</text>
<text text-anchor="middle" x="4062" y="-305.19" font-family="Helvetica" font-size="10.00">&#45;&#45;&#45;</text>
<text text-anchor="middle" x="4062" y="-294.19" font-family="Helvetica" font-size="10.00">HotSpotMethod&lt;StringCoding.countPositives(byte[], int, int)&gt;</text>
</g>
<!-- b18&#45;&gt;b19 -->
<g id="edge29" class="edge">
<title>b18&#45;&gt;b19</title>
<path fill="none" stroke="black" d="M4124.01,-339.26C4148.94,-350.11 4177.97,-362.99 4204,-375.19 4269.25,-405.76 4343.03,-442.82 4393.23,-468.42"/>
<polygon fill="black" stroke="black" points="4391.82,-471.63 4402.32,-473.06 4395.01,-465.4 4391.82,-471.63"/>
</g>
<!-- b20 -->
<g id="node21" class="node">
<title>b20</title>
<polygon fill="white" stroke="black" points="4988,-438.19 4704,-438.19 4704,-386.19 4988,-386.19 4988,-438.19"/>
<text text-anchor="middle" x="4846" y="-426.19" font-family="Helvetica" font-size="10.00">B20</text>
<text text-anchor="middle" x="4846" y="-415.19" font-family="Helvetica" font-size="10.00">Loop: &lt;none&gt;</text>
<text text-anchor="middle" x="4846" y="-404.19" font-family="Helvetica" font-size="10.00">&#45;&#45;&#45;</text>
<text text-anchor="middle" x="4846" y="-393.19" font-family="Helvetica" font-size="10.00">HotSpotMethod&lt;StringCoding.countPositives(byte[], int, int)&gt;</text>
</g>
<!-- b19&#45;&gt;b20 -->
<g id="edge30" class="edge">
<title>b19&#45;&gt;b20</title>
<path fill="none" stroke="black" d="M4571.75,-473.15C4617.95,-462.84 4671.17,-450.97 4718.3,-440.45"/>
<polygon fill="black" stroke="black" points="4719.26,-443.83 4728.26,-438.23 4717.73,-436.99 4719.26,-443.83"/>
</g>
<!-- b28 -->
<g id="node29" class="node">
<title>b28</title>
<polygon fill="white" stroke="black" points="5380,-573.19 5096,-573.19 5096,-521.19 5380,-521.19 5380,-573.19"/>
<text text-anchor="middle" x="5238" y="-561.19" font-family="Helvetica" font-size="10.00">B28</text>
<text text-anchor="middle" x="5238" y="-550.19" font-family="Helvetica" font-size="10.00">Loop: &lt;none&gt;</text>
<text text-anchor="middle" x="5238" y="-539.19" font-family="Helvetica" font-size="10.00">&#45;&#45;&#45;</text>
<text text-anchor="middle" x="5238" y="-528.19" font-family="Helvetica" font-size="10.00">HotSpotMethod&lt;StringCoding.countPositives(byte[], int, int)&gt;</text>
</g>
<!-- b19&#45;&gt;b28 -->
<g id="edge31" class="edge">
<title>b19&#45;&gt;b28</title>
<path fill="none" stroke="black" d="M4596.16,-507.85C4734.39,-516.34 4944.31,-529.22 5085.87,-537.91"/>
<polygon fill="black" stroke="black" points="5085.75,-541.41 5095.94,-538.53 5086.18,-534.43 5085.75,-541.41"/>
</g>
<!-- b21 -->
<g id="node22" class="node">
<title>b21</title>
<polygon fill="white" stroke="black" points="5380,-449.19 5096,-449.19 5096,-397.19 5380,-397.19 5380,-449.19"/>
<text text-anchor="middle" x="5238" y="-437.19" font-family="Helvetica" font-size="10.00">B21</text>
<text text-anchor="middle" x="5238" y="-426.19" font-family="Helvetica" font-size="10.00">Loop: &lt;none&gt;</text>
<text text-anchor="middle" x="5238" y="-415.19" font-family="Helvetica" font-size="10.00">&#45;&#45;&#45;</text>
<text text-anchor="middle" x="5238" y="-404.19" font-family="Helvetica" font-size="10.00">HotSpotMethod&lt;StringCoding.countPositives(byte[], int, int)&gt;</text>
</g>
<!-- b20&#45;&gt;b21 -->
<g id="edge32" class="edge">
<title>b20&#45;&gt;b21</title>
<path fill="none" stroke="black" d="M4988.07,-416.17C5019.76,-417.06 5053.5,-418.01 5085.59,-418.92"/>
<polygon fill="black" stroke="black" points="5085.85,-422.43 5095.94,-419.21 5086.04,-415.43 5085.85,-422.43"/>
</g>
<!-- b22 -->
<g id="node23" class="node">
<title>b22</title>
<polygon fill="white" stroke="black" points="5380,-179.19 5096,-179.19 5096,-127.19 5380,-127.19 5380,-179.19"/>
<text text-anchor="middle" x="5238" y="-167.19" font-family="Helvetica" font-size="10.00">B22</text>
<text text-anchor="middle" x="5238" y="-156.19" font-family="Helvetica" font-size="10.00">Loop: &lt;none&gt;</text>
<text text-anchor="middle" x="5238" y="-145.19" font-family="Helvetica" font-size="10.00">&#45;&#45;&#45;</text>
<text text-anchor="middle" x="5238" y="-134.19" font-family="Helvetica" font-size="10.00">HotSpotMethod&lt;StringCoding.countPositives(byte[], int, int)&gt;</text>
</g>
<!-- b20&#45;&gt;b22 -->
<g id="edge33" class="edge">
<title>b20&#45;&gt;b22</title>
<path fill="none" stroke="black" d="M4886.18,-386.17C4958.16,-338.37 5111.2,-236.74 5189.17,-184.95"/>
<polygon fill="black" stroke="black" points="5191.45,-187.64 5197.85,-179.19 5187.58,-181.81 5191.45,-187.64"/>
</g>
<!-- b21&#45;&gt;b34 -->
<g id="edge34" class="edge">
<title>b21&#45;&gt;b34</title>
<path fill="none" stroke="black" d="M5321.23,-449.34C5384.47,-469.44 5471.82,-497.21 5537.31,-518.04"/>
<polygon fill="black" stroke="black" points="5536.62,-521.49 5547.21,-521.19 5538.75,-514.82 5536.62,-521.49"/>
</g>
<!-- b23 -->
<g id="node24" class="node">
<title>b23</title>
<polygon fill="lightblue" stroke="black" points="5772,-314.19 5488,-314.19 5488,-262.19 5772,-262.19 5772,-314.19"/>
<text text-anchor="middle" x="5630" y="-302.19" font-family="Helvetica" font-size="10.00">B23</text>
<text text-anchor="middle" x="5630" y="-291.19" font-family="Helvetica" font-size="10.00">Loop: L0</text>
<text text-anchor="middle" x="5630" y="-280.19" font-family="Helvetica" font-size="10.00">&#45;&#45;&#45;</text>
<text text-anchor="middle" x="5630" y="-269.19" font-family="Helvetica" font-size="10.00">HotSpotMethod&lt;StringCoding.countPositives(byte[], int, int)&gt;</text>
</g>
<!-- b22&#45;&gt;b23 -->
<g id="edge35" class="edge">
<title>b22&#45;&gt;b23</title>
<path fill="none" stroke="black" d="M5314.2,-179.22C5380.05,-202.01 5475.66,-235.11 5544.22,-258.84"/>
<polygon fill="black" stroke="black" points="5543.11,-262.16 5553.7,-262.13 5545.4,-255.55 5543.11,-262.16"/>
</g>
<!-- b24 -->
<g id="node25" class="node">
<title>b24</title>
<polygon fill="lightblue" stroke="black" points="6164,-382.19 5880,-382.19 5880,-330.19 6164,-330.19 6164,-382.19"/>
<text text-anchor="middle" x="6022" y="-370.19" font-family="Helvetica" font-size="10.00">B24</text>
<text text-anchor="middle" x="6022" y="-359.19" font-family="Helvetica" font-size="10.00">Loop: L0</text>
<text text-anchor="middle" x="6022" y="-348.19" font-family="Helvetica" font-size="10.00">&#45;&#45;&#45;</text>
<text text-anchor="middle" x="6022" y="-337.19" font-family="Helvetica" font-size="10.00">HotSpotMethod&lt;StringCoding.countPositives(byte[], int, int)&gt;</text>
</g>
<!-- b23&#45;&gt;b24 -->
<g id="edge36" class="edge">
<title>b23&#45;&gt;b24</title>
<path fill="none" stroke="black" d="M5772.07,-312.79C5803.9,-318.34 5837.79,-324.25 5870,-329.86"/>
<polygon fill="black" stroke="black" points="5869.49,-333.33 5879.94,-331.6 5870.69,-326.43 5869.49,-333.33"/>
</g>
<!-- b27 -->
<g id="node28" class="node">
<title>b27</title>
<polygon fill="white" stroke="black" points="6164,-635.19 5880,-635.19 5880,-583.19 6164,-583.19 6164,-635.19"/>
<text text-anchor="middle" x="6022" y="-623.19" font-family="Helvetica" font-size="10.00">B27</text>
<text text-anchor="middle" x="6022" y="-612.19" font-family="Helvetica" font-size="10.00">Loop: &lt;none&gt;</text>
<text text-anchor="middle" x="6022" y="-601.19" font-family="Helvetica" font-size="10.00">&#45;&#45;&#45;</text>
<text text-anchor="middle" x="6022" y="-590.19" font-family="Helvetica" font-size="10.00">HotSpotMethod&lt;StringCoding.countPositives(byte[], int, int)&gt;</text>
</g>
<!-- b23&#45;&gt;b27 -->
<g id="edge37" class="edge">
<title>b23&#45;&gt;b27</title>
<path fill="none" stroke="black" d="M5662.92,-314.46C5733.65,-372.68 5903.47,-512.46 5981.08,-576.34"/>
<polygon fill="black" stroke="black" points="5979.25,-579.36 5989.19,-583.01 5983.69,-573.95 5979.25,-579.36"/>
</g>
<!-- b25 -->
<g id="node26" class="node">
<title>b25</title>
<polygon fill="white" stroke="black" points="6556,-382.19 6272,-382.19 6272,-330.19 6556,-330.19 6556,-382.19"/>
<text text-anchor="middle" x="6414" y="-370.19" font-family="Helvetica" font-size="10.00">B25</text>
<text text-anchor="middle" x="6414" y="-359.19" font-family="Helvetica" font-size="10.00">Loop: &lt;none&gt;</text>
<text text-anchor="middle" x="6414" y="-348.19" font-family="Helvetica" font-size="10.00">&#45;&#45;&#45;</text>
<text text-anchor="middle" x="6414" y="-337.19" font-family="Helvetica" font-size="10.00">HotSpotMethod&lt;StringCoding.countPositives(byte[], int, int)&gt;</text>
</g>
<!-- b24&#45;&gt;b25 -->
<g id="edge38" class="edge">
<title>b24&#45;&gt;b25</title>
<path fill="none" stroke="black" d="M6164.07,-356.19C6195.76,-356.19 6229.5,-356.19 6261.59,-356.19"/>
<polygon fill="black" stroke="black" points="6261.94,-359.69 6271.94,-356.19 6261.94,-352.69 6261.94,-359.69"/>
</g>
<!-- b26 -->
<g id="node27" class="node">
<title>b26</title>
<polygon fill="lightblue" stroke="black" points="6556,-253.19 6272,-253.19 6272,-201.19 6556,-201.19 6556,-253.19"/>
<text text-anchor="middle" x="6414" y="-241.19" font-family="Helvetica" font-size="10.00">B26</text>
<text text-anchor="middle" x="6414" y="-230.19" font-family="Helvetica" font-size="10.00">Loop: L0</text>
<text text-anchor="middle" x="6414" y="-219.19" font-family="Helvetica" font-size="10.00">&#45;&#45;&#45;</text>
<text text-anchor="middle" x="6414" y="-208.19" font-family="Helvetica" font-size="10.00">HotSpotMethod&lt;StringCoding.countPositives(byte[], int, int)&gt;</text>
</g>
<!-- b24&#45;&gt;b26 -->
<g id="edge39" class="edge">
<title>b24&#45;&gt;b26</title>
<path fill="none" stroke="black" d="M6101.92,-330.08C6166.41,-308.75 6257.54,-278.61 6324.5,-256.46"/>
<polygon fill="black" stroke="black" points="6325.8,-259.72 6334.2,-253.26 6323.6,-253.07 6325.8,-259.72"/>
</g>
<!-- b26&#45;&gt;b23 -->
<g id="edge40" class="edge">
<title>b26&#45;&gt;b23</title>
<path fill="none" stroke="black" d="M6271.94,-238.19C6133.75,-248.97 5923.83,-265.35 5782.24,-276.39"/>
<polygon fill="black" stroke="black" points="5781.86,-272.91 5772.16,-277.18 5782.4,-279.89 5781.86,-272.91"/>
</g>
<!-- b27&#45;&gt;b32 -->
<g id="edge41" class="edge">
<title>b27&#45;&gt;b32</title>
<path fill="none" stroke="black" d="M6050.11,-635.33C6119.17,-701.91 6301.62,-877.81 6378.29,-951.73"/>
<polygon fill="black" stroke="black" points="6376.18,-954.55 6385.81,-958.97 6381.04,-949.51 6376.18,-954.55"/>
</g>
<!-- b28&#45;&gt;b34 -->
<g id="edge42" class="edge">
<title>b28&#45;&gt;b34</title>
<path fill="none" stroke="black" d="M5380.07,-547.19C5411.76,-547.19 5445.5,-547.19 5477.59,-547.19"/>
<polygon fill="black" stroke="black" points="5477.94,-550.69 5487.94,-547.19 5477.94,-543.69 5477.94,-550.69"/>
</g>
<!-- b29 -->
<g id="node30" class="node">
<title>b29</title>
<polygon fill="white" stroke="black" points="6164,-1011.19 5880,-1011.19 5880,-959.19 6164,-959.19 6164,-1011.19"/>
<text text-anchor="middle" x="6022" y="-999.19" font-family="Helvetica" font-size="10.00">B29</text>
<text text-anchor="middle" x="6022" y="-988.19" font-family="Helvetica" font-size="10.00">Loop: &lt;none&gt;</text>
<text text-anchor="middle" x="6022" y="-977.19" font-family="Helvetica" font-size="10.00">&#45;&#45;&#45;</text>
<text text-anchor="middle" x="6022" y="-966.19" font-family="Helvetica" font-size="10.00">HotSpotMethod&lt;StringCoding.countPositives(byte[], int, int)&gt;</text>
</g>
<!-- b29&#45;&gt;b32 -->
<g id="edge43" class="edge">
<title>b29&#45;&gt;b32</title>
<path fill="none" stroke="black" d="M6164.07,-985.19C6195.76,-985.19 6229.5,-985.19 6261.59,-985.19"/>
<polygon fill="black" stroke="black" points="6261.94,-988.69 6271.94,-985.19 6261.94,-981.69 6261.94,-988.69"/>
</g>
<!-- b30&#45;&gt;b34 -->
<g id="edge44" class="edge">
<title>b30&#45;&gt;b34</title>
<path fill="none" stroke="black" d="M3420.27,-1130.64C3576.88,-1132.11 3836.99,-1134.19 4061,-1134.19 4061,-1134.19 4061,-1134.19 4455,-1134.19 4895.19,-1134.19 5006.78,-1013.59 5380,-780.19 5470.77,-723.43 5557.54,-630.6 5600.68,-580.98"/>
<polygon fill="black" stroke="black" points="5603.34,-583.26 5607.22,-573.4 5598.04,-578.68 5603.34,-583.26"/>
</g>
<!-- b31 -->
<g id="node32" class="node">
<title>b31</title>
<polygon fill="white" stroke="black" points="6164,-887.19 5880,-887.19 5880,-835.19 6164,-835.19 6164,-887.19"/>
<text text-anchor="middle" x="6022" y="-875.19" font-family="Helvetica" font-size="10.00">B31</text>
<text text-anchor="middle" x="6022" y="-864.19" font-family="Helvetica" font-size="10.00">Loop: &lt;none&gt;</text>
<text text-anchor="middle" x="6022" y="-853.19" font-family="Helvetica" font-size="10.00">&#45;&#45;&#45;</text>
<text text-anchor="middle" x="6022" y="-842.19" font-family="Helvetica" font-size="10.00">HotSpotMethod&lt;StringCoding.countPositives(byte[], int, int)&gt;</text>
</g>
<!-- b31&#45;&gt;b32 -->
<g id="edge45" class="edge">
<title>b31&#45;&gt;b32</title>
<path fill="none" stroke="black" d="M6105.23,-887.34C6168.47,-907.44 6255.82,-935.21 6321.31,-956.04"/>
<polygon fill="black" stroke="black" points="6320.62,-959.49 6331.21,-959.19 6322.75,-952.82 6320.62,-959.49"/>
</g>
<!-- b33&#45;&gt;b34 -->
<g id="edge46" class="edge">
<title>b33&#45;&gt;b34</title>
<path fill="none" stroke="black" d="M2159.98,-200.06C2287.18,-144.19 2605.08,-18.19 2885,-18.19 2885,-18.19 2885,-18.19 4847,-18.19 5086.1,-18.19 5190.52,54.64 5380,-91.19 5478.84,-167.25 5427.32,-241.23 5488,-350.19 5521.67,-410.66 5570.32,-474.78 5600.77,-512.88"/>
<polygon fill="black" stroke="black" points="5598.36,-515.47 5607.35,-521.07 5603.81,-511.08 5598.36,-515.47"/>
</g>
</g>
</svg>
