<?xml version="1.0" encoding="UTF-8" standalone="no"?>
<!DOCTYPE svg PUBLIC "-//W3C//DTD SVG 1.1//EN"
 "http://www.w3.org/Graphics/SVG/1.1/DTD/svg11.dtd">
<!-- Generated by graphviz version 2.44.0 (0)
 -->
<!-- Title: CFG_56 Pages: 1 -->
<svg width="3820pt" height="744pt"
 viewBox="0.00 0.00 3820.00 744.00" xmlns="http://www.w3.org/2000/svg" xmlns:xlink="http://www.w3.org/1999/xlink">
<g id="graph0" class="graph" transform="scale(1 1) rotate(0) translate(4 740)">
<title>CFG_56</title>
<polygon fill="white" stroke="transparent" points="-4,4 -4,-740 3816,-740 3816,4 -4,4"/>
<text text-anchor="middle" x="286" y="-716" font-family="Times-Roman" font-size="20.00">88&#45;java.lang.StringCoding.countPositives(byte[], int, int)</text>
<!-- b0 -->
<g id="node1" class="node">
<title>b0</title>
<polygon fill="white" stroke="black" points="284,-658 0,-658 0,-606 284,-606 284,-658"/>
<text text-anchor="middle" x="142" y="-646" font-family="Helvetica" font-size="10.00">B0</text>
<text text-anchor="middle" x="142" y="-635" font-family="Helvetica" font-size="10.00">Loop: &lt;none&gt;</text>
<text text-anchor="middle" x="142" y="-624" font-family="Helvetica" font-size="10.00">&#45;&#45;&#45;</text>
<text text-anchor="middle" x="142" y="-613" font-family="Helvetica" font-size="10.00">HotSpotMethod&lt;StringCoding.countPositives(byte[], int, int)&gt;</text>
</g>
<!-- b1 -->
<g id="node2" class="node">
<title>b1</title>
<polygon fill="white" stroke="black" points="676,-518 392,-518 392,-466 676,-466 676,-518"/>
<text text-anchor="middle" x="534" y="-506" font-family="Helvetica" font-size="10.00">B1</text>
<text text-anchor="middle" x="534" y="-495" font-family="Helvetica" font-size="10.00">Loop: &lt;none&gt;</text>
<text text-anchor="middle" x="534" y="-484" font-family="Helvetica" font-size="10.00">&#45;&#45;&#45;</text>
<text text-anchor="middle" x="534" y="-473" font-family="Helvetica" font-size="10.00">HotSpotMethod&lt;StringCoding.countPositives(byte[], int, int)&gt;</text>
</g>
<!-- b0&#45;&gt;b1 -->
<g id="edge1" class="edge">
<title>b0&#45;&gt;b1</title>
<path fill="none" stroke="black" d="M215.44,-606C282.13,-582.05 380.99,-546.57 450.66,-521.56"/>
<polygon fill="black" stroke="black" points="452.06,-524.78 460.29,-518.1 449.69,-518.19 452.06,-524.78"/>
</g>
<!-- b20 -->
<g id="node21" class="node">
<title>b20</title>
<polygon fill="white" stroke="black" points="3812,-547 3528,-547 3528,-495 3812,-495 3812,-547"/>
<text text-anchor="middle" x="3670" y="-535" font-family="Helvetica" font-size="10.00">B20</text>
<text text-anchor="middle" x="3670" y="-524" font-family="Helvetica" font-size="10.00">Loop: &lt;none&gt;</text>
<text text-anchor="middle" x="3670" y="-513" font-family="Helvetica" font-size="10.00">&#45;&#45;&#45;</text>
<text text-anchor="middle" x="3670" y="-502" font-family="Helvetica" font-size="10.00">HotSpotMethod&lt;StringCoding.countPositives(byte[], int, int)&gt;</text>
</g>
<!-- b0&#45;&gt;b20 -->
<g id="edge2" class="edge">
<title>b0&#45;&gt;b20</title>
<path fill="none" stroke="black" d="M284.25,-653.45C440.57,-675.31 700.16,-706 925,-706 925,-706 925,-706 2887,-706 3153.52,-706 3457.75,-602.98 3594.98,-550.69"/>
<polygon fill="black" stroke="black" points="3596.48,-553.86 3604.57,-547.02 3593.98,-547.33 3596.48,-553.86"/>
</g>
<!-- b2 -->
<g id="node3" class="node">
<title>b2</title>
<polygon fill="white" stroke="black" points="1068,-518 784,-518 784,-466 1068,-466 1068,-518"/>
<text text-anchor="middle" x="926" y="-506" font-family="Helvetica" font-size="10.00">B2</text>
<text text-anchor="middle" x="926" y="-495" font-family="Helvetica" font-size="10.00">Loop: &lt;none&gt;</text>
<text text-anchor="middle" x="926" y="-484" font-family="Helvetica" font-size="10.00">&#45;&#45;&#45;</text>
<text text-anchor="middle" x="926" y="-473" font-family="Helvetica" font-size="10.00">HotSpotMethod&lt;StringCoding.countPositives(byte[], int, int)&gt;</text>
</g>
<!-- b1&#45;&gt;b2 -->
<g id="edge3" class="edge">
<title>b1&#45;&gt;b2</title>
<path fill="none" stroke="black" d="M676.07,-492C707.76,-492 741.5,-492 773.59,-492"/>
<polygon fill="black" stroke="black" points="773.94,-495.5 783.94,-492 773.94,-488.5 773.94,-495.5"/>
</g>
<!-- b8 -->
<g id="node9" class="node">
<title>b8</title>
<polygon fill="white" stroke="black" points="1852,-243 1568,-243 1568,-191 1852,-191 1852,-243"/>
<text text-anchor="middle" x="1710" y="-231" font-family="Helvetica" font-size="10.00">B8</text>
<text text-anchor="middle" x="1710" y="-220" font-family="Helvetica" font-size="10.00">Loop: &lt;none&gt;</text>
<text text-anchor="middle" x="1710" y="-209" font-family="Helvetica" font-size="10.00">&#45;&#45;&#45;</text>
<text text-anchor="middle" x="1710" y="-198" font-family="Helvetica" font-size="10.00">HotSpotMethod&lt;StringCoding.countPositives(byte[], int, int)&gt;</text>
</g>
<!-- b1&#45;&gt;b8 -->
<g id="edge4" class="edge">
<title>b1&#45;&gt;b8</title>
<path fill="none" stroke="black" d="M637.87,-465.95C682.71,-454.71 735.91,-441.52 784,-430 1069.08,-361.69 1404.6,-285.47 1582.82,-245.31"/>
<polygon fill="black" stroke="black" points="1583.77,-248.69 1592.76,-243.07 1582.23,-241.86 1583.77,-248.69"/>
</g>
<!-- b3 -->
<g id="node4" class="node">
<title>b3</title>
<polygon fill="white" stroke="black" points="1460,-451 1176,-451 1176,-399 1460,-399 1460,-451"/>
<text text-anchor="middle" x="1318" y="-439" font-family="Helvetica" font-size="10.00">B3</text>
<text text-anchor="middle" x="1318" y="-428" font-family="Helvetica" font-size="10.00">Loop: &lt;none&gt;</text>
<text text-anchor="middle" x="1318" y="-417" font-family="Helvetica" font-size="10.00">&#45;&#45;&#45;</text>
<text text-anchor="middle" x="1318" y="-406" font-family="Helvetica" font-size="10.00">HotSpotMethod&lt;StringCoding.countPositives(byte[], int, int)&gt;</text>
</g>
<!-- b2&#45;&gt;b3 -->
<g id="edge5" class="edge">
<title>b2&#45;&gt;b3</title>
<path fill="none" stroke="black" d="M1068.07,-467.76C1099.9,-462.3 1133.79,-456.47 1166,-450.94"/>
<polygon fill="black" stroke="black" points="1166.68,-454.38 1175.94,-449.23 1165.49,-447.48 1166.68,-454.38"/>
</g>
<!-- b6 -->
<g id="node7" class="node">
<title>b6</title>
<polygon fill="white" stroke="black" points="1852,-586 1568,-586 1568,-534 1852,-534 1852,-586"/>
<text text-anchor="middle" x="1710" y="-574" font-family="Helvetica" font-size="10.00">B6</text>
<text text-anchor="middle" x="1710" y="-563" font-family="Helvetica" font-size="10.00">Loop: &lt;none&gt;</text>
<text text-anchor="middle" x="1710" y="-552" font-family="Helvetica" font-size="10.00">&#45;&#45;&#45;</text>
<text text-anchor="middle" x="1710" y="-541" font-family="Helvetica" font-size="10.00">HotSpotMethod&lt;StringCoding.countPositives(byte[], int, int)&gt;</text>
</g>
<!-- b2&#45;&gt;b6 -->
<g id="edge6" class="edge">
<title>b2&#45;&gt;b6</title>
<path fill="none" stroke="black" d="M1068.16,-504.27C1206.39,-516.3 1416.31,-534.55 1557.87,-546.86"/>
<polygon fill="black" stroke="black" points="1557.68,-550.35 1567.94,-547.73 1558.28,-543.38 1557.68,-550.35"/>
</g>
<!-- b5 -->
<g id="node6" class="node">
<title>b5</title>
<polygon fill="white" stroke="black" points="2244,-443 1960,-443 1960,-391 2244,-391 2244,-443"/>
<text text-anchor="middle" x="2102" y="-431" font-family="Helvetica" font-size="10.00">B5</text>
<text text-anchor="middle" x="2102" y="-420" font-family="Helvetica" font-size="10.00">Loop: &lt;none&gt;</text>
<text text-anchor="middle" x="2102" y="-409" font-family="Helvetica" font-size="10.00">&#45;&#45;&#45;</text>
<text text-anchor="middle" x="2102" y="-398" font-family="Helvetica" font-size="10.00">HotSpotMethod&lt;StringCoding.countPositives(byte[], int, int)&gt;</text>
</g>
<!-- b3&#45;&gt;b5 -->
<g id="edge8" class="edge">
<title>b3&#45;&gt;b5</title>
<path fill="none" stroke="black" d="M1460.16,-423.56C1598.39,-422.14 1808.31,-419.99 1949.87,-418.55"/>
<polygon fill="black" stroke="black" points="1949.98,-422.05 1959.94,-418.44 1949.91,-415.05 1949.98,-422.05"/>
</g>
<!-- b3&#45;&gt;b8 -->
<g id="edge7" class="edge">
<title>b3&#45;&gt;b8</title>
<path fill="none" stroke="black" d="M1368,-398.87C1440.05,-360.44 1574.32,-288.83 1651.13,-247.87"/>
<polygon fill="black" stroke="black" points="1653.03,-250.82 1660.2,-243.03 1649.73,-244.64 1653.03,-250.82"/>
</g>
<!-- b4 -->
<g id="node5" class="node">
<title>b4</title>
<polygon fill="white" stroke="black" points="1460,-57 1176,-57 1176,-5 1460,-5 1460,-57"/>
<text text-anchor="middle" x="1318" y="-45" font-family="Helvetica" font-size="10.00">B4</text>
<text text-anchor="middle" x="1318" y="-34" font-family="Helvetica" font-size="10.00">Loop: &lt;none&gt;</text>
<text text-anchor="middle" x="1318" y="-23" font-family="Helvetica" font-size="10.00">&#45;&#45;&#45;</text>
<text text-anchor="middle" x="1318" y="-12" font-family="Helvetica" font-size="10.00">HotSpotMethod&lt;StringCoding.countPositives(byte[], int, int)&gt;</text>
</g>
<!-- b4&#45;&gt;b8 -->
<g id="edge9" class="edge">
<title>b4&#45;&gt;b8</title>
<path fill="none" stroke="black" d="M1380.01,-57.07C1404.94,-67.92 1433.97,-80.8 1460,-93 1525.25,-123.57 1599.03,-160.63 1649.23,-186.23"/>
<polygon fill="black" stroke="black" points="1647.82,-189.44 1658.32,-190.87 1651.01,-183.21 1647.82,-189.44"/>
</g>
<!-- b18 -->
<g id="node19" class="node">
<title>b18</title>
<polygon fill="white" stroke="black" points="3028,-373 2744,-373 2744,-321 3028,-321 3028,-373"/>
<text text-anchor="middle" x="2886" y="-361" font-family="Helvetica" font-size="10.00">B18</text>
<text text-anchor="middle" x="2886" y="-350" font-family="Helvetica" font-size="10.00">Loop: &lt;none&gt;</text>
<text text-anchor="middle" x="2886" y="-339" font-family="Helvetica" font-size="10.00">&#45;&#45;&#45;</text>
<text text-anchor="middle" x="2886" y="-328" font-family="Helvetica" font-size="10.00">HotSpotMethod&lt;StringCoding.countPositives(byte[], int, int)&gt;</text>
</g>
<!-- b5&#45;&gt;b18 -->
<g id="edge10" class="edge">
<title>b5&#45;&gt;b18</title>
<path fill="none" stroke="black" d="M2244.16,-404.36C2382.39,-391.99 2592.31,-373.2 2733.87,-360.53"/>
<polygon fill="black" stroke="black" points="2734.29,-364 2743.94,-359.63 2733.67,-357.03 2734.29,-364"/>
</g>
<!-- b6&#45;&gt;b18 -->
<g id="edge11" class="edge">
<title>b6&#45;&gt;b18</title>
<path fill="none" stroke="black" d="M1852.24,-551.03C2035.21,-537.23 2363.07,-505.01 2636,-438 2698.36,-422.69 2766.7,-397.04 2815.98,-376.87"/>
<polygon fill="black" stroke="black" points="2817.36,-380.09 2825.27,-373.04 2814.69,-373.62 2817.36,-380.09"/>
</g>
<!-- b7 -->
<g id="node8" class="node">
<title>b7</title>
<polygon fill="white" stroke="black" points="1460,-181 1176,-181 1176,-129 1460,-129 1460,-181"/>
<text text-anchor="middle" x="1318" y="-169" font-family="Helvetica" font-size="10.00">B7</text>
<text text-anchor="middle" x="1318" y="-158" font-family="Helvetica" font-size="10.00">Loop: &lt;none&gt;</text>
<text text-anchor="middle" x="1318" y="-147" font-family="Helvetica" font-size="10.00">&#45;&#45;&#45;</text>
<text text-anchor="middle" x="1318" y="-136" font-family="Helvetica" font-size="10.00">HotSpotMethod&lt;StringCoding.countPositives(byte[], int, int)&gt;</text>
</g>
<!-- b7&#45;&gt;b8 -->
<g id="edge12" class="edge">
<title>b7&#45;&gt;b8</title>
<path fill="none" stroke="black" d="M1460.07,-177.43C1491.9,-182.49 1525.79,-187.88 1558,-193"/>
<polygon fill="black" stroke="black" points="1557.52,-196.46 1567.94,-194.58 1558.62,-189.55 1557.52,-196.46"/>
</g>
<!-- b9 -->
<g id="node10" class="node">
<title>b9</title>
<polygon fill="white" stroke="black" points="2244,-170 1960,-170 1960,-118 2244,-118 2244,-170"/>
<text text-anchor="middle" x="2102" y="-158" font-family="Helvetica" font-size="10.00">B9</text>
<text text-anchor="middle" x="2102" y="-147" font-family="Helvetica" font-size="10.00">Loop: &lt;none&gt;</text>
<text text-anchor="middle" x="2102" y="-136" font-family="Helvetica" font-size="10.00">&#45;&#45;&#45;</text>
<text text-anchor="middle" x="2102" y="-125" font-family="Helvetica" font-size="10.00">HotSpotMethod&lt;StringCoding.countPositives(byte[], int, int)&gt;</text>
</g>
<!-- b8&#45;&gt;b9 -->
<g id="edge13" class="edge">
<title>b8&#45;&gt;b9</title>
<path fill="none" stroke="black" d="M1850.15,-190.95C1883.2,-184.77 1918.59,-178.14 1952.06,-171.88"/>
<polygon fill="black" stroke="black" points="1952.72,-175.32 1961.91,-170.04 1951.43,-168.44 1952.72,-175.32"/>
</g>
<!-- b17 -->
<g id="node18" class="node">
<title>b17</title>
<polygon fill="white" stroke="black" points="2636,-305 2352,-305 2352,-253 2636,-253 2636,-305"/>
<text text-anchor="middle" x="2494" y="-293" font-family="Helvetica" font-size="10.00">B17</text>
<text text-anchor="middle" x="2494" y="-282" font-family="Helvetica" font-size="10.00">Loop: &lt;none&gt;</text>
<text text-anchor="middle" x="2494" y="-271" font-family="Helvetica" font-size="10.00">&#45;&#45;&#45;</text>
<text text-anchor="middle" x="2494" y="-260" font-family="Helvetica" font-size="10.00">HotSpotMethod&lt;StringCoding.countPositives(byte[], int, int)&gt;</text>
</g>
<!-- b8&#45;&gt;b17 -->
<g id="edge14" class="edge">
<title>b8&#45;&gt;b17</title>
<path fill="none" stroke="black" d="M1852.16,-228.19C1990.39,-239.15 2200.31,-255.79 2341.87,-267.02"/>
<polygon fill="black" stroke="black" points="2341.7,-270.51 2351.94,-267.82 2342.25,-263.54 2341.7,-270.51"/>
</g>
<!-- b10 -->
<g id="node11" class="node">
<title>b10</title>
<polygon fill="white" stroke="black" points="2636,-181 2352,-181 2352,-129 2636,-129 2636,-181"/>
<text text-anchor="middle" x="2494" y="-169" font-family="Helvetica" font-size="10.00">B10</text>
<text text-anchor="middle" x="2494" y="-158" font-family="Helvetica" font-size="10.00">Loop: &lt;none&gt;</text>
<text text-anchor="middle" x="2494" y="-147" font-family="Helvetica" font-size="10.00">&#45;&#45;&#45;</text>
<text text-anchor="middle" x="2494" y="-136" font-family="Helvetica" font-size="10.00">HotSpotMethod&lt;StringCoding.countPositives(byte[], int, int)&gt;</text>
</g>
<!-- b9&#45;&gt;b10 -->
<g id="edge15" class="edge">
<title>b9&#45;&gt;b10</title>
<path fill="none" stroke="black" d="M2244.07,-147.98C2275.76,-148.87 2309.5,-149.82 2341.59,-150.73"/>
<polygon fill="black" stroke="black" points="2341.85,-154.24 2351.94,-151.02 2342.04,-147.24 2341.85,-154.24"/>
</g>
<!-- b11 -->
<g id="node12" class="node">
<title>b11</title>
<polygon fill="white" stroke="black" points="2636,-57 2352,-57 2352,-5 2636,-5 2636,-57"/>
<text text-anchor="middle" x="2494" y="-45" font-family="Helvetica" font-size="10.00">B11</text>
<text text-anchor="middle" x="2494" y="-34" font-family="Helvetica" font-size="10.00">Loop: &lt;none&gt;</text>
<text text-anchor="middle" x="2494" y="-23" font-family="Helvetica" font-size="10.00">&#45;&#45;&#45;</text>
<text text-anchor="middle" x="2494" y="-12" font-family="Helvetica" font-size="10.00">HotSpotMethod&lt;StringCoding.countPositives(byte[], int, int)&gt;</text>
</g>
<!-- b9&#45;&gt;b11 -->
<g id="edge16" class="edge">
<title>b9&#45;&gt;b11</title>
<path fill="none" stroke="black" d="M2192.96,-117.93C2252.86,-100.58 2331.6,-77.76 2393.39,-59.86"/>
<polygon fill="black" stroke="black" points="2394.52,-63.18 2403.15,-57.03 2392.57,-56.45 2394.52,-63.18"/>
</g>
<!-- b10&#45;&gt;b18 -->
<g id="edge17" class="edge">
<title>b10&#45;&gt;b18</title>
<path fill="none" stroke="black" d="M2556.83,-181.12C2581.61,-191.87 2610.33,-204.67 2636,-217 2702.84,-249.1 2778.11,-288.92 2828.23,-315.97"/>
<polygon fill="black" stroke="black" points="2826.82,-319.19 2837.28,-320.87 2830.15,-313.04 2826.82,-319.19"/>
</g>
<!-- b12 -->
<g id="node13" class="node">
<title>b12</title>
<polygon fill="lightblue" stroke="black" points="3028,-108 2744,-108 2744,-56 3028,-56 3028,-108"/>
<text text-anchor="middle" x="2886" y="-96" font-family="Helvetica" font-size="10.00">B12</text>
<text text-anchor="middle" x="2886" y="-85" font-family="Helvetica" font-size="10.00">Loop: L0</text>
<text text-anchor="middle" x="2886" y="-74" font-family="Helvetica" font-size="10.00">&#45;&#45;&#45;</text>
<text text-anchor="middle" x="2886" y="-63" font-family="Helvetica" font-size="10.00">HotSpotMethod&lt;StringCoding.countPositives(byte[], int, int)&gt;</text>
</g>
<!-- b11&#45;&gt;b12 -->
<g id="edge18" class="edge">
<title>b11&#45;&gt;b12</title>
<path fill="none" stroke="black" d="M2636.07,-49.45C2667.9,-53.61 2701.79,-58.04 2734,-62.25"/>
<polygon fill="black" stroke="black" points="2733.57,-65.73 2743.94,-63.55 2734.48,-58.79 2733.57,-65.73"/>
</g>
<!-- b13 -->
<g id="node14" class="node">
<title>b13</title>
<polygon fill="lightblue" stroke="black" points="3420,-52 3136,-52 3136,0 3420,0 3420,-52"/>
<text text-anchor="middle" x="3278" y="-40" font-family="Helvetica" font-size="10.00">B13</text>
<text text-anchor="middle" x="3278" y="-29" font-family="Helvetica" font-size="10.00">Loop: L0</text>
<text text-anchor="middle" x="3278" y="-18" font-family="Helvetica" font-size="10.00">&#45;&#45;&#45;</text>
<text text-anchor="middle" x="3278" y="-7" font-family="Helvetica" font-size="10.00">HotSpotMethod&lt;StringCoding.countPositives(byte[], int, int)&gt;</text>
</g>
<!-- b12&#45;&gt;b13 -->
<g id="edge19" class="edge">
<title>b12&#45;&gt;b13</title>
<path fill="none" stroke="black" d="M3028.07,-61.74C3059.9,-57.17 3093.79,-52.31 3126,-47.68"/>
<polygon fill="black" stroke="black" points="3126.54,-51.14 3135.94,-46.25 3125.55,-44.21 3126.54,-51.14"/>
</g>
<!-- b16 -->
<g id="node17" class="node">
<title>b16</title>
<polygon fill="white" stroke="black" points="3420,-547 3136,-547 3136,-495 3420,-495 3420,-547"/>
<text text-anchor="middle" x="3278" y="-535" font-family="Helvetica" font-size="10.00">B16</text>
<text text-anchor="middle" x="3278" y="-524" font-family="Helvetica" font-size="10.00">Loop: &lt;none&gt;</text>
<text text-anchor="middle" x="3278" y="-513" font-family="Helvetica" font-size="10.00">&#45;&#45;&#45;</text>
<text text-anchor="middle" x="3278" y="-502" font-family="Helvetica" font-size="10.00">HotSpotMethod&lt;StringCoding.countPositives(byte[], int, int)&gt;</text>
</g>
<!-- b12&#45;&gt;b16 -->
<g id="edge20" class="edge">
<title>b12&#45;&gt;b16</title>
<path fill="none" stroke="black" d="M2905.92,-108.3C2933.4,-146.72 2985.71,-220.63 3028,-285 3077.98,-361.07 3067.26,-399.34 3136,-459 3150.62,-471.69 3168.24,-482.16 3186,-490.65"/>
<polygon fill="black" stroke="black" points="3184.74,-493.92 3195.29,-494.91 3187.66,-487.56 3184.74,-493.92"/>
</g>
<!-- b14 -->
<g id="node15" class="node">
<title>b14</title>
<polygon fill="white" stroke="black" points="3812,-52 3528,-52 3528,0 3812,0 3812,-52"/>
<text text-anchor="middle" x="3670" y="-40" font-family="Helvetica" font-size="10.00">B14</text>
<text text-anchor="middle" x="3670" y="-29" font-family="Helvetica" font-size="10.00">Loop: &lt;none&gt;</text>
<text text-anchor="middle" x="3670" y="-18" font-family="Helvetica" font-size="10.00">&#45;&#45;&#45;</text>
<text text-anchor="middle" x="3670" y="-7" font-family="Helvetica" font-size="10.00">HotSpotMethod&lt;StringCoding.countPositives(byte[], int, int)&gt;</text>
</g>
<!-- b13&#45;&gt;b14 -->
<g id="edge21" class="edge">
<title>b13&#45;&gt;b14</title>
<path fill="none" stroke="black" d="M3420.07,-26C3451.76,-26 3485.5,-26 3517.59,-26"/>
<polygon fill="black" stroke="black" points="3517.94,-29.5 3527.94,-26 3517.94,-22.5 3517.94,-29.5"/>
</g>
<!-- b15 -->
<g id="node16" class="node">
<title>b15</title>
<polygon fill="lightblue" stroke="black" points="3812,-182 3528,-182 3528,-130 3812,-130 3812,-182"/>
<text text-anchor="middle" x="3670" y="-170" font-family="Helvetica" font-size="10.00">B15</text>
<text text-anchor="middle" x="3670" y="-159" font-family="Helvetica" font-size="10.00">Loop: L0</text>
<text text-anchor="middle" x="3670" y="-148" font-family="Helvetica" font-size="10.00">&#45;&#45;&#45;</text>
<text text-anchor="middle" x="3670" y="-137" font-family="Helvetica" font-size="10.00">HotSpotMethod&lt;StringCoding.countPositives(byte[], int, int)&gt;</text>
</g>
<!-- b13&#45;&gt;b15 -->
<g id="edge22" class="edge">
<title>b13&#45;&gt;b15</title>
<path fill="none" stroke="black" d="M3357.45,-52.15C3422.12,-73.71 3513.78,-104.26 3580.95,-126.65"/>
<polygon fill="black" stroke="black" points="3580.08,-130.05 3590.67,-129.89 3582.29,-123.41 3580.08,-130.05"/>
</g>
<!-- b15&#45;&gt;b12 -->
<g id="edge23" class="edge">
<title>b15&#45;&gt;b12</title>
<path fill="none" stroke="black" d="M3527.94,-142.65C3389.75,-129.57 3179.83,-109.71 3038.24,-96.31"/>
<polygon fill="black" stroke="black" points="3038.45,-92.82 3028.16,-95.36 3037.79,-99.78 3038.45,-92.82"/>
</g>
<!-- b16&#45;&gt;b20 -->
<g id="edge24" class="edge">
<title>b16&#45;&gt;b20</title>
<path fill="none" stroke="black" d="M3420.07,-521C3451.76,-521 3485.5,-521 3517.59,-521"/>
<polygon fill="black" stroke="black" points="3517.94,-524.5 3527.94,-521 3517.94,-517.5 3517.94,-524.5"/>
</g>
<!-- b17&#45;&gt;b18 -->
<g id="edge25" class="edge">
<title>b17&#45;&gt;b18</title>
<path fill="none" stroke="black" d="M2636.07,-303.6C2667.9,-309.15 2701.79,-315.06 2734,-320.67"/>
<polygon fill="black" stroke="black" points="2733.49,-324.14 2743.94,-322.41 2734.69,-317.24 2733.49,-324.14"/>
</g>
<!-- b19 -->
<g id="node20" class="node">
<title>b19</title>
<polygon fill="white" stroke="black" points="3420,-423 3136,-423 3136,-371 3420,-371 3420,-423"/>
<text text-anchor="middle" x="3278" y="-411" font-family="Helvetica" font-size="10.00">B19</text>
<text text-anchor="middle" x="3278" y="-400" font-family="Helvetica" font-size="10.00">Loop: &lt;none&gt;</text>
<text text-anchor="middle" x="3278" y="-389" font-family="Helvetica" font-size="10.00">&#45;&#45;&#45;</text>
<text text-anchor="middle" x="3278" y="-378" font-family="Helvetica" font-size="10.00">HotSpotMethod&lt;StringCoding.countPositives(byte[], int, int)&gt;</text>
</g>
<!-- b19&#45;&gt;b20 -->
<g id="edge26" class="edge">
<title>b19&#45;&gt;b20</title>
<path fill="none" stroke="black" d="M3361.23,-423.15C3424.47,-443.25 3511.82,-471.02 3577.31,-491.85"/>
<polygon fill="black" stroke="black" points="3576.62,-495.3 3587.21,-495 3578.75,-488.63 3576.62,-495.3"/>
</g>
</g>
</svg>
