<?xml version="1.0" encoding="UTF-8" standalone="no"?>
<!DOCTYPE svg PUBLIC "-//W3C//DTD SVG 1.1//EN"
 "http://www.w3.org/Graphics/SVG/1.1/DTD/svg11.dtd">
<!-- Generated by graphviz version 2.44.0 (0)
 -->
<!-- Title: CFG_91 Pages: 1 -->
<svg width="2766pt" height="878pt"
 viewBox="0.00 0.00 2766.00 878.00" xmlns="http://www.w3.org/2000/svg" xmlns:xlink="http://www.w3.org/1999/xlink">
<g id="graph0" class="graph" transform="scale(1 1) rotate(0) translate(4 874)">
<title>CFG_91</title>
<polygon fill="white" stroke="transparent" points="-4,4 -4,-874 2762,-874 2762,4 -4,4"/>
<text text-anchor="middle" x="248" y="-850" font-family="Times-Roman" font-size="20.00">138&#45;java.lang.StringLatin1.equals(byte[], byte[])</text>
<!-- b0 -->
<g id="node1" class="node">
<title>b0</title>
<polygon fill="white" stroke="black" points="242,-514 0,-514 0,-462 242,-462 242,-514"/>
<text text-anchor="middle" x="121" y="-502" font-family="Helvetica" font-size="10.00">B0</text>
<text text-anchor="middle" x="121" y="-491" font-family="Helvetica" font-size="10.00">Loop: &lt;none&gt;</text>
<text text-anchor="middle" x="121" y="-480" font-family="Helvetica" font-size="10.00">&#45;&#45;&#45;</text>
<text text-anchor="middle" x="121" y="-469" font-family="Helvetica" font-size="10.00">HotSpotMethod&lt;StringLatin1.equals(byte[], byte[])&gt;</text>
</g>
<!-- b1 -->
<g id="node2" class="node">
<title>b1</title>
<polygon fill="white" stroke="black" points="592,-576 350,-576 350,-524 592,-524 592,-576"/>
<text text-anchor="middle" x="471" y="-564" font-family="Helvetica" font-size="10.00">B1</text>
<text text-anchor="middle" x="471" y="-553" font-family="Helvetica" font-size="10.00">Loop: &lt;none&gt;</text>
<text text-anchor="middle" x="471" y="-542" font-family="Helvetica" font-size="10.00">&#45;&#45;&#45;</text>
<text text-anchor="middle" x="471" y="-531" font-family="Helvetica" font-size="10.00">HotSpotMethod&lt;StringLatin1.equals(byte[], byte[])&gt;</text>
</g>
<!-- b0&#45;&gt;b1 -->
<g id="edge1" class="edge">
<title>b0&#45;&gt;b1</title>
<path fill="none" stroke="black" d="M242.25,-509.42C273.76,-515.04 307.88,-521.12 339.89,-526.82"/>
<polygon fill="black" stroke="black" points="339.29,-530.27 349.75,-528.58 340.52,-523.38 339.29,-530.27"/>
</g>
<!-- b15 -->
<g id="node16" class="node">
<title>b15</title>
<polygon fill="white" stroke="black" points="592,-452 350,-452 350,-400 592,-400 592,-452"/>
<text text-anchor="middle" x="471" y="-440" font-family="Helvetica" font-size="10.00">B15</text>
<text text-anchor="middle" x="471" y="-429" font-family="Helvetica" font-size="10.00">Loop: &lt;none&gt;</text>
<text text-anchor="middle" x="471" y="-418" font-family="Helvetica" font-size="10.00">&#45;&#45;&#45;</text>
<text text-anchor="middle" x="471" y="-407" font-family="Helvetica" font-size="10.00">HotSpotMethod&lt;StringLatin1.equals(byte[], byte[])&gt;</text>
</g>
<!-- b0&#45;&gt;b15 -->
<g id="edge2" class="edge">
<title>b0&#45;&gt;b15</title>
<path fill="none" stroke="black" d="M242.25,-466.58C273.76,-460.96 307.88,-454.88 339.89,-449.18"/>
<polygon fill="black" stroke="black" points="340.52,-452.62 349.75,-447.42 339.29,-445.73 340.52,-452.62"/>
</g>
<!-- b3 -->
<g id="node4" class="node">
<title>b3</title>
<polygon fill="white" stroke="black" points="942,-446 700,-446 700,-394 942,-394 942,-446"/>
<text text-anchor="middle" x="821" y="-434" font-family="Helvetica" font-size="10.00">B3</text>
<text text-anchor="middle" x="821" y="-423" font-family="Helvetica" font-size="10.00">Loop: &lt;none&gt;</text>
<text text-anchor="middle" x="821" y="-412" font-family="Helvetica" font-size="10.00">&#45;&#45;&#45;</text>
<text text-anchor="middle" x="821" y="-401" font-family="Helvetica" font-size="10.00">HotSpotMethod&lt;StringLatin1.equals(byte[], byte[])&gt;</text>
</g>
<!-- b1&#45;&gt;b3 -->
<g id="edge4" class="edge">
<title>b1&#45;&gt;b3</title>
<path fill="none" stroke="black" d="M542,-523.85C599.47,-502.38 680.83,-471.99 740.69,-449.63"/>
<polygon fill="black" stroke="black" points="741.96,-452.89 750.11,-446.11 739.51,-446.33 741.96,-452.89"/>
</g>
<!-- b7 -->
<g id="node8" class="node">
<title>b7</title>
<polygon fill="white" stroke="black" points="1642,-637 1400,-637 1400,-585 1642,-585 1642,-637"/>
<text text-anchor="middle" x="1521" y="-625" font-family="Helvetica" font-size="10.00">B7</text>
<text text-anchor="middle" x="1521" y="-614" font-family="Helvetica" font-size="10.00">Loop: &lt;none&gt;</text>
<text text-anchor="middle" x="1521" y="-603" font-family="Helvetica" font-size="10.00">&#45;&#45;&#45;</text>
<text text-anchor="middle" x="1521" y="-592" font-family="Helvetica" font-size="10.00">HotSpotMethod&lt;StringLatin1.equals(byte[], byte[])&gt;</text>
</g>
<!-- b1&#45;&gt;b7 -->
<g id="edge3" class="edge">
<title>b1&#45;&gt;b7</title>
<path fill="none" stroke="black" d="M592.16,-564.68C708.91,-578.23 891.32,-597.48 1050,-606 1164.59,-612.15 1295.11,-613.05 1389.48,-612.62"/>
<polygon fill="black" stroke="black" points="1389.67,-616.11 1399.65,-612.56 1389.63,-609.11 1389.67,-616.11"/>
</g>
<!-- b2 -->
<g id="node3" class="node">
<title>b2</title>
<polygon fill="white" stroke="black" points="1292,-570 1050,-570 1050,-518 1292,-518 1292,-570"/>
<text text-anchor="middle" x="1171" y="-558" font-family="Helvetica" font-size="10.00">B2</text>
<text text-anchor="middle" x="1171" y="-547" font-family="Helvetica" font-size="10.00">Loop: &lt;none&gt;</text>
<text text-anchor="middle" x="1171" y="-536" font-family="Helvetica" font-size="10.00">&#45;&#45;&#45;</text>
<text text-anchor="middle" x="1171" y="-525" font-family="Helvetica" font-size="10.00">HotSpotMethod&lt;StringLatin1.equals(byte[], byte[])&gt;</text>
</g>
<!-- b2&#45;&gt;b7 -->
<g id="edge5" class="edge">
<title>b2&#45;&gt;b7</title>
<path fill="none" stroke="black" d="M1292.25,-567.15C1323.76,-573.22 1357.88,-579.79 1389.89,-585.95"/>
<polygon fill="black" stroke="black" points="1389.26,-589.39 1399.75,-587.85 1390.59,-582.52 1389.26,-589.39"/>
</g>
<!-- b4 -->
<g id="node5" class="node">
<title>b4</title>
<polygon fill="white" stroke="black" points="1292,-446 1050,-446 1050,-394 1292,-394 1292,-446"/>
<text text-anchor="middle" x="1171" y="-434" font-family="Helvetica" font-size="10.00">B4</text>
<text text-anchor="middle" x="1171" y="-423" font-family="Helvetica" font-size="10.00">Loop: &lt;none&gt;</text>
<text text-anchor="middle" x="1171" y="-412" font-family="Helvetica" font-size="10.00">&#45;&#45;&#45;</text>
<text text-anchor="middle" x="1171" y="-401" font-family="Helvetica" font-size="10.00">HotSpotMethod&lt;StringLatin1.equals(byte[], byte[])&gt;</text>
</g>
<!-- b3&#45;&gt;b4 -->
<g id="edge6" class="edge">
<title>b3&#45;&gt;b4</title>
<path fill="none" stroke="black" d="M942.25,-420C973.63,-420 1007.59,-420 1039.47,-420"/>
<polygon fill="black" stroke="black" points="1039.75,-423.5 1049.75,-420 1039.75,-416.5 1039.75,-423.5"/>
</g>
<!-- b14 -->
<g id="node15" class="node">
<title>b14</title>
<polygon fill="white" stroke="black" points="1642,-255 1400,-255 1400,-203 1642,-203 1642,-255"/>
<text text-anchor="middle" x="1521" y="-243" font-family="Helvetica" font-size="10.00">B14</text>
<text text-anchor="middle" x="1521" y="-232" font-family="Helvetica" font-size="10.00">Loop: &lt;none&gt;</text>
<text text-anchor="middle" x="1521" y="-221" font-family="Helvetica" font-size="10.00">&#45;&#45;&#45;</text>
<text text-anchor="middle" x="1521" y="-210" font-family="Helvetica" font-size="10.00">HotSpotMethod&lt;StringLatin1.equals(byte[], byte[])&gt;</text>
</g>
<!-- b3&#45;&gt;b14 -->
<g id="edge7" class="edge">
<title>b3&#45;&gt;b14</title>
<path fill="none" stroke="black" d="M843.19,-393.84C879.92,-350.78 960.18,-266.53 1050,-234 1159.49,-194.35 1292.95,-197.35 1389.64,-207.77"/>
<polygon fill="black" stroke="black" points="1389.44,-211.27 1399.77,-208.9 1390.22,-204.31 1389.44,-211.27"/>
</g>
<!-- b4&#45;&gt;b7 -->
<g id="edge9" class="edge">
<title>b4&#45;&gt;b7</title>
<path fill="none" stroke="black" d="M1223.61,-446.12C1244.89,-457.03 1269.72,-469.95 1292,-482 1352,-514.46 1419.97,-553.17 1465.96,-579.66"/>
<polygon fill="black" stroke="black" points="1464.45,-582.83 1474.86,-584.79 1467.95,-576.76 1464.45,-582.83"/>
</g>
<!-- b4&#45;&gt;b14 -->
<g id="edge8" class="edge">
<title>b4&#45;&gt;b14</title>
<path fill="none" stroke="black" d="M1223.61,-393.88C1244.89,-382.97 1269.72,-370.05 1292,-358 1352,-325.54 1419.97,-286.83 1465.96,-260.34"/>
<polygon fill="black" stroke="black" points="1467.95,-263.24 1474.86,-255.21 1464.45,-257.17 1467.95,-263.24"/>
</g>
<!-- b5 -->
<g id="node6" class="node">
<title>b5</title>
<polygon fill="white" stroke="black" points="1292,-322 1050,-322 1050,-270 1292,-270 1292,-322"/>
<text text-anchor="middle" x="1171" y="-310" font-family="Helvetica" font-size="10.00">B5</text>
<text text-anchor="middle" x="1171" y="-299" font-family="Helvetica" font-size="10.00">Loop: &lt;none&gt;</text>
<text text-anchor="middle" x="1171" y="-288" font-family="Helvetica" font-size="10.00">&#45;&#45;&#45;</text>
<text text-anchor="middle" x="1171" y="-277" font-family="Helvetica" font-size="10.00">HotSpotMethod&lt;StringLatin1.equals(byte[], byte[])&gt;</text>
</g>
<!-- b5&#45;&gt;b14 -->
<g id="edge10" class="edge">
<title>b5&#45;&gt;b14</title>
<path fill="none" stroke="black" d="M1292.25,-272.85C1323.76,-266.78 1357.88,-260.21 1389.89,-254.05"/>
<polygon fill="black" stroke="black" points="1390.59,-257.48 1399.75,-252.15 1389.26,-250.61 1390.59,-257.48"/>
</g>
<!-- b6 -->
<g id="node7" class="node">
<title>b6</title>
<polygon fill="white" stroke="black" points="1292,-840 1050,-840 1050,-788 1292,-788 1292,-840"/>
<text text-anchor="middle" x="1171" y="-828" font-family="Helvetica" font-size="10.00">B6</text>
<text text-anchor="middle" x="1171" y="-817" font-family="Helvetica" font-size="10.00">Loop: &lt;none&gt;</text>
<text text-anchor="middle" x="1171" y="-806" font-family="Helvetica" font-size="10.00">&#45;&#45;&#45;</text>
<text text-anchor="middle" x="1171" y="-795" font-family="Helvetica" font-size="10.00">HotSpotMethod&lt;StringLatin1.equals(byte[], byte[])&gt;</text>
</g>
<!-- b6&#45;&gt;b7 -->
<g id="edge11" class="edge">
<title>b6&#45;&gt;b7</title>
<path fill="none" stroke="black" d="M1216.78,-787.88C1280.73,-750.57 1398.03,-682.15 1466.47,-642.22"/>
<polygon fill="black" stroke="black" points="1468.52,-645.08 1475.39,-637.02 1464.99,-639.04 1468.52,-645.08"/>
</g>
<!-- b8 -->
<g id="node9" class="node">
<title>b8</title>
<polygon fill="lightblue" stroke="black" points="2014,-637 1750,-637 1750,-585 2014,-585 2014,-637"/>
<text text-anchor="middle" x="1882" y="-625" font-family="Helvetica" font-size="10.00">B8</text>
<text text-anchor="middle" x="1882" y="-614" font-family="Helvetica" font-size="10.00">Loop: L0</text>
<text text-anchor="middle" x="1882" y="-603" font-family="Helvetica" font-size="10.00">&#45;&#45;&#45;</text>
<text text-anchor="middle" x="1882" y="-592" font-family="Helvetica" font-size="10.00">HotSpotMethod&lt;BuboAgentCompilerMarkers.Marker0()&gt;</text>
</g>
<!-- b7&#45;&gt;b8 -->
<g id="edge12" class="edge">
<title>b7&#45;&gt;b8</title>
<path fill="none" stroke="black" d="M1642.04,-611C1673.31,-611 1707.29,-611 1739.55,-611"/>
<polygon fill="black" stroke="black" points="1739.96,-614.5 1749.96,-611 1739.96,-607.5 1739.96,-614.5"/>
</g>
<!-- b9 -->
<g id="node10" class="node">
<title>b9</title>
<polygon fill="lightblue" stroke="black" points="2386,-761 2122,-761 2122,-709 2386,-709 2386,-761"/>
<text text-anchor="middle" x="2254" y="-749" font-family="Helvetica" font-size="10.00">B9</text>
<text text-anchor="middle" x="2254" y="-738" font-family="Helvetica" font-size="10.00">Loop: L0</text>
<text text-anchor="middle" x="2254" y="-727" font-family="Helvetica" font-size="10.00">&#45;&#45;&#45;</text>
<text text-anchor="middle" x="2254" y="-716" font-family="Helvetica" font-size="10.00">HotSpotMethod&lt;BuboAgentCompilerMarkers.Marker0()&gt;</text>
</g>
<!-- b8&#45;&gt;b9 -->
<g id="edge13" class="edge">
<title>b8&#45;&gt;b9</title>
<path fill="none" stroke="black" d="M1961.02,-637.15C2020.89,-657.21 2103.54,-684.91 2165.63,-705.72"/>
<polygon fill="black" stroke="black" points="2164.82,-709.14 2175.41,-709 2167.04,-702.5 2164.82,-709.14"/>
</g>
<!-- b12 -->
<g id="node13" class="node">
<title>b12</title>
<polygon fill="white" stroke="black" points="2375,-637 2133,-637 2133,-585 2375,-585 2375,-637"/>
<text text-anchor="middle" x="2254" y="-625" font-family="Helvetica" font-size="10.00">B12</text>
<text text-anchor="middle" x="2254" y="-614" font-family="Helvetica" font-size="10.00">Loop: &lt;none&gt;</text>
<text text-anchor="middle" x="2254" y="-603" font-family="Helvetica" font-size="10.00">&#45;&#45;&#45;</text>
<text text-anchor="middle" x="2254" y="-592" font-family="Helvetica" font-size="10.00">HotSpotMethod&lt;StringLatin1.equals(byte[], byte[])&gt;</text>
</g>
<!-- b8&#45;&gt;b12 -->
<g id="edge14" class="edge">
<title>b8&#45;&gt;b12</title>
<path fill="none" stroke="black" d="M2014.23,-611C2049.41,-611 2087.43,-611 2122.56,-611"/>
<polygon fill="black" stroke="black" points="2122.88,-614.5 2132.88,-611 2122.88,-607.5 2122.88,-614.5"/>
</g>
<!-- b10 -->
<g id="node11" class="node">
<title>b10</title>
<polygon fill="lightblue" stroke="black" points="2758,-570 2494,-570 2494,-518 2758,-518 2758,-570"/>
<text text-anchor="middle" x="2626" y="-558" font-family="Helvetica" font-size="10.00">B10</text>
<text text-anchor="middle" x="2626" y="-547" font-family="Helvetica" font-size="10.00">Loop: L0</text>
<text text-anchor="middle" x="2626" y="-536" font-family="Helvetica" font-size="10.00">&#45;&#45;&#45;</text>
<text text-anchor="middle" x="2626" y="-525" font-family="Helvetica" font-size="10.00">HotSpotMethod&lt;BuboAgentCompilerMarkers.Marker0()&gt;</text>
</g>
<!-- b9&#45;&gt;b10 -->
<g id="edge15" class="edge">
<title>b9&#45;&gt;b10</title>
<path fill="none" stroke="black" d="M2311.74,-708.95C2334.9,-698.1 2361.87,-685.21 2386,-673 2449.44,-640.9 2521.06,-601.86 2569.21,-575.19"/>
<polygon fill="black" stroke="black" points="2571.18,-578.11 2578.23,-570.2 2567.78,-571.98 2571.18,-578.11"/>
</g>
<!-- b11 -->
<g id="node12" class="node">
<title>b11</title>
<polygon fill="white" stroke="black" points="2747,-761 2505,-761 2505,-709 2747,-709 2747,-761"/>
<text text-anchor="middle" x="2626" y="-749" font-family="Helvetica" font-size="10.00">B11</text>
<text text-anchor="middle" x="2626" y="-738" font-family="Helvetica" font-size="10.00">Loop: &lt;none&gt;</text>
<text text-anchor="middle" x="2626" y="-727" font-family="Helvetica" font-size="10.00">&#45;&#45;&#45;</text>
<text text-anchor="middle" x="2626" y="-716" font-family="Helvetica" font-size="10.00">HotSpotMethod&lt;StringLatin1.equals(byte[], byte[])&gt;</text>
</g>
<!-- b9&#45;&gt;b11 -->
<g id="edge16" class="edge">
<title>b9&#45;&gt;b11</title>
<path fill="none" stroke="black" d="M2386.23,-735C2421.41,-735 2459.43,-735 2494.56,-735"/>
<polygon fill="black" stroke="black" points="2494.88,-738.5 2504.88,-735 2494.88,-731.5 2494.88,-738.5"/>
</g>
<!-- b10&#45;&gt;b8 -->
<g id="edge17" class="edge">
<title>b10&#45;&gt;b8</title>
<path fill="none" stroke="black" d="M2493.85,-536.6C2391.98,-532.95 2247.42,-532.36 2122,-549 2072.02,-555.63 2017.53,-569.25 1973.21,-582.04"/>
<polygon fill="black" stroke="black" points="1971.95,-578.77 1963.33,-584.93 1973.91,-585.48 1971.95,-578.77"/>
</g>
<!-- b13 -->
<g id="node14" class="node">
<title>b13</title>
<polygon fill="white" stroke="black" points="1292,-52 1050,-52 1050,0 1292,0 1292,-52"/>
<text text-anchor="middle" x="1171" y="-40" font-family="Helvetica" font-size="10.00">B13</text>
<text text-anchor="middle" x="1171" y="-29" font-family="Helvetica" font-size="10.00">Loop: &lt;none&gt;</text>
<text text-anchor="middle" x="1171" y="-18" font-family="Helvetica" font-size="10.00">&#45;&#45;&#45;</text>
<text text-anchor="middle" x="1171" y="-7" font-family="Helvetica" font-size="10.00">HotSpotMethod&lt;StringLatin1.equals(byte[], byte[])&gt;</text>
</g>
<!-- b13&#45;&gt;b14 -->
<g id="edge18" class="edge">
<title>b13&#45;&gt;b14</title>
<path fill="none" stroke="black" d="M1216.78,-52.12C1280.73,-89.43 1398.03,-157.85 1466.47,-197.78"/>
<polygon fill="black" stroke="black" points="1464.99,-200.96 1475.39,-202.98 1468.52,-194.92 1464.99,-200.96"/>
</g>
</g>
</svg>
