<?xml version="1.0" encoding="UTF-8" standalone="no"?>
<!DOCTYPE svg PUBLIC "-//W3C//DTD SVG 1.1//EN"
 "http://www.w3.org/Graphics/SVG/1.1/DTD/svg11.dtd">
<!-- Generated by graphviz version 2.44.0 (0)
 -->
<!-- Title: CFG_114 Pages: 1 -->
<svg width="7796pt" height="1187pt"
 viewBox="0.00 0.00 7796.00 1187.00" xmlns="http://www.w3.org/2000/svg" xmlns:xlink="http://www.w3.org/1999/xlink">
<g id="graph0" class="graph" transform="scale(1 1) rotate(0) translate(4 1183)">
<title>CFG_114</title>
<polygon fill="white" stroke="transparent" points="-4,4 -4,-1183 7792,-1183 7792,4 -4,4"/>
<text text-anchor="middle" x="160" y="-1159" font-family="Times-Roman" font-size="20.00">168&#45;Sieve.sieve(boolean[], int)</text>
<!-- b0 -->
<g id="node1" class="node">
<title>b0</title>
<polygon fill="white" stroke="black" points="209,-412 0,-412 0,-360 209,-360 209,-412"/>
<text text-anchor="middle" x="104.5" y="-400" font-family="Helvetica" font-size="10.00">B0</text>
<text text-anchor="middle" x="104.5" y="-389" font-family="Helvetica" font-size="10.00">Loop: &lt;none&gt;</text>
<text text-anchor="middle" x="104.5" y="-378" font-family="Helvetica" font-size="10.00">&#45;&#45;&#45;</text>
<text text-anchor="middle" x="104.5" y="-367" font-family="Helvetica" font-size="10.00">HotSpotMethod&lt;Sieve.sieve(boolean[], int)&gt;</text>
</g>
<!-- b1 -->
<g id="node2" class="node">
<title>b1</title>
<polygon fill="white" stroke="black" points="526,-474 317,-474 317,-422 526,-422 526,-474"/>
<text text-anchor="middle" x="421.5" y="-462" font-family="Helvetica" font-size="10.00">B1</text>
<text text-anchor="middle" x="421.5" y="-451" font-family="Helvetica" font-size="10.00">Loop: &lt;none&gt;</text>
<text text-anchor="middle" x="421.5" y="-440" font-family="Helvetica" font-size="10.00">&#45;&#45;&#45;</text>
<text text-anchor="middle" x="421.5" y="-429" font-family="Helvetica" font-size="10.00">HotSpotMethod&lt;Sieve.sieve(boolean[], int)&gt;</text>
</g>
<!-- b0&#45;&gt;b1 -->
<g id="edge1" class="edge">
<title>b0&#45;&gt;b1</title>
<path fill="none" stroke="black" d="M209.08,-406.39C240.44,-412.56 275.05,-419.37 307.03,-425.67"/>
<polygon fill="black" stroke="black" points="306.37,-429.1 316.86,-427.6 307.72,-422.24 306.37,-429.1"/>
</g>
<!-- b2 -->
<g id="node3" class="node">
<title>b2</title>
<polygon fill="white" stroke="black" points="526,-350 317,-350 317,-298 526,-298 526,-350"/>
<text text-anchor="middle" x="421.5" y="-338" font-family="Helvetica" font-size="10.00">B2</text>
<text text-anchor="middle" x="421.5" y="-327" font-family="Helvetica" font-size="10.00">Loop: &lt;none&gt;</text>
<text text-anchor="middle" x="421.5" y="-316" font-family="Helvetica" font-size="10.00">&#45;&#45;&#45;</text>
<text text-anchor="middle" x="421.5" y="-305" font-family="Helvetica" font-size="10.00">HotSpotMethod&lt;Sieve.sieve(boolean[], int)&gt;</text>
</g>
<!-- b0&#45;&gt;b2 -->
<g id="edge2" class="edge">
<title>b0&#45;&gt;b2</title>
<path fill="none" stroke="black" d="M209.08,-365.61C240.44,-359.44 275.05,-352.63 307.03,-346.33"/>
<polygon fill="black" stroke="black" points="307.72,-349.76 316.86,-344.4 306.37,-342.9 307.72,-349.76"/>
</g>
<!-- b3 -->
<g id="node4" class="node">
<title>b3</title>
<polygon fill="white" stroke="black" points="843,-412 634,-412 634,-360 843,-360 843,-412"/>
<text text-anchor="middle" x="738.5" y="-400" font-family="Helvetica" font-size="10.00">B3</text>
<text text-anchor="middle" x="738.5" y="-389" font-family="Helvetica" font-size="10.00">Loop: &lt;none&gt;</text>
<text text-anchor="middle" x="738.5" y="-378" font-family="Helvetica" font-size="10.00">&#45;&#45;&#45;</text>
<text text-anchor="middle" x="738.5" y="-367" font-family="Helvetica" font-size="10.00">HotSpotMethod&lt;Sieve.sieve(boolean[], int)&gt;</text>
</g>
<!-- b1&#45;&gt;b3 -->
<g id="edge3" class="edge">
<title>b1&#45;&gt;b3</title>
<path fill="none" stroke="black" d="M526.08,-427.61C557.44,-421.44 592.05,-414.63 624.03,-408.33"/>
<polygon fill="black" stroke="black" points="624.72,-411.76 633.86,-406.4 623.37,-404.9 624.72,-411.76"/>
</g>
<!-- b2&#45;&gt;b3 -->
<g id="edge4" class="edge">
<title>b2&#45;&gt;b3</title>
<path fill="none" stroke="black" d="M526.08,-344.39C557.44,-350.56 592.05,-357.37 624.03,-363.67"/>
<polygon fill="black" stroke="black" points="623.37,-367.1 633.86,-365.6 624.72,-360.24 623.37,-367.1"/>
</g>
<!-- b5 -->
<g id="node6" class="node">
<title>b5</title>
<polygon fill="white" stroke="black" points="1160,-221 951,-221 951,-169 1160,-169 1160,-221"/>
<text text-anchor="middle" x="1055.5" y="-209" font-family="Helvetica" font-size="10.00">B5</text>
<text text-anchor="middle" x="1055.5" y="-198" font-family="Helvetica" font-size="10.00">Loop: &lt;none&gt;</text>
<text text-anchor="middle" x="1055.5" y="-187" font-family="Helvetica" font-size="10.00">&#45;&#45;&#45;</text>
<text text-anchor="middle" x="1055.5" y="-176" font-family="Helvetica" font-size="10.00">HotSpotMethod&lt;Sieve.sieve(boolean[], int)&gt;</text>
</g>
<!-- b3&#45;&gt;b5 -->
<g id="edge6" class="edge">
<title>b3&#45;&gt;b5</title>
<path fill="none" stroke="black" d="M781.98,-359.96C824.64,-333.83 892.29,-292.49 951,-257 967.56,-246.99 985.65,-236.13 1002.01,-226.34"/>
<polygon fill="black" stroke="black" points="1004.11,-229.16 1010.89,-221.02 1000.52,-223.15 1004.11,-229.16"/>
</g>
<!-- b7 -->
<g id="node8" class="node">
<title>b7</title>
<polygon fill="white" stroke="black" points="1477,-418 1268,-418 1268,-366 1477,-366 1477,-418"/>
<text text-anchor="middle" x="1372.5" y="-406" font-family="Helvetica" font-size="10.00">B7</text>
<text text-anchor="middle" x="1372.5" y="-395" font-family="Helvetica" font-size="10.00">Loop: &lt;none&gt;</text>
<text text-anchor="middle" x="1372.5" y="-384" font-family="Helvetica" font-size="10.00">&#45;&#45;&#45;</text>
<text text-anchor="middle" x="1372.5" y="-373" font-family="Helvetica" font-size="10.00">HotSpotMethod&lt;Sieve.sieve(boolean[], int)&gt;</text>
</g>
<!-- b3&#45;&gt;b7 -->
<g id="edge5" class="edge">
<title>b3&#45;&gt;b7</title>
<path fill="none" stroke="black" d="M773.02,-412.16C812.84,-441.42 882.53,-487.06 951,-505 1040.86,-528.54 1069.89,-527.56 1160,-505 1222.4,-489.38 1286.52,-451.45 1327.55,-423.83"/>
<polygon fill="black" stroke="black" points="1329.66,-426.63 1335.95,-418.11 1325.72,-420.85 1329.66,-426.63"/>
</g>
<!-- b4 -->
<g id="node5" class="node">
<title>b4</title>
<polygon fill="white" stroke="black" points="1160,-469 951,-469 951,-417 1160,-417 1160,-469"/>
<text text-anchor="middle" x="1055.5" y="-457" font-family="Helvetica" font-size="10.00">B4</text>
<text text-anchor="middle" x="1055.5" y="-446" font-family="Helvetica" font-size="10.00">Loop: &lt;none&gt;</text>
<text text-anchor="middle" x="1055.5" y="-435" font-family="Helvetica" font-size="10.00">&#45;&#45;&#45;</text>
<text text-anchor="middle" x="1055.5" y="-424" font-family="Helvetica" font-size="10.00">HotSpotMethod&lt;Sieve.sieve(boolean[], int)&gt;</text>
</g>
<!-- b4&#45;&gt;b7 -->
<g id="edge7" class="edge">
<title>b4&#45;&gt;b7</title>
<path fill="none" stroke="black" d="M1160.08,-426.23C1191.31,-421.17 1225.75,-415.6 1257.61,-410.44"/>
<polygon fill="black" stroke="black" points="1258.55,-413.83 1267.86,-408.78 1257.43,-406.92 1258.55,-413.83"/>
</g>
<!-- b5&#45;&gt;b7 -->
<g id="edge8" class="edge">
<title>b5&#45;&gt;b7</title>
<path fill="none" stroke="black" d="M1100.73,-221.12C1119.14,-232.09 1140.67,-245.05 1160,-257 1216.15,-291.73 1279.94,-332.65 1322.65,-360.27"/>
<polygon fill="black" stroke="black" points="1320.87,-363.28 1331.17,-365.78 1324.68,-357.41 1320.87,-363.28"/>
</g>
<!-- b44 -->
<g id="node45" class="node">
<title>b44</title>
<polygon fill="white" stroke="black" points="1794,-221 1585,-221 1585,-169 1794,-169 1794,-221"/>
<text text-anchor="middle" x="1689.5" y="-209" font-family="Helvetica" font-size="10.00">B44</text>
<text text-anchor="middle" x="1689.5" y="-198" font-family="Helvetica" font-size="10.00">Loop: &lt;none&gt;</text>
<text text-anchor="middle" x="1689.5" y="-187" font-family="Helvetica" font-size="10.00">&#45;&#45;&#45;</text>
<text text-anchor="middle" x="1689.5" y="-176" font-family="Helvetica" font-size="10.00">HotSpotMethod&lt;Sieve.sieve(boolean[], int)&gt;</text>
</g>
<!-- b5&#45;&gt;b44 -->
<g id="edge9" class="edge">
<title>b5&#45;&gt;b44</title>
<path fill="none" stroke="black" d="M1160.15,-195C1274.15,-195 1456.75,-195 1574.65,-195"/>
<polygon fill="black" stroke="black" points="1574.79,-198.5 1584.79,-195 1574.79,-191.5 1574.79,-198.5"/>
</g>
<!-- b6 -->
<g id="node7" class="node">
<title>b6</title>
<polygon fill="white" stroke="black" points="1160,-345 951,-345 951,-293 1160,-293 1160,-345"/>
<text text-anchor="middle" x="1055.5" y="-333" font-family="Helvetica" font-size="10.00">B6</text>
<text text-anchor="middle" x="1055.5" y="-322" font-family="Helvetica" font-size="10.00">Loop: &lt;none&gt;</text>
<text text-anchor="middle" x="1055.5" y="-311" font-family="Helvetica" font-size="10.00">&#45;&#45;&#45;</text>
<text text-anchor="middle" x="1055.5" y="-300" font-family="Helvetica" font-size="10.00">HotSpotMethod&lt;Sieve.sieve(boolean[], int)&gt;</text>
</g>
<!-- b6&#45;&gt;b7 -->
<g id="edge10" class="edge">
<title>b6&#45;&gt;b7</title>
<path fill="none" stroke="black" d="M1160.08,-343C1191.44,-350.27 1226.05,-358.29 1258.03,-365.7"/>
<polygon fill="black" stroke="black" points="1257.33,-369.13 1267.86,-367.98 1258.91,-362.31 1257.33,-369.13"/>
</g>
<!-- b9 -->
<g id="node10" class="node">
<title>b9</title>
<polygon fill="white" stroke="black" points="1794,-502 1585,-502 1585,-450 1794,-450 1794,-502"/>
<text text-anchor="middle" x="1689.5" y="-490" font-family="Helvetica" font-size="10.00">B9</text>
<text text-anchor="middle" x="1689.5" y="-479" font-family="Helvetica" font-size="10.00">Loop: &lt;none&gt;</text>
<text text-anchor="middle" x="1689.5" y="-468" font-family="Helvetica" font-size="10.00">&#45;&#45;&#45;</text>
<text text-anchor="middle" x="1689.5" y="-457" font-family="Helvetica" font-size="10.00">HotSpotMethod&lt;Sieve.sieve(boolean[], int)&gt;</text>
</g>
<!-- b7&#45;&gt;b9 -->
<g id="edge12" class="edge">
<title>b7&#45;&gt;b9</title>
<path fill="none" stroke="black" d="M1471.01,-418C1505.86,-427.3 1545.32,-437.82 1580.96,-447.32"/>
<polygon fill="black" stroke="black" points="1580.34,-450.78 1590.91,-449.98 1582.15,-444.02 1580.34,-450.78"/>
</g>
<!-- b18 -->
<g id="node19" class="node">
<title>b18</title>
<polygon fill="white" stroke="black" points="3833.5,-637 3624.5,-637 3624.5,-585 3833.5,-585 3833.5,-637"/>
<text text-anchor="middle" x="3729" y="-625" font-family="Helvetica" font-size="10.00">B18</text>
<text text-anchor="middle" x="3729" y="-614" font-family="Helvetica" font-size="10.00">Loop: &lt;none&gt;</text>
<text text-anchor="middle" x="3729" y="-603" font-family="Helvetica" font-size="10.00">&#45;&#45;&#45;</text>
<text text-anchor="middle" x="3729" y="-592" font-family="Helvetica" font-size="10.00">HotSpotMethod&lt;Sieve.sieve(boolean[], int)&gt;</text>
</g>
<!-- b7&#45;&gt;b18 -->
<g id="edge11" class="edge">
<title>b7&#45;&gt;b18</title>
<path fill="none" stroke="black" d="M1477.02,-378.5C1602.03,-363.39 1818.78,-341 2005.5,-341 2005.5,-341 2005.5,-341 2986,-341 3211.9,-341 3282.44,-322.56 3489,-414 3576.15,-452.58 3657.19,-532.17 3698.8,-577.49"/>
<polygon fill="black" stroke="black" points="3696.31,-579.95 3705.62,-585 3701.49,-575.24 3696.31,-579.95"/>
</g>
<!-- b8 -->
<g id="node9" class="node">
<title>b8</title>
<polygon fill="white" stroke="black" points="3461.5,-502 3252.5,-502 3252.5,-450 3461.5,-450 3461.5,-502"/>
<text text-anchor="middle" x="3357" y="-490" font-family="Helvetica" font-size="10.00">B8</text>
<text text-anchor="middle" x="3357" y="-479" font-family="Helvetica" font-size="10.00">Loop: &lt;none&gt;</text>
<text text-anchor="middle" x="3357" y="-468" font-family="Helvetica" font-size="10.00">&#45;&#45;&#45;</text>
<text text-anchor="middle" x="3357" y="-457" font-family="Helvetica" font-size="10.00">HotSpotMethod&lt;Sieve.sieve(boolean[], int)&gt;</text>
</g>
<!-- b8&#45;&gt;b18 -->
<g id="edge13" class="edge">
<title>b8&#45;&gt;b18</title>
<path fill="none" stroke="black" d="M3429.34,-502.03C3491.69,-524.78 3582.15,-557.79 3647.16,-581.51"/>
<polygon fill="black" stroke="black" points="3645.97,-584.8 3656.56,-584.94 3648.37,-578.22 3645.97,-584.8"/>
</g>
<!-- b10 -->
<g id="node11" class="node">
<title>b10</title>
<polygon fill="white" stroke="black" points="2111,-637 1902,-637 1902,-585 2111,-585 2111,-637"/>
<text text-anchor="middle" x="2006.5" y="-625" font-family="Helvetica" font-size="10.00">B10</text>
<text text-anchor="middle" x="2006.5" y="-614" font-family="Helvetica" font-size="10.00">Loop: &lt;none&gt;</text>
<text text-anchor="middle" x="2006.5" y="-603" font-family="Helvetica" font-size="10.00">&#45;&#45;&#45;</text>
<text text-anchor="middle" x="2006.5" y="-592" font-family="Helvetica" font-size="10.00">HotSpotMethod&lt;Sieve.sieve(boolean[], int)&gt;</text>
</g>
<!-- b9&#45;&gt;b10 -->
<g id="edge14" class="edge">
<title>b9&#45;&gt;b10</title>
<path fill="none" stroke="black" d="M1751.24,-502.03C1803.88,-524.59 1880.07,-557.25 1935.31,-580.92"/>
<polygon fill="black" stroke="black" points="1934.11,-584.21 1944.68,-584.94 1936.87,-577.78 1934.11,-584.21"/>
</g>
<!-- b43 -->
<g id="node44" class="node">
<title>b43</title>
<polygon fill="white" stroke="black" points="2111,-502 1902,-502 1902,-450 2111,-450 2111,-502"/>
<text text-anchor="middle" x="2006.5" y="-490" font-family="Helvetica" font-size="10.00">B43</text>
<text text-anchor="middle" x="2006.5" y="-479" font-family="Helvetica" font-size="10.00">Loop: &lt;none&gt;</text>
<text text-anchor="middle" x="2006.5" y="-468" font-family="Helvetica" font-size="10.00">&#45;&#45;&#45;</text>
<text text-anchor="middle" x="2006.5" y="-457" font-family="Helvetica" font-size="10.00">HotSpotMethod&lt;Sieve.sieve(boolean[], int)&gt;</text>
</g>
<!-- b9&#45;&gt;b43 -->
<g id="edge15" class="edge">
<title>b9&#45;&gt;b43</title>
<path fill="none" stroke="black" d="M1794.08,-476C1825.31,-476 1859.75,-476 1891.61,-476"/>
<polygon fill="black" stroke="black" points="1891.86,-479.5 1901.86,-476 1891.86,-472.5 1891.86,-479.5"/>
</g>
<!-- b12 -->
<g id="node13" class="node">
<title>b12</title>
<polygon fill="white" stroke="black" points="2428,-803 2219,-803 2219,-751 2428,-751 2428,-803"/>
<text text-anchor="middle" x="2323.5" y="-791" font-family="Helvetica" font-size="10.00">B12</text>
<text text-anchor="middle" x="2323.5" y="-780" font-family="Helvetica" font-size="10.00">Loop: &lt;none&gt;</text>
<text text-anchor="middle" x="2323.5" y="-769" font-family="Helvetica" font-size="10.00">&#45;&#45;&#45;</text>
<text text-anchor="middle" x="2323.5" y="-758" font-family="Helvetica" font-size="10.00">HotSpotMethod&lt;Sieve.sieve(boolean[], int)&gt;</text>
</g>
<!-- b10&#45;&gt;b12 -->
<g id="edge17" class="edge">
<title>b10&#45;&gt;b12</title>
<path fill="none" stroke="black" d="M2057.07,-637.12C2113.18,-666.69 2204.51,-714.82 2264.05,-746.2"/>
<polygon fill="black" stroke="black" points="2262.49,-749.33 2272.96,-750.9 2265.75,-743.14 2262.49,-749.33"/>
</g>
<!-- b10&#45;&gt;b18 -->
<g id="edge16" class="edge">
<title>b10&#45;&gt;b18</title>
<path fill="none" stroke="black" d="M2111.23,-611C2236.44,-611 2453.38,-611 2639.5,-611 2639.5,-611 2639.5,-611 2986,-611 3208.51,-611 3468.55,-611 3614.18,-611"/>
<polygon fill="black" stroke="black" points="3614.47,-614.5 3624.47,-611 3614.47,-607.5 3614.47,-614.5"/>
</g>
<!-- b11 -->
<g id="node12" class="node">
<title>b11</title>
<polygon fill="white" stroke="black" points="3461.5,-772 3252.5,-772 3252.5,-720 3461.5,-720 3461.5,-772"/>
<text text-anchor="middle" x="3357" y="-760" font-family="Helvetica" font-size="10.00">B11</text>
<text text-anchor="middle" x="3357" y="-749" font-family="Helvetica" font-size="10.00">Loop: &lt;none&gt;</text>
<text text-anchor="middle" x="3357" y="-738" font-family="Helvetica" font-size="10.00">&#45;&#45;&#45;</text>
<text text-anchor="middle" x="3357" y="-727" font-family="Helvetica" font-size="10.00">HotSpotMethod&lt;Sieve.sieve(boolean[], int)&gt;</text>
</g>
<!-- b11&#45;&gt;b18 -->
<g id="edge18" class="edge">
<title>b11&#45;&gt;b18</title>
<path fill="none" stroke="black" d="M3429.34,-719.97C3491.69,-697.22 3582.15,-664.21 3647.16,-640.49"/>
<polygon fill="black" stroke="black" points="3648.37,-643.78 3656.56,-637.06 3645.97,-637.2 3648.37,-643.78"/>
</g>
<!-- b13 -->
<g id="node14" class="node">
<title>b13</title>
<polygon fill="white" stroke="black" points="2745,-942 2536,-942 2536,-890 2745,-890 2745,-942"/>
<text text-anchor="middle" x="2640.5" y="-930" font-family="Helvetica" font-size="10.00">B13</text>
<text text-anchor="middle" x="2640.5" y="-919" font-family="Helvetica" font-size="10.00">Loop: &lt;none&gt;</text>
<text text-anchor="middle" x="2640.5" y="-908" font-family="Helvetica" font-size="10.00">&#45;&#45;&#45;</text>
<text text-anchor="middle" x="2640.5" y="-897" font-family="Helvetica" font-size="10.00">HotSpotMethod&lt;Sieve.sieve(boolean[], int)&gt;</text>
</g>
<!-- b12&#45;&gt;b13 -->
<g id="edge19" class="edge">
<title>b12&#45;&gt;b13</title>
<path fill="none" stroke="black" d="M2383.75,-803.14C2436.99,-826.64 2515.16,-861.13 2571.05,-885.79"/>
<polygon fill="black" stroke="black" points="2569.95,-889.14 2580.52,-889.97 2572.78,-882.73 2569.95,-889.14"/>
</g>
<!-- b42 -->
<g id="node43" class="node">
<title>b42</title>
<polygon fill="white" stroke="black" points="2745,-803 2536,-803 2536,-751 2745,-751 2745,-803"/>
<text text-anchor="middle" x="2640.5" y="-791" font-family="Helvetica" font-size="10.00">B42</text>
<text text-anchor="middle" x="2640.5" y="-780" font-family="Helvetica" font-size="10.00">Loop: &lt;none&gt;</text>
<text text-anchor="middle" x="2640.5" y="-769" font-family="Helvetica" font-size="10.00">&#45;&#45;&#45;</text>
<text text-anchor="middle" x="2640.5" y="-758" font-family="Helvetica" font-size="10.00">HotSpotMethod&lt;Sieve.sieve(boolean[], int)&gt;</text>
</g>
<!-- b12&#45;&gt;b42 -->
<g id="edge20" class="edge">
<title>b12&#45;&gt;b42</title>
<path fill="none" stroke="black" d="M2428.08,-777C2459.31,-777 2493.75,-777 2525.61,-777"/>
<polygon fill="black" stroke="black" points="2525.86,-780.5 2535.86,-777 2525.86,-773.5 2525.86,-780.5"/>
</g>
<!-- b14 -->
<g id="node15" class="node">
<title>b14</title>
<polygon fill="lightblue" stroke="black" points="3117,-958 2853,-958 2853,-906 3117,-906 3117,-958"/>
<text text-anchor="middle" x="2985" y="-946" font-family="Helvetica" font-size="10.00">B14</text>
<text text-anchor="middle" x="2985" y="-935" font-family="Helvetica" font-size="10.00">Loop: L0</text>
<text text-anchor="middle" x="2985" y="-924" font-family="Helvetica" font-size="10.00">&#45;&#45;&#45;</text>
<text text-anchor="middle" x="2985" y="-913" font-family="Helvetica" font-size="10.00">HotSpotMethod&lt;BuboAgentCompilerMarkers.Marker1()&gt;</text>
</g>
<!-- b13&#45;&gt;b14 -->
<g id="edge21" class="edge">
<title>b13&#45;&gt;b14</title>
<path fill="none" stroke="black" d="M2745.19,-920.84C2775.88,-922.28 2810.02,-923.87 2842.66,-925.4"/>
<polygon fill="black" stroke="black" points="2842.58,-928.9 2852.74,-925.87 2842.91,-921.91 2842.58,-928.9"/>
</g>
<!-- b15 -->
<g id="node16" class="node">
<title>b15</title>
<polygon fill="lightblue" stroke="black" points="3489,-1020 3225,-1020 3225,-968 3489,-968 3489,-1020"/>
<text text-anchor="middle" x="3357" y="-1008" font-family="Helvetica" font-size="10.00">B15</text>
<text text-anchor="middle" x="3357" y="-997" font-family="Helvetica" font-size="10.00">Loop: L0</text>
<text text-anchor="middle" x="3357" y="-986" font-family="Helvetica" font-size="10.00">&#45;&#45;&#45;</text>
<text text-anchor="middle" x="3357" y="-975" font-family="Helvetica" font-size="10.00">HotSpotMethod&lt;BuboAgentCompilerMarkers.Marker1()&gt;</text>
</g>
<!-- b14&#45;&gt;b15 -->
<g id="edge23" class="edge">
<title>b14&#45;&gt;b15</title>
<path fill="none" stroke="black" d="M3117.23,-953.99C3148.87,-959.29 3182.8,-964.98 3214.87,-970.35"/>
<polygon fill="black" stroke="black" points="3214.32,-973.81 3224.76,-972.01 3215.47,-966.9 3214.32,-973.81"/>
</g>
<!-- b17 -->
<g id="node18" class="node">
<title>b17</title>
<polygon fill="white" stroke="black" points="3461.5,-896 3252.5,-896 3252.5,-844 3461.5,-844 3461.5,-896"/>
<text text-anchor="middle" x="3357" y="-884" font-family="Helvetica" font-size="10.00">B17</text>
<text text-anchor="middle" x="3357" y="-873" font-family="Helvetica" font-size="10.00">Loop: &lt;none&gt;</text>
<text text-anchor="middle" x="3357" y="-862" font-family="Helvetica" font-size="10.00">&#45;&#45;&#45;</text>
<text text-anchor="middle" x="3357" y="-851" font-family="Helvetica" font-size="10.00">HotSpotMethod&lt;Sieve.sieve(boolean[], int)&gt;</text>
</g>
<!-- b14&#45;&gt;b17 -->
<g id="edge22" class="edge">
<title>b14&#45;&gt;b17</title>
<path fill="none" stroke="black" d="M3117.23,-910.01C3158.13,-903.16 3202.87,-895.66 3242.45,-889.03"/>
<polygon fill="black" stroke="black" points="3243.11,-892.47 3252.4,-887.36 3241.96,-885.56 3243.11,-892.47"/>
</g>
<!-- b16 -->
<g id="node17" class="node">
<title>b16</title>
<polygon fill="lightblue" stroke="black" points="3861,-1149 3597,-1149 3597,-1097 3861,-1097 3861,-1149"/>
<text text-anchor="middle" x="3729" y="-1137" font-family="Helvetica" font-size="10.00">B16</text>
<text text-anchor="middle" x="3729" y="-1126" font-family="Helvetica" font-size="10.00">Loop: L0</text>
<text text-anchor="middle" x="3729" y="-1115" font-family="Helvetica" font-size="10.00">&#45;&#45;&#45;</text>
<text text-anchor="middle" x="3729" y="-1104" font-family="Helvetica" font-size="10.00">HotSpotMethod&lt;BuboAgentCompilerMarkers.Marker1()&gt;</text>
</g>
<!-- b15&#45;&gt;b16 -->
<g id="edge24" class="edge">
<title>b15&#45;&gt;b16</title>
<path fill="none" stroke="black" d="M3432.88,-1020.11C3493.93,-1041.39 3580.16,-1071.45 3643.65,-1093.59"/>
<polygon fill="black" stroke="black" points="3642.64,-1096.95 3653.24,-1096.93 3644.95,-1090.34 3642.64,-1096.95"/>
</g>
<!-- b41 -->
<g id="node42" class="node">
<title>b41</title>
<polygon fill="white" stroke="black" points="3833.5,-1020 3624.5,-1020 3624.5,-968 3833.5,-968 3833.5,-1020"/>
<text text-anchor="middle" x="3729" y="-1008" font-family="Helvetica" font-size="10.00">B41</text>
<text text-anchor="middle" x="3729" y="-997" font-family="Helvetica" font-size="10.00">Loop: &lt;none&gt;</text>
<text text-anchor="middle" x="3729" y="-986" font-family="Helvetica" font-size="10.00">&#45;&#45;&#45;</text>
<text text-anchor="middle" x="3729" y="-975" font-family="Helvetica" font-size="10.00">HotSpotMethod&lt;Sieve.sieve(boolean[], int)&gt;</text>
</g>
<!-- b15&#45;&gt;b41 -->
<g id="edge25" class="edge">
<title>b15&#45;&gt;b41</title>
<path fill="none" stroke="black" d="M3489.23,-994C3530.04,-994 3574.68,-994 3614.2,-994"/>
<polygon fill="black" stroke="black" points="3614.4,-997.5 3624.4,-994 3614.4,-990.5 3614.4,-997.5"/>
</g>
<!-- b16&#45;&gt;b14 -->
<g id="edge26" class="edge">
<title>b16&#45;&gt;b14</title>
<path fill="none" stroke="black" d="M3596.88,-1117.93C3493.77,-1111.01 3347.56,-1094.65 3225,-1056 3155.06,-1033.94 3081.08,-992.35 3034.28,-963.45"/>
<polygon fill="black" stroke="black" points="3035.92,-960.34 3025.58,-958.03 3032.22,-966.29 3035.92,-960.34"/>
</g>
<!-- b17&#45;&gt;b18 -->
<g id="edge27" class="edge">
<title>b17&#45;&gt;b18</title>
<path fill="none" stroke="black" d="M3421.32,-843.86C3443.37,-833.77 3467.86,-821.42 3489,-808 3567.53,-758.14 3649.06,-685.71 3693.68,-643.98"/>
<polygon fill="black" stroke="black" points="3696.16,-646.45 3701.05,-637.05 3691.36,-641.35 3696.16,-646.45"/>
</g>
<!-- b20 -->
<g id="node21" class="node">
<title>b20</title>
<polygon fill="white" stroke="black" points="4178,-446 3969,-446 3969,-394 4178,-394 4178,-446"/>
<text text-anchor="middle" x="4073.5" y="-434" font-family="Helvetica" font-size="10.00">B20</text>
<text text-anchor="middle" x="4073.5" y="-423" font-family="Helvetica" font-size="10.00">Loop: &lt;none&gt;</text>
<text text-anchor="middle" x="4073.5" y="-412" font-family="Helvetica" font-size="10.00">&#45;&#45;&#45;</text>
<text text-anchor="middle" x="4073.5" y="-401" font-family="Helvetica" font-size="10.00">HotSpotMethod&lt;Sieve.sieve(boolean[], int)&gt;</text>
</g>
<!-- b18&#45;&gt;b20 -->
<g id="edge29" class="edge">
<title>b18&#45;&gt;b20</title>
<path fill="none" stroke="black" d="M3776.91,-584.84C3839.37,-550.01 3949.73,-488.46 4016.49,-451.23"/>
<polygon fill="black" stroke="black" points="4018.58,-454.07 4025.61,-446.15 4015.17,-447.96 4018.58,-454.07"/>
</g>
<!-- b23 -->
<g id="node24" class="node">
<title>b23</title>
<polygon fill="white" stroke="black" points="4812,-632 4603,-632 4603,-580 4812,-580 4812,-632"/>
<text text-anchor="middle" x="4707.5" y="-620" font-family="Helvetica" font-size="10.00">B23</text>
<text text-anchor="middle" x="4707.5" y="-609" font-family="Helvetica" font-size="10.00">Loop: &lt;none&gt;</text>
<text text-anchor="middle" x="4707.5" y="-598" font-family="Helvetica" font-size="10.00">&#45;&#45;&#45;</text>
<text text-anchor="middle" x="4707.5" y="-587" font-family="Helvetica" font-size="10.00">HotSpotMethod&lt;Sieve.sieve(boolean[], int)&gt;</text>
</g>
<!-- b18&#45;&gt;b23 -->
<g id="edge28" class="edge">
<title>b18&#45;&gt;b23</title>
<path fill="none" stroke="black" d="M3789.97,-637.1C3920.19,-690.14 4237.84,-799.83 4495,-730 4560.33,-712.26 4626.12,-668.7 4666.58,-638.25"/>
<polygon fill="black" stroke="black" points="4668.74,-641.01 4674.57,-632.16 4664.5,-635.44 4668.74,-641.01"/>
</g>
<!-- b19 -->
<g id="node20" class="node">
<title>b19</title>
<polygon fill="white" stroke="black" points="4495,-694 4286,-694 4286,-642 4495,-642 4495,-694"/>
<text text-anchor="middle" x="4390.5" y="-682" font-family="Helvetica" font-size="10.00">B19</text>
<text text-anchor="middle" x="4390.5" y="-671" font-family="Helvetica" font-size="10.00">Loop: &lt;none&gt;</text>
<text text-anchor="middle" x="4390.5" y="-660" font-family="Helvetica" font-size="10.00">&#45;&#45;&#45;</text>
<text text-anchor="middle" x="4390.5" y="-649" font-family="Helvetica" font-size="10.00">HotSpotMethod&lt;Sieve.sieve(boolean[], int)&gt;</text>
</g>
<!-- b19&#45;&gt;b23 -->
<g id="edge30" class="edge">
<title>b19&#45;&gt;b23</title>
<path fill="none" stroke="black" d="M4495.08,-647.61C4526.44,-641.44 4561.05,-634.63 4593.03,-628.33"/>
<polygon fill="black" stroke="black" points="4593.72,-631.76 4602.86,-626.4 4592.37,-624.9 4593.72,-631.76"/>
</g>
<!-- b21 -->
<g id="node22" class="node">
<title>b21</title>
<polygon fill="white" stroke="black" points="4495,-446 4286,-446 4286,-394 4495,-394 4495,-446"/>
<text text-anchor="middle" x="4390.5" y="-434" font-family="Helvetica" font-size="10.00">B21</text>
<text text-anchor="middle" x="4390.5" y="-423" font-family="Helvetica" font-size="10.00">Loop: &lt;none&gt;</text>
<text text-anchor="middle" x="4390.5" y="-412" font-family="Helvetica" font-size="10.00">&#45;&#45;&#45;</text>
<text text-anchor="middle" x="4390.5" y="-401" font-family="Helvetica" font-size="10.00">HotSpotMethod&lt;Sieve.sieve(boolean[], int)&gt;</text>
</g>
<!-- b20&#45;&gt;b21 -->
<g id="edge31" class="edge">
<title>b20&#45;&gt;b21</title>
<path fill="none" stroke="black" d="M4178.08,-420C4209.31,-420 4243.75,-420 4275.61,-420"/>
<polygon fill="black" stroke="black" points="4275.86,-423.5 4285.86,-420 4275.86,-416.5 4275.86,-423.5"/>
</g>
<!-- b40 -->
<g id="node41" class="node">
<title>b40</title>
<polygon fill="white" stroke="black" points="4812,-244 4603,-244 4603,-192 4812,-192 4812,-244"/>
<text text-anchor="middle" x="4707.5" y="-232" font-family="Helvetica" font-size="10.00">B40</text>
<text text-anchor="middle" x="4707.5" y="-221" font-family="Helvetica" font-size="10.00">Loop: &lt;none&gt;</text>
<text text-anchor="middle" x="4707.5" y="-210" font-family="Helvetica" font-size="10.00">&#45;&#45;&#45;</text>
<text text-anchor="middle" x="4707.5" y="-199" font-family="Helvetica" font-size="10.00">HotSpotMethod&lt;Sieve.sieve(boolean[], int)&gt;</text>
</g>
<!-- b20&#45;&gt;b40 -->
<g id="edge32" class="edge">
<title>b20&#45;&gt;b40</title>
<path fill="none" stroke="black" d="M4156.15,-393.9C4274.25,-356.16 4492.04,-286.54 4615.28,-247.16"/>
<polygon fill="black" stroke="black" points="4616.62,-250.4 4625.08,-244.02 4614.49,-243.74 4616.62,-250.4"/>
</g>
<!-- b21&#45;&gt;b23 -->
<g id="edge33" class="edge">
<title>b21&#45;&gt;b23</title>
<path fill="none" stroke="black" d="M4435.63,-446.06C4492.84,-479.84 4592.51,-538.69 4653.68,-574.81"/>
<polygon fill="black" stroke="black" points="4652.02,-577.9 4662.41,-579.97 4655.58,-571.87 4652.02,-577.9"/>
</g>
<!-- b21&#45;&gt;b40 -->
<g id="edge34" class="edge">
<title>b21&#45;&gt;b40</title>
<path fill="none" stroke="black" d="M4432.36,-393.8C4490.07,-356.79 4595.32,-289.29 4657.27,-249.57"/>
<polygon fill="black" stroke="black" points="4659.19,-252.5 4665.71,-244.15 4655.41,-246.61 4659.19,-252.5"/>
</g>
<!-- b22 -->
<g id="node23" class="node">
<title>b22</title>
<polygon fill="white" stroke="black" points="4495,-570 4286,-570 4286,-518 4495,-518 4495,-570"/>
<text text-anchor="middle" x="4390.5" y="-558" font-family="Helvetica" font-size="10.00">B22</text>
<text text-anchor="middle" x="4390.5" y="-547" font-family="Helvetica" font-size="10.00">Loop: &lt;none&gt;</text>
<text text-anchor="middle" x="4390.5" y="-536" font-family="Helvetica" font-size="10.00">&#45;&#45;&#45;</text>
<text text-anchor="middle" x="4390.5" y="-525" font-family="Helvetica" font-size="10.00">HotSpotMethod&lt;Sieve.sieve(boolean[], int)&gt;</text>
</g>
<!-- b22&#45;&gt;b23 -->
<g id="edge35" class="edge">
<title>b22&#45;&gt;b23</title>
<path fill="none" stroke="black" d="M4495.08,-564.39C4526.44,-570.56 4561.05,-577.37 4593.03,-583.67"/>
<polygon fill="black" stroke="black" points="4592.37,-587.1 4602.86,-585.6 4593.72,-580.24 4592.37,-587.1"/>
</g>
<!-- b24 -->
<g id="node25" class="node">
<title>b24</title>
<polygon fill="lightgreen" stroke="black" points="5184,-632 4920,-632 4920,-580 5184,-580 5184,-632"/>
<text text-anchor="middle" x="5052" y="-620" font-family="Helvetica" font-size="10.00">B24</text>
<text text-anchor="middle" x="5052" y="-609" font-family="Helvetica" font-size="10.00">Loop: L1</text>
<text text-anchor="middle" x="5052" y="-598" font-family="Helvetica" font-size="10.00">&#45;&#45;&#45;</text>
<text text-anchor="middle" x="5052" y="-587" font-family="Helvetica" font-size="10.00">HotSpotMethod&lt;BuboAgentCompilerMarkers.Marker0()&gt;</text>
</g>
<!-- b23&#45;&gt;b24 -->
<g id="edge36" class="edge">
<title>b23&#45;&gt;b24</title>
<path fill="none" stroke="black" d="M4812.19,-606C4842.88,-606 4877.02,-606 4909.66,-606"/>
<polygon fill="black" stroke="black" points="4909.74,-609.5 4919.74,-606 4909.74,-602.5 4909.74,-609.5"/>
</g>
<!-- b25 -->
<g id="node26" class="node">
<title>b25</title>
<polygon fill="lightgreen" stroke="black" points="5556,-767 5292,-767 5292,-715 5556,-715 5556,-767"/>
<text text-anchor="middle" x="5424" y="-755" font-family="Helvetica" font-size="10.00">B25</text>
<text text-anchor="middle" x="5424" y="-744" font-family="Helvetica" font-size="10.00">Loop: L1</text>
<text text-anchor="middle" x="5424" y="-733" font-family="Helvetica" font-size="10.00">&#45;&#45;&#45;</text>
<text text-anchor="middle" x="5424" y="-722" font-family="Helvetica" font-size="10.00">HotSpotMethod&lt;BuboAgentCompilerMarkers.Marker0()&gt;</text>
</g>
<!-- b24&#45;&gt;b25 -->
<g id="edge38" class="edge">
<title>b24&#45;&gt;b25</title>
<path fill="none" stroke="black" d="M5124.34,-632.03C5186.69,-654.78 5277.15,-687.79 5342.16,-711.51"/>
<polygon fill="black" stroke="black" points="5340.97,-714.8 5351.56,-714.94 5343.37,-708.22 5340.97,-714.8"/>
</g>
<!-- b35 -->
<g id="node36" class="node">
<title>b35</title>
<polygon fill="white" stroke="black" points="5528.5,-351 5319.5,-351 5319.5,-299 5528.5,-299 5528.5,-351"/>
<text text-anchor="middle" x="5424" y="-339" font-family="Helvetica" font-size="10.00">B35</text>
<text text-anchor="middle" x="5424" y="-328" font-family="Helvetica" font-size="10.00">Loop: &lt;none&gt;</text>
<text text-anchor="middle" x="5424" y="-317" font-family="Helvetica" font-size="10.00">&#45;&#45;&#45;</text>
<text text-anchor="middle" x="5424" y="-306" font-family="Helvetica" font-size="10.00">HotSpotMethod&lt;Sieve.sieve(boolean[], int)&gt;</text>
</g>
<!-- b24&#45;&gt;b35 -->
<g id="edge37" class="edge">
<title>b24&#45;&gt;b35</title>
<path fill="none" stroke="black" d="M5081.29,-579.77C5124.9,-539.91 5211.91,-462.63 5292,-405 5315.98,-387.75 5343.75,-370.44 5367.53,-356.35"/>
<polygon fill="black" stroke="black" points="5369.59,-359.21 5376.44,-351.12 5366.04,-353.17 5369.59,-359.21"/>
</g>
<!-- b26 -->
<g id="node27" class="node">
<title>b26</title>
<polygon fill="lightgreen" stroke="black" points="5928,-896 5664,-896 5664,-844 5928,-844 5928,-896"/>
<text text-anchor="middle" x="5796" y="-884" font-family="Helvetica" font-size="10.00">B26</text>
<text text-anchor="middle" x="5796" y="-873" font-family="Helvetica" font-size="10.00">Loop: L1</text>
<text text-anchor="middle" x="5796" y="-862" font-family="Helvetica" font-size="10.00">&#45;&#45;&#45;</text>
<text text-anchor="middle" x="5796" y="-851" font-family="Helvetica" font-size="10.00">HotSpotMethod&lt;BuboAgentCompilerMarkers.Marker0()&gt;</text>
</g>
<!-- b25&#45;&gt;b26 -->
<g id="edge39" class="edge">
<title>b25&#45;&gt;b26</title>
<path fill="none" stroke="black" d="M5499.88,-767.11C5560.93,-788.39 5647.16,-818.45 5710.65,-840.59"/>
<polygon fill="black" stroke="black" points="5709.64,-843.95 5720.24,-843.93 5711.95,-837.34 5709.64,-843.95"/>
</g>
<!-- b27 -->
<g id="node28" class="node">
<title>b27</title>
<polygon fill="lightgreen" stroke="black" points="5928,-767 5664,-767 5664,-715 5928,-715 5928,-767"/>
<text text-anchor="middle" x="5796" y="-755" font-family="Helvetica" font-size="10.00">B27</text>
<text text-anchor="middle" x="5796" y="-744" font-family="Helvetica" font-size="10.00">Loop: L1</text>
<text text-anchor="middle" x="5796" y="-733" font-family="Helvetica" font-size="10.00">&#45;&#45;&#45;</text>
<text text-anchor="middle" x="5796" y="-722" font-family="Helvetica" font-size="10.00">HotSpotMethod&lt;BuboAgentCompilerMarkers.Marker0()&gt;</text>
</g>
<!-- b25&#45;&gt;b27 -->
<g id="edge40" class="edge">
<title>b25&#45;&gt;b27</title>
<path fill="none" stroke="black" d="M5556.23,-741C5587.73,-741 5621.51,-741 5653.46,-741"/>
<polygon fill="black" stroke="black" points="5653.76,-744.5 5663.76,-741 5653.76,-737.5 5653.76,-744.5"/>
</g>
<!-- b26&#45;&gt;b24 -->
<g id="edge41" class="edge">
<title>b26&#45;&gt;b24</title>
<path fill="none" stroke="black" d="M5663.92,-872.04C5559.21,-869.17 5410.83,-854.77 5292,-803 5204.62,-764.93 5123.67,-685.14 5082.13,-639.65"/>
<polygon fill="black" stroke="black" points="5084.63,-637.19 5075.32,-632.12 5079.43,-641.88 5084.63,-637.19"/>
</g>
<!-- b28 -->
<g id="node29" class="node">
<title>b28</title>
<polygon fill="lightgreen" stroke="black" points="6300,-635 6036,-635 6036,-583 6300,-583 6300,-635"/>
<text text-anchor="middle" x="6168" y="-623" font-family="Helvetica" font-size="10.00">B28</text>
<text text-anchor="middle" x="6168" y="-612" font-family="Helvetica" font-size="10.00">Loop: L1</text>
<text text-anchor="middle" x="6168" y="-601" font-family="Helvetica" font-size="10.00">&#45;&#45;&#45;</text>
<text text-anchor="middle" x="6168" y="-590" font-family="Helvetica" font-size="10.00">HotSpotMethod&lt;BuboAgentCompilerMarkers.Marker0()&gt;</text>
</g>
<!-- b27&#45;&gt;b28 -->
<g id="edge42" class="edge">
<title>b27&#45;&gt;b28</title>
<path fill="none" stroke="black" d="M5870.1,-714.92C5931.8,-692.91 6020.1,-661.41 6084.35,-638.48"/>
<polygon fill="black" stroke="black" points="6085.81,-641.68 6094.05,-635.02 6083.46,-635.09 6085.81,-641.68"/>
</g>
<!-- b29 -->
<g id="node30" class="node">
<title>b29</title>
<polygon fill="lightgreen" stroke="black" points="6300,-764 6036,-764 6036,-712 6300,-712 6300,-764"/>
<text text-anchor="middle" x="6168" y="-752" font-family="Helvetica" font-size="10.00">B29</text>
<text text-anchor="middle" x="6168" y="-741" font-family="Helvetica" font-size="10.00">Loop: L1</text>
<text text-anchor="middle" x="6168" y="-730" font-family="Helvetica" font-size="10.00">&#45;&#45;&#45;</text>
<text text-anchor="middle" x="6168" y="-719" font-family="Helvetica" font-size="10.00">HotSpotMethod&lt;BuboAgentCompilerMarkers.Marker0()&gt;</text>
</g>
<!-- b27&#45;&gt;b29 -->
<g id="edge43" class="edge">
<title>b27&#45;&gt;b29</title>
<path fill="none" stroke="black" d="M5928.23,-739.94C5959.73,-739.68 5993.51,-739.41 6025.46,-739.15"/>
<polygon fill="black" stroke="black" points="6025.79,-742.65 6035.76,-739.06 6025.73,-735.65 6025.79,-742.65"/>
</g>
<!-- b28&#45;&gt;b24 -->
<g id="edge44" class="edge">
<title>b28&#45;&gt;b24</title>
<path fill="none" stroke="black" d="M6035.57,-608.65C5824.44,-608.08 5411.47,-606.97 5194.26,-606.38"/>
<polygon fill="black" stroke="black" points="5194.08,-602.88 5184.07,-606.35 5194.06,-609.88 5194.08,-602.88"/>
</g>
<!-- b30 -->
<g id="node31" class="node">
<title>b30</title>
<polygon fill="lightgreen" stroke="black" points="6672,-764 6408,-764 6408,-712 6672,-712 6672,-764"/>
<text text-anchor="middle" x="6540" y="-752" font-family="Helvetica" font-size="10.00">B30</text>
<text text-anchor="middle" x="6540" y="-741" font-family="Helvetica" font-size="10.00">Loop: L1</text>
<text text-anchor="middle" x="6540" y="-730" font-family="Helvetica" font-size="10.00">&#45;&#45;&#45;</text>
<text text-anchor="middle" x="6540" y="-719" font-family="Helvetica" font-size="10.00">HotSpotMethod&lt;BuboAgentCompilerMarkers.Marker0()&gt;</text>
</g>
<!-- b29&#45;&gt;b30 -->
<g id="edge45" class="edge">
<title>b29&#45;&gt;b30</title>
<path fill="none" stroke="black" d="M6300.23,-738C6331.73,-738 6365.51,-738 6397.46,-738"/>
<polygon fill="black" stroke="black" points="6397.76,-741.5 6407.76,-738 6397.76,-734.5 6397.76,-741.5"/>
</g>
<!-- b37 -->
<g id="node38" class="node">
<title>b37</title>
<polygon fill="white" stroke="black" points="6644.5,-640 6435.5,-640 6435.5,-588 6644.5,-588 6644.5,-640"/>
<text text-anchor="middle" x="6540" y="-628" font-family="Helvetica" font-size="10.00">B37</text>
<text text-anchor="middle" x="6540" y="-617" font-family="Helvetica" font-size="10.00">Loop: &lt;none&gt;</text>
<text text-anchor="middle" x="6540" y="-606" font-family="Helvetica" font-size="10.00">&#45;&#45;&#45;</text>
<text text-anchor="middle" x="6540" y="-595" font-family="Helvetica" font-size="10.00">HotSpotMethod&lt;Sieve.sieve(boolean[], int)&gt;</text>
</g>
<!-- b29&#45;&gt;b37 -->
<g id="edge46" class="edge">
<title>b29&#45;&gt;b37</title>
<path fill="none" stroke="black" d="M6247.02,-711.85C6306.89,-691.79 6389.54,-664.09 6451.63,-643.28"/>
<polygon fill="black" stroke="black" points="6453.04,-646.5 6461.41,-640 6450.82,-639.86 6453.04,-646.5"/>
</g>
<!-- b31 -->
<g id="node32" class="node">
<title>b31</title>
<polygon fill="lightpink" stroke="black" points="7044,-687 6780,-687 6780,-635 7044,-635 7044,-687"/>
<text text-anchor="middle" x="6912" y="-675" font-family="Helvetica" font-size="10.00">B31</text>
<text text-anchor="middle" x="6912" y="-664" font-family="Helvetica" font-size="10.00">Loop: L2</text>
<text text-anchor="middle" x="6912" y="-653" font-family="Helvetica" font-size="10.00">&#45;&#45;&#45;</text>
<text text-anchor="middle" x="6912" y="-642" font-family="Helvetica" font-size="10.00">HotSpotMethod&lt;BuboAgentCompilerMarkers.Marker2()&gt;</text>
</g>
<!-- b30&#45;&gt;b31 -->
<g id="edge47" class="edge">
<title>b30&#45;&gt;b31</title>
<path fill="none" stroke="black" d="M6666.01,-711.98C6701.38,-704.62 6740.02,-696.58 6775.96,-689.1"/>
<polygon fill="black" stroke="black" points="6776.94,-692.47 6786.01,-687.01 6775.51,-685.62 6776.94,-692.47"/>
</g>
<!-- b32 -->
<g id="node33" class="node">
<title>b32</title>
<polygon fill="lightpink" stroke="black" points="7416,-618 7152,-618 7152,-566 7416,-566 7416,-618"/>
<text text-anchor="middle" x="7284" y="-606" font-family="Helvetica" font-size="10.00">B32</text>
<text text-anchor="middle" x="7284" y="-595" font-family="Helvetica" font-size="10.00">Loop: L2</text>
<text text-anchor="middle" x="7284" y="-584" font-family="Helvetica" font-size="10.00">&#45;&#45;&#45;</text>
<text text-anchor="middle" x="7284" y="-573" font-family="Helvetica" font-size="10.00">HotSpotMethod&lt;BuboAgentCompilerMarkers.Marker2()&gt;</text>
</g>
<!-- b31&#45;&gt;b32 -->
<g id="edge49" class="edge">
<title>b31&#45;&gt;b32</title>
<path fill="none" stroke="black" d="M7044.23,-636.53C7075.87,-630.63 7109.8,-624.3 7141.87,-618.32"/>
<polygon fill="black" stroke="black" points="7142.57,-621.75 7151.76,-616.47 7141.29,-614.87 7142.57,-621.75"/>
</g>
<!-- b34 -->
<g id="node35" class="node">
<title>b34</title>
<polygon fill="lightgreen" stroke="black" points="7416,-491 7152,-491 7152,-439 7416,-439 7416,-491"/>
<text text-anchor="middle" x="7284" y="-479" font-family="Helvetica" font-size="10.00">B34</text>
<text text-anchor="middle" x="7284" y="-468" font-family="Helvetica" font-size="10.00">Loop: L1</text>
<text text-anchor="middle" x="7284" y="-457" font-family="Helvetica" font-size="10.00">&#45;&#45;&#45;</text>
<text text-anchor="middle" x="7284" y="-446" font-family="Helvetica" font-size="10.00">HotSpotMethod&lt;BuboAgentCompilerMarkers.Marker0()&gt;</text>
</g>
<!-- b31&#45;&gt;b34 -->
<g id="edge48" class="edge">
<title>b31&#45;&gt;b34</title>
<path fill="none" stroke="black" d="M6959.41,-634.83C7007.34,-607.97 7084.46,-565.25 7152,-530 7174.06,-518.49 7198.43,-506.27 7220.1,-495.56"/>
<polygon fill="black" stroke="black" points="7221.79,-498.63 7229.21,-491.07 7218.69,-492.35 7221.79,-498.63"/>
</g>
<!-- b33 -->
<g id="node34" class="node">
<title>b33</title>
<polygon fill="lightpink" stroke="black" points="7788,-747 7524,-747 7524,-695 7788,-695 7788,-747"/>
<text text-anchor="middle" x="7656" y="-735" font-family="Helvetica" font-size="10.00">B33</text>
<text text-anchor="middle" x="7656" y="-724" font-family="Helvetica" font-size="10.00">Loop: L2</text>
<text text-anchor="middle" x="7656" y="-713" font-family="Helvetica" font-size="10.00">&#45;&#45;&#45;</text>
<text text-anchor="middle" x="7656" y="-702" font-family="Helvetica" font-size="10.00">HotSpotMethod&lt;BuboAgentCompilerMarkers.Marker2()&gt;</text>
</g>
<!-- b32&#45;&gt;b33 -->
<g id="edge50" class="edge">
<title>b32&#45;&gt;b33</title>
<path fill="none" stroke="black" d="M7359.88,-618.11C7420.93,-639.39 7507.16,-669.45 7570.65,-691.59"/>
<polygon fill="black" stroke="black" points="7569.64,-694.95 7580.24,-694.93 7571.95,-688.34 7569.64,-694.95"/>
</g>
<!-- b36 -->
<g id="node37" class="node">
<title>b36</title>
<polygon fill="white" stroke="black" points="7760.5,-618 7551.5,-618 7551.5,-566 7760.5,-566 7760.5,-618"/>
<text text-anchor="middle" x="7656" y="-606" font-family="Helvetica" font-size="10.00">B36</text>
<text text-anchor="middle" x="7656" y="-595" font-family="Helvetica" font-size="10.00">Loop: &lt;none&gt;</text>
<text text-anchor="middle" x="7656" y="-584" font-family="Helvetica" font-size="10.00">&#45;&#45;&#45;</text>
<text text-anchor="middle" x="7656" y="-573" font-family="Helvetica" font-size="10.00">HotSpotMethod&lt;Sieve.sieve(boolean[], int)&gt;</text>
</g>
<!-- b32&#45;&gt;b36 -->
<g id="edge51" class="edge">
<title>b32&#45;&gt;b36</title>
<path fill="none" stroke="black" d="M7416.23,-592C7457.04,-592 7501.68,-592 7541.2,-592"/>
<polygon fill="black" stroke="black" points="7541.4,-595.5 7551.4,-592 7541.4,-588.5 7541.4,-595.5"/>
</g>
<!-- b33&#45;&gt;b31 -->
<g id="edge52" class="edge">
<title>b33&#45;&gt;b31</title>
<path fill="none" stroke="black" d="M7523.96,-710.4C7392.2,-699.75 7189.73,-683.38 7054.4,-672.43"/>
<polygon fill="black" stroke="black" points="7054.62,-668.94 7044.37,-671.62 7054.06,-675.92 7054.62,-668.94"/>
</g>
<!-- b34&#45;&gt;b24 -->
<g id="edge53" class="edge">
<title>b34&#45;&gt;b24</title>
<path fill="none" stroke="black" d="M7151.98,-463.58C7003.72,-462.11 6755.01,-460 6541,-460 5795,-460 5795,-460 5795,-460 5555.08,-460 5279.6,-534.39 5141.58,-576.97"/>
<polygon fill="black" stroke="black" points="5140.39,-573.68 5131.88,-579.98 5142.47,-580.36 5140.39,-573.68"/>
</g>
<!-- b38 -->
<g id="node39" class="node">
<title>b38</title>
<polygon fill="white" stroke="black" points="4495,-52 4286,-52 4286,0 4495,0 4495,-52"/>
<text text-anchor="middle" x="4390.5" y="-40" font-family="Helvetica" font-size="10.00">B38</text>
<text text-anchor="middle" x="4390.5" y="-29" font-family="Helvetica" font-size="10.00">Loop: &lt;none&gt;</text>
<text text-anchor="middle" x="4390.5" y="-18" font-family="Helvetica" font-size="10.00">&#45;&#45;&#45;</text>
<text text-anchor="middle" x="4390.5" y="-7" font-family="Helvetica" font-size="10.00">HotSpotMethod&lt;Sieve.sieve(boolean[], int)&gt;</text>
</g>
<!-- b38&#45;&gt;b40 -->
<g id="edge54" class="edge">
<title>b38&#45;&gt;b40</title>
<path fill="none" stroke="black" d="M4435.38,-52.14C4453.82,-63.16 4475.48,-76.16 4495,-88 4550.16,-121.47 4613.12,-160.24 4655.91,-186.68"/>
<polygon fill="black" stroke="black" points="4654.11,-189.68 4664.45,-191.96 4657.79,-183.73 4654.11,-189.68"/>
</g>
<!-- b39 -->
<g id="node40" class="node">
<title>b39</title>
<polygon fill="white" stroke="black" points="4495,-176 4286,-176 4286,-124 4495,-124 4495,-176"/>
<text text-anchor="middle" x="4390.5" y="-164" font-family="Helvetica" font-size="10.00">B39</text>
<text text-anchor="middle" x="4390.5" y="-153" font-family="Helvetica" font-size="10.00">Loop: &lt;none&gt;</text>
<text text-anchor="middle" x="4390.5" y="-142" font-family="Helvetica" font-size="10.00">&#45;&#45;&#45;</text>
<text text-anchor="middle" x="4390.5" y="-131" font-family="Helvetica" font-size="10.00">HotSpotMethod&lt;Sieve.sieve(boolean[], int)&gt;</text>
</g>
<!-- b39&#45;&gt;b40 -->
<g id="edge55" class="edge">
<title>b39&#45;&gt;b40</title>
<path fill="none" stroke="black" d="M4495.08,-172.36C4526.44,-179.13 4561.05,-186.6 4593.03,-193.5"/>
<polygon fill="black" stroke="black" points="4592.35,-196.94 4602.86,-195.63 4593.82,-190.1 4592.35,-196.94"/>
</g>
<!-- b45 -->
<g id="node46" class="node">
<title>b45</title>
<polygon fill="white" stroke="black" points="2428,-227 2219,-227 2219,-175 2428,-175 2428,-227"/>
<text text-anchor="middle" x="2323.5" y="-215" font-family="Helvetica" font-size="10.00">B45</text>
<text text-anchor="middle" x="2323.5" y="-204" font-family="Helvetica" font-size="10.00">Loop: &lt;none&gt;</text>
<text text-anchor="middle" x="2323.5" y="-193" font-family="Helvetica" font-size="10.00">&#45;&#45;&#45;</text>
<text text-anchor="middle" x="2323.5" y="-182" font-family="Helvetica" font-size="10.00">HotSpotMethod&lt;Sieve.sieve(boolean[], int)&gt;</text>
</g>
<!-- b43&#45;&gt;b45 -->
<g id="edge56" class="edge">
<title>b43&#45;&gt;b45</title>
<path fill="none" stroke="black" d="M2037.42,-449.88C2095,-399.61 2221.14,-289.49 2284.54,-234.14"/>
<polygon fill="black" stroke="black" points="2287.09,-236.56 2292.32,-227.35 2282.49,-231.29 2287.09,-236.56"/>
</g>
<!-- b44&#45;&gt;b45 -->
<g id="edge57" class="edge">
<title>b44&#45;&gt;b45</title>
<path fill="none" stroke="black" d="M1794.15,-195.98C1908.15,-197.07 2090.75,-198.8 2208.65,-199.92"/>
<polygon fill="black" stroke="black" points="2208.76,-203.42 2218.79,-200.02 2208.82,-196.42 2208.76,-203.42"/>
</g>
</g>
</svg>
