<?xml version="1.0" encoding="UTF-8" standalone="no"?>
<!DOCTYPE svg PUBLIC "-//W3C//DTD SVG 1.1//EN"
 "http://www.w3.org/Graphics/SVG/1.1/DTD/svg11.dtd">
<!-- Generated by graphviz version 2.44.0 (0)
 -->
<!-- Title: CFG_115 Pages: 1 -->
<svg width="4461pt" height="810pt"
 viewBox="0.00 0.00 4461.00 810.00" xmlns="http://www.w3.org/2000/svg" xmlns:xlink="http://www.w3.org/1999/xlink">
<g id="graph0" class="graph" transform="scale(1 1) rotate(0) translate(4 806)">
<title>CFG_115</title>
<polygon fill="white" stroke="transparent" points="-4,4 -4,-806 4457,-806 4457,4 -4,4"/>
<text text-anchor="middle" x="160" y="-782" font-family="Times-Roman" font-size="20.00">169&#45;Sieve.sieve(boolean[], int)</text>
<!-- b0 -->
<g id="node1" class="node">
<title>b0</title>
<polygon fill="white" stroke="black" points="209,-595 0,-595 0,-543 209,-543 209,-595"/>
<text text-anchor="middle" x="104.5" y="-583" font-family="Helvetica" font-size="10.00">B0</text>
<text text-anchor="middle" x="104.5" y="-572" font-family="Helvetica" font-size="10.00">Loop: &lt;none&gt;</text>
<text text-anchor="middle" x="104.5" y="-561" font-family="Helvetica" font-size="10.00">&#45;&#45;&#45;</text>
<text text-anchor="middle" x="104.5" y="-550" font-family="Helvetica" font-size="10.00">HotSpotMethod&lt;Sieve.sieve(boolean[], int)&gt;</text>
</g>
<!-- b1 -->
<g id="node2" class="node">
<title>b1</title>
<polygon fill="white" stroke="black" points="843,-772 634,-772 634,-720 843,-720 843,-772"/>
<text text-anchor="middle" x="738.5" y="-760" font-family="Helvetica" font-size="10.00">B1</text>
<text text-anchor="middle" x="738.5" y="-749" font-family="Helvetica" font-size="10.00">Loop: &lt;none&gt;</text>
<text text-anchor="middle" x="738.5" y="-738" font-family="Helvetica" font-size="10.00">&#45;&#45;&#45;</text>
<text text-anchor="middle" x="738.5" y="-727" font-family="Helvetica" font-size="10.00">HotSpotMethod&lt;Sieve.sieve(boolean[], int)&gt;</text>
</g>
<!-- b0&#45;&gt;b1 -->
<g id="edge1" class="edge">
<title>b0&#45;&gt;b1</title>
<path fill="none" stroke="black" d="M198.41,-595.02C314.92,-627.65 514,-683.4 634.88,-717.26"/>
<polygon fill="black" stroke="black" points="633.95,-720.64 644.53,-719.96 635.84,-713.89 633.95,-720.64"/>
</g>
<!-- b2 -->
<g id="node3" class="node">
<title>b2</title>
<polygon fill="white" stroke="black" points="526,-528 317,-528 317,-476 526,-476 526,-528"/>
<text text-anchor="middle" x="421.5" y="-516" font-family="Helvetica" font-size="10.00">B2</text>
<text text-anchor="middle" x="421.5" y="-505" font-family="Helvetica" font-size="10.00">Loop: &lt;none&gt;</text>
<text text-anchor="middle" x="421.5" y="-494" font-family="Helvetica" font-size="10.00">&#45;&#45;&#45;</text>
<text text-anchor="middle" x="421.5" y="-483" font-family="Helvetica" font-size="10.00">HotSpotMethod&lt;Sieve.sieve(boolean[], int)&gt;</text>
</g>
<!-- b0&#45;&gt;b2 -->
<g id="edge2" class="edge">
<title>b0&#45;&gt;b2</title>
<path fill="none" stroke="black" d="M209.08,-546.97C240.44,-540.3 275.05,-532.94 307.03,-526.14"/>
<polygon fill="black" stroke="black" points="307.81,-529.55 316.86,-524.04 306.35,-522.7 307.81,-529.55"/>
</g>
<!-- b24 -->
<g id="node25" class="node">
<title>b24</title>
<polygon fill="white" stroke="black" points="1821.5,-645 1612.5,-645 1612.5,-593 1821.5,-593 1821.5,-645"/>
<text text-anchor="middle" x="1717" y="-633" font-family="Helvetica" font-size="10.00">B24</text>
<text text-anchor="middle" x="1717" y="-622" font-family="Helvetica" font-size="10.00">Loop: &lt;none&gt;</text>
<text text-anchor="middle" x="1717" y="-611" font-family="Helvetica" font-size="10.00">&#45;&#45;&#45;</text>
<text text-anchor="middle" x="1717" y="-600" font-family="Helvetica" font-size="10.00">HotSpotMethod&lt;Sieve.sieve(boolean[], int)&gt;</text>
</g>
<!-- b1&#45;&gt;b24 -->
<g id="edge3" class="edge">
<title>b1&#45;&gt;b24</title>
<path fill="none" stroke="black" d="M843.1,-742.29C986.45,-735.92 1252.97,-719.66 1477,-681 1524.72,-672.77 1576.85,-659.73 1620.22,-647.73"/>
<polygon fill="black" stroke="black" points="1621.22,-651.08 1629.91,-645.03 1619.33,-644.34 1621.22,-651.08"/>
</g>
<!-- b4 -->
<g id="node5" class="node">
<title>b4</title>
<polygon fill="white" stroke="black" points="843,-528 634,-528 634,-476 843,-476 843,-528"/>
<text text-anchor="middle" x="738.5" y="-516" font-family="Helvetica" font-size="10.00">B4</text>
<text text-anchor="middle" x="738.5" y="-505" font-family="Helvetica" font-size="10.00">Loop: &lt;none&gt;</text>
<text text-anchor="middle" x="738.5" y="-494" font-family="Helvetica" font-size="10.00">&#45;&#45;&#45;</text>
<text text-anchor="middle" x="738.5" y="-483" font-family="Helvetica" font-size="10.00">HotSpotMethod&lt;Sieve.sieve(boolean[], int)&gt;</text>
</g>
<!-- b2&#45;&gt;b4 -->
<g id="edge5" class="edge">
<title>b2&#45;&gt;b4</title>
<path fill="none" stroke="black" d="M526.08,-502C557.31,-502 591.75,-502 623.61,-502"/>
<polygon fill="black" stroke="black" points="623.86,-505.5 633.86,-502 623.86,-498.5 623.86,-505.5"/>
</g>
<!-- b8 -->
<g id="node9" class="node">
<title>b8</title>
<polygon fill="white" stroke="black" points="1477,-318 1268,-318 1268,-266 1477,-266 1477,-318"/>
<text text-anchor="middle" x="1372.5" y="-306" font-family="Helvetica" font-size="10.00">B8</text>
<text text-anchor="middle" x="1372.5" y="-295" font-family="Helvetica" font-size="10.00">Loop: &lt;none&gt;</text>
<text text-anchor="middle" x="1372.5" y="-284" font-family="Helvetica" font-size="10.00">&#45;&#45;&#45;</text>
<text text-anchor="middle" x="1372.5" y="-273" font-family="Helvetica" font-size="10.00">HotSpotMethod&lt;Sieve.sieve(boolean[], int)&gt;</text>
</g>
<!-- b2&#45;&gt;b8 -->
<g id="edge4" class="edge">
<title>b2&#45;&gt;b8</title>
<path fill="none" stroke="black" d="M472.1,-475.95C563.69,-429.45 766.82,-333.67 951,-298 1053.28,-278.19 1172.19,-278.6 1257.41,-282.84"/>
<polygon fill="black" stroke="black" points="1257.47,-286.35 1267.64,-283.38 1257.83,-279.36 1257.47,-286.35"/>
</g>
<!-- b3 -->
<g id="node4" class="node">
<title>b3</title>
<polygon fill="white" stroke="black" points="1160,-116 951,-116 951,-64 1160,-64 1160,-116"/>
<text text-anchor="middle" x="1055.5" y="-104" font-family="Helvetica" font-size="10.00">B3</text>
<text text-anchor="middle" x="1055.5" y="-93" font-family="Helvetica" font-size="10.00">Loop: &lt;none&gt;</text>
<text text-anchor="middle" x="1055.5" y="-82" font-family="Helvetica" font-size="10.00">&#45;&#45;&#45;</text>
<text text-anchor="middle" x="1055.5" y="-71" font-family="Helvetica" font-size="10.00">HotSpotMethod&lt;Sieve.sieve(boolean[], int)&gt;</text>
</g>
<!-- b3&#45;&gt;b8 -->
<g id="edge6" class="edge">
<title>b3&#45;&gt;b8</title>
<path fill="none" stroke="black" d="M1097.36,-116.2C1155.07,-153.21 1260.32,-220.71 1322.27,-260.43"/>
<polygon fill="black" stroke="black" points="1320.41,-263.39 1330.71,-265.85 1324.19,-257.5 1320.41,-263.39"/>
</g>
<!-- b5 -->
<g id="node6" class="node">
<title>b5</title>
<polygon fill="white" stroke="black" points="1160,-510 951,-510 951,-458 1160,-458 1160,-510"/>
<text text-anchor="middle" x="1055.5" y="-498" font-family="Helvetica" font-size="10.00">B5</text>
<text text-anchor="middle" x="1055.5" y="-487" font-family="Helvetica" font-size="10.00">Loop: &lt;none&gt;</text>
<text text-anchor="middle" x="1055.5" y="-476" font-family="Helvetica" font-size="10.00">&#45;&#45;&#45;</text>
<text text-anchor="middle" x="1055.5" y="-465" font-family="Helvetica" font-size="10.00">HotSpotMethod&lt;Sieve.sieve(boolean[], int)&gt;</text>
</g>
<!-- b4&#45;&gt;b5 -->
<g id="edge7" class="edge">
<title>b4&#45;&gt;b5</title>
<path fill="none" stroke="black" d="M843.08,-496.08C874.31,-494.3 908.75,-492.33 940.61,-490.51"/>
<polygon fill="black" stroke="black" points="941.07,-493.99 950.86,-489.92 940.68,-487 941.07,-493.99"/>
</g>
<!-- b23 -->
<g id="node24" class="node">
<title>b23</title>
<polygon fill="white" stroke="black" points="1477,-645 1268,-645 1268,-593 1477,-593 1477,-645"/>
<text text-anchor="middle" x="1372.5" y="-633" font-family="Helvetica" font-size="10.00">B23</text>
<text text-anchor="middle" x="1372.5" y="-622" font-family="Helvetica" font-size="10.00">Loop: &lt;none&gt;</text>
<text text-anchor="middle" x="1372.5" y="-611" font-family="Helvetica" font-size="10.00">&#45;&#45;&#45;</text>
<text text-anchor="middle" x="1372.5" y="-600" font-family="Helvetica" font-size="10.00">HotSpotMethod&lt;Sieve.sieve(boolean[], int)&gt;</text>
</g>
<!-- b4&#45;&gt;b23 -->
<g id="edge8" class="edge">
<title>b4&#45;&gt;b23</title>
<path fill="none" stroke="black" d="M843.17,-524.28C877.45,-531.46 915.82,-539.29 951,-546 1054.62,-565.77 1173.03,-586.12 1257.74,-600.3"/>
<polygon fill="black" stroke="black" points="1257.2,-603.76 1267.64,-601.96 1258.35,-596.86 1257.2,-603.76"/>
</g>
<!-- b6 -->
<g id="node7" class="node">
<title>b6</title>
<polygon fill="white" stroke="black" points="1477,-516 1268,-516 1268,-464 1477,-464 1477,-516"/>
<text text-anchor="middle" x="1372.5" y="-504" font-family="Helvetica" font-size="10.00">B6</text>
<text text-anchor="middle" x="1372.5" y="-493" font-family="Helvetica" font-size="10.00">Loop: &lt;none&gt;</text>
<text text-anchor="middle" x="1372.5" y="-482" font-family="Helvetica" font-size="10.00">&#45;&#45;&#45;</text>
<text text-anchor="middle" x="1372.5" y="-471" font-family="Helvetica" font-size="10.00">HotSpotMethod&lt;Sieve.sieve(boolean[], int)&gt;</text>
</g>
<!-- b5&#45;&gt;b6 -->
<g id="edge9" class="edge">
<title>b5&#45;&gt;b6</title>
<path fill="none" stroke="black" d="M1160.08,-485.97C1191.31,-486.57 1225.75,-487.22 1257.61,-487.83"/>
<polygon fill="black" stroke="black" points="1257.79,-491.33 1267.86,-488.03 1257.93,-484.34 1257.79,-491.33"/>
</g>
<!-- b5&#45;&gt;b8 -->
<g id="edge10" class="edge">
<title>b5&#45;&gt;b8</title>
<path fill="none" stroke="black" d="M1100.38,-457.86C1118.82,-446.84 1140.48,-433.84 1160,-422 1215.16,-388.53 1278.12,-349.76 1320.91,-323.32"/>
<polygon fill="black" stroke="black" points="1322.79,-326.27 1329.45,-318.04 1319.11,-320.32 1322.79,-326.27"/>
</g>
<!-- b6&#45;&gt;b24 -->
<g id="edge11" class="edge">
<title>b6&#45;&gt;b24</title>
<path fill="none" stroke="black" d="M1442.81,-516.11C1499.1,-537.31 1578.49,-567.21 1637.19,-589.32"/>
<polygon fill="black" stroke="black" points="1636.2,-592.68 1646.79,-592.93 1638.67,-586.13 1636.2,-592.68"/>
</g>
<!-- b7 -->
<g id="node8" class="node">
<title>b7</title>
<polygon fill="white" stroke="black" points="1160,-386 951,-386 951,-334 1160,-334 1160,-386"/>
<text text-anchor="middle" x="1055.5" y="-374" font-family="Helvetica" font-size="10.00">B7</text>
<text text-anchor="middle" x="1055.5" y="-363" font-family="Helvetica" font-size="10.00">Loop: &lt;none&gt;</text>
<text text-anchor="middle" x="1055.5" y="-352" font-family="Helvetica" font-size="10.00">&#45;&#45;&#45;</text>
<text text-anchor="middle" x="1055.5" y="-341" font-family="Helvetica" font-size="10.00">HotSpotMethod&lt;Sieve.sieve(boolean[], int)&gt;</text>
</g>
<!-- b7&#45;&gt;b8 -->
<g id="edge12" class="edge">
<title>b7&#45;&gt;b8</title>
<path fill="none" stroke="black" d="M1160.08,-337.64C1191.44,-330.87 1226.05,-323.4 1258.03,-316.5"/>
<polygon fill="black" stroke="black" points="1258.82,-319.9 1267.86,-314.37 1257.35,-313.06 1258.82,-319.9"/>
</g>
<!-- b9 -->
<g id="node10" class="node">
<title>b9</title>
<polygon fill="lightblue" stroke="black" points="1849,-318 1585,-318 1585,-266 1849,-266 1849,-318"/>
<text text-anchor="middle" x="1717" y="-306" font-family="Helvetica" font-size="10.00">B9</text>
<text text-anchor="middle" x="1717" y="-295" font-family="Helvetica" font-size="10.00">Loop: L0</text>
<text text-anchor="middle" x="1717" y="-284" font-family="Helvetica" font-size="10.00">&#45;&#45;&#45;</text>
<text text-anchor="middle" x="1717" y="-273" font-family="Helvetica" font-size="10.00">HotSpotMethod&lt;BuboAgentCompilerMarkers.Marker0()&gt;</text>
</g>
<!-- b8&#45;&gt;b9 -->
<g id="edge13" class="edge">
<title>b8&#45;&gt;b9</title>
<path fill="none" stroke="black" d="M1477.19,-292C1507.88,-292 1542.02,-292 1574.66,-292"/>
<polygon fill="black" stroke="black" points="1574.74,-295.5 1584.74,-292 1574.74,-288.5 1574.74,-295.5"/>
</g>
<!-- b10 -->
<g id="node11" class="node">
<title>b10</title>
<polygon fill="lightblue" stroke="black" points="2221,-577 1957,-577 1957,-525 2221,-525 2221,-577"/>
<text text-anchor="middle" x="2089" y="-565" font-family="Helvetica" font-size="10.00">B10</text>
<text text-anchor="middle" x="2089" y="-554" font-family="Helvetica" font-size="10.00">Loop: L0</text>
<text text-anchor="middle" x="2089" y="-543" font-family="Helvetica" font-size="10.00">&#45;&#45;&#45;</text>
<text text-anchor="middle" x="2089" y="-532" font-family="Helvetica" font-size="10.00">HotSpotMethod&lt;BuboAgentCompilerMarkers.Marker0()&gt;</text>
</g>
<!-- b9&#45;&gt;b10 -->
<g id="edge15" class="edge">
<title>b9&#45;&gt;b10</title>
<path fill="none" stroke="black" d="M1744.95,-318.05C1787.49,-358.25 1873.93,-436.26 1957,-489 1975.25,-500.58 1996,-511.38 2015.52,-520.6"/>
<polygon fill="black" stroke="black" points="2014.14,-523.82 2024.68,-524.86 2017.09,-517.47 2014.14,-523.82"/>
</g>
<!-- b20 -->
<g id="node21" class="node">
<title>b20</title>
<polygon fill="white" stroke="black" points="2193.5,-453 1984.5,-453 1984.5,-401 2193.5,-401 2193.5,-453"/>
<text text-anchor="middle" x="2089" y="-441" font-family="Helvetica" font-size="10.00">B20</text>
<text text-anchor="middle" x="2089" y="-430" font-family="Helvetica" font-size="10.00">Loop: &lt;none&gt;</text>
<text text-anchor="middle" x="2089" y="-419" font-family="Helvetica" font-size="10.00">&#45;&#45;&#45;</text>
<text text-anchor="middle" x="2089" y="-408" font-family="Helvetica" font-size="10.00">HotSpotMethod&lt;Sieve.sieve(boolean[], int)&gt;</text>
</g>
<!-- b9&#45;&gt;b20 -->
<g id="edge14" class="edge">
<title>b9&#45;&gt;b20</title>
<path fill="none" stroke="black" d="M1789.34,-318.03C1851.69,-340.78 1942.15,-373.79 2007.16,-397.51"/>
<polygon fill="black" stroke="black" points="2005.97,-400.8 2016.56,-400.94 2008.37,-394.22 2005.97,-400.8"/>
</g>
<!-- b11 -->
<g id="node12" class="node">
<title>b11</title>
<polygon fill="lightblue" stroke="black" points="2593,-318 2329,-318 2329,-266 2593,-266 2593,-318"/>
<text text-anchor="middle" x="2461" y="-306" font-family="Helvetica" font-size="10.00">B11</text>
<text text-anchor="middle" x="2461" y="-295" font-family="Helvetica" font-size="10.00">Loop: L0</text>
<text text-anchor="middle" x="2461" y="-284" font-family="Helvetica" font-size="10.00">&#45;&#45;&#45;</text>
<text text-anchor="middle" x="2461" y="-273" font-family="Helvetica" font-size="10.00">HotSpotMethod&lt;BuboAgentCompilerMarkers.Marker0()&gt;</text>
</g>
<!-- b10&#45;&gt;b11 -->
<g id="edge16" class="edge">
<title>b10&#45;&gt;b11</title>
<path fill="none" stroke="black" d="M2160.05,-524.94C2180.82,-515.4 2202.84,-503.36 2221,-489 2281.27,-441.34 2268.73,-401.66 2329,-354 2344.46,-341.77 2362.73,-331.22 2380.64,-322.47"/>
<polygon fill="black" stroke="black" points="2382.41,-325.5 2389.95,-318.06 2379.42,-319.18 2382.41,-325.5"/>
</g>
<!-- b12 -->
<g id="node13" class="node">
<title>b12</title>
<polygon fill="lightblue" stroke="black" points="2593,-442 2329,-442 2329,-390 2593,-390 2593,-442"/>
<text text-anchor="middle" x="2461" y="-430" font-family="Helvetica" font-size="10.00">B12</text>
<text text-anchor="middle" x="2461" y="-419" font-family="Helvetica" font-size="10.00">Loop: L0</text>
<text text-anchor="middle" x="2461" y="-408" font-family="Helvetica" font-size="10.00">&#45;&#45;&#45;</text>
<text text-anchor="middle" x="2461" y="-397" font-family="Helvetica" font-size="10.00">HotSpotMethod&lt;BuboAgentCompilerMarkers.Marker0()&gt;</text>
</g>
<!-- b10&#45;&gt;b12 -->
<g id="edge17" class="edge">
<title>b10&#45;&gt;b12</title>
<path fill="none" stroke="black" d="M2161.34,-524.97C2223.69,-502.22 2314.15,-469.21 2379.16,-445.49"/>
<polygon fill="black" stroke="black" points="2380.37,-448.78 2388.56,-442.06 2377.97,-442.2 2380.37,-448.78"/>
</g>
<!-- b11&#45;&gt;b9 -->
<g id="edge18" class="edge">
<title>b11&#45;&gt;b9</title>
<path fill="none" stroke="black" d="M2328.96,-292C2197.2,-292 1994.73,-292 1859.4,-292"/>
<polygon fill="black" stroke="black" points="1859.37,-288.5 1849.37,-292 1859.37,-295.5 1859.37,-288.5"/>
</g>
<!-- b13 -->
<g id="node14" class="node">
<title>b13</title>
<polygon fill="lightblue" stroke="black" points="2965,-208 2701,-208 2701,-156 2965,-156 2965,-208"/>
<text text-anchor="middle" x="2833" y="-196" font-family="Helvetica" font-size="10.00">B13</text>
<text text-anchor="middle" x="2833" y="-185" font-family="Helvetica" font-size="10.00">Loop: L0</text>
<text text-anchor="middle" x="2833" y="-174" font-family="Helvetica" font-size="10.00">&#45;&#45;&#45;</text>
<text text-anchor="middle" x="2833" y="-163" font-family="Helvetica" font-size="10.00">HotSpotMethod&lt;BuboAgentCompilerMarkers.Marker0()&gt;</text>
</g>
<!-- b12&#45;&gt;b13 -->
<g id="edge19" class="edge">
<title>b12&#45;&gt;b13</title>
<path fill="none" stroke="black" d="M2522.85,-389.99C2545.36,-379.65 2570.79,-367.1 2593,-354 2666.31,-310.76 2745.36,-251 2791.67,-214.51"/>
<polygon fill="black" stroke="black" points="2793.98,-217.15 2799.65,-208.2 2789.64,-211.66 2793.98,-217.15"/>
</g>
<!-- b14 -->
<g id="node15" class="node">
<title>b14</title>
<polygon fill="lightblue" stroke="black" points="2965,-405 2701,-405 2701,-353 2965,-353 2965,-405"/>
<text text-anchor="middle" x="2833" y="-393" font-family="Helvetica" font-size="10.00">B14</text>
<text text-anchor="middle" x="2833" y="-382" font-family="Helvetica" font-size="10.00">Loop: L0</text>
<text text-anchor="middle" x="2833" y="-371" font-family="Helvetica" font-size="10.00">&#45;&#45;&#45;</text>
<text text-anchor="middle" x="2833" y="-360" font-family="Helvetica" font-size="10.00">HotSpotMethod&lt;BuboAgentCompilerMarkers.Marker0()&gt;</text>
</g>
<!-- b12&#45;&gt;b14 -->
<g id="edge20" class="edge">
<title>b12&#45;&gt;b14</title>
<path fill="none" stroke="black" d="M2593.23,-402.88C2624.73,-399.73 2658.51,-396.35 2690.46,-393.15"/>
<polygon fill="black" stroke="black" points="2691.16,-396.6 2700.76,-392.12 2690.46,-389.64 2691.16,-396.6"/>
</g>
<!-- b13&#45;&gt;b9 -->
<g id="edge21" class="edge">
<title>b13&#45;&gt;b9</title>
<path fill="none" stroke="black" d="M2700.92,-194.29C2599.4,-203.86 2455.26,-217.57 2329,-230 2168,-245.85 1983.2,-264.69 1859.38,-277.41"/>
<polygon fill="black" stroke="black" points="1858.67,-273.97 1849.08,-278.47 1859.39,-280.93 1858.67,-273.97"/>
</g>
<!-- b15 -->
<g id="node16" class="node">
<title>b15</title>
<polygon fill="lightblue" stroke="black" points="3337,-280 3073,-280 3073,-228 3337,-228 3337,-280"/>
<text text-anchor="middle" x="3205" y="-268" font-family="Helvetica" font-size="10.00">B15</text>
<text text-anchor="middle" x="3205" y="-257" font-family="Helvetica" font-size="10.00">Loop: L0</text>
<text text-anchor="middle" x="3205" y="-246" font-family="Helvetica" font-size="10.00">&#45;&#45;&#45;</text>
<text text-anchor="middle" x="3205" y="-235" font-family="Helvetica" font-size="10.00">HotSpotMethod&lt;BuboAgentCompilerMarkers.Marker0()&gt;</text>
</g>
<!-- b14&#45;&gt;b15 -->
<g id="edge22" class="edge">
<title>b14&#45;&gt;b15</title>
<path fill="none" stroke="black" d="M2911.11,-352.95C2971.22,-332.64 3054.69,-304.44 3117.15,-283.34"/>
<polygon fill="black" stroke="black" points="3118.63,-286.54 3126.99,-280.02 3116.39,-279.9 3118.63,-286.54"/>
</g>
<!-- b22 -->
<g id="node23" class="node">
<title>b22</title>
<polygon fill="white" stroke="black" points="3309.5,-405 3100.5,-405 3100.5,-353 3309.5,-353 3309.5,-405"/>
<text text-anchor="middle" x="3205" y="-393" font-family="Helvetica" font-size="10.00">B22</text>
<text text-anchor="middle" x="3205" y="-382" font-family="Helvetica" font-size="10.00">Loop: &lt;none&gt;</text>
<text text-anchor="middle" x="3205" y="-371" font-family="Helvetica" font-size="10.00">&#45;&#45;&#45;</text>
<text text-anchor="middle" x="3205" y="-360" font-family="Helvetica" font-size="10.00">HotSpotMethod&lt;Sieve.sieve(boolean[], int)&gt;</text>
</g>
<!-- b14&#45;&gt;b22 -->
<g id="edge23" class="edge">
<title>b14&#45;&gt;b22</title>
<path fill="none" stroke="black" d="M2965.23,-379C3006.04,-379 3050.68,-379 3090.2,-379"/>
<polygon fill="black" stroke="black" points="3090.4,-382.5 3100.4,-379 3090.4,-375.5 3090.4,-382.5"/>
</g>
<!-- b16 -->
<g id="node17" class="node">
<title>b16</title>
<polygon fill="lightgreen" stroke="black" points="3709,-279 3445,-279 3445,-227 3709,-227 3709,-279"/>
<text text-anchor="middle" x="3577" y="-267" font-family="Helvetica" font-size="10.00">B16</text>
<text text-anchor="middle" x="3577" y="-256" font-family="Helvetica" font-size="10.00">Loop: L1</text>
<text text-anchor="middle" x="3577" y="-245" font-family="Helvetica" font-size="10.00">&#45;&#45;&#45;</text>
<text text-anchor="middle" x="3577" y="-234" font-family="Helvetica" font-size="10.00">HotSpotMethod&lt;BuboAgentCompilerMarkers.Marker1()&gt;</text>
</g>
<!-- b15&#45;&gt;b16 -->
<g id="edge24" class="edge">
<title>b15&#45;&gt;b16</title>
<path fill="none" stroke="black" d="M3337.23,-253.65C3368.73,-253.56 3402.51,-253.47 3434.46,-253.38"/>
<polygon fill="black" stroke="black" points="3434.77,-256.88 3444.76,-253.35 3434.75,-249.88 3434.77,-256.88"/>
</g>
<!-- b17 -->
<g id="node18" class="node">
<title>b17</title>
<polygon fill="lightgreen" stroke="black" points="4081,-411 3817,-411 3817,-359 4081,-359 4081,-411"/>
<text text-anchor="middle" x="3949" y="-399" font-family="Helvetica" font-size="10.00">B17</text>
<text text-anchor="middle" x="3949" y="-388" font-family="Helvetica" font-size="10.00">Loop: L1</text>
<text text-anchor="middle" x="3949" y="-377" font-family="Helvetica" font-size="10.00">&#45;&#45;&#45;</text>
<text text-anchor="middle" x="3949" y="-366" font-family="Helvetica" font-size="10.00">HotSpotMethod&lt;BuboAgentCompilerMarkers.Marker1()&gt;</text>
</g>
<!-- b16&#45;&gt;b17 -->
<g id="edge26" class="edge">
<title>b16&#45;&gt;b17</title>
<path fill="none" stroke="black" d="M3651.1,-279.08C3712.8,-301.09 3801.1,-332.59 3865.35,-355.52"/>
<polygon fill="black" stroke="black" points="3864.46,-358.91 3875.05,-358.98 3866.81,-352.32 3864.46,-358.91"/>
</g>
<!-- b19 -->
<g id="node20" class="node">
<title>b19</title>
<polygon fill="lightblue" stroke="black" points="4081,-136 3817,-136 3817,-84 4081,-84 4081,-136"/>
<text text-anchor="middle" x="3949" y="-124" font-family="Helvetica" font-size="10.00">B19</text>
<text text-anchor="middle" x="3949" y="-113" font-family="Helvetica" font-size="10.00">Loop: L0</text>
<text text-anchor="middle" x="3949" y="-102" font-family="Helvetica" font-size="10.00">&#45;&#45;&#45;</text>
<text text-anchor="middle" x="3949" y="-91" font-family="Helvetica" font-size="10.00">HotSpotMethod&lt;BuboAgentCompilerMarkers.Marker0()&gt;</text>
</g>
<!-- b16&#45;&gt;b19 -->
<g id="edge25" class="edge">
<title>b16&#45;&gt;b19</title>
<path fill="none" stroke="black" d="M3645.43,-226.94C3709.11,-202.33 3804.51,-165.46 3871.11,-139.72"/>
<polygon fill="black" stroke="black" points="3872.65,-142.87 3880.72,-136 3870.13,-136.34 3872.65,-142.87"/>
</g>
<!-- b18 -->
<g id="node19" class="node">
<title>b18</title>
<polygon fill="lightgreen" stroke="black" points="4453,-282 4189,-282 4189,-230 4453,-230 4453,-282"/>
<text text-anchor="middle" x="4321" y="-270" font-family="Helvetica" font-size="10.00">B18</text>
<text text-anchor="middle" x="4321" y="-259" font-family="Helvetica" font-size="10.00">Loop: L1</text>
<text text-anchor="middle" x="4321" y="-248" font-family="Helvetica" font-size="10.00">&#45;&#45;&#45;</text>
<text text-anchor="middle" x="4321" y="-237" font-family="Helvetica" font-size="10.00">HotSpotMethod&lt;BuboAgentCompilerMarkers.Marker1()&gt;</text>
</g>
<!-- b17&#45;&gt;b18 -->
<g id="edge27" class="edge">
<title>b17&#45;&gt;b18</title>
<path fill="none" stroke="black" d="M4024.88,-358.89C4085.93,-337.61 4172.16,-307.55 4235.65,-285.41"/>
<polygon fill="black" stroke="black" points="4236.95,-288.66 4245.24,-282.07 4234.64,-282.05 4236.95,-288.66"/>
</g>
<!-- b21 -->
<g id="node22" class="node">
<title>b21</title>
<polygon fill="white" stroke="black" points="4425.5,-411 4216.5,-411 4216.5,-359 4425.5,-359 4425.5,-411"/>
<text text-anchor="middle" x="4321" y="-399" font-family="Helvetica" font-size="10.00">B21</text>
<text text-anchor="middle" x="4321" y="-388" font-family="Helvetica" font-size="10.00">Loop: &lt;none&gt;</text>
<text text-anchor="middle" x="4321" y="-377" font-family="Helvetica" font-size="10.00">&#45;&#45;&#45;</text>
<text text-anchor="middle" x="4321" y="-366" font-family="Helvetica" font-size="10.00">HotSpotMethod&lt;Sieve.sieve(boolean[], int)&gt;</text>
</g>
<!-- b17&#45;&gt;b21 -->
<g id="edge28" class="edge">
<title>b17&#45;&gt;b21</title>
<path fill="none" stroke="black" d="M4081.23,-385C4122.04,-385 4166.68,-385 4206.2,-385"/>
<polygon fill="black" stroke="black" points="4206.4,-388.5 4216.4,-385 4206.4,-381.5 4206.4,-388.5"/>
</g>
<!-- b18&#45;&gt;b16 -->
<g id="edge29" class="edge">
<title>b18&#45;&gt;b16</title>
<path fill="none" stroke="black" d="M4188.96,-255.47C4057.2,-254.94 3854.73,-254.12 3719.4,-253.57"/>
<polygon fill="black" stroke="black" points="3719.39,-250.07 3709.37,-253.53 3719.36,-257.07 3719.39,-250.07"/>
</g>
<!-- b19&#45;&gt;b9 -->
<g id="edge30" class="edge">
<title>b19&#45;&gt;b9</title>
<path fill="none" stroke="black" d="M3840.6,-83.93C3696.95,-51.4 3433.9,0 3206,0 2460,0 2460,0 2460,0 2178.35,0 1875.73,-184.42 1763.36,-260.14"/>
<polygon fill="black" stroke="black" points="1761.28,-257.32 1754.97,-265.83 1765.21,-263.11 1761.28,-257.32"/>
</g>
<!-- b23&#45;&gt;b24 -->
<g id="edge31" class="edge">
<title>b23&#45;&gt;b24</title>
<path fill="none" stroke="black" d="M1477.19,-619C1516.67,-619 1561.85,-619 1602.21,-619"/>
<polygon fill="black" stroke="black" points="1602.37,-622.5 1612.37,-619 1602.37,-615.5 1602.37,-622.5"/>
</g>
</g>
</svg>
