<?xml version="1.0" encoding="UTF-8" standalone="no"?>
<!DOCTYPE svg PUBLIC "-//W3C//DTD SVG 1.1//EN"
 "http://www.w3.org/Graphics/SVG/1.1/DTD/svg11.dtd">
<!-- Generated by graphviz version 2.44.0 (0)
 -->
<!-- Title: CFG_116 Pages: 1 -->
<svg width="6448pt" height="1170pt"
 viewBox="0.00 0.00 6448.00 1170.00" xmlns="http://www.w3.org/2000/svg" xmlns:xlink="http://www.w3.org/1999/xlink">
<g id="graph0" class="graph" transform="scale(1 1) rotate(0) translate(4 1166)">
<title>CFG_116</title>
<polygon fill="white" stroke="transparent" points="-4,4 -4,-1166 6444,-1166 6444,4 -4,4"/>
<text text-anchor="middle" x="219.5" y="-1142" font-family="Times-Roman" font-size="20.00">170&#45;java.util.Arrays.fill(boolean[], boolean)</text>
<!-- b0 -->
<g id="node1" class="node">
<title>b0</title>
<polygon fill="white" stroke="black" points="224,-181 0,-181 0,-129 224,-129 224,-181"/>
<text text-anchor="middle" x="112" y="-169" font-family="Helvetica" font-size="10.00">B0</text>
<text text-anchor="middle" x="112" y="-158" font-family="Helvetica" font-size="10.00">Loop: &lt;none&gt;</text>
<text text-anchor="middle" x="112" y="-147" font-family="Helvetica" font-size="10.00">&#45;&#45;&#45;</text>
<text text-anchor="middle" x="112" y="-136" font-family="Helvetica" font-size="10.00">HotSpotMethod&lt;Arrays.fill(boolean[], boolean)&gt;</text>
</g>
<!-- b1 -->
<g id="node2" class="node">
<title>b1</title>
<polygon fill="white" stroke="black" points="556,-243 332,-243 332,-191 556,-191 556,-243"/>
<text text-anchor="middle" x="444" y="-231" font-family="Helvetica" font-size="10.00">B1</text>
<text text-anchor="middle" x="444" y="-220" font-family="Helvetica" font-size="10.00">Loop: &lt;none&gt;</text>
<text text-anchor="middle" x="444" y="-209" font-family="Helvetica" font-size="10.00">&#45;&#45;&#45;</text>
<text text-anchor="middle" x="444" y="-198" font-family="Helvetica" font-size="10.00">HotSpotMethod&lt;Arrays.fill(boolean[], boolean)&gt;</text>
</g>
<!-- b0&#45;&gt;b1 -->
<g id="edge1" class="edge">
<title>b0&#45;&gt;b1</title>
<path fill="none" stroke="black" d="M224.26,-175.9C255.72,-181.81 290.1,-188.27 322.09,-194.28"/>
<polygon fill="black" stroke="black" points="321.47,-197.73 331.94,-196.13 322.76,-190.85 321.47,-197.73"/>
</g>
<!-- b2 -->
<g id="node3" class="node">
<title>b2</title>
<polygon fill="white" stroke="black" points="556,-119 332,-119 332,-67 556,-67 556,-119"/>
<text text-anchor="middle" x="444" y="-107" font-family="Helvetica" font-size="10.00">B2</text>
<text text-anchor="middle" x="444" y="-96" font-family="Helvetica" font-size="10.00">Loop: &lt;none&gt;</text>
<text text-anchor="middle" x="444" y="-85" font-family="Helvetica" font-size="10.00">&#45;&#45;&#45;</text>
<text text-anchor="middle" x="444" y="-74" font-family="Helvetica" font-size="10.00">HotSpotMethod&lt;Arrays.fill(boolean[], boolean)&gt;</text>
</g>
<!-- b0&#45;&gt;b2 -->
<g id="edge2" class="edge">
<title>b0&#45;&gt;b2</title>
<path fill="none" stroke="black" d="M224.26,-134.1C255.72,-128.19 290.1,-121.73 322.09,-115.72"/>
<polygon fill="black" stroke="black" points="322.76,-119.15 331.94,-113.87 321.47,-112.27 322.76,-119.15"/>
</g>
<!-- b3 -->
<g id="node4" class="node">
<title>b3</title>
<polygon fill="white" stroke="black" points="888,-181 664,-181 664,-129 888,-129 888,-181"/>
<text text-anchor="middle" x="776" y="-169" font-family="Helvetica" font-size="10.00">B3</text>
<text text-anchor="middle" x="776" y="-158" font-family="Helvetica" font-size="10.00">Loop: &lt;none&gt;</text>
<text text-anchor="middle" x="776" y="-147" font-family="Helvetica" font-size="10.00">&#45;&#45;&#45;</text>
<text text-anchor="middle" x="776" y="-136" font-family="Helvetica" font-size="10.00">HotSpotMethod&lt;Arrays.fill(boolean[], boolean)&gt;</text>
</g>
<!-- b1&#45;&gt;b3 -->
<g id="edge3" class="edge">
<title>b1&#45;&gt;b3</title>
<path fill="none" stroke="black" d="M556.26,-196.1C587.72,-190.19 622.1,-183.73 654.09,-177.72"/>
<polygon fill="black" stroke="black" points="654.76,-181.15 663.94,-175.87 653.47,-174.27 654.76,-181.15"/>
</g>
<!-- b2&#45;&gt;b3 -->
<g id="edge4" class="edge">
<title>b2&#45;&gt;b3</title>
<path fill="none" stroke="black" d="M556.26,-113.9C587.72,-119.81 622.1,-126.27 654.09,-132.28"/>
<polygon fill="black" stroke="black" points="653.47,-135.73 663.94,-134.13 654.76,-128.85 653.47,-135.73"/>
</g>
<!-- b5 -->
<g id="node6" class="node">
<title>b5</title>
<polygon fill="white" stroke="black" points="1220,-52 996,-52 996,0 1220,0 1220,-52"/>
<text text-anchor="middle" x="1108" y="-40" font-family="Helvetica" font-size="10.00">B5</text>
<text text-anchor="middle" x="1108" y="-29" font-family="Helvetica" font-size="10.00">Loop: &lt;none&gt;</text>
<text text-anchor="middle" x="1108" y="-18" font-family="Helvetica" font-size="10.00">&#45;&#45;&#45;</text>
<text text-anchor="middle" x="1108" y="-7" font-family="Helvetica" font-size="10.00">HotSpotMethod&lt;Arrays.fill(boolean[], boolean)&gt;</text>
</g>
<!-- b3&#45;&gt;b5 -->
<g id="edge6" class="edge">
<title>b3&#45;&gt;b5</title>
<path fill="none" stroke="black" d="M843.78,-128.89C897.9,-107.74 974.19,-77.92 1030.72,-55.82"/>
<polygon fill="black" stroke="black" points="1032.28,-58.97 1040.32,-52.07 1029.73,-52.45 1032.28,-58.97"/>
</g>
<!-- b7 -->
<g id="node8" class="node">
<title>b7</title>
<polygon fill="white" stroke="black" points="1552,-311 1328,-311 1328,-259 1552,-259 1552,-311"/>
<text text-anchor="middle" x="1440" y="-299" font-family="Helvetica" font-size="10.00">B7</text>
<text text-anchor="middle" x="1440" y="-288" font-family="Helvetica" font-size="10.00">Loop: &lt;none&gt;</text>
<text text-anchor="middle" x="1440" y="-277" font-family="Helvetica" font-size="10.00">&#45;&#45;&#45;</text>
<text text-anchor="middle" x="1440" y="-266" font-family="Helvetica" font-size="10.00">HotSpotMethod&lt;Arrays.fill(boolean[], boolean)&gt;</text>
</g>
<!-- b3&#45;&gt;b7 -->
<g id="edge5" class="edge">
<title>b3&#45;&gt;b7</title>
<path fill="none" stroke="black" d="M869.26,-181.01C908.19,-191.46 954.11,-203.12 996,-212 1104.22,-234.95 1228.61,-254.89 1317.98,-268.1"/>
<polygon fill="black" stroke="black" points="1317.47,-271.57 1327.88,-269.56 1318.49,-264.64 1317.47,-271.57"/>
</g>
<!-- b4 -->
<g id="node5" class="node">
<title>b4</title>
<polygon fill="white" stroke="black" points="1220,-176 996,-176 996,-124 1220,-124 1220,-176"/>
<text text-anchor="middle" x="1108" y="-164" font-family="Helvetica" font-size="10.00">B4</text>
<text text-anchor="middle" x="1108" y="-153" font-family="Helvetica" font-size="10.00">Loop: &lt;none&gt;</text>
<text text-anchor="middle" x="1108" y="-142" font-family="Helvetica" font-size="10.00">&#45;&#45;&#45;</text>
<text text-anchor="middle" x="1108" y="-131" font-family="Helvetica" font-size="10.00">HotSpotMethod&lt;Arrays.fill(boolean[], boolean)&gt;</text>
</g>
<!-- b4&#45;&gt;b7 -->
<g id="edge7" class="edge">
<title>b4&#45;&gt;b7</title>
<path fill="none" stroke="black" d="M1172.63,-176.03C1227.89,-198.64 1307.93,-231.38 1365.83,-255.07"/>
<polygon fill="black" stroke="black" points="1364.71,-258.39 1375.29,-258.94 1367.36,-251.91 1364.71,-258.39"/>
</g>
<!-- b5&#45;&gt;b7 -->
<g id="edge8" class="edge">
<title>b5&#45;&gt;b7</title>
<path fill="none" stroke="black" d="M1161.3,-52.09C1180.35,-62.4 1201.69,-74.9 1220,-88 1291.41,-139.09 1365.54,-210.26 1406.62,-251.6"/>
<polygon fill="black" stroke="black" points="1404.14,-254.06 1413.66,-258.71 1409.11,-249.14 1404.14,-254.06"/>
</g>
<!-- b34 -->
<g id="node35" class="node">
<title>b34</title>
<polygon fill="white" stroke="black" points="1884,-52 1660,-52 1660,0 1884,0 1884,-52"/>
<text text-anchor="middle" x="1772" y="-40" font-family="Helvetica" font-size="10.00">B34</text>
<text text-anchor="middle" x="1772" y="-29" font-family="Helvetica" font-size="10.00">Loop: &lt;none&gt;</text>
<text text-anchor="middle" x="1772" y="-18" font-family="Helvetica" font-size="10.00">&#45;&#45;&#45;</text>
<text text-anchor="middle" x="1772" y="-7" font-family="Helvetica" font-size="10.00">HotSpotMethod&lt;Arrays.fill(boolean[], boolean)&gt;</text>
</g>
<!-- b5&#45;&gt;b34 -->
<g id="edge9" class="edge">
<title>b5&#45;&gt;b34</title>
<path fill="none" stroke="black" d="M1220.18,-26C1339.1,-26 1527.13,-26 1649.78,-26"/>
<polygon fill="black" stroke="black" points="1649.97,-29.5 1659.97,-26 1649.97,-22.5 1649.97,-29.5"/>
</g>
<!-- b6 -->
<g id="node7" class="node">
<title>b6</title>
<polygon fill="white" stroke="black" points="1220,-446 996,-446 996,-394 1220,-394 1220,-446"/>
<text text-anchor="middle" x="1108" y="-434" font-family="Helvetica" font-size="10.00">B6</text>
<text text-anchor="middle" x="1108" y="-423" font-family="Helvetica" font-size="10.00">Loop: &lt;none&gt;</text>
<text text-anchor="middle" x="1108" y="-412" font-family="Helvetica" font-size="10.00">&#45;&#45;&#45;</text>
<text text-anchor="middle" x="1108" y="-401" font-family="Helvetica" font-size="10.00">HotSpotMethod&lt;Arrays.fill(boolean[], boolean)&gt;</text>
</g>
<!-- b6&#45;&gt;b7 -->
<g id="edge10" class="edge">
<title>b6&#45;&gt;b7</title>
<path fill="none" stroke="black" d="M1172.63,-393.97C1227.89,-371.36 1307.93,-338.62 1365.83,-314.93"/>
<polygon fill="black" stroke="black" points="1367.36,-318.09 1375.29,-311.06 1364.71,-311.61 1367.36,-318.09"/>
</g>
<!-- b8 -->
<g id="node9" class="node">
<title>b8</title>
<polygon fill="white" stroke="black" points="1884,-311 1660,-311 1660,-259 1884,-259 1884,-311"/>
<text text-anchor="middle" x="1772" y="-299" font-family="Helvetica" font-size="10.00">B8</text>
<text text-anchor="middle" x="1772" y="-288" font-family="Helvetica" font-size="10.00">Loop: &lt;none&gt;</text>
<text text-anchor="middle" x="1772" y="-277" font-family="Helvetica" font-size="10.00">&#45;&#45;&#45;</text>
<text text-anchor="middle" x="1772" y="-266" font-family="Helvetica" font-size="10.00">HotSpotMethod&lt;Arrays.fill(boolean[], boolean)&gt;</text>
</g>
<!-- b7&#45;&gt;b8 -->
<g id="edge11" class="edge">
<title>b7&#45;&gt;b8</title>
<path fill="none" stroke="black" d="M1552.26,-285C1583.58,-285 1617.8,-285 1649.68,-285"/>
<polygon fill="black" stroke="black" points="1649.94,-288.5 1659.94,-285 1649.94,-281.5 1649.94,-288.5"/>
</g>
<!-- b33 -->
<g id="node34" class="node">
<title>b33</title>
<polygon fill="white" stroke="black" points="6440,-592 6216,-592 6216,-540 6440,-540 6440,-592"/>
<text text-anchor="middle" x="6328" y="-580" font-family="Helvetica" font-size="10.00">B33</text>
<text text-anchor="middle" x="6328" y="-569" font-family="Helvetica" font-size="10.00">Loop: &lt;none&gt;</text>
<text text-anchor="middle" x="6328" y="-558" font-family="Helvetica" font-size="10.00">&#45;&#45;&#45;</text>
<text text-anchor="middle" x="6328" y="-547" font-family="Helvetica" font-size="10.00">HotSpotMethod&lt;Arrays.fill(boolean[], boolean)&gt;</text>
</g>
<!-- b7&#45;&gt;b33 -->
<g id="edge12" class="edge">
<title>b7&#45;&gt;b33</title>
<path fill="none" stroke="black" d="M1450.73,-311.05C1499.4,-436.36 1728.95,-971 2103,-971 2103,-971 2103,-971 5605,-971 5907.91,-971 6201.42,-696.5 6295.7,-599.47"/>
<polygon fill="black" stroke="black" points="6298.24,-601.89 6302.66,-592.26 6293.2,-597.03 6298.24,-601.89"/>
</g>
<!-- b9 -->
<g id="node10" class="node">
<title>b9</title>
<polygon fill="white" stroke="black" points="2216,-311 1992,-311 1992,-259 2216,-259 2216,-311"/>
<text text-anchor="middle" x="2104" y="-299" font-family="Helvetica" font-size="10.00">B9</text>
<text text-anchor="middle" x="2104" y="-288" font-family="Helvetica" font-size="10.00">Loop: &lt;none&gt;</text>
<text text-anchor="middle" x="2104" y="-277" font-family="Helvetica" font-size="10.00">&#45;&#45;&#45;</text>
<text text-anchor="middle" x="2104" y="-266" font-family="Helvetica" font-size="10.00">HotSpotMethod&lt;Arrays.fill(boolean[], boolean)&gt;</text>
</g>
<!-- b8&#45;&gt;b9 -->
<g id="edge13" class="edge">
<title>b8&#45;&gt;b9</title>
<path fill="none" stroke="black" d="M1884.26,-285C1915.58,-285 1949.8,-285 1981.68,-285"/>
<polygon fill="black" stroke="black" points="1981.94,-288.5 1991.94,-285 1981.94,-281.5 1981.94,-288.5"/>
</g>
<!-- b31 -->
<g id="node32" class="node">
<title>b31</title>
<polygon fill="white" stroke="black" points="2216,-187 1992,-187 1992,-135 2216,-135 2216,-187"/>
<text text-anchor="middle" x="2104" y="-175" font-family="Helvetica" font-size="10.00">B31</text>
<text text-anchor="middle" x="2104" y="-164" font-family="Helvetica" font-size="10.00">Loop: &lt;none&gt;</text>
<text text-anchor="middle" x="2104" y="-153" font-family="Helvetica" font-size="10.00">&#45;&#45;&#45;</text>
<text text-anchor="middle" x="2104" y="-142" font-family="Helvetica" font-size="10.00">HotSpotMethod&lt;Arrays.fill(boolean[], boolean)&gt;</text>
</g>
<!-- b8&#45;&gt;b31 -->
<g id="edge14" class="edge">
<title>b8&#45;&gt;b31</title>
<path fill="none" stroke="black" d="M1842.58,-258.85C1895.76,-238.87 1969.09,-211.32 2024.39,-190.54"/>
<polygon fill="black" stroke="black" points="2025.67,-193.8 2033.8,-187 2023.21,-187.24 2025.67,-193.8"/>
</g>
<!-- b10 -->
<g id="node11" class="node">
<title>b10</title>
<polygon fill="white" stroke="black" points="2548,-333 2324,-333 2324,-281 2548,-281 2548,-333"/>
<text text-anchor="middle" x="2436" y="-321" font-family="Helvetica" font-size="10.00">B10</text>
<text text-anchor="middle" x="2436" y="-310" font-family="Helvetica" font-size="10.00">Loop: &lt;none&gt;</text>
<text text-anchor="middle" x="2436" y="-299" font-family="Helvetica" font-size="10.00">&#45;&#45;&#45;</text>
<text text-anchor="middle" x="2436" y="-288" font-family="Helvetica" font-size="10.00">HotSpotMethod&lt;Arrays.fill(boolean[], boolean)&gt;</text>
</g>
<!-- b9&#45;&gt;b10 -->
<g id="edge15" class="edge">
<title>b9&#45;&gt;b10</title>
<path fill="none" stroke="black" d="M2216.26,-292.42C2247.58,-294.51 2281.8,-296.79 2313.68,-298.91"/>
<polygon fill="black" stroke="black" points="2313.73,-302.42 2323.94,-299.6 2314.19,-295.44 2313.73,-302.42"/>
</g>
<!-- b9&#45;&gt;b33 -->
<g id="edge16" class="edge">
<title>b9&#45;&gt;b33</title>
<path fill="none" stroke="black" d="M2188.96,-258.93C2313.74,-222.56 2556.09,-161 2767,-161 2767,-161 2767,-161 5605,-161 5907.91,-161 6201.42,-435.5 6295.7,-532.53"/>
<polygon fill="black" stroke="black" points="6293.2,-534.97 6302.66,-539.74 6298.24,-530.11 6293.2,-534.97"/>
</g>
<!-- b11 -->
<g id="node12" class="node">
<title>b11</title>
<polygon fill="white" stroke="black" points="2880,-716 2656,-716 2656,-664 2880,-664 2880,-716"/>
<text text-anchor="middle" x="2768" y="-704" font-family="Helvetica" font-size="10.00">B11</text>
<text text-anchor="middle" x="2768" y="-693" font-family="Helvetica" font-size="10.00">Loop: &lt;none&gt;</text>
<text text-anchor="middle" x="2768" y="-682" font-family="Helvetica" font-size="10.00">&#45;&#45;&#45;</text>
<text text-anchor="middle" x="2768" y="-671" font-family="Helvetica" font-size="10.00">HotSpotMethod&lt;Arrays.fill(boolean[], boolean)&gt;</text>
</g>
<!-- b10&#45;&gt;b11 -->
<g id="edge17" class="edge">
<title>b10&#45;&gt;b11</title>
<path fill="none" stroke="black" d="M2459.42,-333.02C2517.51,-400.44 2672.86,-580.74 2737.81,-656.13"/>
<polygon fill="black" stroke="black" points="2735.37,-658.65 2744.55,-663.94 2740.67,-654.08 2735.37,-658.65"/>
</g>
<!-- b17 -->
<g id="node18" class="node">
<title>b17</title>
<polygon fill="white" stroke="black" points="3544,-525 3320,-525 3320,-473 3544,-473 3544,-525"/>
<text text-anchor="middle" x="3432" y="-513" font-family="Helvetica" font-size="10.00">B17</text>
<text text-anchor="middle" x="3432" y="-502" font-family="Helvetica" font-size="10.00">Loop: &lt;none&gt;</text>
<text text-anchor="middle" x="3432" y="-491" font-family="Helvetica" font-size="10.00">&#45;&#45;&#45;</text>
<text text-anchor="middle" x="3432" y="-480" font-family="Helvetica" font-size="10.00">HotSpotMethod&lt;Arrays.fill(boolean[], boolean)&gt;</text>
</g>
<!-- b10&#45;&gt;b17 -->
<g id="edge18" class="edge">
<title>b10&#45;&gt;b17</title>
<path fill="none" stroke="black" d="M2548.14,-303.64C2701.09,-302.09 2983.51,-310.36 3212,-380 3276.28,-399.59 3343.17,-439.21 3385.84,-467.34"/>
<polygon fill="black" stroke="black" points="3384.04,-470.35 3394.31,-472.98 3387.92,-464.52 3384.04,-470.35"/>
</g>
<!-- b12 -->
<g id="node13" class="node">
<title>b12</title>
<polygon fill="white" stroke="black" points="3212,-716 2988,-716 2988,-664 3212,-664 3212,-716"/>
<text text-anchor="middle" x="3100" y="-704" font-family="Helvetica" font-size="10.00">B12</text>
<text text-anchor="middle" x="3100" y="-693" font-family="Helvetica" font-size="10.00">Loop: &lt;none&gt;</text>
<text text-anchor="middle" x="3100" y="-682" font-family="Helvetica" font-size="10.00">&#45;&#45;&#45;</text>
<text text-anchor="middle" x="3100" y="-671" font-family="Helvetica" font-size="10.00">HotSpotMethod&lt;Arrays.fill(boolean[], boolean)&gt;</text>
</g>
<!-- b11&#45;&gt;b12 -->
<g id="edge19" class="edge">
<title>b11&#45;&gt;b12</title>
<path fill="none" stroke="black" d="M2880.26,-690C2911.58,-690 2945.8,-690 2977.68,-690"/>
<polygon fill="black" stroke="black" points="2977.94,-693.5 2987.94,-690 2977.94,-686.5 2977.94,-693.5"/>
</g>
<!-- b15 -->
<g id="node16" class="node">
<title>b15</title>
<polygon fill="white" stroke="black" points="3544,-851 3320,-851 3320,-799 3544,-799 3544,-851"/>
<text text-anchor="middle" x="3432" y="-839" font-family="Helvetica" font-size="10.00">B15</text>
<text text-anchor="middle" x="3432" y="-828" font-family="Helvetica" font-size="10.00">Loop: &lt;none&gt;</text>
<text text-anchor="middle" x="3432" y="-817" font-family="Helvetica" font-size="10.00">&#45;&#45;&#45;</text>
<text text-anchor="middle" x="3432" y="-806" font-family="Helvetica" font-size="10.00">HotSpotMethod&lt;Arrays.fill(boolean[], boolean)&gt;</text>
</g>
<!-- b11&#45;&gt;b15 -->
<g id="edge20" class="edge">
<title>b11&#45;&gt;b15</title>
<path fill="none" stroke="black" d="M2852.41,-716C2893.04,-728.05 2942.78,-741.91 2988,-752 3095.97,-776.1 3220.39,-795.92 3309.83,-808.79"/>
<polygon fill="black" stroke="black" points="3309.34,-812.26 3319.74,-810.21 3310.33,-805.33 3309.34,-812.26"/>
</g>
<!-- b14 -->
<g id="node15" class="node">
<title>b14</title>
<polygon fill="white" stroke="black" points="3876,-716 3652,-716 3652,-664 3876,-664 3876,-716"/>
<text text-anchor="middle" x="3764" y="-704" font-family="Helvetica" font-size="10.00">B14</text>
<text text-anchor="middle" x="3764" y="-693" font-family="Helvetica" font-size="10.00">Loop: &lt;none&gt;</text>
<text text-anchor="middle" x="3764" y="-682" font-family="Helvetica" font-size="10.00">&#45;&#45;&#45;</text>
<text text-anchor="middle" x="3764" y="-671" font-family="Helvetica" font-size="10.00">HotSpotMethod&lt;Arrays.fill(boolean[], boolean)&gt;</text>
</g>
<!-- b12&#45;&gt;b14 -->
<g id="edge22" class="edge">
<title>b12&#45;&gt;b14</title>
<path fill="none" stroke="black" d="M3212.18,-690C3331.1,-690 3519.13,-690 3641.78,-690"/>
<polygon fill="black" stroke="black" points="3641.97,-693.5 3651.97,-690 3641.97,-686.5 3641.97,-693.5"/>
</g>
<!-- b12&#45;&gt;b17 -->
<g id="edge21" class="edge">
<title>b12&#45;&gt;b17</title>
<path fill="none" stroke="black" d="M3148.12,-663.99C3167.91,-652.99 3191.13,-639.97 3212,-628 3269.11,-595.23 3334.05,-556.84 3378.29,-530.51"/>
<polygon fill="black" stroke="black" points="3380.33,-533.37 3387.13,-525.24 3376.75,-527.35 3380.33,-533.37"/>
</g>
<!-- b13 -->
<g id="node14" class="node">
<title>b13</title>
<polygon fill="white" stroke="black" points="3212,-468 2988,-468 2988,-416 3212,-416 3212,-468"/>
<text text-anchor="middle" x="3100" y="-456" font-family="Helvetica" font-size="10.00">B13</text>
<text text-anchor="middle" x="3100" y="-445" font-family="Helvetica" font-size="10.00">Loop: &lt;none&gt;</text>
<text text-anchor="middle" x="3100" y="-434" font-family="Helvetica" font-size="10.00">&#45;&#45;&#45;</text>
<text text-anchor="middle" x="3100" y="-423" font-family="Helvetica" font-size="10.00">HotSpotMethod&lt;Arrays.fill(boolean[], boolean)&gt;</text>
</g>
<!-- b13&#45;&gt;b17 -->
<g id="edge23" class="edge">
<title>b13&#45;&gt;b17</title>
<path fill="none" stroke="black" d="M3212.26,-461.22C3243.58,-466.63 3277.8,-472.54 3309.68,-478.04"/>
<polygon fill="black" stroke="black" points="3309.49,-481.56 3319.94,-479.82 3310.68,-474.67 3309.49,-481.56"/>
</g>
<!-- b29 -->
<g id="node30" class="node">
<title>b29</title>
<polygon fill="white" stroke="black" points="4228,-716 4004,-716 4004,-664 4228,-664 4228,-716"/>
<text text-anchor="middle" x="4116" y="-704" font-family="Helvetica" font-size="10.00">B29</text>
<text text-anchor="middle" x="4116" y="-693" font-family="Helvetica" font-size="10.00">Loop: &lt;none&gt;</text>
<text text-anchor="middle" x="4116" y="-682" font-family="Helvetica" font-size="10.00">&#45;&#45;&#45;</text>
<text text-anchor="middle" x="4116" y="-671" font-family="Helvetica" font-size="10.00">HotSpotMethod&lt;Arrays.fill(boolean[], boolean)&gt;</text>
</g>
<!-- b14&#45;&gt;b29 -->
<g id="edge24" class="edge">
<title>b14&#45;&gt;b29</title>
<path fill="none" stroke="black" d="M3876.22,-690C3913.62,-690 3955.51,-690 3993.64,-690"/>
<polygon fill="black" stroke="black" points="3993.77,-693.5 4003.77,-690 3993.77,-686.5 3993.77,-693.5"/>
</g>
<!-- b15&#45;&gt;b29 -->
<g id="edge25" class="edge">
<title>b15&#45;&gt;b29</title>
<path fill="none" stroke="black" d="M3544.12,-809.54C3634.03,-796.34 3763.71,-775.77 3876,-752 3921.23,-742.43 3970.77,-729.92 4012.96,-718.64"/>
<polygon fill="black" stroke="black" points="4013.93,-722.01 4022.68,-716.03 4012.11,-715.25 4013.93,-722.01"/>
</g>
<!-- b16 -->
<g id="node17" class="node">
<title>b16</title>
<polygon fill="white" stroke="black" points="3212,-592 2988,-592 2988,-540 3212,-540 3212,-592"/>
<text text-anchor="middle" x="3100" y="-580" font-family="Helvetica" font-size="10.00">B16</text>
<text text-anchor="middle" x="3100" y="-569" font-family="Helvetica" font-size="10.00">Loop: &lt;none&gt;</text>
<text text-anchor="middle" x="3100" y="-558" font-family="Helvetica" font-size="10.00">&#45;&#45;&#45;</text>
<text text-anchor="middle" x="3100" y="-547" font-family="Helvetica" font-size="10.00">HotSpotMethod&lt;Arrays.fill(boolean[], boolean)&gt;</text>
</g>
<!-- b16&#45;&gt;b17 -->
<g id="edge26" class="edge">
<title>b16&#45;&gt;b17</title>
<path fill="none" stroke="black" d="M3212.26,-543.41C3243.72,-537.02 3278.1,-530.04 3310.09,-523.55"/>
<polygon fill="black" stroke="black" points="3310.84,-526.97 3319.94,-521.55 3309.44,-520.11 3310.84,-526.97"/>
</g>
<!-- b18 -->
<g id="node19" class="node">
<title>b18</title>
<polygon fill="white" stroke="black" points="3876,-468 3652,-468 3652,-416 3876,-416 3876,-468"/>
<text text-anchor="middle" x="3764" y="-456" font-family="Helvetica" font-size="10.00">B18</text>
<text text-anchor="middle" x="3764" y="-445" font-family="Helvetica" font-size="10.00">Loop: &lt;none&gt;</text>
<text text-anchor="middle" x="3764" y="-434" font-family="Helvetica" font-size="10.00">&#45;&#45;&#45;</text>
<text text-anchor="middle" x="3764" y="-423" font-family="Helvetica" font-size="10.00">HotSpotMethod&lt;Arrays.fill(boolean[], boolean)&gt;</text>
</g>
<!-- b17&#45;&gt;b18 -->
<g id="edge27" class="edge">
<title>b17&#45;&gt;b18</title>
<path fill="none" stroke="black" d="M3544.26,-479.78C3575.58,-474.37 3609.8,-468.46 3641.68,-462.96"/>
<polygon fill="black" stroke="black" points="3642.68,-466.33 3651.94,-461.18 3641.49,-459.44 3642.68,-466.33"/>
</g>
<!-- b28 -->
<g id="node29" class="node">
<title>b28</title>
<polygon fill="white" stroke="black" points="3876,-592 3652,-592 3652,-540 3876,-540 3876,-592"/>
<text text-anchor="middle" x="3764" y="-580" font-family="Helvetica" font-size="10.00">B28</text>
<text text-anchor="middle" x="3764" y="-569" font-family="Helvetica" font-size="10.00">Loop: &lt;none&gt;</text>
<text text-anchor="middle" x="3764" y="-558" font-family="Helvetica" font-size="10.00">&#45;&#45;&#45;</text>
<text text-anchor="middle" x="3764" y="-547" font-family="Helvetica" font-size="10.00">HotSpotMethod&lt;Arrays.fill(boolean[], boolean)&gt;</text>
</g>
<!-- b17&#45;&gt;b28 -->
<g id="edge28" class="edge">
<title>b17&#45;&gt;b28</title>
<path fill="none" stroke="black" d="M3544.26,-521.59C3575.72,-527.98 3610.1,-534.96 3642.09,-541.45"/>
<polygon fill="black" stroke="black" points="3641.44,-544.89 3651.94,-543.45 3642.84,-538.03 3641.44,-544.89"/>
</g>
<!-- b19 -->
<g id="node20" class="node">
<title>b19</title>
<polygon fill="lightblue" stroke="black" points="4248,-468 3984,-468 3984,-416 4248,-416 4248,-468"/>
<text text-anchor="middle" x="4116" y="-456" font-family="Helvetica" font-size="10.00">B19</text>
<text text-anchor="middle" x="4116" y="-445" font-family="Helvetica" font-size="10.00">Loop: L0</text>
<text text-anchor="middle" x="4116" y="-434" font-family="Helvetica" font-size="10.00">&#45;&#45;&#45;</text>
<text text-anchor="middle" x="4116" y="-423" font-family="Helvetica" font-size="10.00">HotSpotMethod&lt;BuboAgentCompilerMarkers.Marker0()&gt;</text>
</g>
<!-- b18&#45;&gt;b19 -->
<g id="edge29" class="edge">
<title>b18&#45;&gt;b19</title>
<path fill="none" stroke="black" d="M3876.22,-442C3907.24,-442 3941.36,-442 3973.86,-442"/>
<polygon fill="black" stroke="black" points="3973.88,-445.5 3983.88,-442 3973.88,-438.5 3973.88,-445.5"/>
</g>
<!-- b20 -->
<g id="node21" class="node">
<title>b20</title>
<polygon fill="lightblue" stroke="black" points="4620,-468 4356,-468 4356,-416 4620,-416 4620,-468"/>
<text text-anchor="middle" x="4488" y="-456" font-family="Helvetica" font-size="10.00">B20</text>
<text text-anchor="middle" x="4488" y="-445" font-family="Helvetica" font-size="10.00">Loop: L0</text>
<text text-anchor="middle" x="4488" y="-434" font-family="Helvetica" font-size="10.00">&#45;&#45;&#45;</text>
<text text-anchor="middle" x="4488" y="-423" font-family="Helvetica" font-size="10.00">HotSpotMethod&lt;BuboAgentCompilerMarkers.Marker0()&gt;</text>
</g>
<!-- b19&#45;&gt;b20 -->
<g id="edge30" class="edge">
<title>b19&#45;&gt;b20</title>
<path fill="none" stroke="black" d="M4248.23,-416.04C4279.73,-414.79 4313.51,-414.67 4345.46,-415.67"/>
<polygon fill="black" stroke="black" points="4345.64,-419.18 4355.76,-416.04 4345.89,-412.19 4345.64,-419.18"/>
</g>
<!-- b21 -->
<g id="node22" class="node">
<title>b21</title>
<polygon fill="white" stroke="black" points="4600,-592 4376,-592 4376,-540 4600,-540 4600,-592"/>
<text text-anchor="middle" x="4488" y="-580" font-family="Helvetica" font-size="10.00">B21</text>
<text text-anchor="middle" x="4488" y="-569" font-family="Helvetica" font-size="10.00">Loop: &lt;none&gt;</text>
<text text-anchor="middle" x="4488" y="-558" font-family="Helvetica" font-size="10.00">&#45;&#45;&#45;</text>
<text text-anchor="middle" x="4488" y="-547" font-family="Helvetica" font-size="10.00">HotSpotMethod&lt;Arrays.fill(boolean[], boolean)&gt;</text>
</g>
<!-- b19&#45;&gt;b21 -->
<g id="edge31" class="edge">
<title>b19&#45;&gt;b21</title>
<path fill="none" stroke="black" d="M4195.02,-468.15C4254.89,-488.21 4337.54,-515.91 4399.63,-536.72"/>
<polygon fill="black" stroke="black" points="4398.82,-540.14 4409.41,-540 4401.04,-533.5 4398.82,-540.14"/>
</g>
<!-- b20&#45;&gt;b19 -->
<g id="edge32" class="edge">
<title>b20&#45;&gt;b19</title>
<path fill="none" stroke="black" d="M4355.76,-467.96C4324.26,-469.21 4290.48,-469.33 4258.53,-468.33"/>
<polygon fill="black" stroke="black" points="4258.35,-464.82 4248.23,-467.96 4258.1,-471.81 4258.35,-464.82"/>
</g>
<!-- b22 -->
<g id="node23" class="node">
<title>b22</title>
<polygon fill="lightgreen" stroke="black" points="4992,-592 4728,-592 4728,-540 4992,-540 4992,-592"/>
<text text-anchor="middle" x="4860" y="-580" font-family="Helvetica" font-size="10.00">B22</text>
<text text-anchor="middle" x="4860" y="-569" font-family="Helvetica" font-size="10.00">Loop: L1</text>
<text text-anchor="middle" x="4860" y="-558" font-family="Helvetica" font-size="10.00">&#45;&#45;&#45;</text>
<text text-anchor="middle" x="4860" y="-547" font-family="Helvetica" font-size="10.00">HotSpotMethod&lt;BuboAgentCompilerMarkers.Marker1()&gt;</text>
</g>
<!-- b21&#45;&gt;b22 -->
<g id="edge33" class="edge">
<title>b21&#45;&gt;b22</title>
<path fill="none" stroke="black" d="M4600.01,-566C4636.94,-566 4678.58,-566 4717.5,-566"/>
<polygon fill="black" stroke="black" points="4717.86,-569.5 4727.86,-566 4717.86,-562.5 4717.86,-569.5"/>
</g>
<!-- b23 -->
<g id="node24" class="node">
<title>b23</title>
<polygon fill="lightgreen" stroke="black" points="5364,-592 5100,-592 5100,-540 5364,-540 5364,-592"/>
<text text-anchor="middle" x="5232" y="-580" font-family="Helvetica" font-size="10.00">B23</text>
<text text-anchor="middle" x="5232" y="-569" font-family="Helvetica" font-size="10.00">Loop: L1</text>
<text text-anchor="middle" x="5232" y="-558" font-family="Helvetica" font-size="10.00">&#45;&#45;&#45;</text>
<text text-anchor="middle" x="5232" y="-547" font-family="Helvetica" font-size="10.00">HotSpotMethod&lt;BuboAgentCompilerMarkers.Marker1()&gt;</text>
</g>
<!-- b22&#45;&gt;b23 -->
<g id="edge34" class="edge">
<title>b22&#45;&gt;b23</title>
<path fill="none" stroke="black" d="M4992.23,-540.04C5023.73,-538.79 5057.51,-538.67 5089.46,-539.67"/>
<polygon fill="black" stroke="black" points="5089.64,-543.18 5099.76,-540.04 5089.89,-536.19 5089.64,-543.18"/>
</g>
<!-- b24 -->
<g id="node25" class="node">
<title>b24</title>
<polygon fill="white" stroke="black" points="5344,-716 5120,-716 5120,-664 5344,-664 5344,-716"/>
<text text-anchor="middle" x="5232" y="-704" font-family="Helvetica" font-size="10.00">B24</text>
<text text-anchor="middle" x="5232" y="-693" font-family="Helvetica" font-size="10.00">Loop: &lt;none&gt;</text>
<text text-anchor="middle" x="5232" y="-682" font-family="Helvetica" font-size="10.00">&#45;&#45;&#45;</text>
<text text-anchor="middle" x="5232" y="-671" font-family="Helvetica" font-size="10.00">HotSpotMethod&lt;Arrays.fill(boolean[], boolean)&gt;</text>
</g>
<!-- b22&#45;&gt;b24 -->
<g id="edge35" class="edge">
<title>b22&#45;&gt;b24</title>
<path fill="none" stroke="black" d="M4939.02,-592.15C4998.89,-612.21 5081.54,-639.91 5143.63,-660.72"/>
<polygon fill="black" stroke="black" points="5142.82,-664.14 5153.41,-664 5145.04,-657.5 5142.82,-664.14"/>
</g>
<!-- b23&#45;&gt;b22 -->
<g id="edge36" class="edge">
<title>b23&#45;&gt;b22</title>
<path fill="none" stroke="black" d="M5099.76,-591.96C5068.26,-593.21 5034.48,-593.33 5002.53,-592.33"/>
<polygon fill="black" stroke="black" points="5002.35,-588.82 4992.23,-591.96 5002.1,-595.81 5002.35,-588.82"/>
</g>
<!-- b25 -->
<g id="node26" class="node">
<title>b25</title>
<polygon fill="lightpink" stroke="black" points="5736,-716 5472,-716 5472,-664 5736,-664 5736,-716"/>
<text text-anchor="middle" x="5604" y="-704" font-family="Helvetica" font-size="10.00">B25</text>
<text text-anchor="middle" x="5604" y="-693" font-family="Helvetica" font-size="10.00">Loop: L2</text>
<text text-anchor="middle" x="5604" y="-682" font-family="Helvetica" font-size="10.00">&#45;&#45;&#45;</text>
<text text-anchor="middle" x="5604" y="-671" font-family="Helvetica" font-size="10.00">HotSpotMethod&lt;BuboAgentCompilerMarkers.Marker2()&gt;</text>
</g>
<!-- b24&#45;&gt;b25 -->
<g id="edge37" class="edge">
<title>b24&#45;&gt;b25</title>
<path fill="none" stroke="black" d="M5344.01,-690C5380.94,-690 5422.58,-690 5461.5,-690"/>
<polygon fill="black" stroke="black" points="5461.86,-693.5 5471.86,-690 5461.86,-686.5 5461.86,-693.5"/>
</g>
<!-- b26 -->
<g id="node27" class="node">
<title>b26</title>
<polygon fill="lightpink" stroke="black" points="6108,-716 5844,-716 5844,-664 6108,-664 6108,-716"/>
<text text-anchor="middle" x="5976" y="-704" font-family="Helvetica" font-size="10.00">B26</text>
<text text-anchor="middle" x="5976" y="-693" font-family="Helvetica" font-size="10.00">Loop: L2</text>
<text text-anchor="middle" x="5976" y="-682" font-family="Helvetica" font-size="10.00">&#45;&#45;&#45;</text>
<text text-anchor="middle" x="5976" y="-671" font-family="Helvetica" font-size="10.00">HotSpotMethod&lt;BuboAgentCompilerMarkers.Marker2()&gt;</text>
</g>
<!-- b25&#45;&gt;b26 -->
<g id="edge38" class="edge">
<title>b25&#45;&gt;b26</title>
<path fill="none" stroke="black" d="M5736.23,-664.04C5767.73,-662.79 5801.51,-662.67 5833.46,-663.67"/>
<polygon fill="black" stroke="black" points="5833.64,-667.18 5843.76,-664.04 5833.89,-660.19 5833.64,-667.18"/>
</g>
<!-- b27 -->
<g id="node28" class="node">
<title>b27</title>
<polygon fill="white" stroke="black" points="6088,-592 5864,-592 5864,-540 6088,-540 6088,-592"/>
<text text-anchor="middle" x="5976" y="-580" font-family="Helvetica" font-size="10.00">B27</text>
<text text-anchor="middle" x="5976" y="-569" font-family="Helvetica" font-size="10.00">Loop: &lt;none&gt;</text>
<text text-anchor="middle" x="5976" y="-558" font-family="Helvetica" font-size="10.00">&#45;&#45;&#45;</text>
<text text-anchor="middle" x="5976" y="-547" font-family="Helvetica" font-size="10.00">HotSpotMethod&lt;Arrays.fill(boolean[], boolean)&gt;</text>
</g>
<!-- b25&#45;&gt;b27 -->
<g id="edge39" class="edge">
<title>b25&#45;&gt;b27</title>
<path fill="none" stroke="black" d="M5683.02,-663.85C5742.89,-643.79 5825.54,-616.09 5887.63,-595.28"/>
<polygon fill="black" stroke="black" points="5889.04,-598.5 5897.41,-592 5886.82,-591.86 5889.04,-598.5"/>
</g>
<!-- b26&#45;&gt;b25 -->
<g id="edge40" class="edge">
<title>b26&#45;&gt;b25</title>
<path fill="none" stroke="black" d="M5843.76,-715.96C5812.26,-717.21 5778.48,-717.33 5746.53,-716.33"/>
<polygon fill="black" stroke="black" points="5746.35,-712.82 5736.23,-715.96 5746.1,-719.81 5746.35,-712.82"/>
</g>
<!-- b27&#45;&gt;b33 -->
<g id="edge41" class="edge">
<title>b27&#45;&gt;b33</title>
<path fill="none" stroke="black" d="M6088.22,-566C6125.62,-566 6167.51,-566 6205.64,-566"/>
<polygon fill="black" stroke="black" points="6205.77,-569.5 6215.77,-566 6205.77,-562.5 6205.77,-569.5"/>
</g>
<!-- b28&#45;&gt;b29 -->
<g id="edge42" class="edge">
<title>b28&#45;&gt;b29</title>
<path fill="none" stroke="black" d="M3838.8,-592.15C3895.32,-612.17 3973.3,-639.8 4031.99,-660.59"/>
<polygon fill="black" stroke="black" points="4031.01,-663.96 4041.6,-664 4033.35,-657.36 4031.01,-663.96"/>
</g>
<!-- b30 -->
<g id="node31" class="node">
<title>b30</title>
<polygon fill="white" stroke="black" points="6088,-52 5864,-52 5864,0 6088,0 6088,-52"/>
<text text-anchor="middle" x="5976" y="-40" font-family="Helvetica" font-size="10.00">B30</text>
<text text-anchor="middle" x="5976" y="-29" font-family="Helvetica" font-size="10.00">Loop: &lt;none&gt;</text>
<text text-anchor="middle" x="5976" y="-18" font-family="Helvetica" font-size="10.00">&#45;&#45;&#45;</text>
<text text-anchor="middle" x="5976" y="-7" font-family="Helvetica" font-size="10.00">HotSpotMethod&lt;Arrays.fill(boolean[], boolean)&gt;</text>
</g>
<!-- b30&#45;&gt;b33 -->
<g id="edge43" class="edge">
<title>b30&#45;&gt;b33</title>
<path fill="none" stroke="black" d="M6035.09,-52.06C6059.96,-65.42 6087.84,-83.63 6108,-106 6227.22,-238.3 6294.38,-447.05 6317.62,-530.15"/>
<polygon fill="black" stroke="black" points="6314.27,-531.17 6320.3,-539.88 6321.02,-529.31 6314.27,-531.17"/>
</g>
<!-- b35 -->
<g id="node36" class="node">
<title>b35</title>
<polygon fill="white" stroke="black" points="2548,-52 2324,-52 2324,0 2548,0 2548,-52"/>
<text text-anchor="middle" x="2436" y="-40" font-family="Helvetica" font-size="10.00">B35</text>
<text text-anchor="middle" x="2436" y="-29" font-family="Helvetica" font-size="10.00">Loop: &lt;none&gt;</text>
<text text-anchor="middle" x="2436" y="-18" font-family="Helvetica" font-size="10.00">&#45;&#45;&#45;</text>
<text text-anchor="middle" x="2436" y="-7" font-family="Helvetica" font-size="10.00">HotSpotMethod&lt;Arrays.fill(boolean[], boolean)&gt;</text>
</g>
<!-- b31&#45;&gt;b35 -->
<g id="edge44" class="edge">
<title>b31&#45;&gt;b35</title>
<path fill="none" stroke="black" d="M2168.63,-134.97C2223.89,-112.36 2303.93,-79.62 2361.83,-55.93"/>
<polygon fill="black" stroke="black" points="2363.36,-59.09 2371.29,-52.06 2360.71,-52.61 2363.36,-59.09"/>
</g>
<!-- b32 -->
<g id="node33" class="node">
<title>b32</title>
<polygon fill="white" stroke="black" points="6088,-1132 5864,-1132 5864,-1080 6088,-1080 6088,-1132"/>
<text text-anchor="middle" x="5976" y="-1120" font-family="Helvetica" font-size="10.00">B32</text>
<text text-anchor="middle" x="5976" y="-1109" font-family="Helvetica" font-size="10.00">Loop: &lt;none&gt;</text>
<text text-anchor="middle" x="5976" y="-1098" font-family="Helvetica" font-size="10.00">&#45;&#45;&#45;</text>
<text text-anchor="middle" x="5976" y="-1087" font-family="Helvetica" font-size="10.00">HotSpotMethod&lt;Arrays.fill(boolean[], boolean)&gt;</text>
</g>
<!-- b32&#45;&gt;b33 -->
<g id="edge45" class="edge">
<title>b32&#45;&gt;b33</title>
<path fill="none" stroke="black" d="M6035.09,-1079.94C6059.96,-1066.58 6087.84,-1048.37 6108,-1026 6227.22,-893.7 6294.38,-684.95 6317.62,-601.85"/>
<polygon fill="black" stroke="black" points="6321.02,-602.69 6320.3,-592.12 6314.27,-600.83 6321.02,-602.69"/>
</g>
<!-- b34&#45;&gt;b35 -->
<g id="edge46" class="edge">
<title>b34&#45;&gt;b35</title>
<path fill="none" stroke="black" d="M1884.18,-26C2003.1,-26 2191.13,-26 2313.78,-26"/>
<polygon fill="black" stroke="black" points="2313.97,-29.5 2323.97,-26 2313.97,-22.5 2313.97,-29.5"/>
</g>
</g>
</svg>
