<?xml version="1.0" encoding="UTF-8" standalone="no"?>
<!DOCTYPE svg PUBLIC "-//W3C//DTD SVG 1.1//EN"
 "http://www.w3.org/Graphics/SVG/1.1/DTD/svg11.dtd">
<!-- Generated by graphviz version 2.44.0 (0)
 -->
<!-- Title: CFG_117 Pages: 1 -->
<svg width="3792pt" height="810pt"
 viewBox="0.00 0.00 3792.00 810.00" xmlns="http://www.w3.org/2000/svg" xmlns:xlink="http://www.w3.org/1999/xlink">
<g id="graph0" class="graph" transform="scale(1 1) rotate(0) translate(4 806)">
<title>CFG_117</title>
<polygon fill="white" stroke="transparent" points="-4,4 -4,-806 3788,-806 3788,4 -4,4"/>
<text text-anchor="middle" x="219.5" y="-782" font-family="Times-Roman" font-size="20.00">171&#45;java.util.Arrays.fill(boolean[], boolean)</text>
<!-- b0 -->
<g id="node1" class="node">
<title>b0</title>
<polygon fill="white" stroke="black" points="224,-412 0,-412 0,-360 224,-360 224,-412"/>
<text text-anchor="middle" x="112" y="-400" font-family="Helvetica" font-size="10.00">B0</text>
<text text-anchor="middle" x="112" y="-389" font-family="Helvetica" font-size="10.00">Loop: &lt;none&gt;</text>
<text text-anchor="middle" x="112" y="-378" font-family="Helvetica" font-size="10.00">&#45;&#45;&#45;</text>
<text text-anchor="middle" x="112" y="-367" font-family="Helvetica" font-size="10.00">HotSpotMethod&lt;Arrays.fill(boolean[], boolean)&gt;</text>
</g>
<!-- b2 -->
<g id="node3" class="node">
<title>b2</title>
<polygon fill="white" stroke="black" points="556,-637 332,-637 332,-585 556,-585 556,-637"/>
<text text-anchor="middle" x="444" y="-625" font-family="Helvetica" font-size="10.00">B2</text>
<text text-anchor="middle" x="444" y="-614" font-family="Helvetica" font-size="10.00">Loop: &lt;none&gt;</text>
<text text-anchor="middle" x="444" y="-603" font-family="Helvetica" font-size="10.00">&#45;&#45;&#45;</text>
<text text-anchor="middle" x="444" y="-592" font-family="Helvetica" font-size="10.00">HotSpotMethod&lt;Arrays.fill(boolean[], boolean)&gt;</text>
</g>
<!-- b0&#45;&gt;b2 -->
<g id="edge2" class="edge">
<title>b0&#45;&gt;b2</title>
<path fill="none" stroke="black" d="M151.18,-412.03C211.9,-453.43 330.34,-534.19 396.13,-579.04"/>
<polygon fill="black" stroke="black" points="394.42,-582.12 404.66,-584.86 398.37,-576.33 394.42,-582.12"/>
</g>
<!-- b16 -->
<g id="node17" class="node">
<title>b16</title>
<polygon fill="white" stroke="black" points="3784,-187 3560,-187 3560,-135 3784,-135 3784,-187"/>
<text text-anchor="middle" x="3672" y="-175" font-family="Helvetica" font-size="10.00">B16</text>
<text text-anchor="middle" x="3672" y="-164" font-family="Helvetica" font-size="10.00">Loop: &lt;none&gt;</text>
<text text-anchor="middle" x="3672" y="-153" font-family="Helvetica" font-size="10.00">&#45;&#45;&#45;</text>
<text text-anchor="middle" x="3672" y="-142" font-family="Helvetica" font-size="10.00">HotSpotMethod&lt;Arrays.fill(boolean[], boolean)&gt;</text>
</g>
<!-- b0&#45;&gt;b16 -->
<g id="edge1" class="edge">
<title>b0&#45;&gt;b16</title>
<path fill="none" stroke="black" d="M156.59,-359.97C260.05,-300.74 530.1,-161 775,-161 775,-161 775,-161 2949,-161 3160.31,-161 3406.41,-161 3549.84,-161"/>
<polygon fill="black" stroke="black" points="3549.99,-164.5 3559.99,-161 3549.99,-157.5 3549.99,-164.5"/>
</g>
<!-- b1 -->
<g id="node2" class="node">
<title>b1</title>
<polygon fill="white" stroke="black" points="3432,-52 3208,-52 3208,0 3432,0 3432,-52"/>
<text text-anchor="middle" x="3320" y="-40" font-family="Helvetica" font-size="10.00">B1</text>
<text text-anchor="middle" x="3320" y="-29" font-family="Helvetica" font-size="10.00">Loop: &lt;none&gt;</text>
<text text-anchor="middle" x="3320" y="-18" font-family="Helvetica" font-size="10.00">&#45;&#45;&#45;</text>
<text text-anchor="middle" x="3320" y="-7" font-family="Helvetica" font-size="10.00">HotSpotMethod&lt;Arrays.fill(boolean[], boolean)&gt;</text>
</g>
<!-- b1&#45;&gt;b16 -->
<g id="edge3" class="edge">
<title>b1&#45;&gt;b16</title>
<path fill="none" stroke="black" d="M3388.48,-52.03C3447.22,-74.68 3532.34,-107.52 3593.78,-131.21"/>
<polygon fill="black" stroke="black" points="3592.84,-134.6 3603.43,-134.94 3595.36,-128.07 3592.84,-134.6"/>
</g>
<!-- b4 -->
<g id="node5" class="node">
<title>b4</title>
<polygon fill="white" stroke="black" points="888,-772 664,-772 664,-720 888,-720 888,-772"/>
<text text-anchor="middle" x="776" y="-760" font-family="Helvetica" font-size="10.00">B4</text>
<text text-anchor="middle" x="776" y="-749" font-family="Helvetica" font-size="10.00">Loop: &lt;none&gt;</text>
<text text-anchor="middle" x="776" y="-738" font-family="Helvetica" font-size="10.00">&#45;&#45;&#45;</text>
<text text-anchor="middle" x="776" y="-727" font-family="Helvetica" font-size="10.00">HotSpotMethod&lt;Arrays.fill(boolean[], boolean)&gt;</text>
</g>
<!-- b2&#45;&gt;b4 -->
<g id="edge5" class="edge">
<title>b2&#45;&gt;b4</title>
<path fill="none" stroke="black" d="M508.63,-637.03C563.89,-659.64 643.93,-692.38 701.83,-716.07"/>
<polygon fill="black" stroke="black" points="700.71,-719.39 711.29,-719.94 703.36,-712.91 700.71,-719.39"/>
</g>
<!-- b6 -->
<g id="node7" class="node">
<title>b6</title>
<polygon fill="white" stroke="black" points="1220,-637 996,-637 996,-585 1220,-585 1220,-637"/>
<text text-anchor="middle" x="1108" y="-625" font-family="Helvetica" font-size="10.00">B6</text>
<text text-anchor="middle" x="1108" y="-614" font-family="Helvetica" font-size="10.00">Loop: &lt;none&gt;</text>
<text text-anchor="middle" x="1108" y="-603" font-family="Helvetica" font-size="10.00">&#45;&#45;&#45;</text>
<text text-anchor="middle" x="1108" y="-592" font-family="Helvetica" font-size="10.00">HotSpotMethod&lt;Arrays.fill(boolean[], boolean)&gt;</text>
</g>
<!-- b2&#45;&gt;b6 -->
<g id="edge4" class="edge">
<title>b2&#45;&gt;b6</title>
<path fill="none" stroke="black" d="M556.18,-611C675.1,-611 863.13,-611 985.78,-611"/>
<polygon fill="black" stroke="black" points="985.97,-614.5 995.97,-611 985.97,-607.5 985.97,-614.5"/>
</g>
<!-- b3 -->
<g id="node4" class="node">
<title>b3</title>
<polygon fill="white" stroke="black" points="888,-502 664,-502 664,-450 888,-450 888,-502"/>
<text text-anchor="middle" x="776" y="-490" font-family="Helvetica" font-size="10.00">B3</text>
<text text-anchor="middle" x="776" y="-479" font-family="Helvetica" font-size="10.00">Loop: &lt;none&gt;</text>
<text text-anchor="middle" x="776" y="-468" font-family="Helvetica" font-size="10.00">&#45;&#45;&#45;</text>
<text text-anchor="middle" x="776" y="-457" font-family="Helvetica" font-size="10.00">HotSpotMethod&lt;Arrays.fill(boolean[], boolean)&gt;</text>
</g>
<!-- b3&#45;&gt;b6 -->
<g id="edge6" class="edge">
<title>b3&#45;&gt;b6</title>
<path fill="none" stroke="black" d="M840.63,-502.03C895.89,-524.64 975.93,-557.38 1033.83,-581.07"/>
<polygon fill="black" stroke="black" points="1032.71,-584.39 1043.29,-584.94 1035.36,-577.91 1032.71,-584.39"/>
</g>
<!-- b4&#45;&gt;b6 -->
<g id="edge7" class="edge">
<title>b4&#45;&gt;b6</title>
<path fill="none" stroke="black" d="M840.63,-719.97C895.89,-697.36 975.93,-664.62 1033.83,-640.93"/>
<polygon fill="black" stroke="black" points="1035.36,-644.09 1043.29,-637.06 1032.71,-637.61 1035.36,-644.09"/>
</g>
<!-- b17 -->
<g id="node18" class="node">
<title>b17</title>
<polygon fill="white" stroke="black" points="1220,-772 996,-772 996,-720 1220,-720 1220,-772"/>
<text text-anchor="middle" x="1108" y="-760" font-family="Helvetica" font-size="10.00">B17</text>
<text text-anchor="middle" x="1108" y="-749" font-family="Helvetica" font-size="10.00">Loop: &lt;none&gt;</text>
<text text-anchor="middle" x="1108" y="-738" font-family="Helvetica" font-size="10.00">&#45;&#45;&#45;</text>
<text text-anchor="middle" x="1108" y="-727" font-family="Helvetica" font-size="10.00">HotSpotMethod&lt;Arrays.fill(boolean[], boolean)&gt;</text>
</g>
<!-- b4&#45;&gt;b17 -->
<g id="edge8" class="edge">
<title>b4&#45;&gt;b17</title>
<path fill="none" stroke="black" d="M888.26,-746C919.58,-746 953.8,-746 985.68,-746"/>
<polygon fill="black" stroke="black" points="985.94,-749.5 995.94,-746 985.94,-742.5 985.94,-749.5"/>
</g>
<!-- b5 -->
<g id="node6" class="node">
<title>b5</title>
<polygon fill="white" stroke="black" points="888,-378 664,-378 664,-326 888,-326 888,-378"/>
<text text-anchor="middle" x="776" y="-366" font-family="Helvetica" font-size="10.00">B5</text>
<text text-anchor="middle" x="776" y="-355" font-family="Helvetica" font-size="10.00">Loop: &lt;none&gt;</text>
<text text-anchor="middle" x="776" y="-344" font-family="Helvetica" font-size="10.00">&#45;&#45;&#45;</text>
<text text-anchor="middle" x="776" y="-333" font-family="Helvetica" font-size="10.00">HotSpotMethod&lt;Arrays.fill(boolean[], boolean)&gt;</text>
</g>
<!-- b5&#45;&gt;b6 -->
<g id="edge9" class="edge">
<title>b5&#45;&gt;b6</title>
<path fill="none" stroke="black" d="M829.3,-378.09C848.35,-388.4 869.69,-400.9 888,-414 959.41,-465.09 1033.54,-536.26 1074.62,-577.6"/>
<polygon fill="black" stroke="black" points="1072.14,-580.06 1081.66,-584.71 1077.11,-575.14 1072.14,-580.06"/>
</g>
<!-- b7 -->
<g id="node8" class="node">
<title>b7</title>
<polygon fill="lightblue" stroke="black" points="1592,-641 1328,-641 1328,-589 1592,-589 1592,-641"/>
<text text-anchor="middle" x="1460" y="-629" font-family="Helvetica" font-size="10.00">B7</text>
<text text-anchor="middle" x="1460" y="-618" font-family="Helvetica" font-size="10.00">Loop: L0</text>
<text text-anchor="middle" x="1460" y="-607" font-family="Helvetica" font-size="10.00">&#45;&#45;&#45;</text>
<text text-anchor="middle" x="1460" y="-596" font-family="Helvetica" font-size="10.00">HotSpotMethod&lt;BuboAgentCompilerMarkers.Marker0()&gt;</text>
</g>
<!-- b6&#45;&gt;b7 -->
<g id="edge10" class="edge">
<title>b6&#45;&gt;b7</title>
<path fill="none" stroke="black" d="M1220.22,-612.27C1251.24,-612.63 1285.36,-613.02 1317.86,-613.39"/>
<polygon fill="black" stroke="black" points="1317.84,-616.89 1327.88,-613.5 1317.93,-609.89 1317.84,-616.89"/>
</g>
<!-- b8 -->
<g id="node9" class="node">
<title>b8</title>
<polygon fill="lightblue" stroke="black" points="1964,-643 1700,-643 1700,-591 1964,-591 1964,-643"/>
<text text-anchor="middle" x="1832" y="-631" font-family="Helvetica" font-size="10.00">B8</text>
<text text-anchor="middle" x="1832" y="-620" font-family="Helvetica" font-size="10.00">Loop: L0</text>
<text text-anchor="middle" x="1832" y="-609" font-family="Helvetica" font-size="10.00">&#45;&#45;&#45;</text>
<text text-anchor="middle" x="1832" y="-598" font-family="Helvetica" font-size="10.00">HotSpotMethod&lt;BuboAgentCompilerMarkers.Marker0()&gt;</text>
</g>
<!-- b7&#45;&gt;b8 -->
<g id="edge11" class="edge">
<title>b7&#45;&gt;b8</title>
<path fill="none" stroke="black" d="M1592.23,-589.75C1628.13,-588.52 1666.99,-588.77 1702.72,-590.47"/>
<polygon fill="black" stroke="black" points="1702.54,-593.96 1712.71,-590.99 1702.9,-586.97 1702.54,-593.96"/>
</g>
<!-- b9 -->
<g id="node10" class="node">
<title>b9</title>
<polygon fill="white" stroke="black" points="1944,-519 1720,-519 1720,-467 1944,-467 1944,-519"/>
<text text-anchor="middle" x="1832" y="-507" font-family="Helvetica" font-size="10.00">B9</text>
<text text-anchor="middle" x="1832" y="-496" font-family="Helvetica" font-size="10.00">Loop: &lt;none&gt;</text>
<text text-anchor="middle" x="1832" y="-485" font-family="Helvetica" font-size="10.00">&#45;&#45;&#45;</text>
<text text-anchor="middle" x="1832" y="-474" font-family="Helvetica" font-size="10.00">HotSpotMethod&lt;Arrays.fill(boolean[], boolean)&gt;</text>
</g>
<!-- b7&#45;&gt;b9 -->
<g id="edge12" class="edge">
<title>b7&#45;&gt;b9</title>
<path fill="none" stroke="black" d="M1539.92,-588.98C1599.25,-569.41 1680.56,-542.6 1742.17,-522.29"/>
<polygon fill="black" stroke="black" points="1743.48,-525.54 1751.88,-519.09 1741.29,-518.89 1743.48,-525.54"/>
</g>
<!-- b8&#45;&gt;b7 -->
<g id="edge13" class="edge">
<title>b8&#45;&gt;b7</title>
<path fill="none" stroke="black" d="M1699.92,-642.25C1663.92,-643.49 1624.94,-643.23 1589.1,-641.52"/>
<polygon fill="black" stroke="black" points="1589.26,-638.03 1579.09,-641 1588.89,-645.02 1589.26,-638.03"/>
</g>
<!-- b10 -->
<g id="node11" class="node">
<title>b10</title>
<polygon fill="lightgreen" stroke="black" points="2336,-526 2072,-526 2072,-474 2336,-474 2336,-526"/>
<text text-anchor="middle" x="2204" y="-514" font-family="Helvetica" font-size="10.00">B10</text>
<text text-anchor="middle" x="2204" y="-503" font-family="Helvetica" font-size="10.00">Loop: L1</text>
<text text-anchor="middle" x="2204" y="-492" font-family="Helvetica" font-size="10.00">&#45;&#45;&#45;</text>
<text text-anchor="middle" x="2204" y="-481" font-family="Helvetica" font-size="10.00">HotSpotMethod&lt;BuboAgentCompilerMarkers.Marker1()&gt;</text>
</g>
<!-- b9&#45;&gt;b10 -->
<g id="edge14" class="edge">
<title>b9&#45;&gt;b10</title>
<path fill="none" stroke="black" d="M1944.01,-495.1C1980.94,-495.8 2022.58,-496.59 2061.5,-497.32"/>
<polygon fill="black" stroke="black" points="2061.8,-500.83 2071.86,-497.52 2061.93,-493.83 2061.8,-500.83"/>
</g>
<!-- b11 -->
<g id="node12" class="node">
<title>b11</title>
<polygon fill="lightgreen" stroke="black" points="2708,-540 2444,-540 2444,-488 2708,-488 2708,-540"/>
<text text-anchor="middle" x="2576" y="-528" font-family="Helvetica" font-size="10.00">B11</text>
<text text-anchor="middle" x="2576" y="-517" font-family="Helvetica" font-size="10.00">Loop: L1</text>
<text text-anchor="middle" x="2576" y="-506" font-family="Helvetica" font-size="10.00">&#45;&#45;&#45;</text>
<text text-anchor="middle" x="2576" y="-495" font-family="Helvetica" font-size="10.00">HotSpotMethod&lt;BuboAgentCompilerMarkers.Marker1()&gt;</text>
</g>
<!-- b10&#45;&gt;b11 -->
<g id="edge15" class="edge">
<title>b10&#45;&gt;b11</title>
<path fill="none" stroke="black" d="M2336.23,-479.01C2384.62,-478.91 2438.38,-481.69 2482.62,-486.77"/>
<polygon fill="black" stroke="black" points="2482.43,-490.27 2492.78,-488 2483.27,-483.32 2482.43,-490.27"/>
</g>
<!-- b12 -->
<g id="node13" class="node">
<title>b12</title>
<polygon fill="white" stroke="black" points="2688,-416 2464,-416 2464,-364 2688,-364 2688,-416"/>
<text text-anchor="middle" x="2576" y="-404" font-family="Helvetica" font-size="10.00">B12</text>
<text text-anchor="middle" x="2576" y="-393" font-family="Helvetica" font-size="10.00">Loop: &lt;none&gt;</text>
<text text-anchor="middle" x="2576" y="-382" font-family="Helvetica" font-size="10.00">&#45;&#45;&#45;</text>
<text text-anchor="middle" x="2576" y="-371" font-family="Helvetica" font-size="10.00">HotSpotMethod&lt;Arrays.fill(boolean[], boolean)&gt;</text>
</g>
<!-- b10&#45;&gt;b12 -->
<g id="edge16" class="edge">
<title>b10&#45;&gt;b12</title>
<path fill="none" stroke="black" d="M2292.68,-473.93C2348.24,-457.42 2420.16,-436.03 2477.5,-418.99"/>
<polygon fill="black" stroke="black" points="2478.72,-422.28 2487.3,-416.07 2476.72,-415.57 2478.72,-422.28"/>
</g>
<!-- b11&#45;&gt;b10 -->
<g id="edge17" class="edge">
<title>b11&#45;&gt;b10</title>
<path fill="none" stroke="black" d="M2443.64,-534.99C2395.41,-535.08 2341.85,-532.32 2297.71,-527.27"/>
<polygon fill="black" stroke="black" points="2297.92,-523.77 2287.57,-526.05 2297.08,-530.72 2297.92,-523.77"/>
</g>
<!-- b13 -->
<g id="node14" class="node">
<title>b13</title>
<polygon fill="lightpink" stroke="black" points="3080,-444 2816,-444 2816,-392 3080,-392 3080,-444"/>
<text text-anchor="middle" x="2948" y="-432" font-family="Helvetica" font-size="10.00">B13</text>
<text text-anchor="middle" x="2948" y="-421" font-family="Helvetica" font-size="10.00">Loop: L2</text>
<text text-anchor="middle" x="2948" y="-410" font-family="Helvetica" font-size="10.00">&#45;&#45;&#45;</text>
<text text-anchor="middle" x="2948" y="-399" font-family="Helvetica" font-size="10.00">HotSpotMethod&lt;BuboAgentCompilerMarkers.Marker2()&gt;</text>
</g>
<!-- b12&#45;&gt;b13 -->
<g id="edge18" class="edge">
<title>b12&#45;&gt;b13</title>
<path fill="none" stroke="black" d="M2688.01,-398.4C2724.94,-401.2 2766.58,-404.35 2805.5,-407.29"/>
<polygon fill="black" stroke="black" points="2805.63,-410.81 2815.86,-408.08 2806.16,-403.83 2805.63,-410.81"/>
</g>
<!-- b14 -->
<g id="node15" class="node">
<title>b14</title>
<polygon fill="lightpink" stroke="black" points="3452,-446 3188,-446 3188,-394 3452,-394 3452,-446"/>
<text text-anchor="middle" x="3320" y="-434" font-family="Helvetica" font-size="10.00">B14</text>
<text text-anchor="middle" x="3320" y="-423" font-family="Helvetica" font-size="10.00">Loop: L2</text>
<text text-anchor="middle" x="3320" y="-412" font-family="Helvetica" font-size="10.00">&#45;&#45;&#45;</text>
<text text-anchor="middle" x="3320" y="-401" font-family="Helvetica" font-size="10.00">HotSpotMethod&lt;BuboAgentCompilerMarkers.Marker2()&gt;</text>
</g>
<!-- b13&#45;&gt;b14 -->
<g id="edge19" class="edge">
<title>b13&#45;&gt;b14</title>
<path fill="none" stroke="black" d="M3080.23,-392.75C3116.13,-391.52 3154.99,-391.77 3190.72,-393.47"/>
<polygon fill="black" stroke="black" points="3190.54,-396.96 3200.71,-393.99 3190.9,-389.97 3190.54,-396.96"/>
</g>
<!-- b15 -->
<g id="node16" class="node">
<title>b15</title>
<polygon fill="white" stroke="black" points="3432,-322 3208,-322 3208,-270 3432,-270 3432,-322"/>
<text text-anchor="middle" x="3320" y="-310" font-family="Helvetica" font-size="10.00">B15</text>
<text text-anchor="middle" x="3320" y="-299" font-family="Helvetica" font-size="10.00">Loop: &lt;none&gt;</text>
<text text-anchor="middle" x="3320" y="-288" font-family="Helvetica" font-size="10.00">&#45;&#45;&#45;</text>
<text text-anchor="middle" x="3320" y="-277" font-family="Helvetica" font-size="10.00">HotSpotMethod&lt;Arrays.fill(boolean[], boolean)&gt;</text>
</g>
<!-- b13&#45;&gt;b15 -->
<g id="edge20" class="edge">
<title>b13&#45;&gt;b15</title>
<path fill="none" stroke="black" d="M3027.92,-391.98C3087.25,-372.41 3168.56,-345.6 3230.17,-325.29"/>
<polygon fill="black" stroke="black" points="3231.48,-328.54 3239.88,-322.09 3229.29,-321.89 3231.48,-328.54"/>
</g>
<!-- b14&#45;&gt;b13 -->
<g id="edge21" class="edge">
<title>b14&#45;&gt;b13</title>
<path fill="none" stroke="black" d="M3187.92,-445.25C3151.92,-446.49 3112.94,-446.23 3077.1,-444.52"/>
<polygon fill="black" stroke="black" points="3077.26,-441.03 3067.09,-444 3076.89,-448.02 3077.26,-441.03"/>
</g>
<!-- b15&#45;&gt;b16 -->
<g id="edge22" class="edge">
<title>b15&#45;&gt;b16</title>
<path fill="none" stroke="black" d="M3388.48,-269.97C3447.22,-247.32 3532.34,-214.48 3593.78,-190.79"/>
<polygon fill="black" stroke="black" points="3595.36,-193.93 3603.43,-187.06 3592.84,-187.4 3595.36,-193.93"/>
</g>
</g>
</svg>
