<?xml version="1.0" encoding="UTF-8" standalone="no"?>
<!DOCTYPE svg PUBLIC "-//W3C//DTD SVG 1.1//EN"
 "http://www.w3.org/Graphics/SVG/1.1/DTD/svg11.dtd">
<!-- Generated by graphviz version 2.44.0 (0)
 -->
<!-- Title: CFG_119 Pages: 1 -->
<svg width="3119pt" height="414pt"
 viewBox="0.00 0.00 3119.00 414.00" xmlns="http://www.w3.org/2000/svg" xmlns:xlink="http://www.w3.org/1999/xlink">
<g id="graph0" class="graph" transform="scale(1 1) rotate(0) translate(4 410)">
<title>CFG_119</title>
<polygon fill="white" stroke="transparent" points="-4,4 -4,-410 3115,-410 3115,4 -4,4"/>
<text text-anchor="middle" x="175.5" y="-386" font-family="Times-Roman" font-size="20.00">173&#45;java.lang.Integer.valueOf(int)</text>
<!-- b0 -->
<g id="node1" class="node">
<title>b0</title>
<polygon fill="white" stroke="black" points="180,-309 0,-309 0,-257 180,-257 180,-309"/>
<text text-anchor="middle" x="90" y="-297" font-family="Helvetica" font-size="10.00">B0</text>
<text text-anchor="middle" x="90" y="-286" font-family="Helvetica" font-size="10.00">Loop: &lt;none&gt;</text>
<text text-anchor="middle" x="90" y="-275" font-family="Helvetica" font-size="10.00">&#45;&#45;&#45;</text>
<text text-anchor="middle" x="90" y="-264" font-family="Helvetica" font-size="10.00">HotSpotMethod&lt;Integer.valueOf(int)&gt;</text>
</g>
<!-- b1 -->
<g id="node2" class="node">
<title>b1</title>
<polygon fill="white" stroke="black" points="468,-376 288,-376 288,-324 468,-324 468,-376"/>
<text text-anchor="middle" x="378" y="-364" font-family="Helvetica" font-size="10.00">B1</text>
<text text-anchor="middle" x="378" y="-353" font-family="Helvetica" font-size="10.00">Loop: &lt;none&gt;</text>
<text text-anchor="middle" x="378" y="-342" font-family="Helvetica" font-size="10.00">&#45;&#45;&#45;</text>
<text text-anchor="middle" x="378" y="-331" font-family="Helvetica" font-size="10.00">HotSpotMethod&lt;Integer.valueOf(int)&gt;</text>
</g>
<!-- b0&#45;&gt;b1 -->
<g id="edge1" class="edge">
<title>b0&#45;&gt;b1</title>
<path fill="none" stroke="black" d="M180.32,-303.92C211.36,-311.2 246.35,-319.39 278.12,-326.84"/>
<polygon fill="black" stroke="black" points="277.34,-330.25 287.87,-329.12 278.93,-323.43 277.34,-330.25"/>
</g>
<!-- b2 -->
<g id="node3" class="node">
<title>b2</title>
<polygon fill="white" stroke="black" points="468,-247 288,-247 288,-195 468,-195 468,-247"/>
<text text-anchor="middle" x="378" y="-235" font-family="Helvetica" font-size="10.00">B2</text>
<text text-anchor="middle" x="378" y="-224" font-family="Helvetica" font-size="10.00">Loop: &lt;none&gt;</text>
<text text-anchor="middle" x="378" y="-213" font-family="Helvetica" font-size="10.00">&#45;&#45;&#45;</text>
<text text-anchor="middle" x="378" y="-202" font-family="Helvetica" font-size="10.00">HotSpotMethod&lt;Integer.valueOf(int)&gt;</text>
</g>
<!-- b0&#45;&gt;b2 -->
<g id="edge2" class="edge">
<title>b0&#45;&gt;b2</title>
<path fill="none" stroke="black" d="M180.32,-263.64C211.23,-256.94 246.05,-249.39 277.71,-242.52"/>
<polygon fill="black" stroke="black" points="278.84,-245.86 287.87,-240.32 277.36,-239.02 278.84,-245.86"/>
</g>
<!-- b4 -->
<g id="node5" class="node">
<title>b4</title>
<polygon fill="white" stroke="black" points="1933.5,-347 1753.5,-347 1753.5,-295 1933.5,-295 1933.5,-347"/>
<text text-anchor="middle" x="1843.5" y="-335" font-family="Helvetica" font-size="10.00">B4</text>
<text text-anchor="middle" x="1843.5" y="-324" font-family="Helvetica" font-size="10.00">Loop: &lt;none&gt;</text>
<text text-anchor="middle" x="1843.5" y="-313" font-family="Helvetica" font-size="10.00">&#45;&#45;&#45;</text>
<text text-anchor="middle" x="1843.5" y="-302" font-family="Helvetica" font-size="10.00">HotSpotMethod&lt;Integer.valueOf(int)&gt;</text>
</g>
<!-- b1&#45;&gt;b4 -->
<g id="edge3" class="edge">
<title>b1&#45;&gt;b4</title>
<path fill="none" stroke="black" d="M468.07,-348.23C726.06,-343.12 1472.66,-328.33 1743.15,-322.97"/>
<polygon fill="black" stroke="black" points="1743.42,-326.46 1753.35,-322.77 1743.28,-319.47 1743.42,-326.46"/>
</g>
<!-- b3 -->
<g id="node4" class="node">
<title>b3</title>
<polygon fill="white" stroke="black" points="1052.5,-247 872.5,-247 872.5,-195 1052.5,-195 1052.5,-247"/>
<text text-anchor="middle" x="962.5" y="-235" font-family="Helvetica" font-size="10.00">B3</text>
<text text-anchor="middle" x="962.5" y="-224" font-family="Helvetica" font-size="10.00">Loop: &lt;none&gt;</text>
<text text-anchor="middle" x="962.5" y="-213" font-family="Helvetica" font-size="10.00">&#45;&#45;&#45;</text>
<text text-anchor="middle" x="962.5" y="-202" font-family="Helvetica" font-size="10.00">HotSpotMethod&lt;Integer.valueOf(int)&gt;</text>
</g>
<!-- b2&#45;&gt;b3 -->
<g id="edge4" class="edge">
<title>b2&#45;&gt;b3</title>
<path fill="none" stroke="black" d="M468.1,-221C574.42,-221 751.64,-221 862.25,-221"/>
<polygon fill="black" stroke="black" points="862.41,-224.5 872.41,-221 862.41,-217.5 862.41,-224.5"/>
</g>
<!-- b5 -->
<g id="node6" class="node">
<title>b5</title>
<polygon fill="white" stroke="black" points="1349,-122.5 576,-122.5 576,-59.5 1349,-59.5 1349,-122.5"/>
<text text-anchor="middle" x="962.5" y="-110.5" font-family="Helvetica" font-size="10.00">B5</text>
<text text-anchor="middle" x="962.5" y="-99.5" font-family="Helvetica" font-size="10.00">Loop: &lt;none&gt;</text>
<text text-anchor="middle" x="962.5" y="-88.5" font-family="Helvetica" font-size="10.00">&#45;&#45;&#45;</text>
<text text-anchor="middle" x="962.5" y="-77.5" font-family="Helvetica" font-size="10.00">HotSpotMethod&lt;Integer.valueOf(int)&gt;</text>
<text text-anchor="middle" x="962.5" y="-66.5" font-family="Helvetica" font-size="10.00">SnippetResolvedJavaMethod{name=&#39;allocateInstance&#39;, type=SnippetResolvedJavaType{javaClass=class jdk.graal.compiler.hotspot.replacements.HotSpotAllocationSnippets}}</text>
</g>
<!-- b2&#45;&gt;b5 -->
<g id="edge5" class="edge">
<title>b2&#45;&gt;b5</title>
<path fill="none" stroke="black" d="M453.66,-194.98C490.22,-182.89 535.08,-169 576,-159 630.03,-145.79 688.9,-134.08 744.01,-124.26"/>
<polygon fill="black" stroke="black" points="744.66,-127.7 753.9,-122.51 743.44,-120.8 744.66,-127.7"/>
</g>
<!-- b3&#45;&gt;b4 -->
<g id="edge6" class="edge">
<title>b3&#45;&gt;b4</title>
<path fill="none" stroke="black" d="M1052.62,-231.14C1217.91,-249.94 1570.82,-290.09 1743.38,-309.72"/>
<polygon fill="black" stroke="black" points="1743.14,-313.22 1753.47,-310.87 1743.93,-306.26 1743.14,-313.22"/>
</g>
<!-- b6 -->
<g id="node7" class="node">
<title>b6</title>
<polygon fill="white" stroke="black" points="2230,-187.5 1457,-187.5 1457,-124.5 2230,-124.5 2230,-187.5"/>
<text text-anchor="middle" x="1843.5" y="-175.5" font-family="Helvetica" font-size="10.00">B6</text>
<text text-anchor="middle" x="1843.5" y="-164.5" font-family="Helvetica" font-size="10.00">Loop: &lt;none&gt;</text>
<text text-anchor="middle" x="1843.5" y="-153.5" font-family="Helvetica" font-size="10.00">&#45;&#45;&#45;</text>
<text text-anchor="middle" x="1843.5" y="-142.5" font-family="Helvetica" font-size="10.00">SnippetResolvedJavaMethod{name=&#39;allocateInstance&#39;, type=SnippetResolvedJavaType{javaClass=class jdk.graal.compiler.hotspot.replacements.HotSpotAllocationSnippets}}</text>
<text text-anchor="middle" x="1843.5" y="-131.5" font-family="Helvetica" font-size="10.00">HotSpotMethod&lt;Integer.valueOf(int)&gt;</text>
</g>
<!-- b5&#45;&gt;b6 -->
<g id="edge7" class="edge">
<title>b5&#45;&gt;b6</title>
<path fill="none" stroke="black" d="M1349.04,-119.51C1381.44,-121.91 1414.24,-124.33 1446.71,-126.73"/>
<polygon fill="black" stroke="black" points="1446.54,-130.23 1456.78,-127.48 1447.06,-123.25 1446.54,-130.23"/>
</g>
<!-- b7 -->
<g id="node8" class="node">
<title>b7</title>
<polygon fill="white" stroke="black" points="2230,-52 1457,-52 1457,0 2230,0 2230,-52"/>
<text text-anchor="middle" x="1843.5" y="-40" font-family="Helvetica" font-size="10.00">B7</text>
<text text-anchor="middle" x="1843.5" y="-29" font-family="Helvetica" font-size="10.00">Loop: &lt;none&gt;</text>
<text text-anchor="middle" x="1843.5" y="-18" font-family="Helvetica" font-size="10.00">&#45;&#45;&#45;</text>
<text text-anchor="middle" x="1843.5" y="-7" font-family="Helvetica" font-size="10.00">SnippetResolvedJavaMethod{name=&#39;allocateInstance&#39;, type=SnippetResolvedJavaType{javaClass=class jdk.graal.compiler.hotspot.replacements.HotSpotAllocationSnippets}}</text>
</g>
<!-- b5&#45;&gt;b7 -->
<g id="edge8" class="edge">
<title>b5&#45;&gt;b7</title>
<path fill="none" stroke="black" d="M1349.04,-62.49C1392.8,-59.25 1437.28,-55.96 1480.72,-52.75"/>
<polygon fill="black" stroke="black" points="1481.13,-56.23 1490.85,-52 1480.62,-49.25 1481.13,-56.23"/>
</g>
<!-- b8 -->
<g id="node9" class="node">
<title>b8</title>
<polygon fill="white" stroke="black" points="3111,-122.5 2338,-122.5 2338,-59.5 3111,-59.5 3111,-122.5"/>
<text text-anchor="middle" x="2724.5" y="-110.5" font-family="Helvetica" font-size="10.00">B8</text>
<text text-anchor="middle" x="2724.5" y="-99.5" font-family="Helvetica" font-size="10.00">Loop: &lt;none&gt;</text>
<text text-anchor="middle" x="2724.5" y="-88.5" font-family="Helvetica" font-size="10.00">&#45;&#45;&#45;</text>
<text text-anchor="middle" x="2724.5" y="-77.5" font-family="Helvetica" font-size="10.00">SnippetResolvedJavaMethod{name=&#39;allocateInstance&#39;, type=SnippetResolvedJavaType{javaClass=class jdk.graal.compiler.hotspot.replacements.HotSpotAllocationSnippets}}</text>
<text text-anchor="middle" x="2724.5" y="-66.5" font-family="Helvetica" font-size="10.00">HotSpotMethod&lt;Integer.valueOf(int)&gt;</text>
</g>
<!-- b6&#45;&gt;b8 -->
<g id="edge9" class="edge">
<title>b6&#45;&gt;b8</title>
<path fill="none" stroke="black" d="M2230.04,-127.49C2262.44,-125.09 2295.24,-122.67 2327.71,-120.27"/>
<polygon fill="black" stroke="black" points="2328.06,-123.75 2337.78,-119.52 2327.54,-116.77 2328.06,-123.75"/>
</g>
<!-- b7&#45;&gt;b8 -->
<g id="edge10" class="edge">
<title>b7&#45;&gt;b8</title>
<path fill="none" stroke="black" d="M2196.33,-52.02C2239.44,-55.21 2283.74,-58.48 2327.45,-61.71"/>
<polygon fill="black" stroke="black" points="2327.42,-65.22 2337.65,-62.47 2327.94,-58.24 2327.42,-65.22"/>
</g>
</g>
</svg>
