<?xml version="1.0" encoding="UTF-8" standalone="no"?>
<!DOCTYPE svg PUBLIC "-//W3C//DTD SVG 1.1//EN"
 "http://www.w3.org/Graphics/SVG/1.1/DTD/svg11.dtd">
<!-- Generated by graphviz version 2.44.0 (0)
 -->
<!-- Title: CFG_120 Pages: 1 -->
<svg width="10031pt" height="944pt"
 viewBox="0.00 0.00 10031.00 943.84" xmlns="http://www.w3.org/2000/svg" xmlns:xlink="http://www.w3.org/1999/xlink">
<g id="graph0" class="graph" transform="scale(1 1) rotate(0) translate(4 939.84)">
<title>CFG_120</title>
<polygon fill="white" stroke="transparent" points="-4,4 -4,-939.84 10027,-939.84 10027,4 -4,4"/>
<text text-anchor="middle" x="125" y="-915.84" font-family="Times-Roman" font-size="20.00">174&#45;Sieve.benchmark()</text>
<!-- b0 -->
<g id="node1" class="node">
<title>b0</title>
<polygon fill="white" stroke="black" points="758,-840.84 0,-840.84 0,-777.84 758,-777.84 758,-840.84"/>
<text text-anchor="middle" x="379" y="-828.84" font-family="Helvetica" font-size="10.00">B0</text>
<text text-anchor="middle" x="379" y="-817.84" font-family="Helvetica" font-size="10.00">Loop: &lt;none&gt;</text>
<text text-anchor="middle" x="379" y="-806.84" font-family="Helvetica" font-size="10.00">&#45;&#45;&#45;</text>
<text text-anchor="middle" x="379" y="-795.84" font-family="Helvetica" font-size="10.00">SnippetResolvedJavaMethod{name=&#39;allocateArray&#39;, type=SnippetResolvedJavaType{javaClass=class jdk.graal.compiler.hotspot.replacements.HotSpotAllocationSnippets}}</text>
<text text-anchor="middle" x="379" y="-784.84" font-family="Helvetica" font-size="10.00">HotSpotMethod&lt;Sieve.benchmark()&gt;</text>
</g>
<!-- b1 -->
<g id="node2" class="node">
<title>b1</title>
<polygon fill="white" stroke="black" points="1624,-905.84 866,-905.84 866,-842.84 1624,-842.84 1624,-905.84"/>
<text text-anchor="middle" x="1245" y="-893.84" font-family="Helvetica" font-size="10.00">B1</text>
<text text-anchor="middle" x="1245" y="-882.84" font-family="Helvetica" font-size="10.00">Loop: &lt;none&gt;</text>
<text text-anchor="middle" x="1245" y="-871.84" font-family="Helvetica" font-size="10.00">&#45;&#45;&#45;</text>
<text text-anchor="middle" x="1245" y="-860.84" font-family="Helvetica" font-size="10.00">SnippetResolvedJavaMethod{name=&#39;allocateArray&#39;, type=SnippetResolvedJavaType{javaClass=class jdk.graal.compiler.hotspot.replacements.HotSpotAllocationSnippets}}</text>
<text text-anchor="middle" x="1245" y="-849.84" font-family="Helvetica" font-size="10.00">HotSpotMethod&lt;Sieve.benchmark()&gt;</text>
</g>
<!-- b0&#45;&gt;b1 -->
<g id="edge1" class="edge">
<title>b0&#45;&gt;b1</title>
<path fill="none" stroke="black" d="M758.02,-837.78C790.41,-840.22 823.22,-842.69 855.69,-845.13"/>
<polygon fill="black" stroke="black" points="855.53,-848.63 865.76,-845.89 856.05,-841.65 855.53,-848.63"/>
</g>
<!-- b2 -->
<g id="node3" class="node">
<title>b2</title>
<polygon fill="white" stroke="black" points="1624,-770.34 866,-770.34 866,-718.34 1624,-718.34 1624,-770.34"/>
<text text-anchor="middle" x="1245" y="-758.34" font-family="Helvetica" font-size="10.00">B2</text>
<text text-anchor="middle" x="1245" y="-747.34" font-family="Helvetica" font-size="10.00">Loop: &lt;none&gt;</text>
<text text-anchor="middle" x="1245" y="-736.34" font-family="Helvetica" font-size="10.00">&#45;&#45;&#45;</text>
<text text-anchor="middle" x="1245" y="-725.34" font-family="Helvetica" font-size="10.00">SnippetResolvedJavaMethod{name=&#39;allocateArray&#39;, type=SnippetResolvedJavaType{javaClass=class jdk.graal.compiler.hotspot.replacements.HotSpotAllocationSnippets}}</text>
</g>
<!-- b0&#45;&gt;b2 -->
<g id="edge2" class="edge">
<title>b0&#45;&gt;b2</title>
<path fill="none" stroke="black" d="M758.02,-780.9C801.29,-777.65 845.29,-774.34 888.26,-771.11"/>
<polygon fill="black" stroke="black" points="888.57,-774.59 898.28,-770.35 888.04,-767.61 888.57,-774.59"/>
</g>
<!-- b3 -->
<g id="node4" class="node">
<title>b3</title>
<polygon fill="white" stroke="black" points="2490,-840.84 1732,-840.84 1732,-777.84 2490,-777.84 2490,-840.84"/>
<text text-anchor="middle" x="2111" y="-828.84" font-family="Helvetica" font-size="10.00">B3</text>
<text text-anchor="middle" x="2111" y="-817.84" font-family="Helvetica" font-size="10.00">Loop: &lt;none&gt;</text>
<text text-anchor="middle" x="2111" y="-806.84" font-family="Helvetica" font-size="10.00">&#45;&#45;&#45;</text>
<text text-anchor="middle" x="2111" y="-795.84" font-family="Helvetica" font-size="10.00">SnippetResolvedJavaMethod{name=&#39;allocateArray&#39;, type=SnippetResolvedJavaType{javaClass=class jdk.graal.compiler.hotspot.replacements.HotSpotAllocationSnippets}}</text>
<text text-anchor="middle" x="2111" y="-784.84" font-family="Helvetica" font-size="10.00">HotSpotMethod&lt;Arrays.fill(boolean[], boolean)&gt;</text>
</g>
<!-- b1&#45;&gt;b3 -->
<g id="edge3" class="edge">
<title>b1&#45;&gt;b3</title>
<path fill="none" stroke="black" d="M1624.02,-845.9C1656.41,-843.47 1689.22,-841 1721.69,-838.56"/>
<polygon fill="black" stroke="black" points="1722.05,-842.04 1731.76,-837.8 1721.53,-835.06 1722.05,-842.04"/>
</g>
<!-- b2&#45;&gt;b3 -->
<g id="edge4" class="edge">
<title>b2&#45;&gt;b3</title>
<path fill="none" stroke="black" d="M1591.82,-770.36C1634.53,-773.57 1678.41,-776.87 1721.7,-780.13"/>
<polygon fill="black" stroke="black" points="1721.57,-783.63 1731.81,-780.89 1722.1,-776.65 1721.57,-783.63"/>
</g>
<!-- b4 -->
<g id="node5" class="node">
<title>b4</title>
<polygon fill="lightblue" stroke="black" points="2862,-835.34 2598,-835.34 2598,-783.34 2862,-783.34 2862,-835.34"/>
<text text-anchor="middle" x="2730" y="-823.34" font-family="Helvetica" font-size="10.00">B4</text>
<text text-anchor="middle" x="2730" y="-812.34" font-family="Helvetica" font-size="10.00">Loop: L0</text>
<text text-anchor="middle" x="2730" y="-801.34" font-family="Helvetica" font-size="10.00">&#45;&#45;&#45;</text>
<text text-anchor="middle" x="2730" y="-790.34" font-family="Helvetica" font-size="10.00">HotSpotMethod&lt;BuboAgentCompilerMarkers.Marker0()&gt;</text>
</g>
<!-- b3&#45;&gt;b4 -->
<g id="edge5" class="edge">
<title>b3&#45;&gt;b4</title>
<path fill="none" stroke="black" d="M2490.01,-809.34C2524.46,-809.34 2557.69,-809.34 2587.86,-809.34"/>
<polygon fill="black" stroke="black" points="2587.97,-812.84 2597.97,-809.34 2587.97,-805.84 2587.97,-812.84"/>
</g>
<!-- b5 -->
<g id="node6" class="node">
<title>b5</title>
<polygon fill="lightblue" stroke="black" points="3234,-835.34 2970,-835.34 2970,-783.34 3234,-783.34 3234,-835.34"/>
<text text-anchor="middle" x="3102" y="-823.34" font-family="Helvetica" font-size="10.00">B5</text>
<text text-anchor="middle" x="3102" y="-812.34" font-family="Helvetica" font-size="10.00">Loop: L0</text>
<text text-anchor="middle" x="3102" y="-801.34" font-family="Helvetica" font-size="10.00">&#45;&#45;&#45;</text>
<text text-anchor="middle" x="3102" y="-790.34" font-family="Helvetica" font-size="10.00">HotSpotMethod&lt;BuboAgentCompilerMarkers.Marker0()&gt;</text>
</g>
<!-- b4&#45;&gt;b5 -->
<g id="edge6" class="edge">
<title>b4&#45;&gt;b5</title>
<path fill="none" stroke="black" d="M2862.23,-783.38C2893.73,-782.13 2927.51,-782.01 2959.46,-783.02"/>
<polygon fill="black" stroke="black" points="2959.64,-786.52 2969.76,-783.38 2959.89,-779.53 2959.64,-786.52"/>
</g>
<!-- b6 -->
<g id="node7" class="node">
<title>b6</title>
<polygon fill="white" stroke="black" points="3214,-711.34 2990,-711.34 2990,-659.34 3214,-659.34 3214,-711.34"/>
<text text-anchor="middle" x="3102" y="-699.34" font-family="Helvetica" font-size="10.00">B6</text>
<text text-anchor="middle" x="3102" y="-688.34" font-family="Helvetica" font-size="10.00">Loop: &lt;none&gt;</text>
<text text-anchor="middle" x="3102" y="-677.34" font-family="Helvetica" font-size="10.00">&#45;&#45;&#45;</text>
<text text-anchor="middle" x="3102" y="-666.34" font-family="Helvetica" font-size="10.00">HotSpotMethod&lt;Arrays.fill(boolean[], boolean)&gt;</text>
</g>
<!-- b4&#45;&gt;b6 -->
<g id="edge7" class="edge">
<title>b4&#45;&gt;b6</title>
<path fill="none" stroke="black" d="M2809.02,-783.2C2868.89,-763.13 2951.54,-735.43 3013.63,-714.62"/>
<polygon fill="black" stroke="black" points="3015.04,-717.84 3023.41,-711.35 3012.82,-711.2 3015.04,-717.84"/>
</g>
<!-- b5&#45;&gt;b4 -->
<g id="edge8" class="edge">
<title>b5&#45;&gt;b4</title>
<path fill="none" stroke="black" d="M2969.76,-835.3C2938.26,-836.55 2904.48,-836.68 2872.53,-835.67"/>
<polygon fill="black" stroke="black" points="2872.35,-832.16 2862.23,-835.3 2872.1,-839.16 2872.35,-832.16"/>
</g>
<!-- b7 -->
<g id="node8" class="node">
<title>b7</title>
<polygon fill="lightgreen" stroke="black" points="3606,-711.34 3342,-711.34 3342,-659.34 3606,-659.34 3606,-711.34"/>
<text text-anchor="middle" x="3474" y="-699.34" font-family="Helvetica" font-size="10.00">B7</text>
<text text-anchor="middle" x="3474" y="-688.34" font-family="Helvetica" font-size="10.00">Loop: L1</text>
<text text-anchor="middle" x="3474" y="-677.34" font-family="Helvetica" font-size="10.00">&#45;&#45;&#45;</text>
<text text-anchor="middle" x="3474" y="-666.34" font-family="Helvetica" font-size="10.00">HotSpotMethod&lt;BuboAgentCompilerMarkers.Marker3()&gt;</text>
</g>
<!-- b6&#45;&gt;b7 -->
<g id="edge9" class="edge">
<title>b6&#45;&gt;b7</title>
<path fill="none" stroke="black" d="M3214.01,-685.34C3250.94,-685.34 3292.58,-685.34 3331.5,-685.34"/>
<polygon fill="black" stroke="black" points="3331.86,-688.84 3341.86,-685.34 3331.86,-681.84 3331.86,-688.84"/>
</g>
<!-- b8 -->
<g id="node9" class="node">
<title>b8</title>
<polygon fill="lightgreen" stroke="black" points="3978,-711.34 3714,-711.34 3714,-659.34 3978,-659.34 3978,-711.34"/>
<text text-anchor="middle" x="3846" y="-699.34" font-family="Helvetica" font-size="10.00">B8</text>
<text text-anchor="middle" x="3846" y="-688.34" font-family="Helvetica" font-size="10.00">Loop: L1</text>
<text text-anchor="middle" x="3846" y="-677.34" font-family="Helvetica" font-size="10.00">&#45;&#45;&#45;</text>
<text text-anchor="middle" x="3846" y="-666.34" font-family="Helvetica" font-size="10.00">HotSpotMethod&lt;BuboAgentCompilerMarkers.Marker3()&gt;</text>
</g>
<!-- b7&#45;&gt;b8 -->
<g id="edge10" class="edge">
<title>b7&#45;&gt;b8</title>
<path fill="none" stroke="black" d="M3606.23,-659.38C3637.73,-658.13 3671.51,-658.01 3703.46,-659.02"/>
<polygon fill="black" stroke="black" points="3703.64,-662.52 3713.76,-659.38 3703.89,-655.53 3703.64,-662.52"/>
</g>
<!-- b9 -->
<g id="node10" class="node">
<title>b9</title>
<polygon fill="white" stroke="black" points="3958,-587.34 3734,-587.34 3734,-535.34 3958,-535.34 3958,-587.34"/>
<text text-anchor="middle" x="3846" y="-575.34" font-family="Helvetica" font-size="10.00">B9</text>
<text text-anchor="middle" x="3846" y="-564.34" font-family="Helvetica" font-size="10.00">Loop: &lt;none&gt;</text>
<text text-anchor="middle" x="3846" y="-553.34" font-family="Helvetica" font-size="10.00">&#45;&#45;&#45;</text>
<text text-anchor="middle" x="3846" y="-542.34" font-family="Helvetica" font-size="10.00">HotSpotMethod&lt;Arrays.fill(boolean[], boolean)&gt;</text>
</g>
<!-- b7&#45;&gt;b9 -->
<g id="edge11" class="edge">
<title>b7&#45;&gt;b9</title>
<path fill="none" stroke="black" d="M3553.02,-659.2C3612.89,-639.13 3695.54,-611.43 3757.63,-590.62"/>
<polygon fill="black" stroke="black" points="3759.04,-593.84 3767.41,-587.35 3756.82,-587.2 3759.04,-593.84"/>
</g>
<!-- b8&#45;&gt;b7 -->
<g id="edge12" class="edge">
<title>b8&#45;&gt;b7</title>
<path fill="none" stroke="black" d="M3713.76,-711.3C3682.26,-712.55 3648.48,-712.68 3616.53,-711.67"/>
<polygon fill="black" stroke="black" points="3616.35,-708.16 3606.23,-711.3 3616.1,-715.16 3616.35,-708.16"/>
</g>
<!-- b10 -->
<g id="node11" class="node">
<title>b10</title>
<polygon fill="lightpink" stroke="black" points="4350,-587.34 4086,-587.34 4086,-535.34 4350,-535.34 4350,-587.34"/>
<text text-anchor="middle" x="4218" y="-575.34" font-family="Helvetica" font-size="10.00">B10</text>
<text text-anchor="middle" x="4218" y="-564.34" font-family="Helvetica" font-size="10.00">Loop: L2</text>
<text text-anchor="middle" x="4218" y="-553.34" font-family="Helvetica" font-size="10.00">&#45;&#45;&#45;</text>
<text text-anchor="middle" x="4218" y="-542.34" font-family="Helvetica" font-size="10.00">HotSpotMethod&lt;BuboAgentCompilerMarkers.Marker4()&gt;</text>
</g>
<!-- b9&#45;&gt;b10 -->
<g id="edge13" class="edge">
<title>b9&#45;&gt;b10</title>
<path fill="none" stroke="black" d="M3958.01,-561.34C3994.94,-561.34 4036.58,-561.34 4075.5,-561.34"/>
<polygon fill="black" stroke="black" points="4075.86,-564.84 4085.86,-561.34 4075.86,-557.84 4075.86,-564.84"/>
</g>
<!-- b11 -->
<g id="node12" class="node">
<title>b11</title>
<polygon fill="lightpink" stroke="black" points="4722,-587.34 4458,-587.34 4458,-535.34 4722,-535.34 4722,-587.34"/>
<text text-anchor="middle" x="4590" y="-575.34" font-family="Helvetica" font-size="10.00">B11</text>
<text text-anchor="middle" x="4590" y="-564.34" font-family="Helvetica" font-size="10.00">Loop: L2</text>
<text text-anchor="middle" x="4590" y="-553.34" font-family="Helvetica" font-size="10.00">&#45;&#45;&#45;</text>
<text text-anchor="middle" x="4590" y="-542.34" font-family="Helvetica" font-size="10.00">HotSpotMethod&lt;BuboAgentCompilerMarkers.Marker4()&gt;</text>
</g>
<!-- b10&#45;&gt;b11 -->
<g id="edge14" class="edge">
<title>b10&#45;&gt;b11</title>
<path fill="none" stroke="black" d="M4350.23,-535.38C4381.73,-534.13 4415.51,-534.01 4447.46,-535.02"/>
<polygon fill="black" stroke="black" points="4447.64,-538.52 4457.76,-535.38 4447.89,-531.53 4447.64,-538.52"/>
</g>
<!-- b12 -->
<g id="node13" class="node">
<title>b12</title>
<polygon fill="white" stroke="black" points="4702,-462.84 4478,-462.84 4478,-399.84 4702,-399.84 4702,-462.84"/>
<text text-anchor="middle" x="4590" y="-450.84" font-family="Helvetica" font-size="10.00">B12</text>
<text text-anchor="middle" x="4590" y="-439.84" font-family="Helvetica" font-size="10.00">Loop: &lt;none&gt;</text>
<text text-anchor="middle" x="4590" y="-428.84" font-family="Helvetica" font-size="10.00">&#45;&#45;&#45;</text>
<text text-anchor="middle" x="4590" y="-417.84" font-family="Helvetica" font-size="10.00">HotSpotMethod&lt;Arrays.fill(boolean[], boolean)&gt;</text>
<text text-anchor="middle" x="4590" y="-406.84" font-family="Helvetica" font-size="10.00">HotSpotMethod&lt;Sieve.sieve(boolean[], int)&gt;</text>
</g>
<!-- b10&#45;&gt;b12 -->
<g id="edge15" class="edge">
<title>b10&#45;&gt;b12</title>
<path fill="none" stroke="black" d="M4293.43,-535.19C4349.82,-515.38 4427.85,-487.96 4489.58,-466.27"/>
<polygon fill="black" stroke="black" points="4491.07,-469.46 4499.34,-462.84 4488.75,-462.86 4491.07,-469.46"/>
</g>
<!-- b11&#45;&gt;b10 -->
<g id="edge16" class="edge">
<title>b11&#45;&gt;b10</title>
<path fill="none" stroke="black" d="M4457.76,-587.3C4426.26,-588.55 4392.48,-588.68 4360.53,-587.67"/>
<polygon fill="black" stroke="black" points="4360.35,-584.16 4350.23,-587.3 4360.1,-591.16 4360.35,-584.16"/>
</g>
<!-- b13 -->
<g id="node14" class="node">
<title>b13</title>
<polygon fill="gold" stroke="black" points="5094,-457.34 4830,-457.34 4830,-405.34 5094,-405.34 5094,-457.34"/>
<text text-anchor="middle" x="4962" y="-445.34" font-family="Helvetica" font-size="10.00">B13</text>
<text text-anchor="middle" x="4962" y="-434.34" font-family="Helvetica" font-size="10.00">Loop: L3</text>
<text text-anchor="middle" x="4962" y="-423.34" font-family="Helvetica" font-size="10.00">&#45;&#45;&#45;</text>
<text text-anchor="middle" x="4962" y="-412.34" font-family="Helvetica" font-size="10.00">HotSpotMethod&lt;BuboAgentCompilerMarkers.Marker1()&gt;</text>
</g>
<!-- b12&#45;&gt;b13 -->
<g id="edge17" class="edge">
<title>b12&#45;&gt;b13</title>
<path fill="none" stroke="black" d="M4702.01,-431.34C4738.94,-431.34 4780.58,-431.34 4819.5,-431.34"/>
<polygon fill="black" stroke="black" points="4819.86,-434.84 4829.86,-431.34 4819.86,-427.84 4819.86,-434.84"/>
</g>
<!-- b14 -->
<g id="node15" class="node">
<title>b14</title>
<polygon fill="gold" stroke="black" points="5665.5,-592.34 5401.5,-592.34 5401.5,-540.34 5665.5,-540.34 5665.5,-592.34"/>
<text text-anchor="middle" x="5533.5" y="-580.34" font-family="Helvetica" font-size="10.00">B14</text>
<text text-anchor="middle" x="5533.5" y="-569.34" font-family="Helvetica" font-size="10.00">Loop: L3</text>
<text text-anchor="middle" x="5533.5" y="-558.34" font-family="Helvetica" font-size="10.00">&#45;&#45;&#45;</text>
<text text-anchor="middle" x="5533.5" y="-547.34" font-family="Helvetica" font-size="10.00">HotSpotMethod&lt;BuboAgentCompilerMarkers.Marker1()&gt;</text>
</g>
<!-- b13&#45;&gt;b14 -->
<g id="edge18" class="edge">
<title>b13&#45;&gt;b14</title>
<path fill="none" stroke="black" d="M5072.81,-457.37C5170.24,-480.47 5312.31,-514.15 5412.66,-537.93"/>
<polygon fill="black" stroke="black" points="5412.01,-541.38 5422.55,-540.28 5413.62,-534.57 5412.01,-541.38"/>
</g>
<!-- b26 -->
<g id="node27" class="node">
<title>b26</title>
<polygon fill="white" stroke="black" points="5865,-322.34 5202,-322.34 5202,-248.34 5865,-248.34 5865,-322.34"/>
<text text-anchor="middle" x="5533.5" y="-310.34" font-family="Helvetica" font-size="10.00">B26</text>
<text text-anchor="middle" x="5533.5" y="-299.34" font-family="Helvetica" font-size="10.00">Loop: &lt;none&gt;</text>
<text text-anchor="middle" x="5533.5" y="-288.34" font-family="Helvetica" font-size="10.00">&#45;&#45;&#45;</text>
<text text-anchor="middle" x="5533.5" y="-277.34" font-family="Helvetica" font-size="10.00">HotSpotMethod&lt;Sieve.sieve(boolean[], int)&gt;</text>
<text text-anchor="middle" x="5533.5" y="-266.34" font-family="Helvetica" font-size="10.00">HotSpotMethod&lt;Integer.valueOf(int)&gt;</text>
<text text-anchor="middle" x="5533.5" y="-255.34" font-family="Helvetica" font-size="10.00">SnippetResolvedJavaMethod{name=&#39;intValueOf&#39;, type=SnippetResolvedJavaType{javaClass=class jdk.graal.compiler.replacements.BoxingSnippets}}</text>
</g>
<!-- b13&#45;&gt;b26 -->
<g id="edge19" class="edge">
<title>b13&#45;&gt;b26</title>
<path fill="none" stroke="black" d="M5064.49,-405.32C5151.61,-382.99 5278.52,-350.45 5378.21,-324.9"/>
<polygon fill="black" stroke="black" points="5379.26,-328.24 5388.08,-322.37 5377.52,-321.46 5379.26,-328.24"/>
</g>
<!-- b15 -->
<g id="node16" class="node">
<title>b15</title>
<polygon fill="gold" stroke="black" points="6491.5,-722.34 6227.5,-722.34 6227.5,-670.34 6491.5,-670.34 6491.5,-722.34"/>
<text text-anchor="middle" x="6359.5" y="-710.34" font-family="Helvetica" font-size="10.00">B15</text>
<text text-anchor="middle" x="6359.5" y="-699.34" font-family="Helvetica" font-size="10.00">Loop: L3</text>
<text text-anchor="middle" x="6359.5" y="-688.34" font-family="Helvetica" font-size="10.00">&#45;&#45;&#45;</text>
<text text-anchor="middle" x="6359.5" y="-677.34" font-family="Helvetica" font-size="10.00">HotSpotMethod&lt;BuboAgentCompilerMarkers.Marker1()&gt;</text>
</g>
<!-- b14&#45;&gt;b15 -->
<g id="edge20" class="edge">
<title>b14&#45;&gt;b15</title>
<path fill="none" stroke="black" d="M5665.52,-587.01C5816.15,-610.78 6062.48,-649.64 6217.28,-674.06"/>
<polygon fill="black" stroke="black" points="6216.91,-677.55 6227.34,-675.65 6218.01,-670.63 6216.91,-677.55"/>
</g>
<!-- b16 -->
<g id="node17" class="node">
<title>b16</title>
<polygon fill="gold" stroke="black" points="6491.5,-592.34 6227.5,-592.34 6227.5,-540.34 6491.5,-540.34 6491.5,-592.34"/>
<text text-anchor="middle" x="6359.5" y="-580.34" font-family="Helvetica" font-size="10.00">B16</text>
<text text-anchor="middle" x="6359.5" y="-569.34" font-family="Helvetica" font-size="10.00">Loop: L3</text>
<text text-anchor="middle" x="6359.5" y="-558.34" font-family="Helvetica" font-size="10.00">&#45;&#45;&#45;</text>
<text text-anchor="middle" x="6359.5" y="-547.34" font-family="Helvetica" font-size="10.00">HotSpotMethod&lt;BuboAgentCompilerMarkers.Marker1()&gt;</text>
</g>
<!-- b14&#45;&gt;b16 -->
<g id="edge21" class="edge">
<title>b14&#45;&gt;b16</title>
<path fill="none" stroke="black" d="M5665.52,-566.34C5816.15,-566.34 6062.48,-566.34 6217.28,-566.34"/>
<polygon fill="black" stroke="black" points="6217.34,-569.84 6227.34,-566.34 6217.34,-562.84 6217.34,-569.84"/>
</g>
<!-- b15&#45;&gt;b13 -->
<g id="edge22" class="edge">
<title>b15&#45;&gt;b13</title>
<path fill="none" stroke="black" d="M6227.16,-714.23C6006.6,-738.78 5551.64,-765.58 5202,-628.34 5112.81,-593.33 5031.99,-511.61 4991.1,-465.17"/>
<polygon fill="black" stroke="black" points="4993.61,-462.73 4984.41,-457.48 4988.33,-467.33 4993.61,-462.73"/>
</g>
<!-- b17 -->
<g id="node18" class="node">
<title>b17</title>
<polygon fill="gold" stroke="black" points="7372.5,-692.34 7108.5,-692.34 7108.5,-640.34 7372.5,-640.34 7372.5,-692.34"/>
<text text-anchor="middle" x="7240.5" y="-680.34" font-family="Helvetica" font-size="10.00">B17</text>
<text text-anchor="middle" x="7240.5" y="-669.34" font-family="Helvetica" font-size="10.00">Loop: L3</text>
<text text-anchor="middle" x="7240.5" y="-658.34" font-family="Helvetica" font-size="10.00">&#45;&#45;&#45;</text>
<text text-anchor="middle" x="7240.5" y="-647.34" font-family="Helvetica" font-size="10.00">HotSpotMethod&lt;BuboAgentCompilerMarkers.Marker1()&gt;</text>
</g>
<!-- b16&#45;&gt;b17 -->
<g id="edge23" class="edge">
<title>b16&#45;&gt;b17</title>
<path fill="none" stroke="black" d="M6491.62,-581.26C6654.37,-599.77 6930.83,-631.23 7098.17,-650.26"/>
<polygon fill="black" stroke="black" points="7097.96,-653.76 7108.29,-651.42 7098.75,-646.81 7097.96,-653.76"/>
</g>
<!-- b25 -->
<g id="node26" class="node">
<title>b25</title>
<polygon fill="gold" stroke="black" points="7372.5,-568.34 7108.5,-568.34 7108.5,-516.34 7372.5,-516.34 7372.5,-568.34"/>
<text text-anchor="middle" x="7240.5" y="-556.34" font-family="Helvetica" font-size="10.00">B25</text>
<text text-anchor="middle" x="7240.5" y="-545.34" font-family="Helvetica" font-size="10.00">Loop: L3</text>
<text text-anchor="middle" x="7240.5" y="-534.34" font-family="Helvetica" font-size="10.00">&#45;&#45;&#45;</text>
<text text-anchor="middle" x="7240.5" y="-523.34" font-family="Helvetica" font-size="10.00">HotSpotMethod&lt;BuboAgentCompilerMarkers.Marker1()&gt;</text>
</g>
<!-- b16&#45;&gt;b25 -->
<g id="edge24" class="edge">
<title>b16&#45;&gt;b25</title>
<path fill="none" stroke="black" d="M6491.62,-562.76C6654.37,-558.32 6930.83,-550.77 7098.17,-546.2"/>
<polygon fill="black" stroke="black" points="7098.39,-549.7 7108.29,-545.92 7098.2,-542.7 7098.39,-549.7"/>
</g>
<!-- b18 -->
<g id="node19" class="node">
<title>b18</title>
<polygon fill="gold" stroke="black" points="8253.5,-535.34 7989.5,-535.34 7989.5,-483.34 8253.5,-483.34 8253.5,-535.34"/>
<text text-anchor="middle" x="8121.5" y="-523.34" font-family="Helvetica" font-size="10.00">B18</text>
<text text-anchor="middle" x="8121.5" y="-512.34" font-family="Helvetica" font-size="10.00">Loop: L3</text>
<text text-anchor="middle" x="8121.5" y="-501.34" font-family="Helvetica" font-size="10.00">&#45;&#45;&#45;</text>
<text text-anchor="middle" x="8121.5" y="-490.34" font-family="Helvetica" font-size="10.00">HotSpotMethod&lt;BuboAgentCompilerMarkers.Marker1()&gt;</text>
</g>
<!-- b17&#45;&gt;b18 -->
<g id="edge25" class="edge">
<title>b17&#45;&gt;b18</title>
<path fill="none" stroke="black" d="M7372.81,-646.25C7447.44,-634.57 7542.56,-619.26 7627,-604.34 7746.72,-583.2 7882.32,-556.93 7981.04,-537.37"/>
<polygon fill="black" stroke="black" points="7981.95,-540.76 7991.08,-535.38 7980.59,-533.89 7981.95,-540.76"/>
</g>
<!-- b24 -->
<g id="node25" class="node">
<title>b24</title>
<polygon fill="white" stroke="black" points="8226,-692.34 8017,-692.34 8017,-640.34 8226,-640.34 8226,-692.34"/>
<text text-anchor="middle" x="8121.5" y="-680.34" font-family="Helvetica" font-size="10.00">B24</text>
<text text-anchor="middle" x="8121.5" y="-669.34" font-family="Helvetica" font-size="10.00">Loop: &lt;none&gt;</text>
<text text-anchor="middle" x="8121.5" y="-658.34" font-family="Helvetica" font-size="10.00">&#45;&#45;&#45;</text>
<text text-anchor="middle" x="8121.5" y="-647.34" font-family="Helvetica" font-size="10.00">HotSpotMethod&lt;Sieve.sieve(boolean[], int)&gt;</text>
</g>
<!-- b17&#45;&gt;b24 -->
<g id="edge26" class="edge">
<title>b17&#45;&gt;b24</title>
<path fill="none" stroke="black" d="M7372.62,-666.34C7544.66,-666.34 7843.78,-666.34 8006.73,-666.34"/>
<polygon fill="black" stroke="black" points="8006.79,-669.84 8016.79,-666.34 8006.79,-662.84 8006.79,-669.84"/>
</g>
<!-- b19 -->
<g id="node20" class="node">
<title>b19</title>
<polygon fill="orange" stroke="black" points="9079.5,-506.34 8815.5,-506.34 8815.5,-454.34 9079.5,-454.34 9079.5,-506.34"/>
<text text-anchor="middle" x="8947.5" y="-494.34" font-family="Helvetica" font-size="10.00">B19</text>
<text text-anchor="middle" x="8947.5" y="-483.34" font-family="Helvetica" font-size="10.00">Loop: L4</text>
<text text-anchor="middle" x="8947.5" y="-472.34" font-family="Helvetica" font-size="10.00">&#45;&#45;&#45;</text>
<text text-anchor="middle" x="8947.5" y="-461.34" font-family="Helvetica" font-size="10.00">HotSpotMethod&lt;BuboAgentCompilerMarkers.Marker2()&gt;</text>
</g>
<!-- b18&#45;&gt;b19 -->
<g id="edge27" class="edge">
<title>b18&#45;&gt;b19</title>
<path fill="none" stroke="black" d="M8253.52,-504.73C8404.15,-499.43 8650.48,-490.76 8805.28,-485.31"/>
<polygon fill="black" stroke="black" points="8805.47,-488.81 8815.34,-484.96 8805.22,-481.81 8805.47,-488.81"/>
</g>
<!-- b20 -->
<g id="node21" class="node">
<title>b20</title>
<polygon fill="orange" stroke="black" points="9651,-573.34 9387,-573.34 9387,-521.34 9651,-521.34 9651,-573.34"/>
<text text-anchor="middle" x="9519" y="-561.34" font-family="Helvetica" font-size="10.00">B20</text>
<text text-anchor="middle" x="9519" y="-550.34" font-family="Helvetica" font-size="10.00">Loop: L4</text>
<text text-anchor="middle" x="9519" y="-539.34" font-family="Helvetica" font-size="10.00">&#45;&#45;&#45;</text>
<text text-anchor="middle" x="9519" y="-528.34" font-family="Helvetica" font-size="10.00">HotSpotMethod&lt;BuboAgentCompilerMarkers.Marker2()&gt;</text>
</g>
<!-- b19&#45;&gt;b20 -->
<g id="edge28" class="edge">
<title>b19&#45;&gt;b20</title>
<path fill="none" stroke="black" d="M9079.51,-495.76C9168.31,-506.2 9285.6,-520 9376.52,-530.7"/>
<polygon fill="black" stroke="black" points="9376.3,-534.2 9386.64,-531.89 9377.11,-527.24 9376.3,-534.2"/>
</g>
<!-- b22 -->
<g id="node23" class="node">
<title>b22</title>
<polygon fill="gold" stroke="black" points="9651,-300.34 9387,-300.34 9387,-248.34 9651,-248.34 9651,-300.34"/>
<text text-anchor="middle" x="9519" y="-288.34" font-family="Helvetica" font-size="10.00">B22</text>
<text text-anchor="middle" x="9519" y="-277.34" font-family="Helvetica" font-size="10.00">Loop: L3</text>
<text text-anchor="middle" x="9519" y="-266.34" font-family="Helvetica" font-size="10.00">&#45;&#45;&#45;</text>
<text text-anchor="middle" x="9519" y="-255.34" font-family="Helvetica" font-size="10.00">HotSpotMethod&lt;BuboAgentCompilerMarkers.Marker1()&gt;</text>
</g>
<!-- b19&#45;&gt;b22 -->
<g id="edge29" class="edge">
<title>b19&#45;&gt;b22</title>
<path fill="none" stroke="black" d="M9020.63,-454.25C9126.93,-415.8 9325.07,-344.13 9436.49,-303.83"/>
<polygon fill="black" stroke="black" points="9437.8,-307.08 9446.01,-300.38 9435.42,-300.49 9437.8,-307.08"/>
</g>
<!-- b21 -->
<g id="node22" class="node">
<title>b21</title>
<polygon fill="orange" stroke="black" points="10023,-444.34 9759,-444.34 9759,-392.34 10023,-392.34 10023,-444.34"/>
<text text-anchor="middle" x="9891" y="-432.34" font-family="Helvetica" font-size="10.00">B21</text>
<text text-anchor="middle" x="9891" y="-421.34" font-family="Helvetica" font-size="10.00">Loop: L4</text>
<text text-anchor="middle" x="9891" y="-410.34" font-family="Helvetica" font-size="10.00">&#45;&#45;&#45;</text>
<text text-anchor="middle" x="9891" y="-399.34" font-family="Helvetica" font-size="10.00">HotSpotMethod&lt;BuboAgentCompilerMarkers.Marker2()&gt;</text>
</g>
<!-- b20&#45;&gt;b21 -->
<g id="edge30" class="edge">
<title>b20&#45;&gt;b21</title>
<path fill="none" stroke="black" d="M9594.88,-521.24C9655.93,-499.95 9742.16,-469.89 9805.65,-447.75"/>
<polygon fill="black" stroke="black" points="9806.95,-451.01 9815.24,-444.41 9804.64,-444.4 9806.95,-451.01"/>
</g>
<!-- b23 -->
<g id="node24" class="node">
<title>b23</title>
<polygon fill="white" stroke="black" points="9995.5,-573.34 9786.5,-573.34 9786.5,-521.34 9995.5,-521.34 9995.5,-573.34"/>
<text text-anchor="middle" x="9891" y="-561.34" font-family="Helvetica" font-size="10.00">B23</text>
<text text-anchor="middle" x="9891" y="-550.34" font-family="Helvetica" font-size="10.00">Loop: &lt;none&gt;</text>
<text text-anchor="middle" x="9891" y="-539.34" font-family="Helvetica" font-size="10.00">&#45;&#45;&#45;</text>
<text text-anchor="middle" x="9891" y="-528.34" font-family="Helvetica" font-size="10.00">HotSpotMethod&lt;Sieve.sieve(boolean[], int)&gt;</text>
</g>
<!-- b20&#45;&gt;b23 -->
<g id="edge31" class="edge">
<title>b20&#45;&gt;b23</title>
<path fill="none" stroke="black" d="M9651.23,-547.34C9692.04,-547.34 9736.68,-547.34 9776.2,-547.34"/>
<polygon fill="black" stroke="black" points="9776.4,-550.84 9786.4,-547.34 9776.4,-543.84 9776.4,-550.84"/>
</g>
<!-- b21&#45;&gt;b19 -->
<g id="edge32" class="edge">
<title>b21&#45;&gt;b19</title>
<path fill="none" stroke="black" d="M9758.84,-426.98C9582.78,-438.57 9271.25,-459.09 9090.04,-471.02"/>
<polygon fill="black" stroke="black" points="9089.66,-467.54 9079.91,-471.69 9090.12,-474.52 9089.66,-467.54"/>
</g>
<!-- b22&#45;&gt;b13 -->
<g id="edge33" class="edge">
<title>b22&#45;&gt;b13</title>
<path fill="none" stroke="black" d="M9478.44,-248.26C9432.51,-219.33 9353.5,-173.66 9279,-150.34 8784.42,4.48 8640.75,-1.34 8122.5,-1.34 6358.5,-1.34 6358.5,-1.34 6358.5,-1.34 5836.02,-1.34 5669.92,20.13 5202,-212.34 5111.05,-257.53 5029.57,-347.83 4989.39,-397.19"/>
<polygon fill="black" stroke="black" points="4986.62,-395.05 4983.08,-405.04 4992.07,-399.44 4986.62,-395.05"/>
</g>
<!-- b25&#45;&gt;b13 -->
<g id="edge34" class="edge">
<title>b25&#45;&gt;b13</title>
<path fill="none" stroke="black" d="M7108.41,-530.96C7009.01,-522.64 6868.99,-511.59 6746,-504.34 6135.36,-468.34 5406.03,-444.45 5104.33,-435.4"/>
<polygon fill="black" stroke="black" points="5104.32,-431.9 5094.22,-435.1 5104.11,-438.9 5104.32,-431.9"/>
</g>
<!-- b27 -->
<g id="node28" class="node">
<title>b27</title>
<polygon fill="white" stroke="black" points="8453,-178.34 7790,-178.34 7790,-126.34 8453,-126.34 8453,-178.34"/>
<text text-anchor="middle" x="8121.5" y="-166.34" font-family="Helvetica" font-size="10.00">B27</text>
<text text-anchor="middle" x="8121.5" y="-155.34" font-family="Helvetica" font-size="10.00">Loop: &lt;none&gt;</text>
<text text-anchor="middle" x="8121.5" y="-144.34" font-family="Helvetica" font-size="10.00">&#45;&#45;&#45;</text>
<text text-anchor="middle" x="8121.5" y="-133.34" font-family="Helvetica" font-size="10.00">SnippetResolvedJavaMethod{name=&#39;intValueOf&#39;, type=SnippetResolvedJavaType{javaClass=class jdk.graal.compiler.replacements.BoxingSnippets}}</text>
</g>
<!-- b26&#45;&gt;b27 -->
<g id="edge35" class="edge">
<title>b26&#45;&gt;b27</title>
<path fill="none" stroke="black" d="M5749.97,-248.34C5820.81,-237.53 5900.08,-226.88 5973,-220.34 6609.18,-163.31 7355.1,-152.15 7779.33,-151.01"/>
<polygon fill="black" stroke="black" points="7779.61,-154.51 7789.6,-150.99 7779.59,-147.51 7779.61,-154.51"/>
</g>
<!-- b28 -->
<g id="node29" class="node">
<title>b28</title>
<polygon fill="white" stroke="black" points="6746,-319.84 5973,-319.84 5973,-256.84 6746,-256.84 6746,-319.84"/>
<text text-anchor="middle" x="6359.5" y="-307.84" font-family="Helvetica" font-size="10.00">B28</text>
<text text-anchor="middle" x="6359.5" y="-296.84" font-family="Helvetica" font-size="10.00">Loop: &lt;none&gt;</text>
<text text-anchor="middle" x="6359.5" y="-285.84" font-family="Helvetica" font-size="10.00">&#45;&#45;&#45;</text>
<text text-anchor="middle" x="6359.5" y="-274.84" font-family="Helvetica" font-size="10.00">SnippetResolvedJavaMethod{name=&#39;intValueOf&#39;, type=SnippetResolvedJavaType{javaClass=class jdk.graal.compiler.replacements.BoxingSnippets}}</text>
<text text-anchor="middle" x="6359.5" y="-263.84" font-family="Helvetica" font-size="10.00">SnippetResolvedJavaMethod{name=&#39;allocateInstance&#39;, type=SnippetResolvedJavaType{javaClass=class jdk.graal.compiler.hotspot.replacements.HotSpotAllocationSnippets}}</text>
</g>
<!-- b26&#45;&gt;b28 -->
<g id="edge36" class="edge">
<title>b26&#45;&gt;b28</title>
<path fill="none" stroke="black" d="M5865.2,-286.55C5897.25,-286.66 5929.98,-286.78 5962.57,-286.9"/>
<polygon fill="black" stroke="black" points="5962.67,-290.4 5972.68,-286.94 5962.69,-283.4 5962.67,-290.4"/>
</g>
<!-- b32 -->
<g id="node33" class="node">
<title>b32</title>
<polygon fill="white" stroke="black" points="9279,-249.84 8616,-249.84 8616,-186.84 9279,-186.84 9279,-249.84"/>
<text text-anchor="middle" x="8947.5" y="-237.84" font-family="Helvetica" font-size="10.00">B32</text>
<text text-anchor="middle" x="8947.5" y="-226.84" font-family="Helvetica" font-size="10.00">Loop: &lt;none&gt;</text>
<text text-anchor="middle" x="8947.5" y="-215.84" font-family="Helvetica" font-size="10.00">&#45;&#45;&#45;</text>
<text text-anchor="middle" x="8947.5" y="-204.84" font-family="Helvetica" font-size="10.00">SnippetResolvedJavaMethod{name=&#39;intValueOf&#39;, type=SnippetResolvedJavaType{javaClass=class jdk.graal.compiler.replacements.BoxingSnippets}}</text>
<text text-anchor="middle" x="8947.5" y="-193.84" font-family="Helvetica" font-size="10.00">HotSpotMethod&lt;Sieve.benchmark()&gt;</text>
</g>
<!-- b27&#45;&gt;b32 -->
<g id="edge37" class="edge">
<title>b27&#45;&gt;b32</title>
<path fill="none" stroke="black" d="M8447.28,-178.36C8499.31,-182.52 8553.28,-186.85 8605.66,-191.04"/>
<polygon fill="black" stroke="black" points="8605.52,-194.54 8615.77,-191.85 8606.08,-187.56 8605.52,-194.54"/>
</g>
<!-- b29 -->
<g id="node30" class="node">
<title>b29</title>
<polygon fill="white" stroke="black" points="7627,-319.84 6854,-319.84 6854,-256.84 7627,-256.84 7627,-319.84"/>
<text text-anchor="middle" x="7240.5" y="-307.84" font-family="Helvetica" font-size="10.00">B29</text>
<text text-anchor="middle" x="7240.5" y="-296.84" font-family="Helvetica" font-size="10.00">Loop: &lt;none&gt;</text>
<text text-anchor="middle" x="7240.5" y="-285.84" font-family="Helvetica" font-size="10.00">&#45;&#45;&#45;</text>
<text text-anchor="middle" x="7240.5" y="-274.84" font-family="Helvetica" font-size="10.00">SnippetResolvedJavaMethod{name=&#39;allocateInstance&#39;, type=SnippetResolvedJavaType{javaClass=class jdk.graal.compiler.hotspot.replacements.HotSpotAllocationSnippets}}</text>
<text text-anchor="middle" x="7240.5" y="-263.84" font-family="Helvetica" font-size="10.00">SnippetResolvedJavaMethod{name=&#39;intValueOf&#39;, type=SnippetResolvedJavaType{javaClass=class jdk.graal.compiler.replacements.BoxingSnippets}}</text>
</g>
<!-- b28&#45;&gt;b29 -->
<g id="edge38" class="edge">
<title>b28&#45;&gt;b29</title>
<path fill="none" stroke="black" d="M6746.04,-288.34C6778.44,-288.34 6811.24,-288.34 6843.71,-288.34"/>
<polygon fill="black" stroke="black" points="6843.78,-291.84 6853.78,-288.34 6843.78,-284.84 6843.78,-291.84"/>
</g>
<!-- b30 -->
<g id="node31" class="node">
<title>b30</title>
<polygon fill="white" stroke="black" points="7627,-444.34 6854,-444.34 6854,-392.34 7627,-392.34 7627,-444.34"/>
<text text-anchor="middle" x="7240.5" y="-432.34" font-family="Helvetica" font-size="10.00">B30</text>
<text text-anchor="middle" x="7240.5" y="-421.34" font-family="Helvetica" font-size="10.00">Loop: &lt;none&gt;</text>
<text text-anchor="middle" x="7240.5" y="-410.34" font-family="Helvetica" font-size="10.00">&#45;&#45;&#45;</text>
<text text-anchor="middle" x="7240.5" y="-399.34" font-family="Helvetica" font-size="10.00">SnippetResolvedJavaMethod{name=&#39;allocateInstance&#39;, type=SnippetResolvedJavaType{javaClass=class jdk.graal.compiler.hotspot.replacements.HotSpotAllocationSnippets}}</text>
</g>
<!-- b28&#45;&gt;b30 -->
<g id="edge39" class="edge">
<title>b28&#45;&gt;b30</title>
<path fill="none" stroke="black" d="M6573.56,-319.85C6720.19,-341.54 6913.08,-370.07 7053.51,-390.83"/>
<polygon fill="black" stroke="black" points="7053.12,-394.32 7063.52,-392.32 7054.14,-387.39 7053.12,-394.32"/>
</g>
<!-- b31 -->
<g id="node32" class="node">
<title>b31</title>
<polygon fill="white" stroke="black" points="8508,-319.84 7735,-319.84 7735,-256.84 8508,-256.84 8508,-319.84"/>
<text text-anchor="middle" x="8121.5" y="-307.84" font-family="Helvetica" font-size="10.00">B31</text>
<text text-anchor="middle" x="8121.5" y="-296.84" font-family="Helvetica" font-size="10.00">Loop: &lt;none&gt;</text>
<text text-anchor="middle" x="8121.5" y="-285.84" font-family="Helvetica" font-size="10.00">&#45;&#45;&#45;</text>
<text text-anchor="middle" x="8121.5" y="-274.84" font-family="Helvetica" font-size="10.00">SnippetResolvedJavaMethod{name=&#39;allocateInstance&#39;, type=SnippetResolvedJavaType{javaClass=class jdk.graal.compiler.hotspot.replacements.HotSpotAllocationSnippets}}</text>
<text text-anchor="middle" x="8121.5" y="-263.84" font-family="Helvetica" font-size="10.00">SnippetResolvedJavaMethod{name=&#39;intValueOf&#39;, type=SnippetResolvedJavaType{javaClass=class jdk.graal.compiler.replacements.BoxingSnippets}}</text>
</g>
<!-- b29&#45;&gt;b31 -->
<g id="edge40" class="edge">
<title>b29&#45;&gt;b31</title>
<path fill="none" stroke="black" d="M7627.04,-288.34C7659.44,-288.34 7692.24,-288.34 7724.71,-288.34"/>
<polygon fill="black" stroke="black" points="7724.78,-291.84 7734.78,-288.34 7724.78,-284.84 7724.78,-291.84"/>
</g>
<!-- b30&#45;&gt;b31 -->
<g id="edge41" class="edge">
<title>b30&#45;&gt;b31</title>
<path fill="none" stroke="black" d="M7417.53,-392.31C7555.42,-371.92 7748.15,-343.41 7896.94,-321.41"/>
<polygon fill="black" stroke="black" points="7897.74,-324.82 7907.12,-319.9 7896.72,-317.9 7897.74,-324.82"/>
</g>
<!-- b31&#45;&gt;b32 -->
<g id="edge42" class="edge">
<title>b31&#45;&gt;b32</title>
<path fill="none" stroke="black" d="M8493.52,-256.82C8530.81,-253.66 8568.55,-250.45 8605.51,-247.31"/>
<polygon fill="black" stroke="black" points="8606.24,-250.76 8615.91,-246.43 8605.65,-243.79 8606.24,-250.76"/>
</g>
</g>
</svg>
