<?xml version="1.0" encoding="UTF-8" standalone="no"?>
<!DOCTYPE svg PUBLIC "-//W3C//DTD SVG 1.1//EN"
 "http://www.w3.org/Graphics/SVG/1.1/DTD/svg11.dtd">
<!-- Generated by graphviz version 2.44.0 (0)
 -->
<!-- Title: CFG_121 Pages: 1 -->
<svg width="2080pt" height="392pt"
 viewBox="0.00 0.00 2080.00 391.51" xmlns="http://www.w3.org/2000/svg" xmlns:xlink="http://www.w3.org/1999/xlink">
<g id="graph0" class="graph" transform="scale(1 1) rotate(0) translate(4 387.51)">
<title>CFG_121</title>
<polygon fill="white" stroke="transparent" points="-4,4 -4,-387.51 2076,-387.51 2076,4 -4,4"/>
<text text-anchor="middle" x="159.5" y="-363.51" font-family="Times-Roman" font-size="20.00">175&#45;Sieve.verifyResult(Object)</text>
<!-- b0 -->
<g id="node1" class="node">
<title>b0</title>
<polygon fill="white" stroke="black" points="209,-243 0,-243 0,-191 209,-191 209,-243"/>
<text text-anchor="middle" x="104.5" y="-231" font-family="Helvetica" font-size="10.00">B0</text>
<text text-anchor="middle" x="104.5" y="-220" font-family="Helvetica" font-size="10.00">Loop: &lt;none&gt;</text>
<text text-anchor="middle" x="104.5" y="-209" font-family="Helvetica" font-size="10.00">&#45;&#45;&#45;</text>
<text text-anchor="middle" x="104.5" y="-198" font-family="Helvetica" font-size="10.00">HotSpotMethod&lt;Sieve.verifyResult(Object)&gt;</text>
</g>
<!-- b1 -->
<g id="node2" class="node">
<title>b1</title>
<polygon fill="white" stroke="black" points="526,-305 317,-305 317,-253 526,-253 526,-305"/>
<text text-anchor="middle" x="421.5" y="-293" font-family="Helvetica" font-size="10.00">B1</text>
<text text-anchor="middle" x="421.5" y="-282" font-family="Helvetica" font-size="10.00">Loop: &lt;none&gt;</text>
<text text-anchor="middle" x="421.5" y="-271" font-family="Helvetica" font-size="10.00">&#45;&#45;&#45;</text>
<text text-anchor="middle" x="421.5" y="-260" font-family="Helvetica" font-size="10.00">HotSpotMethod&lt;Sieve.verifyResult(Object)&gt;</text>
</g>
<!-- b0&#45;&gt;b1 -->
<g id="edge1" class="edge">
<title>b0&#45;&gt;b1</title>
<path fill="none" stroke="black" d="M209.08,-237.39C240.44,-243.56 275.05,-250.37 307.03,-256.67"/>
<polygon fill="black" stroke="black" points="306.37,-260.1 316.86,-258.6 307.72,-253.24 306.37,-260.1"/>
</g>
<!-- b2 -->
<g id="node3" class="node">
<title>b2</title>
<polygon fill="white" stroke="black" points="526,-181 317,-181 317,-129 526,-129 526,-181"/>
<text text-anchor="middle" x="421.5" y="-169" font-family="Helvetica" font-size="10.00">B2</text>
<text text-anchor="middle" x="421.5" y="-158" font-family="Helvetica" font-size="10.00">Loop: &lt;none&gt;</text>
<text text-anchor="middle" x="421.5" y="-147" font-family="Helvetica" font-size="10.00">&#45;&#45;&#45;</text>
<text text-anchor="middle" x="421.5" y="-136" font-family="Helvetica" font-size="10.00">HotSpotMethod&lt;Sieve.verifyResult(Object)&gt;</text>
</g>
<!-- b0&#45;&gt;b2 -->
<g id="edge2" class="edge">
<title>b0&#45;&gt;b2</title>
<path fill="none" stroke="black" d="M209.08,-196.61C240.44,-190.44 275.05,-183.63 307.03,-177.33"/>
<polygon fill="black" stroke="black" points="307.72,-180.76 316.86,-175.4 306.37,-173.9 307.72,-180.76"/>
</g>
<!-- b3 -->
<g id="node4" class="node">
<title>b3</title>
<polygon fill="white" stroke="black" points="843,-243 634,-243 634,-191 843,-191 843,-243"/>
<text text-anchor="middle" x="738.5" y="-231" font-family="Helvetica" font-size="10.00">B3</text>
<text text-anchor="middle" x="738.5" y="-220" font-family="Helvetica" font-size="10.00">Loop: &lt;none&gt;</text>
<text text-anchor="middle" x="738.5" y="-209" font-family="Helvetica" font-size="10.00">&#45;&#45;&#45;</text>
<text text-anchor="middle" x="738.5" y="-198" font-family="Helvetica" font-size="10.00">HotSpotMethod&lt;Sieve.verifyResult(Object)&gt;</text>
</g>
<!-- b1&#45;&gt;b3 -->
<g id="edge3" class="edge">
<title>b1&#45;&gt;b3</title>
<path fill="none" stroke="black" d="M526.08,-258.61C557.44,-252.44 592.05,-245.63 624.03,-239.33"/>
<polygon fill="black" stroke="black" points="624.72,-242.76 633.86,-237.4 623.37,-235.9 624.72,-242.76"/>
</g>
<!-- b2&#45;&gt;b3 -->
<g id="edge4" class="edge">
<title>b2&#45;&gt;b3</title>
<path fill="none" stroke="black" d="M526.08,-175.39C557.44,-181.56 592.05,-188.37 624.03,-194.67"/>
<polygon fill="black" stroke="black" points="623.37,-198.1 633.86,-196.6 624.72,-191.24 623.37,-198.1"/>
</g>
<!-- b5 -->
<g id="node6" class="node">
<title>b5</title>
<polygon fill="white" stroke="black" points="1160,-52 951,-52 951,0 1160,0 1160,-52"/>
<text text-anchor="middle" x="1055.5" y="-40" font-family="Helvetica" font-size="10.00">B5</text>
<text text-anchor="middle" x="1055.5" y="-29" font-family="Helvetica" font-size="10.00">Loop: &lt;none&gt;</text>
<text text-anchor="middle" x="1055.5" y="-18" font-family="Helvetica" font-size="10.00">&#45;&#45;&#45;</text>
<text text-anchor="middle" x="1055.5" y="-7" font-family="Helvetica" font-size="10.00">HotSpotMethod&lt;Sieve.verifyResult(Object)&gt;</text>
</g>
<!-- b3&#45;&gt;b5 -->
<g id="edge6" class="edge">
<title>b3&#45;&gt;b5</title>
<path fill="none" stroke="black" d="M781.98,-190.96C824.64,-164.83 892.29,-123.49 951,-88 967.56,-77.99 985.65,-67.13 1002.01,-57.34"/>
<polygon fill="black" stroke="black" points="1004.11,-60.16 1010.89,-52.02 1000.52,-54.15 1004.11,-60.16"/>
</g>
<!-- b7 -->
<g id="node8" class="node">
<title>b7</title>
<polygon fill="white" stroke="black" points="1477,-246 1268,-246 1268,-194 1477,-194 1477,-246"/>
<text text-anchor="middle" x="1372.5" y="-234" font-family="Helvetica" font-size="10.00">B7</text>
<text text-anchor="middle" x="1372.5" y="-223" font-family="Helvetica" font-size="10.00">Loop: &lt;none&gt;</text>
<text text-anchor="middle" x="1372.5" y="-212" font-family="Helvetica" font-size="10.00">&#45;&#45;&#45;</text>
<text text-anchor="middle" x="1372.5" y="-201" font-family="Helvetica" font-size="10.00">HotSpotMethod&lt;Sieve.verifyResult(Object)&gt;</text>
</g>
<!-- b3&#45;&gt;b7 -->
<g id="edge5" class="edge">
<title>b3&#45;&gt;b7</title>
<path fill="none" stroke="black" d="M773.02,-243.16C812.84,-272.42 882.53,-318.06 951,-336 1040.86,-359.54 1070.02,-359.06 1160,-336 1223.25,-319.79 1287.91,-280.3 1328.8,-251.9"/>
<polygon fill="black" stroke="black" points="1330.99,-254.64 1337.15,-246.02 1326.96,-248.91 1330.99,-254.64"/>
</g>
<!-- b4 -->
<g id="node5" class="node">
<title>b4</title>
<polygon fill="white" stroke="black" points="1160,-300 951,-300 951,-248 1160,-248 1160,-300"/>
<text text-anchor="middle" x="1055.5" y="-288" font-family="Helvetica" font-size="10.00">B4</text>
<text text-anchor="middle" x="1055.5" y="-277" font-family="Helvetica" font-size="10.00">Loop: &lt;none&gt;</text>
<text text-anchor="middle" x="1055.5" y="-266" font-family="Helvetica" font-size="10.00">&#45;&#45;&#45;</text>
<text text-anchor="middle" x="1055.5" y="-255" font-family="Helvetica" font-size="10.00">HotSpotMethod&lt;Sieve.verifyResult(Object)&gt;</text>
</g>
<!-- b4&#45;&gt;b7 -->
<g id="edge7" class="edge">
<title>b4&#45;&gt;b7</title>
<path fill="none" stroke="black" d="M1160.08,-256.24C1191.31,-250.89 1225.75,-244.99 1257.61,-239.52"/>
<polygon fill="black" stroke="black" points="1258.59,-242.91 1267.86,-237.77 1257.41,-236.01 1258.59,-242.91"/>
</g>
<!-- b5&#45;&gt;b7 -->
<g id="edge8" class="edge">
<title>b5&#45;&gt;b7</title>
<path fill="none" stroke="black" d="M1100.42,-52.07C1118.87,-63.08 1140.52,-76.09 1160,-88 1215.62,-122.01 1279.01,-161.7 1321.77,-188.6"/>
<polygon fill="black" stroke="black" points="1319.97,-191.61 1330.3,-193.98 1323.7,-185.69 1319.97,-191.61"/>
</g>
<!-- b10 -->
<g id="node11" class="node">
<title>b10</title>
<polygon fill="white" stroke="black" points="1457.5,-52 1287.5,-52 1287.5,0 1457.5,0 1457.5,-52"/>
<text text-anchor="middle" x="1372.5" y="-40" font-family="Helvetica" font-size="10.00">B10</text>
<text text-anchor="middle" x="1372.5" y="-29" font-family="Helvetica" font-size="10.00">Loop: &lt;none&gt;</text>
<text text-anchor="middle" x="1372.5" y="-18" font-family="Helvetica" font-size="10.00">&#45;&#45;&#45;</text>
<text text-anchor="middle" x="1372.5" y="-7" font-family="Helvetica" font-size="10.00">HotSpotMethod&lt;Integer.intValue()&gt;</text>
</g>
<!-- b5&#45;&gt;b10 -->
<g id="edge9" class="edge">
<title>b5&#45;&gt;b10</title>
<path fill="none" stroke="black" d="M1160.08,-26C1197.78,-26 1240.16,-26 1277.03,-26"/>
<polygon fill="black" stroke="black" points="1277.28,-29.5 1287.27,-26 1277.27,-22.5 1277.28,-29.5"/>
</g>
<!-- b6 -->
<g id="node7" class="node">
<title>b6</title>
<polygon fill="white" stroke="black" points="1160,-176 951,-176 951,-124 1160,-124 1160,-176"/>
<text text-anchor="middle" x="1055.5" y="-164" font-family="Helvetica" font-size="10.00">B6</text>
<text text-anchor="middle" x="1055.5" y="-153" font-family="Helvetica" font-size="10.00">Loop: &lt;none&gt;</text>
<text text-anchor="middle" x="1055.5" y="-142" font-family="Helvetica" font-size="10.00">&#45;&#45;&#45;</text>
<text text-anchor="middle" x="1055.5" y="-131" font-family="Helvetica" font-size="10.00">HotSpotMethod&lt;Sieve.verifyResult(Object)&gt;</text>
</g>
<!-- b6&#45;&gt;b7 -->
<g id="edge10" class="edge">
<title>b6&#45;&gt;b7</title>
<path fill="none" stroke="black" d="M1160.08,-173.02C1191.44,-179.99 1226.05,-187.68 1258.03,-194.78"/>
<polygon fill="black" stroke="black" points="1257.34,-198.22 1267.86,-196.97 1258.86,-191.38 1257.34,-198.22"/>
</g>
<!-- b8 -->
<g id="node9" class="node">
<title>b8</title>
<polygon fill="white" stroke="black" points="1794,-323 1585,-323 1585,-271 1794,-271 1794,-323"/>
<text text-anchor="middle" x="1689.5" y="-311" font-family="Helvetica" font-size="10.00">B8</text>
<text text-anchor="middle" x="1689.5" y="-300" font-family="Helvetica" font-size="10.00">Loop: &lt;none&gt;</text>
<text text-anchor="middle" x="1689.5" y="-289" font-family="Helvetica" font-size="10.00">&#45;&#45;&#45;</text>
<text text-anchor="middle" x="1689.5" y="-278" font-family="Helvetica" font-size="10.00">HotSpotMethod&lt;Sieve.verifyResult(Object)&gt;</text>
</g>
<!-- b7&#45;&gt;b8 -->
<g id="edge11" class="edge">
<title>b7&#45;&gt;b8</title>
<path fill="none" stroke="black" d="M1477.08,-245.32C1508.44,-252.99 1543.05,-261.45 1575.03,-269.26"/>
<polygon fill="black" stroke="black" points="1574.31,-272.69 1584.86,-271.67 1575.98,-265.89 1574.31,-272.69"/>
</g>
<!-- b9 -->
<g id="node10" class="node">
<title>b9</title>
<polygon fill="white" stroke="black" points="1794,-198.5 1585,-198.5 1585,-135.5 1794,-135.5 1794,-198.5"/>
<text text-anchor="middle" x="1689.5" y="-186.5" font-family="Helvetica" font-size="10.00">B9</text>
<text text-anchor="middle" x="1689.5" y="-175.5" font-family="Helvetica" font-size="10.00">Loop: &lt;none&gt;</text>
<text text-anchor="middle" x="1689.5" y="-164.5" font-family="Helvetica" font-size="10.00">&#45;&#45;&#45;</text>
<text text-anchor="middle" x="1689.5" y="-153.5" font-family="Helvetica" font-size="10.00">HotSpotMethod&lt;Sieve.verifyResult(Object)&gt;</text>
<text text-anchor="middle" x="1689.5" y="-142.5" font-family="Helvetica" font-size="10.00">HotSpotMethod&lt;Integer.intValue()&gt;</text>
</g>
<!-- b7&#45;&gt;b9 -->
<g id="edge12" class="edge">
<title>b7&#45;&gt;b9</title>
<path fill="none" stroke="black" d="M1477.08,-202.57C1508.31,-197.32 1542.75,-191.52 1574.61,-186.16"/>
<polygon fill="black" stroke="black" points="1575.58,-189.55 1584.86,-184.44 1574.42,-182.65 1575.58,-189.55"/>
</g>
<!-- b11 -->
<g id="node12" class="node">
<title>b11</title>
<polygon fill="white" stroke="black" points="2072,-122 1902,-122 1902,-70 2072,-70 2072,-122"/>
<text text-anchor="middle" x="1987" y="-110" font-family="Helvetica" font-size="10.00">B11</text>
<text text-anchor="middle" x="1987" y="-99" font-family="Helvetica" font-size="10.00">Loop: &lt;none&gt;</text>
<text text-anchor="middle" x="1987" y="-88" font-family="Helvetica" font-size="10.00">&#45;&#45;&#45;</text>
<text text-anchor="middle" x="1987" y="-77" font-family="Helvetica" font-size="10.00">HotSpotMethod&lt;Integer.intValue()&gt;</text>
</g>
<!-- b9&#45;&gt;b11 -->
<g id="edge13" class="edge">
<title>b9&#45;&gt;b11</title>
<path fill="none" stroke="black" d="M1794.27,-142.07C1826.08,-134.42 1860.89,-126.06 1892.01,-118.58"/>
<polygon fill="black" stroke="black" points="1893.07,-121.93 1901.97,-116.19 1891.43,-115.12 1893.07,-121.93"/>
</g>
<!-- b10&#45;&gt;b11 -->
<g id="edge14" class="edge">
<title>b10&#45;&gt;b11</title>
<path fill="none" stroke="black" d="M1457.7,-35.62C1571.29,-48.6 1773,-71.66 1891.6,-85.21"/>
<polygon fill="black" stroke="black" points="1891.42,-88.71 1901.76,-86.37 1892.22,-81.76 1891.42,-88.71"/>
</g>
</g>
</svg>
