<?xml version="1.0" encoding="UTF-8" standalone="no"?>
<!DOCTYPE svg PUBLIC "-//W3C//DTD SVG 1.1//EN"
 "http://www.w3.org/Graphics/SVG/1.1/DTD/svg11.dtd">
<!-- Generated by graphviz version 2.44.0 (0)
 -->
<!-- Title: CFG_128 Pages: 1 -->
<svg width="7332pt" height="784pt"
 viewBox="0.00 0.00 7332.00 783.50" xmlns="http://www.w3.org/2000/svg" xmlns:xlink="http://www.w3.org/1999/xlink">
<g id="graph0" class="graph" transform="scale(1 1) rotate(0) translate(4 779.5)">
<title>CFG_128</title>
<polygon fill="white" stroke="transparent" points="-4,4 -4,-779.5 7328,-779.5 7328,4 -4,4"/>
<text text-anchor="middle" x="216.5" y="-755.5" font-family="Times-Roman" font-size="20.00">187&#45;Benchmark.innerBenchmarkLoop(int)</text>
<!-- b0 -->
<g id="node1" class="node">
<title>b0</title>
<polygon fill="white" stroke="black" points="260,-124.5 0,-124.5 0,-72.5 260,-72.5 260,-124.5"/>
<text text-anchor="middle" x="130" y="-112.5" font-family="Helvetica" font-size="10.00">B0</text>
<text text-anchor="middle" x="130" y="-101.5" font-family="Helvetica" font-size="10.00">Loop: &lt;none&gt;</text>
<text text-anchor="middle" x="130" y="-90.5" font-family="Helvetica" font-size="10.00">&#45;&#45;&#45;</text>
<text text-anchor="middle" x="130" y="-79.5" font-family="Helvetica" font-size="10.00">HotSpotMethod&lt;Benchmark.innerBenchmarkLoop(int)&gt;</text>
</g>
<!-- b1 -->
<g id="node2" class="node">
<title>b1</title>
<polygon fill="white" stroke="black" points="628,-198 368,-198 368,-135 628,-135 628,-198"/>
<text text-anchor="middle" x="498" y="-186" font-family="Helvetica" font-size="10.00">B1</text>
<text text-anchor="middle" x="498" y="-175" font-family="Helvetica" font-size="10.00">Loop: &lt;none&gt;</text>
<text text-anchor="middle" x="498" y="-164" font-family="Helvetica" font-size="10.00">&#45;&#45;&#45;</text>
<text text-anchor="middle" x="498" y="-153" font-family="Helvetica" font-size="10.00">HotSpotMethod&lt;Benchmark.innerBenchmarkLoop(int)&gt;</text>
<text text-anchor="middle" x="498" y="-142" font-family="Helvetica" font-size="10.00">HotSpotMethod&lt;Sieve.benchmark()&gt;</text>
</g>
<!-- b0&#45;&gt;b1 -->
<g id="edge1" class="edge">
<title>b0&#45;&gt;b1</title>
<path fill="none" stroke="black" d="M260.04,-122.47C291.75,-128.37 325.83,-134.7 357.98,-140.67"/>
<polygon fill="black" stroke="black" points="357.42,-144.13 367.89,-142.51 358.7,-137.25 357.42,-144.13"/>
</g>
<!-- b33 -->
<g id="node34" class="node">
<title>b33</title>
<polygon fill="white" stroke="black" points="628,-63 368,-63 368,0 628,0 628,-63"/>
<text text-anchor="middle" x="498" y="-51" font-family="Helvetica" font-size="10.00">B33</text>
<text text-anchor="middle" x="498" y="-40" font-family="Helvetica" font-size="10.00">Loop: &lt;none&gt;</text>
<text text-anchor="middle" x="498" y="-29" font-family="Helvetica" font-size="10.00">&#45;&#45;&#45;</text>
<text text-anchor="middle" x="498" y="-18" font-family="Helvetica" font-size="10.00">HotSpotMethod&lt;Sieve.verifyResult(Object)&gt;</text>
<text text-anchor="middle" x="498" y="-7" font-family="Helvetica" font-size="10.00">HotSpotMethod&lt;Benchmark.innerBenchmarkLoop(int)&gt;</text>
</g>
<!-- b0&#45;&gt;b33 -->
<g id="edge2" class="edge">
<title>b0&#45;&gt;b33</title>
<path fill="none" stroke="black" d="M260.04,-74.88C291.75,-69.07 325.83,-62.84 357.98,-56.95"/>
<polygon fill="black" stroke="black" points="358.69,-60.38 367.89,-55.13 357.43,-53.49 358.69,-60.38"/>
</g>
<!-- b2 -->
<g id="node3" class="node">
<title>b2</title>
<polygon fill="lightblue" stroke="black" points="1000,-192.5 736,-192.5 736,-140.5 1000,-140.5 1000,-192.5"/>
<text text-anchor="middle" x="868" y="-180.5" font-family="Helvetica" font-size="10.00">B2</text>
<text text-anchor="middle" x="868" y="-169.5" font-family="Helvetica" font-size="10.00">Loop: L0</text>
<text text-anchor="middle" x="868" y="-158.5" font-family="Helvetica" font-size="10.00">&#45;&#45;&#45;</text>
<text text-anchor="middle" x="868" y="-147.5" font-family="Helvetica" font-size="10.00">HotSpotMethod&lt;BuboAgentCompilerMarkers.Marker0()&gt;</text>
</g>
<!-- b1&#45;&gt;b2 -->
<g id="edge3" class="edge">
<title>b1&#45;&gt;b2</title>
<path fill="none" stroke="black" d="M628.23,-166.5C659.71,-166.5 693.56,-166.5 725.58,-166.5"/>
<polygon fill="black" stroke="black" points="725.91,-170 735.91,-166.5 725.91,-163 725.91,-170"/>
</g>
<!-- b3 -->
<g id="node4" class="node">
<title>b3</title>
<polygon fill="lightblue" stroke="black" points="1372,-316.5 1108,-316.5 1108,-264.5 1372,-264.5 1372,-316.5"/>
<text text-anchor="middle" x="1240" y="-304.5" font-family="Helvetica" font-size="10.00">B3</text>
<text text-anchor="middle" x="1240" y="-293.5" font-family="Helvetica" font-size="10.00">Loop: L0</text>
<text text-anchor="middle" x="1240" y="-282.5" font-family="Helvetica" font-size="10.00">&#45;&#45;&#45;</text>
<text text-anchor="middle" x="1240" y="-271.5" font-family="Helvetica" font-size="10.00">HotSpotMethod&lt;BuboAgentCompilerMarkers.Marker0()&gt;</text>
</g>
<!-- b2&#45;&gt;b3 -->
<g id="edge4" class="edge">
<title>b2&#45;&gt;b3</title>
<path fill="none" stroke="black" d="M947.02,-192.65C1006.89,-212.71 1089.54,-240.41 1151.63,-261.22"/>
<polygon fill="black" stroke="black" points="1150.82,-264.64 1161.41,-264.5 1153.04,-258 1150.82,-264.64"/>
</g>
<!-- b31 -->
<g id="node32" class="node">
<title>b31</title>
<polygon fill="white" stroke="black" points="1370,-192.5 1110,-192.5 1110,-140.5 1370,-140.5 1370,-192.5"/>
<text text-anchor="middle" x="1240" y="-180.5" font-family="Helvetica" font-size="10.00">B31</text>
<text text-anchor="middle" x="1240" y="-169.5" font-family="Helvetica" font-size="10.00">Loop: &lt;none&gt;</text>
<text text-anchor="middle" x="1240" y="-158.5" font-family="Helvetica" font-size="10.00">&#45;&#45;&#45;</text>
<text text-anchor="middle" x="1240" y="-147.5" font-family="Helvetica" font-size="10.00">HotSpotMethod&lt;Benchmark.innerBenchmarkLoop(int)&gt;</text>
</g>
<!-- b2&#45;&gt;b31 -->
<g id="edge5" class="edge">
<title>b2&#45;&gt;b31</title>
<path fill="none" stroke="black" d="M1000.23,-166.5C1032.53,-166.5 1067.22,-166.5 1099.87,-166.5"/>
<polygon fill="black" stroke="black" points="1099.94,-170 1109.94,-166.5 1099.94,-163 1099.94,-170"/>
</g>
<!-- b4 -->
<g id="node5" class="node">
<title>b4</title>
<polygon fill="lightblue" stroke="black" points="1744,-316.5 1480,-316.5 1480,-264.5 1744,-264.5 1744,-316.5"/>
<text text-anchor="middle" x="1612" y="-304.5" font-family="Helvetica" font-size="10.00">B4</text>
<text text-anchor="middle" x="1612" y="-293.5" font-family="Helvetica" font-size="10.00">Loop: L0</text>
<text text-anchor="middle" x="1612" y="-282.5" font-family="Helvetica" font-size="10.00">&#45;&#45;&#45;</text>
<text text-anchor="middle" x="1612" y="-271.5" font-family="Helvetica" font-size="10.00">HotSpotMethod&lt;BuboAgentCompilerMarkers.Marker0()&gt;</text>
</g>
<!-- b3&#45;&gt;b4 -->
<g id="edge6" class="edge">
<title>b3&#45;&gt;b4</title>
<path fill="none" stroke="black" d="M1372.23,-290.5C1403.73,-290.5 1437.51,-290.5 1469.46,-290.5"/>
<polygon fill="black" stroke="black" points="1469.76,-294 1479.76,-290.5 1469.76,-287 1469.76,-294"/>
</g>
<!-- b5 -->
<g id="node6" class="node">
<title>b5</title>
<polygon fill="lightblue" stroke="black" points="1744,-192.5 1480,-192.5 1480,-140.5 1744,-140.5 1744,-192.5"/>
<text text-anchor="middle" x="1612" y="-180.5" font-family="Helvetica" font-size="10.00">B5</text>
<text text-anchor="middle" x="1612" y="-169.5" font-family="Helvetica" font-size="10.00">Loop: L0</text>
<text text-anchor="middle" x="1612" y="-158.5" font-family="Helvetica" font-size="10.00">&#45;&#45;&#45;</text>
<text text-anchor="middle" x="1612" y="-147.5" font-family="Helvetica" font-size="10.00">HotSpotMethod&lt;BuboAgentCompilerMarkers.Marker0()&gt;</text>
</g>
<!-- b3&#45;&gt;b5 -->
<g id="edge7" class="edge">
<title>b3&#45;&gt;b5</title>
<path fill="none" stroke="black" d="M1319.02,-264.35C1378.89,-244.29 1461.54,-216.59 1523.63,-195.78"/>
<polygon fill="black" stroke="black" points="1525.04,-199 1533.41,-192.5 1522.82,-192.36 1525.04,-199"/>
</g>
<!-- b6 -->
<g id="node7" class="node">
<title>b6</title>
<polygon fill="lightblue" stroke="black" points="2116,-192.5 1852,-192.5 1852,-140.5 2116,-140.5 2116,-192.5"/>
<text text-anchor="middle" x="1984" y="-180.5" font-family="Helvetica" font-size="10.00">B6</text>
<text text-anchor="middle" x="1984" y="-169.5" font-family="Helvetica" font-size="10.00">Loop: L0</text>
<text text-anchor="middle" x="1984" y="-158.5" font-family="Helvetica" font-size="10.00">&#45;&#45;&#45;</text>
<text text-anchor="middle" x="1984" y="-147.5" font-family="Helvetica" font-size="10.00">HotSpotMethod&lt;BuboAgentCompilerMarkers.Marker0()&gt;</text>
</g>
<!-- b4&#45;&gt;b6 -->
<g id="edge8" class="edge">
<title>b4&#45;&gt;b6</title>
<path fill="none" stroke="black" d="M1691.02,-264.35C1750.89,-244.29 1833.54,-216.59 1895.63,-195.78"/>
<polygon fill="black" stroke="black" points="1897.04,-199 1905.41,-192.5 1894.82,-192.36 1897.04,-199"/>
</g>
<!-- b5&#45;&gt;b6 -->
<g id="edge9" class="edge">
<title>b5&#45;&gt;b6</title>
<path fill="none" stroke="black" d="M1744.23,-166.5C1775.73,-166.5 1809.51,-166.5 1841.46,-166.5"/>
<polygon fill="black" stroke="black" points="1841.76,-170 1851.76,-166.5 1841.76,-163 1841.76,-170"/>
</g>
<!-- b7 -->
<g id="node8" class="node">
<title>b7</title>
<polygon fill="lightgreen" stroke="black" points="2488,-192.5 2224,-192.5 2224,-140.5 2488,-140.5 2488,-192.5"/>
<text text-anchor="middle" x="2356" y="-180.5" font-family="Helvetica" font-size="10.00">B7</text>
<text text-anchor="middle" x="2356" y="-169.5" font-family="Helvetica" font-size="10.00">Loop: L1</text>
<text text-anchor="middle" x="2356" y="-158.5" font-family="Helvetica" font-size="10.00">&#45;&#45;&#45;</text>
<text text-anchor="middle" x="2356" y="-147.5" font-family="Helvetica" font-size="10.00">HotSpotMethod&lt;BuboAgentCompilerMarkers.Marker1()&gt;</text>
</g>
<!-- b6&#45;&gt;b7 -->
<g id="edge10" class="edge">
<title>b6&#45;&gt;b7</title>
<path fill="none" stroke="black" d="M2116.23,-166.5C2147.73,-166.5 2181.51,-166.5 2213.46,-166.5"/>
<polygon fill="black" stroke="black" points="2213.76,-170 2223.76,-166.5 2213.76,-163 2213.76,-170"/>
</g>
<!-- b8 -->
<g id="node9" class="node">
<title>b8</title>
<polygon fill="lightgreen" stroke="black" points="2860,-192.5 2596,-192.5 2596,-140.5 2860,-140.5 2860,-192.5"/>
<text text-anchor="middle" x="2728" y="-180.5" font-family="Helvetica" font-size="10.00">B8</text>
<text text-anchor="middle" x="2728" y="-169.5" font-family="Helvetica" font-size="10.00">Loop: L1</text>
<text text-anchor="middle" x="2728" y="-158.5" font-family="Helvetica" font-size="10.00">&#45;&#45;&#45;</text>
<text text-anchor="middle" x="2728" y="-147.5" font-family="Helvetica" font-size="10.00">HotSpotMethod&lt;BuboAgentCompilerMarkers.Marker1()&gt;</text>
</g>
<!-- b7&#45;&gt;b8 -->
<g id="edge11" class="edge">
<title>b7&#45;&gt;b8</title>
<path fill="none" stroke="black" d="M2488.23,-140.54C2519.73,-139.29 2553.51,-139.17 2585.46,-140.17"/>
<polygon fill="black" stroke="black" points="2585.64,-143.68 2595.76,-140.54 2585.89,-136.69 2585.64,-143.68"/>
</g>
<!-- b9 -->
<g id="node10" class="node">
<title>b9</title>
<polygon fill="lightblue" stroke="black" points="2860,-316.5 2596,-316.5 2596,-264.5 2860,-264.5 2860,-316.5"/>
<text text-anchor="middle" x="2728" y="-304.5" font-family="Helvetica" font-size="10.00">B9</text>
<text text-anchor="middle" x="2728" y="-293.5" font-family="Helvetica" font-size="10.00">Loop: L0</text>
<text text-anchor="middle" x="2728" y="-282.5" font-family="Helvetica" font-size="10.00">&#45;&#45;&#45;</text>
<text text-anchor="middle" x="2728" y="-271.5" font-family="Helvetica" font-size="10.00">HotSpotMethod&lt;BuboAgentCompilerMarkers.Marker0()&gt;</text>
</g>
<!-- b7&#45;&gt;b9 -->
<g id="edge12" class="edge">
<title>b7&#45;&gt;b9</title>
<path fill="none" stroke="black" d="M2435.02,-192.65C2494.89,-212.71 2577.54,-240.41 2639.63,-261.22"/>
<polygon fill="black" stroke="black" points="2638.82,-264.64 2649.41,-264.5 2641.04,-258 2638.82,-264.64"/>
</g>
<!-- b8&#45;&gt;b7 -->
<g id="edge13" class="edge">
<title>b8&#45;&gt;b7</title>
<path fill="none" stroke="black" d="M2595.76,-192.46C2564.26,-193.71 2530.48,-193.83 2498.53,-192.83"/>
<polygon fill="black" stroke="black" points="2498.35,-189.32 2488.23,-192.46 2498.1,-196.31 2498.35,-189.32"/>
</g>
<!-- b10 -->
<g id="node11" class="node">
<title>b10</title>
<polygon fill="lightpink" stroke="black" points="3232,-315.5 2968,-315.5 2968,-263.5 3232,-263.5 3232,-315.5"/>
<text text-anchor="middle" x="3100" y="-303.5" font-family="Helvetica" font-size="10.00">B10</text>
<text text-anchor="middle" x="3100" y="-292.5" font-family="Helvetica" font-size="10.00">Loop: L2</text>
<text text-anchor="middle" x="3100" y="-281.5" font-family="Helvetica" font-size="10.00">&#45;&#45;&#45;</text>
<text text-anchor="middle" x="3100" y="-270.5" font-family="Helvetica" font-size="10.00">HotSpotMethod&lt;BuboAgentCompilerMarkers.Marker4()&gt;</text>
</g>
<!-- b9&#45;&gt;b10 -->
<g id="edge14" class="edge">
<title>b9&#45;&gt;b10</title>
<path fill="none" stroke="black" d="M2860.23,-290.15C2891.73,-290.06 2925.51,-289.97 2957.46,-289.88"/>
<polygon fill="black" stroke="black" points="2957.77,-293.38 2967.76,-289.85 2957.75,-286.38 2957.77,-293.38"/>
</g>
<!-- b11 -->
<g id="node12" class="node">
<title>b11</title>
<polygon fill="lightpink" stroke="black" points="3604,-303.5 3340,-303.5 3340,-251.5 3604,-251.5 3604,-303.5"/>
<text text-anchor="middle" x="3472" y="-291.5" font-family="Helvetica" font-size="10.00">B11</text>
<text text-anchor="middle" x="3472" y="-280.5" font-family="Helvetica" font-size="10.00">Loop: L2</text>
<text text-anchor="middle" x="3472" y="-269.5" font-family="Helvetica" font-size="10.00">&#45;&#45;&#45;</text>
<text text-anchor="middle" x="3472" y="-258.5" font-family="Helvetica" font-size="10.00">HotSpotMethod&lt;BuboAgentCompilerMarkers.Marker4()&gt;</text>
</g>
<!-- b10&#45;&gt;b11 -->
<g id="edge15" class="edge">
<title>b10&#45;&gt;b11</title>
<path fill="none" stroke="black" d="M3187.28,-263.46C3229.65,-258.51 3281.78,-255.8 3329.74,-255.76"/>
<polygon fill="black" stroke="black" points="3329.9,-259.26 3339.91,-255.8 3329.92,-252.26 3329.9,-259.26"/>
</g>
<!-- b12 -->
<g id="node13" class="node">
<title>b12</title>
<polygon fill="lightblue" stroke="black" points="3604,-427.5 3340,-427.5 3340,-375.5 3604,-375.5 3604,-427.5"/>
<text text-anchor="middle" x="3472" y="-415.5" font-family="Helvetica" font-size="10.00">B12</text>
<text text-anchor="middle" x="3472" y="-404.5" font-family="Helvetica" font-size="10.00">Loop: L0</text>
<text text-anchor="middle" x="3472" y="-393.5" font-family="Helvetica" font-size="10.00">&#45;&#45;&#45;</text>
<text text-anchor="middle" x="3472" y="-382.5" font-family="Helvetica" font-size="10.00">HotSpotMethod&lt;BuboAgentCompilerMarkers.Marker0()&gt;</text>
</g>
<!-- b10&#45;&gt;b12 -->
<g id="edge16" class="edge">
<title>b10&#45;&gt;b12</title>
<path fill="none" stroke="black" d="M3187.28,-315.62C3243.5,-332.64 3316.92,-354.86 3374.98,-372.44"/>
<polygon fill="black" stroke="black" points="3374.32,-375.89 3384.9,-375.44 3376.34,-369.19 3374.32,-375.89"/>
</g>
<!-- b11&#45;&gt;b10 -->
<g id="edge17" class="edge">
<title>b11&#45;&gt;b10</title>
<path fill="none" stroke="black" d="M3384.9,-303.52C3342.55,-308.47 3290.4,-311.2 3242.4,-311.24"/>
<polygon fill="black" stroke="black" points="3242.24,-307.74 3232.23,-311.2 3242.22,-314.74 3242.24,-307.74"/>
</g>
<!-- b13 -->
<g id="node14" class="node">
<title>b13</title>
<polygon fill="gold" stroke="black" points="3976,-426.5 3712,-426.5 3712,-374.5 3976,-374.5 3976,-426.5"/>
<text text-anchor="middle" x="3844" y="-414.5" font-family="Helvetica" font-size="10.00">B13</text>
<text text-anchor="middle" x="3844" y="-403.5" font-family="Helvetica" font-size="10.00">Loop: L3</text>
<text text-anchor="middle" x="3844" y="-392.5" font-family="Helvetica" font-size="10.00">&#45;&#45;&#45;</text>
<text text-anchor="middle" x="3844" y="-381.5" font-family="Helvetica" font-size="10.00">HotSpotMethod&lt;BuboAgentCompilerMarkers.Marker5()&gt;</text>
</g>
<!-- b12&#45;&gt;b13 -->
<g id="edge18" class="edge">
<title>b12&#45;&gt;b13</title>
<path fill="none" stroke="black" d="M3604.23,-401.15C3635.73,-401.06 3669.51,-400.97 3701.46,-400.88"/>
<polygon fill="black" stroke="black" points="3701.77,-404.38 3711.76,-400.85 3701.75,-397.38 3701.77,-404.38"/>
</g>
<!-- b14 -->
<g id="node15" class="node">
<title>b14</title>
<polygon fill="gold" stroke="black" points="4348,-420.5 4084,-420.5 4084,-368.5 4348,-368.5 4348,-420.5"/>
<text text-anchor="middle" x="4216" y="-408.5" font-family="Helvetica" font-size="10.00">B14</text>
<text text-anchor="middle" x="4216" y="-397.5" font-family="Helvetica" font-size="10.00">Loop: L3</text>
<text text-anchor="middle" x="4216" y="-386.5" font-family="Helvetica" font-size="10.00">&#45;&#45;&#45;</text>
<text text-anchor="middle" x="4216" y="-375.5" font-family="Helvetica" font-size="10.00">HotSpotMethod&lt;BuboAgentCompilerMarkers.Marker5()&gt;</text>
</g>
<!-- b13&#45;&gt;b14 -->
<g id="edge19" class="edge">
<title>b13&#45;&gt;b14</title>
<path fill="none" stroke="black" d="M3946.1,-374.5C3985.42,-371.21 4031.16,-369.82 4073.64,-370.47"/>
<polygon fill="black" stroke="black" points="4073.72,-373.97 4083.79,-370.67 4073.86,-366.97 4073.72,-373.97"/>
</g>
<!-- b15 -->
<g id="node16" class="node">
<title>b15</title>
<polygon fill="lightblue" stroke="black" points="4348,-544.5 4084,-544.5 4084,-492.5 4348,-492.5 4348,-544.5"/>
<text text-anchor="middle" x="4216" y="-532.5" font-family="Helvetica" font-size="10.00">B15</text>
<text text-anchor="middle" x="4216" y="-521.5" font-family="Helvetica" font-size="10.00">Loop: L0</text>
<text text-anchor="middle" x="4216" y="-510.5" font-family="Helvetica" font-size="10.00">&#45;&#45;&#45;</text>
<text text-anchor="middle" x="4216" y="-499.5" font-family="Helvetica" font-size="10.00">HotSpotMethod&lt;BuboAgentCompilerMarkers.Marker0()&gt;</text>
</g>
<!-- b13&#45;&gt;b15 -->
<g id="edge20" class="edge">
<title>b13&#45;&gt;b15</title>
<path fill="none" stroke="black" d="M3926.66,-426.54C3984.82,-445.09 4063.04,-470.04 4123.34,-489.27"/>
<polygon fill="black" stroke="black" points="4122.64,-492.72 4133.23,-492.42 4124.77,-486.05 4122.64,-492.72"/>
</g>
<!-- b14&#45;&gt;b13 -->
<g id="edge21" class="edge">
<title>b14&#45;&gt;b13</title>
<path fill="none" stroke="black" d="M4113.75,-420.52C4074.46,-423.79 4028.79,-425.18 3986.37,-424.53"/>
<polygon fill="black" stroke="black" points="3986.3,-421.03 3976.23,-424.33 3986.16,-428.03 3986.3,-421.03"/>
</g>
<!-- b16 -->
<g id="node17" class="node">
<title>b16</title>
<polygon fill="orange" stroke="black" points="4720,-543.5 4456,-543.5 4456,-491.5 4720,-491.5 4720,-543.5"/>
<text text-anchor="middle" x="4588" y="-531.5" font-family="Helvetica" font-size="10.00">B16</text>
<text text-anchor="middle" x="4588" y="-520.5" font-family="Helvetica" font-size="10.00">Loop: L4</text>
<text text-anchor="middle" x="4588" y="-509.5" font-family="Helvetica" font-size="10.00">&#45;&#45;&#45;</text>
<text text-anchor="middle" x="4588" y="-498.5" font-family="Helvetica" font-size="10.00">HotSpotMethod&lt;BuboAgentCompilerMarkers.Marker2()&gt;</text>
</g>
<!-- b15&#45;&gt;b16 -->
<g id="edge22" class="edge">
<title>b15&#45;&gt;b16</title>
<path fill="none" stroke="black" d="M4348.23,-518.15C4379.73,-518.06 4413.51,-517.97 4445.46,-517.88"/>
<polygon fill="black" stroke="black" points="4445.77,-521.38 4455.76,-517.85 4445.75,-514.38 4445.77,-521.38"/>
</g>
<!-- b17 -->
<g id="node18" class="node">
<title>b17</title>
<polygon fill="orange" stroke="black" points="5092,-540.5 4828,-540.5 4828,-488.5 5092,-488.5 5092,-540.5"/>
<text text-anchor="middle" x="4960" y="-528.5" font-family="Helvetica" font-size="10.00">B17</text>
<text text-anchor="middle" x="4960" y="-517.5" font-family="Helvetica" font-size="10.00">Loop: L4</text>
<text text-anchor="middle" x="4960" y="-506.5" font-family="Helvetica" font-size="10.00">&#45;&#45;&#45;</text>
<text text-anchor="middle" x="4960" y="-495.5" font-family="Helvetica" font-size="10.00">HotSpotMethod&lt;BuboAgentCompilerMarkers.Marker2()&gt;</text>
</g>
<!-- b16&#45;&gt;b17 -->
<g id="edge23" class="edge">
<title>b16&#45;&gt;b17</title>
<path fill="none" stroke="black" d="M4720.23,-516.44C4751.73,-516.18 4785.51,-515.91 4817.46,-515.65"/>
<polygon fill="black" stroke="black" points="4817.79,-519.15 4827.76,-515.56 4817.73,-512.15 4817.79,-519.15"/>
</g>
<!-- b29 -->
<g id="node30" class="node">
<title>b29</title>
<polygon fill="lightblue" stroke="black" points="5092,-216.5 4828,-216.5 4828,-164.5 5092,-164.5 5092,-216.5"/>
<text text-anchor="middle" x="4960" y="-204.5" font-family="Helvetica" font-size="10.00">B29</text>
<text text-anchor="middle" x="4960" y="-193.5" font-family="Helvetica" font-size="10.00">Loop: L0</text>
<text text-anchor="middle" x="4960" y="-182.5" font-family="Helvetica" font-size="10.00">&#45;&#45;&#45;</text>
<text text-anchor="middle" x="4960" y="-171.5" font-family="Helvetica" font-size="10.00">HotSpotMethod&lt;BuboAgentCompilerMarkers.Marker0()&gt;</text>
</g>
<!-- b16&#45;&gt;b29 -->
<g id="edge24" class="edge">
<title>b16&#45;&gt;b29</title>
<path fill="none" stroke="black" d="M4618.65,-491.29C4685.58,-432.14 4848.23,-288.39 4921.79,-223.39"/>
<polygon fill="black" stroke="black" points="4924.29,-225.85 4929.46,-216.6 4919.65,-220.6 4924.29,-225.85"/>
</g>
<!-- b18 -->
<g id="node19" class="node">
<title>b18</title>
<polygon fill="orange" stroke="black" points="5464,-672.5 5200,-672.5 5200,-620.5 5464,-620.5 5464,-672.5"/>
<text text-anchor="middle" x="5332" y="-660.5" font-family="Helvetica" font-size="10.00">B18</text>
<text text-anchor="middle" x="5332" y="-649.5" font-family="Helvetica" font-size="10.00">Loop: L4</text>
<text text-anchor="middle" x="5332" y="-638.5" font-family="Helvetica" font-size="10.00">&#45;&#45;&#45;</text>
<text text-anchor="middle" x="5332" y="-627.5" font-family="Helvetica" font-size="10.00">HotSpotMethod&lt;BuboAgentCompilerMarkers.Marker2()&gt;</text>
</g>
<!-- b17&#45;&gt;b18 -->
<g id="edge25" class="edge">
<title>b17&#45;&gt;b18</title>
<path fill="none" stroke="black" d="M5034.1,-540.58C5095.8,-562.59 5184.1,-594.09 5248.35,-617.02"/>
<polygon fill="black" stroke="black" points="5247.46,-620.41 5258.05,-620.48 5249.81,-613.82 5247.46,-620.41"/>
</g>
<!-- b19 -->
<g id="node20" class="node">
<title>b19</title>
<polygon fill="orange" stroke="black" points="5464,-545.5 5200,-545.5 5200,-493.5 5464,-493.5 5464,-545.5"/>
<text text-anchor="middle" x="5332" y="-533.5" font-family="Helvetica" font-size="10.00">B19</text>
<text text-anchor="middle" x="5332" y="-522.5" font-family="Helvetica" font-size="10.00">Loop: L4</text>
<text text-anchor="middle" x="5332" y="-511.5" font-family="Helvetica" font-size="10.00">&#45;&#45;&#45;</text>
<text text-anchor="middle" x="5332" y="-500.5" font-family="Helvetica" font-size="10.00">HotSpotMethod&lt;BuboAgentCompilerMarkers.Marker2()&gt;</text>
</g>
<!-- b17&#45;&gt;b19 -->
<g id="edge26" class="edge">
<title>b17&#45;&gt;b19</title>
<path fill="none" stroke="black" d="M5092.23,-516.27C5123.73,-516.7 5157.51,-517.16 5189.46,-517.59"/>
<polygon fill="black" stroke="black" points="5189.71,-521.09 5199.76,-517.73 5189.81,-514.09 5189.71,-521.09"/>
</g>
<!-- b18&#45;&gt;b16 -->
<g id="edge27" class="edge">
<title>b18&#45;&gt;b16</title>
<path fill="none" stroke="black" d="M5199.85,-632.03C5097.99,-619.88 4953.43,-600.64 4828,-576.5 4784,-568.03 4735.95,-556.6 4694.55,-546.06"/>
<polygon fill="black" stroke="black" points="4695.28,-542.63 4684.73,-543.54 4693.55,-549.42 4695.28,-542.63"/>
</g>
<!-- b20 -->
<g id="node21" class="node">
<title>b20</title>
<polygon fill="orange" stroke="black" points="5836,-545.5 5572,-545.5 5572,-493.5 5836,-493.5 5836,-545.5"/>
<text text-anchor="middle" x="5704" y="-533.5" font-family="Helvetica" font-size="10.00">B20</text>
<text text-anchor="middle" x="5704" y="-522.5" font-family="Helvetica" font-size="10.00">Loop: L4</text>
<text text-anchor="middle" x="5704" y="-511.5" font-family="Helvetica" font-size="10.00">&#45;&#45;&#45;</text>
<text text-anchor="middle" x="5704" y="-500.5" font-family="Helvetica" font-size="10.00">HotSpotMethod&lt;BuboAgentCompilerMarkers.Marker2()&gt;</text>
</g>
<!-- b19&#45;&gt;b20 -->
<g id="edge28" class="edge">
<title>b19&#45;&gt;b20</title>
<path fill="none" stroke="black" d="M5464.23,-519.5C5495.73,-519.5 5529.51,-519.5 5561.46,-519.5"/>
<polygon fill="black" stroke="black" points="5561.76,-523 5571.76,-519.5 5561.76,-516 5561.76,-523"/>
</g>
<!-- b28 -->
<g id="node29" class="node">
<title>b28</title>
<polygon fill="orange" stroke="black" points="5836,-745.5 5572,-745.5 5572,-693.5 5836,-693.5 5836,-745.5"/>
<text text-anchor="middle" x="5704" y="-733.5" font-family="Helvetica" font-size="10.00">B28</text>
<text text-anchor="middle" x="5704" y="-722.5" font-family="Helvetica" font-size="10.00">Loop: L4</text>
<text text-anchor="middle" x="5704" y="-711.5" font-family="Helvetica" font-size="10.00">&#45;&#45;&#45;</text>
<text text-anchor="middle" x="5704" y="-700.5" font-family="Helvetica" font-size="10.00">HotSpotMethod&lt;BuboAgentCompilerMarkers.Marker2()&gt;</text>
</g>
<!-- b19&#45;&gt;b28 -->
<g id="edge29" class="edge">
<title>b19&#45;&gt;b28</title>
<path fill="none" stroke="black" d="M5387.19,-545.58C5410.91,-557.2 5438.99,-571.24 5464,-584.5 5528.61,-618.75 5601.64,-660.44 5649.77,-688.35"/>
<polygon fill="black" stroke="black" points="5648.06,-691.4 5658.47,-693.4 5651.57,-685.35 5648.06,-691.4"/>
</g>
<!-- b21 -->
<g id="node22" class="node">
<title>b21</title>
<polygon fill="orange" stroke="black" points="6208,-540.5 5944,-540.5 5944,-488.5 6208,-488.5 6208,-540.5"/>
<text text-anchor="middle" x="6076" y="-528.5" font-family="Helvetica" font-size="10.00">B21</text>
<text text-anchor="middle" x="6076" y="-517.5" font-family="Helvetica" font-size="10.00">Loop: L4</text>
<text text-anchor="middle" x="6076" y="-506.5" font-family="Helvetica" font-size="10.00">&#45;&#45;&#45;</text>
<text text-anchor="middle" x="6076" y="-495.5" font-family="Helvetica" font-size="10.00">HotSpotMethod&lt;BuboAgentCompilerMarkers.Marker2()&gt;</text>
</g>
<!-- b20&#45;&gt;b21 -->
<g id="edge30" class="edge">
<title>b20&#45;&gt;b21</title>
<path fill="none" stroke="black" d="M5836.23,-517.73C5867.73,-517.3 5901.51,-516.84 5933.46,-516.41"/>
<polygon fill="black" stroke="black" points="5933.81,-519.91 5943.76,-516.27 5933.71,-512.91 5933.81,-519.91"/>
</g>
<!-- b27 -->
<g id="node28" class="node">
<title>b27</title>
<polygon fill="white" stroke="black" points="6180.5,-664.5 5971.5,-664.5 5971.5,-612.5 6180.5,-612.5 6180.5,-664.5"/>
<text text-anchor="middle" x="6076" y="-652.5" font-family="Helvetica" font-size="10.00">B27</text>
<text text-anchor="middle" x="6076" y="-641.5" font-family="Helvetica" font-size="10.00">Loop: &lt;none&gt;</text>
<text text-anchor="middle" x="6076" y="-630.5" font-family="Helvetica" font-size="10.00">&#45;&#45;&#45;</text>
<text text-anchor="middle" x="6076" y="-619.5" font-family="Helvetica" font-size="10.00">HotSpotMethod&lt;Sieve.sieve(boolean[], int)&gt;</text>
</g>
<!-- b20&#45;&gt;b27 -->
<g id="edge31" class="edge">
<title>b20&#45;&gt;b27</title>
<path fill="none" stroke="black" d="M5786.2,-545.62C5844.76,-564.45 5923.83,-589.88 5984.43,-609.37"/>
<polygon fill="black" stroke="black" points="5983.4,-612.72 5993.99,-612.45 5985.54,-606.05 5983.4,-612.72"/>
</g>
<!-- b22 -->
<g id="node23" class="node">
<title>b22</title>
<polygon fill="violet" stroke="black" points="6580,-540.5 6316,-540.5 6316,-488.5 6580,-488.5 6580,-540.5"/>
<text text-anchor="middle" x="6448" y="-528.5" font-family="Helvetica" font-size="10.00">B22</text>
<text text-anchor="middle" x="6448" y="-517.5" font-family="Helvetica" font-size="10.00">Loop: L5</text>
<text text-anchor="middle" x="6448" y="-506.5" font-family="Helvetica" font-size="10.00">&#45;&#45;&#45;</text>
<text text-anchor="middle" x="6448" y="-495.5" font-family="Helvetica" font-size="10.00">HotSpotMethod&lt;BuboAgentCompilerMarkers.Marker3()&gt;</text>
</g>
<!-- b21&#45;&gt;b22 -->
<g id="edge32" class="edge">
<title>b21&#45;&gt;b22</title>
<path fill="none" stroke="black" d="M6208.23,-514.5C6239.73,-514.5 6273.51,-514.5 6305.46,-514.5"/>
<polygon fill="black" stroke="black" points="6305.76,-518 6315.76,-514.5 6305.76,-511 6305.76,-518"/>
</g>
<!-- b23 -->
<g id="node24" class="node">
<title>b23</title>
<polygon fill="violet" stroke="black" points="6952,-675.5 6688,-675.5 6688,-623.5 6952,-623.5 6952,-675.5"/>
<text text-anchor="middle" x="6820" y="-663.5" font-family="Helvetica" font-size="10.00">B23</text>
<text text-anchor="middle" x="6820" y="-652.5" font-family="Helvetica" font-size="10.00">Loop: L5</text>
<text text-anchor="middle" x="6820" y="-641.5" font-family="Helvetica" font-size="10.00">&#45;&#45;&#45;</text>
<text text-anchor="middle" x="6820" y="-630.5" font-family="Helvetica" font-size="10.00">HotSpotMethod&lt;BuboAgentCompilerMarkers.Marker3()&gt;</text>
</g>
<!-- b22&#45;&gt;b23 -->
<g id="edge33" class="edge">
<title>b22&#45;&gt;b23</title>
<path fill="none" stroke="black" d="M6520.34,-540.53C6582.69,-563.28 6673.15,-596.29 6738.16,-620.01"/>
<polygon fill="black" stroke="black" points="6736.97,-623.3 6747.56,-623.44 6739.37,-616.72 6736.97,-623.3"/>
</g>
<!-- b25 -->
<g id="node26" class="node">
<title>b25</title>
<polygon fill="orange" stroke="black" points="6952,-405.5 6688,-405.5 6688,-353.5 6952,-353.5 6952,-405.5"/>
<text text-anchor="middle" x="6820" y="-393.5" font-family="Helvetica" font-size="10.00">B25</text>
<text text-anchor="middle" x="6820" y="-382.5" font-family="Helvetica" font-size="10.00">Loop: L4</text>
<text text-anchor="middle" x="6820" y="-371.5" font-family="Helvetica" font-size="10.00">&#45;&#45;&#45;</text>
<text text-anchor="middle" x="6820" y="-360.5" font-family="Helvetica" font-size="10.00">HotSpotMethod&lt;BuboAgentCompilerMarkers.Marker2()&gt;</text>
</g>
<!-- b22&#45;&gt;b25 -->
<g id="edge34" class="edge">
<title>b22&#45;&gt;b25</title>
<path fill="none" stroke="black" d="M6520.34,-488.47C6582.69,-465.72 6673.15,-432.71 6738.16,-408.99"/>
<polygon fill="black" stroke="black" points="6739.37,-412.28 6747.56,-405.56 6736.97,-405.7 6739.37,-412.28"/>
</g>
<!-- b24 -->
<g id="node25" class="node">
<title>b24</title>
<polygon fill="violet" stroke="black" points="7324,-546.5 7060,-546.5 7060,-494.5 7324,-494.5 7324,-546.5"/>
<text text-anchor="middle" x="7192" y="-534.5" font-family="Helvetica" font-size="10.00">B24</text>
<text text-anchor="middle" x="7192" y="-523.5" font-family="Helvetica" font-size="10.00">Loop: L5</text>
<text text-anchor="middle" x="7192" y="-512.5" font-family="Helvetica" font-size="10.00">&#45;&#45;&#45;</text>
<text text-anchor="middle" x="7192" y="-501.5" font-family="Helvetica" font-size="10.00">HotSpotMethod&lt;BuboAgentCompilerMarkers.Marker3()&gt;</text>
</g>
<!-- b23&#45;&gt;b24 -->
<g id="edge35" class="edge">
<title>b23&#45;&gt;b24</title>
<path fill="none" stroke="black" d="M6895.88,-623.39C6956.93,-602.11 7043.16,-572.05 7106.65,-549.91"/>
<polygon fill="black" stroke="black" points="7107.95,-553.16 7116.24,-546.57 7105.64,-546.55 7107.95,-553.16"/>
</g>
<!-- b26 -->
<g id="node27" class="node">
<title>b26</title>
<polygon fill="white" stroke="black" points="7296.5,-675.5 7087.5,-675.5 7087.5,-623.5 7296.5,-623.5 7296.5,-675.5"/>
<text text-anchor="middle" x="7192" y="-663.5" font-family="Helvetica" font-size="10.00">B26</text>
<text text-anchor="middle" x="7192" y="-652.5" font-family="Helvetica" font-size="10.00">Loop: &lt;none&gt;</text>
<text text-anchor="middle" x="7192" y="-641.5" font-family="Helvetica" font-size="10.00">&#45;&#45;&#45;</text>
<text text-anchor="middle" x="7192" y="-630.5" font-family="Helvetica" font-size="10.00">HotSpotMethod&lt;Sieve.sieve(boolean[], int)&gt;</text>
</g>
<!-- b23&#45;&gt;b26 -->
<g id="edge36" class="edge">
<title>b23&#45;&gt;b26</title>
<path fill="none" stroke="black" d="M6952.23,-649.5C6993.04,-649.5 7037.68,-649.5 7077.2,-649.5"/>
<polygon fill="black" stroke="black" points="7077.4,-653 7087.4,-649.5 7077.4,-646 7077.4,-653"/>
</g>
<!-- b24&#45;&gt;b22 -->
<g id="edge37" class="edge">
<title>b24&#45;&gt;b22</title>
<path fill="none" stroke="black" d="M7059.96,-519.44C6928.2,-518.37 6725.73,-516.74 6590.4,-515.64"/>
<polygon fill="black" stroke="black" points="6590.4,-512.14 6580.37,-515.56 6590.34,-519.14 6590.4,-512.14"/>
</g>
<!-- b25&#45;&gt;b16 -->
<g id="edge38" class="edge">
<title>b25&#45;&gt;b16</title>
<path fill="none" stroke="black" d="M6687.98,-379.5C6539.72,-379.5 6291,-379.5 6077,-379.5 5331,-379.5 5331,-379.5 5331,-379.5 5094.44,-379.5 4822.5,-448.14 4682.74,-488.6"/>
<polygon fill="black" stroke="black" points="4681.53,-485.31 4672.9,-491.46 4683.48,-492.03 4681.53,-485.31"/>
</g>
<!-- b28&#45;&gt;b16 -->
<g id="edge39" class="edge">
<title>b28&#45;&gt;b16</title>
<path fill="none" stroke="black" d="M5571.73,-729.43C5396.89,-738.2 5080.3,-738.35 4828,-651.5 4755.8,-626.65 4680.18,-580.28 4633.82,-549.15"/>
<polygon fill="black" stroke="black" points="4635.75,-546.23 4625.51,-543.52 4631.83,-552.03 4635.75,-546.23"/>
</g>
<!-- b30 -->
<g id="node31" class="node">
<title>b30</title>
<polygon fill="lightblue" stroke="black" points="5464,-84.5 5200,-84.5 5200,-32.5 5464,-32.5 5464,-84.5"/>
<text text-anchor="middle" x="5332" y="-72.5" font-family="Helvetica" font-size="10.00">B30</text>
<text text-anchor="middle" x="5332" y="-61.5" font-family="Helvetica" font-size="10.00">Loop: L0</text>
<text text-anchor="middle" x="5332" y="-50.5" font-family="Helvetica" font-size="10.00">&#45;&#45;&#45;</text>
<text text-anchor="middle" x="5332" y="-39.5" font-family="Helvetica" font-size="10.00">HotSpotMethod&lt;BuboAgentCompilerMarkers.Marker0()&gt;</text>
</g>
<!-- b29&#45;&gt;b30 -->
<g id="edge40" class="edge">
<title>b29&#45;&gt;b30</title>
<path fill="none" stroke="black" d="M5034.1,-164.42C5095.8,-142.41 5184.1,-110.91 5248.35,-87.98"/>
<polygon fill="black" stroke="black" points="5249.81,-91.18 5258.05,-84.52 5247.46,-84.59 5249.81,-91.18"/>
</g>
<!-- b32 -->
<g id="node33" class="node">
<title>b32</title>
<polygon fill="white" stroke="black" points="5462,-222 5202,-222 5202,-159 5462,-159 5462,-222"/>
<text text-anchor="middle" x="5332" y="-210" font-family="Helvetica" font-size="10.00">B32</text>
<text text-anchor="middle" x="5332" y="-199" font-family="Helvetica" font-size="10.00">Loop: &lt;none&gt;</text>
<text text-anchor="middle" x="5332" y="-188" font-family="Helvetica" font-size="10.00">&#45;&#45;&#45;</text>
<text text-anchor="middle" x="5332" y="-177" font-family="Helvetica" font-size="10.00">HotSpotMethod&lt;Benchmark.innerBenchmarkLoop(int)&gt;</text>
<text text-anchor="middle" x="5332" y="-166" font-family="Helvetica" font-size="10.00">HotSpotMethod&lt;Sieve.verifyResult(Object)&gt;</text>
</g>
<!-- b29&#45;&gt;b32 -->
<g id="edge41" class="edge">
<title>b29&#45;&gt;b32</title>
<path fill="none" stroke="black" d="M5092.23,-190.5C5124.53,-190.5 5159.22,-190.5 5191.87,-190.5"/>
<polygon fill="black" stroke="black" points="5191.94,-194 5201.94,-190.5 5191.94,-187 5191.94,-194"/>
</g>
<!-- b30&#45;&gt;b2 -->
<g id="edge42" class="edge">
<title>b30&#45;&gt;b2</title>
<path fill="none" stroke="black" d="M5199.7,-50.84C5051.45,-42.85 4802.98,-31.5 4589,-31.5 1611,-31.5 1611,-31.5 1611,-31.5 1375.73,-31.5 1105.17,-98.01 964.78,-137.66"/>
<polygon fill="black" stroke="black" points="963.56,-134.37 954.89,-140.47 965.47,-141.1 963.56,-134.37"/>
</g>
</g>
</svg>
