<?xml version="1.0" encoding="UTF-8" standalone="no"?>
<!DOCTYPE svg PUBLIC "-//W3C//DTD SVG 1.1//EN"
 "http://www.w3.org/Graphics/SVG/1.1/DTD/svg11.dtd">
<!-- Generated by graphviz version 2.44.0 (0)
 -->
<!-- Title: CFG_53 Pages: 1 -->
<svg width="5574pt" height="781pt"
 viewBox="0.00 0.00 5574.00 781.00" xmlns="http://www.w3.org/2000/svg" xmlns:xlink="http://www.w3.org/1999/xlink">
<g id="graph0" class="graph" transform="scale(1 1) rotate(0) translate(4 777)">
<title>CFG_53</title>
<polygon fill="white" stroke="transparent" points="-4,4 -4,-777 5570,-777 5570,4 -4,4"/>
<text text-anchor="middle" x="365.5" y="-753" font-family="Times-Roman" font-size="20.00">85&#45;jdk.internal.util.ArraysSupport.unsignedHashCode(int, byte[], int, int)</text>
<!-- b0 -->
<g id="node1" class="node">
<title>b0</title>
<polygon fill="white" stroke="black" points="326,-281 0,-281 0,-229 326,-229 326,-281"/>
<text text-anchor="middle" x="163" y="-269" font-family="Helvetica" font-size="10.00">B0</text>
<text text-anchor="middle" x="163" y="-258" font-family="Helvetica" font-size="10.00">Loop: &lt;none&gt;</text>
<text text-anchor="middle" x="163" y="-247" font-family="Helvetica" font-size="10.00">&#45;&#45;&#45;</text>
<text text-anchor="middle" x="163" y="-236" font-family="Helvetica" font-size="10.00">HotSpotMethod&lt;ArraysSupport.unsignedHashCode(int, byte[], int, int)&gt;</text>
</g>
<!-- b1 -->
<g id="node2" class="node">
<title>b1</title>
<polygon fill="white" stroke="black" points="760,-349 434,-349 434,-297 760,-297 760,-349"/>
<text text-anchor="middle" x="597" y="-337" font-family="Helvetica" font-size="10.00">B1</text>
<text text-anchor="middle" x="597" y="-326" font-family="Helvetica" font-size="10.00">Loop: &lt;none&gt;</text>
<text text-anchor="middle" x="597" y="-315" font-family="Helvetica" font-size="10.00">&#45;&#45;&#45;</text>
<text text-anchor="middle" x="597" y="-304" font-family="Helvetica" font-size="10.00">HotSpotMethod&lt;ArraysSupport.unsignedHashCode(int, byte[], int, int)&gt;</text>
</g>
<!-- b0&#45;&gt;b1 -->
<g id="edge1" class="edge">
<title>b0&#45;&gt;b1</title>
<path fill="none" stroke="black" d="M326.09,-280.51C357.98,-285.53 391.56,-290.82 423.77,-295.89"/>
<polygon fill="black" stroke="black" points="423.3,-299.36 433.72,-297.46 424.39,-292.44 423.3,-299.36"/>
</g>
<!-- b21 -->
<g id="node22" class="node">
<title>b21</title>
<polygon fill="white" stroke="black" points="1194,-120 868,-120 868,-68 1194,-68 1194,-120"/>
<text text-anchor="middle" x="1031" y="-108" font-family="Helvetica" font-size="10.00">B21</text>
<text text-anchor="middle" x="1031" y="-97" font-family="Helvetica" font-size="10.00">Loop: &lt;none&gt;</text>
<text text-anchor="middle" x="1031" y="-86" font-family="Helvetica" font-size="10.00">&#45;&#45;&#45;</text>
<text text-anchor="middle" x="1031" y="-75" font-family="Helvetica" font-size="10.00">HotSpotMethod&lt;ArraysSupport.unsignedHashCode(int, byte[], int, int)&gt;</text>
</g>
<!-- b0&#45;&gt;b21 -->
<g id="edge2" class="edge">
<title>b0&#45;&gt;b21</title>
<path fill="none" stroke="black" d="M304.1,-228.95C462.12,-199.58 718.1,-151.99 880.05,-121.88"/>
<polygon fill="black" stroke="black" points="880.91,-125.28 890.1,-120.01 879.63,-118.4 880.91,-125.28"/>
</g>
<!-- b2 -->
<g id="node3" class="node">
<title>b2</title>
<polygon fill="white" stroke="black" points="1194,-608 868,-608 868,-556 1194,-556 1194,-608"/>
<text text-anchor="middle" x="1031" y="-596" font-family="Helvetica" font-size="10.00">B2</text>
<text text-anchor="middle" x="1031" y="-585" font-family="Helvetica" font-size="10.00">Loop: &lt;none&gt;</text>
<text text-anchor="middle" x="1031" y="-574" font-family="Helvetica" font-size="10.00">&#45;&#45;&#45;</text>
<text text-anchor="middle" x="1031" y="-563" font-family="Helvetica" font-size="10.00">HotSpotMethod&lt;ArraysSupport.unsignedHashCode(int, byte[], int, int)&gt;</text>
</g>
<!-- b1&#45;&gt;b2 -->
<g id="edge3" class="edge">
<title>b1&#45;&gt;b2</title>
<path fill="none" stroke="black" d="M641.4,-349.02C721.37,-396.97 891.68,-499.07 977.81,-550.71"/>
<polygon fill="black" stroke="black" points="976.25,-553.86 986.63,-556 979.85,-547.85 976.25,-553.86"/>
</g>
<!-- b8 -->
<g id="node9" class="node">
<title>b8</title>
<polygon fill="white" stroke="black" points="2062,-411 1736,-411 1736,-359 2062,-359 2062,-411"/>
<text text-anchor="middle" x="1899" y="-399" font-family="Helvetica" font-size="10.00">B8</text>
<text text-anchor="middle" x="1899" y="-388" font-family="Helvetica" font-size="10.00">Loop: &lt;none&gt;</text>
<text text-anchor="middle" x="1899" y="-377" font-family="Helvetica" font-size="10.00">&#45;&#45;&#45;</text>
<text text-anchor="middle" x="1899" y="-366" font-family="Helvetica" font-size="10.00">HotSpotMethod&lt;ArraysSupport.unsignedHashCode(int, byte[], int, int)&gt;</text>
</g>
<!-- b1&#45;&gt;b8 -->
<g id="edge4" class="edge">
<title>b1&#45;&gt;b8</title>
<path fill="none" stroke="black" d="M760.02,-330.73C1006.52,-342.48 1473.67,-364.76 1725.99,-376.8"/>
<polygon fill="black" stroke="black" points="1725.83,-380.29 1735.99,-377.27 1726.17,-373.3 1725.83,-380.29"/>
</g>
<!-- b3 -->
<g id="node4" class="node">
<title>b3</title>
<polygon fill="white" stroke="black" points="1628,-608 1302,-608 1302,-556 1628,-556 1628,-608"/>
<text text-anchor="middle" x="1465" y="-596" font-family="Helvetica" font-size="10.00">B3</text>
<text text-anchor="middle" x="1465" y="-585" font-family="Helvetica" font-size="10.00">Loop: &lt;none&gt;</text>
<text text-anchor="middle" x="1465" y="-574" font-family="Helvetica" font-size="10.00">&#45;&#45;&#45;</text>
<text text-anchor="middle" x="1465" y="-563" font-family="Helvetica" font-size="10.00">HotSpotMethod&lt;ArraysSupport.unsignedHashCode(int, byte[], int, int)&gt;</text>
</g>
<!-- b2&#45;&gt;b3 -->
<g id="edge5" class="edge">
<title>b2&#45;&gt;b3</title>
<path fill="none" stroke="black" d="M1194.09,-582C1225.85,-582 1259.27,-582 1291.35,-582"/>
<polygon fill="black" stroke="black" points="1291.72,-585.5 1301.72,-582 1291.72,-578.5 1291.72,-585.5"/>
</g>
<!-- b6 -->
<g id="node7" class="node">
<title>b6</title>
<polygon fill="white" stroke="black" points="2062,-743 1736,-743 1736,-691 2062,-691 2062,-743"/>
<text text-anchor="middle" x="1899" y="-731" font-family="Helvetica" font-size="10.00">B6</text>
<text text-anchor="middle" x="1899" y="-720" font-family="Helvetica" font-size="10.00">Loop: &lt;none&gt;</text>
<text text-anchor="middle" x="1899" y="-709" font-family="Helvetica" font-size="10.00">&#45;&#45;&#45;</text>
<text text-anchor="middle" x="1899" y="-698" font-family="Helvetica" font-size="10.00">HotSpotMethod&lt;ArraysSupport.unsignedHashCode(int, byte[], int, int)&gt;</text>
</g>
<!-- b2&#45;&gt;b6 -->
<g id="edge6" class="edge">
<title>b2&#45;&gt;b6</title>
<path fill="none" stroke="black" d="M1134.06,-608.07C1184.37,-620.25 1246.1,-634.19 1302,-644 1443.94,-668.92 1606.37,-688.21 1725.78,-700.69"/>
<polygon fill="black" stroke="black" points="1725.44,-704.17 1735.75,-701.73 1726.17,-697.21 1725.44,-704.17"/>
</g>
<!-- b5 -->
<g id="node6" class="node">
<title>b5</title>
<polygon fill="white" stroke="black" points="2500,-608 2174,-608 2174,-556 2500,-556 2500,-608"/>
<text text-anchor="middle" x="2337" y="-596" font-family="Helvetica" font-size="10.00">B5</text>
<text text-anchor="middle" x="2337" y="-585" font-family="Helvetica" font-size="10.00">Loop: &lt;none&gt;</text>
<text text-anchor="middle" x="2337" y="-574" font-family="Helvetica" font-size="10.00">&#45;&#45;&#45;</text>
<text text-anchor="middle" x="2337" y="-563" font-family="Helvetica" font-size="10.00">HotSpotMethod&lt;ArraysSupport.unsignedHashCode(int, byte[], int, int)&gt;</text>
</g>
<!-- b3&#45;&gt;b5 -->
<g id="edge8" class="edge">
<title>b3&#45;&gt;b5</title>
<path fill="none" stroke="black" d="M1628.11,-582C1780.6,-582 2008.15,-582 2163.83,-582"/>
<polygon fill="black" stroke="black" points="2163.98,-585.5 2173.98,-582 2163.98,-578.5 2163.98,-585.5"/>
</g>
<!-- b3&#45;&gt;b8 -->
<g id="edge7" class="edge">
<title>b3&#45;&gt;b8</title>
<path fill="none" stroke="black" d="M1538.79,-555.88C1566.91,-545.33 1599.2,-532.68 1628,-520 1702.59,-487.17 1786.19,-444.41 1840.33,-415.9"/>
<polygon fill="black" stroke="black" points="1842.21,-418.87 1849.42,-411.1 1838.94,-412.68 1842.21,-418.87"/>
</g>
<!-- b4 -->
<g id="node5" class="node">
<title>b4</title>
<polygon fill="white" stroke="black" points="1628,-214 1302,-214 1302,-162 1628,-162 1628,-214"/>
<text text-anchor="middle" x="1465" y="-202" font-family="Helvetica" font-size="10.00">B4</text>
<text text-anchor="middle" x="1465" y="-191" font-family="Helvetica" font-size="10.00">Loop: &lt;none&gt;</text>
<text text-anchor="middle" x="1465" y="-180" font-family="Helvetica" font-size="10.00">&#45;&#45;&#45;</text>
<text text-anchor="middle" x="1465" y="-169" font-family="Helvetica" font-size="10.00">HotSpotMethod&lt;ArraysSupport.unsignedHashCode(int, byte[], int, int)&gt;</text>
</g>
<!-- b4&#45;&gt;b8 -->
<g id="edge9" class="edge">
<title>b4&#45;&gt;b8</title>
<path fill="none" stroke="black" d="M1523.37,-214.16C1603.12,-250.53 1747.17,-316.22 1831.51,-354.68"/>
<polygon fill="black" stroke="black" points="1830.19,-357.92 1840.74,-358.89 1833.09,-351.56 1830.19,-357.92"/>
</g>
<!-- b20 -->
<g id="node21" class="node">
<title>b20</title>
<polygon fill="white" stroke="black" points="2938,-608 2612,-608 2612,-556 2938,-556 2938,-608"/>
<text text-anchor="middle" x="2775" y="-596" font-family="Helvetica" font-size="10.00">B20</text>
<text text-anchor="middle" x="2775" y="-585" font-family="Helvetica" font-size="10.00">Loop: &lt;none&gt;</text>
<text text-anchor="middle" x="2775" y="-574" font-family="Helvetica" font-size="10.00">&#45;&#45;&#45;</text>
<text text-anchor="middle" x="2775" y="-563" font-family="Helvetica" font-size="10.00">HotSpotMethod&lt;ArraysSupport.unsignedHashCode(int, byte[], int, int)&gt;</text>
</g>
<!-- b5&#45;&gt;b20 -->
<g id="edge10" class="edge">
<title>b5&#45;&gt;b20</title>
<path fill="none" stroke="black" d="M2500.04,-582C2533.08,-582 2567.96,-582 2601.35,-582"/>
<polygon fill="black" stroke="black" points="2601.66,-585.5 2611.66,-582 2601.66,-578.5 2601.66,-585.5"/>
</g>
<!-- b6&#45;&gt;b20 -->
<g id="edge11" class="edge">
<title>b6&#45;&gt;b20</title>
<path fill="none" stroke="black" d="M2062.19,-702.08C2184.18,-689.73 2355.21,-670 2504,-644 2556.41,-634.84 2613.95,-622.02 2662.39,-610.41"/>
<polygon fill="black" stroke="black" points="2663.37,-613.78 2672.27,-608.03 2661.73,-606.97 2663.37,-613.78"/>
</g>
<!-- b7 -->
<g id="node8" class="node">
<title>b7</title>
<polygon fill="white" stroke="black" points="1628,-484 1302,-484 1302,-432 1628,-432 1628,-484"/>
<text text-anchor="middle" x="1465" y="-472" font-family="Helvetica" font-size="10.00">B7</text>
<text text-anchor="middle" x="1465" y="-461" font-family="Helvetica" font-size="10.00">Loop: &lt;none&gt;</text>
<text text-anchor="middle" x="1465" y="-450" font-family="Helvetica" font-size="10.00">&#45;&#45;&#45;</text>
<text text-anchor="middle" x="1465" y="-439" font-family="Helvetica" font-size="10.00">HotSpotMethod&lt;ArraysSupport.unsignedHashCode(int, byte[], int, int)&gt;</text>
</g>
<!-- b7&#45;&gt;b8 -->
<g id="edge12" class="edge">
<title>b7&#45;&gt;b8</title>
<path fill="none" stroke="black" d="M1620.13,-431.95C1657.06,-425.71 1696.62,-419.03 1733.97,-412.72"/>
<polygon fill="black" stroke="black" points="1734.65,-416.15 1743.93,-411.04 1733.48,-409.25 1734.65,-416.15"/>
</g>
<!-- b9 -->
<g id="node10" class="node">
<title>b9</title>
<polygon fill="white" stroke="black" stroke-width="4" points="2500,-355.5 2174,-355.5 2174,-270.5 2500,-270.5 2500,-355.5"/>
<polygon fill="none" stroke="black" stroke-width="4" points="2504,-359.5 2170,-359.5 2170,-266.5 2504,-266.5 2504,-359.5"/>
<text text-anchor="middle" x="2337" y="-343.5" font-family="Helvetica" font-size="10.00">B9</text>
<text text-anchor="middle" x="2337" y="-332.5" font-family="Helvetica" font-size="10.00">Loop: &lt;none&gt;</text>
<text text-anchor="middle" x="2337" y="-321.5" font-family="Helvetica" font-size="10.00">&#45;&#45;&#45;</text>
<text text-anchor="middle" x="2337" y="-310.5" font-family="Helvetica" font-size="10.00">HotSpotMethod&lt;ArraysSupport.unsignedHashCode(int, byte[], int, int)&gt;</text>
<text text-anchor="middle" x="2337" y="-299.5" font-family="Helvetica" font-size="10.00">&#45;&#45;&#45;</text>
<text text-anchor="middle" x="2337" y="-288.5" font-family="Helvetica" font-size="10.00">BuboLoopMakers:</text>
<text text-anchor="middle" x="2337" y="-277.5" font-family="Helvetica" font-size="10.00"> &#160;AMD64BuboRDTSCToSlot (LoopID=0)</text>
</g>
<!-- b8&#45;&gt;b9 -->
<g id="edge13" class="edge">
<title>b8&#45;&gt;b9</title>
<path fill="none" stroke="black" d="M2057.71,-358.96C2090.89,-353.48 2126.09,-347.66 2159.89,-342.08"/>
<polygon fill="black" stroke="black" points="2160.56,-345.52 2169.85,-340.44 2159.42,-338.61 2160.56,-345.52"/>
</g>
<!-- b19 -->
<g id="node20" class="node">
<title>b19</title>
<polygon fill="white" stroke="black" points="2500,-484 2174,-484 2174,-432 2500,-432 2500,-484"/>
<text text-anchor="middle" x="2337" y="-472" font-family="Helvetica" font-size="10.00">B19</text>
<text text-anchor="middle" x="2337" y="-461" font-family="Helvetica" font-size="10.00">Loop: &lt;none&gt;</text>
<text text-anchor="middle" x="2337" y="-450" font-family="Helvetica" font-size="10.00">&#45;&#45;&#45;</text>
<text text-anchor="middle" x="2337" y="-439" font-family="Helvetica" font-size="10.00">HotSpotMethod&lt;ArraysSupport.unsignedHashCode(int, byte[], int, int)&gt;</text>
</g>
<!-- b8&#45;&gt;b19 -->
<g id="edge14" class="edge">
<title>b8&#45;&gt;b19</title>
<path fill="none" stroke="black" d="M2055.56,-411.05C2092.83,-417.29 2132.75,-423.97 2170.45,-430.28"/>
<polygon fill="black" stroke="black" points="2170.06,-433.77 2180.5,-431.96 2171.22,-426.86 2170.06,-433.77"/>
</g>
<!-- b10 -->
<g id="node11" class="node">
<title>b10</title>
<polygon fill="lightblue" stroke="black" points="2938,-365 2612,-365 2612,-313 2938,-313 2938,-365"/>
<text text-anchor="middle" x="2775" y="-353" font-family="Helvetica" font-size="10.00">B10</text>
<text text-anchor="middle" x="2775" y="-342" font-family="Helvetica" font-size="10.00">Loop: L0</text>
<text text-anchor="middle" x="2775" y="-331" font-family="Helvetica" font-size="10.00">&#45;&#45;&#45;</text>
<text text-anchor="middle" x="2775" y="-320" font-family="Helvetica" font-size="10.00">HotSpotMethod&lt;ArraysSupport.unsignedHashCode(int, byte[], int, int)&gt;</text>
</g>
<!-- b9&#45;&gt;b10 -->
<g id="edge15" class="edge">
<title>b9&#45;&gt;b10</title>
<path fill="none" stroke="black" d="M2504.08,-322.9C2536,-324.81 2569.5,-326.8 2601.61,-328.72"/>
<polygon fill="black" stroke="black" points="2601.8,-332.24 2611.99,-329.34 2602.21,-325.25 2601.8,-332.24"/>
</g>
<!-- b11 -->
<g id="node12" class="node">
<title>b11</title>
<polygon fill="lightblue" stroke="black" points="3376,-455.5 3050,-455.5 3050,-392.5 3376,-392.5 3376,-455.5"/>
<text text-anchor="middle" x="3213" y="-443.5" font-family="Helvetica" font-size="10.00">B11</text>
<text text-anchor="middle" x="3213" y="-432.5" font-family="Helvetica" font-size="10.00">Loop: L0</text>
<text text-anchor="middle" x="3213" y="-421.5" font-family="Helvetica" font-size="10.00">&#45;&#45;&#45;</text>
<text text-anchor="middle" x="3213" y="-410.5" font-family="Helvetica" font-size="10.00">HotSpotMethod&lt;ArraysSupport.unsignedHashCode(int, byte[], int, int)&gt;</text>
<text text-anchor="middle" x="3213" y="-399.5" font-family="Helvetica" font-size="10.00">HotSpotMethod&lt;Byte.toUnsignedInt(byte)&gt;</text>
</g>
<!-- b10&#45;&gt;b11 -->
<g id="edge16" class="edge">
<title>b10&#45;&gt;b11</title>
<path fill="none" stroke="black" d="M2938.04,-344.4C3007.85,-355.95 3085.87,-373.03 3140.74,-389.52"/>
<polygon fill="black" stroke="black" points="3139.78,-392.89 3150.37,-392.48 3141.84,-386.2 3139.78,-392.89"/>
</g>
<!-- b12 -->
<g id="node13" class="node">
<title>b12</title>
<polygon fill="white" stroke="black" stroke-width="4" points="3376,-316 3050,-316 3050,-220 3376,-220 3376,-316"/>
<polygon fill="none" stroke="black" stroke-width="4" points="3380,-320 3046,-320 3046,-216 3380,-216 3380,-320"/>
<text text-anchor="middle" x="3213" y="-304" font-family="Helvetica" font-size="10.00">B12</text>
<text text-anchor="middle" x="3213" y="-293" font-family="Helvetica" font-size="10.00">Loop: &lt;none&gt;</text>
<text text-anchor="middle" x="3213" y="-282" font-family="Helvetica" font-size="10.00">&#45;&#45;&#45;</text>
<text text-anchor="middle" x="3213" y="-271" font-family="Helvetica" font-size="10.00">HotSpotMethod&lt;ArraysSupport.unsignedHashCode(int, byte[], int, int)&gt;</text>
<text text-anchor="middle" x="3213" y="-260" font-family="Helvetica" font-size="10.00">&#45;&#45;&#45;</text>
<text text-anchor="middle" x="3213" y="-249" font-family="Helvetica" font-size="10.00">BuboLoopMakers:</text>
<text text-anchor="middle" x="3213" y="-238" font-family="Helvetica" font-size="10.00"> &#160;AMD64BuboWriteDeltaRDTSC</text>
<text text-anchor="middle" x="3213" y="-227" font-family="Helvetica" font-size="10.00"> &#160;AMD64BuboRDTSCToSlot (LoopID=1)</text>
</g>
<!-- b10&#45;&gt;b12 -->
<g id="edge17" class="edge">
<title>b10&#45;&gt;b12</title>
<path fill="none" stroke="black" d="M2935.87,-312.97C2968.36,-307.68 3002.71,-302.08 3035.72,-296.71"/>
<polygon fill="black" stroke="black" points="3036.62,-300.11 3045.93,-295.04 3035.49,-293.2 3036.62,-300.11"/>
</g>
<!-- b11&#45;&gt;b10 -->
<g id="edge18" class="edge">
<title>b11&#45;&gt;b10</title>
<path fill="none" stroke="black" d="M3049.89,-418.59C2972.65,-405.8 2885.38,-386.26 2830.54,-368.23"/>
<polygon fill="black" stroke="black" points="2831.61,-364.9 2821.02,-365.01 2829.36,-371.53 2831.61,-364.9"/>
</g>
<!-- b13 -->
<g id="node14" class="node">
<title>b13</title>
<polygon fill="lightgreen" stroke="black" points="3814,-307 3488,-307 3488,-255 3814,-255 3814,-307"/>
<text text-anchor="middle" x="3651" y="-295" font-family="Helvetica" font-size="10.00">B13</text>
<text text-anchor="middle" x="3651" y="-284" font-family="Helvetica" font-size="10.00">Loop: L1</text>
<text text-anchor="middle" x="3651" y="-273" font-family="Helvetica" font-size="10.00">&#45;&#45;&#45;</text>
<text text-anchor="middle" x="3651" y="-262" font-family="Helvetica" font-size="10.00">HotSpotMethod&lt;ArraysSupport.unsignedHashCode(int, byte[], int, int)&gt;</text>
</g>
<!-- b12&#45;&gt;b13 -->
<g id="edge19" class="edge">
<title>b12&#45;&gt;b13</title>
<path fill="none" stroke="black" d="M3380.08,-272.95C3412,-273.9 3445.5,-274.9 3477.61,-275.86"/>
<polygon fill="black" stroke="black" points="3477.89,-279.37 3487.99,-276.17 3478.09,-272.37 3477.89,-279.37"/>
</g>
<!-- b14 -->
<g id="node15" class="node">
<title>b14</title>
<polygon fill="lightgreen" stroke="black" points="4252,-397.5 3926,-397.5 3926,-334.5 4252,-334.5 4252,-397.5"/>
<text text-anchor="middle" x="4089" y="-385.5" font-family="Helvetica" font-size="10.00">B14</text>
<text text-anchor="middle" x="4089" y="-374.5" font-family="Helvetica" font-size="10.00">Loop: L1</text>
<text text-anchor="middle" x="4089" y="-363.5" font-family="Helvetica" font-size="10.00">&#45;&#45;&#45;</text>
<text text-anchor="middle" x="4089" y="-352.5" font-family="Helvetica" font-size="10.00">HotSpotMethod&lt;ArraysSupport.unsignedHashCode(int, byte[], int, int)&gt;</text>
<text text-anchor="middle" x="4089" y="-341.5" font-family="Helvetica" font-size="10.00">HotSpotMethod&lt;Byte.toUnsignedInt(byte)&gt;</text>
</g>
<!-- b13&#45;&gt;b14 -->
<g id="edge20" class="edge">
<title>b13&#45;&gt;b14</title>
<path fill="none" stroke="black" d="M3814.04,-286.4C3883.85,-297.95 3961.87,-315.03 4016.74,-331.52"/>
<polygon fill="black" stroke="black" points="4015.78,-334.89 4026.37,-334.48 4017.84,-328.2 4015.78,-334.89"/>
</g>
<!-- b15 -->
<g id="node16" class="node">
<title>b15</title>
<polygon fill="white" stroke="black" stroke-width="4" points="4252,-258 3926,-258 3926,-162 4252,-162 4252,-258"/>
<polygon fill="none" stroke="black" stroke-width="4" points="4256,-262 3922,-262 3922,-158 4256,-158 4256,-262"/>
<text text-anchor="middle" x="4089" y="-246" font-family="Helvetica" font-size="10.00">B15</text>
<text text-anchor="middle" x="4089" y="-235" font-family="Helvetica" font-size="10.00">Loop: &lt;none&gt;</text>
<text text-anchor="middle" x="4089" y="-224" font-family="Helvetica" font-size="10.00">&#45;&#45;&#45;</text>
<text text-anchor="middle" x="4089" y="-213" font-family="Helvetica" font-size="10.00">HotSpotMethod&lt;ArraysSupport.unsignedHashCode(int, byte[], int, int)&gt;</text>
<text text-anchor="middle" x="4089" y="-202" font-family="Helvetica" font-size="10.00">&#45;&#45;&#45;</text>
<text text-anchor="middle" x="4089" y="-191" font-family="Helvetica" font-size="10.00">BuboLoopMakers:</text>
<text text-anchor="middle" x="4089" y="-180" font-family="Helvetica" font-size="10.00"> &#160;AMD64BuboWriteDeltaRDTSC</text>
<text text-anchor="middle" x="4089" y="-169" font-family="Helvetica" font-size="10.00"> &#160;AMD64BuboRDTSCToSlot (LoopID=2)</text>
</g>
<!-- b13&#45;&gt;b15 -->
<g id="edge21" class="edge">
<title>b13&#45;&gt;b15</title>
<path fill="none" stroke="black" d="M3811.87,-254.97C3844.36,-249.68 3878.71,-244.08 3911.72,-238.71"/>
<polygon fill="black" stroke="black" points="3912.62,-242.11 3921.93,-237.04 3911.49,-235.2 3912.62,-242.11"/>
</g>
<!-- b14&#45;&gt;b13 -->
<g id="edge22" class="edge">
<title>b14&#45;&gt;b13</title>
<path fill="none" stroke="black" d="M3925.89,-360.59C3848.65,-347.8 3761.38,-328.26 3706.54,-310.23"/>
<polygon fill="black" stroke="black" points="3707.61,-306.9 3697.02,-307.01 3705.36,-313.53 3707.61,-306.9"/>
</g>
<!-- b16 -->
<g id="node17" class="node">
<title>b16</title>
<polygon fill="lightpink" stroke="black" points="4690,-284 4364,-284 4364,-232 4690,-232 4690,-284"/>
<text text-anchor="middle" x="4527" y="-272" font-family="Helvetica" font-size="10.00">B16</text>
<text text-anchor="middle" x="4527" y="-261" font-family="Helvetica" font-size="10.00">Loop: L2</text>
<text text-anchor="middle" x="4527" y="-250" font-family="Helvetica" font-size="10.00">&#45;&#45;&#45;</text>
<text text-anchor="middle" x="4527" y="-239" font-family="Helvetica" font-size="10.00">HotSpotMethod&lt;ArraysSupport.unsignedHashCode(int, byte[], int, int)&gt;</text>
</g>
<!-- b15&#45;&gt;b16 -->
<g id="edge23" class="edge">
<title>b15&#45;&gt;b16</title>
<path fill="none" stroke="black" d="M4256.08,-228.28C4288.14,-231.81 4321.79,-235.52 4354.03,-239.07"/>
<polygon fill="black" stroke="black" points="4353.66,-242.55 4363.99,-240.16 4354.43,-235.59 4353.66,-242.55"/>
</g>
<!-- b17 -->
<g id="node18" class="node">
<title>b17</title>
<polygon fill="lightpink" stroke="black" points="5128,-337.5 4802,-337.5 4802,-274.5 5128,-274.5 5128,-337.5"/>
<text text-anchor="middle" x="4965" y="-325.5" font-family="Helvetica" font-size="10.00">B17</text>
<text text-anchor="middle" x="4965" y="-314.5" font-family="Helvetica" font-size="10.00">Loop: L2</text>
<text text-anchor="middle" x="4965" y="-303.5" font-family="Helvetica" font-size="10.00">&#45;&#45;&#45;</text>
<text text-anchor="middle" x="4965" y="-292.5" font-family="Helvetica" font-size="10.00">HotSpotMethod&lt;ArraysSupport.unsignedHashCode(int, byte[], int, int)&gt;</text>
<text text-anchor="middle" x="4965" y="-281.5" font-family="Helvetica" font-size="10.00">HotSpotMethod&lt;Byte.toUnsignedInt(byte)&gt;</text>
</g>
<!-- b16&#45;&gt;b17 -->
<g id="edge24" class="edge">
<title>b16&#45;&gt;b17</title>
<path fill="none" stroke="black" d="M4690.04,-249.65C4749.89,-254.47 4815.77,-262.85 4867.93,-272.6"/>
<polygon fill="black" stroke="black" points="4867.36,-276.05 4877.84,-274.5 4868.68,-269.18 4867.36,-276.05"/>
</g>
<!-- b18 -->
<g id="node19" class="node">
<title>b18</title>
<polygon fill="white" stroke="black" stroke-width="4" points="5128,-198.5 4802,-198.5 4802,-113.5 5128,-113.5 5128,-198.5"/>
<polygon fill="none" stroke="black" stroke-width="4" points="5132,-202.5 4798,-202.5 4798,-109.5 5132,-109.5 5132,-202.5"/>
<text text-anchor="middle" x="4965" y="-186.5" font-family="Helvetica" font-size="10.00">B18</text>
<text text-anchor="middle" x="4965" y="-175.5" font-family="Helvetica" font-size="10.00">Loop: &lt;none&gt;</text>
<text text-anchor="middle" x="4965" y="-164.5" font-family="Helvetica" font-size="10.00">&#45;&#45;&#45;</text>
<text text-anchor="middle" x="4965" y="-153.5" font-family="Helvetica" font-size="10.00">HotSpotMethod&lt;ArraysSupport.unsignedHashCode(int, byte[], int, int)&gt;</text>
<text text-anchor="middle" x="4965" y="-142.5" font-family="Helvetica" font-size="10.00">&#45;&#45;&#45;</text>
<text text-anchor="middle" x="4965" y="-131.5" font-family="Helvetica" font-size="10.00">BuboLoopMakers:</text>
<text text-anchor="middle" x="4965" y="-120.5" font-family="Helvetica" font-size="10.00"> &#160;AMD64BuboWriteDeltaRDTSC (LoopID=2)</text>
</g>
<!-- b16&#45;&gt;b18 -->
<g id="edge25" class="edge">
<title>b16&#45;&gt;b18</title>
<path fill="none" stroke="black" d="M4639.15,-232C4684.33,-221.43 4737.64,-208.96 4787.87,-197.21"/>
<polygon fill="black" stroke="black" points="4788.93,-200.55 4797.87,-194.87 4787.33,-193.74 4788.93,-200.55"/>
</g>
<!-- b17&#45;&gt;b16 -->
<g id="edge26" class="edge">
<title>b17&#45;&gt;b16</title>
<path fill="none" stroke="black" d="M4801.55,-314.32C4731.56,-308.66 4653.37,-298.15 4598.58,-286.29"/>
<polygon fill="black" stroke="black" points="4599.15,-282.83 4588.62,-284.05 4597.62,-289.66 4599.15,-282.83"/>
</g>
<!-- b22 -->
<g id="node23" class="node">
<title>b22</title>
<polygon fill="white" stroke="black" points="5566,-104 5240,-104 5240,-52 5566,-52 5566,-104"/>
<text text-anchor="middle" x="5403" y="-92" font-family="Helvetica" font-size="10.00">B22</text>
<text text-anchor="middle" x="5403" y="-81" font-family="Helvetica" font-size="10.00">Loop: &lt;none&gt;</text>
<text text-anchor="middle" x="5403" y="-70" font-family="Helvetica" font-size="10.00">&#45;&#45;&#45;</text>
<text text-anchor="middle" x="5403" y="-59" font-family="Helvetica" font-size="10.00">HotSpotMethod&lt;ArraysSupport.unsignedHashCode(int, byte[], int, int)&gt;</text>
</g>
<!-- b18&#45;&gt;b22 -->
<g id="edge27" class="edge">
<title>b18&#45;&gt;b22</title>
<path fill="none" stroke="black" d="M5132.08,-126.29C5169.63,-119.57 5209.37,-112.46 5246.47,-105.82"/>
<polygon fill="black" stroke="black" points="5247.12,-109.26 5256.35,-104.06 5245.89,-102.37 5247.12,-109.26"/>
</g>
<!-- b19&#45;&gt;b20 -->
<g id="edge28" class="edge">
<title>b19&#45;&gt;b20</title>
<path fill="none" stroke="black" d="M2429.67,-484.07C2500.78,-504.3 2599.28,-532.31 2672.72,-553.2"/>
<polygon fill="black" stroke="black" points="2671.88,-556.6 2682.46,-555.96 2673.8,-549.86 2671.88,-556.6"/>
</g>
<!-- b21&#45;&gt;b22 -->
<g id="edge29" class="edge">
<title>b21&#45;&gt;b22</title>
<path fill="none" stroke="black" d="M1180.88,-67.94C1352.99,-40.12 1645.07,0 1898,0 1898,0 1898,0 4528,0 4772.33,0 5053.57,-30.62 5229.56,-53.49"/>
<polygon fill="black" stroke="black" points="5229.32,-56.98 5239.69,-54.81 5230.23,-50.04 5229.32,-56.98"/>
</g>
</g>
</svg>
