<?xml version="1.0" encoding="UTF-8" standalone="no"?>
<!DOCTYPE svg PUBLIC "-//W3C//DTD SVG 1.1//EN"
 "http://www.w3.org/Graphics/SVG/1.1/DTD/svg11.dtd">
<!-- Generated by graphviz version 2.44.0 (0)
 -->
<!-- Title: CFG_55 Pages: 1 -->
<svg width="6580pt" height="1377pt"
 viewBox="0.00 0.00 6580.00 1376.51" xmlns="http://www.w3.org/2000/svg" xmlns:xlink="http://www.w3.org/1999/xlink">
<g id="graph0" class="graph" transform="scale(1 1) rotate(0) translate(4 1372.51)">
<title>CFG_55</title>
<polygon fill="white" stroke="transparent" points="-4,4 -4,-1372.51 6576,-1372.51 6576,4 -4,4"/>
<text text-anchor="middle" x="286" y="-1348.51" font-family="Times-Roman" font-size="20.00">87&#45;java.lang.StringCoding.countPositives(byte[], int, int)</text>
<!-- b0 -->
<g id="node1" class="node">
<title>b0</title>
<polygon fill="white" stroke="black" points="284,-872.51 0,-872.51 0,-820.51 284,-820.51 284,-872.51"/>
<text text-anchor="middle" x="142" y="-860.51" font-family="Helvetica" font-size="10.00">B0</text>
<text text-anchor="middle" x="142" y="-849.51" font-family="Helvetica" font-size="10.00">Loop: &lt;none&gt;</text>
<text text-anchor="middle" x="142" y="-838.51" font-family="Helvetica" font-size="10.00">&#45;&#45;&#45;</text>
<text text-anchor="middle" x="142" y="-827.51" font-family="Helvetica" font-size="10.00">HotSpotMethod&lt;StringCoding.countPositives(byte[], int, int)&gt;</text>
</g>
<!-- b1 -->
<g id="node2" class="node">
<title>b1</title>
<polygon fill="white" stroke="black" points="676,-934.51 392,-934.51 392,-882.51 676,-882.51 676,-934.51"/>
<text text-anchor="middle" x="534" y="-922.51" font-family="Helvetica" font-size="10.00">B1</text>
<text text-anchor="middle" x="534" y="-911.51" font-family="Helvetica" font-size="10.00">Loop: &lt;none&gt;</text>
<text text-anchor="middle" x="534" y="-900.51" font-family="Helvetica" font-size="10.00">&#45;&#45;&#45;</text>
<text text-anchor="middle" x="534" y="-889.51" font-family="Helvetica" font-size="10.00">HotSpotMethod&lt;StringCoding.countPositives(byte[], int, int)&gt;</text>
</g>
<!-- b0&#45;&gt;b1 -->
<g id="edge1" class="edge">
<title>b0&#45;&gt;b1</title>
<path fill="none" stroke="black" d="M284.07,-868.94C315.9,-874 349.79,-879.39 382,-884.51"/>
<polygon fill="black" stroke="black" points="381.52,-887.98 391.94,-886.09 382.62,-881.06 381.52,-887.98"/>
</g>
<!-- b2 -->
<g id="node3" class="node">
<title>b2</title>
<polygon fill="white" stroke="black" points="676,-810.51 392,-810.51 392,-758.51 676,-758.51 676,-810.51"/>
<text text-anchor="middle" x="534" y="-798.51" font-family="Helvetica" font-size="10.00">B2</text>
<text text-anchor="middle" x="534" y="-787.51" font-family="Helvetica" font-size="10.00">Loop: &lt;none&gt;</text>
<text text-anchor="middle" x="534" y="-776.51" font-family="Helvetica" font-size="10.00">&#45;&#45;&#45;</text>
<text text-anchor="middle" x="534" y="-765.51" font-family="Helvetica" font-size="10.00">HotSpotMethod&lt;StringCoding.countPositives(byte[], int, int)&gt;</text>
</g>
<!-- b0&#45;&gt;b2 -->
<g id="edge2" class="edge">
<title>b0&#45;&gt;b2</title>
<path fill="none" stroke="black" d="M284.07,-824.09C315.9,-819.03 349.79,-813.64 382,-808.52"/>
<polygon fill="black" stroke="black" points="382.62,-811.96 391.94,-806.94 381.52,-805.05 382.62,-811.96"/>
</g>
<!-- b3 -->
<g id="node4" class="node">
<title>b3</title>
<polygon fill="white" stroke="black" points="1068,-872.51 784,-872.51 784,-820.51 1068,-820.51 1068,-872.51"/>
<text text-anchor="middle" x="926" y="-860.51" font-family="Helvetica" font-size="10.00">B3</text>
<text text-anchor="middle" x="926" y="-849.51" font-family="Helvetica" font-size="10.00">Loop: &lt;none&gt;</text>
<text text-anchor="middle" x="926" y="-838.51" font-family="Helvetica" font-size="10.00">&#45;&#45;&#45;</text>
<text text-anchor="middle" x="926" y="-827.51" font-family="Helvetica" font-size="10.00">HotSpotMethod&lt;StringCoding.countPositives(byte[], int, int)&gt;</text>
</g>
<!-- b1&#45;&gt;b3 -->
<g id="edge3" class="edge">
<title>b1&#45;&gt;b3</title>
<path fill="none" stroke="black" d="M676.07,-886.09C707.9,-881.03 741.79,-875.64 774,-870.52"/>
<polygon fill="black" stroke="black" points="774.62,-873.96 783.94,-868.94 773.52,-867.05 774.62,-873.96"/>
</g>
<!-- b2&#45;&gt;b3 -->
<g id="edge4" class="edge">
<title>b2&#45;&gt;b3</title>
<path fill="none" stroke="black" d="M676.07,-806.94C707.9,-812 741.79,-817.39 774,-822.51"/>
<polygon fill="black" stroke="black" points="773.52,-825.98 783.94,-824.09 774.62,-819.06 773.52,-825.98"/>
</g>
<!-- b5 -->
<g id="node6" class="node">
<title>b5</title>
<polygon fill="white" stroke="black" points="1460,-743.51 1176,-743.51 1176,-691.51 1460,-691.51 1460,-743.51"/>
<text text-anchor="middle" x="1318" y="-731.51" font-family="Helvetica" font-size="10.00">B5</text>
<text text-anchor="middle" x="1318" y="-720.51" font-family="Helvetica" font-size="10.00">Loop: &lt;none&gt;</text>
<text text-anchor="middle" x="1318" y="-709.51" font-family="Helvetica" font-size="10.00">&#45;&#45;&#45;</text>
<text text-anchor="middle" x="1318" y="-698.51" font-family="Helvetica" font-size="10.00">HotSpotMethod&lt;StringCoding.countPositives(byte[], int, int)&gt;</text>
</g>
<!-- b3&#45;&gt;b5 -->
<g id="edge6" class="edge">
<title>b3&#45;&gt;b5</title>
<path fill="none" stroke="black" d="M1005.92,-820.41C1070.41,-799.08 1161.54,-768.94 1228.5,-746.79"/>
<polygon fill="black" stroke="black" points="1229.8,-750.04 1238.2,-743.58 1227.6,-743.4 1229.8,-750.04"/>
</g>
<!-- b7 -->
<g id="node8" class="node">
<title>b7</title>
<polygon fill="white" stroke="black" points="1852,-1002.51 1568,-1002.51 1568,-950.51 1852,-950.51 1852,-1002.51"/>
<text text-anchor="middle" x="1710" y="-990.51" font-family="Helvetica" font-size="10.00">B7</text>
<text text-anchor="middle" x="1710" y="-979.51" font-family="Helvetica" font-size="10.00">Loop: &lt;none&gt;</text>
<text text-anchor="middle" x="1710" y="-968.51" font-family="Helvetica" font-size="10.00">&#45;&#45;&#45;</text>
<text text-anchor="middle" x="1710" y="-957.51" font-family="Helvetica" font-size="10.00">HotSpotMethod&lt;StringCoding.countPositives(byte[], int, int)&gt;</text>
</g>
<!-- b3&#45;&gt;b7 -->
<g id="edge5" class="edge">
<title>b3&#45;&gt;b7</title>
<path fill="none" stroke="black" d="M1031.37,-872.58C1075.77,-883.1 1128.23,-894.79 1176,-903.51 1304.06,-926.89 1450.67,-946.45 1557.67,-959.42"/>
<polygon fill="black" stroke="black" points="1557.55,-962.93 1567.9,-960.66 1558.39,-955.98 1557.55,-962.93"/>
</g>
<!-- b4 -->
<g id="node5" class="node">
<title>b4</title>
<polygon fill="white" stroke="black" points="1460,-867.51 1176,-867.51 1176,-815.51 1460,-815.51 1460,-867.51"/>
<text text-anchor="middle" x="1318" y="-855.51" font-family="Helvetica" font-size="10.00">B4</text>
<text text-anchor="middle" x="1318" y="-844.51" font-family="Helvetica" font-size="10.00">Loop: &lt;none&gt;</text>
<text text-anchor="middle" x="1318" y="-833.51" font-family="Helvetica" font-size="10.00">&#45;&#45;&#45;</text>
<text text-anchor="middle" x="1318" y="-822.51" font-family="Helvetica" font-size="10.00">HotSpotMethod&lt;StringCoding.countPositives(byte[], int, int)&gt;</text>
</g>
<!-- b4&#45;&gt;b7 -->
<g id="edge7" class="edge">
<title>b4&#45;&gt;b7</title>
<path fill="none" stroke="black" d="M1394.2,-867.54C1460.05,-890.34 1555.66,-923.43 1624.22,-947.16"/>
<polygon fill="black" stroke="black" points="1623.11,-950.49 1633.7,-950.45 1625.4,-943.87 1623.11,-950.49"/>
</g>
<!-- b5&#45;&gt;b7 -->
<g id="edge8" class="edge">
<title>b5&#45;&gt;b7</title>
<path fill="none" stroke="black" d="M1387.81,-743.62C1411.36,-753.62 1437.43,-765.93 1460,-779.51 1541.7,-828.69 1626.69,-901.36 1673.21,-943.32"/>
<polygon fill="black" stroke="black" points="1671.13,-946.16 1680.89,-950.28 1675.83,-940.97 1671.13,-946.16"/>
</g>
<!-- b33 -->
<g id="node34" class="node">
<title>b33</title>
<polygon fill="white" stroke="black" points="2244,-194.51 1960,-194.51 1960,-142.51 2244,-142.51 2244,-194.51"/>
<text text-anchor="middle" x="2102" y="-182.51" font-family="Helvetica" font-size="10.00">B33</text>
<text text-anchor="middle" x="2102" y="-171.51" font-family="Helvetica" font-size="10.00">Loop: &lt;none&gt;</text>
<text text-anchor="middle" x="2102" y="-160.51" font-family="Helvetica" font-size="10.00">&#45;&#45;&#45;</text>
<text text-anchor="middle" x="2102" y="-149.51" font-family="Helvetica" font-size="10.00">HotSpotMethod&lt;StringCoding.countPositives(byte[], int, int)&gt;</text>
</g>
<!-- b5&#45;&gt;b33 -->
<g id="edge9" class="edge">
<title>b5&#45;&gt;b33</title>
<path fill="none" stroke="black" d="M1356.19,-691.4C1485.22,-600.82 1913.43,-300.2 2055.07,-200.76"/>
<polygon fill="black" stroke="black" points="2057.41,-203.39 2063.58,-194.78 2053.39,-197.66 2057.41,-203.39"/>
</g>
<!-- b6 -->
<g id="node7" class="node">
<title>b6</title>
<polygon fill="white" stroke="black" points="1460,-1137.51 1176,-1137.51 1176,-1085.51 1460,-1085.51 1460,-1137.51"/>
<text text-anchor="middle" x="1318" y="-1125.51" font-family="Helvetica" font-size="10.00">B6</text>
<text text-anchor="middle" x="1318" y="-1114.51" font-family="Helvetica" font-size="10.00">Loop: &lt;none&gt;</text>
<text text-anchor="middle" x="1318" y="-1103.51" font-family="Helvetica" font-size="10.00">&#45;&#45;&#45;</text>
<text text-anchor="middle" x="1318" y="-1092.51" font-family="Helvetica" font-size="10.00">HotSpotMethod&lt;StringCoding.countPositives(byte[], int, int)&gt;</text>
</g>
<!-- b6&#45;&gt;b7 -->
<g id="edge10" class="edge">
<title>b6&#45;&gt;b7</title>
<path fill="none" stroke="black" d="M1394.2,-1085.48C1460.05,-1062.69 1555.66,-1029.59 1624.22,-1005.86"/>
<polygon fill="black" stroke="black" points="1625.4,-1009.16 1633.7,-1002.58 1623.11,-1002.54 1625.4,-1009.16"/>
</g>
<!-- b8 -->
<g id="node9" class="node">
<title>b8</title>
<polygon fill="white" stroke="black" points="2244,-1002.51 1960,-1002.51 1960,-950.51 2244,-950.51 2244,-1002.51"/>
<text text-anchor="middle" x="2102" y="-990.51" font-family="Helvetica" font-size="10.00">B8</text>
<text text-anchor="middle" x="2102" y="-979.51" font-family="Helvetica" font-size="10.00">Loop: &lt;none&gt;</text>
<text text-anchor="middle" x="2102" y="-968.51" font-family="Helvetica" font-size="10.00">&#45;&#45;&#45;</text>
<text text-anchor="middle" x="2102" y="-957.51" font-family="Helvetica" font-size="10.00">HotSpotMethod&lt;StringCoding.countPositives(byte[], int, int)&gt;</text>
</g>
<!-- b7&#45;&gt;b8 -->
<g id="edge11" class="edge">
<title>b7&#45;&gt;b8</title>
<path fill="none" stroke="black" d="M1852.07,-976.51C1883.76,-976.51 1917.5,-976.51 1949.59,-976.51"/>
<polygon fill="black" stroke="black" points="1949.94,-980.01 1959.94,-976.51 1949.94,-973.01 1949.94,-980.01"/>
</g>
<!-- b32 -->
<g id="node33" class="node">
<title>b32</title>
<polygon fill="white" stroke="black" points="6572,-1055.51 6288,-1055.51 6288,-1003.51 6572,-1003.51 6572,-1055.51"/>
<text text-anchor="middle" x="6430" y="-1043.51" font-family="Helvetica" font-size="10.00">B32</text>
<text text-anchor="middle" x="6430" y="-1032.51" font-family="Helvetica" font-size="10.00">Loop: &lt;none&gt;</text>
<text text-anchor="middle" x="6430" y="-1021.51" font-family="Helvetica" font-size="10.00">&#45;&#45;&#45;</text>
<text text-anchor="middle" x="6430" y="-1010.51" font-family="Helvetica" font-size="10.00">HotSpotMethod&lt;StringCoding.countPositives(byte[], int, int)&gt;</text>
</g>
<!-- b7&#45;&gt;b32 -->
<g id="edge12" class="edge">
<title>b7&#45;&gt;b32</title>
<path fill="none" stroke="black" d="M1741.39,-1002.55C1841.49,-1085.55 2172.85,-1338.51 2493,-1338.51 2493,-1338.51 2493,-1338.51 5639,-1338.51 5941.08,-1338.51 6266.25,-1140.14 6383.58,-1061.28"/>
<polygon fill="black" stroke="black" points="6385.67,-1064.09 6391.99,-1055.59 6381.75,-1058.3 6385.67,-1064.09"/>
</g>
<!-- b9 -->
<g id="node10" class="node">
<title>b9</title>
<polygon fill="white" stroke="black" points="2636,-897.51 2352,-897.51 2352,-845.51 2636,-845.51 2636,-897.51"/>
<text text-anchor="middle" x="2494" y="-885.51" font-family="Helvetica" font-size="10.00">B9</text>
<text text-anchor="middle" x="2494" y="-874.51" font-family="Helvetica" font-size="10.00">Loop: &lt;none&gt;</text>
<text text-anchor="middle" x="2494" y="-863.51" font-family="Helvetica" font-size="10.00">&#45;&#45;&#45;</text>
<text text-anchor="middle" x="2494" y="-852.51" font-family="Helvetica" font-size="10.00">HotSpotMethod&lt;StringCoding.countPositives(byte[], int, int)&gt;</text>
</g>
<!-- b8&#45;&gt;b9 -->
<g id="edge13" class="edge">
<title>b8&#45;&gt;b9</title>
<path fill="none" stroke="black" d="M2199.65,-950.49C2256.27,-935.25 2327.87,-915.97 2386.16,-900.28"/>
<polygon fill="black" stroke="black" points="2387.39,-903.57 2396.13,-897.59 2385.57,-896.81 2387.39,-903.57"/>
</g>
<!-- b30 -->
<g id="node31" class="node">
<title>b30</title>
<polygon fill="white" stroke="black" points="3420,-1213.51 3136,-1213.51 3136,-1161.51 3420,-1161.51 3420,-1213.51"/>
<text text-anchor="middle" x="3278" y="-1201.51" font-family="Helvetica" font-size="10.00">B30</text>
<text text-anchor="middle" x="3278" y="-1190.51" font-family="Helvetica" font-size="10.00">Loop: &lt;none&gt;</text>
<text text-anchor="middle" x="3278" y="-1179.51" font-family="Helvetica" font-size="10.00">&#45;&#45;&#45;</text>
<text text-anchor="middle" x="3278" y="-1168.51" font-family="Helvetica" font-size="10.00">HotSpotMethod&lt;StringCoding.countPositives(byte[], int, int)&gt;</text>
</g>
<!-- b8&#45;&gt;b30 -->
<g id="edge14" class="edge">
<title>b8&#45;&gt;b30</title>
<path fill="none" stroke="black" d="M2244.03,-1001.86C2466.45,-1041.83 2896.86,-1119.19 3125.57,-1160.3"/>
<polygon fill="black" stroke="black" points="3125.18,-1163.78 3135.64,-1162.11 3126.42,-1156.89 3125.18,-1163.78"/>
</g>
<!-- b10 -->
<g id="node11" class="node">
<title>b10</title>
<polygon fill="white" stroke="black" points="3812,-392.51 3528,-392.51 3528,-340.51 3812,-340.51 3812,-392.51"/>
<text text-anchor="middle" x="3670" y="-380.51" font-family="Helvetica" font-size="10.00">B10</text>
<text text-anchor="middle" x="3670" y="-369.51" font-family="Helvetica" font-size="10.00">Loop: &lt;none&gt;</text>
<text text-anchor="middle" x="3670" y="-358.51" font-family="Helvetica" font-size="10.00">&#45;&#45;&#45;</text>
<text text-anchor="middle" x="3670" y="-347.51" font-family="Helvetica" font-size="10.00">HotSpotMethod&lt;StringCoding.countPositives(byte[], int, int)&gt;</text>
</g>
<!-- b9&#45;&gt;b10 -->
<g id="edge15" class="edge">
<title>b9&#45;&gt;b10</title>
<path fill="none" stroke="black" d="M2555.65,-845.43C2754.61,-759.84 3386.83,-487.89 3598.89,-396.67"/>
<polygon fill="black" stroke="black" points="3600.56,-399.76 3608.36,-392.6 3597.79,-393.33 3600.56,-399.76"/>
</g>
<!-- b11 -->
<g id="node12" class="node">
<title>b11</title>
<polygon fill="white" stroke="black" points="3028,-897.51 2744,-897.51 2744,-845.51 3028,-845.51 3028,-897.51"/>
<text text-anchor="middle" x="2886" y="-885.51" font-family="Helvetica" font-size="10.00">B11</text>
<text text-anchor="middle" x="2886" y="-874.51" font-family="Helvetica" font-size="10.00">Loop: &lt;none&gt;</text>
<text text-anchor="middle" x="2886" y="-863.51" font-family="Helvetica" font-size="10.00">&#45;&#45;&#45;</text>
<text text-anchor="middle" x="2886" y="-852.51" font-family="Helvetica" font-size="10.00">HotSpotMethod&lt;StringCoding.countPositives(byte[], int, int)&gt;</text>
</g>
<!-- b9&#45;&gt;b11 -->
<g id="edge16" class="edge">
<title>b9&#45;&gt;b11</title>
<path fill="none" stroke="black" d="M2636.07,-871.51C2667.76,-871.51 2701.5,-871.51 2733.59,-871.51"/>
<polygon fill="black" stroke="black" points="2733.94,-875.01 2743.94,-871.51 2733.94,-868.01 2733.94,-875.01"/>
</g>
<!-- b34 -->
<g id="node35" class="node">
<title>b34</title>
<polygon fill="white" stroke="black" points="5780,-617.51 5496,-617.51 5496,-565.51 5780,-565.51 5780,-617.51"/>
<text text-anchor="middle" x="5638" y="-605.51" font-family="Helvetica" font-size="10.00">B34</text>
<text text-anchor="middle" x="5638" y="-594.51" font-family="Helvetica" font-size="10.00">Loop: &lt;none&gt;</text>
<text text-anchor="middle" x="5638" y="-583.51" font-family="Helvetica" font-size="10.00">&#45;&#45;&#45;</text>
<text text-anchor="middle" x="5638" y="-572.51" font-family="Helvetica" font-size="10.00">HotSpotMethod&lt;StringCoding.countPositives(byte[], int, int)&gt;</text>
</g>
<!-- b10&#45;&gt;b34 -->
<g id="edge17" class="edge">
<title>b10&#45;&gt;b34</title>
<path fill="none" stroke="black" d="M3762.09,-340.48C3808.86,-328.44 3867.01,-315.5 3920,-309.51 4045.42,-295.34 4077.88,-304.41 4204,-309.51 4731.52,-330.86 4894.12,-218.92 5388,-405.51 5476.75,-439.05 5561.05,-514.26 5605.15,-558.08"/>
<polygon fill="black" stroke="black" points="5602.85,-560.74 5612.39,-565.35 5607.81,-555.8 5602.85,-560.74"/>
</g>
<!-- b12 -->
<g id="node13" class="node">
<title>b12</title>
<polygon fill="white" stroke="black" points="3420,-859.51 3136,-859.51 3136,-807.51 3420,-807.51 3420,-859.51"/>
<text text-anchor="middle" x="3278" y="-847.51" font-family="Helvetica" font-size="10.00">B12</text>
<text text-anchor="middle" x="3278" y="-836.51" font-family="Helvetica" font-size="10.00">Loop: &lt;none&gt;</text>
<text text-anchor="middle" x="3278" y="-825.51" font-family="Helvetica" font-size="10.00">&#45;&#45;&#45;</text>
<text text-anchor="middle" x="3278" y="-814.51" font-family="Helvetica" font-size="10.00">HotSpotMethod&lt;StringCoding.countPositives(byte[], int, int)&gt;</text>
</g>
<!-- b11&#45;&gt;b12 -->
<g id="edge18" class="edge">
<title>b11&#45;&gt;b12</title>
<path fill="none" stroke="black" d="M3028.07,-857.77C3059.76,-854.68 3093.5,-851.39 3125.59,-848.27"/>
<polygon fill="black" stroke="black" points="3126.33,-851.71 3135.94,-847.26 3125.65,-844.74 3126.33,-851.71"/>
</g>
<!-- b11&#45;&gt;b32 -->
<g id="edge19" class="edge">
<title>b11&#45;&gt;b32</title>
<path fill="none" stroke="black" d="M2955.41,-897.52C3089.98,-946.27 3399.45,-1046.51 3669,-1046.51 3669,-1046.51 3669,-1046.51 4455,-1046.51 5092.2,-1046.51 5250.88,-1081.51 5888,-1091.51 6017.76,-1093.55 6051.19,-1107.31 6180,-1091.51 6232.53,-1085.07 6289.93,-1071.26 6336.37,-1058.3"/>
<polygon fill="black" stroke="black" points="6337.43,-1061.64 6346.1,-1055.55 6335.53,-1054.9 6337.43,-1061.64"/>
</g>
<!-- b13 -->
<g id="node14" class="node">
<title>b13</title>
<polygon fill="white" stroke="black" points="3812,-859.51 3528,-859.51 3528,-807.51 3812,-807.51 3812,-859.51"/>
<text text-anchor="middle" x="3670" y="-847.51" font-family="Helvetica" font-size="10.00">B13</text>
<text text-anchor="middle" x="3670" y="-836.51" font-family="Helvetica" font-size="10.00">Loop: &lt;none&gt;</text>
<text text-anchor="middle" x="3670" y="-825.51" font-family="Helvetica" font-size="10.00">&#45;&#45;&#45;</text>
<text text-anchor="middle" x="3670" y="-814.51" font-family="Helvetica" font-size="10.00">HotSpotMethod&lt;StringCoding.countPositives(byte[], int, int)&gt;</text>
</g>
<!-- b12&#45;&gt;b13 -->
<g id="edge20" class="edge">
<title>b12&#45;&gt;b13</title>
<path fill="none" stroke="black" d="M3420.07,-833.51C3451.76,-833.51 3485.5,-833.51 3517.59,-833.51"/>
<polygon fill="black" stroke="black" points="3517.94,-837.01 3527.94,-833.51 3517.94,-830.01 3517.94,-837.01"/>
</g>
<!-- b19 -->
<g id="node20" class="node">
<title>b19</title>
<polygon fill="white" stroke="black" points="4596,-569.51 4312,-569.51 4312,-517.51 4596,-517.51 4596,-569.51"/>
<text text-anchor="middle" x="4454" y="-557.51" font-family="Helvetica" font-size="10.00">B19</text>
<text text-anchor="middle" x="4454" y="-546.51" font-family="Helvetica" font-size="10.00">Loop: &lt;none&gt;</text>
<text text-anchor="middle" x="4454" y="-535.51" font-family="Helvetica" font-size="10.00">&#45;&#45;&#45;</text>
<text text-anchor="middle" x="4454" y="-524.51" font-family="Helvetica" font-size="10.00">HotSpotMethod&lt;StringCoding.countPositives(byte[], int, int)&gt;</text>
</g>
<!-- b12&#45;&gt;b19 -->
<g id="edge21" class="edge">
<title>b12&#45;&gt;b19</title>
<path fill="none" stroke="black" d="M3383.48,-807.44C3428.01,-796.34 3480.54,-783.27 3528,-771.51 3819.1,-699.4 4161.88,-615.06 4337.1,-571.99"/>
<polygon fill="black" stroke="black" points="4337.98,-575.38 4346.85,-569.59 4336.31,-568.58 4337.98,-575.38"/>
</g>
<!-- b14 -->
<g id="node15" class="node">
<title>b14</title>
<polygon fill="white" stroke="black" points="4204,-791.51 3920,-791.51 3920,-739.51 4204,-739.51 4204,-791.51"/>
<text text-anchor="middle" x="4062" y="-779.51" font-family="Helvetica" font-size="10.00">B14</text>
<text text-anchor="middle" x="4062" y="-768.51" font-family="Helvetica" font-size="10.00">Loop: &lt;none&gt;</text>
<text text-anchor="middle" x="4062" y="-757.51" font-family="Helvetica" font-size="10.00">&#45;&#45;&#45;</text>
<text text-anchor="middle" x="4062" y="-746.51" font-family="Helvetica" font-size="10.00">HotSpotMethod&lt;StringCoding.countPositives(byte[], int, int)&gt;</text>
</g>
<!-- b13&#45;&gt;b14 -->
<g id="edge22" class="edge">
<title>b13&#45;&gt;b14</title>
<path fill="none" stroke="black" d="M3812.07,-808.92C3843.9,-803.37 3877.79,-797.46 3910,-791.84"/>
<polygon fill="black" stroke="black" points="3910.69,-795.27 3919.94,-790.11 3909.49,-788.38 3910.69,-795.27"/>
</g>
<!-- b17 -->
<g id="node18" class="node">
<title>b17</title>
<polygon fill="white" stroke="black" points="4596,-919.51 4312,-919.51 4312,-867.51 4596,-867.51 4596,-919.51"/>
<text text-anchor="middle" x="4454" y="-907.51" font-family="Helvetica" font-size="10.00">B17</text>
<text text-anchor="middle" x="4454" y="-896.51" font-family="Helvetica" font-size="10.00">Loop: &lt;none&gt;</text>
<text text-anchor="middle" x="4454" y="-885.51" font-family="Helvetica" font-size="10.00">&#45;&#45;&#45;</text>
<text text-anchor="middle" x="4454" y="-874.51" font-family="Helvetica" font-size="10.00">HotSpotMethod&lt;StringCoding.countPositives(byte[], int, int)&gt;</text>
</g>
<!-- b13&#45;&gt;b17 -->
<g id="edge23" class="edge">
<title>b13&#45;&gt;b17</title>
<path fill="none" stroke="black" d="M3812.16,-844.34C3950.39,-854.95 4160.31,-871.06 4301.87,-881.92"/>
<polygon fill="black" stroke="black" points="4301.7,-885.42 4311.94,-882.69 4302.24,-878.44 4301.7,-885.42"/>
</g>
<!-- b16 -->
<g id="node17" class="node">
<title>b16</title>
<polygon fill="white" stroke="black" points="4988,-763.51 4704,-763.51 4704,-711.51 4988,-711.51 4988,-763.51"/>
<text text-anchor="middle" x="4846" y="-751.51" font-family="Helvetica" font-size="10.00">B16</text>
<text text-anchor="middle" x="4846" y="-740.51" font-family="Helvetica" font-size="10.00">Loop: &lt;none&gt;</text>
<text text-anchor="middle" x="4846" y="-729.51" font-family="Helvetica" font-size="10.00">&#45;&#45;&#45;</text>
<text text-anchor="middle" x="4846" y="-718.51" font-family="Helvetica" font-size="10.00">HotSpotMethod&lt;StringCoding.countPositives(byte[], int, int)&gt;</text>
</g>
<!-- b14&#45;&gt;b16 -->
<g id="edge25" class="edge">
<title>b14&#45;&gt;b16</title>
<path fill="none" stroke="black" d="M4204.16,-760.46C4342.39,-755.51 4552.31,-747.99 4693.87,-742.92"/>
<polygon fill="black" stroke="black" points="4694.07,-746.42 4703.94,-742.56 4693.82,-739.42 4694.07,-746.42"/>
</g>
<!-- b14&#45;&gt;b19 -->
<g id="edge24" class="edge">
<title>b14&#45;&gt;b19</title>
<path fill="none" stroke="black" d="M4109.05,-739.42C4136.61,-723.79 4172.32,-703.53 4204,-685.51 4270.92,-647.45 4347.9,-603.53 4398.33,-574.73"/>
<polygon fill="black" stroke="black" points="4400.18,-577.71 4407.12,-569.72 4396.7,-571.63 4400.18,-577.71"/>
</g>
<!-- b15 -->
<g id="node16" class="node">
<title>b15</title>
<polygon fill="white" stroke="black" points="4204,-521.51 3920,-521.51 3920,-469.51 4204,-469.51 4204,-521.51"/>
<text text-anchor="middle" x="4062" y="-509.51" font-family="Helvetica" font-size="10.00">B15</text>
<text text-anchor="middle" x="4062" y="-498.51" font-family="Helvetica" font-size="10.00">Loop: &lt;none&gt;</text>
<text text-anchor="middle" x="4062" y="-487.51" font-family="Helvetica" font-size="10.00">&#45;&#45;&#45;</text>
<text text-anchor="middle" x="4062" y="-476.51" font-family="Helvetica" font-size="10.00">HotSpotMethod&lt;StringCoding.countPositives(byte[], int, int)&gt;</text>
</g>
<!-- b15&#45;&gt;b19 -->
<g id="edge26" class="edge">
<title>b15&#45;&gt;b19</title>
<path fill="none" stroke="black" d="M4204.07,-512.88C4235.9,-516.79 4269.79,-520.97 4302,-524.93"/>
<polygon fill="black" stroke="black" points="4301.59,-528.4 4311.94,-526.15 4302.44,-521.46 4301.59,-528.4"/>
</g>
<!-- b16&#45;&gt;b34 -->
<g id="edge27" class="edge">
<title>b16&#45;&gt;b34</title>
<path fill="none" stroke="black" d="M4988.01,-719.16C5097.55,-704.05 5253.02,-680.74 5388,-653.51 5435.3,-643.97 5487.14,-631.41 5531.22,-620.08"/>
<polygon fill="black" stroke="black" points="5532.28,-623.43 5541.09,-617.54 5530.53,-616.65 5532.28,-623.43"/>
</g>
<!-- b17&#45;&gt;b34 -->
<g id="edge28" class="edge">
<title>b17&#45;&gt;b34</title>
<path fill="none" stroke="black" d="M4596.39,-884.6C4782.6,-869.45 5118.03,-830.25 5388,-733.51 5464.24,-706.2 5544.16,-656.23 5592.29,-623.45"/>
<polygon fill="black" stroke="black" points="5594.34,-626.28 5600.6,-617.74 5590.38,-620.51 5594.34,-626.28"/>
</g>
<!-- b18 -->
<g id="node19" class="node">
<title>b18</title>
<polygon fill="white" stroke="black" points="4204,-397.51 3920,-397.51 3920,-345.51 4204,-345.51 4204,-397.51"/>
<text text-anchor="middle" x="4062" y="-385.51" font-family="Helvetica" font-size="10.00">B18</text>
<text text-anchor="middle" x="4062" y="-374.51" font-family="Helvetica" font-size="10.00">Loop: &lt;none&gt;</text>
<text text-anchor="middle" x="4062" y="-363.51" font-family="Helvetica" font-size="10.00">&#45;&#45;&#45;</text>
<text text-anchor="middle" x="4062" y="-352.51" font-family="Helvetica" font-size="10.00">HotSpotMethod&lt;StringCoding.countPositives(byte[], int, int)&gt;</text>
</g>
<!-- b18&#45;&gt;b19 -->
<g id="edge29" class="edge">
<title>b18&#45;&gt;b19</title>
<path fill="none" stroke="black" d="M4122.35,-397.59C4147.54,-408.65 4177.21,-421.7 4204,-433.51 4265.14,-460.46 4334.7,-491.2 4384.73,-513.32"/>
<polygon fill="black" stroke="black" points="4383.59,-516.64 4394.15,-517.48 4386.42,-510.24 4383.59,-516.64"/>
</g>
<!-- b20 -->
<g id="node21" class="node">
<title>b20</title>
<polygon fill="white" stroke="black" points="4988,-482.51 4704,-482.51 4704,-430.51 4988,-430.51 4988,-482.51"/>
<text text-anchor="middle" x="4846" y="-470.51" font-family="Helvetica" font-size="10.00">B20</text>
<text text-anchor="middle" x="4846" y="-459.51" font-family="Helvetica" font-size="10.00">Loop: &lt;none&gt;</text>
<text text-anchor="middle" x="4846" y="-448.51" font-family="Helvetica" font-size="10.00">&#45;&#45;&#45;</text>
<text text-anchor="middle" x="4846" y="-437.51" font-family="Helvetica" font-size="10.00">HotSpotMethod&lt;StringCoding.countPositives(byte[], int, int)&gt;</text>
</g>
<!-- b19&#45;&gt;b20 -->
<g id="edge30" class="edge">
<title>b19&#45;&gt;b20</title>
<path fill="none" stroke="black" d="M4571.75,-517.47C4617.95,-507.16 4671.17,-495.29 4718.3,-484.78"/>
<polygon fill="black" stroke="black" points="4719.26,-488.15 4728.26,-482.56 4717.73,-481.32 4719.26,-488.15"/>
</g>
<!-- b28 -->
<g id="node29" class="node">
<title>b28</title>
<polygon fill="white" stroke="black" points="5384,-617.51 5100,-617.51 5100,-565.51 5384,-565.51 5384,-617.51"/>
<text text-anchor="middle" x="5242" y="-605.51" font-family="Helvetica" font-size="10.00">B28</text>
<text text-anchor="middle" x="5242" y="-594.51" font-family="Helvetica" font-size="10.00">Loop: &lt;none&gt;</text>
<text text-anchor="middle" x="5242" y="-583.51" font-family="Helvetica" font-size="10.00">&#45;&#45;&#45;</text>
<text text-anchor="middle" x="5242" y="-572.51" font-family="Helvetica" font-size="10.00">HotSpotMethod&lt;StringCoding.countPositives(byte[], int, int)&gt;</text>
</g>
<!-- b19&#45;&gt;b28 -->
<g id="edge31" class="edge">
<title>b19&#45;&gt;b28</title>
<path fill="none" stroke="black" d="M4596.43,-552.15C4735.52,-560.64 4947.14,-573.57 5089.58,-582.27"/>
<polygon fill="black" stroke="black" points="5089.52,-585.77 5099.71,-582.89 5089.95,-578.78 5089.52,-585.77"/>
</g>
<!-- b21 -->
<g id="node22" class="node">
<title>b21</title>
<polygon fill="white" stroke="black" points="5384,-493.51 5100,-493.51 5100,-441.51 5384,-441.51 5384,-493.51"/>
<text text-anchor="middle" x="5242" y="-481.51" font-family="Helvetica" font-size="10.00">B21</text>
<text text-anchor="middle" x="5242" y="-470.51" font-family="Helvetica" font-size="10.00">Loop: &lt;none&gt;</text>
<text text-anchor="middle" x="5242" y="-459.51" font-family="Helvetica" font-size="10.00">&#45;&#45;&#45;</text>
<text text-anchor="middle" x="5242" y="-448.51" font-family="Helvetica" font-size="10.00">HotSpotMethod&lt;StringCoding.countPositives(byte[], int, int)&gt;</text>
</g>
<!-- b20&#45;&gt;b21 -->
<g id="edge32" class="edge">
<title>b20&#45;&gt;b21</title>
<path fill="none" stroke="black" d="M4988.13,-460.45C5021.05,-461.37 5056.23,-462.36 5089.58,-463.29"/>
<polygon fill="black" stroke="black" points="5089.77,-466.79 5099.86,-463.57 5089.96,-459.8 5089.77,-466.79"/>
</g>
<!-- b22 -->
<g id="node23" class="node">
<title>b22</title>
<polygon fill="white" stroke="black" stroke-width="4" points="5384,-219.01 5100,-219.01 5100,-134.01 5384,-134.01 5384,-219.01"/>
<polygon fill="none" stroke="black" stroke-width="4" points="5388,-223.01 5096,-223.01 5096,-130.01 5388,-130.01 5388,-223.01"/>
<text text-anchor="middle" x="5242" y="-207.01" font-family="Helvetica" font-size="10.00">B22</text>
<text text-anchor="middle" x="5242" y="-196.01" font-family="Helvetica" font-size="10.00">Loop: &lt;none&gt;</text>
<text text-anchor="middle" x="5242" y="-185.01" font-family="Helvetica" font-size="10.00">&#45;&#45;&#45;</text>
<text text-anchor="middle" x="5242" y="-174.01" font-family="Helvetica" font-size="10.00">HotSpotMethod&lt;StringCoding.countPositives(byte[], int, int)&gt;</text>
<text text-anchor="middle" x="5242" y="-163.01" font-family="Helvetica" font-size="10.00">&#45;&#45;&#45;</text>
<text text-anchor="middle" x="5242" y="-152.01" font-family="Helvetica" font-size="10.00">BuboLoopMakers:</text>
<text text-anchor="middle" x="5242" y="-141.01" font-family="Helvetica" font-size="10.00"> &#160;AMD64BuboRDTSCToSlot (LoopID=0)</text>
</g>
<!-- b20&#45;&gt;b22 -->
<g id="edge33" class="edge">
<title>b20&#45;&gt;b22</title>
<path fill="none" stroke="black" d="M4883.71,-430.42C4948.14,-384.63 5082.72,-288.99 5167.08,-229.05"/>
<polygon fill="black" stroke="black" points="5169.21,-231.83 5175.33,-223.18 5165.15,-226.12 5169.21,-231.83"/>
</g>
<!-- b21&#45;&gt;b34 -->
<g id="edge34" class="edge">
<title>b21&#45;&gt;b34</title>
<path fill="none" stroke="black" d="M5326.08,-493.66C5390.09,-513.81 5478.57,-541.65 5544.78,-562.49"/>
<polygon fill="black" stroke="black" points="5543.79,-565.85 5554.38,-565.51 5545.89,-559.17 5543.79,-565.85"/>
</g>
<!-- b23 -->
<g id="node24" class="node">
<title>b23</title>
<polygon fill="lightblue" stroke="black" points="5780,-348.51 5496,-348.51 5496,-296.51 5780,-296.51 5780,-348.51"/>
<text text-anchor="middle" x="5638" y="-336.51" font-family="Helvetica" font-size="10.00">B23</text>
<text text-anchor="middle" x="5638" y="-325.51" font-family="Helvetica" font-size="10.00">Loop: L0</text>
<text text-anchor="middle" x="5638" y="-314.51" font-family="Helvetica" font-size="10.00">&#45;&#45;&#45;</text>
<text text-anchor="middle" x="5638" y="-303.51" font-family="Helvetica" font-size="10.00">HotSpotMethod&lt;StringCoding.countPositives(byte[], int, int)&gt;</text>
</g>
<!-- b22&#45;&gt;b23 -->
<g id="edge35" class="edge">
<title>b22&#45;&gt;b23</title>
<path fill="none" stroke="black" d="M5368.75,-223.11C5430.46,-245.98 5502.97,-272.85 5557.02,-292.88"/>
<polygon fill="black" stroke="black" points="5555.96,-296.22 5566.56,-296.41 5558.4,-289.65 5555.96,-296.22"/>
</g>
<!-- b24 -->
<g id="node25" class="node">
<title>b24</title>
<polygon fill="lightblue" stroke="black" points="6176,-416.51 5892,-416.51 5892,-364.51 6176,-364.51 6176,-416.51"/>
<text text-anchor="middle" x="6034" y="-404.51" font-family="Helvetica" font-size="10.00">B24</text>
<text text-anchor="middle" x="6034" y="-393.51" font-family="Helvetica" font-size="10.00">Loop: L0</text>
<text text-anchor="middle" x="6034" y="-382.51" font-family="Helvetica" font-size="10.00">&#45;&#45;&#45;</text>
<text text-anchor="middle" x="6034" y="-371.51" font-family="Helvetica" font-size="10.00">HotSpotMethod&lt;StringCoding.countPositives(byte[], int, int)&gt;</text>
</g>
<!-- b23&#45;&gt;b24 -->
<g id="edge36" class="edge">
<title>b23&#45;&gt;b24</title>
<path fill="none" stroke="black" d="M5780.13,-346.87C5813.05,-352.55 5848.23,-358.63 5881.58,-364.38"/>
<polygon fill="black" stroke="black" points="5881.41,-367.9 5891.86,-366.15 5882.6,-361 5881.41,-367.9"/>
</g>
<!-- b27 -->
<g id="node28" class="node">
<title>b27</title>
<polygon fill="white" stroke="black" stroke-width="4" points="6176,-691.01 5892,-691.01 5892,-606.01 6176,-606.01 6176,-691.01"/>
<polygon fill="none" stroke="black" stroke-width="4" points="6180,-695.01 5888,-695.01 5888,-602.01 6180,-602.01 6180,-695.01"/>
<text text-anchor="middle" x="6034" y="-679.01" font-family="Helvetica" font-size="10.00">B27</text>
<text text-anchor="middle" x="6034" y="-668.01" font-family="Helvetica" font-size="10.00">Loop: &lt;none&gt;</text>
<text text-anchor="middle" x="6034" y="-657.01" font-family="Helvetica" font-size="10.00">&#45;&#45;&#45;</text>
<text text-anchor="middle" x="6034" y="-646.01" font-family="Helvetica" font-size="10.00">HotSpotMethod&lt;StringCoding.countPositives(byte[], int, int)&gt;</text>
<text text-anchor="middle" x="6034" y="-635.01" font-family="Helvetica" font-size="10.00">&#45;&#45;&#45;</text>
<text text-anchor="middle" x="6034" y="-624.01" font-family="Helvetica" font-size="10.00">BuboLoopMakers:</text>
<text text-anchor="middle" x="6034" y="-613.01" font-family="Helvetica" font-size="10.00"> &#160;AMD64BuboWriteDeltaRDTSC (LoopID=0)</text>
</g>
<!-- b23&#45;&gt;b27 -->
<g id="edge37" class="edge">
<title>b23&#45;&gt;b27</title>
<path fill="none" stroke="black" d="M5670.58,-348.64C5735.12,-402.05 5883.28,-524.63 5968.84,-595.43"/>
<polygon fill="black" stroke="black" points="5966.73,-598.22 5976.67,-601.9 5971.19,-592.83 5966.73,-598.22"/>
</g>
<!-- b25 -->
<g id="node26" class="node">
<title>b25</title>
<polygon fill="white" stroke="black" points="6572,-416.51 6288,-416.51 6288,-364.51 6572,-364.51 6572,-416.51"/>
<text text-anchor="middle" x="6430" y="-404.51" font-family="Helvetica" font-size="10.00">B25</text>
<text text-anchor="middle" x="6430" y="-393.51" font-family="Helvetica" font-size="10.00">Loop: &lt;none&gt;</text>
<text text-anchor="middle" x="6430" y="-382.51" font-family="Helvetica" font-size="10.00">&#45;&#45;&#45;</text>
<text text-anchor="middle" x="6430" y="-371.51" font-family="Helvetica" font-size="10.00">HotSpotMethod&lt;StringCoding.countPositives(byte[], int, int)&gt;</text>
</g>
<!-- b24&#45;&gt;b25 -->
<g id="edge38" class="edge">
<title>b24&#45;&gt;b25</title>
<path fill="none" stroke="black" d="M6176.13,-390.51C6209.05,-390.51 6244.23,-390.51 6277.58,-390.51"/>
<polygon fill="black" stroke="black" points="6277.86,-394.01 6287.86,-390.51 6277.86,-387.01 6277.86,-394.01"/>
</g>
<!-- b26 -->
<g id="node27" class="node">
<title>b26</title>
<polygon fill="lightblue" stroke="black" points="6572,-287.51 6288,-287.51 6288,-235.51 6572,-235.51 6572,-287.51"/>
<text text-anchor="middle" x="6430" y="-275.51" font-family="Helvetica" font-size="10.00">B26</text>
<text text-anchor="middle" x="6430" y="-264.51" font-family="Helvetica" font-size="10.00">Loop: L0</text>
<text text-anchor="middle" x="6430" y="-253.51" font-family="Helvetica" font-size="10.00">&#45;&#45;&#45;</text>
<text text-anchor="middle" x="6430" y="-242.51" font-family="Helvetica" font-size="10.00">HotSpotMethod&lt;StringCoding.countPositives(byte[], int, int)&gt;</text>
</g>
<!-- b24&#45;&gt;b26 -->
<g id="edge39" class="edge">
<title>b24&#45;&gt;b26</title>
<path fill="none" stroke="black" d="M6114.73,-364.41C6179.88,-343.08 6271.94,-312.94 6339.59,-290.79"/>
<polygon fill="black" stroke="black" points="6340.97,-294.02 6349.39,-287.58 6338.79,-287.37 6340.97,-294.02"/>
</g>
<!-- b26&#45;&gt;b23 -->
<g id="edge40" class="edge">
<title>b26&#45;&gt;b23</title>
<path fill="none" stroke="black" d="M6287.99,-272.4C6147.97,-283.21 5934.01,-299.73 5790.45,-310.82"/>
<polygon fill="black" stroke="black" points="5789.94,-307.35 5780.24,-311.61 5790.48,-314.33 5789.94,-307.35"/>
</g>
<!-- b27&#45;&gt;b32 -->
<g id="edge41" class="edge">
<title>b27&#45;&gt;b32</title>
<path fill="none" stroke="black" d="M6083.31,-695.23C6164.01,-773.26 6324.27,-928.24 6394.58,-996.23"/>
<polygon fill="black" stroke="black" points="6392.28,-998.87 6401.9,-1003.31 6397.14,-993.84 6392.28,-998.87"/>
</g>
<!-- b28&#45;&gt;b34 -->
<g id="edge42" class="edge">
<title>b28&#45;&gt;b34</title>
<path fill="none" stroke="black" d="M5384.13,-591.51C5417.05,-591.51 5452.23,-591.51 5485.58,-591.51"/>
<polygon fill="black" stroke="black" points="5485.86,-595.01 5495.86,-591.51 5485.86,-588.01 5485.86,-595.01"/>
</g>
<!-- b29 -->
<g id="node30" class="node">
<title>b29</title>
<polygon fill="white" stroke="black" points="6176,-1055.51 5892,-1055.51 5892,-1003.51 6176,-1003.51 6176,-1055.51"/>
<text text-anchor="middle" x="6034" y="-1043.51" font-family="Helvetica" font-size="10.00">B29</text>
<text text-anchor="middle" x="6034" y="-1032.51" font-family="Helvetica" font-size="10.00">Loop: &lt;none&gt;</text>
<text text-anchor="middle" x="6034" y="-1021.51" font-family="Helvetica" font-size="10.00">&#45;&#45;&#45;</text>
<text text-anchor="middle" x="6034" y="-1010.51" font-family="Helvetica" font-size="10.00">HotSpotMethod&lt;StringCoding.countPositives(byte[], int, int)&gt;</text>
</g>
<!-- b29&#45;&gt;b32 -->
<g id="edge43" class="edge">
<title>b29&#45;&gt;b32</title>
<path fill="none" stroke="black" d="M6176.13,-1029.51C6209.05,-1029.51 6244.23,-1029.51 6277.58,-1029.51"/>
<polygon fill="black" stroke="black" points="6277.86,-1033.01 6287.86,-1029.51 6277.86,-1026.01 6277.86,-1033.01"/>
</g>
<!-- b30&#45;&gt;b34 -->
<g id="edge44" class="edge">
<title>b30&#45;&gt;b34</title>
<path fill="none" stroke="black" d="M3420.27,-1188.96C3576.88,-1190.44 3836.99,-1192.51 4061,-1192.51 4061,-1192.51 4061,-1192.51 4455,-1192.51 4900.11,-1192.51 5012.39,-1067.34 5388,-828.51 5479.31,-770.46 5566.17,-675.76 5609.09,-625.45"/>
<polygon fill="black" stroke="black" points="5611.81,-627.66 5615.6,-617.76 5606.46,-623.13 5611.81,-627.66"/>
</g>
<!-- b31 -->
<g id="node32" class="node">
<title>b31</title>
<polygon fill="white" stroke="black" points="6176,-931.51 5892,-931.51 5892,-879.51 6176,-879.51 6176,-931.51"/>
<text text-anchor="middle" x="6034" y="-919.51" font-family="Helvetica" font-size="10.00">B31</text>
<text text-anchor="middle" x="6034" y="-908.51" font-family="Helvetica" font-size="10.00">Loop: &lt;none&gt;</text>
<text text-anchor="middle" x="6034" y="-897.51" font-family="Helvetica" font-size="10.00">&#45;&#45;&#45;</text>
<text text-anchor="middle" x="6034" y="-886.51" font-family="Helvetica" font-size="10.00">HotSpotMethod&lt;StringCoding.countPositives(byte[], int, int)&gt;</text>
</g>
<!-- b31&#45;&gt;b32 -->
<g id="edge45" class="edge">
<title>b31&#45;&gt;b32</title>
<path fill="none" stroke="black" d="M6118.08,-931.66C6182.09,-951.81 6270.57,-979.65 6336.78,-1000.49"/>
<polygon fill="black" stroke="black" points="6335.79,-1003.85 6346.38,-1003.51 6337.89,-997.17 6335.79,-1003.85"/>
</g>
<!-- b33&#45;&gt;b34 -->
<g id="edge46" class="edge">
<title>b33&#45;&gt;b34</title>
<path fill="none" stroke="black" d="M2185.07,-142.48C2326.46,-100.01 2625.75,-20.51 2885,-20.51 2885,-20.51 2885,-20.51 4847,-20.51 5089.62,-20.51 5198.55,58.06 5388,-93.51 5495.72,-179.7 5432.7,-261.94 5496,-384.51 5529.34,-449.08 5579.24,-517.56 5609.87,-557.33"/>
<polygon fill="black" stroke="black" points="5607.21,-559.61 5616.1,-565.37 5612.74,-555.32 5607.21,-559.61"/>
</g>
</g>
</svg>
