<?xml version="1.0" encoding="UTF-8" standalone="no"?>
<!DOCTYPE svg PUBLIC "-//W3C//DTD SVG 1.1//EN"
 "http://www.w3.org/Graphics/SVG/1.1/DTD/svg11.dtd">
<!-- Generated by graphviz version 2.44.0 (0)
 -->
<!-- Title: CFG_124 Pages: 1 -->
<svg width="6812pt" height="1296pt"
 viewBox="0.00 0.00 6812.00 1295.82" xmlns="http://www.w3.org/2000/svg" xmlns:xlink="http://www.w3.org/1999/xlink">
<g id="graph0" class="graph" transform="scale(1 1) rotate(0) translate(4 1291.82)">
<title>CFG_124</title>
<polygon fill="white" stroke="transparent" points="-4,4 -4,-1291.82 6808,-1291.82 6808,4 -4,4"/>
<text text-anchor="middle" x="189" y="-1267.82" font-family="Times-Roman" font-size="20.00">186&#45;LoopBenchmarks.main(String[])</text>
<!-- b0 -->
<g id="node1" class="node">
<title>b0</title>
<polygon fill="white" stroke="black" points="331,-574.32 0,-574.32 0,-511.32 331,-511.32 331,-574.32"/>
<text text-anchor="middle" x="165.5" y="-562.32" font-family="Helvetica" font-size="10.00">B0</text>
<text text-anchor="middle" x="165.5" y="-551.32" font-family="Helvetica" font-size="10.00">Loop: &lt;none&gt;</text>
<text text-anchor="middle" x="165.5" y="-540.32" font-family="Helvetica" font-size="10.00">&#45;&#45;&#45;</text>
<text text-anchor="middle" x="165.5" y="-529.32" font-family="Helvetica" font-size="10.00">HotSpotMethod&lt;LoopBenchmarks.main(String[])&gt;</text>
<text text-anchor="middle" x="165.5" y="-518.32" font-family="Helvetica" font-size="10.00">HotSpotMethod&lt;LoopBenchmarks.mandelbrotLoop(double, double, int)&gt;</text>
</g>
<!-- b1 -->
<g id="node2" class="node">
<title>b1</title>
<polygon fill="white" stroke="black" stroke-width="4" points="774,-736.82 443,-736.82 443,-640.82 774,-640.82 774,-736.82"/>
<polygon fill="none" stroke="black" stroke-width="4" points="778,-740.82 439,-740.82 439,-636.82 778,-636.82 778,-740.82"/>
<text text-anchor="middle" x="608.5" y="-724.82" font-family="Helvetica" font-size="10.00">B1</text>
<text text-anchor="middle" x="608.5" y="-713.82" font-family="Helvetica" font-size="10.00">Loop: &lt;none&gt;</text>
<text text-anchor="middle" x="608.5" y="-702.82" font-family="Helvetica" font-size="10.00">&#45;&#45;&#45;</text>
<text text-anchor="middle" x="608.5" y="-691.82" font-family="Helvetica" font-size="10.00">HotSpotMethod&lt;LoopBenchmarks.main(String[])&gt;</text>
<text text-anchor="middle" x="608.5" y="-680.82" font-family="Helvetica" font-size="10.00">HotSpotMethod&lt;LoopBenchmarks.mandelbrotLoop(double, double, int)&gt;</text>
<text text-anchor="middle" x="608.5" y="-669.82" font-family="Helvetica" font-size="10.00">&#45;&#45;&#45;</text>
<text text-anchor="middle" x="608.5" y="-658.82" font-family="Helvetica" font-size="10.00">BuboLoopMakers:</text>
<text text-anchor="middle" x="608.5" y="-647.82" font-family="Helvetica" font-size="10.00"> &#160;AMD64BuboRDTSCToSlot (LoopID=3)</text>
</g>
<!-- b0&#45;&gt;b1 -->
<g id="edge1" class="edge">
<title>b0&#45;&gt;b1</title>
<path fill="none" stroke="black" d="M261.65,-574.32C313.8,-591.58 379.97,-613.49 440.43,-633.51"/>
<polygon fill="black" stroke="black" points="439.49,-636.88 450.08,-636.7 441.69,-630.24 439.49,-636.88"/>
</g>
<!-- b17 -->
<g id="node18" class="node">
<title>b17</title>
<polygon fill="white" stroke="black" stroke-width="4" points="3739,-505.32 3504,-505.32 3504,-420.32 3739,-420.32 3739,-505.32"/>
<polygon fill="none" stroke="black" stroke-width="4" points="3743,-509.32 3500,-509.32 3500,-416.32 3743,-416.32 3743,-509.32"/>
<text text-anchor="middle" x="3621.5" y="-493.32" font-family="Helvetica" font-size="10.00">B17</text>
<text text-anchor="middle" x="3621.5" y="-482.32" font-family="Helvetica" font-size="10.00">Loop: &lt;none&gt;</text>
<text text-anchor="middle" x="3621.5" y="-471.32" font-family="Helvetica" font-size="10.00">&#45;&#45;&#45;</text>
<text text-anchor="middle" x="3621.5" y="-460.32" font-family="Helvetica" font-size="10.00">HotSpotMethod&lt;LoopBenchmarks.main(String[])&gt;</text>
<text text-anchor="middle" x="3621.5" y="-449.32" font-family="Helvetica" font-size="10.00">&#45;&#45;&#45;</text>
<text text-anchor="middle" x="3621.5" y="-438.32" font-family="Helvetica" font-size="10.00">BuboLoopMakers:</text>
<text text-anchor="middle" x="3621.5" y="-427.32" font-family="Helvetica" font-size="10.00"> &#160;AMD64BuboRDTSCToSlot (LoopID=0)</text>
</g>
<!-- b0&#45;&gt;b17 -->
<g id="edge2" class="edge">
<title>b0&#45;&gt;b17</title>
<path fill="none" stroke="black" d="M331.06,-518.98C508.28,-495.4 798.74,-462.82 1050.5,-462.82 1050.5,-462.82 1050.5,-462.82 2784.5,-462.82 3033.82,-462.82 3324.96,-462.82 3489.54,-462.82"/>
<polygon fill="black" stroke="black" points="3489.71,-466.32 3499.71,-462.82 3489.71,-459.32 3489.71,-466.32"/>
</g>
<!-- b2 -->
<g id="node3" class="node">
<title>b2</title>
<polygon fill="lightblue" stroke="black" points="1217,-746.82 886,-746.82 886,-694.82 1217,-694.82 1217,-746.82"/>
<text text-anchor="middle" x="1051.5" y="-734.82" font-family="Helvetica" font-size="10.00">B2</text>
<text text-anchor="middle" x="1051.5" y="-723.82" font-family="Helvetica" font-size="10.00">Loop: L0</text>
<text text-anchor="middle" x="1051.5" y="-712.82" font-family="Helvetica" font-size="10.00">&#45;&#45;&#45;</text>
<text text-anchor="middle" x="1051.5" y="-701.82" font-family="Helvetica" font-size="10.00">HotSpotMethod&lt;LoopBenchmarks.mandelbrotLoop(double, double, int)&gt;</text>
</g>
<!-- b1&#45;&gt;b2 -->
<g id="edge3" class="edge">
<title>b1&#45;&gt;b2</title>
<path fill="none" stroke="black" d="M778.11,-701.05C810.04,-703.37 843.5,-705.8 875.61,-708.13"/>
<polygon fill="black" stroke="black" points="875.76,-711.65 885.99,-708.88 876.27,-704.66 875.76,-711.65"/>
</g>
<!-- b3 -->
<g id="node4" class="node">
<title>b3</title>
<polygon fill="lightblue" stroke="black" points="1660,-644.82 1329,-644.82 1329,-592.82 1660,-592.82 1660,-644.82"/>
<text text-anchor="middle" x="1494.5" y="-632.82" font-family="Helvetica" font-size="10.00">B3</text>
<text text-anchor="middle" x="1494.5" y="-621.82" font-family="Helvetica" font-size="10.00">Loop: L0</text>
<text text-anchor="middle" x="1494.5" y="-610.82" font-family="Helvetica" font-size="10.00">&#45;&#45;&#45;</text>
<text text-anchor="middle" x="1494.5" y="-599.82" font-family="Helvetica" font-size="10.00">HotSpotMethod&lt;LoopBenchmarks.mandelbrotLoop(double, double, int)&gt;</text>
</g>
<!-- b2&#45;&gt;b3 -->
<g id="edge4" class="edge">
<title>b2&#45;&gt;b3</title>
<path fill="none" stroke="black" d="M1164.92,-694.81C1227.91,-680.25 1306.53,-662.06 1371.07,-647.13"/>
<polygon fill="black" stroke="black" points="1371.94,-650.52 1380.9,-644.86 1370.37,-643.7 1371.94,-650.52"/>
</g>
<!-- b6 -->
<g id="node7" class="node">
<title>b6</title>
<polygon fill="white" stroke="black" stroke-width="4" points="1660,-952.32 1329,-952.32 1329,-867.32 1660,-867.32 1660,-952.32"/>
<polygon fill="none" stroke="black" stroke-width="4" points="1664,-956.32 1325,-956.32 1325,-863.32 1664,-863.32 1664,-956.32"/>
<text text-anchor="middle" x="1494.5" y="-940.32" font-family="Helvetica" font-size="10.00">B6</text>
<text text-anchor="middle" x="1494.5" y="-929.32" font-family="Helvetica" font-size="10.00">Loop: &lt;none&gt;</text>
<text text-anchor="middle" x="1494.5" y="-918.32" font-family="Helvetica" font-size="10.00">&#45;&#45;&#45;</text>
<text text-anchor="middle" x="1494.5" y="-907.32" font-family="Helvetica" font-size="10.00">HotSpotMethod&lt;LoopBenchmarks.mandelbrotLoop(double, double, int)&gt;</text>
<text text-anchor="middle" x="1494.5" y="-896.32" font-family="Helvetica" font-size="10.00">&#45;&#45;&#45;</text>
<text text-anchor="middle" x="1494.5" y="-885.32" font-family="Helvetica" font-size="10.00">BuboLoopMakers:</text>
<text text-anchor="middle" x="1494.5" y="-874.32" font-family="Helvetica" font-size="10.00"> &#160;AMD64BuboWriteDeltaRDTSC (LoopID=3)</text>
</g>
<!-- b2&#45;&gt;b6 -->
<g id="edge5" class="edge">
<title>b2&#45;&gt;b6</title>
<path fill="none" stroke="black" d="M1113.36,-746.9C1180.77,-775.79 1291.09,-823.07 1375.57,-859.28"/>
<polygon fill="black" stroke="black" points="1374.39,-862.58 1384.96,-863.3 1377.14,-856.14 1374.39,-862.58"/>
</g>
<!-- b4 -->
<g id="node5" class="node">
<title>b4</title>
<polygon fill="lightblue" stroke="black" points="2107,-789.82 1776,-789.82 1776,-737.82 2107,-737.82 2107,-789.82"/>
<text text-anchor="middle" x="1941.5" y="-777.82" font-family="Helvetica" font-size="10.00">B4</text>
<text text-anchor="middle" x="1941.5" y="-766.82" font-family="Helvetica" font-size="10.00">Loop: L0</text>
<text text-anchor="middle" x="1941.5" y="-755.82" font-family="Helvetica" font-size="10.00">&#45;&#45;&#45;</text>
<text text-anchor="middle" x="1941.5" y="-744.82" font-family="Helvetica" font-size="10.00">HotSpotMethod&lt;LoopBenchmarks.mandelbrotLoop(double, double, int)&gt;</text>
</g>
<!-- b3&#45;&gt;b4 -->
<g id="edge6" class="edge">
<title>b3&#45;&gt;b4</title>
<path fill="none" stroke="black" d="M1575.31,-644.82C1652.82,-670.08 1770.29,-708.36 1850.95,-734.64"/>
<polygon fill="black" stroke="black" points="1850.01,-738.01 1860.6,-737.78 1852.18,-731.36 1850.01,-738.01"/>
</g>
<!-- b5 -->
<g id="node6" class="node">
<title>b5</title>
<polygon fill="white" stroke="black" stroke-width="4" points="2107,-661.32 1776,-661.32 1776,-576.32 2107,-576.32 2107,-661.32"/>
<polygon fill="none" stroke="black" stroke-width="4" points="2111,-665.32 1772,-665.32 1772,-572.32 2111,-572.32 2111,-665.32"/>
<text text-anchor="middle" x="1941.5" y="-649.32" font-family="Helvetica" font-size="10.00">B5</text>
<text text-anchor="middle" x="1941.5" y="-638.32" font-family="Helvetica" font-size="10.00">Loop: &lt;none&gt;</text>
<text text-anchor="middle" x="1941.5" y="-627.32" font-family="Helvetica" font-size="10.00">&#45;&#45;&#45;</text>
<text text-anchor="middle" x="1941.5" y="-616.32" font-family="Helvetica" font-size="10.00">HotSpotMethod&lt;LoopBenchmarks.mandelbrotLoop(double, double, int)&gt;</text>
<text text-anchor="middle" x="1941.5" y="-605.32" font-family="Helvetica" font-size="10.00">&#45;&#45;&#45;</text>
<text text-anchor="middle" x="1941.5" y="-594.32" font-family="Helvetica" font-size="10.00">BuboLoopMakers:</text>
<text text-anchor="middle" x="1941.5" y="-583.32" font-family="Helvetica" font-size="10.00"> &#160;AMD64BuboWriteDeltaRDTSC (LoopID=3)</text>
</g>
<!-- b3&#45;&gt;b5 -->
<g id="edge7" class="edge">
<title>b3&#45;&gt;b5</title>
<path fill="none" stroke="black" d="M1660.25,-618.82C1693.22,-618.82 1728,-618.82 1761.43,-618.82"/>
<polygon fill="black" stroke="black" points="1761.75,-622.32 1771.75,-618.82 1761.75,-615.32 1761.75,-622.32"/>
</g>
<!-- b4&#45;&gt;b2 -->
<g id="edge8" class="edge">
<title>b4&#45;&gt;b2</title>
<path fill="none" stroke="black" d="M1775.96,-755.85C1620.1,-748.3 1386.81,-737.01 1227.57,-729.29"/>
<polygon fill="black" stroke="black" points="1227.34,-725.78 1217.19,-728.79 1227,-732.77 1227.34,-725.78"/>
</g>
<!-- b7 -->
<g id="node8" class="node">
<title>b7</title>
<polygon fill="white" stroke="black" stroke-width="4" points="2554,-887.82 2223,-887.82 2223,-791.82 2554,-791.82 2554,-887.82"/>
<polygon fill="none" stroke="black" stroke-width="4" points="2558,-891.82 2219,-891.82 2219,-787.82 2558,-787.82 2558,-891.82"/>
<text text-anchor="middle" x="2388.5" y="-875.82" font-family="Helvetica" font-size="10.00">B7</text>
<text text-anchor="middle" x="2388.5" y="-864.82" font-family="Helvetica" font-size="10.00">Loop: &lt;none&gt;</text>
<text text-anchor="middle" x="2388.5" y="-853.82" font-family="Helvetica" font-size="10.00">&#45;&#45;&#45;</text>
<text text-anchor="middle" x="2388.5" y="-842.82" font-family="Helvetica" font-size="10.00">HotSpotMethod&lt;LoopBenchmarks.mandelbrotLoop(double, double, int)&gt;</text>
<text text-anchor="middle" x="2388.5" y="-831.82" font-family="Helvetica" font-size="10.00">HotSpotMethod&lt;LoopBenchmarks.main(String[])&gt;</text>
<text text-anchor="middle" x="2388.5" y="-820.82" font-family="Helvetica" font-size="10.00">&#45;&#45;&#45;</text>
<text text-anchor="middle" x="2388.5" y="-809.82" font-family="Helvetica" font-size="10.00">BuboLoopMakers:</text>
<text text-anchor="middle" x="2388.5" y="-798.82" font-family="Helvetica" font-size="10.00"> &#160;AMD64BuboRDTSCToSlot (LoopID=2)</text>
</g>
<!-- b5&#45;&gt;b7 -->
<g id="edge9" class="edge">
<title>b5&#45;&gt;b7</title>
<path fill="none" stroke="black" d="M2037.45,-665.48C2061.46,-677.31 2087.19,-690.01 2111,-701.82 2164.73,-728.46 2224.27,-758.15 2274.28,-783.14"/>
<polygon fill="black" stroke="black" points="2273,-786.42 2283.51,-787.76 2276.13,-780.15 2273,-786.42"/>
</g>
<!-- b6&#45;&gt;b7 -->
<g id="edge10" class="edge">
<title>b6&#45;&gt;b7</title>
<path fill="none" stroke="black" d="M1664.06,-896.59C1819.59,-884.38 2049.78,-866.32 2208.53,-853.86"/>
<polygon fill="black" stroke="black" points="2209.19,-857.32 2218.88,-853.05 2208.64,-850.34 2209.19,-857.32"/>
</g>
<!-- b8 -->
<g id="node9" class="node">
<title>b8</title>
<polygon fill="lightgreen" stroke="black" points="2901,-865.82 2666,-865.82 2666,-813.82 2901,-813.82 2901,-865.82"/>
<text text-anchor="middle" x="2783.5" y="-853.82" font-family="Helvetica" font-size="10.00">B8</text>
<text text-anchor="middle" x="2783.5" y="-842.82" font-family="Helvetica" font-size="10.00">Loop: L1</text>
<text text-anchor="middle" x="2783.5" y="-831.82" font-family="Helvetica" font-size="10.00">&#45;&#45;&#45;</text>
<text text-anchor="middle" x="2783.5" y="-820.82" font-family="Helvetica" font-size="10.00">HotSpotMethod&lt;LoopBenchmarks.main(String[])&gt;</text>
</g>
<!-- b7&#45;&gt;b8 -->
<g id="edge11" class="edge">
<title>b7&#45;&gt;b8</title>
<path fill="none" stroke="black" d="M2558.16,-839.82C2590.94,-839.82 2624.78,-839.82 2655.92,-839.82"/>
<polygon fill="black" stroke="black" points="2655.93,-843.32 2665.93,-839.82 2655.93,-836.32 2655.93,-843.32"/>
</g>
<!-- b9 -->
<g id="node10" class="node">
<title>b9</title>
<polygon fill="lightgreen" stroke="black" stroke-width="4" points="3344,-1037.82 3013,-1037.82 3013,-941.82 3344,-941.82 3344,-1037.82"/>
<polygon fill="none" stroke="black" stroke-width="4" points="3348,-1041.82 3009,-1041.82 3009,-937.82 3348,-937.82 3348,-1041.82"/>
<text text-anchor="middle" x="3178.5" y="-1025.82" font-family="Helvetica" font-size="10.00">B9</text>
<text text-anchor="middle" x="3178.5" y="-1014.82" font-family="Helvetica" font-size="10.00">Loop: L1</text>
<text text-anchor="middle" x="3178.5" y="-1003.82" font-family="Helvetica" font-size="10.00">&#45;&#45;&#45;</text>
<text text-anchor="middle" x="3178.5" y="-992.82" font-family="Helvetica" font-size="10.00">HotSpotMethod&lt;LoopBenchmarks.main(String[])&gt;</text>
<text text-anchor="middle" x="3178.5" y="-981.82" font-family="Helvetica" font-size="10.00">HotSpotMethod&lt;LoopBenchmarks.mandelbrotLoop(double, double, int)&gt;</text>
<text text-anchor="middle" x="3178.5" y="-970.82" font-family="Helvetica" font-size="10.00">&#45;&#45;&#45;</text>
<text text-anchor="middle" x="3178.5" y="-959.82" font-family="Helvetica" font-size="10.00">BuboLoopMakers:</text>
<text text-anchor="middle" x="3178.5" y="-948.82" font-family="Helvetica" font-size="10.00"> &#160;AMD64BuboRDTSCToSlot (LoopID=4)</text>
</g>
<!-- b8&#45;&gt;b9 -->
<g id="edge12" class="edge">
<title>b8&#45;&gt;b9</title>
<path fill="none" stroke="black" d="M2852.96,-865.94C2902.22,-884.75 2970.49,-910.81 3031.72,-934.18"/>
<polygon fill="black" stroke="black" points="3030.5,-937.46 3041.09,-937.75 3033,-930.92 3030.5,-937.46"/>
</g>
<!-- b15 -->
<g id="node16" class="node">
<title>b15</title>
<polygon fill="white" stroke="black" stroke-width="4" points="3296,-661.32 3061,-661.32 3061,-576.32 3296,-576.32 3296,-661.32"/>
<polygon fill="none" stroke="black" stroke-width="4" points="3300,-665.32 3057,-665.32 3057,-572.32 3300,-572.32 3300,-665.32"/>
<text text-anchor="middle" x="3178.5" y="-649.32" font-family="Helvetica" font-size="10.00">B15</text>
<text text-anchor="middle" x="3178.5" y="-638.32" font-family="Helvetica" font-size="10.00">Loop: &lt;none&gt;</text>
<text text-anchor="middle" x="3178.5" y="-627.32" font-family="Helvetica" font-size="10.00">&#45;&#45;&#45;</text>
<text text-anchor="middle" x="3178.5" y="-616.32" font-family="Helvetica" font-size="10.00">HotSpotMethod&lt;LoopBenchmarks.main(String[])&gt;</text>
<text text-anchor="middle" x="3178.5" y="-605.32" font-family="Helvetica" font-size="10.00">&#45;&#45;&#45;</text>
<text text-anchor="middle" x="3178.5" y="-594.32" font-family="Helvetica" font-size="10.00">BuboLoopMakers:</text>
<text text-anchor="middle" x="3178.5" y="-583.32" font-family="Helvetica" font-size="10.00"> &#160;AMD64BuboWriteDeltaRDTSC (LoopID=2)</text>
</g>
<!-- b8&#45;&gt;b15 -->
<g id="edge13" class="edge">
<title>b8&#45;&gt;b15</title>
<path fill="none" stroke="black" d="M2830.74,-813.82C2893.16,-778.71 3005.76,-715.39 3085.7,-670.44"/>
<polygon fill="black" stroke="black" points="3087.8,-673.28 3094.8,-665.32 3084.37,-667.17 3087.8,-673.28"/>
</g>
<!-- b10 -->
<g id="node11" class="node">
<title>b10</title>
<polygon fill="lightpink" stroke="black" points="3787,-1044.32 3456,-1044.32 3456,-981.32 3787,-981.32 3787,-1044.32"/>
<text text-anchor="middle" x="3621.5" y="-1032.32" font-family="Helvetica" font-size="10.00">B10</text>
<text text-anchor="middle" x="3621.5" y="-1021.32" font-family="Helvetica" font-size="10.00">Loop: L2</text>
<text text-anchor="middle" x="3621.5" y="-1010.32" font-family="Helvetica" font-size="10.00">&#45;&#45;&#45;</text>
<text text-anchor="middle" x="3621.5" y="-999.32" font-family="Helvetica" font-size="10.00">HotSpotMethod&lt;LoopBenchmarks.mandelbrotLoop(double, double, int)&gt;</text>
<text text-anchor="middle" x="3621.5" y="-988.32" font-family="Helvetica" font-size="10.00">HotSpotMethod&lt;LoopBenchmarks.main(String[])&gt;</text>
</g>
<!-- b9&#45;&gt;b10 -->
<g id="edge14" class="edge">
<title>b9&#45;&gt;b10</title>
<path fill="none" stroke="black" d="M3348.11,-998.61C3380.04,-1000.28 3413.5,-1002.02 3445.61,-1003.7"/>
<polygon fill="black" stroke="black" points="3445.82,-1007.21 3455.99,-1004.24 3446.18,-1000.22 3445.82,-1007.21"/>
</g>
<!-- b11 -->
<g id="node12" class="node">
<title>b11</title>
<polygon fill="lightpink" stroke="black" points="4230,-935.82 3899,-935.82 3899,-883.82 4230,-883.82 4230,-935.82"/>
<text text-anchor="middle" x="4064.5" y="-923.82" font-family="Helvetica" font-size="10.00">B11</text>
<text text-anchor="middle" x="4064.5" y="-912.82" font-family="Helvetica" font-size="10.00">Loop: L2</text>
<text text-anchor="middle" x="4064.5" y="-901.82" font-family="Helvetica" font-size="10.00">&#45;&#45;&#45;</text>
<text text-anchor="middle" x="4064.5" y="-890.82" font-family="Helvetica" font-size="10.00">HotSpotMethod&lt;LoopBenchmarks.mandelbrotLoop(double, double, int)&gt;</text>
</g>
<!-- b10&#45;&gt;b11 -->
<g id="edge15" class="edge">
<title>b10&#45;&gt;b11</title>
<path fill="none" stroke="black" d="M3757.51,-981.28C3816.4,-967.53 3884.92,-951.53 3942.17,-938.15"/>
<polygon fill="black" stroke="black" points="3943.05,-941.54 3951.99,-935.86 3941.46,-934.73 3943.05,-941.54"/>
</g>
<!-- b14 -->
<g id="node15" class="node">
<title>b14</title>
<polygon fill="lightgreen" stroke="black" stroke-width="4" points="4230,-1253.82 3899,-1253.82 3899,-1157.82 4230,-1157.82 4230,-1253.82"/>
<polygon fill="none" stroke="black" stroke-width="4" points="4234,-1257.82 3895,-1257.82 3895,-1153.82 4234,-1153.82 4234,-1257.82"/>
<text text-anchor="middle" x="4064.5" y="-1241.82" font-family="Helvetica" font-size="10.00">B14</text>
<text text-anchor="middle" x="4064.5" y="-1230.82" font-family="Helvetica" font-size="10.00">Loop: L1</text>
<text text-anchor="middle" x="4064.5" y="-1219.82" font-family="Helvetica" font-size="10.00">&#45;&#45;&#45;</text>
<text text-anchor="middle" x="4064.5" y="-1208.82" font-family="Helvetica" font-size="10.00">HotSpotMethod&lt;LoopBenchmarks.mandelbrotLoop(double, double, int)&gt;</text>
<text text-anchor="middle" x="4064.5" y="-1197.82" font-family="Helvetica" font-size="10.00">HotSpotMethod&lt;LoopBenchmarks.main(String[])&gt;</text>
<text text-anchor="middle" x="4064.5" y="-1186.82" font-family="Helvetica" font-size="10.00">&#45;&#45;&#45;</text>
<text text-anchor="middle" x="4064.5" y="-1175.82" font-family="Helvetica" font-size="10.00">BuboLoopMakers:</text>
<text text-anchor="middle" x="4064.5" y="-1164.82" font-family="Helvetica" font-size="10.00"> &#160;AMD64BuboWriteDeltaRDTSC (LoopID=4)</text>
</g>
<!-- b10&#45;&gt;b14 -->
<g id="edge16" class="edge">
<title>b10&#45;&gt;b14</title>
<path fill="none" stroke="black" d="M3694.83,-1044.47C3759.87,-1072.94 3856.93,-1115.41 3935.13,-1149.64"/>
<polygon fill="black" stroke="black" points="3934.01,-1152.97 3944.57,-1153.77 3936.82,-1146.55 3934.01,-1152.97"/>
</g>
<!-- b12 -->
<g id="node13" class="node">
<title>b12</title>
<polygon fill="lightpink" stroke="black" points="4677,-1039.82 4346,-1039.82 4346,-987.82 4677,-987.82 4677,-1039.82"/>
<text text-anchor="middle" x="4511.5" y="-1027.82" font-family="Helvetica" font-size="10.00">B12</text>
<text text-anchor="middle" x="4511.5" y="-1016.82" font-family="Helvetica" font-size="10.00">Loop: L2</text>
<text text-anchor="middle" x="4511.5" y="-1005.82" font-family="Helvetica" font-size="10.00">&#45;&#45;&#45;</text>
<text text-anchor="middle" x="4511.5" y="-994.82" font-family="Helvetica" font-size="10.00">HotSpotMethod&lt;LoopBenchmarks.mandelbrotLoop(double, double, int)&gt;</text>
</g>
<!-- b11&#45;&gt;b12 -->
<g id="edge17" class="edge">
<title>b11&#45;&gt;b12</title>
<path fill="none" stroke="black" d="M4176.93,-935.86C4241.46,-950.94 4322.74,-969.94 4388.92,-985.4"/>
<polygon fill="black" stroke="black" points="4388.45,-988.89 4398.98,-987.75 4390.04,-982.07 4388.45,-988.89"/>
</g>
<!-- b13 -->
<g id="node14" class="node">
<title>b13</title>
<polygon fill="lightgreen" stroke="black" stroke-width="4" points="4677,-849.32 4346,-849.32 4346,-764.32 4677,-764.32 4677,-849.32"/>
<polygon fill="none" stroke="black" stroke-width="4" points="4681,-853.32 4342,-853.32 4342,-760.32 4681,-760.32 4681,-853.32"/>
<text text-anchor="middle" x="4511.5" y="-837.32" font-family="Helvetica" font-size="10.00">B13</text>
<text text-anchor="middle" x="4511.5" y="-826.32" font-family="Helvetica" font-size="10.00">Loop: L1</text>
<text text-anchor="middle" x="4511.5" y="-815.32" font-family="Helvetica" font-size="10.00">&#45;&#45;&#45;</text>
<text text-anchor="middle" x="4511.5" y="-804.32" font-family="Helvetica" font-size="10.00">HotSpotMethod&lt;LoopBenchmarks.mandelbrotLoop(double, double, int)&gt;</text>
<text text-anchor="middle" x="4511.5" y="-793.32" font-family="Helvetica" font-size="10.00">&#45;&#45;&#45;</text>
<text text-anchor="middle" x="4511.5" y="-782.32" font-family="Helvetica" font-size="10.00">BuboLoopMakers:</text>
<text text-anchor="middle" x="4511.5" y="-771.32" font-family="Helvetica" font-size="10.00"> &#160;AMD64BuboWriteDeltaRDTSC (LoopID=4)</text>
</g>
<!-- b11&#45;&gt;b13 -->
<g id="edge18" class="edge">
<title>b11&#45;&gt;b13</title>
<path fill="none" stroke="black" d="M4178.08,-883.76C4224.64,-872.98 4279.79,-860.22 4331.64,-848.22"/>
<polygon fill="black" stroke="black" points="4332.67,-851.57 4341.62,-845.91 4331.09,-844.75 4332.67,-851.57"/>
</g>
<!-- b12&#45;&gt;b10 -->
<g id="edge19" class="edge">
<title>b12&#45;&gt;b10</title>
<path fill="none" stroke="black" d="M4345.96,-1013.63C4190.1,-1013.46 3956.81,-1013.19 3797.57,-1013.01"/>
<polygon fill="black" stroke="black" points="3797.19,-1009.51 3787.19,-1013 3797.18,-1016.51 3797.19,-1009.51"/>
</g>
<!-- b13&#45;&gt;b8 -->
<g id="edge20" class="edge">
<title>b13&#45;&gt;b8</title>
<path fill="none" stroke="black" d="M4341.99,-810.04C3997.11,-816.63 3217.53,-831.54 2911.35,-837.39"/>
<polygon fill="black" stroke="black" points="2911.03,-833.9 2901.1,-837.59 2911.17,-840.9 2911.03,-833.9"/>
</g>
<!-- b14&#45;&gt;b8 -->
<g id="edge21" class="edge">
<title>b14&#45;&gt;b8</title>
<path fill="none" stroke="black" d="M3894.99,-1219.42C3677.99,-1229.59 3294.81,-1222.17 3009,-1077.82 2915.83,-1030.76 2840.73,-928.62 2805.78,-874.73"/>
<polygon fill="black" stroke="black" points="2808.66,-872.73 2800.32,-866.19 2802.76,-876.5 2808.66,-872.73"/>
</g>
<!-- b15&#45;&gt;b17 -->
<g id="edge22" class="edge">
<title>b15&#45;&gt;b17</title>
<path fill="none" stroke="black" d="M3300.01,-576.19C3358.95,-555.34 3429.99,-530.21 3490.19,-508.91"/>
<polygon fill="black" stroke="black" points="3491.5,-512.16 3499.76,-505.53 3489.16,-505.56 3491.5,-512.16"/>
</g>
<!-- b16 -->
<g id="node17" class="node">
<title>b16</title>
<polygon fill="white" stroke="black" points="3296,-353.82 3061,-353.82 3061,-301.82 3296,-301.82 3296,-353.82"/>
<text text-anchor="middle" x="3178.5" y="-341.82" font-family="Helvetica" font-size="10.00">B16</text>
<text text-anchor="middle" x="3178.5" y="-330.82" font-family="Helvetica" font-size="10.00">Loop: &lt;none&gt;</text>
<text text-anchor="middle" x="3178.5" y="-319.82" font-family="Helvetica" font-size="10.00">&#45;&#45;&#45;</text>
<text text-anchor="middle" x="3178.5" y="-308.82" font-family="Helvetica" font-size="10.00">HotSpotMethod&lt;LoopBenchmarks.main(String[])&gt;</text>
</g>
<!-- b16&#45;&gt;b17 -->
<g id="edge23" class="edge">
<title>b16&#45;&gt;b17</title>
<path fill="none" stroke="black" d="M3264.53,-353.85C3328.49,-373.42 3417.27,-400.6 3490.17,-422.92"/>
<polygon fill="black" stroke="black" points="3489.3,-426.31 3499.89,-425.89 3491.35,-419.62 3489.3,-426.31"/>
</g>
<!-- b18 -->
<g id="node19" class="node">
<title>b18</title>
<polygon fill="gold" stroke="black" points="4182,-488.82 3947,-488.82 3947,-436.82 4182,-436.82 4182,-488.82"/>
<text text-anchor="middle" x="4064.5" y="-476.82" font-family="Helvetica" font-size="10.00">B18</text>
<text text-anchor="middle" x="4064.5" y="-465.82" font-family="Helvetica" font-size="10.00">Loop: L3</text>
<text text-anchor="middle" x="4064.5" y="-454.82" font-family="Helvetica" font-size="10.00">&#45;&#45;&#45;</text>
<text text-anchor="middle" x="4064.5" y="-443.82" font-family="Helvetica" font-size="10.00">HotSpotMethod&lt;LoopBenchmarks.main(String[])&gt;</text>
</g>
<!-- b17&#45;&gt;b18 -->
<g id="edge24" class="edge">
<title>b17&#45;&gt;b18</title>
<path fill="none" stroke="black" d="M3743.01,-462.82C3803.16,-462.82 3875.91,-462.82 3936.88,-462.82"/>
<polygon fill="black" stroke="black" points="3936.95,-466.32 3946.95,-462.82 3936.95,-459.32 3936.95,-466.32"/>
</g>
<!-- b19 -->
<g id="node20" class="node">
<title>b19</title>
<polygon fill="gold" stroke="black" stroke-width="4" points="4629,-345.32 4394,-345.32 4394,-260.32 4629,-260.32 4629,-345.32"/>
<polygon fill="none" stroke="black" stroke-width="4" points="4633,-349.32 4390,-349.32 4390,-256.32 4633,-256.32 4633,-349.32"/>
<text text-anchor="middle" x="4511.5" y="-333.32" font-family="Helvetica" font-size="10.00">B19</text>
<text text-anchor="middle" x="4511.5" y="-322.32" font-family="Helvetica" font-size="10.00">Loop: L3</text>
<text text-anchor="middle" x="4511.5" y="-311.32" font-family="Helvetica" font-size="10.00">&#45;&#45;&#45;</text>
<text text-anchor="middle" x="4511.5" y="-300.32" font-family="Helvetica" font-size="10.00">HotSpotMethod&lt;LoopBenchmarks.main(String[])&gt;</text>
<text text-anchor="middle" x="4511.5" y="-289.32" font-family="Helvetica" font-size="10.00">&#45;&#45;&#45;</text>
<text text-anchor="middle" x="4511.5" y="-278.32" font-family="Helvetica" font-size="10.00">BuboLoopMakers:</text>
<text text-anchor="middle" x="4511.5" y="-267.32" font-family="Helvetica" font-size="10.00"> &#160;AMD64BuboRDTSCToSlot (LoopID=1)</text>
</g>
<!-- b18&#45;&gt;b19 -->
<g id="edge25" class="edge">
<title>b18&#45;&gt;b19</title>
<path fill="none" stroke="black" d="M4137.99,-436.75C4203.42,-413.23 4301.26,-378.05 4380.25,-349.65"/>
<polygon fill="black" stroke="black" points="4381.56,-352.9 4389.79,-346.22 4379.19,-346.31 4381.56,-352.9"/>
</g>
<!-- b28 -->
<g id="node29" class="node">
<title>b28</title>
<polygon fill="white" stroke="black" points="4629,-623.82 4394,-623.82 4394,-571.82 4629,-571.82 4629,-623.82"/>
<text text-anchor="middle" x="4511.5" y="-611.82" font-family="Helvetica" font-size="10.00">B28</text>
<text text-anchor="middle" x="4511.5" y="-600.82" font-family="Helvetica" font-size="10.00">Loop: &lt;none&gt;</text>
<text text-anchor="middle" x="4511.5" y="-589.82" font-family="Helvetica" font-size="10.00">&#45;&#45;&#45;</text>
<text text-anchor="middle" x="4511.5" y="-578.82" font-family="Helvetica" font-size="10.00">HotSpotMethod&lt;LoopBenchmarks.main(String[])&gt;</text>
</g>
<!-- b18&#45;&gt;b28 -->
<g id="edge26" class="edge">
<title>b18&#45;&gt;b28</title>
<path fill="none" stroke="black" d="M4151.3,-488.85C4226.75,-511.73 4336.43,-545.01 4414.72,-568.76"/>
<polygon fill="black" stroke="black" points="4414,-572.2 4424.58,-571.75 4416.03,-565.5 4414,-572.2"/>
</g>
<!-- b20 -->
<g id="node21" class="node">
<title>b20</title>
<polygon fill="orange" stroke="black" points="5024,-321.82 4789,-321.82 4789,-269.82 5024,-269.82 5024,-321.82"/>
<text text-anchor="middle" x="4906.5" y="-309.82" font-family="Helvetica" font-size="10.00">B20</text>
<text text-anchor="middle" x="4906.5" y="-298.82" font-family="Helvetica" font-size="10.00">Loop: L4</text>
<text text-anchor="middle" x="4906.5" y="-287.82" font-family="Helvetica" font-size="10.00">&#45;&#45;&#45;</text>
<text text-anchor="middle" x="4906.5" y="-276.82" font-family="Helvetica" font-size="10.00">HotSpotMethod&lt;LoopBenchmarks.main(String[])&gt;</text>
</g>
<!-- b19&#45;&gt;b20 -->
<g id="edge27" class="edge">
<title>b19&#45;&gt;b20</title>
<path fill="none" stroke="black" d="M4633.08,-300.67C4679.22,-299.85 4731.96,-298.91 4778.67,-298.08"/>
<polygon fill="black" stroke="black" points="4778.91,-301.57 4788.85,-297.89 4778.79,-294.57 4778.91,-301.57"/>
</g>
<!-- b21 -->
<g id="node22" class="node">
<title>b21</title>
<polygon fill="orange" stroke="black" stroke-width="4" points="5467,-343.82 5136,-343.82 5136,-247.82 5467,-247.82 5467,-343.82"/>
<polygon fill="none" stroke="black" stroke-width="4" points="5471,-347.82 5132,-347.82 5132,-243.82 5471,-243.82 5471,-347.82"/>
<text text-anchor="middle" x="5301.5" y="-331.82" font-family="Helvetica" font-size="10.00">B21</text>
<text text-anchor="middle" x="5301.5" y="-320.82" font-family="Helvetica" font-size="10.00">Loop: L4</text>
<text text-anchor="middle" x="5301.5" y="-309.82" font-family="Helvetica" font-size="10.00">&#45;&#45;&#45;</text>
<text text-anchor="middle" x="5301.5" y="-298.82" font-family="Helvetica" font-size="10.00">HotSpotMethod&lt;LoopBenchmarks.main(String[])&gt;</text>
<text text-anchor="middle" x="5301.5" y="-287.82" font-family="Helvetica" font-size="10.00">HotSpotMethod&lt;LoopBenchmarks.mandelbrotLoop(double, double, int)&gt;</text>
<text text-anchor="middle" x="5301.5" y="-276.82" font-family="Helvetica" font-size="10.00">&#45;&#45;&#45;</text>
<text text-anchor="middle" x="5301.5" y="-265.82" font-family="Helvetica" font-size="10.00">BuboLoopMakers:</text>
<text text-anchor="middle" x="5301.5" y="-254.82" font-family="Helvetica" font-size="10.00"> &#160;AMD64BuboRDTSCToSlot (LoopID=5)</text>
</g>
<!-- b20&#45;&gt;b21 -->
<g id="edge28" class="edge">
<title>b20&#45;&gt;b21</title>
<path fill="none" stroke="black" d="M5024.08,-295.82C5054.74,-295.82 5088.53,-295.82 5121.65,-295.82"/>
<polygon fill="black" stroke="black" points="5121.9,-299.32 5131.9,-295.82 5121.9,-292.32 5121.9,-299.32"/>
</g>
<!-- b27 -->
<g id="node28" class="node">
<title>b27</title>
<polygon fill="gold" stroke="black" stroke-width="4" points="5419,-509.32 5184,-509.32 5184,-424.32 5419,-424.32 5419,-509.32"/>
<polygon fill="none" stroke="black" stroke-width="4" points="5423,-513.32 5180,-513.32 5180,-420.32 5423,-420.32 5423,-513.32"/>
<text text-anchor="middle" x="5301.5" y="-497.32" font-family="Helvetica" font-size="10.00">B27</text>
<text text-anchor="middle" x="5301.5" y="-486.32" font-family="Helvetica" font-size="10.00">Loop: L3</text>
<text text-anchor="middle" x="5301.5" y="-475.32" font-family="Helvetica" font-size="10.00">&#45;&#45;&#45;</text>
<text text-anchor="middle" x="5301.5" y="-464.32" font-family="Helvetica" font-size="10.00">HotSpotMethod&lt;LoopBenchmarks.main(String[])&gt;</text>
<text text-anchor="middle" x="5301.5" y="-453.32" font-family="Helvetica" font-size="10.00">&#45;&#45;&#45;</text>
<text text-anchor="middle" x="5301.5" y="-442.32" font-family="Helvetica" font-size="10.00">BuboLoopMakers:</text>
<text text-anchor="middle" x="5301.5" y="-431.32" font-family="Helvetica" font-size="10.00"> &#160;AMD64BuboWriteDeltaRDTSC (LoopID=1)</text>
</g>
<!-- b20&#45;&gt;b27 -->
<g id="edge29" class="edge">
<title>b20&#45;&gt;b27</title>
<path fill="none" stroke="black" d="M4967.62,-321.97C5024.93,-346.91 5112.78,-385.14 5183.84,-416.06"/>
<polygon fill="black" stroke="black" points="5182.74,-419.4 5193.31,-420.18 5185.54,-412.98 5182.74,-419.4"/>
</g>
<!-- b22 -->
<g id="node23" class="node">
<title>b22</title>
<polygon fill="violet" stroke="black" points="5910,-327.32 5579,-327.32 5579,-264.32 5910,-264.32 5910,-327.32"/>
<text text-anchor="middle" x="5744.5" y="-315.32" font-family="Helvetica" font-size="10.00">B22</text>
<text text-anchor="middle" x="5744.5" y="-304.32" font-family="Helvetica" font-size="10.00">Loop: L5</text>
<text text-anchor="middle" x="5744.5" y="-293.32" font-family="Helvetica" font-size="10.00">&#45;&#45;&#45;</text>
<text text-anchor="middle" x="5744.5" y="-282.32" font-family="Helvetica" font-size="10.00">HotSpotMethod&lt;LoopBenchmarks.mandelbrotLoop(double, double, int)&gt;</text>
<text text-anchor="middle" x="5744.5" y="-271.32" font-family="Helvetica" font-size="10.00">HotSpotMethod&lt;LoopBenchmarks.main(String[])&gt;</text>
</g>
<!-- b21&#45;&gt;b22 -->
<g id="edge30" class="edge">
<title>b21&#45;&gt;b22</title>
<path fill="none" stroke="black" d="M5471.11,-295.82C5503.04,-295.82 5536.5,-295.82 5568.61,-295.82"/>
<polygon fill="black" stroke="black" points="5568.99,-299.32 5578.99,-295.82 5568.99,-292.32 5568.99,-299.32"/>
</g>
<!-- b23 -->
<g id="node24" class="node">
<title>b23</title>
<polygon fill="violet" stroke="black" points="6353,-321.82 6022,-321.82 6022,-269.82 6353,-269.82 6353,-321.82"/>
<text text-anchor="middle" x="6187.5" y="-309.82" font-family="Helvetica" font-size="10.00">B23</text>
<text text-anchor="middle" x="6187.5" y="-298.82" font-family="Helvetica" font-size="10.00">Loop: L5</text>
<text text-anchor="middle" x="6187.5" y="-287.82" font-family="Helvetica" font-size="10.00">&#45;&#45;&#45;</text>
<text text-anchor="middle" x="6187.5" y="-276.82" font-family="Helvetica" font-size="10.00">HotSpotMethod&lt;LoopBenchmarks.mandelbrotLoop(double, double, int)&gt;</text>
</g>
<!-- b22&#45;&gt;b23 -->
<g id="edge31" class="edge">
<title>b22&#45;&gt;b23</title>
<path fill="none" stroke="black" d="M5910.03,-295.82C5943.08,-295.82 5977.93,-295.82 6011.32,-295.82"/>
<polygon fill="black" stroke="black" points="6011.64,-299.32 6021.64,-295.82 6011.64,-292.32 6011.64,-299.32"/>
</g>
<!-- b26 -->
<g id="node27" class="node">
<title>b26</title>
<polygon fill="orange" stroke="black" stroke-width="4" points="6353,-193.82 6022,-193.82 6022,-97.82 6353,-97.82 6353,-193.82"/>
<polygon fill="none" stroke="black" stroke-width="4" points="6357,-197.82 6018,-197.82 6018,-93.82 6357,-93.82 6357,-197.82"/>
<text text-anchor="middle" x="6187.5" y="-181.82" font-family="Helvetica" font-size="10.00">B26</text>
<text text-anchor="middle" x="6187.5" y="-170.82" font-family="Helvetica" font-size="10.00">Loop: L4</text>
<text text-anchor="middle" x="6187.5" y="-159.82" font-family="Helvetica" font-size="10.00">&#45;&#45;&#45;</text>
<text text-anchor="middle" x="6187.5" y="-148.82" font-family="Helvetica" font-size="10.00">HotSpotMethod&lt;LoopBenchmarks.mandelbrotLoop(double, double, int)&gt;</text>
<text text-anchor="middle" x="6187.5" y="-137.82" font-family="Helvetica" font-size="10.00">HotSpotMethod&lt;LoopBenchmarks.main(String[])&gt;</text>
<text text-anchor="middle" x="6187.5" y="-126.82" font-family="Helvetica" font-size="10.00">&#45;&#45;&#45;</text>
<text text-anchor="middle" x="6187.5" y="-115.82" font-family="Helvetica" font-size="10.00">BuboLoopMakers:</text>
<text text-anchor="middle" x="6187.5" y="-104.82" font-family="Helvetica" font-size="10.00"> &#160;AMD64BuboWriteDeltaRDTSC (LoopID=5)</text>
</g>
<!-- b22&#45;&gt;b26 -->
<g id="edge32" class="edge">
<title>b22&#45;&gt;b26</title>
<path fill="none" stroke="black" d="M5838.22,-264.28C5892.04,-245.97 5961.38,-222.39 6024.01,-201.09"/>
<polygon fill="black" stroke="black" points="6025.25,-204.36 6033.59,-197.83 6023,-197.73 6025.25,-204.36"/>
</g>
<!-- b24 -->
<g id="node25" class="node">
<title>b24</title>
<polygon fill="violet" stroke="black" points="6800,-388.82 6469,-388.82 6469,-336.82 6800,-336.82 6800,-388.82"/>
<text text-anchor="middle" x="6634.5" y="-376.82" font-family="Helvetica" font-size="10.00">B24</text>
<text text-anchor="middle" x="6634.5" y="-365.82" font-family="Helvetica" font-size="10.00">Loop: L5</text>
<text text-anchor="middle" x="6634.5" y="-354.82" font-family="Helvetica" font-size="10.00">&#45;&#45;&#45;</text>
<text text-anchor="middle" x="6634.5" y="-343.82" font-family="Helvetica" font-size="10.00">HotSpotMethod&lt;LoopBenchmarks.mandelbrotLoop(double, double, int)&gt;</text>
</g>
<!-- b23&#45;&gt;b24 -->
<g id="edge33" class="edge">
<title>b23&#45;&gt;b24</title>
<path fill="none" stroke="black" d="M6353.25,-320.62C6387.6,-325.79 6423.92,-331.26 6458.62,-336.49"/>
<polygon fill="black" stroke="black" points="6458.44,-340 6468.85,-338.03 6459.48,-333.08 6458.44,-340"/>
</g>
<!-- b25 -->
<g id="node26" class="node">
<title>b25</title>
<polygon fill="orange" stroke="black" stroke-width="4" points="6800,-177.32 6469,-177.32 6469,-92.32 6800,-92.32 6800,-177.32"/>
<polygon fill="none" stroke="black" stroke-width="4" points="6804,-181.32 6465,-181.32 6465,-88.32 6804,-88.32 6804,-181.32"/>
<text text-anchor="middle" x="6634.5" y="-165.32" font-family="Helvetica" font-size="10.00">B25</text>
<text text-anchor="middle" x="6634.5" y="-154.32" font-family="Helvetica" font-size="10.00">Loop: L4</text>
<text text-anchor="middle" x="6634.5" y="-143.32" font-family="Helvetica" font-size="10.00">&#45;&#45;&#45;</text>
<text text-anchor="middle" x="6634.5" y="-132.32" font-family="Helvetica" font-size="10.00">HotSpotMethod&lt;LoopBenchmarks.mandelbrotLoop(double, double, int)&gt;</text>
<text text-anchor="middle" x="6634.5" y="-121.32" font-family="Helvetica" font-size="10.00">&#45;&#45;&#45;</text>
<text text-anchor="middle" x="6634.5" y="-110.32" font-family="Helvetica" font-size="10.00">BuboLoopMakers:</text>
<text text-anchor="middle" x="6634.5" y="-99.32" font-family="Helvetica" font-size="10.00"> &#160;AMD64BuboWriteDeltaRDTSC (LoopID=5)</text>
</g>
<!-- b23&#45;&gt;b25 -->
<g id="edge34" class="edge">
<title>b23&#45;&gt;b25</title>
<path fill="none" stroke="black" d="M6260.49,-269.77C6323.59,-246.94 6417.1,-213.11 6494.7,-185.03"/>
<polygon fill="black" stroke="black" points="6496.36,-188.16 6504.57,-181.46 6493.98,-181.57 6496.36,-188.16"/>
</g>
<!-- b24&#45;&gt;b22 -->
<g id="edge35" class="edge">
<title>b24&#45;&gt;b22</title>
<path fill="none" stroke="black" d="M6468.97,-371.06C6344.66,-374.98 6170.05,-375.52 6018,-357.82 5968.62,-352.07 5915.12,-340.99 5868.7,-329.77"/>
<polygon fill="black" stroke="black" points="5869.45,-326.35 5858.91,-327.37 5867.79,-333.15 5869.45,-326.35"/>
</g>
<!-- b25&#45;&gt;b20 -->
<g id="edge36" class="edge">
<title>b25&#45;&gt;b20</title>
<path fill="none" stroke="black" d="M6494.74,-88.25C6451.17,-75.78 6402.55,-64.04 6357,-57.82 5816.33,16.06 5644.83,45.7 5132,-140.82 5057.36,-167.96 4984.18,-226.05 4942.57,-262.9"/>
<polygon fill="black" stroke="black" points="4940.04,-260.47 4934.92,-269.75 4944.71,-265.68 4940.04,-260.47"/>
</g>
<!-- b26&#45;&gt;b20 -->
<g id="edge37" class="edge">
<title>b26&#45;&gt;b20</title>
<path fill="none" stroke="black" d="M6017.62,-139.57C5807.51,-135.47 5438.97,-140.41 5132,-207.82 5074.93,-220.35 5013.36,-245.37 4969.16,-265.54"/>
<polygon fill="black" stroke="black" points="4967.61,-262.4 4960,-269.77 4970.54,-268.76 4967.61,-262.4"/>
</g>
<!-- b27&#45;&gt;b18 -->
<g id="edge38" class="edge">
<title>b27&#45;&gt;b18</title>
<path fill="none" stroke="black" d="M5179.77,-466.43C4945.52,-465.67 4431.42,-464 4192.37,-463.23"/>
<polygon fill="black" stroke="black" points="4192.25,-459.73 4182.24,-463.19 4192.23,-466.73 4192.25,-459.73"/>
</g>
</g>
</svg>
