<?xml version="1.0" encoding="UTF-8" standalone="no"?>
<!DOCTYPE svg PUBLIC "-//W3C//DTD SVG 1.1//EN"
 "http://www.w3.org/Graphics/SVG/1.1/DTD/svg11.dtd">
<!-- Generated by graphviz version 2.44.0 (0)
 -->
<!-- Title: CFG_135 Pages: 1 -->
<svg width="8108pt" height="1000pt"
 viewBox="0.00 0.00 8108.00 1000.00" xmlns="http://www.w3.org/2000/svg" xmlns:xlink="http://www.w3.org/1999/xlink">
<g id="graph0" class="graph" transform="scale(1 1) rotate(0) translate(4 996)">
<title>CFG_135</title>
<polygon fill="white" stroke="transparent" points="-4,4 -4,-996 8104,-996 8104,4 -4,4"/>
<text text-anchor="middle" x="266.5" y="-972" font-family="Times-Roman" font-size="20.00">203&#45;LoopBenchmarks.histogramLoop(int[], int[], int)</text>
<!-- b0 -->
<g id="node1" class="node">
<title>b0</title>
<polygon fill="white" stroke="black" points="302,-894 0,-894 0,-842 302,-842 302,-894"/>
<text text-anchor="middle" x="151" y="-882" font-family="Helvetica" font-size="10.00">B0</text>
<text text-anchor="middle" x="151" y="-871" font-family="Helvetica" font-size="10.00">Loop: &lt;none&gt;</text>
<text text-anchor="middle" x="151" y="-860" font-family="Helvetica" font-size="10.00">&#45;&#45;&#45;</text>
<text text-anchor="middle" x="151" y="-849" font-family="Helvetica" font-size="10.00">HotSpotMethod&lt;LoopBenchmarks.histogramLoop(int[], int[], int)&gt;</text>
</g>
<!-- b1 -->
<g id="node2" class="node">
<title>b1</title>
<polygon fill="white" stroke="black" points="712,-956 410,-956 410,-904 712,-904 712,-956"/>
<text text-anchor="middle" x="561" y="-944" font-family="Helvetica" font-size="10.00">B1</text>
<text text-anchor="middle" x="561" y="-933" font-family="Helvetica" font-size="10.00">Loop: &lt;none&gt;</text>
<text text-anchor="middle" x="561" y="-922" font-family="Helvetica" font-size="10.00">&#45;&#45;&#45;</text>
<text text-anchor="middle" x="561" y="-911" font-family="Helvetica" font-size="10.00">HotSpotMethod&lt;LoopBenchmarks.histogramLoop(int[], int[], int)&gt;</text>
</g>
<!-- b0&#45;&gt;b1 -->
<g id="edge1" class="edge">
<title>b0&#45;&gt;b1</title>
<path fill="none" stroke="black" d="M302.19,-890.82C334,-895.66 367.69,-900.78 399.86,-905.67"/>
<polygon fill="black" stroke="black" points="399.38,-909.13 409.79,-907.17 400.43,-902.21 399.38,-909.13"/>
</g>
<!-- b2 -->
<g id="node3" class="node">
<title>b2</title>
<polygon fill="white" stroke="black" points="712,-832 410,-832 410,-780 712,-780 712,-832"/>
<text text-anchor="middle" x="561" y="-820" font-family="Helvetica" font-size="10.00">B2</text>
<text text-anchor="middle" x="561" y="-809" font-family="Helvetica" font-size="10.00">Loop: &lt;none&gt;</text>
<text text-anchor="middle" x="561" y="-798" font-family="Helvetica" font-size="10.00">&#45;&#45;&#45;</text>
<text text-anchor="middle" x="561" y="-787" font-family="Helvetica" font-size="10.00">HotSpotMethod&lt;LoopBenchmarks.histogramLoop(int[], int[], int)&gt;</text>
</g>
<!-- b0&#45;&gt;b2 -->
<g id="edge2" class="edge">
<title>b0&#45;&gt;b2</title>
<path fill="none" stroke="black" d="M302.19,-845.18C334,-840.34 367.69,-835.22 399.86,-830.33"/>
<polygon fill="black" stroke="black" points="400.43,-833.79 409.79,-828.83 399.38,-826.87 400.43,-833.79"/>
</g>
<!-- b3 -->
<g id="node4" class="node">
<title>b3</title>
<polygon fill="white" stroke="black" points="1122,-894 820,-894 820,-842 1122,-842 1122,-894"/>
<text text-anchor="middle" x="971" y="-882" font-family="Helvetica" font-size="10.00">B3</text>
<text text-anchor="middle" x="971" y="-871" font-family="Helvetica" font-size="10.00">Loop: &lt;none&gt;</text>
<text text-anchor="middle" x="971" y="-860" font-family="Helvetica" font-size="10.00">&#45;&#45;&#45;</text>
<text text-anchor="middle" x="971" y="-849" font-family="Helvetica" font-size="10.00">HotSpotMethod&lt;LoopBenchmarks.histogramLoop(int[], int[], int)&gt;</text>
</g>
<!-- b1&#45;&gt;b3 -->
<g id="edge3" class="edge">
<title>b1&#45;&gt;b3</title>
<path fill="none" stroke="black" d="M712.19,-907.18C744,-902.34 777.69,-897.22 809.86,-892.33"/>
<polygon fill="black" stroke="black" points="810.43,-895.79 819.79,-890.83 809.38,-888.87 810.43,-895.79"/>
</g>
<!-- b2&#45;&gt;b3 -->
<g id="edge4" class="edge">
<title>b2&#45;&gt;b3</title>
<path fill="none" stroke="black" d="M712.19,-828.82C744,-833.66 777.69,-838.78 809.86,-843.67"/>
<polygon fill="black" stroke="black" points="809.38,-847.13 819.79,-845.17 810.43,-840.21 809.38,-847.13"/>
</g>
<!-- b5 -->
<g id="node6" class="node">
<title>b5</title>
<polygon fill="white" stroke="black" points="1532,-962 1230,-962 1230,-910 1532,-910 1532,-962"/>
<text text-anchor="middle" x="1381" y="-950" font-family="Helvetica" font-size="10.00">B5</text>
<text text-anchor="middle" x="1381" y="-939" font-family="Helvetica" font-size="10.00">Loop: &lt;none&gt;</text>
<text text-anchor="middle" x="1381" y="-928" font-family="Helvetica" font-size="10.00">&#45;&#45;&#45;</text>
<text text-anchor="middle" x="1381" y="-917" font-family="Helvetica" font-size="10.00">HotSpotMethod&lt;LoopBenchmarks.histogramLoop(int[], int[], int)&gt;</text>
</g>
<!-- b3&#45;&gt;b5 -->
<g id="edge6" class="edge">
<title>b3&#45;&gt;b5</title>
<path fill="none" stroke="black" d="M1122.19,-893.03C1154,-898.33 1187.69,-903.95 1219.86,-909.31"/>
<polygon fill="black" stroke="black" points="1219.35,-912.77 1229.79,-910.97 1220.5,-905.87 1219.35,-912.77"/>
</g>
<!-- b7 -->
<g id="node8" class="node">
<title>b7</title>
<polygon fill="white" stroke="black" points="1942,-737 1640,-737 1640,-685 1942,-685 1942,-737"/>
<text text-anchor="middle" x="1791" y="-725" font-family="Helvetica" font-size="10.00">B7</text>
<text text-anchor="middle" x="1791" y="-714" font-family="Helvetica" font-size="10.00">Loop: &lt;none&gt;</text>
<text text-anchor="middle" x="1791" y="-703" font-family="Helvetica" font-size="10.00">&#45;&#45;&#45;</text>
<text text-anchor="middle" x="1791" y="-692" font-family="Helvetica" font-size="10.00">HotSpotMethod&lt;LoopBenchmarks.histogramLoop(int[], int[], int)&gt;</text>
</g>
<!-- b3&#45;&gt;b7 -->
<g id="edge5" class="edge">
<title>b3&#45;&gt;b7</title>
<path fill="none" stroke="black" d="M1107.53,-841.99C1255.7,-813.55 1492.24,-768.15 1644.31,-738.96"/>
<polygon fill="black" stroke="black" points="1645.04,-742.39 1654.2,-737.06 1643.72,-735.51 1645.04,-742.39"/>
</g>
<!-- b4 -->
<g id="node5" class="node">
<title>b4</title>
<polygon fill="white" stroke="black" points="1532,-692 1230,-692 1230,-640 1532,-640 1532,-692"/>
<text text-anchor="middle" x="1381" y="-680" font-family="Helvetica" font-size="10.00">B4</text>
<text text-anchor="middle" x="1381" y="-669" font-family="Helvetica" font-size="10.00">Loop: &lt;none&gt;</text>
<text text-anchor="middle" x="1381" y="-658" font-family="Helvetica" font-size="10.00">&#45;&#45;&#45;</text>
<text text-anchor="middle" x="1381" y="-647" font-family="Helvetica" font-size="10.00">HotSpotMethod&lt;LoopBenchmarks.histogramLoop(int[], int[], int)&gt;</text>
</g>
<!-- b4&#45;&gt;b7 -->
<g id="edge7" class="edge">
<title>b4&#45;&gt;b7</title>
<path fill="none" stroke="black" d="M1532.19,-682.56C1563.86,-686.06 1597.4,-689.76 1629.44,-693.29"/>
<polygon fill="black" stroke="black" points="1629.47,-696.82 1639.79,-694.43 1630.23,-689.86 1629.47,-696.82"/>
</g>
<!-- b5&#45;&gt;b7 -->
<g id="edge8" class="edge">
<title>b5&#45;&gt;b7</title>
<path fill="none" stroke="black" d="M1431.47,-909.97C1460.78,-894.46 1498.61,-874.29 1532,-856 1602.51,-817.39 1683.19,-771.82 1735.28,-742.21"/>
<polygon fill="black" stroke="black" points="1737.07,-745.22 1744.03,-737.24 1733.61,-739.14 1737.07,-745.22"/>
</g>
<!-- b37 -->
<g id="node38" class="node">
<title>b37</title>
<polygon fill="white" stroke="black" points="2762,-962 2460,-962 2460,-910 2762,-910 2762,-962"/>
<text text-anchor="middle" x="2611" y="-950" font-family="Helvetica" font-size="10.00">B37</text>
<text text-anchor="middle" x="2611" y="-939" font-family="Helvetica" font-size="10.00">Loop: &lt;none&gt;</text>
<text text-anchor="middle" x="2611" y="-928" font-family="Helvetica" font-size="10.00">&#45;&#45;&#45;</text>
<text text-anchor="middle" x="2611" y="-917" font-family="Helvetica" font-size="10.00">HotSpotMethod&lt;LoopBenchmarks.histogramLoop(int[], int[], int)&gt;</text>
</g>
<!-- b5&#45;&gt;b37 -->
<g id="edge9" class="edge">
<title>b5&#45;&gt;b37</title>
<path fill="none" stroke="black" d="M1532.27,-936C1764.98,-936 2210.54,-936 2449.39,-936"/>
<polygon fill="black" stroke="black" points="2449.55,-939.5 2459.55,-936 2449.55,-932.5 2449.55,-939.5"/>
</g>
<!-- b6 -->
<g id="node7" class="node">
<title>b6</title>
<polygon fill="white" stroke="black" points="1532,-568 1230,-568 1230,-516 1532,-516 1532,-568"/>
<text text-anchor="middle" x="1381" y="-556" font-family="Helvetica" font-size="10.00">B6</text>
<text text-anchor="middle" x="1381" y="-545" font-family="Helvetica" font-size="10.00">Loop: &lt;none&gt;</text>
<text text-anchor="middle" x="1381" y="-534" font-family="Helvetica" font-size="10.00">&#45;&#45;&#45;</text>
<text text-anchor="middle" x="1381" y="-523" font-family="Helvetica" font-size="10.00">HotSpotMethod&lt;LoopBenchmarks.histogramLoop(int[], int[], int)&gt;</text>
</g>
<!-- b6&#45;&gt;b7 -->
<g id="edge10" class="edge">
<title>b6&#45;&gt;b7</title>
<path fill="none" stroke="black" d="M1445.14,-568.08C1471.93,-579.15 1503.49,-592.2 1532,-604 1594.74,-629.98 1666.04,-659.55 1717.76,-681.01"/>
<polygon fill="black" stroke="black" points="1716.61,-684.32 1727.18,-684.92 1719.29,-677.86 1716.61,-684.32"/>
</g>
<!-- b8 -->
<g id="node9" class="node">
<title>b8</title>
<polygon fill="white" stroke="black" points="2352,-658 2050,-658 2050,-606 2352,-606 2352,-658"/>
<text text-anchor="middle" x="2201" y="-646" font-family="Helvetica" font-size="10.00">B8</text>
<text text-anchor="middle" x="2201" y="-635" font-family="Helvetica" font-size="10.00">Loop: &lt;none&gt;</text>
<text text-anchor="middle" x="2201" y="-624" font-family="Helvetica" font-size="10.00">&#45;&#45;&#45;</text>
<text text-anchor="middle" x="2201" y="-613" font-family="Helvetica" font-size="10.00">HotSpotMethod&lt;LoopBenchmarks.histogramLoop(int[], int[], int)&gt;</text>
</g>
<!-- b7&#45;&gt;b8 -->
<g id="edge11" class="edge">
<title>b7&#45;&gt;b8</title>
<path fill="none" stroke="black" d="M1926.44,-684.97C1967.82,-676.96 2013.54,-668.1 2055.56,-659.97"/>
<polygon fill="black" stroke="black" points="2056.44,-663.36 2065.59,-658.03 2055.1,-656.49 2056.44,-663.36"/>
</g>
<!-- b9 -->
<g id="node10" class="node">
<title>b9</title>
<polygon fill="white" stroke="black" points="2352,-782 2050,-782 2050,-730 2352,-730 2352,-782"/>
<text text-anchor="middle" x="2201" y="-770" font-family="Helvetica" font-size="10.00">B9</text>
<text text-anchor="middle" x="2201" y="-759" font-family="Helvetica" font-size="10.00">Loop: &lt;none&gt;</text>
<text text-anchor="middle" x="2201" y="-748" font-family="Helvetica" font-size="10.00">&#45;&#45;&#45;</text>
<text text-anchor="middle" x="2201" y="-737" font-family="Helvetica" font-size="10.00">HotSpotMethod&lt;LoopBenchmarks.histogramLoop(int[], int[], int)&gt;</text>
</g>
<!-- b7&#45;&gt;b9 -->
<g id="edge12" class="edge">
<title>b7&#45;&gt;b9</title>
<path fill="none" stroke="black" d="M1942.19,-727.56C1973.86,-731.06 2007.4,-734.76 2039.44,-738.29"/>
<polygon fill="black" stroke="black" points="2039.47,-741.82 2049.79,-739.43 2040.23,-734.86 2039.47,-741.82"/>
</g>
<!-- b10 -->
<g id="node11" class="node">
<title>b10</title>
<polygon fill="white" stroke="black" points="2762,-714 2460,-714 2460,-662 2762,-662 2762,-714"/>
<text text-anchor="middle" x="2611" y="-702" font-family="Helvetica" font-size="10.00">B10</text>
<text text-anchor="middle" x="2611" y="-691" font-family="Helvetica" font-size="10.00">Loop: &lt;none&gt;</text>
<text text-anchor="middle" x="2611" y="-680" font-family="Helvetica" font-size="10.00">&#45;&#45;&#45;</text>
<text text-anchor="middle" x="2611" y="-669" font-family="Helvetica" font-size="10.00">HotSpotMethod&lt;LoopBenchmarks.histogramLoop(int[], int[], int)&gt;</text>
</g>
<!-- b8&#45;&gt;b10 -->
<g id="edge13" class="edge">
<title>b8&#45;&gt;b10</title>
<path fill="none" stroke="black" d="M2352.19,-652.61C2384,-656.98 2417.69,-661.61 2449.86,-666.02"/>
<polygon fill="black" stroke="black" points="2449.41,-669.49 2459.79,-667.38 2450.36,-662.56 2449.41,-669.49"/>
</g>
<!-- b9&#45;&gt;b10 -->
<g id="edge14" class="edge">
<title>b9&#45;&gt;b10</title>
<path fill="none" stroke="black" d="M2352.19,-730.97C2384,-725.67 2417.69,-720.05 2449.86,-714.69"/>
<polygon fill="black" stroke="black" points="2450.5,-718.13 2459.79,-713.03 2449.35,-711.23 2450.5,-718.13"/>
</g>
<!-- b12 -->
<g id="node13" class="node">
<title>b12</title>
<polygon fill="white" stroke="black" points="3172,-816 2870,-816 2870,-764 3172,-764 3172,-816"/>
<text text-anchor="middle" x="3021" y="-804" font-family="Helvetica" font-size="10.00">B12</text>
<text text-anchor="middle" x="3021" y="-793" font-family="Helvetica" font-size="10.00">Loop: &lt;none&gt;</text>
<text text-anchor="middle" x="3021" y="-782" font-family="Helvetica" font-size="10.00">&#45;&#45;&#45;</text>
<text text-anchor="middle" x="3021" y="-771" font-family="Helvetica" font-size="10.00">HotSpotMethod&lt;LoopBenchmarks.histogramLoop(int[], int[], int)&gt;</text>
</g>
<!-- b10&#45;&gt;b12 -->
<g id="edge16" class="edge">
<title>b10&#45;&gt;b12</title>
<path fill="none" stroke="black" d="M2716.01,-714C2774.05,-728.51 2846.43,-746.61 2906,-761.5"/>
<polygon fill="black" stroke="black" points="2905.27,-764.93 2915.82,-763.96 2906.97,-758.14 2905.27,-764.93"/>
</g>
<!-- b14 -->
<g id="node15" class="node">
<title>b14</title>
<polygon fill="white" stroke="black" points="3582,-602 3280,-602 3280,-550 3582,-550 3582,-602"/>
<text text-anchor="middle" x="3431" y="-590" font-family="Helvetica" font-size="10.00">B14</text>
<text text-anchor="middle" x="3431" y="-579" font-family="Helvetica" font-size="10.00">Loop: &lt;none&gt;</text>
<text text-anchor="middle" x="3431" y="-568" font-family="Helvetica" font-size="10.00">&#45;&#45;&#45;</text>
<text text-anchor="middle" x="3431" y="-557" font-family="Helvetica" font-size="10.00">HotSpotMethod&lt;LoopBenchmarks.histogramLoop(int[], int[], int)&gt;</text>
</g>
<!-- b10&#45;&gt;b14 -->
<g id="edge15" class="edge">
<title>b10&#45;&gt;b14</title>
<path fill="none" stroke="black" d="M2762.03,-667.46C2905.97,-647.75 3122.61,-618.09 3269.84,-597.93"/>
<polygon fill="black" stroke="black" points="3270.45,-601.38 3279.88,-596.55 3269.5,-594.44 3270.45,-601.38"/>
</g>
<!-- b11 -->
<g id="node12" class="node">
<title>b11</title>
<polygon fill="white" stroke="black" points="3172,-546 2870,-546 2870,-494 3172,-494 3172,-546"/>
<text text-anchor="middle" x="3021" y="-534" font-family="Helvetica" font-size="10.00">B11</text>
<text text-anchor="middle" x="3021" y="-523" font-family="Helvetica" font-size="10.00">Loop: &lt;none&gt;</text>
<text text-anchor="middle" x="3021" y="-512" font-family="Helvetica" font-size="10.00">&#45;&#45;&#45;</text>
<text text-anchor="middle" x="3021" y="-501" font-family="Helvetica" font-size="10.00">HotSpotMethod&lt;LoopBenchmarks.histogramLoop(int[], int[], int)&gt;</text>
</g>
<!-- b11&#45;&gt;b14 -->
<g id="edge17" class="edge">
<title>b11&#45;&gt;b14</title>
<path fill="none" stroke="black" d="M3172.19,-540.61C3204,-544.98 3237.69,-549.61 3269.86,-554.02"/>
<polygon fill="black" stroke="black" points="3269.41,-557.49 3279.79,-555.38 3270.36,-550.56 3269.41,-557.49"/>
</g>
<!-- b12&#45;&gt;b14 -->
<g id="edge18" class="edge">
<title>b12&#45;&gt;b14</title>
<path fill="none" stroke="black" d="M3071.62,-763.97C3147.18,-724.34 3290.78,-649.02 3371.38,-606.75"/>
<polygon fill="black" stroke="black" points="3373.18,-609.76 3380.41,-602.01 3369.92,-603.56 3373.18,-609.76"/>
</g>
<!-- b36 -->
<g id="node37" class="node">
<title>b36</title>
<polygon fill="white" stroke="black" points="3582,-816 3280,-816 3280,-764 3582,-764 3582,-816"/>
<text text-anchor="middle" x="3431" y="-804" font-family="Helvetica" font-size="10.00">B36</text>
<text text-anchor="middle" x="3431" y="-793" font-family="Helvetica" font-size="10.00">Loop: &lt;none&gt;</text>
<text text-anchor="middle" x="3431" y="-782" font-family="Helvetica" font-size="10.00">&#45;&#45;&#45;</text>
<text text-anchor="middle" x="3431" y="-771" font-family="Helvetica" font-size="10.00">HotSpotMethod&lt;LoopBenchmarks.histogramLoop(int[], int[], int)&gt;</text>
</g>
<!-- b12&#45;&gt;b36 -->
<g id="edge19" class="edge">
<title>b12&#45;&gt;b36</title>
<path fill="none" stroke="black" d="M3172.19,-790C3203.86,-790 3237.4,-790 3269.44,-790"/>
<polygon fill="black" stroke="black" points="3269.79,-793.5 3279.79,-790 3269.79,-786.5 3269.79,-793.5"/>
</g>
<!-- b13 -->
<g id="node14" class="node">
<title>b13</title>
<polygon fill="white" stroke="black" points="3172,-422 2870,-422 2870,-370 3172,-370 3172,-422"/>
<text text-anchor="middle" x="3021" y="-410" font-family="Helvetica" font-size="10.00">B13</text>
<text text-anchor="middle" x="3021" y="-399" font-family="Helvetica" font-size="10.00">Loop: &lt;none&gt;</text>
<text text-anchor="middle" x="3021" y="-388" font-family="Helvetica" font-size="10.00">&#45;&#45;&#45;</text>
<text text-anchor="middle" x="3021" y="-377" font-family="Helvetica" font-size="10.00">HotSpotMethod&lt;LoopBenchmarks.histogramLoop(int[], int[], int)&gt;</text>
</g>
<!-- b13&#45;&gt;b14 -->
<g id="edge20" class="edge">
<title>b13&#45;&gt;b14</title>
<path fill="none" stroke="black" d="M3086.46,-422.03C3113.04,-432.92 3144.09,-445.86 3172,-458 3238.36,-486.88 3313.53,-521.48 3365.54,-545.72"/>
<polygon fill="black" stroke="black" points="3364.11,-548.91 3374.65,-549.97 3367.07,-542.57 3364.11,-548.91"/>
</g>
<!-- b15 -->
<g id="node16" class="node">
<title>b15</title>
<polygon fill="white" stroke="black" points="3992,-524 3690,-524 3690,-472 3992,-472 3992,-524"/>
<text text-anchor="middle" x="3841" y="-512" font-family="Helvetica" font-size="10.00">B15</text>
<text text-anchor="middle" x="3841" y="-501" font-family="Helvetica" font-size="10.00">Loop: &lt;none&gt;</text>
<text text-anchor="middle" x="3841" y="-490" font-family="Helvetica" font-size="10.00">&#45;&#45;&#45;</text>
<text text-anchor="middle" x="3841" y="-479" font-family="Helvetica" font-size="10.00">HotSpotMethod&lt;LoopBenchmarks.histogramLoop(int[], int[], int)&gt;</text>
</g>
<!-- b14&#45;&gt;b15 -->
<g id="edge21" class="edge">
<title>b14&#45;&gt;b15</title>
<path fill="none" stroke="black" d="M3568.14,-549.97C3608.5,-542.26 3652.85,-533.78 3693.81,-525.95"/>
<polygon fill="black" stroke="black" points="3694.71,-529.34 3703.87,-524.02 3693.39,-522.46 3694.71,-529.34"/>
</g>
<!-- b35 -->
<g id="node36" class="node">
<title>b35</title>
<polygon fill="white" stroke="black" points="3992,-659 3690,-659 3690,-607 3992,-607 3992,-659"/>
<text text-anchor="middle" x="3841" y="-647" font-family="Helvetica" font-size="10.00">B35</text>
<text text-anchor="middle" x="3841" y="-636" font-family="Helvetica" font-size="10.00">Loop: &lt;none&gt;</text>
<text text-anchor="middle" x="3841" y="-625" font-family="Helvetica" font-size="10.00">&#45;&#45;&#45;</text>
<text text-anchor="middle" x="3841" y="-614" font-family="Helvetica" font-size="10.00">HotSpotMethod&lt;LoopBenchmarks.histogramLoop(int[], int[], int)&gt;</text>
</g>
<!-- b14&#45;&gt;b35 -->
<g id="edge22" class="edge">
<title>b14&#45;&gt;b35</title>
<path fill="none" stroke="black" d="M3582.19,-596.98C3614,-601.43 3647.69,-606.13 3679.86,-610.63"/>
<polygon fill="black" stroke="black" points="3679.4,-614.1 3689.79,-612.01 3680.37,-607.16 3679.4,-614.1"/>
</g>
<!-- b16 -->
<g id="node17" class="node">
<title>b16</title>
<polygon fill="white" stroke="black" points="4402,-378 4100,-378 4100,-326 4402,-326 4402,-378"/>
<text text-anchor="middle" x="4251" y="-366" font-family="Helvetica" font-size="10.00">B16</text>
<text text-anchor="middle" x="4251" y="-355" font-family="Helvetica" font-size="10.00">Loop: &lt;none&gt;</text>
<text text-anchor="middle" x="4251" y="-344" font-family="Helvetica" font-size="10.00">&#45;&#45;&#45;</text>
<text text-anchor="middle" x="4251" y="-333" font-family="Helvetica" font-size="10.00">HotSpotMethod&lt;LoopBenchmarks.histogramLoop(int[], int[], int)&gt;</text>
</g>
<!-- b15&#45;&gt;b16 -->
<g id="edge23" class="edge">
<title>b15&#45;&gt;b16</title>
<path fill="none" stroke="black" d="M3914.94,-471.9C3985.8,-446.54 4093.23,-408.1 4167.24,-381.61"/>
<polygon fill="black" stroke="black" points="4168.77,-384.79 4177,-378.12 4166.41,-378.2 4168.77,-384.79"/>
</g>
<!-- b34 -->
<g id="node35" class="node">
<title>b34</title>
<polygon fill="white" stroke="black" points="4402,-524 4100,-524 4100,-472 4402,-472 4402,-524"/>
<text text-anchor="middle" x="4251" y="-512" font-family="Helvetica" font-size="10.00">B34</text>
<text text-anchor="middle" x="4251" y="-501" font-family="Helvetica" font-size="10.00">Loop: &lt;none&gt;</text>
<text text-anchor="middle" x="4251" y="-490" font-family="Helvetica" font-size="10.00">&#45;&#45;&#45;</text>
<text text-anchor="middle" x="4251" y="-479" font-family="Helvetica" font-size="10.00">HotSpotMethod&lt;LoopBenchmarks.histogramLoop(int[], int[], int)&gt;</text>
</g>
<!-- b15&#45;&gt;b34 -->
<g id="edge24" class="edge">
<title>b15&#45;&gt;b34</title>
<path fill="none" stroke="black" d="M3992.19,-498C4023.86,-498 4057.4,-498 4089.44,-498"/>
<polygon fill="black" stroke="black" points="4089.79,-501.5 4099.79,-498 4089.79,-494.5 4089.79,-501.5"/>
</g>
<!-- b17 -->
<g id="node18" class="node">
<title>b17</title>
<polygon fill="white" stroke="black" points="4812,-243 4510,-243 4510,-191 4812,-191 4812,-243"/>
<text text-anchor="middle" x="4661" y="-231" font-family="Helvetica" font-size="10.00">B17</text>
<text text-anchor="middle" x="4661" y="-220" font-family="Helvetica" font-size="10.00">Loop: &lt;none&gt;</text>
<text text-anchor="middle" x="4661" y="-209" font-family="Helvetica" font-size="10.00">&#45;&#45;&#45;</text>
<text text-anchor="middle" x="4661" y="-198" font-family="Helvetica" font-size="10.00">HotSpotMethod&lt;LoopBenchmarks.histogramLoop(int[], int[], int)&gt;</text>
</g>
<!-- b16&#45;&gt;b17 -->
<g id="edge25" class="edge">
<title>b16&#45;&gt;b17</title>
<path fill="none" stroke="black" d="M4330.67,-325.97C4399.56,-303.18 4499.58,-270.08 4571.3,-246.35"/>
<polygon fill="black" stroke="black" points="4572.83,-249.53 4581.23,-243.06 4570.63,-242.88 4572.83,-249.53"/>
</g>
<!-- b33 -->
<g id="node34" class="node">
<title>b33</title>
<polygon fill="white" stroke="black" points="4812,-378 4510,-378 4510,-326 4812,-326 4812,-378"/>
<text text-anchor="middle" x="4661" y="-366" font-family="Helvetica" font-size="10.00">B33</text>
<text text-anchor="middle" x="4661" y="-355" font-family="Helvetica" font-size="10.00">Loop: &lt;none&gt;</text>
<text text-anchor="middle" x="4661" y="-344" font-family="Helvetica" font-size="10.00">&#45;&#45;&#45;</text>
<text text-anchor="middle" x="4661" y="-333" font-family="Helvetica" font-size="10.00">HotSpotMethod&lt;LoopBenchmarks.histogramLoop(int[], int[], int)&gt;</text>
</g>
<!-- b16&#45;&gt;b33 -->
<g id="edge26" class="edge">
<title>b16&#45;&gt;b33</title>
<path fill="none" stroke="black" d="M4402.19,-352C4433.86,-352 4467.4,-352 4499.44,-352"/>
<polygon fill="black" stroke="black" points="4499.79,-355.5 4509.79,-352 4499.79,-348.5 4499.79,-355.5"/>
</g>
<!-- b18 -->
<g id="node19" class="node">
<title>b18</title>
<polygon fill="white" stroke="black" points="5222,-119 4920,-119 4920,-67 5222,-67 5222,-119"/>
<text text-anchor="middle" x="5071" y="-107" font-family="Helvetica" font-size="10.00">B18</text>
<text text-anchor="middle" x="5071" y="-96" font-family="Helvetica" font-size="10.00">Loop: &lt;none&gt;</text>
<text text-anchor="middle" x="5071" y="-85" font-family="Helvetica" font-size="10.00">&#45;&#45;&#45;</text>
<text text-anchor="middle" x="5071" y="-74" font-family="Helvetica" font-size="10.00">HotSpotMethod&lt;LoopBenchmarks.histogramLoop(int[], int[], int)&gt;</text>
</g>
<!-- b17&#45;&gt;b18 -->
<g id="edge27" class="edge">
<title>b17&#45;&gt;b18</title>
<path fill="none" stroke="black" d="M4748.03,-190.85C4814.32,-170.71 4905.94,-142.86 4974.5,-122.03"/>
<polygon fill="black" stroke="black" points="4975.89,-125.26 4984.44,-119 4973.85,-118.56 4975.89,-125.26"/>
</g>
<!-- b32 -->
<g id="node33" class="node">
<title>b32</title>
<polygon fill="white" stroke="black" points="5222,-243 4920,-243 4920,-191 5222,-191 5222,-243"/>
<text text-anchor="middle" x="5071" y="-231" font-family="Helvetica" font-size="10.00">B32</text>
<text text-anchor="middle" x="5071" y="-220" font-family="Helvetica" font-size="10.00">Loop: &lt;none&gt;</text>
<text text-anchor="middle" x="5071" y="-209" font-family="Helvetica" font-size="10.00">&#45;&#45;&#45;</text>
<text text-anchor="middle" x="5071" y="-198" font-family="Helvetica" font-size="10.00">HotSpotMethod&lt;LoopBenchmarks.histogramLoop(int[], int[], int)&gt;</text>
</g>
<!-- b17&#45;&gt;b32 -->
<g id="edge28" class="edge">
<title>b17&#45;&gt;b32</title>
<path fill="none" stroke="black" d="M4812.19,-217C4843.86,-217 4877.4,-217 4909.44,-217"/>
<polygon fill="black" stroke="black" points="4909.79,-220.5 4919.79,-217 4909.79,-213.5 4909.79,-220.5"/>
</g>
<!-- b19 -->
<g id="node20" class="node">
<title>b19</title>
<polygon fill="white" stroke="black" points="5632,-187 5330,-187 5330,-135 5632,-135 5632,-187"/>
<text text-anchor="middle" x="5481" y="-175" font-family="Helvetica" font-size="10.00">B19</text>
<text text-anchor="middle" x="5481" y="-164" font-family="Helvetica" font-size="10.00">Loop: &lt;none&gt;</text>
<text text-anchor="middle" x="5481" y="-153" font-family="Helvetica" font-size="10.00">&#45;&#45;&#45;</text>
<text text-anchor="middle" x="5481" y="-142" font-family="Helvetica" font-size="10.00">HotSpotMethod&lt;LoopBenchmarks.histogramLoop(int[], int[], int)&gt;</text>
</g>
<!-- b18&#45;&gt;b19 -->
<g id="edge29" class="edge">
<title>b18&#45;&gt;b19</title>
<path fill="none" stroke="black" d="M5222.19,-118.03C5254,-123.33 5287.69,-128.95 5319.86,-134.31"/>
<polygon fill="black" stroke="black" points="5319.35,-137.77 5329.79,-135.97 5320.5,-130.87 5319.35,-137.77"/>
</g>
<!-- b30 -->
<g id="node31" class="node">
<title>b30</title>
<polygon fill="white" stroke="black" points="6046,-52 5744,-52 5744,0 6046,0 6046,-52"/>
<text text-anchor="middle" x="5895" y="-40" font-family="Helvetica" font-size="10.00">B30</text>
<text text-anchor="middle" x="5895" y="-29" font-family="Helvetica" font-size="10.00">Loop: &lt;none&gt;</text>
<text text-anchor="middle" x="5895" y="-18" font-family="Helvetica" font-size="10.00">&#45;&#45;&#45;</text>
<text text-anchor="middle" x="5895" y="-7" font-family="Helvetica" font-size="10.00">HotSpotMethod&lt;LoopBenchmarks.histogramLoop(int[], int[], int)&gt;</text>
</g>
<!-- b18&#45;&gt;b30 -->
<g id="edge30" class="edge">
<title>b18&#45;&gt;b30</title>
<path fill="none" stroke="black" d="M5222.29,-80.75C5367.1,-68.95 5585.44,-51.15 5733.56,-39.08"/>
<polygon fill="black" stroke="black" points="5733.98,-42.55 5743.66,-38.25 5733.41,-35.58 5733.98,-42.55"/>
</g>
<!-- b20 -->
<g id="node21" class="node">
<title>b20</title>
<polygon fill="white" stroke="black" stroke-width="4" points="6046,-337.5 5744,-337.5 5744,-252.5 6046,-252.5 6046,-337.5"/>
<polygon fill="none" stroke="black" stroke-width="4" points="6050,-341.5 5740,-341.5 5740,-248.5 6050,-248.5 6050,-341.5"/>
<text text-anchor="middle" x="5895" y="-325.5" font-family="Helvetica" font-size="10.00">B20</text>
<text text-anchor="middle" x="5895" y="-314.5" font-family="Helvetica" font-size="10.00">Loop: &lt;none&gt;</text>
<text text-anchor="middle" x="5895" y="-303.5" font-family="Helvetica" font-size="10.00">&#45;&#45;&#45;</text>
<text text-anchor="middle" x="5895" y="-292.5" font-family="Helvetica" font-size="10.00">HotSpotMethod&lt;LoopBenchmarks.histogramLoop(int[], int[], int)&gt;</text>
<text text-anchor="middle" x="5895" y="-281.5" font-family="Helvetica" font-size="10.00">&#45;&#45;&#45;</text>
<text text-anchor="middle" x="5895" y="-270.5" font-family="Helvetica" font-size="10.00">BuboLoopMakers:</text>
<text text-anchor="middle" x="5895" y="-259.5" font-family="Helvetica" font-size="10.00"> &#160;AMD64BuboRDTSCToSlot (LoopID=0)</text>
</g>
<!-- b19&#45;&gt;b20 -->
<g id="edge31" class="edge">
<title>b19&#45;&gt;b20</title>
<path fill="none" stroke="black" d="M5562.42,-187.15C5613.21,-203.67 5680.47,-225.55 5741.14,-245.28"/>
<polygon fill="black" stroke="black" points="5740.22,-248.67 5750.81,-248.43 5742.39,-242.01 5740.22,-248.67"/>
</g>
<!-- b29 -->
<g id="node30" class="node">
<title>b29</title>
<polygon fill="white" stroke="black" points="6046,-176 5744,-176 5744,-124 6046,-124 6046,-176"/>
<text text-anchor="middle" x="5895" y="-164" font-family="Helvetica" font-size="10.00">B29</text>
<text text-anchor="middle" x="5895" y="-153" font-family="Helvetica" font-size="10.00">Loop: &lt;none&gt;</text>
<text text-anchor="middle" x="5895" y="-142" font-family="Helvetica" font-size="10.00">&#45;&#45;&#45;</text>
<text text-anchor="middle" x="5895" y="-131" font-family="Helvetica" font-size="10.00">HotSpotMethod&lt;LoopBenchmarks.histogramLoop(int[], int[], int)&gt;</text>
</g>
<!-- b19&#45;&gt;b29 -->
<g id="edge32" class="edge">
<title>b19&#45;&gt;b29</title>
<path fill="none" stroke="black" d="M5632.2,-156.99C5665.13,-156.11 5700.12,-155.18 5733.43,-154.29"/>
<polygon fill="black" stroke="black" points="5733.81,-157.78 5743.72,-154.01 5733.63,-150.78 5733.81,-157.78"/>
</g>
<!-- b21 -->
<g id="node22" class="node">
<title>b21</title>
<polygon fill="lightblue" stroke="black" points="6460,-321 6158,-321 6158,-269 6460,-269 6460,-321"/>
<text text-anchor="middle" x="6309" y="-309" font-family="Helvetica" font-size="10.00">B21</text>
<text text-anchor="middle" x="6309" y="-298" font-family="Helvetica" font-size="10.00">Loop: L0</text>
<text text-anchor="middle" x="6309" y="-287" font-family="Helvetica" font-size="10.00">&#45;&#45;&#45;</text>
<text text-anchor="middle" x="6309" y="-276" font-family="Helvetica" font-size="10.00">HotSpotMethod&lt;LoopBenchmarks.histogramLoop(int[], int[], int)&gt;</text>
</g>
<!-- b20&#45;&gt;b21 -->
<g id="edge33" class="edge">
<title>b20&#45;&gt;b21</title>
<path fill="none" stroke="black" d="M6050.29,-295C6082.04,-295 6115.53,-295 6147.49,-295"/>
<polygon fill="black" stroke="black" points="6147.81,-298.5 6157.81,-295 6147.81,-291.5 6147.81,-298.5"/>
</g>
<!-- b22 -->
<g id="node23" class="node">
<title>b22</title>
<polygon fill="lightblue" stroke="black" points="6870,-186 6568,-186 6568,-134 6870,-134 6870,-186"/>
<text text-anchor="middle" x="6719" y="-174" font-family="Helvetica" font-size="10.00">B22</text>
<text text-anchor="middle" x="6719" y="-163" font-family="Helvetica" font-size="10.00">Loop: L0</text>
<text text-anchor="middle" x="6719" y="-152" font-family="Helvetica" font-size="10.00">&#45;&#45;&#45;</text>
<text text-anchor="middle" x="6719" y="-141" font-family="Helvetica" font-size="10.00">HotSpotMethod&lt;LoopBenchmarks.histogramLoop(int[], int[], int)&gt;</text>
</g>
<!-- b21&#45;&gt;b22 -->
<g id="edge34" class="edge">
<title>b21&#45;&gt;b22</title>
<path fill="none" stroke="black" d="M6388.67,-268.97C6457.56,-246.18 6557.58,-213.08 6629.3,-189.35"/>
<polygon fill="black" stroke="black" points="6630.83,-192.53 6639.23,-186.06 6628.63,-185.88 6630.83,-192.53"/>
</g>
<!-- b27 -->
<g id="node28" class="node">
<title>b27</title>
<polygon fill="white" stroke="black" points="6870,-461 6568,-461 6568,-409 6870,-409 6870,-461"/>
<text text-anchor="middle" x="6719" y="-449" font-family="Helvetica" font-size="10.00">B27</text>
<text text-anchor="middle" x="6719" y="-438" font-family="Helvetica" font-size="10.00">Loop: &lt;none&gt;</text>
<text text-anchor="middle" x="6719" y="-427" font-family="Helvetica" font-size="10.00">&#45;&#45;&#45;</text>
<text text-anchor="middle" x="6719" y="-416" font-family="Helvetica" font-size="10.00">HotSpotMethod&lt;LoopBenchmarks.histogramLoop(int[], int[], int)&gt;</text>
</g>
<!-- b21&#45;&gt;b27 -->
<g id="edge35" class="edge">
<title>b21&#45;&gt;b27</title>
<path fill="none" stroke="black" d="M6385.79,-321C6455.7,-344.99 6559.4,-380.58 6632.3,-405.59"/>
<polygon fill="black" stroke="black" points="6631.33,-408.96 6641.93,-408.9 6633.61,-402.34 6631.33,-408.96"/>
</g>
<!-- b23 -->
<g id="node24" class="node">
<title>b23</title>
<polygon fill="lightblue" stroke="black" points="7280,-186 6978,-186 6978,-134 7280,-134 7280,-186"/>
<text text-anchor="middle" x="7129" y="-174" font-family="Helvetica" font-size="10.00">B23</text>
<text text-anchor="middle" x="7129" y="-163" font-family="Helvetica" font-size="10.00">Loop: L0</text>
<text text-anchor="middle" x="7129" y="-152" font-family="Helvetica" font-size="10.00">&#45;&#45;&#45;</text>
<text text-anchor="middle" x="7129" y="-141" font-family="Helvetica" font-size="10.00">HotSpotMethod&lt;LoopBenchmarks.histogramLoop(int[], int[], int)&gt;</text>
</g>
<!-- b22&#45;&gt;b23 -->
<g id="edge36" class="edge">
<title>b22&#45;&gt;b23</title>
<path fill="none" stroke="black" d="M6870.19,-160C6901.86,-160 6935.4,-160 6967.44,-160"/>
<polygon fill="black" stroke="black" points="6967.79,-163.5 6977.79,-160 6967.79,-156.5 6967.79,-163.5"/>
</g>
<!-- b26 -->
<g id="node27" class="node">
<title>b26</title>
<polygon fill="white" stroke="black" points="7280,-62 6978,-62 6978,-10 7280,-10 7280,-62"/>
<text text-anchor="middle" x="7129" y="-50" font-family="Helvetica" font-size="10.00">B26</text>
<text text-anchor="middle" x="7129" y="-39" font-family="Helvetica" font-size="10.00">Loop: &lt;none&gt;</text>
<text text-anchor="middle" x="7129" y="-28" font-family="Helvetica" font-size="10.00">&#45;&#45;&#45;</text>
<text text-anchor="middle" x="7129" y="-17" font-family="Helvetica" font-size="10.00">HotSpotMethod&lt;LoopBenchmarks.histogramLoop(int[], int[], int)&gt;</text>
</g>
<!-- b22&#45;&gt;b26 -->
<g id="edge37" class="edge">
<title>b22&#45;&gt;b26</title>
<path fill="none" stroke="black" d="M6806.03,-133.85C6872.32,-113.71 6963.94,-85.86 7032.5,-65.03"/>
<polygon fill="black" stroke="black" points="7033.89,-68.26 7042.44,-62 7031.85,-61.56 7033.89,-68.26"/>
</g>
<!-- b24 -->
<g id="node25" class="node">
<title>b24</title>
<polygon fill="lightblue" stroke="black" points="7690,-321 7388,-321 7388,-269 7690,-269 7690,-321"/>
<text text-anchor="middle" x="7539" y="-309" font-family="Helvetica" font-size="10.00">B24</text>
<text text-anchor="middle" x="7539" y="-298" font-family="Helvetica" font-size="10.00">Loop: L0</text>
<text text-anchor="middle" x="7539" y="-287" font-family="Helvetica" font-size="10.00">&#45;&#45;&#45;</text>
<text text-anchor="middle" x="7539" y="-276" font-family="Helvetica" font-size="10.00">HotSpotMethod&lt;LoopBenchmarks.histogramLoop(int[], int[], int)&gt;</text>
</g>
<!-- b23&#45;&gt;b24 -->
<g id="edge38" class="edge">
<title>b23&#45;&gt;b24</title>
<path fill="none" stroke="black" d="M7208.67,-186.03C7277.56,-208.82 7377.58,-241.92 7449.3,-265.65"/>
<polygon fill="black" stroke="black" points="7448.63,-269.12 7459.23,-268.94 7450.83,-262.47 7448.63,-269.12"/>
</g>
<!-- b25 -->
<g id="node26" class="node">
<title>b25</title>
<polygon fill="white" stroke="black" points="7690,-197 7388,-197 7388,-145 7690,-145 7690,-197"/>
<text text-anchor="middle" x="7539" y="-185" font-family="Helvetica" font-size="10.00">B25</text>
<text text-anchor="middle" x="7539" y="-174" font-family="Helvetica" font-size="10.00">Loop: &lt;none&gt;</text>
<text text-anchor="middle" x="7539" y="-163" font-family="Helvetica" font-size="10.00">&#45;&#45;&#45;</text>
<text text-anchor="middle" x="7539" y="-152" font-family="Helvetica" font-size="10.00">HotSpotMethod&lt;LoopBenchmarks.histogramLoop(int[], int[], int)&gt;</text>
</g>
<!-- b23&#45;&gt;b25 -->
<g id="edge39" class="edge">
<title>b23&#45;&gt;b25</title>
<path fill="none" stroke="black" d="M7280.19,-164.05C7311.86,-164.9 7345.4,-165.81 7377.44,-166.67"/>
<polygon fill="black" stroke="black" points="7377.7,-170.18 7387.79,-166.95 7377.89,-163.18 7377.7,-170.18"/>
</g>
<!-- b24&#45;&gt;b21 -->
<g id="edge40" class="edge">
<title>b24&#45;&gt;b21</title>
<path fill="none" stroke="black" d="M7387.55,-295C7154.73,-295 6709.16,-295 6470.43,-295"/>
<polygon fill="black" stroke="black" points="6470.27,-291.5 6460.27,-295 6470.27,-298.5 6470.27,-291.5"/>
</g>
<!-- b28 -->
<g id="node29" class="node">
<title>b28</title>
<polygon fill="white" stroke="black" points="8100,-197 7798,-197 7798,-145 8100,-145 8100,-197"/>
<text text-anchor="middle" x="7949" y="-185" font-family="Helvetica" font-size="10.00">B28</text>
<text text-anchor="middle" x="7949" y="-174" font-family="Helvetica" font-size="10.00">Loop: &lt;none&gt;</text>
<text text-anchor="middle" x="7949" y="-163" font-family="Helvetica" font-size="10.00">&#45;&#45;&#45;</text>
<text text-anchor="middle" x="7949" y="-152" font-family="Helvetica" font-size="10.00">HotSpotMethod&lt;LoopBenchmarks.histogramLoop(int[], int[], int)&gt;</text>
</g>
<!-- b25&#45;&gt;b28 -->
<g id="edge41" class="edge">
<title>b25&#45;&gt;b28</title>
<path fill="none" stroke="black" d="M7690.19,-171C7721.86,-171 7755.4,-171 7787.44,-171"/>
<polygon fill="black" stroke="black" points="7787.79,-174.5 7797.79,-171 7787.79,-167.5 7787.79,-174.5"/>
</g>
<!-- b26&#45;&gt;b28 -->
<g id="edge42" class="edge">
<title>b26&#45;&gt;b28</title>
<path fill="none" stroke="black" d="M7280.12,-51.19C7393.27,-63.7 7552.01,-83.5 7690,-109 7739.9,-118.22 7794.64,-130.99 7840.8,-142.54"/>
<polygon fill="black" stroke="black" points="7839.96,-145.94 7850.51,-144.99 7841.67,-139.15 7839.96,-145.94"/>
</g>
<!-- b27&#45;&gt;b28 -->
<g id="edge43" class="edge">
<title>b27&#45;&gt;b28</title>
<path fill="none" stroke="black" d="M6870.31,-447.37C7065.64,-458.04 7414.3,-458.4 7690,-357 7781.31,-323.42 7869.14,-247.96 7915.03,-204.17"/>
<polygon fill="black" stroke="black" points="7917.53,-206.62 7922.3,-197.16 7912.67,-201.58 7917.53,-206.62"/>
</g>
<!-- b31 -->
<g id="node32" class="node">
<title>b31</title>
<polygon fill="white" stroke="black" points="6460,-114 6158,-114 6158,-62 6460,-62 6460,-114"/>
<text text-anchor="middle" x="6309" y="-102" font-family="Helvetica" font-size="10.00">B31</text>
<text text-anchor="middle" x="6309" y="-91" font-family="Helvetica" font-size="10.00">Loop: &lt;none&gt;</text>
<text text-anchor="middle" x="6309" y="-80" font-family="Helvetica" font-size="10.00">&#45;&#45;&#45;</text>
<text text-anchor="middle" x="6309" y="-69" font-family="Helvetica" font-size="10.00">HotSpotMethod&lt;LoopBenchmarks.histogramLoop(int[], int[], int)&gt;</text>
</g>
<!-- b29&#45;&gt;b31 -->
<g id="edge44" class="edge">
<title>b29&#45;&gt;b31</title>
<path fill="none" stroke="black" d="M6046.2,-127.4C6079.13,-122.44 6114.12,-117.18 6147.43,-112.16"/>
<polygon fill="black" stroke="black" points="6148.35,-115.56 6157.72,-110.62 6147.31,-108.64 6148.35,-115.56"/>
</g>
<!-- b30&#45;&gt;b31 -->
<g id="edge45" class="edge">
<title>b30&#45;&gt;b31</title>
<path fill="none" stroke="black" d="M6046.2,-48.6C6079.13,-53.56 6114.12,-58.82 6147.43,-63.84"/>
<polygon fill="black" stroke="black" points="6147.31,-67.36 6157.72,-65.38 6148.35,-60.44 6147.31,-67.36"/>
</g>
<!-- b38 -->
<g id="node39" class="node">
<title>b38</title>
<polygon fill="white" stroke="black" points="5632,-597 5330,-597 5330,-545 5632,-545 5632,-597"/>
<text text-anchor="middle" x="5481" y="-585" font-family="Helvetica" font-size="10.00">B38</text>
<text text-anchor="middle" x="5481" y="-574" font-family="Helvetica" font-size="10.00">Loop: &lt;none&gt;</text>
<text text-anchor="middle" x="5481" y="-563" font-family="Helvetica" font-size="10.00">&#45;&#45;&#45;</text>
<text text-anchor="middle" x="5481" y="-552" font-family="Helvetica" font-size="10.00">HotSpotMethod&lt;LoopBenchmarks.histogramLoop(int[], int[], int)&gt;</text>
</g>
<!-- b32&#45;&gt;b38 -->
<g id="edge46" class="edge">
<title>b32&#45;&gt;b38</title>
<path fill="none" stroke="black" d="M5131.29,-243.06C5160.01,-257.04 5194.22,-275.76 5222,-297 5318.28,-370.6 5410.48,-481.38 5453.97,-536.83"/>
<polygon fill="black" stroke="black" points="5451.37,-539.19 5460.28,-544.92 5456.89,-534.88 5451.37,-539.19"/>
</g>
<!-- b33&#45;&gt;b38 -->
<g id="edge47" class="edge">
<title>b33&#45;&gt;b38</title>
<path fill="none" stroke="black" d="M4812.23,-364.1C4926.65,-376.25 5086.96,-399.62 5222,-443 5297.22,-467.16 5377.88,-510.26 5428.6,-539.72"/>
<polygon fill="black" stroke="black" points="5427.01,-542.84 5437.41,-544.87 5430.54,-536.8 5427.01,-542.84"/>
</g>
<!-- b34&#45;&gt;b38 -->
<g id="edge48" class="edge">
<title>b34&#45;&gt;b38</title>
<path fill="none" stroke="black" d="M4402.27,-506.93C4634.98,-520.77 5080.54,-547.25 5319.39,-561.45"/>
<polygon fill="black" stroke="black" points="5319.36,-564.96 5329.55,-562.06 5319.77,-557.97 5319.36,-564.96"/>
</g>
<!-- b35&#45;&gt;b38 -->
<g id="edge49" class="edge">
<title>b35&#45;&gt;b38</title>
<path fill="none" stroke="black" d="M3992.06,-634.39C4245.75,-635.68 4775.44,-633.77 5222,-602 5253.71,-599.74 5287.51,-596.38 5319.84,-592.69"/>
<polygon fill="black" stroke="black" points="5320.29,-596.16 5329.83,-591.54 5319.49,-589.21 5320.29,-596.16"/>
</g>
<!-- b36&#45;&gt;b38 -->
<g id="edge50" class="edge">
<title>b36&#45;&gt;b38</title>
<path fill="none" stroke="black" d="M3582.01,-790C3746.07,-790 4016.74,-790 4250,-790 4250,-790 4250,-790 4662,-790 4950.22,-790 5276.72,-661.57 5413.84,-601.41"/>
<polygon fill="black" stroke="black" points="5415.65,-604.44 5423.38,-597.2 5412.82,-598.03 5415.65,-604.44"/>
</g>
<!-- b37&#45;&gt;b38 -->
<g id="edge51" class="edge">
<title>b37&#45;&gt;b38</title>
<path fill="none" stroke="black" d="M2762.01,-936C2926.07,-936 3196.74,-936 3430,-936 3430,-936 3430,-936 4662,-936 4921.09,-936 4991.49,-892.29 5222,-774 5311.58,-728.03 5400.39,-648.83 5446.83,-604.16"/>
<polygon fill="black" stroke="black" points="5449.44,-606.5 5454.19,-597.03 5444.57,-601.48 5449.44,-606.5"/>
</g>
</g>
</svg>
