<?xml version="1.0" encoding="UTF-8" standalone="no"?>
<!DOCTYPE svg PUBLIC "-//W3C//DTD SVG 1.1//EN"
 "http://www.w3.org/Graphics/SVG/1.1/DTD/svg11.dtd">
<!-- Generated by graphviz version 2.44.0 (0)
 -->
<!-- Title: CFG_146 Pages: 1 -->
<svg width="4444pt" height="1443pt"
 viewBox="0.00 0.00 4444.00 1442.86" xmlns="http://www.w3.org/2000/svg" xmlns:xlink="http://www.w3.org/1999/xlink">
<g id="graph0" class="graph" transform="scale(1 1) rotate(0) translate(4 1438.86)">
<title>CFG_146</title>
<polygon fill="white" stroke="transparent" points="-4,4 -4,-1438.86 4440,-1438.86 4440,4 -4,4"/>
<text text-anchor="middle" x="225.5" y="-1414.86" font-family="Times-Roman" font-size="20.00">219&#45;LoopBenchmarks.bubbleSortLoop(int[])</text>
<!-- b0 -->
<g id="node1" class="node">
<title>b0</title>
<polygon fill="white" stroke="black" stroke-width="4" points="272,-368.5 4,-368.5 4,-283.5 272,-283.5 272,-368.5"/>
<polygon fill="none" stroke="black" stroke-width="4" points="276,-372.5 0,-372.5 0,-279.5 276,-279.5 276,-372.5"/>
<text text-anchor="middle" x="138" y="-356.5" font-family="Helvetica" font-size="10.00">B0</text>
<text text-anchor="middle" x="138" y="-345.5" font-family="Helvetica" font-size="10.00">Loop: &lt;none&gt;</text>
<text text-anchor="middle" x="138" y="-334.5" font-family="Helvetica" font-size="10.00">&#45;&#45;&#45;</text>
<text text-anchor="middle" x="138" y="-323.5" font-family="Helvetica" font-size="10.00">HotSpotMethod&lt;LoopBenchmarks.bubbleSortLoop(int[])&gt;</text>
<text text-anchor="middle" x="138" y="-312.5" font-family="Helvetica" font-size="10.00">&#45;&#45;&#45;</text>
<text text-anchor="middle" x="138" y="-301.5" font-family="Helvetica" font-size="10.00">BuboLoopMakers:</text>
<text text-anchor="middle" x="138" y="-290.5" font-family="Helvetica" font-size="10.00"> &#160;AMD64BuboRDTSCToSlot (LoopID=0)</text>
</g>
<!-- b1 -->
<g id="node2" class="node">
<title>b1</title>
<polygon fill="lightblue" stroke="black" points="652,-352 384,-352 384,-300 652,-300 652,-352"/>
<text text-anchor="middle" x="518" y="-340" font-family="Helvetica" font-size="10.00">B1</text>
<text text-anchor="middle" x="518" y="-329" font-family="Helvetica" font-size="10.00">Loop: L0</text>
<text text-anchor="middle" x="518" y="-318" font-family="Helvetica" font-size="10.00">&#45;&#45;&#45;</text>
<text text-anchor="middle" x="518" y="-307" font-family="Helvetica" font-size="10.00">HotSpotMethod&lt;LoopBenchmarks.bubbleSortLoop(int[])&gt;</text>
</g>
<!-- b0&#45;&gt;b1 -->
<g id="edge1" class="edge">
<title>b0&#45;&gt;b1</title>
<path fill="none" stroke="black" d="M276,-326C307.74,-326 341.61,-326 373.62,-326"/>
<polygon fill="black" stroke="black" points="373.94,-329.5 383.94,-326 373.94,-322.5 373.94,-329.5"/>
</g>
<!-- b2 -->
<g id="node3" class="node">
<title>b2</title>
<polygon fill="lightblue" stroke="black" points="1032,-738 764,-738 764,-686 1032,-686 1032,-738"/>
<text text-anchor="middle" x="898" y="-726" font-family="Helvetica" font-size="10.00">B2</text>
<text text-anchor="middle" x="898" y="-715" font-family="Helvetica" font-size="10.00">Loop: L0</text>
<text text-anchor="middle" x="898" y="-704" font-family="Helvetica" font-size="10.00">&#45;&#45;&#45;</text>
<text text-anchor="middle" x="898" y="-693" font-family="Helvetica" font-size="10.00">HotSpotMethod&lt;LoopBenchmarks.bubbleSortLoop(int[])&gt;</text>
</g>
<!-- b1&#45;&gt;b2 -->
<g id="edge2" class="edge">
<title>b1&#45;&gt;b2</title>
<path fill="none" stroke="black" d="M544.68,-352.23C611.43,-420.39 790.32,-603.06 864.29,-678.6"/>
<polygon fill="black" stroke="black" points="862.03,-681.29 871.53,-685.99 867.03,-676.4 862.03,-681.29"/>
</g>
<!-- b19 -->
<g id="node20" class="node">
<title>b19</title>
<polygon fill="white" stroke="black" stroke-width="4" points="1032,-368.5 764,-368.5 764,-283.5 1032,-283.5 1032,-368.5"/>
<polygon fill="none" stroke="black" stroke-width="4" points="1036,-372.5 760,-372.5 760,-279.5 1036,-279.5 1036,-372.5"/>
<text text-anchor="middle" x="898" y="-356.5" font-family="Helvetica" font-size="10.00">B19</text>
<text text-anchor="middle" x="898" y="-345.5" font-family="Helvetica" font-size="10.00">Loop: &lt;none&gt;</text>
<text text-anchor="middle" x="898" y="-334.5" font-family="Helvetica" font-size="10.00">&#45;&#45;&#45;</text>
<text text-anchor="middle" x="898" y="-323.5" font-family="Helvetica" font-size="10.00">HotSpotMethod&lt;LoopBenchmarks.bubbleSortLoop(int[])&gt;</text>
<text text-anchor="middle" x="898" y="-312.5" font-family="Helvetica" font-size="10.00">&#45;&#45;&#45;</text>
<text text-anchor="middle" x="898" y="-301.5" font-family="Helvetica" font-size="10.00">BuboLoopMakers:</text>
<text text-anchor="middle" x="898" y="-290.5" font-family="Helvetica" font-size="10.00"> &#160;AMD64BuboWriteDeltaRDTSC (LoopID=0)</text>
</g>
<!-- b1&#45;&gt;b19 -->
<g id="edge3" class="edge">
<title>b1&#45;&gt;b19</title>
<path fill="none" stroke="black" d="M652,-326C683.57,-326 717.42,-326 749.58,-326"/>
<polygon fill="black" stroke="black" points="749.96,-329.5 759.96,-326 749.96,-322.5 749.96,-329.5"/>
</g>
<!-- b4 -->
<g id="node5" class="node">
<title>b4</title>
<polygon fill="lightblue" stroke="black" points="1412,-738 1144,-738 1144,-686 1412,-686 1412,-738"/>
<text text-anchor="middle" x="1278" y="-726" font-family="Helvetica" font-size="10.00">B4</text>
<text text-anchor="middle" x="1278" y="-715" font-family="Helvetica" font-size="10.00">Loop: L0</text>
<text text-anchor="middle" x="1278" y="-704" font-family="Helvetica" font-size="10.00">&#45;&#45;&#45;</text>
<text text-anchor="middle" x="1278" y="-693" font-family="Helvetica" font-size="10.00">HotSpotMethod&lt;LoopBenchmarks.bubbleSortLoop(int[])&gt;</text>
</g>
<!-- b2&#45;&gt;b4 -->
<g id="edge5" class="edge">
<title>b2&#45;&gt;b4</title>
<path fill="none" stroke="black" d="M1032,-712C1064.86,-712 1100.2,-712 1133.53,-712"/>
<polygon fill="black" stroke="black" points="1133.8,-715.5 1143.8,-712 1133.8,-708.5 1133.8,-715.5"/>
</g>
<!-- b8 -->
<g id="node9" class="node">
<title>b8</title>
<polygon fill="lightblue" stroke="black" points="2164,-1056 1896,-1056 1896,-1004 2164,-1004 2164,-1056"/>
<text text-anchor="middle" x="2030" y="-1044" font-family="Helvetica" font-size="10.00">B8</text>
<text text-anchor="middle" x="2030" y="-1033" font-family="Helvetica" font-size="10.00">Loop: L0</text>
<text text-anchor="middle" x="2030" y="-1022" font-family="Helvetica" font-size="10.00">&#45;&#45;&#45;</text>
<text text-anchor="middle" x="2030" y="-1011" font-family="Helvetica" font-size="10.00">HotSpotMethod&lt;LoopBenchmarks.bubbleSortLoop(int[])&gt;</text>
</g>
<!-- b2&#45;&gt;b8 -->
<g id="edge4" class="edge">
<title>b2&#45;&gt;b8</title>
<path fill="none" stroke="black" d="M928.1,-738.22C1012.12,-811.93 1265.42,-1020.29 1520,-1092 1667.13,-1133.44 1845.89,-1091.4 1947.65,-1059.22"/>
<polygon fill="black" stroke="black" points="1948.8,-1062.52 1957.25,-1056.14 1946.66,-1055.86 1948.8,-1062.52"/>
</g>
<!-- b3 -->
<g id="node4" class="node">
<title>b3</title>
<polygon fill="lightblue" stroke="black" points="1788,-1056 1520,-1056 1520,-1004 1788,-1004 1788,-1056"/>
<text text-anchor="middle" x="1654" y="-1044" font-family="Helvetica" font-size="10.00">B3</text>
<text text-anchor="middle" x="1654" y="-1033" font-family="Helvetica" font-size="10.00">Loop: L0</text>
<text text-anchor="middle" x="1654" y="-1022" font-family="Helvetica" font-size="10.00">&#45;&#45;&#45;</text>
<text text-anchor="middle" x="1654" y="-1011" font-family="Helvetica" font-size="10.00">HotSpotMethod&lt;LoopBenchmarks.bubbleSortLoop(int[])&gt;</text>
</g>
<!-- b3&#45;&gt;b8 -->
<g id="edge6" class="edge">
<title>b3&#45;&gt;b8</title>
<path fill="none" stroke="black" d="M1788.18,-1030C1819.71,-1030 1853.47,-1030 1885.44,-1030"/>
<polygon fill="black" stroke="black" points="1885.75,-1033.5 1895.75,-1030 1885.75,-1026.5 1885.75,-1033.5"/>
</g>
<!-- b5 -->
<g id="node6" class="node">
<title>b5</title>
<polygon fill="lightblue" stroke="black" points="1788,-808 1520,-808 1520,-756 1788,-756 1788,-808"/>
<text text-anchor="middle" x="1654" y="-796" font-family="Helvetica" font-size="10.00">B5</text>
<text text-anchor="middle" x="1654" y="-785" font-family="Helvetica" font-size="10.00">Loop: L0</text>
<text text-anchor="middle" x="1654" y="-774" font-family="Helvetica" font-size="10.00">&#45;&#45;&#45;</text>
<text text-anchor="middle" x="1654" y="-763" font-family="Helvetica" font-size="10.00">HotSpotMethod&lt;LoopBenchmarks.bubbleSortLoop(int[])&gt;</text>
</g>
<!-- b4&#45;&gt;b5 -->
<g id="edge7" class="edge">
<title>b4&#45;&gt;b5</title>
<path fill="none" stroke="black" d="M1412.18,-736.93C1443.84,-742.85 1477.76,-749.2 1509.85,-755.21"/>
<polygon fill="black" stroke="black" points="1509.28,-758.66 1519.75,-757.06 1510.56,-751.78 1509.28,-758.66"/>
</g>
<!-- b23 -->
<g id="node24" class="node">
<title>b23</title>
<polygon fill="white" stroke="black" points="3296,-600 3028,-600 3028,-548 3296,-548 3296,-600"/>
<text text-anchor="middle" x="3162" y="-588" font-family="Helvetica" font-size="10.00">B23</text>
<text text-anchor="middle" x="3162" y="-577" font-family="Helvetica" font-size="10.00">Loop: &lt;none&gt;</text>
<text text-anchor="middle" x="3162" y="-566" font-family="Helvetica" font-size="10.00">&#45;&#45;&#45;</text>
<text text-anchor="middle" x="3162" y="-555" font-family="Helvetica" font-size="10.00">HotSpotMethod&lt;LoopBenchmarks.bubbleSortLoop(int[])&gt;</text>
</g>
<!-- b4&#45;&gt;b23 -->
<g id="edge8" class="edge">
<title>b4&#45;&gt;b23</title>
<path fill="none" stroke="black" d="M1412.1,-692.03C1561.76,-671.34 1812.24,-642 2029,-642 2029,-642 2029,-642 2407,-642 2620.28,-642 2866.13,-614.68 3017.56,-594.67"/>
<polygon fill="black" stroke="black" points="3018.4,-598.09 3027.85,-593.3 3017.48,-591.15 3018.4,-598.09"/>
</g>
<!-- b5&#45;&gt;b8 -->
<g id="edge10" class="edge">
<title>b5&#45;&gt;b8</title>
<path fill="none" stroke="black" d="M1718.39,-808.1C1740.93,-818.27 1766.13,-830.69 1788,-844 1865.03,-890.89 1946.44,-957.9 1992.17,-997.38"/>
<polygon fill="black" stroke="black" points="1989.89,-1000.04 1999.74,-1003.95 1994.48,-994.75 1989.89,-1000.04"/>
</g>
<!-- b5&#45;&gt;b23 -->
<g id="edge9" class="edge">
<title>b5&#45;&gt;b23</title>
<path fill="none" stroke="black" d="M1788.08,-790.07C2021.23,-800.48 2516.71,-805.92 2916,-697 2988.62,-677.19 3065.02,-634.91 3112.81,-605.49"/>
<polygon fill="black" stroke="black" points="3114.75,-608.4 3121.4,-600.15 3111.06,-602.46 3114.75,-608.4"/>
</g>
<!-- b6 -->
<g id="node7" class="node">
<title>b6</title>
<polygon fill="white" stroke="black" points="2916,-533 2648,-533 2648,-481 2916,-481 2916,-533"/>
<text text-anchor="middle" x="2782" y="-521" font-family="Helvetica" font-size="10.00">B6</text>
<text text-anchor="middle" x="2782" y="-510" font-family="Helvetica" font-size="10.00">Loop: &lt;none&gt;</text>
<text text-anchor="middle" x="2782" y="-499" font-family="Helvetica" font-size="10.00">&#45;&#45;&#45;</text>
<text text-anchor="middle" x="2782" y="-488" font-family="Helvetica" font-size="10.00">HotSpotMethod&lt;LoopBenchmarks.bubbleSortLoop(int[])&gt;</text>
</g>
<!-- b6&#45;&gt;b23 -->
<g id="edge11" class="edge">
<title>b6&#45;&gt;b23</title>
<path fill="none" stroke="black" d="M2916,-530.57C2948.86,-536.4 2984.2,-542.66 3017.53,-548.57"/>
<polygon fill="black" stroke="black" points="3017.34,-552.09 3027.8,-550.39 3018.57,-545.2 3017.34,-552.09"/>
</g>
<!-- b7 -->
<g id="node8" class="node">
<title>b7</title>
<polygon fill="lightblue" stroke="black" points="1788,-932 1520,-932 1520,-880 1788,-880 1788,-932"/>
<text text-anchor="middle" x="1654" y="-920" font-family="Helvetica" font-size="10.00">B7</text>
<text text-anchor="middle" x="1654" y="-909" font-family="Helvetica" font-size="10.00">Loop: L0</text>
<text text-anchor="middle" x="1654" y="-898" font-family="Helvetica" font-size="10.00">&#45;&#45;&#45;</text>
<text text-anchor="middle" x="1654" y="-887" font-family="Helvetica" font-size="10.00">HotSpotMethod&lt;LoopBenchmarks.bubbleSortLoop(int[])&gt;</text>
</g>
<!-- b7&#45;&gt;b8 -->
<g id="edge12" class="edge">
<title>b7&#45;&gt;b8</title>
<path fill="none" stroke="black" d="M1733.86,-932.15C1794.5,-952.25 1878.27,-980.02 1941.07,-1000.85"/>
<polygon fill="black" stroke="black" points="1939.98,-1004.17 1950.57,-1004 1942.18,-997.53 1939.98,-1004.17"/>
</g>
<!-- b10 -->
<g id="node11" class="node">
<title>b10</title>
<polygon fill="lightblue" stroke="black" points="2540,-1056 2272,-1056 2272,-1004 2540,-1004 2540,-1056"/>
<text text-anchor="middle" x="2406" y="-1044" font-family="Helvetica" font-size="10.00">B10</text>
<text text-anchor="middle" x="2406" y="-1033" font-family="Helvetica" font-size="10.00">Loop: L0</text>
<text text-anchor="middle" x="2406" y="-1022" font-family="Helvetica" font-size="10.00">&#45;&#45;&#45;</text>
<text text-anchor="middle" x="2406" y="-1011" font-family="Helvetica" font-size="10.00">HotSpotMethod&lt;LoopBenchmarks.bubbleSortLoop(int[])&gt;</text>
</g>
<!-- b8&#45;&gt;b10 -->
<g id="edge14" class="edge">
<title>b8&#45;&gt;b10</title>
<path fill="none" stroke="black" d="M2164.18,-1030C2195.71,-1030 2229.47,-1030 2261.44,-1030"/>
<polygon fill="black" stroke="black" points="2261.75,-1033.5 2271.75,-1030 2261.75,-1026.5 2261.75,-1033.5"/>
</g>
<!-- b14 -->
<g id="node15" class="node">
<title>b14</title>
<polygon fill="lightblue" stroke="black" stroke-width="4" points="3296,-1235.5 3028,-1235.5 3028,-1150.5 3296,-1150.5 3296,-1235.5"/>
<polygon fill="none" stroke="black" stroke-width="4" points="3300,-1239.5 3024,-1239.5 3024,-1146.5 3300,-1146.5 3300,-1239.5"/>
<text text-anchor="middle" x="3162" y="-1223.5" font-family="Helvetica" font-size="10.00">B14</text>
<text text-anchor="middle" x="3162" y="-1212.5" font-family="Helvetica" font-size="10.00">Loop: L0</text>
<text text-anchor="middle" x="3162" y="-1201.5" font-family="Helvetica" font-size="10.00">&#45;&#45;&#45;</text>
<text text-anchor="middle" x="3162" y="-1190.5" font-family="Helvetica" font-size="10.00">HotSpotMethod&lt;LoopBenchmarks.bubbleSortLoop(int[])&gt;</text>
<text text-anchor="middle" x="3162" y="-1179.5" font-family="Helvetica" font-size="10.00">&#45;&#45;&#45;</text>
<text text-anchor="middle" x="3162" y="-1168.5" font-family="Helvetica" font-size="10.00">BuboLoopMakers:</text>
<text text-anchor="middle" x="3162" y="-1157.5" font-family="Helvetica" font-size="10.00"> &#160;AMD64BuboRDTSCToSlot (LoopID=1)</text>
</g>
<!-- b8&#45;&gt;b14 -->
<g id="edge13" class="edge">
<title>b8&#45;&gt;b14</title>
<path fill="none" stroke="black" d="M2062.77,-1056.08C2149.68,-1125.54 2401.35,-1314.07 2648,-1379 2763.19,-1409.32 2803.11,-1417 2916,-1379 2993.35,-1352.97 3065.66,-1291.73 3111.38,-1246.6"/>
<polygon fill="black" stroke="black" points="3113.89,-1249.04 3118.49,-1239.5 3108.94,-1244.09 3113.89,-1249.04"/>
</g>
<!-- b9 -->
<g id="node10" class="node">
<title>b9</title>
<polygon fill="lightblue" stroke="black" points="2916,-1343 2648,-1343 2648,-1291 2916,-1291 2916,-1343"/>
<text text-anchor="middle" x="2782" y="-1331" font-family="Helvetica" font-size="10.00">B9</text>
<text text-anchor="middle" x="2782" y="-1320" font-family="Helvetica" font-size="10.00">Loop: L0</text>
<text text-anchor="middle" x="2782" y="-1309" font-family="Helvetica" font-size="10.00">&#45;&#45;&#45;</text>
<text text-anchor="middle" x="2782" y="-1298" font-family="Helvetica" font-size="10.00">HotSpotMethod&lt;LoopBenchmarks.bubbleSortLoop(int[])&gt;</text>
</g>
<!-- b9&#45;&gt;b14 -->
<g id="edge15" class="edge">
<title>b9&#45;&gt;b14</title>
<path fill="none" stroke="black" d="M2862.7,-1290.85C2906.65,-1276.44 2962.6,-1258.08 3014.14,-1241.17"/>
<polygon fill="black" stroke="black" points="3015.3,-1244.48 3023.71,-1238.04 3013.12,-1237.83 3015.3,-1244.48"/>
</g>
<!-- b11 -->
<g id="node12" class="node">
<title>b11</title>
<polygon fill="lightblue" stroke="black" points="2916,-1095 2648,-1095 2648,-1043 2916,-1043 2916,-1095"/>
<text text-anchor="middle" x="2782" y="-1083" font-family="Helvetica" font-size="10.00">B11</text>
<text text-anchor="middle" x="2782" y="-1072" font-family="Helvetica" font-size="10.00">Loop: L0</text>
<text text-anchor="middle" x="2782" y="-1061" font-family="Helvetica" font-size="10.00">&#45;&#45;&#45;</text>
<text text-anchor="middle" x="2782" y="-1050" font-family="Helvetica" font-size="10.00">HotSpotMethod&lt;LoopBenchmarks.bubbleSortLoop(int[])&gt;</text>
</g>
<!-- b10&#45;&gt;b11 -->
<g id="edge16" class="edge">
<title>b10&#45;&gt;b11</title>
<path fill="none" stroke="black" d="M2540.18,-1043.89C2571.71,-1047.18 2605.47,-1050.7 2637.44,-1054.03"/>
<polygon fill="black" stroke="black" points="2637.44,-1057.55 2647.75,-1055.1 2638.17,-1050.59 2637.44,-1057.55"/>
</g>
<!-- b10&#45;&gt;b23 -->
<g id="edge17" class="edge">
<title>b10&#45;&gt;b23</title>
<path fill="none" stroke="black" d="M2524.58,-1003.94C2632.82,-976.14 2794.53,-924.7 2916,-843 3013.52,-777.41 3098.69,-665.08 3137.96,-608.59"/>
<polygon fill="black" stroke="black" points="3141.07,-610.24 3143.86,-600.02 3135.31,-606.27 3141.07,-610.24"/>
</g>
<!-- b11&#45;&gt;b14 -->
<g id="edge19" class="edge">
<title>b11&#45;&gt;b14</title>
<path fill="none" stroke="black" d="M2862.7,-1095.15C2906.65,-1109.56 2962.6,-1127.92 3014.14,-1144.83"/>
<polygon fill="black" stroke="black" points="3013.12,-1148.17 3023.71,-1147.96 3015.3,-1141.52 3013.12,-1148.17"/>
</g>
<!-- b11&#45;&gt;b23 -->
<g id="edge18" class="edge">
<title>b11&#45;&gt;b23</title>
<path fill="none" stroke="black" d="M2839.74,-1042.95C2865.12,-1029.38 2894.18,-1011 2916,-989 3032.86,-871.17 3115.71,-686.81 3147.1,-609.74"/>
<polygon fill="black" stroke="black" points="3150.52,-610.61 3151.01,-600.02 3144.03,-607.99 3150.52,-610.61"/>
</g>
<!-- b12 -->
<g id="node13" class="node">
<title>b12</title>
<polygon fill="white" stroke="black" points="2916,-409 2648,-409 2648,-357 2916,-357 2916,-409"/>
<text text-anchor="middle" x="2782" y="-397" font-family="Helvetica" font-size="10.00">B12</text>
<text text-anchor="middle" x="2782" y="-386" font-family="Helvetica" font-size="10.00">Loop: &lt;none&gt;</text>
<text text-anchor="middle" x="2782" y="-375" font-family="Helvetica" font-size="10.00">&#45;&#45;&#45;</text>
<text text-anchor="middle" x="2782" y="-364" font-family="Helvetica" font-size="10.00">HotSpotMethod&lt;LoopBenchmarks.bubbleSortLoop(int[])&gt;</text>
</g>
<!-- b12&#45;&gt;b23 -->
<g id="edge20" class="edge">
<title>b12&#45;&gt;b23</title>
<path fill="none" stroke="black" d="M2840.57,-409.1C2864.08,-419.95 2891.47,-432.83 2916,-445 2981.07,-477.27 3054.68,-516.39 3104.07,-543.03"/>
<polygon fill="black" stroke="black" points="3102.55,-546.18 3113.01,-547.85 3105.87,-540.02 3102.55,-546.18"/>
</g>
<!-- b13 -->
<g id="node14" class="node">
<title>b13</title>
<polygon fill="lightblue" stroke="black" points="2916,-1219 2648,-1219 2648,-1167 2916,-1167 2916,-1219"/>
<text text-anchor="middle" x="2782" y="-1207" font-family="Helvetica" font-size="10.00">B13</text>
<text text-anchor="middle" x="2782" y="-1196" font-family="Helvetica" font-size="10.00">Loop: L0</text>
<text text-anchor="middle" x="2782" y="-1185" font-family="Helvetica" font-size="10.00">&#45;&#45;&#45;</text>
<text text-anchor="middle" x="2782" y="-1174" font-family="Helvetica" font-size="10.00">HotSpotMethod&lt;LoopBenchmarks.bubbleSortLoop(int[])&gt;</text>
</g>
<!-- b13&#45;&gt;b14 -->
<g id="edge21" class="edge">
<title>b13&#45;&gt;b14</title>
<path fill="none" stroke="black" d="M2916,-1193C2947.57,-1193 2981.42,-1193 3013.58,-1193"/>
<polygon fill="black" stroke="black" points="3013.96,-1196.5 3023.96,-1193 3013.96,-1189.5 3013.96,-1196.5"/>
</g>
<!-- b15 -->
<g id="node16" class="node">
<title>b15</title>
<polygon fill="lightgreen" stroke="black" points="3676,-1026 3408,-1026 3408,-974 3676,-974 3676,-1026"/>
<text text-anchor="middle" x="3542" y="-1014" font-family="Helvetica" font-size="10.00">B15</text>
<text text-anchor="middle" x="3542" y="-1003" font-family="Helvetica" font-size="10.00">Loop: L1</text>
<text text-anchor="middle" x="3542" y="-992" font-family="Helvetica" font-size="10.00">&#45;&#45;&#45;</text>
<text text-anchor="middle" x="3542" y="-981" font-family="Helvetica" font-size="10.00">HotSpotMethod&lt;LoopBenchmarks.bubbleSortLoop(int[])&gt;</text>
</g>
<!-- b14&#45;&gt;b15 -->
<g id="edge22" class="edge">
<title>b14&#45;&gt;b15</title>
<path fill="none" stroke="black" d="M3254.5,-1146.28C3324.75,-1110.41 3419.74,-1061.91 3480.7,-1030.79"/>
<polygon fill="black" stroke="black" points="3482.5,-1033.8 3489.81,-1026.14 3479.31,-1027.57 3482.5,-1033.8"/>
</g>
<!-- b16 -->
<g id="node17" class="node">
<title>b16</title>
<polygon fill="lightgreen" stroke="black" points="4056,-1094 3788,-1094 3788,-1042 4056,-1042 4056,-1094"/>
<text text-anchor="middle" x="3922" y="-1082" font-family="Helvetica" font-size="10.00">B16</text>
<text text-anchor="middle" x="3922" y="-1071" font-family="Helvetica" font-size="10.00">Loop: L1</text>
<text text-anchor="middle" x="3922" y="-1060" font-family="Helvetica" font-size="10.00">&#45;&#45;&#45;</text>
<text text-anchor="middle" x="3922" y="-1049" font-family="Helvetica" font-size="10.00">HotSpotMethod&lt;LoopBenchmarks.bubbleSortLoop(int[])&gt;</text>
</g>
<!-- b15&#45;&gt;b16 -->
<g id="edge23" class="edge">
<title>b15&#45;&gt;b16</title>
<path fill="none" stroke="black" d="M3676,-1023.93C3709,-1029.86 3744.5,-1036.25 3777.96,-1042.27"/>
<polygon fill="black" stroke="black" points="3777.34,-1045.71 3787.8,-1044.04 3778.58,-1038.82 3777.34,-1045.71"/>
</g>
<!-- b18 -->
<g id="node19" class="node">
<title>b18</title>
<polygon fill="lightblue" stroke="black" stroke-width="4" points="4056,-560.5 3788,-560.5 3788,-475.5 4056,-475.5 4056,-560.5"/>
<polygon fill="none" stroke="black" stroke-width="4" points="4060,-564.5 3784,-564.5 3784,-471.5 4060,-471.5 4060,-564.5"/>
<text text-anchor="middle" x="3922" y="-548.5" font-family="Helvetica" font-size="10.00">B18</text>
<text text-anchor="middle" x="3922" y="-537.5" font-family="Helvetica" font-size="10.00">Loop: L0</text>
<text text-anchor="middle" x="3922" y="-526.5" font-family="Helvetica" font-size="10.00">&#45;&#45;&#45;</text>
<text text-anchor="middle" x="3922" y="-515.5" font-family="Helvetica" font-size="10.00">HotSpotMethod&lt;LoopBenchmarks.bubbleSortLoop(int[])&gt;</text>
<text text-anchor="middle" x="3922" y="-504.5" font-family="Helvetica" font-size="10.00">&#45;&#45;&#45;</text>
<text text-anchor="middle" x="3922" y="-493.5" font-family="Helvetica" font-size="10.00">BuboLoopMakers:</text>
<text text-anchor="middle" x="3922" y="-482.5" font-family="Helvetica" font-size="10.00"> &#160;AMD64BuboWriteDeltaRDTSC (LoopID=1)</text>
</g>
<!-- b15&#45;&gt;b18 -->
<g id="edge24" class="edge">
<title>b15&#45;&gt;b18</title>
<path fill="none" stroke="black" d="M3563.59,-973.74C3623.14,-897.81 3796.48,-676.78 3877.86,-573.01"/>
<polygon fill="black" stroke="black" points="3880.85,-574.87 3884.26,-564.84 3875.34,-570.55 3880.85,-574.87"/>
</g>
<!-- b17 -->
<g id="node18" class="node">
<title>b17</title>
<polygon fill="lightgreen" stroke="black" points="4436,-965 4168,-965 4168,-913 4436,-913 4436,-965"/>
<text text-anchor="middle" x="4302" y="-953" font-family="Helvetica" font-size="10.00">B17</text>
<text text-anchor="middle" x="4302" y="-942" font-family="Helvetica" font-size="10.00">Loop: L1</text>
<text text-anchor="middle" x="4302" y="-931" font-family="Helvetica" font-size="10.00">&#45;&#45;&#45;</text>
<text text-anchor="middle" x="4302" y="-920" font-family="Helvetica" font-size="10.00">HotSpotMethod&lt;LoopBenchmarks.bubbleSortLoop(int[])&gt;</text>
</g>
<!-- b16&#45;&gt;b17 -->
<g id="edge25" class="edge">
<title>b16&#45;&gt;b17</title>
<path fill="none" stroke="black" d="M3999.49,-1041.89C4061.87,-1020.61 4149.96,-990.55 4214.82,-968.41"/>
<polygon fill="black" stroke="black" points="4216.29,-971.61 4224.62,-965.07 4214.03,-964.98 4216.29,-971.61"/>
</g>
<!-- b20 -->
<g id="node21" class="node">
<title>b20</title>
<polygon fill="white" stroke="black" points="4436,-1094 4168,-1094 4168,-1042 4436,-1042 4436,-1094"/>
<text text-anchor="middle" x="4302" y="-1082" font-family="Helvetica" font-size="10.00">B20</text>
<text text-anchor="middle" x="4302" y="-1071" font-family="Helvetica" font-size="10.00">Loop: &lt;none&gt;</text>
<text text-anchor="middle" x="4302" y="-1060" font-family="Helvetica" font-size="10.00">&#45;&#45;&#45;</text>
<text text-anchor="middle" x="4302" y="-1049" font-family="Helvetica" font-size="10.00">HotSpotMethod&lt;LoopBenchmarks.bubbleSortLoop(int[])&gt;</text>
</g>
<!-- b16&#45;&gt;b20 -->
<g id="edge26" class="edge">
<title>b16&#45;&gt;b20</title>
<path fill="none" stroke="black" d="M4056,-1068C4088.86,-1068 4124.2,-1068 4157.53,-1068"/>
<polygon fill="black" stroke="black" points="4157.8,-1071.5 4167.8,-1068 4157.8,-1064.5 4157.8,-1071.5"/>
</g>
<!-- b17&#45;&gt;b15 -->
<g id="edge27" class="edge">
<title>b17&#45;&gt;b15</title>
<path fill="none" stroke="black" d="M4167.77,-949.72C4032.91,-960.57 3825.06,-977.3 3686.6,-988.44"/>
<polygon fill="black" stroke="black" points="3686.02,-984.98 3676.34,-989.27 3686.58,-991.96 3686.02,-984.98"/>
</g>
<!-- b18&#45;&gt;b1 -->
<g id="edge28" class="edge">
<title>b18&#45;&gt;b1</title>
<path fill="none" stroke="black" d="M3886.72,-471.12C3789.13,-343.61 3495.33,0 3163,0 1277,0 1277,0 1277,0 981.72,0 670.51,-211.36 560.47,-293.71"/>
<polygon fill="black" stroke="black" points="558.17,-291.06 552.28,-299.87 562.38,-296.65 558.17,-291.06"/>
</g>
<!-- b21 -->
<g id="node22" class="node">
<title>b21</title>
<polygon fill="white" stroke="black" points="2916,-285 2648,-285 2648,-233 2916,-233 2916,-285"/>
<text text-anchor="middle" x="2782" y="-273" font-family="Helvetica" font-size="10.00">B21</text>
<text text-anchor="middle" x="2782" y="-262" font-family="Helvetica" font-size="10.00">Loop: &lt;none&gt;</text>
<text text-anchor="middle" x="2782" y="-251" font-family="Helvetica" font-size="10.00">&#45;&#45;&#45;</text>
<text text-anchor="middle" x="2782" y="-240" font-family="Helvetica" font-size="10.00">HotSpotMethod&lt;LoopBenchmarks.bubbleSortLoop(int[])&gt;</text>
</g>
<!-- b21&#45;&gt;b23 -->
<g id="edge29" class="edge">
<title>b21&#45;&gt;b23</title>
<path fill="none" stroke="black" d="M2851.26,-285.06C2872.89,-294.8 2896.29,-306.96 2916,-321 3007,-385.81 3092.92,-487 3134.64,-539.61"/>
<polygon fill="black" stroke="black" points="3132.02,-541.93 3140.95,-547.63 3137.52,-537.6 3132.02,-541.93"/>
</g>
<!-- b22 -->
<g id="node23" class="node">
<title>b22</title>
<polygon fill="white" stroke="black" points="2916,-161 2648,-161 2648,-109 2916,-109 2916,-161"/>
<text text-anchor="middle" x="2782" y="-149" font-family="Helvetica" font-size="10.00">B22</text>
<text text-anchor="middle" x="2782" y="-138" font-family="Helvetica" font-size="10.00">Loop: &lt;none&gt;</text>
<text text-anchor="middle" x="2782" y="-127" font-family="Helvetica" font-size="10.00">&#45;&#45;&#45;</text>
<text text-anchor="middle" x="2782" y="-116" font-family="Helvetica" font-size="10.00">HotSpotMethod&lt;LoopBenchmarks.bubbleSortLoop(int[])&gt;</text>
</g>
<!-- b22&#45;&gt;b23 -->
<g id="edge30" class="edge">
<title>b22&#45;&gt;b23</title>
<path fill="none" stroke="black" d="M2857.79,-161.06C2878.07,-170.37 2899.08,-182.3 2916,-197 3031.6,-297.45 3113.91,-465.36 3146.06,-538.33"/>
<polygon fill="black" stroke="black" points="3142.88,-539.8 3150.09,-547.57 3149.3,-537.01 3142.88,-539.8"/>
</g>
</g>
</svg>
